<svg width="79" height="29" viewBox="0 0 79 29" fill="none" xmlns="http://www.w3.org/2000/svg">
<rect width="79" height="29" rx="4" fill="#0B2C4C"/>
<path d="M21.3605 8.92C21.6592 8.87333 22.0045 8.836 22.3965 8.808C22.7885 8.78 23.2785 8.766 23.8665 8.766C24.3799 8.766 24.8652 8.808 25.3225 8.892C25.7799 8.976 26.1765 9.12067 26.5125 9.326C26.8579 9.522 27.1285 9.788 27.3245 10.124C27.5205 10.46 27.6185 10.88 27.6185 11.384C27.6185 11.6827 27.5719 11.9627 27.4785 12.224C27.3945 12.476 27.2779 12.7 27.1285 12.896C26.9792 13.0827 26.8112 13.2413 26.6245 13.372C26.4379 13.4933 26.2465 13.568 26.0505 13.596C26.2652 13.624 26.5032 13.6893 26.7645 13.792C27.0259 13.8947 27.2685 14.0487 27.4925 14.254C27.7165 14.45 27.9032 14.7067 28.0525 15.024C28.2019 15.3413 28.2765 15.724 28.2765 16.172C28.2765 16.7787 28.1599 17.278 27.9265 17.67C27.7025 18.0527 27.3945 18.356 27.0025 18.58C26.6199 18.804 26.1719 18.958 25.6585 19.042C25.1545 19.126 24.6225 19.168 24.0625 19.168C23.6332 19.168 23.2085 19.154 22.7885 19.126C22.3685 19.1073 21.8925 19.0653 21.3605 19V8.92ZM23.3905 17.46C23.5212 17.4787 23.6705 17.4927 23.8385 17.502C24.0159 17.5113 24.1745 17.516 24.3145 17.516C24.5105 17.516 24.7159 17.4973 24.9305 17.46C25.1452 17.4227 25.3459 17.3527 25.5325 17.25C25.7192 17.138 25.8732 16.9887 25.9945 16.802C26.1159 16.606 26.1765 16.354 26.1765 16.046C26.1765 15.7567 26.1299 15.5187 26.0365 15.332C25.9432 15.136 25.8079 14.982 25.6305 14.87C25.4625 14.7487 25.2572 14.6647 25.0145 14.618C24.7812 14.5713 24.5199 14.548 24.2305 14.548H23.3905V17.46ZM24.0065 13.008C24.2399 13.008 24.4545 12.9893 24.6505 12.952C24.8559 12.9053 25.0332 12.8307 25.1825 12.728C25.3319 12.616 25.4485 12.4713 25.5325 12.294C25.6165 12.1073 25.6585 11.874 25.6585 11.594C25.6585 11.3233 25.6072 11.104 25.5045 10.936C25.4112 10.7587 25.2852 10.6233 25.1265 10.53C24.9772 10.4273 24.8045 10.362 24.6085 10.334C24.4219 10.2967 24.2352 10.278 24.0485 10.278C23.7872 10.278 23.5679 10.292 23.3905 10.32V13.008H24.0065ZM32.8751 19.168C32.2871 19.168 31.7738 19.0747 31.3351 18.888C30.9058 18.692 30.5464 18.426 30.2571 18.09C29.9771 17.7447 29.7624 17.3433 29.6131 16.886C29.4731 16.4287 29.4031 15.934 29.4031 15.402C29.4031 14.87 29.4731 14.3707 29.6131 13.904C29.7624 13.4373 29.9771 13.036 30.2571 12.7C30.5464 12.3547 30.9058 12.084 31.3351 11.888C31.7738 11.692 32.2871 11.594 32.8751 11.594C33.4631 11.594 33.9764 11.692 34.4151 11.888C34.8538 12.084 35.2178 12.3547 35.5071 12.7C35.7964 13.036 36.0111 13.4373 36.1511 13.904C36.2911 14.3707 36.3611 14.87 36.3611 15.402C36.3611 15.934 36.2911 16.4287 36.1511 16.886C36.0111 17.3433 35.7964 17.7447 35.5071 18.09C35.2178 18.426 34.8538 18.692 34.4151 18.888C33.9764 19.0747 33.4631 19.168 32.8751 19.168ZM32.8751 17.656C33.3978 17.656 33.7711 17.4647 33.9951 17.082C34.2284 16.69 34.3451 16.13 34.3451 15.402C34.3451 14.674 34.2284 14.1187 33.9951 13.736C33.7711 13.344 33.3978 13.148 32.8751 13.148C32.3618 13.148 31.9884 13.344 31.7551 13.736C31.5311 14.1187 31.4191 14.674 31.4191 15.402C31.4191 16.13 31.5311 16.69 31.7551 17.082C31.9884 17.4647 32.3618 17.656 32.8751 17.656ZM38.1262 13.274H37.2162L37.1462 12.994L39.7642 9.648H40.0862V11.762H41.7802C41.8082 11.902 41.8269 12.028 41.8362 12.14C41.8455 12.252 41.8502 12.3687 41.8502 12.49C41.8502 12.6207 41.8455 12.7467 41.8362 12.868C41.8269 12.9893 41.8082 13.1247 41.7802 13.274H40.0862V16.116C40.0862 16.4053 40.1095 16.6387 40.1562 16.816C40.2029 16.9933 40.2682 17.1333 40.3522 17.236C40.4455 17.3387 40.5575 17.4087 40.6882 17.446C40.8189 17.4833 40.9729 17.502 41.1502 17.502C41.2902 17.502 41.4255 17.4927 41.5562 17.474C41.6962 17.446 41.8175 17.4227 41.9202 17.404C41.9855 17.5813 42.0322 17.768 42.0602 17.964C42.0882 18.1507 42.1022 18.3187 42.1022 18.468C42.1022 18.5707 42.0975 18.6593 42.0882 18.734C42.0882 18.7993 42.0835 18.8647 42.0742 18.93C41.6449 19.0327 41.2015 19.084 40.7442 19.084C39.8949 19.084 39.2462 18.888 38.7982 18.496C38.3502 18.0947 38.1262 17.446 38.1262 16.55V13.274ZM46.3556 19.168C45.7676 19.168 45.2542 19.0747 44.8156 18.888C44.3862 18.692 44.0269 18.426 43.7376 18.09C43.4576 17.7447 43.2429 17.3433 43.0936 16.886C42.9536 16.4287 42.8836 15.934 42.8836 15.402C42.8836 14.87 42.9536 14.3707 43.0936 13.904C43.2429 13.4373 43.4576 13.036 43.7376 12.7C44.0269 12.3547 44.3862 12.084 44.8156 11.888C45.2542 11.692 45.7676 11.594 46.3556 11.594C46.9436 11.594 47.4569 11.692 47.8956 11.888C48.3342 12.084 48.6982 12.3547 48.9876 12.7C49.2769 13.036 49.4916 13.4373 49.6316 13.904C49.7716 14.3707 49.8416 14.87 49.8416 15.402C49.8416 15.934 49.7716 16.4287 49.6316 16.886C49.4916 17.3433 49.2769 17.7447 48.9876 18.09C48.6982 18.426 48.3342 18.692 47.8956 18.888C47.4569 19.0747 46.9436 19.168 46.3556 19.168ZM46.3556 17.656C46.8782 17.656 47.2516 17.4647 47.4756 17.082C47.7089 16.69 47.8256 16.13 47.8256 15.402C47.8256 14.674 47.7089 14.1187 47.4756 13.736C47.2516 13.344 46.8782 13.148 46.3556 13.148C45.8422 13.148 45.4689 13.344 45.2356 13.736C45.0116 14.1187 44.8996 14.674 44.8996 15.402C44.8996 16.13 45.0116 16.69 45.2356 17.082C45.4689 17.4647 45.8422 17.656 46.3556 17.656ZM46.4956 8.934C46.8689 8.878 47.2889 8.85 47.7556 8.85C47.9982 8.85 48.2036 8.85933 48.3716 8.878C48.5489 8.88733 48.7309 8.906 48.9176 8.934L46.8036 10.656C46.6822 10.6747 46.5376 10.6933 46.3696 10.712C46.2016 10.7307 46.0242 10.74 45.8376 10.74C45.5389 10.74 45.2356 10.712 44.9276 10.656L46.4956 8.934ZM51.4107 11.762C51.5413 11.734 51.672 11.7153 51.8027 11.706C51.9333 11.6873 52.078 11.678 52.2367 11.678C52.3953 11.678 52.5353 11.6873 52.6567 11.706C52.778 11.7153 52.904 11.734 53.0347 11.762C53.0627 11.8087 53.086 11.8787 53.1047 11.972C53.1327 12.056 53.156 12.1493 53.1747 12.252C53.1933 12.3453 53.2073 12.4387 53.2167 12.532C53.2353 12.6253 53.2493 12.7047 53.2587 12.77C53.352 12.63 53.464 12.49 53.5947 12.35C53.7253 12.21 53.8747 12.084 54.0427 11.972C54.22 11.86 54.416 11.7713 54.6307 11.706C54.8453 11.6313 55.0833 11.594 55.3447 11.594C56.166 11.594 56.782 11.818 57.1927 12.266C57.6127 12.714 57.8227 13.4187 57.8227 14.38V19C57.4867 19.056 57.1553 19.084 56.8287 19.084C56.502 19.084 56.1707 19.056 55.8347 19V14.912C55.8347 14.408 55.7553 14.0207 55.5967 13.75C55.4473 13.4793 55.1813 13.344 54.7987 13.344C54.64 13.344 54.4767 13.3673 54.3087 13.414C54.1407 13.4607 53.9867 13.554 53.8467 13.694C53.716 13.8247 53.6087 14.0113 53.5247 14.254C53.4407 14.4967 53.3987 14.814 53.3987 15.206V19C53.0627 19.056 52.7313 19.084 52.4047 19.084C52.078 19.084 51.7467 19.056 51.4107 19V11.762Z" fill="white"/>
</svg>
