<svg width="37" height="46" viewBox="0 0 37 46" fill="none" xmlns="http://www.w3.org/2000/svg">
<path d="M36.4448 30.8756L32.931 27.596V22.3964C32.931 21.2506 32.0907 20.1811 31.0213 20.0284C30.4101 19.952 29.7226 20.1047 29.1879 20.5631C28.6532 21.0214 28.3476 21.6325 28.3476 22.32V23.3182L27.2782 22.32C25.9795 21.0979 25.2157 19.4172 25.2157 17.6604C25.2157 15.5215 24.3753 13.459 22.8476 12.0075L22.2157 11.3756C22.0541 8.29683 21.4017 5.07266 20.3268 1.84785L20.174 1.46588C19.9448 0.701929 19.2573 0.167236 18.417 0.167236C17.5767 0.167236 16.8892 0.701929 16.66 1.46588L16.5072 1.84785C15.4398 5.0501 14.8348 8.29746 14.6523 11.3416L13.91 12.0839C12.3822 13.5353 11.542 15.5978 11.542 17.7367C11.542 19.4937 10.7782 21.1742 9.47951 22.3964L8.48649 23.3233V22.3964C8.48649 21.2506 7.64618 20.1811 6.57679 20.0284C5.96565 19.952 5.27815 20.1047 4.74346 20.5631C4.20877 21.0214 3.90315 21.6325 3.90315 22.32V27.6011L0.312846 30.9519C0.160038 31.1047 0.0836792 31.2575 0.0836792 31.4866V34.5422C0.0836792 34.9242 0.312846 35.2297 0.618372 35.3061L3.90306 36.1434V39.8894C3.90306 40.7297 4.59056 41.4172 5.43087 41.4172H6.95868C7.79899 41.4172 8.48649 40.7297 8.48649 39.8894V37.3196C9.13693 37.5567 9.64091 38.0027 9.86149 38.5908C10.0907 39.2019 10.0907 39.8894 9.70868 40.5005L7.11149 44.8546C6.88232 45.0838 6.95868 45.4658 7.11149 45.695C7.2643 45.8478 7.49346 46.0005 7.72263 46.0005C7.79899 46.0005 7.79899 46.0005 7.87544 46.0005L14.7504 44.4727C15.056 44.3963 15.2851 44.1671 15.3616 43.8615L15.8453 41.4428C16.5883 41.9344 17.485 42.181 18.4171 42.181C19.3391 42.181 20.2262 41.9392 20.9874 41.4352L21.4727 43.8615C21.5491 44.1671 21.7782 44.3962 22.0839 44.4727L28.9587 46.0006C29.035 46.0006 29.035 46.0006 29.1115 46.0006C29.3407 46.0006 29.5698 45.9242 29.7226 45.695C29.8754 45.4659 29.8754 45.0839 29.7226 44.8547L27.1254 40.5006C26.7435 39.8894 26.6671 39.2784 26.9726 38.5909C27.2666 37.9293 27.7027 37.4809 28.3476 37.3118V39.8895C28.3476 40.7298 29.0351 41.4173 29.8754 41.4173H31.4032C32.2435 41.4173 32.9311 40.7298 32.9311 39.8895V36.0875L36.1394 35.2298C36.4449 35.077 36.7505 34.8479 36.7505 34.466V31.4104C36.7503 31.2575 36.5975 31.0284 36.4448 30.8756ZM5.43087 22.32C5.43087 22.0909 5.50723 21.5562 6.19473 21.5562C6.65306 21.5562 6.95859 21.9382 6.95859 22.32V24.6881L5.43078 26.1394L5.43087 22.32ZM29.8753 22.32C29.8753 22.0909 29.9517 21.9381 30.1809 21.7854C30.3337 21.6325 30.5628 21.5562 30.792 21.6325C31.0975 21.7089 31.4032 22.0909 31.4032 22.4729V26.17L29.8753 24.7441V22.32ZM6.95868 39.8894H5.43087V36.6047L6.95868 36.9867V39.8894ZM9.32671 44.1672L11.0072 41.3409C11.6184 40.3479 11.6947 39.1256 11.2364 38.0562C10.7781 36.9867 9.93776 36.2229 8.79192 35.9173L8.05528 35.7215C8.02189 35.7084 7.98733 35.6971 7.95162 35.6882L4.89609 34.8479C4.80057 34.816 4.69199 34.7985 4.58645 34.7988L1.6114 34.0075V31.8687L10.6253 23.4659C12.2294 21.9381 13.1461 19.8756 13.1461 17.6604C13.1461 16.1743 13.6534 14.7613 14.5949 13.6307C14.596 13.7261 14.5956 13.8225 14.5975 13.9173V39.8895C14.5975 39.9581 14.6051 40.0191 14.6188 40.0761L13.9864 43.0979L9.32671 44.1672ZM18.417 40.6534C17.5003 40.6534 16.7365 40.3479 16.1253 39.6604V13.9172C16.1253 13.549 16.1253 13.1803 16.1253 12.8004C16.1831 9.49906 16.793 5.87975 17.9587 2.38254L18.1115 2.00057C18.1878 1.7714 18.3407 1.69504 18.417 1.69504C18.4934 1.69504 18.6462 1.7714 18.7225 2.00057L18.8753 2.38254C19.8916 5.43127 20.4848 8.52618 20.659 11.4854C20.6416 11.5562 20.6323 11.6291 20.6323 11.7019C20.7087 12.5422 20.7087 13.2297 20.7087 13.9172V39.6603C20.174 40.3478 19.3337 40.6534 18.417 40.6534ZM31.4032 39.8894H29.8753V36.9866L31.4032 36.5283V39.8894ZM35.2225 34.0075L32.407 34.7644C32.2506 34.7437 32.0942 34.7957 31.9378 34.8479L28.8822 35.6882C28.8496 35.7045 28.818 35.7209 28.7872 35.7375L28.1183 35.9173C26.9725 36.2229 26.1321 36.9868 25.6738 38.0562C25.2155 39.1256 25.2918 40.3479 25.903 41.3409L27.5837 44.1672L22.924 43.0978L22.2365 39.8131V13.9172C22.2414 13.7944 22.243 13.6704 22.2462 13.547C23.2328 14.691 23.7642 16.1376 23.7642 17.6603C23.7642 19.8756 24.6809 21.9381 26.285 23.4658L28.442 25.4936C28.4772 25.5612 28.5218 25.6261 28.5767 25.6811L31.6322 28.5075C31.6651 28.5403 31.7019 28.5689 31.7403 28.5947L35.2225 31.8686V34.0075H35.2225Z" fill="white"/>
<path d="M10.549 27.8965C10.2434 27.591 9.78511 27.591 9.47949 27.8965L7.18782 30.1882C6.8823 30.4937 6.8823 30.952 7.18782 31.2576L9.47949 33.5493C9.6323 33.7021 9.78502 33.7785 10.0142 33.7785C10.2433 33.7785 10.3962 33.7021 10.5489 33.5493L12.8405 31.2576C13.1461 30.9521 13.1461 30.4938 12.8405 30.1882L10.549 27.8965ZM10.0142 31.9451L8.79199 30.723L10.0142 29.5008L11.2364 30.723L10.0142 31.9451Z" fill="white"/>
<path d="M27.3544 27.8965C27.0489 27.591 26.5905 27.591 26.2849 27.8965L23.9932 30.1882C23.6877 30.4937 23.6877 30.952 23.9932 31.2576L26.2849 33.5493C26.4377 33.7021 26.5904 33.7785 26.8196 33.7785C27.0488 33.7785 27.2016 33.7021 27.3543 33.5493L29.646 31.2576C29.9515 30.9521 29.9515 30.4938 29.646 30.1882L27.3544 27.8965ZM26.8197 31.9451L25.5975 30.723L26.8197 29.5008L28.0419 30.723L26.8197 31.9451Z" fill="white"/>
</svg>
