<svg width="58" height="46" viewBox="0 0 58 46" fill="none" xmlns="http://www.w3.org/2000/svg">
<path d="M57.2879 1.09224C57.2882 1.08552 57.2884 1.07891 57.2886 1.07219C57.2889 1.06447 57.2884 1.05687 57.2884 1.04916C57.2884 1.03484 57.2886 1.02051 57.288 1.0063C57.2874 0.99418 57.2861 0.982171 57.285 0.970161C57.2849 0.968619 57.2848 0.966966 57.2846 0.965424C57.2839 0.958483 57.2837 0.951431 57.2828 0.94449C57.2819 0.936667 57.2808 0.928955 57.2797 0.921243C57.2781 0.909894 57.2756 0.898656 57.2735 0.887308C57.2707 0.871552 57.2679 0.855797 57.2641 0.840152C57.2636 0.838499 57.2633 0.836846 57.2628 0.835194C57.2601 0.824176 57.2565 0.813379 57.2533 0.802361C57.2489 0.787046 57.2446 0.771842 57.2393 0.756748C57.2367 0.749476 57.2339 0.742425 57.2312 0.735263C57.2287 0.728652 57.2258 0.722372 57.2232 0.715761C57.2232 0.715651 57.2231 0.715431 57.223 0.715321C57.2179 0.702871 57.2132 0.690421 57.2075 0.678191C57.2013 0.664529 57.194 0.651418 57.187 0.638087C57.1836 0.631476 57.1803 0.624865 57.1767 0.618365C57.1736 0.612856 57.1708 0.607347 57.1677 0.601948C57.1567 0.583549 57.1446 0.56559 57.1324 0.547851C57.1284 0.542122 57.1251 0.536062 57.121 0.530333C57.1208 0.530002 57.1206 0.529782 57.1204 0.529452C57.1198 0.52868 57.1192 0.527909 57.1186 0.527138C57.1077 0.512264 57.0955 0.498051 57.0835 0.483728C57.076 0.474803 57.0689 0.465328 57.0612 0.456845C57.0578 0.453099 57.0541 0.449463 57.0505 0.445606C57.045 0.439657 57.039 0.434148 57.0332 0.428419C57.0211 0.416189 57.0092 0.403739 56.9966 0.39228C56.9958 0.391509 56.995 0.390738 56.9942 0.389967C56.9891 0.385339 56.9835 0.381593 56.9783 0.377186C56.9758 0.375093 56.9733 0.37311 56.9708 0.371016C56.967 0.367821 56.9638 0.364185 56.96 0.3611C56.9574 0.359117 56.9547 0.357685 56.9521 0.355592C56.9439 0.349091 56.9358 0.34248 56.9275 0.33631C56.9193 0.330361 56.9107 0.325182 56.9025 0.319453C56.887 0.308986 56.8716 0.29841 56.8556 0.289044C56.844 0.282103 56.8318 0.276153 56.8199 0.269873C56.8069 0.262932 56.794 0.255881 56.7807 0.249601C56.7752 0.247067 56.7697 0.244422 56.7641 0.241998C56.7606 0.240456 56.757 0.239354 56.7535 0.237812C56.7478 0.235388 56.742 0.233295 56.7363 0.230981C56.7251 0.226464 56.7139 0.221726 56.7026 0.217649C56.6904 0.213242 56.678 0.209717 56.6657 0.20597C56.6585 0.203767 56.6515 0.201564 56.6442 0.19958C56.6366 0.197487 56.629 0.195173 56.6213 0.19319C56.605 0.189113 56.5886 0.186139 56.572 0.182943C56.5628 0.181181 56.5536 0.178757 56.5443 0.177325C56.5418 0.176994 56.5393 0.176883 56.5369 0.176443C56.5217 0.174239 56.5064 0.172917 56.4912 0.171485C56.4781 0.170273 56.4651 0.16884 56.4519 0.168069C56.446 0.167739 56.4402 0.167408 56.4342 0.167298C56.4273 0.167078 56.4203 0.167519 56.4134 0.167519C56.4124 0.167519 56.4114 0.167519 56.4104 0.167519C56.3956 0.167519 56.3809 0.167298 56.3661 0.167959C56.3543 0.16851 56.3425 0.169832 56.3307 0.170824C56.3229 0.171485 56.3151 0.171926 56.3073 0.172807C56.2985 0.173799 56.2898 0.17479 56.2811 0.176112C56.2694 0.177765 56.2578 0.180299 56.2461 0.182392C56.2316 0.185147 56.2169 0.187461 56.2025 0.190876C56.2009 0.191317 56.1992 0.191868 56.1974 0.192308C56.1852 0.195283 56.1731 0.19914 56.161 0.202665C56.1461 0.206962 56.1312 0.211149 56.1166 0.216327C56.1094 0.218751 56.1025 0.221616 56.0954 0.22426C56.0935 0.224921 56.0917 0.225362 56.0898 0.226023L1.44177 21.3801C1.10198 21.5116 0.8781 21.8387 0.878541 22.203C0.878871 22.5674 1.10352 22.8939 1.44353 23.0247L17.7362 29.2912L22.957 45.3909C22.9578 45.3932 22.959 45.3951 22.9598 45.3974C22.9613 45.4021 22.9624 45.4069 22.9641 45.4117C22.9764 45.4468 22.9917 45.481 23.0086 45.5146C23.0121 45.5215 23.0157 45.5282 23.0194 45.5351C23.0358 45.5658 23.0538 45.5958 23.0741 45.6246C23.0768 45.6285 23.0791 45.6326 23.0818 45.6363C23.0832 45.6382 23.0845 45.6401 23.0859 45.6419C23.0875 45.6439 23.0891 45.6457 23.0906 45.6478C23.0973 45.6566 23.1046 45.6651 23.1117 45.6737C23.1201 45.684 23.128 45.6946 23.1368 45.7046C23.1436 45.7122 23.1511 45.7193 23.1583 45.7267C23.1616 45.7301 23.1649 45.7335 23.1682 45.7369C23.1733 45.742 23.178 45.7474 23.1832 45.7523C23.1886 45.7575 23.1938 45.7628 23.1993 45.7679C23.2046 45.7727 23.2103 45.7771 23.2158 45.7818C23.2328 45.7966 23.25 45.8111 23.268 45.8247C23.2691 45.8256 23.2701 45.8265 23.2712 45.8274C23.2729 45.8286 23.2749 45.8295 23.2765 45.8307C23.282 45.8346 23.2876 45.8383 23.2932 45.8421C23.3215 45.8619 23.3512 45.88 23.3822 45.8965C23.3872 45.8991 23.392 45.9025 23.3971 45.905C23.3987 45.9059 23.4004 45.9065 23.402 45.9074C23.4311 45.9218 23.461 45.9351 23.4922 45.9466C23.4989 45.949 23.5056 45.9507 23.5122 45.9529C23.5209 45.9558 23.5296 45.9585 23.5384 45.9611C23.5763 45.9727 23.6144 45.9821 23.6527 45.9885C23.6544 45.9888 23.6561 45.9893 23.6578 45.9897C23.6615 45.9902 23.6651 45.9901 23.6687 45.9907C23.7109 45.9968 23.7533 46.0006 23.7951 46.0006H23.7952C23.7986 46.0006 23.8021 45.9998 23.8055 45.9998C23.8417 45.9994 23.8779 45.9964 23.9138 45.9915C23.9192 45.9908 23.9247 45.9909 23.93 45.9901C23.9377 45.9889 23.9454 45.9861 23.9531 45.9847C23.981 45.9796 24.0085 45.9732 24.0359 45.9654C24.0448 45.9629 24.0538 45.9612 24.0626 45.9585C24.0642 45.958 24.0657 45.9578 24.0673 45.9574C24.0714 45.9561 24.0754 45.9541 24.0796 45.9526C24.0927 45.9482 24.1055 45.9429 24.1184 45.9379C24.1356 45.931 24.1526 45.9241 24.1692 45.9164C24.1717 45.9153 24.1742 45.9144 24.1768 45.9132C24.1782 45.9124 24.1799 45.912 24.1813 45.9113C24.1896 45.9074 24.1974 45.9025 24.2055 45.8982C24.2226 45.8893 24.2392 45.8798 24.2556 45.8699C24.2663 45.8633 24.277 45.8567 24.2875 45.8496C24.2876 45.8495 24.2877 45.8495 24.2878 45.8494C24.2909 45.8473 24.2941 45.8456 24.2972 45.8435C24.3119 45.8333 24.3257 45.8222 24.3397 45.8113C24.3479 45.8049 24.3561 45.7989 24.3641 45.7922C24.3728 45.7848 24.3812 45.777 24.3895 45.7693C24.396 45.7635 24.4022 45.7573 24.4086 45.7511C24.4357 45.7248 24.4615 45.6973 24.4849 45.6678C24.4869 45.6654 24.489 45.6631 24.491 45.6606C24.4935 45.6573 24.4957 45.6536 24.4982 45.6503C24.5 45.6479 24.5022 45.6458 24.5041 45.6433L30.9448 36.9398C31.2343 36.5484 31.1519 35.9966 30.7605 35.707C30.3693 35.4175 29.8172 35.5 29.5278 35.8912L26.7295 39.6727L28.9535 33.6013L50.0053 41.5915C50.1065 41.6298 50.2125 41.6489 50.318 41.6489C50.4722 41.6489 50.6256 41.6085 50.7622 41.5289C50.992 41.3948 51.149 41.1641 51.1893 40.9011L57.2794 1.18192C57.2797 1.18005 57.2796 1.17818 57.2798 1.1763C57.2819 1.16165 57.2831 1.147 57.2846 1.13234C57.2858 1.11901 57.2872 1.10568 57.2879 1.09224ZM50.4096 4.31548L25.2335 22.6002C24.8396 22.8862 24.7522 23.4374 25.0383 23.8313C25.2107 24.0688 25.4795 24.1948 25.7521 24.1948C25.9317 24.1948 26.1129 24.14 26.2694 24.0264L50.3194 6.55957L27.8109 31.8336C27.7235 31.9198 27.6522 32.0251 27.6058 32.1474C27.5979 32.1681 27.5918 32.1892 27.5856 32.2101L23.8461 42.4184L19.2834 28.3479C19.1982 28.0853 19.0013 27.8903 18.7624 27.7978C18.7611 27.7973 18.7599 27.7966 18.7585 27.7961L4.20843 22.1998L50.4096 4.31548ZM49.6118 39.5568L29.942 32.0912L55.0853 3.85879L49.6118 39.5568Z" fill="white"/>
<path d="M21.3172 27.4165C21.4968 27.4165 21.678 27.3618 21.8345 27.2482L23.5477 26.0038C23.9416 25.7178 24.029 25.1666 23.743 24.7727C23.4568 24.3788 22.9056 24.2914 22.5118 24.5775L20.7986 25.8218C20.4047 26.1078 20.3173 26.659 20.6033 27.0529C20.7758 27.2905 21.0446 27.4165 21.3172 27.4165Z" fill="white"/>
</svg>
