<svg width="185" height="156" viewBox="0 0 185 156" fill="none" xmlns="http://www.w3.org/2000/svg">
<path d="M184.167 16.877V140.922C171.273 150.299 155.377 155.833 138.177 155.833C120.977 155.833 104.233 150.299 91.3476 140.922C77.7053 129.712 60.2056 122.98 41.1264 122.98C26.0542 122.98 11.9713 127.176 0 134.471V16.877C0 7.55871 7.59844 0 16.976 0H167.182C176.194 0 183.568 6.98045 184.125 15.7948C184.158 16.15 184.167 16.5135 184.167 16.877Z" fill="url(#paint0_linear_309_2180)"/>
<path d="M184.167 138.807C171.273 129.431 155.378 123.888 138.177 123.888C120.977 123.888 103.577 129.96 90.3751 140.162C90.6993 140.418 91.0236 140.666 91.3395 140.922C104.225 150.298 120.977 155.833 138.169 155.833C155.361 155.833 171.264 150.298 184.159 140.922V138.807H184.167Z" fill="url(#paint1_linear_309_2180)"/>
<circle opacity="0.55" cx="42.9167" cy="42.9167" r="42.9167" fill="url(#paint2_linear_309_2180)"/>
<defs>
<linearGradient id="paint0_linear_309_2180" x1="-16.8283" y1="77.9167" x2="242.078" y2="77.9167" gradientUnits="userSpaceOnUse">
<stop offset="0.12" stop-color="#1081C5"/>
<stop offset="0.39" stop-color="#0C8DB9"/>
<stop offset="0.81" stop-color="#05AB9E"/>
</linearGradient>
<linearGradient id="paint1_linear_309_2180" x1="81.8048" y1="139.861" x2="213.66" y2="139.861" gradientUnits="userSpaceOnUse">
<stop offset="0.12" stop-color="#1081C5"/>
<stop offset="0.39" stop-color="#0C8DB9"/>
<stop offset="0.81" stop-color="#05AB9E"/>
</linearGradient>
<linearGradient id="paint2_linear_309_2180" x1="-7.84307" y1="42.9167" x2="112.824" y2="42.9167" gradientUnits="userSpaceOnUse">
<stop offset="0.12" stop-color="#1081C5"/>
<stop offset="0.39" stop-color="#0C8DB9"/>
<stop offset="0.81" stop-color="#05AB9E"/>
</linearGradient>
</defs>
</svg>
