<svg width="49" height="48" viewBox="0 0 49 48" fill="none" xmlns="http://www.w3.org/2000/svg">
<path d="M47.4029 5.19139C47.4029 6.56541 46.2252 7.74314 44.8512 7.74314C44.1642 7.74314 37.8829 7.74314 37.1959 7.74314C36.0182 7.74314 35.1349 6.85984 35.1349 5.68211C35.1349 4.50438 36.0182 3.62108 37.1959 3.62108C37.3922 3.62108 37.6866 3.62109 37.8829 3.71923C38.1774 2.24707 39.5514 1.16748 41.1217 1.16748C42.2994 1.16748 43.379 1.85449 43.9679 2.83593C44.2623 2.73779 44.5567 2.63964 44.8512 2.63964C46.2252 2.73779 47.4029 3.81737 47.4029 5.19139Z" stroke="white" stroke-width="1.66667" stroke-miterlimit="10" stroke-linecap="round" stroke-linejoin="round"/>
<path d="M17.9599 5.87841C17.9599 6.95799 17.0766 7.84129 15.997 7.84129C15.5063 7.84129 10.501 7.84129 9.9121 7.84129C9.02881 7.84129 8.24365 7.15428 8.24365 6.17284C8.24365 5.1914 8.93066 4.50439 9.9121 4.50439C10.1084 4.50439 10.3047 4.50439 10.4028 4.60253C10.6973 3.4248 11.6787 2.5415 12.9546 2.5415C13.936 2.5415 14.7212 3.03223 15.2119 3.81738C15.4082 3.71923 15.7026 3.71923 15.8989 3.71923C17.0766 3.91552 17.9599 4.79882 17.9599 5.87841Z" stroke="white" stroke-width="1.66667" stroke-miterlimit="10" stroke-linecap="round" stroke-linejoin="round"/>
<path d="M17.2726 15.3984C17.2726 16.1836 16.5855 16.8706 15.8004 16.8706C15.4078 16.8706 11.6783 16.8706 11.2858 16.8706C10.5988 16.8706 10.108 16.2817 10.108 15.6929C10.108 15.0059 10.6969 14.5151 11.2858 14.5151C11.3839 14.5151 11.5802 14.5151 11.6783 14.6133C11.8746 13.73 12.6598 13.1411 13.5431 13.1411C14.2301 13.1411 14.9171 13.5337 15.2115 14.1226C15.4078 14.0244 15.6041 14.0244 15.8004 14.0244C16.5855 13.9263 17.2726 14.6133 17.2726 15.3984Z" stroke="white" stroke-width="1.66667" stroke-miterlimit="10" stroke-linecap="round" stroke-linejoin="round"/>
<path d="M11.2857 21.7777C11.2857 22.8573 10.4024 23.7406 9.32285 23.7406C8.83213 23.7406 3.92492 23.7406 3.33605 23.7406C2.45276 23.7406 1.76575 23.0536 1.76575 22.1703C1.76575 21.287 2.45276 20.6 3.33605 20.6C3.53234 20.6 3.72863 20.6 3.82677 20.6981C4.12121 19.5204 5.10265 18.7352 6.28038 18.7352C7.26182 18.7352 8.04697 19.2259 8.5377 20.0111C8.73398 19.913 9.02842 19.913 9.2247 19.913C10.4024 19.8148 11.2857 20.6981 11.2857 21.7777Z" stroke="white" stroke-width="1.66667" stroke-miterlimit="10" stroke-linecap="round" stroke-linejoin="round"/>
<path d="M29.737 36.7933C30.2278 36.4989 30.8166 36.4008 31.4055 36.4008C32.9758 36.4008 34.3498 37.4803 34.7424 38.8544C35.6257 37.3822 37.2941 36.3026 39.1589 36.3026C42.0051 36.3026 44.2624 38.5599 44.2624 41.4061C44.2624 44.2523 42.0051 46.5096 39.1589 46.5096C37.3923 46.5096 35.7238 45.5282 34.8405 44.1541C34.5461 45.7245 33.0739 47.0003 31.4055 47.0003C30.0315 47.0003 28.7556 46.117 28.1667 44.9393C27.7741 45.1356 27.2834 45.2337 26.7927 45.2337C26.0076 45.2337 25.4187 44.9393 24.8298 44.4486C24.6335 45.8226 23.4558 46.9022 21.9836 46.9022C21.1003 46.9022 20.4133 46.5096 19.8245 45.9207C19.2356 46.5096 18.3523 46.9022 17.3709 46.9022C15.7024 46.9022 14.2303 45.7245 13.9358 44.056C13.0525 45.5282 11.4822 46.4115 9.61747 46.4115C6.77129 46.4115 4.51398 44.1541 4.51398 41.308C4.51398 38.4618 6.77129 36.2045 9.61747 36.2045C11.4822 36.2045 13.1507 37.1859 14.034 38.7562C14.5247 37.2841 15.8006 36.3026 17.3709 36.3026C17.9597 36.3026 18.5486 36.4989 19.0393 36.6952" stroke="white" stroke-width="1.66667" stroke-miterlimit="10" stroke-linecap="round" stroke-linejoin="round"/>
<path d="M26.8903 32.4758C26.8903 32.4758 28.755 36.8923 31.8956 39.5422" stroke="white" stroke-width="1.66667" stroke-miterlimit="10" stroke-linecap="round" stroke-linejoin="round"/>
<path d="M22.1797 32.4756C22.1797 32.4756 20.3149 36.8921 17.1743 39.542" stroke="white" stroke-width="1.66667" stroke-miterlimit="10" stroke-linecap="round" stroke-linejoin="round"/>
<path d="M28.1663 16.0859L37.0974 26.6855V29.1391H28.1663" stroke="white" stroke-width="1.66667" stroke-miterlimit="10" stroke-linecap="round" stroke-linejoin="round"/>
<path d="M20.9036 16.0857L11.9725 26.6853V29.1389H20.9036" stroke="white" stroke-width="1.66667" stroke-miterlimit="10" stroke-linecap="round" stroke-linejoin="round"/>
<path d="M20.9039 7.35107H28.1666V26.6855H20.9039V7.35107Z" stroke="white" stroke-width="1.66667" stroke-miterlimit="10" stroke-linecap="round" stroke-linejoin="round"/>
<path d="M28.1666 26.6855V31.2002C28.1666 32.0835 26.4982 32.7705 24.5353 32.7705C22.4742 32.7705 20.9039 32.0835 20.9039 31.2002V26.6855" stroke="white" stroke-width="1.66667" stroke-miterlimit="10" stroke-linecap="round" stroke-linejoin="round"/>
<path d="M20.9039 7.35032L24.5353 1.26538L28.1666 7.35032" stroke="white" stroke-width="1.66667" stroke-miterlimit="10" stroke-linecap="round" stroke-linejoin="round"/>
<path d="M24.5351 26.685V7.54688" stroke="white" stroke-width="1.66667" stroke-miterlimit="10" stroke-linecap="round" stroke-linejoin="round"/>
<path d="M42.888 13.6321C43.6732 13.6321 44.262 14.2209 44.262 15.0061C44.262 14.2209 44.8509 13.6321 45.636 13.6321" stroke="white" stroke-width="1.66667" stroke-miterlimit="10" stroke-linecap="round" stroke-linejoin="round"/>
<path d="M37.3925 16.5764C38.1776 16.5764 38.7665 17.1653 38.7665 17.9504C38.7665 17.1653 39.3553 16.5764 40.1405 16.5764" stroke="white" stroke-width="1.66667" stroke-miterlimit="10" stroke-linecap="round" stroke-linejoin="round"/>
<path d="M31.6999 13.6318C32.485 13.6318 33.0739 14.2207 33.0739 15.0059C33.0739 14.2207 33.6628 13.6318 34.4479 13.6318" stroke="white" stroke-width="1.66667" stroke-miterlimit="10" stroke-linecap="round" stroke-linejoin="round"/>
<path d="M7.75293 10.0981C8.53808 10.0981 9.12695 10.687 9.12695 11.4722C9.12695 10.687 9.71581 10.0981 10.501 10.0981" stroke="white" stroke-width="1.66667" stroke-miterlimit="10" stroke-linecap="round" stroke-linejoin="round"/>
<path d="M2.25732 12.9443C3.04248 12.9443 3.63134 13.5332 3.63134 14.3184C3.63134 13.5332 4.22021 12.9443 5.00536 12.9443" stroke="white" stroke-width="1.66667" stroke-miterlimit="10" stroke-linecap="round" stroke-linejoin="round"/>
</svg>
