<svg width="185" height="156" viewBox="0 0 185 156" fill="none" xmlns="http://www.w3.org/2000/svg">
<path d="M184.5 16.877V140.922C171.606 150.299 155.711 155.833 138.511 155.833C121.31 155.833 104.567 150.299 91.6813 140.922C78.0391 129.712 60.5394 122.98 41.4601 122.98C26.3879 122.98 12.305 127.176 0.33374 134.471V16.877C0.33374 7.55871 7.93219 0 17.3097 0H167.516C176.528 0 183.902 6.98045 184.459 15.7948C184.492 16.15 184.5 16.5135 184.5 16.877Z" fill="url(#paint0_linear_309_2205)"/>
<path d="M184.501 138.807C171.607 129.431 155.711 123.888 138.511 123.888C121.31 123.888 103.911 129.96 90.7089 140.162C91.0331 140.418 91.3573 140.666 91.6732 140.922C104.559 150.298 121.31 155.833 138.503 155.833C155.695 155.833 171.598 150.298 184.492 140.922V138.807H184.501Z" fill="url(#paint1_linear_309_2205)"/>
<circle opacity="0.55" cx="43.2504" cy="42.9167" r="42.9167" fill="url(#paint2_linear_309_2205)"/>
<defs>
<linearGradient id="paint0_linear_309_2205" x1="210.706" y1="77.9167" x2="-74.5033" y2="77.9167" gradientUnits="userSpaceOnUse">
<stop offset="0.21" stop-color="#78398D"/>
<stop offset="0.81" stop-color="#861FA8"/>
</linearGradient>
<linearGradient id="paint1_linear_309_2205" x1="197.847" y1="139.861" x2="52.5961" y2="139.861" gradientUnits="userSpaceOnUse">
<stop offset="0.21" stop-color="#78398D"/>
<stop offset="0.81" stop-color="#861FA8"/>
</linearGradient>
<linearGradient id="paint2_linear_309_2205" x1="98.3806" y1="42.9167" x2="-34.5451" y2="42.9167" gradientUnits="userSpaceOnUse">
<stop offset="0.21" stop-color="#78398D"/>
<stop offset="0.81" stop-color="#861FA8"/>
</linearGradient>
</defs>
</svg>
