<svg width="47" height="46" viewBox="0 0 47 46" fill="none" xmlns="http://www.w3.org/2000/svg">
<path d="M43.4805 25.9936C42.8626 25.9936 42.2769 26.2013 41.8024 26.5825L40.9132 23.9036L42.6021 22.2146C43.6494 21.1677 43.6494 19.464 42.6021 18.4167C42.0951 17.9097 41.4205 17.6303 40.7034 17.6303C40.0862 17.6303 39.5011 17.8377 39.0266 18.2185L38.2636 15.9193L42.8154 11.3675C45.5111 8.67185 46.6843 4.82886 45.9538 1.08729C45.8842 0.729565 45.6045 0.45017 45.2467 0.380234C41.5048 -0.350247 37.6622 0.822929 34.9665 3.51896L30.4144 8.0704L28.1156 7.30739C28.4964 6.83288 28.7037 6.24786 28.7037 5.63068C28.7037 4.91349 28.4243 4.23895 27.917 3.73192C27.4099 3.22453 26.7354 2.94514 26.0182 2.94514C25.301 2.94514 24.6265 3.22453 24.1194 3.73192L22.4305 5.42052L19.7512 4.53163C20.5957 3.47805 20.5303 1.93106 19.554 0.954759C18.5071 -0.0921832 16.8031 -0.0921832 15.7561 0.954759L14.0661 2.64476L12.4992 2.12479C12.1775 2.01814 11.8236 2.10206 11.5841 2.34124L7.8093 6.11638C7.60894 6.31675 7.51522 6.59999 7.55649 6.88043C7.5981 7.16053 7.76979 7.4046 8.01946 7.53853L12.3139 9.83873L7.91106 14.2415C7.56138 14.5912 7.56138 15.1581 7.91106 15.5074C8.0859 15.6822 8.31494 15.7696 8.54398 15.7696C8.77302 15.7696 9.00206 15.6822 9.1769 15.5074L13.9626 10.7217L22.9497 15.5354L18.6697 19.8154C17.5259 20.9592 16.6142 22.288 15.9596 23.7287L9.58883 21.1449C9.25558 21.0096 8.87373 21.0869 8.61951 21.3414L5.00312 24.9578C4.79961 25.1614 4.70624 25.4502 4.7524 25.7341C4.79856 26.0184 4.97829 26.2628 5.23566 26.3915L8.31739 27.9326L0.595756 35.6545C0.246076 36.0042 0.246076 36.5711 0.595756 36.9204C0.770596 37.0952 0.999636 37.1826 1.22868 37.1826C1.45772 37.1826 1.68676 37.0952 1.8616 36.9204L10.0056 28.7767L15.0683 31.308L19.9848 41.1407C20.1135 41.398 20.3579 41.5778 20.6422 41.6236C20.6898 41.6316 20.7377 41.6351 20.7856 41.6351C21.0209 41.6351 21.2493 41.5421 21.4185 41.3732L25.0349 37.7565C25.2891 37.5023 25.3667 37.1204 25.2314 36.7872L22.6266 30.3649C24.0593 29.7107 25.3807 28.8022 26.5186 27.6644L30.7987 23.3843L35.6204 32.3864L23.7911 44.2154C23.4417 44.5647 23.4417 45.1316 23.7911 45.4813C23.9659 45.6561 24.195 45.7435 24.4243 45.7435C24.6534 45.7435 24.8824 45.6561 25.0573 45.4813L36.5033 34.0352L38.7955 38.3146C38.9291 38.5642 39.1731 38.7359 39.4536 38.7772C39.4973 38.7838 39.541 38.787 39.5844 38.787C39.8201 38.787 40.0484 38.6936 40.2176 38.5247L43.9924 34.7496C44.232 34.5104 44.3155 34.1562 44.2092 33.8348L43.6893 32.2679L45.3793 30.5779C46.4262 29.5306 46.4262 27.827 45.3793 26.78C44.8719 26.273 44.1977 25.9936 43.4805 25.9936ZM40.0704 19.6829C40.4194 19.3336 40.9873 19.3336 41.3363 19.6829C41.6852 20.0319 41.6852 20.5998 41.3363 20.9488L40.2823 22.0027L39.6515 20.1015L40.0704 19.6829ZM25.3853 4.99776C25.5545 4.82851 25.779 4.7355 26.0182 4.7355C26.2574 4.7355 26.4822 4.82851 26.6511 4.99776C26.8204 5.16665 26.9134 5.3915 26.9134 5.63068C26.9134 5.86986 26.8204 6.0947 26.6511 6.2636L26.2322 6.68252L24.3313 6.05169L25.3853 4.99776ZM17.022 2.2206C17.1912 2.0517 17.4157 1.95834 17.6549 1.95834C17.8941 1.95834 18.1189 2.0517 18.2878 2.2206C18.6368 2.56958 18.6368 3.13746 18.2878 3.48644L17.8678 3.90641L15.967 3.27558L17.022 2.2206ZM9.92766 6.52971L12.4597 3.99802L28.9982 9.48695L24.2722 14.2129L9.92766 6.52971ZM9.46609 23.0269L15.3299 25.4051C14.9666 26.6129 14.7735 27.8745 14.7648 29.1543L7.14736 25.3456L9.46609 23.0269ZM23.3494 36.9102L21.0307 39.229L17.2007 31.5692C18.4812 31.5584 19.7435 31.364 20.9517 30.9982L23.3494 36.9102ZM25.2527 26.3982C23.261 28.3899 20.6226 29.5712 17.8455 29.7544L21.7213 25.8785C22.071 25.5289 22.071 24.962 21.7213 24.6124C21.372 24.263 20.8052 24.263 20.4555 24.6124L16.5793 28.4886C16.7618 25.7114 17.9437 23.0731 19.9355 21.0813L25.0762 15.9406C25.0769 15.9399 25.0779 15.9389 25.0789 15.9378L36.2323 4.78445C38.3601 2.65665 41.3359 1.65342 44.2956 2.03842C44.6806 4.99811 43.6774 7.97353 41.5492 10.1017L30.3825 21.268C30.3811 21.2698 30.3797 21.2712 30.3783 21.2726L25.2527 26.3982ZM39.8043 36.406L32.1212 22.0618L36.8471 17.3359L42.336 33.8743L39.8043 36.406ZM44.1134 29.3121L43.0584 30.367L42.4273 28.4662L42.8472 28.0462C43.0165 27.877 43.2413 27.784 43.4805 27.784C43.7193 27.784 43.9442 27.877 44.1134 28.0462C44.2823 28.2151 44.3753 28.44 44.3753 28.6791C44.3753 28.9183 44.2823 29.1428 44.1134 29.3121Z" fill="white"/>
</svg>
