<svg width="217" height="70" viewBox="0 0 217 70" fill="none" xmlns="http://www.w3.org/2000/svg">
<g filter="url(#filter0_d_3619_49295)">
<rect x="4" y="10" width="178" height="50" rx="8" fill="#0B2C4C" shape-rendering="crispEdges"/>
<path d="M15.232 20.934H20.762C20.79 21.1207 20.804 21.326 20.804 21.55C20.804 21.6527 20.7993 21.76 20.79 21.872C20.79 21.984 20.7807 22.0867 20.762 22.18H16.66V25.064H19.936C19.9547 25.1573 19.9687 25.26 19.978 25.372C19.9873 25.4747 19.992 25.5773 19.992 25.68C19.992 25.7827 19.9873 25.89 19.978 26.002C19.9687 26.114 19.9547 26.2167 19.936 26.31H16.66V29.754H20.874C20.902 29.9407 20.916 30.146 20.916 30.37C20.916 30.4727 20.9113 30.58 20.902 30.692C20.902 30.804 20.8927 30.9067 20.874 31H15.232V20.934ZM22.6259 23.818C22.7285 23.7993 22.8265 23.7853 22.9199 23.776C23.0225 23.7667 23.1252 23.762 23.2279 23.762C23.3305 23.762 23.4239 23.7667 23.5079 23.776C23.6012 23.7853 23.6992 23.7993 23.8019 23.818C23.8299 23.958 23.8579 24.1493 23.8859 24.392C23.9139 24.6253 23.9279 24.8213 23.9279 24.98C24.0212 24.8213 24.1379 24.6627 24.2779 24.504C24.4272 24.3453 24.5952 24.2053 24.7819 24.084C24.9685 23.9533 25.1832 23.8507 25.4259 23.776C25.6685 23.692 25.9345 23.65 26.2239 23.65C27.0452 23.65 27.6519 23.888 28.0439 24.364C28.4359 24.8307 28.6319 25.526 28.6319 26.45V31C28.5292 31.0187 28.4125 31.0327 28.2819 31.042C28.1512 31.0513 28.0345 31.056 27.9319 31.056C27.8292 31.056 27.7125 31.0513 27.5819 31.042C27.4605 31.0327 27.3485 31.0187 27.2459 31V26.828C27.2459 26.1653 27.1432 25.68 26.9379 25.372C26.7325 25.0547 26.4059 24.896 25.9579 24.896C25.6965 24.896 25.4492 24.9427 25.2159 25.036C24.9825 25.1293 24.7772 25.274 24.5999 25.47C24.4225 25.666 24.2779 25.9227 24.1659 26.24C24.0632 26.548 24.0119 26.9213 24.0119 27.36V31C23.9092 31.0187 23.7925 31.0327 23.6619 31.042C23.5405 31.0513 23.4285 31.056 23.3259 31.056C23.2232 31.056 23.1065 31.0513 22.9759 31.042C22.8452 31.0327 22.7285 31.0187 22.6259 31V23.818ZM35.5076 29.754C35.5823 29.8847 35.6476 30.048 35.7036 30.244C35.7596 30.44 35.7923 30.6407 35.8016 30.846C35.2509 31.0607 34.6209 31.168 33.9116 31.168C32.7169 31.168 31.8163 30.832 31.2096 30.16C30.6029 29.4787 30.2996 28.564 30.2996 27.416C30.2996 26.884 30.3743 26.3893 30.5236 25.932C30.6729 25.4747 30.8923 25.078 31.1816 24.742C31.4803 24.406 31.8489 24.14 32.2876 23.944C32.7263 23.748 33.2349 23.65 33.8136 23.65C34.2056 23.65 34.5509 23.6733 34.8496 23.72C35.1483 23.7667 35.4329 23.8413 35.7036 23.944C35.7036 24.1027 35.6803 24.2893 35.6336 24.504C35.5963 24.7093 35.5403 24.8913 35.4656 25.05C35.0083 24.8913 34.4856 24.812 33.8976 24.812C33.1789 24.812 32.6423 25.05 32.2876 25.526C31.9329 26.002 31.7556 26.632 31.7556 27.416C31.7556 28.312 31.9563 28.97 32.3576 29.39C32.7589 29.8007 33.3096 30.006 34.0096 30.006C34.2896 30.006 34.5463 29.9873 34.7796 29.95C35.0223 29.9127 35.2649 29.8473 35.5076 29.754ZM37.3212 23.818C37.4238 23.7993 37.5405 23.7853 37.6712 23.776C37.8018 23.7667 37.9138 23.762 38.0072 23.762C38.1098 23.762 38.2265 23.7667 38.3572 23.776C38.4878 23.7853 38.6045 23.7993 38.7072 23.818V27.752C38.7072 28.2 38.7492 28.5733 38.8332 28.872C38.9172 29.1613 39.0432 29.39 39.2112 29.558C39.3792 29.726 39.5845 29.8427 39.8272 29.908C40.0698 29.9733 40.3498 30.006 40.6672 30.006C41.1432 30.006 41.5492 29.9547 41.8852 29.852V23.818C41.9878 23.7993 42.0998 23.7853 42.2212 23.776C42.3518 23.7667 42.4685 23.762 42.5712 23.762C42.6738 23.762 42.7858 23.7667 42.9072 23.776C43.0378 23.7853 43.1545 23.7993 43.2572 23.818V30.776C42.9305 30.8693 42.5385 30.958 42.0812 31.042C41.6332 31.126 41.1665 31.168 40.6812 31.168C40.2238 31.168 39.7898 31.126 39.3792 31.042C38.9778 30.9673 38.6232 30.8087 38.3152 30.566C38.0072 30.3233 37.7645 29.9827 37.5872 29.544C37.4098 29.1053 37.3212 28.5267 37.3212 27.808V23.818ZM46.4802 27.752C46.4989 28.536 46.6996 29.11 47.0822 29.474C47.4742 29.838 48.0482 30.02 48.8042 30.02C49.4669 30.02 50.0969 29.9033 50.6942 29.67C50.7689 29.81 50.8296 29.9827 50.8762 30.188C50.9229 30.384 50.9509 30.58 50.9602 30.776C50.6522 30.9067 50.3116 31.0047 49.9382 31.07C49.5742 31.1353 49.1682 31.168 48.7202 31.168C48.0669 31.168 47.5069 31.0793 47.0402 30.902C46.5736 30.7153 46.1862 30.4587 45.8782 30.132C45.5796 29.796 45.3602 29.404 45.2202 28.956C45.0802 28.4987 45.0102 27.9993 45.0102 27.458C45.0102 26.926 45.0756 26.4313 45.2062 25.974C45.3462 25.5073 45.5562 25.106 45.8362 24.77C46.1162 24.4247 46.4662 24.154 46.8862 23.958C47.3156 23.7527 47.8196 23.65 48.3982 23.65C48.8929 23.65 49.3269 23.734 49.7002 23.902C50.0736 24.07 50.3862 24.3033 50.6382 24.602C50.8902 24.8913 51.0816 25.2413 51.2122 25.652C51.3429 26.0533 51.4082 26.492 51.4082 26.968C51.4082 27.0987 51.4036 27.2387 51.3942 27.388C51.3849 27.528 51.3756 27.6493 51.3662 27.752H46.4802ZM50.0362 26.716C50.0362 26.4547 49.9989 26.2073 49.9242 25.974C49.8589 25.7313 49.7562 25.5213 49.6162 25.344C49.4856 25.1667 49.3129 25.0267 49.0982 24.924C48.8929 24.812 48.6456 24.756 48.3562 24.756C47.7869 24.756 47.3482 24.9287 47.0402 25.274C46.7416 25.6193 46.5596 26.1 46.4942 26.716H50.0362ZM53.2235 23.818C53.3262 23.7993 53.4242 23.7853 53.5175 23.776C53.6202 23.7667 53.7228 23.762 53.8255 23.762C53.9282 23.762 54.0215 23.7667 54.1055 23.776C54.1988 23.7853 54.2968 23.7993 54.3995 23.818C54.4275 23.958 54.4555 24.1493 54.4835 24.392C54.5115 24.6253 54.5255 24.8213 54.5255 24.98C54.6188 24.8213 54.7355 24.6627 54.8755 24.504C55.0248 24.3453 55.1928 24.2053 55.3795 24.084C55.5662 23.9533 55.7808 23.8507 56.0235 23.776C56.2662 23.692 56.5322 23.65 56.8215 23.65C57.6428 23.65 58.2495 23.888 58.6415 24.364C59.0335 24.8307 59.2295 25.526 59.2295 26.45V31C59.1268 31.0187 59.0102 31.0327 58.8795 31.042C58.7488 31.0513 58.6322 31.056 58.5295 31.056C58.4268 31.056 58.3102 31.0513 58.1795 31.042C58.0582 31.0327 57.9462 31.0187 57.8435 31V26.828C57.8435 26.1653 57.7408 25.68 57.5355 25.372C57.3302 25.0547 57.0035 24.896 56.5555 24.896C56.2942 24.896 56.0468 24.9427 55.8135 25.036C55.5802 25.1293 55.3748 25.274 55.1975 25.47C55.0202 25.666 54.8755 25.9227 54.7635 26.24C54.6608 26.548 54.6095 26.9213 54.6095 27.36V31C54.5068 31.0187 54.3902 31.0327 54.2595 31.042C54.1382 31.0513 54.0262 31.056 53.9235 31.056C53.8208 31.056 53.7042 31.0513 53.5735 31.042C53.4428 31.0327 53.3262 31.0187 53.2235 31V23.818ZM61.5833 24.924H60.4913L60.4353 24.728L62.8433 22.04H62.9553V23.818H64.7753C64.8126 23.9767 64.8313 24.154 64.8313 24.35C64.8313 24.4527 64.8266 24.5507 64.8173 24.644C64.8079 24.7373 64.7939 24.8307 64.7753 24.924H62.9553V28.2C62.9553 28.592 62.9693 28.9047 62.9973 29.138C63.0346 29.3713 63.0906 29.5533 63.1653 29.684C63.2493 29.8053 63.3566 29.8893 63.4873 29.936C63.6273 29.9733 63.7999 29.992 64.0053 29.992C64.1639 29.992 64.3133 29.9827 64.4533 29.964C64.5933 29.936 64.7193 29.908 64.8313 29.88C64.8966 30.0667 64.9339 30.258 64.9433 30.454C64.9619 30.65 64.9713 30.8227 64.9713 30.972C64.7846 31.0187 64.5886 31.0513 64.3833 31.07C64.1779 31.098 63.9586 31.112 63.7253 31.112C63.0533 31.112 62.5259 30.9487 62.1433 30.622C61.7699 30.2953 61.5833 29.754 61.5833 28.998V24.924ZM66.3348 23.818C66.4375 23.7993 66.5355 23.7853 66.6288 23.776C66.7222 23.7667 66.8202 23.762 66.9228 23.762C67.0255 23.762 67.1282 23.7667 67.2308 23.776C67.3335 23.7853 67.4268 23.7993 67.5108 23.818C67.5388 23.958 67.5668 24.1447 67.5948 24.378C67.6228 24.602 67.6368 24.7933 67.6368 24.952C67.8328 24.6347 68.0895 24.3593 68.4068 24.126C68.7335 23.8927 69.1488 23.776 69.6528 23.776C69.7275 23.776 69.8022 23.7807 69.8768 23.79C69.9608 23.79 70.0308 23.7947 70.0868 23.804C70.1055 23.888 70.1195 23.9767 70.1288 24.07C70.1382 24.1633 70.1428 24.2613 70.1428 24.364C70.1428 24.476 70.1335 24.5927 70.1148 24.714C70.1055 24.8353 70.0915 24.952 70.0728 25.064C69.9982 25.0453 69.9188 25.036 69.8348 25.036C69.7602 25.036 69.6995 25.036 69.6528 25.036C69.4008 25.036 69.1582 25.0733 68.9248 25.148C68.7008 25.2133 68.4955 25.3347 68.3088 25.512C68.1315 25.6893 67.9868 25.932 67.8748 26.24C67.7722 26.548 67.7208 26.9447 67.7208 27.43V31C67.6182 31.0187 67.5015 31.0327 67.3708 31.042C67.2495 31.0513 67.1375 31.056 67.0348 31.056C66.9322 31.056 66.8155 31.0513 66.6848 31.042C66.5635 31.0327 66.4468 31.0187 66.3348 31V23.818ZM75.2011 27.626C75.0611 27.6073 74.8838 27.5887 74.6691 27.57C74.4544 27.5513 74.2724 27.542 74.1231 27.542C73.5444 27.542 73.1011 27.6493 72.7931 27.864C72.4944 28.0787 72.3451 28.4053 72.3451 28.844C72.3451 29.124 72.3964 29.3433 72.4991 29.502C72.6018 29.6607 72.7278 29.782 72.8771 29.866C73.0358 29.95 73.2084 30.0013 73.3951 30.02C73.5818 30.0387 73.7591 30.048 73.9271 30.048C74.1418 30.048 74.3611 30.0387 74.5851 30.02C74.8184 29.992 75.0238 29.9547 75.2011 29.908V27.626ZM75.2011 26.268C75.2011 25.7173 75.0611 25.3347 74.7811 25.12C74.5011 24.9053 74.0951 24.798 73.5631 24.798C73.2364 24.798 72.9284 24.826 72.6391 24.882C72.3591 24.9287 72.0838 24.994 71.8131 25.078C71.6358 24.77 71.5471 24.4013 71.5471 23.972C71.8644 23.8693 72.2144 23.79 72.5971 23.734C72.9798 23.678 73.3484 23.65 73.7031 23.65C74.6364 23.65 75.3458 23.8647 75.8311 24.294C76.3164 24.714 76.5591 25.3907 76.5591 26.324V30.818C76.2324 30.8927 75.8358 30.9673 75.3691 31.042C74.9024 31.126 74.4264 31.168 73.9411 31.168C73.4838 31.168 73.0684 31.126 72.6951 31.042C72.3311 30.958 72.0184 30.8227 71.7571 30.636C71.5051 30.4493 71.3091 30.2113 71.1691 29.922C71.0291 29.6327 70.9591 29.2827 70.9591 28.872C70.9591 28.4707 71.0384 28.1207 71.1971 27.822C71.3651 27.514 71.5891 27.262 71.8691 27.066C72.1491 26.8607 72.4711 26.7113 72.8351 26.618C73.1991 26.5153 73.5818 26.464 73.9831 26.464C74.2818 26.464 74.5244 26.4733 74.7111 26.492C74.9071 26.5013 75.0704 26.5153 75.2011 26.534V26.268ZM86.5678 20.738C86.6705 20.7193 86.7871 20.7053 86.9178 20.696C87.0485 20.6867 87.1605 20.682 87.2538 20.682C87.3565 20.682 87.4685 20.6867 87.5898 20.696C87.7205 20.7053 87.8371 20.7193 87.9398 20.738V30.804C87.5851 30.9067 87.1885 30.9907 86.7498 31.056C86.3111 31.1307 85.8211 31.168 85.2798 31.168C84.7758 31.168 84.2951 31.1073 83.8378 30.986C83.3898 30.8553 82.9978 30.6453 82.6618 30.356C82.3258 30.0667 82.0598 29.6933 81.8638 29.236C81.6678 28.7787 81.5698 28.214 81.5698 27.542C81.5698 26.9633 81.6538 26.436 81.8218 25.96C81.9991 25.484 82.2465 25.078 82.5638 24.742C82.8811 24.3967 83.2591 24.1307 83.6978 23.944C84.1458 23.7573 84.6405 23.664 85.1818 23.664C85.4245 23.664 85.6671 23.6827 85.9098 23.72C86.1618 23.7573 86.3811 23.804 86.5678 23.86V20.738ZM86.5678 25.036C86.3811 24.9613 86.1805 24.9053 85.9658 24.868C85.7511 24.8307 85.5178 24.812 85.2658 24.812C84.8831 24.812 84.5518 24.882 84.2718 25.022C83.9918 25.162 83.7585 25.3533 83.5718 25.596C83.3945 25.8387 83.2591 26.128 83.1658 26.464C83.0818 26.7907 83.0398 27.15 83.0398 27.542C83.0491 28.4287 83.2591 29.0633 83.6698 29.446C84.0805 29.8287 84.6405 30.02 85.3498 30.02C85.5925 30.02 85.8165 30.0107 86.0218 29.992C86.2271 29.964 86.4091 29.9267 86.5678 29.88V25.036ZM90.5849 24.91H89.6749C89.6563 24.8353 89.6423 24.7513 89.6329 24.658C89.6236 24.5553 89.6189 24.4573 89.6189 24.364C89.6189 24.2707 89.6236 24.1773 89.6329 24.084C89.6423 23.9813 89.6563 23.8927 89.6749 23.818H91.9429V31C91.8403 31.0187 91.7236 31.0327 91.5929 31.042C91.4716 31.0513 91.3596 31.056 91.2569 31.056C91.1636 31.056 91.0516 31.0513 90.9209 31.042C90.7996 31.0327 90.6876 31.0187 90.5849 31V24.91ZM90.2769 22.236C90.2583 22.124 90.2443 22.0027 90.2349 21.872C90.2349 21.7413 90.2349 21.6247 90.2349 21.522C90.2349 21.4193 90.2349 21.3027 90.2349 21.172C90.2443 21.0413 90.2583 20.9247 90.2769 20.822C90.3983 20.8033 90.5289 20.7893 90.6689 20.78C90.8089 20.7707 90.9303 20.766 91.0329 20.766C91.1356 20.766 91.2569 20.7707 91.3969 20.78C91.5369 20.7893 91.6629 20.8033 91.7749 20.822C91.7936 20.9247 91.8029 21.0413 91.8029 21.172C91.8123 21.3027 91.8169 21.4193 91.8169 21.522C91.8169 21.6247 91.8123 21.7413 91.8029 21.872C91.8029 22.0027 91.7936 22.124 91.7749 22.236C91.6629 22.2547 91.5369 22.2687 91.3969 22.278C91.2663 22.2873 91.1496 22.292 91.0469 22.292C90.9349 22.292 90.8089 22.2873 90.6689 22.278C90.5289 22.2687 90.3983 22.2547 90.2769 22.236ZM94.0721 29.698C94.3241 29.8007 94.5995 29.8847 94.8981 29.95C95.2061 30.006 95.5095 30.034 95.8081 30.034C96.0228 30.034 96.2281 30.0107 96.4241 29.964C96.6201 29.9173 96.7881 29.8473 96.9281 29.754C97.0775 29.6607 97.1941 29.5487 97.2781 29.418C97.3715 29.278 97.4181 29.124 97.4181 28.956C97.4181 28.7693 97.3808 28.6153 97.3061 28.494C97.2408 28.3727 97.1475 28.27 97.0261 28.186C96.9141 28.102 96.7788 28.032 96.6201 27.976C96.4708 27.9107 96.3075 27.85 96.1301 27.794L95.6401 27.612C95.0428 27.388 94.6088 27.136 94.3381 26.856C94.0675 26.576 93.9321 26.198 93.9321 25.722C93.9321 25.0873 94.1561 24.5833 94.6041 24.21C95.0615 23.8367 95.7288 23.65 96.6061 23.65C96.9701 23.65 97.3248 23.6873 97.6701 23.762C98.0248 23.8273 98.3328 23.9067 98.5941 24C98.5755 24.1867 98.5381 24.3733 98.4821 24.56C98.4355 24.7467 98.3748 24.9193 98.3001 25.078C98.0948 25.0033 97.8475 24.9333 97.5581 24.868C97.2781 24.7933 96.9748 24.756 96.6481 24.756C96.3028 24.756 95.9948 24.8167 95.7241 24.938C95.4628 25.0593 95.3321 25.274 95.3321 25.582C95.3321 25.7407 95.3648 25.876 95.4301 25.988C95.4955 26.1 95.5841 26.198 95.6961 26.282C95.8081 26.3567 95.9341 26.422 96.0741 26.478C96.2235 26.534 96.3821 26.59 96.5501 26.646L97.1661 26.856C97.3901 26.9307 97.6001 27.0193 97.7961 27.122C98.0015 27.2247 98.1741 27.3553 98.3141 27.514C98.4635 27.6633 98.5801 27.85 98.6641 28.074C98.7575 28.2887 98.8041 28.55 98.8041 28.858C98.8041 29.2033 98.7341 29.5207 98.5941 29.81C98.4541 30.09 98.2535 30.3327 97.9921 30.538C97.7401 30.734 97.4321 30.888 97.0681 31C96.7041 31.112 96.3028 31.168 95.8641 31.168C95.4161 31.168 95.0241 31.1353 94.6881 31.07C94.3521 31.014 94.0395 30.9347 93.7501 30.832C93.7688 30.6453 93.8061 30.4587 93.8621 30.272C93.9275 30.076 93.9975 29.8847 94.0721 29.698ZM100.555 23.818C100.649 23.7993 100.742 23.7853 100.835 23.776C100.938 23.7667 101.041 23.762 101.143 23.762C101.237 23.762 101.335 23.7667 101.437 23.776C101.54 23.7853 101.638 23.7993 101.731 23.818C101.741 23.8367 101.75 23.8973 101.759 24C101.778 24.0933 101.792 24.196 101.801 24.308C101.82 24.42 101.834 24.5273 101.843 24.63C101.862 24.7327 101.871 24.798 101.871 24.826C101.965 24.6767 102.077 24.532 102.207 24.392C102.338 24.252 102.492 24.126 102.669 24.014C102.856 23.902 103.061 23.8133 103.285 23.748C103.519 23.6827 103.775 23.65 104.055 23.65C104.475 23.65 104.863 23.72 105.217 23.86C105.581 24 105.889 24.2193 106.141 24.518C106.403 24.8073 106.603 25.1807 106.743 25.638C106.893 26.086 106.967 26.618 106.967 27.234C106.967 28.466 106.631 29.432 105.959 30.132C105.297 30.8227 104.354 31.168 103.131 31.168C102.926 31.168 102.716 31.154 102.501 31.126C102.287 31.098 102.1 31.0607 101.941 31.014V34.304C101.829 34.3227 101.708 34.3367 101.577 34.346C101.456 34.3553 101.344 34.36 101.241 34.36C101.139 34.36 101.022 34.3553 100.891 34.346C100.77 34.3367 100.658 34.3227 100.555 34.304V23.818ZM101.941 29.824C102.119 29.8893 102.301 29.936 102.487 29.964C102.674 29.992 102.917 30.006 103.215 30.006C103.551 30.006 103.859 29.9547 104.139 29.852C104.419 29.74 104.657 29.572 104.853 29.348C105.059 29.124 105.217 28.844 105.329 28.508C105.451 28.1627 105.511 27.7567 105.511 27.29C105.511 26.5433 105.371 25.9507 105.091 25.512C104.821 25.0733 104.373 24.854 103.747 24.854C103.514 24.854 103.29 24.896 103.075 24.98C102.861 25.064 102.669 25.19 102.501 25.358C102.333 25.526 102.198 25.7407 102.095 26.002C101.993 26.254 101.941 26.5573 101.941 26.912V29.824ZM111.739 31.168C111.179 31.168 110.689 31.0747 110.269 30.888C109.849 30.692 109.499 30.426 109.219 30.09C108.939 29.754 108.729 29.3573 108.589 28.9C108.458 28.4427 108.393 27.948 108.393 27.416C108.393 26.884 108.458 26.3893 108.589 25.932C108.729 25.4747 108.939 25.078 109.219 24.742C109.499 24.406 109.849 24.14 110.269 23.944C110.689 23.748 111.179 23.65 111.739 23.65C112.299 23.65 112.789 23.748 113.209 23.944C113.629 24.14 113.979 24.406 114.259 24.742C114.539 25.078 114.744 25.4747 114.875 25.932C115.015 26.3893 115.085 26.884 115.085 27.416C115.085 27.948 115.015 28.4427 114.875 28.9C114.744 29.3573 114.539 29.754 114.259 30.09C113.979 30.426 113.629 30.692 113.209 30.888C112.789 31.0747 112.299 31.168 111.739 31.168ZM111.739 30.062C112.383 30.062 112.859 29.8287 113.167 29.362C113.475 28.8953 113.629 28.2467 113.629 27.416C113.629 26.5853 113.475 25.9413 113.167 25.484C112.859 25.0173 112.383 24.784 111.739 24.784C111.095 24.784 110.619 25.0173 110.311 25.484C110.012 25.9413 109.863 26.5853 109.863 27.416C109.863 28.2467 110.012 28.8953 110.311 29.362C110.619 29.8287 111.095 30.062 111.739 30.062ZM116.907 23.818C117.01 23.7993 117.108 23.7853 117.201 23.776C117.304 23.7667 117.406 23.762 117.509 23.762C117.612 23.762 117.705 23.7667 117.789 23.776C117.882 23.7853 117.98 23.7993 118.083 23.818C118.111 23.958 118.139 24.1493 118.167 24.392C118.195 24.6253 118.209 24.8213 118.209 24.98C118.302 24.8213 118.419 24.6627 118.559 24.504C118.708 24.3453 118.876 24.2053 119.063 24.084C119.25 23.9533 119.464 23.8507 119.707 23.776C119.95 23.692 120.216 23.65 120.505 23.65C121.326 23.65 121.933 23.888 122.325 24.364C122.717 24.8307 122.913 25.526 122.913 26.45V31C122.81 31.0187 122.694 31.0327 122.563 31.042C122.432 31.0513 122.316 31.056 122.213 31.056C122.11 31.056 121.994 31.0513 121.863 31.042C121.742 31.0327 121.63 31.0187 121.527 31V26.828C121.527 26.1653 121.424 25.68 121.219 25.372C121.014 25.0547 120.687 24.896 120.239 24.896C119.978 24.896 119.73 24.9427 119.497 25.036C119.264 25.1293 119.058 25.274 118.881 25.47C118.704 25.666 118.559 25.9227 118.447 26.24C118.344 26.548 118.293 26.9213 118.293 27.36V31C118.19 31.0187 118.074 31.0327 117.943 31.042C117.822 31.0513 117.71 31.056 117.607 31.056C117.504 31.056 117.388 31.0513 117.257 31.042C117.126 31.0327 117.01 31.0187 116.907 31V23.818ZM125.421 24.91H124.511C124.492 24.8353 124.478 24.7513 124.469 24.658C124.46 24.5553 124.455 24.4573 124.455 24.364C124.455 24.2707 124.46 24.1773 124.469 24.084C124.478 23.9813 124.492 23.8927 124.511 23.818H126.779V31C126.676 31.0187 126.56 31.0327 126.429 31.042C126.308 31.0513 126.196 31.056 126.093 31.056C126 31.056 125.888 31.0513 125.757 31.042C125.636 31.0327 125.524 31.0187 125.421 31V24.91ZM125.113 22.236C125.094 22.124 125.08 22.0027 125.071 21.872C125.071 21.7413 125.071 21.6247 125.071 21.522C125.071 21.4193 125.071 21.3027 125.071 21.172C125.08 21.0413 125.094 20.9247 125.113 20.822C125.234 20.8033 125.365 20.7893 125.505 20.78C125.645 20.7707 125.766 20.766 125.869 20.766C125.972 20.766 126.093 20.7707 126.233 20.78C126.373 20.7893 126.499 20.8033 126.611 20.822C126.63 20.9247 126.639 21.0413 126.639 21.172C126.648 21.3027 126.653 21.4193 126.653 21.522C126.653 21.6247 126.648 21.7413 126.639 21.872C126.639 22.0027 126.63 22.124 126.611 22.236C126.499 22.2547 126.373 22.2687 126.233 22.278C126.102 22.2873 125.986 22.292 125.883 22.292C125.771 22.292 125.645 22.2873 125.505 22.278C125.365 22.2687 125.234 22.2547 125.113 22.236ZM129.02 20.738C129.123 20.7193 129.235 20.7053 129.356 20.696C129.487 20.6867 129.603 20.682 129.706 20.682C129.809 20.682 129.925 20.6867 130.056 20.696C130.187 20.7053 130.303 20.7193 130.406 20.738V24.686C130.574 24.406 130.835 24.1633 131.19 23.958C131.545 23.7527 131.974 23.65 132.478 23.65C132.907 23.65 133.304 23.72 133.668 23.86C134.032 24 134.345 24.2193 134.606 24.518C134.867 24.8073 135.068 25.1807 135.208 25.638C135.357 26.086 135.432 26.618 135.432 27.234C135.432 28.466 135.082 29.432 134.382 30.132C133.691 30.8227 132.693 31.168 131.386 31.168C130.975 31.168 130.551 31.126 130.112 31.042C129.683 30.9673 129.319 30.8787 129.02 30.776V20.738ZM130.406 29.838C130.574 29.894 130.751 29.936 130.938 29.964C131.134 29.9827 131.335 29.992 131.54 29.992C131.885 29.992 132.203 29.9407 132.492 29.838C132.791 29.726 133.047 29.5627 133.262 29.348C133.477 29.124 133.645 28.844 133.766 28.508C133.897 28.1627 133.962 27.7567 133.962 27.29C133.962 26.5153 133.827 25.9133 133.556 25.484C133.285 25.0547 132.837 24.84 132.212 24.84C131.997 24.84 131.783 24.8773 131.568 24.952C131.363 25.0173 131.171 25.1293 130.994 25.288C130.817 25.4373 130.672 25.6427 130.56 25.904C130.457 26.156 130.406 26.464 130.406 26.828V29.838ZM137.264 20.738C137.367 20.7193 137.479 20.7053 137.6 20.696C137.731 20.6867 137.847 20.682 137.95 20.682C138.053 20.682 138.165 20.6867 138.286 20.696C138.417 20.7053 138.533 20.7193 138.636 20.738V28.83C138.636 29.0913 138.659 29.2967 138.706 29.446C138.753 29.5953 138.813 29.712 138.888 29.796C138.972 29.8707 139.065 29.922 139.168 29.95C139.28 29.9687 139.397 29.978 139.518 29.978C139.602 29.978 139.695 29.9733 139.798 29.964C139.91 29.9547 140.003 29.9407 140.078 29.922C140.162 30.2487 140.204 30.6033 140.204 30.986C140.073 31.0327 139.915 31.0607 139.728 31.07C139.541 31.0887 139.369 31.098 139.21 31.098C138.939 31.098 138.687 31.0653 138.454 31C138.221 30.9347 138.015 30.8273 137.838 30.678C137.661 30.5287 137.521 30.328 137.418 30.076C137.315 29.824 137.264 29.5113 137.264 29.138V20.738ZM142.498 27.752C142.516 28.536 142.717 29.11 143.1 29.474C143.492 29.838 144.066 30.02 144.822 30.02C145.484 30.02 146.114 29.9033 146.712 29.67C146.786 29.81 146.847 29.9827 146.894 30.188C146.94 30.384 146.968 30.58 146.978 30.776C146.67 30.9067 146.329 31.0047 145.956 31.07C145.592 31.1353 145.186 31.168 144.738 31.168C144.084 31.168 143.524 31.0793 143.058 30.902C142.591 30.7153 142.204 30.4587 141.896 30.132C141.597 29.796 141.378 29.404 141.238 28.956C141.098 28.4987 141.028 27.9993 141.028 27.458C141.028 26.926 141.093 26.4313 141.224 25.974C141.364 25.5073 141.574 25.106 141.854 24.77C142.134 24.4247 142.484 24.154 142.904 23.958C143.333 23.7527 143.837 23.65 144.416 23.65C144.91 23.65 145.344 23.734 145.718 23.902C146.091 24.07 146.404 24.3033 146.656 24.602C146.908 24.8913 147.099 25.2413 147.23 25.652C147.36 26.0533 147.426 26.492 147.426 26.968C147.426 27.0987 147.421 27.2387 147.412 27.388C147.402 27.528 147.393 27.6493 147.384 27.752H142.498ZM146.054 26.716C146.054 26.4547 146.016 26.2073 145.942 25.974C145.876 25.7313 145.774 25.5213 145.634 25.344C145.503 25.1667 145.33 25.0267 145.116 24.924C144.91 24.812 144.663 24.756 144.374 24.756C143.804 24.756 143.366 24.9287 143.058 25.274C142.759 25.6193 142.577 26.1 142.512 26.716H146.054ZM15.092 37.738C15.1947 37.7193 15.3067 37.7053 15.428 37.696C15.5587 37.6867 15.6753 37.682 15.778 37.682C15.8807 37.682 15.9927 37.6867 16.114 37.696C16.2447 37.7053 16.3613 37.7193 16.464 37.738V45.83C16.464 46.0913 16.4873 46.2967 16.534 46.446C16.5807 46.5953 16.6413 46.712 16.716 46.796C16.8 46.8707 16.8933 46.922 16.996 46.95C17.108 46.9687 17.2247 46.978 17.346 46.978C17.43 46.978 17.5233 46.9733 17.626 46.964C17.738 46.9547 17.8313 46.9407 17.906 46.922C17.99 47.2487 18.032 47.6033 18.032 47.986C17.9013 48.0327 17.7427 48.0607 17.556 48.07C17.3693 48.0887 17.1967 48.098 17.038 48.098C16.7673 48.098 16.5153 48.0653 16.282 48C16.0487 47.9347 15.8433 47.8273 15.666 47.678C15.4887 47.5287 15.3487 47.328 15.246 47.076C15.1433 46.824 15.092 46.5113 15.092 46.138V37.738ZM23.0839 44.626C22.9439 44.6073 22.7666 44.5887 22.5519 44.57C22.3373 44.5513 22.1553 44.542 22.0059 44.542C21.4273 44.542 20.9839 44.6493 20.6759 44.864C20.3773 45.0787 20.2279 45.4053 20.2279 45.844C20.2279 46.124 20.2793 46.3433 20.3819 46.502C20.4846 46.6607 20.6106 46.782 20.7599 46.866C20.9186 46.95 21.0913 47.0013 21.2779 47.02C21.4646 47.0387 21.6419 47.048 21.8099 47.048C22.0246 47.048 22.2439 47.0387 22.4679 47.02C22.7013 46.992 22.9066 46.9547 23.0839 46.908V44.626ZM23.0839 43.268C23.0839 42.7173 22.9439 42.3347 22.6639 42.12C22.3839 41.9053 21.9779 41.798 21.4459 41.798C21.1193 41.798 20.8113 41.826 20.5219 41.882C20.2419 41.9287 19.9666 41.994 19.6959 42.078C19.5186 41.77 19.4299 41.4013 19.4299 40.972C19.7473 40.8693 20.0973 40.79 20.4799 40.734C20.8626 40.678 21.2313 40.65 21.5859 40.65C22.5193 40.65 23.2286 40.8647 23.7139 41.294C24.1993 41.714 24.4419 42.3907 24.4419 43.324V47.818C24.1153 47.8927 23.7186 47.9673 23.2519 48.042C22.7853 48.126 22.3093 48.168 21.8239 48.168C21.3666 48.168 20.9513 48.126 20.5779 48.042C20.2139 47.958 19.9013 47.8227 19.6399 47.636C19.3879 47.4493 19.1919 47.2113 19.0519 46.922C18.9119 46.6327 18.8419 46.2827 18.8419 45.872C18.8419 45.4707 18.9213 45.1207 19.0799 44.822C19.2479 44.514 19.4719 44.262 19.7519 44.066C20.0319 43.8607 20.3539 43.7113 20.7179 43.618C21.0819 43.5153 21.4646 43.464 21.8659 43.464C22.1646 43.464 22.4073 43.4733 22.5939 43.492C22.7899 43.5013 22.9533 43.5153 23.0839 43.534V43.268ZM26.3963 46.698C26.6483 46.8007 26.9237 46.8847 27.2223 46.95C27.5303 47.006 27.8337 47.034 28.1323 47.034C28.347 47.034 28.5523 47.0107 28.7483 46.964C28.9443 46.9173 29.1123 46.8473 29.2523 46.754C29.4017 46.6607 29.5183 46.5487 29.6023 46.418C29.6957 46.278 29.7423 46.124 29.7423 45.956C29.7423 45.7693 29.705 45.6153 29.6303 45.494C29.565 45.3727 29.4717 45.27 29.3503 45.186C29.2383 45.102 29.103 45.032 28.9443 44.976C28.795 44.9107 28.6317 44.85 28.4543 44.794L27.9643 44.612C27.367 44.388 26.933 44.136 26.6623 43.856C26.3917 43.576 26.2563 43.198 26.2563 42.722C26.2563 42.0873 26.4803 41.5833 26.9283 41.21C27.3857 40.8367 28.053 40.65 28.9303 40.65C29.2943 40.65 29.649 40.6873 29.9943 40.762C30.349 40.8273 30.657 40.9067 30.9183 41C30.8997 41.1867 30.8623 41.3733 30.8063 41.56C30.7597 41.7467 30.699 41.9193 30.6243 42.078C30.419 42.0033 30.1717 41.9333 29.8823 41.868C29.6023 41.7933 29.299 41.756 28.9723 41.756C28.627 41.756 28.319 41.8167 28.0483 41.938C27.787 42.0593 27.6563 42.274 27.6563 42.582C27.6563 42.7407 27.689 42.876 27.7543 42.988C27.8197 43.1 27.9083 43.198 28.0203 43.282C28.1323 43.3567 28.2583 43.422 28.3983 43.478C28.5477 43.534 28.7063 43.59 28.8743 43.646L29.4903 43.856C29.7143 43.9307 29.9243 44.0193 30.1203 44.122C30.3257 44.2247 30.4983 44.3553 30.6383 44.514C30.7877 44.6633 30.9043 44.85 30.9883 45.074C31.0817 45.2887 31.1283 45.55 31.1283 45.858C31.1283 46.2033 31.0583 46.5207 30.9183 46.81C30.7783 47.09 30.5777 47.3327 30.3163 47.538C30.0643 47.734 29.7563 47.888 29.3923 48C29.0283 48.112 28.627 48.168 28.1883 48.168C27.7403 48.168 27.3483 48.1353 27.0123 48.07C26.6763 48.014 26.3637 47.9347 26.0743 47.832C26.093 47.6453 26.1303 47.4587 26.1863 47.272C26.2517 47.076 26.3217 46.8847 26.3963 46.698ZM36.0897 46.698C36.3417 46.8007 36.617 46.8847 36.9157 46.95C37.2237 47.006 37.527 47.034 37.8257 47.034C38.0404 47.034 38.2457 47.0107 38.4417 46.964C38.6377 46.9173 38.8057 46.8473 38.9457 46.754C39.095 46.6607 39.2117 46.5487 39.2957 46.418C39.389 46.278 39.4357 46.124 39.4357 45.956C39.4357 45.7693 39.3984 45.6153 39.3237 45.494C39.2584 45.3727 39.165 45.27 39.0437 45.186C38.9317 45.102 38.7964 45.032 38.6377 44.976C38.4884 44.9107 38.325 44.85 38.1477 44.794L37.6577 44.612C37.0604 44.388 36.6264 44.136 36.3557 43.856C36.085 43.576 35.9497 43.198 35.9497 42.722C35.9497 42.0873 36.1737 41.5833 36.6217 41.21C37.079 40.8367 37.7464 40.65 38.6237 40.65C38.9877 40.65 39.3424 40.6873 39.6877 40.762C40.0424 40.8273 40.3504 40.9067 40.6117 41C40.593 41.1867 40.5557 41.3733 40.4997 41.56C40.453 41.7467 40.3924 41.9193 40.3177 42.078C40.1124 42.0033 39.865 41.9333 39.5757 41.868C39.2957 41.7933 38.9924 41.756 38.6657 41.756C38.3204 41.756 38.0124 41.8167 37.7417 41.938C37.4804 42.0593 37.3497 42.274 37.3497 42.582C37.3497 42.7407 37.3824 42.876 37.4477 42.988C37.513 43.1 37.6017 43.198 37.7137 43.282C37.8257 43.3567 37.9517 43.422 38.0917 43.478C38.241 43.534 38.3997 43.59 38.5677 43.646L39.1837 43.856C39.4077 43.9307 39.6177 44.0193 39.8137 44.122C40.019 44.2247 40.1917 44.3553 40.3317 44.514C40.481 44.6633 40.5977 44.85 40.6817 45.074C40.775 45.2887 40.8217 45.55 40.8217 45.858C40.8217 46.2033 40.7517 46.5207 40.6117 46.81C40.4717 47.09 40.271 47.3327 40.0097 47.538C39.7577 47.734 39.4497 47.888 39.0857 48C38.7217 48.112 38.3204 48.168 37.8817 48.168C37.4337 48.168 37.0417 48.1353 36.7057 48.07C36.3697 48.014 36.057 47.9347 35.7677 47.832C35.7864 47.6453 35.8237 47.4587 35.8797 47.272C35.945 47.076 36.015 46.8847 36.0897 46.698ZM43.0068 41.91H42.0968C42.0781 41.8353 42.0641 41.7513 42.0548 41.658C42.0455 41.5553 42.0408 41.4573 42.0408 41.364C42.0408 41.2707 42.0455 41.1773 42.0548 41.084C42.0641 40.9813 42.0781 40.8927 42.0968 40.818H44.3648V48C44.2621 48.0187 44.1455 48.0327 44.0148 48.042C43.8935 48.0513 43.7815 48.056 43.6788 48.056C43.5855 48.056 43.4735 48.0513 43.3428 48.042C43.2215 48.0327 43.1095 48.0187 43.0068 48V41.91ZM42.6988 39.236C42.6801 39.124 42.6661 39.0027 42.6568 38.872C42.6568 38.7413 42.6568 38.6247 42.6568 38.522C42.6568 38.4193 42.6568 38.3027 42.6568 38.172C42.6661 38.0413 42.6801 37.9247 42.6988 37.822C42.8201 37.8033 42.9508 37.7893 43.0908 37.78C43.2308 37.7707 43.3521 37.766 43.4548 37.766C43.5575 37.766 43.6788 37.7707 43.8188 37.78C43.9588 37.7893 44.0848 37.8033 44.1968 37.822C44.2155 37.9247 44.2248 38.0413 44.2248 38.172C44.2341 38.3027 44.2388 38.4193 44.2388 38.522C44.2388 38.6247 44.2341 38.7413 44.2248 38.872C44.2248 39.0027 44.2155 39.124 44.1968 39.236C44.0848 39.2547 43.9588 39.2687 43.8188 39.278C43.6881 39.2873 43.5715 39.292 43.4688 39.292C43.3568 39.292 43.2308 39.2873 43.0908 39.278C42.9508 39.2687 42.8201 39.2547 42.6988 39.236ZM50.47 47.076C51.3007 47.0947 51.9027 47.272 52.276 47.608C52.6493 47.944 52.836 48.406 52.836 48.994C52.836 49.3767 52.738 49.7173 52.542 50.016C52.346 50.324 52.0753 50.5853 51.73 50.8C51.3847 51.024 50.974 51.192 50.498 51.304C50.0313 51.4253 49.5227 51.486 48.972 51.486C48.0107 51.486 47.278 51.3367 46.774 51.038C46.27 50.7393 46.018 50.268 46.018 49.624C46.018 49.2413 46.1207 48.896 46.326 48.588C46.5313 48.2893 46.7973 48.0513 47.124 47.874C46.9373 47.7527 46.7787 47.6033 46.648 47.426C46.5267 47.2393 46.466 47.0107 46.466 46.74C46.466 46.3947 46.5407 46.096 46.69 45.844C46.8487 45.592 47.0587 45.368 47.32 45.172C47.012 44.9573 46.7647 44.682 46.578 44.346C46.3913 44.0007 46.298 43.6133 46.298 43.184C46.298 42.8293 46.3633 42.498 46.494 42.19C46.6247 41.882 46.8113 41.616 47.054 41.392C47.306 41.1587 47.614 40.9767 47.978 40.846C48.342 40.7153 48.7573 40.65 49.224 40.65C49.644 40.65 50.022 40.7107 50.358 40.832C50.7033 40.9533 50.9973 41.1073 51.24 41.294C51.4267 41.1447 51.6787 41.0233 51.996 40.93C52.3133 40.8273 52.6633 40.776 53.046 40.776C53.0833 40.9533 53.102 41.1493 53.102 41.364C53.102 41.4667 53.0973 41.574 53.088 41.686C53.0787 41.798 53.0647 41.91 53.046 42.022H51.786C51.8887 42.1807 51.968 42.3533 52.024 42.54C52.08 42.7267 52.108 42.9413 52.108 43.184C52.108 43.5667 52.038 43.912 51.898 44.22C51.758 44.528 51.5573 44.794 51.296 45.018C51.044 45.2327 50.7407 45.4007 50.386 45.522C50.0313 45.634 49.644 45.69 49.224 45.69C48.8413 45.69 48.496 45.648 48.188 45.564C48.0573 45.6387 47.9267 45.7553 47.796 45.914C47.6747 46.0633 47.614 46.2267 47.614 46.404C47.614 46.572 47.6747 46.7213 47.796 46.852C47.9173 46.9733 48.188 47.0387 48.608 47.048L50.47 47.076ZM48.58 48.182C48.16 48.1727 47.8427 48.2847 47.628 48.518C47.4227 48.7513 47.32 49.0313 47.32 49.358C47.32 49.5633 47.362 49.7313 47.446 49.862C47.53 49.9927 47.6467 50.0953 47.796 50.17C47.9547 50.254 48.1367 50.31 48.342 50.338C48.5567 50.3753 48.79 50.394 49.042 50.394C49.7887 50.394 50.372 50.268 50.792 50.016C51.212 49.7733 51.422 49.4653 51.422 49.092C51.422 48.812 51.3333 48.5973 51.156 48.448C50.9787 48.2987 50.652 48.2193 50.176 48.21L48.58 48.182ZM49.224 44.682C49.728 44.682 50.1013 44.542 50.344 44.262C50.5867 43.982 50.708 43.6227 50.708 43.184C50.708 42.736 50.5867 42.372 50.344 42.092C50.1013 41.8027 49.728 41.658 49.224 41.658C48.72 41.658 48.3467 41.8027 48.104 42.092C47.8707 42.372 47.754 42.736 47.754 43.184C47.754 43.6227 47.8707 43.982 48.104 44.262C48.3467 44.542 48.72 44.682 49.224 44.682ZM54.2743 40.818C54.3769 40.7993 54.4936 40.7853 54.6243 40.776C54.7549 40.7667 54.8669 40.762 54.9603 40.762C55.0629 40.762 55.1796 40.7667 55.3103 40.776C55.4409 40.7853 55.5576 40.7993 55.6603 40.818V44.752C55.6603 45.2 55.7023 45.5733 55.7863 45.872C55.8703 46.1613 55.9963 46.39 56.1643 46.558C56.3323 46.726 56.5376 46.8427 56.7803 46.908C57.0229 46.9733 57.3029 47.006 57.6203 47.006C58.0963 47.006 58.5023 46.9547 58.8383 46.852V40.818C58.9409 40.7993 59.0529 40.7853 59.1743 40.776C59.3049 40.7667 59.4216 40.762 59.5243 40.762C59.6269 40.762 59.7389 40.7667 59.8603 40.776C59.9909 40.7853 60.1076 40.7993 60.2103 40.818V47.776C59.8836 47.8693 59.4916 47.958 59.0343 48.042C58.5863 48.126 58.1196 48.168 57.6343 48.168C57.1769 48.168 56.7429 48.126 56.3323 48.042C55.9309 47.9673 55.5763 47.8087 55.2683 47.566C54.9603 47.3233 54.7176 46.9827 54.5403 46.544C54.3629 46.1053 54.2743 45.5267 54.2743 44.808V40.818ZM62.8173 41.91H61.9073C61.8887 41.8353 61.8747 41.7513 61.8653 41.658C61.856 41.5553 61.8513 41.4573 61.8513 41.364C61.8513 41.2707 61.856 41.1773 61.8653 41.084C61.8747 40.9813 61.8887 40.8927 61.9073 40.818H64.1753V48C64.0727 48.0187 63.956 48.0327 63.8253 48.042C63.704 48.0513 63.592 48.056 63.4893 48.056C63.396 48.056 63.284 48.0513 63.1533 48.042C63.032 48.0327 62.92 48.0187 62.8173 48V41.91ZM62.5093 39.236C62.4907 39.124 62.4767 39.0027 62.4673 38.872C62.4673 38.7413 62.4673 38.6247 62.4673 38.522C62.4673 38.4193 62.4673 38.3027 62.4673 38.172C62.4767 38.0413 62.4907 37.9247 62.5093 37.822C62.6307 37.8033 62.7613 37.7893 62.9013 37.78C63.0413 37.7707 63.1627 37.766 63.2653 37.766C63.368 37.766 63.4893 37.7707 63.6293 37.78C63.7693 37.7893 63.8953 37.8033 64.0073 37.822C64.026 37.9247 64.0353 38.0413 64.0353 38.172C64.0447 38.3027 64.0493 38.4193 64.0493 38.522C64.0493 38.6247 64.0447 38.7413 64.0353 38.872C64.0353 39.0027 64.026 39.124 64.0073 39.236C63.8953 39.2547 63.7693 39.2687 63.6293 39.278C63.4987 39.2873 63.382 39.292 63.2793 39.292C63.1673 39.292 63.0413 39.2873 62.9013 39.278C62.7613 39.2687 62.6307 39.2547 62.5093 39.236ZM67.4665 44.752C67.4852 45.536 67.6859 46.11 68.0685 46.474C68.4605 46.838 69.0345 47.02 69.7905 47.02C70.4532 47.02 71.0832 46.9033 71.6805 46.67C71.7552 46.81 71.8159 46.9827 71.8625 47.188C71.9092 47.384 71.9372 47.58 71.9465 47.776C71.6385 47.9067 71.2979 48.0047 70.9245 48.07C70.5605 48.1353 70.1545 48.168 69.7065 48.168C69.0532 48.168 68.4932 48.0793 68.0265 47.902C67.5599 47.7153 67.1725 47.4587 66.8645 47.132C66.5659 46.796 66.3465 46.404 66.2065 45.956C66.0665 45.4987 65.9965 44.9993 65.9965 44.458C65.9965 43.926 66.0619 43.4313 66.1925 42.974C66.3325 42.5073 66.5425 42.106 66.8225 41.77C67.1025 41.4247 67.4525 41.154 67.8725 40.958C68.3019 40.7527 68.8059 40.65 69.3845 40.65C69.8792 40.65 70.3132 40.734 70.6865 40.902C71.0599 41.07 71.3725 41.3033 71.6245 41.602C71.8765 41.8913 72.0679 42.2413 72.1985 42.652C72.3292 43.0533 72.3945 43.492 72.3945 43.968C72.3945 44.0987 72.3899 44.2387 72.3805 44.388C72.3712 44.528 72.3619 44.6493 72.3525 44.752H67.4665ZM71.0225 43.716C71.0225 43.4547 70.9852 43.2073 70.9105 42.974C70.8452 42.7313 70.7425 42.5213 70.6025 42.344C70.4719 42.1667 70.2992 42.0267 70.0845 41.924C69.8792 41.812 69.6319 41.756 69.3425 41.756C68.7732 41.756 68.3345 41.9287 68.0265 42.274C67.7279 42.6193 67.5459 43.1 67.4805 43.716H71.0225ZM74.2098 40.818C74.3125 40.7993 74.4105 40.7853 74.5038 40.776C74.6065 40.7667 74.7092 40.762 74.8118 40.762C74.9145 40.762 75.0078 40.7667 75.0918 40.776C75.1852 40.7853 75.2832 40.7993 75.3858 40.818C75.4138 40.958 75.4418 41.1493 75.4698 41.392C75.4978 41.6253 75.5118 41.8213 75.5118 41.98C75.6052 41.8213 75.7218 41.6627 75.8618 41.504C76.0112 41.3453 76.1792 41.2053 76.3658 41.084C76.5525 40.9533 76.7672 40.8507 77.0098 40.776C77.2525 40.692 77.5185 40.65 77.8078 40.65C78.6292 40.65 79.2358 40.888 79.6278 41.364C80.0198 41.8307 80.2158 42.526 80.2158 43.45V48C80.1132 48.0187 79.9965 48.0327 79.8658 48.042C79.7352 48.0513 79.6185 48.056 79.5158 48.056C79.4132 48.056 79.2965 48.0513 79.1658 48.042C79.0445 48.0327 78.9325 48.0187 78.8298 48V43.828C78.8298 43.1653 78.7272 42.68 78.5218 42.372C78.3165 42.0547 77.9898 41.896 77.5418 41.896C77.2805 41.896 77.0332 41.9427 76.7998 42.036C76.5665 42.1293 76.3612 42.274 76.1838 42.47C76.0065 42.666 75.8618 42.9227 75.7498 43.24C75.6472 43.548 75.5958 43.9213 75.5958 44.36V48C75.4932 48.0187 75.3765 48.0327 75.2458 48.042C75.1245 48.0513 75.0125 48.056 74.9098 48.056C74.8072 48.056 74.6905 48.0513 74.5598 48.042C74.4292 48.0327 74.3125 48.0187 74.2098 48V40.818ZM82.5696 41.924H81.4776L81.4216 41.728L83.8296 39.04H83.9416V40.818H85.7616C85.7989 40.9767 85.8176 41.154 85.8176 41.35C85.8176 41.4527 85.8129 41.5507 85.8036 41.644C85.7943 41.7373 85.7803 41.8307 85.7616 41.924H83.9416V45.2C83.9416 45.592 83.9556 45.9047 83.9836 46.138C84.0209 46.3713 84.0769 46.5533 84.1516 46.684C84.2356 46.8053 84.3429 46.8893 84.4736 46.936C84.6136 46.9733 84.7863 46.992 84.9916 46.992C85.1503 46.992 85.2996 46.9827 85.4396 46.964C85.5796 46.936 85.7056 46.908 85.8176 46.88C85.8829 47.0667 85.9203 47.258 85.9296 47.454C85.9483 47.65 85.9576 47.8227 85.9576 47.972C85.7709 48.0187 85.5749 48.0513 85.3696 48.07C85.1643 48.098 84.9449 48.112 84.7116 48.112C84.0396 48.112 83.5123 47.9487 83.1296 47.622C82.7563 47.2953 82.5696 46.754 82.5696 45.998V41.924ZM88.3572 44.752C88.3758 45.536 88.5765 46.11 88.9592 46.474C89.3512 46.838 89.9252 47.02 90.6812 47.02C91.3438 47.02 91.9738 46.9033 92.5712 46.67C92.6458 46.81 92.7065 46.9827 92.7532 47.188C92.7998 47.384 92.8278 47.58 92.8372 47.776C92.5292 47.9067 92.1885 48.0047 91.8152 48.07C91.4512 48.1353 91.0452 48.168 90.5972 48.168C89.9438 48.168 89.3838 48.0793 88.9172 47.902C88.4505 47.7153 88.0632 47.4587 87.7552 47.132C87.4565 46.796 87.2372 46.404 87.0972 45.956C86.9572 45.4987 86.8872 44.9993 86.8872 44.458C86.8872 43.926 86.9525 43.4313 87.0832 42.974C87.2232 42.5073 87.4332 42.106 87.7132 41.77C87.9932 41.4247 88.3432 41.154 88.7632 40.958C89.1925 40.7527 89.6965 40.65 90.2752 40.65C90.7698 40.65 91.2038 40.734 91.5772 40.902C91.9505 41.07 92.2632 41.3033 92.5152 41.602C92.7672 41.8913 92.9585 42.2413 93.0892 42.652C93.2198 43.0533 93.2852 43.492 93.2852 43.968C93.2852 44.0987 93.2805 44.2387 93.2712 44.388C93.2618 44.528 93.2525 44.6493 93.2432 44.752H88.3572ZM91.9132 43.716C91.9132 43.4547 91.8758 43.2073 91.8012 42.974C91.7358 42.7313 91.6332 42.5213 91.4932 42.344C91.3625 42.1667 91.1898 42.0267 90.9752 41.924C90.7698 41.812 90.5225 41.756 90.2332 41.756C89.6638 41.756 89.2252 41.9287 88.9172 42.274C88.6185 42.6193 88.4365 43.1 88.3712 43.716H91.9132ZM94.9745 46.698C95.2265 46.8007 95.5018 46.8847 95.8005 46.95C96.1085 47.006 96.4118 47.034 96.7105 47.034C96.9251 47.034 97.1305 47.0107 97.3265 46.964C97.5225 46.9173 97.6905 46.8473 97.8305 46.754C97.9798 46.6607 98.0965 46.5487 98.1805 46.418C98.2738 46.278 98.3205 46.124 98.3205 45.956C98.3205 45.7693 98.2831 45.6153 98.2085 45.494C98.1431 45.3727 98.0498 45.27 97.9285 45.186C97.8165 45.102 97.6811 45.032 97.5225 44.976C97.3731 44.9107 97.2098 44.85 97.0325 44.794L96.5425 44.612C95.9451 44.388 95.5111 44.136 95.2405 43.856C94.9698 43.576 94.8345 43.198 94.8345 42.722C94.8345 42.0873 95.0585 41.5833 95.5065 41.21C95.9638 40.8367 96.6311 40.65 97.5085 40.65C97.8725 40.65 98.2271 40.6873 98.5725 40.762C98.9271 40.8273 99.2351 40.9067 99.4965 41C99.4778 41.1867 99.4405 41.3733 99.3845 41.56C99.3378 41.7467 99.2771 41.9193 99.2025 42.078C98.9971 42.0033 98.7498 41.9333 98.4605 41.868C98.1805 41.7933 97.8771 41.756 97.5505 41.756C97.2051 41.756 96.8971 41.8167 96.6265 41.938C96.3651 42.0593 96.2345 42.274 96.2345 42.582C96.2345 42.7407 96.2671 42.876 96.3325 42.988C96.3978 43.1 96.4865 43.198 96.5985 43.282C96.7105 43.3567 96.8365 43.422 96.9765 43.478C97.1258 43.534 97.2845 43.59 97.4525 43.646L98.0685 43.856C98.2925 43.9307 98.5025 44.0193 98.6985 44.122C98.9038 44.2247 99.0765 44.3553 99.2165 44.514C99.3658 44.6633 99.4825 44.85 99.5665 45.074C99.6598 45.2887 99.7065 45.55 99.7065 45.858C99.7065 46.2033 99.6365 46.5207 99.4965 46.81C99.3565 47.09 99.1558 47.3327 98.8945 47.538C98.6425 47.734 98.3345 47.888 97.9705 48C97.6065 48.112 97.2051 48.168 96.7665 48.168C96.3185 48.168 95.9265 48.1353 95.5905 48.07C95.2545 48.014 94.9418 47.9347 94.6525 47.832C94.6711 47.6453 94.7085 47.4587 94.7645 47.272C94.8298 47.076 94.8998 46.8847 94.9745 46.698ZM108.588 44.626C108.448 44.6073 108.27 44.5887 108.056 44.57C107.841 44.5513 107.659 44.542 107.51 44.542C106.931 44.542 106.488 44.6493 106.18 44.864C105.881 45.0787 105.732 45.4053 105.732 45.844C105.732 46.124 105.783 46.3433 105.886 46.502C105.988 46.6607 106.114 46.782 106.264 46.866C106.422 46.95 106.595 47.0013 106.782 47.02C106.968 47.0387 107.146 47.048 107.314 47.048C107.528 47.048 107.748 47.0387 107.972 47.02C108.205 46.992 108.41 46.9547 108.588 46.908V44.626ZM108.588 43.268C108.588 42.7173 108.448 42.3347 108.168 42.12C107.888 41.9053 107.482 41.798 106.95 41.798C106.623 41.798 106.315 41.826 106.026 41.882C105.746 41.9287 105.47 41.994 105.2 42.078C105.022 41.77 104.934 41.4013 104.934 40.972C105.251 40.8693 105.601 40.79 105.984 40.734C106.366 40.678 106.735 40.65 107.09 40.65C108.023 40.65 108.732 40.8647 109.218 41.294C109.703 41.714 109.946 42.3907 109.946 43.324V47.818C109.619 47.8927 109.222 47.9673 108.756 48.042C108.289 48.126 107.813 48.168 107.328 48.168C106.87 48.168 106.455 48.126 106.082 48.042C105.718 47.958 105.405 47.8227 105.144 47.636C104.892 47.4493 104.696 47.2113 104.556 46.922C104.416 46.6327 104.346 46.2827 104.346 45.872C104.346 45.4707 104.425 45.1207 104.584 44.822C104.752 44.514 104.976 44.262 105.256 44.066C105.536 43.8607 105.858 43.7113 106.222 43.618C106.586 43.5153 106.968 43.464 107.37 43.464C107.668 43.464 107.911 43.4733 108.098 43.492C108.294 43.5013 108.457 43.5153 108.588 43.534V43.268ZM114.476 48.014C114.402 48.014 114.322 48.014 114.238 48.014C114.164 48.0233 114.089 48.028 114.014 48.028C113.921 48.028 113.823 48.0233 113.72 48.014C113.618 48.014 113.534 48.0093 113.468 48L111.088 40.818C111.21 40.7993 111.336 40.79 111.466 40.79C111.597 40.7807 111.718 40.776 111.83 40.776C111.952 40.776 112.087 40.7807 112.236 40.79C112.386 40.79 112.512 40.7993 112.614 40.818L114.602 47.496L116.66 40.818C116.856 40.79 117.085 40.776 117.346 40.776C117.449 40.776 117.566 40.7807 117.696 40.79C117.827 40.79 117.958 40.7993 118.088 40.818L115.302 49.456C115.172 49.8387 115.036 50.1607 114.896 50.422C114.756 50.6833 114.598 50.8933 114.42 51.052C114.243 51.2107 114.042 51.3227 113.818 51.388C113.604 51.4533 113.352 51.486 113.062 51.486C112.848 51.486 112.633 51.4673 112.418 51.43C112.213 51.402 112.031 51.3647 111.872 51.318C111.872 51.1033 111.891 50.912 111.928 50.744C111.966 50.576 112.022 50.408 112.096 50.24C112.18 50.268 112.292 50.296 112.432 50.324C112.582 50.3613 112.74 50.38 112.908 50.38C113.03 50.38 113.142 50.366 113.244 50.338C113.356 50.3193 113.459 50.2727 113.552 50.198C113.646 50.1327 113.73 50.0347 113.804 49.904C113.888 49.7733 113.968 49.596 114.042 49.372L114.476 48.014ZM119.352 40.818C119.455 40.7993 119.572 40.7853 119.702 40.776C119.833 40.7667 119.945 40.762 120.038 40.762C120.141 40.762 120.258 40.7667 120.388 40.776C120.519 40.7853 120.636 40.7993 120.738 40.818V44.752C120.738 45.2 120.78 45.5733 120.864 45.872C120.948 46.1613 121.074 46.39 121.242 46.558C121.41 46.726 121.616 46.8427 121.858 46.908C122.101 46.9733 122.381 47.006 122.698 47.006C123.174 47.006 123.58 46.9547 123.916 46.852V40.818C124.019 40.7993 124.131 40.7853 124.252 40.776C124.383 40.7667 124.5 40.762 124.602 40.762C124.705 40.762 124.817 40.7667 124.938 40.776C125.069 40.7853 125.186 40.7993 125.288 40.818V47.776C124.962 47.8693 124.57 47.958 124.112 48.042C123.664 48.126 123.198 48.168 122.712 48.168C122.255 48.168 121.821 48.126 121.41 48.042C121.009 47.9673 120.654 47.8087 120.346 47.566C120.038 47.3233 119.796 46.9827 119.618 46.544C119.441 46.1053 119.352 45.5267 119.352 44.808V40.818ZM132.081 37.738C132.184 37.7193 132.301 37.7053 132.431 37.696C132.562 37.6867 132.674 37.682 132.767 37.682C132.87 37.682 132.982 37.6867 133.103 37.696C133.234 37.7053 133.351 37.7193 133.453 37.738V47.804C133.099 47.9067 132.702 47.9907 132.263 48.056C131.825 48.1307 131.335 48.168 130.793 48.168C130.289 48.168 129.809 48.1073 129.351 47.986C128.903 47.8553 128.511 47.6453 128.175 47.356C127.839 47.0667 127.573 46.6933 127.377 46.236C127.181 45.7787 127.083 45.214 127.083 44.542C127.083 43.9633 127.167 43.436 127.335 42.96C127.513 42.484 127.76 42.078 128.077 41.742C128.395 41.3967 128.773 41.1307 129.211 40.944C129.659 40.7573 130.154 40.664 130.695 40.664C130.938 40.664 131.181 40.6827 131.423 40.72C131.675 40.7573 131.895 40.804 132.081 40.86V37.738ZM132.081 42.036C131.895 41.9613 131.694 41.9053 131.479 41.868C131.265 41.8307 131.031 41.812 130.779 41.812C130.397 41.812 130.065 41.882 129.785 42.022C129.505 42.162 129.272 42.3533 129.085 42.596C128.908 42.8387 128.773 43.128 128.679 43.464C128.595 43.7907 128.553 44.15 128.553 44.542C128.563 45.4287 128.773 46.0633 129.183 46.446C129.594 46.8287 130.154 47.02 130.863 47.02C131.106 47.02 131.33 47.0107 131.535 46.992C131.741 46.964 131.923 46.9267 132.081 46.88V42.036ZM139.473 44.626C139.333 44.6073 139.155 44.5887 138.941 44.57C138.726 44.5513 138.544 44.542 138.395 44.542C137.816 44.542 137.373 44.6493 137.065 44.864C136.766 45.0787 136.617 45.4053 136.617 45.844C136.617 46.124 136.668 46.3433 136.771 46.502C136.873 46.6607 136.999 46.782 137.149 46.866C137.307 46.95 137.48 47.0013 137.667 47.02C137.853 47.0387 138.031 47.048 138.199 47.048C138.413 47.048 138.633 47.0387 138.857 47.02C139.09 46.992 139.295 46.9547 139.473 46.908V44.626ZM139.473 43.268C139.473 42.7173 139.333 42.3347 139.053 42.12C138.773 41.9053 138.367 41.798 137.835 41.798C137.508 41.798 137.2 41.826 136.911 41.882C136.631 41.9287 136.355 41.994 136.085 42.078C135.907 41.77 135.819 41.4013 135.819 40.972C136.136 40.8693 136.486 40.79 136.869 40.734C137.251 40.678 137.62 40.65 137.975 40.65C138.908 40.65 139.617 40.8647 140.103 41.294C140.588 41.714 140.831 42.3907 140.831 43.324V47.818C140.504 47.8927 140.107 47.9673 139.641 48.042C139.174 48.126 138.698 48.168 138.213 48.168C137.755 48.168 137.34 48.126 136.967 48.042C136.603 47.958 136.29 47.8227 136.029 47.636C135.777 47.4493 135.581 47.2113 135.441 46.922C135.301 46.6327 135.231 46.2827 135.231 45.872C135.231 45.4707 135.31 45.1207 135.469 44.822C135.637 44.514 135.861 44.262 136.141 44.066C136.421 43.8607 136.743 43.7113 137.107 43.618C137.471 43.5153 137.853 43.464 138.255 43.464C138.553 43.464 138.796 43.4733 138.983 43.492C139.179 43.5013 139.342 43.5153 139.473 43.534V43.268ZM142.785 46.698C143.037 46.8007 143.312 46.8847 143.611 46.95C143.919 47.006 144.222 47.034 144.521 47.034C144.736 47.034 144.941 47.0107 145.137 46.964C145.333 46.9173 145.501 46.8473 145.641 46.754C145.79 46.6607 145.907 46.5487 145.991 46.418C146.084 46.278 146.131 46.124 146.131 45.956C146.131 45.7693 146.094 45.6153 146.019 45.494C145.954 45.3727 145.86 45.27 145.739 45.186C145.627 45.102 145.492 45.032 145.333 44.976C145.184 44.9107 145.02 44.85 144.843 44.794L144.353 44.612C143.756 44.388 143.322 44.136 143.051 43.856C142.78 43.576 142.645 43.198 142.645 42.722C142.645 42.0873 142.869 41.5833 143.317 41.21C143.774 40.8367 144.442 40.65 145.319 40.65C145.683 40.65 146.038 40.6873 146.383 40.762C146.738 40.8273 147.046 40.9067 147.307 41C147.288 41.1867 147.251 41.3733 147.195 41.56C147.148 41.7467 147.088 41.9193 147.013 42.078C146.808 42.0033 146.56 41.9333 146.271 41.868C145.991 41.7933 145.688 41.756 145.361 41.756C145.016 41.756 144.708 41.8167 144.437 41.938C144.176 42.0593 144.045 42.274 144.045 42.582C144.045 42.7407 144.078 42.876 144.143 42.988C144.208 43.1 144.297 43.198 144.409 43.282C144.521 43.3567 144.647 43.422 144.787 43.478C144.936 43.534 145.095 43.59 145.263 43.646L145.879 43.856C146.103 43.9307 146.313 44.0193 146.509 44.122C146.714 44.2247 146.887 44.3553 147.027 44.514C147.176 44.6633 147.293 44.85 147.377 45.074C147.47 45.2887 147.517 45.55 147.517 45.858C147.517 46.2033 147.447 46.5207 147.307 46.81C147.167 47.09 146.966 47.3327 146.705 47.538C146.453 47.734 146.145 47.888 145.781 48C145.417 48.112 145.016 48.168 144.577 48.168C144.129 48.168 143.737 48.1353 143.401 48.07C143.065 48.014 142.752 47.9347 142.463 47.832C142.482 47.6453 142.519 47.4587 142.575 47.272C142.64 47.076 142.71 46.8847 142.785 46.698Z" fill="white"/>
</g>
<ellipse cx="178.5" cy="34.5" rx="21.5" ry="22.5" fill="white"/>
<path fill-rule="evenodd" clip-rule="evenodd" d="M204.456 34.9995C204.456 41.7504 201.774 48.2249 197 52.9985C192.227 57.7722 185.752 60.454 179.001 60.454C172.25 60.454 165.776 57.7722 161.002 52.9985C156.229 48.2249 153.547 41.7504 153.547 34.9995C153.547 28.2485 156.229 21.774 161.002 17.0004C165.776 12.2267 172.25 9.54492 179.001 9.54492C185.752 9.54492 192.227 12.2267 197 17.0004C201.774 21.774 204.456 28.2485 204.456 34.9995ZM179.001 25.454C178.442 25.4535 177.893 25.6002 177.409 25.8795C176.924 26.1588 176.522 26.5608 176.243 27.0449C176.041 27.42 175.766 27.7507 175.434 28.0175C175.102 28.2843 174.72 28.4816 174.31 28.598C173.9 28.7143 173.471 28.7472 173.049 28.6946C172.626 28.6421 172.218 28.5053 171.849 28.2922C171.48 28.0792 171.158 27.7942 170.902 27.4543C170.645 27.1144 170.459 26.7264 170.355 26.3134C170.251 25.9003 170.231 25.4706 170.297 25.0497C170.362 24.6288 170.511 24.2253 170.735 23.8631C171.786 22.0435 173.407 20.6213 175.349 19.8173C177.29 19.0133 179.442 18.8722 181.472 19.4161C183.502 19.9599 185.295 21.1582 186.574 22.8252C187.853 24.4922 188.547 26.5346 188.547 28.6358C188.547 30.6105 187.936 32.5368 186.796 34.1495C185.656 35.7621 184.045 36.9817 182.183 37.6404V38.1813C182.183 39.0252 181.848 39.8345 181.251 40.4312C180.655 41.0279 179.845 41.3631 179.001 41.3631C178.158 41.3631 177.348 41.0279 176.752 40.4312C176.155 39.8345 175.82 39.0252 175.82 38.1813V34.9995C175.82 34.1556 176.155 33.3463 176.752 32.7496C177.348 32.1529 178.158 31.8176 179.001 31.8176C179.845 31.8176 180.655 31.4824 181.251 30.8857C181.848 30.289 182.183 29.4797 182.183 28.6358C182.183 27.792 181.848 26.9827 181.251 26.3859C180.655 25.7892 179.845 25.454 179.001 25.454ZM179.001 50.9086C179.845 50.9086 180.655 50.5733 181.251 49.9766C181.848 49.3799 182.183 48.5706 182.183 47.7267C182.183 46.8829 181.848 46.0736 181.251 45.4769C180.655 44.8801 179.845 44.5449 179.001 44.5449C178.158 44.5449 177.348 44.8801 176.752 45.4769C176.155 46.0736 175.82 46.8829 175.82 47.7267C175.82 48.5706 176.155 49.3799 176.752 49.9766C177.348 50.5733 178.158 50.9086 179.001 50.9086Z" fill="#00A99D"/>
<defs>
<filter id="filter0_d_3619_49295" x="0" y="10" width="186" height="58" filterUnits="userSpaceOnUse" color-interpolation-filters="sRGB">
<feFlood flood-opacity="0" result="BackgroundImageFix"/>
<feColorMatrix in="SourceAlpha" type="matrix" values="0 0 0 0 0 0 0 0 0 0 0 0 0 0 0 0 0 0 127 0" result="hardAlpha"/>
<feOffset dy="4"/>
<feGaussianBlur stdDeviation="2"/>
<feComposite in2="hardAlpha" operator="out"/>
<feColorMatrix type="matrix" values="0 0 0 0 0 0 0 0 0 0 0 0 0 0 0 0 0 0 0.25 0"/>
<feBlend mode="normal" in2="BackgroundImageFix" result="effect1_dropShadow_3619_49295"/>
<feBlend mode="normal" in="SourceGraphic" in2="effect1_dropShadow_3619_49295" result="shape"/>
</filter>
</defs>
</svg>
