<svg width="60" height="60" viewBox="0 0 60 60" fill="none" xmlns="http://www.w3.org/2000/svg">
<path d="M34.4566 34.4468H14.4526C14.1265 34.4468 13.8594 34.7119 13.8594 35.0343C13.8594 35.3568 14.1265 35.623 14.4526 35.623H34.4566C34.7828 35.623 35.0486 35.358 35.0486 35.0343C35.0486 34.7107 34.7815 34.4468 34.4566 34.4468ZM35.9447 39.3483H14.4526C14.1265 39.3483 13.8594 39.6023 13.8594 39.926C13.8594 40.2497 14.1265 40.5135 14.4526 40.5135H35.9447C36.2709 40.5135 36.5367 40.2594 36.5367 39.926C36.5367 39.5926 36.2696 39.3483 35.9447 39.3483ZM37.9547 29.5564H14.4526C14.1265 29.5564 13.8594 29.8214 13.8594 30.1439C13.8594 30.4663 14.1265 30.7326 14.4526 30.7326H37.9547C38.2809 30.7326 38.5467 30.4676 38.5467 30.1439C38.5467 29.8202 38.2796 29.5564 37.9547 29.5564ZM40.0004 44.2387H14.4526C14.1265 44.2387 13.8594 44.5038 13.8594 44.8274C13.8594 45.1511 14.1265 45.4149 14.4526 45.4149H40.0004C40.3266 45.4149 40.5813 45.1499 40.5813 44.8274C40.5813 44.505 40.3266 44.2387 40.0004 44.2387ZM41.9993 24.666H14.4526C14.1265 24.666 13.8594 24.92 13.8594 25.2437C13.8594 25.5673 14.1265 25.8312 14.4526 25.8312H41.9993C42.3255 25.8312 42.5926 25.5771 42.5926 25.2437C42.5926 24.9102 42.3255 24.666 41.9993 24.666ZM41.9993 19.7645H14.5917C14.2668 19.7645 13.9997 20.0296 13.9997 20.352C13.9997 20.6745 14.2668 20.9395 14.5917 20.9395H42.0005C42.3267 20.9395 42.5938 20.6745 42.5938 20.352C42.5938 20.0296 42.3267 19.7645 42.0005 19.7645H41.9993ZM41.9993 14.8729H14.4526C14.1265 14.8729 13.8594 15.1379 13.8594 15.4604C13.8594 15.7828 14.1265 16.0491 14.4526 16.0491H41.9993C42.3255 16.0491 42.5926 15.784 42.5926 15.4604C42.5926 15.1367 42.3255 14.8729 41.9993 14.8729ZM41.9993 9.98242H14.4526C14.1265 9.98242 13.8594 10.2365 13.8594 10.5601C13.8594 10.8838 14.1265 11.1476 14.4526 11.1476H41.9993C42.3255 11.1476 42.5926 10.8936 42.5926 10.5601C42.5926 10.2267 42.3255 9.98242 41.9993 9.98242ZM34.4566 34.4468H14.4526C14.1265 34.4468 13.8594 34.7119 13.8594 35.0343C13.8594 35.3568 14.1265 35.623 14.4526 35.623H34.4566C34.7828 35.623 35.0486 35.358 35.0486 35.0343C35.0486 34.7107 34.7815 34.4468 34.4566 34.4468ZM35.9447 39.3483H14.4526C14.1265 39.3483 13.8594 39.6023 13.8594 39.926C13.8594 40.2497 14.1265 40.5135 14.4526 40.5135H35.9447C36.2709 40.5135 36.5367 40.2594 36.5367 39.926C36.5367 39.5926 36.2696 39.3483 35.9447 39.3483ZM37.9547 29.5564H14.4526C14.1265 29.5564 13.8594 29.8214 13.8594 30.1439C13.8594 30.4663 14.1265 30.7326 14.4526 30.7326H37.9547C38.2809 30.7326 38.5467 30.4676 38.5467 30.1439C38.5467 29.8202 38.2796 29.5564 37.9547 29.5564ZM40.0004 44.2387H14.4526C14.1265 44.2387 13.8594 44.5038 13.8594 44.8274C13.8594 45.1511 14.1265 45.4149 14.4526 45.4149H40.0004C40.3266 45.4149 40.5813 45.1499 40.5813 44.8274C40.5813 44.505 40.3266 44.2387 40.0004 44.2387ZM41.9993 24.666H14.4526C14.1265 24.666 13.8594 24.92 13.8594 25.2437C13.8594 25.5673 14.1265 25.8312 14.4526 25.8312H41.9993C42.3255 25.8312 42.5926 25.5771 42.5926 25.2437C42.5926 24.9102 42.3255 24.666 41.9993 24.666ZM41.9993 19.7645H14.5917C14.2668 19.7645 13.9997 20.0296 13.9997 20.352C13.9997 20.6745 14.2668 20.9395 14.5917 20.9395H42.0005C42.3267 20.9395 42.5938 20.6745 42.5938 20.352C42.5938 20.0296 42.3267 19.7645 42.0005 19.7645H41.9993ZM41.9993 14.8729H14.4526C14.1265 14.8729 13.8594 15.1379 13.8594 15.4604C13.8594 15.7828 14.1265 16.0491 14.4526 16.0491H41.9993C42.3255 16.0491 42.5926 15.784 42.5926 15.4604C42.5926 15.1367 42.3255 14.8729 41.9993 14.8729ZM41.9993 9.98242H14.4526C14.1265 9.98242 13.8594 10.2365 13.8594 10.5601C13.8594 10.8838 14.1265 11.1476 14.4526 11.1476H41.9993C42.3255 11.1476 42.5926 10.8936 42.5926 10.5601C42.5926 10.2267 42.3255 9.98242 41.9993 9.98242ZM41.9993 9.98242H14.4526C14.1265 9.98242 13.8594 10.2365 13.8594 10.5601C13.8594 10.8838 14.1265 11.1476 14.4526 11.1476H41.9993C42.3255 11.1476 42.5926 10.8936 42.5926 10.5601C42.5926 10.2267 42.3255 9.98242 41.9993 9.98242ZM41.9993 14.8729H14.4526C14.1265 14.8729 13.8594 15.1379 13.8594 15.4604C13.8594 15.7828 14.1265 16.0491 14.4526 16.0491H41.9993C42.3255 16.0491 42.5926 15.784 42.5926 15.4604C42.5926 15.1367 42.3255 14.8729 41.9993 14.8729ZM41.9993 19.7645H14.5917C14.2668 19.7645 13.9997 20.0296 13.9997 20.352C13.9997 20.6745 14.2668 20.9395 14.5917 20.9395H42.0005C42.3267 20.9395 42.5938 20.6745 42.5938 20.352C42.5938 20.0296 42.3267 19.7645 42.0005 19.7645H41.9993ZM41.9993 24.666H14.4526C14.1265 24.666 13.8594 24.92 13.8594 25.2437C13.8594 25.5673 14.1265 25.8312 14.4526 25.8312H41.9993C42.3255 25.8312 42.5926 25.5771 42.5926 25.2437C42.5926 24.9102 42.3255 24.666 41.9993 24.666ZM40.0004 44.2387H14.4526C14.1265 44.2387 13.8594 44.5038 13.8594 44.8274C13.8594 45.1511 14.1265 45.4149 14.4526 45.4149H40.0004C40.3266 45.4149 40.5813 45.1499 40.5813 44.8274C40.5813 44.505 40.3266 44.2387 40.0004 44.2387ZM37.9547 29.5564H14.4526C14.1265 29.5564 13.8594 29.8214 13.8594 30.1439C13.8594 30.4663 14.1265 30.7326 14.4526 30.7326H37.9547C38.2809 30.7326 38.5467 30.4676 38.5467 30.1439C38.5467 29.8202 38.2796 29.5564 37.9547 29.5564ZM35.9447 39.3483H14.4526C14.1265 39.3483 13.8594 39.6023 13.8594 39.926C13.8594 40.2497 14.1265 40.5135 14.4526 40.5135H35.9447C36.2709 40.5135 36.5367 40.2594 36.5367 39.926C36.5367 39.5926 36.2696 39.3483 35.9447 39.3483ZM34.4566 34.4468H14.4526C14.1265 34.4468 13.8594 34.7119 13.8594 35.0343C13.8594 35.3568 14.1265 35.623 14.4526 35.623H34.4566C34.7828 35.623 35.0486 35.358 35.0486 35.0343C35.0486 34.7107 34.7815 34.4468 34.4566 34.4468ZM41.9993 9.98242H14.4526C14.1265 9.98242 13.8594 10.2365 13.8594 10.5601C13.8594 10.8838 14.1265 11.1476 14.4526 11.1476H41.9993C42.3255 11.1476 42.5926 10.8936 42.5926 10.5601C42.5926 10.2267 42.3255 9.98242 41.9993 9.98242ZM41.9993 14.8729H14.4526C14.1265 14.8729 13.8594 15.1379 13.8594 15.4604C13.8594 15.7828 14.1265 16.0491 14.4526 16.0491H41.9993C42.3255 16.0491 42.5926 15.784 42.5926 15.4604C42.5926 15.1367 42.3255 14.8729 41.9993 14.8729ZM41.9993 19.7645H14.5917C14.2668 19.7645 13.9997 20.0296 13.9997 20.352C13.9997 20.6745 14.2668 20.9395 14.5917 20.9395H42.0005C42.3267 20.9395 42.5938 20.6745 42.5938 20.352C42.5938 20.0296 42.3267 19.7645 42.0005 19.7645H41.9993ZM41.9993 24.666H14.4526C14.1265 24.666 13.8594 24.92 13.8594 25.2437C13.8594 25.5673 14.1265 25.8312 14.4526 25.8312H41.9993C42.3255 25.8312 42.5926 25.5771 42.5926 25.2437C42.5926 24.9102 42.3255 24.666 41.9993 24.666ZM40.0004 44.2387H14.4526C14.1265 44.2387 13.8594 44.5038 13.8594 44.8274C13.8594 45.1511 14.1265 45.4149 14.4526 45.4149H40.0004C40.3266 45.4149 40.5813 45.1499 40.5813 44.8274C40.5813 44.505 40.3266 44.2387 40.0004 44.2387ZM37.9547 29.5564H14.4526C14.1265 29.5564 13.8594 29.8214 13.8594 30.1439C13.8594 30.4663 14.1265 30.7326 14.4526 30.7326H37.9547C38.2809 30.7326 38.5467 30.4676 38.5467 30.1439C38.5467 29.8202 38.2796 29.5564 37.9547 29.5564ZM35.9447 39.3483H14.4526C14.1265 39.3483 13.8594 39.6023 13.8594 39.926C13.8594 40.2497 14.1265 40.5135 14.4526 40.5135H35.9447C36.2709 40.5135 36.5367 40.2594 36.5367 39.926C36.5367 39.5926 36.2696 39.3483 35.9447 39.3483ZM34.4566 34.4468H14.4526C14.1265 34.4468 13.8594 34.7119 13.8594 35.0343C13.8594 35.3568 14.1265 35.623 14.4526 35.623H34.4566C34.7828 35.623 35.0486 35.358 35.0486 35.0343C35.0486 34.7107 34.7815 34.4468 34.4566 34.4468ZM34.4566 34.4468H14.4526C14.1265 34.4468 13.8594 34.7119 13.8594 35.0343C13.8594 35.3568 14.1265 35.623 14.4526 35.623H34.4566C34.7828 35.623 35.0486 35.358 35.0486 35.0343C35.0486 34.7107 34.7815 34.4468 34.4566 34.4468ZM35.9447 39.3483H14.4526C14.1265 39.3483 13.8594 39.6023 13.8594 39.926C13.8594 40.2497 14.1265 40.5135 14.4526 40.5135H35.9447C36.2709 40.5135 36.5367 40.2594 36.5367 39.926C36.5367 39.5926 36.2696 39.3483 35.9447 39.3483ZM37.9547 29.5564H14.4526C14.1265 29.5564 13.8594 29.8214 13.8594 30.1439C13.8594 30.4663 14.1265 30.7326 14.4526 30.7326H37.9547C38.2809 30.7326 38.5467 30.4676 38.5467 30.1439C38.5467 29.8202 38.2796 29.5564 37.9547 29.5564ZM40.0004 44.2387H14.4526C14.1265 44.2387 13.8594 44.5038 13.8594 44.8274C13.8594 45.1511 14.1265 45.4149 14.4526 45.4149H40.0004C40.3266 45.4149 40.5813 45.1499 40.5813 44.8274C40.5813 44.505 40.3266 44.2387 40.0004 44.2387ZM41.9993 24.666H14.4526C14.1265 24.666 13.8594 24.92 13.8594 25.2437C13.8594 25.5673 14.1265 25.8312 14.4526 25.8312H41.9993C42.3255 25.8312 42.5926 25.5771 42.5926 25.2437C42.5926 24.9102 42.3255 24.666 41.9993 24.666ZM41.9993 19.7645H14.5917C14.2668 19.7645 13.9997 20.0296 13.9997 20.352C13.9997 20.6745 14.2668 20.9395 14.5917 20.9395H42.0005C42.3267 20.9395 42.5938 20.6745 42.5938 20.352C42.5938 20.0296 42.3267 19.7645 42.0005 19.7645H41.9993ZM41.9993 14.8729H14.4526C14.1265 14.8729 13.8594 15.1379 13.8594 15.4604C13.8594 15.7828 14.1265 16.0491 14.4526 16.0491H41.9993C42.3255 16.0491 42.5926 15.784 42.5926 15.4604C42.5926 15.1367 42.3255 14.8729 41.9993 14.8729ZM41.9993 9.98242H14.4526C14.1265 9.98242 13.8594 10.2365 13.8594 10.5601C13.8594 10.8838 14.1265 11.1476 14.4526 11.1476H41.9993C42.3255 11.1476 42.5926 10.8936 42.5926 10.5601C42.5926 10.2267 42.3255 9.98242 41.9993 9.98242ZM41.9993 9.98242H14.4526C14.1265 9.98242 13.8594 10.2365 13.8594 10.5601C13.8594 10.8838 14.1265 11.1476 14.4526 11.1476H41.9993C42.3255 11.1476 42.5926 10.8936 42.5926 10.5601C42.5926 10.2267 42.3255 9.98242 41.9993 9.98242ZM41.9993 14.8729H14.4526C14.1265 14.8729 13.8594 15.1379 13.8594 15.4604C13.8594 15.7828 14.1265 16.0491 14.4526 16.0491H41.9993C42.3255 16.0491 42.5926 15.784 42.5926 15.4604C42.5926 15.1367 42.3255 14.8729 41.9993 14.8729ZM41.9993 19.7645H14.5917C14.2668 19.7645 13.9997 20.0296 13.9997 20.352C13.9997 20.6745 14.2668 20.9395 14.5917 20.9395H42.0005C42.3267 20.9395 42.5938 20.6745 42.5938 20.352C42.5938 20.0296 42.3267 19.7645 42.0005 19.7645H41.9993ZM41.9993 24.666H14.4526C14.1265 24.666 13.8594 24.92 13.8594 25.2437C13.8594 25.5673 14.1265 25.8312 14.4526 25.8312H41.9993C42.3255 25.8312 42.5926 25.5771 42.5926 25.2437C42.5926 24.9102 42.3255 24.666 41.9993 24.666ZM37.9547 29.5564H14.4526C14.1265 29.5564 13.8594 29.8214 13.8594 30.1439C13.8594 30.4663 14.1265 30.7326 14.4526 30.7326H37.9547C38.2809 30.7326 38.5467 30.4676 38.5467 30.1439C38.5467 29.8202 38.2796 29.5564 37.9547 29.5564ZM34.4566 34.4468H14.4526C14.1265 34.4468 13.8594 34.7119 13.8594 35.0343C13.8594 35.3568 14.1265 35.623 14.4526 35.623H34.4566C34.7828 35.623 35.0486 35.358 35.0486 35.0343C35.0486 34.7107 34.7815 34.4468 34.4566 34.4468ZM35.9447 39.3483H14.4526C14.1265 39.3483 13.8594 39.6023 13.8594 39.926C13.8594 40.2497 14.1265 40.5135 14.4526 40.5135H35.9447C36.2709 40.5135 36.5367 40.2594 36.5367 39.926C36.5367 39.5926 36.2696 39.3483 35.9447 39.3483ZM40.0004 44.2387H14.4526C14.1265 44.2387 13.8594 44.5038 13.8594 44.8274C13.8594 45.1511 14.1265 45.4149 14.4526 45.4149H40.0004C40.3266 45.4149 40.5813 45.1499 40.5813 44.8274C40.5813 44.505 40.3266 44.2387 40.0004 44.2387ZM50.3408 33.267C50.0184 32.947 49.4928 32.947 49.1703 33.267L44.0154 38.3822L42.3366 36.7162C42.0141 36.3962 41.4885 36.3962 41.166 36.7162C40.8435 37.0362 40.8435 37.5577 41.166 37.8777L43.4209 40.1153C43.5908 40.2668 43.7939 40.351 44.0142 40.351C44.2345 40.351 44.4376 40.2668 44.5903 40.1324L50.3384 34.4285C50.6609 34.1085 50.6609 33.587 50.3384 33.267H50.3408Z" fill="url(#paint0_linear_1057_48232)"/>
<path d="M46.3114 27.3734V8.11454C46.3114 7.26079 45.9507 6.47666 45.3808 5.91116C44.8109 5.34565 44.033 5 43.1727 5H13.2775C12.4172 5 11.638 5.34565 11.0694 5.91116C10.4995 6.47666 10.1388 7.26079 10.1388 8.11454V10.1091H8.13869C7.27832 10.1091 6.48811 10.4547 5.91822 11.0202C5.34956 11.5857 5 12.3699 5 13.2236V51.8855C5 52.7392 5.34956 53.5233 5.91822 54.0888C6.48811 54.6531 7.26601 55 8.13869 55H38.0227C38.8831 55 39.661 54.6531 40.2309 54.0888L40.2432 54.0766C40.8008 53.5233 41.1614 52.7392 41.1614 51.8855V49.8909H43.1714C44.0318 49.8909 44.8097 49.5441 45.3796 48.9786C45.9495 48.4143 46.3101 47.6411 46.3101 46.7764V45.693C51.1486 45.4048 54.9828 41.4059 55 36.5326C55 31.658 51.1499 27.6592 46.3101 27.3722L46.3114 27.3734ZM39.9761 51.8855C39.9761 52.4155 39.7558 52.9004 39.4062 53.2571C39.0456 53.604 38.5582 53.8226 38.024 53.8226H8.13992C7.59342 53.8226 7.106 53.604 6.75767 53.2571C6.39703 52.8992 6.17547 52.4155 6.17547 51.8855V13.2236C6.17547 12.6813 6.39703 12.1976 6.75767 11.8508C7.106 11.4929 7.59465 11.2743 8.13992 11.2743H10.1401V46.7764C10.1401 47.6179 10.4884 48.3789 11.0349 48.9444C11.0472 48.9566 11.0583 48.9676 11.0706 48.9786C11.6393 49.5441 12.4184 49.8909 13.2788 49.8909H39.9774V51.8855H39.9761ZM45.126 46.7764C45.126 47.3065 44.9057 47.8024 44.5451 48.148C44.1967 48.5059 43.7081 48.7257 43.1727 48.7257H13.2775C12.7421 48.7257 12.2535 48.5059 11.9051 48.148C11.8928 48.1358 11.8817 48.1358 11.8707 48.1248C11.5334 47.7791 11.3229 47.2943 11.3229 46.7764V8.11454C11.3229 7.58324 11.5445 7.09835 11.9051 6.7417C12.2535 6.39605 12.7421 6.1762 13.2775 6.1762H43.1727C43.7069 6.1762 44.1967 6.39605 44.5451 6.7417C44.8934 7.08735 45.126 7.58324 45.126 8.11454V27.3783C44.4577 27.4223 43.8078 27.5371 43.1837 27.7166C42.9228 27.7911 42.6668 27.8766 42.4169 27.9743C40.5325 28.6974 38.9471 30.0202 37.8923 31.7032C37.7064 31.9976 37.5378 32.3041 37.3889 32.6217C36.846 33.7552 36.5322 35.0181 36.5063 36.3506C36.5063 36.4117 36.5039 36.4715 36.5039 36.5338C36.5039 36.7805 36.5137 37.0248 36.5346 37.2679C36.6306 38.4783 36.9654 39.6239 37.4947 40.6585C37.6547 40.976 37.8357 41.2826 38.0314 41.5769C39.5786 43.9012 42.1634 45.4915 45.126 45.6881V46.7764ZM45.7525 44.766C43.2736 44.766 41.0457 43.6814 39.5232 41.9653C39.277 41.6856 39.0481 41.3925 38.8425 41.0811C37.9661 39.7778 37.4566 38.212 37.4566 36.5326C37.4566 36.1894 37.4787 35.8523 37.5193 35.5201C37.667 34.3219 38.0769 33.2019 38.6899 32.2199C38.9102 31.8632 39.1588 31.5249 39.4309 31.2086C40.8882 29.5059 42.7136 28.5154 45.0854 28.3273C45.099 28.3273 45.1125 28.3249 45.126 28.3249C45.3341 28.309 45.5421 28.3004 45.7525 28.3004C45.8719 28.3004 45.9889 28.3029 46.1058 28.309C46.1747 28.3114 46.2437 28.3163 46.3114 28.32C50.6255 28.6046 54.0498 32.1808 54.0498 36.5338C54.0498 36.5619 54.0498 36.59 54.0498 36.6193C54.0042 41.1189 50.3006 44.7672 45.7538 44.7672L45.7525 44.766Z" fill="url(#paint1_linear_1057_48232)"/>
<defs>
<linearGradient id="paint0_linear_1057_48232" x1="28.8008" y1="8.62492" x2="34.733" y2="47.0439" gradientUnits="userSpaceOnUse">
<stop stop-color="#81319B"/>
<stop offset="0.465" stop-color="#00A99D"/>
<stop offset="1" stop-color="#0B2C4C"/>
</linearGradient>
<linearGradient id="paint1_linear_1057_48232" x1="30.0012" y1="5" x2="30.0012" y2="55" gradientUnits="userSpaceOnUse">
<stop stop-color="#81319B"/>
<stop offset="0.5" stop-color="#00A99D"/>
<stop offset="1" stop-color="#0B2C4C"/>
</linearGradient>
</defs>
</svg>
