<svg width="60" height="60" viewBox="0 0 60 60" fill="none" xmlns="http://www.w3.org/2000/svg">
<path d="M18.8934 16.7344C18.3482 16.7344 17.9074 16.2925 17.9074 15.7459C17.9074 15.1993 18.3482 14.7573 18.8934 14.7573C19.4385 14.7573 19.8793 15.1993 19.8793 15.7459C19.8793 16.0599 20.1344 16.3157 20.4476 16.3157C20.7608 16.3157 21.016 16.0599 21.016 15.7459C21.016 14.7759 20.3548 13.9514 19.4617 13.706V12.943C19.4617 12.629 19.2065 12.3732 18.8934 12.3732C18.5802 12.3732 18.325 12.629 18.325 12.943V13.7118C17.4435 13.9665 16.7939 14.7841 16.7939 15.7459C16.7939 16.9089 17.7335 17.8625 18.905 17.8625C19.4501 17.8625 19.8909 18.3045 19.8909 18.8511C19.8909 19.3977 19.493 19.7955 18.9861 19.8362C18.956 19.8304 18.9247 19.828 18.8934 19.828C18.8644 19.828 18.8365 19.8304 18.8087 19.835C18.3088 19.7862 17.919 19.3652 17.919 18.8511C17.919 18.5371 17.6639 18.2812 17.3507 18.2812C17.0375 18.2812 16.7823 18.5371 16.7823 18.8511C16.7823 19.8187 17.4319 20.641 18.325 20.8899V21.6307C18.325 21.9447 18.5802 22.2006 18.8934 22.2006C19.2065 22.2006 19.4617 21.9447 19.4617 21.6307V20.8899C20.3548 20.641 21.0044 19.8187 21.0044 18.8511C21.0044 17.6881 20.0649 16.7344 18.8934 16.7344ZM18.8934 16.7344C18.3482 16.7344 17.9074 16.2925 17.9074 15.7459C17.9074 15.1993 18.3482 14.7573 18.8934 14.7573C19.4385 14.7573 19.8793 15.1993 19.8793 15.7459C19.8793 16.0599 20.1344 16.3157 20.4476 16.3157C20.7608 16.3157 21.016 16.0599 21.016 15.7459C21.016 14.7759 20.3548 13.9514 19.4617 13.706V12.943C19.4617 12.629 19.2065 12.3732 18.8934 12.3732C18.5802 12.3732 18.325 12.629 18.325 12.943V13.7118C17.4435 13.9665 16.7939 14.7841 16.7939 15.7459C16.7939 16.9089 17.7335 17.8625 18.905 17.8625C19.4501 17.8625 19.8909 18.3045 19.8909 18.8511C19.8909 19.3977 19.493 19.7955 18.9861 19.8362C18.956 19.8304 18.9247 19.828 18.8934 19.828C18.8644 19.828 18.8365 19.8304 18.8087 19.835C18.3088 19.7862 17.919 19.3652 17.919 18.8511C17.919 18.5371 17.6639 18.2812 17.3507 18.2812C17.0375 18.2812 16.7823 18.5371 16.7823 18.8511C16.7823 19.8187 17.4319 20.641 18.325 20.8899V21.6307C18.325 21.9447 18.5802 22.2006 18.8934 22.2006C19.2065 22.2006 19.4617 21.9447 19.4617 21.6307V20.8899C20.3548 20.641 21.0044 19.8187 21.0044 18.8511C21.0044 17.6881 20.0649 16.7344 18.8934 16.7344ZM18.8934 16.7344C18.3482 16.7344 17.9074 16.2925 17.9074 15.7459C17.9074 15.1993 18.3482 14.7573 18.8934 14.7573C19.4385 14.7573 19.8793 15.1993 19.8793 15.7459C19.8793 16.0599 20.1344 16.3157 20.4476 16.3157C20.7608 16.3157 21.016 16.0599 21.016 15.7459C21.016 14.7759 20.3548 13.9514 19.4617 13.706V12.943C19.4617 12.629 19.2065 12.3732 18.8934 12.3732C18.5802 12.3732 18.325 12.629 18.325 12.943V13.7118C17.4435 13.9665 16.7939 14.7841 16.7939 15.7459C16.7939 16.9089 17.7335 17.8625 18.905 17.8625C19.4501 17.8625 19.8909 18.3045 19.8909 18.8511C19.8909 19.3977 19.493 19.7955 18.9861 19.8362C18.956 19.8304 18.9247 19.828 18.8934 19.828C18.8644 19.828 18.8365 19.8304 18.8087 19.835C18.3088 19.7862 17.919 19.3652 17.919 18.8511C17.919 18.5371 17.6639 18.2812 17.3507 18.2812C17.0375 18.2812 16.7823 18.5371 16.7823 18.8511C16.7823 19.8187 17.4319 20.641 18.325 20.8899V21.6307C18.325 21.9447 18.5802 22.2006 18.8934 22.2006C19.2065 22.2006 19.4617 21.9447 19.4617 21.6307V20.8899C20.3548 20.641 21.0044 19.8187 21.0044 18.8511C21.0044 17.6881 20.0649 16.7344 18.8934 16.7344ZM18.8934 16.7344C18.3482 16.7344 17.9074 16.2925 17.9074 15.7459C17.9074 15.1993 18.3482 14.7573 18.8934 14.7573C19.4385 14.7573 19.8793 15.1993 19.8793 15.7459C19.8793 16.0599 20.1344 16.3157 20.4476 16.3157C20.7608 16.3157 21.016 16.0599 21.016 15.7459C21.016 14.7759 20.3548 13.9514 19.4617 13.706V12.943C19.4617 12.629 19.2065 12.3732 18.8934 12.3732C18.5802 12.3732 18.325 12.629 18.325 12.943V13.7118C17.4435 13.9665 16.7939 14.7841 16.7939 15.7459C16.7939 16.9089 17.7335 17.8625 18.905 17.8625C19.4501 17.8625 19.8909 18.3045 19.8909 18.8511C19.8909 19.3977 19.493 19.7955 18.9861 19.8362C18.956 19.8304 18.9247 19.828 18.8934 19.828C18.8644 19.828 18.8365 19.8304 18.8087 19.835C18.3088 19.7862 17.919 19.3652 17.919 18.8511C17.919 18.5371 17.6639 18.2812 17.3507 18.2812C17.0375 18.2812 16.7823 18.5371 16.7823 18.8511C16.7823 19.8187 17.4319 20.641 18.325 20.8899V21.6307C18.325 21.9447 18.5802 22.2006 18.8934 22.2006C19.2065 22.2006 19.4617 21.9447 19.4617 21.6307V20.8899C20.3548 20.641 21.0044 19.8187 21.0044 18.8511C21.0044 17.6881 20.0649 16.7344 18.8934 16.7344ZM18.8934 16.7344C18.3482 16.7344 17.9074 16.2925 17.9074 15.7459C17.9074 15.1993 18.3482 14.7573 18.8934 14.7573C19.4385 14.7573 19.8793 15.1993 19.8793 15.7459C19.8793 16.0599 20.1344 16.3157 20.4476 16.3157C20.7608 16.3157 21.016 16.0599 21.016 15.7459C21.016 14.7759 20.3548 13.9514 19.4617 13.706V12.943C19.4617 12.629 19.2065 12.3732 18.8934 12.3732C18.5802 12.3732 18.325 12.629 18.325 12.943V13.7118C17.4435 13.9665 16.7939 14.7841 16.7939 15.7459C16.7939 16.9089 17.7335 17.8625 18.905 17.8625C19.4501 17.8625 19.8909 18.3045 19.8909 18.8511C19.8909 19.3977 19.493 19.7955 18.9861 19.8362C18.956 19.8304 18.9247 19.828 18.8934 19.828C18.8644 19.828 18.8365 19.8304 18.8087 19.835C18.3088 19.7862 17.919 19.3652 17.919 18.8511C17.919 18.5371 17.6639 18.2812 17.3507 18.2812C17.0375 18.2812 16.7823 18.5371 16.7823 18.8511C16.7823 19.8187 17.4319 20.641 18.325 20.8899V21.6307C18.325 21.9447 18.5802 22.2006 18.8934 22.2006C19.2065 22.2006 19.4617 21.9447 19.4617 21.6307V20.8899C20.3548 20.641 21.0044 19.8187 21.0044 18.8511C21.0044 17.6881 20.0649 16.7344 18.8934 16.7344ZM18.8934 16.7344C18.3482 16.7344 17.9074 16.2925 17.9074 15.7459C17.9074 15.1993 18.3482 14.7573 18.8934 14.7573C19.4385 14.7573 19.8793 15.1993 19.8793 15.7459C19.8793 16.0599 20.1344 16.3157 20.4476 16.3157C20.7608 16.3157 21.016 16.0599 21.016 15.7459C21.016 14.7759 20.3548 13.9514 19.4617 13.706V12.943C19.4617 12.629 19.2065 12.3732 18.8934 12.3732C18.5802 12.3732 18.325 12.629 18.325 12.943V13.7118C17.4435 13.9665 16.7939 14.7841 16.7939 15.7459C16.7939 16.9089 17.7335 17.8625 18.905 17.8625C19.4501 17.8625 19.8909 18.3045 19.8909 18.8511C19.8909 19.3977 19.493 19.7955 18.9861 19.8362C18.956 19.8304 18.9247 19.828 18.8934 19.828C18.8644 19.828 18.8365 19.8304 18.8087 19.835C18.3088 19.7862 17.919 19.3652 17.919 18.8511C17.919 18.5371 17.6639 18.2812 17.3507 18.2812C17.0375 18.2812 16.7823 18.5371 16.7823 18.8511C16.7823 19.8187 17.4319 20.641 18.325 20.8899V21.6307C18.325 21.9447 18.5802 22.2006 18.8934 22.2006C19.2065 22.2006 19.4617 21.9447 19.4617 21.6307V20.8899C20.3548 20.641 21.0044 19.8187 21.0044 18.8511C21.0044 17.6881 20.0649 16.7344 18.8934 16.7344ZM18.8934 16.7344C18.3482 16.7344 17.9074 16.2925 17.9074 15.7459C17.9074 15.1993 18.3482 14.7573 18.8934 14.7573C19.4385 14.7573 19.8793 15.1993 19.8793 15.7459C19.8793 16.0599 20.1344 16.3157 20.4476 16.3157C20.7608 16.3157 21.016 16.0599 21.016 15.7459C21.016 14.7759 20.3548 13.9514 19.4617 13.706V12.943C19.4617 12.629 19.2065 12.3732 18.8934 12.3732C18.5802 12.3732 18.325 12.629 18.325 12.943V13.7118C17.4435 13.9665 16.7939 14.7841 16.7939 15.7459C16.7939 16.9089 17.7335 17.8625 18.905 17.8625C19.4501 17.8625 19.8909 18.3045 19.8909 18.8511C19.8909 19.3977 19.493 19.7955 18.9861 19.8362C18.956 19.8304 18.9247 19.828 18.8934 19.828C18.8644 19.828 18.8365 19.8304 18.8087 19.835C18.3088 19.7862 17.919 19.3652 17.919 18.8511C17.919 18.5371 17.6639 18.2812 17.3507 18.2812C17.0375 18.2812 16.7823 18.5371 16.7823 18.8511C16.7823 19.8187 17.4319 20.641 18.325 20.8899V21.6307C18.325 21.9447 18.5802 22.2006 18.8934 22.2006C19.2065 22.2006 19.4617 21.9447 19.4617 21.6307V20.8899C20.3548 20.641 21.0044 19.8187 21.0044 18.8511C21.0044 17.6881 20.0649 16.7344 18.8934 16.7344ZM18.8934 16.7344C18.3482 16.7344 17.9074 16.2925 17.9074 15.7459C17.9074 15.1993 18.3482 14.7573 18.8934 14.7573C19.4385 14.7573 19.8793 15.1993 19.8793 15.7459C19.8793 16.0599 20.1344 16.3157 20.4476 16.3157C20.7608 16.3157 21.016 16.0599 21.016 15.7459C21.016 14.7759 20.3548 13.9514 19.4617 13.706V12.943C19.4617 12.629 19.2065 12.3732 18.8934 12.3732C18.5802 12.3732 18.325 12.629 18.325 12.943V13.7118C17.4435 13.9665 16.7939 14.7841 16.7939 15.7459C16.7939 16.9089 17.7335 17.8625 18.905 17.8625C19.4501 17.8625 19.8909 18.3045 19.8909 18.8511C19.8909 19.3977 19.493 19.7955 18.9861 19.8362C18.956 19.8304 18.9247 19.828 18.8934 19.828C18.8644 19.828 18.8365 19.8304 18.8087 19.835C18.3088 19.7862 17.919 19.3652 17.919 18.8511C17.919 18.5371 17.6639 18.2812 17.3507 18.2812C17.0375 18.2812 16.7823 18.5371 16.7823 18.8511C16.7823 19.8187 17.4319 20.641 18.325 20.8899V21.6307C18.325 21.9447 18.5802 22.2006 18.8934 22.2006C19.2065 22.2006 19.4617 21.9447 19.4617 21.6307V20.8899C20.3548 20.641 21.0044 19.8187 21.0044 18.8511C21.0044 17.6881 20.0649 16.7344 18.8934 16.7344ZM18.8934 16.7344C18.3482 16.7344 17.9074 16.2925 17.9074 15.7459C17.9074 15.1993 18.3482 14.7573 18.8934 14.7573C19.4385 14.7573 19.8793 15.1993 19.8793 15.7459C19.8793 16.0599 20.1344 16.3157 20.4476 16.3157C20.7608 16.3157 21.016 16.0599 21.016 15.7459C21.016 14.7759 20.3548 13.9514 19.4617 13.706V12.943C19.4617 12.629 19.2065 12.3732 18.8934 12.3732C18.5802 12.3732 18.325 12.629 18.325 12.943V13.7118C17.4435 13.9665 16.7939 14.7841 16.7939 15.7459C16.7939 16.9089 17.7335 17.8625 18.905 17.8625C19.4501 17.8625 19.8909 18.3045 19.8909 18.8511C19.8909 19.3977 19.493 19.7955 18.9861 19.8362C18.956 19.8304 18.9247 19.828 18.8934 19.828C18.8644 19.828 18.8365 19.8304 18.8087 19.835C18.3088 19.7862 17.919 19.3652 17.919 18.8511C17.919 18.5371 17.6639 18.2812 17.3507 18.2812C17.0375 18.2812 16.7823 18.5371 16.7823 18.8511C16.7823 19.8187 17.4319 20.641 18.325 20.8899V21.6307C18.325 21.9447 18.5802 22.2006 18.8934 22.2006C19.2065 22.2006 19.4617 21.9447 19.4617 21.6307V20.8899C20.3548 20.641 21.0044 19.8187 21.0044 18.8511C21.0044 17.6881 20.0649 16.7344 18.8934 16.7344ZM18.8934 16.7344C18.3482 16.7344 17.9074 16.2925 17.9074 15.7459C17.9074 15.1993 18.3482 14.7573 18.8934 14.7573C19.4385 14.7573 19.8793 15.1993 19.8793 15.7459C19.8793 16.0599 20.1344 16.3157 20.4476 16.3157C20.7608 16.3157 21.016 16.0599 21.016 15.7459C21.016 14.7759 20.3548 13.9514 19.4617 13.706V12.943C19.4617 12.629 19.2065 12.3732 18.8934 12.3732C18.5802 12.3732 18.325 12.629 18.325 12.943V13.7118C17.4435 13.9665 16.7939 14.7841 16.7939 15.7459C16.7939 16.9089 17.7335 17.8625 18.905 17.8625C19.4501 17.8625 19.8909 18.3045 19.8909 18.8511C19.8909 19.3977 19.493 19.7955 18.9861 19.8362C18.956 19.8304 18.9247 19.828 18.8934 19.828C18.8644 19.828 18.8365 19.8304 18.8087 19.835C18.3088 19.7862 17.919 19.3652 17.919 18.8511C17.919 18.5371 17.6639 18.2812 17.3507 18.2812C17.0375 18.2812 16.7823 18.5371 16.7823 18.8511C16.7823 19.8187 17.4319 20.641 18.325 20.8899V21.6307C18.325 21.9447 18.5802 22.2006 18.8934 22.2006C19.2065 22.2006 19.4617 21.9447 19.4617 21.6307V20.8899C20.3548 20.641 21.0044 19.8187 21.0044 18.8511C21.0044 17.6881 20.0649 16.7344 18.8934 16.7344ZM18.8934 16.7344C18.3482 16.7344 17.9074 16.2925 17.9074 15.7459C17.9074 15.1993 18.3482 14.7573 18.8934 14.7573C19.4385 14.7573 19.8793 15.1993 19.8793 15.7459C19.8793 16.0599 20.1344 16.3157 20.4476 16.3157C20.7608 16.3157 21.016 16.0599 21.016 15.7459C21.016 14.7759 20.3548 13.9514 19.4617 13.706V12.943C19.4617 12.629 19.2065 12.3732 18.8934 12.3732C18.5802 12.3732 18.325 12.629 18.325 12.943V13.7118C17.4435 13.9665 16.7939 14.7841 16.7939 15.7459C16.7939 16.9089 17.7335 17.8625 18.905 17.8625C19.4501 17.8625 19.8909 18.3045 19.8909 18.8511C19.8909 19.3977 19.493 19.7955 18.9861 19.8362C18.956 19.8304 18.9247 19.828 18.8934 19.828C18.8644 19.828 18.8365 19.8304 18.8087 19.835C18.3088 19.7862 17.919 19.3652 17.919 18.8511C17.919 18.5371 17.6639 18.2812 17.3507 18.2812C17.0375 18.2812 16.7823 18.5371 16.7823 18.8511C16.7823 19.8187 17.4319 20.641 18.325 20.8899V21.6307C18.325 21.9447 18.5802 22.2006 18.8934 22.2006C19.2065 22.2006 19.4617 21.9447 19.4617 21.6307V20.8899C20.3548 20.641 21.0044 19.8187 21.0044 18.8511C21.0044 17.6881 20.0649 16.7344 18.8934 16.7344ZM18.8934 10.3379C15.0773 10.3379 11.9688 13.4547 11.9688 17.281C11.9688 21.1073 15.0773 24.2242 18.8934 24.2242C22.7094 24.2242 25.818 21.119 25.818 17.281C25.818 13.4431 22.7094 10.3379 18.8934 10.3379ZM18.8934 23.0844C15.7036 23.0844 13.1055 20.4793 13.1055 17.281C13.1055 14.0828 15.7036 11.4776 18.8934 11.4776C22.0831 11.4776 24.6929 14.0828 24.6813 17.281C24.6813 20.4793 22.0831 23.0844 18.8934 23.0844ZM18.8934 14.7573C19.4385 14.7573 19.8793 15.1993 19.8793 15.7459C19.8793 16.0599 20.1344 16.3157 20.4476 16.3157C20.7608 16.3157 21.016 16.0599 21.016 15.7459C21.016 14.7759 20.3548 13.9514 19.4617 13.706V12.943C19.4617 12.629 19.2065 12.3732 18.8934 12.3732C18.5802 12.3732 18.325 12.629 18.325 12.943V13.7118C17.4435 13.9665 16.7939 14.7841 16.7939 15.7459C16.7939 16.9089 17.7335 17.8625 18.905 17.8625C19.4501 17.8625 19.8909 18.3045 19.8909 18.8511C19.8909 19.3977 19.493 19.7955 18.9861 19.8362C18.956 19.8304 18.9247 19.828 18.8934 19.828C18.8644 19.828 18.8365 19.8304 18.8087 19.835C18.3088 19.7862 17.919 19.3652 17.919 18.8511C17.919 18.5371 17.6639 18.2812 17.3507 18.2812C17.0375 18.2812 16.7823 18.5371 16.7823 18.8511C16.7823 19.8187 17.4319 20.641 18.325 20.8899V21.6307C18.325 21.9447 18.5802 22.2006 18.8934 22.2006C19.2065 22.2006 19.4617 21.9447 19.4617 21.6307V20.8899C20.3548 20.641 21.0044 19.8187 21.0044 18.8511C21.0044 17.6881 20.0649 16.7344 18.8934 16.7344C18.3482 16.7344 17.9074 16.2925 17.9074 15.7459C17.9074 15.1993 18.3482 14.7573 18.8934 14.7573ZM18.8934 16.7344C18.3482 16.7344 17.9074 16.2925 17.9074 15.7459C17.9074 15.1993 18.3482 14.7573 18.8934 14.7573C19.4385 14.7573 19.8793 15.1993 19.8793 15.7459C19.8793 16.0599 20.1344 16.3157 20.4476 16.3157C20.7608 16.3157 21.016 16.0599 21.016 15.7459C21.016 14.7759 20.3548 13.9514 19.4617 13.706V12.943C19.4617 12.629 19.2065 12.3732 18.8934 12.3732C18.5802 12.3732 18.325 12.629 18.325 12.943V13.7118C17.4435 13.9665 16.7939 14.7841 16.7939 15.7459C16.7939 16.9089 17.7335 17.8625 18.905 17.8625C19.4501 17.8625 19.8909 18.3045 19.8909 18.8511C19.8909 19.3977 19.493 19.7955 18.9861 19.8362C18.956 19.8304 18.9247 19.828 18.8934 19.828C18.8644 19.828 18.8365 19.8304 18.8087 19.835C18.3088 19.7862 17.919 19.3652 17.919 18.8511C17.919 18.5371 17.6639 18.2812 17.3507 18.2812C17.0375 18.2812 16.7823 18.5371 16.7823 18.8511C16.7823 19.8187 17.4319 20.641 18.325 20.8899V21.6307C18.325 21.9447 18.5802 22.2006 18.8934 22.2006C19.2065 22.2006 19.4617 21.9447 19.4617 21.6307V20.8899C20.3548 20.641 21.0044 19.8187 21.0044 18.8511C21.0044 17.6881 20.0649 16.7344 18.8934 16.7344ZM18.8934 16.7344C18.3482 16.7344 17.9074 16.2925 17.9074 15.7459C17.9074 15.1993 18.3482 14.7573 18.8934 14.7573C19.4385 14.7573 19.8793 15.1993 19.8793 15.7459C19.8793 16.0599 20.1344 16.3157 20.4476 16.3157C20.7608 16.3157 21.016 16.0599 21.016 15.7459C21.016 14.7759 20.3548 13.9514 19.4617 13.706V12.943C19.4617 12.629 19.2065 12.3732 18.8934 12.3732C18.5802 12.3732 18.325 12.629 18.325 12.943V13.7118C17.4435 13.9665 16.7939 14.7841 16.7939 15.7459C16.7939 16.9089 17.7335 17.8625 18.905 17.8625C19.4501 17.8625 19.8909 18.3045 19.8909 18.8511C19.8909 19.3977 19.493 19.7955 18.9861 19.8362C18.956 19.8304 18.9247 19.828 18.8934 19.828C18.8644 19.828 18.8365 19.8304 18.8087 19.835C18.3088 19.7862 17.919 19.3652 17.919 18.8511C17.919 18.5371 17.6639 18.2812 17.3507 18.2812C17.0375 18.2812 16.7823 18.5371 16.7823 18.8511C16.7823 19.8187 17.4319 20.641 18.325 20.8899V21.6307C18.325 21.9447 18.5802 22.2006 18.8934 22.2006C19.2065 22.2006 19.4617 21.9447 19.4617 21.6307V20.8899C20.3548 20.641 21.0044 19.8187 21.0044 18.8511C21.0044 17.6881 20.0649 16.7344 18.8934 16.7344ZM18.8934 16.7344C18.3482 16.7344 17.9074 16.2925 17.9074 15.7459C17.9074 15.1993 18.3482 14.7573 18.8934 14.7573C19.4385 14.7573 19.8793 15.1993 19.8793 15.7459C19.8793 16.0599 20.1344 16.3157 20.4476 16.3157C20.7608 16.3157 21.016 16.0599 21.016 15.7459C21.016 14.7759 20.3548 13.9514 19.4617 13.706V12.943C19.4617 12.629 19.2065 12.3732 18.8934 12.3732C18.5802 12.3732 18.325 12.629 18.325 12.943V13.7118C17.4435 13.9665 16.7939 14.7841 16.7939 15.7459C16.7939 16.9089 17.7335 17.8625 18.905 17.8625C19.4501 17.8625 19.8909 18.3045 19.8909 18.8511C19.8909 19.3977 19.493 19.7955 18.9861 19.8362C18.956 19.8304 18.9247 19.828 18.8934 19.828C18.8644 19.828 18.8365 19.8304 18.8087 19.835C18.3088 19.7862 17.919 19.3652 17.919 18.8511C17.919 18.5371 17.6639 18.2812 17.3507 18.2812C17.0375 18.2812 16.7823 18.5371 16.7823 18.8511C16.7823 19.8187 17.4319 20.641 18.325 20.8899V21.6307C18.325 21.9447 18.5802 22.2006 18.8934 22.2006C19.2065 22.2006 19.4617 21.9447 19.4617 21.6307V20.8899C20.3548 20.641 21.0044 19.8187 21.0044 18.8511C21.0044 17.6881 20.0649 16.7344 18.8934 16.7344ZM18.8934 16.7344C18.3482 16.7344 17.9074 16.2925 17.9074 15.7459C17.9074 15.1993 18.3482 14.7573 18.8934 14.7573C19.4385 14.7573 19.8793 15.1993 19.8793 15.7459C19.8793 16.0599 20.1344 16.3157 20.4476 16.3157C20.7608 16.3157 21.016 16.0599 21.016 15.7459C21.016 14.7759 20.3548 13.9514 19.4617 13.706V12.943C19.4617 12.629 19.2065 12.3732 18.8934 12.3732C18.5802 12.3732 18.325 12.629 18.325 12.943V13.7118C17.4435 13.9665 16.7939 14.7841 16.7939 15.7459C16.7939 16.9089 17.7335 17.8625 18.905 17.8625C19.4501 17.8625 19.8909 18.3045 19.8909 18.8511C19.8909 19.3977 19.493 19.7955 18.9861 19.8362C18.956 19.8304 18.9247 19.828 18.8934 19.828C18.8644 19.828 18.8365 19.8304 18.8087 19.835C18.3088 19.7862 17.919 19.3652 17.919 18.8511C17.919 18.5371 17.6639 18.2812 17.3507 18.2812C17.0375 18.2812 16.7823 18.5371 16.7823 18.8511C16.7823 19.8187 17.4319 20.641 18.325 20.8899V21.6307C18.325 21.9447 18.5802 22.2006 18.8934 22.2006C19.2065 22.2006 19.4617 21.9447 19.4617 21.6307V20.8899C20.3548 20.641 21.0044 19.8187 21.0044 18.8511C21.0044 17.6881 20.0649 16.7344 18.8934 16.7344ZM18.8934 16.7344C18.3482 16.7344 17.9074 16.2925 17.9074 15.7459C17.9074 15.1993 18.3482 14.7573 18.8934 14.7573C19.4385 14.7573 19.8793 15.1993 19.8793 15.7459C19.8793 16.0599 20.1344 16.3157 20.4476 16.3157C20.7608 16.3157 21.016 16.0599 21.016 15.7459C21.016 14.7759 20.3548 13.9514 19.4617 13.706V12.943C19.4617 12.629 19.2065 12.3732 18.8934 12.3732C18.5802 12.3732 18.325 12.629 18.325 12.943V13.7118C17.4435 13.9665 16.7939 14.7841 16.7939 15.7459C16.7939 16.9089 17.7335 17.8625 18.905 17.8625C19.4501 17.8625 19.8909 18.3045 19.8909 18.8511C19.8909 19.3977 19.493 19.7955 18.9861 19.8362C18.956 19.8304 18.9247 19.828 18.8934 19.828C18.8644 19.828 18.8365 19.8304 18.8087 19.835C18.3088 19.7862 17.919 19.3652 17.919 18.8511C17.919 18.5371 17.6639 18.2812 17.3507 18.2812C17.0375 18.2812 16.7823 18.5371 16.7823 18.8511C16.7823 19.8187 17.4319 20.641 18.325 20.8899V21.6307C18.325 21.9447 18.5802 22.2006 18.8934 22.2006C19.2065 22.2006 19.4617 21.9447 19.4617 21.6307V20.8899C20.3548 20.641 21.0044 19.8187 21.0044 18.8511C21.0044 17.6881 20.0649 16.7344 18.8934 16.7344ZM18.8934 16.7344C18.3482 16.7344 17.9074 16.2925 17.9074 15.7459C17.9074 15.1993 18.3482 14.7573 18.8934 14.7573C19.4385 14.7573 19.8793 15.1993 19.8793 15.7459C19.8793 16.0599 20.1344 16.3157 20.4476 16.3157C20.7608 16.3157 21.016 16.0599 21.016 15.7459C21.016 14.7759 20.3548 13.9514 19.4617 13.706V12.943C19.4617 12.629 19.2065 12.3732 18.8934 12.3732C18.5802 12.3732 18.325 12.629 18.325 12.943V13.7118C17.4435 13.9665 16.7939 14.7841 16.7939 15.7459C16.7939 16.9089 17.7335 17.8625 18.905 17.8625C19.4501 17.8625 19.8909 18.3045 19.8909 18.8511C19.8909 19.3977 19.493 19.7955 18.9861 19.8362C18.956 19.8304 18.9247 19.828 18.8934 19.828C18.8644 19.828 18.8365 19.8304 18.8087 19.835C18.3088 19.7862 17.919 19.3652 17.919 18.8511C17.919 18.5371 17.6639 18.2812 17.3507 18.2812C17.0375 18.2812 16.7823 18.5371 16.7823 18.8511C16.7823 19.8187 17.4319 20.641 18.325 20.8899V21.6307C18.325 21.9447 18.5802 22.2006 18.8934 22.2006C19.2065 22.2006 19.4617 21.9447 19.4617 21.6307V20.8899C20.3548 20.641 21.0044 19.8187 21.0044 18.8511C21.0044 17.6881 20.0649 16.7344 18.8934 16.7344ZM18.8934 16.7344C18.3482 16.7344 17.9074 16.2925 17.9074 15.7459C17.9074 15.1993 18.3482 14.7573 18.8934 14.7573C19.4385 14.7573 19.8793 15.1993 19.8793 15.7459C19.8793 16.0599 20.1344 16.3157 20.4476 16.3157C20.7608 16.3157 21.016 16.0599 21.016 15.7459C21.016 14.7759 20.3548 13.9514 19.4617 13.706V12.943C19.4617 12.629 19.2065 12.3732 18.8934 12.3732C18.5802 12.3732 18.325 12.629 18.325 12.943V13.7118C17.4435 13.9665 16.7939 14.7841 16.7939 15.7459C16.7939 16.9089 17.7335 17.8625 18.905 17.8625C19.4501 17.8625 19.8909 18.3045 19.8909 18.8511C19.8909 19.3977 19.493 19.7955 18.9861 19.8362C18.956 19.8304 18.9247 19.828 18.8934 19.828C18.8644 19.828 18.8365 19.8304 18.8087 19.835C18.3088 19.7862 17.919 19.3652 17.919 18.8511C17.919 18.5371 17.6639 18.2812 17.3507 18.2812C17.0375 18.2812 16.7823 18.5371 16.7823 18.8511C16.7823 19.8187 17.4319 20.641 18.325 20.8899V21.6307C18.325 21.9447 18.5802 22.2006 18.8934 22.2006C19.2065 22.2006 19.4617 21.9447 19.4617 21.6307V20.8899C20.3548 20.641 21.0044 19.8187 21.0044 18.8511C21.0044 17.6881 20.0649 16.7344 18.8934 16.7344ZM18.8934 16.7344C18.3482 16.7344 17.9074 16.2925 17.9074 15.7459C17.9074 15.1993 18.3482 14.7573 18.8934 14.7573C19.4385 14.7573 19.8793 15.1993 19.8793 15.7459C19.8793 16.0599 20.1344 16.3157 20.4476 16.3157C20.7608 16.3157 21.016 16.0599 21.016 15.7459C21.016 14.7759 20.3548 13.9514 19.4617 13.706V12.943C19.4617 12.629 19.2065 12.3732 18.8934 12.3732C18.5802 12.3732 18.325 12.629 18.325 12.943V13.7118C17.4435 13.9665 16.7939 14.7841 16.7939 15.7459C16.7939 16.9089 17.7335 17.8625 18.905 17.8625C19.4501 17.8625 19.8909 18.3045 19.8909 18.8511C19.8909 19.3977 19.493 19.7955 18.9861 19.8362C18.956 19.8304 18.9247 19.828 18.8934 19.828C18.8644 19.828 18.8365 19.8304 18.8087 19.835C18.3088 19.7862 17.919 19.3652 17.919 18.8511C17.919 18.5371 17.6639 18.2812 17.3507 18.2812C17.0375 18.2812 16.7823 18.5371 16.7823 18.8511C16.7823 19.8187 17.4319 20.641 18.325 20.8899V21.6307C18.325 21.9447 18.5802 22.2006 18.8934 22.2006C19.2065 22.2006 19.4617 21.9447 19.4617 21.6307V20.8899C20.3548 20.641 21.0044 19.8187 21.0044 18.8511C21.0044 17.6881 20.0649 16.7344 18.8934 16.7344ZM18.8934 16.7344C18.3482 16.7344 17.9074 16.2925 17.9074 15.7459C17.9074 15.1993 18.3482 14.7573 18.8934 14.7573C19.4385 14.7573 19.8793 15.1993 19.8793 15.7459C19.8793 16.0599 20.1344 16.3157 20.4476 16.3157C20.7608 16.3157 21.016 16.0599 21.016 15.7459C21.016 14.7759 20.3548 13.9514 19.4617 13.706V12.943C19.4617 12.629 19.2065 12.3732 18.8934 12.3732C18.5802 12.3732 18.325 12.629 18.325 12.943V13.7118C17.4435 13.9665 16.7939 14.7841 16.7939 15.7459C16.7939 16.9089 17.7335 17.8625 18.905 17.8625C19.4501 17.8625 19.8909 18.3045 19.8909 18.8511C19.8909 19.3977 19.493 19.7955 18.9861 19.8362C18.956 19.8304 18.9247 19.828 18.8934 19.828C18.8644 19.828 18.8365 19.8304 18.8087 19.835C18.3088 19.7862 17.919 19.3652 17.919 18.8511C17.919 18.5371 17.6639 18.2812 17.3507 18.2812C17.0375 18.2812 16.7823 18.5371 16.7823 18.8511C16.7823 19.8187 17.4319 20.641 18.325 20.8899V21.6307C18.325 21.9447 18.5802 22.2006 18.8934 22.2006C19.2065 22.2006 19.4617 21.9447 19.4617 21.6307V20.8899C20.3548 20.641 21.0044 19.8187 21.0044 18.8511C21.0044 17.6881 20.0649 16.7344 18.8934 16.7344ZM18.8934 16.7344C18.3482 16.7344 17.9074 16.2925 17.9074 15.7459C17.9074 15.1993 18.3482 14.7573 18.8934 14.7573C19.4385 14.7573 19.8793 15.1993 19.8793 15.7459C19.8793 16.0599 20.1344 16.3157 20.4476 16.3157C20.7608 16.3157 21.016 16.0599 21.016 15.7459C21.016 14.7759 20.3548 13.9514 19.4617 13.706V12.943C19.4617 12.629 19.2065 12.3732 18.8934 12.3732C18.5802 12.3732 18.325 12.629 18.325 12.943V13.7118C17.4435 13.9665 16.7939 14.7841 16.7939 15.7459C16.7939 16.9089 17.7335 17.8625 18.905 17.8625C19.4501 17.8625 19.8909 18.3045 19.8909 18.8511C19.8909 19.3977 19.493 19.7955 18.9861 19.8362C18.956 19.8304 18.9247 19.828 18.8934 19.828C18.8644 19.828 18.8365 19.8304 18.8087 19.835C18.3088 19.7862 17.919 19.3652 17.919 18.8511C17.919 18.5371 17.6639 18.2812 17.3507 18.2812C17.0375 18.2812 16.7823 18.5371 16.7823 18.8511C16.7823 19.8187 17.4319 20.641 18.325 20.8899V21.6307C18.325 21.9447 18.5802 22.2006 18.8934 22.2006C19.2065 22.2006 19.4617 21.9447 19.4617 21.6307V20.8899C20.3548 20.641 21.0044 19.8187 21.0044 18.8511C21.0044 17.6881 20.0649 16.7344 18.8934 16.7344ZM46.0988 40.3795C45.7195 39.9992 45.099 39.9992 44.7197 40.3795L38.6441 46.4714L36.6653 44.4873C36.2861 44.107 35.6655 44.107 35.2862 44.4873C34.9069 44.8676 34.9069 45.4898 35.2862 45.8701L37.9447 48.5357C38.1442 48.716 38.3843 48.816 38.6441 48.816C38.9039 48.816 39.144 48.716 39.3238 48.5555L46.0988 41.7623C46.4781 41.382 46.4781 40.7598 46.0988 40.3795ZM18.8934 12.3732C18.5802 12.3732 18.325 12.629 18.325 12.943V14.1758C18.325 14.4898 18.5802 14.7457 18.8934 14.7457C19.2065 14.7457 19.4617 14.4898 19.4617 14.1758V12.943C19.4617 12.629 19.2065 12.3732 18.8934 12.3732ZM18.9861 19.8362C18.956 19.8304 18.9247 19.828 18.8934 19.828C18.8644 19.828 18.8365 19.8304 18.8087 19.835C18.5349 19.8757 18.325 20.113 18.325 20.3979V21.6307C18.325 21.9447 18.5802 22.2006 18.8934 22.2006C19.2065 22.2006 19.4617 21.9447 19.4617 21.6307V20.3979C19.4617 20.1153 19.2552 19.8804 18.9861 19.8362ZM18.8934 16.7344C18.3482 16.7344 17.9074 16.2925 17.9074 15.7459C17.9074 15.1993 18.3482 14.7573 18.8934 14.7573C19.4385 14.7573 19.8793 15.1993 19.8793 15.7459C19.8793 16.0599 20.1344 16.3157 20.4476 16.3157C20.7608 16.3157 21.016 16.0599 21.016 15.7459C21.016 14.7759 20.3548 13.9514 19.4617 13.706C19.2842 13.6559 19.0975 13.6292 18.905 13.6292C18.7124 13.6292 18.5094 13.6583 18.325 13.7118C17.4435 13.9665 16.7939 14.7841 16.7939 15.7459C16.7939 16.9089 17.7335 17.8625 18.905 17.8625C19.4501 17.8625 19.8909 18.3045 19.8909 18.8511C19.8909 19.3977 19.493 19.7955 18.9861 19.8362C18.9595 19.8385 18.9328 19.8397 18.905 19.8397C18.8725 19.8397 18.84 19.8385 18.8087 19.835C18.3088 19.7862 17.919 19.3652 17.919 18.8511C17.919 18.5371 17.6639 18.2812 17.3507 18.2812C17.0375 18.2812 16.7823 18.5371 16.7823 18.8511C16.7823 19.8187 17.4319 20.641 18.325 20.8899C18.5059 20.941 18.6962 20.9678 18.8934 20.9678C19.0905 20.9678 19.2808 20.941 19.4617 20.8899C20.3548 20.641 21.0044 19.8187 21.0044 18.8511C21.0044 17.6881 20.0649 16.7344 18.8934 16.7344ZM38.6812 21.526H28.3465C28.0334 21.526 27.7782 21.7819 27.7782 22.0959C27.7782 22.4099 28.0334 22.6658 28.3465 22.6658H38.6812C38.9944 22.6658 39.2496 22.4099 39.2496 22.0959C39.2496 21.7819 38.9944 21.526 38.6812 21.526ZM38.6812 16.7112H28.3465C28.0334 16.7112 27.7782 16.967 27.7782 17.281C27.7782 17.5951 28.0334 17.8509 28.3465 17.8509H38.6812C38.9944 17.8509 39.2496 17.6067 39.2496 17.281C39.2496 16.9554 38.9944 16.7112 38.6812 16.7112ZM38.6812 11.908H28.3465C28.0334 11.908 27.7782 12.1638 27.7782 12.4778C27.7782 12.7918 28.0334 13.0477 28.3465 13.0477H38.6812C38.9944 13.0477 39.2496 12.7918 39.2496 12.4778C39.2496 12.1638 38.9944 11.908 38.6812 11.908ZM13.0823 46.1236C13.0707 46.0887 13.0591 46.0538 13.0475 46.0189C13.0359 45.9841 13.0243 45.9608 13.0011 45.9259C12.9779 45.9026 12.9547 45.8678 12.9315 45.8445C12.8967 45.8212 12.8735 45.798 12.8387 45.7747C12.8155 45.7631 12.7807 45.7398 12.7459 45.7282C12.7111 45.7166 12.6763 45.7049 12.6415 45.6933C12.5719 45.6817 12.4907 45.6817 12.4211 45.6933C12.3863 45.7049 12.3515 45.7166 12.3167 45.7282C12.2819 45.7398 12.2471 45.7515 12.2123 45.7747C12.1891 45.798 12.1543 45.8212 12.1311 45.8445C12.1079 45.8678 12.0847 45.891 12.0615 45.9259C12.0499 45.9492 12.0267 45.9841 12.0151 46.0189C12.0035 46.0538 11.9919 46.0887 11.9803 46.1236C11.9688 46.1701 11.9688 46.205 11.9688 46.2399C11.9688 46.2748 11.9688 46.3097 11.9803 46.3446C11.9919 46.3795 12.0035 46.4144 12.0151 46.4493C12.0267 46.4841 12.0383 46.5074 12.0615 46.5423C12.0847 46.5656 12.1079 46.6004 12.1311 46.6237C12.1543 46.647 12.1775 46.6702 12.2123 46.6935C12.2471 46.7051 12.2819 46.7284 12.3167 46.74C12.3515 46.7516 12.3863 46.7633 12.4211 46.7749C12.4675 46.7865 12.5023 46.7865 12.5371 46.7865C12.5835 46.7865 12.6183 46.7865 12.6415 46.7749C12.6763 46.7633 12.7111 46.7516 12.7459 46.74C12.7807 46.7284 12.8039 46.7168 12.8387 46.6935C12.8735 46.6702 12.9083 46.647 12.9315 46.6237C12.9547 46.6004 12.9779 46.5772 13.0011 46.5423C13.0127 46.519 13.0359 46.4841 13.0475 46.4493C13.0591 46.4144 13.0707 46.3795 13.0823 46.3446C13.0939 46.3097 13.0939 46.2748 13.0939 46.2399C13.0939 46.1934 13.0939 46.1585 13.0823 46.1236ZM13.0823 40.3318C13.0707 40.297 13.0591 40.2621 13.0475 40.2272C13.0359 40.1923 13.0243 40.169 13.0011 40.1341C12.9779 40.1109 12.9547 40.076 12.9315 40.0527C12.8967 40.0295 12.8735 40.0062 12.8387 39.9829C12.8155 39.9713 12.7807 39.948 12.7459 39.9364C12.7111 39.9248 12.6763 39.9132 12.6415 39.9015C12.5719 39.8899 12.4907 39.8899 12.4211 39.9015C12.3863 39.9132 12.3515 39.9248 12.3167 39.9364C12.2819 39.948 12.2471 39.9597 12.2123 39.9829C12.1891 40.0062 12.1543 40.0295 12.1311 40.0527C12.1079 40.076 12.0847 40.0992 12.0615 40.1341C12.0499 40.1574 12.0267 40.1923 12.0151 40.2272C12.0035 40.2621 11.9919 40.297 11.9803 40.3318C11.9688 40.3784 11.9688 40.4133 11.9688 40.4481C11.9688 40.5993 12.0267 40.7505 12.1311 40.8552C12.1543 40.8785 12.1775 40.9017 12.2123 40.925C12.2471 40.9366 12.2819 40.9599 12.3167 40.9715C12.3515 40.9831 12.3863 40.9948 12.4211 41.0064C12.4675 41.018 12.5023 41.018 12.5371 41.018C12.6879 41.018 12.8387 40.9599 12.9315 40.8552C13.0359 40.7389 13.0939 40.5993 13.0939 40.4481C13.0939 40.4016 13.0939 40.3667 13.0823 40.3318ZM13.0707 34.5633C13.0591 34.5284 13.0475 34.4935 13.0359 34.4587C13.0243 34.4238 13.0127 34.4005 12.9895 34.3656C12.9663 34.3424 12.9431 34.3075 12.9199 34.2842C12.8967 34.2609 12.8735 34.2377 12.8387 34.2144C12.8155 34.2028 12.7807 34.1795 12.7459 34.1679L12.6415 34.133C12.5719 34.1214 12.4907 34.1214 12.4211 34.133C12.3863 34.1446 12.3515 34.1563 12.3167 34.1679C12.2819 34.1795 12.2471 34.1912 12.2123 34.2144C12.1891 34.2377 12.1543 34.2609 12.1311 34.2842C12.1079 34.3075 12.0847 34.3307 12.0615 34.3656C12.0499 34.3889 12.0267 34.4238 12.0151 34.4587C12.0035 34.4935 11.9919 34.5284 11.9803 34.5633C11.9688 34.6098 11.9688 34.6447 11.9688 34.6796C11.9688 34.7261 11.9688 34.761 11.9803 34.7959C11.9919 34.8308 12.0035 34.8657 12.0151 34.9006C12.0267 34.9471 12.0383 34.9704 12.0615 35.0053C12.0847 35.0285 12.1079 35.0634 12.1311 35.0867C12.2471 35.1914 12.3863 35.2495 12.5371 35.2495C12.5835 35.2495 12.6183 35.2495 12.6415 35.2379C12.6763 35.2262 12.7111 35.2146 12.7459 35.203C12.7807 35.1914 12.8039 35.1797 12.8387 35.1565C12.8619 35.1332 12.8967 35.1099 12.9199 35.0867C12.9431 35.0634 12.9663 35.0402 12.9895 35.0053C13.0011 34.9704 13.0243 34.9355 13.0359 34.9006C13.0475 34.8657 13.0591 34.8308 13.0707 34.7959C13.0823 34.7494 13.0823 34.7145 13.0823 34.6796C13.0823 34.6331 13.0823 34.5982 13.0707 34.5633ZM13.0707 28.7948C13.0591 28.7599 13.0475 28.725 13.0359 28.6901C13.0243 28.6553 13.0127 28.632 12.9895 28.5971C12.9663 28.5738 12.9431 28.5389 12.9199 28.5157C12.8967 28.4924 12.8735 28.4692 12.8387 28.4459C12.8155 28.4343 12.7807 28.411 12.7459 28.3994L12.6415 28.3645C12.5719 28.3529 12.4907 28.3529 12.4211 28.3645L12.3167 28.3994C12.2819 28.411 12.2471 28.4227 12.2123 28.4459C12.1891 28.4692 12.1543 28.4924 12.1311 28.5157C12.1079 28.5389 12.0847 28.5622 12.0615 28.5971C12.0499 28.6204 12.0267 28.6553 12.0151 28.6901C12.0035 28.725 11.9919 28.7599 11.9803 28.7948C11.9688 28.8413 11.9688 28.8762 11.9688 28.9111C11.9688 29.0623 12.0267 29.2135 12.1311 29.3182C12.1543 29.3414 12.1775 29.3647 12.2123 29.3879C12.2471 29.3996 12.2819 29.4228 12.3167 29.4345C12.3515 29.4461 12.3863 29.4577 12.4211 29.4694C12.4675 29.481 12.5023 29.481 12.5371 29.481C12.5835 29.481 12.6183 29.481 12.6415 29.4694C12.6763 29.4577 12.7111 29.4461 12.7459 29.4345C12.7691 29.4228 12.8039 29.4112 12.8387 29.3879C12.8619 29.3647 12.8967 29.3414 12.9199 29.3182C13.0243 29.2135 13.0823 29.0623 13.0823 28.9111C13.0823 28.8646 13.0823 28.8297 13.0707 28.7948ZM38.6812 28.3412H15.1353C14.8221 28.3412 14.5669 28.5971 14.5669 28.9111C14.5669 29.2251 14.8221 29.481 15.1353 29.481H38.6812C38.9944 29.481 39.2496 29.2251 39.2496 28.9111C39.2496 28.5971 38.9944 28.3412 38.6812 28.3412ZM38.6812 11.908H28.3465C28.0334 11.908 27.7782 12.1638 27.7782 12.4778C27.7782 12.7918 28.0334 13.0477 28.3465 13.0477H38.6812C38.9944 13.0477 39.2496 12.7918 39.2496 12.4778C39.2496 12.1638 38.9944 11.908 38.6812 11.908ZM38.6812 16.7112H28.3465C28.0334 16.7112 27.7782 16.967 27.7782 17.281C27.7782 17.5951 28.0334 17.8509 28.3465 17.8509H38.6812C38.9944 17.8509 39.2496 17.6067 39.2496 17.281C39.2496 16.9554 38.9944 16.7112 38.6812 16.7112ZM38.6812 21.526H28.3465C28.0334 21.526 27.7782 21.7819 27.7782 22.0959C27.7782 22.4099 28.0334 22.6658 28.3465 22.6658H38.6812C38.9944 22.6658 39.2496 22.4099 39.2496 22.0959C39.2496 21.7819 38.9944 21.526 38.6812 21.526ZM38.6812 28.3412H15.1353C14.8221 28.3412 14.5669 28.5971 14.5669 28.9111C14.5669 29.2251 14.8221 29.481 15.1353 29.481H38.6812C38.9944 29.481 39.2496 29.2251 39.2496 28.9111C39.2496 28.5971 38.9944 28.3412 38.6812 28.3412ZM18.8934 16.7344C18.3482 16.7344 17.9074 16.2925 17.9074 15.7459C17.9074 15.1993 18.3482 14.7573 18.8934 14.7573C19.4385 14.7573 19.8793 15.1993 19.8793 15.7459C19.8793 16.0599 20.1344 16.3157 20.4476 16.3157C20.7608 16.3157 21.016 16.0599 21.016 15.7459C21.016 14.7759 20.3548 13.9514 19.4617 13.706V12.943C19.4617 12.629 19.2065 12.3732 18.8934 12.3732C18.5802 12.3732 18.325 12.629 18.325 12.943V13.7118C17.4435 13.9665 16.7939 14.7841 16.7939 15.7459C16.7939 16.9089 17.7335 17.8625 18.905 17.8625C19.4501 17.8625 19.8909 18.3045 19.8909 18.8511C19.8909 19.3977 19.493 19.7955 18.9861 19.8362C18.956 19.8304 18.9247 19.828 18.8934 19.828C18.8644 19.828 18.8365 19.8304 18.8087 19.835C18.3088 19.7862 17.919 19.3652 17.919 18.8511C17.919 18.5371 17.6639 18.2812 17.3507 18.2812C17.0375 18.2812 16.7823 18.5371 16.7823 18.8511C16.7823 19.8187 17.4319 20.641 18.325 20.8899V21.6307C18.325 21.9447 18.5802 22.2006 18.8934 22.2006C19.2065 22.2006 19.4617 21.9447 19.4617 21.6307V20.8899C20.3548 20.641 21.0044 19.8187 21.0044 18.8511C21.0044 17.6881 20.0649 16.7344 18.8934 16.7344ZM18.8934 16.7344C18.3482 16.7344 17.9074 16.2925 17.9074 15.7459C17.9074 15.1993 18.3482 14.7573 18.8934 14.7573C19.4385 14.7573 19.8793 15.1993 19.8793 15.7459C19.8793 16.0599 20.1344 16.3157 20.4476 16.3157C20.7608 16.3157 21.016 16.0599 21.016 15.7459C21.016 14.7759 20.3548 13.9514 19.4617 13.706V12.943C19.4617 12.629 19.2065 12.3732 18.8934 12.3732C18.5802 12.3732 18.325 12.629 18.325 12.943V13.7118C17.4435 13.9665 16.7939 14.7841 16.7939 15.7459C16.7939 16.9089 17.7335 17.8625 18.905 17.8625C19.4501 17.8625 19.8909 18.3045 19.8909 18.8511C19.8909 19.3977 19.493 19.7955 18.9861 19.8362C18.956 19.8304 18.9247 19.828 18.8934 19.828C18.8644 19.828 18.8365 19.8304 18.8087 19.835C18.3088 19.7862 17.919 19.3652 17.919 18.8511C17.919 18.5371 17.6639 18.2812 17.3507 18.2812C17.0375 18.2812 16.7823 18.5371 16.7823 18.8511C16.7823 19.8187 17.4319 20.641 18.325 20.8899V21.6307C18.325 21.9447 18.5802 22.2006 18.8934 22.2006C19.2065 22.2006 19.4617 21.9447 19.4617 21.6307V20.8899C20.3548 20.641 21.0044 19.8187 21.0044 18.8511C21.0044 17.6881 20.0649 16.7344 18.8934 16.7344ZM18.8934 16.7344C18.3482 16.7344 17.9074 16.2925 17.9074 15.7459C17.9074 15.1993 18.3482 14.7573 18.8934 14.7573C19.4385 14.7573 19.8793 15.1993 19.8793 15.7459C19.8793 16.0599 20.1344 16.3157 20.4476 16.3157C20.7608 16.3157 21.016 16.0599 21.016 15.7459C21.016 14.7759 20.3548 13.9514 19.4617 13.706V12.943C19.4617 12.629 19.2065 12.3732 18.8934 12.3732C18.5802 12.3732 18.325 12.629 18.325 12.943V13.7118C17.4435 13.9665 16.7939 14.7841 16.7939 15.7459C16.7939 16.9089 17.7335 17.8625 18.905 17.8625C19.4501 17.8625 19.8909 18.3045 19.8909 18.8511C19.8909 19.3977 19.493 19.7955 18.9861 19.8362C18.956 19.8304 18.9247 19.828 18.8934 19.828C18.8644 19.828 18.8365 19.8304 18.8087 19.835C18.3088 19.7862 17.919 19.3652 17.919 18.8511C17.919 18.5371 17.6639 18.2812 17.3507 18.2812C17.0375 18.2812 16.7823 18.5371 16.7823 18.8511C16.7823 19.8187 17.4319 20.641 18.325 20.8899V21.6307C18.325 21.9447 18.5802 22.2006 18.8934 22.2006C19.2065 22.2006 19.4617 21.9447 19.4617 21.6307V20.8899C20.3548 20.641 21.0044 19.8187 21.0044 18.8511C21.0044 17.6881 20.0649 16.7344 18.8934 16.7344ZM18.8934 16.7344C18.3482 16.7344 17.9074 16.2925 17.9074 15.7459C17.9074 15.1993 18.3482 14.7573 18.8934 14.7573C19.4385 14.7573 19.8793 15.1993 19.8793 15.7459C19.8793 16.0599 20.1344 16.3157 20.4476 16.3157C20.7608 16.3157 21.016 16.0599 21.016 15.7459C21.016 14.7759 20.3548 13.9514 19.4617 13.706V12.943C19.4617 12.629 19.2065 12.3732 18.8934 12.3732C18.5802 12.3732 18.325 12.629 18.325 12.943V13.7118C17.4435 13.9665 16.7939 14.7841 16.7939 15.7459C16.7939 16.9089 17.7335 17.8625 18.905 17.8625C19.4501 17.8625 19.8909 18.3045 19.8909 18.8511C19.8909 19.3977 19.493 19.7955 18.9861 19.8362C18.956 19.8304 18.9247 19.828 18.8934 19.828C18.8644 19.828 18.8365 19.8304 18.8087 19.835C18.3088 19.7862 17.919 19.3652 17.919 18.8511C17.919 18.5371 17.6639 18.2812 17.3507 18.2812C17.0375 18.2812 16.7823 18.5371 16.7823 18.8511C16.7823 19.8187 17.4319 20.641 18.325 20.8899V21.6307C18.325 21.9447 18.5802 22.2006 18.8934 22.2006C19.2065 22.2006 19.4617 21.9447 19.4617 21.6307V20.8899C20.3548 20.641 21.0044 19.8187 21.0044 18.8511C21.0044 17.6881 20.0649 16.7344 18.8934 16.7344ZM18.8934 16.7344C18.3482 16.7344 17.9074 16.2925 17.9074 15.7459C17.9074 15.1993 18.3482 14.7573 18.8934 14.7573C19.4385 14.7573 19.8793 15.1993 19.8793 15.7459C19.8793 16.0599 20.1344 16.3157 20.4476 16.3157C20.7608 16.3157 21.016 16.0599 21.016 15.7459C21.016 14.7759 20.3548 13.9514 19.4617 13.706V12.943C19.4617 12.629 19.2065 12.3732 18.8934 12.3732C18.5802 12.3732 18.325 12.629 18.325 12.943V13.7118C17.4435 13.9665 16.7939 14.7841 16.7939 15.7459C16.7939 16.9089 17.7335 17.8625 18.905 17.8625C19.4501 17.8625 19.8909 18.3045 19.8909 18.8511C19.8909 19.3977 19.493 19.7955 18.9861 19.8362C18.956 19.8304 18.9247 19.828 18.8934 19.828C18.8644 19.828 18.8365 19.8304 18.8087 19.835C18.3088 19.7862 17.919 19.3652 17.919 18.8511C17.919 18.5371 17.6639 18.2812 17.3507 18.2812C17.0375 18.2812 16.7823 18.5371 16.7823 18.8511C16.7823 19.8187 17.4319 20.641 18.325 20.8899V21.6307C18.325 21.9447 18.5802 22.2006 18.8934 22.2006C19.2065 22.2006 19.4617 21.9447 19.4617 21.6307V20.8899C20.3548 20.641 21.0044 19.8187 21.0044 18.8511C21.0044 17.6881 20.0649 16.7344 18.8934 16.7344ZM18.8934 16.7344C18.3482 16.7344 17.9074 16.2925 17.9074 15.7459C17.9074 15.1993 18.3482 14.7573 18.8934 14.7573C19.4385 14.7573 19.8793 15.1993 19.8793 15.7459C19.8793 16.0599 20.1344 16.3157 20.4476 16.3157C20.7608 16.3157 21.016 16.0599 21.016 15.7459C21.016 14.7759 20.3548 13.9514 19.4617 13.706V12.943C19.4617 12.629 19.2065 12.3732 18.8934 12.3732C18.5802 12.3732 18.325 12.629 18.325 12.943V13.7118C17.4435 13.9665 16.7939 14.7841 16.7939 15.7459C16.7939 16.9089 17.7335 17.8625 18.905 17.8625C19.4501 17.8625 19.8909 18.3045 19.8909 18.8511C19.8909 19.3977 19.493 19.7955 18.9861 19.8362C18.956 19.8304 18.9247 19.828 18.8934 19.828C18.8644 19.828 18.8365 19.8304 18.8087 19.835C18.3088 19.7862 17.919 19.3652 17.919 18.8511C17.919 18.5371 17.6639 18.2812 17.3507 18.2812C17.0375 18.2812 16.7823 18.5371 16.7823 18.8511C16.7823 19.8187 17.4319 20.641 18.325 20.8899V21.6307C18.325 21.9447 18.5802 22.2006 18.8934 22.2006C19.2065 22.2006 19.4617 21.9447 19.4617 21.6307V20.8899C20.3548 20.641 21.0044 19.8187 21.0044 18.8511C21.0044 17.6881 20.0649 16.7344 18.8934 16.7344ZM18.8934 16.7344C18.3482 16.7344 17.9074 16.2925 17.9074 15.7459C17.9074 15.1993 18.3482 14.7573 18.8934 14.7573C19.4385 14.7573 19.8793 15.1993 19.8793 15.7459C19.8793 16.0599 20.1344 16.3157 20.4476 16.3157C20.7608 16.3157 21.016 16.0599 21.016 15.7459C21.016 14.7759 20.3548 13.9514 19.4617 13.706V12.943C19.4617 12.629 19.2065 12.3732 18.8934 12.3732C18.5802 12.3732 18.325 12.629 18.325 12.943V13.7118C17.4435 13.9665 16.7939 14.7841 16.7939 15.7459C16.7939 16.9089 17.7335 17.8625 18.905 17.8625C19.4501 17.8625 19.8909 18.3045 19.8909 18.8511C19.8909 19.3977 19.493 19.7955 18.9861 19.8362C18.956 19.8304 18.9247 19.828 18.8934 19.828C18.8644 19.828 18.8365 19.8304 18.8087 19.835C18.3088 19.7862 17.919 19.3652 17.919 18.8511C17.919 18.5371 17.6639 18.2812 17.3507 18.2812C17.0375 18.2812 16.7823 18.5371 16.7823 18.8511C16.7823 19.8187 17.4319 20.641 18.325 20.8899V21.6307C18.325 21.9447 18.5802 22.2006 18.8934 22.2006C19.2065 22.2006 19.4617 21.9447 19.4617 21.6307V20.8899C20.3548 20.641 21.0044 19.8187 21.0044 18.8511C21.0044 17.6881 20.0649 16.7344 18.8934 16.7344ZM18.8934 16.7344C18.3482 16.7344 17.9074 16.2925 17.9074 15.7459C17.9074 15.1993 18.3482 14.7573 18.8934 14.7573C19.4385 14.7573 19.8793 15.1993 19.8793 15.7459C19.8793 16.0599 20.1344 16.3157 20.4476 16.3157C20.7608 16.3157 21.016 16.0599 21.016 15.7459C21.016 14.7759 20.3548 13.9514 19.4617 13.706V12.943C19.4617 12.629 19.2065 12.3732 18.8934 12.3732C18.5802 12.3732 18.325 12.629 18.325 12.943V13.7118C17.4435 13.9665 16.7939 14.7841 16.7939 15.7459C16.7939 16.9089 17.7335 17.8625 18.905 17.8625C19.4501 17.8625 19.8909 18.3045 19.8909 18.8511C19.8909 19.3977 19.493 19.7955 18.9861 19.8362C18.956 19.8304 18.9247 19.828 18.8934 19.828C18.8644 19.828 18.8365 19.8304 18.8087 19.835C18.3088 19.7862 17.919 19.3652 17.919 18.8511C17.919 18.5371 17.6639 18.2812 17.3507 18.2812C17.0375 18.2812 16.7823 18.5371 16.7823 18.8511C16.7823 19.8187 17.4319 20.641 18.325 20.8899V21.6307C18.325 21.9447 18.5802 22.2006 18.8934 22.2006C19.2065 22.2006 19.4617 21.9447 19.4617 21.6307V20.8899C20.3548 20.641 21.0044 19.8187 21.0044 18.8511C21.0044 17.6881 20.0649 16.7344 18.8934 16.7344ZM18.8934 16.7344C18.3482 16.7344 17.9074 16.2925 17.9074 15.7459C17.9074 15.1993 18.3482 14.7573 18.8934 14.7573C19.4385 14.7573 19.8793 15.1993 19.8793 15.7459C19.8793 16.0599 20.1344 16.3157 20.4476 16.3157C20.7608 16.3157 21.016 16.0599 21.016 15.7459C21.016 14.7759 20.3548 13.9514 19.4617 13.706V12.943C19.4617 12.629 19.2065 12.3732 18.8934 12.3732C18.5802 12.3732 18.325 12.629 18.325 12.943V13.7118C17.4435 13.9665 16.7939 14.7841 16.7939 15.7459C16.7939 16.9089 17.7335 17.8625 18.905 17.8625C19.4501 17.8625 19.8909 18.3045 19.8909 18.8511C19.8909 19.3977 19.493 19.7955 18.9861 19.8362C18.956 19.8304 18.9247 19.828 18.8934 19.828C18.8644 19.828 18.8365 19.8304 18.8087 19.835C18.3088 19.7862 17.919 19.3652 17.919 18.8511C17.919 18.5371 17.6639 18.2812 17.3507 18.2812C17.0375 18.2812 16.7823 18.5371 16.7823 18.8511C16.7823 19.8187 17.4319 20.641 18.325 20.8899V21.6307C18.325 21.9447 18.5802 22.2006 18.8934 22.2006C19.2065 22.2006 19.4617 21.9447 19.4617 21.6307V20.8899C20.3548 20.641 21.0044 19.8187 21.0044 18.8511C21.0044 17.6881 20.0649 16.7344 18.8934 16.7344ZM18.8934 16.7344C18.3482 16.7344 17.9074 16.2925 17.9074 15.7459C17.9074 15.1993 18.3482 14.7573 18.8934 14.7573C19.4385 14.7573 19.8793 15.1993 19.8793 15.7459C19.8793 16.0599 20.1344 16.3157 20.4476 16.3157C20.7608 16.3157 21.016 16.0599 21.016 15.7459C21.016 14.7759 20.3548 13.9514 19.4617 13.706V12.943C19.4617 12.629 19.2065 12.3732 18.8934 12.3732C18.5802 12.3732 18.325 12.629 18.325 12.943V13.7118C17.4435 13.9665 16.7939 14.7841 16.7939 15.7459C16.7939 16.9089 17.7335 17.8625 18.905 17.8625C19.4501 17.8625 19.8909 18.3045 19.8909 18.8511C19.8909 19.3977 19.493 19.7955 18.9861 19.8362C18.956 19.8304 18.9247 19.828 18.8934 19.828C18.8644 19.828 18.8365 19.8304 18.8087 19.835C18.3088 19.7862 17.919 19.3652 17.919 18.8511C17.919 18.5371 17.6639 18.2812 17.3507 18.2812C17.0375 18.2812 16.7823 18.5371 16.7823 18.8511C16.7823 19.8187 17.4319 20.641 18.325 20.8899V21.6307C18.325 21.9447 18.5802 22.2006 18.8934 22.2006C19.2065 22.2006 19.4617 21.9447 19.4617 21.6307V20.8899C20.3548 20.641 21.0044 19.8187 21.0044 18.8511C21.0044 17.6881 20.0649 16.7344 18.8934 16.7344ZM18.8934 10.3379C15.0773 10.3379 11.9688 13.4547 11.9688 17.281C11.9688 21.1073 15.0773 24.2242 18.8934 24.2242C22.7094 24.2242 25.818 21.119 25.818 17.281C25.818 13.4431 22.7094 10.3379 18.8934 10.3379ZM18.8934 23.0844C15.7036 23.0844 13.1055 20.4793 13.1055 17.281C13.1055 14.0828 15.7036 11.4776 18.8934 11.4776C22.0831 11.4776 24.6929 14.0828 24.6813 17.281C24.6813 20.4793 22.0831 23.0844 18.8934 23.0844ZM18.8934 14.7573C19.4385 14.7573 19.8793 15.1993 19.8793 15.7459C19.8793 16.0599 20.1344 16.3157 20.4476 16.3157C20.7608 16.3157 21.016 16.0599 21.016 15.7459C21.016 14.7759 20.3548 13.9514 19.4617 13.706V12.943C19.4617 12.629 19.2065 12.3732 18.8934 12.3732C18.5802 12.3732 18.325 12.629 18.325 12.943V13.7118C17.4435 13.9665 16.7939 14.7841 16.7939 15.7459C16.7939 16.9089 17.7335 17.8625 18.905 17.8625C19.4501 17.8625 19.8909 18.3045 19.8909 18.8511C19.8909 19.3977 19.493 19.7955 18.9861 19.8362C18.956 19.8304 18.9247 19.828 18.8934 19.828C18.8644 19.828 18.8365 19.8304 18.8087 19.835C18.3088 19.7862 17.919 19.3652 17.919 18.8511C17.919 18.5371 17.6639 18.2812 17.3507 18.2812C17.0375 18.2812 16.7823 18.5371 16.7823 18.8511C16.7823 19.8187 17.4319 20.641 18.325 20.8899V21.6307C18.325 21.9447 18.5802 22.2006 18.8934 22.2006C19.2065 22.2006 19.4617 21.9447 19.4617 21.6307V20.8899C20.3548 20.641 21.0044 19.8187 21.0044 18.8511C21.0044 17.6881 20.0649 16.7344 18.8934 16.7344C18.3482 16.7344 17.9074 16.2925 17.9074 15.7459C17.9074 15.1993 18.3482 14.7573 18.8934 14.7573ZM18.8934 16.7344C18.3482 16.7344 17.9074 16.2925 17.9074 15.7459C17.9074 15.1993 18.3482 14.7573 18.8934 14.7573C19.4385 14.7573 19.8793 15.1993 19.8793 15.7459C19.8793 16.0599 20.1344 16.3157 20.4476 16.3157C20.7608 16.3157 21.016 16.0599 21.016 15.7459C21.016 14.7759 20.3548 13.9514 19.4617 13.706V12.943C19.4617 12.629 19.2065 12.3732 18.8934 12.3732C18.5802 12.3732 18.325 12.629 18.325 12.943V13.7118C17.4435 13.9665 16.7939 14.7841 16.7939 15.7459C16.7939 16.9089 17.7335 17.8625 18.905 17.8625C19.4501 17.8625 19.8909 18.3045 19.8909 18.8511C19.8909 19.3977 19.493 19.7955 18.9861 19.8362C18.956 19.8304 18.9247 19.828 18.8934 19.828C18.8644 19.828 18.8365 19.8304 18.8087 19.835C18.3088 19.7862 17.919 19.3652 17.919 18.8511C17.919 18.5371 17.6639 18.2812 17.3507 18.2812C17.0375 18.2812 16.7823 18.5371 16.7823 18.8511C16.7823 19.8187 17.4319 20.641 18.325 20.8899V21.6307C18.325 21.9447 18.5802 22.2006 18.8934 22.2006C19.2065 22.2006 19.4617 21.9447 19.4617 21.6307V20.8899C20.3548 20.641 21.0044 19.8187 21.0044 18.8511C21.0044 17.6881 20.0649 16.7344 18.8934 16.7344ZM18.8934 16.7344C18.3482 16.7344 17.9074 16.2925 17.9074 15.7459C17.9074 15.1993 18.3482 14.7573 18.8934 14.7573C19.4385 14.7573 19.8793 15.1993 19.8793 15.7459C19.8793 16.0599 20.1344 16.3157 20.4476 16.3157C20.7608 16.3157 21.016 16.0599 21.016 15.7459C21.016 14.7759 20.3548 13.9514 19.4617 13.706V12.943C19.4617 12.629 19.2065 12.3732 18.8934 12.3732C18.5802 12.3732 18.325 12.629 18.325 12.943V13.7118C17.4435 13.9665 16.7939 14.7841 16.7939 15.7459C16.7939 16.9089 17.7335 17.8625 18.905 17.8625C19.4501 17.8625 19.8909 18.3045 19.8909 18.8511C19.8909 19.3977 19.493 19.7955 18.9861 19.8362C18.956 19.8304 18.9247 19.828 18.8934 19.828C18.8644 19.828 18.8365 19.8304 18.8087 19.835C18.3088 19.7862 17.919 19.3652 17.919 18.8511C17.919 18.5371 17.6639 18.2812 17.3507 18.2812C17.0375 18.2812 16.7823 18.5371 16.7823 18.8511C16.7823 19.8187 17.4319 20.641 18.325 20.8899V21.6307C18.325 21.9447 18.5802 22.2006 18.8934 22.2006C19.2065 22.2006 19.4617 21.9447 19.4617 21.6307V20.8899C20.3548 20.641 21.0044 19.8187 21.0044 18.8511C21.0044 17.6881 20.0649 16.7344 18.8934 16.7344ZM18.8934 16.7344C18.3482 16.7344 17.9074 16.2925 17.9074 15.7459C17.9074 15.1993 18.3482 14.7573 18.8934 14.7573C19.4385 14.7573 19.8793 15.1993 19.8793 15.7459C19.8793 16.0599 20.1344 16.3157 20.4476 16.3157C20.7608 16.3157 21.016 16.0599 21.016 15.7459C21.016 14.7759 20.3548 13.9514 19.4617 13.706V12.943C19.4617 12.629 19.2065 12.3732 18.8934 12.3732C18.5802 12.3732 18.325 12.629 18.325 12.943V13.7118C17.4435 13.9665 16.7939 14.7841 16.7939 15.7459C16.7939 16.9089 17.7335 17.8625 18.905 17.8625C19.4501 17.8625 19.8909 18.3045 19.8909 18.8511C19.8909 19.3977 19.493 19.7955 18.9861 19.8362C18.956 19.8304 18.9247 19.828 18.8934 19.828C18.8644 19.828 18.8365 19.8304 18.8087 19.835C18.3088 19.7862 17.919 19.3652 17.919 18.8511C17.919 18.5371 17.6639 18.2812 17.3507 18.2812C17.0375 18.2812 16.7823 18.5371 16.7823 18.8511C16.7823 19.8187 17.4319 20.641 18.325 20.8899V21.6307C18.325 21.9447 18.5802 22.2006 18.8934 22.2006C19.2065 22.2006 19.4617 21.9447 19.4617 21.6307V20.8899C20.3548 20.641 21.0044 19.8187 21.0044 18.8511C21.0044 17.6881 20.0649 16.7344 18.8934 16.7344ZM18.8934 16.7344C18.3482 16.7344 17.9074 16.2925 17.9074 15.7459C17.9074 15.1993 18.3482 14.7573 18.8934 14.7573C19.4385 14.7573 19.8793 15.1993 19.8793 15.7459C19.8793 16.0599 20.1344 16.3157 20.4476 16.3157C20.7608 16.3157 21.016 16.0599 21.016 15.7459C21.016 14.7759 20.3548 13.9514 19.4617 13.706V12.943C19.4617 12.629 19.2065 12.3732 18.8934 12.3732C18.5802 12.3732 18.325 12.629 18.325 12.943V13.7118C17.4435 13.9665 16.7939 14.7841 16.7939 15.7459C16.7939 16.9089 17.7335 17.8625 18.905 17.8625C19.4501 17.8625 19.8909 18.3045 19.8909 18.8511C19.8909 19.3977 19.493 19.7955 18.9861 19.8362C18.956 19.8304 18.9247 19.828 18.8934 19.828C18.8644 19.828 18.8365 19.8304 18.8087 19.835C18.3088 19.7862 17.919 19.3652 17.919 18.8511C17.919 18.5371 17.6639 18.2812 17.3507 18.2812C17.0375 18.2812 16.7823 18.5371 16.7823 18.8511C16.7823 19.8187 17.4319 20.641 18.325 20.8899V21.6307C18.325 21.9447 18.5802 22.2006 18.8934 22.2006C19.2065 22.2006 19.4617 21.9447 19.4617 21.6307V20.8899C20.3548 20.641 21.0044 19.8187 21.0044 18.8511C21.0044 17.6881 20.0649 16.7344 18.8934 16.7344ZM18.8934 16.7344C18.3482 16.7344 17.9074 16.2925 17.9074 15.7459C17.9074 15.1993 18.3482 14.7573 18.8934 14.7573C19.4385 14.7573 19.8793 15.1993 19.8793 15.7459C19.8793 16.0599 20.1344 16.3157 20.4476 16.3157C20.7608 16.3157 21.016 16.0599 21.016 15.7459C21.016 14.7759 20.3548 13.9514 19.4617 13.706V12.943C19.4617 12.629 19.2065 12.3732 18.8934 12.3732C18.5802 12.3732 18.325 12.629 18.325 12.943V13.7118C17.4435 13.9665 16.7939 14.7841 16.7939 15.7459C16.7939 16.9089 17.7335 17.8625 18.905 17.8625C19.4501 17.8625 19.8909 18.3045 19.8909 18.8511C19.8909 19.3977 19.493 19.7955 18.9861 19.8362C18.956 19.8304 18.9247 19.828 18.8934 19.828C18.8644 19.828 18.8365 19.8304 18.8087 19.835C18.3088 19.7862 17.919 19.3652 17.919 18.8511C17.919 18.5371 17.6639 18.2812 17.3507 18.2812C17.0375 18.2812 16.7823 18.5371 16.7823 18.8511C16.7823 19.8187 17.4319 20.641 18.325 20.8899V21.6307C18.325 21.9447 18.5802 22.2006 18.8934 22.2006C19.2065 22.2006 19.4617 21.9447 19.4617 21.6307V20.8899C20.3548 20.641 21.0044 19.8187 21.0044 18.8511C21.0044 17.6881 20.0649 16.7344 18.8934 16.7344ZM18.8934 16.7344C18.3482 16.7344 17.9074 16.2925 17.9074 15.7459C17.9074 15.1993 18.3482 14.7573 18.8934 14.7573C19.4385 14.7573 19.8793 15.1993 19.8793 15.7459C19.8793 16.0599 20.1344 16.3157 20.4476 16.3157C20.7608 16.3157 21.016 16.0599 21.016 15.7459C21.016 14.7759 20.3548 13.9514 19.4617 13.706V12.943C19.4617 12.629 19.2065 12.3732 18.8934 12.3732C18.5802 12.3732 18.325 12.629 18.325 12.943V13.7118C17.4435 13.9665 16.7939 14.7841 16.7939 15.7459C16.7939 16.9089 17.7335 17.8625 18.905 17.8625C19.4501 17.8625 19.8909 18.3045 19.8909 18.8511C19.8909 19.3977 19.493 19.7955 18.9861 19.8362C18.956 19.8304 18.9247 19.828 18.8934 19.828C18.8644 19.828 18.8365 19.8304 18.8087 19.835C18.3088 19.7862 17.919 19.3652 17.919 18.8511C17.919 18.5371 17.6639 18.2812 17.3507 18.2812C17.0375 18.2812 16.7823 18.5371 16.7823 18.8511C16.7823 19.8187 17.4319 20.641 18.325 20.8899V21.6307C18.325 21.9447 18.5802 22.2006 18.8934 22.2006C19.2065 22.2006 19.4617 21.9447 19.4617 21.6307V20.8899C20.3548 20.641 21.0044 19.8187 21.0044 18.8511C21.0044 17.6881 20.0649 16.7344 18.8934 16.7344ZM18.8934 16.7344C18.3482 16.7344 17.9074 16.2925 17.9074 15.7459C17.9074 15.1993 18.3482 14.7573 18.8934 14.7573C19.4385 14.7573 19.8793 15.1993 19.8793 15.7459C19.8793 16.0599 20.1344 16.3157 20.4476 16.3157C20.7608 16.3157 21.016 16.0599 21.016 15.7459C21.016 14.7759 20.3548 13.9514 19.4617 13.706V12.943C19.4617 12.629 19.2065 12.3732 18.8934 12.3732C18.5802 12.3732 18.325 12.629 18.325 12.943V13.7118C17.4435 13.9665 16.7939 14.7841 16.7939 15.7459C16.7939 16.9089 17.7335 17.8625 18.905 17.8625C19.4501 17.8625 19.8909 18.3045 19.8909 18.8511C19.8909 19.3977 19.493 19.7955 18.9861 19.8362C18.956 19.8304 18.9247 19.828 18.8934 19.828C18.8644 19.828 18.8365 19.8304 18.8087 19.835C18.3088 19.7862 17.919 19.3652 17.919 18.8511C17.919 18.5371 17.6639 18.2812 17.3507 18.2812C17.0375 18.2812 16.7823 18.5371 16.7823 18.8511C16.7823 19.8187 17.4319 20.641 18.325 20.8899V21.6307C18.325 21.9447 18.5802 22.2006 18.8934 22.2006C19.2065 22.2006 19.4617 21.9447 19.4617 21.6307V20.8899C20.3548 20.641 21.0044 19.8187 21.0044 18.8511C21.0044 17.6881 20.0649 16.7344 18.8934 16.7344ZM18.8934 16.7344C18.3482 16.7344 17.9074 16.2925 17.9074 15.7459C17.9074 15.1993 18.3482 14.7573 18.8934 14.7573C19.4385 14.7573 19.8793 15.1993 19.8793 15.7459C19.8793 16.0599 20.1344 16.3157 20.4476 16.3157C20.7608 16.3157 21.016 16.0599 21.016 15.7459C21.016 14.7759 20.3548 13.9514 19.4617 13.706V12.943C19.4617 12.629 19.2065 12.3732 18.8934 12.3732C18.5802 12.3732 18.325 12.629 18.325 12.943V13.7118C17.4435 13.9665 16.7939 14.7841 16.7939 15.7459C16.7939 16.9089 17.7335 17.8625 18.905 17.8625C19.4501 17.8625 19.8909 18.3045 19.8909 18.8511C19.8909 19.3977 19.493 19.7955 18.9861 19.8362C18.956 19.8304 18.9247 19.828 18.8934 19.828C18.8644 19.828 18.8365 19.8304 18.8087 19.835C18.3088 19.7862 17.919 19.3652 17.919 18.8511C17.919 18.5371 17.6639 18.2812 17.3507 18.2812C17.0375 18.2812 16.7823 18.5371 16.7823 18.8511C16.7823 19.8187 17.4319 20.641 18.325 20.8899V21.6307C18.325 21.9447 18.5802 22.2006 18.8934 22.2006C19.2065 22.2006 19.4617 21.9447 19.4617 21.6307V20.8899C20.3548 20.641 21.0044 19.8187 21.0044 18.8511C21.0044 17.6881 20.0649 16.7344 18.8934 16.7344ZM18.8934 16.7344C18.3482 16.7344 17.9074 16.2925 17.9074 15.7459C17.9074 15.1993 18.3482 14.7573 18.8934 14.7573C19.4385 14.7573 19.8793 15.1993 19.8793 15.7459C19.8793 16.0599 20.1344 16.3157 20.4476 16.3157C20.7608 16.3157 21.016 16.0599 21.016 15.7459C21.016 14.7759 20.3548 13.9514 19.4617 13.706V12.943C19.4617 12.629 19.2065 12.3732 18.8934 12.3732C18.5802 12.3732 18.325 12.629 18.325 12.943V13.7118C17.4435 13.9665 16.7939 14.7841 16.7939 15.7459C16.7939 16.9089 17.7335 17.8625 18.905 17.8625C19.4501 17.8625 19.8909 18.3045 19.8909 18.8511C19.8909 19.3977 19.493 19.7955 18.9861 19.8362C18.956 19.8304 18.9247 19.828 18.8934 19.828C18.8644 19.828 18.8365 19.8304 18.8087 19.835C18.3088 19.7862 17.919 19.3652 17.919 18.8511C17.919 18.5371 17.6639 18.2812 17.3507 18.2812C17.0375 18.2812 16.7823 18.5371 16.7823 18.8511C16.7823 19.8187 17.4319 20.641 18.325 20.8899V21.6307C18.325 21.9447 18.5802 22.2006 18.8934 22.2006C19.2065 22.2006 19.4617 21.9447 19.4617 21.6307V20.8899C20.3548 20.641 21.0044 19.8187 21.0044 18.8511C21.0044 17.6881 20.0649 16.7344 18.8934 16.7344ZM18.8934 16.7344C18.3482 16.7344 17.9074 16.2925 17.9074 15.7459C17.9074 15.1993 18.3482 14.7573 18.8934 14.7573C19.4385 14.7573 19.8793 15.1993 19.8793 15.7459C19.8793 16.0599 20.1344 16.3157 20.4476 16.3157C20.7608 16.3157 21.016 16.0599 21.016 15.7459C21.016 14.7759 20.3548 13.9514 19.4617 13.706V12.943C19.4617 12.629 19.2065 12.3732 18.8934 12.3732C18.5802 12.3732 18.325 12.629 18.325 12.943V13.7118C17.4435 13.9665 16.7939 14.7841 16.7939 15.7459C16.7939 16.9089 17.7335 17.8625 18.905 17.8625C19.4501 17.8625 19.8909 18.3045 19.8909 18.8511C19.8909 19.3977 19.493 19.7955 18.9861 19.8362C18.956 19.8304 18.9247 19.828 18.8934 19.828C18.8644 19.828 18.8365 19.8304 18.8087 19.835C18.3088 19.7862 17.919 19.3652 17.919 18.8511C17.919 18.5371 17.6639 18.2812 17.3507 18.2812C17.0375 18.2812 16.7823 18.5371 16.7823 18.8511C16.7823 19.8187 17.4319 20.641 18.325 20.8899V21.6307C18.325 21.9447 18.5802 22.2006 18.8934 22.2006C19.2065 22.2006 19.4617 21.9447 19.4617 21.6307V20.8899C20.3548 20.641 21.0044 19.8187 21.0044 18.8511C21.0044 17.6881 20.0649 16.7344 18.8934 16.7344ZM13.0823 40.3318C13.0707 40.297 13.0591 40.2621 13.0475 40.2272C13.0359 40.1923 13.0243 40.169 13.0011 40.1341C12.9779 40.1109 12.9547 40.076 12.9315 40.0527C12.8967 40.0295 12.8735 40.0062 12.8387 39.9829C12.8155 39.9713 12.7807 39.948 12.7459 39.9364C12.7111 39.9248 12.6763 39.9132 12.6415 39.9015C12.5719 39.8899 12.4907 39.8899 12.4211 39.9015C12.3863 39.9132 12.3515 39.9248 12.3167 39.9364C12.2819 39.948 12.2471 39.9597 12.2123 39.9829C12.1891 40.0062 12.1543 40.0295 12.1311 40.0527C12.1079 40.076 12.0847 40.0992 12.0615 40.1341C12.0499 40.1574 12.0267 40.1923 12.0151 40.2272C12.0035 40.2621 11.9919 40.297 11.9803 40.3318C11.9688 40.3784 11.9688 40.4133 11.9688 40.4481C11.9688 40.5993 12.0267 40.7505 12.1311 40.8552C12.1543 40.8785 12.1775 40.9017 12.2123 40.925C12.2471 40.9366 12.2819 40.9599 12.3167 40.9715C12.3515 40.9831 12.3863 40.9948 12.4211 41.0064C12.4675 41.018 12.5023 41.018 12.5371 41.018C12.6879 41.018 12.8387 40.9599 12.9315 40.8552C13.0359 40.7389 13.0939 40.5993 13.0939 40.4481C13.0939 40.4016 13.0939 40.3667 13.0823 40.3318ZM13.0823 46.1236C13.0707 46.0887 13.0591 46.0538 13.0475 46.0189C13.0359 45.9841 13.0243 45.9608 13.0011 45.9259C12.9779 45.9026 12.9547 45.8678 12.9315 45.8445C12.8967 45.8212 12.8735 45.798 12.8387 45.7747C12.8155 45.7631 12.7807 45.7398 12.7459 45.7282C12.7111 45.7166 12.6763 45.7049 12.6415 45.6933C12.5719 45.6817 12.4907 45.6817 12.4211 45.6933C12.3863 45.7049 12.3515 45.7166 12.3167 45.7282C12.2819 45.7398 12.2471 45.7515 12.2123 45.7747C12.1891 45.798 12.1543 45.8212 12.1311 45.8445C12.1079 45.8678 12.0847 45.891 12.0615 45.9259C12.0499 45.9492 12.0267 45.9841 12.0151 46.0189C12.0035 46.0538 11.9919 46.0887 11.9803 46.1236C11.9688 46.1701 11.9688 46.205 11.9688 46.2399C11.9688 46.2748 11.9688 46.3097 11.9803 46.3446C11.9919 46.3795 12.0035 46.4144 12.0151 46.4493C12.0267 46.4841 12.0383 46.5074 12.0615 46.5423C12.0847 46.5656 12.1079 46.6004 12.1311 46.6237C12.1543 46.647 12.1775 46.6702 12.2123 46.6935C12.2471 46.7051 12.2819 46.7284 12.3167 46.74C12.3515 46.7516 12.3863 46.7633 12.4211 46.7749C12.4675 46.7865 12.5023 46.7865 12.5371 46.7865C12.5835 46.7865 12.6183 46.7865 12.6415 46.7749C12.6763 46.7633 12.7111 46.7516 12.7459 46.74C12.7807 46.7284 12.8039 46.7168 12.8387 46.6935C12.8735 46.6702 12.9083 46.647 12.9315 46.6237C12.9547 46.6004 12.9779 46.5772 13.0011 46.5423C13.0127 46.519 13.0359 46.4841 13.0475 46.4493C13.0591 46.4144 13.0707 46.3795 13.0823 46.3446C13.0939 46.3097 13.0939 46.2748 13.0939 46.2399C13.0939 46.1934 13.0939 46.1585 13.0823 46.1236ZM13.0707 28.7948C13.0591 28.7599 13.0475 28.725 13.0359 28.6901C13.0243 28.6553 13.0127 28.632 12.9895 28.5971C12.9663 28.5738 12.9431 28.5389 12.9199 28.5157C12.8967 28.4924 12.8735 28.4692 12.8387 28.4459C12.8155 28.4343 12.7807 28.411 12.7459 28.3994L12.6415 28.3645C12.5719 28.3529 12.4907 28.3529 12.4211 28.3645L12.3167 28.3994C12.2819 28.411 12.2471 28.4227 12.2123 28.4459C12.1891 28.4692 12.1543 28.4924 12.1311 28.5157C12.1079 28.5389 12.0847 28.5622 12.0615 28.5971C12.0499 28.6204 12.0267 28.6553 12.0151 28.6901C12.0035 28.725 11.9919 28.7599 11.9803 28.7948C11.9688 28.8413 11.9688 28.8762 11.9688 28.9111C11.9688 29.0623 12.0267 29.2135 12.1311 29.3182C12.1543 29.3414 12.1775 29.3647 12.2123 29.3879C12.2471 29.3996 12.2819 29.4228 12.3167 29.4345C12.3515 29.4461 12.3863 29.4577 12.4211 29.4694C12.4675 29.481 12.5023 29.481 12.5371 29.481C12.5835 29.481 12.6183 29.481 12.6415 29.4694C12.6763 29.4577 12.7111 29.4461 12.7459 29.4345C12.7691 29.4228 12.8039 29.4112 12.8387 29.3879C12.8619 29.3647 12.8967 29.3414 12.9199 29.3182C13.0243 29.2135 13.0823 29.0623 13.0823 28.9111C13.0823 28.8646 13.0823 28.8297 13.0707 28.7948ZM13.0707 34.5633C13.0591 34.5284 13.0475 34.4935 13.0359 34.4587C13.0243 34.4238 13.0127 34.4005 12.9895 34.3656C12.9663 34.3424 12.9431 34.3075 12.9199 34.2842C12.8967 34.2609 12.8735 34.2377 12.8387 34.2144C12.8155 34.2028 12.7807 34.1795 12.7459 34.1679L12.6415 34.133C12.5719 34.1214 12.4907 34.1214 12.4211 34.133C12.3863 34.1446 12.3515 34.1563 12.3167 34.1679C12.2819 34.1795 12.2471 34.1912 12.2123 34.2144C12.1891 34.2377 12.1543 34.2609 12.1311 34.2842C12.1079 34.3075 12.0847 34.3307 12.0615 34.3656C12.0499 34.3889 12.0267 34.4238 12.0151 34.4587C12.0035 34.4935 11.9919 34.5284 11.9803 34.5633C11.9688 34.6098 11.9688 34.6447 11.9688 34.6796C11.9688 34.7261 11.9688 34.761 11.9803 34.7959C11.9919 34.8308 12.0035 34.8657 12.0151 34.9006C12.0267 34.9471 12.0383 34.9704 12.0615 35.0053C12.0847 35.0285 12.1079 35.0634 12.1311 35.0867C12.2471 35.1914 12.3863 35.2495 12.5371 35.2495C12.5835 35.2495 12.6183 35.2495 12.6415 35.2379C12.6763 35.2262 12.7111 35.2146 12.7459 35.203C12.7807 35.1914 12.8039 35.1797 12.8387 35.1565C12.8619 35.1332 12.8967 35.1099 12.9199 35.0867C12.9431 35.0634 12.9663 35.0402 12.9895 35.0053C13.0011 34.9704 13.0243 34.9355 13.0359 34.9006C13.0475 34.8657 13.0591 34.8308 13.0707 34.7959C13.0823 34.7494 13.0823 34.7145 13.0823 34.6796C13.0823 34.6331 13.0823 34.5982 13.0707 34.5633Z" fill="url(#paint0_linear_1057_48236)"/>
<path d="M42.7402 33.3553V6.69799C42.7402 5.75595 41.9747 5 41.0468 5H10.1935C9.25393 5 8.5 5.76758 8.5 6.69799V50.4387C8.5 51.3807 9.26553 52.1367 10.1935 52.1367H33.2499C35.1881 53.9149 37.7666 55 40.5944 55C46.605 55 51.4731 50.0968 51.4952 44.0712C51.4952 38.7807 47.7267 34.3566 42.7402 33.3553ZM10.1935 50.9969C9.89188 50.9969 9.6367 50.7527 9.6367 50.4387V6.69799C9.6367 6.39561 9.88028 6.13975 10.1935 6.13975H41.0468C41.3484 6.13975 41.6035 6.38398 41.6035 6.69799V33.189C41.3948 33.1692 41.1848 33.1552 40.9726 33.1483C40.8461 33.1436 40.7209 33.1413 40.5944 33.1413C40.3555 33.1413 40.1177 33.1494 39.8811 33.1657C39.0842 33.2169 38.3094 33.3541 37.5671 33.5716C37.2597 33.6588 36.9581 33.7623 36.6635 33.8775C36.4768 33.9496 36.2935 34.0275 36.1114 34.1101H15.1346C14.8215 34.1101 14.5663 34.3659 14.5663 34.6799C14.5663 34.9939 14.8215 35.2498 15.1346 35.2498H34.1663C33.0377 36.0802 32.0726 37.1223 31.3315 38.3178C31.1122 38.6702 30.9151 39.0342 30.7376 39.4122C30.6645 39.5657 30.5949 39.7216 30.53 39.8786H15.1346C14.8215 39.8786 14.5663 40.1344 14.5663 40.4485C14.5663 40.7625 14.8215 41.0183 15.1346 41.0183H30.1287C29.8654 41.9197 29.7169 42.871 29.6972 43.8526C29.696 43.9247 29.6949 43.9968 29.6949 44.0712C29.6949 44.3655 29.7065 44.6562 29.7308 44.9458C29.7494 45.1819 29.776 45.4157 29.8097 45.6471H15.1346C14.8215 45.6471 14.5663 45.903 14.5663 46.217C14.5663 46.531 14.8215 46.7868 15.1346 46.7868H30.037C30.233 47.5544 30.5114 48.2906 30.8617 48.9838C31.0508 49.3617 31.263 49.7269 31.4939 50.077C31.7038 50.3957 31.93 50.7027 32.1724 50.9969H10.1935ZM40.5944 53.8754C38.5333 53.8754 36.6195 53.2322 35.042 52.1355C34.5548 51.7982 34.099 51.4168 33.6814 50.9969C33.5341 50.8492 33.3915 50.6969 33.2534 50.5399C32.9623 50.2072 32.692 49.8572 32.4496 49.4873C31.9033 48.6663 31.4776 47.7568 31.1981 46.7868C31.0914 46.4158 31.0055 46.0355 30.9429 45.6471C30.8594 45.1342 30.8165 44.6074 30.8165 44.0712C30.8165 43.0059 30.987 41.979 31.3013 41.0183C31.4289 40.6276 31.582 40.2461 31.7572 39.8786C31.9103 39.5541 32.0819 39.2389 32.2698 38.9342C32.5308 38.5097 32.8219 38.1062 33.1432 37.7282C34.0468 36.6629 35.0698 35.8313 36.2436 35.2498C37.1252 34.8137 38.0914 34.5171 39.1562 34.3706C39.3696 34.3403 39.5865 34.3159 39.808 34.2985C40.0678 34.2775 40.33 34.2659 40.5944 34.2659C40.7348 34.2659 40.8728 34.2682 41.0108 34.2764C41.2103 34.2845 41.4075 34.2996 41.6035 34.3206C41.9898 34.3589 42.3691 34.4218 42.7402 34.5055C47.1026 35.4871 50.3736 39.4041 50.3736 44.0712C50.3736 49.4769 45.9868 53.8754 40.5944 53.8754Z" fill="url(#paint1_linear_1057_48236)"/>
<defs>
<linearGradient id="paint0_linear_1057_48236" x1="29.1759" y1="10.3379" x2="29.1759" y2="48.816" gradientUnits="userSpaceOnUse">
<stop stop-color="#81319B"/>
<stop offset="0.49" stop-color="#00A99D"/>
<stop offset="1" stop-color="#0B2C4C"/>
</linearGradient>
<linearGradient id="paint1_linear_1057_48236" x1="29.9976" y1="5" x2="29.9976" y2="55" gradientUnits="userSpaceOnUse">
<stop stop-color="#81319B"/>
<stop offset="0.515" stop-color="#00A99D"/>
<stop offset="1" stop-color="#0B2C4C"/>
</linearGradient>
</defs>
</svg>
