<svg width="148" height="68" viewBox="0 0 148 68" fill="none" xmlns="http://www.w3.org/2000/svg">
<path d="M27.0007 15.8972C12.3703 15.8972 0.512695 23.5354 0.512695 32.9582C0.512695 42.381 12.3722 50.7573 27.0007 50.7573C41.6291 50.7573 53.4886 42.3791 53.4886 32.9582C53.4886 23.5373 41.6291 15.8972 27.0007 15.8972Z" fill="#00BCFF"/>
<path d="M18.3831 27.6838C18.37 27.7103 18.1106 27.979 18.2797 28.1966C18.6895 28.7227 19.9546 29.0255 21.2348 28.736C21.9961 28.5638 22.9736 27.7822 23.9191 27.0271C24.9436 26.2076 25.9605 25.3862 26.9831 25.0607C28.0659 24.7144 28.7595 24.862 29.2182 25.0021C29.7201 25.1535 30.3122 25.4866 31.2559 26.1981C33.0323 27.5418 40.1717 33.8174 41.4067 34.9018C42.3992 34.4495 47.1344 32.5248 53.1346 31.1925C52.612 27.9714 50.689 24.8999 47.7359 22.4888C43.6211 24.228 38.258 25.2708 33.3405 22.8541C33.3161 22.8446 30.6543 21.5766 28.0302 21.6391C24.1296 21.7299 22.4397 23.4294 20.652 25.2292L18.3869 27.6875L18.3831 27.6838Z" fill="white"/>
<path d="M41.1142 35.5849C41.0296 35.5092 32.7172 28.187 30.8337 26.762C29.7434 25.9387 29.1381 25.7287 28.5009 25.6473C28.17 25.6038 27.7114 25.6662 27.3918 25.7552C26.5158 25.9955 25.371 26.7658 24.3541 27.5776C23.3014 28.4217 22.3089 29.2166 21.3859 29.4247C20.2092 29.6897 18.7711 29.3774 18.1151 28.9308C17.85 28.751 17.6621 28.5428 17.5718 28.3328C17.3293 27.7669 17.7767 27.3146 17.85 27.2389L20.1434 24.7408C20.4103 24.4739 20.6791 24.2052 20.9536 23.9402C20.2129 24.0368 19.5287 24.2279 18.8632 24.4134C18.0324 24.648 17.2316 24.8714 16.4233 24.8714C16.0849 24.8714 14.2766 24.5723 13.9326 24.4796C11.8554 23.9081 9.50382 23.3498 6.7819 22.0704C3.52048 24.5137 1.39633 27.5152 0.766602 30.882C1.23467 31.0069 2.46216 31.2889 2.77984 31.3589C10.1599 33.011 12.4588 34.7124 12.8761 35.0682C13.3273 34.5629 13.9796 34.2431 14.7052 34.2431C15.5229 34.2431 16.2579 34.6575 16.7053 35.2953C17.1282 34.9584 17.7109 34.6708 18.4647 34.6727C18.8069 34.6727 19.1621 34.737 19.5212 34.8581C20.3539 35.1458 20.7844 35.7041 21.0062 36.2094C21.2844 36.0826 21.6284 35.988 22.0326 35.9899C22.4311 35.9899 22.8446 36.0807 23.2601 36.2624C24.621 36.851 24.8316 38.1965 24.7094 39.2109C24.8071 39.1996 24.9049 39.1958 25.0026 39.1958C26.6155 39.1958 27.9275 40.5168 27.9275 42.1424C27.9275 42.6458 27.7997 43.119 27.5779 43.5334C28.0178 43.7813 29.1362 44.3434 30.1194 44.2185C30.9032 44.1182 31.2021 43.8495 31.3074 43.6962C31.3807 43.5921 31.4578 43.4691 31.3863 43.382L29.3035 41.0542C29.3035 41.0542 28.9614 40.7268 29.0742 40.6019C29.1908 40.4732 29.4032 40.6587 29.5536 40.7836C30.6138 41.675 31.907 43.0187 31.907 43.0187C31.9296 43.0338 32.0142 43.2041 32.4935 43.2893C32.9052 43.3631 33.6346 43.3215 34.1402 42.9032C34.2662 42.7972 34.394 42.6666 34.503 42.5304C34.4936 42.538 34.4861 42.5455 34.4786 42.5493C35.0124 41.8623 34.4184 41.1697 34.4184 41.1697L31.9879 38.4217C31.9879 38.4217 31.6401 38.0981 31.7585 37.9675C31.8638 37.854 32.0875 38.0243 32.2398 38.153C33.0086 38.8002 34.097 39.8998 35.1384 40.9274C35.3433 41.0769 36.2587 41.6466 37.4712 40.846C38.2081 40.3597 38.3547 39.7616 38.334 39.3131C38.2833 38.717 37.8208 38.2912 37.8208 38.2912L34.5011 34.9301C34.5011 34.9301 34.1496 34.6291 34.2737 34.4759C34.3752 34.3472 34.6026 34.5326 34.753 34.6575C35.8095 35.5489 38.6742 38.1927 38.6742 38.1927C38.7156 38.2211 39.7044 38.9308 40.9281 38.1473C41.3661 37.8653 41.6443 37.4414 41.6687 36.9475C41.7101 36.0921 41.1123 35.5849 41.1123 35.5849H41.1142Z" fill="white"/>
<path d="M25.006 39.8455C24.4909 39.8398 23.927 40.1483 23.8537 40.1029C23.8123 40.0764 23.8856 39.8682 23.9326 39.7471C23.9834 39.6279 24.6601 37.5745 23.0078 36.861C21.7427 36.3141 20.9682 36.9292 20.7031 37.2074C20.6336 37.2793 20.6016 37.2736 20.5941 37.1828C20.5678 36.8118 20.4043 35.8126 19.3121 35.4757C17.7519 34.995 16.7481 36.0908 16.4943 36.4882C16.3796 35.5931 15.6277 34.8985 14.7085 34.8966C13.7085 34.8966 12.8964 35.7104 12.8945 36.7191C12.8945 37.7259 13.7047 38.5435 14.7066 38.5435C15.1935 38.5435 15.6334 38.3485 15.9586 38.0344C15.9699 38.0439 15.9736 38.0609 15.968 38.0949C15.8909 38.5473 15.7518 40.1843 17.4568 40.8523C18.141 41.1192 18.7219 40.9205 19.2031 40.5817C19.3459 40.4795 19.3704 40.523 19.3497 40.6593C19.2877 41.0813 19.3666 41.9822 20.6223 42.495C21.5772 42.8868 22.143 42.4875 22.5152 42.1411C22.6769 41.9935 22.7201 42.0181 22.7295 42.2471C22.7747 43.4659 23.7803 44.4349 25.0022 44.4368C26.2616 44.4368 27.2824 43.4129 27.2824 42.1468C27.2824 40.8788 26.2635 39.8644 25.0041 39.8512L25.006 39.8455Z" fill="white"/>
<path d="M26.9974 15.1913C12.0889 15.1913 0.00376036 23.1739 0.00376036 32.9658C0.00376036 33.2194 0 33.9177 0 34.0066C0 44.3965 10.5625 52.8088 26.9936 52.8088C43.4248 52.8088 53.9892 44.3965 53.9892 34.0085V32.9658C53.9892 23.1739 41.9041 15.1913 26.9974 15.1913ZM52.773 30.9957C46.9062 32.3091 42.53 34.2148 41.4341 34.7069C38.8739 32.4567 32.9563 27.2769 31.3529 26.0657C30.4374 25.3711 29.8114 25.0059 29.2625 24.8412C29.0163 24.7655 28.6761 24.6803 28.2381 24.6803C27.8302 24.6803 27.3922 24.7541 26.9354 24.9018C25.8996 25.233 24.8676 26.0581 23.8695 26.8567L23.8187 26.8984C22.8882 27.6421 21.9276 28.4124 21.2002 28.5751C20.8825 28.647 20.5554 28.6849 20.2302 28.6849C19.4144 28.6849 18.6831 28.4464 18.4087 28.0944C18.3636 28.0358 18.3937 27.9411 18.4989 27.8068L18.5121 27.7878L20.7659 25.3446C22.531 23.5675 24.1965 21.8908 28.0332 21.8018C28.0971 21.7999 28.161 21.798 28.2249 21.798C30.6122 21.7999 32.9995 22.8749 33.2684 23.0017C35.5072 24.1012 37.8193 24.6595 40.1408 24.6614C42.5564 24.6614 45.0489 24.0615 47.6694 22.8484C50.4063 25.1648 52.2203 27.9563 52.773 30.9975V30.9957ZM27.0012 16.2397C34.915 16.2397 41.9943 18.524 46.7558 22.1198C44.4549 23.1228 42.2612 23.6281 40.1446 23.6281C37.9791 23.6262 35.8155 23.102 33.7139 22.0706C33.603 22.0176 30.9675 20.7666 28.2249 20.7647C28.1535 20.7647 28.0802 20.7647 28.0087 20.7666C24.7868 20.8423 22.9709 21.9949 21.7509 23.0036C20.5648 23.0339 19.5403 23.3215 18.6286 23.577C17.8147 23.8041 17.1135 24.0009 16.4293 24.0009C16.1473 24.0009 15.6398 23.9744 15.5947 23.9725C14.8089 23.9479 10.8614 22.9733 7.70898 21.7753C12.4592 18.3764 19.3429 16.2378 27.003 16.2378L27.0012 16.2397ZM6.77285 22.4869C10.0643 23.842 14.0589 24.8904 15.3221 24.9718C15.6736 24.9945 16.0496 25.0361 16.4255 25.0361C17.2639 25.0361 18.1004 24.7996 18.9087 24.5725C19.3862 24.4381 19.9144 24.2905 20.4689 24.1845C20.3204 24.3302 20.1719 24.4797 20.0234 24.6292L17.7357 27.1217C17.5553 27.3053 17.1643 27.7935 17.4218 28.3953C17.5233 28.6376 17.732 28.8704 18.0233 29.0672C18.5685 29.4362 19.546 29.6879 20.452 29.6879C20.796 29.6879 21.1231 29.6539 21.4201 29.5857C22.3807 29.37 23.3864 28.5619 24.4522 27.7084C25.3018 27.0289 26.5087 26.166 27.4335 25.9124C27.6929 25.8423 28.0087 25.7969 28.2644 25.7969C28.3415 25.7969 28.4129 25.8007 28.4787 25.8102C29.0877 25.8878 29.678 26.0959 30.7325 26.8927C32.6123 28.314 40.9247 35.6361 41.0055 35.708C41.0112 35.7118 41.5413 36.1736 41.5037 36.9381C41.483 37.3659 41.248 37.7444 40.8382 38.0074C40.483 38.2345 40.1183 38.35 39.748 38.35C39.1915 38.35 38.8099 38.0869 38.7836 38.0699C38.7536 38.0453 35.9057 35.4147 34.8568 34.5309C34.6895 34.3908 34.5278 34.2659 34.3643 34.2659C34.2759 34.2659 34.1988 34.3038 34.1462 34.37C33.9808 34.5744 34.165 34.8583 34.3831 35.0437L37.7103 38.4124C37.7103 38.4124 38.1257 38.8023 38.1708 39.3189C38.1971 39.8772 37.9321 40.3447 37.3813 40.708C36.9884 40.9692 36.5918 41.0998 36.2027 41.0998C35.6914 41.0998 35.3324 40.8651 35.2534 40.8102L34.7759 40.3371C33.9037 39.4722 33.0033 38.579 32.3435 38.0263C32.1818 37.892 32.0108 37.7671 31.8472 37.7671C31.7664 37.7671 31.6931 37.7973 31.6367 37.8579C31.5615 37.9412 31.5089 38.0926 31.6969 38.3443C31.7721 38.4484 31.8642 38.5335 31.8642 38.5335L34.291 41.2796C34.3098 41.3042 34.791 41.8795 34.3455 42.451L34.259 42.5608C34.1857 42.6403 34.1086 42.716 34.0334 42.7803C33.6199 43.1229 33.0672 43.1588 32.8473 43.1588C32.7289 43.1588 32.618 43.1494 32.5183 43.1304C32.2796 43.0869 32.1179 43.0207 32.039 42.9279L32.0089 42.8977C31.8773 42.7595 30.6536 41.501 29.6404 40.6513C29.5069 40.5377 29.3396 40.3977 29.1686 40.3977C29.084 40.3977 29.0088 40.4317 28.9486 40.4961C28.7494 40.7175 29.0501 41.0468 29.178 41.1679L31.2476 43.4673C31.2457 43.4881 31.2194 43.5354 31.1705 43.6074C31.0953 43.7114 30.8453 43.9631 30.0934 44.0578C30.0032 44.0691 29.9092 44.0748 29.819 44.0748C29.0445 44.0748 28.2174 43.6963 27.7907 43.4692C27.9843 43.0566 28.0858 42.6024 28.0858 42.1482C28.0858 40.4317 26.7023 39.0369 24.9973 39.035C24.9616 39.035 24.9221 39.035 24.8864 39.0369C24.9409 38.2534 24.8319 36.7697 23.3187 36.1168C22.8826 35.9275 22.4483 35.8291 22.0273 35.8291C21.6964 35.8291 21.3787 35.8859 21.0799 36.0013C20.7659 35.3882 20.2452 34.9415 19.5685 34.7088C19.1926 34.5782 18.8204 34.5119 18.4594 34.5119C17.8297 34.5119 17.2489 34.6993 16.7319 35.0683C16.2357 34.4476 15.4875 34.0805 14.6999 34.0805C14.01 34.0805 13.3464 34.3586 12.8558 34.8488C12.2111 34.353 9.65455 32.7178 2.81027 31.1527C2.48319 31.0789 1.74068 30.8651 1.27449 30.7269C1.9155 27.6346 3.86859 24.809 6.76345 22.4907L6.77285 22.4869ZM19.4689 40.4241L19.3956 40.3579H19.3204C19.2602 40.3579 19.1963 40.3825 19.1117 40.4431C18.7621 40.691 18.4294 40.8102 18.0891 40.8102C17.9012 40.8102 17.7094 40.7724 17.5177 40.6986C15.9311 40.0759 16.0552 38.5695 16.1342 38.1153C16.1454 38.0226 16.1229 37.9525 16.0646 37.9033L15.9518 37.8106L15.8466 37.9109C15.5364 38.2118 15.1322 38.3746 14.7074 38.3746C13.7995 38.3746 13.0588 37.6308 13.0607 36.7148C13.0607 35.8007 13.8014 35.057 14.7112 35.0589C15.5326 35.0589 16.2319 35.6796 16.3353 36.5066L16.3917 36.9514L16.6342 36.5748C16.6605 36.5313 17.3278 35.5169 18.5516 35.5188C18.7846 35.5188 19.0253 35.5566 19.2678 35.6323C20.2434 35.9313 20.4088 36.8227 20.4332 37.1936C20.4501 37.4094 20.6043 37.4207 20.6325 37.4207C20.7171 37.4207 20.7791 37.3677 20.8223 37.3204C21.0065 37.1274 21.4069 36.8057 22.0348 36.8057C22.3224 36.8057 22.6269 36.8757 22.9427 37.0119C24.4935 37.6819 23.7905 39.6653 23.783 39.6861C23.6495 40.0154 23.6439 40.1592 23.7698 40.2444L23.83 40.2727H23.8751C23.9446 40.2727 24.0311 40.2425 24.1759 40.1933C24.3864 40.1195 24.7041 40.0097 25.003 40.0097C26.1703 40.0229 27.1196 40.9805 27.1196 42.1407C27.1196 43.314 26.1684 44.2678 25.0011 44.2678C23.8601 44.2678 22.9314 43.3727 22.8901 42.2353C22.8863 42.1369 22.8769 41.8795 22.6589 41.8795C22.5705 41.8795 22.4916 41.9344 22.4032 42.0158C22.1513 42.2504 21.8318 42.487 21.3656 42.487C21.1532 42.487 20.9238 42.4378 20.6813 42.3375C19.4764 41.8454 19.4595 41.0127 19.5084 40.6777C19.5215 40.5888 19.5253 40.4961 19.4651 40.4223L19.4689 40.4241ZM27.0012 49.6748C12.666 49.6748 1.04516 42.1899 1.04516 32.9582C1.04516 32.5873 1.07147 32.2182 1.10719 31.853C1.22186 31.8813 2.361 32.1539 2.59598 32.2088C9.58688 33.772 11.8971 35.3976 12.2881 35.7061C12.1565 36.026 12.087 36.3704 12.087 36.7186C12.087 38.174 13.2619 39.3587 14.7055 39.3587C14.8672 39.3587 15.0288 39.3435 15.1867 39.3132C15.4048 40.3844 16.1003 41.1963 17.1624 41.6127C17.4726 41.7319 17.7865 41.7943 18.0966 41.7943C18.2959 41.7943 18.497 41.7697 18.6925 41.7205C18.8899 42.222 19.3298 42.8485 20.3186 43.2516C20.6644 43.3916 21.0103 43.4654 21.3468 43.4654C21.6212 43.4654 21.89 43.4162 22.1457 43.3216C22.6194 44.4817 23.7454 45.2519 25.0011 45.2519C25.8338 45.2519 26.6327 44.9113 27.2155 44.3076C27.7136 44.5877 28.7663 45.093 29.8302 45.0949C29.9675 45.0949 30.0953 45.0854 30.2269 45.0703C31.2833 44.9359 31.7739 44.5195 31.9995 44.1959C32.0409 44.1392 32.0766 44.0786 32.1085 44.0161C32.3567 44.0881 32.6311 44.1467 32.9469 44.1486C33.524 44.1486 34.0767 43.9499 34.6368 43.5411C35.1876 43.1418 35.5786 42.5684 35.635 42.0801C35.635 42.0744 35.635 42.0669 35.6369 42.0593C35.823 42.0971 36.0128 42.1161 36.2027 42.1161C36.7967 42.1161 37.3813 41.9306 37.9396 41.5616C39.0167 40.8519 39.2028 39.9226 39.1859 39.3151C39.3758 39.3549 39.5675 39.3757 39.7592 39.3757C40.3157 39.3757 40.8646 39.2073 41.3853 38.8723C42.0526 38.4427 42.4548 37.7841 42.5169 37.0195C42.5564 36.4991 42.4285 35.973 42.1578 35.5225C43.9587 34.7409 48.0754 33.2288 52.9233 32.1293C52.944 32.4056 52.9553 32.6838 52.9553 32.9639C52.9553 42.1955 41.3345 49.6804 27.0012 49.6804V49.6748Z" fill="#0A0080"/>
<path d="M146.531 20.6626C145.551 19.4249 144.063 18.808 142.066 18.808C140.07 18.808 138.583 19.4268 137.604 20.6626C136.622 21.8985 136.132 23.3595 136.132 25.0457C136.132 26.7319 136.622 28.227 137.604 29.4477C138.583 30.6646 140.072 31.274 142.066 31.274C144.061 31.274 145.551 30.6646 146.531 29.4477C147.512 28.227 148.001 26.7622 148.001 25.0457C148.001 23.3292 147.512 21.8985 146.531 20.6626ZM144.102 27.7558C143.627 28.3898 142.946 28.7096 142.055 28.7096C141.164 28.7096 140.484 28.3898 140.004 27.7558C139.525 27.1218 139.286 26.2172 139.286 25.0457C139.286 23.8742 139.525 22.9734 140.004 22.3413C140.484 21.7092 141.168 21.3932 142.055 21.3932C142.942 21.3932 143.625 21.7092 144.102 22.3413C144.578 22.9734 144.816 23.8761 144.816 25.0457C144.816 26.2153 144.578 27.1218 144.102 27.7558Z" fill="#0A0080"/>
<path d="M121.478 19.6269C120.483 19.1197 119.346 18.8643 118.066 18.8643C116.098 18.8643 114.708 19.3809 113.898 20.4123C113.389 21.0728 113.105 21.9169 113.037 22.9426H115.979C116.051 22.4884 116.195 22.1307 116.413 21.8658C116.716 21.5081 117.233 21.3283 117.96 21.3283C118.611 21.3283 119.103 21.4191 119.442 21.6027C119.776 21.7844 119.946 22.1175 119.946 22.5982C119.946 22.9937 119.727 23.2814 119.289 23.4706C119.045 23.5785 118.639 23.6675 118.071 23.7394L117.028 23.8681C115.844 24.0195 114.945 24.2712 114.336 24.6232C113.223 25.2685 112.667 26.3132 112.667 27.7553C112.667 28.8662 113.011 29.7254 113.705 30.331C114.395 30.9385 115.272 31.1921 116.333 31.2413C122.981 31.5422 122.908 27.7136 122.968 26.9188V22.5149C122.968 21.1012 122.47 20.1398 121.478 19.6288V19.6269ZM119.932 26.3113C119.912 27.337 119.62 28.0429 119.06 28.4309C118.498 28.8189 117.887 29.0119 117.222 29.0119C116.801 29.0119 116.443 28.8927 116.15 28.6618C115.857 28.429 115.71 28.0486 115.71 27.5244C115.71 26.9377 115.951 26.5043 116.43 26.2223C116.714 26.0577 117.18 25.9177 117.831 25.806L118.524 25.6754C118.87 25.6092 119.141 25.5373 119.34 25.4616C119.541 25.3896 119.735 25.2912 119.929 25.1682V26.3094L119.932 26.3113Z" fill="#0A0080"/>
<path d="M106.311 21.4883C107.072 21.4883 107.628 21.7249 107.991 22.198C108.237 22.5462 108.392 22.9418 108.452 23.3789H111.732C111.553 21.7116 110.974 20.5496 109.995 19.891C109.014 19.2343 107.758 18.905 106.222 18.905C104.416 18.905 102.998 19.4633 101.972 20.578C100.946 21.6946 100.431 23.2559 100.431 25.262C100.431 27.0372 100.895 28.4868 101.825 29.6015C102.756 30.7162 104.205 31.2745 106.175 31.2745C108.145 31.2745 109.638 30.6064 110.642 29.2665C111.271 28.4376 111.625 27.5576 111.698 26.6284H108.429C108.361 27.2434 108.172 27.745 107.854 28.131C107.54 28.5152 107.008 28.7101 106.256 28.7101C105.198 28.7101 104.476 28.2238 104.094 27.2491C103.884 26.7287 103.777 26.0417 103.777 25.1844C103.777 24.3271 103.884 23.5682 104.094 23.0212C104.493 22.0012 105.232 21.4883 106.311 21.4883Z" fill="#0A0080"/>
<path d="M99.5531 18.905C92.8141 18.905 93.2145 24.91 93.2145 24.91V31.0114H96.2729V25.2904C96.2729 24.3517 96.3913 23.659 96.6225 23.2067C97.0417 22.4062 97.8632 22.005 99.085 22.005C99.1771 22.005 99.2974 22.0106 99.4459 22.0182C99.5944 22.0258 99.7636 22.039 99.9591 22.0617V18.9296C99.8238 18.9202 99.7354 18.9164 99.6978 18.9107C99.6584 18.9069 99.6114 18.905 99.5531 18.905Z" fill="#0A0080"/>
<path d="M90.7644 21.1787C90.2362 20.3914 89.5651 19.8142 88.7568 19.447C87.9466 19.0837 87.0368 18.902 86.0274 18.902C84.3243 18.902 82.9408 19.4413 81.873 20.522C80.8072 21.6045 80.2715 23.1563 80.2715 25.1832C80.2715 27.3464 80.8636 28.9058 82.046 29.8653C83.2265 30.8229 84.5912 31.3055 86.1364 31.3055C88.0087 31.3055 89.4655 30.7359 90.505 29.5985C91.0671 29.0004 91.4186 28.4081 91.5671 27.8233H88.3226C88.1948 28.0087 88.0575 28.1658 87.9053 28.2888C87.4729 28.6465 86.8864 28.7563 86.1965 28.7563C85.5443 28.7563 85.0311 28.6579 84.5687 28.3645C83.8055 27.8914 83.375 27.0928 83.3299 25.9213H91.7908C91.8021 24.9107 91.7701 24.1367 91.6893 23.5992C91.5502 22.6832 91.2381 21.877 90.7644 21.1825V21.1787ZM83.4051 23.9001C83.5141 23.1393 83.7867 22.5375 84.2134 22.0909C84.6438 21.6461 85.2473 21.4228 86.0274 21.4228C86.7436 21.4228 87.3451 21.6329 87.8301 22.0549C88.3132 22.475 88.582 23.092 88.6384 23.9001H83.407H83.4051Z" fill="#0A0080"/>
<path d="M74.1965 18.8629C72.7773 18.8629 71.5498 19.4893 70.7246 20.4924C69.9407 19.4893 68.7339 18.8629 67.2507 18.8629C64.2638 18.8629 62.3389 21.0715 62.3389 23.9954V31.0091H65.1341V23.9292C65.1341 22.6366 66.0026 21.7433 67.2526 21.7433C69.0948 21.7433 69.2846 23.2819 69.2846 23.9292V31.0091H72.0799V23.9292C72.0799 22.6366 72.969 21.7433 74.1965 21.7433C76.0387 21.7433 76.2511 23.2819 76.2511 23.9292V31.0091H79.0426V23.9954C79.0426 20.9806 77.2455 18.8629 74.1946 18.8629H74.1965Z" fill="#0A0080"/>
<path d="M132.139 17.3659L132.136 20.6645C131.795 20.1119 131.352 19.6804 130.805 19.3719C130.26 19.0616 129.634 18.9045 128.929 18.9045C127.401 18.9045 126.184 19.4779 125.271 20.6191C124.357 21.7641 123.9 23.4143 123.9 25.409C123.9 27.1407 124.365 28.5601 125.291 29.6653C126.218 30.7686 128.036 31.2531 129.651 31.2531C135.281 31.2531 135.215 26.3931 135.215 26.3931V15.2065C135.215 15.2065 132.138 14.8753 132.138 17.3659H132.139ZM131.551 27.7823C131.106 28.4257 130.45 28.7474 129.59 28.7474C128.731 28.7474 128.09 28.4219 127.667 27.7766C127.245 27.1274 127.034 26.185 127.034 25.1062C127.034 24.1032 127.241 23.2667 127.656 22.5911C128.072 21.9155 128.722 21.5767 129.611 21.5767C130.194 21.5767 130.705 21.7622 131.147 22.1331C131.863 22.7482 132.224 23.8534 132.224 25.2822C132.224 26.3042 131.998 27.1388 131.551 27.7823Z" fill="#0A0080"/>
<path d="M68.8055 35.7156C66.2866 35.5964 65.0159 36.2001 64.1869 36.8379C63.0421 37.7179 62.3447 39.0199 62.3447 41.0998V51.7944H63.826C64.2226 51.7944 64.6193 51.6562 64.9106 51.3856C65.2377 51.0828 65.4013 50.7119 65.4013 50.2766V46.2796C65.7622 46.906 66.2378 47.3659 66.8393 47.6649C67.4089 47.9318 68.0668 48.0661 68.8149 48.0661C70.2229 48.0661 71.379 47.5022 72.2756 46.3685C73.1741 45.2047 73.6234 43.6906 73.6234 41.8152C73.6234 39.9397 73.1986 38.6036 72.1797 37.3545C71.3564 36.3439 70.1045 35.7743 68.8074 35.7156H68.8055ZM69.8488 44.4931C69.3995 45.1195 68.7849 45.4318 68.0066 45.4318C67.1682 45.4318 66.5235 45.1214 66.0742 44.4931C65.6249 43.9272 65.3994 43.0831 65.3994 41.9476C65.3994 40.7308 65.608 39.8356 66.0272 39.2697C66.4784 38.6471 67.1081 38.331 67.9164 38.331C68.7247 38.331 69.3995 38.6452 69.8488 39.2697C70.3 39.8962 70.5237 40.7875 70.5237 41.9476C70.5237 43.0226 70.3 43.8666 69.8488 44.4931Z" fill="#0A0080"/>
<path d="M95.0669 36.8188C94.0274 36.0258 92.9653 35.6113 91.1401 35.6605C89.2866 35.7116 87.9388 36.234 87.1004 37.3771C86.262 38.522 85.8447 40.0171 85.8447 41.8585C85.8447 43.435 86.1605 44.7049 86.7921 45.6757C87.4256 46.6409 88.1832 47.3033 89.0667 47.6572C89.9464 48.0149 90.8374 48.0887 91.736 47.8824C92.6326 47.6723 93.3469 47.1557 93.877 46.323V47.0781C93.8169 48.03 93.5894 48.7435 93.1947 49.2204C92.7943 49.6935 92.3544 49.985 91.8675 50.0891C91.3863 50.1913 90.8976 50.1345 90.4145 49.9093C89.9276 49.6878 89.5686 49.3661 89.3336 48.9517H86.1117C86.9463 51.4763 88.4445 52.591 91.1438 52.7878C95.4974 53.1038 96.8847 49.3926 96.8809 47.3903V41.0977C96.8809 39.0179 96.208 37.6855 95.0707 36.815L95.0669 36.8188ZM93.7868 42.9997C93.6684 43.6962 93.4785 44.2109 93.2116 44.5364C92.6533 45.3086 91.783 45.583 90.61 45.3635C89.4314 45.1383 88.843 44.0008 88.843 41.9513C88.843 40.9993 89.0178 40.1515 89.3731 39.4058C89.7265 38.6659 90.4013 38.2911 91.4014 38.2911C92.1364 38.2911 92.6965 38.5599 93.0781 39.0936C93.4616 39.6291 93.706 40.2385 93.8075 40.9236C93.9109 41.6068 93.9015 42.2995 93.7849 42.9978L93.7868 42.9997Z" fill="#0A0080"/>
<path d="M83.2277 36.5071C82.2333 36.0018 81.096 35.7444 79.8159 35.7444C77.8477 35.7444 76.4605 36.261 75.6522 37.2944C75.1446 37.9529 74.8589 38.797 74.7912 39.8227H77.7331C77.8045 39.3704 77.9492 39.0109 78.1654 38.7478C78.4681 38.3901 78.985 38.2084 79.7125 38.2084C80.3648 38.2084 80.8573 38.2993 81.1937 38.4828C81.5283 38.6645 81.6956 38.9976 81.6956 39.4783C81.6956 39.872 81.4776 40.1634 81.0396 40.3489C80.7952 40.4567 80.3892 40.5457 79.8215 40.6176L78.7801 40.7444C77.5958 40.8958 76.6954 41.1475 76.0901 41.4995C74.9754 42.1449 74.4209 43.1876 74.4209 44.6297C74.4209 45.7406 74.7649 46.5998 75.4585 47.2054C76.1484 47.8129 77.0263 48.0665 78.0884 48.1157C84.7353 48.4148 84.6601 44.5881 84.7202 43.7932V39.3894C84.7202 37.9776 84.2258 37.0162 83.2314 36.5052L83.2277 36.5071ZM81.6825 43.1895C81.6637 44.2172 81.3704 44.9212 80.8121 45.3091C80.252 45.6971 79.6392 45.8901 78.9737 45.8901C78.5526 45.8901 78.1974 45.7709 77.9022 45.54C77.609 45.3073 77.4624 44.9287 77.4624 44.4045C77.4624 43.8178 77.703 43.3845 78.1823 43.1044C78.4681 42.9397 78.9324 42.7997 79.5828 42.688L80.2783 42.5593C80.6242 42.4931 80.8967 42.4231 81.0922 42.3474C81.2934 42.2736 81.4889 42.1751 81.6825 42.0521V43.1933V43.1895Z" fill="#0A0080"/>
<path d="M108.443 37.4773C107.462 36.2396 105.973 35.6207 103.977 35.6207C101.98 35.6207 100.495 36.2377 99.5158 37.4773C98.5346 38.7131 98.0439 40.1722 98.0439 41.8584C98.0439 43.5447 98.5346 45.0379 99.5158 46.2585C100.495 47.4735 101.984 48.0829 103.977 48.0829C105.969 48.0829 107.46 47.4735 108.443 46.2585C109.422 45.0379 109.911 43.5731 109.911 41.8584C109.911 40.1438 109.422 38.7131 108.443 37.4773ZM106.012 44.5666C105.537 45.2025 104.856 45.5224 103.969 45.5224C103.082 45.5224 102.398 45.2025 101.918 44.5666C101.437 43.9326 101.198 43.0299 101.198 41.8584C101.198 40.687 101.437 39.7861 101.918 39.154C102.396 38.5219 103.08 38.2059 103.969 38.2059C104.858 38.2059 105.539 38.5219 106.012 39.154C106.488 39.7861 106.725 40.687 106.725 41.8584C106.725 43.0299 106.488 43.9326 106.012 44.5666Z" fill="#0A0080"/>
</svg>
