<svg width="148" height="68" viewBox="0 0 148 68" fill="none" xmlns="http://www.w3.org/2000/svg">
<g clip-path="url(#clip0_11417_30242)">
<path d="M43.4014 16.9309C44.5175 16.6911 45.6476 16.5713 46.7916 16.5713C47.9635 16.5713 49.0935 16.6911 50.1817 16.9309L42.9828 43.179C41.7273 43.3921 40.4996 43.4986 39.2998 43.4986C38.2116 43.4986 36.9698 43.3921 35.5747 43.179L30.5522 25.5604L25.4461 43.179C24.1904 43.3921 22.9906 43.4986 21.8466 43.4986C20.7584 43.4986 19.5167 43.3921 18.1216 43.179L10.8809 16.9309C12.0249 16.6911 13.1549 16.5713 14.271 16.5713C15.415 16.5713 16.5451 16.6911 17.6612 16.9309L22.3488 35.4284L26.8691 16.9309C28.041 16.6911 29.2688 16.5713 30.5522 16.5713C31.8358 16.5713 33.0356 16.6911 34.1516 16.9309L39.5927 35.5083L43.4014 16.9309Z" fill="#2C2A29"/>
<path d="M59.9464 43.5387C57.7421 43.5387 55.8168 43.1125 54.1705 42.2602C52.5243 41.4078 51.2547 40.196 50.3618 38.6246C49.4689 37.0265 49.0225 35.1888 49.0225 33.1113C49.0225 31.0072 49.4829 29.1827 50.4036 27.6379C51.3244 26.0665 52.6079 24.8546 54.2542 24.0023C55.9284 23.15 57.8257 22.7239 59.9464 22.7239C62.1507 22.7239 64.076 23.1633 65.7222 24.0422C67.3685 24.8946 68.638 26.1064 69.5309 27.6778C70.4238 29.2493 70.8702 31.0605 70.8702 33.1113C70.8702 35.242 70.4238 37.0932 69.5309 38.6646C68.638 40.236 67.3685 41.4479 65.7222 42.3002C64.076 43.1258 62.1507 43.5387 59.9464 43.5387ZM59.9464 38.345C61.4252 38.345 62.5553 37.9054 63.3365 37.0265C64.1457 36.121 64.5503 34.8158 64.5503 33.1113C64.5503 31.4599 64.1457 30.1815 63.3365 29.2759C62.5273 28.3703 61.3973 27.9176 59.9464 27.9176C58.5233 27.9176 57.3932 28.3836 56.5562 29.3159C55.747 30.2215 55.3424 31.4866 55.3424 33.1113C55.3424 34.8158 55.747 36.121 56.5562 37.0265C57.3653 37.9054 58.4954 38.345 59.9464 38.345Z" fill="#2C2A29"/>
<path d="M96.6544 22.7638C98.9983 22.7638 100.937 23.3231 102.472 24.4418C104.007 25.5604 104.774 27.052 104.774 28.9163V43.1391H98.5382V31.0338C98.5382 29.9951 98.1894 29.2093 97.4915 28.6767C96.8218 28.1174 95.8592 27.8377 94.6035 27.8377C93.4874 27.8377 92.4132 28.0374 91.3808 28.437C91.7156 29.3159 91.883 30.2747 91.883 31.3134V43.1391H85.6468V31.0338C85.6468 29.9951 85.298 29.2093 84.6005 28.6767C83.9307 28.1174 82.9682 27.8377 81.7125 27.8377C80.7638 27.8377 79.8709 27.9442 79.0339 28.1573V43.1391H72.7139L72.7557 25.3607C73.9834 24.535 75.4902 23.8957 77.2759 23.443C79.0618 22.9902 80.8057 22.7638 82.5077 22.7638C83.7912 22.7638 84.991 22.9636 86.1071 23.3631C87.2233 23.736 88.1999 24.2687 89.0369 24.9612C90.1251 24.2953 91.3528 23.7626 92.7201 23.3631C94.0873 22.9636 95.3988 22.7638 96.6544 22.7638Z" fill="#2C2A29"/>
<path d="M116.933 22.7638C120.756 22.7638 123.742 23.7226 125.89 25.6403C128.067 27.558 129.155 30.2747 129.155 33.7904C129.155 36.6936 128.401 39.0508 126.895 40.8619C125.416 42.6463 123.169 43.5386 120.156 43.5386C119.179 43.5386 118.189 43.3922 117.185 43.0992C116.18 42.7795 115.245 42.3401 114.38 41.7807V49.1718C113.71 49.6779 112.706 50.1306 111.367 50.5302C110.055 50.9297 108.953 51.1294 108.061 51.1294V24.3219C109.121 23.8425 110.432 23.4696 111.995 23.2032C113.585 22.9103 115.231 22.7638 116.933 22.7638ZM117.478 38.5047C119.236 38.5047 120.574 38.0786 121.496 37.2263C122.416 36.374 122.877 34.989 122.877 33.0713C122.877 31.4733 122.402 30.1548 121.454 29.1161C120.533 28.0774 119.151 27.558 117.31 27.558C116.389 27.558 115.413 27.6379 114.38 27.7977V38.2251C115.357 38.4115 116.389 38.5047 117.478 38.5047Z" fill="#2C2A29"/>
<path d="M134.529 20.0871C133.636 20.0871 132.869 19.7941 132.227 19.2082C131.613 18.5956 131.306 17.8631 131.306 17.0108C131.306 16.1585 131.627 15.4394 132.269 14.8535C132.911 14.2409 133.664 13.9346 134.529 13.9346C135.422 13.9346 136.189 14.2409 136.831 14.8535C137.472 15.4394 137.793 16.1585 137.793 17.0108C137.793 17.8365 137.472 18.5556 136.831 19.1682C136.189 19.7808 135.422 20.0871 134.529 20.0871ZM131.39 23.3232C132.31 22.9503 133.371 22.7638 134.57 22.7638C135.743 22.7638 136.789 22.9503 137.71 23.3232V43.1392H131.39V23.3232Z" fill="#2C2A29"/>
<path d="M17.0879 53.6993V49.5943C17.0879 49.1819 17.3901 48.8282 17.8149 48.7536C19.9144 48.3855 26.168 47.3716 31.3594 47.3716C36.5635 47.3716 42.9875 48.3905 45.1264 48.7563C45.5535 48.8294 45.8574 49.1841 45.8574 49.5982V53.7206C45.8574 54.3165 45.2368 54.7558 44.6297 54.6174C42.6793 54.1729 38.3605 53.4261 31.3594 53.4261C24.4413 53.4261 20.2514 54.1553 18.3353 54.6014C17.7228 54.7441 17.0879 54.3011 17.0879 53.6993Z" fill="#2C2A29"/>
</g>
<defs>
<clipPath id="clip0_11417_30242">
<rect width="127" height="41.7534" fill="white" transform="translate(10.834 13.1233)"/>
</clipPath>
</defs>
</svg>
