<svg width="43" height="45" viewBox="0 0 43 45" fill="none" xmlns="http://www.w3.org/2000/svg">
<path d="M28.3066 8.46196C28.8248 8.98026 28.8248 9.82057 28.3066 10.3389L26.4296 12.2158L28.3066 14.0927C28.8248 14.611 28.8248 15.4512 28.3066 15.9696C27.7883 16.4879 26.9479 16.4879 26.4296 15.9696L24.5528 14.0927L22.6758 15.9695C22.1575 16.4879 21.3173 16.4879 20.7989 15.9695C20.2806 15.4512 20.2806 14.611 20.7989 14.0927L22.6758 12.2158L20.7989 10.3389C20.2806 9.82059 20.2806 8.98026 20.7989 8.46198C21.3173 7.94368 22.1575 7.94368 22.6758 8.46198L24.5528 10.3389L26.4296 8.46196C26.9479 7.94367 27.7883 7.94367 28.3066 8.46196Z" fill="url(#paint0_linear_4_2750)"/>
<path fill-rule="evenodd" clip-rule="evenodd" d="M0 2.26077C-1.3479e-06 1.52779 0.594192 0.933596 1.32716 0.933596L3.31793 0.933594C3.88189 0.933592 4.38427 1.29002 4.57059 1.82232L7.74336 10.8874H14.0175C14.6705 5.64995 19.1383 1.59719 24.5527 1.59719C29.967 1.59719 34.4347 5.64995 35.0879 10.8874H38.2869C40.9322 10.8874 42.8419 13.4192 42.1152 15.9628L38.3233 29.2344C37.835 30.9437 36.2727 32.1221 34.495 32.1221H14.5011L14.913 33.4493H35.17C35.903 33.4493 36.4972 34.0434 36.4972 34.7764C36.4972 35.5094 35.903 36.1036 35.17 36.1036H13.9352C13.3539 36.1036 12.8401 35.7251 12.6678 35.1697L11.5646 31.6149C11.4604 31.4825 11.3804 31.3289 11.332 31.1595L10.2747 27.4586L6.70252 15.9485L2.37632 3.58793H1.32718C0.594196 3.58793 1.34791e-06 2.99373 0 2.26077ZM35.0879 13.5417C34.7376 16.3503 33.2904 18.8183 31.1886 20.5032V24.1591C31.1886 24.8921 30.5943 25.4862 29.8613 25.4862C29.1284 25.4862 28.5341 24.8921 28.5341 24.1591V22.0601C27.6971 22.399 26.8071 22.6341 25.8798 22.7497V24.1591C25.8798 24.8921 25.2857 25.4862 24.5527 25.4862C23.8197 25.4862 23.2255 24.8921 23.2255 24.1591V22.7497C22.2983 22.6341 21.4082 22.399 20.5711 22.0601V24.1591C20.5711 24.8921 19.977 25.4862 19.244 25.4862C18.511 25.4862 17.9168 24.8921 17.9168 24.1591V20.5032C15.8149 18.8183 14.3676 16.3503 14.0175 13.5417H9.05894L12.8186 26.7007L13.6774 29.4677H34.495C35.0875 29.4677 35.6084 29.0749 35.7712 28.5052L39.563 15.2335C39.8053 14.3857 39.1687 13.5417 38.2869 13.5417H35.0879ZM16.5897 12.2145C16.5897 7.81669 20.1547 4.25153 24.5527 4.25153C28.9505 4.25153 32.5157 7.81669 32.5157 12.2145C32.5157 16.6124 28.9505 20.1775 24.5527 20.1775C20.1547 20.1775 16.5897 16.6124 16.5897 12.2145Z" fill="url(#paint1_linear_4_2750)"/>
<path fill-rule="evenodd" clip-rule="evenodd" d="M17.917 44.0661C15.718 44.0661 13.9355 42.2834 13.9355 40.0846C13.9355 37.8856 15.718 36.103 17.917 36.103C20.116 36.103 21.8984 37.8856 21.8984 40.0846C21.8984 42.2834 20.116 44.0661 17.917 44.0661ZM16.5898 40.0846C16.5898 40.8175 17.184 41.4118 17.917 41.4118C18.65 41.4118 19.2441 40.8175 19.2441 40.0846C19.2441 39.3516 18.65 38.7573 17.917 38.7573C17.184 38.7573 16.5898 39.3516 16.5898 40.0846Z" fill="url(#paint2_linear_4_2750)"/>
<path fill-rule="evenodd" clip-rule="evenodd" d="M27.207 40.0846C27.207 42.2834 28.9896 44.0661 31.1885 44.0661C33.3874 44.0661 35.1701 42.2834 35.1701 40.0846C35.1701 37.8856 33.3874 36.103 31.1885 36.103C28.9896 36.103 27.207 37.8856 27.207 40.0846ZM31.1885 41.4118C30.4556 41.4118 29.8613 40.8175 29.8613 40.0846C29.8613 39.3516 30.4556 38.7573 31.1885 38.7573C31.9215 38.7573 32.5158 39.3516 32.5158 40.0846C32.5158 40.8175 31.9215 41.4118 31.1885 41.4118Z" fill="url(#paint3_linear_4_2750)"/>
<defs>
<linearGradient id="paint0_linear_4_2750" x1="24.5527" y1="8.07324" x2="24.5527" y2="16.3583" gradientUnits="userSpaceOnUse">
<stop stop-color="#81319B"/>
<stop offset="0.49" stop-color="#0B2C4C"/>
<stop offset="1" stop-color="#00A99D"/>
</linearGradient>
<linearGradient id="paint1_linear_4_2750" x1="21.1354" y1="0.933594" x2="21.1354" y2="36.1036" gradientUnits="userSpaceOnUse">
<stop stop-color="#81319B"/>
<stop offset="0.49" stop-color="#0B2C4C"/>
<stop offset="1" stop-color="#00A99D"/>
</linearGradient>
<linearGradient id="paint2_linear_4_2750" x1="17.917" y1="36.103" x2="17.917" y2="44.0661" gradientUnits="userSpaceOnUse">
<stop stop-color="#81319B"/>
<stop offset="0.49" stop-color="#0B2C4C"/>
<stop offset="1" stop-color="#00A99D"/>
</linearGradient>
<linearGradient id="paint3_linear_4_2750" x1="31.1885" y1="36.103" x2="31.1885" y2="44.0661" gradientUnits="userSpaceOnUse">
<stop stop-color="#81319B"/>
<stop offset="0.49" stop-color="#0B2C4C"/>
<stop offset="1" stop-color="#00A99D"/>
</linearGradient>
</defs>
</svg>
