<svg width="19" height="20" viewBox="0 0 19 20" fill="none" xmlns="http://www.w3.org/2000/svg">
<circle cx="9.71875" cy="10" r="9.28125" fill="#00A99D" fill-opacity="0.7"/>
<g clip-path="url(#clip0_36_5679)">
<path d="M16.0996 9.71045C16.0996 10.1307 15.759 10.4714 15.3378 10.4714H10.7697V15.0399C10.7697 15.4601 10.429 15.8008 10.0088 15.8008C9.58856 15.8008 9.24695 15.4601 9.24695 15.0399V10.4714H4.67884C4.25861 10.4714 3.91797 10.1307 3.91797 9.71045C3.91797 9.29019 4.25861 8.94855 4.67884 8.94855H9.24695V4.38007C9.24695 4.16169 9.33915 3.96466 9.48666 3.82684C9.6235 3.69776 9.80693 3.61914 10.0088 3.61914C10.168 3.61914 10.3155 3.66864 10.4377 3.75211C10.6386 3.88896 10.7697 4.11898 10.7697 4.38007V8.94855H15.3378C15.759 8.94855 16.0996 9.28922 16.0996 9.71045Z" fill="white"/>
</g>
<defs>
<clipPath id="clip0_36_5679">
<rect width="12.1816" height="12.1816" fill="white" transform="translate(3.91797 3.61914)"/>
</clipPath>
</defs>
</svg>
