<svg width="20" height="20" viewBox="0 0 20 20" fill="none" xmlns="http://www.w3.org/2000/svg">
<path d="M20 10.0008C20 10.6908 19.4407 11.2501 18.7492 11.2501H11.2492V18.7507C11.2492 19.4407 10.6899 20 10 20C9.31007 20 8.7492 19.4407 8.7492 18.7507V11.2501H1.2492C0.559273 11.2501 0 10.6908 0 10.0008C0 9.31081 0.559273 8.7499 1.2492 8.7499H8.7492V1.2493C8.7492 0.890766 8.90057 0.567285 9.14277 0.341009C9.36743 0.129073 9.66858 0 10 0C10.2613 0 10.5035 0.0812684 10.7043 0.218309C11.0341 0.442993 11.2492 0.820652 11.2492 1.2493V8.7499H18.7492C19.4407 8.7499 20 9.30922 20 10.0008Z" fill="white"/>
</svg>
