<svg width="28" height="21" viewBox="0 0 28 21" fill="none" xmlns="http://www.w3.org/2000/svg">
<g filter="url(#filter0_d_61259_399203)">
<rect x="4" width="20" height="13" rx="2" fill="#F4F4F4" shape-rendering="crispEdges"/>
<path d="M13.392 6.57H11.822C11.782 6.37 11.762 6.17 11.762 5.97C11.762 5.76333 11.782 5.56 11.822 5.36H13.392V3.59C13.592 3.55 13.792 3.53 13.992 3.53C14.1986 3.53 14.402 3.55 14.602 3.59V5.36H16.172C16.212 5.56 16.232 5.76 16.232 5.96C16.232 6.16667 16.212 6.37 16.172 6.57H14.602V8.34C14.402 8.38 14.202 8.4 14.002 8.4C13.7953 8.4 13.592 8.38 13.392 8.34V6.57Z" fill="#0B2C4C"/>
</g>
<defs>
<filter id="filter0_d_61259_399203" x="0" y="0" width="28" height="21" filterUnits="userSpaceOnUse" color-interpolation-filters="sRGB">
<feFlood flood-opacity="0" result="BackgroundImageFix"/>
<feColorMatrix in="SourceAlpha" type="matrix" values="0 0 0 0 0 0 0 0 0 0 0 0 0 0 0 0 0 0 127 0" result="hardAlpha"/>
<feOffset dy="4"/>
<feGaussianBlur stdDeviation="2"/>
<feComposite in2="hardAlpha" operator="out"/>
<feColorMatrix type="matrix" values="0 0 0 0 0 0 0 0 0 0 0 0 0 0 0 0 0 0 0.25 0"/>
<feBlend mode="normal" in2="BackgroundImageFix" result="effect1_dropShadow_61259_399203"/>
<feBlend mode="normal" in="SourceGraphic" in2="effect1_dropShadow_61259_399203" result="shape"/>
</filter>
</defs>
</svg>
