<svg width="206" height="207" viewBox="0 0 206 207" fill="none" xmlns="http://www.w3.org/2000/svg">
<g clip-path="url(#clip0_954_47918)">
<path d="M182.448 152.828H158.776V129.057C158.776 127.214 157.292 125.724 155.451 125.724C153.611 125.724 152.132 127.214 152.132 129.057V152.828H128.455C126.62 152.828 125.136 154.318 125.136 156.166C125.136 158.014 126.62 159.499 128.455 159.499H152.132V183.27C152.132 185.113 153.616 186.603 155.451 186.603C157.287 186.603 158.776 185.113 158.776 183.27V159.499H182.448C184.283 159.499 185.772 158.009 185.772 156.166C185.772 154.323 184.283 152.828 182.448 152.828ZM182.448 152.828H158.776V129.057C158.776 127.214 157.292 125.724 155.451 125.724C153.611 125.724 152.132 127.214 152.132 129.057V152.828H128.455C126.62 152.828 125.136 154.318 125.136 156.166C125.136 158.014 126.62 159.499 128.455 159.499H152.132V183.27C152.132 185.113 153.616 186.603 155.451 186.603C157.287 186.603 158.776 185.113 158.776 183.27V159.499H182.448C184.283 159.499 185.772 158.009 185.772 156.166C185.772 154.323 184.283 152.828 182.448 152.828ZM179.438 111.5V53.4189C179.438 52.2248 178.807 51.1243 177.778 50.5273L91.3815 0.446289C90.3525 -0.150716 89.0857 -0.150716 88.0567 0.446289L1.65979 50.5273C0.630823 51.1243 0 52.2248 0 53.4189V153.581C0 154.775 0.630823 155.875 1.65979 156.472L88.0567 206.553C88.5738 206.849 89.1478 207 89.7165 207C90.2853 207 90.8644 206.849 91.3763 206.553L118.548 190.803C127.783 200.708 140.901 206.917 155.446 206.917C183.321 206.917 205.995 184.153 205.995 156.171C205.995 136.891 195.235 120.097 179.433 111.505L179.438 111.5ZM140.477 36.6093L59.0647 83.7987C58.0358 84.3957 57.4049 85.4962 57.4049 86.6902V104.756L35.4967 92.0529V72.061L118.569 23.906L140.477 36.6093ZM89.7165 199.81L6.64433 151.655V55.3448L89.7165 7.18467L111.919 20.054L30.5122 67.2486C29.4832 67.8456 28.8524 68.9462 28.8524 70.1402V93.9841C28.8524 95.1781 29.4832 96.2787 30.5122 96.8757L59.0647 113.426C59.5818 113.722 60.1557 113.872 60.7245 113.872C61.2933 113.872 61.8724 113.722 62.3843 113.426C63.4133 112.829 64.0441 111.728 64.0441 110.534V88.6162L147.121 40.4612L172.794 55.3448V108.484C167.385 106.495 161.542 105.405 155.451 105.405C127.581 105.405 104.903 128.174 104.903 156.161C104.903 167.115 108.393 177.264 114.293 185.565L89.7217 199.81H89.7165ZM155.451 200.241C131.242 200.241 111.547 180.462 111.547 156.161C111.547 131.86 131.242 112.076 155.451 112.076C179.661 112.076 199.361 131.85 199.361 156.161C199.361 180.472 179.666 200.241 155.451 200.241ZM182.448 152.828H158.776V129.057C158.776 127.214 157.292 125.724 155.451 125.724C153.611 125.724 152.132 127.214 152.132 129.057V152.828H128.455C126.62 152.828 125.136 154.318 125.136 156.166C125.136 158.014 126.62 159.499 128.455 159.499H152.132V183.27C152.132 185.113 153.616 186.603 155.451 186.603C157.287 186.603 158.776 185.113 158.776 183.27V159.499H182.448C184.283 159.499 185.772 158.009 185.772 156.166C185.772 154.323 184.283 152.828 182.448 152.828Z" fill="url(#paint0_linear_954_47918)"/>
</g>
<defs>
<linearGradient id="paint0_linear_954_47918" x1="77.5" y1="217" x2="78.2981" y2="-13.9973" gradientUnits="userSpaceOnUse">
<stop stop-color="#0B2C4C"/>
<stop offset="0.49" stop-color="#00A99D"/>
<stop offset="0.96" stop-color="#81319B"/>
</linearGradient>
<clipPath id="clip0_954_47918">
<rect width="206" height="207" fill="white"/>
</clipPath>
</defs>
</svg>
