<svg width="193" height="207" viewBox="0 0 193 207" fill="none" xmlns="http://www.w3.org/2000/svg">
<g clip-path="url(#clip0_954_47924)">
<path d="M117.16 158.704C117.16 156.798 118.702 155.254 120.606 155.254H141.281V134.555C141.281 132.649 142.824 131.105 144.727 131.105C146.631 131.105 148.173 132.649 148.173 134.555V155.254H168.849C170.752 155.254 172.295 156.798 172.295 158.704C172.295 160.61 170.752 162.153 168.849 162.153H148.173V182.852C148.173 184.758 146.631 186.302 144.727 186.302C142.824 186.302 141.281 184.758 141.281 182.852V162.153H120.606C118.702 162.153 117.16 160.61 117.16 158.704ZM0 169.053C0 142.843 8.1883 119.005 23.053 101.933C33.3261 90.1349 46.2482 82.0667 60.5314 78.315C40.1705 67.9614 32.0468 43.0453 42.3888 22.6571C52.7307 2.27748 77.6187 -5.85538 97.9796 4.49828C118.34 14.8519 126.464 39.768 116.122 60.1562C112.155 67.9786 105.806 74.3349 97.9925 78.3107C115.605 82.9334 131.03 94.0978 141.975 110.489C142.884 110.437 143.801 110.407 144.723 110.407C171.368 110.389 192.978 131.998 192.996 158.673C193.013 185.349 171.429 206.983 144.783 207.001C130.685 207.009 117.294 200.847 108.119 190.131C98.6257 192.132 88.9513 193.163 79.2512 193.201C40.907 193.201 3.37266 172.943 1.79186 172.08C0.689178 171.481 0 170.316 0 169.053ZM103.377 158.704C103.377 181.567 121.89 200.101 144.727 200.101C167.565 200.101 186.078 181.567 186.078 158.704C186.078 135.84 167.565 117.306 144.727 117.306C121.903 117.332 103.403 135.853 103.377 158.704ZM79.2555 75.9088C98.2854 75.9088 113.714 60.4624 113.714 41.411C113.714 22.3595 98.2854 6.91313 79.2555 6.91313C60.2255 6.91313 44.7966 22.3595 44.7966 41.411C44.8181 60.4538 60.2342 75.8873 79.2555 75.9088ZM6.90901 166.966C14.8173 170.959 47.2991 186.302 79.2555 186.302C87.4352 186.272 95.5976 185.496 103.635 183.978C89.6793 161.269 96.7563 131.537 119.439 117.565C124.026 114.74 129.053 112.705 134.312 111.541C120.908 93.2138 101.098 82.8041 79.2555 82.8041C59.6484 82.8041 41.5316 91.2086 28.2477 106.461C14.869 121.83 7.32682 143.244 6.90901 166.957V166.966Z" fill="url(#paint0_linear_954_47924)"/>
</g>
<defs>
<linearGradient id="paint0_linear_954_47924" x1="96.5022" y1="207.005" x2="96.5022" y2="0.000625831" gradientUnits="userSpaceOnUse">
<stop stop-color="#0B2C4C"/>
<stop offset="0.5" stop-color="#00A99D"/>
<stop offset="1" stop-color="#81319B"/>
</linearGradient>
<clipPath id="clip0_954_47924">
<rect width="193" height="207" fill="white"/>
</clipPath>
</defs>
</svg>
