<svg width="50" height="50" viewBox="0 0 50 50" fill="none" xmlns="http://www.w3.org/2000/svg">
<path d="M49.7101 19.9891L25.4487 0.151199C25.3285 0.0529679 25.1845 0.000103866 25.0368 1.52897e-07C24.8891 -0.00010356 24.745 0.0525581 24.6248 0.150621L0.297279 19.9885C0.174931 20.0882 0.0834727 20.2297 0.0361158 20.3927C-0.011241 20.5557 -0.0120451 20.7316 0.0338198 20.8951C0.0796847 21.0587 0.169844 21.2013 0.291275 21.3024C0.412706 21.4035 0.559123 21.4579 0.709375 21.4578C0.85944 21.4579 1.00592 21.4054 1.12906 21.3074L5.06153 18.1074V49.1947C5.05962 49.2997 5.07608 49.4041 5.10995 49.5018C5.14382 49.5995 5.19441 49.6884 5.25877 49.7634C5.32312 49.8384 5.39994 49.898 5.4847 49.9386C5.56947 49.9792 5.66049 50.0001 5.75241 50H44.2541C44.3461 50.0001 44.4371 49.9792 44.5219 49.9386C44.6066 49.898 44.6834 49.8384 44.7478 49.7634C44.8121 49.6884 44.8627 49.5995 44.8966 49.5018C44.9305 49.4041 44.9469 49.2997 44.945 49.1947V18.099L48.8767 21.3064C49.0296 21.4307 49.2193 21.4808 49.4045 21.446C49.5896 21.4111 49.7552 21.294 49.8651 21.1202C49.9751 20.9464 50.0205 20.73 49.9914 20.5182C49.9624 20.3063 49.8613 20.1161 49.7101 19.9891ZM19.8407 48.3804H13.1597V41.4391H14.2732V44.1231C14.2719 44.2692 14.3055 44.4129 14.3705 44.5388C14.4354 44.6647 14.5293 44.7679 14.6418 44.8372C14.7544 44.9066 14.8813 44.9395 15.0091 44.9324C15.1368 44.9252 15.2604 44.8784 15.3665 44.7968L16.4901 43.9395L17.6148 44.7968C17.7311 44.8856 17.8678 44.933 18.0076 44.9329C18.126 44.933 18.2426 44.9001 18.3474 44.8371C18.4611 44.7682 18.5565 44.6655 18.6233 44.5399C18.6902 44.4142 18.7261 44.2702 18.7272 44.1231V41.4391H19.8407V48.3804ZM15.6904 42.6095V41.4391H17.31V42.6095L16.8875 42.2921C16.7716 42.2034 16.6353 42.156 16.4959 42.156C16.3565 42.156 16.2202 42.2034 16.1043 42.2921L15.6904 42.6095ZM15.1842 39.8195V32.8782H16.2977V35.5622C16.2964 35.7083 16.3301 35.8521 16.395 35.9779C16.46 36.1038 16.5538 36.207 16.6664 36.2763C16.7789 36.3457 16.9059 36.3786 17.0336 36.3715C17.1613 36.3643 17.2849 36.3175 17.391 36.2359L18.5146 35.3786L19.6394 36.2359C19.7556 36.3247 19.8923 36.3721 20.0321 36.372C20.1505 36.3721 20.2672 36.3392 20.3719 36.2762C20.4857 36.2074 20.581 36.1047 20.6479 35.979C20.7147 35.8533 20.7506 35.7093 20.7517 35.5622V32.8782H21.8652V39.8195H15.1842ZM17.7149 34.0486V32.8782H19.3346V34.0486L18.912 33.7312C18.7962 33.6425 18.6599 33.5951 18.5204 33.5951C18.381 33.5951 18.2447 33.6425 18.1288 33.7312L17.7149 34.0486ZM27.9389 48.3804H21.2579V41.4391H22.3714V44.1231C22.37 44.2692 22.4037 44.4129 22.4687 44.5388C22.5336 44.6647 22.6274 44.7679 22.74 44.8372C22.8525 44.9066 22.9795 44.9395 23.1072 44.9324C23.2349 44.9252 23.3585 44.8784 23.4646 44.7968L24.5882 43.9395L25.713 44.7968C25.8292 44.8856 25.9659 44.933 26.1057 44.9329C26.2241 44.933 26.3408 44.9001 26.4456 44.8371C26.5593 44.7682 26.6547 44.6655 26.7215 44.5399C26.7884 44.4142 26.8243 44.2702 26.8254 44.1231V41.4391H27.9389V48.3804ZM23.7886 42.6095V41.4391H25.4082V42.6095L24.9857 42.2921C24.8698 42.2034 24.7335 42.156 24.5941 42.156C24.4546 42.156 24.3183 42.2034 24.2025 42.2921L23.7886 42.6095ZM23.2824 39.8195V32.8782H24.3959V35.5622C24.3946 35.7083 24.4282 35.8521 24.4932 35.9779C24.5582 36.1038 24.652 36.207 24.7645 36.2763C24.8771 36.3457 25.0041 36.3786 25.1318 36.3715C25.2595 36.3643 25.3831 36.3175 25.4892 36.2359L26.6128 35.3786L27.7375 36.2359C27.8538 36.3247 27.9905 36.3721 28.1303 36.372C28.2487 36.3721 28.3653 36.3392 28.4701 36.2762C28.5838 36.2074 28.6792 36.1047 28.7461 35.979C28.8129 35.8533 28.8488 35.7093 28.8499 35.5622V32.8782H29.9634V39.8195H23.2824ZM25.8131 34.0486V32.8782H27.4327V34.0486L27.0102 33.7312C26.8944 33.6425 26.7581 33.5951 26.6186 33.5951C26.4792 33.5951 26.3429 33.6425 26.227 33.7312L25.8131 34.0486ZM36.037 48.3804H29.356V41.4391H30.4695V44.1231C30.4682 44.2692 30.5019 44.4129 30.5668 44.5388C30.6318 44.6647 30.7256 44.7679 30.8382 44.8372C30.9507 44.9066 31.0777 44.9395 31.2054 44.9324C31.3331 44.9252 31.4567 44.8784 31.5628 44.7968L32.6864 43.9395L33.8111 44.7968C33.9274 44.8856 34.0641 44.933 34.2039 44.9329C34.3223 44.933 34.4389 44.9001 34.5437 44.8371C34.6575 44.7682 34.7528 44.6655 34.8197 44.5399C34.8865 44.4142 34.9224 44.2702 34.9235 44.1231V41.4391H36.037V48.3804ZM31.8867 42.6095V41.4391H33.5064V42.6095L33.0838 42.2921C32.968 42.2034 32.8317 42.156 32.6922 42.156C32.5528 42.156 32.4165 42.2034 32.3006 42.2921L31.8867 42.6095ZM39.7824 48.3804H37.4542V40.6524C37.4525 40.4339 37.3763 40.2247 37.2419 40.0692C37.1075 39.9137 36.9254 39.8241 36.7342 39.8195H31.3806V32.0915C31.3788 31.873 31.3027 31.6638 31.1683 31.5083C31.0339 31.3528 30.8518 31.2632 30.6606 31.2586H14.4642C14.2754 31.2643 14.0962 31.3551 13.9656 31.5111C13.8351 31.6671 13.7637 31.8757 13.7671 32.0915V39.8195H12.4397C12.2508 39.8252 12.0716 39.916 11.9411 40.072C11.8105 40.228 11.7391 40.4366 11.7425 40.6524V48.3804H10.2241V26.6311H39.7824V48.3804ZM39.7824 25.0114H10.2241V23.8546H39.7824V25.0114ZM39.7824 22.2349H10.2241V20.9624H39.7824V22.2349ZM39.7824 19.3428H10.2241V18.1859H39.7824V19.3428ZM43.5278 48.3804H41.1996V17.3596C41.2023 17.2558 41.1867 17.1524 41.1535 17.0557C41.1204 16.9589 41.0704 16.8709 41.0067 16.7967C40.9431 16.7226 40.8669 16.664 40.7829 16.6244C40.6988 16.5848 40.6087 16.565 40.5178 16.5662H9.4888C9.39791 16.565 9.30773 16.5848 9.2237 16.6244C9.13966 16.664 9.06351 16.7226 8.99981 16.7967C8.93611 16.8709 8.88619 16.9589 8.85304 17.0557C8.8199 17.1524 8.80421 17.2558 8.80694 17.3596V48.3804H6.47871V16.9518L25.0352 1.80519L43.5278 16.9401V48.3804Z" fill="url(#paint0_linear_16797_10171)"/>
<defs>
<linearGradient id="paint0_linear_16797_10171" x1="25.0019" y1="52.5451" x2="25.0019" y2="-2.33042" gradientUnits="userSpaceOnUse">
<stop stop-color="#0B2C4C"/>
<stop offset="0.5" stop-color="#00A99D"/>
<stop offset="1" stop-color="#81319B"/>
</linearGradient>
</defs>
</svg>
