<svg width="28" height="28" viewBox="0 0 28 28" fill="none" xmlns="http://www.w3.org/2000/svg">
<path fill-rule="evenodd" clip-rule="evenodd" d="M14.0002 24.18C16.7006 24.18 19.2903 23.1073 21.1998 21.1979C23.1093 19.2884 24.182 16.6986 24.182 13.9982C24.182 11.2978 23.1093 8.70805 21.1998 6.79859C19.2903 4.88913 16.7006 3.81641 14.0002 3.81641C11.2998 3.81641 8.71001 4.88913 6.80054 6.79859C4.89108 8.70805 3.81836 11.2978 3.81836 13.9982C3.81836 16.6986 4.89108 19.2884 6.80054 21.1979C8.71001 23.1073 11.2998 24.18 14.0002 24.18ZM15.2729 10.18C15.2729 9.84249 15.1388 9.51877 14.9001 9.28009C14.6614 9.04141 14.3377 8.90732 14.0002 8.90732C13.6626 8.90732 13.3389 9.04141 13.1002 9.28009C12.8615 9.51877 12.7275 9.84249 12.7275 10.18V12.7255H10.182C9.84445 12.7255 9.52072 12.8596 9.28204 13.0983C9.04336 13.337 8.90927 13.6607 8.90927 13.9982C8.90927 14.3358 9.04336 14.6595 9.28204 14.8982C9.52072 15.1369 9.84445 15.271 10.182 15.271H12.7275V17.8164C12.7275 18.154 12.8615 18.4777 13.1002 18.7164C13.3389 18.955 13.6626 19.0891 14.0002 19.0891C14.3377 19.0891 14.6614 18.955 14.9001 18.7164C15.1388 18.4777 15.2729 18.154 15.2729 17.8164V15.271H17.8184C18.1559 15.271 18.4796 15.1369 18.7183 14.8982C18.957 14.6595 19.0911 14.3358 19.0911 13.9982C19.0911 13.6607 18.957 13.337 18.7183 13.0983C18.4796 12.8596 18.1559 12.7255 17.8184 12.7255H15.2729V10.18Z" fill="white"/>
</svg>
