<svg width="18" height="18" viewBox="0 0 18 18" fill="none" xmlns="http://www.w3.org/2000/svg">
<path d="M9.94453 2.54111C9.74696 2.20232 9.3936 2 8.99987 2C8.60613 2 8.25346 2.20229 8.05592 2.54111L1.14913 14.3641C0.952281 14.7022 0.950194 15.1075 1.14356 15.4477C1.33972 15.7935 1.69589 16 2.09448 16H15.9053C16.3039 16 16.6601 15.7935 16.8562 15.4477C17.0503 15.1075 17.0476 14.7022 16.85 14.3634L9.94453 2.54111ZM16.2531 15.0998C16.1815 15.2251 16.0521 15.3 15.9053 15.3H2.09448C1.9484 15.3 1.81833 15.2251 1.74666 15.0998C1.71395 15.0417 1.64858 14.8898 1.74874 14.7183L8.65485 2.89532C8.75779 2.71892 8.93032 2.70002 8.99987 2.70002C9.06942 2.70002 9.24194 2.71892 9.3456 2.89601L16.2503 14.7183C16.3505 14.8905 16.2858 15.0424 16.2531 15.0998Z" fill="url(#paint0_linear_497_9007)"/>
<path d="M9.00016 5.5C8.80817 5.5 8.65234 5.65681 8.65234 5.85001V11.45C8.65234 11.6432 8.80817 11.8 9.00016 11.8C9.19216 11.8 9.34799 11.6432 9.34799 11.45V5.85001C9.34795 5.65681 9.19216 5.5 9.00016 5.5Z" fill="url(#paint1_linear_497_9007)"/>
<path d="M9.00016 12.5C8.80817 12.5 8.65234 12.6568 8.65234 12.85V13.55C8.65234 13.7432 8.80817 13.9 9.00016 13.9C9.19216 13.9 9.34799 13.7432 9.34799 13.55V12.85C9.34795 12.6568 9.19216 12.5 9.00016 12.5Z" fill="url(#paint2_linear_497_9007)"/>
<defs>
<linearGradient id="paint0_linear_497_9007" x1="10.1755" y1="2.00109" x2="10.1755" y2="15.9989" gradientUnits="userSpaceOnUse">
<stop stop-color="#81319B"/>
<stop offset="0.49" stop-color="#00A99D"/>
<stop offset="1" stop-color="#0B2C4C"/>
</linearGradient>
<linearGradient id="paint1_linear_497_9007" x1="10.6373" y1="2.09971" x2="10.3684" y2="16.0317" gradientUnits="userSpaceOnUse">
<stop stop-color="#81319B"/>
<stop offset="0.48" stop-color="#00A99D"/>
<stop offset="1" stop-color="#0B2C4C"/>
</linearGradient>
<linearGradient id="paint2_linear_497_9007" x1="9.41833" y1="2.03396" x2="9.41833" y2="15.9989" gradientUnits="userSpaceOnUse">
<stop stop-color="#81319B"/>
<stop offset="0.5" stop-color="#00A99D"/>
<stop offset="1" stop-color="#0B2C4C"/>
</linearGradient>
</defs>
</svg>
