<svg width="22" height="22" viewBox="0 0 22 22" fill="none" xmlns="http://www.w3.org/2000/svg">
<path fill-rule="evenodd" clip-rule="evenodd" d="M8.30529 15.7189C8.11782 15.5314 8.0125 15.2771 8.0125 15.0119C8.0125 14.7468 8.11782 14.4925 8.30529 14.3049L11.5983 11.0119L8.30529 7.71893C8.20978 7.62669 8.1336 7.51634 8.08119 7.39434C8.02878 7.27233 8.00119 7.14111 8.00004 7.00833C7.99888 6.87555 8.02419 6.74387 8.07447 6.62098C8.12475 6.49808 8.199 6.38643 8.29289 6.29254C8.38679 6.19864 8.49844 6.12439 8.62133 6.07411C8.74423 6.02383 8.87591 5.99853 9.00869 5.99968C9.14147 6.00084 9.27269 6.02842 9.39469 6.08083C9.5167 6.13324 9.62704 6.20942 9.71929 6.30493L13.7193 10.3049C13.9068 10.4925 14.0121 10.7468 14.0121 11.0119C14.0121 11.2771 13.9068 11.5314 13.7193 11.7189L9.71929 15.7189C9.53176 15.9064 9.27745 16.0117 9.01229 16.0117C8.74712 16.0117 8.49282 15.9064 8.30529 15.7189Z" fill="#4B4B4B"/>
</svg>
