<svg width="24" height="24" viewBox="0 0 24 24" fill="none" xmlns="http://www.w3.org/2000/svg">
<g clip-path="url(#clip0_6884_50456)">
<path d="M2.93035 19.8556C4.48451 21.6493 6.53568 22.9419 8.82446 23.5699C11.1133 24.1979 13.5369 24.1331 15.7888 23.3836C18.0408 22.6342 20.0199 21.2338 21.476 19.3596C22.932 17.4854 23.7996 15.2214 23.969 12.8541C24.1384 10.4868 23.602 8.1224 22.4277 6.05992C21.2533 3.99745 19.4937 2.32954 17.3714 1.26709C15.2491 0.204649 12.8595 -0.204602 10.5046 0.0910912C8.1497 0.386785 5.93538 1.37414 4.14164 2.92831C1.73937 5.01428 0.262689 7.96803 0.0356025 11.1415C-0.191485 14.3149 0.849571 17.4488 2.93035 19.8556ZM10.1784 6.02439L15.2368 6.38637C15.6298 6.41446 16.0135 6.51969 16.3658 6.69605C16.7181 6.87242 17.0323 7.11646 17.2903 7.41424C17.5483 7.71202 17.7451 8.05771 17.8695 8.43156C17.9939 8.80542 18.0434 9.20012 18.0153 9.59312L17.6527 14.6508L17.6495 14.6853C17.6412 14.8186 17.6063 14.9489 17.5468 15.0685C17.4873 15.1881 17.4045 15.2945 17.3032 15.3816C17.2019 15.4687 17.0842 15.5345 16.957 15.5754C16.8298 15.6162 16.6958 15.6311 16.5628 15.6193C16.4297 15.6074 16.3004 15.5691 16.1824 15.5064C16.0645 15.4438 15.9602 15.3581 15.8759 15.2546C15.7916 15.151 15.7289 15.0316 15.6915 14.9034C15.654 14.7752 15.6427 14.6407 15.6581 14.5081L15.9905 9.86294L8.12441 16.6877C7.92396 16.8613 7.66274 16.9483 7.3982 16.9293C7.13366 16.9104 6.88747 16.7872 6.7138 16.5867C6.54013 16.3863 6.4532 16.125 6.47213 15.8605C6.49106 15.596 6.6143 15.3498 6.81474 15.1761L14.68 8.35204L10.0357 8.01899C9.90307 8.01182 9.77324 7.97831 9.65374 7.92042C9.53423 7.86253 9.42746 7.78142 9.33964 7.68183C9.25182 7.58223 9.18471 7.46614 9.14224 7.34033C9.09976 7.21453 9.08277 7.08152 9.09224 6.94907C9.10172 6.81663 9.13748 6.6874 9.19744 6.56892C9.25739 6.45044 9.34035 6.34509 9.44145 6.25901C9.54256 6.17294 9.6598 6.10786 9.78632 6.06758C9.91285 6.0273 10.0461 6.01261 10.1784 6.02439Z" fill="#00A99D"/>
</g>
<defs>
<clipPath id="clip0_6884_50456">
<rect width="24" height="24" fill="white" transform="translate(24) rotate(90)"/>
</clipPath>
</defs>
</svg>
