<svg width="22" height="22" viewBox="0 0 22 22" fill="none" xmlns="http://www.w3.org/2000/svg">
<path fill-rule="evenodd" clip-rule="evenodd" d="M8.30492 15.7189C8.11745 15.5314 8.01214 15.2771 8.01214 15.0119C8.01214 14.7468 8.11745 14.4925 8.30492 14.3049L11.5979 11.0119L8.30492 7.71893C8.20941 7.62669 8.13323 7.51634 8.08082 7.39434C8.02841 7.27233 8.00082 7.14111 7.99967 7.00833C7.99852 6.87555 8.02382 6.74387 8.0741 6.62098C8.12438 6.49808 8.19863 6.38643 8.29253 6.29254C8.38642 6.19864 8.49807 6.12439 8.62097 6.07411C8.74386 6.02383 8.87554 5.99853 9.00832 5.99968C9.1411 6.00084 9.27232 6.02842 9.39433 6.08083C9.51633 6.13324 9.62667 6.20942 9.71892 6.30493L13.7189 10.3049C13.9064 10.4925 14.0117 10.7468 14.0117 11.0119C14.0117 11.2771 13.9064 11.5314 13.7189 11.7189L9.71892 15.7189C9.53139 15.9064 9.27709 16.0117 9.01192 16.0117C8.74676 16.0117 8.49245 15.9064 8.30492 15.7189Z" fill="#00A99D"/>
</svg>
