<svg xmlns="http://www.w3.org/2000/svg" width="18" height="8" viewBox="0 0 18 8" fill="none">
  <path d="M8.76698 0.888889C11.0972 0.888889 13.2076 1.76889 14.8344 3.2L17.6578 0.3459C17.7835 0.218858 18 0.307854 18 0.486556V7.8C18 7.91046 17.9105 8 17.8 8H10.5652C10.3875 8 10.298 7.78565 10.423 7.65935L13.2692 4.78222C12.0469 3.75111 10.4905 3.11111 8.76698 3.11111C5.82991 3.11111 3.30774 4.93909 2.2567 7.52735C2.15233 7.78435 1.86976 7.92872 1.60655 7.84115L0.472507 7.46387C0.211239 7.37694 0.0682087 7.09438 0.167763 6.83766C1.51707 3.35822 4.85179 0.888889 8.76698 0.888889Z" fill="#0B2C4C"/>
</svg>