<svg width="22" height="22" viewBox="0 0 22 22" fill="none" xmlns="http://www.w3.org/2000/svg">
<path fill-rule="evenodd" clip-rule="evenodd" d="M13.7064 6.29279C13.8939 6.48031 13.9992 6.73462 13.9992 6.99979C13.9992 7.26495 13.8939 7.51926 13.7064 7.70679L10.4134 10.9998L13.7064 14.2928C13.8019 14.385 13.8781 14.4954 13.9305 14.6174C13.9829 14.7394 14.0105 14.8706 14.0117 15.0034C14.0128 15.1362 13.9875 15.2678 13.9373 15.3907C13.887 15.5136 13.8127 15.6253 13.7188 15.7192C13.6249 15.8131 13.5133 15.8873 13.3904 15.9376C13.2675 15.9879 13.1358 16.0132 13.003 16.012C12.8702 16.0109 12.739 15.9833 12.617 15.9309C12.495 15.8785 12.3847 15.8023 12.2924 15.7068L8.29243 11.7068C8.10496 11.5193 7.99964 11.265 7.99964 10.9998C7.99964 10.7346 8.10496 10.4803 8.29243 10.2928L12.2924 6.29279C12.48 6.10532 12.7343 6 12.9994 6C13.2646 6 13.5189 6.10532 13.7064 6.29279Z" fill="#AEAEAF"/>
</svg>
