<svg width="22" height="23" viewBox="0 0 22 23" fill="none" xmlns="http://www.w3.org/2000/svg">
<path d="M15.0496 10.3776L15.0496 10.3777C15.023 10.539 14.9112 10.673 14.7575 10.7281L15.0496 10.3776ZM15.0496 10.3776C15.0759 10.2172 15.0137 10.0549 14.8868 9.95331L11.2881 6.95435L11.2797 6.94738L11.2704 6.94169C11.2612 6.93601 11.2516 6.93065 11.242 6.92567C11.2278 6.91564 11.2131 6.90654 11.198 6.89829L11.1983 6.89781L11.1865 6.89266C11.1735 6.88696 11.1603 6.88193 11.1468 6.87758L11.1464 6.87748C11.1275 6.87141 11.1078 6.86647 11.0874 6.86291C11.0706 6.85897 11.0541 6.85621 11.0379 6.85438C11.0366 6.85407 11.0352 6.85377 11.0338 6.85348C11.0251 6.85168 11.0136 6.85 11 6.85C10.985 6.85 10.9726 6.85207 10.964 6.85398C10.9635 6.8541 10.963 6.85421 10.9625 6.85432C10.9465 6.85615 10.9305 6.85884 10.9146 6.86241C10.893 6.86606 10.8723 6.87131 10.8528 6.87763L10.8527 6.87743L10.8452 6.8803L10.8427 6.88122L10.8358 6.88362C10.8301 6.88566 10.8203 6.88923 10.8092 6.89446L10.8091 6.89417L10.8005 6.89898C10.7854 6.90736 10.7711 6.91646 10.7574 6.92612C10.7492 6.92987 10.7311 6.93866 10.7131 6.9534L10.7131 6.95339L10.7119 6.95435L7.11193 9.95435L7.1119 9.95431L7.10921 9.95667C6.92518 10.1176 6.90361 10.3957 7.05967 10.5834L7.05979 10.5836C7.21623 10.7712 7.4939 10.7997 7.68527 10.6479L7.68529 10.648L7.68807 10.6457L10.55 8.26069V15.7C10.55 15.9485 10.7515 16.15 11 16.15C11.2485 16.15 11.45 15.9485 11.45 15.7V8.26069L14.3107 10.6446L15.0496 10.3776ZM11.0002 2.35H11C5.94665 2.35 1.85 6.44665 1.85 11.5C1.85 16.5533 5.94665 20.65 11 20.65C16.0533 20.65 20.15 16.5533 20.15 11.5V11.4998C20.1443 6.44896 16.051 2.35566 11.0002 2.35ZM11.0496 6.85752C11.05 6.85764 11.0507 6.85785 11.0495 6.85746L11.0496 6.85752ZM10.9495 6.85784C10.9487 6.85808 10.9496 6.85781 10.9507 6.8575L10.9495 6.85784ZM10.9998 19.75C6.44359 19.7499 2.75 16.0563 2.75 11.5C2.75 6.94368 6.44368 3.25 11 3.25C15.5563 3.25 19.2499 6.94359 19.25 11.4998C19.2448 16.0541 15.5541 19.7448 10.9998 19.75Z" fill="white" stroke="white" stroke-width="0.3"/>
</svg>
