<svg width="13" height="9" viewBox="0 0 13 9" fill="none" xmlns="http://www.w3.org/2000/svg">
<path fill-rule="evenodd" clip-rule="evenodd" d="M12.277 7.80715C12.0469 8.03723 11.7348 8.16648 11.4093 8.16648C11.0839 8.16648 10.7718 8.03723 10.5417 7.80715L6.50025 3.76574L2.45884 7.80715C2.34563 7.92437 2.21021 8.01787 2.06047 8.08219C1.91074 8.14651 1.7497 8.18036 1.58674 8.18178C1.42379 8.18319 1.26218 8.15214 1.11135 8.09043C0.960525 8.02873 0.823497 7.9376 0.708265 7.82237C0.593034 7.70713 0.501904 7.57011 0.440196 7.41928C0.378488 7.26845 0.347435 7.10684 0.348851 6.94389C0.350266 6.78093 0.384123 6.61989 0.448442 6.47016C0.512763 6.32042 0.60626 6.185 0.723477 6.07179L5.63257 1.1627C5.86272 0.932621 6.17482 0.80337 6.50025 0.80337C6.82568 0.80337 7.13778 0.932621 7.36793 1.1627L12.277 6.07179C12.5071 6.30194 12.6364 6.61404 12.6364 6.93947C12.6364 7.2649 12.5071 7.577 12.277 7.80715Z" fill="#00A99D"/>
</svg>
