<svg xmlns="http://www.w3.org/2000/svg" width="18" height="8" viewBox="0 0 18 8" fill="none">
  <path d="M9.23302 0.888889C6.90278 0.888889 4.79238 1.76889 3.16561 3.2L0.342183 0.3459C0.216506 0.218858 0 0.307854 0 0.486556V7.8C0 7.91046 0.0895431 8 0.2 8H7.43484C7.6125 8 7.70197 7.78565 7.57703 7.65935L4.73083 4.78222C5.9531 3.75111 7.50953 3.11111 9.23302 3.11111C12.1701 3.11111 14.6923 4.93909 15.7433 7.52735C15.8477 7.78435 16.1302 7.92872 16.3934 7.84115L17.5275 7.46387C17.7888 7.37694 17.9318 7.09438 17.8322 6.83766C16.4829 3.35822 13.1482 0.888889 9.23302 0.888889Z" fill="#0B2C4C"/>
</svg>