<svg width="22" height="22" viewBox="0 0 22 22" fill="none" xmlns="http://www.w3.org/2000/svg">
    <path fill-rule="evenodd" clip-rule="evenodd"
        d="M6.29279 8.30529C6.48031 8.11782 6.73462 8.0125 6.99979 8.0125C7.26495 8.0125 7.51926 8.11782 7.70679 8.30529L10.9998 11.5983L14.2928 8.30529C14.385 8.20978 14.4954 8.1336 14.6174 8.08119C14.7394 8.02878 14.8706 8.00119 15.0034 8.00004C15.1362 7.99888 15.2678 8.02419 15.3907 8.07447C15.5136 8.12475 15.6253 8.199 15.7192 8.29289C15.8131 8.38679 15.8873 8.49844 15.9376 8.62133C15.9879 8.74423 16.0132 8.87591 16.012 9.00869C16.0109 9.14147 15.9833 9.27269 15.9309 9.39469C15.8785 9.5167 15.8023 9.62704 15.7068 9.71929L11.7068 13.7193C11.5193 13.9068 11.265 14.0121 10.9998 14.0121C10.7346 14.0121 10.4803 13.9068 10.2928 13.7193L6.29279 9.71929C6.10532 9.53176 6 9.27745 6 9.01229C6 8.74712 6.10532 8.49282 6.29279 8.30529Z"
        fill="#FFF" />
</svg>