<svg width="22" height="22" viewBox="0 0 22 22" fill="none" xmlns="http://www.w3.org/2000/svg">
    <path fill-rule="evenodd" clip-rule="evenodd"
        d="M15.7189 13.7064C15.5314 13.8939 15.2771 13.9992 15.0119 13.9992C14.7468 13.9992 14.4925 13.8939 14.3049 13.7064L11.0119 10.4134L7.71893 13.7064C7.62669 13.8019 7.51634 13.8781 7.39434 13.9305C7.27233 13.9829 7.14111 14.0105 7.00833 14.0117C6.87555 14.0128 6.74387 13.9875 6.62098 13.9373C6.49808 13.887 6.38643 13.8127 6.29254 13.7188C6.19864 13.6249 6.12439 13.5133 6.07411 13.3904C6.02383 13.2675 5.99853 13.1358 5.99968 13.003C6.00084 12.8702 6.02842 12.739 6.08083 12.617C6.13324 12.495 6.20942 12.3847 6.30493 12.2924L10.3049 8.29243C10.4925 8.10496 10.7468 7.99964 11.0119 7.99964C11.2771 7.99964 11.5314 8.10496 11.7189 8.29243L15.7189 12.2924C15.9064 12.48 16.0117 12.7343 16.0117 12.9994C16.0117 13.2646 15.9064 13.5189 15.7189 13.7064Z"
        fill="#FFF" />
</svg>