<svg width="22" height="22" viewBox="0 0 22 22" fill="none" xmlns="http://www.w3.org/2000/svg">
<path fill-rule="evenodd" clip-rule="evenodd" d="M13.7068 6.29279C13.8943 6.48031 13.9996 6.73462 13.9996 6.99979C13.9996 7.26495 13.8943 7.51926 13.7068 7.70679L10.4138 10.9998L13.7068 14.2928C13.8023 14.385 13.8785 14.4954 13.9309 14.6174C13.9833 14.7394 14.0109 14.8706 14.012 15.0034C14.0132 15.1362 13.9879 15.2678 13.9376 15.3907C13.8873 15.5136 13.8131 15.6253 13.7192 15.7192C13.6253 15.8131 13.5136 15.8873 13.3908 15.9376C13.2679 15.9879 13.1362 16.0132 13.0034 16.012C12.8706 16.0109 12.7394 15.9833 12.6174 15.9309C12.4954 15.8785 12.385 15.8023 12.2928 15.7068L8.2928 11.7068C8.10533 11.5193 8.00001 11.265 8.00001 10.9998C8.00001 10.7346 8.10533 10.4803 8.2928 10.2928L12.2928 6.29279C12.4803 6.10532 12.7346 6 12.9998 6C13.265 6 13.5193 6.10532 13.7068 6.29279Z" fill="#00A99D"/>
</svg>
