<svg width="25" height="25" viewBox="0 0 25 25" fill="none" xmlns="http://www.w3.org/2000/svg">
<g clip-path="url(#clip0_6884_50458)">
<path d="M20.4109 3.5529C18.5558 2.07251 16.3034 1.17545 13.9385 0.97518C11.5735 0.774905 9.20236 1.28041 7.12474 2.42776C5.04712 3.57511 3.35639 5.31278 2.26635 7.42103C1.17631 9.52928 0.735915 11.9134 1.00086 14.272C1.26581 16.6305 2.22419 18.8575 3.75482 20.6714C5.28545 22.4852 7.31957 23.8045 9.59997 24.4623C11.8804 25.1201 14.3046 25.0869 16.5662 24.3669C18.8277 23.6469 20.8249 22.2725 22.3053 20.4174C24.2871 17.9285 25.2007 14.7551 24.8455 11.5934C24.4903 8.43174 22.8955 5.54009 20.4109 3.5529ZM15.8054 18.4735L10.7657 19.0397C10.3742 19.0837 9.97778 19.0501 9.5992 18.941C9.22062 18.8318 8.86726 18.6491 8.55929 18.4033C8.25133 18.1576 7.99479 17.8535 7.80433 17.5086C7.61387 17.1637 7.49322 16.7846 7.44927 16.3931L6.88392 11.354L6.88076 11.3195C6.86461 11.1869 6.8752 11.0525 6.91187 10.924C6.94855 10.7956 7.01059 10.6758 7.09432 10.5718C7.17805 10.4677 7.28177 10.3815 7.39937 10.3182C7.51697 10.2549 7.64607 10.2157 7.77903 10.2031C7.912 10.1905 8.04615 10.2047 8.17355 10.2448C8.30096 10.2849 8.41904 10.3501 8.52083 10.4365C8.62263 10.523 8.70607 10.629 8.76623 10.7482C8.82639 10.8675 8.86206 10.9976 8.87112 11.1308L9.39099 15.7587L15.8813 7.61452C16.0467 7.40722 16.2877 7.27413 16.5513 7.24453C16.8148 7.21492 17.0793 7.29122 17.2866 7.45665C17.4939 7.62208 17.627 7.86308 17.6566 8.12664C17.6862 8.3902 17.6099 8.65473 17.4445 8.86203L10.9549 17.0054L15.5821 16.4863C15.7138 16.4692 15.8476 16.4785 15.9756 16.5136C16.1037 16.5488 16.2235 16.6091 16.328 16.691C16.4325 16.7729 16.5196 16.8748 16.5843 16.9908C16.649 17.1067 16.6899 17.2344 16.7048 17.3664C16.7196 17.4983 16.708 17.6319 16.6706 17.7593C16.6333 17.8868 16.5709 18.0055 16.4872 18.1085C16.4035 18.2116 16.3001 18.2969 16.183 18.3596C16.0659 18.4223 15.9376 18.461 15.8054 18.4735Z" fill="#81319B"/>
</g>
<defs>
<clipPath id="clip0_6884_50458">
<rect width="24" height="24" fill="white" transform="translate(24.9297 0.929688) rotate(90)"/>
</clipPath>
</defs>
</svg>
