<svg width="11" height="7" viewBox="0 0 11 7" fill="none" xmlns="http://www.w3.org/2000/svg">
<path fill-rule="evenodd" clip-rule="evenodd" d="M10.7072 6.69471C10.5197 6.88218 10.2654 6.9875 10.0002 6.9875C9.73505 6.9875 9.48074 6.88218 9.29321 6.69471L6.00021 3.40171L2.70721 6.69471C2.61497 6.79022 2.50462 6.8664 2.38262 6.91881C2.26061 6.97122 2.12939 6.99881 1.99661 6.99996C1.86384 7.00112 1.73216 6.97581 1.60926 6.92553C1.48636 6.87525 1.37471 6.801 1.28082 6.70711C1.18693 6.61321 1.11267 6.50156 1.06239 6.37866C1.01211 6.25577 0.986809 6.12409 0.987963 5.99131C0.989117 5.85853 1.0167 5.72731 1.06911 5.60531C1.12152 5.4833 1.1977 5.37296 1.29321 5.28071L5.29321 1.28071C5.48074 1.09324 5.73505 0.987925 6.00021 0.987925C6.26538 0.987925 6.51969 1.09324 6.70721 1.28071L10.7072 5.28071C10.8947 5.46824 11 5.72255 11 5.98771C11 6.25288 10.8947 6.50718 10.7072 6.69471Z" fill="#81319B"/>
</svg>
