<svg width="22" height="22" viewBox="0 0 22 22" fill="none" xmlns="http://www.w3.org/2000/svg">
<path fill-rule="evenodd" clip-rule="evenodd" d="M15.7072 13.6947C15.5197 13.8822 15.2654 13.9875 15.0002 13.9875C14.735 13.9875 14.4807 13.8822 14.2932 13.6947L11.0002 10.4017L7.70721 13.6947C7.61497 13.7902 7.50462 13.8664 7.38262 13.9188C7.26061 13.9712 7.12939 13.9988 6.99661 14C6.86384 14.0011 6.73216 13.9758 6.60926 13.9255C6.48636 13.8753 6.37471 13.801 6.28082 13.7071C6.18693 13.6132 6.11267 13.5016 6.06239 13.3787C6.01211 13.2558 5.98681 13.1241 5.98796 12.9913C5.98912 12.8585 6.0167 12.7273 6.06911 12.6053C6.12152 12.4833 6.1977 12.373 6.29321 12.2807L10.2932 8.28071C10.4807 8.09324 10.735 7.98793 11.0002 7.98793C11.2654 7.98793 11.5197 8.09324 11.7072 8.28071L15.7072 12.2807C15.8947 12.4682 16 12.7225 16 12.9877C16 13.2529 15.8947 13.5072 15.7072 13.6947Z" fill="#81319B"/>
</svg>
