<svg width="18" height="20" viewBox="0 0 18 20" fill="none" xmlns="http://www.w3.org/2000/svg">
<path d="M12.6041 5.94607C11.6366 4.98687 10.3607 4.46094 9.00414 4.46094C8.97959 4.46094 8.95474 4.46094 8.93019 4.46155C7.60953 4.48027 6.35882 5.00866 5.40883 5.95006C4.45852 6.89146 3.91449 8.14125 3.87705 9.46897C3.83593 10.9293 4.41465 12.3444 5.46529 13.3515C6.06517 13.9265 6.40914 14.45 6.40914 15.2647V15.3546C6.40914 15.6875 6.67763 15.9575 7.00872 15.9575H10.9986C11.3297 15.9575 11.5979 15.6878 11.5979 15.3546V15.265C11.5979 14.4429 11.9385 13.9348 12.5565 13.3374C13.5725 12.3558 14.1318 11.0351 14.1318 9.61902C14.1318 8.20292 13.5893 6.92338 12.6041 5.94638V5.94607ZM11.7256 12.4678C11.0097 13.1594 10.5531 13.797 10.4313 14.7516H7.57516C7.45488 13.7933 7.00197 13.1594 6.29193 12.4788C5.48677 11.7071 5.04337 10.6227 5.07498 9.50334C5.13389 7.4174 6.87064 5.69661 8.94645 5.66715C10.0081 5.65426 11.0072 6.05623 11.7618 6.80463C12.5166 7.55333 12.9324 8.55273 12.9324 9.61871C12.9324 10.6847 12.5037 11.7157 11.7253 12.4678H11.7256Z" fill="#0B2C4C"/>
<path d="M10.5554 16.5791H7.44302C7.11193 16.5791 6.84375 16.8488 6.84375 17.1821C6.84375 17.5153 7.11224 17.785 7.44302 17.785H10.5554C10.8864 17.785 11.1546 17.5153 11.1546 17.1821C11.1546 16.8488 10.8861 16.5791 10.5554 16.5791Z" fill="#0B2C4C"/>
<path d="M8.99864 19.3514C9.66511 19.3514 10.2536 18.9567 10.5973 18.3584H7.39844C7.7418 18.9564 8.33064 19.3514 8.99864 19.3514Z" fill="#0B2C4C"/>
<path d="M8.92647 6.82227C8.59662 6.82227 8.32812 7.09076 8.32812 7.42062C8.32812 7.75047 8.59662 8.01897 8.92647 8.01897C9.80835 8.01897 10.5261 8.73668 10.5261 9.61855C10.5261 9.94841 10.7946 10.2169 11.1244 10.2169C11.4543 10.2169 11.7228 9.94841 11.7228 9.61855C11.7228 8.07665 10.4684 6.82227 8.92647 6.82227Z" fill="#0B2C4C"/>
<path d="M9.00226 3.60244C9.31862 3.60244 9.57484 3.34592 9.57484 3.02987V1.22101C9.57484 0.904654 9.31831 0.648438 9.00226 0.648438C8.68621 0.648438 8.42969 0.904961 8.42969 1.22101V3.02987C8.42969 3.34623 8.68621 3.60244 9.00226 3.60244Z" fill="#0B2C4C"/>
<path d="M13.6822 5.54083C13.8289 5.54083 13.9752 5.48499 14.0872 5.37299L15.3662 4.09405C15.5898 3.87036 15.5898 3.50767 15.3662 3.28398C15.1425 3.06029 14.7798 3.06029 14.5561 3.28398L13.2771 4.56291C13.0535 4.7866 13.0535 5.1493 13.2771 5.37299C13.3891 5.48468 13.5355 5.54083 13.6822 5.54083Z" fill="#0B2C4C"/>
<path d="M17.4283 9.0752H15.6195C15.3031 9.0752 15.0469 9.33172 15.0469 9.64777C15.0469 9.96382 15.3034 10.2203 15.6195 10.2203H17.4283C17.7447 10.2203 18.0009 9.96382 18.0009 9.64777C18.0009 9.33172 17.7444 9.0752 17.4283 9.0752Z" fill="#0B2C4C"/>
<path d="M3.91545 5.37299C4.02745 5.48468 4.17382 5.54083 4.32049 5.54083C4.46716 5.54083 4.61353 5.48499 4.72553 5.37299C4.94922 5.1493 4.94922 4.7866 4.72553 4.56291L3.44659 3.28398C3.2229 3.06029 2.86021 3.06029 2.63652 3.28398C2.41283 3.50767 2.41283 3.87036 2.63652 4.09405L3.91545 5.37299Z" fill="#0B2C4C"/>
<path d="M2.95401 9.64777C2.95401 9.33141 2.69748 9.0752 2.38143 9.0752H0.572575C0.256217 9.0752 0 9.33172 0 9.64777C0 9.96382 0.256523 10.2203 0.572575 10.2203H2.38143C2.69779 10.2203 2.95401 9.96382 2.95401 9.64777Z" fill="#0B2C4C"/>
<path d="M14.0872 13.9169C13.9752 13.8052 13.8289 13.749 13.6822 13.749C13.5355 13.749 13.3891 13.8049 13.2771 13.9169C13.0535 14.1406 13.0535 14.5033 13.2771 14.7269L14.5561 16.0059C14.7798 16.2296 15.1425 16.2296 15.3662 16.0059C15.5898 15.7822 15.5898 15.4195 15.3662 15.1958L14.0872 13.9169Z" fill="#0B2C4C"/>
<path d="M4.32049 13.75C4.17382 13.75 4.02745 13.8058 3.91545 13.9178L2.63652 15.1968C2.41283 15.4205 2.41283 15.7832 2.63652 16.0069C2.86021 16.2305 3.2229 16.2305 3.44659 16.0069L4.72553 14.7279C4.94922 14.5042 4.94922 14.1415 4.72553 13.9178C4.61353 13.8062 4.46716 13.75 4.32049 13.75Z" fill="#0B2C4C"/>
</svg>
