<svg width="22" height="22" viewBox="0 0 22 22" fill="none" xmlns="http://www.w3.org/2000/svg">
<path fill-rule="evenodd" clip-rule="evenodd" d="M8.5 6C8.33424 6 8.17527 6.06585 8.05806 6.18306C7.94085 6.30027 7.875 6.45924 7.875 6.625V7.25H7.25C6.91848 7.25 6.60054 7.3817 6.36612 7.61612C6.1317 7.85054 6 8.16848 6 8.5V14.75C6 15.0815 6.1317 15.3995 6.36612 15.6339C6.60054 15.8683 6.91848 16 7.25 16H14.75C15.0815 16 15.3995 15.8683 15.6339 15.6339C15.8683 15.3995 16 15.0815 16 14.75V8.5C16 8.16848 15.8683 7.85054 15.6339 7.61612C15.3995 7.3817 15.0815 7.25 14.75 7.25H14.125V6.625C14.125 6.45924 14.0592 6.30027 13.9419 6.18306C13.8247 6.06585 13.6658 6 13.5 6C13.3342 6 13.1753 6.06585 13.0581 6.18306C12.9408 6.30027 12.875 6.45924 12.875 6.625V7.25H9.125V6.625C9.125 6.45924 9.05915 6.30027 8.94194 6.18306C8.82473 6.06585 8.66576 6 8.5 6ZM8.5 9.125C8.33424 9.125 8.17527 9.19085 8.05806 9.30806C7.94085 9.42527 7.875 9.58424 7.875 9.75C7.875 9.91576 7.94085 10.0747 8.05806 10.1919C8.17527 10.3092 8.33424 10.375 8.5 10.375H13.5C13.6658 10.375 13.8247 10.3092 13.9419 10.1919C14.0592 10.0747 14.125 9.91576 14.125 9.75C14.125 9.58424 14.0592 9.42527 13.9419 9.30806C13.8247 9.19085 13.6658 9.125 13.5 9.125H8.5Z" fill="#00A99D"/>
</svg>
