<svg width="90" height="90" viewBox="0 0 90 90" fill="none" xmlns="http://www.w3.org/2000/svg">
<path d="M45 5C22.9439 5 5 22.9439 5 45C5 67.0561 22.9439 85 45 85C67.0561 85 85 67.0561 85 45C85 22.9439 67.0561 5 45 5ZM45 80C25.7009 80 10 64.2991 10 45C10 25.7009 25.7009 10 45 10C64.2991 10 80 25.7009 80 45C80 64.2991 64.2991 80 45 80ZM61.4552 32.0803L48.5355 45L61.4552 57.9197C61.6907 58.1511 61.8782 58.4268 62.0066 58.731C62.135 59.0352 62.2019 59.3618 62.2034 59.692C62.2049 60.0222 62.141 60.3494 62.0153 60.6548C61.8896 60.9601 61.7047 61.2376 61.4712 61.4711C61.2377 61.7046 60.9603 61.8895 60.655 62.0152C60.3496 62.1408 60.0224 62.2048 59.6922 62.2033C59.362 62.2018 59.0354 62.135 58.7312 62.0065C58.427 61.8781 58.1512 61.6907 57.9198 61.4552L45 48.5355L32.0802 61.4552C31.8488 61.6907 31.573 61.8781 31.2688 62.0065C30.9646 62.135 30.638 62.2018 30.3078 62.2033C29.9776 62.2048 29.6504 62.1408 29.345 62.0152C29.0397 61.8895 28.7623 61.7046 28.5288 61.4711C28.2953 61.2376 28.1104 60.9601 27.9847 60.6548C27.8591 60.3494 27.7951 60.0222 27.7966 59.692C27.7981 59.3618 27.865 59.0352 27.9934 58.731C28.1218 58.4268 28.3093 58.1511 28.5448 57.9197L41.4645 45L28.5448 32.0803C28.3093 31.8489 28.1218 31.5732 27.9934 31.269C27.865 30.9648 27.7981 30.6382 27.7966 30.308C27.7951 29.9778 27.8591 29.6506 27.9847 29.3452C28.1104 29.0399 28.2953 28.7624 28.5288 28.5289C28.7623 28.2954 29.0397 28.1105 29.345 27.9848C29.6504 27.8592 29.9776 27.7952 30.3078 27.7967C30.638 27.7982 30.9646 27.865 31.2688 27.9935C31.573 28.1219 31.8488 28.3093 32.0802 28.5448L45 41.4645L57.9198 28.5448C58.1512 28.3093 58.427 28.1219 58.7312 27.9935C59.0354 27.865 59.362 27.7982 59.6922 27.7967C60.0224 27.7952 60.3496 27.8592 60.655 27.9848C60.9603 28.1105 61.2377 28.2954 61.4712 28.5289C61.7047 28.7624 61.8896 29.0399 62.0153 29.3452C62.141 29.6506 62.2049 29.9778 62.2034 30.308C62.2019 30.6382 62.135 30.9648 62.0066 31.269C61.8782 31.5732 61.6907 31.8489 61.4552 32.0803Z" fill="url(#paint0_linear_1799_47260)"/>
<defs>
<linearGradient id="paint0_linear_1799_47260" x1="45" y1="85" x2="45" y2="5" gradientUnits="userSpaceOnUse">
<stop stop-color="#0B2C4C"/>
<stop offset="0.475" stop-color="#00A99D"/>
<stop offset="1" stop-color="#81319B"/>
</linearGradient>
</defs>
</svg>
