<svg width="22" height="22" viewBox="0 0 22 22" fill="none" xmlns="http://www.w3.org/2000/svg">
<path fill-rule="evenodd" clip-rule="evenodd" d="M11 20C13.3869 20 15.6761 19.0518 17.364 17.364C19.0518 15.6761 20 13.3869 20 11C20 8.61305 19.0518 6.32387 17.364 4.63604C15.6761 2.94821 13.3869 2 11 2C8.61305 2 6.32387 2.94821 4.63604 4.63604C2.94821 6.32387 2 8.61305 2 11C2 13.3869 2.94821 15.6761 4.63604 17.364C6.32387 19.0518 8.61305 20 11 20ZM9.54537 7.95463C9.3332 7.7497 9.04902 7.6363 8.75405 7.63887C8.45908 7.64143 8.17691 7.75975 7.96833 7.96833C7.75974 8.17691 7.64143 8.45908 7.63887 8.75405C7.6363 9.04902 7.7497 9.3332 7.95462 9.54537L9.40925 11L7.95462 12.4546C7.84718 12.5584 7.76147 12.6825 7.70251 12.8198C7.64355 12.957 7.61252 13.1047 7.61122 13.254C7.60992 13.4034 7.63838 13.5516 7.69495 13.6898C7.75152 13.8281 7.83505 13.9537 7.94068 14.0593C8.04631 14.1649 8.17192 14.2485 8.31018 14.305C8.44843 14.3616 8.59657 14.3901 8.74595 14.3888C8.89533 14.3875 9.04295 14.3565 9.1802 14.2975C9.31746 14.2385 9.4416 14.1528 9.54537 14.0454L11 12.5907L12.4546 14.0454C12.6668 14.2503 12.951 14.3637 13.2459 14.3611C13.5409 14.3586 13.8231 14.2403 14.0317 14.0317C14.2403 13.8231 14.3586 13.5409 14.3611 13.246C14.3637 12.951 14.2503 12.6668 14.0454 12.4546L12.5907 11L14.0454 9.54537C14.2503 9.3332 14.3637 9.04902 14.3611 8.75405C14.3586 8.45908 14.2403 8.17691 14.0317 7.96833C13.8231 7.75975 13.5409 7.64143 13.2459 7.63887C12.951 7.6363 12.6668 7.7497 12.4546 7.95463L11 9.40925L9.54537 7.95463Z" fill="#0B2C4C"/>
</svg>
