<svg width="17" height="18" viewBox="0 0 17 18" fill="none" xmlns="http://www.w3.org/2000/svg">
<path d="M8.5 1.47656C4.36448 1.47656 1 4.84105 1 8.97656C1 13.1121 4.36448 16.4766 8.5 16.4766C12.6355 16.4766 16 13.1121 16 8.97656C16 4.84105 12.6355 1.47656 8.5 1.47656ZM8.5 15.5391C4.88143 15.5391 1.9375 12.5951 1.9375 8.97656C1.9375 5.35799 4.88143 2.41406 8.5 2.41406C12.1186 2.41406 15.0625 5.35799 15.0625 8.97656C15.0625 12.5951 12.1186 15.5391 8.5 15.5391ZM11.5853 6.55412L9.1629 8.97656L11.5853 11.399C11.6295 11.4424 11.6647 11.4941 11.6887 11.5511C11.7128 11.6082 11.7254 11.6694 11.7256 11.7313C11.7259 11.7932 11.7139 11.8546 11.6904 11.9118C11.6668 11.9691 11.6321 12.0211 11.5884 12.0649C11.5446 12.1087 11.4926 12.1433 11.4353 12.1669C11.3781 12.1905 11.3167 12.2025 11.2548 12.2022C11.1929 12.2019 11.1316 12.1894 11.0746 12.1653C11.0176 12.1412 10.9659 12.1061 10.9225 12.0619L8.5 9.63946L6.07753 12.0619C6.03415 12.1061 5.98244 12.1412 5.9254 12.1653C5.86836 12.1894 5.80712 12.2019 5.74521 12.2022C5.6833 12.2025 5.62194 12.1905 5.56469 12.1669C5.50744 12.1433 5.45542 12.1087 5.41165 12.0649C5.36787 12.0211 5.3332 11.9691 5.30963 11.9118C5.28607 11.8546 5.27408 11.7932 5.27436 11.7313C5.27464 11.6694 5.28719 11.6082 5.31127 11.5511C5.33535 11.4941 5.37049 11.4424 5.41466 11.399L7.8371 8.97656L5.41466 6.55412C5.37049 6.51074 5.33535 6.45904 5.31127 6.402C5.28719 6.34496 5.27464 6.28372 5.27436 6.22181C5.27408 6.1599 5.28607 6.09854 5.30963 6.04129C5.3332 5.98404 5.36787 5.93202 5.41165 5.88824C5.45542 5.84446 5.50744 5.80979 5.56469 5.78622C5.62194 5.76265 5.6833 5.75066 5.74521 5.75094C5.80712 5.75122 5.86836 5.76376 5.9254 5.78784C5.98244 5.81191 6.03415 5.84705 6.07753 5.89122L8.5 8.31366L10.9225 5.89122C10.9659 5.84705 11.0176 5.81191 11.0746 5.78784C11.1316 5.76376 11.1929 5.75122 11.2548 5.75094C11.3167 5.75066 11.3781 5.76265 11.4353 5.78622C11.4926 5.80979 11.5446 5.84446 11.5884 5.88824C11.6321 5.93202 11.6668 5.98404 11.6904 6.04129C11.7139 6.09854 11.7259 6.1599 11.7256 6.22181C11.7254 6.28372 11.7128 6.34496 11.6887 6.402C11.6647 6.45904 11.6295 6.51074 11.5853 6.55412Z" fill="url(#paint0_linear_103_5250)"/>
<defs>
<linearGradient id="paint0_linear_103_5250" x1="8.5" y1="16.4766" x2="8.5" y2="1.47656" gradientUnits="userSpaceOnUse">
<stop stop-color="#0B2C4C"/>
<stop offset="0.475" stop-color="#00A99D"/>
<stop offset="1" stop-color="#81319B"/>
</linearGradient>
</defs>
</svg>
