<svg width="20" height="20" viewBox="0 0 20 20" fill="none" xmlns="http://www.w3.org/2000/svg">
<path d="M7.27273 10.9091H1.81818C0.818182 10.9091 0 11.7273 0 12.7273V18.1818C0 19.1818 0.818182 20 1.81818 20H7.27273C8.27273 20 9.09091 19.1818 9.09091 18.1818V12.7273C9.09091 11.7273 8.27273 10.9091 7.27273 10.9091ZM7.27273 18.1818H1.81818V12.7273H7.27273V18.1818ZM7.27273 0H1.81818C0.818182 0 0 0.818182 0 1.81818V7.27273C0 8.27273 0.818182 9.09091 1.81818 9.09091H7.27273C8.27273 9.09091 9.09091 8.27273 9.09091 7.27273V1.81818C9.09091 0.818182 8.27273 0 7.27273 0ZM7.27273 7.27273H1.81818V1.81818H7.27273V7.27273ZM19.0909 10.9091H11.8182C11.2727 10.9091 10.9091 11.2727 10.9091 11.8182C10.9091 12.3636 11.2727 12.7273 11.8182 12.7273H19.0909C19.6364 12.7273 20 12.3636 20 11.8182C20 11.2727 19.6364 10.9091 19.0909 10.9091ZM19.0909 18.1818H11.8182C11.2727 18.1818 10.9091 18.5455 10.9091 19.0909C10.9091 19.6364 11.2727 20 11.8182 20H19.0909C19.6364 20 20 19.6364 20 19.0909C20 18.5455 19.6364 18.1818 19.0909 18.1818ZM18.1818 0H12.7273C11.7273 0 10.9091 0.818182 10.9091 1.81818V7.27273C10.9091 8.27273 11.7273 9.09091 12.7273 9.09091H18.1818C19.1818 9.09091 20 8.27273 20 7.27273V1.81818C20 0.818182 19.1818 0 18.1818 0ZM18.1818 7.27273H12.7273V1.81818H18.1818V7.27273ZM19.0909 14.5455H15.4545C14.9091 14.5455 14.5455 14.9091 14.5455 15.4545C14.5455 16 14.9091 16.3636 15.4545 16.3636H19.0909C19.6364 16.3636 20 16 20 15.4545C20 14.9091 19.6364 14.5455 19.0909 14.5455Z" fill="url(#paint0_linear_72375_146428)"/>
<defs>
<linearGradient id="paint0_linear_72375_146428" x1="0" y1="10" x2="20" y2="10" gradientUnits="userSpaceOnUse">
<stop stop-color="#0B2C4C"/>
<stop offset="1" stop-color="#0B2C4C"/>
</linearGradient>
</defs>
</svg>
