<svg width="60" height="60" viewBox="0 0 60 60" fill="none" xmlns="http://www.w3.org/2000/svg">
<path d="M51.3947 34.5008L47.5597 27.8879C47.4703 27.7336 47.3305 27.6143 47.1637 27.5497L39.0666 24.4153C39.3186 23.5684 39.4547 22.6724 39.4547 21.7453C39.4547 16.555 35.2133 12.3324 30 12.3324C24.7867 12.3324 20.5454 16.555 20.5454 21.7453C20.5454 22.6725 20.6814 23.5684 20.9334 24.4153L12.8363 27.5497C12.6695 27.6143 12.5298 27.7336 12.4403 27.8879L8.60531 34.5008C8.49062 34.6985 8.46841 34.9364 8.54458 35.1519C8.62065 35.3673 8.78753 35.5389 9.00129 35.6217L12.3349 36.9122V47.6833C12.3349 48.0061 12.534 48.2958 12.8363 48.4128L29.715 54.9468C29.8067 54.9823 29.9033 55 29.9999 55C30.0965 55 30.1932 54.9823 30.2848 54.9468L47.1635 48.4128C47.4658 48.2958 47.665 48.0061 47.665 47.6833V36.9122L50.9986 35.6217C51.2124 35.5389 51.3792 35.3673 51.4553 35.1519C51.5316 34.9364 51.5094 34.6986 51.3947 34.5008ZM30.0001 13.8979C34.3464 13.8979 37.8823 17.4183 37.8823 21.7453C37.8823 26.0723 34.3463 29.5927 30.0001 29.5927C25.6539 29.5927 22.118 26.0723 22.118 21.7453C22.118 17.4183 25.6538 13.8979 30.0001 13.8979ZM30.0001 31.1582C33.7464 31.1582 36.9908 28.9777 38.52 25.8245L44.725 28.2732L30.0001 33.9734L15.2752 28.2732L21.4801 25.8245C23.0094 28.9777 26.2537 31.1582 30.0001 31.1582ZM10.4256 34.4932L13.465 29.2522L28.8608 35.2121L25.8214 40.4533L10.4256 34.4932ZM13.9076 37.5209L25.8803 42.1558C26.2419 42.2956 26.6521 42.1522 26.8461 41.8176L29.2139 37.7346V53.073L13.9076 47.1478V37.5209ZM46.0927 47.1478L30.7864 53.073V37.7346L33.1542 41.8177C33.3483 42.1523 33.7584 42.2958 34.12 42.1559L46.0927 37.521V47.1478ZM34.1788 40.4533L31.1393 35.2121L46.5352 29.2522L49.5747 34.4932L34.1788 40.4533ZM28.0438 26.83C28.5881 26.83 29.1004 26.6185 29.4861 26.2344L35.6153 20.1324C36.4117 19.3394 36.4117 18.0492 35.6152 17.2561C35.2295 16.872 34.7164 16.6605 34.1709 16.6605C33.6253 16.6605 33.1123 16.872 32.7264 17.2561L28.2147 21.7479L27.0106 20.2394C26.6212 19.7518 26.0387 19.472 25.4126 19.472C24.9539 19.472 24.5033 19.6288 24.1436 19.9133C23.263 20.6105 23.1161 21.8909 23.8161 22.7675L26.3815 25.9816C26.765 26.5135 27.3844 26.8301 28.0438 26.83ZM25.1219 21.1387C25.2277 21.0551 25.3383 21.0375 25.4125 21.0375C25.5564 21.0375 25.6902 21.1017 25.7794 21.2134L27.5318 23.4089C27.6713 23.5836 27.8788 23.6907 28.1026 23.7034C28.3258 23.7159 28.5449 23.6332 28.7033 23.4754L33.8382 18.3631C33.9269 18.2747 34.0451 18.226 34.1708 18.226C34.2965 18.226 34.4144 18.2748 34.5032 18.363C34.6866 18.5457 34.6867 18.8429 34.5033 19.0254L28.3742 25.1275C28.2603 25.2407 28.1316 25.2645 28.0436 25.2645C27.8863 25.2645 27.7447 25.1911 27.6549 25.0632C27.6456 25.0499 27.636 25.037 27.6258 25.0244L25.047 21.7934C24.8865 21.5924 24.9202 21.2986 25.1219 21.1387ZM29.2139 9.44902V5.78278C29.2139 5.35049 29.5658 5 30.0001 5C30.4343 5 30.7864 5.35049 30.7864 5.78278V9.44902C30.7864 9.88131 30.4343 10.2318 30.0001 10.2318C29.5658 10.2318 29.2139 9.88131 29.2139 9.44902ZM21.2748 8.20969C21.0577 7.83532 21.1867 7.35656 21.5627 7.14041C21.9386 6.92436 22.4196 7.05254 22.6367 7.42691L24.4779 10.602C24.695 10.9763 24.5662 11.4551 24.1901 11.6712C24.0663 11.7424 23.9311 11.7762 23.7977 11.7762C23.526 11.7762 23.2618 11.6358 23.116 11.3847L21.2748 8.20969ZM15.3305 13.1942C15.5476 12.8198 16.0285 12.6915 16.4045 12.9077L19.5936 14.7408C19.9697 14.9569 20.0985 15.4357 19.8814 15.8101C19.7358 16.0612 19.4715 16.2016 19.1997 16.2016C19.0663 16.2016 18.9312 16.1677 18.8074 16.0966L15.6183 14.2635C15.2422 14.0474 15.1134 13.5686 15.3305 13.1942ZM12.9737 21.5392C12.9737 21.1069 13.3257 20.7565 13.76 20.7565H17.4424C17.8767 20.7565 18.2286 21.1069 18.2286 21.5392C18.2286 21.9715 17.8767 22.322 17.4424 22.322H13.76C13.3257 22.322 12.9737 21.9716 12.9737 21.5392ZM35.4669 10.8079L37.3081 7.63288C37.5252 7.25841 38.0061 7.13004 38.3821 7.34638C38.7581 7.56252 38.8871 8.04129 38.67 8.41566L36.8287 11.5907C36.683 11.8418 36.4188 11.9822 36.147 11.9822C36.0136 11.9822 35.8784 11.9483 35.7546 11.8772C35.3787 11.6612 35.2498 11.1824 35.4669 10.8079ZM39.912 16.1669C39.6949 15.7926 39.8237 15.3138 40.1997 15.0977L43.3889 13.2646C43.7649 13.0485 44.2458 13.1768 44.4629 13.5511C44.68 13.9254 44.5511 14.4042 44.1751 14.6204L40.986 16.4534C40.8621 16.5246 40.727 16.5584 40.5936 16.5584C40.3218 16.5584 40.0575 16.418 39.912 16.1669ZM42.144 21.1685H45.8264C46.2607 21.1685 46.6127 21.519 46.6127 21.9513C46.6127 22.3836 46.2607 22.7341 45.8264 22.7341H42.144C41.7097 22.7341 41.3578 22.3836 41.3578 21.9513C41.3578 21.519 41.7098 21.1685 42.144 21.1685Z" fill="url(#paint0_linear_4_2742)"/>
<defs>
<linearGradient id="paint0_linear_4_2742" x1="45.837" y1="55.0489" x2="45.837" y2="13.5585" gradientUnits="userSpaceOnUse">
<stop stop-color="#0B2C4C"/>
<stop offset="0.5" stop-color="#00A99D"/>
<stop offset="1" stop-color="#81319B"/>
</linearGradient>
</defs>
</svg>
