<svg width="91" height="90" viewBox="0 0 91 90" fill="none" xmlns="http://www.w3.org/2000/svg">
<path d="M63.1819 32.3077C64.4026 33.5284 64.4026 35.5072 63.1819 36.7273L42.2175 57.6923C40.9968 58.9124 39.0187 58.9124 37.798 57.6923L27.8181 47.7118C26.5974 46.4917 26.5974 44.5129 27.8181 43.2928C29.0382 42.0721 31.017 42.0721 32.2371 43.2928L40.0074 51.0632L58.7623 32.3077C59.983 31.0876 61.9618 31.0876 63.1819 32.3077ZM85.5 45C85.5 67.11 67.6069 85 45.5 85C23.39 85 5.5 67.1069 5.5 45C5.5 22.89 23.3931 5 45.5 5C67.61 5 85.5 22.8931 85.5 45ZM79.25 45C79.25 26.3446 64.153 11.25 45.5 11.25C26.8446 11.25 11.75 26.347 11.75 45C11.75 63.6554 26.847 78.75 45.5 78.75C64.1554 78.75 79.25 63.653 79.25 45Z" fill="url(#paint0_linear_420_7273)"/>
<defs>
<linearGradient id="paint0_linear_420_7273" x1="51.6017" y1="85" x2="51.6017" y2="5" gradientUnits="userSpaceOnUse">
<stop stop-color="#0B2C4C"/>
<stop offset="0.5" stop-color="#00A99D"/>
<stop offset="1" stop-color="#81319B"/>
</linearGradient>
</defs>
</svg>
