<svg width="22" height="22" viewBox="0 0 22 22" fill="none" xmlns="http://www.w3.org/2000/svg">
<path fill-rule="evenodd" clip-rule="evenodd" d="M11 20C13.3869 20 15.6761 19.0518 17.364 17.364C19.0518 15.6761 20 13.3869 20 11C20 8.61305 19.0518 6.32387 17.364 4.63604C15.6761 2.94821 13.3869 2 11 2C8.61305 2 6.32387 2.94821 4.63604 4.63604C2.94821 6.32387 2 8.61305 2 11C2 13.3869 2.94821 15.6761 4.63604 17.364C6.32387 19.0518 8.61305 20 11 20ZM15.1704 9.54537C15.3753 9.3332 15.4887 9.04902 15.4861 8.75405C15.4836 8.45908 15.3653 8.17691 15.1567 7.96833C14.9481 7.75975 14.6659 7.64143 14.371 7.63887C14.076 7.6363 13.7918 7.7497 13.5796 7.95463L9.875 11.6593L8.42037 10.2046C8.2082 9.9997 7.92402 9.8863 7.62905 9.88887C7.33408 9.89143 7.05191 10.0097 6.84333 10.2183C6.63475 10.4269 6.51643 10.7091 6.51387 11.004C6.5113 11.299 6.6247 11.5832 6.82963 11.7954L9.07963 14.0454C9.29059 14.2563 9.57669 14.3748 9.875 14.3748C10.1733 14.3748 10.4594 14.2563 10.6704 14.0454L15.1704 9.54537Z" fill="#0B2C4C"/>
</svg>
