<svg width="22" height="23" viewBox="0 0 22 23" fill="none" xmlns="http://www.w3.org/2000/svg">
<path fill-rule="evenodd" clip-rule="evenodd" d="M11 20.5C13.3869 20.5 15.6761 19.5518 17.364 17.864C19.0518 16.1761 20 13.8869 20 11.5C20 9.11305 19.0518 6.82387 17.364 5.13604C15.6761 3.44821 13.3869 2.5 11 2.5C8.61305 2.5 6.32387 3.44821 4.63604 5.13604C2.94821 6.82387 2 9.11305 2 11.5C2 13.8869 2.94821 16.1761 4.63604 17.864C6.32387 19.5518 8.61305 20.5 11 20.5ZM15.1704 10.0454C15.3753 9.8332 15.4887 9.54902 15.4861 9.25405C15.4836 8.95908 15.3653 8.67691 15.1567 8.46833C14.9481 8.25975 14.6659 8.14143 14.371 8.13887C14.076 8.1363 13.7918 8.2497 13.5796 8.45463L9.875 12.1593L8.42037 10.7046C8.2082 10.4997 7.92402 10.3863 7.62905 10.3889C7.33408 10.3914 7.05191 10.5097 6.84333 10.7183C6.63475 10.9269 6.51643 11.2091 6.51387 11.504C6.5113 11.799 6.6247 12.0832 6.82963 12.2954L9.07963 14.5454C9.29059 14.7563 9.57669 14.8748 9.875 14.8748C10.1733 14.8748 10.4594 14.7563 10.6704 14.5454L15.1704 10.0454Z" fill="white"/>
</svg>
