<svg width="91" height="90" viewBox="0 0 91 90" fill="none" xmlns="http://www.w3.org/2000/svg">
<g clip-path="url(#clip0_3_1666)">
<path d="M61.5337 52.947L48.9852 43.5357V24.3646C48.9852 22.437 47.427 20.8789 45.4994 20.8789C43.5718 20.8789 42.0137 22.437 42.0137 24.3646V45.2788C42.0137 46.3767 42.5296 47.412 43.408 48.0673L57.3506 58.5244C57.978 58.995 58.7101 59.2215 59.4385 59.2215C60.5016 59.2215 61.5474 58.7439 62.2306 57.8237C63.3881 56.2864 63.0744 54.1009 61.5337 52.947Z" fill="url(#paint0_linear_3_1666)"/>
<path d="M45.5 0C20.6855 0 0.5 20.1855 0.5 45C0.5 69.8145 20.6855 90 45.5 90C70.3145 90 90.5 69.8145 90.5 45C90.5 20.1855 70.3145 0 45.5 0ZM45.5 83.0287C24.5337 83.0287 7.47131 65.9663 7.47131 45C7.47131 24.0337 24.5337 6.97131 45.5 6.97131C66.4698 6.97131 83.5287 24.0337 83.5287 45C83.5287 65.9663 66.4663 83.0287 45.5 83.0287Z" fill="url(#paint1_linear_3_1666)"/>
</g>
<defs>
<linearGradient id="paint0_linear_3_1666" x1="52.4715" y1="20.8789" x2="52.4715" y2="104.516" gradientUnits="userSpaceOnUse">
<stop stop-color="#81319B"/>
<stop offset="0.5" stop-color="#00A99D"/>
<stop offset="1" stop-color="#0B2C4C"/>
</linearGradient>
<linearGradient id="paint1_linear_3_1666" x1="45.5" y1="0" x2="45.5" y2="90" gradientUnits="userSpaceOnUse">
<stop stop-color="#81319B"/>
<stop offset="0.5" stop-color="#00A99D"/>
<stop offset="1" stop-color="#0B2C4C"/>
</linearGradient>
<clipPath id="clip0_3_1666">
<rect width="90" height="90" fill="white" transform="translate(0.5)"/>
</clipPath>
</defs>
</svg>
