<svg width="34" height="34" viewBox="0 0 34 34" fill="none" xmlns="http://www.w3.org/2000/svg">
<path fill-rule="evenodd" clip-rule="evenodd" d="M16.9997 33.9234C21.488 33.9234 25.7925 32.1405 28.9662 28.9668C32.1398 25.7931 33.9228 21.4886 33.9228 17.0003C33.9228 12.5121 32.1398 8.20762 28.9662 5.03393C25.7925 1.86023 21.488 0.0772705 16.9997 0.0772705C12.5115 0.0772705 8.20701 1.86023 5.03331 5.03393C1.85962 8.20762 0.0766602 12.5121 0.0766602 17.0003C0.0766602 21.4886 1.85962 25.7931 5.03331 28.9668C8.20701 32.1405 12.5115 33.9234 16.9997 33.9234ZM14.2645 11.274C13.8656 10.8887 13.3312 10.6754 12.7766 10.6803C12.2219 10.6851 11.6914 10.9076 11.2992 11.2998C10.9069 11.692 10.6845 12.2225 10.6797 12.7772C10.6748 13.3318 10.8881 13.8662 11.2734 14.2652L14.0086 17.0003L11.2734 19.7355C11.0713 19.9307 10.9102 20.1641 10.7993 20.4222C10.6885 20.6803 10.6301 20.9579 10.6277 21.2387C10.6252 21.5196 10.6787 21.7982 10.7851 22.0581C10.8915 22.3181 11.0485 22.5543 11.2472 22.7529C11.4458 22.9515 11.682 23.1086 11.9419 23.215C12.2019 23.3213 12.4805 23.3749 12.7614 23.3724C13.0422 23.37 13.3198 23.3116 13.5779 23.2008C13.836 23.0899 14.0694 22.9287 14.2645 22.7267L16.9997 19.9915L19.7349 22.7267C20.1339 23.112 20.6682 23.3252 21.2229 23.3204C21.7775 23.3156 22.3081 23.0931 22.7003 22.7009C23.0925 22.3087 23.315 21.7782 23.3198 21.2235C23.3246 20.6689 23.1114 20.1345 22.7261 19.7355L19.9909 17.0003L22.7261 14.2652C23.1114 13.8662 23.3246 13.3318 23.3198 12.7772C23.315 12.2225 23.0925 11.692 22.7003 11.2998C22.3081 10.9076 21.7775 10.6851 21.2229 10.6803C20.6682 10.6754 20.1339 10.8887 19.7349 11.274L16.9997 14.0092L14.2645 11.274Z" fill="#0B2C4C"/>
</svg>
