<svg width="11" height="12" viewBox="0 0 11 12" fill="none" xmlns="http://www.w3.org/2000/svg">
<path d="M5.5 0.5C2.46729 0.5 0 2.96729 0 6C0 9.03271 2.46729 11.5 5.5 11.5C8.53271 11.5 11 9.03271 11 6C11 2.96729 8.53271 0.5 5.5 0.5ZM5.5 10.8125C2.84638 10.8125 0.6875 8.65362 0.6875 6C0.6875 3.34638 2.84638 1.1875 5.5 1.1875C8.15362 1.1875 10.3125 3.34638 10.3125 6C10.3125 8.65362 8.15362 10.8125 5.5 10.8125ZM7.76258 4.22354L5.98613 6L7.76258 7.77646C7.79498 7.80827 7.82075 7.84619 7.8384 7.88801C7.85606 7.92984 7.86526 7.97475 7.86547 8.02015C7.86567 8.06556 7.85688 8.11055 7.8396 8.15253C7.82232 8.19452 7.7969 8.23267 7.76479 8.26477C7.73269 8.29688 7.69454 8.3223 7.65256 8.33958C7.61057 8.35687 7.56558 8.36566 7.52018 8.36546C7.47478 8.36525 7.42987 8.35606 7.38804 8.3384C7.34621 8.32074 7.30829 8.29498 7.27648 8.26258L5.5 6.48613L3.72352 8.26258C3.69171 8.29498 3.65379 8.32074 3.61196 8.3384C3.57013 8.35606 3.52522 8.36525 3.47982 8.36546C3.43442 8.36566 3.38943 8.35687 3.34744 8.33958C3.30546 8.3223 3.26731 8.29688 3.23521 8.26477C3.2031 8.23267 3.17768 8.19452 3.1604 8.15253C3.14312 8.11055 3.13433 8.06556 3.13453 8.02015C3.13474 7.97475 3.14394 7.92984 3.1616 7.88801C3.17925 7.84619 3.20502 7.80827 3.23742 7.77646L5.01387 6L3.23742 4.22354C3.20502 4.19173 3.17925 4.15381 3.1616 4.11199C3.14394 4.07016 3.13474 4.02525 3.13453 3.97985C3.13433 3.93444 3.14312 3.88945 3.1604 3.84747C3.17768 3.80548 3.2031 3.76733 3.23521 3.73523C3.26731 3.70312 3.30546 3.6777 3.34744 3.66042C3.38943 3.64313 3.43442 3.63434 3.47982 3.63454C3.52522 3.63475 3.57013 3.64394 3.61196 3.6616C3.65379 3.67926 3.69171 3.70502 3.72352 3.73742L5.5 5.51387L7.27648 3.73742C7.30829 3.70502 7.34621 3.67926 7.38804 3.6616C7.42987 3.64394 7.47478 3.63475 7.52018 3.63454C7.56558 3.63434 7.61057 3.64313 7.65256 3.66042C7.69454 3.6777 7.73269 3.70312 7.76479 3.73523C7.7969 3.76733 7.82232 3.80548 7.8396 3.84747C7.85688 3.88945 7.86567 3.93444 7.86547 3.97985C7.86526 4.02525 7.85606 4.07016 7.8384 4.11199C7.82075 4.15381 7.79498 4.19173 7.76258 4.22354Z" fill="#0B2C4C"/>
</svg>
