<svg width="28" height="28" viewBox="0 0 28 28" fill="none" xmlns="http://www.w3.org/2000/svg">
<path fill-rule="evenodd" clip-rule="evenodd" d="M6.92914 21.0717C6.67909 20.8217 6.54571 20.4754 6.55834 20.1092C6.57097 19.7429 6.72857 19.3867 6.99648 19.1188L19.1183 6.99692C19.3862 6.72901 19.7425 6.57141 20.1087 6.55878C20.475 6.54615 20.8212 6.67953 21.0713 6.92958C21.3213 7.17963 21.4547 7.52586 21.4421 7.89211C21.4294 8.25836 21.2718 8.61463 21.0039 8.88254L8.8821 21.0044C8.61419 21.2723 8.25792 21.4299 7.89167 21.4425C7.52542 21.4551 7.17919 21.3218 6.92914 21.0717Z" fill="white"/>
<path fill-rule="evenodd" clip-rule="evenodd" d="M6.92926 6.93109C7.17931 6.68104 7.52554 6.54766 7.89179 6.56029C8.25805 6.57292 8.61431 6.73052 8.88222 6.99843L21.0041 19.1203C21.272 19.3882 21.4296 19.7444 21.4422 20.1107C21.4548 20.4769 21.3214 20.8232 21.0714 21.0732C20.8213 21.3233 20.4751 21.4567 20.1089 21.444C19.7426 21.4314 19.3863 21.2738 19.1184 21.0059L6.99661 8.88405C6.7287 8.61614 6.57109 8.25987 6.55846 7.89362C6.54583 7.52737 6.67921 7.18114 6.92926 6.93109Z" fill="white"/>
</svg>
