<svg width="34" height="34" viewBox="0 0 34 34" fill="none" xmlns="http://www.w3.org/2000/svg">
<path fill-rule="evenodd" clip-rule="evenodd" d="M17.0002 33.9243C21.4885 33.9243 25.793 32.1413 28.9666 28.9676C32.1403 25.7939 33.9233 21.4895 33.9233 17.0012C33.9233 12.5129 32.1403 8.20847 28.9666 5.03478C25.793 1.86109 21.4885 0.078125 17.0002 0.078125C12.5119 0.078125 8.20749 1.86109 5.0338 5.03478C1.86011 8.20847 0.0771484 12.5129 0.0771484 17.0012C0.0771484 21.4895 1.86011 25.7939 5.0338 28.9676C8.20749 32.1413 12.5119 33.9243 17.0002 33.9243ZM14.265 11.2749C13.8661 10.8895 13.3317 10.6763 12.7771 10.6811C12.2224 10.6859 11.6919 10.9084 11.2996 11.3006C10.9074 11.6928 10.685 12.2234 10.6801 12.778C10.6753 13.3327 10.8885 13.867 11.2739 14.266L14.0091 17.0012L11.2739 19.7364C11.0718 19.9315 10.9107 20.165 10.7998 20.423C10.689 20.6811 10.6306 20.9587 10.6282 21.2396C10.6257 21.5205 10.6792 21.799 10.7856 22.059C10.892 22.319 11.049 22.5551 11.2477 22.7538C11.4463 22.9524 11.6825 23.1095 11.9424 23.2158C12.2024 23.3222 12.481 23.3757 12.7618 23.3733C13.0427 23.3708 13.3203 23.3125 13.5784 23.2016C13.8365 23.0907 14.0699 22.9296 14.265 22.7275L17.0002 19.9924L19.7354 22.7275C20.1344 23.1129 20.6687 23.3261 21.2234 23.3213C21.778 23.3165 22.3086 23.094 22.7008 22.7018C23.093 22.3096 23.3155 21.779 23.3203 21.2244C23.3251 20.6697 23.1119 20.1354 22.7266 19.7364L19.9914 17.0012L22.7266 14.266C23.1119 13.867 23.3251 13.3327 23.3203 12.778C23.3155 12.2234 23.093 11.6928 22.7008 11.3006C22.3086 10.9084 21.778 10.6859 21.2234 10.6811C20.6687 10.6763 20.1344 10.8895 19.7354 11.2749L17.0002 14.01L14.265 11.2749Z" fill="#F4F4F4"/>
</svg>
