<svg width="8" height="8" viewBox="0 0 8 8" fill="none" xmlns="http://www.w3.org/2000/svg">
<path d="M4 0.5C2.07009 0.5 0.5 2.07009 0.5 4C0.5 5.92991 2.07009 7.5 4 7.5C5.92991 7.5 7.5 5.92991 7.5 4C7.5 2.07009 5.92991 0.5 4 0.5ZM4 7.0625C2.31133 7.0625 0.9375 5.68867 0.9375 4C0.9375 2.31133 2.31133 0.9375 4 0.9375C5.68867 0.9375 7.0625 2.31133 7.0625 4C7.0625 5.68867 5.68867 7.0625 4 7.0625ZM5.43983 2.86953L4.30935 4L5.43983 5.13047C5.46044 5.15072 5.47684 5.17485 5.48808 5.20146C5.49931 5.22808 5.50517 5.25666 5.5053 5.28555C5.50543 5.31444 5.49983 5.34308 5.48884 5.36979C5.47784 5.39651 5.46166 5.42079 5.44123 5.44122C5.4208 5.46165 5.39653 5.47783 5.36981 5.48883C5.34309 5.49982 5.31446 5.50542 5.28557 5.50529C5.25668 5.50516 5.2281 5.49931 5.20148 5.48807C5.17486 5.47684 5.15073 5.46044 5.13049 5.43983L4 4.30935L2.86951 5.43983C2.84927 5.46044 2.82514 5.47684 2.79852 5.48807C2.7719 5.49931 2.74332 5.50516 2.71443 5.50529C2.68554 5.50542 2.65691 5.49982 2.63019 5.48883C2.60347 5.47783 2.5792 5.46165 2.55877 5.44122C2.53834 5.42079 2.52216 5.39651 2.51116 5.36979C2.50017 5.34308 2.49457 5.31444 2.4947 5.28555C2.49483 5.25666 2.50069 5.22808 2.51192 5.20146C2.52316 5.17485 2.53956 5.15072 2.56017 5.13047L3.69065 4L2.56017 2.86953C2.53956 2.84928 2.52316 2.82515 2.51192 2.79854C2.50069 2.77192 2.49483 2.74334 2.4947 2.71445C2.49457 2.68556 2.50017 2.65692 2.51116 2.63021C2.52216 2.60349 2.53834 2.57921 2.55877 2.55878C2.5792 2.53835 2.60347 2.52217 2.63019 2.51117C2.65691 2.50018 2.68554 2.49458 2.71443 2.49471C2.74332 2.49484 2.7719 2.50069 2.79852 2.51193C2.82514 2.52316 2.84927 2.53956 2.86951 2.56017L4 3.69065L5.13049 2.56017C5.15073 2.53956 5.17486 2.52316 5.20148 2.51193C5.2281 2.50069 5.25668 2.49484 5.28557 2.49471C5.31446 2.49458 5.34309 2.50018 5.36981 2.51117C5.39653 2.52217 5.4208 2.53835 5.44123 2.55878C5.46166 2.57921 5.47784 2.60349 5.48884 2.63021C5.49983 2.65692 5.50543 2.68556 5.5053 2.71445C5.50517 2.74334 5.49931 2.77192 5.48808 2.79854C5.47684 2.82515 5.46044 2.84928 5.43983 2.86953Z" fill="#AEAEAF"/>
</svg>
