<svg width="91" height="90" viewBox="0 0 91 90" fill="none" xmlns="http://www.w3.org/2000/svg">
<path d="M45.5 5C23.4439 5 5.5 22.9439 5.5 45C5.5 67.0561 23.4439 85 45.5 85C67.5561 85 85.5 67.0561 85.5 45C85.5 22.9439 67.5561 5 45.5 5ZM45.5 80C26.2009 80 10.5 64.2991 10.5 45C10.5 25.7009 26.2009 10 45.5 10C64.7991 10 80.5 25.7009 80.5 45C80.5 64.2991 64.7991 80 45.5 80ZM61.9552 32.0803L49.0355 45L61.9552 57.9197C62.1907 58.1511 62.3782 58.4268 62.5066 58.731C62.635 59.0352 62.7019 59.3618 62.7034 59.692C62.7049 60.0222 62.641 60.3494 62.5153 60.6548C62.3896 60.9601 62.2047 61.2376 61.9712 61.4711C61.7377 61.7046 61.4603 61.8895 61.155 62.0152C60.8496 62.1408 60.5224 62.2048 60.1922 62.2033C59.862 62.2018 59.5354 62.135 59.2312 62.0065C58.927 61.8781 58.6512 61.6907 58.4198 61.4552L45.5 48.5355L32.5802 61.4552C32.3488 61.6907 32.073 61.8781 31.7688 62.0065C31.4646 62.135 31.138 62.2018 30.8078 62.2033C30.4776 62.2048 30.1504 62.1408 29.845 62.0152C29.5397 61.8895 29.2623 61.7046 29.0288 61.4711C28.7953 61.2376 28.6104 60.9601 28.4847 60.6548C28.3591 60.3494 28.2951 60.0222 28.2966 59.692C28.2981 59.3618 28.365 59.0352 28.4934 58.731C28.6218 58.4268 28.8093 58.1511 29.0448 57.9197L41.9645 45L29.0448 32.0803C28.8093 31.8489 28.6218 31.5732 28.4934 31.269C28.365 30.9648 28.2981 30.6382 28.2966 30.308C28.2951 29.9778 28.3591 29.6506 28.4847 29.3452C28.6104 29.0399 28.7953 28.7624 29.0288 28.5289C29.2623 28.2954 29.5397 28.1105 29.845 27.9848C30.1504 27.8592 30.4776 27.7952 30.8078 27.7967C31.138 27.7982 31.4646 27.865 31.7688 27.9935C32.073 28.1219 32.3488 28.3093 32.5802 28.5448L45.5 41.4645L58.4198 28.5448C58.6512 28.3093 58.927 28.1219 59.2312 27.9935C59.5354 27.865 59.862 27.7982 60.1922 27.7967C60.5224 27.7952 60.8496 27.8592 61.155 27.9848C61.4603 28.1105 61.7377 28.2954 61.9712 28.5289C62.2047 28.7624 62.3896 29.0399 62.5153 29.3452C62.641 29.6506 62.7049 29.9778 62.7034 30.308C62.7019 30.6382 62.635 30.9648 62.5066 31.269C62.3782 31.5732 62.1907 31.8489 61.9552 32.0803Z" fill="url(#paint0_linear_1174_10489)"/>
<defs>
<linearGradient id="paint0_linear_1174_10489" x1="45.5" y1="85" x2="45.5" y2="5" gradientUnits="userSpaceOnUse">
<stop stop-color="#0B2C4C"/>
<stop offset="0.475" stop-color="#00A99D"/>
<stop offset="1" stop-color="#81319B"/>
</linearGradient>
</defs>
</svg>
