<svg width="26" height="22" viewBox="0 0 26 22" fill="none" xmlns="http://www.w3.org/2000/svg">
<path d="M21.481 3.45637H1.75318C1.06189 3.45637 0.5 4.01757 0.5 4.71025V20.055C0.5 20.7456 1.06189 21.3082 1.75318 21.3082H21.481C22.1729 21.3082 22.7348 20.7463 22.7348 20.055V4.70955C22.7328 4.01619 22.1729 3.45637 21.481 3.45637ZM20.2285 5.96205V17.2573L17.363 13.7794C17.2578 13.6514 17.0709 13.6285 16.9374 13.7268L13.6048 16.1605L7.88209 10.5935C7.81566 10.5284 7.72362 10.5001 7.63436 10.5056C7.54163 10.5139 7.45928 10.563 7.40669 10.6378L3.00637 16.9341V5.96205H20.2285ZM12.7135 10.6599C12.7135 9.53684 13.6262 8.62342 14.748 8.62342C15.871 8.62342 16.7831 9.53684 16.7831 10.6599C16.7831 11.7802 15.871 12.6951 14.748 12.6951C13.6262 12.6951 12.7135 11.7796 12.7135 10.6599ZM24.561 16.7653C24.042 16.7653 23.6227 16.3446 23.6227 15.827V2.56856H4.10247C3.58348 2.56856 3.16345 2.14921 3.16345 1.63023C3.16345 1.11193 3.58348 0.691895 4.10247 0.691895H24.561C25.08 0.691895 25.5 1.11193 25.5 1.63023V15.8277C25.5007 16.3446 25.08 16.7653 24.561 16.7653Z" fill="#0B2C4C"/>
</svg>
