<svg xmlns="http://www.w3.org/2000/svg" width="19" height="18" viewBox="0 0 19 18" fill="none">
  <path d="M7.14871 5.076C7.35571 4.626 7.4727 4.131 7.4727 3.6C7.4727 1.611 5.8617 0 3.8727 0C1.88371 0 0.272705 1.611 0.272705 3.6C0.272705 5.589 1.88371 7.2 3.8727 7.2C4.40371 7.2 4.89871 7.083 5.3487 6.876L7.4727 9L5.3487 11.124C4.89871 10.917 4.40371 10.8 3.8727 10.8C1.88371 10.8 0.272705 12.411 0.272705 14.4C0.272705 16.389 1.88371 18 3.8727 18C5.8617 18 7.4727 16.389 7.4727 14.4C7.4727 13.869 7.35571 13.374 7.14871 12.924L9.27271 10.8L15.5727 17.1H18.2727V16.2L7.14871 5.076ZM3.8727 5.4C2.8827 5.4 2.07271 4.599 2.07271 3.6C2.07271 2.601 2.8827 1.8 3.8727 1.8C4.8627 1.8 5.6727 2.601 5.6727 3.6C5.6727 4.599 4.8627 5.4 3.8727 5.4ZM3.8727 16.2C2.8827 16.2 2.07271 15.399 2.07271 14.4C2.07271 13.401 2.8827 12.6 3.8727 12.6C4.8627 12.6 5.6727 13.401 5.6727 14.4C5.6727 15.399 4.8627 16.2 3.8727 16.2ZM9.27271 9.45C9.02071 9.45 8.82271 9.252 8.82271 9C8.82271 8.748 9.02071 8.55 9.27271 8.55C9.5247 8.55 9.7227 8.748 9.7227 9C9.7227 9.252 9.5247 9.45 9.27271 9.45ZM15.5727 0.9L10.1727 6.3L11.9727 8.1L18.2727 1.8V0.9H15.5727Z" fill="#0B2C4C"/>
</svg>