<svg width="80" height="80" viewBox="0 0 80 80" fill="none" xmlns="http://www.w3.org/2000/svg">
<g clip-path="url(#clip0_4061_14080)">
<path d="M80.3317 36.493C80.0271 35.5529 79.3307 34.763 78.3955 34.2971C77.4604 33.8312 76.3631 33.7275 75.3452 34.0087L39.5209 43.9073C39.3223 43.9623 39.1403 44.0591 38.9892 44.1902L34.6369 47.9673C34.4561 48.1241 34.3262 48.3243 34.2617 48.5455C34.1973 48.7667 34.2007 49 34.2718 49.2195C34.3429 49.4389 34.4787 49.6358 34.664 49.7879C34.8494 49.9401 35.077 50.0416 35.3213 50.0811L41.2046 51.0301C41.4089 51.063 41.6186 51.0516 41.8173 50.9968L70.8853 42.9647L71.0112 45.5046L61.7747 48.0567L62.5403 50.4201L72.7757 47.5917C73.0611 47.5129 73.3097 47.3483 73.4821 47.124C73.6545 46.8998 73.7408 46.6287 73.7272 46.3539L73.5231 42.2371L77.6419 41.099C78.6598 40.8177 79.5151 40.1745 80.0195 39.3108C80.524 38.4472 80.6363 37.4338 80.3317 36.4937V36.493ZM41.354 48.5503L38.4123 48.0758L40.5885 46.1871L46.6836 44.5033L47.4492 46.8664L41.354 48.5503ZM50.0079 46.1591L49.2424 43.796L70.6338 37.8851L70.7596 40.4251L50.0079 46.1591ZM77.6691 38.1388C77.5862 38.2817 77.4734 38.4079 77.3374 38.5102C77.2014 38.6125 77.0447 38.6889 76.8765 38.735L73.3974 39.6962L73.2715 37.1563L76.1109 36.3718C76.3639 36.3019 76.6338 36.3028 76.8862 36.3745C77.1387 36.4462 77.3624 36.5854 77.5292 36.7746C77.696 36.9637 77.7983 37.1943 77.8232 37.4371C77.8481 37.68 77.7945 37.9242 77.6691 38.1388Z" fill="url(#paint0_linear_4061_14080)"/>
<path d="M52.9128 53.7997H30.2096V35.2997C30.2096 34.9726 30.0689 34.6589 29.8185 34.4276C29.568 34.1963 29.2283 34.0664 28.8741 34.0664H4.83548C4.48129 34.0664 4.1416 34.1963 3.89115 34.4276C3.6407 34.6589 3.5 34.9726 3.5 35.2997V74.7664C3.5 75.0935 3.6407 75.4072 3.89115 75.6385C4.1416 75.8698 4.48129 75.9997 4.83548 75.9997H52.9128C53.267 75.9997 53.6067 75.8698 53.8571 75.6385C54.1076 75.4072 54.2483 75.0935 54.2483 74.7664V55.0331C54.2483 54.706 54.1076 54.3923 53.8571 54.161C53.6067 53.9297 53.267 53.7997 52.9128 53.7997ZM38.2225 56.2664H43.5644V61.1997H38.2225V56.2664ZM14.1838 36.5331H19.5258V41.4664H14.1838V36.5331ZM6.17096 36.5331H11.5129V42.6997C11.5129 43.0268 11.6536 43.3405 11.904 43.5718C12.1545 43.8031 12.4942 43.9331 12.8484 43.9331H20.8612C21.2154 43.9331 21.5551 43.8031 21.8056 43.5718C22.056 43.3405 22.1967 43.0268 22.1967 42.6997V36.5331H27.5387V53.7997H6.17096V36.5331ZM14.1838 56.2664H19.5258V61.1997H14.1838V56.2664ZM6.17096 56.2664H11.5129V62.4331C11.5129 62.7602 11.6536 63.0739 11.904 63.3052C12.1545 63.5365 12.4942 63.6664 12.8484 63.6664H20.8612C21.2154 63.6664 21.5551 63.5365 21.8056 63.3052C22.056 63.0739 22.1967 62.7602 22.1967 62.4331V56.2664H27.5387V73.5331H6.17096V56.2664ZM51.5773 73.5331H30.2096V56.2664H35.5515V62.4331C35.5515 62.7602 35.6922 63.0739 35.9427 63.3052C36.1931 63.5365 36.5328 63.6664 36.887 63.6664H44.8999C45.2541 63.6664 45.5938 63.5365 45.8442 63.3052C46.0947 63.0739 46.2354 62.7602 46.2354 62.4331V56.2664H51.5773V73.5331Z" fill="url(#paint1_linear_4061_14080)"/>
<path d="M46.2354 68.5996H48.9063V71.0663H46.2354V68.5996Z" fill="url(#paint2_linear_4061_14080)"/>
<path d="M22.1963 68.5996H24.8673V71.0663H22.1963V68.5996Z" fill="url(#paint3_linear_4061_14080)"/>
<path d="M22.1963 48.8662H24.8673V51.3329H22.1963V48.8662Z" fill="url(#paint4_linear_4061_14080)"/>
<path d="M24.8673 11.8667C24.8681 11.2127 25.1498 10.5857 25.6505 10.1233C26.1512 9.6609 26.8301 9.40078 27.5382 9.4H35.5511V11.8667H28.8737C28.5195 11.8667 28.1798 11.9966 27.9294 12.2279C27.6789 12.4592 27.5382 12.7729 27.5382 13.1V31.6H30.2092V14.3333H62.2607V34.0667H64.9317V13.1C64.9317 12.7729 64.791 12.4592 64.5405 12.2279C64.2901 11.9966 63.9504 11.8667 63.5962 11.8667H56.9188V9.4H64.9317C65.6398 9.40078 66.3187 9.6609 66.8194 10.1233C67.3201 10.5857 67.6018 11.2127 67.6026 11.8667V32.8333H70.2736V11.8667C70.272 10.5587 69.7087 9.30476 68.7072 8.3799C67.7058 7.45503 66.3479 6.9348 64.9317 6.93333H51.9518L52.8724 3.53242C52.9217 3.35059 52.9254 3.1608 52.8833 2.97746C52.8411 2.79411 52.7544 2.62204 52.6295 2.47432C52.5046 2.32659 52.3449 2.2071 52.1625 2.12491C51.9801 2.04272 51.7798 2 51.5769 2H40.893C40.6901 2 40.4898 2.04272 40.3074 2.12491C40.125 2.2071 39.9653 2.32659 39.8404 2.47432C39.7155 2.62204 39.6287 2.79411 39.5866 2.97746C39.5445 3.1608 39.5482 3.35059 39.5974 3.53242L40.5181 6.93333H27.5382C26.1219 6.9348 24.7641 7.45503 23.7627 8.3799C22.7612 9.30476 22.1979 10.5587 22.1963 11.8667V31.6H24.8673V11.8667ZM38.2221 9.4H42.2285C42.4314 9.4 42.6317 9.35728 42.8141 9.27509C42.9965 9.1929 43.1562 9.0734 43.2811 8.92568C43.406 8.77796 43.4928 8.60589 43.5349 8.42254C43.577 8.2392 43.5733 8.04941 43.5241 7.86758L42.6034 4.46667H49.8664L48.9458 7.86758C48.8966 8.04941 48.8929 8.2392 48.935 8.42254C48.9771 8.60589 49.0639 8.77796 49.1888 8.92568C49.3137 9.0734 49.4734 9.1929 49.6558 9.27509C49.8382 9.35728 50.0384 9.4 50.2414 9.4H54.2478V11.8667H38.2221V9.4Z" fill="url(#paint5_linear_4061_14080)"/>
<path d="M67.6028 62.433C67.602 63.087 67.3203 63.7139 66.8196 64.1764C66.3188 64.6388 65.64 64.8989 64.9318 64.8997H56.9189V67.3663H64.9318C66.3481 67.3649 67.7059 66.8446 68.7074 65.9198C69.7088 64.9949 70.2722 63.741 70.2738 62.433V51.333H67.6028V62.433Z" fill="url(#paint6_linear_4061_14080)"/>
<path d="M64.9318 61.1997V52.5664H62.2609V59.9664H56.9189V62.4331H63.5963C63.9505 62.4331 64.2902 62.3031 64.5407 62.0718C64.7911 61.8405 64.9318 61.5268 64.9318 61.1997Z" fill="url(#paint7_linear_4061_14080)"/>
<path d="M40.8937 18.0331C40.8937 17.706 40.753 17.3923 40.5026 17.161C40.2521 16.9297 39.9125 16.7998 39.5583 16.7998H34.2163C33.8621 16.7998 33.5225 16.9297 33.272 17.161C33.0216 17.3923 32.8809 17.706 32.8809 18.0331V22.9665C32.8809 23.2936 33.0216 23.6073 33.272 23.8386C33.5225 24.0699 33.8621 24.1998 34.2163 24.1998H39.5583C39.9125 24.1998 40.2521 24.0699 40.5026 23.8386C40.753 23.6073 40.8937 23.2936 40.8937 22.9665V18.0331ZM38.2228 21.7331H35.5518V19.2665H38.2228V21.7331Z" fill="url(#paint8_linear_4061_14080)"/>
<path d="M39.5583 27.9004H34.2163C33.8621 27.9004 33.5225 28.0303 33.272 28.2616C33.0216 28.4929 32.8809 28.8066 32.8809 29.1337V34.0671C32.8809 34.3942 33.0216 34.7079 33.272 34.9392C33.5225 35.1705 33.8621 35.3004 34.2163 35.3004H39.5583C39.9125 35.3004 40.2521 35.1705 40.5026 34.9392C40.753 34.7079 40.8937 34.3942 40.8937 34.0671V29.1337C40.8937 28.8066 40.753 28.4929 40.5026 28.2616C40.2521 28.0303 39.9125 27.9004 39.5583 27.9004ZM38.2228 32.8337H35.5518V30.3671H38.2228V32.8337Z" fill="url(#paint9_linear_4061_14080)"/>
<path d="M43.5645 16.7998H46.2354V19.2665H43.5645V16.7998Z" fill="url(#paint10_linear_4061_14080)"/>
<path d="M43.5645 21.7334H59.5902V24.2001H43.5645V21.7334Z" fill="url(#paint11_linear_4061_14080)"/>
<path d="M48.9062 16.7998H59.5901V19.2665H48.9062V16.7998Z" fill="url(#paint12_linear_4061_14080)"/>
<path d="M43.5645 27.9004H46.2354V30.3671H43.5645V27.9004Z" fill="url(#paint13_linear_4061_14080)"/>
<path d="M43.5645 32.833H59.5902V35.2997H43.5645V32.833Z" fill="url(#paint14_linear_4061_14080)"/>
<path d="M48.9062 27.9004H59.5901V30.3671H48.9062V27.9004Z" fill="url(#paint15_linear_4061_14080)"/>
</g>
<defs>
<linearGradient id="paint0_linear_4061_14080" x1="57.3588" y1="3.84725" x2="57.3588" y2="60.8183" gradientUnits="userSpaceOnUse">
<stop stop-color="#81319B"/>
<stop offset="0.505207" stop-color="#00A99D"/>
<stop offset="1" stop-color="#0B2C4C"/>
</linearGradient>
<linearGradient id="paint1_linear_4061_14080" x1="28.8741" y1="3.84743" x2="28.8741" y2="60.8185" gradientUnits="userSpaceOnUse">
<stop stop-color="#81319B"/>
<stop offset="0.5" stop-color="#00A99D"/>
<stop offset="1" stop-color="#0B2C4C"/>
</linearGradient>
<linearGradient id="paint2_linear_4061_14080" x1="47.5708" y1="3.84729" x2="47.5708" y2="60.8184" gradientUnits="userSpaceOnUse">
<stop offset="0.129" stop-color="#0B2C4C"/>
</linearGradient>
<linearGradient id="paint3_linear_4061_14080" x1="23.5318" y1="3.84729" x2="23.5318" y2="60.8184" gradientUnits="userSpaceOnUse">
<stop offset="0.129" stop-color="#0B2C4C"/>
</linearGradient>
<linearGradient id="paint4_linear_4061_14080" x1="23.5318" y1="3.84723" x2="23.5318" y2="60.8183" gradientUnits="userSpaceOnUse">
<stop stop-color="#81319B"/>
<stop offset="0.53" stop-color="#00A99D"/>
<stop offset="1" stop-color="#0B2C4C"/>
</linearGradient>
<linearGradient id="paint5_linear_4061_14080" x1="46.2349" y1="3.84769" x2="46.2349" y2="60.8187" gradientUnits="userSpaceOnUse">
<stop offset="0.0611444" stop-color="#81319B"/>
<stop offset="0.516374" stop-color="#00A99D"/>
<stop offset="1" stop-color="#0B2C4C"/>
</linearGradient>
<linearGradient id="paint6_linear_4061_14080" x1="63.5963" y1="3.84736" x2="63.5963" y2="64.653" gradientUnits="userSpaceOnUse">
<stop stop-color="#81319B"/>
<stop offset="0.48" stop-color="#00A99D"/>
<stop offset="1" stop-color="#0B2C4C"/>
</linearGradient>
<linearGradient id="paint7_linear_4061_14080" x1="60.9254" y1="3.84742" x2="60.9254" y2="60.8185" gradientUnits="userSpaceOnUse">
<stop stop-color="#81319B"/>
<stop offset="0.495" stop-color="#00A99D"/>
<stop offset="1" stop-color="#0B2C4C"/>
</linearGradient>
<linearGradient id="paint8_linear_4061_14080" x1="36.8873" y1="3.84749" x2="36.8873" y2="60.8186" gradientUnits="userSpaceOnUse">
<stop stop-color="#81319B"/>
<stop offset="0.5" stop-color="#00A99D"/>
<stop offset="1" stop-color="#0B2C4C"/>
</linearGradient>
<linearGradient id="paint9_linear_4061_14080" x1="36.8873" y1="3.84808" x2="36.8873" y2="60.8191" gradientUnits="userSpaceOnUse">
<stop stop-color="#81319B"/>
<stop offset="0.5" stop-color="#00A99D"/>
<stop offset="1" stop-color="#0B2C4C"/>
</linearGradient>
<linearGradient id="paint10_linear_4061_14080" x1="44.8999" y1="3.84749" x2="44.8999" y2="60.8186" gradientUnits="userSpaceOnUse">
<stop stop-color="#81319B"/>
<stop offset="0.51" stop-color="#00A99D"/>
<stop offset="1" stop-color="#0B2C4C"/>
</linearGradient>
<linearGradient id="paint11_linear_4061_14080" x1="51.5773" y1="3.84775" x2="51.5773" y2="60.8188" gradientUnits="userSpaceOnUse">
<stop stop-color="#81319B"/>
<stop offset="0.485" stop-color="#00A99D"/>
<stop offset="1" stop-color="#0B2C4C"/>
</linearGradient>
<linearGradient id="paint12_linear_4061_14080" x1="54.2482" y1="3.84749" x2="54.2482" y2="60.8186" gradientUnits="userSpaceOnUse">
<stop stop-color="#81319B"/>
<stop offset="0.5" stop-color="#00A99D"/>
<stop offset="1" stop-color="#0B2C4C"/>
</linearGradient>
<linearGradient id="paint13_linear_4061_14080" x1="44.8999" y1="3.84808" x2="44.8999" y2="60.8191" gradientUnits="userSpaceOnUse">
<stop stop-color="#81319B"/>
<stop offset="0.515" stop-color="#00A99D"/>
<stop offset="1" stop-color="#0B2C4C"/>
</linearGradient>
<linearGradient id="paint14_linear_4061_14080" x1="51.5773" y1="3.84736" x2="51.5773" y2="60.8184" gradientUnits="userSpaceOnUse">
<stop stop-color="#81319B"/>
<stop offset="0.52" stop-color="#00A99D"/>
<stop offset="1" stop-color="#0B2C4C"/>
</linearGradient>
<linearGradient id="paint15_linear_4061_14080" x1="54.2482" y1="3.84808" x2="54.2482" y2="60.8191" gradientUnits="userSpaceOnUse">
<stop stop-color="#81319B"/>
<stop offset="0.5" stop-color="#00A99D"/>
<stop offset="1" stop-color="#0B2C4C"/>
</linearGradient>
<clipPath id="clip0_4061_14080">
<rect width="80" height="80" fill="white" transform="translate(0.5)"/>
</clipPath>
</defs>
</svg>
