<svg width="100" height="92" viewBox="0 0 100 92" fill="none" xmlns="http://www.w3.org/2000/svg">
<path d="M14.9591 33.6119L58.0728 8.66821L69.4404 15.2459L27.1926 39.6911C26.6635 39.9966 26.3268 40.5595 26.3268 41.1867V50.5305L14.9591 43.9529V33.6119Z" fill="#02BAAD" fill-opacity="0.4"/>
<path d="M50.986 77.1631C50.986 82.8401 52.7978 88.0991 55.8602 92.3931L43.0976 99.7748L0 74.8311V24.9437L43.0976 0L54.6256 6.67417L12.3777 31.1193C11.8486 31.4249 11.5119 31.9878 11.5119 32.615V44.9662C11.5119 45.5774 11.8486 46.1402 12.3777 46.4619L27.1926 55.0338C27.4651 55.1785 27.7698 55.2589 28.0584 55.2589C28.347 55.2589 28.6516 55.1785 28.9242 55.0338C29.4533 54.7121 29.7739 54.1492 29.7739 53.5381V42.184L72.8876 17.2403L86.2113 24.9437V52.4767C83.4055 51.4474 80.3752 50.8684 77.2166 50.8684C62.7545 50.8684 50.986 62.6729 50.986 77.1631Z" fill="#02BAAD" fill-opacity="0.4"/>
<path d="M77.2166 54.3262C64.6465 54.3262 54.4332 64.5706 54.4332 77.1631C54.4332 89.7556 64.6465 100 77.2166 100C89.7868 100 100 89.7556 100 77.1631C100 64.5706 89.7707 54.3262 77.2166 54.3262ZM91.2137 78.9H78.9322V91.203C78.9322 92.1518 78.1626 92.9238 77.2166 92.9238C76.2707 92.9238 75.485 92.1518 75.485 91.203V78.9H63.2035C62.2415 78.9 61.4719 78.128 61.4719 77.1631C61.4719 76.1982 62.2415 75.4423 63.2035 75.4423H75.485V63.1232C75.485 62.1744 76.2546 61.4024 77.2166 61.4024C78.1786 61.4024 78.9322 62.1744 78.9322 63.1232V75.4423H91.2137C92.1757 75.4423 92.9453 76.2142 92.9453 77.1631C92.9453 78.112 92.1757 78.9 91.2137 78.9Z" fill="#02BAAD" fill-opacity="0.4"/>
<path d="M69.4404 15.2459L27.1926 39.6911C26.6635 39.9966 26.3268 40.5595 26.3268 41.1867V50.5305L14.9591 43.9529V33.6119L58.0728 8.66821L69.4404 15.2459Z" fill="#02BAAD" fill-opacity="0.4"/>
</svg>
