<svg width="92" height="92" viewBox="0 0 92 92" fill="none" xmlns="http://www.w3.org/2000/svg">
<path d="M70.7692 57.152C59.039 57.152 49.5385 66.747 49.5385 78.576C49.5385 90.405 59.039 100 70.7692 100C82.4995 100 92 90.405 92 78.576C92 66.747 82.4833 57.152 70.7692 57.152ZM85.4078 86.1138C85.4078 86.6924 85.0685 87.2228 84.5353 87.4638L72.2234 92.7837C71.8518 92.9283 71.4478 92.9283 71.0762 92.7837L58.7643 87.4638C58.2311 87.2228 57.8757 86.6924 57.8757 86.1138V72.7901C57.8757 72.2919 58.1019 71.8258 58.6835 71.4883L70.9954 65.2684C71.3994 65.0273 71.8033 64.9791 72.3042 65.2684L84.5999 71.4883C84.9715 71.6972 85.4078 72.099 85.4078 72.7901V86.1138ZM57.7787 57.2806C60.1377 55.8181 62.7229 54.7573 65.4212 54.1627C58.5381 44.6802 48.359 39.28 37.1458 39.28C27.0797 39.28 17.7731 43.6355 10.9547 51.5268C4.08781 59.4825 0.210046 70.5722 0 82.8512C4.0555 84.9245 20.7299 92.864 37.1458 92.864C41.3467 92.848 45.5314 92.4462 49.6677 91.6586C42.4939 79.91 46.1293 64.513 57.7787 57.2806ZM37.1458 35.712C46.921 35.712 54.8381 27.7242 54.8381 17.856C54.8381 7.98778 46.921 0 37.1458 0C27.3706 0 19.4535 8.00386 19.4535 17.856C19.4696 27.7242 27.3867 35.712 37.1458 35.712Z" fill="#0B2C4C" fill-opacity="0.4"/>
<path d="M70.1875 79.0901V89.1994L60.784 85.1492V75.0078L70.1875 79.0901Z" fill="#0B2C4C" fill-opacity="0.4"/>
<path d="M80.5121 72.6936L71.6417 76.5187L62.7875 72.6936L71.6417 68.2095L80.5121 72.6936Z" fill="#0B2C4C" fill-opacity="0.4"/>
<path d="M82.4995 75.0239V85.1493L73.0959 89.1994V79.0901L82.4995 75.0239Z" fill="#0B2C4C" fill-opacity="0.4"/>
</svg>
