<svg width="100" height="92" viewBox="0 0 100 92" fill="none" xmlns="http://www.w3.org/2000/svg">
<path d="M99.4269 39.979L50.9022 0.30003C50.6622 0.105011 50.3772 0 50.0772 0C49.7772 0 49.4922 0.105011 49.2522 0.30003L0.592496 39.979C0.352498 40.174 0.172499 40.459 0.0674996 40.7891C-0.0224999 41.1041 -0.0224999 41.4641 0.0674996 41.7942C0.157499 42.1092 0.337498 42.4092 0.592496 42.6043C0.832495 42.7993 1.11749 42.9193 1.41749 42.9193C1.71749 42.9193 2.01749 42.8143 2.25749 42.6193L10.1324 36.2136V98.3948C10.1174 98.6049 10.1474 98.8149 10.2224 99.0099C10.2974 99.2049 10.3874 99.3849 10.5224 99.535C10.6424 99.685 10.8074 99.805 10.9724 99.88C11.1374 99.97 11.3174 100 11.5124 100H88.5069C88.6869 100 88.8819 99.97 89.0469 99.88C89.2119 99.805 89.3619 99.685 89.4969 99.535C89.6319 99.3849 89.7219 99.2049 89.7969 99.0099C89.8569 98.8149 89.9019 98.6049 89.8869 98.3948V36.1986L97.7619 42.6193C98.0619 42.8593 98.4369 42.9643 98.8119 42.8893C99.1869 42.8143 99.5169 42.5893 99.7269 42.2442C99.9519 41.8992 100.042 41.4641 99.9819 41.0291C99.9219 40.6091 99.7269 40.234 99.4269 39.979ZM20.4524 44.4644V41.9292H79.567V44.4644H20.4524ZM20.4524 38.6889V36.3636H79.567V38.6889H20.4524ZM39.6823 96.7597H26.3173V82.8833H28.5523V88.2538C28.5523 88.5389 28.6123 88.8239 28.7473 89.0789C28.8673 89.3339 29.0623 89.544 29.2873 89.679C29.5123 89.814 29.7673 89.889 30.0223 89.874C30.2773 89.859 30.5173 89.754 30.7423 89.604L32.9773 87.8788L35.2273 89.604C35.4673 89.769 35.7373 89.874 36.0223 89.874C36.2473 89.874 36.4873 89.799 36.6973 89.679C36.9223 89.544 37.1173 89.3339 37.2523 89.0789C37.3873 88.8389 37.4473 88.5389 37.4623 88.2538V82.8833H39.6823V96.7597ZM32.8123 71.9622C32.9323 72.2172 33.1273 72.4122 33.3523 72.5623C33.5773 72.6973 33.8323 72.7573 34.0873 72.7423C34.3423 72.7423 34.5823 72.6373 34.7923 72.4722L37.0423 70.7621L39.2923 72.4722C39.5322 72.6523 39.8022 72.7423 40.0872 72.7423C40.3122 72.7423 40.5522 72.6823 40.7622 72.5473C40.9872 72.4122 41.1822 72.2172 41.3172 71.9622C41.4522 71.7072 41.5122 71.4221 41.5272 71.1221V65.7516H43.7472V79.643H30.3823V65.7516H32.6173V71.1221C32.6173 71.4221 32.6773 71.7072 32.8123 71.9622ZM35.4373 68.0918V65.7516H38.6773V68.0918L37.8223 67.4617C37.5973 67.2817 37.3273 67.1917 37.0423 67.1917C36.7573 67.1917 36.4873 67.2817 36.2623 67.4617L35.4373 68.0918ZM34.6273 82.8833V85.2235L33.7723 84.5935C33.5473 84.4134 33.2773 84.3084 32.9923 84.3084C32.7223 84.3084 32.4373 84.4134 32.2123 84.5935L31.3873 85.2235V82.8833H34.6273ZM55.8822 96.7597H42.5172V82.8833H44.7522V88.2538C44.7372 88.5389 44.8122 88.8239 44.9322 89.0789C45.0672 89.3339 45.2622 89.544 45.4872 89.679C45.7122 89.814 45.9672 89.889 46.2222 89.874C46.4772 89.859 46.7172 89.754 46.9272 89.604L49.1772 87.8788L51.4272 89.604C51.6672 89.769 51.9372 89.874 52.2072 89.874C52.4472 89.874 52.6872 89.799 52.8972 89.679C53.1222 89.544 53.3172 89.3339 53.4522 89.0789C53.5722 88.8389 53.6472 88.5389 53.6472 88.2538V82.8833H55.8822V96.7597ZM48.9822 71.9622C49.1172 72.2172 49.3122 72.4122 49.5372 72.5623C49.7622 72.6973 50.0172 72.7573 50.2722 72.7423C50.5272 72.7423 50.7672 72.6373 50.9772 72.4722L53.2272 70.7621L55.4772 72.4722C55.7172 72.6523 55.9871 72.7423 56.2571 72.7423C56.4971 72.7423 56.7371 72.6823 56.9471 72.5473C57.1721 72.4122 57.3671 72.2172 57.4871 71.9622C57.6221 71.7072 57.6971 71.4221 57.6971 71.1221V65.7516H59.9321V79.643H46.5672V65.7516H48.7872V71.1221C48.7872 71.4221 48.8622 71.7072 48.9822 71.9622ZM51.6222 68.0918V65.7516H54.8622V68.0918L54.0222 67.4617C53.7972 67.2817 53.5122 67.1917 53.2422 67.1917C52.9572 67.1917 52.6872 67.2817 52.4622 67.4617L51.6222 68.0918ZM50.8122 82.8833V85.2235L49.9722 84.5935C49.7472 84.4134 49.4622 84.3084 49.1922 84.3084C48.9072 84.3084 48.6372 84.4134 48.4122 84.5935L47.5722 85.2235V82.8833H50.8122ZM72.082 96.7597H58.7171V82.8833H60.9371V88.2538C60.9371 88.5389 61.0121 88.8239 61.1321 89.0789C61.2671 89.3339 61.4471 89.544 61.6721 89.679C61.8971 89.814 62.1521 89.889 62.4071 89.874C62.6621 89.859 62.9171 89.754 63.1271 89.604L65.3771 87.8788L67.6271 89.604C67.8521 89.769 68.1371 89.874 68.4071 89.874C68.6471 89.874 68.8871 89.799 69.0821 89.679C69.3221 89.544 69.5021 89.3339 69.6371 89.0789C69.7721 88.8389 69.8471 88.5389 69.8471 88.2538V82.8833H72.082V96.7597ZM63.7721 85.2235V82.8833H67.0121V85.2235L66.1721 84.5935C65.9321 84.4134 65.6621 84.3084 65.3921 84.3084C65.1071 84.3084 64.8371 84.4134 64.5971 84.5935L63.7721 85.2235ZM80.317 97.5098H74.167V81.3081C74.152 81.0531 74.077 80.8131 73.912 80.6331C73.792 80.483 73.627 80.393 73.447 80.393H62.0171V64.1914C62.0171 63.9364 61.9271 63.6814 61.7771 63.5014C61.6421 63.3513 61.4771 63.2763 61.2971 63.2613H28.9273C28.7923 63.2613 28.6273 63.3513 28.5073 63.5014C28.3573 63.6814 28.2823 63.9214 28.2823 64.1764V80.393H24.8773C24.7423 80.393 24.5773 80.483 24.4573 80.6331C24.3073 80.7981 24.2323 81.0531 24.2323 81.2931V97.5098H19.7024V52.5052H80.317V97.5098ZM22.7324 81.3081C22.7324 80.7081 22.9274 80.123 23.3024 79.673C23.7074 79.1929 24.2773 78.9079 24.8623 78.8929H26.7823V64.1914C26.7823 63.5764 26.9773 62.9913 27.3523 62.5412C27.7573 62.0612 28.3123 61.7912 28.9123 61.7612H61.3271C61.9421 61.7912 62.4971 62.0612 62.9021 62.5263C63.2921 62.9763 63.5021 63.5614 63.5171 64.1764V78.8929H73.477C74.077 78.9079 74.647 79.1779 75.052 79.658C75.442 80.093 75.652 80.6781 75.667 81.3081V96.0096H78.817V54.0054H21.2024V96.0096H22.7324V81.3081Z" fill="#81319B" fill-opacity="0.4"/>
</svg>
