<svg width="92" height="92" viewBox="0 0 92 92" fill="none" xmlns="http://www.w3.org/2000/svg">
<path d="M70.7692 57.152C59.039 57.152 49.5385 66.747 49.5385 78.576C49.5385 90.405 59.039 100 70.7692 100C82.4995 100 92 90.405 92 78.576C92 66.747 82.4833 57.152 70.7692 57.152ZM83.1458 80.36H72.5304V91.08C72.5304 92.0604 71.7387 92.864 70.7692 92.864C69.7998 92.864 68.9919 92.0604 68.9919 91.08V80.36H58.3765C57.4071 80.36 56.6154 79.5564 56.6154 78.576C56.6154 77.5956 57.4071 76.792 58.3765 76.792H68.9919V66.072C68.9919 65.0916 69.7836 64.288 70.7692 64.288C71.7548 64.288 72.5304 65.0916 72.5304 66.072V76.792H83.1458C84.1314 76.792 84.9231 77.5796 84.9231 78.576C84.9231 79.5725 84.1314 80.36 83.1458 80.36ZM57.7787 57.2806C60.1377 55.8181 62.7229 54.7573 65.4212 54.1627C58.5381 44.6802 48.359 39.28 37.1458 39.28C27.0797 39.28 17.7731 43.6355 10.9547 51.5268C4.08781 59.4825 0.210046 70.5722 0 82.8512C4.0555 84.9245 20.7299 92.864 37.1458 92.864C41.3467 92.848 45.5314 92.4462 49.6677 91.6586C42.4939 79.91 46.1293 64.513 57.7787 57.2806ZM37.1458 35.712C46.921 35.712 54.8381 27.7242 54.8381 17.856C54.8381 7.98778 46.921 0 37.1458 0C27.3706 0 19.4535 8.00386 19.4535 17.856C19.4696 27.7242 27.3867 35.712 37.1458 35.712Z" fill="#5B7EF8" fill-opacity="0.4"/>
</svg>
