<svg width="91" height="90" viewBox="0 0 91 90" fill="none" xmlns="http://www.w3.org/2000/svg">
<path d="M62.7068 35.3039H21.7544C21.4186 35.2976 21.0942 35.4281 20.8549 35.6657C20.6162 35.9033 20.4822 36.2279 20.4834 36.5657V77.097C20.4834 79.2646 21.2357 81.2764 22.6126 82.733C23.9681 84.1839 25.8605 85.0045 27.8394 85.0001H56.6212C58.595 85.0039 60.4818 84.1826 61.8298 82.733C63.2067 81.2751 63.9415 79.2639 63.9415 77.097V36.5657C63.9515 36.2311 63.825 35.9077 63.5919 35.6695C63.3589 35.4312 63.0388 35.2995 62.7068 35.3039ZM61.3757 77.097C61.3757 80.1129 59.3586 82.4185 56.6212 82.4185H27.8394C25.102 82.4185 23.0492 80.1129 23.0492 77.097V37.8855H61.3757V77.097Z" fill="url(#paint0_linear_2563_15156)"/>
<path d="M51.2731 75.3565C51.9816 75.3565 52.556 74.7785 52.556 74.0657V43.6062C52.556 42.8934 51.9816 42.3154 51.2731 42.3154C50.5647 42.3154 49.9902 42.8934 49.9902 43.6062V74.0657C49.9902 74.7785 50.5647 75.3565 51.2731 75.3565Z" fill="url(#paint1_linear_2563_15156)"/>
<path d="M33.152 75.3565C33.8605 75.3565 34.4349 74.7785 34.4349 74.0657V43.6062C34.4349 42.8934 33.8605 42.3154 33.152 42.3154C32.4436 42.3154 31.8691 42.8934 31.8691 43.6062V74.0657C31.8691 74.7785 32.4436 75.3565 33.152 75.3565Z" fill="url(#paint2_linear_2563_15156)"/>
<path d="M67.4023 18.8473L59.9179 17.1979L60.3852 15.0499C61.0761 11.8764 59.0791 8.74016 55.9245 8.04496L42.7285 5.13749C39.5745 4.44229 36.4574 6.45162 35.7671 9.6257L35.2992 11.7737L27.8148 10.1249C24.6602 9.42905 21.5432 11.439 20.8522 14.6125L19.03 22.9857C18.8784 23.6822 19.3163 24.3704 20.0085 24.523L68.5123 35.2099C68.8449 35.2837 69.1925 35.2213 69.4788 35.0366C69.7657 34.8519 69.9674 34.5601 70.0401 34.2261L71.8636 25.8522C72.5539 22.6788 70.5569 19.5425 67.4029 18.8473H67.4023ZM38.2734 10.1778C38.6605 8.39666 40.4101 7.26909 42.1803 7.65923L55.3764 10.5667C57.1466 10.9568 58.2673 12.7166 57.8795 14.4977L57.4122 16.6457L37.8055 12.3258L38.2734 10.1778ZM69.3567 25.3001L67.8088 32.4121L21.8113 22.2773L23.3591 15.1652C23.7463 13.384 25.4958 12.2565 27.2661 12.6466L66.8535 21.369C68.6238 21.7592 69.7444 23.5189 69.3567 25.3001Z" fill="url(#paint3_linear_2563_15156)"/>
<path d="M42.2927 75.3565C43.0011 75.3565 43.5756 74.7785 43.5756 74.0657V43.6062C43.5756 42.8934 43.0011 42.3154 42.2927 42.3154C41.5842 42.3154 41.0098 42.8934 41.0098 43.6062V74.0657C41.0098 74.7785 41.5842 75.3565 42.2927 75.3565Z" fill="url(#paint4_linear_2563_15156)"/>
<defs>
<linearGradient id="paint0_linear_2563_15156" x1="42.2126" y1="8.48214" x2="42.2126" y2="82.5893" gradientUnits="userSpaceOnUse">
<stop stop-color="#81319B"/>
<stop offset="0.43" stop-color="#00A99D"/>
<stop offset="0.995" stop-color="#0B2C4C"/>
</linearGradient>
<linearGradient id="paint1_linear_2563_15156" x1="51.2731" y1="42.3154" x2="51.2731" y2="75.3565" gradientUnits="userSpaceOnUse">
<stop stop-color="#81319B"/>
<stop offset="0.48" stop-color="#00A99D"/>
<stop offset="1" stop-color="#0B2C4C"/>
</linearGradient>
<linearGradient id="paint2_linear_2563_15156" x1="33.152" y1="42.3154" x2="33.152" y2="75.3565" gradientUnits="userSpaceOnUse">
<stop stop-color="#81319B"/>
<stop offset="0.48" stop-color="#00A99D"/>
<stop offset="1" stop-color="#0B2C4C"/>
</linearGradient>
<linearGradient id="paint3_linear_2563_15156" x1="45.5004" y1="8.48207" x2="45.5004" y2="82.5892" gradientUnits="userSpaceOnUse">
<stop stop-color="#81319B"/>
<stop offset="0.495" stop-color="#00A99D"/>
<stop offset="1" stop-color="#0B2C4C"/>
</linearGradient>
<linearGradient id="paint4_linear_2563_15156" x1="42.2927" y1="42.3154" x2="42.2927" y2="75.3565" gradientUnits="userSpaceOnUse">
<stop stop-color="#81319B"/>
<stop offset="0.48" stop-color="#00A99D"/>
<stop offset="1" stop-color="#0B2C4C"/>
</linearGradient>
</defs>
</svg>
