<svg width="53" height="53" viewBox="0 0 53 53" fill="none" xmlns="http://www.w3.org/2000/svg">
<path d="M28.21 3.41992H25.6455V11.9683H28.21C30.5668 11.9683 32.4842 10.0509 32.4842 7.69412C32.4842 5.33733 30.5668 3.41992 28.21 3.41992ZM28.21 10.2586H27.3552V5.1296H28.21C29.6239 5.1296 30.7745 6.28021 30.7745 7.69412C30.7745 9.10802 29.6239 10.2586 28.21 10.2586Z" fill="url(#paint0_linear_3077_13213)"/>
<path d="M45.3067 5.1296H47.0164C47.4883 5.1296 47.8712 5.51342 47.8712 5.98444H49.5809C49.5809 4.57053 48.4303 3.41992 47.0164 3.41992H45.3067C43.8928 3.41992 42.7422 4.57053 42.7422 5.98444C42.7422 7.39834 43.8928 8.54895 45.3067 8.54895H47.0164C47.4883 8.54895 47.8712 8.93278 47.8712 9.40379C47.8712 9.87481 47.4883 10.2586 47.0164 10.2586H45.3067C44.8348 10.2586 44.4519 9.87481 44.4519 9.40379H42.7422C42.7422 10.8177 43.8928 11.9683 45.3067 11.9683H47.0164C48.4303 11.9683 49.5809 10.8177 49.5809 9.40379C49.5809 7.98989 48.4303 6.83928 47.0164 6.83928H45.3067C44.8348 6.83928 44.4519 6.45545 44.4519 5.98444C44.4519 5.51342 44.8348 5.1296 45.3067 5.1296Z" fill="url(#paint1_linear_3077_13213)"/>
<path d="M39.3224 9.20205L36.4313 3.41992H34.1934V11.9683H35.903V6.18618L38.7941 11.9683H41.0321V3.41992H39.3224V9.20205Z" fill="url(#paint2_linear_3077_13213)"/>
<path d="M50.4355 0H24.7903C23.3764 0 22.2258 1.15061 22.2258 2.56452V6.83871H19.8912L19.2364 8.8946C16.2744 9.43485 13.4252 10.6171 10.9368 12.337L9.01513 11.3429L4.50586 15.853L5.49918 17.7747C3.77839 20.2631 2.59615 23.1131 2.0576 26.0743L0 26.73V33.1096L2.05674 33.7636C2.59615 36.7256 3.77839 39.5748 5.49832 42.0632L4.505 43.9849L9.01427 48.495L10.936 47.5008C13.4244 49.2216 16.2736 50.403 19.2356 50.9433L19.8912 53H26.2709L26.9257 50.9441C29.8877 50.4039 32.7369 49.2216 35.2253 47.5017L37.147 48.4959L41.6563 43.9857L40.663 42.064C42.3838 39.5756 43.566 36.7256 44.1045 33.7644L46.1613 33.1088V26.7291L44.1045 26.0751C43.5651 23.1131 42.3829 20.264 40.663 17.7755L41.6563 15.8538L41.1887 15.3871H50.4355C51.8494 15.3871 53 14.2365 53 12.8226V2.56452C53 1.15061 51.8494 0 50.4355 0ZM26.6248 18.491C26.8351 19.1296 27.0291 19.8023 27.1993 20.5161H18.9492C19.8143 16.8574 21.1299 14.4519 22.4404 13.845C22.837 14.7511 23.7397 15.3871 24.7903 15.3871H25.6452V16.7429C25.6452 17.4823 26.0392 18.1269 26.6248 18.491ZM31.3957 15.9752C33.3644 17.1506 35.0304 18.7039 36.3187 20.517H28.9525C28.8072 19.8716 28.6482 19.251 28.473 18.6577C28.732 18.5543 28.9713 18.4021 29.1697 18.2029L31.3957 15.9752ZM8.78176 22.2258H16.8779C16.5044 24.3988 16.2915 26.7385 16.2505 29.0645H6.88231C7.01139 26.6026 7.67218 24.28 8.78176 22.2258ZM9.86227 20.5161C12.1977 17.243 15.7042 14.8622 19.7758 14.0168C18.6645 15.5581 17.8054 17.855 17.213 20.5161H9.86227ZM17.967 29.0645C18.0106 26.5436 18.238 24.239 18.6004 22.2258H27.5574C27.9378 24.3236 28.1533 26.6453 28.196 29.0645H17.967ZM28.1943 30.7742C28.1507 33.2951 27.9233 35.5998 27.5609 37.6129H18.5996C18.2371 35.5998 18.0097 33.2951 17.9661 30.7742H28.1943ZM16.2496 30.7742C16.2915 33.1002 16.5035 35.4399 16.8771 37.6129H8.7809C7.67132 35.5587 7.01053 33.2361 6.88145 30.7742H16.2496ZM17.213 39.3226C17.8054 41.9837 18.6645 44.2806 19.7758 45.8219C15.7042 44.9765 12.1977 42.5958 9.86227 39.3226H17.213ZM18.9501 39.3226H27.2121C26.2059 43.578 24.5903 46.1613 23.0815 46.1613C21.5727 46.1613 19.9562 43.578 18.9501 39.3226ZM28.9483 39.3226H36.299C33.9636 42.5958 30.457 44.9765 26.3855 45.8219C27.4967 44.2806 28.3559 41.9837 28.9483 39.3226ZM37.3795 37.6129H29.2834C29.6569 35.4399 29.8698 33.1002 29.9108 30.7742H39.279C39.1499 33.2361 38.4891 35.5587 37.3795 37.6129ZM29.9048 29.0645C29.8638 26.6599 29.6535 24.345 29.2876 22.2258H37.377C38.4968 24.3073 39.1653 26.6342 39.2935 29.0645H29.9048ZM39.5636 16.1787L38.6618 17.9225L38.973 18.35C40.8066 20.8632 42.0264 23.8081 42.5034 26.8642L42.5855 27.3865L44.4516 27.9797V31.8581L42.5855 32.4514L42.5034 32.9737C42.0264 36.0306 40.8066 38.9747 38.973 41.4879L38.6618 41.9153L39.5636 43.6592L36.8205 46.4015L35.0775 45.4996L34.6509 45.8108C32.1368 47.6444 29.1927 48.8651 26.1358 49.3421L25.6135 49.4242L25.0203 51.2903H21.1419L20.5486 49.4251L20.0263 49.343C16.9694 48.866 14.0253 47.6453 11.5113 45.8117L11.0847 45.5005L9.34168 46.4024L6.5985 43.66L7.50036 41.9162L7.18919 41.4887C5.35556 38.9755 4.13571 36.0306 3.65871 32.9746L3.57665 32.4522L1.70968 31.859V27.9806L3.57579 27.3873L3.65785 26.865C4.13485 23.8081 5.35471 20.864 7.18834 18.3508L7.4995 17.9234L6.59765 16.1795L9.34082 13.4372L11.0838 14.3391L11.5104 14.0279C14.0245 12.1943 16.9685 10.9736 20.0255 10.4966L20.5478 10.4145L21.141 8.54839H22.2258V12.0113C12.726 12.4618 5.12903 20.3093 5.12903 29.9194C5.12903 39.8184 13.1825 47.871 23.0806 47.871C32.9788 47.871 41.0323 39.8184 41.0323 29.9194C41.0323 24.1193 38.2395 18.7398 33.6182 15.3871H38.7721L39.5636 16.1787ZM51.2903 12.8226C51.2903 13.2936 50.9074 13.6774 50.4355 13.6774H31.2751L27.9584 16.9933C27.7575 17.1959 27.3548 17.031 27.3548 16.7429V13.6774H24.7903C24.3185 13.6774 23.9355 13.2936 23.9355 12.8226V2.56452C23.9355 2.0935 24.3185 1.70968 24.7903 1.70968H50.4355C50.9074 1.70968 51.2903 2.0935 51.2903 2.56452V12.8226Z" fill="url(#paint3_linear_3077_13213)"/>
<path d="M42.7422 41.0332H51.2906V42.7429H42.7422V41.0332Z" fill="url(#paint4_linear_3077_13213)"/>
<path d="M42.7422 44.4512H51.2906V46.1608H42.7422V44.4512Z" fill="url(#paint5_linear_3077_13213)"/>
<path d="M46.1611 47.8711H47.8708V49.5808H46.1611V47.8711Z" fill="url(#paint6_linear_3077_13213)"/>
<path d="M42.7422 47.8711H44.4519V49.5808H42.7422V47.8711Z" fill="url(#paint7_linear_3077_13213)"/>
<path d="M49.5811 47.8711H51.2907V49.5808H49.5811V47.8711Z" fill="url(#paint8_linear_3077_13213)"/>
<path d="M1.70996 1.70898H10.2583V3.41866H1.70996V1.70898Z" fill="url(#paint9_linear_3077_13213)"/>
<path d="M1.70996 5.12891H10.2583V6.83858H1.70996V5.12891Z" fill="url(#paint10_linear_3077_13213)"/>
<path d="M1.70996 8.54883H3.41964V10.2585H1.70996V8.54883Z" fill="url(#paint11_linear_3077_13213)"/>
<path d="M8.54883 8.54883H10.2585V10.2585H8.54883V8.54883Z" fill="url(#paint12_linear_3077_13213)"/>
<path d="M5.12891 8.54883H6.83858V10.2585H5.12891V8.54883Z" fill="url(#paint13_linear_3077_13213)"/>
<defs>
<linearGradient id="paint0_linear_3077_13213" x1="29.0649" y1="3.41992" x2="29.0649" y2="11.9683" gradientUnits="userSpaceOnUse">
<stop stop-color="#81319B"/>
<stop offset="0.5" stop-color="#00A99D"/>
<stop offset="1" stop-color="#0B2C4C"/>
</linearGradient>
<linearGradient id="paint1_linear_3077_13213" x1="46.1615" y1="3.41992" x2="46.1615" y2="11.9683" gradientUnits="userSpaceOnUse">
<stop stop-color="#81319B"/>
<stop offset="0.5" stop-color="#00A99D"/>
<stop offset="1" stop-color="#0B2C4C"/>
</linearGradient>
<linearGradient id="paint2_linear_3077_13213" x1="37.6127" y1="3.41992" x2="37.6127" y2="11.9683" gradientUnits="userSpaceOnUse">
<stop stop-color="#81319B"/>
<stop offset="0.5" stop-color="#00A99D"/>
<stop offset="1" stop-color="#0B2C4C"/>
</linearGradient>
<linearGradient id="paint3_linear_3077_13213" x1="26.5" y1="0" x2="26.5" y2="53" gradientUnits="userSpaceOnUse">
<stop stop-color="#81319B"/>
<stop offset="0.5" stop-color="#00A99D"/>
<stop offset="1" stop-color="#0B2C4C"/>
</linearGradient>
<linearGradient id="paint4_linear_3077_13213" x1="47.0164" y1="41.0332" x2="47.0164" y2="42.7429" gradientUnits="userSpaceOnUse">
<stop stop-color="#81319B"/>
<stop offset="0.5" stop-color="#00A99D"/>
<stop offset="1" stop-color="#0B2C4C"/>
</linearGradient>
<linearGradient id="paint5_linear_3077_13213" x1="47.0164" y1="44.4512" x2="47.0164" y2="46.1608" gradientUnits="userSpaceOnUse">
<stop stop-color="#81319B"/>
<stop offset="0.5" stop-color="#00A99D"/>
<stop offset="1" stop-color="#0B2C4C"/>
</linearGradient>
<linearGradient id="paint6_linear_3077_13213" x1="47.016" y1="47.8711" x2="47.016" y2="49.5808" gradientUnits="userSpaceOnUse">
<stop stop-color="#81319B"/>
<stop offset="0.5" stop-color="#00A99D"/>
<stop offset="1" stop-color="#0B2C4C"/>
</linearGradient>
<linearGradient id="paint7_linear_3077_13213" x1="43.597" y1="47.8711" x2="43.597" y2="49.5808" gradientUnits="userSpaceOnUse">
<stop stop-color="#81319B"/>
<stop offset="0.5" stop-color="#00A99D"/>
<stop offset="1" stop-color="#0B2C4C"/>
</linearGradient>
<linearGradient id="paint8_linear_3077_13213" x1="50.4359" y1="47.8711" x2="50.4359" y2="49.5808" gradientUnits="userSpaceOnUse">
<stop stop-color="#81319B"/>
<stop offset="0.5" stop-color="#00A99D"/>
<stop offset="1" stop-color="#0B2C4C"/>
</linearGradient>
<linearGradient id="paint9_linear_3077_13213" x1="5.98415" y1="1.70898" x2="5.98415" y2="3.41866" gradientUnits="userSpaceOnUse">
<stop stop-color="#81319B"/>
<stop offset="0.5" stop-color="#00A99D"/>
<stop offset="1" stop-color="#0B2C4C"/>
</linearGradient>
<linearGradient id="paint10_linear_3077_13213" x1="5.98415" y1="5.12891" x2="5.98415" y2="6.83858" gradientUnits="userSpaceOnUse">
<stop stop-color="#81319B"/>
<stop offset="0.5" stop-color="#00A99D"/>
<stop offset="1" stop-color="#0B2C4C"/>
</linearGradient>
<linearGradient id="paint11_linear_3077_13213" x1="2.5648" y1="8.54883" x2="2.5648" y2="10.2585" gradientUnits="userSpaceOnUse">
<stop stop-color="#81319B"/>
<stop offset="0.5" stop-color="#00A99D"/>
<stop offset="1" stop-color="#0B2C4C"/>
</linearGradient>
<linearGradient id="paint12_linear_3077_13213" x1="9.40367" y1="8.54883" x2="9.40367" y2="10.2585" gradientUnits="userSpaceOnUse">
<stop stop-color="#81319B"/>
<stop offset="0.5" stop-color="#00A99D"/>
<stop offset="1" stop-color="#0B2C4C"/>
</linearGradient>
<linearGradient id="paint13_linear_3077_13213" x1="5.98374" y1="8.54883" x2="5.98374" y2="10.2585" gradientUnits="userSpaceOnUse">
<stop stop-color="#81319B"/>
<stop offset="0.5" stop-color="#00A99D"/>
<stop offset="1" stop-color="#0B2C4C"/>
</linearGradient>
</defs>
</svg>
