<svg width="38" height="38" viewBox="0 0 38 38" fill="none" xmlns="http://www.w3.org/2000/svg">
<g filter="url(#filter0_d_120_8474)">
<rect x="4" width="30" height="30" rx="4" fill="white" shape-rendering="crispEdges"/>
<path d="M30.3876 9.85608L23.2698 2.61441C23.1978 2.54117 23.1002 2.5 22.9984 2.5H14.9362C13.0598 2.5 11.5331 4.05295 11.5331 5.9617V12.813H8.54636C7.96937 12.813 7.5 13.2905 7.5 13.8775V19.9967C7.5 20.5836 7.96942 21.0611 8.54636 21.0611H11.5331V24.0383C11.5331 25.9471 13.0598 27.5 14.9362 27.5H27.0969C28.9733 27.5 30.5 25.9471 30.5 24.0383V10.1321C30.5 10.0285 30.4595 9.92927 30.3876 9.85608Z" fill="url(#paint0_linear_120_8474)"/>
<path d="M23.3818 3.83301L29.1897 9.7419H23.7655C23.5539 9.7419 23.3818 9.56617 23.3818 9.35025L23.3818 3.83301Z" fill="white"/>
<path d="M8.26758 19.9968V13.8776C8.26758 13.7237 8.39531 13.5938 8.54652 13.5938H24.9444C25.0982 13.5938 25.2233 13.721 25.2233 13.8776V19.9968C25.2233 20.1531 25.0982 20.2804 24.9444 20.2804H8.54652C8.39531 20.2804 8.26758 20.1505 8.26758 19.9968Z" fill="white"/>
<path d="M23.7657 10.5223C23.131 10.5223 22.6145 9.99675 22.6145 9.35015V3.28076H14.936C13.4826 3.28076 12.3008 4.48361 12.3008 5.96147V12.8133H24.9441C25.5208 12.8133 25.9907 13.2905 25.9907 13.8775V19.9969C25.9907 20.5838 25.5214 21.0611 24.9441 21.0611H12.3008V24.0384C12.3008 25.5168 13.4826 26.7191 14.936 26.7191H27.097C28.5498 26.7191 29.7322 25.5168 29.7322 24.0384V10.5223H23.7657Z" fill="white"/>
<path d="M18.6993 19.0318C18.6993 19.2474 18.5275 19.4221 18.3155 19.4221H15.8418C15.6298 19.4221 15.458 19.2474 15.458 19.0318V14.8421C15.458 14.6265 15.6298 14.4517 15.8418 14.4517C16.0538 14.4517 16.2255 14.6265 16.2255 14.8421V18.6415H18.3155C18.5275 18.6415 18.6993 18.8162 18.6993 19.0318Z" fill="url(#paint1_linear_120_8474)"/>
<path d="M13.9775 15.0431L12.8593 16.937L13.9775 18.8308C14.0866 19.0156 14.0278 19.2554 13.8461 19.3664C13.7843 19.4042 13.7162 19.4222 13.649 19.4222C13.5186 19.4222 13.3916 19.3547 13.3197 19.2328L12.4117 17.6951L11.5037 19.2328C11.4318 19.3547 11.3047 19.4222 11.1744 19.4222C11.1072 19.4222 11.0391 19.4043 10.9772 19.3664C10.7955 19.2555 10.7367 19.0156 10.8458 18.8308L11.9641 16.937L10.8458 15.0431C10.7367 14.8583 10.7955 14.6185 10.9772 14.5075C11.159 14.3966 11.3947 14.4564 11.5037 14.6411L12.4117 16.1788L13.3197 14.6411C13.4288 14.4563 13.6644 14.3963 13.8461 14.5075C14.0278 14.6184 14.0867 14.8583 13.9775 15.0431Z" fill="url(#paint2_linear_120_8474)"/>
<path d="M22.3753 17.3445C22.4545 17.5188 22.4942 17.7361 22.4942 17.9945C22.4942 18.3227 22.4261 18.5936 22.293 18.8091C22.1584 19.0246 21.9744 19.1864 21.7414 19.2909C21.5067 19.3954 21.2389 19.4462 20.9394 19.4462C20.6445 19.4462 20.3831 19.4033 20.1563 19.3163C19.9279 19.2307 19.7504 19.1262 19.6237 18.9992C19.497 18.8757 19.4336 18.7551 19.4336 18.6427C19.4336 18.5872 19.4479 18.5303 19.478 18.473C19.5066 18.4129 19.546 18.3621 19.5936 18.3177C19.6412 18.2765 19.6917 18.2544 19.7472 18.2544C19.8105 18.2544 19.871 18.2798 19.9279 18.332C19.9834 18.3843 20.0532 18.4476 20.1355 18.5206C20.2164 18.5936 20.3195 18.657 20.4415 18.7107C20.565 18.7647 20.7221 18.7931 20.9122 18.7931C21.0754 18.7931 21.2229 18.7662 21.3514 18.7139C21.4813 18.6617 21.5844 18.5822 21.6588 18.4763C21.7333 18.3685 21.7712 18.2336 21.7712 18.0704C21.7712 17.8961 21.7315 17.7533 21.6524 17.6391C21.5715 17.5267 21.4652 17.4315 21.3306 17.3539C21.1975 17.278 21.0532 17.2064 20.8979 17.1416C20.7443 17.0782 20.5872 17.0117 20.4287 16.9387C20.2687 16.8657 20.1244 16.7769 19.991 16.6756C19.8596 16.5743 19.7548 16.444 19.6742 16.2872C19.5951 16.1305 19.5554 15.9337 19.5554 15.6974C19.5554 15.4487 19.603 15.2393 19.6949 15.0714C19.7884 14.9035 19.9122 14.7672 20.0675 14.6688C20.2211 14.5675 20.3925 14.4977 20.5779 14.4533C20.7651 14.4104 20.949 14.3882 21.1312 14.3882C21.2439 14.3882 21.3706 14.3961 21.5084 14.4121C21.648 14.4279 21.7826 14.4565 21.9143 14.4945C22.046 14.5324 22.1552 14.5832 22.2425 14.6466C22.328 14.7117 22.371 14.7894 22.371 14.8796C22.371 14.9254 22.3599 14.978 22.3377 15.0396C22.3137 15.0998 22.2822 15.1538 22.2396 15.1996C22.1952 15.2455 22.1397 15.2676 22.0714 15.2676C22.0127 15.2676 21.9461 15.2455 21.8734 15.2025C21.8019 15.1596 21.707 15.1152 21.5911 15.0741C21.4754 15.0297 21.3216 15.0075 21.1315 15.0075C20.9668 15.0075 20.8208 15.0311 20.6909 15.0773C20.5624 15.1217 20.4608 15.1882 20.3881 15.277C20.3151 15.3658 20.2786 15.4831 20.2786 15.6288C20.2786 15.7748 20.3183 15.8937 20.3974 15.9871C20.4766 16.0791 20.5829 16.1582 20.7142 16.2248C20.8459 16.2913 20.9902 16.3547 21.147 16.4119C21.3038 16.4721 21.4609 16.5419 21.6176 16.6213C21.7744 16.7004 21.9204 16.7974 22.0536 16.9098C22.1882 17.0242 22.2945 17.1702 22.3753 17.3445Z" fill="url(#paint3_linear_120_8474)"/>
</g>
<defs>
<filter id="filter0_d_120_8474" x="0" y="0" width="38" height="38" filterUnits="userSpaceOnUse" color-interpolation-filters="sRGB">
<feFlood flood-opacity="0" result="BackgroundImageFix"/>
<feColorMatrix in="SourceAlpha" type="matrix" values="0 0 0 0 0 0 0 0 0 0 0 0 0 0 0 0 0 0 127 0" result="hardAlpha"/>
<feOffset dy="4"/>
<feGaussianBlur stdDeviation="2"/>
<feComposite in2="hardAlpha" operator="out"/>
<feColorMatrix type="matrix" values="0 0 0 0 0 0 0 0 0 0 0 0 0 0 0 0 0 0 0.25 0"/>
<feBlend mode="normal" in2="BackgroundImageFix" result="effect1_dropShadow_120_8474"/>
<feBlend mode="normal" in="SourceGraphic" in2="effect1_dropShadow_120_8474" result="shape"/>
</filter>
<linearGradient id="paint0_linear_120_8474" x1="19" y1="26.6976" x2="19" y2="2.49974" gradientUnits="userSpaceOnUse">
<stop stop-color="#162D4B"/>
<stop offset="0.4577" stop-color="#05AB9E"/>
<stop offset="1" stop-color="#79398E"/>
</linearGradient>
<linearGradient id="paint1_linear_120_8474" x1="17.0787" y1="19.2625" x2="17.0787" y2="14.4516" gradientUnits="userSpaceOnUse">
<stop stop-color="#162D4B"/>
<stop offset="0.231" stop-color="#03A69C"/>
</linearGradient>
<linearGradient id="paint2_linear_120_8474" x1="12.4117" y1="19.2627" x2="12.4117" y2="14.4516" gradientUnits="userSpaceOnUse">
<stop stop-color="#162D4B"/>
<stop offset="0.231" stop-color="#03A69C"/>
</linearGradient>
<linearGradient id="paint3_linear_120_8474" x1="20.9639" y1="19.2839" x2="20.9639" y2="14.3881" gradientUnits="userSpaceOnUse">
<stop stop-color="#162D4B"/>
<stop offset="0.231" stop-color="#03A69C"/>
</linearGradient>
</defs>
</svg>
