<svg width="60" height="60" viewBox="0 0 60 60" fill="none" xmlns="http://www.w3.org/2000/svg">
<path d="M42.6748 35.2147C42.3782 35.2147 42.1395 34.9722 42.1395 34.6735V6.09531H15.5519C15.2554 6.09531 15.0167 5.85279 15.0167 5.55412C15.0167 5.25544 15.2554 5.01173 15.5519 5.01173H42.6748C42.9713 5.01173 43.21 5.25425 43.21 5.55292V34.6723C43.21 34.9722 42.9701 35.2135 42.6748 35.2135V35.2147ZM37.1476 53.2713H7.54009C7.24353 53.2713 7.00487 53.0288 7.00487 52.7301V13.6541C7.00487 13.3543 7.24471 13.1129 7.54009 13.1129C7.83547 13.1129 8.07532 13.3555 8.07532 13.6541V52.1877H37.1465C37.443 52.1877 37.6817 52.4302 37.6817 52.7289C37.6817 53.0276 37.4418 53.2701 37.1465 53.2701L37.1476 53.2713ZM33.752 20.649H16.4522C16.1557 20.649 15.917 20.4065 15.917 20.1078C15.917 19.8092 16.1569 19.5667 16.4522 19.5667H33.752C34.0485 19.5667 34.2872 19.8092 34.2872 20.1078C34.299 20.4077 34.0473 20.649 33.752 20.649ZM13.4441 27.1948H11.4615C11.165 27.1948 10.9263 26.9522 10.9263 26.6536C10.9263 26.3549 11.1662 26.1124 11.4615 26.1124H13.4441C13.7407 26.1124 13.9793 26.3549 13.9793 26.6536C13.9793 26.9522 13.7395 27.1948 13.4441 27.1948ZM38.7545 27.1948H16.3046C16.008 27.1948 15.7693 26.9522 15.7693 26.6536C15.7693 26.3549 16.0092 26.1124 16.3046 26.1124H38.7545C39.0511 26.1124 39.2897 26.3549 39.2897 26.6536C39.2897 26.9522 39.0499 27.1948 38.7545 27.1948ZM13.4441 33.7393H11.4615C11.165 33.7393 10.9263 33.4968 10.9263 33.1981C10.9263 32.8994 11.1662 32.6569 11.4615 32.6569H13.4441C13.7407 32.6569 13.9793 32.8994 13.9793 33.1981C13.9793 33.4968 13.7395 33.7393 13.4441 33.7393ZM38.7545 33.7393H16.3046C16.008 33.7393 15.7693 33.4968 15.7693 33.1981C15.7693 32.8994 16.0092 32.6569 16.3046 32.6569H38.7545C39.0511 32.6569 39.2897 32.8994 39.2897 33.1981C39.2897 33.4968 39.0499 33.7393 38.7545 33.7393ZM13.4441 40.273H11.4615C11.165 40.273 10.9263 40.0305 10.9263 39.7318C10.9263 39.4332 11.1662 39.1907 11.4615 39.1907H13.4441C13.7407 39.1907 13.9793 39.4332 13.9793 39.7318C13.9793 40.0305 13.7395 40.273 13.4441 40.273ZM34.1277 40.273H16.3046C16.008 40.273 15.7693 40.0305 15.7693 39.7318C15.7693 39.4332 16.0092 39.1907 16.3046 39.1907H34.1395C34.4361 39.1907 34.6747 39.4332 34.6747 39.7318C34.6747 40.0305 34.4349 40.273 34.1277 40.273ZM13.4441 46.8188H11.4615C11.165 46.8188 10.9263 46.5762 10.9263 46.2776C10.9263 45.9789 11.1662 45.7364 11.4615 45.7364H13.4441C13.7407 45.7364 13.9793 45.9789 13.9793 46.2776C13.9793 46.5762 13.7395 46.8188 13.4441 46.8188ZM33.0336 46.8188H16.3046C16.008 46.8188 15.7693 46.5762 15.7693 46.2776C15.7693 45.9789 16.0092 45.7364 16.3046 45.7364H33.0336C33.3302 45.7364 33.5688 45.9789 33.5688 46.2776C33.5688 46.5762 33.329 46.8188 33.0336 46.8188ZM8.83976 13.101H15.0049V6.86708L8.83976 13.101ZM15.5519 14.1965H7.54009C7.32387 14.1965 7.13011 14.0579 7.03913 13.862C6.95879 13.6541 7.00487 13.4235 7.15256 13.2623L15.1644 5.16226C15.3239 5.00097 15.5519 4.95438 15.7575 5.04757C15.9631 5.12881 16.0883 5.33549 16.0883 5.55412V13.6553C16.0883 13.9552 15.8485 14.1965 15.5531 14.1965H15.5519ZM42.6748 35.2147C37.5813 35.2147 33.433 39.4093 33.433 44.5596C33.433 49.7099 37.5813 53.9045 42.6748 53.9045C47.7683 53.9045 51.9166 49.7099 51.9166 44.5596C51.9166 39.4093 47.7683 35.2147 42.6748 35.2147ZM42.6748 55C36.9763 55 32.3495 50.3216 32.3495 44.5596C32.3495 38.7976 36.9763 34.1192 42.6748 34.1192C48.3732 34.1192 53 38.7976 53 44.5596C53 50.3216 48.3732 55 42.6748 55ZM47.825 40.8035C47.467 40.4415 46.8821 40.4415 46.5241 40.8035L40.7938 46.5977L38.9282 44.7113C38.5702 44.3493 37.9853 44.3493 37.6273 44.7113C37.2693 45.0733 37.2693 45.6647 37.6273 46.0267L40.1345 48.5618C40.3235 48.7338 40.5492 48.8282 40.7938 48.8282C41.0384 48.8282 41.2652 48.7327 41.4342 48.5809L47.8238 42.12C48.1818 41.758 48.1818 41.1667 47.8238 40.8047L47.825 40.8035Z" fill="url(#paint0_linear_4_941)"/>
<defs>
<linearGradient id="paint0_linear_4_941" x1="29.9631" y1="5.00465" x2="29.9631" y2="54.9237" gradientUnits="userSpaceOnUse">
<stop stop-color="#81319B"/>
<stop offset="0.505" stop-color="#00A99D"/>
<stop offset="1" stop-color="#0B2C4C"/>
</linearGradient>
</defs>
</svg>
