<svg width="42" height="37" viewBox="0 0 42 37" fill="none" xmlns="http://www.w3.org/2000/svg">
<g clip-path="url(#clip0_1768_14834)">
<path d="M14 16.25V34.25C14 35.4935 12.8257 36.5 11.375 36.5C9.92425 36.5 8.75 35.4935 8.75 34.25V16.25C8.75 15.0065 9.92425 14 11.375 14C12.8257 14 14 15.0065 14 16.25ZM20.125 9.5C18.6742 9.5 17.5 10.5065 17.5 11.75V34.25C17.5 35.4935 18.6742 36.5 20.125 36.5C21.5757 36.5 22.75 35.4935 22.75 34.25V11.75C22.75 10.5065 21.5757 9.5 20.125 9.5ZM2.625 18.5C1.17425 18.5 0 19.5065 0 20.75V34.25C0 35.4935 1.17425 36.5 2.625 36.5C4.07575 36.5 5.25 35.4935 5.25 34.25V20.75C5.25 19.5065 4.07575 18.5 2.625 18.5ZM42 28.1195C42 25.9055 40.4512 23.945 38.0537 23.123L33.8957 21.698C33.502 21.563 33.25 21.242 33.25 20.8805C33.25 20.3945 33.712 20 34.2772 20H36.344C36.6607 20 36.9442 20.141 37.1035 20.3765C37.8297 21.4535 39.4362 21.8195 40.691 21.197C41.9457 20.5745 42.3745 19.1975 41.65 18.1235C40.7767 16.8275 39.298 15.926 37.6267 15.6185V14.75C37.6267 13.5065 36.4507 12.5 35.0017 12.5C33.5527 12.5 32.3767 13.5065 32.3767 14.75V15.7535C29.8427 16.445 28.0017 18.482 28.0017 20.8805C28.0017 23.0945 29.5505 25.055 31.948 25.877L36.106 27.302C36.4997 27.437 36.7517 27.758 36.7517 28.1195C36.7517 28.6055 36.2897 29 35.7245 29H33.6577C33.341 29 33.0575 28.859 32.8982 28.625C32.1702 27.5495 30.5637 27.182 29.3107 27.8045C28.056 28.427 27.6272 29.804 28.3517 30.878C29.225 32.1725 30.702 33.074 32.375 33.383V34.25C32.375 35.4935 33.551 36.5 35 36.5C36.449 36.5 37.625 35.4935 37.625 34.25V33.2465C40.159 32.555 42 30.518 42 28.1195ZM37.625 10.25C39.074 10.25 40.25 9.2435 40.25 8V2.75C40.25 1.5065 39.074 0.5 37.625 0.5C36.176 0.5 35 1.5065 35 2.75V8C35 9.2435 36.176 10.25 37.625 10.25ZM31.5 10.25V7.25C31.5 6.0065 30.324 5 28.875 5C27.426 5 26.25 6.0065 26.25 7.25V10.25C26.25 11.4935 27.426 12.5 28.875 12.5C30.324 12.5 31.5 11.4935 31.5 10.25Z" fill="#0B2C4C"/>
</g>
<defs>
<clipPath id="clip0_1768_14834">
<rect width="42" height="36" fill="white" transform="translate(0 0.5)"/>
</clipPath>
</defs>
</svg>
