<svg width="30" height="30" viewBox="0 0 30 30" fill="none" xmlns="http://www.w3.org/2000/svg">
<path d="M27.5 6.4373C27.5 5.3841 27.0894 4.39466 26.3424 3.65086C24.8011 2.11575 22.2959 2.117 20.7571 3.65086L4.49531 19.8607C4.49469 19.8614 4.49469 19.8632 4.49406 19.8638C4.44219 19.9157 4.40406 19.9789 4.37406 20.0457C4.36718 20.0614 4.3603 20.077 4.35405 20.0932C4.34843 20.1082 4.3403 20.1214 4.33593 20.137L2.52268 26.7087C2.46205 26.9268 2.52518 27.1606 2.68581 27.3194C2.80457 27.4369 2.96271 27.5 3.12522 27.5C3.18335 27.5 3.2421 27.4919 3.29836 27.4756L9.81443 25.5911C9.82818 25.5874 9.84068 25.5792 9.85381 25.5742C9.86943 25.5686 9.88443 25.5617 9.90006 25.5542C9.96694 25.5236 10.0301 25.4855 10.0826 25.433L24.3048 11.2564C24.3048 11.2564 24.3086 11.2545 24.3098 11.2533C24.3111 11.252 24.3117 11.2495 24.3129 11.2483L26.3443 9.22374C27.0906 8.47994 27.5019 7.4905 27.5019 6.43793L27.5 6.4373ZM9.63942 24.1079L5.82228 20.3033L19.1619 7.00609L22.9791 10.8107L9.63879 24.1079H9.63942ZM5.25474 21.5021L8.44746 24.6842L4.02341 25.9636L5.25474 21.5021ZM25.4599 8.33806L23.8648 9.92817L20.0476 6.12353L21.6402 4.53592C22.6928 3.48772 24.4067 3.48647 25.4599 4.53592C25.9693 5.04346 26.2499 5.71913 26.2499 6.4373C26.2499 7.15548 25.9699 7.83052 25.4599 8.33806Z" fill="url(#paint0_linear_1446_15506)"/>
<defs>
<linearGradient id="paint0_linear_1446_15506" x1="15.0009" y1="2.5" x2="15.0009" y2="27.5" gradientUnits="userSpaceOnUse">
<stop stop-color="#81319B"/>
<stop offset="0.48" stop-color="#00A99D"/>
<stop offset="1" stop-color="#0B2C4C"/>
</linearGradient>
</defs>
</svg>
