<svg width="22" height="22" viewBox="0 0 22 22" fill="none" xmlns="http://www.w3.org/2000/svg">
<path d="M15.5132 7.35407L12.6459 4.48684L5 12.1328V15H7.86723L15.5132 7.35407ZM17.7764 5.09087C18.0745 4.79268 18.0745 4.31098 17.7764 4.01279L15.9872 2.22364C15.689 1.92545 15.2073 1.92545 14.9091 2.22364L13.4105 3.72225L16.2778 6.58947L17.7764 5.09087Z" fill="#00A99D"/>
<path d="M2 18.5C2 17.6716 2.67157 17 3.49999 17H18.5C19.3284 17 20 17.6716 20 18.5C20 19.3284 19.3284 20 18.5 20H3.49999C2.67157 20 2 19.3284 2 18.5Z" fill="#00A99D"/>
</svg>
