<svg width="80" height="80" viewBox="0 0 80 80" fill="none" xmlns="http://www.w3.org/2000/svg">
<mask id="path-1-outside-1_4061_14918" maskUnits="userSpaceOnUse" x="3" y="5.82031" width="75" height="72" fill="black">
<rect fill="white" x="3" y="5.82031" width="75" height="72"/>
<path fill-rule="evenodd" clip-rule="evenodd" d="M70.0849 63.2987C70.0849 63.907 69.591 64.3956 68.9758 64.3956H56.9908C56.385 64.3956 55.8912 63.9071 55.8912 63.2987C55.8912 62.6995 56.385 62.2018 56.9908 62.2018H68.9758C69.591 62.2018 70.0849 62.6995 70.0849 63.2987ZM56.2361 58.6901C56.6275 58.2291 56.5716 57.5378 56.1057 57.1508C55.6304 56.7636 54.9408 56.819 54.54 57.289L49.6658 63.0406L47.2054 60.1741C46.8141 59.7132 46.1151 59.658 45.649 60.045C45.183 60.4413 45.1272 61.1326 45.5185 61.5935L48.8269 65.4464C49.2747 65.9671 50.096 65.9581 50.523 65.4464L56.2361 58.6901ZM70.0849 51.012C70.0849 51.6112 69.591 52.1089 68.9758 52.1089H56.9908C56.385 52.1089 55.8912 51.6112 55.8912 51.012C55.8912 50.4038 56.385 49.9151 56.9908 49.9151H68.9758C69.591 49.9151 70.0849 50.4038 70.0849 51.012ZM45.5185 49.2976L48.8269 53.1596C49.2738 53.6799 50.0957 53.6715 50.523 53.1596L56.2359 46.4034C56.6274 45.9333 56.5714 45.2513 56.1055 44.8549C55.6302 44.4677 54.9407 44.5323 54.5398 44.9931L49.6657 50.7538L47.2052 47.8873C46.8139 47.4263 46.1149 47.3712 45.6489 47.7582C45.183 48.1455 45.1272 48.8368 45.5185 49.2976ZM70.0849 38.7255C70.0849 39.3247 69.591 39.8131 68.9758 39.8131H56.9908C56.385 39.8131 55.8912 39.3247 55.8912 38.7255C55.8912 38.1173 56.385 37.6286 56.9908 37.6286H68.9758C69.591 37.6286 70.0849 38.1171 70.0849 38.7255ZM45.5185 37.0111L48.8269 40.8731C49.2732 41.3926 50.0855 41.3882 50.523 40.8638L56.2359 34.1076C56.6274 33.6467 56.5714 32.9555 56.1055 32.5684C55.6302 32.1813 54.9407 32.2458 54.5398 32.7066L49.6657 38.4673L47.2052 35.6008C46.8139 35.1398 46.1149 35.0847 45.6489 35.4717C45.183 35.8588 45.1272 36.5502 45.5185 37.0111ZM19.0045 24.7521C18.3987 24.7521 17.914 24.2637 17.914 23.6645C17.914 23.0653 18.3987 22.5769 19.0045 22.5769C19.6103 22.5769 20.1041 23.0653 20.1041 23.6645C20.1041 24.2637 19.6103 24.7521 19.0045 24.7521ZM26.8515 16.6133C26.4414 16.1616 25.7425 16.134 25.2858 16.5395L20.57 20.7794C18.8053 19.837 16.5758 20.6756 15.8916 22.5676H10.7568C10.1509 22.5676 9.65708 23.056 9.65708 23.6645C9.65708 24.2728 10.1509 24.7614 10.7568 24.7614H15.8918C16.3485 26.0242 17.5693 26.9366 19.0045 26.9366C21.3489 26.9366 22.9578 24.5924 22.0613 22.4017L26.7769 18.1525C27.2336 17.747 27.2616 17.0557 26.8515 16.6133ZM4 23.6645C4 31.8494 10.7288 38.5043 19.0045 38.5043C27.2201 38.5043 33.8786 32.0041 34.009 23.9226C34.0183 23.3234 33.5337 22.8257 32.9279 22.8166C32.3067 22.8118 31.8103 23.2805 31.8002 23.8858C31.6791 30.7434 25.9382 36.3198 19.0045 36.3198C11.9496 36.3198 6.20873 30.6419 6.20873 23.6645C6.20873 14.9446 14.9367 8.86945 23.2076 11.7096L21.4461 12.1613C20.8591 12.3088 20.4956 12.908 20.654 13.4978C20.8127 14.0906 21.4246 14.4133 22.0054 14.2813L26.6744 13.083C26.8322 13.0244 26.9988 12.965 27.1217 12.8433C27.1664 12.8433 27.42 12.5157 27.42 12.4377L27.4945 12.1888C27.528 11.8539 27.4901 11.8399 27.4106 11.5805L24.8757 7.35905C24.5682 6.83365 23.8878 6.66774 23.366 6.97188C22.8347 7.2853 22.667 7.95805 22.9745 8.47434L23.6175 9.53426C13.9807 6.47736 4 13.5648 4 23.6645ZM74.7819 73.7325V20.0513C74.7819 19.5536 74.3718 19.148 73.8686 19.148H50.9612V27.8492C50.9612 29.5543 49.5633 30.9461 47.8392 30.9461H39.0322V59.1878H41.3155C41.9214 59.1878 42.4152 59.6762 42.4152 60.2754V74.2119C42.4152 74.3594 42.3966 74.4976 42.3778 74.6358H73.8686C74.3718 74.6358 74.7819 74.2303 74.7819 73.7325ZM21.9588 74.6358H9.81544C9.31219 74.6358 8.98608 74.3594 8.98608 74.2119V61.3723H12.4902V66.497C12.4902 67.0962 12.9935 67.5846 13.5993 67.5846H18.8835C19.4893 67.5846 19.9832 67.0962 19.9832 66.497V61.3723H23.4873V74.6358H21.9588ZM14.7082 61.3723V65.4002H17.7743V61.3723H14.7082ZM9.81544 45.9242H12.4902V51.049C12.4902 51.6482 12.9935 52.1366 13.5993 52.1366H18.8835C19.4893 52.1366 19.9832 51.6482 19.9832 51.049V45.9242H23.4873V59.1878H8.98608V46.3482C8.98608 46.2007 9.31219 45.9242 9.81544 45.9242ZM14.7082 45.9242V49.9521H17.7743V45.9242H14.7082ZM31.4181 61.3723H34.4842V65.4002H31.4181V61.3723ZM40.2065 74.2119C40.2065 74.3594 39.8802 74.6358 39.3769 74.6358H25.7053V61.3723H29.2094V66.497C29.2094 67.0962 29.7034 67.5846 30.3185 67.5846H35.5933C36.2083 67.5846 36.7023 67.0962 36.7023 66.497V61.3723H40.2065V74.2119ZM48.7525 20.6965V27.8492C48.7525 28.3469 48.3424 28.7525 47.8392 28.7525H40.598L48.7525 20.6965ZM73.8686 16.9635H49.8522C49.5633 16.9635 49.2837 17.0741 49.0786 17.2769L37.1496 29.075C36.9353 29.2779 36.8235 29.5634 36.8235 29.8493V59.1878H25.7053V44.8273C25.7053 44.2282 25.2114 43.7397 24.5962 43.7397H9.81544C8.13794 43.7397 6.77734 44.9104 6.77734 46.3482V74.2119C6.77734 75.6497 8.13794 76.8203 9.81544 76.8203H73.8687C75.5928 76.8203 77 75.4377 77 73.7325V20.0513C77 18.3461 75.5928 16.9635 73.8686 16.9635Z"/>
</mask>
<path fill-rule="evenodd" clip-rule="evenodd" d="M70.0849 63.2987C70.0849 63.907 69.591 64.3956 68.9758 64.3956H56.9908C56.385 64.3956 55.8912 63.9071 55.8912 63.2987C55.8912 62.6995 56.385 62.2018 56.9908 62.2018H68.9758C69.591 62.2018 70.0849 62.6995 70.0849 63.2987ZM56.2361 58.6901C56.6275 58.2291 56.5716 57.5378 56.1057 57.1508C55.6304 56.7636 54.9408 56.819 54.54 57.289L49.6658 63.0406L47.2054 60.1741C46.8141 59.7132 46.1151 59.658 45.649 60.045C45.183 60.4413 45.1272 61.1326 45.5185 61.5935L48.8269 65.4464C49.2747 65.9671 50.096 65.9581 50.523 65.4464L56.2361 58.6901ZM70.0849 51.012C70.0849 51.6112 69.591 52.1089 68.9758 52.1089H56.9908C56.385 52.1089 55.8912 51.6112 55.8912 51.012C55.8912 50.4038 56.385 49.9151 56.9908 49.9151H68.9758C69.591 49.9151 70.0849 50.4038 70.0849 51.012ZM45.5185 49.2976L48.8269 53.1596C49.2738 53.6799 50.0957 53.6715 50.523 53.1596L56.2359 46.4034C56.6274 45.9333 56.5714 45.2513 56.1055 44.8549C55.6302 44.4677 54.9407 44.5323 54.5398 44.9931L49.6657 50.7538L47.2052 47.8873C46.8139 47.4263 46.1149 47.3712 45.6489 47.7582C45.183 48.1455 45.1272 48.8368 45.5185 49.2976ZM70.0849 38.7255C70.0849 39.3247 69.591 39.8131 68.9758 39.8131H56.9908C56.385 39.8131 55.8912 39.3247 55.8912 38.7255C55.8912 38.1173 56.385 37.6286 56.9908 37.6286H68.9758C69.591 37.6286 70.0849 38.1171 70.0849 38.7255ZM45.5185 37.0111L48.8269 40.8731C49.2732 41.3926 50.0855 41.3882 50.523 40.8638L56.2359 34.1076C56.6274 33.6467 56.5714 32.9555 56.1055 32.5684C55.6302 32.1813 54.9407 32.2458 54.5398 32.7066L49.6657 38.4673L47.2052 35.6008C46.8139 35.1398 46.1149 35.0847 45.6489 35.4717C45.183 35.8588 45.1272 36.5502 45.5185 37.0111ZM19.0045 24.7521C18.3987 24.7521 17.914 24.2637 17.914 23.6645C17.914 23.0653 18.3987 22.5769 19.0045 22.5769C19.6103 22.5769 20.1041 23.0653 20.1041 23.6645C20.1041 24.2637 19.6103 24.7521 19.0045 24.7521ZM26.8515 16.6133C26.4414 16.1616 25.7425 16.134 25.2858 16.5395L20.57 20.7794C18.8053 19.837 16.5758 20.6756 15.8916 22.5676H10.7568C10.1509 22.5676 9.65708 23.056 9.65708 23.6645C9.65708 24.2728 10.1509 24.7614 10.7568 24.7614H15.8918C16.3485 26.0242 17.5693 26.9366 19.0045 26.9366C21.3489 26.9366 22.9578 24.5924 22.0613 22.4017L26.7769 18.1525C27.2336 17.747 27.2616 17.0557 26.8515 16.6133ZM4 23.6645C4 31.8494 10.7288 38.5043 19.0045 38.5043C27.2201 38.5043 33.8786 32.0041 34.009 23.9226C34.0183 23.3234 33.5337 22.8257 32.9279 22.8166C32.3067 22.8118 31.8103 23.2805 31.8002 23.8858C31.6791 30.7434 25.9382 36.3198 19.0045 36.3198C11.9496 36.3198 6.20873 30.6419 6.20873 23.6645C6.20873 14.9446 14.9367 8.86945 23.2076 11.7096L21.4461 12.1613C20.8591 12.3088 20.4956 12.908 20.654 13.4978C20.8127 14.0906 21.4246 14.4133 22.0054 14.2813L26.6744 13.083C26.8322 13.0244 26.9988 12.965 27.1217 12.8433C27.1664 12.8433 27.42 12.5157 27.42 12.4377L27.4945 12.1888C27.528 11.8539 27.4901 11.8399 27.4106 11.5805L24.8757 7.35905C24.5682 6.83365 23.8878 6.66774 23.366 6.97188C22.8347 7.2853 22.667 7.95805 22.9745 8.47434L23.6175 9.53426C13.9807 6.47736 4 13.5648 4 23.6645ZM74.7819 73.7325V20.0513C74.7819 19.5536 74.3718 19.148 73.8686 19.148H50.9612V27.8492C50.9612 29.5543 49.5633 30.9461 47.8392 30.9461H39.0322V59.1878H41.3155C41.9214 59.1878 42.4152 59.6762 42.4152 60.2754V74.2119C42.4152 74.3594 42.3966 74.4976 42.3778 74.6358H73.8686C74.3718 74.6358 74.7819 74.2303 74.7819 73.7325ZM21.9588 74.6358H9.81544C9.31219 74.6358 8.98608 74.3594 8.98608 74.2119V61.3723H12.4902V66.497C12.4902 67.0962 12.9935 67.5846 13.5993 67.5846H18.8835C19.4893 67.5846 19.9832 67.0962 19.9832 66.497V61.3723H23.4873V74.6358H21.9588ZM14.7082 61.3723V65.4002H17.7743V61.3723H14.7082ZM9.81544 45.9242H12.4902V51.049C12.4902 51.6482 12.9935 52.1366 13.5993 52.1366H18.8835C19.4893 52.1366 19.9832 51.6482 19.9832 51.049V45.9242H23.4873V59.1878H8.98608V46.3482C8.98608 46.2007 9.31219 45.9242 9.81544 45.9242ZM14.7082 45.9242V49.9521H17.7743V45.9242H14.7082ZM31.4181 61.3723H34.4842V65.4002H31.4181V61.3723ZM40.2065 74.2119C40.2065 74.3594 39.8802 74.6358 39.3769 74.6358H25.7053V61.3723H29.2094V66.497C29.2094 67.0962 29.7034 67.5846 30.3185 67.5846H35.5933C36.2083 67.5846 36.7023 67.0962 36.7023 66.497V61.3723H40.2065V74.2119ZM48.7525 20.6965V27.8492C48.7525 28.3469 48.3424 28.7525 47.8392 28.7525H40.598L48.7525 20.6965ZM73.8686 16.9635H49.8522C49.5633 16.9635 49.2837 17.0741 49.0786 17.2769L37.1496 29.075C36.9353 29.2779 36.8235 29.5634 36.8235 29.8493V59.1878H25.7053V44.8273C25.7053 44.2282 25.2114 43.7397 24.5962 43.7397H9.81544C8.13794 43.7397 6.77734 44.9104 6.77734 46.3482V74.2119C6.77734 75.6497 8.13794 76.8203 9.81544 76.8203H73.8687C75.5928 76.8203 77 75.4377 77 73.7325V20.0513C77 18.3461 75.5928 16.9635 73.8686 16.9635Z" fill="url(#paint0_linear_4061_14918)"/>
<path fill-rule="evenodd" clip-rule="evenodd" d="M70.0849 63.2987C70.0849 63.907 69.591 64.3956 68.9758 64.3956H56.9908C56.385 64.3956 55.8912 63.9071 55.8912 63.2987C55.8912 62.6995 56.385 62.2018 56.9908 62.2018H68.9758C69.591 62.2018 70.0849 62.6995 70.0849 63.2987ZM56.2361 58.6901C56.6275 58.2291 56.5716 57.5378 56.1057 57.1508C55.6304 56.7636 54.9408 56.819 54.54 57.289L49.6658 63.0406L47.2054 60.1741C46.8141 59.7132 46.1151 59.658 45.649 60.045C45.183 60.4413 45.1272 61.1326 45.5185 61.5935L48.8269 65.4464C49.2747 65.9671 50.096 65.9581 50.523 65.4464L56.2361 58.6901ZM70.0849 51.012C70.0849 51.6112 69.591 52.1089 68.9758 52.1089H56.9908C56.385 52.1089 55.8912 51.6112 55.8912 51.012C55.8912 50.4038 56.385 49.9151 56.9908 49.9151H68.9758C69.591 49.9151 70.0849 50.4038 70.0849 51.012ZM45.5185 49.2976L48.8269 53.1596C49.2738 53.6799 50.0957 53.6715 50.523 53.1596L56.2359 46.4034C56.6274 45.9333 56.5714 45.2513 56.1055 44.8549C55.6302 44.4677 54.9407 44.5323 54.5398 44.9931L49.6657 50.7538L47.2052 47.8873C46.8139 47.4263 46.1149 47.3712 45.6489 47.7582C45.183 48.1455 45.1272 48.8368 45.5185 49.2976ZM70.0849 38.7255C70.0849 39.3247 69.591 39.8131 68.9758 39.8131H56.9908C56.385 39.8131 55.8912 39.3247 55.8912 38.7255C55.8912 38.1173 56.385 37.6286 56.9908 37.6286H68.9758C69.591 37.6286 70.0849 38.1171 70.0849 38.7255ZM45.5185 37.0111L48.8269 40.8731C49.2732 41.3926 50.0855 41.3882 50.523 40.8638L56.2359 34.1076C56.6274 33.6467 56.5714 32.9555 56.1055 32.5684C55.6302 32.1813 54.9407 32.2458 54.5398 32.7066L49.6657 38.4673L47.2052 35.6008C46.8139 35.1398 46.1149 35.0847 45.6489 35.4717C45.183 35.8588 45.1272 36.5502 45.5185 37.0111ZM19.0045 24.7521C18.3987 24.7521 17.914 24.2637 17.914 23.6645C17.914 23.0653 18.3987 22.5769 19.0045 22.5769C19.6103 22.5769 20.1041 23.0653 20.1041 23.6645C20.1041 24.2637 19.6103 24.7521 19.0045 24.7521ZM26.8515 16.6133C26.4414 16.1616 25.7425 16.134 25.2858 16.5395L20.57 20.7794C18.8053 19.837 16.5758 20.6756 15.8916 22.5676H10.7568C10.1509 22.5676 9.65708 23.056 9.65708 23.6645C9.65708 24.2728 10.1509 24.7614 10.7568 24.7614H15.8918C16.3485 26.0242 17.5693 26.9366 19.0045 26.9366C21.3489 26.9366 22.9578 24.5924 22.0613 22.4017L26.7769 18.1525C27.2336 17.747 27.2616 17.0557 26.8515 16.6133ZM4 23.6645C4 31.8494 10.7288 38.5043 19.0045 38.5043C27.2201 38.5043 33.8786 32.0041 34.009 23.9226C34.0183 23.3234 33.5337 22.8257 32.9279 22.8166C32.3067 22.8118 31.8103 23.2805 31.8002 23.8858C31.6791 30.7434 25.9382 36.3198 19.0045 36.3198C11.9496 36.3198 6.20873 30.6419 6.20873 23.6645C6.20873 14.9446 14.9367 8.86945 23.2076 11.7096L21.4461 12.1613C20.8591 12.3088 20.4956 12.908 20.654 13.4978C20.8127 14.0906 21.4246 14.4133 22.0054 14.2813L26.6744 13.083C26.8322 13.0244 26.9988 12.965 27.1217 12.8433C27.1664 12.8433 27.42 12.5157 27.42 12.4377L27.4945 12.1888C27.528 11.8539 27.4901 11.8399 27.4106 11.5805L24.8757 7.35905C24.5682 6.83365 23.8878 6.66774 23.366 6.97188C22.8347 7.2853 22.667 7.95805 22.9745 8.47434L23.6175 9.53426C13.9807 6.47736 4 13.5648 4 23.6645ZM74.7819 73.7325V20.0513C74.7819 19.5536 74.3718 19.148 73.8686 19.148H50.9612V27.8492C50.9612 29.5543 49.5633 30.9461 47.8392 30.9461H39.0322V59.1878H41.3155C41.9214 59.1878 42.4152 59.6762 42.4152 60.2754V74.2119C42.4152 74.3594 42.3966 74.4976 42.3778 74.6358H73.8686C74.3718 74.6358 74.7819 74.2303 74.7819 73.7325ZM21.9588 74.6358H9.81544C9.31219 74.6358 8.98608 74.3594 8.98608 74.2119V61.3723H12.4902V66.497C12.4902 67.0962 12.9935 67.5846 13.5993 67.5846H18.8835C19.4893 67.5846 19.9832 67.0962 19.9832 66.497V61.3723H23.4873V74.6358H21.9588ZM14.7082 61.3723V65.4002H17.7743V61.3723H14.7082ZM9.81544 45.9242H12.4902V51.049C12.4902 51.6482 12.9935 52.1366 13.5993 52.1366H18.8835C19.4893 52.1366 19.9832 51.6482 19.9832 51.049V45.9242H23.4873V59.1878H8.98608V46.3482C8.98608 46.2007 9.31219 45.9242 9.81544 45.9242ZM14.7082 45.9242V49.9521H17.7743V45.9242H14.7082ZM31.4181 61.3723H34.4842V65.4002H31.4181V61.3723ZM40.2065 74.2119C40.2065 74.3594 39.8802 74.6358 39.3769 74.6358H25.7053V61.3723H29.2094V66.497C29.2094 67.0962 29.7034 67.5846 30.3185 67.5846H35.5933C36.2083 67.5846 36.7023 67.0962 36.7023 66.497V61.3723H40.2065V74.2119ZM48.7525 20.6965V27.8492C48.7525 28.3469 48.3424 28.7525 47.8392 28.7525H40.598L48.7525 20.6965ZM73.8686 16.9635H49.8522C49.5633 16.9635 49.2837 17.0741 49.0786 17.2769L37.1496 29.075C36.9353 29.2779 36.8235 29.5634 36.8235 29.8493V59.1878H25.7053V44.8273C25.7053 44.2282 25.2114 43.7397 24.5962 43.7397H9.81544C8.13794 43.7397 6.77734 44.9104 6.77734 46.3482V74.2119C6.77734 75.6497 8.13794 76.8203 9.81544 76.8203H73.8687C75.5928 76.8203 77 75.4377 77 73.7325V20.0513C77 18.3461 75.5928 16.9635 73.8686 16.9635Z" stroke="url(#paint1_linear_4061_14918)" mask="url(#path-1-outside-1_4061_14918)"/>
<defs>
<linearGradient id="paint0_linear_4061_14918" x1="33.0338" y1="0.153267" x2="33.3137" y2="94.7828" gradientUnits="userSpaceOnUse">
<stop stop-color="#81319B"/>
<stop offset="0.5103" stop-color="#00A99D"/>
<stop offset="1" stop-color="#0B2C4C"/>
</linearGradient>
<linearGradient id="paint1_linear_4061_14918" x1="40.738" y1="-11.8323" x2="40.738" y2="99.6292" gradientUnits="userSpaceOnUse">
<stop stop-color="#81319B"/>
<stop offset="0.5" stop-color="#00A99D"/>
<stop offset="1" stop-color="#0B2C4C"/>
</linearGradient>
</defs>
</svg>
