<svg width="22" height="22" viewBox="0 0 22 22" fill="none" xmlns="http://www.w3.org/2000/svg">
<path d="M11 8.06667C13.0673 8.06667 14.9109 9.20267 15.8109 11C14.9109 12.7973 13.0673 13.9333 11 13.9333C8.93273 13.9333 7.08909 12.7973 6.18909 11C7.08909 9.20267 8.93273 8.06667 11 8.06667ZM11 7C8.27273 7 5.94364 8.65867 5 11C5.94364 13.3413 8.27273 15 11 15C13.7273 15 16.0564 13.3413 17 11C16.0564 8.65867 13.7273 7 11 7ZM11 9.66667C11.7527 9.66667 12.3636 10.264 12.3636 11C12.3636 11.736 11.7527 12.3333 11 12.3333C10.2473 12.3333 9.63636 11.736 9.63636 11C9.63636 10.264 10.2473 9.66667 11 9.66667ZM11 8.6C9.64727 8.6 8.54545 9.67733 8.54545 11C8.54545 12.3227 9.64727 13.4 11 13.4C12.3527 13.4 13.4545 12.3227 13.4545 11C13.4545 9.67733 12.3527 8.6 11 8.6Z" fill="#00A99D"/>
</svg>
