<svg width="22" height="22" viewBox="0 0 22 22" fill="none" xmlns="http://www.w3.org/2000/svg">
<path d="M11 7.85379C13.0673 7.85379 14.9109 8.96606 15.8109 10.7258C15.4891 11.3629 15.0364 11.9112 14.4964 12.3551L15.2655 13.0914C16.0236 12.4491 16.6236 11.6449 17 10.7258C16.0564 8.43342 13.7273 6.8094 11 6.8094C10.3073 6.8094 9.64182 6.91384 9.01455 7.10705L9.91455 7.96867C10.2691 7.90078 10.6291 7.85379 11 7.85379ZM10.4164 8.44909L11.5455 9.53003C11.8564 9.66057 12.1073 9.90078 12.2436 10.1984L13.3727 11.2794C13.4164 11.1018 13.4491 10.9138 13.4491 10.7206C13.4545 9.42559 12.3527 8.37598 11 8.37598C10.7982 8.37598 10.6073 8.40209 10.4164 8.44909ZM5.55091 6.74151L7.01273 8.14099C6.12364 8.8094 5.42 9.69713 5 10.7258C5.94364 13.0183 8.27273 14.6423 11 14.6423C11.8291 14.6423 12.6255 14.4909 13.3564 14.2141L15.2218 16L15.9909 15.2637L6.32 6L5.55091 6.74151ZM9.64182 10.658L11.0655 12.0209C11.0436 12.0261 11.0218 12.0313 11 12.0313C10.2473 12.0313 9.63636 11.4465 9.63636 10.7258C9.63636 10.6997 9.64182 10.6841 9.64182 10.658ZM7.78727 8.88251L8.74182 9.79634C8.61636 10.0836 8.54545 10.3969 8.54545 10.7258C8.54545 12.0209 9.64727 13.0757 11 13.0757C11.3436 13.0757 11.6709 13.0078 11.9655 12.8877L12.5 13.3995C12.02 13.5248 11.5182 13.5979 11 13.5979C8.93273 13.5979 7.08909 12.4856 6.18909 10.7258C6.57091 9.97911 7.12727 9.36292 7.78727 8.88251Z" fill="#AEAEAF"/>
</svg>
