<svg width="30" height="30" viewBox="0 0 30 30" fill="none" xmlns="http://www.w3.org/2000/svg">
<circle cx="15" cy="15" r="15" fill="#0B2C4C"/>
<path d="M14.9986 10.2333C18.4597 10.2333 21.5464 12.0793 23.0532 15C21.5464 17.9207 18.4597 19.7667 14.9986 19.7667C11.5375 19.7667 8.45077 17.9207 6.94395 15C8.45077 12.0793 11.5375 10.2333 14.9986 10.2333ZM14.9986 8.5C10.4325 8.5 6.533 11.1953 4.95312 15C6.533 18.8047 10.4325 21.5 14.9986 21.5C19.5647 21.5 23.4642 18.8047 25.044 15C23.4642 11.1953 19.5647 8.5 14.9986 8.5ZM14.9986 12.8333C16.2588 12.8333 17.2816 13.804 17.2816 15C17.2816 16.196 16.2588 17.1667 14.9986 17.1667C13.7383 17.1667 12.7155 16.196 12.7155 15C12.7155 13.804 13.7383 12.8333 14.9986 12.8333ZM14.9986 11.1C12.7338 11.1 10.8891 12.8507 10.8891 15C10.8891 17.1493 12.7338 18.9 14.9986 18.9C17.2634 18.9 19.1081 17.1493 19.1081 15C19.1081 12.8507 17.2634 11.1 14.9986 11.1Z" fill="white"/>
</svg>
