<svg width="18" height="12" viewBox="0 0 18 12" fill="none" xmlns="http://www.w3.org/2000/svg">
<path d="M9 1.96667C11.9286 1.96667 14.5405 3.52867 15.8155 6C14.5405 8.47133 11.9286 10.0333 9 10.0333C6.07136 10.0333 3.45955 8.47133 2.18455 6C3.45955 3.52867 6.07136 1.96667 9 1.96667ZM9 0.5C5.13636 0.5 1.83682 2.78067 0.5 6C1.83682 9.21933 5.13636 11.5 9 11.5C12.8636 11.5 16.1632 9.21933 17.5 6C16.1632 2.78067 12.8636 0.5 9 0.5ZM9 4.16667C10.0664 4.16667 10.9318 4.988 10.9318 6C10.9318 7.012 10.0664 7.83333 9 7.83333C7.93364 7.83333 7.06818 7.012 7.06818 6C7.06818 4.988 7.93364 4.16667 9 4.16667ZM9 2.7C7.08364 2.7 5.52273 4.18133 5.52273 6C5.52273 7.81867 7.08364 9.3 9 9.3C10.9164 9.3 12.4773 7.81867 12.4773 6C12.4773 4.18133 10.9164 2.7 9 2.7Z" fill="#0B2C4C"/>
</svg>
