<svg width="19" height="20" viewBox="0 0 19 20" fill="none" xmlns="http://www.w3.org/2000/svg">
<path d="M6.1068 10.3454L10.7522 4.2191L3.0871 0.231439C1.26287 -0.719974 -0.586174 1.46414 0.650662 3.1105L6.1068 10.3454Z" fill="white"/>
<path d="M1.22138 16.7942C0.00108802 18.4033 1.79636 20.5502 3.59577 19.6401L16.3861 13.1705C18.6033 12.0495 18.8763 9.36901 17.0065 7.67302C16.7377 7.42896 16.4274 7.22627 16.1048 7.05667L10.8182 4.25621C10.781 4.23552 10.7314 4.24793 10.7065 4.28102L1.22138 16.7942Z" fill="white"/>
<path d="M6.10693 10.3455H18.2436C18.2436 10.3455 18.4836 8.17794 15.7907 6.89147L10.7523 4.21924L6.10693 10.3455Z" fill="#F4F4F4"/>
</svg>
