<svg width="49" height="48" viewBox="0 0 49 48" fill="none" xmlns="http://www.w3.org/2000/svg">
<g clip-path="url(#clip0_893_46721)">
<path d="M38.1875 25.5395V22.3125C38.1875 21.0911 37.4047 20.0496 36.3146 19.662L36.3415 9.17143C36.3422 8.9214 36.243 8.68159 36.0659 8.50506L27.8089 0.273561C27.6332 0.0984371 27.3952 0 27.147 0H8.93765C7.38685 0 6.12517 1.26168 6.12517 2.81249V3.75008H5.18758C3.63677 3.75008 2.37509 5.01176 2.37509 6.56257L2.37527 15.9111C1.28393 16.2981 0.5 17.3402 0.5 18.5625V42.9374C0.5 44.4882 1.76168 45.7499 3.31249 45.7499H30.5073C32.3875 47.1622 34.7227 48 37.25 48C43.4533 48 48.5 42.9533 48.5 36.75C48.5 30.8626 43.9538 26.0175 38.1875 25.5395ZM28.0845 3.19592L33.1357 8.23159H28.8415C28.4241 8.23159 28.0844 7.89194 28.0844 7.47447V3.19592H28.0845ZM5.18758 5.62517H6.12517L6.12526 15.75H4.25027L4.25008 6.56266C4.25008 6.04573 4.67064 5.62517 5.18758 5.62517ZM2.37499 42.9374V18.5625C2.37499 18.0456 2.79555 17.625 3.31249 17.625H12.6875C13.2044 17.625 13.6249 18.0456 13.6249 18.5625V20.4376C13.6249 20.9554 14.0447 21.3751 14.5624 21.3751H24.6225C25.1403 21.3751 25.56 20.9554 25.56 20.4376C25.56 19.9198 25.1403 19.5001 24.6225 19.5001H15.4999V18.5625C15.4999 18.2271 15.4407 17.9053 15.3325 17.6068H28.8416C29.3594 17.6068 29.7791 17.1871 29.7791 16.6693C29.7791 16.1516 29.3594 15.7318 28.8416 15.7318H12.6875C12.6246 15.7318 12.5633 15.7383 12.504 15.75H8.00035L8.00016 2.81249C8.00016 2.29555 8.42072 1.87499 8.93765 1.87499H26.2095V7.47447C26.2095 8.92581 27.3903 10.1066 28.8416 10.1066H34.4641L34.44 19.5001H33.0601C32.5423 19.5001 32.1226 19.9198 32.1226 20.4376C32.1226 20.9554 32.5423 21.3751 33.0601 21.3751H35.3751C35.892 21.3751 36.3125 21.7957 36.3125 22.3126V25.5396C30.5463 26.0176 26.0001 30.8626 26.0001 36.7501C26.0001 39.4516 26.9575 41.9335 28.5505 43.875H3.31249C2.79555 43.8749 2.37499 43.4544 2.37499 42.9374ZM37.25 46.125C32.0807 46.125 27.8751 41.9194 27.8751 36.75C27.8751 31.5807 32.0807 27.3751 37.25 27.3751C42.4195 27.3751 46.625 31.5807 46.625 36.75C46.625 41.9194 42.4195 46.125 37.25 46.125Z" fill="#02BAAD"/>
<path d="M10.8125 6.35938H22.4591C22.9768 6.35938 23.3966 5.93966 23.3966 5.42188C23.3966 4.90409 22.9768 4.48438 22.4591 4.48438H10.8125C10.2947 4.48438 9.875 4.90409 9.875 5.42188C9.875 5.93966 10.2947 6.35938 10.8125 6.35938Z" fill="#02BAAD"/>
<path d="M10.8125 10.1094H22.4591C22.9768 10.1094 23.3966 9.68966 23.3966 9.17188C23.3966 8.65409 22.9768 8.23438 22.4591 8.23438H10.8125C10.2947 8.23438 9.875 8.65409 9.875 9.17188C9.875 9.68966 10.2947 10.1094 10.8125 10.1094Z" fill="#02BAAD"/>
<path d="M28.8414 11.9844H10.8125C10.2947 11.9844 9.875 12.4041 9.875 12.9219C9.875 13.4397 10.2947 13.8594 10.8125 13.8594H28.8414C29.3592 13.8594 29.7789 13.4397 29.7789 12.9219C29.7789 12.4041 29.3592 11.9844 28.8414 11.9844Z" fill="#02BAAD"/>
<path d="M40.7543 31.6484C40.003 31.6484 39.2968 31.941 38.7656 32.4721L36.1781 35.0596L35.7384 34.6199C35.2072 34.0888 34.501 33.7963 33.7498 33.7963C32.9986 33.7963 32.2924 34.0888 31.7612 34.6199C31.23 35.1511 30.9375 35.8573 30.9375 36.6086C30.9375 37.3598 31.2301 38.066 31.7612 38.5972L34.1895 41.0254C34.7207 41.5566 35.4269 41.8492 36.1781 41.8492C36.9293 41.8492 37.6356 41.5566 38.1667 41.0255L42.7429 36.4494C43.2741 35.9182 43.5666 35.212 43.5666 34.4608C43.5666 33.7095 43.274 33.0033 42.7429 32.4721C42.2117 31.941 41.5055 31.6484 40.7543 31.6484ZM41.4171 35.1236L36.8409 39.6997C36.6639 39.8768 36.4285 39.9742 36.1782 39.9742C35.9278 39.9742 35.6925 39.8767 35.5155 39.6997L33.0872 37.2714C32.7217 36.9059 32.7217 36.3113 33.0872 35.9458C33.2642 35.7688 33.4996 35.6713 33.7499 35.6713C34.0002 35.6713 34.2356 35.7688 34.4126 35.9458L35.5152 37.0484C35.8813 37.4145 36.4749 37.4145 36.8411 37.0484L40.0915 33.798C40.2685 33.6209 40.5039 33.5235 40.7543 33.5235C41.0046 33.5235 41.24 33.621 41.4171 33.798C41.5941 33.975 41.6916 34.2103 41.6916 34.4608C41.6916 34.7112 41.5941 34.9466 41.4171 35.1236Z" fill="#02BAAD"/>
<path d="M14.5625 40.125C14.0447 40.125 13.625 40.5447 13.625 41.0625C13.625 41.5803 14.0447 42 14.5625 42H14.5632C15.0809 42 15.5004 41.5803 15.5004 41.0625C15.5004 40.5447 15.0803 40.125 14.5625 40.125Z" fill="#02BAAD"/>
<path d="M10.3435 40.125H5.1875C4.66972 40.125 4.25 40.5447 4.25 41.0625C4.25 41.5803 4.66972 42 5.1875 42H10.3434C10.8612 42 11.2809 41.5803 11.2809 41.0625C11.2809 40.5447 10.8612 40.125 10.3435 40.125Z" fill="#02BAAD"/>
<path d="M28.844 21.375C29.3618 21.375 29.7815 20.9553 29.7815 20.4375C29.7815 19.9197 29.3618 19.5 28.844 19.5H28.8434C28.3256 19.5 27.9062 19.9197 27.9062 20.4375C27.9062 20.9553 28.3263 21.375 28.844 21.375Z" fill="#02BAAD"/>
</g>
<defs>
<clipPath id="clip0_893_46721">
<rect width="48" height="48" fill="white" transform="translate(0.5)"/>
</clipPath>
</defs>
</svg>
