<svg width="13" height="13" viewBox="0 0 13 13" fill="none" xmlns="http://www.w3.org/2000/svg">
<mask id="path-1-inside-1_75474_67604" fill="white">
<path d="M12.3005 9.78867e-07H0.710321C0.505902 -0.000385692 0.318496 0.113811 0.225051 0.295674C0.130317 0.479986 0.146944 0.701934 0.267972 0.870264L4.51411 6.85178C4.51553 6.85384 4.51708 6.85577 4.5185 6.85783C4.67278 7.06612 4.75617 7.31836 4.75668 7.57768V12.4544C4.75578 12.5988 4.81249 12.7375 4.91432 12.84C5.01614 12.9425 5.15457 12.9999 5.29892 12.9999C5.37239 12.9999 5.44496 12.9852 5.51275 12.9572L7.89876 12.0473C8.11259 11.9821 8.25449 11.7804 8.25449 11.5374V7.57768C8.25488 7.31849 8.3384 7.06612 8.49255 6.85783C8.49397 6.85577 8.49552 6.85384 8.49693 6.85178L12.7429 0.870006C12.864 0.701805 12.8806 0.479986 12.7859 0.295674C12.6924 0.113811 12.505 -0.000385692 12.3005 9.78867e-07ZM7.96049 6.46691C7.72334 6.78875 7.59509 7.17787 7.59432 7.57768V11.4573L5.4166 12.2876V7.57768C5.41583 7.17787 5.28758 6.78875 5.05029 6.46691L0.928016 0.659916H12.0829L7.96049 6.46691Z"/>
</mask>
<path d="M12.3005 9.78867e-07H0.710321C0.505902 -0.000385692 0.318496 0.113811 0.225051 0.295674C0.130317 0.479986 0.146944 0.701934 0.267972 0.870264L4.51411 6.85178C4.51553 6.85384 4.51708 6.85577 4.5185 6.85783C4.67278 7.06612 4.75617 7.31836 4.75668 7.57768V12.4544C4.75578 12.5988 4.81249 12.7375 4.91432 12.84C5.01614 12.9425 5.15457 12.9999 5.29892 12.9999C5.37239 12.9999 5.44496 12.9852 5.51275 12.9572L7.89876 12.0473C8.11259 11.9821 8.25449 11.7804 8.25449 11.5374V7.57768C8.25488 7.31849 8.3384 7.06612 8.49255 6.85783C8.49397 6.85577 8.49552 6.85384 8.49693 6.85178L12.7429 0.870006C12.864 0.701805 12.8806 0.479986 12.7859 0.295674C12.6924 0.113811 12.505 -0.000385692 12.3005 9.78867e-07ZM7.96049 6.46691C7.72334 6.78875 7.59509 7.17787 7.59432 7.57768V11.4573L5.4166 12.2876V7.57768C5.41583 7.17787 5.28758 6.78875 5.05029 6.46691L0.928016 0.659916H12.0829L7.96049 6.46691Z" fill="#0B2C4C"/>
<path d="M12.3005 9.78867e-07V3.00001L12.3061 3L12.3005 9.78867e-07ZM0.710321 9.78867e-07L0.704646 3H0.710321V9.78867e-07ZM0.225051 0.295674L2.89324 1.66709L2.89342 1.66673L0.225051 0.295674ZM0.267972 0.870264L2.71426 -0.866303L2.70902 -0.873682L2.70374 -0.881029L0.267972 0.870264ZM4.51411 6.85178L6.98624 5.15218L6.97346 5.1336L6.9604 5.11521L4.51411 6.85178ZM4.5185 6.85783L2.04638 8.55743L2.07633 8.601L2.1078 8.64348L4.5185 6.85783ZM4.75668 7.57768H7.75669L7.75668 7.57172L4.75668 7.57768ZM4.75668 12.4544L7.75663 12.4731L7.75668 12.4637V12.4544H4.75668ZM4.91432 12.84L7.04232 10.7254L7.04232 10.7254L4.91432 12.84ZM5.51275 12.9572L4.44386 10.154L4.40378 10.1693L4.36414 10.1857L5.51275 12.9572ZM7.89876 12.0473L7.02355 9.17782L6.92558 9.2077L6.82987 9.2442L7.89876 12.0473ZM8.25449 7.57768L5.25449 7.57321V7.57768H8.25449ZM8.49255 6.85783L10.904 8.64252L10.9351 8.6005L10.9647 8.55743L8.49255 6.85783ZM8.49693 6.85178L6.05058 5.11529L6.03755 5.13365L6.02479 5.15221L8.49693 6.85178ZM12.7429 0.870006L10.3078 -0.88217L10.3022 -0.874341L10.2966 -0.866476L12.7429 0.870006ZM12.7859 0.295674L10.1175 1.66674L10.1177 1.66709L12.7859 0.295674ZM7.96049 6.46691L10.3756 8.24657L10.3914 8.22519L10.4068 8.20352L7.96049 6.46691ZM7.59432 7.57768L4.59432 7.57188V7.57768H7.59432ZM7.59432 11.4573L8.66309 14.2604L10.5943 13.5241V11.4573H7.59432ZM5.4166 12.2876H2.4166V16.642L6.48537 15.0907L5.4166 12.2876ZM5.4166 7.57768H8.4166L8.41659 7.57188L5.4166 7.57768ZM5.05029 6.46691L2.60401 8.20348L2.61963 8.22548L2.63564 8.2472L5.05029 6.46691ZM0.928016 0.659916V-2.34008H-4.88068L-1.51827 2.39649L0.928016 0.659916ZM12.0829 0.659916L14.5292 2.39653L17.8917 -2.34008H12.0829V0.659916ZM12.3005 -3H0.710321V3H12.3005V-3ZM0.715996 -2.99999C-0.615409 -3.00251 -1.83528 -2.25876 -2.44332 -1.07539L2.89342 1.66673C2.47227 2.48638 1.62721 3.00174 0.704646 3L0.715996 -2.99999ZM-2.44314 -1.07574C-3.05357 0.11191 -2.94559 1.53978 -2.1678 2.62156L2.70374 -0.881029C3.23947 -0.135909 3.31421 0.848062 2.89324 1.66709L-2.44314 -1.07574ZM-2.17832 2.60683L2.06782 8.58834L6.9604 5.11521L2.71426 -0.866303L-2.17832 2.60683ZM2.04199 8.55137C2.06224 8.58082 2.07922 8.6044 2.08982 8.61895C2.09521 8.62636 2.09963 8.63237 2.1024 8.63611C2.1038 8.63802 2.10496 8.63958 2.1057 8.64058C2.10638 8.6415 2.10698 8.64231 2.10699 8.64232C2.10751 8.64302 2.10567 8.64055 2.10351 8.63761C2.10111 8.63437 2.09705 8.62886 2.09203 8.62196C2.08217 8.60841 2.06591 8.58585 2.04638 8.55743L6.99062 5.15824C6.97037 5.12879 6.95339 5.10521 6.94279 5.09066C6.9374 5.08325 6.93298 5.07724 6.93021 5.0735C6.9288 5.07159 6.92765 5.07003 6.92691 5.06903C6.92623 5.06811 6.92563 5.0673 6.92562 5.06729C6.9251 5.06659 6.92694 5.06906 6.9291 5.072C6.9315 5.07524 6.93556 5.08075 6.94058 5.08765C6.95044 5.1012 6.9667 5.12376 6.98624 5.15218L2.04199 8.55137ZM2.1078 8.64348C1.87987 8.33577 1.75745 7.96409 1.75669 7.58365L7.75668 7.57172C7.75489 6.67263 7.46568 5.79646 6.92919 5.07219L2.1078 8.64348ZM1.75668 7.57768V12.4544H7.75668V7.57768H1.75668ZM1.75674 12.4356C1.75085 13.3793 2.12161 14.2857 2.78631 14.9546L7.04232 10.7254C7.50338 11.1893 7.76071 11.8184 7.75663 12.4731L1.75674 12.4356ZM2.78631 14.9546C3.45217 15.6247 4.3569 15.9999 5.29892 15.9999V9.99994C5.95224 9.99994 6.58011 10.2602 7.04232 10.7254L2.78631 14.9546ZM5.29892 15.9999C5.77321 15.9999 6.23562 15.905 6.66136 15.7286L4.36414 10.1857C4.65429 10.0655 4.97157 9.99994 5.29892 9.99994V15.9999ZM6.58164 15.7603L8.96764 14.8504L6.82987 9.2442L4.44386 10.154L6.58164 15.7603ZM8.77396 14.9168C10.3768 14.428 11.2545 12.9628 11.2545 11.5374H5.25449C5.25449 10.598 5.84841 9.53624 7.02355 9.17782L8.77396 14.9168ZM11.2545 11.5374V7.57768H5.25449V11.5374H11.2545ZM11.2545 7.58216C11.2539 7.96455 11.1308 8.33596 10.904 8.64252L6.08114 5.07315C5.54595 5.79628 5.25584 6.67242 5.2545 7.57321L11.2545 7.58216ZM10.9647 8.55743C10.9451 8.58585 10.9289 8.60842 10.919 8.62197C10.914 8.62887 10.9099 8.63438 10.9075 8.63762C10.9054 8.64055 10.9035 8.64303 10.9041 8.64233C10.9041 8.64231 10.9047 8.64151 10.9053 8.64058C10.9061 8.63959 10.9072 8.63802 10.9087 8.63611C10.9114 8.63237 10.9158 8.62636 10.9212 8.61895C10.9318 8.60439 10.9488 8.5808 10.9691 8.55134L6.02479 5.15221C6.04434 5.12378 6.0606 5.10121 6.07046 5.08766C6.07549 5.08075 6.07955 5.07524 6.08195 5.072C6.08412 5.06906 6.08596 5.06658 6.08543 5.06728C6.08543 5.06729 6.08483 5.0681 6.08415 5.06902C6.08341 5.07002 6.08225 5.07158 6.08084 5.07349C6.07808 5.07723 6.07365 5.08324 6.06826 5.09065C6.05767 5.1052 6.04068 5.12878 6.02043 5.15824L10.9647 8.55743ZM10.9433 8.58826L15.1893 2.60649L10.2966 -0.866476L6.05058 5.11529L10.9433 8.58826ZM15.1781 2.62218C15.9568 1.5399 16.0644 0.111651 15.4541 -1.07574L10.1177 1.66709C9.69685 0.848321 9.77112 -0.136287 10.3078 -0.88217L15.1781 2.62218ZM15.4542 -1.07539C14.846 -2.25912 13.6259 -3.00251 12.2948 -2.99999L12.3061 3C11.3841 3.00174 10.5388 2.48674 10.1175 1.66674L15.4542 -1.07539ZM5.54538 4.68725C4.92929 5.52332 4.59633 6.53391 4.59433 7.57188L10.5943 7.58349C10.5939 7.82182 10.5174 8.05418 10.3756 8.24657L5.54538 4.68725ZM4.59432 7.57768V11.4573H10.5943V7.57768H4.59432ZM6.52555 8.6541L4.34783 9.4844L6.48537 15.0907L8.66309 14.2604L6.52555 8.6541ZM8.4166 12.2876V7.57768H2.4166V12.2876H8.4166ZM8.41659 7.57188C8.41459 6.53387 8.08159 5.52298 7.46495 4.68662L2.63564 8.2472C2.49357 8.05451 2.41707 7.82187 2.4166 7.58349L8.41659 7.57188ZM7.49658 4.73034L3.3743 -1.07666L-1.51827 2.39649L2.60401 8.20348L7.49658 4.73034ZM0.928016 3.65992H12.0829V-2.34008H0.928016V3.65992ZM9.63664 -1.07669L5.51424 4.7303L10.4068 8.20352L14.5292 2.39653L9.63664 -1.07669Z" fill="#0B2C4C" mask="url(#path-1-inside-1_75474_67604)"/>
</svg>
