<svg width="268" height="238" viewBox="0 0 268 238" fill="none" xmlns="http://www.w3.org/2000/svg">
<path d="M228.412 106.125C280.665 136.293 280.665 185.203 228.412 215.375C176.158 245.543 91.4375 245.543 39.1898 215.375C-13.0635 185.208 -13.0635 136.298 39.1898 106.125C91.443 75.9582 176.164 75.9582 228.412 106.125Z" fill="#FAFAFA"/>
<path d="M93.7002 203.714L210.422 136.325L174.347 115.496L57.6203 182.885L93.7002 203.714Z" fill="#E0E0E0"/>
<path d="M205.079 177.624C197.135 182.263 197.135 189.784 205.079 194.418C213.023 199.057 225.903 199.057 233.847 194.418C241.791 189.779 241.791 182.263 233.847 177.624C225.903 172.985 213.023 172.985 205.079 177.624Z" fill="#E0E0E0"/>
<path d="M192.977 58.002V79.4897L164.039 62.7728L164.028 41.2852L192.977 58.002Z" fill="#00A99D"/>
<path d="M192.977 79.4903L159.894 98.5898L130.935 81.8784L164.039 62.7734L192.977 79.4903Z" fill="#00A99D"/>
<path opacity="0.3" d="M192.977 79.4903L159.894 98.5898L130.935 81.8784L164.039 62.7734L192.977 79.4903Z" fill="white"/>
<path d="M130.923 81.877L130.934 103.365L159.883 120.081V98.5883L130.923 81.877Z" fill="#00A99D"/>
<path d="M159.883 120.082L126.795 139.182L97.8465 122.47L130.934 103.365L159.883 120.082Z" fill="#00A99D"/>
<path opacity="0.3" d="M159.883 120.082L126.795 139.182L97.8465 122.47L130.934 103.365L159.883 120.082Z" fill="white"/>
<path d="M97.8484 122.471V143.958L126.797 160.675V139.182L97.8484 122.471Z" fill="#00A99D"/>
<path d="M126.797 160.678L93.7145 179.777L64.766 163.066L97.8484 143.961L126.797 160.678Z" fill="#00A99D"/>
<path opacity="0.3" d="M126.797 160.678L93.7145 179.777L64.766 163.066L97.8484 143.961L126.797 160.678Z" fill="white"/>
<path d="M64.7547 163.062V184.55L93.7031 201.262V179.774L64.7547 163.062Z" fill="#00A99D"/>
<path d="M192.975 58.0008L223.993 40.0926L234.336 46.0602L230.197 19.7963L184.707 17.4082L195.044 23.3758L164.026 41.284L192.975 58.0008Z" fill="#00A99D"/>
<path opacity="0.3" d="M192.975 58.0008L223.993 40.0926L234.336 46.0602L230.197 19.7963L184.707 17.4082L195.044 23.3758L164.026 41.284L192.975 58.0008Z" fill="white"/>
<path d="M126.804 160.675V139.182L159.892 120.082V98.5891L192.975 79.4896V58.0019L223.993 40.0938L234.336 46.0613V50.8376L223.993 44.87L197.114 60.3846V81.8777L164.026 100.983V122.47L130.944 141.57V163.057L97.856 182.162V198.874L93.722 201.262V179.774L126.804 160.675Z" fill="#00A99D"/>
<path opacity="0.3" d="M126.804 160.675V139.182L159.892 120.082V98.5891L192.975 79.4896V58.0019L223.993 40.0938L234.336 46.0613V50.8376L223.993 44.87L197.114 60.3846V81.8777L164.026 100.983V122.47L130.944 141.57V163.057L97.856 182.162V198.874L93.722 201.262V179.774L126.804 160.675Z" fill="black"/>
<path d="M184.709 17.4082V22.1845L190.913 25.7639L195.047 23.3758L184.709 17.4082Z" fill="#00A99D"/>
<path opacity="0.3" d="M184.709 17.4082V22.1845L190.913 25.7639L195.047 23.3758L184.709 17.4082Z" fill="black"/>
<path d="M175.557 75.267C175.557 75.267 175.535 75.267 175.524 75.267C175.013 75.1627 174.475 75.1243 173.937 75.1462C173.844 75.1462 173.773 75.0804 173.767 74.9925C173.767 74.9047 173.833 74.8278 173.921 74.8223C174.481 74.8004 175.046 74.8388 175.584 74.9486C175.672 74.9651 175.727 75.0529 175.71 75.1407C175.694 75.2176 175.628 75.2725 175.551 75.2725L175.557 75.267ZM178.746 77.979C178.746 77.5838 178.637 77.2159 178.417 76.8865C178.368 76.8097 178.39 76.7109 178.461 76.6615C178.538 76.612 178.637 76.634 178.686 76.7054C178.939 77.0897 179.07 77.5179 179.07 77.9736C179.07 78.1877 179.043 78.4073 178.988 78.6378C178.971 78.7092 178.906 78.7586 178.829 78.7586C178.818 78.7586 178.801 78.7586 178.79 78.7586C178.702 78.7367 178.648 78.6488 178.67 78.561C178.719 78.3579 178.746 78.1657 178.741 77.979H178.746ZM175.2 82.4808C175.43 82.3435 175.65 82.2063 175.853 82.0691C176.095 81.9044 176.342 81.7177 176.583 81.5036C176.649 81.4432 176.754 81.4542 176.814 81.5201C176.874 81.5859 176.863 81.6902 176.797 81.7506C176.545 81.9702 176.287 82.1624 176.034 82.3326C175.826 82.4753 175.606 82.6126 175.365 82.7553C175.337 82.7718 175.31 82.7772 175.282 82.7772C175.227 82.7772 175.172 82.7498 175.145 82.6949C175.101 82.618 175.123 82.5192 175.2 82.4753V82.4808ZM173.13 83.5568C173.641 83.3153 174.107 83.0792 174.525 82.8596C174.602 82.8157 174.7 82.8486 174.744 82.9255C174.788 83.0023 174.755 83.1012 174.678 83.1451C174.261 83.3702 173.789 83.6062 173.273 83.8478C173.251 83.8588 173.229 83.8643 173.202 83.8643C173.141 83.8643 173.081 83.8313 173.053 83.7709C173.015 83.6886 173.053 83.5953 173.13 83.5568ZM178.346 79.4009C178.39 79.3241 178.488 79.2911 178.565 79.3351C178.642 79.379 178.675 79.4723 178.631 79.5547C178.362 80.0652 177.978 80.5868 177.484 81.0973C177.451 81.1303 177.407 81.1467 177.368 81.1467C177.33 81.1467 177.286 81.1303 177.259 81.1028C177.193 81.0424 177.193 80.9381 177.259 80.8722C177.725 80.3836 178.093 79.8895 178.351 79.4009H178.346ZM176.188 75.2615C176.216 75.1792 176.309 75.1298 176.391 75.1627C176.655 75.2505 176.913 75.3603 177.165 75.4811C177.478 75.6348 177.758 75.805 177.994 75.9862C178.066 76.0411 178.077 76.1399 178.022 76.2113C177.989 76.2552 177.939 76.2772 177.895 76.2772C177.863 76.2772 177.824 76.2662 177.797 76.2442C177.577 76.074 177.314 75.9148 177.023 75.7721C176.786 75.6568 176.539 75.5525 176.287 75.4701C176.205 75.4427 176.155 75.3494 176.188 75.267V75.2615ZM160.613 84.1717C160.152 84.4352 159.702 84.6768 159.268 84.9073C159.246 84.9183 159.219 84.9238 159.191 84.9238C159.131 84.9238 159.076 84.8909 159.048 84.836C159.005 84.7591 159.038 84.6603 159.114 84.6164C159.543 84.3858 159.993 84.1442 160.454 83.8862C160.531 83.8423 160.63 83.8698 160.674 83.9466C160.717 84.0235 160.69 84.1223 160.613 84.1662V84.1717ZM156.589 86.3732C156.353 86.5159 156.144 86.6531 155.963 86.7849C155.749 86.9386 155.557 87.0978 155.392 87.257C155.359 87.2845 155.321 87.301 155.282 87.301C155.238 87.301 155.195 87.2845 155.167 87.2516C155.107 87.1857 155.107 87.0814 155.173 87.021C155.354 86.8508 155.557 86.6861 155.776 86.5214C155.969 86.3841 156.183 86.2414 156.424 86.0932C156.501 86.0493 156.6 86.0712 156.649 86.1481C156.693 86.2249 156.671 86.3238 156.594 86.3732H156.589ZM173.141 75.2231C172.636 75.3 172.109 75.4317 171.588 75.6074C171.571 75.6129 171.555 75.6184 171.533 75.6184C171.467 75.6184 171.401 75.5745 171.379 75.5086C171.351 75.4262 171.395 75.3329 171.478 75.3C172.021 75.1133 172.565 74.976 173.086 74.8992C173.18 74.8827 173.256 74.9486 173.273 75.0364C173.284 75.1243 173.224 75.2066 173.136 75.2231H173.141ZM161.942 83.3921C161.722 83.5294 161.503 83.6611 161.283 83.7874C161.255 83.8039 161.228 83.8094 161.201 83.8094C161.146 83.8094 161.091 83.7819 161.063 83.727C161.019 83.6502 161.041 83.5513 161.124 83.5074C161.338 83.3811 161.557 83.2494 161.777 83.1121C162.03 82.9584 162.288 82.7773 162.54 82.5851C162.611 82.5302 162.71 82.5467 162.765 82.6126C162.82 82.6839 162.804 82.7827 162.738 82.8376C162.474 83.0353 162.211 83.2219 161.947 83.3811L161.942 83.3921ZM165.554 80.0542L165.433 80.186C165.4 80.2244 165.356 80.2409 165.313 80.2409C165.274 80.2409 165.236 80.2299 165.203 80.197C165.137 80.1366 165.131 80.0323 165.192 79.9664L165.313 79.8346C165.691 79.4119 166.076 78.9782 166.471 78.5774C166.531 78.5116 166.636 78.5116 166.701 78.5774C166.767 78.6378 166.767 78.7421 166.701 78.808C166.312 79.2088 165.927 79.6425 165.554 80.0597V80.0542ZM163.462 82.2283C163.429 82.2557 163.391 82.2722 163.353 82.2722C163.309 82.2722 163.265 82.2557 163.232 82.2173C163.171 82.1514 163.177 82.0471 163.243 81.9867C163.644 81.6299 164.061 81.2071 164.56 80.6636C164.621 80.5977 164.725 80.5923 164.791 80.6526C164.857 80.713 164.862 80.8173 164.802 80.8832C164.291 81.4322 163.869 81.8604 163.462 82.2283ZM168.074 77.5453C167.843 77.7265 167.613 77.9241 167.371 78.1492C167.338 78.1767 167.3 78.1932 167.261 78.1932C167.218 78.1932 167.174 78.1767 167.141 78.1437C167.08 78.0779 167.086 77.9736 167.152 77.9132C167.399 77.6826 167.635 77.4795 167.876 77.2928C168.063 77.1446 168.288 76.9799 168.541 76.8042C168.617 76.7548 168.716 76.7713 168.766 76.8481C168.815 76.925 168.799 77.0238 168.722 77.0732C168.475 77.2434 168.255 77.4026 168.068 77.5508L168.074 77.5453ZM160.619 89.7989C160.926 89.6616 161.228 89.4969 161.519 89.3213C161.728 89.195 161.936 89.0632 162.145 88.926C162.216 88.8766 162.32 88.8985 162.37 88.9699C162.419 89.0468 162.397 89.1456 162.326 89.195C162.117 89.3322 161.903 89.4695 161.689 89.5958C161.387 89.7769 161.074 89.9471 160.756 90.0899C160.734 90.1008 160.712 90.1063 160.69 90.1063C160.63 90.1063 160.569 90.0734 160.542 90.013C160.503 89.9306 160.542 89.8373 160.624 89.7989H160.619ZM157.671 90.4522C158.313 90.4742 158.977 90.3753 159.663 90.1612C159.751 90.1338 159.839 90.1832 159.866 90.271C159.894 90.3589 159.845 90.4467 159.757 90.4741C159.098 90.6773 158.445 90.7816 157.824 90.7816C157.769 90.7816 157.714 90.7816 157.66 90.7816C157.572 90.7816 157.5 90.7047 157.5 90.6169C157.5 90.5291 157.588 90.4522 157.665 90.4577L157.671 90.4522ZM170.995 84.5121C171.483 84.3035 171.961 84.0948 172.427 83.8862C172.51 83.8478 172.603 83.8862 172.642 83.9686C172.68 84.0509 172.642 84.1443 172.559 84.1827C172.093 84.3913 171.615 84.5999 171.121 84.814C171.099 84.825 171.077 84.825 171.055 84.825C170.995 84.825 170.934 84.7866 170.907 84.7262C170.874 84.6438 170.907 84.5505 170.995 84.5121ZM154.646 87.6194C154.695 87.548 154.799 87.526 154.871 87.5809C154.942 87.6304 154.964 87.7347 154.909 87.806C154.7 88.108 154.591 88.399 154.591 88.668C154.591 88.8107 154.624 88.9479 154.679 89.0742C154.717 89.1566 154.678 89.2499 154.602 89.2883C154.58 89.2993 154.558 89.3048 154.536 89.3048C154.475 89.3048 154.415 89.2718 154.388 89.2115C154.311 89.0413 154.267 88.8546 154.267 88.668C154.267 88.3331 154.393 87.9817 154.64 87.6249L154.646 87.6194ZM155.118 89.6012C155.282 89.733 155.491 89.8648 155.733 89.9801C156.035 90.1283 156.347 90.2381 156.677 90.3204C156.765 90.3424 156.82 90.4302 156.798 90.5181C156.781 90.5949 156.715 90.6443 156.638 90.6443C156.627 90.6443 156.611 90.6443 156.6 90.6443C156.249 90.562 155.914 90.4357 155.59 90.282C155.326 90.1502 155.096 90.013 154.915 89.8593C154.843 89.8044 154.832 89.7001 154.893 89.6287C154.948 89.5573 155.052 89.5463 155.123 89.6067L155.118 89.6012ZM157.089 85.7089C157.5 85.4783 157.956 85.2367 158.439 84.9787C158.516 84.9348 158.615 84.9677 158.659 85.0446C158.703 85.1215 158.67 85.2203 158.593 85.2642C158.11 85.5167 157.66 85.7583 157.248 85.9889C157.22 86.0053 157.193 86.0108 157.171 86.0108C157.116 86.0108 157.061 85.9834 157.028 85.9285C156.984 85.8516 157.012 85.7528 157.089 85.7089ZM164.022 87.7017C164.099 87.6578 164.198 87.6798 164.247 87.7566C164.291 87.8335 164.269 87.9323 164.193 87.9817C163.72 88.2672 163.298 88.5472 162.941 88.7887C162.913 88.8052 162.88 88.8162 162.853 88.8162C162.804 88.8162 162.749 88.7887 162.716 88.7448C162.666 88.668 162.688 88.5691 162.76 88.5197C163.117 88.2782 163.545 87.9982 164.022 87.7072V87.7017ZM169.326 76.656C169.271 76.656 169.216 76.6285 169.188 76.5791C169.144 76.5023 169.166 76.4034 169.243 76.354C169.726 76.0631 170.221 75.8105 170.715 75.5964C170.797 75.5635 170.89 75.5964 170.929 75.6788C170.962 75.7611 170.929 75.8544 170.846 75.8929C170.369 76.1015 169.886 76.3485 169.414 76.6285C169.386 76.645 169.359 76.6505 169.331 76.6505L169.326 76.656ZM168.826 85.4179C169.309 85.2203 169.792 85.0171 170.27 84.814C170.352 84.7811 170.446 84.814 170.484 84.9019C170.517 84.9842 170.484 85.0775 170.396 85.116C169.919 85.3191 169.435 85.5167 168.952 85.7199C168.93 85.7308 168.908 85.7308 168.892 85.7308C168.826 85.7308 168.766 85.6924 168.744 85.632C168.711 85.5497 168.744 85.4563 168.832 85.4179H168.826ZM164.67 87.3229C165.098 87.0814 165.532 86.8563 166.004 86.6312C166.081 86.5928 166.18 86.6312 166.218 86.708C166.257 86.7904 166.218 86.8837 166.141 86.9222C165.675 87.1472 165.247 87.3668 164.824 87.6029C164.796 87.6194 164.769 87.6249 164.747 87.6249C164.692 87.6249 164.637 87.5974 164.604 87.5425C164.56 87.4657 164.588 87.3668 164.665 87.3229H164.67ZM166.69 86.3128C166.91 86.214 167.141 86.1151 167.382 86.0163L168.107 85.7144C168.189 85.6814 168.283 85.7144 168.321 85.8022C168.354 85.8846 168.321 85.9779 168.233 86.0163L167.514 86.3183C167.278 86.4171 167.047 86.5159 166.833 86.6147C166.811 86.6257 166.789 86.6312 166.767 86.6312C166.707 86.6312 166.647 86.5928 166.619 86.5324C166.581 86.45 166.619 86.3567 166.701 86.3183L166.69 86.3128Z" fill="white"/>
<path d="M130.867 116.771C131.153 116.667 131.427 116.557 131.691 116.447C131.932 116.343 132.201 116.222 132.481 116.085C132.564 116.046 132.657 116.079 132.695 116.162C132.734 116.244 132.701 116.337 132.618 116.376C132.333 116.513 132.058 116.639 131.811 116.744C131.548 116.859 131.268 116.969 130.971 117.073C130.955 117.078 130.933 117.084 130.917 117.084C130.851 117.084 130.79 117.045 130.763 116.98C130.73 116.897 130.774 116.804 130.856 116.771H130.867ZM130.933 110.276C130.933 110.189 131.01 110.117 131.098 110.117C131.817 110.139 132.487 110.227 133.085 110.375C133.173 110.397 133.222 110.485 133.2 110.573C133.184 110.644 133.118 110.694 133.041 110.694C133.03 110.694 133.014 110.694 133.003 110.694C132.426 110.545 131.784 110.463 131.087 110.441C130.999 110.441 130.927 110.364 130.927 110.276H130.933ZM128.331 117.6C128.913 117.424 129.489 117.243 130.033 117.062C130.115 117.029 130.208 117.078 130.236 117.166C130.263 117.249 130.219 117.342 130.131 117.369C129.588 117.551 129.012 117.732 128.424 117.913C128.408 117.913 128.391 117.918 128.375 117.918C128.303 117.918 128.243 117.874 128.221 117.803C128.194 117.715 128.243 117.627 128.331 117.6ZM133.25 115.679C133.815 115.366 134.298 115.042 134.683 114.729C134.748 114.674 134.853 114.679 134.913 114.751C134.968 114.822 134.957 114.921 134.891 114.981C134.49 115.311 133.991 115.64 133.409 115.964C133.382 115.98 133.36 115.986 133.332 115.986C133.277 115.986 133.222 115.958 133.189 115.904C133.145 115.827 133.173 115.728 133.25 115.684V115.679ZM128.122 110.364C128.803 110.243 129.473 110.167 130.099 110.134C130.192 110.134 130.263 110.2 130.269 110.287C130.269 110.375 130.203 110.452 130.115 110.458C129.5 110.491 128.847 110.567 128.177 110.688C128.166 110.688 128.161 110.688 128.15 110.688C128.073 110.688 128.001 110.633 127.99 110.556C127.974 110.469 128.034 110.386 128.122 110.37V110.364ZM125.761 118.374C126.294 118.209 126.832 118.05 127.37 117.891L127.474 117.858C127.562 117.831 127.65 117.88 127.677 117.968C127.705 118.056 127.655 118.143 127.568 118.171L127.463 118.204C126.925 118.363 126.387 118.522 125.86 118.687C125.844 118.687 125.827 118.692 125.811 118.692C125.739 118.692 125.679 118.649 125.657 118.577C125.63 118.489 125.679 118.402 125.767 118.374H125.761ZM118.163 115.849C118.136 115.871 118.098 115.887 118.065 115.887C118.015 115.887 117.971 115.865 117.938 115.827C117.883 115.755 117.894 115.657 117.966 115.602C118.46 115.206 118.948 114.817 119.443 114.438C119.514 114.383 119.618 114.394 119.668 114.465C119.723 114.537 119.712 114.635 119.64 114.69C119.152 115.069 118.657 115.459 118.169 115.854L118.163 115.849ZM135.819 112.972C135.819 112.879 135.808 112.78 135.786 112.686C135.764 112.599 135.819 112.511 135.907 112.489C135.995 112.467 136.083 112.522 136.105 112.61C136.132 112.73 136.148 112.851 136.148 112.972C136.148 113.422 135.945 113.883 135.55 114.35C135.517 114.388 135.473 114.405 135.429 114.405C135.391 114.405 135.352 114.394 135.325 114.366C135.259 114.306 135.248 114.207 135.308 114.136C135.654 113.73 135.83 113.34 135.83 112.966L135.819 112.972ZM125.24 111.105C125.866 110.897 126.508 110.716 127.15 110.562C127.244 110.54 127.326 110.595 127.343 110.683C127.365 110.77 127.31 110.858 127.222 110.875C126.585 111.023 125.954 111.199 125.339 111.407C125.322 111.413 125.306 111.418 125.289 111.418C125.223 111.418 125.158 111.374 125.136 111.309C125.108 111.226 125.152 111.133 125.24 111.105ZM113.59 119.066C113.129 119.313 112.69 119.532 112.273 119.741C112.251 119.752 112.223 119.758 112.201 119.758C112.141 119.758 112.086 119.725 112.059 119.67C112.02 119.587 112.053 119.494 112.13 119.45C112.547 119.241 112.981 119.027 113.442 118.78C113.519 118.736 113.618 118.769 113.662 118.846C113.706 118.923 113.673 119.022 113.596 119.066H113.59ZM121.919 113.06C121.441 113.367 120.941 113.713 120.381 114.125C120.354 114.147 120.321 114.158 120.283 114.158C120.233 114.158 120.184 114.136 120.151 114.092C120.096 114.021 120.112 113.916 120.184 113.867C120.744 113.45 121.254 113.098 121.737 112.791C121.814 112.741 121.913 112.763 121.962 112.84C122.012 112.917 121.99 113.016 121.913 113.065L121.919 113.06ZM135.517 112.055C135.473 112.055 135.429 112.039 135.396 112C135.232 111.819 135.018 111.632 134.759 111.457C134.501 111.281 134.221 111.127 133.925 111.001C133.843 110.968 133.804 110.869 133.837 110.787C133.876 110.705 133.969 110.666 134.051 110.699C134.37 110.836 134.666 111.001 134.941 111.182C135.221 111.374 135.457 111.572 135.638 111.775C135.698 111.841 135.693 111.945 135.627 112.006C135.594 112.033 135.556 112.05 135.517 112.05V112.055ZM109.5 121.037C109.566 120.976 109.67 120.982 109.731 121.048C109.791 121.114 109.786 121.218 109.72 121.278C109.275 121.69 109.045 122.085 109.045 122.453V122.475C109.045 122.563 108.973 122.623 108.88 122.623C108.787 122.623 108.715 122.541 108.715 122.448C108.715 121.986 108.979 121.509 109.495 121.037H109.5ZM111.707 124.221C112.328 124.287 113.019 124.237 113.733 124.089C113.821 124.073 113.909 124.128 113.925 124.215C113.942 124.303 113.887 124.391 113.799 124.408C113.272 124.517 112.756 124.578 112.267 124.578C112.064 124.578 111.866 124.567 111.674 124.55C111.586 124.539 111.521 124.462 111.532 124.375C111.543 124.287 111.619 124.226 111.707 124.232V124.221ZM114.073 118.423C114.507 118.171 114.913 117.918 115.314 117.644C115.391 117.594 115.49 117.611 115.539 117.688C115.589 117.759 115.572 117.863 115.495 117.913C115.089 118.187 114.677 118.451 114.233 118.703C114.205 118.72 114.178 118.725 114.15 118.725C114.095 118.725 114.04 118.698 114.007 118.643C113.964 118.566 113.991 118.467 114.068 118.423H114.073ZM114.721 123.815C115.045 123.705 115.369 123.579 115.676 123.436C115.896 123.331 116.121 123.222 116.346 123.101C116.423 123.057 116.522 123.09 116.566 123.167C116.61 123.244 116.577 123.342 116.5 123.386C116.269 123.513 116.039 123.628 115.814 123.732C115.495 123.88 115.166 124.012 114.826 124.122C114.809 124.128 114.793 124.133 114.776 124.133C114.71 124.133 114.644 124.089 114.622 124.023C114.595 123.941 114.639 123.848 114.727 123.82L114.721 123.815ZM110.225 120.839C110.176 120.839 110.121 120.812 110.093 120.768C110.044 120.691 110.06 120.592 110.137 120.543C110.346 120.4 110.571 120.263 110.812 120.131C111.026 120.016 111.246 119.9 111.466 119.785C111.548 119.741 111.641 119.774 111.685 119.856C111.724 119.939 111.696 120.032 111.614 120.076C111.394 120.191 111.175 120.301 110.966 120.416C110.736 120.543 110.516 120.68 110.318 120.812C110.291 120.828 110.258 120.839 110.225 120.839ZM109.286 123.084C109.412 123.249 109.594 123.414 109.824 123.568C110.093 123.754 110.395 123.902 110.719 124.012C110.801 124.04 110.851 124.133 110.818 124.215C110.796 124.281 110.73 124.325 110.664 124.325C110.648 124.325 110.631 124.325 110.609 124.314C110.258 124.193 109.934 124.034 109.638 123.831C109.379 123.655 109.176 123.469 109.028 123.277C108.973 123.205 108.984 123.106 109.056 123.051C109.127 122.997 109.226 123.008 109.281 123.079L109.286 123.084ZM117.005 122.722C117.417 122.481 117.839 122.212 118.295 121.926C118.372 121.877 118.471 121.899 118.52 121.975C118.57 122.052 118.548 122.151 118.471 122.201C118.015 122.486 117.587 122.755 117.175 123.002C117.148 123.019 117.12 123.024 117.093 123.024C117.038 123.024 116.983 122.997 116.956 122.947C116.912 122.87 116.934 122.772 117.01 122.728L117.005 122.722ZM122.555 112.291C122.841 112.127 123.121 111.978 123.395 111.847C123.664 111.715 123.972 111.578 124.307 111.446C124.389 111.413 124.482 111.451 124.515 111.539C124.548 111.621 124.51 111.715 124.422 111.748C124.093 111.879 123.796 112.011 123.533 112.137C123.269 112.269 122.989 112.412 122.715 112.571C122.687 112.588 122.66 112.593 122.632 112.593C122.577 112.593 122.522 112.566 122.489 112.511C122.446 112.434 122.473 112.335 122.55 112.291H122.555ZM120.897 120.35C121.111 120.23 121.337 120.103 121.567 119.983C121.809 119.851 122.083 119.719 122.38 119.587C122.462 119.554 122.555 119.587 122.594 119.67C122.632 119.752 122.594 119.845 122.511 119.884C122.226 120.01 121.957 120.142 121.721 120.268C121.49 120.389 121.271 120.515 121.057 120.636C121.029 120.652 121.002 120.658 120.974 120.658C120.919 120.658 120.864 120.63 120.832 120.576C120.788 120.499 120.815 120.4 120.892 120.356L120.897 120.35ZM118.937 121.525C119.344 121.273 119.777 121.004 120.239 120.735C120.315 120.691 120.414 120.713 120.458 120.79C120.502 120.866 120.48 120.965 120.403 121.009C119.942 121.278 119.514 121.542 119.108 121.8C119.08 121.816 119.053 121.822 119.02 121.822C118.965 121.822 118.916 121.794 118.883 121.745C118.833 121.668 118.861 121.569 118.932 121.52L118.937 121.525ZM116.011 117.512C115.962 117.512 115.913 117.49 115.88 117.446C115.825 117.375 115.841 117.271 115.913 117.221C116.105 117.078 116.297 116.93 116.494 116.776L117.225 116.189C117.296 116.134 117.395 116.145 117.455 116.211C117.51 116.282 117.499 116.381 117.433 116.442L116.698 117.029C116.5 117.188 116.302 117.342 116.105 117.485C116.077 117.507 116.044 117.518 116.006 117.518L116.011 117.512ZM123.214 119.241C123.708 119.049 124.263 118.857 124.911 118.649C124.998 118.621 125.086 118.665 125.114 118.753C125.141 118.841 125.097 118.929 125.009 118.956C124.367 119.165 123.818 119.357 123.329 119.543C123.313 119.549 123.291 119.554 123.269 119.554C123.203 119.554 123.143 119.516 123.115 119.45C123.082 119.368 123.126 119.274 123.209 119.241H123.214Z" fill="white"/>
<path d="M67.1068 209.524C63.0168 207.526 58.7237 210.161 57.0054 211.5C54.6666 213.329 52.9263 216.299 50.2308 217.962C47.5352 219.626 45.0592 220.685 43.6044 221.734C42.1496 222.782 41.0131 224.418 43.3793 225.571C45.7455 226.73 48.3258 225.824 49.9508 224.835C51.5758 223.847 52.9153 222.65 56.4179 221.185C59.9205 219.719 63.6866 218.253 65.8222 216.798C67.9578 215.343 71.2902 211.572 67.1014 209.524H67.1068Z" fill="#E0E0E0"/>
<path opacity="0.8" d="M111.524 160.691C107.829 158.884 103.948 161.267 102.4 162.48C100.286 164.133 98.7159 166.817 96.2784 168.316C93.8463 169.82 91.6064 170.776 90.2943 171.72C88.9823 172.664 87.9556 174.146 90.0912 175.19C92.2268 176.233 94.56 175.415 96.0313 174.525C97.5026 173.636 98.7104 172.549 101.873 171.226C105.035 169.903 108.439 168.574 110.366 167.262C112.293 165.95 115.307 162.541 111.524 160.691Z" fill="#00A99D"/>
<path d="M61.4961 191.998C64.9603 194.359 60.3927 196.84 58.0704 197.829C54.9027 199.179 49.7586 200.184 46.8819 201.738C43.9997 203.291 42.1715 204.724 40.3544 205.564C38.5372 206.404 35.7099 207.057 33.7006 205.696C31.6967 204.329 33.2668 202.841 34.9742 201.902C36.6816 200.963 38.7623 200.189 41.2986 198.169C43.835 196.149 46.3823 193.975 48.8967 192.74C51.4166 191.51 57.9496 189.583 61.4961 191.998Z" fill="#E0E0E0"/>
<path d="M250.038 151.381V76.9154L251.042 77.4973L256.664 74.2473L244.981 52.3809L239.179 55.7297L228.1 64.2501L234.545 67.9668V149.081L244.279 154.702L250.038 151.381Z" fill="#F5F5F5"/>
<path d="M244.828 52.9422L239.437 56.055L228.841 64.2021L234.556 67.5015L234.963 67.7376V148.852L244.295 154.237L249.648 151.146V77.6195V76.2141L250.861 76.9168L251.054 77.0266L256.132 74.095L244.828 52.9422ZM245.152 51.8223L257.219 74.4024L251.054 77.9599L250.455 77.614V151.613L244.295 155.17L234.15 149.313V68.2042L227.386 64.3009L238.987 55.3797L245.152 51.8223Z" fill="#E6E6E6"/>
<path d="M244.283 155.172L234.143 149.319V68.2054L227.38 64.302L238.98 55.3809L251.047 77.9665L244.283 74.0631V155.172Z" fill="#EBEBEB"/>
<path d="M250.453 151.611L244.288 155.169V74.0605L250.453 77.618V151.611Z" fill="#E0E0E0"/>
<path d="M223.33 144.812V95.3204L224.279 95.8694L229.594 92.8005L218.548 72.1309L213.069 75.2986L202.6 83.3468L208.688 86.8659V142.644L217.889 147.958L223.33 144.812Z" fill="#F5F5F5"/>
<path d="M218.389 72.665L213.295 75.6076L203.281 83.31L208.683 86.4283L209.067 86.6479V142.426L217.89 147.52L222.946 144.6V95.9863V94.6577L224.093 95.322L224.28 95.4263L229.078 92.6539L218.395 72.6595M218.691 71.6055L230.094 92.9504L224.269 96.3102L223.703 95.9808V145.033L217.879 148.393L208.293 142.859V87.0816L201.903 83.3924L212.866 74.9653L218.691 71.6055Z" fill="#E6E6E6"/>
<path d="M217.891 148.4L208.306 142.866V87.0886L201.915 83.3993L212.879 74.9668L224.281 96.3117L217.891 92.6225V148.4Z" fill="#EBEBEB"/>
<path d="M223.727 145.039L217.902 148.399V92.6211L223.727 95.9864V145.039Z" fill="#E0E0E0"/>
<path d="M157.855 206.733L151.723 210.274L141.627 204.444V152.174L134.896 148.287L146.442 139.41L152.574 135.869L164.586 158.345L158.454 161.886L157.855 161.54V206.733Z" fill="#455A64"/>
<path d="M151.722 210.274L141.626 204.444V152.174L134.896 148.287L146.441 139.41L158.453 161.886L151.722 157.999V210.274Z" fill="#0B2C4C"/>
<path d="M157.852 206.732L151.719 210.273V157.998L157.852 161.539V206.732Z" fill="#0B2C4C"/>
<path d="M180.056 205.552L175.461 208.204L167.896 203.834V174.655L162.851 171.745L171.503 165.091L176.104 162.439L185.102 179.283L180.506 181.934L180.056 181.676V205.552Z" fill="#00A99D"/>
<path opacity="0.1" d="M180.506 181.934L171.503 165.091L176.104 162.439L185.102 179.283L180.506 181.934Z" fill="white"/>
<path d="M175.47 208.202L167.905 203.832V174.653L162.86 171.744L171.512 165.09L180.516 181.933L175.47 179.023V208.202Z" fill="#00A99D"/>
<path opacity="0.1" d="M175.47 208.202L167.905 203.832V174.653L162.86 171.744L171.512 165.09L180.516 181.933L175.47 179.023V208.202Z" fill="black"/>
<path opacity="0.3" d="M180.062 205.553L175.467 208.204V179.025L180.062 181.677V205.553Z" fill="black"/>
<path d="M15.8521 169.018L22.1436 172.647L32.4976 166.674V89.8806L39.3984 85.8949L27.5566 76.7926L21.2652 73.1582L8.95123 96.2105L15.2427 99.8393L15.8521 99.488V169.018Z" fill="#00A99D"/>
<path opacity="0.8" d="M15.8521 169.018L22.1436 172.647L32.4976 166.674V89.8806L39.3984 85.8949L27.5566 76.7926L21.2652 73.1582L8.95123 96.2105L15.2427 99.8393L15.8521 99.488V169.018Z" fill="white"/>
<path d="M22.1436 172.647L32.4976 166.674V89.881L39.3984 85.8953L27.5566 76.793L15.2427 99.8397L22.1436 95.854V172.647Z" fill="#00A99D"/>
<path opacity="0.7" d="M22.1436 172.647L32.4976 166.674V89.881L39.3984 85.8953L27.5566 76.793L15.2427 99.8397L22.1436 95.854V172.647Z" fill="white"/>
<path d="M15.8492 169.018L22.1406 172.647V95.8535L15.8492 99.4879V169.018Z" fill="#00A99D"/>
<path opacity="0.5" d="M15.8492 169.018L22.1406 172.647V95.8535L15.8492 99.4879V169.018Z" fill="white"/>
<path d="M202.422 171.154H236.477L232.958 185.818C232.689 187.586 231.387 189.315 229.043 190.666C223.745 193.723 215.159 193.723 209.861 190.666C207.336 189.211 206.029 187.322 205.914 185.412L202.428 171.154H202.422Z" fill="#0B2C4C"/>
<path d="M206.578 181.21C205.804 180.766 205.134 180.282 204.536 179.783L202.62 171.949C203.493 172.937 204.64 173.859 206.068 174.688C213.254 178.833 224.767 178.937 232.194 175.023L231.327 171.526L231.591 171.158H236.477L232.958 185.822C232.689 187.59 231.387 189.319 229.043 190.669C225.272 192.849 219.831 193.464 215.099 192.542C223.581 193.173 229.406 189.462 230.278 186.047C230.624 184.68 231.234 181.66 231.234 181.66C224.146 185.262 213.353 185.119 206.584 181.216L206.578 181.21Z" fill="#0B2C4C"/>
<path d="M200.653 166.816C200.829 167.716 201.208 168.605 201.79 169.462C202.707 170.845 204.134 172.141 206.061 173.255C213.45 177.521 225.44 177.521 232.835 173.255C234.762 172.141 236.19 170.845 237.107 169.462C237.683 168.605 238.062 167.716 238.237 166.816H238.243C238.902 163.609 237.096 160.266 232.835 157.801C225.446 153.53 213.456 153.53 206.061 157.801C201.801 160.261 199.994 163.604 200.653 166.816Z" fill="#455A64"/>
<path d="M201.781 169.461C202.698 170.844 204.125 172.14 206.052 173.254C213.442 177.52 225.432 177.52 232.827 173.254C234.754 172.14 236.181 170.844 237.098 169.461C237.674 168.604 238.053 167.715 238.229 166.814H238.234L237.394 172.584C237.01 174.907 235.281 177.168 232.195 178.947C225.152 183.01 213.733 183.01 206.684 178.947C203.642 177.19 201.913 174.956 201.501 172.667L201.457 172.37L200.645 166.814C200.82 167.715 201.199 168.604 201.781 169.461Z" fill="#0B2C4C"/>
<path d="M208.294 159.086C214.453 155.529 224.445 155.529 230.599 159.086C234.085 161.101 235.595 163.818 235.14 166.443C234.788 168.457 233.273 170.417 230.599 171.96C224.445 175.517 214.453 175.517 208.294 171.96C205.626 170.417 204.11 168.457 203.759 166.448C203.298 163.818 204.808 161.101 208.294 159.086Z" fill="#0B2C4C"/>
<path d="M234.104 168.884C233.335 170.004 232.171 171.058 230.601 171.964C224.447 175.521 214.455 175.521 208.296 171.964C206.726 171.058 205.567 170.004 204.799 168.884C204.843 166.754 206.27 164.635 209.086 163.004C214.812 159.699 224.096 159.699 229.816 163.004C232.633 164.635 234.06 166.754 234.109 168.884H234.104Z" fill="#FAFAFA"/>
<path d="M228.003 114.496L219.016 123.604L228.096 117.988C228.096 117.988 228.755 122.814 227.536 127.31C227.536 127.31 223.144 130.714 220.69 133.535L227.712 129.72C227.712 129.72 228.81 134.518 227.695 142.182C227.404 144.191 225.675 148.166 224.632 151.103C224.165 152.437 223.605 153.766 222.941 155.067C222.903 155.149 222.864 155.226 222.82 155.309C221.014 154.551 219.148 153.826 217.221 153.146C215.727 150.796 213.433 144.823 212.258 139.849C207.778 120.799 221.025 107.947 232.312 102.803C232.312 102.803 228.898 108.353 227.997 114.502L228.003 114.496Z" fill="#00A99D"/>
<path d="M219.778 116.32C217.994 118.61 217.138 121.442 216.55 124.242C215.979 127.059 215.749 129.941 215.804 132.812C215.903 138.549 217.264 144.281 219.96 149.326C220.031 149.469 219.982 149.639 219.844 149.716C219.707 149.787 219.537 149.738 219.466 149.6C216.803 144.418 215.535 138.604 215.524 132.823C215.518 129.93 215.793 127.042 216.413 124.22C217.044 121.42 217.956 118.588 219.778 116.326V116.32Z" fill="white"/>
<path d="M186.907 125.555C186.907 125.555 186.907 125.56 186.923 125.571C187.159 125.912 191.035 131.495 196.563 142.173L207.165 144.901L199.1 145.555L202.734 152.697L213.121 155.87L204.727 156.452C204.727 156.452 206.275 164.736 211.886 168.651C214.982 170.808 216.393 170.984 217.623 170.402C219.122 169.688 220.011 167.432 220.9 164.028C221.795 160.624 221.235 153.537 218.606 146.455C217.908 144.572 216.904 142.804 215.679 141.157C208.652 131.709 194.241 126.131 186.912 125.56L186.907 125.555Z" fill="#00A99D"/>
<path opacity="0.1" d="M186.907 125.555C186.907 125.555 186.907 125.56 186.923 125.571C187.159 125.912 191.035 131.495 196.563 142.173L207.165 144.901L199.1 145.555L202.734 152.697L213.121 155.87L204.727 156.452C204.727 156.452 206.275 164.736 211.886 168.651C214.982 170.808 216.393 170.984 217.623 170.402C219.122 169.688 220.011 167.432 220.9 164.028C221.795 160.624 221.235 153.537 218.606 146.455C217.908 144.572 216.904 142.804 215.679 141.157C208.652 131.709 194.241 126.131 186.912 125.56L186.907 125.555Z" fill="black"/>
<path d="M197.854 130.117C203.19 133.076 208.148 136.913 211.865 141.843C213.737 144.286 215.252 147.015 216.284 149.93C217.278 152.85 217.81 155.925 217.805 158.988C217.805 159.005 217.794 159.016 217.777 159.016C217.761 159.016 217.75 159.005 217.75 158.988C217.415 155.947 216.8 152.96 215.724 150.127C214.697 147.284 213.248 144.594 211.48 142.123C207.901 137.199 203.07 133.268 197.821 130.166C197.805 130.155 197.799 130.139 197.81 130.128C197.816 130.111 197.838 130.111 197.849 130.117H197.854Z" fill="white"/>
<path d="M253.094 123.681C252.139 123.741 251.068 123.879 249.91 124.093C246.434 124.74 242.174 126.085 237.931 128.084C236.514 128.748 235.098 129.489 233.714 130.296C233.023 130.703 232.336 131.12 231.667 131.559C228.301 133.755 225.221 136.385 222.888 139.421C221.735 140.919 220.774 142.522 220.039 144.219C219.945 144.438 219.836 144.658 219.748 144.883C219.523 145.465 219.32 146.03 219.138 146.596C216.942 152.926 217.069 157.186 217.629 161.869C218.062 165.503 219.649 169.566 220.418 170.192C220.522 170.28 220.637 170.345 220.752 170.4C221.845 170.977 223.465 170.455 226.413 168.468C232.314 164.493 234.022 155.517 234.022 155.517L225.293 154.77L236.157 151.647L240.066 144.274L231.683 143.456L242.762 140.799C248.702 129.78 252.83 124.038 253.077 123.686C253.088 123.675 253.094 123.67 253.094 123.67V123.681Z" fill="#00A99D"/>
<path d="M249.905 124.091C246.43 124.739 242.17 126.084 237.926 128.082C236.509 128.747 235.093 129.488 233.71 130.295C233.018 130.701 232.332 131.118 231.662 131.557C228.297 133.753 225.217 136.383 222.883 139.419C221.731 140.918 220.77 142.521 220.034 144.217C219.941 144.437 219.831 144.656 219.743 144.881C219.518 145.463 219.315 146.029 219.134 146.594C216.938 152.924 217.064 157.184 217.624 161.867C218.058 165.502 219.644 169.564 220.413 170.19C220.517 170.278 220.633 170.344 220.748 170.399C220.956 170.509 221.198 170.563 221.451 170.591C220.215 165.002 221.807 150.437 225.53 144.195C229.4 137.701 239.051 127.94 253.078 123.685L253.067 123.674C252.117 123.734 251.058 123.871 249.91 124.086L249.905 124.091Z" fill="#00A99D"/>
<path opacity="0.2" d="M249.905 124.091C246.43 124.739 242.17 126.084 237.926 128.082C236.509 128.747 235.093 129.488 233.71 130.295C233.018 130.701 232.332 131.118 231.662 131.557C228.297 133.753 225.217 136.383 222.883 139.419C221.731 140.918 220.77 142.521 220.034 144.217C219.941 144.437 219.831 144.656 219.743 144.881C219.518 145.463 219.315 146.029 219.134 146.594C216.938 152.924 217.064 157.184 217.624 161.867C218.058 165.502 219.644 169.564 220.413 170.19C220.517 170.278 220.633 170.344 220.748 170.399C220.956 170.509 221.198 170.563 221.451 170.591C220.215 165.002 221.807 150.437 225.53 144.195C229.4 137.701 239.051 127.94 253.078 123.685L253.067 123.674C252.117 123.734 251.058 123.871 249.91 124.086L249.905 124.091Z" fill="black"/>
<path d="M221.411 170.607C220.758 166.457 220.747 162.218 221.186 158.041C221.675 153.868 222.586 149.701 224.348 145.842C226.16 141.977 228.949 138.711 231.963 135.773C235.043 132.891 238.474 130.377 242.196 128.422C242.213 128.411 242.234 128.422 242.245 128.439C242.256 128.455 242.245 128.477 242.234 128.483C238.726 130.778 235.41 133.341 232.457 136.279C230.958 137.722 229.542 139.254 228.257 140.89C226.961 142.51 225.759 144.222 224.859 146.084C223.069 149.828 222.086 153.951 221.537 158.079C221.01 162.224 220.928 166.44 221.482 170.596C221.482 170.613 221.472 170.635 221.455 170.635C221.439 170.635 221.417 170.624 221.417 170.607H221.411Z" fill="white"/>
<path d="M125.642 0.925249C123.138 -0.524096 119.674 -0.320968 115.853 1.89148C108.211 6.30539 102.013 17.0382 102.013 25.8661C102.013 30.2964 103.577 33.3983 106.097 34.8366C106.756 35.2099 109.402 36.813 110.067 37.1918C112.57 38.6412 116.029 38.4325 119.855 36.2256C127.497 31.8117 133.695 21.0788 133.695 12.251C133.695 7.83709 132.147 4.74076 129.644 3.2969" fill="#00A99D"/>
<path opacity="0.5" d="M125.642 0.925249C123.138 -0.524096 119.674 -0.320968 115.853 1.89148C108.211 6.30539 102.013 17.0382 102.013 25.8661C102.013 30.2964 103.577 33.3983 106.097 34.8366C106.756 35.2099 109.402 36.813 110.067 37.1918C112.57 38.6412 116.029 38.4325 119.855 36.2256C127.497 31.8117 133.695 21.0788 133.695 12.251C133.695 7.83709 132.147 4.74076 129.644 3.2969" fill="white"/>
<path opacity="0.2" d="M104.035 16.3789C102.756 19.5411 102.015 22.8131 102.015 25.86L119.852 36.225C122.487 34.7043 124.952 32.426 127.055 29.7359L104.035 16.3789Z" fill="white"/>
<path opacity="0.3" d="M127.042 29.7365C131.023 24.6308 133.68 18.0319 133.68 12.251C133.68 7.83709 132.132 4.74076 129.628 3.2969L125.631 0.925249C123.128 -0.524096 119.664 -0.320968 115.843 1.89148C110.836 4.78468 106.455 10.3844 104.023 16.3849L127.042 29.742V29.7365Z" fill="white"/>
<path d="M119.855 4.25902C112.213 8.67293 106.015 19.4058 106.015 28.2336C106.015 37.0614 112.213 40.6409 119.855 36.227C127.497 31.813 133.701 21.0802 133.695 12.2524C133.69 3.42455 127.492 -0.149402 119.855 4.25902Z" fill="#00A99D"/>
<path d="M119.845 8.25369C114.108 11.5641 109.464 19.6179 109.464 26.2387C109.464 32.8596 114.114 35.5442 119.845 32.2338C125.577 28.9233 130.227 20.8696 130.227 14.2487C130.227 7.62784 125.577 4.94325 119.845 8.25369Z" fill="#FAFAFA"/>
<path d="M119.85 11.8884C115.854 14.1942 112.614 19.8049 112.614 24.422C112.614 29.0335 115.854 30.9056 119.85 28.5998C123.847 26.294 127.086 20.6833 127.086 16.0663C127.086 11.4492 123.847 9.58264 119.85 11.8884Z" fill="#00A99D"/>
<path d="M119.844 15.6153C117.631 16.8945 115.842 19.9963 115.842 22.5546C115.842 25.1074 117.637 26.145 119.849 24.8658C122.062 23.5867 123.852 20.4849 123.852 17.9266C123.852 15.3682 122.056 14.3361 119.844 15.6153Z" fill="#FAFAFA"/>
<path d="M119.841 18.2884C118.907 18.8263 118.15 20.1382 118.15 21.2141C118.15 22.29 118.907 22.7291 119.841 22.1912C120.774 21.6533 121.531 20.3413 121.531 19.2655C121.531 18.1896 120.774 17.7504 119.841 18.2884Z" fill="#00A99D"/>
<path d="M139.283 31.4746C139.283 31.4746 139.618 35.7342 141.588 36.876C143.559 38.0122 144.629 34.565 143.35 33.824L139.283 31.4746Z" fill="#0B2C4C"/>
<path d="M139.283 31.4756C139.283 31.4756 143.142 29.6367 145.113 30.773C147.083 31.9092 144.63 34.5605 143.351 33.825L139.283 31.4756Z" fill="#455A64"/>
<path d="M123.94 23.1157L146.251 36.0006L146.68 35.243L123.874 22.0781L123.94 23.1157Z" fill="#0B2C4C"/>
<path d="M145.738 34.3913C145.128 34.7426 144.92 35.5221 145.271 36.1314C145.622 36.7407 146.402 36.9493 147.011 36.598C147.621 36.2466 147.829 35.4672 147.478 34.8579C147.127 34.2486 146.347 34.04 145.738 34.3913Z" fill="#0B2C4C"/>
<path d="M124.379 22.846C125.197 23.9219 123.715 25.7882 123.715 25.7882L119.867 20.2441L124.373 22.846H124.379Z" fill="#00A99D"/>
<path d="M124.379 22.846C125.197 23.9219 123.715 25.7882 123.715 25.7882L119.867 20.2441L124.373 22.846H124.379Z" fill="#0B2C4C"/>
<path d="M126.602 20.8041C126.602 20.8041 125.729 23.0166 124.384 22.8464L119.876 20.2441L126.602 20.8041Z" fill="#455A64"/>
<path d="M111.898 37.0922C111.338 38.042 110.334 39.2827 108.539 40.4246C106.853 41.5007 104.86 41.7093 103.493 41.6983C103.405 41.6983 103.323 41.6763 103.257 41.6379C102.983 41.4787 99.332 39.3761 99.2661 39.3376C98.9861 39.1784 98.9422 38.7337 99.2716 38.5416C102.417 36.686 103.279 34.0343 103.471 32.2227L111.898 37.0867V37.0922Z" fill="#00A99D"/>
<path opacity="0.3" d="M111.898 37.0922C111.338 38.042 110.334 39.2827 108.539 40.4246C106.853 41.5007 104.86 41.7093 103.493 41.6983C103.405 41.6983 103.323 41.6763 103.257 41.6379C102.983 41.4787 99.332 39.3761 99.2661 39.3376C98.9861 39.1784 98.9422 38.7337 99.2716 38.5416C102.417 36.686 103.279 34.0343 103.471 32.2227L111.898 37.0867V37.0922Z" fill="white"/>
<path d="M107.416 32.5113C107.416 32.5113 108.481 37.7707 103.26 40.8396C102.859 41.0757 103.013 41.6905 103.485 41.696C104.858 41.707 106.845 41.4929 108.536 40.4224C112.11 38.155 112.555 35.4759 112.555 35.4759L107.416 32.5059V32.5113Z" fill="#00A99D"/>
<path d="M45.5642 175.105C46.2999 172.964 46.6951 167.71 47.4418 162.039L58.6797 164.74C58.6797 164.74 54.403 177.751 53.887 179.041C53.036 181.166 45.5642 175.105 45.5642 175.105Z" fill="#FFBDA7"/>
<path d="M42.9677 177.85C43.0665 176.967 43.6759 175.902 44.2139 175.193C44.4499 174.88 44.7574 174.661 45.0099 174.381C45.3064 174.057 45.4436 173.519 45.6138 173.118C45.6852 172.953 45.762 172.789 45.8773 172.652C46.064 172.437 46.344 172.322 46.6185 172.251C47.8482 171.927 49.1493 172.267 50.3297 172.734C51.9327 173.36 53.4754 174.233 54.6338 175.512C55.084 176.011 55.1169 176.407 54.9687 177.032C54.7326 178.004 53.8817 181.864 53.9036 182.797C53.9366 184.301 53.9695 185.053 54.4855 186.464C54.6502 186.909 54.8149 187.271 54.9687 187.557C55.2102 188.012 55.6824 188.303 56.1984 188.309C57.0549 188.32 58.5646 188.479 60.1731 189.281C62.4075 190.39 61.8531 192.52 61.8531 192.52C61.8531 192.52 61.617 194.062 59.3002 195.429C57.9772 196.214 54.8534 197.137 52.9045 196.511C52.7672 196.461 52.6409 196.412 52.5147 196.352C50.3736 195.347 45.0978 192.734 45.0429 192.338C45.0429 192.316 45.0538 192.295 45.0538 192.273C44.9495 191.01 44.8233 189.753 44.697 188.495C44.6201 187.716 44.4335 186.453 44.2633 185.696C44.1754 185.3 44.1041 184.9 44.0437 184.477C43.7966 182.819 42.9292 178.048 42.9512 177.84L42.9677 177.85Z" fill="#455A64"/>
<path d="M42.2613 178.7C41.339 179.156 42.0691 182.11 42.8761 184.179C43.8533 186.694 44.2596 187.089 44.1223 189.29C43.9851 191.492 43.9302 192.875 44.847 193.606C45.7638 194.336 52.2969 197.52 52.2969 197.52C52.2969 197.52 50.6993 194.27 50.1503 189.455C49.6013 184.64 49.0523 181.555 46.7301 179.524C44.4078 177.498 42.2613 178.695 42.2613 178.695V178.7Z" fill="black"/>
<path d="M61.8658 192.52C61.8658 192.52 60.658 195.04 55.9311 196C52.9282 196.61 51.4513 195.199 51.0835 191.455C50.6773 187.392 50.1557 182.38 48.5636 180.217C46.9716 178.054 44.5834 177.373 42.9749 177.79C42.4698 178.065 42.1733 178.487 42.0745 178.85C42.0745 178.85 43.9027 177.571 46.439 179.734C48.4978 181.49 49.0522 185.86 49.4201 189.55C49.7879 193.239 50.2765 197.51 53.1368 197.735C56.0025 197.966 59.7521 196.538 61.5034 194.765C62.5136 193.744 61.8658 192.52 61.8658 192.52Z" fill="#0B2C4C"/>
<path d="M54.774 187.045C54.774 187.045 55.1747 187.275 55.2461 187.698C55.3174 188.121 55.2296 189.114 54.3678 189.718C54.0055 189.976 53.6707 189.91 54.2251 189.087C54.7795 188.258 54.774 187.05 54.774 187.05V187.045Z" fill="#FAFAFA"/>
<path d="M54.0782 184.843C54.0782 184.843 54.3362 185.052 54.3801 185.387C54.424 185.722 53.93 187.16 53.2877 187.522C52.6455 187.884 52.9474 187.088 53.2274 186.71C53.5073 186.331 54.0782 184.838 54.0782 184.838V184.843Z" fill="#FAFAFA"/>
<path d="M53.9772 182.164C53.9772 182.164 54.1693 182.504 54.076 182.971C54.0156 183.267 52.9233 184.129 52.4951 184.129C52.0669 184.129 51.8858 183.888 52.4512 183.58C52.8958 183.333 53.84 182.576 53.9717 182.17L53.9772 182.164Z" fill="#FAFAFA"/>
<path d="M48.2509 80.8535C47.4493 86.0031 47.0925 89.868 48.0038 102.742C48.4046 108.408 50.1119 132.81 50.1119 132.81C50.1119 132.81 47.8007 140.244 47.4932 148.572C47.1639 157.471 46.4996 168.407 46.4996 168.407C46.4996 168.407 48.3716 167.144 52.0499 168.204C55.0145 169.055 56.8042 171.586 56.8042 171.586C56.8042 171.586 61.4487 158.048 64.1113 148.292C65.9724 141.473 67.2515 139.234 68.2837 129.873C69.5518 118.383 71.6215 102.231 71.6215 102.231L77.9844 80.8645L48.2563 80.8535H48.2509Z" fill="#0B2C4C"/>
<path d="M64.276 107.852C67.7731 110.937 68.5252 113.512 68.7119 115.362C68.904 117.212 67.806 133.633 67.806 133.698C67.9652 132.573 68.1244 131.316 68.2837 129.877C69.5518 118.393 71.616 102.258 71.6215 102.236L77.9844 80.8633H57.8528L59.5492 93.1223C59.0386 98.3872 60.7789 104.766 64.276 107.852Z" fill="#0B2C4C"/>
<path d="M86.9182 168.743C86.6656 169.852 86.3637 170.687 87.3903 172.015C88.4169 173.344 90.6294 174.063 92.8308 173.992C94.7578 173.931 95.9766 173.119 97.0965 172.251C98.3647 171.263 99.2595 170.407 99.7372 169.995C100.215 169.589 102.109 169.067 103.91 168.705C105.804 168.326 109.443 167.535 111.299 164.829C113.149 162.122 112.831 159.762 112.831 159.762L86.9291 168.743H86.9182Z" fill="#0B2C4C"/>
<path d="M100.833 158.049C96.9622 159.383 91.077 160.19 87.5634 161.123C86.5093 162.106 86.7399 166.553 86.7289 169.55C88.074 172.635 92.3726 173.426 95.2219 172.191C96.6987 171.378 97.6869 170.225 99.1417 169.336C100.289 168.633 101.513 168.326 102.88 168.029C104.127 167.76 106.284 167.129 107.349 166.684C111.154 164.944 113.048 161.699 112.817 159.07C112.619 156.764 111.093 155.134 107.316 155.704C105.631 155.957 103.501 157.132 100.838 158.049H100.833Z" fill="#455A64"/>
<path d="M96.8674 159.07C97.5536 158.176 98.8765 158.708 99.9084 159.965C100.94 161.228 101.215 163.259 101.089 163.632C100.962 164.005 100.468 164.318 100.326 163.791C100.183 163.264 99.9359 161.491 99.118 160.415C98.2672 159.295 97.1419 158.999 97.1419 158.999L96.8674 159.07Z" fill="#E0E0E0"/>
<path d="M101.765 157.707C102.38 156.801 103.884 157.235 104.954 158.398C106.025 159.562 106.36 161.11 106.255 161.478C106.157 161.846 105.69 162.175 105.525 161.676C105.361 161.176 104.949 159.826 104.104 158.827C103.22 157.789 102.029 157.614 102.029 157.614L101.765 157.707Z" fill="#E0E0E0"/>
<path d="M99.5702 158.448C100.185 157.542 101.491 157.987 102.562 159.15C103.632 160.314 104.005 162.268 103.907 162.636C103.808 163.004 103.341 163.333 103.177 162.833C103.012 162.334 102.672 160.632 101.821 159.633C100.937 158.596 99.8336 158.371 99.8336 158.371L99.5702 158.453V158.448Z" fill="#E0E0E0"/>
<path d="M87.4418 158.049C87.4418 158.17 87.6065 162.15 87.6065 162.15C87.6065 162.15 87.9688 163.715 91.422 164.148C94.8752 164.587 97.395 163.281 98.0538 162.359C98.0538 162.359 98.4766 158.236 98.6797 156.512L87.4473 158.043L87.4418 158.049Z" fill="#FFBDA7"/>
<path d="M57.8684 90.2044C58.2472 96.1335 60.7616 103.803 69.3149 109.589C73.2128 112.609 76.0456 115.639 79.2737 118.84C83.2758 122.804 86.0922 125.214 86.0922 125.214C86.0922 125.214 85.1644 131.225 85.5432 139.273C85.922 147.322 87.3603 157.989 87.3603 157.989C87.3603 157.989 90.0175 160.091 93.7671 159.729C97.5167 159.367 98.8672 157.961 98.8672 157.961C98.8672 157.961 102.578 133.13 103.078 128.228C103.583 123.325 104.533 120.509 100.317 112.609C97.0391 106.46 82.5731 80.877 82.5731 80.877H57.8684V90.2153V90.2044Z" fill="#0B2C4C"/>
<path d="M132.411 90.3434L143.122 107.51C143.435 108.01 142.935 108.619 142.381 108.411L123.325 101.257L132.406 90.3379L132.411 90.3434Z" fill="#FFA8A7"/>
<path d="M142.392 108.416C142.941 108.625 143.44 108.016 143.133 107.516L141.041 104.162C140.8 105.419 139.878 106.429 138.653 106.791L138.319 106.89L142.397 108.422L142.392 108.416Z" fill="#0B2C4C"/>
<path d="M31.7294 26.4319L33.1787 27.6177L34.9245 29.0561L123.335 101.271C125.613 101.188 127.694 100.014 129.291 98.4051C131.734 95.9675 133.085 92.5253 132.415 90.3568L44.0378 18.1695L40.6945 15.4355C42.7587 17.3241 33.8265 28.2985 31.7294 26.4319Z" fill="#00A99D"/>
<path d="M37.2199 30.9625L40.4645 33.6032C41.3813 34.3992 43.6157 32.8895 45.7129 30.7484C48.5018 27.9156 50.6099 23.617 49.4021 22.5629L47.014 20.6085L46.1466 19.9277C47.3544 20.9873 45.2517 25.2804 42.4628 28.1187C40.4535 30.1665 38.3014 31.6378 37.3297 31.0339H37.3187C37.2803 31.0119 37.2529 30.99 37.2199 30.9625Z" fill="#EBEBEB"/>
<path d="M38.0396 31.6138C40.1587 33.4694 49.0853 22.4346 46.9662 20.579L43.7271 17.9219C45.8463 19.7775 36.9196 30.8123 34.8005 28.9567L38.0341 31.6138H38.0396Z" fill="#00A99D"/>
<path d="M31.7407 26.4319L34.9358 29.0561C37.0055 30.8897 45.7071 20.3161 44.0491 18.175C44.0271 18.1311 43.9832 18.0927 43.9448 18.0542L40.7057 15.4355C42.77 17.3241 33.8378 28.2985 31.7407 26.4319Z" fill="#EBEBEB"/>
<path opacity="0.15" d="M143.058 108.266L143.141 107.52L130.64 96.8638L38.6011 21.701C38.7604 21.4923 38.7329 21.3771 38.5572 21.3496C36.224 24.5063 32.9136 27.4819 31.7387 26.4388L33.1881 27.6246L34.9339 29.063L123.344 101.278L142.399 108.431C142.658 108.53 142.899 108.442 143.058 108.277V108.266Z" fill="black"/>
<path d="M18.1743 15.3086L31.74 26.4312C32.6348 27.2327 34.8583 25.7504 36.9499 23.6368C39.7498 20.8095 41.8909 16.5164 40.7051 15.4348C40.7051 15.4348 40.7051 15.4293 40.6941 15.4184L27.079 4.2683C24.3615 2.06134 19.201 7.01327 17.6583 11.2241C17.0709 12.7942 17.1093 14.2874 18.1743 15.3141V15.3086Z" fill="#F28F8F"/>
<path opacity="0.1" d="M22.9153 14.4743C25.8085 12.4375 27.9605 8.63846 27.7245 5.99231C27.6366 5.02059 27.2359 4.34532 26.6265 3.97201C23.8211 2.58854 19.1272 7.23303 17.6669 11.2187C17.0905 12.7614 17.1234 14.2217 18.1281 15.2429C19.1602 16.0718 20.9554 15.8522 22.9208 14.4743H22.9153Z" fill="black"/>
<path d="M58.2654 36.4594C59.561 35.3614 60.2857 31.9137 59.6324 30.0362C58.9846 28.1586 56.3385 23.7008 55.9871 18.3206C55.6303 12.9405 62.877 4.67812 69.119 5.33143C75.3611 5.97924 78.6825 9.43242 80.3624 14.0989C81.3891 16.9427 80.604 17.3379 80.9993 18.9739C81.7788 22.191 82.5255 26.5995 81.142 30.8981C80.4338 33.0996 78.7374 34.1921 76.9257 34.5544C74.7298 34.9936 72.8851 34.6861 72.8851 34.6861C72.8851 34.6861 72.7259 37.4421 72.8522 38.864C73.0114 40.6702 74.6584 40.7196 74.6584 40.7196C74.6584 40.7196 56.9643 37.5629 58.2599 36.4649L58.2654 36.4594Z" fill="#FFBDA7"/>
<path d="M76.5078 27.6528C76.2169 28.6738 75.152 29.2611 74.131 28.9647C73.11 28.6738 72.5227 27.6089 72.8191 26.5879L76.5078 27.6528Z" fill="#B16668"/>
<path d="M75.0703 28.9893C74.708 28.0287 73.8243 27.3261 72.7594 27.2383C72.8088 28.0232 73.3357 28.7368 74.1372 28.9674C74.4555 29.0607 74.7739 29.0552 75.0703 28.9893Z" fill="#F28F8F"/>
<path d="M72.5211 20.3142C72.6913 20.8576 72.4058 21.434 71.8844 21.5986C71.3574 21.7633 70.792 21.4559 70.6219 20.907C70.4517 20.3636 70.7371 19.7872 71.2586 19.6225C71.7855 19.4578 72.3509 19.7652 72.5211 20.3142Z" fill="#0B2C4C"/>
<path d="M72.4531 16.5926L70.1751 17.4599C69.9501 16.8067 70.2739 16.0876 70.9052 15.8461C71.5364 15.6046 72.2281 15.9394 72.4531 16.5871V16.5926Z" fill="#0B2C4C"/>
<path d="M80.005 17.1358L77.716 16.241C77.9411 15.5933 78.6327 15.2694 79.264 15.5164C79.8952 15.7635 80.2246 16.488 79.9995 17.1303L80.005 17.1358Z" fill="#0B2C4C"/>
<path d="M79.5625 19.8415C79.5625 20.3685 79.1453 20.7912 78.6403 20.7857C78.1353 20.7857 77.7291 20.352 77.7291 19.8251C77.7291 19.2981 78.1463 18.8754 78.6513 18.8809C79.1563 18.8809 79.5625 19.3146 79.5625 19.8415Z" fill="#0B2C4C"/>
<path d="M80.3438 24.3232L76.7863 25.9153L75.6608 18.9266C76.9839 18.4489 78.6968 21.6551 80.3438 24.3177V24.3232Z" fill="#F0997A"/>
<path d="M72.8851 34.6747C72.8851 34.6747 69.5088 34.1697 68.5536 33.6262C65.9568 32.1494 65.0126 31.002 64.4361 29.377C64.8204 31.2326 65.6878 33.2529 68.2571 34.543C69.8602 35.35 72.8138 35.9265 72.8138 35.9265L72.8906 34.6747H72.8851Z" fill="#F0997A"/>
<path d="M54.4521 15.5598C54.6003 14.4454 55.2975 13.0399 56.121 12.4415C56.2747 12.3207 56.4339 12.2384 56.5877 12.189C55.7861 7.18765 59.64 5.15088 61.6384 4.816C62.4015 4.68973 63.6642 4.49209 64.4053 4.23955C64.6579 4.1572 64.872 4.04191 65.0586 3.91565C65.679 3.48194 66.0194 2.86707 66.7166 2.35101C68.2812 1.19813 70.7792 1.34086 71.6026 3.31175C72.6732 2.09848 74.0072 2.22474 75.528 2.72433C76.4777 3.03726 77.0706 3.69605 77.2957 4.49758C77.411 4.9258 77.433 5.38146 77.3506 5.84811C79.2776 4.93129 80.9301 6.13358 81.3144 7.27549C81.3638 7.40176 81.3857 7.52803 81.3967 7.64881C81.4132 7.79154 81.4132 7.9233 81.4132 8.06055C81.4132 8.78522 81.3198 9.42755 81.7645 10.1412C81.8633 10.3004 81.9786 10.4322 82.1049 10.5365C82.7527 11.0965 83.6805 11.0471 84.0374 10.4597C84.1636 11.7443 83.6036 12.6831 82.2257 12.5184C82.6594 13.2376 82.7198 14.1489 82.4178 14.9724C82.1543 15.7026 81.5504 16.2021 80.9081 16.4547C80.8752 15.8837 80.7434 15.1645 80.3591 14.105C80.1669 13.567 79.9474 13.0454 79.7113 12.5403C78.9262 12.8862 77.982 13.1497 76.8785 13.3254C71.6685 14.1434 67.6114 12.8478 66.3213 12.2878C66.8374 13.3858 67.2381 14.8022 67.4577 15.9167C67.6773 17.0256 67.1613 18.4256 66.519 19.0295C66.1621 19.3643 66.2884 19.9682 66.3817 20.3855C66.5025 20.9235 66.7276 21.4066 66.6891 21.9611C66.6837 22.0379 66.6727 22.1203 66.6452 22.1972C66.4476 22.6912 65.7723 23.0206 65.3276 22.6473C64.9324 22.3124 64.6743 21.8129 64.4547 21.3572C63.2195 18.7879 60.5404 18.7165 59.4534 20.0067C58.3609 21.2968 58.4103 22.6254 59.4534 24.9311C60.1561 26.4793 61.7647 27.2424 62.9615 26.7428C63.1701 26.655 63.3677 26.5287 63.5434 26.3585C63.5818 27.3522 63.3183 28.6753 62.2917 29.4219C61.3035 30.1411 59.964 30.1136 59.6236 30.0587C59.3107 29.1529 58.5421 27.6706 57.79 25.7601C57.2355 24.8104 56.6755 23.8935 56.2253 23.0152C56.2253 23.0042 56.2143 22.9987 56.2143 22.9932C56.0606 22.7132 55.9289 22.4332 55.8136 22.1642C54.7485 19.6992 54.1501 17.8052 54.4411 15.5763L54.4521 15.5598Z" fill="#0B2C4C"/>
<path d="M56.1562 36.7456C49.5793 36.1308 46.741 38.3871 45.083 40.3306C43.4251 42.274 35.9807 54.5879 33.0107 61.5602C31.8084 64.3765 31.1386 66.5944 33.7134 69.1253C36.4638 71.8319 49.1236 82.5537 49.1236 82.5537L53.7626 75.2576L44.9183 63.6189L52.6317 50.9865L56.1562 36.7511V36.7456Z" fill="#0B2C4C"/>
<path d="M52.4406 37.708C49.1082 39.3385 46.786 45.9923 46.495 51.0431C46.2644 54.9684 47.1318 60.107 47.6863 67.447C47.862 69.7583 48.0157 72.9589 47.7796 77.4881C47.5985 80.9578 47.313 87.0516 47.313 87.0516C47.313 87.0516 50.6015 93.7164 62.4762 94.8967C79.7421 96.6096 86.6484 88.1276 86.6484 88.1276C86.6484 88.1276 85.4571 84.2957 85.3144 70.0218C85.2101 59.3494 86.2861 49.0502 84.178 45.2457C83.2666 43.983 83.2776 42.7203 80.873 41.8364C79.2041 41.2216 71.7268 39.3934 68.7787 38.7621C58.9956 36.6649 55.9267 36.0116 52.4406 37.719V37.708Z" fill="#4B4B4B"/>
<path d="M74.5454 40.1733C73.0411 40.5576 72.3329 40.9254 70.0711 41.4305C66.2116 42.2924 62.9341 41.6665 60.4198 40.3709C57.6199 38.927 57.1093 37.0111 57.1093 37.0111C57.1093 37.0111 58.2951 34.9194 58.7618 34.2331C59.212 33.5634 59.6786 33.6183 59.6786 33.6183L59.4755 34.4143C59.4755 34.4143 59.5029 35.7429 62.6871 36.5499C65.9701 37.3789 71.3008 37.4448 72.827 36.9891V36.5444C73.6231 36.753 73.8701 37.3405 74.7705 38.5537C75.7202 39.8384 76.5547 40.7168 76.5547 40.7168L74.5509 40.1733H74.5454Z" fill="#0B2C4C"/>
<path d="M118.381 83.5936C121.274 84.2853 122.63 85.301 124.041 85.4657C125.452 85.6304 126.534 85.5425 126.534 85.5425L129.18 87.6946C129.18 87.6946 128.647 83.094 127.846 81.3702C127.044 79.6463 126.347 80.6784 125.82 79.6134C125.293 78.5483 125.408 77.7852 124.261 77.3735C123.113 76.9617 123.377 75.9022 121.598 75.5783C119.819 75.2544 112.759 76.292 112.759 76.292L118.381 83.5881V83.5936Z" fill="#FFA8A7"/>
<path d="M80.4991 41.6934C87.8556 43.3403 89.7002 45.2124 93.1809 51.8058C97.1007 59.2173 101.915 68.6764 101.915 68.6764C101.915 68.6764 111.918 72.706 117.88 74.8416C119.807 75.5334 123.463 84.6027 120.274 84.8169C120.274 84.8169 103.936 81.9676 99.099 81.0233C93.2797 79.8924 92.3629 78.7175 89.2116 73.9248C86.0604 69.1321 78.9015 55.4896 78.9015 55.4896C78.9015 55.4896 75.5362 45.5144 80.4936 41.6934H80.4991Z" fill="#0B2C4C"/>
</svg>
