<svg width="258" height="253" viewBox="0 0 258 253" fill="none" xmlns="http://www.w3.org/2000/svg">
<path d="M37.784 230.534C-12.5919 201.276 -12.5974 153.844 37.784 124.586C88.16 95.3281 169.841 95.3281 220.217 124.586C270.593 153.844 270.593 201.276 220.217 230.534C169.841 259.791 88.16 259.791 37.784 230.534Z" fill="#F5F5F5"/>
<path d="M208.26 34.6586L212.014 36.8398C211.997 36.6737 211.981 36.5021 211.981 36.3415V35.2509C211.981 33.3078 213.34 32.5162 215.013 33.4905C215.69 33.8835 216.317 34.5091 216.818 35.2399C217.094 32.793 219.003 31.8851 221.32 33.2303C223.825 34.6863 225.856 38.2238 225.856 41.1357V42.7688C225.856 43.5217 225.718 44.1583 225.47 44.6621L228.585 46.4724C229.516 47.0094 230.27 48.3269 230.27 49.4009C230.27 50.4749 229.516 50.9178 228.585 50.3753L208.254 38.567C207.324 38.03 206.57 36.7124 206.57 35.6385C206.57 34.5645 207.324 34.1216 208.254 34.6641L208.26 34.6586Z" fill="#E6E6E6"/>
<path d="M227.944 20.3367L230.013 21.1394V16.5556C230.013 12.9184 232.897 12.0493 236.023 13.8651C239.155 15.6809 241.692 20.1041 241.692 23.7358V24.4001C242.402 24.1177 243.321 24.2229 244.323 24.8097C246.574 26.1162 248.401 29.2994 248.401 31.9124V32.2169L251.285 33.8943C252.771 34.7579 253.971 36.8505 253.971 38.5722C253.971 40.2939 252.771 40.9914 251.285 40.1334L227.944 26.5757C226.463 25.7121 225.258 23.6195 225.258 21.8978C225.258 20.1761 226.458 19.4786 227.944 20.3367Z" fill="#E6E6E6"/>
<path d="M198.67 19.7676C202.683 17.2727 203.925 11.9781 201.445 7.94179C198.964 3.90543 193.701 2.65579 189.688 5.15064C185.675 7.64549 184.433 12.9401 186.913 16.9764C189.393 21.0128 194.657 22.2624 198.67 19.7676Z" fill="#81319B"/>
<path d="M59.0044 210.571C64.9438 210.571 69.7587 207.775 69.7587 204.327C69.7587 200.878 64.9438 198.082 59.0044 198.082C53.0649 198.082 48.25 200.878 48.25 204.327C48.25 207.775 53.0649 210.571 59.0044 210.571Z" fill="#E0E0E0"/>
<path d="M168.006 234.56L41.8047 161.274L80.8154 138.621L207.017 211.907L168.006 234.56Z" fill="#E0E0E0"/>
<path d="M207.787 197.822C207.633 197.855 206.461 197.827 206.307 197.816C204.48 197.672 202.432 196.609 200.599 195.585C199.394 194.91 197.771 193.991 197.176 192.679C196.884 192.025 196.895 191.178 197.402 190.675C197.947 190.132 198.926 190.077 199.262 189.385C198.04 188.394 196.263 188.139 195.305 186.882C194.584 185.936 194.347 184.801 194.314 183.611C194.292 182.908 194.485 181.983 194.997 181.501C195.597 180.931 196.554 181.103 197.363 181.275C197.578 181.319 197.798 181.363 198.013 181.319C198.227 181.275 198.431 181.114 198.464 180.898C198.503 180.632 198.282 180.405 198.073 180.239C197.622 179.879 197.127 179.581 196.703 179.204C196.274 178.822 195.905 178.335 195.811 177.77C195.696 177.095 195.982 176.419 196.279 175.805C196.78 174.759 197.314 173.712 197.936 172.738C198.084 172.5 199.339 170.036 199.24 170.025C202.113 170.435 204.881 171.73 207.309 173.281C208.662 174.144 210.539 175.639 210.611 177.427C210.633 177.936 210.479 178.423 210.259 178.877C210.16 179.082 210 179.265 209.873 179.459C209.796 179.581 209.477 180.04 209.873 179.924C209.961 179.896 210.033 179.83 210.104 179.769C210.71 179.204 211.31 178.645 211.915 178.08C212.097 177.914 212.289 177.737 212.532 177.687C213.043 177.582 214.078 178.208 214.904 179.586C215.449 180.499 215.542 181.651 215.394 182.703C215.157 184.391 214.287 185.914 213.44 187.392C213.952 187.049 214.463 186.705 214.975 186.362C216.764 185.161 216.373 188.444 216.175 189.108C215.663 190.868 214.326 193.393 213.032 194.688C211.53 196.194 209.873 197.406 207.793 197.833L207.787 197.822Z" fill="#00A99D"/>
<path opacity="0.5" d="M207.787 197.822C207.633 197.855 206.461 197.827 206.307 197.816C204.48 197.672 202.432 196.609 200.599 195.585C199.394 194.91 197.771 193.991 197.176 192.679C196.884 192.025 196.895 191.178 197.402 190.675C197.947 190.132 198.926 190.077 199.262 189.385C198.04 188.394 196.263 188.139 195.305 186.882C194.584 185.936 194.347 184.801 194.314 183.611C194.292 182.908 194.485 181.983 194.997 181.501C195.597 180.931 196.554 181.103 197.363 181.275C197.578 181.319 197.798 181.363 198.013 181.319C198.227 181.275 198.431 181.114 198.464 180.898C198.503 180.632 198.282 180.405 198.073 180.239C197.622 179.879 197.127 179.581 196.703 179.204C196.274 178.822 195.905 178.335 195.811 177.77C195.696 177.095 195.982 176.419 196.279 175.805C196.78 174.759 197.314 173.712 197.936 172.738C198.084 172.5 199.339 170.036 199.24 170.025C202.113 170.435 204.881 171.73 207.309 173.281C208.662 174.144 210.539 175.639 210.611 177.427C210.633 177.936 210.479 178.423 210.259 178.877C210.16 179.082 210 179.265 209.873 179.459C209.796 179.581 209.477 180.04 209.873 179.924C209.961 179.896 210.033 179.83 210.104 179.769C210.71 179.204 211.31 178.645 211.915 178.08C212.097 177.914 212.289 177.737 212.532 177.687C213.043 177.582 214.078 178.208 214.904 179.586C215.449 180.499 215.542 181.651 215.394 182.703C215.157 184.391 214.287 185.914 213.44 187.392C213.952 187.049 214.463 186.705 214.975 186.362C216.764 185.161 216.373 188.444 216.175 189.108C215.663 190.868 214.326 193.393 213.032 194.688C211.53 196.194 209.873 197.406 207.793 197.833L207.787 197.822Z" fill="white"/>
<path d="M207.552 187.542C208.922 184.087 211.091 181.956 212.384 180.677L212.434 180.633C212.516 180.55 212.522 180.411 212.434 180.328C212.351 180.245 212.213 180.24 212.131 180.328L212.087 180.373C210.843 181.596 208.823 183.595 207.42 186.767C206.236 180.129 203.468 174.521 201.498 172.24C201.415 172.146 201.266 172.135 201.173 172.218C201.079 172.301 201.068 172.451 201.151 172.545C203.094 174.798 205.824 180.317 206.985 186.866C203.429 183.473 199.186 183.29 199.142 183.29C199.021 183.29 198.922 183.379 198.922 183.5C198.922 183.583 198.96 183.655 199.026 183.694C199.054 183.711 199.092 183.722 199.131 183.722C199.175 183.722 203.595 183.91 207.111 187.597C207.607 190.697 207.722 195.015 207.211 197.368C207.189 197.457 207.227 197.545 207.293 197.601C207.321 197.623 207.348 197.639 207.387 197.645C207.513 197.673 207.634 197.595 207.662 197.468C208.185 195.076 208.064 190.703 207.557 187.547L207.552 187.542Z" fill="white"/>
<path d="M204.151 210.128C204.289 210.239 205.456 210.787 205.621 210.848C207.508 211.589 210.183 211.44 212.616 211.224C214.218 211.086 216.38 210.881 217.767 209.74C218.455 209.176 218.956 208.251 218.769 207.454C218.565 206.596 217.63 206.053 217.718 205.134C219.529 204.653 221.438 205.251 223.145 204.359C224.427 203.684 225.357 202.566 226.111 201.287C226.557 200.534 226.937 199.427 226.722 198.657C226.474 197.744 225.429 197.456 224.526 197.251C224.289 197.196 224.042 197.135 223.86 196.98C223.678 196.825 223.574 196.554 223.673 196.299C223.794 195.989 224.152 195.851 224.46 195.773C225.12 195.607 225.792 195.524 226.447 195.319C227.102 195.114 227.762 194.765 228.203 194.195C228.725 193.514 228.858 192.645 228.94 191.826C229.083 190.442 229.188 189.041 229.171 187.674C229.171 187.342 229.43 184.048 229.534 184.081C226.452 183.112 222.924 183.162 219.589 183.655C217.723 183.932 214.961 184.635 213.805 186.545C213.475 187.087 213.331 187.696 213.265 188.294C213.238 188.565 213.282 188.842 213.293 189.113C213.293 189.285 213.331 189.944 213.007 189.617C212.935 189.545 212.902 189.44 212.875 189.335C212.621 188.427 212.368 187.519 212.115 186.611C212.038 186.34 211.955 186.052 211.746 185.88C211.306 185.515 209.903 185.686 208.246 186.783C207.151 187.508 206.358 188.715 205.863 189.933C205.07 191.887 204.999 193.968 204.938 195.994C204.641 195.369 204.349 194.743 204.052 194.123C203.017 191.937 201.41 195.701 201.196 196.52C200.634 198.685 200.414 202.09 200.904 204.132C201.471 206.513 202.368 208.644 204.162 210.122L204.151 210.128Z" fill="#00A99D"/>
<path opacity="0.3" d="M204.151 210.128C204.289 210.239 205.456 210.787 205.621 210.848C207.508 211.589 210.183 211.44 212.616 211.224C214.218 211.086 216.38 210.881 217.767 209.74C218.455 209.176 218.956 208.251 218.769 207.454C218.565 206.596 217.63 206.053 217.718 205.134C219.529 204.653 221.438 205.251 223.145 204.359C224.427 203.684 225.357 202.566 226.111 201.287C226.557 200.534 226.937 199.427 226.722 198.657C226.474 197.744 225.429 197.456 224.526 197.251C224.289 197.196 224.042 197.135 223.86 196.98C223.678 196.825 223.574 196.554 223.673 196.299C223.794 195.989 224.152 195.851 224.46 195.773C225.12 195.607 225.792 195.524 226.447 195.319C227.102 195.114 227.762 194.765 228.203 194.195C228.725 193.514 228.858 192.645 228.94 191.826C229.083 190.442 229.188 189.041 229.171 187.674C229.171 187.342 229.43 184.048 229.534 184.081C226.452 183.112 222.924 183.162 219.589 183.655C217.723 183.932 214.961 184.635 213.805 186.545C213.475 187.087 213.331 187.696 213.265 188.294C213.238 188.565 213.282 188.842 213.293 189.113C213.293 189.285 213.331 189.944 213.007 189.617C212.935 189.545 212.902 189.44 212.875 189.335C212.621 188.427 212.368 187.519 212.115 186.611C212.038 186.34 211.955 186.052 211.746 185.88C211.306 185.515 209.903 185.686 208.246 186.783C207.151 187.508 206.358 188.715 205.863 189.933C205.07 191.887 204.999 193.968 204.938 195.994C204.641 195.369 204.349 194.743 204.052 194.123C203.017 191.937 201.41 195.701 201.196 196.52C200.634 198.685 200.414 202.09 200.904 204.132C201.471 206.513 202.368 208.644 204.162 210.122L204.151 210.128Z" fill="white"/>
<path d="M209.83 200.513C210.584 196.084 209.742 192.696 209.236 190.67L209.219 190.598C209.186 190.465 209.269 190.316 209.401 190.26C209.533 190.21 209.671 190.271 209.704 190.404L209.72 190.476C210.205 192.414 210.981 195.586 210.43 199.721C215.642 193.084 222.599 186.9 225.929 185.383C226.066 185.322 226.221 185.383 226.265 185.516C226.309 185.654 226.232 185.82 226.088 185.881C222.803 187.376 215.928 193.488 210.799 200.042C216.374 198.099 220.673 199.987 220.717 200.004C220.838 200.059 220.876 200.208 220.81 200.341C220.761 200.43 220.673 200.491 220.585 200.502C220.546 200.502 220.502 200.502 220.464 200.485C220.42 200.463 215.945 198.498 210.227 200.779C207.854 203.906 205.917 207.101 204.992 209.913C204.959 210.018 204.866 210.101 204.772 210.123C204.734 210.134 204.695 210.134 204.657 210.123C204.519 210.09 204.442 209.946 204.492 209.797C205.433 206.94 207.403 203.691 209.819 200.507L209.83 200.513Z" fill="white"/>
<path d="M65.0743 199.059C61.728 197.116 56.2958 197.116 52.9495 199.059C51.2764 200.033 50.4453 201.307 50.4453 202.58C50.4453 202.973 50.4453 203.504 50.4453 203.897C50.4453 205.171 51.2764 206.444 52.9495 207.418C56.2958 209.361 61.728 209.361 65.0743 207.418C66.7475 206.444 67.5785 205.171 67.5785 203.897C67.5785 203.504 67.5785 202.973 67.5785 202.58C67.5785 201.307 66.7475 200.033 65.0743 199.059Z" fill="#00A99D"/>
<path d="M59.0124 207.562C63.7481 207.562 67.5872 205.332 67.5872 202.58C67.5872 199.828 63.7481 197.598 59.0124 197.598C54.2766 197.598 50.4375 199.828 50.4375 202.58C50.4375 205.332 54.2766 207.562 59.0124 207.562Z" fill="#00A99D"/>
<path opacity="0.3" d="M59.0124 207.562C63.7481 207.562 67.5872 205.332 67.5872 202.58C67.5872 199.828 63.7481 197.598 59.0124 197.598C54.2766 197.598 50.4375 199.828 50.4375 202.58C50.4375 205.332 54.2766 207.562 59.0124 207.562Z" fill="white"/>
<path d="M58.0625 154.246H59.9503V202.896C59.9503 203.035 59.8567 203.179 59.6751 203.284C59.3064 203.5 58.7119 203.5 58.3432 203.284C58.1616 203.179 58.068 203.035 58.068 202.896V154.246H58.0625Z" fill="#00A99D"/>
<path opacity="0.15" d="M58.0625 165.169L59.9503 166.265V157.125C59.4384 157.147 58.6844 157.18 58.0625 157.208V165.169Z" fill="black"/>
<path d="M43.4062 155.177V131.189L44.6281 130.48L71.503 146.092V170.074L70.2811 170.782L43.4062 155.177Z" fill="#00A99D"/>
<path opacity="0.5" d="M71.503 146.092L70.2811 146.801L43.4062 131.189L44.6281 130.48L71.503 146.092Z" fill="white"/>
<path d="M70.2811 170.781L43.4062 155.175V131.188L70.2811 146.799V170.781Z" fill="#00A99D"/>
<path opacity="0.3" d="M70.2811 170.781L43.4062 155.175V131.188L70.2811 146.799V170.781Z" fill="white"/>
<path d="M69.1566 147.88L45.0391 133.83L45.0611 154.391L69.1566 168.386V147.88Z" fill="#00A99D"/>
<path d="M69.1572 147.881V167.246L46.0469 153.827V134.412L69.1572 147.881Z" fill="#FAFAFA"/>
<path opacity="0.25" d="M46.0463 153.826L45.0611 154.391L45.0391 133.83L46.0463 134.411V153.826Z" fill="black"/>
<path d="M53.6458 143.248C53.7173 143.292 53.7834 143.364 53.8329 143.481C53.888 143.591 53.91 143.702 53.91 143.818V149.908C53.91 150.611 53.8384 151.187 53.6953 151.646C53.5522 152.1 53.3486 152.432 53.0789 152.648C52.8147 152.859 52.4955 152.953 52.1268 152.93C51.758 152.903 51.3562 152.764 50.9159 152.51C50.4701 152.25 50.0628 151.917 49.6941 151.519C49.3253 151.115 49.0116 150.655 48.7474 150.14C48.4833 149.62 48.2796 149.05 48.1365 148.424C47.9934 147.804 47.9219 147.14 47.9219 146.437V140.347C47.9219 140.236 47.9494 140.153 47.9989 140.104C48.0485 140.054 48.1145 140.048 48.1861 140.093L49.4794 140.84C49.551 140.884 49.6115 140.956 49.6666 141.072C49.7216 141.183 49.7436 141.294 49.7436 141.41V147.439C49.7436 148.048 49.8427 148.585 50.0353 149.044C50.228 149.504 50.5252 149.847 50.9159 150.074C51.3122 150.301 51.6039 150.301 51.7965 150.068C51.9892 149.836 52.0882 149.415 52.0882 148.801V142.772C52.0882 142.661 52.1157 142.578 52.1653 142.528C52.2203 142.479 52.2809 142.473 52.3524 142.517L53.6458 143.265V143.248Z" fill="#37474F"/>
<path d="M58.3087 145.955C58.727 146.199 59.1067 146.492 59.4424 146.836C59.7782 147.179 60.0644 147.566 60.301 148.004C60.5377 148.441 60.7193 148.923 60.8459 149.443C60.9725 149.964 61.0385 150.523 61.0385 151.109C61.0385 151.696 60.9725 152.195 60.8459 152.571C60.7193 152.942 60.5377 153.208 60.301 153.368C60.0644 153.529 59.7782 153.584 59.4424 153.54C59.1067 153.495 58.727 153.357 58.3087 153.108L57.0483 152.377V155.488C57.0483 155.599 57.0208 155.682 56.9713 155.732C56.9162 155.782 56.8557 155.787 56.7841 155.743L55.4907 154.996C55.4192 154.951 55.3587 154.879 55.3036 154.763C55.2486 154.653 55.2266 154.542 55.2266 154.426V144.566C55.2266 144.455 55.2541 144.372 55.3036 144.322C55.3587 144.273 55.4192 144.267 55.4907 144.311L58.3087 145.95V145.955ZM57.0483 150.002L58.2591 150.705C58.5343 150.866 58.7655 150.905 58.9416 150.822C59.1232 150.739 59.2113 150.484 59.2113 150.058C59.2113 149.631 59.1232 149.272 58.9416 148.978C58.76 148.685 58.5343 148.458 58.2591 148.297L57.0483 147.594V150.008V150.002Z" fill="#37474F"/>
<path d="M64.7523 149.529L62.1875 152.557L63.635 153.399V160.618L65.875 161.919V154.694L67.3225 155.536L64.7523 149.529Z" fill="#00A99D"/>
<path d="M50.9886 65.3288L46.3984 62.666V110.635L85.4091 133.289L85.4036 151.945L124.414 174.598V193.255L163.425 215.902V229.227L168.01 231.896V213.239L129.004 190.586V171.93L89.9938 149.282V130.626L50.9886 107.973V65.3288Z" fill="#00A99D"/>
<path opacity="0.25" d="M50.9886 65.3288L46.3984 62.666V110.635L85.4091 133.289L85.4036 151.945L124.414 174.598V193.255L163.425 215.902V229.227L168.01 231.896V213.239L129.004 190.586V171.93L89.9938 149.282V130.626L50.9886 107.973V65.3288Z" fill="black"/>
<path d="M93.5047 37.5775L70.2678 18.6942C70.1467 18.5946 70.0256 18.5115 69.899 18.4396C69.3817 18.1462 65.441 15.8487 65.3144 15.7768C64.1696 15.1124 62.8377 15.511 62.1938 16.7732L37.1296 66.2539C36.7443 67.0123 36.7223 67.5051 36.9975 67.6711C37.2287 67.8095 41.3125 70.1679 41.5876 70.3339C41.8188 70.4723 42.2646 70.3838 42.881 70.0239L93.246 40.7773C94.5944 39.9912 94.71 38.5574 93.4937 37.5719L93.5047 37.5775Z" fill="#00A99D"/>
<path d="M93.2575 40.7817L42.8925 70.0284C41.5441 70.8145 41.0212 70.3163 41.7312 68.9156L66.7899 19.435C67.4998 18.0344 69.0574 17.7022 70.2682 18.6876L93.5051 37.5709C94.716 38.5563 94.6059 39.9901 93.2575 40.7762V40.7817Z" fill="#00A99D"/>
<path opacity="0.3" d="M65.3167 15.7759C65.4378 15.8424 68.9052 17.8685 69.7637 18.3612C68.6575 17.8076 67.4026 18.2228 66.7917 19.4352L41.722 68.9159C41.3423 69.6577 41.3148 70.156 41.579 70.3331C41.1827 70.0951 37.231 67.8142 37.0053 67.6758C36.7301 67.5098 36.7521 67.0171 37.1374 66.2531L62.2016 16.7669C62.84 15.5047 64.1719 15.1116 65.3222 15.7704L65.3167 15.7759Z" fill="white"/>
<path d="M50.9766 62.6648V107.971L87.6867 86.6523V41.3457L50.9766 62.6648Z" fill="#00A99D"/>
<path d="M50.9844 107.971L89.9896 130.625L126.705 109.306L87.6945 86.6523L50.9844 107.971Z" fill="#00A99D"/>
<path opacity="0.3" d="M50.9844 107.971L89.9896 130.625L126.705 109.306L87.6945 86.6523L50.9844 107.971Z" fill="white"/>
<path d="M126.7 109.307V127.957L89.9844 149.282V130.626L126.7 109.307Z" fill="#00A99D"/>
<path d="M89.9844 149.282L128.995 171.929L165.705 150.61L126.7 127.957L89.9844 149.282Z" fill="#00A99D"/>
<path opacity="0.3" d="M89.9844 149.282L128.995 171.929L165.705 150.61L126.7 127.957L89.9844 149.282Z" fill="white"/>
<path d="M165.71 150.611V169.268L129 190.587V171.93L165.71 150.611Z" fill="#00A99D"/>
<path d="M129 190.587L168.005 213.24L204.721 191.921L165.71 169.268L129 190.587Z" fill="#00A99D"/>
<path opacity="0.3" d="M129 190.587L168.005 213.24L204.721 191.921L165.71 169.268L129 190.587Z" fill="white"/>
<path d="M204.723 191.92V210.576L168.008 231.895V213.239L204.723 191.92Z" fill="#00A99D"/>
<path opacity="0.25" d="M147.907 149.283C143.454 149.094 137.18 149.299 134.285 150.617C132.144 151.591 131.148 152.61 132.26 154.625C132.87 155.732 134.01 156.269 134.802 157.171C135.446 157.908 135.331 158.672 134.61 159.231C133.569 160.039 132.496 160.803 131.472 161.645C127.978 164.534 132.188 164.429 133.195 164.401C135.881 164.324 139.855 163.892 143.537 162.746C145.854 162.027 146.58 161.717 146.58 161.717V180.373C146.58 180.373 149.387 182.222 152.844 184.11C160.901 188.505 164.066 190.52 167.803 191.085C171.457 191.633 174.534 190.376 174.589 186.595C174.666 180.96 172.591 178.601 171.039 177.201C169.25 175.59 163.934 170.308 163.934 170.308V151.652C163.934 151.652 158.49 149.731 147.901 149.288L147.907 149.283Z" fill="black"/>
<path d="M118.004 21.7234C119.204 21.1808 119.836 24.0429 120.585 26.1577C121.273 28.1008 122.357 30.5865 122.792 30.7027C123.408 30.8688 123.051 28.3998 123.838 27.4033C124.636 26.3957 125.148 26.7999 125.076 27.9347C125.021 28.8537 125.302 31.5774 124.834 33.5593C124.652 34.3288 124.383 35.209 125.087 36.4325C128.208 41.8744 133.998 49.2538 133.998 49.2538C133.998 49.2538 140.91 52.0551 145.132 53.2508C148.274 54.1421 151.544 55.1995 154.086 56.2181C154.34 57.1869 153.03 66.4486 148.797 65.2418C148.038 62.579 138.39 60.2151 132.484 57.8457C128.896 56.4063 128.01 55.9413 127.123 54.43C124.559 50.0455 124.328 49.2538 122.467 45.4672C120.354 41.1658 119.759 40.3077 119.413 39.9257C118.301 38.7189 117.244 37.9493 116.556 36.9861C115.731 35.8235 114.817 34.4063 114.443 32.9725C114.338 32.5628 114.294 32.0978 114.542 31.7546C114.668 31.5774 114.85 31.4556 114.977 31.284C115.175 31.0183 115.274 30.592 115.51 30.3595C115.835 30.0329 116.501 30.0827 116.804 29.7395C116.936 29.59 117.107 28.9866 117.283 28.8925C117.657 28.6876 117.866 28.743 118.207 28.6433C118.389 28.588 118.923 28.6101 118.923 28.3444C118.923 28.0233 118.681 27.1209 118.213 25.2664C117.817 23.6665 117.321 22.0334 118.015 21.7234H118.004Z" fill="#B16668"/>
<path d="M154.061 56.001C153.478 55.7795 152.553 55.2647 151.392 54.8882C150.23 54.5173 140.912 51.622 138.282 50.6698C135.651 49.7176 134.088 49.0976 134.088 49.0976L130.241 44.2148C130.241 44.2148 129.745 45.4162 127.775 46.4458C125.805 47.4755 123.477 47.5364 123.477 47.5364C123.477 47.5364 124.407 49.6069 125.739 52.5465C126.889 55.082 126.999 55.7186 128.997 56.6044C131.292 57.6175 137.352 59.8596 140.131 60.9225C143.527 62.2179 147.523 63.7735 148.128 65.0246C148.128 65.0246 153.775 59.7821 154.061 56.001Z" fill="#00A99D"/>
<path opacity="0.6" d="M154.061 56.001C153.478 55.7795 152.553 55.2647 151.392 54.8882C150.23 54.5173 140.912 51.622 138.282 50.6698C135.651 49.7176 134.088 49.0976 134.088 49.0976L130.241 44.2148C130.241 44.2148 129.745 45.4162 127.775 46.4458C125.805 47.4755 123.477 47.5364 123.477 47.5364C123.477 47.5364 124.407 49.6069 125.739 52.5465C126.889 55.082 126.999 55.7186 128.997 56.6044C131.292 57.6175 137.352 59.8596 140.131 60.9225C143.527 62.2179 147.523 63.7735 148.128 65.0246C148.128 65.0246 153.775 59.7821 154.061 56.001Z" fill="white"/>
<path d="M130.34 44.3441C130.34 44.3441 129.657 46.1654 127.313 47.1065C124.968 48.0476 123.708 48.031 123.708 48.031L122.117 44.7426C122.117 44.7426 124.621 44.261 126.08 43.2922C127.538 42.3234 128.012 41.0391 128.012 41.0391L130.34 44.3441Z" fill="#00A99D"/>
<path opacity="0.85" d="M130.34 44.3441C130.34 44.3441 129.657 46.1654 127.313 47.1065C124.968 48.0476 123.708 48.031 123.708 48.031L122.117 44.7426C122.117 44.7426 124.621 44.261 126.08 43.2922C127.538 42.3234 128.012 41.0391 128.012 41.0391L130.34 44.3441Z" fill="white"/>
<path d="M121.711 29.623C121.998 30.9351 122.658 32.2803 122.168 32.8782C121.794 33.3377 121.029 33.3598 120.572 32.8284C120.572 32.8284 120.627 33.4484 120.121 33.7695C119.615 34.0906 119.114 33.7584 119.114 33.7584C119.114 34.0574 118.563 34.6608 117.82 34.4283C118.107 34.7383 118.861 35.1258 119.229 34.3729C119.229 34.3729 120.38 34.6608 120.71 33.7252C120.71 33.7252 120.28 34.7604 121.299 36.1278C121.299 36.1278 120.798 34.7715 121.282 33.6643C121.282 33.6643 122.234 33.7308 122.664 32.9391C123.093 32.1419 121.711 29.6286 121.711 29.6286V29.623Z" fill="#9A4A4D"/>
<path d="M174.046 36.1383C174.008 36.3265 173.942 36.5147 173.859 36.7085C173.7 37.0739 173.347 37.3617 173.248 37.7492C173.023 38.6239 174.112 39.6315 174.432 40.3678C175.015 41.7019 173.81 42.8258 172.94 43.6562C172.533 44.0437 172.28 44.6637 172.45 45.2394C172.571 45.6602 173.05 45.8263 173.441 45.6602C173.314 45.9259 173.006 46.0311 172.753 46.0366C171.911 46.0643 171.476 45.5882 171.3 45.0014C171.256 45.3169 171.41 45.6491 171.388 45.9757C171.355 46.5017 171.096 46.867 170.595 47.0553C170.188 47.2103 169.742 47.2545 169.335 47.4262C168.834 47.6365 168.691 47.9576 168.383 48.3728C167.778 49.1977 166.974 49.3914 165.983 49.3748C164.921 49.3527 164.029 48.7105 163.386 47.9023C163.138 47.5922 162.857 47.3044 162.621 46.9722C161.861 45.9038 160.843 45.0568 160.045 44.0049C159.219 42.9088 158.509 41.7296 157.838 40.5339C156.99 39.0281 156.352 37.4116 155.691 35.8172C155.565 35.5016 155.493 35.1805 155.251 34.9259C155.042 34.71 154.761 34.5439 154.486 34.4332C153.429 34.0014 152.202 33.8298 151.624 32.706C151.167 31.8091 151.316 30.6576 152.262 30.1705C152.598 29.9989 152.967 29.5504 152.615 29.2017C152.362 28.947 151.971 28.9249 151.762 28.6093C151.415 28.0889 151.905 27.026 152.593 27.1312C152.037 27.3748 152.373 27.9339 152.868 28.0004C153.347 28.0668 153.644 27.8509 153.919 27.4966C154.084 27.2862 154.304 27.1312 154.574 27.0759C154.877 27.015 155.13 27.1976 155.422 27.2253C156.214 27.2918 156.583 25.9188 157.117 25.5036C158.085 24.7397 159.577 24.5348 160.667 25.1161C161.206 25.404 161.564 25.869 161.933 26.3451C162.153 26.6219 162.51 27.1091 162.857 27.2087C163.297 27.336 163.837 27.2364 164.244 27.0537C165.141 26.6551 165.697 26.5001 166.941 26.7437C167.667 26.8876 168.466 27.2309 168.9 27.8786C169.28 28.4488 169.247 29.0135 169.33 29.6556C169.423 30.4528 169.748 30.94 170.546 31.0839C170.97 31.1614 171.361 31.0673 171.674 30.7241C171.861 30.5192 171.883 30.1815 171.74 29.9878C172.34 30.2757 172.566 30.7905 172.439 31.4438C172.313 32.0859 171.592 32.479 170.986 32.562C171.465 32.4956 172.588 32.9108 173.358 33.5585C173.766 33.8962 174.085 34.7321 174.107 35.2581C174.118 35.5681 174.101 35.8559 174.041 36.1383H174.046Z" fill="#263238"/>
<path d="M170.508 165.742C170.656 166.893 170.981 168.239 171.19 170.597C171.394 172.911 170.887 173.022 172.104 178.962C172.83 182.527 172.594 183.917 170.298 186.768C167.844 189.818 165.488 189.048 164.112 185.439C162.94 182.355 163.089 180.96 163.248 177.844C163.408 174.727 163.424 173.813 163.413 171.333C163.402 169.146 163.661 167.668 163.617 165.991L170.513 165.736L170.508 165.742Z" fill="#37474F"/>
<path d="M170.509 166.095C170.559 168.144 170.493 171.283 170.762 174.327C170.966 176.614 171.538 178.861 171.478 180.478C171.456 181.065 170.867 181.436 170.322 181.22C168.869 180.638 166.689 180.611 165.082 181.281C164.571 181.496 163.998 181.126 163.949 180.566C163.541 176.154 163.613 166.195 163.613 166.195C162.842 158.81 160.933 146.216 160.685 143.514C160.322 139.517 159.491 134.468 159.204 131.335C158.918 128.201 157.047 106.356 157.047 106.356L171.368 86.1777C171.368 86.1777 171.527 89.2724 173.679 93.9558C176.58 100.272 175.771 105.316 174.879 111.051C174.136 115.829 172.089 137.297 172.089 137.297C172.089 137.297 171.99 141.742 172.199 146.847C172.485 153.761 170.393 161.511 170.504 166.106L170.509 166.095Z" fill="#B16668"/>
<path d="M171.366 86.1719C162.637 88.1095 154.398 88.5856 149.246 86.6535C149.081 89.3163 144.86 94.2544 139.571 102.138C133.544 111.128 130.082 116.603 130.082 116.603C127.908 120.672 127.083 121.696 129.196 126.629C131.486 131.96 138.371 142.246 138.987 145.955C139.141 146.896 138.69 149.288 138.156 151.048C137.622 152.809 136.692 155.172 135.812 156.335C135.812 156.335 133.263 159.385 133.885 159.657C134.502 159.922 140.204 160.21 142.697 159.302C145.19 158.394 145.344 156.213 145.994 152.211C146.643 148.208 147.083 142.202 147.083 142.202C147.083 142.202 146.665 142.074 146.049 141.288C145.482 140.569 144.843 139.6 144.441 137.291C144.034 134.983 143.28 129.984 142.416 127.138C141.557 124.287 140.462 122.637 140.462 122.637L157.392 107.474L171.366 86.1774V86.1719Z" fill="#B16668"/>
<path d="M149.908 148.158C149.792 149.088 149.06 150.179 148.785 151.635C148.51 153.091 148.317 154.608 148.317 156.673V159.031H147.679V154.735C147.679 153.423 147.552 152.465 146.93 152.327C146.93 152.327 146.826 148.158 149.908 148.158Z" fill="#263238"/>
<path d="M146.935 141.871C147.408 142.939 148.866 144.395 149.516 145.403C149.89 145.984 150.05 146.632 150.099 147.163C150.149 147.689 149.967 148.204 149.615 148.597C149.109 149.151 148.305 150.081 147.766 150.9C147.05 151.991 145.729 154.515 145.415 156.259C145.107 158.008 144.959 159.542 143.528 160.477C142.416 161.208 137.754 162.398 135.377 162.686C132.135 163.074 131.205 161.546 132.355 160.223C133.505 158.899 135.454 156.63 135.811 156.336C135.811 156.336 137.264 156.004 138.86 156.597C140.726 157.283 141.365 158.318 143.23 157.25C144.915 156.286 145.432 153.02 145.03 148.387C144.573 143.127 146.935 141.865 146.935 141.865V141.871Z" fill="#37474F"/>
<path d="M171.614 85.4961C172.841 88.4634 173.997 90.0854 175.555 94.254C176.953 98.0074 176.507 103.582 174.883 113.298C173.26 123.014 172.561 137.285 172.561 137.285C172.561 137.285 172.792 143.065 171.933 153.273C171.933 153.273 170.145 154.607 166.776 154.607C163.408 154.607 162.021 153.589 162.021 153.589C162.021 153.589 160.436 142.904 159.941 138.846C159.291 133.515 159.01 130.515 158.405 123.96C157.629 115.601 156.864 109.041 156.864 109.041L141.013 122.787C141.013 122.787 142.196 124.962 142.763 127.957C143.33 130.952 143.611 132.447 143.611 132.447C143.611 132.447 141.167 135.038 138.63 135.791C136.093 136.543 134.1 135.791 134.1 135.791C134.1 135.791 129.246 127.791 127.969 124.73C126.698 121.668 127.705 120.295 128.987 117.76C130.27 115.219 143 96.5625 145.433 93.0915C147.865 89.6149 148.515 88.2364 149.126 86.404C149.126 86.404 150.314 87.1901 156.517 87.1237C162.72 87.0572 171.603 85.5016 171.603 85.5016L171.614 85.4961Z" fill="#455A64"/>
<path d="M141.004 122.791C140.112 123.666 138.466 124.308 136.766 124.413C136.766 124.413 140.112 124.967 141.449 123.738L141.004 122.797V122.791Z" fill="#37474F"/>
<path d="M156.86 109.042L156.667 106.097C156.667 106.097 152.193 104.691 150.564 99.7695C150.564 99.7695 150.498 103.385 154.538 106.634C154.538 106.634 155.22 108.013 153.36 110.078C151.494 112.137 143.117 120.956 143.117 120.956L156.86 109.037V109.042Z" fill="#37474F"/>
<path d="M173.24 73.0749C168.534 70.4121 168.518 61.6653 169.239 57.3804L164.06 56.8268L154.048 56.002C153.102 56.8766 151.379 58.6648 147.339 63.9959C145.248 66.7584 143.866 71.1761 148.511 74.8575L149.133 79.1258C149.519 82.6577 147.697 85.315 149.122 86.3945C150.531 87.9778 159.084 91.9305 171.358 85.7025C172.277 85.0825 171.715 84.3628 171.919 80.3658C171.919 80.3658 172.233 77.5203 173.24 73.0694V73.0749Z" fill="#00A99D"/>
<path opacity="0.5" d="M173.24 73.0749C168.534 70.4121 168.518 61.6653 169.239 57.3804L164.06 56.8268L154.048 56.002C153.102 56.8766 151.379 58.6648 147.339 63.9959C145.248 66.7584 143.866 71.1761 148.511 74.8575L149.133 79.1258C149.519 82.6577 147.697 85.315 149.122 86.3945C150.531 87.9778 159.084 91.9305 171.358 85.7025C172.277 85.0825 171.715 84.3628 171.919 80.3658C171.919 80.3658 172.233 77.5203 173.24 73.0694V73.0749Z" fill="white"/>
<path d="M164.58 50.1544C165.114 47.9013 166.853 44.7236 167.216 41.3467C167.579 37.9642 167.524 35.0744 164.178 32.6385C160.832 30.2027 157.353 30.402 155.862 30.6899C154.37 30.9722 152.664 32.3784 152.664 32.3784L164.585 50.16L164.58 50.1544Z" fill="#00A99D"/>
<path d="M149.405 38.2621C148.805 36.856 149.02 32.7428 152.669 32.3718C152.669 32.3718 157.578 30.5339 161.844 33.7669C166.109 36.9999 165.707 41.7332 165.707 41.7332L164.684 47.6235L164.607 49.6165L149.405 38.2621Z" fill="#263238"/>
<path d="M151.407 34.248C150.62 34.6799 149.079 36.0306 148.98 43.5042C148.891 49.8374 150.796 51.4705 151.764 51.9577C152.733 52.4449 154.637 52.24 156.492 51.9854L156.349 56.547C156.349 56.547 154.087 58.7503 155.237 60.8319C155.468 61.2526 154.39 66.1409 154.869 66.2959C155.347 66.4509 156.999 61.5848 157.664 61.4741C158.749 61.2914 159.954 61.2582 161.044 60.5219C163.944 58.5621 164.313 57.0453 164.313 57.0453L164.687 47.6285C164.687 47.6285 165.733 48.7745 167.632 47.1524C169.2 45.8183 169.795 43.4932 168.655 42.1867C167.516 40.8857 165.315 41.1459 164.412 42.9119C160.884 42.8842 162.211 34.0598 158.529 35.3165C154.445 36.7116 151.731 36.6839 151.401 34.248H151.407Z" fill="#B16668"/>
<path d="M164.431 42.1602L164.37 44.8396C163.66 44.8506 163.093 44.2638 163.11 43.522C163.126 42.7802 163.721 42.1712 164.431 42.1602Z" fill="#263238"/>
<path d="M151.925 41.6927C151.936 42.1301 151.601 42.4899 151.182 42.501C150.764 42.5065 150.417 42.1578 150.406 41.7204C150.401 41.2831 150.731 40.9232 151.149 40.9122C151.568 40.9066 151.914 41.2554 151.925 41.6927Z" fill="#263238"/>
<path d="M158.207 41.8138C158.218 42.2512 157.882 42.611 157.464 42.6221C157.045 42.6276 156.699 42.2789 156.688 41.8415C156.677 41.4042 157.012 41.0443 157.431 41.0333C157.849 41.0277 158.196 41.3765 158.207 41.8138Z" fill="#263238"/>
<path d="M156.6 47.2832L154.492 47.9032C154.641 48.5343 155.235 48.9053 155.819 48.7336C156.402 48.562 156.749 47.9143 156.6 47.2832Z" fill="#9A4A4D"/>
<path d="M149.902 39.7493L151.482 38.6919C151.218 38.2214 150.651 38.0774 150.216 38.3709C149.781 38.6643 149.644 39.2843 149.908 39.7493H149.902Z" fill="#263238"/>
<path d="M158.783 39.8665L157.203 38.8091C157.467 38.3386 158.034 38.1946 158.469 38.488C158.904 38.7814 159.041 39.4015 158.777 39.8665H158.783Z" fill="#263238"/>
<path d="M154.372 41.0332L154.235 46.2204L151.852 45.3513L154.372 41.0332Z" fill="#9A4A4D"/>
<path d="M156.496 51.9839C158.45 51.7901 162.369 50.5002 163.172 49.0996C163.172 49.0996 162.93 50.1348 161.697 51.159C160.464 52.1887 156.469 53.2571 156.469 53.2571L156.496 51.9783V51.9839Z" fill="#9A4A4D"/>
<path d="M178.929 96.4745C178.759 96.3748 178.599 96.3803 178.451 96.4634L162.391 105.786L163.315 119.166L179.375 109.838C179.788 109.65 180.08 108.809 180.08 107.629V99.9843C180.08 98.4176 179.568 96.8454 178.935 96.4745H178.929Z" fill="#00A99D"/>
<path opacity="0.3" d="M169.733 101.519C170.134 101.286 170.745 101.757 170.294 103.778C169.843 105.798 168.467 110.753 168.698 111.965C168.935 113.183 169.133 113.687 170.107 112.203C171.081 110.72 172.666 99.7695 172.666 99.7695L169.733 101.519Z" fill="black"/>
<path d="M162.864 105.803C163.496 106.169 164.008 107.741 164.008 109.313V116.958C164.008 118.525 163.496 119.499 162.864 119.134C162.231 118.769 161.719 117.196 161.719 115.624V107.979C161.719 106.412 162.231 105.438 162.864 105.803Z" fill="#00A99D"/>
<path opacity="0.3" d="M162.864 105.803C163.496 106.169 164.008 107.741 164.008 109.313V116.958C164.008 118.525 163.496 119.499 162.864 119.134C162.231 118.769 161.719 117.196 161.719 115.624V107.979C161.719 106.412 162.231 105.438 162.864 105.803Z" fill="black"/>
<path opacity="0.3" d="M164.021 110.126C164.021 111.194 169.971 109.677 172.051 108.47C174.132 107.258 180.081 102.475 180.081 101.141V101.81C180.081 101.81 178.012 105.431 172.403 108.675C166.795 111.919 164.016 110.485 164.016 110.485V110.12L164.021 110.126Z" fill="black"/>
<path d="M172.117 107.204C172.519 106.971 172.844 107.347 172.844 108.045C172.844 108.743 172.519 109.495 172.117 109.728C171.715 109.96 171.391 109.584 171.391 108.886C171.391 108.189 171.715 107.436 172.117 107.204Z" fill="#FAFAFA"/>
<path d="M169.246 57.5306C173.379 58.1396 175.873 59.2301 177.177 62.668C178.481 66.1059 182.318 77.7979 183.105 80.2392C183.892 82.6751 183.671 83.7657 182.626 86.1738C181.971 87.6851 181.327 89.1965 180.683 90.7133C179.83 92.7229 178.168 95.8729 177.876 96.6701C177.551 97.5724 177.524 98.4859 177.524 99.4325C177.524 100.34 177.579 101.237 177.425 102.14C177.172 103.618 177.006 104.238 176.566 105.24C176.269 105.926 176.071 106.674 175.73 107.332C175.493 107.792 175.031 108.174 174.706 108.572C174.332 109.032 174.183 109.624 173.726 110.023C172.928 110.726 172.108 110.803 171.36 111.119C171.024 111.573 170.457 112.536 170.083 112.957C169.136 114.036 168.982 112.21 169.037 111.595C169.092 110.953 169.279 110.272 169.472 109.657C169.984 108.063 170.424 106.48 170.754 104.836C170.864 104.282 171.563 100.634 170.127 101.282L167.523 102.793C167.639 101.713 168.465 100.545 170.551 97.888C172.581 95.3027 175.295 82.6474 175.295 82.6474L171.36 72.6937C171.36 72.6937 168.454 68.8074 168.206 63.8638C167.958 58.9201 169.235 57.5195 169.235 57.5195L169.246 57.5306Z" fill="#B16668"/>
<path d="M169.242 57.3867C171.289 57.6248 174.118 57.9459 175.703 59.8115C177.288 61.6771 177.486 62.43 179.655 68.8573C181.823 75.2846 183.386 80.1396 183.573 81.0475C183.76 81.9499 184.151 83.3394 182.495 86.4728C182.495 86.4728 181.631 85.3656 179.027 84.6072C176.424 83.8488 174.949 84.2141 174.949 84.2141L175.213 82.6585L170.777 72.5553C170.777 72.5553 167.992 68.658 167.992 63.0611C167.992 58.6711 169.242 57.3867 169.242 57.3867Z" fill="#00A99D"/>
<path opacity="0.6" d="M169.242 57.3867C171.289 57.6248 174.118 57.9459 175.703 59.8115C177.288 61.6771 177.486 62.43 179.655 68.8573C181.823 75.2846 183.386 80.1396 183.573 81.0475C183.76 81.9499 184.151 83.3394 182.495 86.4728C182.495 86.4728 181.631 85.3656 179.027 84.6072C176.424 83.8488 174.949 84.2141 174.949 84.2141L175.213 82.6585L170.777 72.5553C170.777 72.5553 167.992 68.658 167.992 63.0611C167.992 58.6711 169.242 57.3867 169.242 57.3867Z" fill="white"/>
<path d="M174.944 84.2143L173.992 88.1338C176.491 88.1006 178.764 88.8369 180.756 90.5253L182.49 86.4675C182.49 86.4675 182.149 85.5429 179.199 84.6184C176.249 83.6939 174.944 84.2143 174.944 84.2143Z" fill="#00A99D"/>
<path opacity="0.85" d="M174.944 84.2143L173.992 88.1338C176.491 88.1006 178.764 88.8369 180.756 90.5253L182.49 86.4675C182.49 86.4675 182.149 85.5429 179.199 84.6184C176.249 83.6939 174.944 84.2143 174.944 84.2143Z" fill="white"/>
</svg>
