<svg width="265" height="244" viewBox="0 0 265 244" fill="none" xmlns="http://www.w3.org/2000/svg">
<path d="M38.8093 222.739C-12.9336 194.393 -12.9393 148.438 38.8093 120.092C90.5522 91.7454 174.45 91.7454 226.193 120.092C277.936 148.438 277.936 194.393 226.193 222.739C174.45 251.086 90.5522 251.086 38.8093 222.739Z" fill="#F5F5F5"/>
<path d="M213.915 32.9658L217.771 35.079C217.754 34.9181 217.737 34.7519 217.737 34.5963V33.5397C217.737 31.6571 219.133 30.8901 220.852 31.8341C221.547 32.2149 222.191 32.821 222.706 33.529C222.988 31.1583 224.95 30.2786 227.33 31.582C229.902 32.9926 231.988 36.4199 231.988 39.2411V40.8234C231.988 41.5528 231.847 42.1696 231.592 42.6577L234.792 44.4116C235.747 44.9319 236.522 46.2084 236.522 47.2489C236.522 48.2895 235.747 48.7185 234.792 48.1929L213.91 36.7525C212.954 36.2322 212.18 34.9557 212.18 33.9151C212.18 32.8746 212.954 32.4455 213.91 32.9712L213.915 32.9658Z" fill="#E6E6E6"/>
<path d="M234.134 19.0889L236.259 19.8666V15.4256C236.259 11.9018 239.222 11.0597 242.432 12.8189C245.649 14.5782 248.255 18.8636 248.255 22.3821V23.0258C248.984 22.7522 249.929 22.8541 250.957 23.4227C253.269 24.6885 255.146 27.7725 255.146 30.3041V30.5991L258.109 32.2242C259.635 33.061 260.867 35.0884 260.867 36.7564C260.867 38.4245 259.635 39.1003 258.109 38.269L234.134 25.1336C232.613 24.2969 231.375 22.2695 231.375 20.6014C231.375 18.9334 232.607 18.2576 234.134 19.0889Z" fill="#E6E6E6"/>
<path d="M204.064 18.5389C208.186 16.1218 209.462 10.9921 206.914 7.08149C204.366 3.17086 198.96 1.96015 194.838 4.37729C190.716 6.79443 189.44 11.9241 191.988 15.8347C194.536 19.7454 199.942 20.9561 204.064 18.5389Z" fill="#81319B"/>
<path d="M60.6087 203.399C66.7093 203.399 71.6548 200.69 71.6548 197.349C71.6548 194.008 66.7093 191.299 60.6087 191.299C54.508 191.299 49.5625 194.008 49.5625 197.349C49.5625 200.69 54.508 203.399 60.6087 203.399Z" fill="#E0E0E0"/>
<path d="M172.563 226.64L42.9375 155.637L83.0067 133.689L212.632 204.692L172.563 226.64Z" fill="#E0E0E0"/>
<path d="M213.426 191.046C213.268 191.078 212.064 191.051 211.906 191.04C210.029 190.901 207.926 189.871 206.044 188.879C204.805 188.224 203.138 187.334 202.527 186.063C202.228 185.43 202.239 184.609 202.759 184.121C203.319 183.596 204.325 183.542 204.67 182.872C203.415 181.911 201.589 181.665 200.605 180.447C199.865 179.53 199.622 178.431 199.588 177.277C199.565 176.596 199.763 175.7 200.289 175.234C200.905 174.681 201.888 174.848 202.719 175.014C202.94 175.057 203.166 175.1 203.387 175.057C203.607 175.014 203.816 174.858 203.85 174.649C203.89 174.392 203.664 174.172 203.449 174.011C202.985 173.662 202.476 173.373 202.041 173.008C201.6 172.638 201.221 172.166 201.125 171.619C201.007 170.964 201.301 170.31 201.606 169.715C202.12 168.701 202.669 167.687 203.307 166.743C203.46 166.513 204.749 164.126 204.647 164.115C207.598 164.512 210.442 165.767 212.935 167.269C214.325 168.106 216.253 169.554 216.327 171.286C216.349 171.78 216.191 172.252 215.965 172.692C215.863 172.89 215.699 173.067 215.569 173.255C215.49 173.373 215.162 173.818 215.569 173.705C215.659 173.678 215.733 173.614 215.806 173.555C216.428 173.008 217.044 172.466 217.666 171.919C217.853 171.758 218.051 171.587 218.299 171.538C218.825 171.436 219.888 172.043 220.736 173.378C221.296 174.263 221.392 175.379 221.239 176.398C220.996 178.034 220.103 179.509 219.232 180.941C219.758 180.608 220.284 180.276 220.809 179.943C222.647 178.779 222.245 181.96 222.042 182.603C221.516 184.309 220.142 186.755 218.814 188.01C217.271 189.469 215.569 190.643 213.432 191.056L213.426 191.046Z" fill="#00A99D"/>
<path opacity="0.5" d="M213.426 191.046C213.268 191.078 212.064 191.051 211.906 191.04C210.029 190.901 207.926 189.871 206.044 188.879C204.805 188.224 203.138 187.334 202.527 186.063C202.228 185.43 202.239 184.609 202.759 184.121C203.319 183.596 204.325 183.542 204.67 182.872C203.415 181.911 201.589 181.665 200.605 180.447C199.865 179.53 199.622 178.431 199.588 177.277C199.565 176.596 199.763 175.7 200.289 175.234C200.905 174.681 201.888 174.848 202.719 175.014C202.94 175.057 203.166 175.1 203.387 175.057C203.607 175.014 203.816 174.858 203.85 174.649C203.89 174.392 203.664 174.172 203.449 174.011C202.985 173.662 202.476 173.373 202.041 173.008C201.6 172.638 201.221 172.166 201.125 171.619C201.007 170.964 201.301 170.31 201.606 169.715C202.12 168.701 202.669 167.687 203.307 166.743C203.46 166.513 204.749 164.126 204.647 164.115C207.598 164.512 210.442 165.767 212.935 167.269C214.325 168.106 216.253 169.554 216.327 171.286C216.349 171.78 216.191 172.252 215.965 172.692C215.863 172.89 215.699 173.067 215.569 173.255C215.49 173.373 215.162 173.818 215.569 173.705C215.659 173.678 215.733 173.614 215.806 173.555C216.428 173.008 217.044 172.466 217.666 171.919C217.853 171.758 218.051 171.587 218.299 171.538C218.825 171.436 219.888 172.043 220.736 173.378C221.296 174.263 221.392 175.379 221.239 176.398C220.996 178.034 220.103 179.509 219.232 180.941C219.758 180.608 220.284 180.276 220.809 179.943C222.647 178.779 222.245 181.96 222.042 182.603C221.516 184.309 220.142 186.755 218.814 188.01C217.271 189.469 215.569 190.643 213.432 191.056L213.426 191.046Z" fill="white"/>
<path d="M213.184 181.086C214.592 177.739 216.819 175.674 218.148 174.435L218.199 174.392C218.283 174.312 218.289 174.178 218.199 174.097C218.114 174.017 217.973 174.012 217.888 174.097L217.843 174.14C216.565 175.326 214.49 177.262 213.049 180.335C211.833 173.904 208.99 168.471 206.966 166.261C206.881 166.17 206.729 166.159 206.632 166.24C206.536 166.32 206.525 166.465 206.61 166.556C208.605 168.739 211.409 174.087 212.602 180.432C208.95 177.144 204.592 176.967 204.546 176.967C204.422 176.967 204.32 177.053 204.32 177.171C204.32 177.251 204.36 177.321 204.428 177.358C204.456 177.374 204.496 177.385 204.535 177.385C204.58 177.385 209.12 177.568 212.732 181.14C213.241 184.143 213.36 188.327 212.834 190.606C212.811 190.692 212.851 190.778 212.919 190.832C212.947 190.853 212.975 190.869 213.015 190.875C213.145 190.901 213.269 190.826 213.297 190.703C213.834 188.386 213.71 184.149 213.19 181.091L213.184 181.086Z" fill="white"/>
<path d="M209.692 202.968C209.833 203.076 211.032 203.607 211.201 203.666C213.14 204.384 215.888 204.239 218.386 204.03C220.031 203.896 222.253 203.698 223.678 202.593C224.384 202.046 224.899 201.15 224.707 200.378C224.497 199.546 223.536 199.021 223.627 198.13C225.487 197.664 227.448 198.243 229.201 197.379C230.518 196.725 231.473 195.642 232.248 194.403C232.706 193.673 233.096 192.601 232.875 191.855C232.621 190.97 231.547 190.691 230.62 190.493C230.377 190.439 230.122 190.38 229.936 190.23C229.749 190.08 229.642 189.817 229.743 189.57C229.868 189.27 230.235 189.136 230.552 189.061C231.23 188.9 231.92 188.819 232.593 188.621C233.265 188.422 233.944 188.084 234.396 187.532C234.933 186.872 235.069 186.03 235.154 185.236C235.3 183.896 235.408 182.539 235.391 181.214C235.391 180.892 235.657 177.701 235.764 177.733C232.598 176.794 228.975 176.842 225.549 177.32C223.632 177.588 220.795 178.269 219.607 180.12C219.268 180.645 219.121 181.235 219.053 181.814C219.025 182.077 219.07 182.345 219.082 182.608C219.082 182.775 219.121 183.413 218.788 183.096C218.714 183.027 218.68 182.925 218.652 182.823C218.392 181.943 218.132 181.064 217.872 180.184C217.793 179.921 217.708 179.642 217.493 179.476C217.041 179.122 215.599 179.288 213.898 180.35C212.773 181.053 211.959 182.222 211.45 183.402C210.636 185.295 210.562 187.312 210.5 189.275C210.195 188.669 209.895 188.063 209.59 187.462C208.527 185.344 206.877 188.991 206.656 189.785C206.08 191.882 205.853 195.18 206.357 197.16C206.939 199.466 207.86 201.531 209.703 202.963L209.692 202.968Z" fill="#00A99D"/>
<path opacity="0.3" d="M209.692 202.968C209.833 203.076 211.032 203.607 211.201 203.666C213.14 204.384 215.888 204.239 218.386 204.03C220.031 203.896 222.253 203.698 223.678 202.593C224.384 202.046 224.899 201.15 224.707 200.378C224.497 199.546 223.536 199.021 223.627 198.13C225.487 197.664 227.448 198.243 229.201 197.379C230.518 196.725 231.473 195.642 232.248 194.403C232.706 193.673 233.096 192.601 232.875 191.855C232.621 190.97 231.547 190.691 230.62 190.493C230.377 190.439 230.122 190.38 229.936 190.23C229.749 190.08 229.642 189.817 229.743 189.57C229.868 189.27 230.235 189.136 230.552 189.061C231.23 188.9 231.92 188.819 232.593 188.621C233.265 188.422 233.944 188.084 234.396 187.532C234.933 186.872 235.069 186.03 235.154 185.236C235.3 183.896 235.408 182.539 235.391 181.214C235.391 180.892 235.657 177.701 235.764 177.733C232.598 176.794 228.975 176.842 225.549 177.32C223.632 177.588 220.795 178.269 219.607 180.12C219.268 180.645 219.121 181.235 219.053 181.814C219.025 182.077 219.07 182.345 219.082 182.608C219.082 182.775 219.121 183.413 218.788 183.096C218.714 183.027 218.68 182.925 218.652 182.823C218.392 181.943 218.132 181.064 217.872 180.184C217.793 179.921 217.708 179.642 217.493 179.476C217.041 179.122 215.599 179.288 213.898 180.35C212.773 181.053 211.959 182.222 211.45 183.402C210.636 185.295 210.562 187.312 210.5 189.275C210.195 188.669 209.895 188.063 209.59 187.462C208.527 185.344 206.877 188.991 206.656 189.785C206.08 191.882 205.853 195.18 206.357 197.16C206.939 199.466 207.86 201.531 209.703 202.963L209.692 202.968Z" fill="white"/>
<path d="M215.522 193.652C216.297 189.361 215.432 186.079 214.912 184.116L214.895 184.046C214.861 183.917 214.946 183.773 215.082 183.719C215.217 183.671 215.358 183.73 215.392 183.858L215.409 183.928C215.907 185.805 216.704 188.879 216.139 192.885C221.492 186.454 228.638 180.463 232.058 178.994C232.199 178.935 232.357 178.994 232.403 179.122C232.448 179.256 232.369 179.417 232.222 179.476C228.847 180.925 221.786 186.846 216.517 193.196C222.244 191.314 226.659 193.143 226.704 193.159C226.829 193.212 226.868 193.357 226.8 193.486C226.75 193.572 226.659 193.631 226.569 193.642C226.529 193.642 226.484 193.642 226.444 193.625C226.399 193.604 221.803 191.7 215.929 193.91C213.493 196.94 211.503 200.035 210.553 202.76C210.519 202.861 210.423 202.942 210.327 202.963C210.288 202.974 210.248 202.974 210.209 202.963C210.067 202.931 209.988 202.792 210.039 202.647C211.006 199.879 213.029 196.731 215.511 193.647L215.522 193.652Z" fill="white"/>
<path d="M66.8385 192.248C63.4014 190.365 57.8218 190.365 54.3847 192.248C52.6661 193.192 51.8125 194.426 51.8125 195.659C51.8125 196.04 51.8125 196.555 51.8125 196.936C51.8125 198.169 52.6661 199.403 54.3847 200.347C57.8218 202.229 63.4014 202.229 66.8385 200.347C68.557 199.403 69.4106 198.169 69.4106 196.936C69.4106 196.555 69.4106 196.04 69.4106 195.659C69.4106 194.426 68.557 193.192 66.8385 192.248Z" fill="#00A99D"/>
<path d="M60.6122 200.486C65.4765 200.486 69.4198 198.325 69.4198 195.659C69.4198 192.993 65.4765 190.832 60.6122 190.832C55.748 190.832 51.8047 192.993 51.8047 195.659C51.8047 198.325 55.748 200.486 60.6122 200.486Z" fill="#00A99D"/>
<path opacity="0.3" d="M60.6122 200.486C65.4765 200.486 69.4198 198.325 69.4198 195.659C69.4198 192.993 65.4765 190.832 60.6122 190.832C55.748 190.832 51.8047 192.993 51.8047 195.659C51.8047 198.325 55.748 200.486 60.6122 200.486Z" fill="white"/>
<path d="M59.6328 148.83H61.5718V195.965C61.5718 196.099 61.4757 196.238 61.2892 196.34C60.9104 196.55 60.2999 196.55 59.9211 196.34C59.7346 196.238 59.6385 196.099 59.6385 195.965V148.83H59.6328Z" fill="#00A99D"/>
<path opacity="0.15" d="M59.6328 159.412L61.5718 160.474V151.619C61.0461 151.641 60.2716 151.673 59.6328 151.7V159.412Z" fill="black"/>
<path d="M44.5781 149.731V126.491L45.8331 125.805L73.4372 140.93V164.165L72.1822 164.851L44.5781 149.731Z" fill="#00A99D"/>
<path opacity="0.5" d="M73.4372 140.93L72.1822 141.616L44.5781 126.491L45.8331 125.805L73.4372 140.93Z" fill="white"/>
<path d="M72.1822 164.848L44.5781 149.729V126.488L72.1822 141.613V164.848Z" fill="#00A99D"/>
<path opacity="0.3" d="M72.1822 164.848L44.5781 149.729V126.488L72.1822 141.613V164.848Z" fill="white"/>
<path d="M71.0297 142.663L46.2578 129.051L46.2804 148.971L71.0297 162.53V142.663Z" fill="#00A99D"/>
<path d="M71.0265 142.663V161.424L47.2891 148.423V129.613L71.0265 142.663Z" fill="#FAFAFA"/>
<path opacity="0.25" d="M47.2923 148.424L46.2804 148.971L46.2578 129.051L47.2923 129.614V148.424Z" fill="black"/>
<path d="M55.1058 138.172C55.1793 138.215 55.2471 138.285 55.298 138.398C55.3545 138.505 55.3771 138.612 55.3771 138.725V144.625C55.3771 145.306 55.3037 145.864 55.1567 146.309C55.0097 146.749 54.8005 147.07 54.5235 147.28C54.2522 147.483 53.9243 147.575 53.5455 147.553C53.1668 147.526 52.7541 147.392 52.3019 147.145C51.844 146.893 51.4256 146.572 51.0469 146.185C50.6681 145.794 50.3459 145.349 50.0745 144.85C49.8032 144.346 49.594 143.793 49.447 143.187C49.3001 142.586 49.2266 141.943 49.2266 141.262V135.362C49.2266 135.254 49.2548 135.174 49.3057 135.126C49.3566 135.077 49.4244 135.072 49.4979 135.115L50.8264 135.839C50.8999 135.882 50.9621 135.952 51.0186 136.064C51.0751 136.172 51.0977 136.279 51.0977 136.392V142.232C51.0977 142.822 51.1995 143.343 51.3974 143.788C51.5952 144.233 51.9005 144.566 52.3019 144.786C52.7089 145.005 53.0085 145.005 53.2064 144.78C53.4042 144.555 53.506 144.147 53.506 143.552V137.711C53.506 137.604 53.5342 137.523 53.5851 137.475C53.6416 137.427 53.7038 137.421 53.7773 137.464L55.1058 138.188V138.172Z" fill="#37474F"/>
<path d="M59.8923 140.796C60.3219 141.032 60.712 141.316 61.0568 141.649C61.4017 141.981 61.6956 142.357 61.9387 142.78C62.1818 143.204 62.3684 143.671 62.4984 144.175C62.6284 144.679 62.6962 145.221 62.6962 145.789C62.6962 146.358 62.6284 146.841 62.4984 147.205C62.3684 147.565 62.1818 147.822 61.9387 147.978C61.6956 148.133 61.4017 148.187 61.0568 148.144C60.712 148.101 60.3219 147.967 59.8923 147.726L58.5977 147.018V150.032C58.5977 150.139 58.5695 150.22 58.5186 150.268C58.4621 150.316 58.3999 150.322 58.3264 150.279L56.9979 149.555C56.9244 149.512 56.8622 149.442 56.8057 149.329C56.7492 149.222 56.7266 149.115 56.7266 149.002V139.45C56.7266 139.342 56.7548 139.262 56.8057 139.214C56.8622 139.165 56.9244 139.16 56.9979 139.203L59.8923 140.791V140.796ZM58.5977 144.717L59.8414 145.398C60.1241 145.553 60.3615 145.591 60.5424 145.51C60.729 145.43 60.8194 145.183 60.8194 144.77C60.8194 144.357 60.729 144.009 60.5424 143.724C60.3559 143.44 60.1241 143.22 59.8414 143.065L58.5977 142.384V144.722V144.717Z" fill="#37474F"/>
<path d="M66.5093 144.258L63.875 147.192L65.3618 148.007V155.001L67.6626 156.261V149.262L69.1493 150.077L66.5093 144.258Z" fill="#00A99D"/>
<path d="M52.3788 62.6795L47.6641 60.0996V106.575L87.7333 128.522L87.7276 146.598L127.797 168.545V186.62L167.866 208.563V221.473L172.575 224.058V205.983L132.512 184.035V165.96L92.4423 144.018V125.943L52.3788 103.995V62.6795Z" fill="#00A99D"/>
<path opacity="0.25" d="M52.3788 62.6795L47.6641 60.0996V106.575L87.7333 128.522L87.7276 146.598L127.797 168.545V186.62L167.866 208.563V221.473L172.575 224.058V205.983L132.512 184.035V165.96L92.4423 144.018V125.943L52.3788 103.995V62.6795Z" fill="black"/>
<path d="M96.043 35.7928L72.1756 17.4977C72.0512 17.4012 71.9268 17.3207 71.7968 17.251C71.2654 16.9667 67.2178 14.7409 67.0878 14.6711C65.9119 14.0275 64.5439 14.4137 63.8825 15.6366L38.1382 63.576C37.7425 64.3108 37.7199 64.7882 38.0025 64.9491C38.24 65.0832 42.4346 67.368 42.7172 67.5289C42.9546 67.663 43.4126 67.5772 44.0457 67.2286L95.7773 38.8929C97.1623 38.1313 97.281 36.7422 96.0317 35.7874L96.043 35.7928Z" fill="#00A99D"/>
<path d="M95.7892 38.8962L44.0576 67.2318C42.6726 67.9935 42.1356 67.5107 42.8648 66.1538L68.6034 18.2143C69.3327 16.8574 70.9325 16.5356 72.1762 17.4903L96.0436 35.7853C97.2873 36.7401 97.1742 38.1292 95.7892 38.8908V38.8962Z" fill="#00A99D"/>
<path opacity="0.3" d="M67.0899 14.6702C67.2143 14.7346 70.7758 16.6976 71.6576 17.175C70.5214 16.6386 69.2325 17.0409 68.605 18.2155L42.8551 66.155C42.465 66.8737 42.4367 67.3564 42.7081 67.528C42.3011 67.2974 38.2421 65.0876 38.0103 64.9535C37.7277 64.7926 37.7503 64.3153 38.146 63.5751L63.8903 15.6303C64.546 14.4074 65.9141 14.0266 67.0956 14.6649L67.0899 14.6702Z" fill="white"/>
<path d="M52.3594 60.0984V103.994L90.0656 83.3387V39.4434L52.3594 60.0984Z" fill="#00A99D"/>
<path d="M52.3672 103.995L92.4308 125.943L130.143 105.287L90.0734 83.3398L52.3672 103.995Z" fill="#00A99D"/>
<path opacity="0.3" d="M52.3672 103.995L92.4308 125.943L130.143 105.287L90.0734 83.3398L52.3672 103.995Z" fill="white"/>
<path d="M130.142 105.287V123.357L92.4297 144.017V125.942L130.142 105.287Z" fill="#00A99D"/>
<path d="M92.4219 144.02L132.491 165.962L170.197 145.307L130.134 123.359L92.4219 144.02Z" fill="#00A99D"/>
<path opacity="0.3" d="M92.4219 144.02L132.491 165.962L170.197 145.307L130.134 123.359L92.4219 144.02Z" fill="white"/>
<path d="M170.206 145.307V163.382L132.5 184.037V165.962L170.206 145.307Z" fill="#00A99D"/>
<path d="M132.5 184.038L172.564 205.985L210.275 185.33L170.206 163.383L132.5 184.038Z" fill="#00A99D"/>
<path opacity="0.3" d="M132.5 184.038L172.564 205.985L210.275 185.33L170.206 163.383L132.5 184.038Z" fill="white"/>
<path d="M210.282 185.328V203.403L172.57 224.058V205.983L210.282 185.328Z" fill="#00A99D"/>
<path opacity="0.25" d="M151.921 144.019C147.348 143.837 140.903 144.035 137.929 145.312C135.73 146.256 134.707 147.243 135.849 149.195C136.477 150.268 137.647 150.788 138.461 151.662C139.122 152.375 139.004 153.116 138.263 153.657C137.195 154.44 136.092 155.181 135.041 155.996C131.451 158.796 135.776 158.694 136.81 158.667C139.569 158.592 143.65 158.173 147.432 157.063C149.812 156.366 150.558 156.066 150.558 156.066V174.141C150.558 174.141 153.442 175.932 156.992 177.761C165.268 182.02 168.518 183.972 172.357 184.519C176.111 185.05 179.271 183.833 179.327 180.169C179.406 174.709 177.275 172.424 175.681 171.067C173.844 169.507 168.383 164.39 168.383 164.39V146.315C168.383 146.315 162.792 144.454 151.915 144.024L151.921 144.019Z" fill="black"/>
<path d="M121.204 20.4342C122.437 19.9085 123.087 22.6815 123.855 24.7304C124.562 26.613 125.676 29.0212 126.122 29.1338C126.755 29.2947 126.388 26.9026 127.196 25.9372C128.016 24.961 128.542 25.3525 128.468 26.4521C128.412 27.3424 128.7 29.9813 128.22 31.9014C128.033 32.647 127.756 33.4998 128.48 34.6851C131.685 39.9575 137.632 47.1071 137.632 47.1071C137.632 47.1071 144.732 49.8211 149.068 50.9796C152.296 51.8431 155.654 52.8675 158.266 53.8544C158.526 54.7931 157.181 63.7663 152.833 62.597C152.053 60.0172 142.143 57.7269 136.077 55.4313C132.392 54.0368 131.481 53.5863 130.571 52.122C127.937 47.8741 127.7 47.1071 125.789 43.4384C123.618 39.2709 123.007 38.4396 122.651 38.0695C121.509 36.9003 120.424 36.1547 119.717 35.2215C118.869 34.0951 117.931 32.7221 117.547 31.3329C117.439 30.936 117.394 30.4855 117.648 30.1529C117.778 29.9813 117.965 29.8633 118.095 29.697C118.298 29.4396 118.4 29.0266 118.643 28.8013C118.977 28.4848 119.661 28.5331 119.972 28.2006C120.107 28.0558 120.283 27.4711 120.464 27.38C120.848 27.1815 121.063 27.2351 121.413 27.1386C121.6 27.085 122.148 27.1064 122.148 26.849C122.148 26.5379 121.899 25.6636 121.419 23.8668C121.012 22.3168 120.503 20.7345 121.215 20.4342H121.204Z" fill="#B16668"/>
<path d="M158.242 53.6436C157.643 53.4291 156.693 52.9303 155.501 52.5655C154.308 52.2062 144.737 49.401 142.035 48.4785C139.333 47.556 137.727 46.9553 137.727 46.9553L133.776 42.2246C133.776 42.2246 133.267 43.3885 131.243 44.3861C129.219 45.3837 126.828 45.4427 126.828 45.4427C126.828 45.4427 127.784 47.4487 129.152 50.2968C130.333 52.7533 130.446 53.3701 132.498 54.2282C134.856 55.2098 141.08 57.382 143.934 58.4118C147.422 59.6669 151.527 61.174 152.148 62.3862C152.148 62.3862 157.948 57.3069 158.242 53.6436Z" fill="#00A99D"/>
<path opacity="0.6" d="M158.242 53.6436C157.643 53.4291 156.693 52.9303 155.501 52.5655C154.308 52.2062 144.737 49.401 142.035 48.4785C139.333 47.556 137.727 46.9553 137.727 46.9553L133.776 42.2246C133.776 42.2246 133.267 43.3885 131.243 44.3861C129.219 45.3837 126.828 45.4427 126.828 45.4427C126.828 45.4427 127.784 47.4487 129.152 50.2968C130.333 52.7533 130.446 53.3701 132.498 54.2282C134.856 55.2098 141.08 57.382 143.934 58.4118C147.422 59.6669 151.527 61.174 152.148 62.3862C152.148 62.3862 157.948 57.3069 158.242 53.6436Z" fill="white"/>
<path d="M133.875 42.3505C133.875 42.3505 133.174 44.1151 130.766 45.0269C128.358 45.9387 127.063 45.9226 127.063 45.9226L125.43 42.7367C125.43 42.7367 128.002 42.27 129.5 41.3314C130.998 40.3928 131.484 39.1484 131.484 39.1484L133.875 42.3505Z" fill="#00A99D"/>
<path opacity="0.85" d="M133.875 42.3505C133.875 42.3505 133.174 44.1151 130.766 45.0269C128.358 45.9387 127.063 45.9226 127.063 45.9226L125.43 42.7367C125.43 42.7367 128.002 42.27 129.5 41.3314C130.998 40.3928 131.484 39.1484 131.484 39.1484L133.875 42.3505Z" fill="white"/>
<path d="M125.012 28.0879C125.306 29.3591 125.985 30.6624 125.482 31.2417C125.097 31.6868 124.311 31.7083 123.842 31.1934C123.842 31.1934 123.899 31.7941 123.379 32.1052C122.859 32.4163 122.344 32.0945 122.344 32.0945C122.344 32.3841 121.779 32.9687 121.016 32.7435C121.31 33.0438 122.084 33.4193 122.463 32.6898C122.463 32.6898 123.644 32.9687 123.984 32.0623C123.984 32.0623 123.543 33.0653 124.588 34.3901C124.588 34.3901 124.074 33.076 124.571 32.0033C124.571 32.0033 125.549 32.0676 125.99 31.3007C126.431 30.5283 125.012 28.0933 125.012 28.0933V28.0879Z" fill="#9A4A4D"/>
<path d="M178.771 34.3997C178.731 34.5821 178.664 34.7645 178.579 34.9522C178.415 35.3062 178.053 35.5851 177.951 35.9605C177.719 36.808 178.839 37.7841 179.167 38.4975C179.766 39.7901 178.528 40.8789 177.635 41.6835C177.216 42.0589 176.956 42.6596 177.131 43.2174C177.256 43.6251 177.748 43.786 178.149 43.6251C178.019 43.8825 177.702 43.9844 177.442 43.9898C176.578 44.0166 176.131 43.5553 175.95 42.9868C175.905 43.2925 176.063 43.6143 176.04 43.9308C176.007 44.4403 175.741 44.7943 175.226 44.9767C174.808 45.1268 174.35 45.1698 173.932 45.336C173.417 45.5398 173.27 45.8509 172.954 46.2532C172.332 47.0524 171.507 47.2401 170.489 47.224C169.398 47.2025 168.482 46.5804 167.821 45.7973C167.566 45.4969 167.278 45.218 167.035 44.8962C166.255 43.861 165.209 43.0404 164.389 42.0214C163.541 40.9594 162.812 39.8169 162.122 38.6584C161.252 37.1995 160.596 35.6334 159.918 34.0887C159.788 33.7829 159.714 33.4719 159.466 33.2251C159.251 33.016 158.962 32.855 158.68 32.7478C157.594 32.3294 156.334 32.1631 155.74 31.0743C155.271 30.2055 155.424 29.0898 156.396 28.6178C156.741 28.4516 157.12 28.0171 156.758 27.6792C156.498 27.4325 156.096 27.411 155.881 27.1053C155.525 26.6011 156.028 25.5713 156.735 25.6733C156.164 25.9092 156.509 26.451 157.018 26.5153C157.51 26.5797 157.815 26.3705 158.097 26.0272C158.267 25.8234 158.493 25.6733 158.77 25.6196C159.081 25.5606 159.341 25.7376 159.641 25.7644C160.455 25.8288 160.834 24.4986 161.382 24.0964C162.377 23.3562 163.909 23.1577 165.028 23.7209C165.582 23.9998 165.95 24.4504 166.328 24.9116C166.555 25.1798 166.922 25.6518 167.278 25.7483C167.73 25.8717 168.284 25.7752 168.703 25.5982C169.624 25.212 170.195 25.0618 171.473 25.2978C172.219 25.4373 173.039 25.7698 173.485 26.3973C173.875 26.9498 173.841 27.4969 173.926 28.119C174.022 28.8914 174.356 29.3634 175.176 29.5028C175.611 29.5779 176.012 29.4867 176.334 29.1542C176.527 28.9557 176.549 28.6286 176.402 28.4408C177.018 28.7197 177.25 29.2186 177.12 29.8515C176.99 30.4736 176.25 30.8544 175.628 30.9349C176.12 30.8705 177.273 31.2728 178.064 31.9003C178.483 32.2275 178.81 33.0374 178.833 33.5469C178.844 33.8473 178.827 34.1262 178.765 34.3997H178.771Z" fill="#263238"/>
<path d="M175.137 159.966C175.29 161.082 175.623 162.385 175.838 164.67C176.047 166.912 175.527 167.019 176.777 172.774C177.523 176.229 177.28 177.575 174.922 180.337C172.401 183.292 169.982 182.547 168.568 179.05C167.364 176.062 167.517 174.711 167.681 171.691C167.845 168.671 167.862 167.786 167.85 165.383C167.839 163.265 168.105 161.833 168.059 160.208L175.143 159.961L175.137 159.966Z" fill="#37474F"/>
<path d="M175.14 160.309C175.191 162.294 175.123 165.335 175.4 168.285C175.609 170.5 176.197 172.677 176.135 174.244C176.112 174.812 175.507 175.171 174.948 174.962C173.455 174.399 171.217 174.372 169.566 175.021C169.04 175.23 168.452 174.871 168.402 174.329C167.983 170.055 168.057 160.406 168.057 160.406C167.265 153.251 165.304 141.049 165.049 138.431C164.676 134.559 163.822 129.667 163.529 126.631C163.235 123.596 161.312 102.431 161.312 102.431L176.022 82.8809C176.022 82.8809 176.186 85.8791 178.396 90.4166C181.375 96.5365 180.544 101.423 179.629 106.979C178.865 111.608 176.762 132.408 176.762 132.408C176.762 132.408 176.661 136.715 176.876 141.66C177.169 148.359 175.021 155.868 175.134 160.32L175.14 160.309Z" fill="#B16668"/>
<path d="M176.02 82.875C167.054 84.7522 158.591 85.2135 153.3 83.3416C153.131 85.9215 148.795 90.7058 143.362 98.3435C137.172 107.054 133.616 112.358 133.616 112.358C131.383 116.301 130.535 117.293 132.706 122.072C135.058 127.237 142.13 137.202 142.763 140.796C142.921 141.708 142.458 144.025 141.909 145.73C141.361 147.436 140.405 149.726 139.501 150.853C139.501 150.853 136.884 153.808 137.522 154.071C138.156 154.328 144.012 154.607 146.573 153.728C149.134 152.848 149.292 150.735 149.959 146.857C150.626 142.979 151.079 137.159 151.079 137.159C151.079 137.159 150.649 137.036 150.016 136.275C149.433 135.577 148.778 134.639 148.365 132.402C147.947 130.165 147.172 125.322 146.285 122.565C145.403 119.803 144.278 118.205 144.278 118.205L161.667 103.514L176.02 82.8804V82.875Z" fill="#B16668"/>
<path d="M153.981 142.93C153.862 143.831 153.11 144.887 152.827 146.298C152.545 147.709 152.347 149.178 152.347 151.179V153.464H151.691V149.302C151.691 148.03 151.561 147.103 150.922 146.968C150.922 146.968 150.815 142.93 153.981 142.93Z" fill="#263238"/>
<path d="M150.929 136.837C151.415 137.873 152.913 139.283 153.58 140.259C153.965 140.823 154.129 141.45 154.179 141.965C154.23 142.474 154.044 142.973 153.682 143.354C153.162 143.89 152.336 144.792 151.782 145.585C151.048 146.642 149.691 149.088 149.369 150.777C149.052 152.472 148.899 153.958 147.43 154.864C146.288 155.572 141.499 156.725 139.057 157.004C135.728 157.38 134.772 155.899 135.954 154.618C137.135 153.336 139.136 151.137 139.504 150.852C139.504 150.852 140.996 150.531 142.636 151.104C144.552 151.77 145.208 152.773 147.124 151.737C148.854 150.804 149.386 147.64 148.973 143.15C148.504 138.055 150.929 136.832 150.929 136.832V136.837Z" fill="#37474F"/>
<path d="M176.275 82.2207C177.536 85.0956 178.723 86.6671 180.323 90.7058C181.759 94.3423 181.301 99.7434 179.633 109.156C177.965 118.569 177.247 132.397 177.247 132.397C177.247 132.397 177.485 137.996 176.603 147.887C176.603 147.887 174.766 149.179 171.306 149.179C167.846 149.179 166.422 148.192 166.422 148.192C166.422 148.192 164.794 137.841 164.285 133.909C163.618 128.744 163.33 125.837 162.708 119.487C161.911 111.388 161.125 105.032 161.125 105.032L144.844 118.35C144.844 118.35 146.059 120.457 146.642 123.359C147.224 126.261 147.512 127.709 147.512 127.709C147.512 127.709 145.002 130.219 142.396 130.949C139.79 131.678 137.744 130.949 137.744 130.949C137.744 130.949 132.758 123.198 131.446 120.232C130.14 117.266 131.175 115.936 132.492 113.479C133.809 111.018 146.885 92.9424 149.383 89.5795C151.882 86.2112 152.549 84.8757 153.177 83.1003C153.177 83.1003 154.398 83.862 160.769 83.7976C167.14 83.7332 176.264 82.2261 176.264 82.2261L176.275 82.2207Z" fill="#455A64"/>
<path d="M144.837 118.354C143.921 119.201 142.231 119.823 140.484 119.925C140.484 119.925 143.921 120.461 145.295 119.271L144.837 118.359V118.354Z" fill="#37474F"/>
<path d="M161.124 105.033L160.926 102.179C160.926 102.179 156.33 100.817 154.656 96.0488C154.656 96.0488 154.589 99.5512 158.738 102.7C158.738 102.7 159.439 104.035 157.528 106.036C155.612 108.031 147.008 116.575 147.008 116.575L161.124 105.027V105.033Z" fill="#37474F"/>
<path d="M177.941 70.1857C173.107 67.6059 173.09 59.1314 173.831 54.9801L168.511 54.4437L158.228 53.6445C157.256 54.492 155.486 56.2244 151.337 61.3895C149.189 64.0659 147.77 68.346 152.541 71.9128L153.18 76.0481C153.576 79.47 151.705 82.0445 153.169 83.0904C154.616 84.6244 163.401 88.454 176.007 82.42C176.951 81.8193 176.375 81.122 176.584 77.2495C176.584 77.2495 176.906 74.4926 177.941 70.1804V70.1857Z" fill="#00A99D"/>
<path opacity="0.5" d="M177.941 70.1857C173.107 67.6059 173.09 59.1314 173.831 54.9801L168.511 54.4437L158.228 53.6445C157.256 54.492 155.486 56.2244 151.337 61.3895C149.189 64.0659 147.77 68.346 152.541 71.9128L153.18 76.0481C153.576 79.47 151.705 82.0445 153.169 83.0904C154.616 84.6244 163.401 88.454 176.007 82.42C176.951 81.8193 176.375 81.122 176.584 77.2495C176.584 77.2495 176.906 74.4926 177.941 70.1804V70.1857Z" fill="white"/>
<path d="M169.044 47.9804C169.592 45.7975 171.378 42.7188 171.751 39.447C172.125 36.1699 172.068 33.3701 168.631 31.0102C165.194 28.6502 161.621 28.8433 160.089 29.1222C158.557 29.3957 156.805 30.7581 156.805 30.7581L169.049 47.9858L169.044 47.9804Z" fill="#00A99D"/>
<path d="M153.459 36.4589C152.843 35.0966 153.063 31.1115 156.811 30.7521C156.811 30.7521 161.854 28.9714 166.235 32.1037C170.616 35.2361 170.203 39.8219 170.203 39.8219L169.152 45.5287L169.073 47.4596L153.459 36.4589Z" fill="#263238"/>
<path d="M155.519 32.5703C154.711 32.9887 153.128 34.2974 153.026 41.5382C152.936 47.6741 154.892 49.2563 155.887 49.7283C156.882 50.2003 158.838 50.0019 160.743 49.7551L160.596 54.1747C160.596 54.1747 158.273 56.3094 159.454 58.3261C159.691 58.7337 158.583 63.4697 159.075 63.6199C159.567 63.7701 161.263 59.0555 161.947 58.9483C163.061 58.7713 164.299 58.7391 165.418 58.0257C168.397 56.127 168.776 54.6574 168.776 54.6574L169.16 45.534C169.16 45.534 170.235 46.6443 172.185 45.0727C173.796 43.7801 174.407 41.5274 173.236 40.2616C172.066 39.0012 169.805 39.2533 168.878 40.9643C165.254 40.9374 166.617 32.388 162.835 33.6055C158.64 34.9571 155.853 34.9303 155.514 32.5703H155.519Z" fill="#B16668"/>
<path d="M168.896 40.2344L168.834 42.8303C168.105 42.8411 167.522 42.2725 167.539 41.5538C167.556 40.8351 168.167 40.2451 168.896 40.2344Z" fill="#263238"/>
<path d="M156.053 39.7837C156.064 40.2074 155.719 40.556 155.289 40.5667C154.86 40.5721 154.504 40.2342 154.492 39.8105C154.487 39.3868 154.826 39.0381 155.255 39.0274C155.685 39.022 156.041 39.3599 156.053 39.7837Z" fill="#263238"/>
<path d="M162.506 39.9009C162.517 40.3246 162.172 40.6732 161.743 40.6839C161.313 40.6893 160.957 40.3514 160.946 39.9277C160.934 39.504 161.279 39.1553 161.709 39.1446C162.138 39.1392 162.495 39.4771 162.506 39.9009Z" fill="#263238"/>
<path d="M160.853 45.1992L158.688 45.7999C158.84 46.4114 159.451 46.7707 160.05 46.6045C160.649 46.4382 161.005 45.8107 160.853 45.1992Z" fill="#9A4A4D"/>
<path d="M153.976 37.9009L155.598 36.8764C155.327 36.4205 154.745 36.2811 154.298 36.5653C153.852 36.8496 153.71 37.4503 153.982 37.9009H153.976Z" fill="#263238"/>
<path d="M163.099 38.0141L161.477 36.9897C161.748 36.5338 162.33 36.3943 162.777 36.6786C163.223 36.9629 163.365 37.5636 163.093 38.0141H163.099Z" fill="#263238"/>
<path d="M158.566 39.1445L158.424 44.1702L155.977 43.3281L158.566 39.1445Z" fill="#9A4A4D"/>
<path d="M160.747 49.7534C162.754 49.5657 166.779 48.316 167.604 46.959C167.604 46.959 167.355 47.962 166.089 48.9542C164.823 49.9518 160.719 50.987 160.719 50.987L160.747 49.748V49.7534Z" fill="#9A4A4D"/>
<path d="M183.777 92.855C183.601 92.7584 183.437 92.7638 183.285 92.8442L166.789 101.876L167.739 114.84L184.235 105.803C184.659 105.62 184.958 104.805 184.958 103.663V96.2554C184.958 94.7376 184.432 93.2143 183.782 92.855H183.777Z" fill="#00A99D"/>
<path opacity="0.3" d="M174.332 97.7437C174.744 97.5184 175.372 97.9743 174.908 99.932C174.445 101.89 173.031 106.69 173.269 107.865C173.512 109.045 173.715 109.533 174.716 108.095C175.717 106.658 177.345 96.0488 177.345 96.0488L174.332 97.7437Z" fill="black"/>
<path d="M167.277 101.893C167.928 102.247 168.453 103.77 168.453 105.293V112.7C168.453 114.218 167.928 115.162 167.277 114.808C166.627 114.454 166.102 112.931 166.102 111.408V104.001C166.102 102.483 166.627 101.539 167.277 101.893Z" fill="#00A99D"/>
<path opacity="0.3" d="M167.277 101.893C167.928 102.247 168.453 103.77 168.453 105.293V112.7C168.453 114.218 167.928 115.162 167.277 114.808C166.627 114.454 166.102 112.931 166.102 111.408V104.001C166.102 102.483 166.627 101.539 167.277 101.893Z" fill="black"/>
<path opacity="0.3" d="M168.467 106.08C168.467 107.115 174.578 105.646 176.714 104.476C178.851 103.302 184.962 98.6676 184.962 97.375V98.024C184.962 98.024 182.837 101.532 177.076 104.675C171.316 107.818 168.461 106.429 168.461 106.429V106.075L168.467 106.08Z" fill="black"/>
<path d="M176.785 103.25C177.198 103.025 177.531 103.39 177.531 104.065C177.531 104.741 177.198 105.471 176.785 105.696C176.373 105.921 176.039 105.557 176.039 104.881C176.039 104.205 176.373 103.475 176.785 103.25Z" fill="#FAFAFA"/>
<path d="M173.832 55.126C178.077 55.716 180.638 56.7726 181.978 60.1033C183.318 63.4341 187.258 74.7619 188.066 77.1272C188.875 79.4872 188.649 80.5438 187.575 82.877C186.902 84.3412 186.24 85.8055 185.579 87.2751C184.703 89.2221 182.996 92.2739 182.696 93.0463C182.362 93.9205 182.334 94.8055 182.334 95.7227C182.334 96.6023 182.391 97.4712 182.232 98.3455C181.972 99.7775 181.803 100.378 181.351 101.349C181.045 102.014 180.842 102.738 180.491 103.376C180.248 103.822 179.773 104.192 179.44 104.578C179.055 105.023 178.903 105.597 178.434 105.983C177.614 106.664 176.772 106.739 176.003 107.045C175.658 107.485 175.076 108.418 174.691 108.826C173.719 109.872 173.561 108.102 173.617 107.506C173.674 106.884 173.866 106.225 174.064 105.629C174.589 104.084 175.042 102.55 175.381 100.958C175.494 100.421 176.212 96.8866 174.736 97.5141L172.062 98.9783C172.181 97.9325 173.029 96.8008 175.172 94.2262C177.258 91.7215 180.045 79.4604 180.045 79.4604L176.003 69.8167C176.003 69.8167 173.018 66.0515 172.763 61.2619C172.509 56.4722 173.821 55.1152 173.821 55.1152L173.832 55.126Z" fill="#B16668"/>
<path d="M173.83 54.9863C175.933 55.217 178.839 55.528 180.467 57.3356C182.095 59.1431 182.298 59.8725 184.526 66.0996C186.753 72.3267 188.359 77.0305 188.551 77.9101C188.743 78.7844 189.144 80.1307 187.443 83.1664C187.443 83.1664 186.555 82.0937 183.881 81.3589C181.207 80.6241 179.692 80.9781 179.692 80.9781L179.964 79.4709L175.407 69.6825C175.407 69.6825 172.547 65.9065 172.547 60.484C172.547 56.2307 173.83 54.9863 173.83 54.9863Z" fill="#00A99D"/>
<path opacity="0.6" d="M173.83 54.9863C175.933 55.217 178.839 55.528 180.467 57.3356C182.095 59.1431 182.298 59.8725 184.526 66.0996C186.753 72.3267 188.359 77.0305 188.551 77.9101C188.743 78.7844 189.144 80.1307 187.443 83.1664C187.443 83.1664 186.555 82.0937 183.881 81.3589C181.207 80.6241 179.692 80.9781 179.692 80.9781L179.964 79.4709L175.407 69.6825C175.407 69.6825 172.547 65.9065 172.547 60.484C172.547 56.2307 173.83 54.9863 173.83 54.9863Z" fill="white"/>
<path d="M179.689 80.9793L178.711 84.7767C181.277 84.7445 183.612 85.4579 185.659 87.0937L187.439 83.1623C187.439 83.1623 187.089 82.2665 184.059 81.3708C181.029 80.4751 179.689 80.9793 179.689 80.9793Z" fill="#00A99D"/>
<path opacity="0.85" d="M179.689 80.9793L178.711 84.7767C181.277 84.7445 183.612 85.4579 185.659 87.0937L187.439 83.1623C187.439 83.1623 187.089 82.2665 184.059 81.3708C181.029 80.4751 179.689 80.9793 179.689 80.9793Z" fill="white"/>
</svg>
