<svg width="19" height="20" viewBox="0 0 19 20" fill="none" xmlns="http://www.w3.org/2000/svg">
<path d="M8.45833 13.3333H14.7083V15.5556H8.45833V13.3333ZM6.375 4.44444H4.29167V6.66667H6.375V4.44444ZM8.45833 11.1111H14.7083V8.88889H8.45833V11.1111ZM8.45833 6.66667H14.7083V4.44444H8.45833V6.66667ZM6.375 8.88889H4.29167V11.1111H6.375V8.88889ZM18.875 2.22222V17.7778C18.875 19 17.9375 20 16.7917 20H2.20833C1.0625 20 0.125 19 0.125 17.7778V2.22222C0.125 1 1.0625 0 2.20833 0H16.7917C17.9375 0 18.875 1 18.875 2.22222ZM16.7917 2.22222H2.20833V17.7778H16.7917V2.22222ZM6.375 13.3333H4.29167V15.5556H6.375V13.3333Z" fill="#0B2C4C"/>
</svg>
