<svg width="60" height="61" viewBox="0 0 60 61" fill="none" xmlns="http://www.w3.org/2000/svg">
<path d="M18.9271 18.8152C18.9271 18.2646 18.3241 17.7996 17.6102 17.7996H16.2567C14.6413 17.7996 13.327 16.6177 13.327 15.1648C13.327 13.7511 14.5715 12.5944 16.127 12.5331V11.1496C16.127 10.7025 16.4881 10.34 16.9334 10.34C17.3788 10.34 17.7399 10.7025 17.7399 11.1496V12.5303H19.7335C20.1789 12.5303 20.54 12.8927 20.54 13.3399C20.54 13.787 20.1789 14.1495 19.7335 14.1495H16.2568C15.543 14.1495 14.94 14.6145 14.94 15.1649C14.94 15.7155 15.543 16.1805 16.2568 16.1805H17.6103C19.2258 16.1805 20.5401 17.3624 20.5401 18.8153C20.5401 20.229 19.2956 21.3858 17.74 21.447V22.8305C17.74 23.2776 17.3789 23.6401 16.9335 23.6401C16.4882 23.6401 16.1271 23.2776 16.1271 22.8305V21.45H14.1335C13.6882 21.45 13.3271 21.0875 13.3271 20.6403C13.3271 20.1932 13.6882 19.8307 14.1335 19.8307H17.6103C18.3241 19.8307 18.9271 19.3656 18.9271 18.8152ZM9.47613 23.1135C9.63774 23.1135 9.80097 23.0648 9.9428 22.9637C10.3057 22.7046 10.3909 22.1991 10.1327 21.8348C9.12688 20.4146 8.59527 18.7394 8.59527 16.9901C8.59527 12.3744 12.3358 8.61921 16.9335 8.61921C18.676 8.61921 20.3447 9.1529 21.7594 10.1626C22.1224 10.4218 22.6259 10.3364 22.8839 9.97201C23.1419 9.60758 23.0569 9.10206 22.694 8.8431C21.0047 7.63732 19.0128 7 16.9335 7C11.4465 7 6.98237 11.4815 6.98237 16.9901C6.98237 19.0775 7.6172 21.0772 8.81828 22.7731C8.97548 22.9951 9.22387 23.1135 9.47613 23.1135ZM25.2719 16.99C25.2719 21.6057 21.5313 25.361 16.9335 25.361C15.1912 25.361 13.5224 24.8273 12.1077 23.8175C11.7447 23.5583 11.2413 23.6438 10.9832 24.0081C10.7252 24.3725 10.8102 24.878 11.1731 25.137C12.8624 26.3428 14.8543 26.9801 16.9337 26.9801C22.4208 26.9801 26.8849 22.4984 26.8849 16.9899C26.8849 14.9025 26.2501 12.9028 25.049 11.2068C24.791 10.8424 24.2875 10.757 23.9245 11.0162C23.5616 11.2753 23.4765 11.7808 23.7346 12.1451C24.7402 13.5656 25.2719 15.2408 25.2719 16.99ZM55 53.1904C55 53.6375 54.6389 54 54.1936 54H5.80645C5.36108 54 5 53.6375 5 53.1904C5 52.7433 5.36108 52.3808 5.80645 52.3808H10.7919V39.1384C10.7919 38.6913 11.153 38.3288 11.5984 38.3288H19.4417C19.8871 38.3288 20.2482 38.6913 20.2482 39.1384V52.3808H25.2719V33.6872C25.2719 33.2401 25.633 32.8776 26.0784 32.8776H33.9216C34.367 32.8776 34.7281 33.2401 34.7281 33.6872V52.3808H39.7518V28.236C39.7518 27.7888 40.1129 27.4264 40.5583 27.4264H48.4016C48.847 27.4264 49.2081 27.7888 49.2081 28.236V52.3808H54.1936C54.6389 52.3808 55 52.7433 55 53.1904ZM18.6353 52.3808V39.948H12.4048V52.3808H18.6353ZM33.1152 52.3808V34.4968H26.8848V52.3808H33.1152ZM47.5952 52.3808V29.0456H41.3647V52.3808H47.5952ZM39.7539 16.1646H43.5989C36.6558 24.3766 28.9396 28.2374 23.5713 30.0387C17.44 32.0961 12.9541 31.9905 12.9098 31.9897C12.4644 31.976 12.0933 32.3273 12.0795 32.7739C12.0657 33.2209 12.4154 33.5944 12.8606 33.6082C12.8826 33.6088 12.9624 33.611 13.096 33.611C14.126 33.611 18.3561 33.4847 24.0099 31.5987C27.7503 30.351 31.3401 28.5857 34.6794 26.3521C38.2559 23.9596 41.5502 21.02 44.4981 17.5981V20.9274C44.4981 21.3745 44.8591 21.737 45.3045 21.737C45.7499 21.737 46.111 21.3745 46.111 20.9274V15.355C46.111 14.9079 45.7499 14.5454 45.3045 14.5454H39.7539C39.3085 14.5454 38.9474 14.9079 38.9474 15.355C38.9474 15.8021 39.3085 16.1646 39.7539 16.1646Z" fill="url(#paint0_linear_4_2564)"/>
<defs>
<linearGradient id="paint0_linear_4_2564" x1="15.9551" y1="60.0076" x2="15.9551" y2="2.11854" gradientUnits="userSpaceOnUse">
<stop stop-color="#0B2C4C"/>
<stop offset="0.5" stop-color="#00A99D"/>
<stop offset="1" stop-color="#81319B"/>
</linearGradient>
</defs>
</svg>
