<svg width="34" height="35" viewBox="0 0 34 35" fill="none" xmlns="http://www.w3.org/2000/svg">
<g clip-path="url(#clip0_1747_14727)">
<path fill-rule="evenodd" clip-rule="evenodd" d="M15.8487 7.48355L19.9034 1.93312L23.958 7.48355H21.8503C21.7805 7.48352 21.7115 7.49725 21.647 7.52394C21.5826 7.55064 21.524 7.58977 21.4747 7.63911C21.4254 7.68846 21.3863 7.74703 21.3597 7.8115C21.333 7.87596 21.3194 7.94505 21.3194 8.0148V14.6231H18.4868V8.01493C18.4869 7.94518 18.4732 7.87609 18.4466 7.81163C18.4199 7.74717 18.3808 7.68859 18.3315 7.63925C18.2822 7.58991 18.2237 7.55077 18.1592 7.52408C18.0948 7.49738 18.0257 7.48366 17.956 7.48368L15.8487 7.48355ZM17.9561 15.6859H21.8504C21.9202 15.6859 21.9893 15.6722 22.0538 15.6456C22.1183 15.6189 22.1769 15.5798 22.2262 15.5304C22.2756 15.4811 22.3147 15.4225 22.3414 15.358C22.3681 15.2935 22.3818 15.2244 22.3817 15.1546V8.54625H25.0037C25.1018 8.54651 25.1982 8.51952 25.2819 8.46828C25.3657 8.41704 25.4335 8.34356 25.478 8.25603C25.5224 8.1685 25.5417 8.07034 25.5337 7.97249C25.5257 7.87464 25.4906 7.78094 25.4325 7.70183L20.3323 0.718745C20.283 0.651136 20.2185 0.596121 20.144 0.558191C20.0695 0.52026 19.987 0.500488 19.9034 0.500488C19.8198 0.500488 19.7373 0.52026 19.6628 0.558191C19.5883 0.596121 19.5238 0.651136 19.4746 0.718745L14.3738 7.70183C14.3158 7.78116 14.2809 7.87504 14.273 7.97303C14.2651 8.07102 14.2846 8.16927 14.3293 8.25685C14.3734 8.34441 14.4411 8.41791 14.5247 8.46905C14.6084 8.52018 14.7046 8.54692 14.8027 8.54625H17.4249V15.1545C17.4248 15.2243 17.4385 15.2934 17.4652 15.3579C17.4918 15.4224 17.531 15.481 17.5803 15.5303C17.6296 15.5797 17.6882 15.6188 17.7527 15.6455C17.8172 15.6722 17.8863 15.6859 17.9561 15.6858V15.6859ZM25.9136 10.5194L28.084 7.54497L30.2548 10.5194H29.3125C29.2427 10.5194 29.1736 10.5331 29.1091 10.5597C29.0446 10.5864 28.986 10.6255 28.9367 10.6749C28.8874 10.7242 28.8482 10.7828 28.8216 10.8473C28.7949 10.9118 28.7812 10.9809 28.7813 11.0507V14.6229H27.3875V11.051C27.3875 10.9812 27.3738 10.9121 27.3472 10.8476C27.3205 10.7832 27.2814 10.7246 27.232 10.6752C27.1827 10.6259 27.1241 10.5867 27.0596 10.5601C26.9951 10.5334 26.926 10.5197 26.8562 10.5198L25.9136 10.5194ZM26.8563 15.6859C26.7154 15.6859 26.5802 15.6299 26.4806 15.5303C26.381 15.4306 26.325 15.2955 26.325 15.1546V11.5823H24.8679C24.7698 11.5826 24.6734 11.5556 24.5897 11.5044C24.5059 11.4531 24.4381 11.3797 24.3936 11.2921C24.3492 11.2046 24.3299 11.1064 24.3379 11.0086C24.3459 10.9107 24.381 10.817 24.4391 10.7379L27.655 6.3306C27.7043 6.26305 27.7689 6.2081 27.8434 6.17022C27.918 6.13233 28.0005 6.11258 28.0841 6.11258C28.1677 6.11258 28.2502 6.13233 28.3247 6.17022C28.3993 6.2081 28.4639 6.26305 28.5132 6.3306L31.7296 10.7377C31.7876 10.8169 31.8225 10.9106 31.8304 11.0084C31.8384 11.1062 31.8191 11.2043 31.7747 11.2917C31.7302 11.3792 31.6624 11.4527 31.5787 11.504C31.4951 11.5552 31.3988 11.5823 31.3007 11.5821H29.8439V15.1543C29.8439 15.2952 29.7879 15.4304 29.6883 15.53C29.5887 15.6296 29.4535 15.6856 29.3126 15.6856L26.8563 15.6859ZM9.55173 10.5194L11.7221 7.54497L13.8936 10.5194H12.9506C12.8097 10.5194 12.6746 10.5754 12.575 10.675C12.4753 10.7747 12.4194 10.9098 12.4194 11.0507V14.6229H11.0255V11.051C11.0256 10.9812 11.0119 10.9121 10.9853 10.8476C10.9586 10.7832 10.9195 10.7246 10.8701 10.6752C10.8208 10.6259 10.7622 10.5867 10.6977 10.5601C10.6332 10.5334 10.5641 10.5197 10.4943 10.5198L9.55173 10.5194ZM10.4944 15.6859C10.4246 15.6859 10.3555 15.6722 10.2911 15.6455C10.2266 15.6188 10.168 15.5797 10.1187 15.5304C10.0694 15.481 10.0303 15.4224 10.0037 15.3579C9.97705 15.2935 9.9634 15.2244 9.96352 15.1546V11.5823H8.50603C8.40787 11.5826 8.31156 11.5556 8.22782 11.5043C8.14408 11.4531 8.0762 11.3797 8.03171 11.2921C7.98722 11.2046 7.96787 11.1065 7.97582 11.0087C7.98376 10.9108 8.01869 10.8171 8.07671 10.7379L11.2931 6.3306C11.3424 6.26305 11.407 6.2081 11.4815 6.17022C11.5561 6.13233 11.6386 6.11258 11.7222 6.11258C11.8058 6.11258 11.8883 6.13233 11.9628 6.17022C12.0374 6.2081 12.102 6.26305 12.1513 6.3306L15.3682 10.7377C15.426 10.817 15.4608 10.9107 15.4686 11.0084C15.4764 11.1062 15.4571 11.2043 15.4126 11.2917C15.3681 11.3791 15.3003 11.4525 15.2167 11.5038C15.1331 11.5551 15.0369 11.5822 14.9388 11.5821H13.4815V15.1543C13.4815 15.2952 13.4255 15.4304 13.3259 15.53C13.2263 15.6296 13.0912 15.6856 12.9503 15.6856L10.4944 15.6859ZM32.6325 19.0446L23.4479 28.172C23.2503 28.3758 23.0066 28.5291 22.7373 28.6191C22.468 28.7091 22.1811 28.7331 21.9006 28.6891L12.585 27.3941C12.5155 27.3836 12.4447 27.3874 12.3768 27.4054C12.3089 27.4233 12.2454 27.455 12.1902 27.4985L9.88376 29.2538L6.4479 24.0827L10.8461 20.9991C11.8589 20.2875 12.9837 20.0694 14.1895 20.3444L23.2211 22.3985C23.344 22.4248 23.4602 22.4758 23.5627 22.5484C23.6652 22.621 23.7518 22.7137 23.8174 22.8208C23.8848 22.9268 23.9304 23.0451 23.9518 23.1689C23.9731 23.2926 23.9697 23.4194 23.9417 23.5418L23.9308 23.5893C23.8735 23.8333 23.7232 24.0452 23.512 24.1799C23.3007 24.3146 23.0452 24.3614 22.7998 24.3104L16.3666 22.949C16.2984 22.9341 16.228 22.9328 16.1593 22.9452C16.0906 22.9577 16.0251 22.9836 15.9665 23.0216C15.9079 23.0595 15.8574 23.1087 15.8179 23.1663C15.7785 23.2239 15.7508 23.2887 15.7366 23.357C15.7079 23.4949 15.7348 23.6386 15.8115 23.7567C15.8882 23.8748 16.0084 23.9579 16.146 23.9879L22.5797 25.3492C23.0983 25.4574 23.6387 25.3581 24.0849 25.0726C24.5312 24.7871 24.8478 24.3381 24.9669 23.8219L24.9773 23.7792C25.0936 23.2724 25.0091 22.7402 24.7416 22.2943L31.2241 17.4268C31.4263 17.2731 31.6785 17.2006 31.9314 17.2234C32.1843 17.2462 32.4195 17.3628 32.5908 17.5501L32.662 17.626C32.8429 17.8197 32.941 18.0763 32.9354 18.3413C32.9299 18.6063 32.821 18.8586 32.6322 19.0445L32.6325 19.0446ZM5.95995 33.2338L9.63175 30.7953L4.93623 23.7224L1.26443 26.1605L5.95995 33.2338ZM33.3705 16.8244C33.02 16.4449 32.5407 16.2095 32.0261 16.1639C31.5115 16.1183 30.9984 16.2658 30.5866 16.5778L23.9645 21.5494C23.8045 21.4642 23.634 21.4004 23.4573 21.3597L14.4261 19.3055C13.7095 19.135 12.9646 19.1205 12.2419 19.2629C11.5192 19.4053 10.8355 19.7013 10.2372 20.131L5.8608 23.1955L5.52731 22.6927C5.44866 22.5762 5.32725 22.4954 5.18941 22.4679C5.05157 22.4404 4.90844 22.4683 4.79107 22.5456L0.234003 25.5723C0.176013 25.6109 0.126188 25.6605 0.0873747 25.7183C0.0485612 25.7761 0.021519 25.841 0.0077924 25.9093C-0.0059342 25.9776 -0.00607638 26.0479 0.00737397 26.1163C0.0208243 26.1846 0.0476038 26.2496 0.0861831 26.3076L5.36946 34.2631C5.41823 34.3357 5.48406 34.3954 5.56121 34.4367C5.63837 34.478 5.72447 34.4998 5.812 34.5001C5.91675 34.5005 6.01914 34.469 6.10564 34.41L10.6617 31.3834C10.7198 31.345 10.7698 31.2955 10.8088 31.2378C10.8477 31.18 10.8749 31.1152 10.8887 31.0469C10.9026 30.9786 10.9028 30.9083 10.8895 30.84C10.8761 30.7716 10.8493 30.7066 10.8108 30.6486L10.4735 30.141L12.6583 28.4758L21.7548 29.7425C22.1974 29.8089 22.6494 29.7696 23.0739 29.6278C23.4984 29.4859 23.8832 29.2456 24.197 28.9265L33.3814 19.7989C33.7665 19.4194 33.9882 18.9047 33.9995 18.3642C34.0107 17.8237 33.8106 17.3002 33.4416 16.9051L33.3705 16.8244Z" fill="url(#paint0_linear_1747_14727)"/>
</g>
<defs>
<linearGradient id="paint0_linear_1747_14727" x1="16.9985" y1="34.5004" x2="16.9986" y2="0.500467" gradientUnits="userSpaceOnUse">
<stop stop-color="white"/>
<stop offset="1" stop-color="#00A99D"/>
</linearGradient>
<clipPath id="clip0_1747_14727">
<rect width="34" height="34" fill="white" transform="translate(0 0.5)"/>
</clipPath>
</defs>
</svg>
