<svg width="198" height="204" viewBox="0 0 198 204" fill="none" xmlns="http://www.w3.org/2000/svg">
<path d="M196.431 22.6646L198 23.3966L195.604 25.3485L196.431 22.6646Z" fill="#064B5B"/>
<g filter="url(#filter0_d_1747_14576)">
<path d="M106.674 99.8677H63.4875V195.5H106.674V99.8677Z" fill="#02BAAD"/>
<path d="M52.8136 132.683H9.88814V195.5H52.8136V132.683Z" fill="#01746C"/>
<path d="M160.943 69.8655H117.756V195.5H160.943V69.8655Z" fill="#EFF0F2"/>
</g>
<path d="M45.7555 79.0133C46.7026 79.0133 47.4704 78.2967 47.4704 77.4126C47.4704 76.5286 46.7026 75.812 45.7555 75.812C44.8083 75.812 44.0405 76.5286 44.0405 77.4126C44.0405 78.2967 44.8083 79.0133 45.7555 79.0133Z" fill="#003960"/>
<path d="M34.6763 81.3641L34.5814 77.0448L32.2316 76.6862L31.6307 75.3701V81.9341L34.6763 81.3641Z" fill="#F8AE7F"/>
<path d="M30.9935 76.3191C32.0808 78.7443 34.1222 80.3166 35.8084 79.7372C37.4947 79.1579 37.6248 76.8041 37.1 74.2212C36.3034 70.3007 33.9713 70.2237 32.2851 70.803C30.5988 71.3824 29.8929 73.8642 30.9935 76.3191Z" fill="#F8AE7F"/>
<path d="M31.1209 76.6942C31.8915 75.8606 30.6859 74.6094 31.9442 72.9944C32.5012 72.2795 35.547 73.4234 36.811 71.7751C37.5562 70.8033 37.1025 67.6954 35.6931 68.2087C34.2837 68.7219 33.9176 69.736 32.9788 69.8526C32.04 69.9691 30.4353 69.9464 29.7759 70.9575C28.5323 72.8647 31.1209 76.6942 31.1209 76.6942Z" fill="#003960"/>
<path d="M36.5306 129.4V131.5H35.0837V129.25L36.5306 129.4Z" fill="#F8AE7F"/>
<path d="M36.8526 130.6H34.4413V132.56H35.5665V132.1L37.0134 132.55H40.2284C40.2284 132.55 40.3892 131.95 39.5855 131.8C38.7817 131.65 37.4957 131.05 37.1741 130.9C36.8526 130.75 36.8526 130.6 36.8526 130.6Z" fill="#064B5B"/>
<path d="M32.029 96.9917H37.0125V129.699H34.2796L29.7785 102.093L32.029 96.9917Z" fill="#0A3951"/>
<path d="M25.2442 129.258L24.9071 131.335L23.4766 131.132L23.8379 128.907L25.2442 129.258Z" fill="#F8AE7F"/>
<path d="M25.4696 130.85L23.1924 130.109L22.4522 132.093L23.5149 132.438L23.7263 131.872L24.9341 132.741L27.9703 133.728C27.9703 133.728 28.3336 133.21 27.6274 132.822C26.9212 132.433 25.9181 131.472 25.6674 131.231C25.4167 130.991 25.4696 130.85 25.4696 130.85Z" fill="#064B5B"/>
<path d="M34.2797 97.2918C34.2797 97.2918 33.9582 105.994 32.6722 110.495C31.3862 114.996 25.7597 129.7 25.7597 129.7H23.5092C23.5092 129.7 26.7243 111.245 26.7243 108.394C26.7243 105.544 26.885 96.6917 26.885 96.6917L33.3152 95.3413L34.2797 97.2918Z" fill="#0A3951"/>
<path d="M48.9895 82.0766L50.3569 81.7827L49.217 77.1626L47.8496 77.4564L48.9895 82.0766Z" fill="#FFAA00"/>
<path d="M47.938 82.0692C47.938 82.0692 49.9382 80.0774 50.1854 79.2806C50.274 78.9951 49.9968 78.2664 49.9968 78.2664L47.782 77.7039L46.9553 78.5557L46.067 81.1962L47.938 82.0692Z" fill="#FFBA9C"/>
<path d="M45.8643 79.0198L55.7762 77.2128L53.197 71.3337L44.6556 76.1502L45.8643 79.0198Z" fill="#FFAA00"/>
<path d="M22.5783 87.0317C22.5783 87.0317 26.4814 81.6163 28.7079 81.0252C30.8084 80.4677 36.0433 80.354 38.1171 81.3943C39.774 82.2255 42.7526 86.8041 42.7526 86.8041L45.7721 80.8169L48.5212 82.2604C48.5212 82.2604 46.1928 91.436 44.6498 91.9198C43.1068 92.4036 38.1338 88.5465 38.1338 88.5465L37.7665 100.16C37.7665 100.16 36.1953 101.068 32.7537 100.928C29.6881 100.803 26.3192 99.8804 26.3192 99.8804C26.3192 99.8804 26.9291 94.8295 27.3042 89.7716C25.4511 90.8494 22.9534 92.0999 21.1385 91.754C19.81 91.5008 22.5783 87.0317 22.5783 87.0317Z" fill="#5ABABA"/>
<path d="M55.5108 77.5181L56.5423 77.1597C56.6206 77.1325 56.6604 77.0512 56.6313 76.9781L54.126 70.6969C54.0969 70.6239 54.0098 70.5867 53.9315 70.6139L52.9 70.9723C52.8217 70.9995 52.7819 71.0808 52.811 71.1539L55.3162 77.435C55.3453 77.5081 55.4325 77.5453 55.5108 77.5181Z" fill="#003960"/>
<path d="M25.0974 94.0463C25.2717 95.098 26.0096 95.9901 26.8072 96.7507C27.3413 97.2601 27.9402 97.7486 28.6725 97.9508C28.9298 98.0218 29.2279 98.0498 29.4492 97.9082C29.8224 97.6695 29.7406 97.1261 29.5141 96.7606C29.199 96.2519 28.703 95.8664 28.2173 95.4923C27.595 95.0128 26.9728 94.5334 26.3504 94.054C26.1382 93.8905 25.9128 93.7211 25.6418 93.6767C25.3707 93.6322 25.0974 94.0463 25.0974 94.0463Z" fill="#FDC392"/>
<path d="M25.8298 96.6636L28.5572 95.6222L24.466 90.2996L20.7778 91.6302L25.8298 96.6636Z" fill="#5ABABA"/>
<path d="M146.958 65.48V68.4025H145.218V65.1553L146.958 65.48Z" fill="#FFBA9C"/>
<path d="M150.785 69.7013H144.696C144.696 69.7013 144.658 69.4188 144.63 69.0519C144.592 68.5421 144.571 67.8747 144.696 67.5906C144.767 67.4315 145.218 67.1035 145.218 67.1035L146.958 66.9412C146.958 66.9412 147.192 67.0175 147.547 67.1474C147.726 67.2139 147.933 67.2918 148.158 67.3812C148.276 67.4266 148.398 67.4769 148.521 67.5273H148.523C148.716 67.6085 148.911 67.6945 149.106 67.7822C149.223 67.8358 149.337 67.891 149.449 67.9462C149.638 68.0404 149.821 68.1378 149.988 68.2368C150.357 68.4544 150.651 68.6768 150.785 68.8895C150.807 68.9268 150.821 68.9836 150.828 69.0518C150.854 69.3052 150.785 69.7013 150.785 69.7013Z" fill="#0A3951"/>
<path d="M150.785 69.7012H144.696C144.696 69.7012 144.658 69.4187 144.63 69.0518H150.828C150.855 69.3051 150.785 69.7012 150.785 69.7012Z" fill="#00666A"/>
<path d="M148.158 67.3813L147.246 68.1103L146.957 67.7969L146.863 67.6946L146.957 67.6199L147.547 67.1475C147.726 67.214 147.933 67.2919 148.158 67.3813Z" fill="#FFBC00"/>
<path d="M149.106 67.7823L148.29 68.4349L147.908 68.0194L148.522 67.5273H148.523C148.716 67.6086 148.911 67.6947 149.106 67.7823Z" fill="#FFBC00"/>
<path d="M149.988 68.2369L149.334 68.7597L148.951 68.3441L149.449 67.9463C149.639 68.0405 149.821 68.1379 149.988 68.2369Z" fill="#FFBC00"/>
<path d="M120.013 45.0255L117.728 43.0273L118.918 41.8425L121.456 44.0628L120.013 45.0255Z" fill="#FFBA9C"/>
<path d="M114.096 44.7455L118.259 40.5989C118.259 40.5989 118.506 40.766 118.812 40.9979C119.237 41.3204 119.773 41.7625 119.909 42.0421C119.985 42.1995 119.933 42.7305 119.933 42.7305L118.871 44.0263C118.871 44.0263 118.65 44.1341 118.306 44.2869C118.132 44.3634 117.929 44.4512 117.706 44.5429C117.589 44.5924 117.467 44.6409 117.343 44.6906L117.342 44.6918C117.146 44.7678 116.946 44.8416 116.744 44.9143C116.623 44.9571 116.501 44.9975 116.382 45.0356C116.178 45.1003 115.977 45.1581 115.786 45.2042C115.363 45.3066 114.989 45.3547 114.731 45.3005C114.686 45.2903 114.632 45.261 114.574 45.2191C114.358 45.0638 114.096 44.7455 114.096 44.7455Z" fill="#0A3951"/>
<path d="M114.096 44.7455L118.259 40.5989C118.259 40.5989 118.506 40.766 118.812 40.9979L114.574 45.2191C114.358 45.0638 114.096 44.7455 114.096 44.7455Z" fill="#00666A"/>
<path d="M117.706 44.5431L117.76 43.4238L118.202 43.4414L118.346 43.4474L118.341 43.5624L118.307 44.2871C118.132 44.3637 117.93 44.4514 117.706 44.5431Z" fill="#FFBC00"/>
<path d="M116.744 44.9146L116.792 43.9126L117.378 43.9362L117.343 44.6908L117.342 44.6919C117.146 44.768 116.946 44.8418 116.744 44.9146Z" fill="#FFBC00"/>
<path d="M115.786 45.2043L115.824 44.4014L116.411 44.4249L116.382 45.0358C116.178 45.1006 115.977 45.1583 115.786 45.2043Z" fill="#FFBC00"/>
<path d="M126.122 5.92751C124.757 4.83884 123.356 3.70857 122.551 2.20995C122.455 2.03 122.365 1.83826 122.367 1.63698C122.369 1.4357 122.486 1.22257 122.689 1.15694C123.05 1.04099 123.354 1.40455 123.605 1.67206C124.139 2.24122 124.936 2.52489 125.572 2.99322C126.481 3.6621 127.037 4.73002 127.039 5.81025C127.039 5.94668 127.01 6.1123 126.874 6.16184C126.765 6.20123 126.646 6.14351 126.55 6.08266C126.351 5.95669 126.168 5.80848 126.006 5.64221L126.122 5.92751Z" fill="#FFBA9C"/>
<path d="M154.731 5.31193C154.984 4.68054 154.53 4.00563 154.47 3.33366C154.455 3.15829 154.473 2.96578 154.599 2.83464C154.724 2.70351 154.987 2.68303 155.086 2.83281C155.171 2.96159 155.12 3.1706 155.264 3.24042C155.405 3.30854 155.55 3.16072 155.629 3.03305C155.976 2.47612 156.323 1.91926 156.671 1.36233C156.847 1.07833 157.041 0.779031 157.357 0.632912C157.561 0.538226 157.794 0.518922 158.022 0.504853C158.249 0.490785 158.517 0.496934 158.652 0.668574C158.713 0.747032 158.734 0.847084 158.74 0.944126C158.767 1.35402 158.568 1.7503 158.309 2.08239C158.05 2.41455 157.73 2.70083 157.461 3.02598C156.893 3.71391 156.576 4.54927 156.267 5.36899L154.731 5.31193Z" fill="#FFBA9C"/>
<path d="M142.869 12.4692C143.391 11.6574 143.844 10.3905 143.714 9.46744C143.625 8.8348 143.565 6.94892 141.651 6.62423C140.478 6.42511 138.771 6.89965 137.866 7.62409C137.138 8.20595 136.857 9.12723 136.646 9.99936C136.54 10.4395 136.438 10.8934 136.171 11.2694C135.722 11.9019 134.889 12.197 134.088 12.3263C133.287 12.4556 132.458 12.4598 131.684 12.6913C130.738 12.9741 129.917 13.6014 129.433 14.4102C128.841 15.3994 128.749 16.6149 128.055 17.5449C127.655 18.0818 127.081 18.4836 126.493 18.8393C125.513 19.4313 124.43 19.9321 123.267 20.0183C122.976 20.0399 122.673 20.0374 122.409 20.1535C122.03 20.3203 121.805 20.7138 121.777 21.1041C121.75 21.4944 121.894 21.8799 122.094 22.2237C123.048 23.8638 125.144 24.6054 127.117 24.9086C128.311 25.092 129.552 25.1616 130.717 24.8593C131.883 24.557 132.97 23.8347 133.436 22.7929C134.123 21.2579 133.432 19.2397 134.635 18.0125C135.476 17.155 136.872 17.0928 138.033 16.6714C138.36 16.5527 138.681 16.3976 138.923 16.1604C139.216 15.8727 139.371 15.4897 139.557 15.132C140.277 13.7411 141.161 12.8862 142.695 12.307L142.869 12.4692Z" fill="#0A3951"/>
<path d="M141.913 15.9602L142.261 13.5248C142.261 13.5248 142.609 13.2001 142.957 12.3883C143.321 11.5385 143.295 9.28063 142.696 8.73521C142.225 8.30615 141.431 10.1202 140.869 10.44C140.317 10.7542 139.217 10.6836 139.217 10.6836L139.304 12.3884C139.304 12.3884 140.174 13.2002 140 14.012C139.897 14.4896 139.304 15.4733 139.304 15.4733V17.2592L142.261 17.0969L141.913 15.9602Z" fill="#FFBA9C"/>
<path d="M154.264 4.91971C153.252 7.75146 152.031 11.2236 149.567 12.713C148.211 13.5328 145.249 14.846 142.261 15.3108C141.217 15.4731 139.999 15.3108 138.153 14.9423C136.934 14.6988 135.25 14.0801 134.432 13.2001C131.816 10.3848 129.57 7.82442 127.3 4.75743C126.818 4.1047 124.671 5.18931 125.242 6.39078C126.011 8.00948 127.135 9.45451 128.25 10.8865C130.017 13.1547 131.475 14.9861 133.563 17.2592C134.295 18.0568 134.885 19.4055 135.278 20.3911C136.073 22.38 136.936 25.1141 136.346 27.1631C135.925 28.626 134.763 29.8405 134.199 31.1848C134.083 31.4608 133.992 31.7433 133.938 32.0339C133.888 32.305 133.869 32.5811 133.891 32.8685C133.891 32.875 133.893 32.8798 133.893 32.8864C133.9 32.9724 133.909 33.0585 133.931 33.1413C133.947 33.2062 133.971 33.2663 134.006 33.3232C134.201 33.6349 134.653 33.6836 135.038 33.6966C135.347 33.708 135.655 33.7177 135.965 33.7274H135.969C135.998 33.7291 136.031 33.7307 136.061 33.7307C137.866 33.7892 139.672 33.8363 141.48 33.872C142.636 33.893 143.795 33.911 144.952 33.9223C145.585 33.9304 146.342 33.8703 146.676 33.3881C146.695 33.3638 146.711 33.3395 146.724 33.3135C146.878 33.0407 146.69 32.8443 146.618 32.5488C146.617 32.5472 146.617 32.5455 146.617 32.544C146.613 32.5375 146.611 32.5294 146.61 32.5212C146.533 32.1689 146.386 31.8367 146.283 31.4886C145.914 30.2481 145.218 29.4363 144.696 27.6504C144.081 25.5446 144.388 20.5365 145.914 18.8829C147.107 17.5893 149.869 16.6477 151.48 15.311C154.612 12.7132 156.562 4.9879 156.525 4.91991C156.351 4.59502 154.438 4.43267 154.264 4.91971Z" fill="#EFF0F2"/>
<path d="M147.306 65.967H144.87L142.435 50.2181L139.491 41.2916L138.956 39.6647L132.693 40.8012L133.932 33.141L133.973 32.8877L134.085 32.196H146.436C146.436 32.196 146.502 32.3145 146.617 32.5435C146.617 32.5451 146.617 32.5467 146.619 32.5484C146.714 32.7415 146.843 33.0143 146.996 33.3618C147.629 34.8133 148.649 37.5621 149.219 41.2882C150.383 48.89 147.306 65.967 147.306 65.967Z" fill="#00666A"/>
<path d="M141.749 32.196C141.715 32.5531 141.629 33.0711 141.522 33.6523C141.515 33.6929 141.506 33.7335 141.497 33.7757C141.495 33.7903 141.492 33.8049 141.49 33.8196C141.487 33.8374 141.483 33.8537 141.48 33.8715C141.141 35.6429 140.615 37.8819 140.577 38.0978C140.457 38.7959 140.053 39.9373 139.491 41.2914C138.234 44.3243 136.179 48.4223 134.715 50.9811C132.596 54.6797 130.185 55.8519 127.888 55.308C125.592 54.7641 119.756 44.9007 119.756 44.9007L120.864 43.2365L129.153 48.6334C129.153 48.6334 129.275 45.3375 130.78 40.8011C131.9 37.424 133.088 34.2142 133.62 32.7967C133.805 32.3096 133.911 32.0337 133.911 32.0337H133.939L135.391 32.0645L136.407 32.0856L140.598 32.1717L140.859 32.1782L141.749 32.196Z" fill="#00666A"/>
<path d="M146.996 33.3618C146.909 33.3699 146.803 33.3781 146.676 33.3878C146.469 33.4057 146.206 33.4235 145.876 33.4447H145.874C145.589 33.4625 145.253 33.4837 144.863 33.5047C144.235 33.5388 143.467 33.5762 142.532 33.6135H142.531C142.515 33.6151 142.498 33.6151 142.482 33.6168H142.48C142.177 33.6282 141.859 33.6411 141.522 33.6525L141.391 33.6573C141.195 33.6655 141.002 33.6687 140.808 33.6719H140.807C140.728 33.6719 140.652 33.6736 140.575 33.6736H140.574C138.897 33.6784 137.369 33.5161 136.146 33.3228C135.802 33.2677 135.484 33.2108 135.191 33.1539C134.702 33.0598 134.292 32.9656 133.974 32.8877C133.946 32.8796 133.918 32.8731 133.892 32.8682C133.791 32.8423 133.7 32.8179 133.62 32.7968C133.563 32.8455 133.737 32.3584 133.911 32.0337C134.026 31.821 134.083 31.4606 134.2 31.1846C134.506 31.2625 134.949 31.368 135.499 31.4784C135.802 31.5402 136.136 31.6018 136.496 31.6619C137.688 31.8616 139.161 32.0337 140.695 32.0337C141.969 32.0337 143.166 31.9379 144.154 31.8178C144.529 31.774 144.876 31.7253 145.183 31.6782C145.638 31.6083 146.012 31.5418 146.283 31.4882C146.42 31.8259 146.958 33.0079 146.996 33.3618Z" fill="#0A3951"/>
<path d="M141.565 33.7769C142.43 33.7769 143.131 33.3981 143.131 32.9309C143.131 32.4637 142.43 32.085 141.565 32.085C140.7 32.085 139.999 32.4637 139.999 32.9309C139.999 33.3981 140.7 33.7769 141.565 33.7769Z" fill="#00666A"/>
<path d="M140.957 33.2899C141.293 33.2899 141.565 33.1426 141.565 32.9608C141.565 32.7791 141.293 32.6318 140.957 32.6318C140.62 32.6318 140.348 32.7791 140.348 32.9608C140.348 33.1426 140.62 33.2899 140.957 33.2899Z" fill="#4B9B99"/>
<path d="M136.496 31.662L136.146 33.323C135.802 33.2678 135.483 33.2109 135.191 33.1541L135.499 31.4785C135.802 31.5402 136.136 31.6019 136.496 31.662Z" fill="#FFB416"/>
<path d="M145.874 33.4447C145.589 33.4626 145.253 33.4837 144.863 33.5048L144.153 31.8179C144.529 31.774 144.875 31.7253 145.183 31.6782L145.874 33.4447Z" fill="#FFB416"/>
<path d="M141.478 33.9689C140.462 33.9689 139.666 33.5112 139.666 32.9266C139.666 32.3421 140.462 31.8843 141.478 31.8843C142.495 31.8843 143.291 32.3421 143.291 32.9266C143.291 33.5112 142.495 33.9689 141.478 33.9689ZM141.478 32.1829C140.669 32.1829 139.986 32.5235 139.986 32.9266C139.986 33.3297 140.669 33.6702 141.478 33.6702C142.287 33.6702 142.971 33.3296 142.971 32.9266C142.971 32.5236 142.287 32.1829 141.478 32.1829Z" fill="#FFCE32"/>
<path d="M94.1718 79.5755C93.3967 85.9259 89.3125 97.1062 89.3125 97.1062L88.8644 96.5835L88.0989 96.6344L90.0072 77.6623C90.0072 77.6623 94.947 73.2253 94.1718 79.5755Z" fill="#FFBA9C"/>
<path d="M84.8318 77.6601L78.3086 95.4727C78.3086 95.4727 78.2612 96.6742 78.3758 96.846C78.5119 97.0501 79.0855 98.771 79.1383 98.725C79.1627 98.7038 80.0417 98.8324 80.0509 98.8024C80.125 98.5643 80.226 98.4121 80.1339 98.183C79.885 97.5635 79.1382 96.5568 79.4549 95.8515C80.1909 94.2123 86.5637 86.0803 88.1922 80.1692C89.8976 73.9795 84.8318 77.6601 84.8318 77.6601Z" fill="#FFBA9C"/>
<path d="M88.9615 98.2143C88.7531 98.1223 88.3062 97.3058 88.1785 96.6774L88.1852 96.666C88.1852 96.666 88.1886 96.6701 88.1942 96.6785L88.2413 96.3272C88.5415 96.1213 89.5959 96.0639 89.5932 96.0922C89.5103 96.944 89.7592 97.5635 90.0081 97.7958C90.3493 98.1143 91.0037 98.4928 91.0866 99.1123C91.1199 99.3611 89.1946 98.3168 88.9615 98.2143Z" fill="#FFBA9C"/>
<path d="M92.9152 100.133C92.9152 100.133 91.28 100.351 90.7506 100.244C90.3123 100.158 88.9922 98.7717 88.9922 98.7717L89.1642 100.07L88.5961 100.037L87.8813 98.1045C87.7162 97.6561 87.7481 97.1651 87.9673 96.7372L88.1308 96.4194L88.1409 96.4021C88.1409 96.4021 88.1459 96.4084 88.1544 96.421C88.1578 96.4241 88.1595 96.4289 88.1645 96.4336C88.3803 96.7295 89.5926 99.035 90.6225 98.874C90.8987 98.8308 90.4573 98.1691 90.4573 98.1691L90.486 98.1927L92.9152 100.133Z" fill="black"/>
<path d="M81.4758 100.307C81.4758 100.307 79.8599 99.9863 79.4025 99.7155C79.023 99.4933 78.2958 97.7673 78.2958 97.7673L77.9778 99.0412L77.4566 98.8274L77.4993 96.7836C77.5098 96.3095 77.7212 95.859 78.085 95.5278L78.3559 95.282L78.3718 95.269C78.3718 95.269 78.3742 95.2766 78.3775 95.2911C78.3795 95.2952 78.3794 95.3001 78.3823 95.3062C78.4756 95.6533 78.7621 98.2076 79.7884 98.3878C80.0636 98.4361 79.8936 97.673 79.8936 97.673L79.9118 97.7043L81.4758 100.307Z" fill="black"/>
<path d="M84.0339 56.1346L95.8155 55.9023C95.8155 55.9023 97.9729 63.3871 97.0601 69.0666C96.1473 74.7462 93.6816 82.5738 93.6816 82.5738L84.2721 79.0192C84.2721 79.0192 82.22 68.32 82.0679 65.4802C81.9158 62.6404 84.0339 56.1346 84.0339 56.1346Z" fill="#81319B"/>
<path d="M108.862 36.0922C109.178 35.3908 109.397 34.6467 109.675 33.9274C109.952 33.2081 110.299 32.496 110.81 31.9603C111.321 31.4245 112.022 31.0894 112.643 31.2438C112.946 31.3192 113.213 31.5046 113.442 31.7319C113.68 31.9684 113.884 32.2582 113.992 32.6075C114.099 32.9568 114.101 33.3704 113.953 33.7326C113.719 34.3042 113.183 34.6271 112.693 34.9001C112.108 35.2251 111.524 35.5502 110.939 35.8752C110.794 35.9562 110.647 36.0375 110.495 36.092C109.971 36.2798 109.438 36.1346 108.935 35.9885L108.862 36.0922Z" fill="#FFBA9C"/>
<path d="M66.4571 62.79C65.4987 63.4903 64.3885 64.0085 63.2133 64.304C62.7587 64.4183 62.2389 64.5375 62.0147 64.9238C61.8381 65.2282 61.9147 65.6196 62.1231 65.9059C62.3315 66.1921 62.6511 66.3906 62.9772 66.5555C63.8704 67.0072 64.9817 67.2538 65.8935 66.8358C66.535 66.5417 66.9779 65.9604 67.2522 65.3445C67.4138 64.9819 67.526 64.5719 67.3921 64.1997C67.227 63.7405 66.731 63.4504 66.5099 63.0122L66.4571 62.79Z" fill="#FFBA9C"/>
<path d="M71.7952 50.8256C68.863 50.1852 66.0882 48.5192 65.4849 47.858C65.3087 47.6649 65.0452 47.3063 65.0981 47.1411C65.2762 46.584 66.2265 46.7221 66.8486 46.75C69.1778 46.8543 74.0719 45.5008 75.6973 43.9403C76.8386 42.8446 79.9664 36.5743 83.8236 35.0242C85.2152 34.4649 88.4717 33.9283 90.4246 35.7623C91.7433 37.0009 91.1825 38.8517 90.7211 40.5439L89.0253 39.5383C88.4185 40.0771 88.8905 39.0921 88.075 39.2703C86.9069 39.5257 86.3874 40.8856 86.6163 41.9847C86.743 42.5924 87.0303 43.213 86.9118 43.8084L86.9391 43.822C86.6494 45.4576 85.8378 47.1337 84.2856 47.9396C82.9335 48.6416 81.3396 49.8018 79.8665 50.2434C78.7 50.5931 76.7738 51.9131 71.7952 50.8256Z" fill="#0A3951"/>
<path d="M92.2101 44.4079C90.5279 43.8997 89.4267 44.0814 87.8297 44.4363C86.8715 44.6492 83.4028 45.1084 83.434 45.7281C83.4698 46.4366 84.0641 47.5194 84.7665 47.7902C85.469 48.0609 86.2562 48.0575 87.0134 47.9964C88.1144 47.9075 89.2387 47.6925 90.152 47.1118C91.0654 46.531 92.1025 45.8006 91.9667 44.777L92.2101 44.4079Z" fill="#FFBA9C"/>
<path d="M108.125 35.447C106.333 38.3647 101.518 45.1743 101.518 45.1743C101.518 45.1743 91.5325 44.0307 91.2974 44.138C91.0583 44.2472 90.2769 46.4355 88.6691 46.801C87.1744 47.1409 86.3025 46.0662 83.7656 45.3076C79.7837 47.9565 77.3914 52.4679 74.5759 55.1934C71.7869 57.8931 63.9929 62.7766 64.1603 63.0519C64.7626 64.0423 65.5079 64.8945 67.3665 65.3005C68.2855 65.5013 71.1328 64.9159 71.9477 64.4715C76.9184 61.7603 78.872 58.5317 82.8421 54.6402C83.4339 55.6505 82.3099 59.636 82.0422 60.7035C86.9753 62.3114 93.3644 61.8327 97.5574 58.9224C96.5402 57.2548 94.4518 52.0051 94.6942 50.1185C97.1439 49.9893 100.937 51.7791 105.687 49.0278C110.01 46.5233 112.023 39.948 111.828 36.7755C111.812 36.5119 111.718 36.2405 111.521 36.0515C111.351 35.8891 111.11 35.8133 110.877 35.7491C110.06 35.5239 109.219 35.3732 108.37 35.2996L108.125 35.447Z" fill="#CD87E3"/>
<path d="M90.7711 41.31C90.632 42.2073 89.9624 43.0965 89.0037 43.2429C88.5894 43.3061 85.7416 41.808 85.2484 41.4163C84.7945 41.0558 84.2056 40.8493 83.81 40.4332C83.3176 39.9152 83.2193 39.1261 83.4908 38.4817C83.7624 37.8372 84.3649 37.3408 85.0544 37.0849C85.7438 36.829 86.5123 36.7978 87.2453 36.9055C88.481 37.0871 89.5733 37.5089 90.1458 38.5469C90.4896 39.1704 90.9101 40.4127 90.7711 41.31Z" fill="#FFBA9C"/>
<path d="M85.3611 41.3442C86.171 42.644 86.7911 45.9462 87.0824 46.2522C87.2809 46.4607 89.1751 46.8576 89.3233 46.3277C89.4715 45.7977 89.0249 43.4979 89.0414 42.9504L85.3611 41.3442Z" fill="#FFBA9C"/>
<path d="M88.6928 36.3343C88.4828 37.4541 87.2328 38.8124 86.2243 39.4499C85.2157 40.0873 85.3324 40.7103 84.6212 41.6332C84.3905 41.9325 83.2331 41.6791 82.9888 41.969C82.2815 42.8085 81.1159 43.2156 79.9759 43.3091C79.7621 43.3266 79.542 43.3339 79.3376 43.2729C78.8164 43.1175 79.7152 43.0439 79.7206 42.5332C79.731 41.5591 79.3175 40.2443 80.1351 39.6387C80.9526 39.0333 81.8889 38.5385 82.5256 37.7666C82.8862 37.3295 83.1428 36.8116 83.5825 36.4429C84.4373 35.7261 85.7219 35.7592 86.8682 35.8338C87.4882 35.8742 88.1083 35.9146 88.7284 35.955L88.6928 36.3343Z" fill="#0A3951"/>
<path d="M2.88887 164.714L1.04663 155.852C1.19393 155.825 16.0181 153.098 37.1136 146.163C56.5158 139.785 85.3564 128.436 112.569 110.593C137.169 94.4646 154.588 76.4832 164.87 64.2389C176.041 50.9358 181.443 41.3319 181.497 41.2363L190.081 45.3974C189.851 45.8108 184.319 55.6797 172.661 69.5959C161.953 82.3788 143.8 101.15 118.13 117.981C89.9496 136.457 60.1611 148.17 40.1337 154.742C18.4131 161.869 3.51258 164.601 2.88887 164.714Z" fill="#064B5B"/>
<path d="M194.784 48.2841L174.341 39.4352L198 23.3967L194.784 48.2841Z" fill="#064B5B"/>
<path d="M1.84224 162.762L0 153.9C0.147303 153.873 14.9714 151.146 36.067 144.211C55.4692 137.833 84.3098 126.484 111.523 108.642C136.122 92.5127 153.542 74.5313 163.824 62.287C174.994 48.9839 180.397 39.38 180.45 39.2844L189.034 43.4454C188.804 43.8589 183.272 53.7278 171.615 67.644C160.906 80.4269 142.753 99.1978 117.083 116.029C88.9031 134.505 59.1145 146.218 39.0872 152.79C17.3664 159.917 2.46588 162.649 1.84224 162.762Z" fill="#FFBC00"/>
<path d="M193.216 47.5519L172.773 38.7031L196.432 22.6646L193.216 47.5519Z" fill="#FFBC00"/>
<defs>
<filter id="filter0_d_1747_14576" x="5.88814" y="69.8655" width="159.055" height="133.635" filterUnits="userSpaceOnUse" color-interpolation-filters="sRGB">
<feFlood flood-opacity="0" result="BackgroundImageFix"/>
<feColorMatrix in="SourceAlpha" type="matrix" values="0 0 0 0 0 0 0 0 0 0 0 0 0 0 0 0 0 0 127 0" result="hardAlpha"/>
<feOffset dy="4"/>
<feGaussianBlur stdDeviation="2"/>
<feComposite in2="hardAlpha" operator="out"/>
<feColorMatrix type="matrix" values="0 0 0 0 0 0 0 0 0 0 0 0 0 0 0 0 0 0 0.25 0"/>
<feBlend mode="normal" in2="BackgroundImageFix" result="effect1_dropShadow_1747_14576"/>
<feBlend mode="normal" in="SourceGraphic" in2="effect1_dropShadow_1747_14576" result="shape"/>
</filter>
</defs>
</svg>
