<svg width="20" height="16" viewBox="0 0 20 16" fill="none" xmlns="http://www.w3.org/2000/svg">
<g id="Group 1096">
<path id="Vector" fill-rule="evenodd" clip-rule="evenodd" d="M0 1.33333C0 0.979711 0.15051 0.640573 0.418419 0.390525C0.686328 0.140476 1.04969 0 1.42857 0H18.5714C18.9503 0 19.3137 0.140476 19.5816 0.390525C19.8495 0.640573 20 0.979711 20 1.33333C20 1.68696 19.8495 2.02609 19.5816 2.27614C19.3137 2.52619 18.9503 2.66667 18.5714 2.66667H1.42857C1.04969 2.66667 0.686328 2.52619 0.418419 2.27614C0.15051 2.02609 0 1.68696 0 1.33333ZM0 8C0 7.64638 0.15051 7.30724 0.418419 7.05719C0.686328 6.80714 1.04969 6.66667 1.42857 6.66667H18.5714C18.9503 6.66667 19.3137 6.80714 19.5816 7.05719C19.8495 7.30724 20 7.64638 20 8C20 8.35362 19.8495 8.69276 19.5816 8.94281C19.3137 9.19286 18.9503 9.33333 18.5714 9.33333H1.42857C1.04969 9.33333 0.686328 9.19286 0.418419 8.94281C0.15051 8.69276 0 8.35362 0 8ZM0 14.6667C0 14.313 0.15051 13.9739 0.418419 13.7239C0.686328 13.4738 1.04969 13.3333 1.42857 13.3333H18.5714C18.9503 13.3333 19.3137 13.4738 19.5816 13.7239C19.8495 13.9739 20 14.313 20 14.6667C20 15.0203 19.8495 15.3594 19.5816 15.6095C19.3137 15.8595 18.9503 16 18.5714 16H1.42857C1.04969 16 0.686328 15.8595 0.418419 15.6095C0.15051 15.3594 0 15.0203 0 14.6667Z" fill="#0B2C4C"/>
</g>
</svg>
