<svg width="20" height="21" viewBox="0 0 20 21" fill="none" xmlns="http://www.w3.org/2000/svg">
<path d="M9.95 16.5C10.3 16.5 10.596 16.379 10.838 16.137C11.0793 15.8957 11.2 15.6 11.2 15.25C11.2 14.9 11.0793 14.6043 10.838 14.363C10.596 14.121 10.3 14 9.95 14C9.6 14 9.304 14.121 9.062 14.363C8.82067 14.6043 8.7 14.9 8.7 15.25C8.7 15.6 8.82067 15.8957 9.062 16.137C9.304 16.379 9.6 16.5 9.95 16.5ZM10.1 6.2C10.5667 6.2 10.9417 6.329 11.225 6.587C11.5083 6.84567 11.65 7.18333 11.65 7.6C11.65 7.88333 11.5543 8.17067 11.363 8.462C11.171 8.754 10.9 9.05833 10.55 9.375C10.05 9.80833 9.68333 10.225 9.45 10.625C9.21667 11.025 9.1 11.425 9.1 11.825C9.1 12.0583 9.18767 12.254 9.363 12.412C9.53767 12.5707 9.74167 12.65 9.975 12.65C10.2083 12.65 10.4167 12.5667 10.6 12.4C10.7833 12.2333 10.9 12.025 10.95 11.775C11 11.4917 11.1127 11.2293 11.288 10.988C11.4627 10.746 11.75 10.4333 12.15 10.05C12.6667 9.56667 13.0293 9.125 13.238 8.725C13.446 8.325 13.55 7.88333 13.55 7.4C13.55 6.55 13.2293 5.854 12.588 5.312C11.946 4.77067 11.1167 4.5 10.1 4.5C9.4 4.5 8.77933 4.63333 8.238 4.9C7.696 5.16667 7.275 5.575 6.975 6.125C6.85833 6.34167 6.81667 6.554 6.85 6.762C6.88333 6.97067 7 7.14167 7.2 7.275C7.41667 7.40833 7.65433 7.45 7.913 7.4C8.171 7.35 8.38333 7.20833 8.55 6.975C8.73333 6.725 8.95433 6.53333 9.213 6.4C9.471 6.26667 9.76667 6.2 10.1 6.2ZM10 20.5C8.63333 20.5 7.34167 20.2373 6.125 19.712C4.90833 19.1873 3.846 18.475 2.938 17.575C2.02933 16.675 1.31267 15.6167 0.788 14.4C0.262667 13.1833 0 11.8833 0 10.5C0 9.11667 0.262667 7.81667 0.788 6.6C1.31267 5.38333 2.02933 4.325 2.938 3.425C3.846 2.525 4.90833 1.81233 6.125 1.287C7.34167 0.762333 8.63333 0.5 10 0.5C11.4 0.5 12.7083 0.762333 13.925 1.287C15.1417 1.81233 16.2 2.525 17.1 3.425C18 4.325 18.7083 5.38333 19.225 6.6C19.7417 7.81667 20 9.11667 20 10.5C20 11.8833 19.7417 13.1833 19.225 14.4C18.7083 15.6167 18 16.675 17.1 17.575C16.2 18.475 15.1417 19.1873 13.925 19.712C12.7083 20.2373 11.4 20.5 10 20.5Z" fill="white"/>
</svg>
