<svg width="50" height="53" viewBox="0 0 50 53" fill="none" xmlns="http://www.w3.org/2000/svg">
<path d="M25.105 20.5159H26.4566V21.6438C26.4566 21.7836 26.3452 21.8973 26.2085 21.8973H25.105V20.5159ZM23.5053 20.2623H24.8569V18.8809C24.1108 18.8809 23.5053 19.4997 23.5053 20.2623ZM23.5053 21.6438C23.5053 21.7836 23.6167 21.8973 23.7534 21.8973H24.8569V20.5159H23.5053V21.6438ZM25.105 18.8809V20.2623H26.4566C26.4566 19.4997 25.8511 18.8809 25.105 18.8809ZM30.2232 19.2522C30.0602 19.6864 29.6871 19.9848 29.2476 20.0477V22.6879C29.2476 23.4046 28.6773 23.9875 27.9761 23.9875H22.0161C21.3149 23.9875 20.7445 23.4046 20.7445 22.6879V20.0457C20.309 19.9788 19.9418 19.6824 19.7797 19.2522C19.5941 18.7611 19.7211 18.2161 20.1029 17.8637L24.1684 14.0996C24.396 13.889 24.6899 13.7732 24.9976 13.7732C25.3052 13.7732 25.5982 13.889 25.8247 14.0986L26.7671 14.969C26.9068 14.8961 27.064 14.8552 27.232 14.8552H28.2252C28.7896 14.8552 29.2486 15.3244 29.2486 15.9013V17.2608L29.9 17.8627C30.2818 18.2151 30.4098 18.7611 30.2242 19.2522H30.2232ZM29.3795 18.4506L28.4722 17.6132V15.9013C28.4722 15.7616 28.3609 15.6478 28.2242 15.6478H27.231C27.0943 15.6478 26.9829 15.7616 26.9829 15.9013V16.2367L25.3042 14.6865C25.1294 14.5248 24.8628 14.5248 24.688 14.6865L20.6225 18.4506C20.3109 18.7391 20.5102 19.2681 20.9311 19.2681C21.0434 19.2681 21.1508 19.2262 21.2348 19.1504L21.52 18.8938V22.6879C21.52 22.9684 21.7426 23.196 22.017 23.196H27.9771C28.2515 23.196 28.4742 22.9684 28.4742 22.6879V18.8938L28.7593 19.1504C28.8433 19.2262 28.9508 19.2681 29.0631 19.2681H29.0738C29.4937 19.2681 29.6939 18.7391 29.3814 18.4506H29.3795ZM41.8465 38.9821C41.8465 41.1991 40.0076 43.2264 36.6697 44.6887C33.5397 46.0592 29.3961 46.8148 25.0005 46.8148C20.6049 46.8148 16.4613 46.0602 13.3313 44.6887C9.99336 43.2264 8.15446 41.2001 8.15446 38.9821C8.15446 36.7642 9.99336 34.7379 13.3313 33.2756C14.6956 32.6777 16.2532 32.1985 17.9398 31.8462C15.0774 27.3374 12.4709 22.3316 12.4709 19.0525C12.4709 11.9904 18.0921 6.24594 25.0005 6.24594C31.9088 6.24594 37.53 11.9914 37.53 19.0525C37.53 22.3326 34.9235 27.3384 32.0612 31.8472C33.7477 32.1985 35.3054 32.6786 36.6697 33.2766C40.0076 34.7389 41.8465 36.7652 41.8465 38.9831V38.9821ZM13.2454 19.0525C13.2454 24.0324 19.8676 33.593 23.1704 38.0528C24.0884 39.2916 25.9116 39.2916 26.8286 38.0528C30.1324 33.593 36.7536 24.0334 36.7536 19.0525C36.7536 12.4167 31.4908 7.03749 24.9985 7.03749C18.5062 7.03749 13.2434 12.4167 13.2434 19.0525H13.2454ZM20.1166 35.1282C15.9622 35.79 13.0618 37.2683 13.0618 38.9821C13.0618 41.3109 18.4174 43.2064 25.0005 43.2064C31.5836 43.2064 36.9392 41.3119 36.9392 38.9821C36.9392 37.2683 34.0388 35.79 29.8844 35.1282C29.0191 36.3809 28.1851 37.5368 27.4488 38.531C26.8638 39.3215 25.9712 39.7747 25.0015 39.7747C24.0317 39.7747 23.1391 39.3215 22.5542 38.531C21.8178 37.5368 20.9838 36.3809 20.1186 35.1282H20.1166ZM41.0701 38.9821C41.0701 36.1254 37.1833 33.6658 31.6012 32.5629C31.193 33.1927 30.7828 33.8096 30.3766 34.4085C31.5866 34.6181 32.7057 34.8996 33.6911 35.249C37.0154 36.4248 37.7136 37.9291 37.7136 38.9831C37.7136 40.0372 37.0154 41.5415 33.6911 42.7173C31.3541 43.5438 28.2672 43.999 24.9995 43.999C21.7319 43.999 18.6449 43.5438 16.3079 42.7173C12.9837 41.5415 12.2854 40.0372 12.2854 38.9831C12.2854 37.9291 12.9837 36.4248 16.3079 35.249C17.2933 34.9006 18.4134 34.6191 19.6234 34.4095C19.2162 33.8106 18.806 33.1927 18.3978 32.5629C12.8147 33.6658 8.92889 36.1254 8.92889 38.9831C8.92889 42.871 16.1243 46.0233 24.9995 46.0233C33.8747 46.0233 41.0701 42.871 41.0701 38.9831V38.9821ZM24.9995 28.7618C19.7611 28.7618 15.5003 24.4058 15.5003 19.0525C15.5003 13.6993 19.7621 9.34328 24.9995 9.34328C30.2369 9.34328 34.4987 13.6993 34.4987 19.0525C34.4987 24.4058 30.2369 28.7618 24.9995 28.7618ZM24.9995 27.9693C29.818 27.9693 33.7233 23.9765 33.7233 19.0525C33.7233 14.1285 29.817 10.1358 24.9995 10.1358C20.182 10.1358 16.2757 14.1285 16.2757 19.0525C16.2757 23.9765 20.182 27.9693 24.9995 27.9693ZM24.9995 26.4151C21.0278 26.4151 17.7962 23.1121 17.7962 19.0525C17.7962 14.993 21.0278 11.69 24.9995 11.69C28.9713 11.69 32.2028 14.993 32.2028 19.0525C32.2028 23.1121 28.9713 26.4151 24.9995 26.4151ZM24.9995 25.6225C28.5494 25.6225 31.4274 22.6809 31.4274 19.0525C31.4274 15.4242 28.5494 12.4825 24.9995 12.4825C21.4496 12.4825 18.5717 15.4242 18.5717 19.0525C18.5717 22.6809 21.4496 25.6225 24.9995 25.6225ZM42.6776 44.5979C47.3994 39.7717 50 33.3544 50 26.5289C50 19.7034 47.3994 13.2861 42.6776 8.45989C37.9568 3.63471 31.6784 0.976562 25.0005 0.976562C18.3226 0.976562 12.0442 3.63471 7.32241 8.46089C2.60064 13.2871 0 19.7044 0 26.5299C0 33.3554 2.60064 39.7727 7.32241 44.5989C12.0442 49.4251 18.3226 52.0832 25.0005 52.0832C31.6784 52.0832 37.9568 49.4251 42.6786 44.5989L42.6776 44.5979ZM49.2246 26.5289C49.2246 40.1819 38.3572 51.2896 24.9995 51.2896C11.6418 51.2896 0.775406 40.1829 0.775406 26.5299C0.775406 12.8768 11.6428 1.76911 25.0005 1.76911C38.3582 1.76911 49.2256 12.8768 49.2256 26.5299L49.2246 26.5289Z" fill="url(#paint0_linear_968_47692)"/>
<defs>
<linearGradient id="paint0_linear_968_47692" x1="20.5" y1="20.9082" x2="23.1111" y2="52.0739" gradientUnits="userSpaceOnUse">
<stop stop-color="#02BAAD"/>
<stop offset="1" stop-color="#81319B"/>
</linearGradient>
</defs>
</svg>
