<svg width="178" height="127" viewBox="0 0 178 127" fill="none" xmlns="http://www.w3.org/2000/svg">
<path fill-rule="evenodd" clip-rule="evenodd" d="M30.3389 33.273C53.6782 26.0525 77.3975 32.4359 93.4856 46.3384C101.532 53.2918 113.999 50.8882 126.694 48.4866C139.378 46.0861 152.293 43.6846 161.243 50.6222C173.461 60.0943 167.865 84.4475 151.109 94.9964C128.334 109.334 43.4886 109.765 29.4101 104.844C5.35452 96.4373 29.2568 80.8679 18.0277 65.9445C4.77999 48.3378 20.0256 36.4631 30.3389 33.273Z" fill="#81319B" fill-opacity="0.15"/>
<path fill-rule="evenodd" clip-rule="evenodd" d="M27.4968 17.0859H142.394C145.744 17.0859 148.484 19.5529 148.484 22.5678V84.8591C148.484 87.874 145.744 90.341 142.394 90.341H27.4968C24.1475 90.341 21.4062 87.874 21.4062 84.8591V22.5678C21.4062 19.5529 24.1475 17.0859 27.4968 17.0859Z" fill="#81319B" fill-opacity="0.15"/>
<path fill-rule="evenodd" clip-rule="evenodd" d="M39.5268 58.3609L62.0804 47.545C62.0495 47.4004 62.0327 47.2494 62.0327 47.0953C62.0327 45.78 63.2178 44.7128 64.6799 44.7128C66.142 44.7128 67.3271 45.7789 67.3271 47.0953C67.3271 47.1734 67.3233 47.2505 67.3156 47.3265L76.1628 50.6707C76.6484 50.1513 77.3763 49.8209 78.1891 49.8209C78.506 49.8209 78.81 49.8716 79.0908 49.9624L89.5483 37.5218C89.2353 37.1302 89.0511 36.6499 89.0511 36.1316C89.0511 34.8152 90.2375 33.749 91.6996 33.749C93.1617 33.749 94.3468 34.8163 94.3468 36.1316C94.3468 36.5253 94.2399 36.8969 94.0518 37.2242L103.972 45.9932C104.346 45.8117 104.775 45.7082 105.229 45.7082C105.528 45.7082 105.816 45.7525 106.083 45.8359L116.598 32.8243C116.267 32.4263 116.071 31.9334 116.071 31.3982C116.071 30.0818 117.256 29.0156 118.718 29.0156C120.18 29.0156 121.365 30.0829 121.365 31.3982C121.365 31.6019 121.337 31.7993 121.284 31.9883L130.482 37.0669C130.948 36.6985 131.559 36.4757 132.228 36.4757C133.691 36.4757 134.876 37.543 134.876 38.8583C134.876 40.1736 133.691 41.2408 132.228 41.2408C130.766 41.2408 129.58 40.1736 129.58 38.8583C129.58 38.6545 129.61 38.4571 129.662 38.2682L120.465 33.1896C119.998 33.558 119.388 33.7818 118.718 33.7818C118.419 33.7818 118.133 33.7374 117.864 33.6551L107.351 46.6667C107.682 47.0647 107.877 47.5587 107.877 48.0929C107.877 49.4092 106.691 50.4754 105.229 50.4754C103.767 50.4754 102.582 49.4082 102.582 48.0929C102.582 47.6991 102.688 47.3275 102.876 47.0003L92.9569 38.2312C92.582 38.4128 92.1543 38.5173 91.6996 38.5173C91.3827 38.5173 91.08 38.4666 90.7979 38.3748L80.3404 50.8153C80.6534 51.2059 80.8363 51.6852 80.8363 52.2045C80.8363 53.5209 79.6512 54.5871 78.1891 54.5871C76.727 54.5871 75.5419 53.5198 75.5419 52.2045C75.5419 52.1275 75.5471 52.0504 75.5548 51.9744L66.7075 48.6291C66.2219 49.1495 65.4941 49.48 64.6799 49.48C63.9534 49.48 63.2938 49.216 62.8159 48.7885L40.2624 59.6044C40.2933 59.7501 40.3101 59.9 40.3101 60.0531C40.3101 61.3694 39.1249 62.4356 37.6616 62.4356C36.1982 62.4356 35.0156 61.3694 35.0156 60.0531C35.0156 58.7367 36.2008 57.6705 37.6616 57.6705C38.3894 57.6705 39.0489 57.9344 39.5268 58.362V58.3609Z" fill="#AEC6E7"/>
<path fill-rule="evenodd" clip-rule="evenodd" d="M33.2344 69.9954H42.0932V85.1942H33.2344V69.9954ZM127.801 47.6489H136.66V85.1953H127.801V47.6489ZM114.291 41.9844H123.15V85.1953H114.291V41.9844ZM100.782 60.4589H109.64V85.1953H100.782V60.4589ZM87.2724 47.0545H96.1312V85.1953H87.2724V47.0545ZM73.7619 62.5532H82.6208V85.1942H73.7619V62.5532ZM60.2527 56.7504H69.1116V85.1953H60.2527V56.7504ZM46.7436 65.0857H55.6024V85.1953H46.7436V65.0857Z" fill="#D0D9EE"/>
<path fill-rule="evenodd" clip-rule="evenodd" d="M142.959 19.6617L150.638 19.3683C149.973 14.751 145.697 11.0404 140.184 10.1875L139.297 16.4463C141.122 16.8949 142.535 18.1247 142.958 19.6628L142.959 19.6617Z" fill="#8D9FCA"/>
<path fill-rule="evenodd" clip-rule="evenodd" d="M143.256 30.2513L139.506 24.7515C138.959 24.9067 138.372 24.9911 137.761 24.9911C135.984 24.9911 134.41 24.2765 133.443 23.1797L126.516 25.9127C128.753 29.1017 132.951 31.2499 137.763 31.2499C139.727 31.2499 141.589 30.8921 143.257 30.2513H143.256Z" fill="#BCC9E7"/>
<path fill-rule="evenodd" clip-rule="evenodd" d="M141.133 24.006L144.187 28.485C147.169 26.8446 149.167 24.0926 149.297 20.9531L143.044 21.1917C142.867 22.3233 142.161 23.3188 141.134 24.006H141.133Z" fill="#AAB9DE"/>
<path fill-rule="evenodd" clip-rule="evenodd" d="M132.637 21.8022C132.51 21.4274 132.442 21.0337 132.442 20.6273C132.442 18.307 134.652 16.409 137.442 16.2728L138.755 7.00865C138.428 6.99282 138.097 6.98438 137.764 6.98438C128.571 6.98438 121.117 13.0922 121.117 20.6273C121.117 22.4767 121.565 24.2396 122.38 25.8484L132.637 21.8022Z" fill="#D0D9EE"/>
<path fill-rule="evenodd" clip-rule="evenodd" d="M90.7698 113.367C42.5942 113.367 3.53906 116.419 3.53906 120.183C3.53906 123.948 42.5929 127.001 90.7698 127.001C138.947 127.001 177.999 123.949 177.999 120.183C177.999 116.418 138.945 113.367 90.7698 113.367Z" fill="#00A99D" fill-opacity="0.15"/>
<path fill-rule="evenodd" clip-rule="evenodd" d="M157.641 97.3888C161.838 97.3888 164.497 96.7723 166.194 95.4169C168.296 93.7374 168.731 91.1374 168.738 87.7499C168.751 80.6265 169.231 79.1539 171.679 74.8026C171.951 74.3202 171.693 73.7491 171.104 73.5264C170.516 73.3037 169.819 73.5137 169.547 73.9972C166.96 78.5944 166.404 80.2845 166.389 87.7456C166.383 91.1796 165.852 93.0027 164.555 94.0382C163.224 95.1002 160.819 95.5383 156.756 95.4559C152.834 95.3757 150.134 94.926 147.965 94.565C145.113 94.09 143.049 93.7458 140.605 94.7043C140.02 94.9334 139.773 95.5077 140.053 95.988C140.332 96.4672 141.033 96.6699 141.618 96.4419C143.353 95.7621 144.825 96.007 147.498 96.4514C149.758 96.8282 152.57 97.2959 156.7 97.3803C157.023 97.3877 157.337 97.3898 157.643 97.3898L157.641 97.3888Z" fill="#9D7558"/>
<path fill-rule="evenodd" clip-rule="evenodd" d="M76.7401 105.758C56.9072 105.758 40.8281 107.381 40.8281 109.383C40.8281 111.384 56.906 113.009 76.7401 113.009C96.5743 113.009 112.652 111.385 112.652 109.383C112.652 107.38 96.573 105.758 76.7401 105.758Z" fill="#D0D9EE"/>
<path fill-rule="evenodd" clip-rule="evenodd" d="M79.6672 58.303C81.5815 59.3956 83.1853 67.5165 83.3398 82.6647C83.5434 88.3471 82.3402 95.8769 80.7828 105.773C79.5127 106.219 77.6487 106.28 76.2317 106.219C74.2569 93.9366 73.9335 86.0954 75.4059 82.8779C73.4968 78.9278 71.893 74.8161 70.6706 70.6221C69.8216 76.4428 68.8194 81.0612 67.6639 84.4782C65.1017 89.9495 61.3067 97.113 56.2777 105.971C55.1157 106.1 53.0482 105.813 51.8438 105.171C53.6021 94.3335 56.963 86.1894 60.1268 83.4923C57.1163 69.6404 59.6218 62.4273 63.3575 58.1953C70.0226 59.0081 75.8091 58.9522 79.6647 58.304L79.6672 58.303Z" fill="#0B2C4C"/>
<path fill-rule="evenodd" clip-rule="evenodd" d="M58.7823 54.0611C53.7957 38.2225 59.2267 32.4535 69.9058 32.3828C70.6104 33.9209 71.8715 35.4927 73.6879 37.0983C74.4363 35.9255 75.2505 35.0324 76.129 34.4191C77.0668 34.9237 78.0072 35.7144 78.9475 36.7911C79.1099 35.1507 78.9218 33.734 78.3833 32.5422C82.226 32.7607 88.2147 34.3199 96.3522 37.2186C100.823 36.012 106.434 34.6566 112.735 33.5598L112.757 33.5736L112.713 33.6675C113.209 34.0803 113.797 35.1253 113.977 35.9572C114.078 35.935 114.142 35.9213 114.215 35.9065L114.321 36.1546C109.06 38.8749 103.941 40.471 96.6511 42.1019C92.0226 42.0713 87.3452 42.2202 82.6317 40.8637C82.5648 52.2539 81.5857 56.9915 79.6689 58.3005C77.832 58.6087 75.5545 58.7829 72.9536 58.7924C72.7836 59.051 72.6573 59.4743 72.5337 59.8808C71.3099 59.5694 69.9625 59.0563 68.4798 58.6615L68.0727 58.5264C63.9853 57.1678 61.1616 55.7818 58.7849 54.0611H58.7823Z" fill="#46CEC4"/>
<path fill-rule="evenodd" clip-rule="evenodd" d="M85.0544 109.657C81.2452 109.803 78.3983 109.911 77.0586 109.639C75.6133 109.346 75.8529 108.622 76.5794 107.448C78.0054 107.829 79.4392 107.732 80.8832 107.154C82.1212 107.871 83.9079 108.303 86.2395 108.448C87.2623 108.989 86.9055 109.537 85.0556 109.658L85.0544 109.657ZM55.4016 110.12C53.2877 109.631 51.4688 109.293 50.7101 108.858C49.6963 108.273 50.245 107.571 51.2782 106.688C52.5071 107.392 53.9138 107.639 55.4995 107.43C56.619 108.732 60.2607 108.184 60.6188 109.078C61.0658 110.741 56.3704 110.346 55.4004 110.121L55.4016 110.12Z" fill="#003D81"/>
<path fill-rule="evenodd" clip-rule="evenodd" d="M74.3776 52.8942C74.7292 48.4342 75.1595 43.0062 75.5898 36.2724C75.1312 36.0824 74.8104 35.7815 74.7022 35.7055C75.1402 35.2083 75.5988 34.7935 76.0754 34.4609C76.6164 34.7512 77.1562 35.1355 77.6959 35.6158C77.5298 35.8058 77.2386 36.0254 76.8226 36.2756C77.2245 40.4199 77.6354 46.0675 78.0579 53.2173C77.8273 53.8802 77.1291 54.5579 76.2261 55.072C75.6361 54.6825 74.6532 53.9636 74.375 52.8932L74.3776 52.8942Z" fill="#003D81"/>
<path fill-rule="evenodd" clip-rule="evenodd" d="M73.6884 37.096C71.872 35.4894 70.6122 33.9186 69.9062 32.3805C70.3017 31.7662 70.9265 31.1507 71.3632 30.9766C73.4758 32.7827 74.8194 33.7919 76.1063 34.4073C76.1153 34.4105 76.1217 34.4147 76.1282 34.4168C76.1449 34.3693 76.1617 34.3208 76.1784 34.2722C76.5185 33.3179 77.0119 32.2127 77.227 31.1127C77.8324 31.4653 78.0514 32.0016 78.3825 32.5389C78.9222 33.7307 79.1103 35.1473 78.9467 36.7878C78.5474 36.3307 78.1481 35.9243 77.7487 35.5706C77.2077 35.0914 76.6679 34.7061 76.1269 34.4158C75.6503 34.7483 75.193 35.1632 74.7537 35.6614C74.384 36.0805 74.0284 36.5587 73.6845 37.095L73.6884 37.096Z" fill="white"/>
<path fill-rule="evenodd" clip-rule="evenodd" d="M66.7672 42.0628C66.6989 41.8126 66.6796 41.5276 66.7079 41.2067C68.4985 41.3355 70.1049 41.2373 71.5167 40.8984C71.6674 41.1328 71.7344 41.384 71.7177 41.6532C70.6304 41.9868 68.979 42.123 66.7672 42.0617V42.0628Z" fill="#5C53A0"/>
<path fill-rule="evenodd" clip-rule="evenodd" d="M71.3859 30.993C71.7131 30.6595 71.99 30.215 72.2142 29.6587C72.0956 29.3621 71.9733 28.9873 71.847 28.5345C69.536 27.1875 69.2397 26.2163 70.9608 25.621C71.2996 25.7846 71.7143 26.2786 72.2013 27.1009C72.6071 27.0946 72.9201 26.9299 73.1391 26.6069C72.6908 25.223 72.4061 24.1019 72.2811 23.2405C73.474 21.8534 76.1831 21.7004 79.7513 22.1427C79.8969 22.926 80.0115 23.7557 80.094 24.6308C80.7149 25.1195 80.5861 26.8898 79.951 28.9198C80.2112 30.0852 79.3198 30.7038 77.2767 30.7735L77.2471 31.1292C77.0333 32.2292 76.5399 33.3344 76.2011 34.2876L76.1277 34.4217C74.8395 33.8073 73.4959 32.7981 71.3846 30.992L71.3859 30.993Z" fill="#F4AE7C"/>
<path fill-rule="evenodd" clip-rule="evenodd" d="M79.7549 22.1413C76.1853 21.699 73.4776 21.852 72.2847 23.2391C72.4096 24.1005 72.6943 25.2216 73.1426 26.6055C72.9249 26.9285 72.6119 27.0932 72.2048 27.0995C71.7166 26.2772 71.3031 25.7821 70.9643 25.6196C69.2433 26.216 69.5383 27.1872 71.8506 28.5331C71.9768 28.9859 72.0992 29.3607 72.2177 29.6573C70.1167 29.233 68.3931 27.6548 68.1612 26.9824C65.8038 22.9636 68.594 21.3327 70.0793 20.7457C70.8303 16.8199 77.7144 20.4238 81.2608 18.5859C82.6095 20.1842 80.8395 22.1254 79.7562 22.1413H79.7549Z" fill="#0B2C4C"/>
<path fill-rule="evenodd" clip-rule="evenodd" d="M74.5794 30.5C75.2325 30.6488 76.5233 30.7945 77.2782 30.7745L77.2485 31.1302C77.2073 31.3434 77.1558 31.5567 77.0952 31.7699C77.0875 31.7678 77.0798 31.7657 77.072 31.7625C75.9037 31.4289 75.0728 31.0078 74.5781 30.5H74.5794Z" fill="#ED7D5B"/>
<path fill-rule="evenodd" clip-rule="evenodd" d="M77.5132 35.8016C77.6008 35.7309 77.6794 35.6559 77.7516 35.5757C76.967 34.8906 76.4067 34.5201 76.073 34.4609C75.8347 34.8125 75.5346 35.3487 75.2087 36C74.9845 35.8554 74.8261 35.7129 74.7578 35.6654C75.179 35.1872 75.617 34.7861 76.073 34.4609C76.5072 34.7491 76.9877 35.1967 77.5119 35.8016H77.5132Z" fill="#1D2A53"/>
<path fill-rule="evenodd" clip-rule="evenodd" d="M55.3999 105.995C55.2337 106.466 55.168 106.955 55.2041 107.461C53.903 107.589 52.7256 107.399 51.6719 106.893C51.972 106.432 52.1962 105.933 52.3456 105.398C53.2563 105.758 54.4389 105.962 55.4012 105.996L55.3999 105.995ZM76.8868 107.521C76.9499 107.08 76.9757 106.653 76.9667 106.238C77.965 106.247 79.0806 106.185 80.0261 105.982C80.133 106.512 80.3237 106.938 80.5968 107.26C79.3524 107.703 78.117 107.79 76.8868 107.522V107.521Z" fill="#F4AE7C"/>
<path fill-rule="evenodd" clip-rule="evenodd" d="M112.711 33.6702C113.181 32.642 113.754 32.0477 114.431 31.8883C115.952 31.333 117.299 30.7092 118.473 30.0156C118.946 30.4896 118.57 30.9826 117.345 31.4935C116.833 31.7257 116.463 31.9538 116.234 32.1797C117.508 32.6726 118.128 33.2944 118.092 34.0449C117.911 34.6234 117.682 34.9559 117.406 35.0415C117.275 35.0816 116.985 35.166 116.707 34.9106C116.015 36.0422 115.12 36.0876 114.413 35.8733C114.214 35.9081 114.15 35.9229 113.975 35.9609C113.796 35.1291 113.208 34.084 112.712 33.6713L112.711 33.6702Z" fill="#F4AE7C"/>
<path fill-rule="evenodd" clip-rule="evenodd" d="M73.6051 46.9345L65.6518 52.5979C67.7542 53.7401 70.4465 55.2591 74.2711 57.4369C74.1216 57.5403 73.9774 57.6533 73.8395 57.7747C73.7391 57.7398 73.6386 57.705 73.5355 57.6712C73.3693 57.8222 73.1993 57.97 73.0434 58.1272C72.867 58.3194 72.7188 58.5315 72.6377 58.7954C72.5668 59.0287 72.5475 59.3 72.608 59.6336C72.5823 59.717 72.5578 59.7994 72.532 59.8827C71.5453 59.6315 70.48 59.2504 69.3283 58.9052C66.6656 58.1082 63.8239 57.0209 61.3442 55.6655L59.3835 57.0611C59.0138 57.3239 58.9739 57.7863 59.2959 58.0882L67.5712 65.8945C67.892 66.1964 68.4575 66.2292 68.8259 65.9663L83.0475 55.8408C83.4172 55.5779 83.4558 55.1155 83.1351 54.8136L74.8585 47.0073C74.5377 46.7054 73.9748 46.6727 73.6051 46.9355V46.9345Z" fill="#8D9FCA"/>
<path fill-rule="evenodd" clip-rule="evenodd" d="M73.2379 46.518L64.4267 51.9366C66.6965 53.141 69.6632 54.81 74.2736 57.4353C74.1241 57.5388 73.9799 57.6517 73.842 57.7731C73.7416 57.7383 73.6411 57.7034 73.538 57.6697C73.3718 57.8206 73.2018 57.9684 73.0459 58.1257C72.8695 58.3178 72.7213 58.53 72.6402 58.7939C72.5693 59.0272 72.55 59.2985 72.6105 59.6321C72.5848 59.7155 72.5603 59.7978 72.5345 59.8812C71.5478 59.63 70.4824 59.2489 69.3308 58.9037C66.1039 57.9378 62.6142 56.5454 59.8253 54.7667L58.1674 55.7864C57.7758 56.0271 57.6959 56.4853 57.9896 56.8062L65.5642 65.077C65.8566 65.3968 66.4182 65.4633 66.8085 65.2226L81.8764 55.9564C82.2668 55.7157 82.3479 55.2565 82.0542 54.9356L74.4797 46.6658C74.1873 46.3449 73.6269 46.2795 73.2353 46.5202L73.2379 46.518Z" fill="#BCC9E7"/>
<path fill-rule="evenodd" clip-rule="evenodd" d="M78.8896 37.4836C78.471 36.9062 77.9956 36.3319 77.5113 35.8009C77.6092 35.7207 77.6878 35.6457 77.7496 35.575C78.1476 35.9276 78.5457 36.333 78.9437 36.7879C78.9334 37.0254 78.9141 37.2577 78.8896 37.4836ZM82.6305 40.8637C82.6498 40.205 82.588 39.276 82.4437 38.0779C82.7748 39.3784 83.4472 40.4583 84.4585 41.3176C83.8504 41.1888 83.2411 41.0379 82.6318 40.8637H82.6305ZM73.6854 37.0993C74.0293 36.5631 74.3849 36.0849 74.7546 35.6658C74.8254 35.7133 74.9813 35.8558 75.2054 36.0004C74.8589 36.6929 74.4815 37.5174 74.1195 38.3861C72.316 36.5272 70.6053 34.1626 69.9046 32.3828C70.6105 33.9209 71.8703 35.4927 73.6854 37.0983V37.0993ZM64.4233 51.9382C64.0485 51.7387 63.6929 51.5529 63.3516 51.3767C64.1039 48.8052 64.6964 45.2129 64.4839 42.1188C65.2774 45.6393 65.3727 48.6299 64.7699 51.0906L65.3045 51.3957L64.4233 51.9382Z" fill="#406FB5"/>
<path fill-rule="evenodd" clip-rule="evenodd" d="M73.5334 57.6719C74.6838 58.0561 75.7388 58.4953 76.6998 58.9893C77.559 60.1737 77.7664 60.73 77.3619 61.3877C76.4653 62.3198 75.0316 62.3145 74.9002 61.6474C75.2918 61.3064 75.1746 60.8419 74.734 60.4513C74.0564 60.5833 73.6159 60.4439 73.411 60.0333C73.1341 59.9679 72.8842 59.9098 72.6587 59.8612C72.4307 59.0146 72.6742 58.5269 73.0413 58.1279C73.1972 57.9706 73.3685 57.8228 73.5334 57.6719Z" fill="#F4AE7C"/>
<path fill-rule="evenodd" clip-rule="evenodd" d="M132.433 43.6719C137.729 43.6719 142.022 45.971 142.022 48.8085C142.022 50.3381 140.774 51.7115 138.793 52.6521C139.776 53.334 141.086 53.8924 142.724 54.3263C139.704 54.5691 137.206 54.3675 135.227 53.7235C134.343 53.8681 133.406 53.9452 132.433 53.9452C127.137 53.9452 122.844 51.645 122.844 48.8085C122.844 45.9721 127.137 43.6719 132.433 43.6719Z" fill="#AEC6E7"/>
<path fill-rule="evenodd" clip-rule="evenodd" d="M138.167 47.8672C137.567 47.8672 137.08 48.2673 137.08 48.7592C137.08 49.2511 137.567 49.6512 138.167 49.6512C138.767 49.6512 139.256 49.2522 139.256 48.7592C139.256 48.2662 138.769 47.8672 138.167 47.8672ZM126.51 47.8672C125.91 47.8672 125.422 48.2673 125.422 48.7592C125.422 49.2511 125.91 49.6512 126.51 49.6512C127.111 49.6512 127.599 49.2522 127.599 48.7592C127.599 48.2662 127.112 47.8672 126.51 47.8672ZM130.397 47.8672C129.795 47.8672 129.308 48.2673 129.308 48.7592C129.308 49.2511 129.795 49.6512 130.397 49.6512C130.998 49.6512 131.485 49.2522 131.485 48.7592C131.485 48.2662 130.997 47.8672 130.397 47.8672ZM134.282 47.8672C133.68 47.8672 133.193 48.2673 133.193 48.7592C133.193 49.2511 133.68 49.6512 134.282 49.6512C134.884 49.6512 135.371 49.2522 135.371 48.7592C135.371 48.2662 134.884 47.8672 134.282 47.8672Z" fill="white"/>
<path fill-rule="evenodd" clip-rule="evenodd" d="M85.848 65.875H103.22L111.133 79.6731H91.9953L84.8342 67.1829C84.4851 66.5738 85.0275 65.875 85.848 65.875Z" fill="#BCC9E7"/>
<path fill-rule="evenodd" clip-rule="evenodd" d="M110.097 79.8739H120.552C121.2 79.8739 121.727 79.4432 121.727 78.9111C121.727 78.3791 121.2 77.9495 120.552 77.9495H110.847L104.286 66.3777C104.013 65.8953 103.313 65.6863 102.726 65.9101C102.138 66.1349 101.883 66.706 102.156 67.1884L109.033 79.3176C109.225 79.6564 109.641 79.8739 110.098 79.8739H110.097Z" fill="#8D9FCA"/>
<path fill-rule="evenodd" clip-rule="evenodd" d="M151.478 43.5538C154.247 43.4926 153.221 41.8046 156.405 42.4792C158.081 42.8339 156.843 43.3976 159.02 43.2139C161.196 43.0302 162.266 42.8465 162.541 44.0098C162.815 45.1742 162.948 45.5415 163.994 45.7252C165.041 45.9089 165.514 47.4417 163.994 48.4815C162.475 49.5234 163.213 49.9519 163.549 50.8091C163.886 51.6673 162.739 51.7286 162.117 52.5245C161.493 53.3215 162.69 53.4714 161.792 54.1618C160.896 54.8522 159.637 54.7899 159.637 54.7899L155.862 48.8573L151.477 43.5538H151.478Z" fill="#0B2C4C"/>
<path fill-rule="evenodd" clip-rule="evenodd" d="M95.0368 114.7C95.0368 114.7 91.0009 114.792 87.8616 113.782C84.7223 112.771 82.5917 111.208 83.152 113.046C83.7137 114.884 86.2913 118.037 88.534 118.343C90.7768 118.65 91.5613 120.672 92.7941 120.672C94.0269 120.672 95.8213 118.343 98.9606 117.179C101.823 116.119 95.0368 114.699 95.0368 114.699V114.7Z" fill="#A63431"/>
<path fill-rule="evenodd" clip-rule="evenodd" d="M126.853 114.461C126.853 114.461 125.154 116.379 122.2 117.713C119.149 119.092 115.629 119.755 117.811 120.378C119.993 121.001 123.185 121.486 126.296 120.745C128.481 120.225 131.041 120.116 131.717 119.271C132.393 118.426 130.921 116.303 131.533 113.131C132.023 110.588 126.853 114.461 126.853 114.461Z" fill="#A63431"/>
<path fill-rule="evenodd" clip-rule="evenodd" d="M145.749 83.625C145.749 83.625 122.369 90.799 120.484 92.8058C118.599 94.8115 94.0234 113.081 94.0234 114.429C94.0234 115.777 98.2087 118.227 98.2087 118.227C98.2087 118.227 119.287 107.63 124.521 102.239C129.755 96.8488 142.525 94.2499 149.315 93.7505C156.104 93.2502 145.75 83.625 145.75 83.625H145.749Z" fill="#0B2C4C"/>
<path fill-rule="evenodd" clip-rule="evenodd" d="M144.851 83.6239C144.851 83.6239 128.854 83.1341 125.416 83.6239C121.977 84.1138 114.436 84.1085 119.368 95.5177C123.237 104.461 124.512 115.782 124.512 115.782L132.201 117.33C132.201 117.33 131.896 96.9713 128.227 91.5506C130.897 91.9117 135.803 92.6147 142.599 94.2087C155.207 97.1634 162.12 95.6834 162.12 95.6834L163.997 90.2923L144.854 83.6239H144.851Z" fill="#0B2C4C"/>
<path fill-rule="evenodd" clip-rule="evenodd" d="M158.21 49.7812L162.118 59.246L157.181 61.9093L154.383 53.7335L158.21 49.7812Z" fill="#F4AE7C"/>
<path fill-rule="evenodd" clip-rule="evenodd" d="M156.739 60.6183L154.383 53.7324L158.21 49.7812L159.64 53.2426C159.147 56.3694 157.954 58.9557 156.739 60.6183Z" fill="#F29F65"/>
<path fill-rule="evenodd" clip-rule="evenodd" d="M148.241 51.3801C148.115 54.2577 149.839 56.749 152.582 56.9707C155.325 57.1924 157.828 55.0484 158.171 52.1813C158.517 49.3153 156.573 46.8135 153.83 46.5907C151.088 46.3701 148.441 46.8378 148.241 51.3801Z" fill="#F4AE7C"/>
<path fill-rule="evenodd" clip-rule="evenodd" d="M163.998 58.9688C175.996 65.6076 168.534 76.338 165.899 84.1792C163.655 90.857 163.729 94.8937 163.392 94.8937C163.056 94.8937 154.805 93.8825 150.096 90.3915C145.386 86.9006 142.203 83.5183 142.203 83.5183C142.203 83.5183 148.236 82.638 150.208 76.2419C151.209 72.9959 150.754 71.2319 153.037 66.0868C155.319 60.9417 163.999 58.9688 163.999 58.9688H163.998Z" fill="#00A99D"/>
<path fill-rule="evenodd" clip-rule="evenodd" d="M163.995 58.9674L162.711 56.3906C162.711 56.3906 158.638 58.5958 157.011 59.6377C155.385 60.6786 154.382 60.9245 154.382 60.9245C154.382 60.9245 153.794 64.6182 154.176 64.2825C158.984 60.0589 163.995 58.9674 163.995 58.9674Z" fill="white"/>
<path fill-rule="evenodd" clip-rule="evenodd" d="M169.31 122.113H168.263L160.75 96.4297H163.055L169.31 122.113Z" fill="#9D7558"/>
<path fill-rule="evenodd" clip-rule="evenodd" d="M137.938 122.107H138.985L147.605 95.5156H145.299L137.938 122.107Z" fill="#9D7558"/>
<path fill-rule="evenodd" clip-rule="evenodd" d="M163.552 68.6364C163.552 68.6364 160.562 76.1092 156.861 79.2032C153.161 82.2972 145.714 83.337 143.383 83.2146C145.242 82.6023 148.782 80.8595 150.205 76.2422C151.206 72.9961 150.751 71.2322 153.034 66.0871C154.728 62.2678 159.948 60.1956 162.525 59.3828C159.307 61.2766 155.284 64.3949 154.049 66.768C152.676 69.4028 163.553 68.6354 163.553 68.6354L163.552 68.6364Z" fill="#01746C"/>
<path fill-rule="evenodd" clip-rule="evenodd" d="M122.308 75.3432C122.308 75.3432 117.15 73.4146 116.591 73.5983C116.031 73.7819 110.312 76.6121 110.312 77.0797C110.312 77.5474 115.357 75.3327 115.357 75.3327C115.357 75.3327 114.797 76.5572 115.132 77.1441C115.467 77.731 119.347 77.731 122.845 77.5474C126.343 77.3637 122.307 75.3422 122.307 75.3422L122.308 75.3432Z" fill="#F4AE7C"/>
<path fill-rule="evenodd" clip-rule="evenodd" d="M163.385 62.8617C168.14 70.8464 151.83 78.942 142.156 79.6609C132.479 80.3819 120.984 77.7861 120.984 77.7861L122.279 75.1935C122.279 75.1935 141.664 73.1202 142.154 72.831C142.645 72.5407 161.643 59.9376 163.384 62.8617H163.385Z" fill="#00A99D"/>
<path fill-rule="evenodd" clip-rule="evenodd" d="M157.205 50.0445C156.764 50.9946 157.088 51.9763 157.926 52.2381C158.765 52.4999 159.803 51.9415 160.244 50.9914C160.684 50.0414 160.361 49.0607 159.522 48.7989C158.684 48.5371 157.645 49.0955 157.205 50.0445Z" fill="#F4AE7C"/>
<path fill-rule="evenodd" clip-rule="evenodd" d="M148.237 43.9724C146.923 43.5237 145.444 43.0424 145.903 44.8707C146.101 45.6677 145.903 45.4428 145.554 46.1776C145.206 46.9123 146.433 47.4897 146.831 47.8972C147.231 48.3068 146.25 48.7501 147.049 49.2399C147.846 49.7297 148.898 49.0584 149.641 49.2399C151.859 49.7815 151.585 48.3521 152.83 48.0555C154.076 47.7578 154.687 47.8043 154.924 48.4567C155.159 49.1101 154.052 51.2604 154.998 51.0556C155.945 50.8508 156.158 52.5873 156.413 53.5669C156.668 54.5465 157.317 52.8903 157.276 51.7692C157.212 50.0496 157.732 49.3275 158.506 48.8462C159.279 48.3648 159.609 43.9903 155.871 43.8267C152.134 43.6631 152.109 43.3675 150.514 43.092C148.92 42.8154 148.838 44.175 148.241 43.9703L148.237 43.9724Z" fill="#0B2C4C"/>
<path fill-rule="evenodd" clip-rule="evenodd" d="M28.309 53.5789C28.5679 53.1387 28.8591 52.3554 29.0033 50.962C28.9814 51.1003 28.6864 52.859 27.862 53.8555C24.4715 55.6785 17.9726 61.7705 18.1027 62.9254C18.1027 62.9254 15.8123 59.7437 15.7737 59.7247C15.7737 59.7247 11.5523 55.3249 16.5556 52.8051C19.0985 51.5236 19.0856 49.88 18.9787 48.4517C18.8718 47.0235 19.673 40.8755 24.7678 42.4853C24.7678 42.4853 25.5858 42.1877 25.9529 42.232C25.9529 42.232 25.6541 42.2784 25.502 42.4072C26.0933 42.3787 26.9384 42.4146 27.6417 42.7429C29.5096 43.6127 31.1804 51.4149 28.3103 53.581L28.309 53.5789Z" fill="#0B2C4C"/>
<path fill-rule="evenodd" clip-rule="evenodd" d="M36.4404 44.2797C38.4333 47.5458 36.7844 51.3059 32.8644 52.635C28.9187 53.9724 24.6059 53.2124 22.6131 49.9463C20.6203 46.6812 22.1004 42.7649 25.9186 41.2004C29.7367 39.6349 34.4489 41.0136 36.4417 44.2797H36.4404Z" fill="#0B2C4C"/>
<path fill-rule="evenodd" clip-rule="evenodd" d="M31.7896 56.9922C34.0594 57.4081 36.9217 62.5733 38.3233 65.8827C39.7377 69.2205 42.1363 73.3607 43.7053 74.6464C45.2756 75.9322 55.5901 78.9154 55.5901 78.9154C55.5901 78.9154 30.1034 78.9555 30.6251 78.9154C31.1481 78.8742 31.7896 56.9943 31.7896 56.9943V56.9922Z" fill="#F1923F"/>
<path fill-rule="evenodd" clip-rule="evenodd" d="M45.3237 77.2481C43.9286 77.0845 38.8957 77.6155 41.0379 76.8797C43.1802 76.145 42.8813 75.2055 42.8813 75.2055C42.8813 75.2055 39.8412 77.2882 39.2937 75.4673C38.821 73.8976 38.6393 68.3534 36.8462 62.7956C35.3635 60.0404 33.4248 57.2842 31.7926 56.9844C31.7926 56.9844 31.736 58.9404 31.6406 61.684C32.2667 67.7549 33.3294 76.6749 33.5987 78.9234C36.9763 78.9276 42.6301 78.9234 47.3603 78.9171L50.5074 78.7946C50.5074 78.7946 46.7188 77.4107 45.3237 77.2481Z" fill="#ED7A15"/>
<path fill-rule="evenodd" clip-rule="evenodd" d="M23.4491 55.8438C23.4491 55.8438 16.234 59.1468 14.5529 59.8498C12.8718 60.5529 19.2651 81.1745 20.6872 82.0581C22.1094 82.9416 34.6267 82.2101 36.0527 81.0964C37.4774 79.9827 34.959 76.5656 36.1931 69.7241C37.4259 62.8816 32.4316 56.9754 31.7888 56.9891C31.1473 57.0018 26.9594 55.8438 26.9594 55.8438H23.4504H23.4491Z" fill="#F1923F"/>
<path fill-rule="evenodd" clip-rule="evenodd" d="M20.6862 82.0547C22.1084 82.9383 31.0651 82.9573 34.8795 81.9861C35.3097 81.8763 37.2639 81.2387 37.3103 80.6381C36.8504 80.5674 35.0237 80.7479 34.2817 80.6075C31.7028 80.1219 30.2819 77.505 30.2819 77.505C30.2819 77.505 28.8623 77.0849 25.6857 75.9828C22.5077 74.8797 23.8178 71.5418 23.7418 70.0713C23.6671 68.6019 20.6025 63.7925 14.8469 60.1484L14.3188 60.3416C13.9091 63.6932 19.3723 81.2366 20.6875 82.0547H20.6862Z" fill="#ED7A15"/>
<path fill-rule="evenodd" clip-rule="evenodd" d="M70.2545 65.875H52.8821L44.9688 79.6731H64.106L71.2683 67.1829C71.6161 66.5738 71.0751 65.875 70.2545 65.875Z" fill="#BCC9E7"/>
<path fill-rule="evenodd" clip-rule="evenodd" d="M46.0112 79.8739H35.5576C34.9084 79.8739 34.3828 79.4432 34.3828 78.9111C34.3828 78.3791 34.9084 77.9495 35.5576 77.9495H45.2628L51.8235 66.3777C52.0966 65.8953 52.7961 65.6863 53.3835 65.9101C53.9722 66.1349 54.226 66.706 53.9529 67.1884L47.0766 79.3176C46.8846 79.6564 46.4686 79.8739 46.0112 79.8739Z" fill="#8D9FCA"/>
<path fill-rule="evenodd" clip-rule="evenodd" d="M27.8818 76.9219C32.4175 77.6165 33.5318 78.4694 36.0038 78.7956C38.8056 79.1661 38.472 79.6739 36.3916 79.6739C34.3112 79.6739 29.0799 79.7404 27.2854 79.4132C25.4897 79.087 27.8818 76.9229 27.8818 76.9229V76.9219Z" fill="#F4AE7C"/>
<path fill-rule="evenodd" clip-rule="evenodd" d="M13.9896 60.2334C10.5141 69.3402 5.58683 79.6737 6.37262 79.6737C7.15841 79.6737 27.115 80.3345 27.8995 79.7835C28.684 79.2335 28.4598 77.1202 28.349 76.8447C28.237 76.5691 17.0027 74.935 17.0027 74.935C17.0027 74.935 18.4815 72.5725 19.0432 67.9552C19.6036 63.3379 14.6505 58.5064 13.9909 60.2334H13.9896Z" fill="#F1923F"/>
<path fill-rule="evenodd" clip-rule="evenodd" d="M26.0961 47.9297L23.2969 56.3145C23.2969 56.3145 28.0258 62.3653 29.3282 61.828C30.6279 61.2897 28.6003 56.9088 28.6003 56.3145C28.6003 55.7202 30.6279 49.5765 30.6279 49.5765L26.0961 47.9307V47.9297Z" fill="#F4AE7C"/>
<path fill-rule="evenodd" clip-rule="evenodd" d="M28.7002 56.741C28.6397 56.5425 28.6023 56.3937 28.6023 56.3135C28.6023 55.7181 30.6299 49.5754 30.6299 49.5754L26.0981 47.9297L25.1719 50.7049C25.9809 53.5709 27.4404 55.4795 28.7002 56.742V56.741Z" fill="#F29F65"/>
<path fill-rule="evenodd" clip-rule="evenodd" d="M36.5677 47.7926C37.1011 50.2237 36.7494 53.4529 34.115 54.2742C31.4807 55.0954 28.3079 53.5247 27.0262 50.7663C25.747 48.008 26.8445 45.1061 29.4802 44.2848C32.1145 43.4635 35.9301 44.8886 36.5677 47.7926Z" fill="#F4AE7C"/>
<path fill-rule="evenodd" clip-rule="evenodd" d="M27.6557 49.1641C28.0254 50.0139 27.7059 50.8837 26.9407 51.1075C26.1756 51.3303 25.2558 50.8225 24.8874 49.9727C24.519 49.1219 24.8384 48.2531 25.6036 48.0293C26.3688 47.8055 27.2886 48.3143 27.657 49.1641H27.6557Z" fill="#F4AE7C"/>
<path fill-rule="evenodd" clip-rule="evenodd" d="M36.6043 44.7355C35.7078 50.4401 27.2495 49.7054 27.2495 49.7054C27.2495 49.7054 25.5053 47.8264 24.7195 48.8123C23.935 49.7972 25.8081 43.0286 30.6619 42.8143C32.258 42.7446 36.6056 44.7355 36.6056 44.7355H36.6043Z" fill="#0B2C4C"/>
<path fill-rule="evenodd" clip-rule="evenodd" d="M14.2969 121.13H15.3455L22.1097 95.4453H19.8052L14.2969 121.13Z" fill="#9D7558"/>
<path fill-rule="evenodd" clip-rule="evenodd" d="M46.8647 121.131H45.8174L37.9453 94.5391H40.2486L46.8647 121.131Z" fill="#9D7558"/>
<path fill-rule="evenodd" clip-rule="evenodd" d="M26.251 96.4062C22.0541 96.4062 19.3953 95.7887 17.7001 94.4343C15.5978 92.7559 15.1623 90.1548 15.1559 86.7673C15.1508 84.1008 15.0735 82.3633 14.897 80.9593C14.83 80.4315 15.3002 79.9575 15.9443 79.9037C16.5897 79.8488 17.1668 80.233 17.2325 80.7619C17.4167 82.2345 17.4978 84.029 17.503 86.7631C17.5094 90.197 18.0414 92.0212 19.3386 93.0567C20.6693 94.1187 23.0744 94.5568 27.136 94.4734C31.0585 94.3931 33.7586 93.9445 35.9279 93.5835C38.7825 93.1085 40.8436 92.7643 43.2873 93.7228C43.8721 93.9519 44.1207 94.5262 43.8412 95.0054C43.5617 95.4847 42.8609 95.6873 42.2748 95.4583C40.5409 94.7795 39.0672 95.0244 36.3955 95.4688C34.1347 95.8457 31.3239 96.3133 27.1927 96.3978C26.8707 96.4041 26.5563 96.4073 26.2497 96.4073L26.251 96.4062Z" fill="#9D7558"/>
<path fill-rule="evenodd" clip-rule="evenodd" d="M16.7196 79.7891L23.1438 80.0086L21.4344 94.5414C21.4344 94.5414 16.6449 92.0364 16.7196 89.3414C16.7956 86.6464 16.7196 79.7891 16.7196 79.7891Z" fill="#9D7558"/>
<path fill-rule="evenodd" clip-rule="evenodd" d="M48.4269 81.1375C53.8591 80.4619 55.7051 80.6752 59.0286 85.7453C62.3521 90.8144 66.7771 99.9424 69.3212 101.122C73.1536 102.897 74.4237 107.248 75.9966 107.054C77.5695 106.859 78.5833 107.428 76.8713 108.594C75.158 109.76 72.3935 110.753 71.4493 110.546C70.5038 110.339 69.7695 106.991 67.3001 105.906C64.8319 104.818 65.5739 103.925 65.7349 102.964C65.8972 102.002 58.5275 97.5757 52.9716 92.0706C49.5772 88.7063 47.8292 86.4864 47.5702 84.4744C47.3113 82.4623 48.4269 81.1375 48.4269 81.1375Z" fill="#F4AE7C"/>
<path fill-rule="evenodd" clip-rule="evenodd" d="M61.8926 99.5211C60.6315 96.8989 59.3665 92.5698 58.1762 88.6017C56.4848 82.9573 54.7123 81.6177 53.5877 81.016C52.2299 80.7362 50.6223 80.865 48.4272 81.1374C48.4272 81.1374 47.3103 82.4622 47.5706 84.4742C47.8295 86.4862 49.5788 88.7062 52.9719 92.0705C55.8974 94.9692 59.3252 97.5682 61.8926 99.5211Z" fill="#F29F65"/>
<path fill-rule="evenodd" clip-rule="evenodd" d="M50.0774 85.6002C50.0774 85.6002 48.6321 94.536 47.2859 95.4439C46.3236 96.0941 45.6422 96.1364 44.9685 93.472C44.296 90.8065 46.0158 80.8594 46.0158 80.8594L50.0774 85.6002Z" fill="#142D4D"/>
<path fill-rule="evenodd" clip-rule="evenodd" d="M48.9299 90.4364L35.5547 92.2784L43.1047 83.4049L48.8513 82.4453L52.2985 83.0956L48.9299 90.4364Z" fill="#F19651"/>
<path fill-rule="evenodd" clip-rule="evenodd" d="M65.7346 102.97C65.3005 104.402 65.3533 105.46 66.1069 105.991C66.8605 106.521 69.7061 110.463 69.7061 110.463L70.5936 110.352L68.5403 106.745L65.7346 102.969V102.97Z" fill="#003D81"/>
<path fill-rule="evenodd" clip-rule="evenodd" d="M71.4458 110.547C72.3913 110.754 75.1558 109.761 76.8678 108.596C78.5798 107.429 77.566 106.859 75.9931 107.055C75.9055 107.066 75.8166 107.062 75.7303 107.045C74.9445 108.483 72.3604 109.563 71.5257 108.042C70.6974 106.537 67.1574 103.539 65.7301 102.898C65.734 102.922 65.7353 102.945 65.7301 102.965C65.5691 103.927 64.8258 104.819 67.2953 105.907C69.7647 106.993 70.4977 110.342 71.4445 110.547H71.4458Z" fill="#003D81"/>
<path fill-rule="evenodd" clip-rule="evenodd" d="M21.1295 81.4986C16.3838 88.4773 19.6249 92.912 25.3934 93.3638C31.1606 93.8156 40.2654 92.9532 45.5728 89.3387C50.8814 85.7253 55.238 81.9029 54.6287 81.3339C54.0194 80.7639 21.1295 81.4986 21.1295 81.4986Z" fill="#F29F65"/>
<path fill-rule="evenodd" clip-rule="evenodd" d="M48.0396 86.7092C49.0109 84.3204 50.1303 82.4878 52.2996 82.454C54.5797 82.4192 55.9825 83.3914 56.0804 86.4485C56.1963 90.0894 56.3535 102.146 56.1474 107.506C55.9915 111.564 57.4356 112.863 57.3119 117.093C57.2205 120.279 61.3658 118.669 59.7646 120.323C58.6632 121.459 55.3861 121.087 53.3726 120.878C51.5795 120.691 54.3014 116.286 51.8191 115.108C49.6884 114.097 49.6459 112.456 50.9921 111.214C52.3369 109.972 51.1415 106.296 50.2449 103.724C49.3484 101.15 47.9558 98.3676 47.0425 92.284C46.7823 90.5496 47.4457 88.1692 48.0383 86.7092H48.0396Z" fill="#F4AE7C"/>
<path fill-rule="evenodd" clip-rule="evenodd" d="M58.3432 119.018C57.6553 119.19 56.809 119.379 56.0722 119.399C54.5766 119.439 54.1283 118.092 54.0291 116.262C53.9415 114.663 52.5245 112.146 51.0727 111.125C51.0457 111.154 51.0186 111.182 50.989 111.209C49.6428 112.451 49.6853 114.092 51.816 115.103C54.2983 116.281 51.5764 120.686 53.3695 120.873C55.383 121.082 58.6601 121.454 59.7615 120.318C60.8024 119.244 59.5103 119.158 58.3432 119.017V119.018Z" fill="#003D81"/>
<path fill-rule="evenodd" clip-rule="evenodd" d="M51.3299 110.758C51.3299 110.758 49.1503 112.623 49.3487 113.399C49.5484 114.176 50.2195 116.135 50.3316 117.647C50.4437 119.157 50.5441 120.893 50.5441 120.893C50.5441 120.893 51.3286 120.893 51.3905 120.709C51.4536 120.528 51.889 114.568 51.889 114.568L51.3286 110.758H51.3299Z" fill="#003D81"/>
<path fill-rule="evenodd" clip-rule="evenodd" d="M18.8461 80.8594C18.8461 80.8594 16.0314 90.6492 19.5881 93.3622C23.1435 96.0762 37.9112 93.6356 41.3906 93.472C43.7454 93.3622 46.0242 95.7173 46.0242 95.7173C46.0242 95.7173 44.3792 90.2555 45.5012 85.8461C46.6219 81.4357 48.4318 81.1391 48.4318 81.1391L46.0242 80.8604H18.8461V80.8594Z" fill="#0B2C4C"/>
<path fill-rule="evenodd" clip-rule="evenodd" d="M18.2041 78.3047C19.4073 80.3969 16.9082 84.0114 17.7842 85.0522C18.6601 86.0941 23.675 85.1979 26.9612 83.0307C30.2461 80.8625 36.4654 80.3874 36.4654 80.3874L18.2041 78.3047Z" fill="#F1923F"/>
<path fill-rule="evenodd" clip-rule="evenodd" d="M23.2956 96.1423C33.2366 96.4474 43.7018 96.3039 43.7018 95.0888C43.7018 93.8738 43.2522 93.0177 35.554 93.5075C27.8545 93.9973 22.6219 94.6719 20.3045 94.2422C17.987 93.8136 23.2943 96.1413 23.2943 96.1413L23.2956 96.1423Z" fill="#9D7558"/>
<path fill-rule="evenodd" clip-rule="evenodd" d="M15.9964 33.1094C19.7141 33.1094 22.7284 34.7234 22.7284 36.7143C22.7284 37.789 21.8525 38.7527 20.4625 39.4136C21.1517 39.8918 22.0715 40.2834 23.2218 40.5885C21.1015 40.7584 19.347 40.618 17.9583 40.1652C17.3387 40.2665 16.6804 40.3214 15.9977 40.3214C12.28 40.3214 9.26562 38.7063 9.26562 36.7154C9.26562 34.7245 12.2787 33.1104 15.9977 33.1104L15.9964 33.1094Z" fill="#AEC6E7"/>
<path fill-rule="evenodd" clip-rule="evenodd" d="M20.0259 36.0469C19.6033 36.0469 19.262 36.3266 19.262 36.6729C19.262 37.0191 19.6033 37.2988 20.0259 37.2988C20.4484 37.2988 20.7885 37.018 20.7885 36.6729C20.7885 36.3277 20.4471 36.0469 20.0259 36.0469ZM11.842 36.0469C11.4208 36.0469 11.0781 36.3266 11.0781 36.6729C11.0781 37.0191 11.4208 37.2988 11.842 37.2988C12.2633 37.2988 12.6059 37.018 12.6059 36.6729C12.6059 36.3277 12.2645 36.0469 11.842 36.0469ZM14.5704 36.0469C14.1492 36.0469 13.8065 36.3266 13.8065 36.6729C13.8065 37.0191 14.1492 37.2988 14.5704 37.2988C14.9916 37.2988 15.3343 37.018 15.3343 36.6729C15.3343 36.3277 14.9916 36.0469 14.5704 36.0469ZM17.2975 36.0469C16.875 36.0469 16.5336 36.3266 16.5336 36.6729C16.5336 37.0191 16.875 37.2988 17.2975 37.2988C17.72 37.2988 18.0614 37.018 18.0614 36.6729C18.0614 36.3277 17.72 36.0469 17.2975 36.0469Z" fill="white"/>
<path fill-rule="evenodd" clip-rule="evenodd" d="M1.14391 81.8965H149.364C149.996 81.8965 150.509 81.4985 150.509 81.0098V80.5664C150.509 80.0766 149.995 79.6797 149.364 79.6797H1.14391C0.512697 79.6797 0 80.0766 0 80.5664V81.0098C0 81.4996 0.512697 81.8965 1.14391 81.8965Z" fill="#9D7558"/>
<path fill-rule="evenodd" clip-rule="evenodd" d="M23.9402 12.0469H56.128C56.919 12.0469 57.5669 12.5768 57.5669 13.226V30.306C57.5669 30.9552 56.919 31.4851 56.128 31.4851H23.9402C23.148 31.4851 22.5 30.9552 22.5 30.306V13.2271C22.5 12.5779 23.148 12.0479 23.9402 12.0479V12.0469Z" fill="#D0D9EE"/>
<path d="M24.167 12.9375H55.9078C56.2247 12.9375 56.4811 13.1476 56.4811 13.4073V30.122C56.4811 30.3817 56.2247 30.5918 55.9078 30.5918H24.167C23.8501 30.5918 23.5938 30.3817 23.5938 30.122V13.4073C23.5938 13.1476 23.8501 12.9375 24.167 12.9375Z" fill="#E9EFF8"/>
<path fill-rule="evenodd" clip-rule="evenodd" d="M25.7344 14.7266H27.3382V28.4835H25.7344V14.7266ZM52.7334 14.7266H54.3372V28.4835H52.7334V14.7266ZM50.0334 14.7266H51.6372V28.4835H50.0334V14.7266ZM47.3334 14.7266H48.9372V28.4835H47.3334V14.7266ZM44.6333 14.7266H46.2371V28.4835H44.6333V14.7266ZM41.9333 14.7266H43.5371V28.4835H41.9333V14.7266ZM39.2333 14.7266H40.837V28.4835H39.2333V14.7266ZM36.5332 14.7266H38.137V28.4835H36.5332V14.7266ZM33.8332 14.7266H35.437V28.4835H33.8332V14.7266ZM31.1332 14.7266H32.7369V28.4835H31.1332V14.7266ZM28.4344 14.7266H30.0382V28.4835H28.4344V14.7266Z" fill="white"/>
<path fill-rule="evenodd" clip-rule="evenodd" d="M25.7344 22.3999H27.3382V28.4803H25.7344V22.3999ZM52.7334 16.8125H54.3372V28.4803H52.7334V16.8125ZM50.0334 19.3006H51.6372V28.4803H50.0334V19.3006ZM47.3334 18.4561H48.9372V28.4803H47.3334V18.4561ZM44.6333 21.6019H46.2371V28.4803H44.6333V21.6019ZM41.9333 20.0047H43.5371V28.4803H41.9333V20.0047ZM39.2333 24.8416H40.837V28.4803H39.2333V24.8416ZM36.5332 22.5403H38.137V28.4803H36.5332V22.5403ZM33.8332 18.8309H35.437V28.4803H33.8332V18.8309ZM31.1332 20.8978H32.7369V28.4803H31.1332V20.8978ZM28.4344 23.4798H30.0382V28.4803H28.4344V23.4798Z" fill="#D0D9EE"/>
<path fill-rule="evenodd" clip-rule="evenodd" d="M90.1225 3.39062C95.7171 3.39062 100.251 7.10748 100.251 11.6921C100.251 16.2766 95.7171 19.9935 90.1225 19.9935C84.5279 19.9935 79.9922 16.2766 79.9922 11.6921C79.9922 7.10748 84.5279 3.39062 90.1225 3.39062Z" fill="#D0D9EE"/>
<path fill-rule="evenodd" clip-rule="evenodd" d="M90.1164 4.60938C94.8866 4.60938 98.755 7.77836 98.755 11.6884C98.755 15.5984 94.8878 18.7674 90.1164 18.7674C85.345 18.7674 81.4766 15.5984 81.4766 11.6884C81.4766 7.77836 85.345 4.60938 90.1164 4.60938Z" fill="white"/>
<path fill-rule="evenodd" clip-rule="evenodd" d="M90.1203 5.10156C94.5619 5.10156 98.1637 8.05203 98.1637 11.6929C98.1637 15.3337 94.5632 18.2831 90.1203 18.2831C85.6773 18.2831 82.0781 15.3327 82.0781 11.6929C82.0781 8.05309 85.6786 5.10156 90.1203 5.10156Z" fill="#BCC9E7"/>
<path fill-rule="evenodd" clip-rule="evenodd" d="M92.5674 8.28742C92.1552 8.1143 91.5691 7.94012 90.7704 7.92006V6.83594H89.5479V8.00135C88.2249 8.24731 87.4392 9.02319 87.4392 10.026C87.4392 11.0289 88.301 11.5905 89.5106 12.0602C90.6583 12.4687 91.0693 12.8065 91.0693 13.328C91.0693 13.8495 90.6326 14.238 89.7347 14.238C88.9476 14.238 88.2134 14.0131 87.7264 13.7777L87.3516 14.9231C87.8269 15.1479 88.6359 15.3527 89.4358 15.3728V16.5382H90.6596V15.2915C92.0689 15.0666 92.892 14.2274 92.892 13.1855C92.892 12.1436 92.2183 11.5493 90.7459 11.0078C89.7592 10.6087 89.2246 10.3227 89.2246 9.85291C89.2246 9.45389 89.6484 9.0348 90.4844 9.0348C91.2084 9.0348 91.819 9.25015 92.1938 9.40216L92.5687 8.28742H92.5674Z" fill="white"/>
<path fill-rule="evenodd" clip-rule="evenodd" d="M107.395 12.9141C111.054 12.9141 114.022 15.3462 114.022 18.3452C114.022 21.3443 111.054 23.7764 107.395 23.7764C103.735 23.7764 100.766 21.3453 100.766 18.3452C100.766 15.3452 103.734 12.9141 107.395 12.9141Z" fill="#D0D9EE"/>
<path fill-rule="evenodd" clip-rule="evenodd" d="M107.395 13.7109C110.516 13.7109 113.046 15.7842 113.046 18.343C113.046 20.9018 110.516 22.9751 107.395 22.9751C104.273 22.9751 101.742 20.9018 101.742 18.343C101.742 15.7842 104.272 13.7109 107.395 13.7109Z" fill="white"/>
<path fill-rule="evenodd" clip-rule="evenodd" d="M107.395 14.0312C110.301 14.0312 112.657 15.962 112.657 18.3435C112.657 20.725 110.301 22.6557 107.395 22.6557C104.489 22.6557 102.133 20.725 102.133 18.3435C102.133 15.962 104.488 14.0312 107.395 14.0312Z" fill="#BCC9E7"/>
<path fill-rule="evenodd" clip-rule="evenodd" d="M108.991 16.1209C108.721 16.0069 108.337 15.8939 107.816 15.8802V15.1719H107.016V15.934C106.15 16.0945 105.636 16.6022 105.636 17.2588C105.636 17.9154 106.199 18.2817 106.99 18.59C107.741 18.8581 108.01 19.0787 108.01 19.4197C108.01 19.7607 107.724 20.0151 107.138 20.0151C106.623 20.0151 106.141 19.8673 105.823 19.7142L105.578 20.4637C105.889 20.6115 106.418 20.7445 106.941 20.7572V21.5204H107.741V20.7044C108.663 20.5566 109.202 20.0087 109.202 19.3258C109.202 18.6428 108.761 18.2554 107.798 17.9017C107.154 17.641 106.802 17.4531 106.802 17.1459C106.802 16.8852 107.079 16.6107 107.626 16.6107C108.1 16.6107 108.5 16.7511 108.744 16.8514L108.991 16.1219V16.1209Z" fill="white"/>
<path fill-rule="evenodd" clip-rule="evenodd" d="M110.512 0C114.172 0 117.14 2.4311 117.14 5.43119C117.14 8.43127 114.172 10.8624 110.512 10.8624C106.852 10.8624 103.883 8.43127 103.883 5.43119C103.883 2.4311 106.852 0 110.512 0Z" fill="#D0D9EE"/>
<path fill-rule="evenodd" clip-rule="evenodd" d="M110.512 0.796875C113.633 0.796875 116.163 2.87012 116.163 5.4279C116.163 7.98567 113.633 10.0589 110.512 10.0589C107.391 10.0589 104.859 7.98567 104.859 5.4279C104.859 2.87012 107.389 0.796875 110.512 0.796875Z" fill="white"/>
<path fill-rule="evenodd" clip-rule="evenodd" d="M110.512 1.11719C113.418 1.11719 115.774 3.04792 115.774 5.42941C115.774 7.8109 113.418 9.74164 110.512 9.74164C107.606 9.74164 105.25 7.8109 105.25 5.42941C105.25 3.04792 107.605 1.11719 110.512 1.11719Z" fill="#BCC9E7"/>
<path fill-rule="evenodd" clip-rule="evenodd" d="M112.109 3.20787C111.84 3.09387 111.456 2.97986 110.934 2.96719V2.25781H110.133V3.02103C109.267 3.18148 108.753 3.68924 108.753 4.34584C108.753 5.00243 109.318 5.36874 110.108 5.67698C110.859 5.94511 111.129 6.16468 111.129 6.5067C111.129 6.84872 110.843 7.10207 110.255 7.10207C109.741 7.10207 109.26 6.95428 108.941 6.80122L108.695 7.54966C109.007 7.69639 109.537 7.83045 110.06 7.84418V8.60739H110.859V7.79034C111.782 7.64361 112.32 7.09468 112.32 6.41275C112.32 5.73082 111.88 5.34235 110.916 4.98766C110.272 4.72797 109.92 4.53902 109.92 4.23183C109.92 3.97109 110.197 3.69663 110.745 3.69663C111.219 3.69663 111.618 3.83703 111.863 3.93731L112.108 3.20787H112.109Z" fill="white"/>
</svg>
