<svg width="50" height="50" viewBox="0 0 50 50" fill="none" xmlns="http://www.w3.org/2000/svg">
<g clip-path="url(#clip0_968_47683)">
<rect width="50" height="50" fill="white"/>
<path d="M42.2728 7.10507C32.4642 -2.36836 16.9137 -2.36836 7.10513 7.10507C-2.60619 17.16 -2.32767 33.1835 7.72722 42.8948C17.5358 52.3683 33.0863 52.3683 42.8949 42.8948C52.6062 32.84 52.3277 16.8164 42.2728 7.10507ZM41.7053 41.7052L41.6969 41.6968C32.467 50.9182 17.5094 50.9114 8.28802 41.6816C-0.933389 32.4518 -0.926566 17.4942 8.30325 8.27284C17.5331 -0.948569 32.4907 -0.941747 41.7121 8.28797C46.1414 12.7213 48.6277 18.733 48.6237 25C48.6241 31.2655 46.1355 37.2746 41.7053 41.7052Z" fill="url(#paint0_linear_968_47683)"/>
<path d="M39.2197 32.2047L34.4782 27.4799C33.4021 26.4012 31.6552 26.3992 30.5765 27.4753C30.5749 27.4768 30.5735 27.4783 30.5719 27.4799L27.8552 30.1966C27.6496 30.4026 27.3257 30.4311 27.0875 30.2641C25.6005 29.225 24.2086 28.056 22.928 26.7712C21.7811 25.6269 20.7261 24.3941 19.7726 23.0842C19.5998 22.8489 19.6249 22.5226 19.8316 22.3165L22.6158 19.5323C23.6907 18.4553 23.6907 16.7114 22.6158 15.6344L17.8743 10.8928C16.7816 9.84823 15.0606 9.84823 13.968 10.8928L12.4662 12.3946C10.1982 14.6371 9.38854 17.9668 10.3738 21.0003C11.109 23.2197 12.1482 25.3264 13.4617 27.2605C14.6442 29.0337 16.0008 30.6842 17.5115 32.1878C19.1538 33.8419 20.9731 35.3102 22.9365 36.5666C25.0948 37.975 27.4646 39.0288 29.956 39.6882C30.5965 39.8461 31.2538 39.9254 31.9134 39.9244C34.1746 39.9106 36.338 39.0004 37.929 37.3933L39.2198 36.1025C40.2947 35.0256 40.2947 33.2817 39.2197 32.2047ZM38.025 34.9518C38.0239 34.9529 38.0228 34.9541 38.0216 34.9552L38.03 34.9298L36.7392 36.2207C35.0806 37.9002 32.6651 38.5912 30.3692 38.0431C28.0561 37.424 25.8572 36.4384 23.8559 35.1239C21.9965 33.9356 20.2734 32.5465 18.7177 30.9813C17.2864 29.5605 16.0004 28.0003 14.8789 26.3241C13.6521 24.5205 12.681 22.5557 11.9934 20.4857C11.2051 18.0538 11.8583 15.3854 13.6808 13.5927L15.1826 12.0909C15.6001 11.6715 16.2786 11.67 16.6979 12.0876C16.699 12.0887 16.7002 12.0897 16.7012 12.0909L21.4428 16.8325C21.8622 17.25 21.8637 17.9285 21.4462 18.3478C21.4451 18.3489 21.444 18.35 21.4428 18.3511L18.6586 21.1354C17.8597 21.9255 17.7593 23.1812 18.4224 24.0883C19.4294 25.4704 20.5438 26.7708 21.755 27.9778C23.1055 29.3341 24.5737 30.568 26.1422 31.6648C27.0486 32.297 28.2774 32.1904 29.0614 31.4117L31.7528 28.6781C32.1703 28.2587 32.8488 28.2572 33.2681 28.6748C33.2692 28.6759 33.2703 28.6769 33.2714 28.6781L38.0215 33.4366C38.441 33.854 38.4425 34.5324 38.025 34.9518Z" fill="url(#paint1_linear_968_47683)"/>
</g>
<defs>
<linearGradient id="paint0_linear_968_47683" x1="25" y1="0" x2="25.5" y2="48" gradientUnits="userSpaceOnUse">
<stop offset="0.464472" stop-color="#02BAAD"/>
<stop offset="1" stop-color="#81319B"/>
</linearGradient>
<linearGradient id="paint1_linear_968_47683" x1="24.9934" y1="10.1094" x2="24.9934" y2="39.9244" gradientUnits="userSpaceOnUse">
<stop stop-color="#0B2C4C"/>
<stop offset="1" stop-color="#02BAAD"/>
</linearGradient>
<clipPath id="clip0_968_47683">
<rect width="50" height="50" fill="white"/>
</clipPath>
</defs>
</svg>
