<svg width="180" height="111" viewBox="0 0 180 111" fill="none" xmlns="http://www.w3.org/2000/svg">
<path d="M31.1711 105.15C31.1711 105.15 8.88125 92.0572 2.4661 69.7758C-3.94906 47.491 5.84507 20.4705 24.4172 6.82227C42.9934 -6.82596 76.4281 2.36598 91.2866 13.7861L106.145 25.2062C106.145 25.2062 120.33 31.6112 138.907 31.0559C157.483 30.4972 174.031 51.3885 178.422 67.8236C182.813 84.2587 172.341 105.985 172.341 105.985L31.1711 105.15Z" fill="#00A99D" fill-opacity="0.15"/>
<g style="mix-blend-mode:multiply">
<path d="M21.0451 108.492C21.0451 108.492 5.50915 101.528 1.45683 85.3725C-2.59549 69.2168 14.9646 54.4545 16.6541 46.3766C18.3435 38.2987 14.6259 28.2721 30.1618 20.4702C45.6977 12.6717 73.3906 15.4552 83.8622 13.5064C94.3338 11.5576 106.491 -1.81459 127.43 1.25163C148.369 4.31449 168.635 13.5064 169.647 33.5631C170.659 53.6198 162.893 54.1751 170.659 65.0399C178.425 75.9046 181.465 83.4237 177.751 94.5645C174.038 105.705 166.268 108.771 166.268 108.771L21.0451 108.492Z" fill="#00A99D" fill-opacity="0.15"/>
</g>
<g style="mix-blend-mode:multiply">
<path d="M53.4819 104.869C52.5148 104.034 38.3419 80.6352 54.1267 59.1884C69.9116 37.7417 109.533 40.2458 125.318 48.6031C141.103 56.9603 148.832 67.8216 150.444 79.2417C152.056 90.6618 141.425 108.49 141.425 108.49L53.4819 104.869Z" fill="#DDECFF"/>
</g>
<path d="M164.617 54.6172H146.408C145.281 54.6172 144.367 55.3706 144.367 56.3001V63.799C144.367 64.7285 145.281 65.4819 146.408 65.4819H164.617C165.743 65.4819 166.657 64.7285 166.657 63.799V56.3001C166.657 55.3706 165.743 54.6172 164.617 54.6172Z" fill="#81319B"/>
<path d="M155.51 69.727L158.399 64.0859H152.625L155.51 69.727Z" fill="#81319B"/>
<path d="M155.445 58.1791H160.657V58.8085L163.211 57.59L160.657 56.375V57.0044H155.445V58.1791Z" fill="#0B2C4C"/>
<path d="M163.211 60.6528H158V60.0234L155.445 61.2385L158 62.4535V61.8241H163.211V60.6528Z" fill="white"/>
<path d="M152.244 61.7583L151.995 61.8324C151.995 61.8324 151.219 61.1054 150.819 60.311C150.419 59.5167 150.403 58.5507 150.403 58.5507L150.583 58.4868L149.481 56.3125C149.285 56.4404 149.097 56.602 148.946 56.814C148.322 57.6824 148.383 59.0186 149.011 60.3211C149.64 61.6237 150.309 62.7883 151.533 63.5186C152.256 63.9494 152.876 64.0269 153.354 63.9629L152.239 61.7617L152.244 61.7583Z" fill="#0B2C4C"/>
<path d="M153.03 61.5083L152.688 61.6126L153.814 63.8407C153.94 63.8071 154.055 63.7633 154.157 63.7196C154.446 63.5883 154.577 63.2989 154.455 63.0431L153.867 61.8179C153.736 61.5453 153.365 61.4107 153.034 61.5083H153.03Z" fill="#0B2C4C"/>
<path d="M150.347 55.9311C150.208 55.9715 150.057 56.0287 149.906 56.1027L151.033 58.3241L151.412 58.1929C151.743 58.0784 151.898 57.7722 151.771 57.4962L151.179 56.2441C151.053 55.9715 150.682 55.8301 150.351 55.9311H150.347Z" fill="#0B2C4C"/>
<path d="M48.2094 101.113V76.0445C48.2094 76.0445 47.8707 69.2894 52.176 67.3406C56.4813 65.3919 74.6331 66.4352 74.6331 66.4352V101.113H48.2053H48.2094Z" fill="#81319B"/>
<path d="M80.3139 42.9643C80.3139 42.9643 79.2161 50.5541 78.7958 51.1802L78.3754 51.8062L76.2656 52.991C76.2656 52.991 80.3179 57.7266 85.3007 58.4906C90.2835 59.258 89.8591 56.8178 89.8591 56.8178L89.1 55.4951L90.1121 48.2519C90.1121 48.2519 81.077 44.839 80.3179 42.9609L80.3139 42.9643Z" fill="#FF9D8C"/>
<path d="M73.6406 53.6223L76.9339 52.4375C76.9339 52.4375 79.0437 55.2917 83.9408 56.9645C88.8379 58.6373 88.9236 57.6612 89.1766 56.9645C89.4296 56.2678 89.0909 55.5037 89.0909 55.5037L89.4541 53.0669L91.4129 53.6054L98.2117 98.9593L80.7332 99.656L73.6406 53.6256V53.6223Z" fill="white"/>
<path d="M89.7697 53.1049C89.7697 53.1049 90.9532 55.3566 92.0509 60.6476C93.1487 65.9386 94.1607 74.8546 94.4138 80.9803C94.6668 87.106 94.8341 101.104 94.8341 101.104H116.871C117.124 101.104 118.642 94.2112 118.642 94.2112C118.642 94.2112 109.015 87.4089 108.509 86.2949C108.17 85.551 108.342 71.7884 106.905 65.4506C105.469 59.1128 103.612 57.8372 99.7271 56.2587C95.7115 54.6263 89.7656 53.1016 89.7656 53.1016L89.7697 53.1049Z" fill="#0B2C4C"/>
<path d="M101.253 93.1332C101.139 93.1332 101.049 93.0592 101.049 92.9649C101.049 92.4668 100.943 85.3919 100.837 78.5527C100.735 71.71 100.625 64.6352 100.625 64.137C100.625 64.0428 100.715 63.9688 100.829 63.9688C100.943 63.9688 101.033 64.0428 101.033 64.137C101.033 64.6352 101.139 71.71 101.245 78.5493C101.347 85.3919 101.457 92.4668 101.457 92.9649C101.457 93.0592 101.368 93.1332 101.253 93.1332Z" fill="#8593B6"/>
<path d="M57.347 91.4314L57.1797 101.111H82.8485C82.8485 101.111 83.9462 92.8955 83.5259 92.1281C83.1056 91.3607 57.3511 91.4314 57.3511 91.4314H57.347Z" fill="#0B2C4C"/>
<g style="mix-blend-mode:multiply">
<path d="M85.9086 50.975C86.9533 51.6717 88.3857 52.2271 89.4998 52.567L90.1038 48.2588C90.1038 48.2588 83.3172 45.6941 81.0156 43.7891C81.4972 45.9566 82.6806 48.8276 85.9086 50.975Z" fill="#8E9BBB"/>
</g>
<path d="M98.0396 28.831C98.0396 28.831 99.8107 31.3385 100.149 34.4014C100.488 37.4642 100.149 45.3334 97.1091 48.6757C94.0689 52.0179 87.7353 51.0418 84.8665 49.0223C82.2302 47.1678 79.6307 45.1214 78.9574 41.0825C78.2799 37.0435 80.3938 29.383 86.3887 27.7809C92.3835 26.1788 98.0396 28.8243 98.0396 28.8243V28.831Z" fill="#FF9D8C"/>
<path d="M105.658 96.7293C105.658 96.7293 105.36 96.7293 104.907 96.7192C104.801 96.7158 104.682 96.7192 104.56 96.7158C104.123 96.7057 103.593 96.6956 103.058 96.6822C102.94 96.6788 102.817 96.6754 102.699 96.6721C102.169 96.662 101.716 96.7158 101.291 96.6956H101.279C101.189 96.6923 101.059 96.7024 100.952 96.7057C100.899 96.7091 100.85 96.7125 100.818 96.7091C100.573 96.6721 100.524 96.625 100.259 96.5273C99.9159 96.3994 95.2759 95.5445 91.5011 95.5647C87.7303 95.5782 84.3473 95.7902 83.7963 95.4099C83.2413 95.0228 82.9067 91.1152 86.1265 90.8594L90.085 92.098C90.085 92.098 99.1242 91.2128 102.438 93.2289C105.76 95.245 105.658 96.7293 105.658 96.7293Z" fill="#FF9D8C"/>
<path d="M101.28 96.6983C101.19 96.6949 101.06 96.705 100.954 96.7084C100.872 96.6007 100.701 96.4054 100.607 96.3247C99.5866 95.4664 97.1217 94.911 96.228 94.7326C96.1464 94.7158 96.0934 94.6485 96.1138 94.5812C96.1301 94.5139 96.2158 94.4735 96.3015 94.487C97.6033 94.7461 100.366 95.4092 101.15 96.4963C101.174 96.5266 101.239 96.6309 101.28 96.6983Z" fill="#0B2C4C"/>
<path d="M103.059 96.681C102.94 96.681 102.818 96.6776 102.7 96.6709C101.585 94.9947 99.7613 94.5134 97.5127 93.9177L97.3781 93.8807C97.3005 93.8605 97.2557 93.7864 97.2801 93.7191C97.3046 93.6552 97.3903 93.6181 97.476 93.6383L97.6066 93.6754C99.9898 94.3048 101.904 94.813 103.063 96.681H103.059Z" fill="#0B2C4C"/>
<path d="M104.906 96.7168C104.8 96.7168 104.682 96.7168 104.559 96.7134C103.882 95.5421 101.645 93.5799 98.6908 93.1255C98.6051 93.1121 98.552 93.0481 98.5642 92.9774C98.5806 92.9101 98.6622 92.8663 98.7438 92.8764C101.792 93.3477 104.249 95.4008 104.91 96.7168H104.906Z" fill="#0B2C4C"/>
<path d="M80.9843 37.6361C80.9843 37.6361 82.8411 36.9057 84.151 34.8492C85.461 32.7961 85.2896 30.9483 85.2896 30.9483C85.2896 30.9483 87.6524 30.6353 91.1987 31.507C94.745 32.3787 98.9646 33.5601 102.511 31.8907C106.057 30.2179 106.057 27.5388 104.327 26.4247C102.389 25.176 98.5443 25.9366 98.5443 25.9366C98.5443 25.9366 100.022 24.7519 99.2217 24.0552C98.4178 23.3585 95.5081 24.2639 95.5081 24.2639C95.5081 24.2639 91.9618 21.9314 85.2488 22.2107C78.5357 22.4901 75.3281 26.354 74.9486 30.6723C74.5691 34.9906 76.4667 39.3089 76.4667 39.3089L80.9843 37.6361Z" fill="#0B2C4C"/>
<g style="mix-blend-mode:multiply">
<path d="M94.6002 38.685C94.2206 39.4591 94.2288 40.3578 94.1349 41.1757C94.0615 41.8152 93.9187 42.559 94.6287 42.9899C94.9674 43.1952 96.5712 43.7505 95.7469 44.2015C95.4327 44.3732 94.9062 44.3261 94.5471 44.3126C94.3023 44.3025 94.0533 44.2958 93.8044 44.2789C93.5391 44.2621 93.282 44.1982 93.0168 44.1948C92.8617 44.1948 92.8127 44.3631 92.9392 44.4304C93.3637 44.6492 93.9921 44.7199 94.4859 44.7333C94.9838 44.7502 95.3184 44.7333 95.7673 44.5482C96.0407 44.4371 96.3101 44.2756 96.3509 44.0063C96.3998 43.7034 96.1223 43.4308 95.8448 43.2591C95.5265 43.0639 95.1348 42.973 94.8124 42.7812C94.3635 42.5186 94.4002 42.071 94.4329 41.6604C94.5104 40.6708 94.7838 39.6981 94.8899 38.7119C94.9062 38.5605 94.6532 38.5605 94.5961 38.6783L94.6002 38.685Z" fill="#8E9BBB"/>
</g>
<path d="M98.0554 40.9958C97.9288 41.5814 97.4106 41.9988 96.9005 41.9247C96.3863 41.8507 96.0761 41.3122 96.1985 40.7265C96.3251 40.1409 96.8433 39.7235 97.3534 39.7976C97.8676 39.8716 98.1778 40.4101 98.0554 40.9958Z" fill="#0B2C4C"/>
<path d="M91.5952 40.5333C91.481 41.166 90.9382 41.6238 90.3873 41.5565C89.8364 41.4892 89.4773 40.9203 89.5915 40.2876C89.7058 39.6548 90.2485 39.1971 90.7995 39.2644C91.3504 39.3317 91.7095 39.9005 91.5952 40.5333Z" fill="#0B2C4C"/>
<path d="M96.5544 38.5769C96.9503 38.6308 97.3461 38.5769 97.746 38.6005C97.8399 38.6072 97.9378 38.6173 98.0317 38.624C98.1011 38.6308 97.9052 38.6072 97.999 38.6207C98.0194 38.6207 98.0399 38.6274 98.0603 38.6274C98.1092 38.6341 98.1582 38.6442 98.2072 38.6543C98.2929 38.6711 98.3745 38.6981 98.4602 38.7115C98.5377 38.725 98.6234 38.7418 98.701 38.7385C98.7458 38.7351 98.7867 38.7284 98.8315 38.725C98.803 38.7284 98.7785 38.7317 98.7499 38.7385C98.7499 38.7452 98.8968 38.7284 98.9132 38.725C99.1376 38.6812 99.2804 38.4658 99.2151 38.2841C99.1988 38.2302 99.1703 38.1865 99.1294 38.1427C99.1131 38.1259 99.0968 38.1057 99.0764 38.0889C99.0927 38.1023 99.109 38.1192 99.1254 38.1326C99.109 38.1124 99.0927 38.0956 99.0723 38.0754C99.0519 38.0451 99.0193 38.0182 98.9825 38.0014C98.9499 37.9812 98.9213 37.961 98.8887 37.9408C98.7826 37.8802 98.6479 37.8465 98.5214 37.8196C98.2847 37.7691 98.0398 37.7456 97.795 37.7422C97.5542 37.7422 97.3135 37.7624 97.0768 37.7893C96.8646 37.8129 96.6319 37.8735 96.4605 37.9778C96.33 38.0586 96.2483 38.1629 96.2687 38.3043C96.2891 38.4221 96.3993 38.5567 96.5544 38.5769Z" fill="#0B2C4C"/>
<path d="M92.0452 37.6481C91.9921 37.6211 91.935 37.5976 91.882 37.5774C91.833 37.5606 91.7024 37.5033 91.8003 37.5471C91.7636 37.5303 91.7269 37.5134 91.6901 37.5C91.5269 37.4327 91.3555 37.3855 91.18 37.3485C90.7964 37.2677 90.3883 37.2475 89.9925 37.2812C89.5722 37.3182 89.1845 37.4024 88.8213 37.5841C88.7682 37.611 88.7152 37.6346 88.6744 37.6716C88.6458 37.7019 88.6172 37.7322 88.5887 37.7625C88.5968 37.7524 88.605 37.7423 88.6132 37.7322C88.4989 37.7962 88.4336 37.9039 88.4377 38.0149C88.4377 38.1226 88.5071 38.2135 88.6213 38.264C88.7601 38.328 88.8907 38.2977 89.0294 38.264H88.8172C88.9355 38.2808 89.0172 38.2842 89.1355 38.264C89.1396 38.264 89.2498 38.2404 89.1763 38.2539C89.1069 38.2674 89.2906 38.2438 89.311 38.2404C89.3355 38.2404 89.462 38.227 89.3273 38.2404C89.3518 38.2404 89.3763 38.2371 89.4008 38.2337C89.4661 38.227 89.5273 38.2203 89.5926 38.2169C89.8701 38.2001 90.1476 38.19 90.4292 38.1799C90.6863 38.1731 90.9515 38.1698 91.2127 38.1799C91.3229 38.1832 91.4331 38.1866 91.5432 38.19C91.6044 38.19 91.58 38.2001 91.5351 38.19C91.5596 38.1967 91.58 38.2001 91.6044 38.2034C91.6493 38.2135 91.6942 38.227 91.7391 38.2404C91.9187 38.2977 92.135 38.19 92.2003 38.052C92.2737 37.9039 92.2125 37.7322 92.0411 37.6481H92.0452Z" fill="#0B2C4C"/>
<path d="M94.0495 47.3259C94.4372 46.6831 95.1432 46.2119 95.9553 45.909C95.2493 45.8484 91.9071 45.5959 91.0664 45.9897C90.1237 46.4306 91.2419 48.2078 93.1926 48.2953C93.3966 48.3054 93.5843 48.2919 93.7639 48.2684C93.7802 47.9452 93.87 47.6221 94.0495 47.3259Z" fill="#0B2C4C"/>
<path d="M78.625 43.5919C78.625 43.5919 78.9637 44.6723 80.9062 45.9243C82.8487 47.1764 85.6645 48.0953 85.6645 48.0953L85.889 47.2841C85.889 47.2841 82.9752 46.2407 81.6244 45.0896C80.2737 43.9419 80.1064 43.3125 80.1064 43.3125L78.6291 43.5919H78.625Z" fill="#DEE1EB"/>
<path d="M86.2209 46.6823C87.7839 46.6217 88.6572 47.6415 88.7633 48.3012C88.8735 48.9609 88.1226 49.7014 86.3638 49.0518C84.1805 48.244 84.6539 46.7429 86.2169 46.6823H86.2209Z" fill="#0B2C4C"/>
<path d="M79.8492 35.6153C79.8492 35.6153 80.5226 31.6134 83.775 28.8938C89.9821 23.7072 95.2587 24.0202 95.2587 24.0202C95.2587 24.0202 95.2179 23.2898 93.2305 22.7311C91.3655 22.2094 90.5289 22.4888 90.5289 22.4888C90.5289 22.4888 85.4196 22.8354 81.1143 26.77C76.809 30.7046 76.3438 35.7196 76.3438 35.7196L79.8492 35.6153Z" fill="#DEE1EB"/>
<path d="M79.3843 35.1253C75.3198 34.5565 73.0508 37.1785 72.8835 39.8273C72.7162 42.4728 75.0463 44.4856 78.1601 44.2836C85.1669 43.8326 84.3671 35.822 79.3843 35.1253Z" fill="white"/>
<path d="M77.3608 41.7114C76.2875 41.7114 75.3816 41.2672 74.8633 40.4829C74.3083 39.6449 74.3532 38.6116 74.9816 37.8509C75.0306 37.7937 75.1245 37.7802 75.1938 37.8172C75.2632 37.8576 75.2836 37.935 75.2347 37.9923C74.6715 38.6755 74.6307 39.6045 75.1326 40.3618C75.606 41.0787 76.4467 41.4859 77.4424 41.459C78.3729 41.4388 79.1605 41.0888 79.6583 40.4728C80.2297 39.7694 80.3603 38.8 79.993 37.999C79.6257 37.2047 78.6259 36.6661 77.7158 36.7637C77.6342 36.7738 77.5567 36.7234 77.5444 36.656C77.5322 36.5887 77.5934 36.5248 77.675 36.5147C78.7401 36.3969 79.8583 36.9994 80.2786 37.9115C80.6826 38.7866 80.5357 39.8468 79.9114 40.6142C79.3523 41.3008 78.479 41.6913 77.4506 41.7114C77.422 41.7114 77.3935 41.7114 77.3649 41.7114H77.3608Z" fill="#818FB3"/>
<path d="M74.402 52.6406C74.402 52.6406 62.0736 55.1481 57.7683 59.1871C53.4629 63.226 51.4347 83.1413 51.3531 86.8336C51.2715 90.5258 54.3934 92.0572 56.2502 93.1006C58.107 94.144 66.2973 96.0255 72.8839 96.3049C79.4705 96.5842 85.7183 96.3049 85.7183 96.3049C85.7183 96.3049 85.6979 95.1201 86.7099 93.38C87.6485 91.7644 88.8402 91.4312 88.8402 91.4312L83.1841 89.7584C83.1841 89.7584 82.1924 75.1207 80.6498 68.0323C78.8787 59.8838 74.402 52.644 74.402 52.644V52.6406Z" fill="#0B2C4C"/>
<path d="M94.8292 87.4246C94.8007 87.4246 94.7721 87.4213 94.7476 87.4112C94.6456 87.3741 94.5966 87.2732 94.6456 87.189C95.8005 85.0383 96.9962 80.821 97.6695 77.8591L97.7267 77.6201C97.9307 76.7484 98.1837 75.668 97.6777 74.9174C97.4206 74.5371 96.837 73.7091 96.2739 72.9148C95.6903 72.0901 95.1435 71.3093 94.9884 71.077C94.6905 70.6227 95.6291 69.4076 96.9839 67.7416C97.3512 67.2905 97.6654 66.9035 97.8491 66.641C98.3306 65.951 98.0123 65.3216 97.6369 64.5878L97.5104 64.3354C97.1717 63.6521 96.7881 62.9689 96.4167 62.3058C96.2657 62.0366 96.1147 61.7639 95.9637 61.4913C95.7638 61.1312 95.5679 60.7643 95.3638 60.3941C94.1722 58.1996 92.9357 55.931 91.3564 53.7399C91.2993 53.6591 91.3319 53.5582 91.4258 53.5077C91.5237 53.4606 91.6461 53.4875 91.7073 53.5649C93.2989 55.7729 94.5395 58.0515 95.7352 60.2527C95.9352 60.6229 96.1351 60.9898 96.331 61.3466C96.482 61.6192 96.633 61.8885 96.784 62.1577C97.1553 62.8242 97.543 63.5108 97.8817 64.2008L98.0082 64.4498C98.3878 65.1937 98.7795 65.9678 98.196 66.7991C98.0042 67.0718 97.6858 67.4656 97.3145 67.9199C96.6085 68.7883 95.1394 70.5957 95.3393 70.9088C95.4903 71.1376 96.0372 71.9151 96.6167 72.7364C97.1798 73.5341 97.7634 74.3621 98.0246 74.7457C98.6041 75.6007 98.3347 76.7518 98.1184 77.674L98.0613 77.9129C97.8164 78.99 96.5146 84.5099 95.0088 87.3169C94.9761 87.3809 94.8986 87.4179 94.8211 87.4179L94.8292 87.4246Z" fill="#8593B6"/>
<path d="M82.8036 88.0135C82.7506 88.0135 82.6975 87.9967 82.6608 87.963C81.7018 87.1653 77.0741 80.5583 76.7313 79.3163C76.5436 78.6364 77.0169 76.9098 77.474 75.2404C77.829 73.9479 78.1963 72.6117 78.0902 72.2482C77.9351 71.7063 76.7517 70.9086 75.609 70.1378C74.2256 69.2055 72.7973 68.2429 72.5198 67.3745C72.2056 66.3884 72.4749 60.2155 72.6504 56.1328C72.7157 54.6654 72.7647 53.5042 72.7647 53.0902C72.7647 52.9959 72.8544 52.9219 72.9687 52.9219C73.083 52.9219 73.1727 52.9959 73.1727 53.0902C73.1727 53.5109 73.1238 54.6721 73.0585 56.1429C72.8912 59.9597 72.6137 66.348 72.9116 67.287C73.1564 68.0477 74.5929 69.017 75.862 69.8719C77.1149 70.7167 78.2943 71.5111 78.482 72.164C78.6085 72.6016 78.2657 73.857 77.8658 75.3077C77.4373 76.8627 76.9557 78.6263 77.123 79.2322C77.4618 80.4506 82.0038 86.9331 82.9465 87.7173C83.024 87.7846 83.024 87.889 82.9465 87.9563C82.9057 87.9899 82.8567 88.0068 82.8036 88.0068V88.0135Z" fill="#8593B6"/>
<path d="M66.2131 85.1215C66.2131 85.1215 66.1927 85.1215 66.1846 85.1215C66.0744 85.1081 65.9968 85.0239 66.0091 84.9297C66.1601 84.0546 68.5025 66.6198 68.6086 65.2836C68.6168 65.1894 68.7147 65.1187 68.8249 65.1254C68.9392 65.1322 69.0208 65.213 69.0167 65.3038C68.9106 66.64 66.5641 84.0983 66.4131 84.9734C66.3968 85.0576 66.3111 85.1182 66.2131 85.1182V85.1215Z" fill="#8593B6"/>
<path d="M83.0132 89.856C82.9887 89.856 82.9602 89.8527 82.9357 89.8426C82.4174 89.6676 80.124 89.0314 77.2224 88.2236C71.3623 86.5946 63.3393 84.3631 61.813 83.7068C61.711 83.663 61.6743 83.562 61.7273 83.4813C61.7804 83.3971 61.9028 83.3668 62.0007 83.4106C63.4984 84.0534 71.8357 86.3725 77.353 87.9073C80.2627 88.7184 82.5602 89.3545 83.0908 89.5329C83.1969 89.5666 83.2458 89.6676 83.205 89.7517C83.1724 89.8157 83.0948 89.856 83.0173 89.856H83.0132Z" fill="#8593B6"/>
<path d="M80.195 96.8016C75.0368 96.8016 65.0427 96.0342 57.4482 93.8195C57.3421 93.7892 57.2849 93.6916 57.3257 93.6041C57.3625 93.5166 57.4808 93.4694 57.5869 93.5031C67.1811 96.3034 80.6031 96.7814 83.1006 96.3169C83.2108 96.2967 83.321 96.3539 83.3455 96.4448C83.37 96.5357 83.3006 96.6266 83.1904 96.6467C82.6517 96.7477 81.6029 96.8016 80.2032 96.8016H80.195Z" fill="#8593B6"/>
<path d="M21.1722 54.9936C22.772 56.1548 24.8002 56.8987 26.204 58.2416C26.7549 58.77 27.2528 59.3321 27.767 59.8875C28.1383 60.2914 29.1381 60.9612 29.2973 61.466C29.3667 61.6882 29.3544 61.3853 29.281 61.1631C29.281 61.153 29.2728 61.1463 29.2687 61.1362C29.13 60.1096 29.028 59.0797 28.9831 58.0464C28.9382 57.0165 29.0157 55.9832 28.9382 54.9566C28.828 53.506 28.2771 52.1024 26.8406 51.1937C26.1387 50.7494 25.2368 50.4801 24.588 49.9854C23.9758 49.5175 24.2207 48.9824 24.5798 48.4607C24.9185 47.9726 25.3266 47.4913 25.4572 46.9292C25.6082 46.2897 25.3143 45.63 24.9226 45.0882C24.086 43.9303 22.2333 42.6379 20.4744 42.8129C19.0094 42.9576 18.8421 44.351 18.8665 45.3204C18.8869 46.2628 19.0012 47.2052 19.0094 48.1476C19.0216 49.117 18.8217 50.0695 18.8053 51.0355C18.7768 52.678 19.699 53.9301 21.16 54.9903L21.1722 54.9936Z" fill="#00A99D"/>
<path d="M36.0469 70.0666C36.4917 69.1882 37.0059 68.3703 37.6344 67.5726C38.4954 66.4787 39.4544 65.4118 40.0339 64.1866C40.6257 62.9345 40.54 61.5983 40.5971 60.2823C40.6379 59.313 40.9889 58.3504 40.895 57.3776C40.8501 56.9132 40.5236 56.1592 39.7932 56.2366C39.2259 56.2972 38.8872 56.8761 38.6709 57.2497C38.2914 57.896 38.0261 58.586 37.7446 59.2659C37.6344 59.5317 37.5283 59.801 37.3895 60.0568C37.3079 60.2049 37.0508 60.5684 36.806 60.5213C36.3897 60.4371 36.7692 59.0403 36.8304 58.7913C37.1406 57.5493 37.6058 56.3948 37.6711 55.1158C37.765 53.2613 37.5895 51.0567 35.3899 50.0403C34.8145 49.7744 34.0881 49.6162 33.5412 50.0133C33.0026 50.4038 32.8516 51.0803 32.77 51.639C32.5251 53.3522 33.0148 54.9711 33.68 56.5833C34.2309 57.9128 34.8839 59.286 34.9328 60.7098C34.9777 62.0796 34.1166 63.2913 33.7086 64.5871C33.0638 66.647 33.1944 67.7409 33.1944 68.4073C33.1944 69.242 33.227 70.07 33.3005 70.9047C33.3698 71.6721 33.4474 72.4361 33.5616 73.2002C33.5861 73.355 33.6065 73.5166 33.631 73.6781C33.2719 72.9679 33.1495 72.1568 32.8516 71.4432C32.3251 70.1777 31.7171 68.9357 31.2111 67.6635C30.7948 66.6133 30.399 65.5531 29.8521 64.54C29.3379 63.5909 28.7136 62.5879 27.7505 61.8912C27.1669 61.4704 26.465 61.2247 25.6855 61.2281C25.1877 61.2281 24.7388 61.3728 24.2654 61.4772C23.6818 61.6051 23.2207 61.5613 22.7391 61.255C21.1639 60.2554 20.6824 58.4648 19.5193 57.1993C18.6501 56.2568 16.5852 54.648 15.0671 55.6779C14.2631 56.2232 14.0387 57.2767 14.0836 58.0878C14.1366 59.1009 14.6753 60.0299 15.3119 60.8781C15.9934 61.7801 16.8708 62.5879 17.4952 63.5135C17.8666 64.0621 17.9237 64.5871 17.8625 65.2031C17.8053 65.7854 17.7441 66.3474 17.9849 66.9095C18.7072 68.5958 20.9639 68.3602 22.7187 68.4039C23.9471 68.4342 25.2611 68.5857 26.4283 68.9088C27.7749 69.2824 28.6523 70.006 29.1339 71.1033C29.4808 71.8976 29.6685 72.803 30.3255 73.4762C30.6356 73.7925 31.0437 74.0281 31.4926 74.1931C32.1782 74.4421 34.2636 74.5498 34.2758 74.395C34.3289 73.87 34.6308 73.3146 34.8186 72.8165C35.1736 71.8808 35.5898 70.9687 36.051 70.0633L36.0469 70.0666Z" fill="#00A99D"/>
<path d="M45.7321 69.7489C45.5526 68.7863 45.5852 67.7227 45.0343 66.8375C44.9935 66.7736 44.8915 66.7567 44.818 66.7904C44.4222 66.9721 44.4059 67.5006 44.3732 67.8237C44.3202 68.3622 44.361 68.9007 44.2794 69.4359C44.1406 70.3783 43.8753 71.3477 43.4632 72.2329C42.998 73.2359 42.1532 73.8047 40.9249 74.1177C40.1372 74.3196 39.3619 74.4947 38.7008 74.9255C38.109 75.3125 37.701 75.8443 37.399 76.4064C36.5787 77.9244 36.1869 79.6174 35.8074 81.2397C35.5503 82.3302 35.3422 83.4274 35.0198 84.5079C34.6974 85.5883 34.3546 86.6619 34.171 87.7659C34.1383 87.8231 34.1057 87.877 34.0771 87.9342C33.9914 88.0991 34.3057 88.1866 34.4118 88.052C35.6809 86.4432 37.2235 84.9959 39.3333 84.1107C40.2842 83.7102 41.5492 83.626 42.345 82.9966C42.949 82.5187 43.0306 81.7883 42.9408 81.1353C42.8225 80.2804 42.3246 79.577 41.8063 78.8466C41.5207 78.4461 41.186 78.0186 41.3003 77.5306C41.4105 77.0728 41.8716 76.7329 42.3287 76.4973C43.2061 76.0497 44.2304 75.8477 44.9445 75.2015C45.6097 74.6024 45.9811 73.8518 46.0545 73.044C46.1525 71.967 45.928 70.8091 45.7281 69.7455L45.7321 69.7489Z" fill="#00A99D"/>
<path d="M28.444 75.3089C27.3259 74.1208 25.9751 73.0942 24.457 72.2629C23.6449 71.8186 21.735 70.9435 21.3474 72.2528C21.1229 73.0202 22.0329 73.7741 22.6328 74.2554C23.5347 74.979 24.5753 75.6017 25.3344 76.4364C24.3917 76.6855 23.4082 76.7326 22.592 77.2678C21.6249 77.9039 21.1882 79.1291 22.1513 79.9099C22.6206 80.2902 23.2409 80.5225 23.8204 80.7547C24.5794 81.0576 25.3507 81.3303 26.1261 81.5995C27.8033 82.1784 29.501 82.7641 30.9293 83.7099C32.3862 84.6725 33.7573 86.3049 33.8716 87.8767C33.8838 88.0282 33.8145 87.8902 33.9206 87.8229C33.9818 87.8666 34.1777 87.7892 34.1777 87.7017C34.1491 85.3692 33.639 83.1444 32.4841 81.0072C31.4108 79.0247 30.0601 77.0288 28.444 75.3123V75.3089Z" fill="#00A99D"/>
<path d="M24.5793 53.579C25.1955 54.6359 25.8403 55.6692 26.5259 56.6991C27.187 57.692 27.844 58.6748 28.3378 59.735C28.9458 61.0376 29.5824 62.32 30.2231 63.6124C30.8924 64.9554 31.4882 66.3219 31.9657 67.7187C32.9002 70.4449 33.594 73.2486 33.9367 76.0692C34.1122 77.503 34.1898 78.9435 34.1408 80.3841C34.1041 81.5083 33.949 82.6223 33.8225 83.7431C33.6878 84.9077 33.594 86.0891 33.7123 87.257C33.8102 88.2331 33.998 89.3976 34.9202 90.0944C35.0998 90.2324 35.3569 90.0607 35.2508 89.8857C34.1571 88.0379 34.2183 86.0218 34.4265 84.0191C34.5407 82.9118 34.6999 81.8112 34.7488 80.7005C34.806 79.2868 34.7407 77.8698 34.5774 76.4629C34.2591 73.6963 33.5899 70.9633 32.7247 68.2807C32.2799 66.9041 31.729 65.5545 31.0965 64.2317C30.4598 62.9056 29.7253 61.6131 29.1091 60.2803C27.995 57.867 26.2973 55.7298 24.7915 53.4814C24.7139 53.3636 24.5099 53.468 24.5752 53.5858L24.5793 53.579Z" fill="#00A99D"/>
<path d="M33.9897 73.3037C34.1652 71.5468 34.357 69.8538 35.0711 68.181C35.4058 67.4002 35.8098 66.6395 36.1363 65.8553C36.4015 65.2057 36.8014 64.3171 36.5974 63.6271C36.5729 63.5497 36.4382 63.5531 36.4138 63.6271C36.275 64.0209 36.2913 64.4517 36.1934 64.8556C36.0955 65.2494 35.9689 65.6331 35.822 66.0168C35.5078 66.828 35.0956 67.6055 34.7406 68.4065C34.0509 69.9514 33.6959 71.6612 33.8469 73.3037C33.855 73.3811 33.9856 73.3811 33.9938 73.3037H33.9897Z" fill="#00A99D"/>
<path d="M21.6493 63.2029C22.494 64.8858 25.0364 64.9834 26.8891 65.3604C28.2114 65.6296 29.1867 66.3566 29.8886 67.3024C30.6558 68.3357 31.1741 69.5474 31.6026 70.7018C31.6066 70.7153 31.6311 70.7086 31.6271 70.6951C31.1088 68.6756 30.3661 66.2456 27.8441 65.3065C25.8199 64.5526 23.1551 64.9329 21.8656 63.1288C21.8003 63.0413 21.6044 63.0985 21.6574 63.2029H21.6493Z" fill="#00A99D"/>
<path d="M32.6496 73.036C32.7516 73.1471 32.8414 73.2649 32.9475 73.3759C33.0005 73.4298 33.0495 73.4803 33.1148 73.524C33.1801 73.5678 33.2576 73.625 33.3515 73.6216C33.3882 73.6216 33.4168 73.5846 33.3964 73.5577C33.3555 73.5005 33.278 73.4668 33.2209 73.4264C33.1597 73.3827 33.0984 73.3389 33.0413 73.2918C32.923 73.2009 32.8169 73.0999 32.6985 73.0057C32.6781 72.9889 32.6332 73.0124 32.6536 73.036H32.6496Z" fill="#00A99D"/>
<path d="M27.3665 78.3818C28.8234 79.3679 30.1701 80.5359 31.2393 81.8182C31.7494 82.4308 32.2228 83.077 32.6513 83.73C33.1165 84.4435 33.4267 85.1975 33.7899 85.948C33.8184 86.0053 33.9449 86.0053 33.9327 85.9312C33.7286 84.3459 32.5125 82.9895 31.5413 81.6701C31.0353 80.9869 30.4068 80.4349 29.7294 79.8627C29.0315 79.2737 28.3174 78.715 27.5012 78.2404C27.4033 78.1832 27.2727 78.3178 27.3706 78.3818H27.3665Z" fill="#00A99D"/>
<path d="M38.9793 76.5129C38.2774 76.8427 38.2529 77.7548 38.2406 78.3405C38.2161 79.4646 38.5508 80.5181 37.955 81.5884C37.4163 82.5544 36.5552 83.3622 35.8778 84.2575C35.2453 85.099 34.6168 86.1726 34.6331 87.1824C34.6331 87.2396 34.7433 87.2732 34.776 87.2127C35.0331 86.7549 35.1228 86.2332 35.3065 85.7519C35.5105 85.21 35.8003 84.7186 36.1716 84.244C36.8246 83.4093 37.6244 82.652 38.1549 81.7567C38.714 80.811 38.6324 79.8753 38.5957 78.8521C38.5712 78.1991 38.4936 77.149 39.1303 76.6643C39.2282 76.5869 39.1017 76.459 38.9874 76.5129H38.9793Z" fill="#00A99D"/>
<path d="M34.2814 87.2916C31.4534 87.2579 26.0625 87.2344 26.0625 87.2344L27.3969 95.3997C27.6989 97.2375 29.5965 98.6073 31.8451 98.6073H36.7177C38.9663 98.6073 40.868 97.2375 41.1659 95.3997L42.5003 87.2344C42.5003 87.2344 37.1095 87.2613 34.2814 87.2916Z" fill="white"/>
<path d="M171.04 72.2765L154.9 98.6474L107.844 98.9267L122.364 71.9062L171.04 72.2765Z" fill="#F6F7FA"/>
<path d="M76.6094 98.7627L76.6175 96.6524H107.081L121.095 71.3047H169.813L171.037 72.2808H123.446L108.881 98.7425C108.881 98.7425 76.6094 98.6954 76.6094 98.7627Z" fill="#D9DEE8"/>
<path d="M146.602 86.8328C146.071 88.1489 143.186 89.1653 140.158 89.1014C137.13 89.0374 135.106 87.9234 135.64 86.6073C136.171 85.2913 139.056 84.2748 142.084 84.3388C145.112 84.4027 147.136 85.5168 146.602 86.8328Z" fill="#D9DEE8"/>
<path d="M108.885 98.9043C108.856 98.9043 108.828 98.901 108.799 98.8909C108.697 98.8538 108.652 98.7529 108.697 98.6687L123.315 72.1094H171.037C171.151 72.1094 171.241 72.1834 171.241 72.2777C171.241 72.3719 171.151 72.446 171.037 72.446H123.576L109.064 98.8101C109.032 98.8707 108.954 98.9077 108.877 98.9077L108.885 98.9043Z" fill="white"/>
<path d="M74.4854 100.758H18.5078V110.993H74.4854V100.758Z" fill="#596B9B"/>
<path d="M174.88 100.758H74.1641V110.993H174.88V100.758Z" fill="#7A89AF"/>
<g style="mix-blend-mode:multiply">
<path d="M74.4854 100.758H74.167H18.5078V102.639H74.167H74.4854H174.883V100.758H74.4854Z" fill="#BDC4D7"/>
</g>
<path d="M76.9323 98.7422H15.8047V101.25H76.9323V98.7422Z" fill="#6F7FA9"/>
<path d="M177.334 98.7422H76.6172V101.25H177.334V98.7422Z" fill="#9CA6C3"/>
<path d="M60.3506 33.25H40.5909C39.3671 33.25 38.375 34.0683 38.375 35.0776V43.2127C38.375 44.2221 39.3671 45.0403 40.5909 45.0403H60.3506C61.5744 45.0403 62.5665 44.2221 62.5665 43.2127V35.0776C62.5665 34.0683 61.5744 33.25 60.3506 33.25Z" fill="white"/>
<path d="M68.1966 39.1441L60.7734 36.5625V41.7256L68.1966 39.1441Z" fill="white"/>
<path d="M45.7812 40.2707C46.5362 40.2707 47.1483 39.7659 47.1483 39.1432C47.1483 38.5204 46.5362 38.0156 45.7812 38.0156C45.0261 38.0156 44.4141 38.5204 44.4141 39.1432C44.4141 39.7659 45.0261 40.2707 45.7812 40.2707Z" fill="#0B2C4C"/>
<path d="M50.4687 40.2707C51.2237 40.2707 51.8358 39.7659 51.8358 39.1432C51.8358 38.5204 51.2237 38.0156 50.4687 38.0156C49.7136 38.0156 49.1016 38.5204 49.1016 39.1432C49.1016 39.7659 49.7136 40.2707 50.4687 40.2707Z" fill="#0B2C4C"/>
<path d="M55.1562 40.2707C55.9112 40.2707 56.5233 39.7659 56.5233 39.1432C56.5233 38.5204 55.9112 38.0156 55.1562 38.0156C54.4011 38.0156 53.7891 38.5204 53.7891 39.1432C53.7891 39.7659 54.4011 40.2707 55.1562 40.2707Z" fill="#0B2C4C"/>
<path d="M160.957 8.21875H115.336C112.406 8.21875 110.031 10.1776 110.031 12.5943V30.443C110.031 32.8596 112.406 34.8185 115.336 34.8185H119.425C119.54 36.4374 119.258 38.844 117.622 41.9203C122.894 39.9143 125.926 36.9053 127.514 34.8185H160.961C163.891 34.8185 166.266 32.8596 166.266 30.443V12.5943C166.266 10.1776 163.891 8.21875 160.961 8.21875H160.957Z" fill="#81319B"/>
<path d="M141.497 16.7251H118.869C118.248 16.7251 117.742 16.3077 117.742 15.7961C117.742 15.2845 118.248 14.8672 118.869 14.8672H141.497C142.117 14.8672 142.623 15.2812 142.623 15.7961C142.623 16.3077 142.121 16.7251 141.497 16.7251Z" fill="white"/>
<path d="M157.723 22.1298H118.432C118.052 22.1298 117.742 21.874 117.742 21.561C117.742 21.248 118.052 20.9922 118.432 20.9922H157.723C158.102 20.9922 158.412 21.248 158.412 21.561C158.412 21.874 158.102 22.1298 157.723 22.1298Z" fill="#D2E6FF"/>
<path d="M157.723 25.2939H118.432C118.052 25.2939 117.742 25.0381 117.742 24.7251C117.742 24.412 118.052 24.1562 118.432 24.1562H157.723C158.102 24.1562 158.412 24.412 158.412 24.7251C158.412 25.0381 158.102 25.2939 157.723 25.2939Z" fill="#D2E6FF"/>
<path d="M149.149 28.6533H118.432C118.052 28.6533 117.742 28.3975 117.742 28.0844C117.742 27.7714 118.052 27.5156 118.432 27.5156H149.149C149.528 27.5156 149.838 27.7714 149.838 28.0844C149.838 28.3975 149.528 28.6533 149.149 28.6533Z" fill="#D2E6FF"/>
<path d="M157.412 16.7251H146.619C145.998 16.7251 145.492 16.3077 145.492 15.7961C145.492 15.2845 145.998 14.8672 146.619 14.8672H157.412C158.033 14.8672 158.539 15.2812 158.539 15.7961C158.539 16.3077 158.033 16.7251 157.412 16.7251Z" fill="white"/>
<path d="M130.204 49.5234H117.949C117.498 49.5234 117.133 49.8248 117.133 50.1966V57.1032C117.133 57.4749 117.498 57.7763 117.949 57.7763H130.204C130.655 57.7763 131.02 57.4749 131.02 57.1032V50.1966C131.02 49.8248 130.655 49.5234 130.204 49.5234Z" fill="white"/>
<path d="M124.166 54.8866C124.097 54.8866 124.027 54.8664 123.97 54.8294L117.298 50.2856C117.167 50.1981 117.151 50.0365 117.257 49.9288C117.367 49.8211 117.559 49.8076 117.69 49.8952L124.162 54.3043L130.467 49.7807C130.593 49.6898 130.789 49.6999 130.9 49.8043C131.01 49.9086 130.998 50.0702 130.871 50.1611L124.37 54.826C124.313 54.8664 124.24 54.8866 124.17 54.8866H124.166Z" fill="#6F7FA9"/>
<path d="M117.495 57.5905C117.417 57.5905 117.344 57.567 117.282 57.5198C117.16 57.4222 117.156 57.264 117.27 57.1631L121.935 53.1174C122.049 53.0164 122.245 53.0131 122.367 53.1073C122.49 53.2049 122.494 53.3631 122.38 53.4641L117.715 57.5097C117.654 57.5602 117.576 57.5872 117.495 57.5872V57.5905Z" fill="#6F7FA9"/>
<path d="M130.664 57.4415C130.587 57.4415 130.509 57.4179 130.448 57.3674L125.8 53.5237C125.681 53.4261 125.681 53.2646 125.8 53.167C125.918 53.0693 126.114 53.0693 126.232 53.167L130.88 57.0107C130.999 57.1083 130.999 57.2698 130.88 57.3674C130.819 57.4179 130.742 57.4415 130.664 57.4415Z" fill="#6F7FA9"/>
<path d="M131.663 52.6424C133.924 52.6424 135.757 51.1309 135.757 49.2665C135.757 47.4021 133.924 45.8906 131.663 45.8906C129.403 45.8906 127.57 47.4021 127.57 49.2665C127.57 51.1309 129.403 52.6424 131.663 52.6424Z" fill="#00A99D"/>
<path d="M133.413 54.3962L133.389 54.1202C133.693 54.2562 133.957 54.4322 134.181 54.6482C134.405 54.8642 134.577 55.1002 134.697 55.3562C134.817 55.6122 134.877 55.8762 134.877 56.1482C134.877 56.6042 134.749 57.0242 134.493 57.4082C134.245 57.7842 133.909 58.0882 133.485 58.3202C133.061 58.5442 132.589 58.6562 132.069 58.6562C131.549 58.6562 131.077 58.5442 130.653 58.3202C130.229 58.0882 129.889 57.7842 129.633 57.4082C129.385 57.0242 129.261 56.6042 129.261 56.1482C129.261 55.7802 129.337 55.4642 129.489 55.2002C129.649 54.9282 129.845 54.7002 130.077 54.5162C130.317 54.3322 130.553 54.1802 130.785 54.0602L130.689 54.3962C130.489 54.3162 130.293 54.2042 130.101 54.0602C129.917 53.9082 129.765 53.7162 129.645 53.4842C129.525 53.2522 129.465 52.9802 129.465 52.6682C129.465 52.2202 129.581 51.8162 129.813 51.4562C130.045 51.0882 130.357 50.7962 130.749 50.5802C131.149 50.3642 131.589 50.2562 132.069 50.2562C132.557 50.2562 132.993 50.3642 133.377 50.5802C133.769 50.7962 134.081 51.0882 134.313 51.4562C134.545 51.8162 134.661 52.2202 134.661 52.6682C134.661 53.0122 134.593 53.3002 134.457 53.5322C134.321 53.7642 134.157 53.9482 133.965 54.0842C133.773 54.2202 133.589 54.3242 133.413 54.3962ZM130.905 52.6922C130.905 52.9082 130.953 53.1002 131.049 53.2682C131.153 53.4362 131.293 53.5722 131.469 53.6762C131.645 53.7722 131.845 53.8202 132.069 53.8202C132.293 53.8202 132.489 53.7722 132.657 53.6762C132.833 53.5722 132.969 53.4362 133.065 53.2682C133.169 53.1002 133.221 52.9082 133.221 52.6922C133.221 52.3722 133.109 52.1082 132.885 51.9002C132.669 51.6842 132.397 51.5762 132.069 51.5762C131.733 51.5762 131.453 51.6842 131.229 51.9002C131.013 52.1082 130.905 52.3722 130.905 52.6922ZM132.069 57.3362C132.453 57.3362 132.777 57.2202 133.041 56.9882C133.305 56.7482 133.437 56.4602 133.437 56.1242C133.437 55.8922 133.377 55.6842 133.257 55.5002C133.137 55.3162 132.973 55.1722 132.765 55.0682C132.557 54.9562 132.325 54.9002 132.069 54.9002C131.813 54.9002 131.581 54.9562 131.373 55.0682C131.165 55.1722 131.001 55.3162 130.881 55.5002C130.761 55.6842 130.701 55.8922 130.701 56.1242C130.701 56.4602 130.833 56.7482 131.097 56.9882C131.361 57.2202 131.685 57.3362 132.069 57.3362ZM131.673 73.7763C131.377 73.7763 131.061 73.7323 130.725 73.6442C130.389 73.5482 130.113 73.4122 129.897 73.2362C129.793 73.1482 129.709 73.0362 129.645 72.9002C129.589 72.7562 129.561 72.6202 129.561 72.4922C129.561 72.3562 129.617 72.2282 129.729 72.1082C129.849 71.9882 130.017 71.9282 130.233 71.9282C130.377 71.9282 130.557 72.0042 130.773 72.1562C130.901 72.2362 131.041 72.3082 131.193 72.3722C131.345 72.4362 131.501 72.4682 131.661 72.4682C132.045 72.4682 132.377 72.4002 132.657 72.2642C132.937 72.1202 133.153 71.9242 133.305 71.6762C133.457 71.4282 133.533 71.1362 133.533 70.8002C133.533 70.4962 133.461 70.2362 133.317 70.0202C133.181 69.8042 132.997 69.6362 132.765 69.5162C132.541 69.3962 132.297 69.3362 132.033 69.3362C131.785 69.3362 131.569 69.3762 131.385 69.4562C131.201 69.5362 131.033 69.6202 130.881 69.7082C130.729 69.7882 130.577 69.8282 130.425 69.8282C130.161 69.8282 129.965 69.7722 129.837 69.6602C129.709 69.5402 129.629 69.4002 129.597 69.2402C129.565 69.0802 129.557 68.9362 129.573 68.8082L129.945 65.8922C129.977 65.7242 130.057 65.5882 130.185 65.4842C130.321 65.3722 130.481 65.3162 130.665 65.3162H134.133C134.325 65.3162 134.485 65.3802 134.613 65.5082C134.741 65.6362 134.805 65.7962 134.805 65.9882C134.805 66.1722 134.741 66.3282 134.613 66.4562C134.485 66.5762 134.325 66.6362 134.133 66.6362H131.037L131.169 66.5282L130.845 68.9642L130.689 68.5082C130.737 68.4282 130.841 68.3522 131.001 68.2802C131.161 68.2082 131.345 68.1482 131.553 68.1002C131.761 68.0442 131.965 68.0162 132.165 68.0162C132.701 68.0162 133.181 68.1402 133.605 68.3882C134.029 68.6282 134.361 68.9602 134.601 69.3842C134.849 69.8002 134.973 70.2722 134.973 70.8002C134.973 71.4002 134.837 71.9242 134.565 72.3722C134.293 72.8202 133.909 73.1682 133.413 73.4162C132.925 73.6562 132.345 73.7763 131.673 73.7763Z" fill="white"/>
<path d="M172.789 42.2422H148.867C147.965 42.2422 147.234 42.8449 147.234 43.5885V46.6749C147.234 47.4185 147.965 48.0212 148.867 48.0212H172.789C173.69 48.0212 174.421 47.4185 174.421 46.6749V43.5885C174.421 42.8449 173.69 42.2422 172.789 42.2422Z" fill="#0B2C4C"/>
<path d="M150.593 46.6508C150.487 46.6508 150.401 46.6205 150.336 46.5566C150.27 46.4926 150.242 46.4152 150.25 46.321L150.352 45.5738C150.36 45.5536 150.352 45.5435 150.34 45.5368C150.323 45.53 150.307 45.5368 150.283 45.5469L149.536 45.9911C149.442 46.0484 149.348 46.0686 149.25 46.0517C149.152 46.0349 149.071 45.9878 149.009 45.9036C148.94 45.8027 148.928 45.7151 148.969 45.6377C149.009 45.5603 149.083 45.5098 149.181 45.4762L150.017 45.1632C150.042 45.1564 150.05 45.1463 150.05 45.1362C150.05 45.1261 150.038 45.1127 150.017 45.1093L149.181 44.7963C149.075 44.7593 149.005 44.6987 148.973 44.6179C148.944 44.5371 148.952 44.453 149.005 44.3722C149.067 44.2914 149.148 44.2409 149.246 44.2241C149.344 44.2073 149.442 44.2241 149.532 44.2746L150.279 44.729C150.303 44.7424 150.319 44.7458 150.336 44.7391C150.352 44.7323 150.356 44.7189 150.348 44.702L150.246 43.9548C150.238 43.8606 150.27 43.7798 150.34 43.7192C150.409 43.6553 150.499 43.625 150.617 43.625C150.723 43.625 150.813 43.6553 150.883 43.7192C150.952 43.7832 150.976 43.8606 150.964 43.9548L150.862 44.702C150.854 44.7222 150.862 44.7323 150.874 44.7391C150.891 44.7458 150.907 44.7391 150.932 44.729L151.678 44.2847C151.768 44.2275 151.866 44.2073 151.972 44.2241C152.074 44.2409 152.152 44.2881 152.209 44.3722C152.278 44.4732 152.29 44.5607 152.25 44.6381C152.209 44.7121 152.135 44.766 152.037 44.7997L151.201 45.1127C151.176 45.1194 151.168 45.1295 151.168 45.1396C151.168 45.1497 151.18 45.1632 151.201 45.1665L152.037 45.4795C152.144 45.5166 152.217 45.5771 152.25 45.6579C152.282 45.7387 152.27 45.8229 152.209 45.9036C152.156 45.9844 152.078 46.0349 151.972 46.0517C151.87 46.0686 151.772 46.0517 151.678 46.0012L150.932 45.5469C150.907 45.5334 150.891 45.53 150.874 45.5368C150.858 45.5435 150.854 45.557 150.862 45.5738L150.964 46.321C150.98 46.4152 150.952 46.496 150.878 46.5566C150.805 46.6205 150.711 46.6508 150.597 46.6508H150.593Z" fill="white"/>
<path d="M155.538 46.6508C155.432 46.6508 155.346 46.6205 155.281 46.5566C155.216 46.4926 155.187 46.4152 155.195 46.321L155.297 45.5738C155.306 45.5536 155.297 45.5435 155.285 45.5368C155.269 45.53 155.252 45.5368 155.228 45.5469L154.481 45.9911C154.387 46.0484 154.293 46.0686 154.196 46.0517C154.098 46.0349 154.016 45.9878 153.955 45.9036C153.885 45.8027 153.873 45.7151 153.914 45.6377C153.955 45.5603 154.028 45.5098 154.126 45.4762L154.963 45.1632C154.987 45.1564 154.995 45.1463 154.995 45.1362C154.995 45.1261 154.983 45.1127 154.963 45.1093L154.126 44.7963C154.02 44.7593 153.951 44.6987 153.918 44.6179C153.889 44.5371 153.898 44.453 153.951 44.3722C154.012 44.2914 154.093 44.2409 154.191 44.2241C154.289 44.2073 154.387 44.2241 154.477 44.2746L155.224 44.729C155.248 44.7424 155.265 44.7458 155.281 44.7391C155.297 44.7323 155.301 44.7189 155.293 44.702L155.191 43.9548C155.183 43.8606 155.216 43.7798 155.285 43.7192C155.354 43.6553 155.444 43.625 155.563 43.625C155.669 43.625 155.759 43.6553 155.828 43.7192C155.897 43.7832 155.922 43.8606 155.909 43.9548L155.807 44.702C155.799 44.7222 155.803 44.7323 155.82 44.7391C155.836 44.7458 155.852 44.7391 155.877 44.729L156.624 44.2847C156.713 44.2275 156.811 44.2073 156.917 44.2241C157.019 44.2409 157.097 44.2881 157.154 44.3722C157.224 44.4732 157.236 44.5607 157.195 44.6381C157.154 44.7121 157.081 44.766 156.983 44.7997L156.146 45.1127C156.122 45.1194 156.114 45.1295 156.114 45.1396C156.114 45.1497 156.126 45.1632 156.146 45.1665L156.983 45.4795C157.089 45.5166 157.162 45.5771 157.195 45.6579C157.228 45.7387 157.215 45.8229 157.154 45.9036C157.101 45.9844 157.024 46.0349 156.917 46.0517C156.815 46.0686 156.718 46.0517 156.624 46.0012L155.877 45.5469C155.852 45.5334 155.836 45.53 155.82 45.5368C155.803 45.5435 155.799 45.557 155.807 45.5738L155.909 46.321C155.926 46.4152 155.897 46.496 155.824 46.5566C155.75 46.6205 155.656 46.6508 155.542 46.6508H155.538Z" fill="white"/>
<path d="M160.491 46.6508C160.385 46.6508 160.299 46.6205 160.234 46.5566C160.169 46.4926 160.14 46.4152 160.148 46.321L160.25 45.5738C160.259 45.5536 160.25 45.5435 160.238 45.5368C160.222 45.53 160.206 45.5368 160.181 45.5469L159.434 45.9911C159.34 46.0484 159.247 46.0686 159.149 46.0517C159.051 46.0349 158.969 45.9878 158.908 45.9036C158.839 45.8027 158.826 45.7151 158.867 45.6377C158.908 45.5603 158.981 45.5098 159.079 45.4762L159.916 45.1632C159.94 45.1564 159.948 45.1463 159.948 45.1362C159.948 45.1261 159.936 45.1127 159.916 45.1093L159.079 44.7963C158.973 44.7593 158.904 44.6987 158.871 44.6179C158.843 44.5371 158.851 44.453 158.904 44.3722C158.965 44.2914 159.047 44.2409 159.145 44.2241C159.243 44.2073 159.34 44.2241 159.43 44.2746L160.177 44.729C160.202 44.7424 160.218 44.7458 160.234 44.7391C160.25 44.7323 160.255 44.7189 160.246 44.702L160.144 43.9548C160.136 43.8606 160.169 43.7798 160.238 43.7192C160.308 43.6553 160.397 43.625 160.516 43.625C160.622 43.625 160.712 43.6553 160.781 43.7192C160.85 43.7832 160.875 43.8606 160.863 43.9548L160.761 44.702C160.752 44.7222 160.757 44.7323 160.773 44.7391C160.789 44.7458 160.805 44.7391 160.83 44.729L161.577 44.2847C161.667 44.2275 161.764 44.2073 161.871 44.2241C161.973 44.2409 162.05 44.2881 162.107 44.3722C162.177 44.4732 162.189 44.5607 162.148 44.6381C162.107 44.7121 162.034 44.766 161.936 44.7997L161.099 45.1127C161.075 45.1194 161.067 45.1295 161.067 45.1396C161.067 45.1497 161.079 45.1632 161.099 45.1665L161.936 45.4795C162.042 45.5166 162.115 45.5771 162.148 45.6579C162.181 45.7387 162.169 45.8229 162.107 45.9036C162.054 45.9844 161.977 46.0349 161.871 46.0517C161.769 46.0686 161.671 46.0517 161.577 46.0012L160.83 45.5469C160.805 45.5334 160.789 45.53 160.773 45.5368C160.757 45.5435 160.752 45.557 160.761 45.5738L160.863 46.321C160.879 46.4152 160.85 46.496 160.777 46.5566C160.703 46.6205 160.61 46.6508 160.495 46.6508H160.491Z" fill="white"/>
<path d="M165.437 46.6508C165.33 46.6508 165.245 46.6205 165.179 46.5566C165.114 46.4926 165.086 46.4152 165.094 46.321L165.196 45.5738C165.204 45.5536 165.196 45.5435 165.184 45.5368C165.167 45.53 165.151 45.5368 165.126 45.5469L164.38 45.9911C164.286 46.0484 164.192 46.0686 164.094 46.0517C163.996 46.0349 163.914 45.9878 163.853 45.9036C163.784 45.8027 163.772 45.7151 163.812 45.6377C163.853 45.5603 163.927 45.5098 164.025 45.4762L164.861 45.1632C164.886 45.1564 164.894 45.1463 164.894 45.1362C164.894 45.1261 164.882 45.1127 164.861 45.1093L164.025 44.7963C163.918 44.7593 163.849 44.6987 163.816 44.6179C163.788 44.5371 163.796 44.453 163.849 44.3722C163.91 44.2914 163.992 44.2409 164.09 44.2241C164.188 44.2073 164.286 44.2241 164.376 44.2746L165.122 44.729C165.147 44.7424 165.163 44.7458 165.179 44.7391C165.196 44.7323 165.2 44.7189 165.192 44.702L165.09 43.9548C165.082 43.8606 165.114 43.7798 165.184 43.7192C165.253 43.6553 165.343 43.625 165.461 43.625C165.567 43.625 165.657 43.6553 165.726 43.7192C165.796 43.7832 165.82 43.8606 165.808 43.9548L165.706 44.702C165.698 44.7222 165.702 44.7323 165.718 44.7391C165.734 44.7458 165.751 44.7391 165.775 44.729L166.522 44.2847C166.612 44.2275 166.71 44.2073 166.816 44.2241C166.918 44.2409 166.995 44.2881 167.053 44.3722C167.122 44.4732 167.134 44.5607 167.093 44.6381C167.053 44.7121 166.979 44.766 166.881 44.7997L166.045 45.1127C166.02 45.1194 166.012 45.1295 166.012 45.1396C166.012 45.1497 166.024 45.1632 166.045 45.1665L166.881 45.4795C166.987 45.5166 167.061 45.5771 167.093 45.6579C167.126 45.7387 167.114 45.8229 167.053 45.9036C167 45.9844 166.922 46.0349 166.816 46.0517C166.714 46.0686 166.616 46.0517 166.522 46.0012L165.775 45.5469C165.751 45.5334 165.734 45.53 165.718 45.5368C165.702 45.5435 165.698 45.557 165.706 45.5738L165.808 46.321C165.824 46.4152 165.796 46.496 165.722 46.5566C165.649 46.6205 165.555 46.6508 165.441 46.6508H165.437Z" fill="white"/>
<path d="M170.382 46.6508C170.276 46.6508 170.19 46.6205 170.125 46.5566C170.059 46.4926 170.031 46.4152 170.039 46.321L170.141 45.5738C170.149 45.5536 170.141 45.5435 170.129 45.5368C170.113 45.53 170.096 45.5368 170.072 45.5469L169.325 45.9911C169.231 46.0484 169.137 46.0686 169.039 46.0517C168.941 46.0349 168.86 45.9878 168.799 45.9036C168.729 45.8027 168.717 45.7151 168.758 45.6377C168.798 45.5603 168.872 45.5098 168.97 45.4762L169.806 45.1632C169.831 45.1564 169.839 45.1463 169.839 45.1362C169.839 45.1261 169.827 45.1127 169.806 45.1093L168.97 44.7963C168.864 44.7593 168.794 44.6987 168.762 44.6179C168.733 44.5371 168.741 44.453 168.794 44.3722C168.856 44.2914 168.937 44.2409 169.035 44.2241C169.133 44.2073 169.231 44.2241 169.321 44.2746L170.068 44.729C170.092 44.7424 170.108 44.7458 170.125 44.7391C170.141 44.7323 170.145 44.7189 170.137 44.702L170.035 43.9548C170.027 43.8606 170.059 43.7798 170.129 43.7192C170.198 43.6553 170.288 43.625 170.406 43.625C170.512 43.625 170.602 43.6553 170.672 43.7192C170.741 43.7832 170.765 43.8606 170.753 43.9548L170.651 44.702C170.643 44.7222 170.647 44.7323 170.663 44.7391C170.68 44.7458 170.696 44.7391 170.721 44.729L171.467 44.2847C171.557 44.2275 171.655 44.2073 171.761 44.2241C171.863 44.2409 171.941 44.2881 171.998 44.3722C172.067 44.4732 172.08 44.5607 172.039 44.6381C171.998 44.7121 171.924 44.766 171.827 44.7997L170.99 45.1127C170.965 45.1194 170.957 45.1295 170.957 45.1396C170.957 45.1497 170.97 45.1632 170.99 45.1665L171.827 45.4795C171.933 45.5166 172.006 45.5771 172.039 45.6579C172.071 45.7387 172.059 45.8229 171.998 45.9036C171.945 45.9844 171.867 46.0349 171.761 46.0517C171.659 46.0686 171.561 46.0517 171.467 46.0012L170.721 45.5469C170.696 45.5334 170.68 45.53 170.663 45.5368C170.647 45.5435 170.643 45.557 170.651 45.5738L170.753 46.321C170.77 46.4152 170.741 46.496 170.668 46.5566C170.594 46.6205 170.5 46.6508 170.386 46.6508H170.382Z" fill="#0B2C4C"/>
</svg>
