<svg width="28" height="28" viewBox="0 0 28 28" fill="none" xmlns="http://www.w3.org/2000/svg">
<path d="M14.8844 4.18904C14.6457 3.95044 14.322 3.81641 13.9845 3.81641C13.6471 3.81641 13.3234 3.95044 13.0847 4.18904L4.17563 13.0981C3.94379 13.3382 3.81551 13.6597 3.81841 13.9934C3.82131 14.3271 3.95516 14.6463 4.19113 14.8823C4.42711 15.1182 4.74632 15.2521 5.08003 15.255C5.41373 15.2579 5.73523 15.1296 5.97527 14.8978L6.34817 14.5249V22.907C6.34817 23.2446 6.48226 23.5683 6.72095 23.807C6.95963 24.0457 7.28335 24.1798 7.6209 24.1798H10.1664C10.5039 24.1798 10.8276 24.0457 11.0663 23.807C11.305 23.5683 11.4391 23.2446 11.4391 22.907V20.3616C11.4391 20.024 11.5732 19.7003 11.8119 19.4616C12.0505 19.223 12.3743 19.0889 12.7118 19.0889H15.2573C15.5948 19.0889 15.9185 19.223 16.1572 19.4616C16.3959 19.7003 16.53 20.024 16.53 20.3616V22.907C16.53 23.2446 16.6641 23.5683 16.9028 23.807C17.1414 24.0457 17.4652 24.1798 17.8027 24.1798H20.3482C20.6857 24.1798 21.0094 24.0457 21.2481 23.807C21.4868 23.5683 21.6209 23.2446 21.6209 22.907V14.5249L21.9938 14.8978C22.2338 15.1296 22.5553 15.2579 22.889 15.255C23.2228 15.2521 23.542 15.1182 23.7779 14.8823C24.0139 14.6463 24.1478 14.3271 24.1507 13.9934C24.1536 13.6597 24.0253 13.3382 23.7934 13.0981L14.8844 4.18904Z" fill="white"/>
</svg>
