<svg width="42" height="42" viewBox="0 0 42 42" fill="none" xmlns="http://www.w3.org/2000/svg">
<path d="M38.7542 0.121582H3.03703C2.30835 0.121582 1.60952 0.411047 1.09427 0.926299C0.579016 1.44155 0.289551 2.14038 0.289551 2.86906L0.289551 38.5862C0.289551 39.3149 0.579016 40.0137 1.09427 40.529C1.60952 41.0442 2.30835 41.3337 3.03703 41.3337H38.7542C39.4829 41.3337 40.1817 41.0442 40.697 40.529C41.2122 40.0137 41.5017 39.3149 41.5017 38.5862V2.86906C41.5017 2.14038 41.2122 1.44155 40.697 0.926299C40.1817 0.411047 39.4829 0.121582 38.7542 0.121582ZM3.03703 1.49532H38.7542C39.1185 1.49532 39.4679 1.64005 39.7256 1.89768C39.9832 2.1553 40.1279 2.50472 40.1279 2.86906V5.61653H1.66329V2.86906C1.66329 2.50472 1.80802 2.1553 2.06565 1.89768C2.32327 1.64005 2.67269 1.49532 3.03703 1.49532ZM38.7542 39.96H3.03703C2.67269 39.96 2.32327 39.8152 2.06565 39.5576C1.80802 39.3 1.66329 38.9506 1.66329 38.5862V6.99027H40.1279V38.5862C40.1279 38.9506 39.9832 39.3 39.7256 39.5576C39.4679 39.8152 39.1185 39.96 38.7542 39.96Z" fill="white"/>
<path d="M3.72495 4.24385H4.41182C4.59399 4.24385 4.7687 4.17149 4.89751 4.04268C5.02633 3.91386 5.09869 3.73915 5.09869 3.55699C5.09869 3.37482 5.02633 3.20011 4.89751 3.0713C4.7687 2.94248 4.59399 2.87012 4.41182 2.87012H3.72495C3.54279 2.87012 3.36808 2.94248 3.23927 3.0713C3.11045 3.20011 3.03809 3.37482 3.03809 3.55699C3.03809 3.73915 3.11045 3.91386 3.23927 4.04268C3.36808 4.17149 3.54279 4.24385 3.72495 4.24385Z" fill="white"/>
<path d="M7.15757 4.24385H7.84444C8.02661 4.24385 8.20132 4.17149 8.33013 4.04268C8.45894 3.91386 8.53131 3.73915 8.53131 3.55699C8.53131 3.37482 8.45894 3.20011 8.33013 3.0713C8.20132 2.94248 8.02661 2.87012 7.84444 2.87012H7.15757C6.9754 2.87012 6.8007 2.94248 6.67188 3.0713C6.54307 3.20011 6.4707 3.37482 6.4707 3.55699C6.4707 3.73915 6.54307 3.91386 6.67188 4.04268C6.8007 4.17149 6.9754 4.24385 7.15757 4.24385Z" fill="white"/>
<path d="M10.5931 4.24385H11.28C11.4622 4.24385 11.6369 4.17149 11.7657 4.04268C11.8945 3.91386 11.9669 3.73915 11.9669 3.55699C11.9669 3.37482 11.8945 3.20011 11.7657 3.0713C11.6369 2.94248 11.4622 2.87012 11.28 2.87012H10.5931C10.4109 2.87012 10.2362 2.94248 10.1074 3.0713C9.97862 3.20011 9.90625 3.37482 9.90625 3.55699C9.90625 3.73915 9.97862 3.91386 10.1074 4.04268C10.2362 4.17149 10.4109 4.24385 10.5931 4.24385Z" fill="white"/>
<path d="M33.9476 4.24385H38.0688C38.251 4.24385 38.4257 4.17149 38.5545 4.04268C38.6833 3.91386 38.7557 3.73915 38.7557 3.55699C38.7557 3.37482 38.6833 3.20011 38.5545 3.0713C38.4257 2.94248 38.251 2.87012 38.0688 2.87012H33.9476C33.7654 2.87012 33.5907 2.94248 33.4619 3.0713C33.3331 3.20011 33.2607 3.37482 33.2607 3.55699C33.2607 3.73915 33.3331 3.91386 33.4619 4.04268C33.5907 4.17149 33.7654 4.24385 33.9476 4.24385Z" fill="white"/>
<path d="M38.0684 9.05127H3.72495C3.54279 9.05127 3.36808 9.12364 3.23927 9.25245C3.11045 9.38126 3.03809 9.55597 3.03809 9.73814C3.03809 9.92031 3.11045 10.095 3.23927 10.2238C3.36808 10.3526 3.54279 10.425 3.72495 10.425H5.78556V13.1725C5.05689 13.1725 4.35805 13.4619 3.8428 13.9772C3.32755 14.4925 3.03809 15.1913 3.03809 15.92C3.03809 16.6486 3.32755 17.3475 3.8428 17.8627C4.35805 18.378 5.05689 18.6674 5.78556 18.6674V21.4149C5.05689 21.4149 4.35805 21.7044 3.8428 22.2196C3.32755 22.7349 3.03809 23.4337 3.03809 24.1624C3.03809 24.8911 3.32755 25.5899 3.8428 26.1051C4.35805 26.6204 5.05689 26.9099 5.78556 26.9099V29.6573C5.05689 29.6573 4.35805 29.9468 3.8428 30.462C3.32755 30.9773 3.03809 31.6761 3.03809 32.4048C3.03809 33.1335 3.32755 33.8323 3.8428 34.3476C4.35805 34.8628 5.05689 35.1523 5.78556 35.1523V37.2129C5.78556 37.3951 5.85793 37.5698 5.98674 37.6986C6.11555 37.8274 6.29026 37.8998 6.47243 37.8998C6.6546 37.8998 6.82931 37.8274 6.95812 37.6986C7.08693 37.5698 7.1593 37.3951 7.1593 37.2129V34.7704C7.57662 34.5323 7.92353 34.1881 8.16483 33.7726C8.40613 33.3572 8.53323 32.8853 8.53323 32.4048C8.53323 31.9244 8.40613 31.4525 8.16483 31.037C7.92353 30.6215 7.57662 30.2773 7.1593 30.0392V26.528C7.57662 26.2899 7.92353 25.9457 8.16483 25.5302C8.40613 25.1147 8.53323 24.6428 8.53323 24.1624C8.53323 23.6819 8.40613 23.21 8.16483 22.7946C7.92353 22.3791 7.57662 22.0349 7.1593 21.7968V18.2855C7.57662 18.0475 7.92353 17.7032 8.16483 17.2878C8.40613 16.8723 8.53323 16.4004 8.53323 15.92C8.53323 15.4395 8.40613 14.9676 8.16483 14.5521C7.92353 14.1367 7.57662 13.7925 7.1593 13.5544V10.425H10.5936V14.3951C10.3777 14.5861 10.2048 14.8209 10.0864 15.0837C9.96794 15.3466 9.9067 15.6316 9.9067 15.92C9.9067 16.2083 9.96794 16.4933 10.0864 16.7562C10.2048 17.019 10.3777 17.2538 10.5936 17.4448V37.2129C10.5936 37.3951 10.666 37.5698 10.7948 37.6986C10.9236 37.8274 11.0983 37.8998 11.2805 37.8998C11.4627 37.8998 11.6374 37.8274 11.7662 37.6986C11.895 37.5698 11.9674 37.3951 11.9674 37.2129V17.9806H15.4017V22.1018C14.8552 22.1018 14.3311 22.3189 13.9447 22.7053C13.5582 23.0918 13.3411 23.6159 13.3411 24.1624C13.3411 24.7089 13.5582 25.233 13.9447 25.6194C14.3311 26.0059 14.8552 26.223 15.4017 26.223V37.2129C15.4017 37.3951 15.4741 37.5698 15.6029 37.6986C15.7317 37.8274 15.9064 37.8998 16.0886 37.8998C16.2708 37.8998 16.4455 37.8274 16.5743 37.6986C16.7031 37.5698 16.7755 37.3951 16.7755 37.2129V26.223H20.2098V30.3442H19.5229C18.9764 30.3442 18.4523 30.5613 18.0659 30.9477C17.6794 31.3342 17.4623 31.8583 17.4623 32.4048C17.4623 32.9513 17.6794 33.4754 18.0659 33.8619C18.4523 34.2483 18.9764 34.4654 19.5229 34.4654H20.2098V37.2129C20.2098 37.3951 20.2822 37.5698 20.411 37.6986C20.5398 37.8274 20.7145 37.8998 20.8967 37.8998C21.0788 37.8998 21.2535 37.8274 21.3824 37.6986C21.5112 37.5698 21.5835 37.3951 21.5835 37.2129V34.4654H25.0179V37.2129C25.0179 37.3951 25.0903 37.5698 25.2191 37.6986C25.3479 37.8274 25.5226 37.8998 25.7048 37.8998C25.8869 37.8998 26.0616 37.8274 26.1904 37.6986C26.3193 37.5698 26.3916 37.3951 26.3916 37.2129V34.4654H29.826V37.2129C29.826 37.3951 29.8983 37.5698 30.0271 37.6986C30.156 37.8274 30.3307 37.8998 30.5128 37.8998C30.695 37.8998 30.8697 37.8274 30.9985 37.6986C31.1273 37.5698 31.1997 37.3951 31.1997 37.2129V34.4654H34.634V37.2129C34.634 37.3951 34.7064 37.5698 34.8352 37.6986C34.964 37.8274 35.1387 37.8998 35.3209 37.8998C35.5031 37.8998 35.6778 37.8274 35.8066 37.6986C35.9354 37.5698 36.0078 37.3951 36.0078 37.2129V34.4654C36.5543 34.4654 37.0784 34.2483 37.4649 33.8619C37.8513 33.4754 38.0684 32.9513 38.0684 32.4048C38.0684 31.8583 37.8513 31.3342 37.4649 30.9477C37.0784 30.5613 36.5543 30.3442 36.0078 30.3442V10.425H38.0684C38.2506 10.425 38.4253 10.3526 38.5541 10.2238C38.6829 10.095 38.7553 9.92031 38.7553 9.73814C38.7553 9.55597 38.6829 9.38126 38.5541 9.25245C38.4253 9.12364 38.2506 9.05127 38.0684 9.05127ZM5.78556 33.7785C5.51386 33.7785 5.24826 33.698 5.02235 33.547C4.79644 33.3961 4.62037 33.1815 4.51639 32.9305C4.41242 32.6795 4.38521 32.4033 4.43822 32.1368C4.49123 31.8703 4.62206 31.6255 4.81418 31.4334C5.0063 31.2413 5.25108 31.1105 5.51756 31.0575C5.78404 31.0045 6.06025 31.0317 6.31127 31.1356C6.56228 31.2396 6.77683 31.4157 6.92778 31.6416C7.07873 31.8675 7.1593 32.1331 7.1593 32.4048C7.1593 32.7691 7.01457 33.1186 6.75694 33.3762C6.49931 33.6338 6.1499 33.7785 5.78556 33.7785ZM5.78556 25.5361C5.51386 25.5361 5.24826 25.4556 5.02235 25.3046C4.79644 25.1537 4.62037 24.9391 4.51639 24.6881C4.41242 24.4371 4.38521 24.1609 4.43822 23.8944C4.49123 23.6279 4.62206 23.3831 4.81418 23.191C5.0063 22.9989 5.25108 22.868 5.51756 22.815C5.78404 22.762 6.06025 22.7892 6.31127 22.8932C6.56228 22.9972 6.77683 23.1733 6.92778 23.3992C7.07873 23.6251 7.1593 23.8907 7.1593 24.1624C7.1593 24.5267 7.01457 24.8761 6.75694 25.1338C6.49931 25.3914 6.1499 25.5361 5.78556 25.5361ZM5.78556 17.2937C5.51386 17.2937 5.24826 17.2131 5.02235 17.0622C4.79644 16.9112 4.62037 16.6967 4.51639 16.4457C4.41242 16.1946 4.38521 15.9184 4.43822 15.652C4.49123 15.3855 4.62206 15.1407 4.81418 14.9486C5.0063 14.7565 5.25108 14.6256 5.51756 14.5726C5.78404 14.5196 6.06025 14.5468 6.31127 14.6508C6.56228 14.7548 6.77683 14.9308 6.92778 15.1567C7.07873 15.3827 7.1593 15.6483 7.1593 15.92C7.1593 16.2843 7.01457 16.6337 6.75694 16.8913C6.49931 17.149 6.1499 17.2937 5.78556 17.2937ZM26.3916 22.1018V17.8542C26.7931 17.7143 27.1412 17.4529 27.3874 17.1064C27.6337 16.7598 27.766 16.3451 27.766 15.92C27.766 15.4948 27.6337 15.0801 27.3874 14.7336C27.1412 14.387 26.7931 14.1256 26.3916 13.9857V10.425H29.826V22.1018H26.3916ZM25.0179 17.9806V22.1018H21.5835V17.9806H25.0179ZM16.7755 13.8594V10.425H20.2098V13.8594H16.7755ZM21.5835 10.425H25.0179V13.8594H21.5835V10.425ZM11.9674 10.425H15.4017V13.8594H11.9674V10.425ZM11.2805 15.92C11.2805 15.7378 11.3529 15.5631 11.4817 15.4343C11.6105 15.3055 11.7852 15.2331 11.9674 15.2331H25.7048C25.8869 15.2331 26.0616 15.3055 26.1904 15.4343C26.3193 15.5631 26.3916 15.7378 26.3916 15.92C26.3916 16.1021 26.3193 16.2768 26.1904 16.4056C26.0616 16.5345 25.8869 16.6068 25.7048 16.6068H11.9674C11.7852 16.6068 11.6105 16.5345 11.4817 16.4056C11.3529 16.2768 11.2805 16.1021 11.2805 15.92ZM16.7755 17.9806H20.2098V22.1018H16.7755V17.9806ZM14.7149 24.1624C14.7149 23.9802 14.7872 23.8055 14.916 23.6767C15.0448 23.5479 15.2196 23.4755 15.4017 23.4755H31.1997C31.3819 23.4755 31.5566 23.5479 31.6854 23.6767C31.8142 23.8055 31.8866 23.9802 31.8866 24.1624C31.8866 24.3446 31.8142 24.5193 31.6854 24.6481C31.5566 24.7769 31.3819 24.8492 31.1997 24.8492H15.4017C15.2196 24.8492 15.0448 24.7769 14.916 24.6481C14.7872 24.5193 14.7149 24.3446 14.7149 24.1624ZM26.3916 30.3442V26.223H29.826V30.3442H26.3916ZM21.5835 26.223H25.0179V30.3442H21.5835V26.223ZM36.6947 32.4048C36.6947 32.587 36.6223 32.7617 36.4935 32.8905C36.3647 33.0193 36.19 33.0917 36.0078 33.0917H19.5229C19.3408 33.0917 19.1661 33.0193 19.0372 32.8905C18.9084 32.7617 18.8361 32.587 18.8361 32.4048C18.8361 32.2226 18.9084 32.0479 19.0372 31.9191C19.1661 31.7903 19.3408 31.7179 19.5229 31.7179H36.0078C36.19 31.7179 36.3647 31.7903 36.4935 31.9191C36.6223 32.0479 36.6947 32.2226 36.6947 32.4048ZM34.634 30.3442H31.1997V26.223C31.7462 26.223 32.2703 26.0059 32.6568 25.6194C33.0432 25.233 33.2603 24.7089 33.2603 24.1624C33.2603 23.6159 33.0432 23.0918 32.6568 22.7053C32.2703 22.3189 31.7462 22.1018 31.1997 22.1018V10.425H34.634V30.3442Z" fill="white"/>
</svg>
