<svg width="29" height="29" viewBox="0 0 29 29" fill="none" xmlns="http://www.w3.org/2000/svg">
<path d="M16.2572 15.498V13.8349C16.2572 13.5462 16.0049 13.313 15.6947 13.3125H6.2188C5.90798 13.3125 5.65625 13.5467 5.65625 13.8349V15.498C5.65625 15.7866 5.90852 16.0198 6.2188 16.0203H15.6947C16.0055 16.0203 16.2567 15.7861 16.2572 15.498ZM15.6005 15.4106H6.31293V13.9217H15.6011V15.4106H15.6005Z" fill="url(#paint0_linear_6193_17078)"/>
<path d="M7.09295 17.1406C6.44612 17.1406 5.92188 17.6274 5.92188 18.228C5.92188 18.8286 6.44612 19.3154 7.09295 19.3154C7.73978 19.3154 8.26402 18.8286 8.26402 18.228C8.26348 17.6279 7.73923 17.1411 7.09295 17.1406ZM7.09295 18.7062C6.80894 18.7062 6.57855 18.4922 6.57855 18.2285C6.57855 17.9648 6.80894 17.7509 7.09295 17.7509C7.37696 17.7509 7.60735 17.9648 7.60735 18.2285C7.60735 18.4922 7.37696 18.7057 7.09295 18.7062Z" fill="url(#paint1_linear_6193_17078)"/>
<path d="M7.09295 19.8789C6.44612 19.8789 5.92188 20.3657 5.92188 20.9663C5.92188 21.5669 6.44612 22.0537 7.09295 22.0537C7.73978 22.0537 8.26402 21.5669 8.26402 20.9663C8.26348 20.3662 7.73923 19.8794 7.09295 19.8789ZM7.09295 21.4439C6.80894 21.4439 6.57855 21.23 6.57855 20.9663C6.57855 20.7026 6.80894 20.4887 7.09295 20.4887C7.37696 20.4887 7.60735 20.7026 7.60735 20.9663C7.60735 21.23 7.37696 21.4439 7.09295 21.4439Z" fill="url(#paint2_linear_6193_17078)"/>
<path d="M7.09295 22.6211C6.44612 22.6211 5.92188 23.1079 5.92188 23.7085C5.92188 24.3091 6.44612 24.7959 7.09295 24.7959C7.73978 24.7959 8.26402 24.3091 8.26402 23.7085C8.26348 23.1084 7.73923 22.6216 7.09295 22.6211ZM7.09295 24.1861C6.80894 24.1861 6.57855 23.9722 6.57855 23.7085C6.57855 23.4448 6.80894 23.2308 7.09295 23.2308C7.37696 23.2308 7.60735 23.4448 7.60735 23.7085C7.60735 23.9722 7.37696 24.1861 7.09295 24.1861Z" fill="url(#paint3_linear_6193_17078)"/>
<path d="M10.9562 17.1406C10.3094 17.1406 9.78516 17.6274 9.78516 18.228C9.78516 18.8286 10.3094 19.3154 10.9562 19.3154C11.6031 19.3154 12.1273 18.8286 12.1273 18.228C12.1268 17.6279 11.6025 17.1411 10.9562 17.1406ZM10.9562 18.7062C10.6722 18.7062 10.4418 18.4922 10.4418 18.2285C10.4418 17.9648 10.6722 17.7509 10.9562 17.7509C11.2402 17.7509 11.4706 17.9648 11.4706 18.2285C11.4706 18.4922 11.2402 18.7057 10.9562 18.7062Z" fill="url(#paint4_linear_6193_17078)"/>
<path d="M10.9562 19.8789C10.3094 19.8789 9.78516 20.3657 9.78516 20.9663C9.78516 21.5669 10.3094 22.0537 10.9562 22.0537C11.6031 22.0537 12.1273 21.5669 12.1273 20.9663C12.1268 20.3662 11.6025 19.8794 10.9562 19.8789ZM10.9562 21.4439C10.6722 21.4439 10.4418 21.23 10.4418 20.9663C10.4418 20.7026 10.6722 20.4887 10.9562 20.4887C11.2402 20.4887 11.4706 20.7026 11.4706 20.9663C11.4706 21.23 11.2402 21.4439 10.9562 21.4439Z" fill="url(#paint5_linear_6193_17078)"/>
<path d="M10.9562 22.6211C10.3094 22.6211 9.78516 23.1079 9.78516 23.7085C9.78516 24.3091 10.3094 24.7959 10.9562 24.7959C11.6031 24.7959 12.1273 24.3091 12.1273 23.7085C12.1268 23.1084 11.6025 22.6216 10.9562 22.6211ZM10.9562 24.1861C10.6722 24.1861 10.4418 23.9722 10.4418 23.7085C10.4418 23.4448 10.6722 23.2308 10.9562 23.2308C11.2402 23.2308 11.4706 23.4448 11.4706 23.7085C11.4706 23.9722 11.2402 24.1861 10.9562 24.1861Z" fill="url(#paint6_linear_6193_17078)"/>
<path d="M14.8234 17.1406C14.1766 17.1406 13.6523 17.6274 13.6523 18.228C13.6523 18.8286 14.1766 19.3154 14.8234 19.3154C15.4702 19.3154 15.9945 18.8286 15.9945 18.228C15.9939 17.6279 15.4697 17.1411 14.8234 17.1406ZM14.8234 18.7062C14.5394 18.7062 14.309 18.4922 14.309 18.2285C14.309 17.9648 14.5394 17.7509 14.8234 17.7509C15.1074 17.7509 15.3378 17.9648 15.3378 18.2285C15.3378 18.4922 15.1074 18.7057 14.8234 18.7062Z" fill="url(#paint7_linear_6193_17078)"/>
<path d="M14.8234 19.8789C14.1766 19.8789 13.6523 20.3657 13.6523 20.9663C13.6523 21.5669 14.1766 22.0537 14.8234 22.0537C15.4702 22.0537 15.9945 21.5669 15.9945 20.9663C15.9939 20.3662 15.4697 19.8794 14.8234 19.8789ZM14.8234 21.4439C14.5394 21.4439 14.309 21.23 14.309 20.9663C14.309 20.7026 14.5394 20.4887 14.8234 20.4887C15.1074 20.4887 15.3378 20.7026 15.3378 20.9663C15.3378 21.23 15.1074 21.4439 14.8234 21.4439Z" fill="url(#paint8_linear_6193_17078)"/>
<path d="M14.8234 22.6211C14.1766 22.6211 13.6523 23.1079 13.6523 23.7085C13.6523 24.3091 14.1766 24.7959 14.8234 24.7959C15.4702 24.7959 15.9945 24.3091 15.9945 23.7085C15.9939 23.1084 15.4697 22.6216 14.8234 22.6211ZM14.8234 24.1861C14.5394 24.1861 14.309 23.9722 14.309 23.7085C14.309 23.4448 14.5394 23.2308 14.8234 23.2308C15.1074 23.2308 15.3378 23.4448 15.3378 23.7085C15.3378 23.9722 15.1074 24.1861 14.8234 24.1861Z" fill="url(#paint9_linear_6193_17078)"/>
<path d="M12.8479 4.62929H13.2966C13.4777 4.62929 13.6249 4.4926 13.6249 4.32441C13.6249 4.15622 13.4777 4.01953 13.2966 4.01953H12.8479C12.6667 4.01953 12.5195 4.15622 12.5195 4.32441C12.5195 4.4926 12.6667 4.62929 12.8479 4.62929Z" fill="url(#paint10_linear_6193_17078)"/>
<path d="M8.13672 4.32441C8.13672 4.4926 8.28392 4.62929 8.46506 4.62929H11.4573C11.6385 4.62929 11.7857 4.4926 11.7857 4.32441C11.7857 4.15622 11.6385 4.01953 11.4573 4.01953H8.46506C8.28392 4.01953 8.13672 4.15622 8.13672 4.32441Z" fill="url(#paint11_linear_6193_17078)"/>
<path d="M12.8479 6.2621H13.2966C13.4777 6.2621 13.6249 6.12541 13.6249 5.95722C13.6249 5.78903 13.4777 5.65234 13.2966 5.65234H12.8479C12.6667 5.65234 12.5195 5.78903 12.5195 5.95722C12.5195 6.12541 12.6667 6.2621 12.8479 6.2621Z" fill="url(#paint12_linear_6193_17078)"/>
<path d="M11.4573 5.65234H8.46506C8.28392 5.65234 8.13672 5.78903 8.13672 5.95722C8.13672 6.12541 8.28392 6.2621 8.46506 6.2621H11.4573C11.6385 6.2621 11.7857 6.12541 11.7857 5.95722C11.7857 5.78903 11.6385 5.65234 11.4573 5.65234Z" fill="url(#paint13_linear_6193_17078)"/>
<path d="M12.8479 7.89491H13.2966C13.4777 7.89491 13.6249 7.75822 13.6249 7.59003C13.6249 7.42184 13.4777 7.28516 13.2966 7.28516H12.8479C12.6667 7.28516 12.5195 7.42184 12.5195 7.59003C12.5195 7.75822 12.6667 7.89491 12.8479 7.89491Z" fill="url(#paint14_linear_6193_17078)"/>
<path d="M11.4573 7.28516H8.46506C8.28392 7.28516 8.13672 7.42184 8.13672 7.59003C8.13672 7.75822 8.28392 7.89491 8.46506 7.89491H11.4573C11.6385 7.89491 11.7857 7.75822 11.7857 7.59003C11.7857 7.42184 11.6385 7.28516 11.4573 7.28516Z" fill="url(#paint15_linear_6193_17078)"/>
<path d="M12.8479 9.52772H13.2966C13.4777 9.52772 13.6249 9.39104 13.6249 9.22285C13.6249 9.05466 13.4777 8.91797 13.2966 8.91797H12.8479C12.6667 8.91797 12.5195 9.05466 12.5195 9.22285C12.5195 9.39104 12.6667 9.52772 12.8479 9.52772Z" fill="url(#paint16_linear_6193_17078)"/>
<path d="M11.4573 8.91797H8.46506C8.28392 8.91797 8.13672 9.05466 8.13672 9.22285C8.13672 9.39104 8.28392 9.52772 8.46506 9.52772H11.4573C11.6385 9.52772 11.7857 9.39104 11.7857 9.22285C11.7857 9.05466 11.6385 8.91797 11.4573 8.91797Z" fill="url(#paint17_linear_6193_17078)"/>
<path d="M12.8479 11.1605H13.2966C13.4777 11.1605 13.6249 11.0238 13.6249 10.8557C13.6249 10.6875 13.4777 10.5508 13.2966 10.5508H12.8479C12.6667 10.5508 12.5195 10.6875 12.5195 10.8557C12.5195 11.0238 12.6667 11.1605 12.8479 11.1605Z" fill="url(#paint18_linear_6193_17078)"/>
<path d="M11.4573 10.5508H8.46506C8.28392 10.5508 8.13672 10.6875 8.13672 10.8557C8.13672 11.0238 8.28392 11.1605 8.46506 11.1605H11.4573C11.6385 11.1605 11.7857 11.0238 11.7857 10.8557C11.7857 10.6875 11.6385 10.5508 11.4573 10.5508Z" fill="url(#paint19_linear_6193_17078)"/>
<path d="M20.7032 21.6466C20.6982 22.3051 21.2695 22.8422 21.9788 22.8463C22.688 22.8508 23.2664 22.3204 23.2708 21.6618C23.2708 21.6567 23.2708 21.6512 23.2708 21.6461V19.3915C23.2658 18.733 22.6874 18.203 21.9788 18.2071C21.2761 18.2111 20.7081 18.7391 20.7032 19.3915V21.6461V21.6466ZM21.3598 19.392C21.3631 19.0704 21.6466 18.8122 21.993 18.8153C22.335 18.8183 22.6108 19.0749 22.6141 19.392V21.6466C22.6174 21.9682 22.3394 22.2314 21.993 22.2345C21.6466 22.2375 21.3631 21.9794 21.3598 21.6578C21.3598 21.6542 21.3598 21.6506 21.3598 21.6466V19.392Z" fill="url(#paint20_linear_6193_17078)"/>
<path d="M21.3557 14.5159C21.5368 14.5159 21.684 14.3792 21.684 14.211V10.801C21.684 10.6328 21.5368 10.4961 21.3557 10.4961C21.1745 10.4961 21.0273 10.6328 21.0273 10.801V14.211C21.0273 14.3792 21.1745 14.5159 21.3557 14.5159Z" fill="url(#paint21_linear_6193_17078)"/>
<path d="M21.0273 15.6108C21.0273 15.779 21.1745 15.9157 21.3557 15.9157C21.5368 15.9157 21.684 15.779 21.684 15.6108V15.3283C21.684 15.1601 21.5368 15.0234 21.3557 15.0234C21.1745 15.0234 21.0273 15.1601 21.0273 15.3283V15.6108Z" fill="url(#paint22_linear_6193_17078)"/>
<path d="M22.6526 11.5281C22.8337 11.5281 22.9809 11.3914 22.9809 11.2232V10.801C22.9809 10.6328 22.8337 10.4961 22.6526 10.4961C22.4714 10.4961 22.3242 10.6328 22.3242 10.801V11.2232C22.3242 11.3914 22.4714 11.5281 22.6526 11.5281Z" fill="url(#paint23_linear_6193_17078)"/>
<path d="M22.3242 13.2322C22.3242 13.4004 22.4714 13.5371 22.6526 13.5371C22.8337 13.5371 22.9809 13.4004 22.9809 13.2322V12.3674C22.9809 12.1992 22.8337 12.0625 22.6526 12.0625C22.4714 12.0625 22.3242 12.1992 22.3242 12.3674V13.2322Z" fill="url(#paint24_linear_6193_17078)"/>
<path d="M22.3242 15.6119C22.3242 15.7801 22.4714 15.9168 22.6526 15.9168C22.8337 15.9168 22.9809 15.7801 22.9809 15.6119V14.3518C22.9809 14.1836 22.8337 14.0469 22.6526 14.0469C22.4714 14.0469 22.3242 14.1836 22.3242 14.3518V15.6119Z" fill="url(#paint25_linear_6193_17078)"/>
<path d="M23.2718 9.11387H19.6065V8.65858C19.6065 8.25005 19.2497 7.91824 18.8092 7.91824H17.9161V7.66265C17.9161 6.92739 17.2742 6.33186 16.4829 6.33186H14.932L14.9342 5.55239C15.1553 5.60168 15.3884 5.54934 15.5614 5.41215C15.5822 5.39538 15.6133 5.39538 15.6341 5.41215L15.6363 5.41418C15.9017 5.62302 16.2908 5.62251 16.5557 5.41367C16.577 5.39691 16.6082 5.3964 16.6301 5.41266L16.8698 5.60168C16.9491 5.66621 17.0558 5.69365 17.1593 5.67485C17.3109 5.64538 17.4192 5.5214 17.4198 5.3781L17.4302 3.49091C17.4329 2.68401 16.7319 2.02801 15.8629 2.02344H15.8569L8.26348 2.00006H8.25691C7.97071 1.99752 7.68889 2.06968 7.44482 2.2084C6.97694 2.47212 6.69074 2.94315 6.68909 3.45128V6.33186H5.43375C4.6419 6.33186 4 6.9279 4 7.66316V8.48988C4 8.65808 4.14721 8.79476 4.32834 8.79476C4.50947 8.79476 4.65668 8.65808 4.65668 8.48988V7.66316C4.65668 7.26479 5.00417 6.94212 5.4332 6.94212H6.688V11.8435H5.99958C5.81845 11.841 5.66796 11.9716 5.65756 12.1393C5.65209 12.3075 5.79437 12.4482 5.9755 12.4533C5.97879 12.4533 5.98207 12.4533 5.9859 12.4533H15.9165C16.0976 12.4558 16.2481 12.3252 16.2585 12.1576C16.264 11.9894 16.1217 11.8486 15.9406 11.8435C15.9373 11.8435 15.934 11.8435 15.9302 11.8435H14.9173L14.9304 6.94212H16.4829C16.9119 6.94212 17.2594 7.26479 17.2594 7.66316V25.6692C17.2594 26.0676 16.9119 26.3902 16.4829 26.3902H5.4332C5.00417 26.3902 4.65668 26.0676 4.65668 25.6692V11.0305C4.65668 10.8623 4.50947 10.7257 4.32834 10.7257C4.14721 10.7257 4 10.8623 4 11.0305V25.6692C4 26.404 4.6419 27 5.4332 27H16.4829C17.2747 27 17.9161 26.404 17.9161 25.6692V25.4136H18.8092C19.2491 25.4136 19.6065 25.0823 19.6065 24.6733V24.218H23.2718C24.2262 24.218 25 23.4995 25 22.6133V21.1499C25 20.9817 24.8528 20.845 24.6717 20.845C24.4905 20.845 24.3433 20.9817 24.3433 21.1499V22.6133C24.3433 23.1626 23.8634 23.6082 23.2718 23.6082H19.6065V9.72362H23.2718C23.8634 9.72362 24.3433 10.1687 24.3433 10.7185V18.6093C24.3433 18.7775 24.4905 18.9141 24.6717 18.9141C24.8528 18.9141 25 18.7775 25 18.6093V10.7185C25 9.83236 24.2262 9.11387 23.2718 9.11387ZM14.9397 3.48075C14.9424 3.01226 15.3518 2.63319 15.8569 2.63269H15.8607C16.3669 2.63523 16.7751 3.01785 16.774 3.48787L16.7669 4.80951C16.5436 4.75768 16.3072 4.80951 16.1327 4.94772C16.1119 4.96449 16.0807 4.96449 16.0599 4.94772L16.0577 4.9462C15.7917 4.73685 15.4016 4.73786 15.1367 4.94823C15.1154 4.965 15.0847 4.965 15.0634 4.94823L14.9364 4.84813L14.9402 3.48126L14.9397 3.48075ZM14.283 3.47872L14.2606 11.843H7.34413L7.34522 3.4528C7.34741 2.98533 7.75729 2.60829 8.26074 2.60982L14.5807 2.62913C14.3875 2.87608 14.2836 3.17384 14.283 3.47923V3.47872ZM18.9493 24.6733C18.9493 24.7454 18.8863 24.8034 18.8086 24.8039H17.9155V8.5285H18.8086C18.8863 8.5285 18.9487 8.58694 18.9493 8.65909V24.6738V24.6733Z" fill="url(#paint26_linear_6193_17078)"/>
<defs>
<linearGradient id="paint0_linear_6193_17078" x1="10.9567" y1="13.3125" x2="10.9567" y2="16.0203" gradientUnits="userSpaceOnUse">
<stop stop-color="#81319B"/>
<stop offset="0.48" stop-color="#00A99D"/>
<stop offset="1" stop-color="#0B2C4C"/>
</linearGradient>
<linearGradient id="paint1_linear_6193_17078" x1="7.09295" y1="17.1406" x2="7.09295" y2="19.3154" gradientUnits="userSpaceOnUse">
<stop stop-color="#81319B"/>
<stop offset="0.48" stop-color="#00A99D"/>
<stop offset="1" stop-color="#0B2C4C"/>
</linearGradient>
<linearGradient id="paint2_linear_6193_17078" x1="7.09295" y1="19.8789" x2="7.09295" y2="22.0537" gradientUnits="userSpaceOnUse">
<stop stop-color="#81319B"/>
<stop offset="0.48" stop-color="#00A99D"/>
<stop offset="1" stop-color="#0B2C4C"/>
</linearGradient>
<linearGradient id="paint3_linear_6193_17078" x1="7.09295" y1="22.6211" x2="7.09295" y2="24.7959" gradientUnits="userSpaceOnUse">
<stop stop-color="#81319B"/>
<stop offset="0.48" stop-color="#00A99D"/>
<stop offset="1" stop-color="#0B2C4C"/>
</linearGradient>
<linearGradient id="paint4_linear_6193_17078" x1="10.9562" y1="17.1406" x2="10.9562" y2="19.3154" gradientUnits="userSpaceOnUse">
<stop stop-color="#81319B"/>
<stop offset="0.48" stop-color="#00A99D"/>
<stop offset="1" stop-color="#0B2C4C"/>
</linearGradient>
<linearGradient id="paint5_linear_6193_17078" x1="10.9562" y1="19.8789" x2="10.9562" y2="22.0537" gradientUnits="userSpaceOnUse">
<stop stop-color="#81319B"/>
<stop offset="0.48" stop-color="#00A99D"/>
<stop offset="1" stop-color="#0B2C4C"/>
</linearGradient>
<linearGradient id="paint6_linear_6193_17078" x1="10.9562" y1="22.6211" x2="10.9562" y2="24.7959" gradientUnits="userSpaceOnUse">
<stop stop-color="#81319B"/>
<stop offset="0.48" stop-color="#00A99D"/>
<stop offset="1" stop-color="#0B2C4C"/>
</linearGradient>
<linearGradient id="paint7_linear_6193_17078" x1="14.8234" y1="17.1406" x2="14.8234" y2="19.3154" gradientUnits="userSpaceOnUse">
<stop stop-color="#81319B"/>
<stop offset="0.48" stop-color="#00A99D"/>
<stop offset="1" stop-color="#0B2C4C"/>
</linearGradient>
<linearGradient id="paint8_linear_6193_17078" x1="14.8234" y1="19.8789" x2="14.8234" y2="22.0537" gradientUnits="userSpaceOnUse">
<stop stop-color="#81319B"/>
<stop offset="0.48" stop-color="#00A99D"/>
<stop offset="1" stop-color="#0B2C4C"/>
</linearGradient>
<linearGradient id="paint9_linear_6193_17078" x1="14.8234" y1="22.6211" x2="14.8234" y2="24.7959" gradientUnits="userSpaceOnUse">
<stop stop-color="#81319B"/>
<stop offset="0.48" stop-color="#00A99D"/>
<stop offset="1" stop-color="#0B2C4C"/>
</linearGradient>
<linearGradient id="paint10_linear_6193_17078" x1="13.0722" y1="4.01953" x2="13.0722" y2="4.62929" gradientUnits="userSpaceOnUse">
<stop stop-color="#81319B"/>
<stop offset="0.48" stop-color="#00A99D"/>
<stop offset="1" stop-color="#0B2C4C"/>
</linearGradient>
<linearGradient id="paint11_linear_6193_17078" x1="9.96119" y1="4.01953" x2="9.96119" y2="4.62929" gradientUnits="userSpaceOnUse">
<stop stop-color="#81319B"/>
<stop offset="0.48" stop-color="#00A99D"/>
<stop offset="1" stop-color="#0B2C4C"/>
</linearGradient>
<linearGradient id="paint12_linear_6193_17078" x1="13.0722" y1="5.65234" x2="13.0722" y2="6.2621" gradientUnits="userSpaceOnUse">
<stop stop-color="#81319B"/>
<stop offset="0.48" stop-color="#00A99D"/>
<stop offset="1" stop-color="#0B2C4C"/>
</linearGradient>
<linearGradient id="paint13_linear_6193_17078" x1="9.96119" y1="5.65234" x2="9.96119" y2="6.2621" gradientUnits="userSpaceOnUse">
<stop stop-color="#81319B"/>
<stop offset="0.48" stop-color="#00A99D"/>
<stop offset="1" stop-color="#0B2C4C"/>
</linearGradient>
<linearGradient id="paint14_linear_6193_17078" x1="13.0722" y1="7.28516" x2="13.0722" y2="7.89491" gradientUnits="userSpaceOnUse">
<stop stop-color="#81319B"/>
<stop offset="0.48" stop-color="#00A99D"/>
<stop offset="1" stop-color="#0B2C4C"/>
</linearGradient>
<linearGradient id="paint15_linear_6193_17078" x1="9.96119" y1="7.28516" x2="9.96119" y2="7.89491" gradientUnits="userSpaceOnUse">
<stop stop-color="#81319B"/>
<stop offset="0.48" stop-color="#00A99D"/>
<stop offset="1" stop-color="#0B2C4C"/>
</linearGradient>
<linearGradient id="paint16_linear_6193_17078" x1="13.0722" y1="8.91797" x2="13.0722" y2="9.52772" gradientUnits="userSpaceOnUse">
<stop stop-color="#81319B"/>
<stop offset="0.48" stop-color="#00A99D"/>
<stop offset="1" stop-color="#0B2C4C"/>
</linearGradient>
<linearGradient id="paint17_linear_6193_17078" x1="9.96119" y1="8.91797" x2="9.96119" y2="9.52772" gradientUnits="userSpaceOnUse">
<stop stop-color="#81319B"/>
<stop offset="0.48" stop-color="#00A99D"/>
<stop offset="1" stop-color="#0B2C4C"/>
</linearGradient>
<linearGradient id="paint18_linear_6193_17078" x1="13.0722" y1="10.5508" x2="13.0722" y2="11.1605" gradientUnits="userSpaceOnUse">
<stop stop-color="#81319B"/>
<stop offset="0.48" stop-color="#00A99D"/>
<stop offset="1" stop-color="#0B2C4C"/>
</linearGradient>
<linearGradient id="paint19_linear_6193_17078" x1="9.96119" y1="10.5508" x2="9.96119" y2="11.1605" gradientUnits="userSpaceOnUse">
<stop stop-color="#81319B"/>
<stop offset="0.48" stop-color="#00A99D"/>
<stop offset="1" stop-color="#0B2C4C"/>
</linearGradient>
<linearGradient id="paint20_linear_6193_17078" x1="21.9869" y1="18.207" x2="21.9869" y2="22.8463" gradientUnits="userSpaceOnUse">
<stop stop-color="#81319B"/>
<stop offset="0.48" stop-color="#00A99D"/>
<stop offset="1" stop-color="#0B2C4C"/>
</linearGradient>
<linearGradient id="paint21_linear_6193_17078" x1="21.3557" y1="10.4961" x2="21.3557" y2="14.5159" gradientUnits="userSpaceOnUse">
<stop stop-color="#81319B"/>
<stop offset="0.48" stop-color="#00A99D"/>
<stop offset="1" stop-color="#0B2C4C"/>
</linearGradient>
<linearGradient id="paint22_linear_6193_17078" x1="21.3557" y1="15.0234" x2="21.3557" y2="15.9157" gradientUnits="userSpaceOnUse">
<stop stop-color="#81319B"/>
<stop offset="0.48" stop-color="#00A99D"/>
<stop offset="1" stop-color="#0B2C4C"/>
</linearGradient>
<linearGradient id="paint23_linear_6193_17078" x1="22.6526" y1="10.4961" x2="22.6526" y2="11.5281" gradientUnits="userSpaceOnUse">
<stop stop-color="#81319B"/>
<stop offset="0.48" stop-color="#00A99D"/>
<stop offset="1" stop-color="#0B2C4C"/>
</linearGradient>
<linearGradient id="paint24_linear_6193_17078" x1="22.6526" y1="12.0625" x2="22.6526" y2="13.5371" gradientUnits="userSpaceOnUse">
<stop stop-color="#81319B"/>
<stop offset="0.48" stop-color="#00A99D"/>
<stop offset="1" stop-color="#0B2C4C"/>
</linearGradient>
<linearGradient id="paint25_linear_6193_17078" x1="22.6526" y1="14.0469" x2="22.6526" y2="15.9168" gradientUnits="userSpaceOnUse">
<stop stop-color="#81319B"/>
<stop offset="0.48" stop-color="#00A99D"/>
<stop offset="1" stop-color="#0B2C4C"/>
</linearGradient>
<linearGradient id="paint26_linear_6193_17078" x1="14.5" y1="2" x2="14.5" y2="27" gradientUnits="userSpaceOnUse">
<stop stop-color="#81319B"/>
<stop offset="0.48" stop-color="#00A99D"/>
<stop offset="1" stop-color="#0B2C4C"/>
</linearGradient>
</defs>
</svg>