<svg width="27" height="27" viewBox="0 0 27 27" fill="none" xmlns="http://www.w3.org/2000/svg">
<path fill-rule="evenodd" clip-rule="evenodd" d="M3.52268 10.2246L2.73588 8.99526C2.67788 8.90382 2.57768 8.84874 2.47063 8.84874C2.46483 8.84874 2.45955 8.84874 2.45375 8.84874L1.01041 8.92628L1.92061 7.78784C1.9918 7.69853 2.01078 7.57769 1.97018 7.47074L1.45127 6.10236L2.80075 6.62854C2.90622 6.66971 3.0254 6.65046 3.11346 6.57827L4.23618 5.65533L4.15971 7.11889C4.15391 7.23332 4.20876 7.3424 4.30368 7.40497L5.51657 8.20279L4.12016 8.58138C4.01047 8.61079 3.92505 8.69741 3.89604 8.8081L3.52321 10.2241L3.52268 10.2246ZM3.95036 11.0877L4.4603 9.15354L6.36718 8.63645C6.53593 8.591 6.63665 8.41508 6.5913 8.24396C6.57126 8.16696 6.5238 8.10065 6.45788 8.05734L4.80149 6.96809L4.90591 4.96873C4.91487 4.79174 4.7804 4.64041 4.60585 4.63132C4.5278 4.62704 4.45133 4.65271 4.39069 4.70244L2.85717 5.96333L1.0141 5.24519C0.851153 5.18155 0.668165 5.26444 0.605411 5.4302C0.577461 5.504 0.577461 5.58581 0.605411 5.6596L1.31416 7.52796L0.0706831 9.08349C-0.0395319 9.22091 -0.0184382 9.42304 0.117089 9.5348C0.177734 9.58507 0.254726 9.6102 0.333301 9.60592L2.30452 9.50004L3.37924 11.1796C3.43778 11.2705 3.53745 11.3256 3.6445 11.3256C3.78794 11.3262 3.91397 11.2283 3.95036 11.0877ZM24.5463 8.84928C24.4335 8.84339 24.3259 8.89901 24.2642 8.99526L23.4774 10.2246L23.104 8.80864C23.075 8.69795 22.9896 8.61132 22.8799 8.58191L21.4835 8.20332L22.6964 7.4055C22.7913 7.34294 22.8462 7.23385 22.8404 7.11942L22.7639 5.65586L23.8866 6.57881C23.9747 6.651 24.0939 6.67025 24.1993 6.62907L25.5488 6.1029L25.0299 7.47074C24.9893 7.57822 25.0083 7.69907 25.0795 7.78837L25.9897 8.92681L24.5463 8.84928ZM25.6859 7.52796L26.3947 5.6596C26.4574 5.49437 26.3762 5.30882 26.2138 5.24519C26.1405 5.21631 26.0593 5.21631 25.986 5.24519L24.1429 5.96333L22.6094 4.70244C22.4739 4.59068 22.2745 4.61207 22.1643 4.74949C22.1147 4.81099 22.09 4.88906 22.0942 4.96873L22.1986 6.96809L20.5422 8.05734C20.3956 8.15359 20.3539 8.35251 20.4489 8.50117C20.4916 8.56801 20.557 8.61613 20.6329 8.63645L22.5398 9.15354L23.0497 11.0877C23.0824 11.2101 23.1826 11.3016 23.306 11.3219C23.4294 11.3411 23.5523 11.2855 23.6208 11.1796L24.6956 9.50004L26.6668 9.60592C26.8413 9.61555 26.99 9.47972 26.9995 9.30273C27.0038 9.22359 26.979 9.14552 26.9294 9.08349L25.6859 7.52796ZM14.6887 3.73404C14.6048 3.81104 14.5674 3.92708 14.5911 4.03937L14.887 5.44678L13.6582 4.7265C13.5602 4.66928 13.4399 4.66928 13.3418 4.7265L12.1131 5.44678L12.409 4.03937C12.4327 3.92708 12.3953 3.81104 12.3114 3.73404L11.2562 2.77206L12.6674 2.62233C12.7802 2.61057 12.8778 2.53838 12.9237 2.43357L13.5 1.11867L14.0764 2.43357C14.1223 2.53838 14.2199 2.61057 14.3327 2.62233L15.7439 2.77206L14.6887 3.73404ZM16.7854 2.42876C16.7469 2.30791 16.642 2.22182 16.5175 2.20898L14.5806 2.00365L13.789 0.198929C13.7184 0.0369055 13.5322 -0.0363527 13.3724 0.0353013C13.3002 0.0673852 13.2427 0.125671 13.2111 0.198929L12.4195 2.00365L10.4826 2.20898C10.3086 2.22716 10.1825 2.38491 10.2004 2.56137C10.2084 2.64051 10.2453 2.71377 10.3038 2.76671L11.7519 4.08749L11.3458 6.01894C11.3095 6.1922 11.4186 6.36278 11.5895 6.39914C11.6659 6.41571 11.7456 6.40288 11.8136 6.36278L13.5 5.37459L15.1865 6.36278C15.2345 6.39112 15.2893 6.40609 15.3447 6.40609C15.5192 6.40609 15.6611 6.26225 15.6611 6.08525C15.6611 6.06279 15.659 6.04033 15.6542 6.01841L15.2482 4.08696L16.6963 2.76617C16.7891 2.68115 16.8239 2.54907 16.7854 2.42822V2.42876ZM20.1477 23.4282C23.5613 19.7054 23.3519 13.8816 19.6805 10.4203C16.0091 6.959 10.2658 7.17129 6.85233 10.8941C3.61338 14.4265 3.61338 19.8958 6.85233 23.4287C7.44771 20.9107 9.37779 18.9397 11.8568 18.3188C10.2384 17.3986 9.66203 15.3222 10.5696 13.6811C11.4771 12.04 13.5248 11.4556 15.1432 12.3758C16.7617 13.2961 17.3381 15.3725 16.4305 17.0136C16.1278 17.5606 15.6827 18.0124 15.1432 18.3188C17.6223 18.9397 19.5524 20.9107 20.1477 23.4287V23.4282ZM11.5742 17.3044C10.5105 16.2259 10.51 14.4773 11.5742 13.3982C12.6384 12.3191 14.3623 12.3191 15.4264 13.3982C16.4901 14.4768 16.4906 16.2254 15.4264 17.3044C14.3765 18.3835 12.6637 18.3948 11.6 17.3306C11.5916 17.3221 11.5831 17.3135 11.5747 17.305L11.5742 17.3044ZM7.38917 23.9672C7.60433 22.6892 8.20708 21.5112 9.11359 20.5973C11.5378 18.1445 15.4623 18.1445 17.8865 20.5973C18.793 21.5112 19.3958 22.6892 19.6109 23.9672C16.1473 27.1654 10.8528 27.1654 7.38917 23.9672ZM6.63401 10.1995C2.84188 14.0447 2.84188 20.2786 6.63401 24.1239C10.4262 27.9691 16.5739 27.9691 20.3661 24.1239C24.1582 20.2786 24.1582 14.0447 20.3661 10.1995C16.5803 6.3601 10.4198 6.3601 6.63401 10.1995Z" fill="url(#paint0_linear_6483_17183)"/>
<defs>
<linearGradient id="paint0_linear_6483_17183" x1="13.5" y1="0.0078125" x2="13.5" y2="27.0078" gradientUnits="userSpaceOnUse">
<stop stop-color="#81319B"/>
<stop offset="0.48" stop-color="#00A99D"/>
<stop offset="1" stop-color="#0B2C4C"/>
</linearGradient>
</defs>
</svg>
