<svg width="29" height="29" viewBox="0 0 29 29" fill="none" xmlns="http://www.w3.org/2000/svg">
<path d="M19.7895 11.135C19.7895 11.1744 19.7814 11.2134 19.7656 11.2499C19.7498 11.2863 19.7266 11.3194 19.6974 11.3473C19.6682 11.3752 19.6335 11.3973 19.5954 11.4124C19.5572 11.4275 19.5163 11.4352 19.475 11.4352H18.479C18.3956 11.4352 18.3156 11.4035 18.2566 11.3472C18.1977 11.2909 18.1645 11.2146 18.1645 11.135C18.1645 11.0553 18.1977 10.979 18.2566 10.9227C18.3156 10.8664 18.3956 10.8347 18.479 10.8347H19.475C19.5163 10.8347 19.5572 10.8425 19.5954 10.8575C19.6335 10.8726 19.6682 10.8947 19.6974 10.9226C19.7266 10.9505 19.7498 10.9836 19.7656 11.02C19.7814 11.0565 19.7895 11.0955 19.7895 11.135ZM26 8.88279V22.842C25.9996 23.149 25.8717 23.4433 25.6443 23.6604C25.417 23.8775 25.1087 23.9996 24.7871 24H4.21289C3.89133 23.9996 3.58305 23.8775 3.35567 23.6604C3.12829 23.4433 3.00038 23.149 3 22.842L3 8.88279C3.00043 8.5303 3.14728 8.19236 3.40835 7.94311C3.66942 7.69386 4.02337 7.55365 4.39258 7.55325H5.40332V5.98644C5.40365 5.72492 5.51262 5.4742 5.70631 5.28927C5.9 5.10435 6.1626 5.00032 6.43652 5H7.16138C7.4353 5.00032 7.69791 5.10435 7.8916 5.28927C8.08529 5.4742 8.19425 5.72492 8.19459 5.98644V7.55325H10.5374V5.98644C10.5377 5.72492 10.6466 5.4742 10.8403 5.28927C11.034 5.10435 11.2966 5.00032 11.5706 5H12.2954C12.5693 5.00032 12.8319 5.10435 13.0256 5.28927C13.2193 5.4742 13.3283 5.72492 13.3286 5.98644V7.55325H15.6714V5.98644C15.6717 5.72492 15.7807 5.4742 15.9744 5.28927C16.1681 5.10435 16.4307 5.00032 16.7046 5H17.4289C17.7028 5.00027 17.9655 5.10429 18.1592 5.28922C18.3529 5.47416 18.4618 5.7249 18.4621 5.98644V7.55325H20.8054V5.98644C20.8057 5.7249 20.9146 5.47416 21.1083 5.28922C21.302 5.10429 21.5647 5.00027 21.8386 5H22.5635C22.8374 5.00027 23.1 5.10429 23.2937 5.28922C23.4874 5.47416 23.5964 5.7249 23.5967 5.98644V7.55325H24.6074C24.9766 7.55365 25.3306 7.69386 25.5917 7.94311C25.8527 8.19236 25.9996 8.5303 26 8.88279ZM21.4343 7.55325H22.9678V5.98644C22.9676 5.88411 22.925 5.78601 22.8492 5.71365C22.7734 5.64129 22.6707 5.60058 22.5635 5.60044H21.8386C21.7314 5.60058 21.6287 5.64129 21.5529 5.71365C21.4771 5.78601 21.4345 5.88411 21.4343 5.98644V7.55325ZM16.3003 7.55325H17.8337V5.98644C17.8336 5.88411 17.791 5.78601 17.7152 5.71365C17.6394 5.64129 17.5366 5.60058 17.4294 5.60044H16.7046C16.5974 5.60058 16.4947 5.64129 16.4189 5.71365C16.3431 5.78601 16.3004 5.88411 16.3003 5.98644V7.55325ZM11.1663 7.55325H12.6997V5.98644C12.6996 5.88411 12.6569 5.78601 12.5811 5.71365C12.5053 5.64129 12.4026 5.60058 12.2954 5.60044H11.5711C11.4639 5.60058 11.3612 5.64129 11.2854 5.71365C11.2096 5.78601 11.1669 5.88411 11.1668 5.98644L11.1663 7.55325ZM6.03223 7.55325H7.56568V5.98644C7.56554 5.88411 7.5229 5.78601 7.44711 5.71365C7.37132 5.64129 7.26857 5.60058 7.16138 5.60044H6.43652C6.32934 5.60058 6.22659 5.64129 6.1508 5.71365C6.07501 5.78601 6.03237 5.88411 6.03223 5.98644V7.55325ZM25.3711 11.4352H21.9682C21.8848 11.4352 21.8048 11.4035 21.7458 11.3472C21.6868 11.2909 21.6537 11.2146 21.6537 11.135C21.6537 11.0553 21.6868 10.979 21.7458 10.9227C21.8048 10.8664 21.8848 10.8347 21.9682 10.8347H25.3711V8.88279C25.3709 8.68948 25.2904 8.50413 25.1472 8.36744C25.004 8.23074 24.8099 8.15387 24.6074 8.15369H4.39258C4.19011 8.15391 3.99601 8.2308 3.85284 8.36749C3.70968 8.50417 3.62914 8.68949 3.62891 8.88279V10.8347H15.9858C16.0692 10.8347 16.1492 10.8664 16.2082 10.9227C16.2672 10.979 16.3003 11.0553 16.3003 11.135C16.3003 11.2146 16.2672 11.2909 16.2082 11.3472C16.1492 11.4035 16.0692 11.4352 15.9858 11.4352H3.62891V22.842C3.6291 22.9898 3.69068 23.1315 3.80016 23.2361C3.90964 23.3406 4.05807 23.3994 4.21289 23.3996H24.7871C24.9419 23.3994 25.0904 23.3406 25.1998 23.2361C25.3093 23.1315 25.3709 22.9898 25.3711 22.842V11.4352ZM8.07366 13.1936V14.5537C8.07342 14.7242 8.00235 14.8877 7.87603 15.0083C7.74972 15.1289 7.57847 15.1968 7.39983 15.197H5.4707C5.29207 15.1968 5.12081 15.1289 4.9945 15.0083C4.86818 14.8877 4.79711 14.7242 4.79688 14.5537V13.1936C4.79707 13.023 4.86812 12.8595 4.99444 12.7389C5.12077 12.6183 5.29205 12.5505 5.4707 12.5503H7.39983C7.57848 12.5505 7.74976 12.6183 7.87609 12.7389C8.00241 12.8595 8.07347 13.023 8.07366 13.1936ZM7.44475 13.1936C7.44475 13.1822 7.44002 13.1713 7.43159 13.1633C7.42317 13.1552 7.41174 13.1507 7.39983 13.1507H5.4707C5.45879 13.1507 5.44736 13.1552 5.43894 13.1633C5.43051 13.1713 5.42578 13.1822 5.42578 13.1936V14.5537C5.42583 14.5651 5.43058 14.5759 5.43899 14.584C5.44741 14.592 5.4588 14.5965 5.4707 14.5966H7.39983C7.41173 14.5965 7.42313 14.592 7.43154 14.584C7.43995 14.5759 7.4447 14.5651 7.44475 14.5537V13.1936ZM13.4501 13.1936V14.5537C13.4498 14.7242 13.3788 14.8877 13.2525 15.0083C13.1261 15.1289 12.9549 15.1968 12.7763 15.197H10.8471C10.6685 15.1968 10.4972 15.1289 10.3709 15.0083C10.2446 14.8877 10.1735 14.7242 10.1733 14.5537V13.1936C10.1735 13.023 10.2445 12.8595 10.3709 12.7389C10.4972 12.6183 10.6685 12.5505 10.8471 12.5503H12.7763C12.9549 12.5505 13.1262 12.6183 13.2525 12.7389C13.3788 12.8595 13.4499 13.023 13.4501 13.1936ZM12.8212 13.1936C12.8212 13.1822 12.8164 13.1713 12.808 13.1633C12.7996 13.1552 12.7882 13.1507 12.7763 13.1507H10.8471C10.8352 13.1508 10.8238 13.1553 10.8154 13.1633C10.807 13.1714 10.8023 13.1823 10.8022 13.1936V14.5537C10.8023 14.5651 10.807 14.5759 10.8154 14.584C10.8238 14.592 10.8352 14.5965 10.8471 14.5966H12.7763C12.7882 14.5965 12.7996 14.592 12.808 14.584C12.8164 14.5759 12.8211 14.5651 12.8212 14.5537V13.1936ZM18.8267 13.1936V14.5537C18.8265 14.7242 18.7554 14.8877 18.6291 15.0083C18.5028 15.1289 18.3315 15.1968 18.1529 15.197H16.2237C16.0451 15.1968 15.8739 15.1289 15.7475 15.0083C15.6212 14.8877 15.5502 14.7242 15.5499 14.5537V13.1936C15.5501 13.023 15.6212 12.8595 15.7475 12.7389C15.8738 12.6183 16.0451 12.5505 16.2237 12.5503H18.1529C18.3315 12.5505 18.5028 12.6184 18.6291 12.739C18.7554 12.8596 18.8265 13.0231 18.8267 13.1936ZM18.1978 13.1936C18.1978 13.1822 18.1931 13.1713 18.1846 13.1633C18.1762 13.1552 18.1648 13.1507 18.1529 13.1507H16.2237C16.2118 13.1507 16.2004 13.1552 16.192 13.1633C16.1836 13.1713 16.1788 13.1822 16.1788 13.1936V14.5537C16.1789 14.5651 16.1836 14.5759 16.192 14.584C16.2004 14.592 16.2118 14.5965 16.2237 14.5966H18.1529C18.1648 14.5965 18.1762 14.592 18.1846 14.584C18.193 14.5759 18.1977 14.5651 18.1978 14.5537V13.1936ZM21.6002 12.5503H23.5293C23.7079 12.5505 23.8792 12.6184 24.0055 12.739C24.1318 12.8596 24.2029 13.0231 24.2031 13.1936V14.5537C24.2029 14.7242 24.1318 14.8877 24.0055 15.0083C23.8792 15.1289 23.7079 15.1968 23.5293 15.197H21.6002C21.4215 15.1968 21.2503 15.1289 21.124 15.0083C20.9977 14.8877 20.9266 14.7242 20.9263 14.5537V13.1936C20.9265 13.023 20.9976 12.8595 21.1239 12.7389C21.2502 12.6183 21.4215 12.5505 21.6002 12.5503ZM23.5293 13.1507H21.6002C21.5883 13.1507 21.5768 13.1552 21.5684 13.1633C21.56 13.1713 21.5553 13.1822 21.5553 13.1936V14.5537C21.5553 14.5651 21.56 14.5759 21.5685 14.584C21.5769 14.592 21.5883 14.5965 21.6002 14.5966H23.5293C23.5412 14.5965 23.5526 14.592 23.561 14.584C23.5694 14.5759 23.5742 14.5651 23.5742 14.5537V13.1936C23.5742 13.1822 23.5695 13.1713 23.5611 13.1633C23.5526 13.1552 23.5412 13.1507 23.5293 13.1507ZM8.07366 16.7372V18.0973C8.07342 18.2679 8.00235 18.4314 7.87603 18.552C7.74972 18.6726 7.57847 18.7404 7.39983 18.7407H5.4707C5.29207 18.7404 5.12081 18.6726 4.9945 18.552C4.86818 18.4314 4.79711 18.2679 4.79688 18.0973V16.7372C4.79711 16.5667 4.86818 16.4032 4.9945 16.2826C5.12081 16.162 5.29207 16.0941 5.4707 16.0939H7.39983C7.57847 16.0941 7.74972 16.162 7.87603 16.2826C8.00235 16.4032 8.07342 16.5667 8.07366 16.7372ZM7.44475 16.7372C7.44475 16.7259 7.44002 16.715 7.43159 16.7069C7.42317 16.6989 7.41174 16.6944 7.39983 16.6944H5.4707C5.45879 16.6944 5.44736 16.6989 5.43894 16.7069C5.43051 16.715 5.42578 16.7259 5.42578 16.7372V18.0973C5.42583 18.1087 5.43058 18.1196 5.43899 18.1276C5.44741 18.1356 5.4588 18.1402 5.4707 18.1402H7.39983C7.41173 18.1402 7.42313 18.1356 7.43154 18.1276C7.43995 18.1196 7.4447 18.1087 7.44475 18.0973V16.7372ZM13.4501 16.7372V18.0973C13.4498 18.2679 13.3788 18.4314 13.2525 18.552C13.1261 18.6726 12.9549 18.7404 12.7763 18.7407H10.8471C10.6685 18.7404 10.4972 18.6726 10.3709 18.552C10.2446 18.4314 10.1735 18.2679 10.1733 18.0973V16.7372C10.1735 16.5667 10.2446 16.4032 10.3709 16.2826C10.4972 16.162 10.6685 16.0941 10.8471 16.0939H12.7763C12.9549 16.0941 13.1261 16.162 13.2525 16.2826C13.3788 16.4032 13.4498 16.5667 13.4501 16.7372ZM12.8212 16.7372C12.8212 16.7259 12.8164 16.715 12.808 16.7069C12.7996 16.6989 12.7882 16.6944 12.7763 16.6944H10.8471C10.8352 16.6944 10.8238 16.6989 10.8154 16.707C10.807 16.715 10.8023 16.7259 10.8022 16.7372V18.0973C10.8023 18.1087 10.807 18.1196 10.8154 18.1276C10.8238 18.1356 10.8352 18.1402 10.8471 18.1402H12.7763C12.7882 18.1402 12.7996 18.1356 12.808 18.1276C12.8164 18.1196 12.8211 18.1087 12.8212 18.0973V16.7372ZM18.8267 16.7372V18.0973C18.8265 18.2679 18.7554 18.4314 18.6291 18.552C18.5028 18.6726 18.3315 18.7404 18.1529 18.7407H16.2237C16.0451 18.7404 15.8739 18.6726 15.7475 18.552C15.6212 18.4314 15.5502 18.2679 15.5499 18.0973V16.7372C15.5502 16.5667 15.6212 16.4032 15.7475 16.2826C15.8739 16.162 16.0451 16.0941 16.2237 16.0939H18.1529C18.3315 16.0941 18.5028 16.162 18.6291 16.2826C18.7554 16.4032 18.8265 16.5667 18.8267 16.7372ZM18.1978 16.7372C18.1978 16.7259 18.1931 16.715 18.1846 16.7069C18.1762 16.6989 18.1648 16.6944 18.1529 16.6944H16.2237C16.2118 16.6944 16.2004 16.6989 16.192 16.7069C16.1836 16.715 16.1788 16.7259 16.1788 16.7372V18.0973C16.1789 18.1087 16.1836 18.1196 16.192 18.1276C16.2004 18.1356 16.2118 18.1402 16.2237 18.1402H18.1529C18.1648 18.1402 18.1762 18.1356 18.1846 18.1276C18.193 18.1196 18.1977 18.1087 18.1978 18.0973V16.7372ZM24.2031 16.7372V18.0973C24.2029 18.2679 24.1318 18.4314 24.0055 18.552C23.8792 18.6726 23.7079 18.7404 23.5293 18.7407H21.6002C21.4215 18.7404 21.2503 18.6726 21.124 18.552C20.9977 18.4314 20.9266 18.2679 20.9263 18.0973V16.7372C20.9266 16.5667 20.9977 16.4032 21.124 16.2826C21.2503 16.162 21.4215 16.0941 21.6002 16.0939H23.5293C23.7079 16.0941 23.8792 16.162 24.0055 16.2826C24.1318 16.4032 24.2029 16.5667 24.2031 16.7372ZM23.5742 16.7372C23.5742 16.7259 23.5695 16.715 23.5611 16.7069C23.5526 16.6989 23.5412 16.6944 23.5293 16.6944H21.6002C21.5883 16.6944 21.5768 16.6989 21.5684 16.7069C21.56 16.715 21.5553 16.7259 21.5553 16.7372V18.0973C21.5553 18.1087 21.56 18.1196 21.5685 18.1276C21.5769 18.1356 21.5883 18.1402 21.6002 18.1402H23.5293C23.5412 18.1402 23.5526 18.1356 23.561 18.1276C23.5694 18.1196 23.5742 18.1087 23.5742 18.0973V16.7372ZM7.39983 19.6377H5.4707C5.292 19.6379 5.1207 19.7058 4.99437 19.8265C4.86804 19.9472 4.79702 20.1108 4.79688 20.2814V21.0127C4.79688 21.0923 4.83 21.1687 4.88898 21.225C4.94795 21.2813 5.02793 21.3129 5.11133 21.3129C5.19473 21.3129 5.27471 21.2813 5.33368 21.225C5.39265 21.1687 5.42578 21.0923 5.42578 21.0127V20.2814C5.42578 20.27 5.43051 20.2591 5.43894 20.2511C5.44736 20.243 5.45879 20.2385 5.4707 20.2385H7.39983C7.41174 20.2385 7.42317 20.243 7.43159 20.2511C7.44002 20.2591 7.44475 20.27 7.44475 20.2814V21.6415C7.44475 21.6528 7.44002 21.6638 7.43159 21.6718C7.42317 21.6798 7.41174 21.6844 7.39983 21.6844H6.43527C6.35187 21.6844 6.27189 21.716 6.21291 21.7723C6.15394 21.8286 6.12081 21.905 6.12081 21.9846C6.12081 22.0642 6.15394 22.1406 6.21291 22.1969C6.27189 22.2532 6.35187 22.2848 6.43527 22.2848H7.39983C7.57847 22.2846 7.74972 22.2167 7.87603 22.0961C8.00235 21.9755 8.07342 21.812 8.07366 21.6415V20.2814C8.07351 20.1108 8.00249 19.9472 7.87616 19.8265C7.74983 19.7058 7.57853 19.6379 7.39983 19.6377ZM13.4501 20.2814V21.6415C13.4498 21.812 13.3788 21.9755 13.2525 22.0961C13.1261 22.2167 12.9549 22.2846 12.7763 22.2848H10.8471C10.6685 22.2846 10.4972 22.2167 10.3709 22.0961C10.2446 21.9755 10.1735 21.812 10.1733 21.6415V20.2814C10.1735 20.1108 10.2446 19.9473 10.3709 19.8267C10.4972 19.7061 10.6685 19.6383 10.8471 19.6381H12.7763C12.9549 19.6383 13.1261 19.7061 13.2525 19.8267C13.3788 19.9473 13.4498 20.1108 13.4501 20.2814ZM12.8212 20.2814C12.8212 20.27 12.8164 20.2591 12.808 20.2511C12.7996 20.243 12.7882 20.2385 12.7763 20.2385H10.8471C10.8352 20.2385 10.8238 20.2431 10.8154 20.2511C10.807 20.2591 10.8023 20.27 10.8022 20.2814V21.6415C10.8023 21.6528 10.807 21.6637 10.8154 21.6717C10.8238 21.6798 10.8352 21.6843 10.8471 21.6844H12.7763C12.7882 21.6844 12.7996 21.6798 12.808 21.6718C12.8164 21.6638 12.8212 21.6528 12.8212 21.6415V20.2814ZM18.5998 19.8022C18.5335 19.7539 18.4498 19.7327 18.3672 19.7432C18.2845 19.7538 18.2096 19.7952 18.159 19.8585L16.8473 21.4958L16.1105 20.6077C16.0849 20.5768 16.0531 20.551 16.0171 20.5319C15.981 20.5127 15.9413 20.5005 15.9003 20.496C15.8593 20.4914 15.8178 20.4947 15.7781 20.5054C15.7384 20.5162 15.7013 20.5344 15.669 20.5589C15.6366 20.5834 15.6096 20.6137 15.5895 20.6481C15.5695 20.6825 15.5567 20.7204 15.5519 20.7596C15.5472 20.7987 15.5506 20.8384 15.5619 20.8763C15.5732 20.9142 15.5922 20.9496 15.6178 20.9805L16.6061 22.1711C16.6355 22.2065 16.673 22.2352 16.7156 22.2549C16.7583 22.2746 16.8051 22.2848 16.8525 22.2848H16.8552C16.903 22.2844 16.9501 22.2735 16.993 22.2531C17.0358 22.2327 17.0731 22.2032 17.1022 22.1669L18.6583 20.2231C18.6835 20.1917 18.7019 20.156 18.7126 20.1179C18.7233 20.0798 18.726 20.04 18.7206 20.0009C18.7151 19.9617 18.7016 19.924 18.6809 19.8899C18.6602 19.8557 18.6326 19.8258 18.5998 19.8019V19.8022ZM23.9762 19.8022C23.9099 19.7539 23.8262 19.7327 23.7436 19.7432C23.6609 19.7538 23.586 19.7952 23.5354 19.8585L22.2248 21.4958L21.488 20.6077C21.4624 20.5768 21.4306 20.551 21.3946 20.5319C21.3585 20.5127 21.3188 20.5005 21.2778 20.496C21.2368 20.4914 21.1953 20.4947 21.1556 20.5054C21.1159 20.5162 21.0788 20.5344 21.0465 20.5589C21.0141 20.5834 20.9871 20.6137 20.9671 20.6481C20.947 20.6825 20.9342 20.7204 20.9295 20.7596C20.9247 20.7987 20.9281 20.8384 20.9394 20.8763C20.9507 20.9142 20.9697 20.9496 20.9953 20.9805L21.9836 22.1711C22.0131 22.2065 22.0506 22.2352 22.0933 22.2549C22.1359 22.2746 22.1827 22.2848 22.2302 22.2848H22.2329C22.2807 22.2844 22.3278 22.2735 22.3706 22.2531C22.4134 22.2327 22.4508 22.2032 22.4799 22.1669L24.0358 20.2231C24.0609 20.1917 24.0793 20.1559 24.0899 20.1177C24.1004 20.0796 24.103 20.0398 24.0975 20.0007C24.092 19.9615 24.0784 19.9238 24.0576 19.8897C24.0368 19.8556 24.0091 19.8258 23.9762 19.8019V19.8022Z" fill="url(#paint0_linear_4011_17758)"/>
<defs>
<linearGradient id="paint0_linear_4011_17758" x1="14.5" y1="5" x2="14.5" y2="24" gradientUnits="userSpaceOnUse">
<stop stop-color="#81319B"/>
<stop offset="0.48" stop-color="#00A99D"/>
<stop offset="1" stop-color="#0B2C4C"/>
</linearGradient>
</defs>
</svg>
