<svg width="29" height="29" viewBox="0 0 29 29" fill="none" xmlns="http://www.w3.org/2000/svg">
<path fill-rule="evenodd" clip-rule="evenodd" d="M20.2126 8.62288C19.7028 8.62288 19.2214 8.13955 19.2214 7.62778C19.2214 7.08759 19.6745 6.63268 20.2126 6.63268C20.7695 6.63268 21.2038 7.06863 21.2038 7.62778C21.2038 8.16798 20.7507 8.62288 20.2126 8.62288ZM6.05241 19.6163C6.04769 19.6163 6.04769 19.6163 6.04297 19.6163C5.89665 19.6116 5.76921 19.5121 5.73145 19.3699L4.50423 14.7261C4.45703 14.5508 4.56087 14.366 4.74023 14.3186C4.91488 14.2712 5.09896 14.3755 5.14616 14.5556L6.08073 18.0905L7.2041 14.494C7.24658 14.3565 7.37402 14.2618 7.52035 14.2618H7.52507C7.67139 14.2618 7.79883 14.3613 7.84131 14.4987L8.88916 18.0858L9.89925 14.5034C9.95117 14.3281 10.1305 14.2239 10.3052 14.276C10.4798 14.3281 10.5837 14.5082 10.5317 14.6835L9.21012 19.3747C9.17236 19.5168 9.0402 19.6163 8.89388 19.6163C8.74756 19.6163 8.62012 19.5216 8.57764 19.3794L7.51563 15.7402L6.37809 19.3889C6.32617 19.5216 6.19873 19.6163 6.05241 19.6163ZM13.0381 19.6163C13.0334 19.6163 13.0334 19.6163 13.0286 19.6163C12.8823 19.6116 12.7549 19.5121 12.7171 19.3699L11.4899 14.7261C11.4427 14.5508 11.5465 14.366 11.7259 14.3186C11.9006 14.2712 12.0846 14.3755 12.1318 14.5556L13.0664 18.0905L14.1898 14.494C14.2323 14.3565 14.3597 14.2618 14.506 14.2618C14.6523 14.2618 14.7798 14.3565 14.8223 14.4987L15.9032 18.0858L16.8755 14.5082C16.9227 14.3328 17.1068 14.2286 17.2814 14.276C17.4561 14.3234 17.5599 14.5082 17.5127 14.6835L16.2383 19.3747C16.2005 19.5168 16.0731 19.6163 15.922 19.6211H15.9173C15.771 19.6211 15.6436 19.5263 15.6011 19.3842L14.4966 15.7212L13.3543 19.3842C13.3118 19.5216 13.1844 19.6163 13.0381 19.6163ZM20.0238 19.6163C20.019 19.6163 20.019 19.6163 20.0143 19.6163C19.868 19.6116 19.7406 19.5121 19.7028 19.3699L18.4756 14.7261C18.4284 14.5508 18.5322 14.366 18.7116 14.3186C18.8862 14.2712 19.0703 14.3755 19.1175 14.5556L20.0521 18.0905L21.1755 14.494C21.2179 14.3565 21.3454 14.2618 21.4917 14.2618C21.638 14.2618 21.7655 14.3565 21.8079 14.4987L22.8888 18.0858L23.8612 14.5082C23.9084 14.3328 24.0924 14.2286 24.2671 14.276C24.4417 14.3234 24.5456 14.5082 24.4984 14.6835L23.224 19.3747C23.1862 19.5168 23.0588 19.6163 22.9077 19.6211H22.903C22.7567 19.6211 22.6292 19.5263 22.5868 19.3842L21.4823 15.7212L20.34 19.3842C20.2975 19.5216 20.1701 19.6163 20.0238 19.6163ZM23.611 24.1654H5.3916C3.75374 24.1654 2.41797 22.8244 2.41797 21.1801V10.0444V7.81733C2.41797 7.03546 2.72477 6.29151 3.28646 5.72288C3.85286 5.14952 4.59863 4.83203 5.3916 4.83203H23.611C24.404 4.83203 25.1497 5.14952 25.7161 5.72288C26.2778 6.29151 26.5846 7.03546 26.5846 7.81733V10.0444V21.1801C26.5846 22.8244 25.2489 24.1654 23.611 24.1654ZM5.3916 5.49543C4.13607 5.49543 3.07878 6.55687 3.07878 7.81733V9.71275H25.9238V7.81733C25.9238 6.55687 24.8665 5.49543 23.611 5.49543H5.3916ZM3.07878 10.3761V21.1801C3.07878 22.4595 4.11719 23.502 5.3916 23.502H23.611C24.8854 23.502 25.9238 22.4595 25.9238 21.1801V10.3761H3.07878ZM10.8197 7.95948H8.97884C8.79476 7.95948 8.64844 7.81259 8.64844 7.62778C8.64844 7.44298 8.79476 7.29608 8.97884 7.29608H10.8197C11.0037 7.29608 11.1501 7.44298 11.1501 7.62778C11.1501 7.81259 11.0037 7.95948 10.8197 7.95948ZM14.7845 7.95948H12.9437C12.7596 7.95948 12.6133 7.81259 12.6133 7.62778C12.6133 7.44298 12.7596 7.29608 12.9437 7.29608H14.7845C14.9686 7.29608 15.1149 7.44298 15.1149 7.62778C15.1149 7.81259 14.9686 7.95948 14.7845 7.95948ZM6.90202 7.95948H5.0612C4.87712 7.95948 4.73079 7.81259 4.73079 7.62778C4.73079 7.44298 4.87712 7.29608 5.0612 7.29608H6.90202C7.0861 7.29608 7.23242 7.44298 7.23242 7.62778C7.23242 7.81259 7.0861 7.95948 6.90202 7.95948ZM22.8086 8.62288C22.2705 8.62288 21.8174 8.16798 21.8174 7.62778C21.8174 7.06863 22.2516 6.63268 22.8086 6.63268C23.3656 6.63268 23.7998 7.06863 23.7998 7.62778C23.7998 8.16798 23.3467 8.62288 22.8086 8.62288ZM22.8086 7.29608C22.6151 7.29608 22.4782 7.4335 22.4782 7.62778C22.4782 7.78416 22.6198 7.95948 22.8086 7.95948C22.9974 7.95948 23.139 7.78416 23.139 7.62778C23.139 7.4335 23.0021 7.29608 22.8086 7.29608ZM20.2126 7.29608C20.0568 7.29608 19.8822 7.43824 19.8822 7.62778C19.8822 7.77468 20.0662 7.95948 20.2126 7.95948C20.4014 7.95948 20.543 7.78416 20.543 7.62778C20.543 7.4335 20.4061 7.29608 20.2126 7.29608Z" fill="url(#paint0_linear_4011_17616)"/>
<defs>
<linearGradient id="paint0_linear_4011_17616" x1="14.5013" y1="4.83203" x2="14.5013" y2="24.1654" gradientUnits="userSpaceOnUse">
<stop offset="0.01" stop-color="#81319B"/>
<stop offset="0.45" stop-color="#00A99D"/>
<stop offset="1" stop-color="#0B2C4C"/>
</linearGradient>
</defs>
</svg>
