<svg width="29" height="29" viewBox="0 0 29 29" fill="none" xmlns="http://www.w3.org/2000/svg">
<path d="M21.451 11.1727L12.8265 9.93071C12.7242 9.9138 12.6324 9.85653 12.5709 9.77118C12.5094 9.68583 12.4831 9.57921 12.4976 9.47422C12.5121 9.36922 12.5662 9.27421 12.6483 9.2096C12.7305 9.14499 12.8342 9.11592 12.937 9.12863L21.5616 10.3706C21.6639 10.3875 21.7556 10.4448 21.8171 10.5301C21.8786 10.6155 21.9049 10.7221 21.8905 10.8271C21.876 10.9321 21.8219 11.0271 21.7397 11.0917C21.6575 11.1563 21.5539 11.1854 21.451 11.1727ZM21.2856 12.3761L12.6614 11.1341C12.5585 11.1214 12.4549 11.1505 12.3727 11.2151C12.2905 11.2797 12.2364 11.3747 12.2219 11.4797C12.2075 11.5847 12.2338 11.6913 12.2953 11.7766C12.3568 11.862 12.4485 11.9193 12.5508 11.9362L21.175 13.1783C21.279 13.1933 21.3845 13.1655 21.4684 13.1008C21.5523 13.0362 21.6076 12.9402 21.6223 12.8338C21.637 12.7274 21.6097 12.6194 21.5466 12.5336C21.4834 12.4477 21.3895 12.3911 21.2856 12.3761ZM20.7339 16.3874L12.1097 15.1454C12.0068 15.1327 11.9032 15.1618 11.8211 15.2264C11.739 15.2911 11.6849 15.3861 11.6704 15.491C11.6559 15.596 11.6823 15.7026 11.7437 15.7879C11.8052 15.8733 11.8969 15.9305 11.9992 15.9475L20.6233 17.1894C20.7261 17.2019 20.8295 17.1727 20.9114 17.1081C20.9934 17.0435 21.0474 16.9486 21.0619 16.8437C21.0763 16.7389 21.0501 16.6324 20.9888 16.5472C20.9275 16.4619 20.836 16.4045 20.7339 16.3874ZM21.0099 14.3817L12.3853 13.1398C12.2825 13.1271 12.1788 13.1561 12.0967 13.2207C12.0145 13.2854 11.9604 13.3804 11.9459 13.4854C11.9314 13.5904 11.9578 13.697 12.0192 13.7823C12.0807 13.8677 12.1725 13.9249 12.2748 13.9418L20.8994 15.1838C21.0022 15.1965 21.1059 15.1674 21.188 15.1028C21.2702 15.0382 21.3243 14.9432 21.3388 14.8382C21.3533 14.7332 21.327 14.6266 21.2655 14.5413C21.204 14.4559 21.1122 14.3986 21.0099 14.3817ZM20.4582 18.393L11.8337 17.1511C11.7308 17.1384 11.6272 17.1674 11.545 17.232C11.4628 17.2967 11.4087 17.3917 11.3942 17.4967C11.3798 17.6017 11.4061 17.7083 11.4676 17.7936C11.5291 17.879 11.6208 17.9362 11.7231 17.9531L20.3476 19.1953C20.3991 19.2027 20.4515 19.1997 20.5019 19.1864C20.5522 19.1731 20.5995 19.1498 20.641 19.1178C20.6826 19.0858 20.7175 19.0458 20.7439 19C20.7704 18.9541 20.7877 18.9034 20.7949 18.8508C20.8022 18.7981 20.7993 18.7445 20.7863 18.6929C20.7733 18.6414 20.7505 18.593 20.7192 18.5505C20.688 18.508 20.6488 18.4722 20.604 18.4452C20.5593 18.4182 20.5097 18.4005 20.4582 18.393ZM20.1822 20.3987L11.5581 19.1569C11.4552 19.1442 11.3515 19.1733 11.2694 19.2379C11.1872 19.3025 11.1331 19.3975 11.1186 19.5025C11.1041 19.6075 11.1305 19.7141 11.1919 19.7995C11.2534 19.8848 11.3452 19.9421 11.4475 19.959L20.0717 21.201C20.1756 21.216 20.2812 21.1881 20.3651 21.1235C20.4489 21.0589 20.5043 20.9628 20.519 20.8564C20.5336 20.75 20.5064 20.642 20.4432 20.5562C20.3801 20.4703 20.2862 20.4137 20.1822 20.3987ZM25.11 7.82907L22.9564 23.4817C22.9097 23.7995 22.7429 24.0859 22.4919 24.2791C22.2409 24.4723 21.9258 24.5569 21.6144 24.5146L21.27 24.466C21.2097 24.5803 21.1322 24.6842 21.0404 24.7739C20.9239 24.888 20.7858 24.9766 20.6348 25.0344C20.4837 25.0922 20.3227 25.118 20.1616 25.1101L19.2946 25.0656V25.0858C19.2944 25.4028 19.1729 25.7071 18.9561 25.9335C18.7393 26.1599 18.4444 26.2904 18.1347 26.297L5.47071 26.5846H5.44299C5.133 26.5816 4.83619 26.4559 4.61478 26.2339C4.39337 26.0119 4.26457 25.7108 4.25537 25.3937L3.86742 7.35107C3.86122 7.0284 3.98022 6.71638 4.19836 6.48329C4.41649 6.25021 4.71599 6.11507 5.03129 6.10745L7.23234 6.05884L7.27589 5.15144C7.29351 4.83017 7.43443 4.52904 7.66798 4.31357C7.90153 4.09811 8.20879 3.98576 8.52289 4.00099L10.431 4.09821L10.5181 3.46222C10.5635 3.14378 10.73 2.85657 10.9813 2.66312C11.2327 2.46966 11.5485 2.38561 11.8601 2.42925L20.8504 3.72553C21.1167 3.76405 22.2753 3.91592 22.521 3.98073C24.053 4.39133 25.3253 6.21087 25.11 7.82907ZM21.5392 4.64103C21.5961 4.96141 21.6143 5.28774 21.5934 5.61267L21.5946 5.61324C21.5679 6.08574 21.507 6.55557 21.4125 7.01889C21.3921 7.19676 21.4402 7.37577 21.5467 7.51795C21.6531 7.66013 21.8094 7.75429 21.9826 7.78046L21.9818 7.78135C22.7564 7.82905 23.5197 7.99393 24.247 8.27062C24.2581 8.17878 24.3377 7.67218 24.338 7.59007C24.4199 6.34207 23.2771 4.85572 22.0675 4.71771C22.073 4.71982 21.5392 4.64103 21.5392 4.64103ZM20.6287 6.88521C20.6736 6.65298 20.7063 6.43986 20.7331 6.23671L14.4729 5.33373C14.369 5.31898 14.2636 5.34692 14.1798 5.41144C14.0959 5.47596 14.0405 5.57182 14.0255 5.67805L13.9701 6.09124C13.9555 6.19759 13.9827 6.30552 14.0458 6.39134C14.1089 6.47717 14.2027 6.53386 14.3066 6.54899L20.6604 7.46449L20.6643 7.4651C20.615 7.27614 20.6029 7.07901 20.6287 6.88521ZM18.5029 25.025L7.50945 24.4539C7.19521 24.4366 6.90045 24.2927 6.68973 24.0535C6.47901 23.8143 6.36949 23.4995 6.38517 23.1778L7.19275 6.86901L5.04712 6.91762C4.94223 6.92009 4.84256 6.96493 4.76987 7.04235C4.69718 7.11976 4.65738 7.22347 4.65916 7.33081L5.04712 25.3775C5.05151 25.4841 5.09595 25.5849 5.17117 25.6589C5.24639 25.7328 5.3466 25.7742 5.45091 25.7745L18.1189 25.4868C18.1707 25.4859 18.2218 25.4744 18.2693 25.453C18.3168 25.4317 18.3596 25.4009 18.3953 25.3625C18.4311 25.324 18.459 25.2787 18.4774 25.2291C18.4959 25.1795 18.5045 25.1267 18.5029 25.0737V25.025ZM20.0784 24.2918L9.06919 22.7079C8.75774 22.662 8.47671 22.4918 8.28755 22.2345C8.09839 21.9771 8.01648 21.6536 8.05972 21.3347L10.3202 4.90434L8.4833 4.80711C8.37857 4.8028 8.27637 4.84069 8.19865 4.91264C8.12092 4.9846 8.07388 5.08489 8.06764 5.19195L7.17692 23.2184C7.17196 23.3257 7.20874 23.4307 7.2792 23.5104C7.34967 23.5901 7.44811 23.638 7.553 23.6437L20.0784 24.2918ZM24.1322 9.1375C24.0649 9.04433 23.7244 8.78913 21.9945 8.59874C21.7118 8.57738 21.4413 8.47275 21.2155 8.29747L21.2106 8.29897H21.2067C21.0827 8.32397 20.9555 8.32671 20.8306 8.30707L14.1958 7.35107C13.884 7.3059 13.6024 7.13585 13.4131 6.87833C13.2238 6.62081 13.1422 6.29689 13.1863 5.97782L13.2417 5.56868C13.2856 5.24923 13.4516 4.96066 13.7032 4.76625C13.9548 4.57184 14.2714 4.48748 14.5837 4.53165L20.7989 5.4269H20.8C20.8306 5.11793 20.7853 4.80603 20.6683 4.5195L11.7493 3.23132C11.6454 3.21657 11.54 3.24451 11.4562 3.30904C11.3723 3.37356 11.3169 3.46941 11.3019 3.57565L8.84355 21.4481C8.82913 21.5544 8.85644 21.6623 8.91949 21.748C8.98255 21.8338 9.07622 21.8906 9.18004 21.9059L21.7253 23.7126C21.8292 23.7273 21.9345 23.6994 22.0184 23.6348C22.1022 23.5703 22.1576 23.4745 22.1726 23.3682L24.1322 9.1375Z" fill="url(#paint0_linear_4011_17619)"/>
<defs>
<linearGradient id="paint0_linear_4011_17619" x1="12.8068" y1="26.6269" x2="12.8067" y2="2.36904" gradientUnits="userSpaceOnUse">
<stop stop-color="#0B2C4C"/>
<stop offset="0.45" stop-color="#00A99D"/>
<stop offset="1" stop-color="#81319B"/>
</linearGradient>
</defs>
</svg>
