<svg width="31" height="31" viewBox="0 0 31 31" fill="none" xmlns="http://www.w3.org/2000/svg">
<path d="M8.45444 7.04581C8.45444 6.6721 8.30599 6.31369 8.04173 6.04943C7.77747 5.78518 7.41907 5.63672 7.04535 5.63672C6.67164 5.63672 6.31323 5.78518 6.04897 6.04943C5.78472 6.31369 5.63626 6.6721 5.63626 7.04581V17.2871C5.20788 17.5344 4.85215 17.8902 4.60482 18.3186C4.3575 18.747 4.22729 19.233 4.22729 19.7276C4.22729 20.2223 4.3575 20.7083 4.60482 21.1367C4.85215 21.5651 5.20788 21.9208 5.63626 22.1682V23.9549C5.63626 24.3286 5.78472 24.687 6.04897 24.9513C6.31323 25.2155 6.67164 25.364 7.04535 25.364C7.41907 25.364 7.77747 25.2155 8.04173 24.9513C8.30599 24.687 8.45444 24.3286 8.45444 23.9549V22.1682C8.88283 21.9208 9.23856 21.5651 9.48588 21.1367C9.73321 20.7083 9.86341 20.2223 9.86341 19.7276C9.86341 19.233 9.73321 18.747 9.48588 18.3186C9.23856 17.8902 8.88283 17.5344 8.45444 17.2871V7.04581ZM16.909 7.04581C16.909 6.6721 16.7605 6.31369 16.4963 6.04943C16.232 5.78518 15.8736 5.63672 15.4999 5.63672C15.1262 5.63672 14.7678 5.78518 14.5035 6.04943C14.2393 6.31369 14.0908 6.6721 14.0908 7.04581V8.83254C13.6624 9.07989 13.3067 9.43565 13.0594 9.86405C12.812 10.2925 12.6818 10.7784 12.6818 11.2731C12.6818 11.7678 12.812 12.2537 13.0594 12.6821C13.3067 13.1105 13.6624 13.4663 14.0908 13.7136V23.9549C14.0908 24.3286 14.2393 24.687 14.5035 24.9513C14.7678 25.2155 15.1262 25.364 15.4999 25.364C15.8736 25.364 16.232 25.2155 16.4963 24.9513C16.7605 24.687 16.909 24.3286 16.909 23.9549V13.7136C17.3374 13.4663 17.6931 13.1105 17.9404 12.6821C18.1878 12.2537 18.318 11.7678 18.318 11.2731C18.318 10.7784 18.1878 10.2925 17.9404 9.86405C17.6931 9.43565 17.3374 9.07989 16.909 8.83254V7.04581ZM23.9544 5.63672C24.3282 5.63672 24.6866 5.78518 24.9508 6.04943C25.2151 6.31369 25.3635 6.6721 25.3635 7.04581V17.2871C25.7919 17.5344 26.1476 17.8902 26.395 18.3186C26.6423 18.747 26.7725 19.233 26.7725 19.7276C26.7725 20.2223 26.6423 20.7083 26.395 21.1367C26.1476 21.5651 25.7919 21.9208 25.3635 22.1682V23.9549C25.3635 24.3286 25.2151 24.687 24.9508 24.9513C24.6866 25.2155 24.3282 25.364 23.9544 25.364C23.5807 25.364 23.2223 25.2155 22.9581 24.9513C22.6938 24.687 22.5454 24.3286 22.5454 23.9549V22.1682C22.117 21.9208 21.7612 21.5651 21.5139 21.1367C21.2666 20.7083 21.1364 20.2223 21.1364 19.7276C21.1364 19.233 21.2666 18.747 21.5139 18.3186C21.7612 17.8902 22.117 17.5344 22.5454 17.2871V7.04581C22.5454 6.6721 22.6938 6.31369 22.9581 6.04943C23.2223 5.78518 23.5807 5.63672 23.9544 5.63672Z" fill="#00A99D"/>
</svg>
