<svg width="32" height="33" viewBox="0 0 32 33" fill="none" xmlns="http://www.w3.org/2000/svg">
<g clip-path="url(#clip0_1747_14718)">
<path d="M16 31.0115C24.5604 31.0115 31.5 24.5145 31.5 16.4999C31.5 8.48536 24.5604 1.98828 16 1.98828C7.43959 1.98828 0.5 8.48536 0.5 16.4999C0.5 24.5145 7.43959 31.0115 16 31.0115Z" fill="url(#paint0_linear_1747_14718)"/>
<path d="M8.57383 20.9627C8.40569 20.962 8.23996 20.9252 8.08945 20.855C7.69045 20.6719 7.46219 20.2762 7.53424 19.8913C7.57435 19.6499 7.68786 19.4243 7.86119 19.2417C9.51473 17.6692 11.1713 16.1239 12.4301 14.9545C12.5296 14.8559 12.6492 14.7769 12.7817 14.7221C12.9143 14.6674 13.0572 14.6378 13.202 14.6354C13.4945 14.6354 13.7766 14.7544 14.0176 14.98L16.8633 17.6443L20.7383 14.0164H20.3472C19.8501 14.0164 19.1689 14.0107 18.7784 14.0073C18.1632 14.0028 17.7322 13.6014 17.7291 13.0312C17.7257 12.9005 17.7498 12.7706 17.8001 12.6487C17.8503 12.5268 17.9258 12.4154 18.0222 12.3209C18.1207 12.2309 18.2373 12.1602 18.3652 12.1127C18.4932 12.0652 18.6299 12.0419 18.7675 12.0443C19.5546 12.0414 20.3417 12.0403 21.0998 12.0403C21.8899 12.0403 22.6776 12.0403 23.4411 12.0443C24.0302 12.0443 24.4607 12.4411 24.4644 12.983C24.4753 14.4948 24.4746 15.9873 24.4644 17.417C24.4607 17.96 24.0205 18.3545 23.4181 18.3545H23.406C22.8078 18.3494 22.3834 17.9543 22.3737 17.3943C22.3664 16.955 22.3676 16.5083 22.3694 16.0769C22.3694 15.8879 22.3694 15.699 22.3694 15.51V15.3967C22.3543 15.4091 22.3404 15.4216 22.3271 15.4341C21.0168 16.6661 19.7072 17.8984 18.3982 19.1311L17.8532 19.6413C17.5263 19.9491 17.2205 20.0988 16.9184 20.0988C16.6163 20.0988 16.319 19.9525 16.0005 19.6521L13.1996 17.0304L12.9726 17.2463C12.7304 17.4731 12.4991 17.6862 12.2751 17.8971L11.2228 18.8885C10.6173 19.4599 9.99123 20.0512 9.37305 20.6305C9.27026 20.733 9.14659 20.8152 9.00932 20.8723C8.87206 20.9293 8.72399 20.96 8.57383 20.9627Z" fill="white"/>
</g>
<defs>
<linearGradient id="paint0_linear_1747_14718" x1="16" y1="1.88171" x2="16" y2="30.905" gradientUnits="userSpaceOnUse">
<stop stop-color="#66C3C0"/>
<stop offset="1" stop-color="#8C68AF"/>
</linearGradient>
<clipPath id="clip0_1747_14718">
<rect width="31" height="32" fill="white" transform="translate(0.5 0.5)"/>
</clipPath>
</defs>
</svg>
