<svg width="22" height="22" viewBox="0 0 22 22" fill="none" xmlns="http://www.w3.org/2000/svg">
<g clip-path="url(#clip0_61582_153942)">
<path d="M12 14.045C12 14.3131 11.9068 14.5393 11.7288 14.7236C11.5424 14.9079 11.3051 15 11 15C10.6949 15 10.4576 14.9079 10.2712 14.7236C10.0847 14.5393 10 14.3131 10 14.045C10 13.777 10.0932 13.5508 10.2712 13.3665C10.4576 13.1822 10.6949 13.0901 11 13.0901C11.3051 13.0901 11.5424 13.1738 11.7288 13.3581C11.9068 13.5424 12 13.7686 12 14.045ZM10.0847 7.09215C10.161 7.07539 10.2797 7.05864 10.4322 7.03351C10.5847 7.00838 10.7458 7 10.8983 7C11.0593 7 11.1949 7.00838 11.322 7.03351C11.4492 7.05864 11.5508 7.10052 11.6441 7.15916C11.7288 7.22618 11.7966 7.30995 11.8475 7.41885C11.8983 7.52775 11.9153 7.67016 11.9153 7.84607V12.1853C11.839 12.2021 11.7203 12.2188 11.5678 12.244C11.4153 12.2691 11.2542 12.2859 11.0932 12.2859C10.9322 12.2859 10.7966 12.2775 10.6695 12.2524C10.5424 12.2272 10.4407 12.1853 10.3475 12.1267C10.2627 12.0597 10.1949 11.9759 10.1441 11.867C10.0932 11.7581 10.0763 11.6157 10.0763 11.4314V7.09215H10.0847Z" fill="#81319B"/>
<path d="M10.991 2C6.02301 2.009 1.99102 6.041 2.00002 11.009C2.00902 15.977 6.04101 20.009 11.009 20C15.977 19.991 20 15.968 20 11C20 6.032 15.968 2 11 2H10.991ZM11 18.2C7.02201 18.2 3.80001 14.978 3.80001 11C3.80001 7.022 7.02201 3.8 11 3.8C14.978 3.8 18.2 7.022 18.2 11C18.2 14.978 14.978 18.2 11 18.2Z" fill="#81319B"/>
</g>
<defs>
<clipPath id="clip0_61582_153942">
<rect width="22" height="22" fill="white"/>
</clipPath>
</defs>
</svg>
