<svg width="19" height="19" viewBox="0 0 19 19" fill="none" xmlns="http://www.w3.org/2000/svg">
<path d="M8.49121 6.60876C8.49121 6.38823 8.5679 6.20215 8.71431 6.05054C8.86769 5.89893 9.0629 5.82312 9.31389 5.82312C9.56487 5.82312 9.76009 5.89893 9.91347 6.05054C10.0668 6.20215 10.1366 6.38823 10.1366 6.60876C10.1366 6.82928 10.0599 7.01536 9.91347 7.16697C9.76009 7.31858 9.56487 7.39439 9.31389 7.39439C9.0629 7.39439 8.86769 7.32547 8.71431 7.17386C8.5679 7.02225 8.49121 6.83618 8.49121 6.60876ZM10.0668 12.3287C10.0041 12.3425 9.90649 12.3563 9.781 12.377C9.65551 12.3976 9.52304 12.4045 9.39755 12.4045C9.26508 12.4045 9.15354 12.3976 9.04896 12.377C8.94438 12.3563 8.86072 12.3218 8.78403 12.2736C8.71431 12.2185 8.65854 12.1495 8.6167 12.06C8.57487 11.9704 8.56093 11.8532 8.56093 11.7085V8.13868C8.62368 8.12489 8.72128 8.11111 8.84677 8.09044C8.97227 8.06976 9.10473 8.05598 9.2372 8.05598C9.36966 8.05598 9.48121 8.06287 9.58579 8.08354C9.69037 8.10422 9.77403 8.13868 9.85072 8.18692C9.92044 8.24205 9.97621 8.31096 10.018 8.40055C10.0599 8.49014 10.0738 8.6073 10.0738 8.75891V12.3287H10.0668Z" fill="url(#paint0_linear_650_3931)"/>
<path d="M9.30636 1.70972C5.21931 1.71712 1.90228 5.03415 1.90968 9.12121C1.91708 13.2083 5.23412 16.5253 9.32117 16.5179C13.4082 16.5105 16.7179 13.2009 16.7179 9.1138C16.7179 5.02675 13.4008 1.70972 9.31377 1.70972H9.30636ZM9.31377 15.0371C6.04116 15.0371 3.3905 12.3864 3.3905 9.1138C3.3905 5.8412 6.04116 3.19053 9.31377 3.19053C12.5864 3.19053 15.237 5.8412 15.237 9.1138C15.237 12.3864 12.5864 15.0371 9.31377 15.0371Z" fill="url(#paint1_linear_650_3931)"/>
<defs>
<linearGradient id="paint0_linear_650_3931" x1="8.34087" y1="9.11383" x2="10.654" y2="9.11383" gradientUnits="userSpaceOnUse">
<stop offset="0.12" stop-color="#1081C5"/>
<stop offset="0.39" stop-color="#0C8DB9"/>
<stop offset="0.81" stop-color="#05AB9E"/>
</linearGradient>
<linearGradient id="paint1_linear_650_3931" x1="0.556562" y1="9.11381" x2="21.3743" y2="9.11381" gradientUnits="userSpaceOnUse">
<stop offset="0.12" stop-color="#1081C5"/>
<stop offset="0.39" stop-color="#0C8DB9"/>
<stop offset="0.81" stop-color="#05AB9E"/>
</linearGradient>
</defs>
</svg>
