<svg width="22" height="22" viewBox="0 0 22 22" fill="none" xmlns="http://www.w3.org/2000/svg">
<path d="M10 7.95497C10 7.68691 10.0932 7.46073 10.2712 7.27644C10.4576 7.09215 10.6949 7 11 7C11.3051 7 11.5424 7.09215 11.7288 7.27644C11.9153 7.46073 12 7.68691 12 7.95497C12 8.22304 11.9068 8.44921 11.7288 8.63351C11.5424 8.8178 11.3051 8.90995 11 8.90995C10.6949 8.90995 10.4576 8.82618 10.2712 8.64188C10.0932 8.45759 10 8.23141 10 7.95497ZM11.9153 14.9079C11.839 14.9246 11.7203 14.9414 11.5678 14.9665C11.4153 14.9916 11.2542 15 11.1017 15C10.9407 15 10.8051 14.9916 10.678 14.9665C10.5508 14.9414 10.4492 14.8995 10.3559 14.8408C10.2712 14.7738 10.2034 14.6901 10.1525 14.5812C10.1017 14.4723 10.0847 14.3298 10.0847 14.1539V9.81466C10.161 9.79791 10.2797 9.78115 10.4322 9.75602C10.5847 9.73089 10.7458 9.71414 10.9068 9.71414C11.0678 9.71414 11.2034 9.72251 11.3305 9.74764C11.4576 9.77278 11.5593 9.81466 11.6525 9.8733C11.7373 9.94031 11.8051 10.0241 11.8559 10.133C11.9068 10.2419 11.9237 10.3843 11.9237 10.5686V14.9079H11.9153Z" fill="#0B2C4C"/>
<path d="M10.991 2C6.02301 2.009 1.99102 6.041 2.00002 11.009C2.00902 15.977 6.04101 20.009 11.009 20C15.977 19.991 20 15.968 20 11C20 6.032 15.968 2 11 2H10.991ZM11 18.2C7.02201 18.2 3.80001 14.978 3.80001 11C3.80001 7.022 7.02201 3.8 11 3.8C14.978 3.8 18.2 7.022 18.2 11C18.2 14.978 14.978 18.2 11 18.2Z" fill="#0B2C4C"/>
</svg>
