<svg width="18" height="18" viewBox="0 0 18 18" fill="none" xmlns="http://www.w3.org/2000/svg">
<path d="M8.17969 6.51181C8.17969 6.29249 8.25596 6.10743 8.40157 5.95665C8.55411 5.80586 8.74825 5.73047 8.99787 5.73047C9.24748 5.73047 9.44163 5.80586 9.59417 5.95665C9.74671 6.10743 9.81605 6.29249 9.81605 6.51181C9.81605 6.73114 9.73978 6.91619 9.59417 7.06698C9.44163 7.21776 9.24748 7.29315 8.99787 7.29315C8.74825 7.29315 8.55411 7.22461 8.40157 7.07383C8.25596 6.92304 8.17969 6.73799 8.17969 6.51181ZM9.74671 12.2005C9.68431 12.2142 9.58724 12.2279 9.46243 12.2485C9.33762 12.2691 9.20588 12.2759 9.08107 12.2759C8.94933 12.2759 8.83839 12.2691 8.73439 12.2485C8.63038 12.2279 8.54718 12.1937 8.4709 12.1457C8.40157 12.0909 8.3461 12.0223 8.3045 11.9332C8.26289 11.8441 8.24903 11.7276 8.24903 11.5837V8.03337C8.31143 8.01966 8.4085 8.00596 8.53331 7.9854C8.65812 7.96483 8.78986 7.95113 8.9216 7.95113C9.05334 7.95113 9.16428 7.95798 9.26829 7.97854C9.37229 7.9991 9.4555 8.03337 9.53177 8.08135C9.60111 8.13618 9.65657 8.20472 9.69818 8.29382C9.73978 8.38292 9.75365 8.49944 9.75365 8.65022V12.2005H9.74671Z" fill="white"/>
<path d="M8.993 1.63281C4.92827 1.64018 1.62937 4.93908 1.63673 9.00381C1.64409 13.0685 4.943 16.3674 9.00773 16.3601C13.0724 16.3527 16.364 13.0612 16.364 8.99644C16.364 4.93172 13.0651 1.63281 9.00036 1.63281H8.993ZM9.00036 14.8873C5.74564 14.8873 3.10946 12.2512 3.10946 8.99644C3.10946 5.74172 5.74564 3.10554 9.00036 3.10554C12.2551 3.10554 14.8913 5.74172 14.8913 8.99644C14.8913 12.2512 12.2551 14.8873 9.00036 14.8873Z" fill="white"/>
</svg>
