<svg width="46" height="50" viewBox="0 0 46 50" fill="none" xmlns="http://www.w3.org/2000/svg">
<path d="M4.10713 50H34.4999C37.1108 50.0003 39.6442 49.099 41.6832 47.4446C43.7223 45.7901 45.1456 43.4809 45.7191 40.8968C46.2927 38.3127 45.9823 35.6074 44.839 33.2261C43.6957 30.8447 41.7875 28.9289 39.4284 27.7939V10.8333C39.4284 10.7239 39.4072 10.6155 39.3659 10.5144C39.3246 10.4133 39.2641 10.3214 39.1878 10.2441L29.3307 0.244063C29.2545 0.166681 29.1639 0.1053 29.0642 0.0634237C28.9646 0.0215474 28.8578 -3.98703e-06 28.7499 5.53256e-10H4.10713C3.01822 0.00124068 1.97427 0.440626 1.2043 1.22176C0.434329 2.00289 0.00122295 3.06198 0 4.16667V45.8333C0.00122295 46.938 0.434329 47.9971 1.2043 48.7782C1.97427 49.5594 3.01822 49.9988 4.10713 50ZM44.357 38.3333C44.357 40.3111 43.7789 42.2445 42.6957 43.889C41.6126 45.5335 40.0732 46.8153 38.272 47.5721C36.4709 48.329 34.4889 48.527 32.5768 48.1412C30.6647 47.7553 28.9084 46.8029 27.5298 45.4044C26.1513 44.0059 25.2125 42.224 24.8322 40.2842C24.4518 38.3444 24.647 36.3338 25.3931 34.5065C26.1391 32.6792 27.4026 31.1175 29.0235 30.0186C30.6445 28.9198 32.5503 28.3333 34.4999 28.3333C37.1132 28.3363 39.6187 29.3908 41.4666 31.2656C43.3146 33.1403 44.354 35.6821 44.357 38.3333ZM29.5713 2.8451L36.624 10H32.0356C31.3822 9.99926 30.7559 9.73562 30.2939 9.26694C29.8319 8.79826 29.572 8.16281 29.5713 7.5V2.8451ZM1.64285 4.16667C1.64361 3.50386 1.90348 2.86843 2.36546 2.39975C2.82744 1.93108 3.45379 1.66744 4.10713 1.66667H27.9285V7.5C27.9297 8.60469 28.3628 9.66378 29.1328 10.4449C29.9027 11.226 30.9467 11.6654 32.0356 11.6667H37.7856V27.1527C35.1017 26.3403 32.2178 26.5496 29.6752 27.7414C27.1327 28.9332 25.1063 31.0255 23.9766 33.6255C22.8469 36.2255 22.6914 39.1545 23.5395 41.8625C24.3875 44.5706 26.1807 46.8715 28.5824 48.3333H4.10713C3.45379 48.3326 2.82744 48.0689 2.36546 47.6002C1.90348 47.1316 1.64361 46.4961 1.64285 45.8333V4.16667ZM13.9642 15H33.6784C33.8963 15 34.1052 15.0878 34.2593 15.2441C34.4133 15.4004 34.4999 15.6123 34.4999 15.8333C34.4999 16.0543 34.4133 16.2663 34.2593 16.4226C34.1052 16.5789 33.8963 16.6667 33.6784 16.6667H13.9642C13.7464 16.6667 13.5374 16.5789 13.3834 16.4226C13.2293 16.2663 13.1428 16.0543 13.1428 15.8333C13.1428 15.6123 13.2293 15.4004 13.3834 15.2441C13.5374 15.0878 13.7464 15 13.9642 15ZM4.92855 20.8333C4.92855 20.6123 5.01509 20.4004 5.16914 20.2441C5.32319 20.0878 5.53212 20 5.74998 20H22.1785C22.3963 20 22.6053 20.0878 22.7593 20.2441C22.9134 20.4004 22.9999 20.6123 22.9999 20.8333C22.9999 21.0543 22.9134 21.2663 22.7593 21.4226C22.6053 21.5789 22.3963 21.6667 22.1785 21.6667H5.74998C5.53212 21.6667 5.32319 21.5789 5.16914 21.4226C5.01509 21.2663 4.92855 21.0543 4.92855 20.8333ZM26.2856 25.8333C26.2856 26.0543 26.1991 26.2663 26.045 26.4226C25.891 26.5789 25.682 26.6667 25.4642 26.6667H18.8928C18.6749 26.6667 18.466 26.5789 18.3119 26.4226C18.1579 26.2663 18.0714 26.0543 18.0714 25.8333C18.0714 25.6123 18.1579 25.4004 18.3119 25.2441C18.466 25.0878 18.6749 25 18.8928 25H25.4642C25.682 25 25.891 25.0878 26.045 25.2441C26.1991 25.4004 26.2856 25.6123 26.2856 25.8333ZM4.92855 30.8333C4.92855 30.6123 5.01509 30.4004 5.16914 30.2441C5.32319 30.0878 5.53212 30 5.74998 30H20.5356C20.7535 30 20.9624 30.0878 21.1165 30.2441C21.2705 30.4004 21.3571 30.6123 21.3571 30.8333C21.3571 31.0543 21.2705 31.2663 21.1165 31.4226C20.9624 31.5789 20.7535 31.6667 20.5356 31.6667H5.74998C5.53212 31.6667 5.32319 31.5789 5.16914 31.4226C5.01509 31.2663 4.92855 31.0543 4.92855 30.8333ZM4.92855 15.8333C4.92855 15.6123 5.01509 15.4004 5.16914 15.2441C5.32319 15.0878 5.53212 15 5.74998 15H10.6785C10.8964 15 11.1053 15.0878 11.2594 15.2441C11.4134 15.4004 11.5 15.6123 11.5 15.8333C11.5 16.0543 11.4134 16.2663 11.2594 16.4226C11.1053 16.5789 10.8964 16.6667 10.6785 16.6667H5.74998C5.53212 16.6667 5.32319 16.5789 5.16914 16.4226C5.01509 16.2663 4.92855 16.0543 4.92855 15.8333ZM34.4999 20.8333C34.4999 21.0543 34.4133 21.2663 34.2593 21.4226C34.1052 21.5789 33.8963 21.6667 33.6784 21.6667H25.4642C25.2463 21.6667 25.0374 21.5789 24.8833 21.4226C24.7293 21.2663 24.6428 21.0543 24.6428 20.8333C24.6428 20.6123 24.7293 20.4004 24.8833 20.2441C25.0374 20.0878 25.2463 20 25.4642 20H33.6784C33.8963 20 34.1052 20.0878 34.2593 20.2441C34.4133 20.4004 34.4999 20.6123 34.4999 20.8333ZM4.92855 25.8333C4.92855 25.6123 5.01509 25.4004 5.16914 25.2441C5.32319 25.0878 5.53212 25 5.74998 25H15.6071C15.8249 25 16.0339 25.0878 16.1879 25.2441C16.342 25.4004 16.4285 25.6123 16.4285 25.8333C16.4285 26.0543 16.342 26.2663 16.1879 26.4226C16.0339 26.5789 15.8249 26.6667 15.6071 26.6667H5.74998C5.53212 26.6667 5.32319 26.5789 5.16914 26.4226C5.01509 26.2663 4.92855 26.0543 4.92855 25.8333ZM19.7142 40.8333C19.7142 41.0543 19.6277 41.2663 19.4736 41.4226C19.3196 41.5789 19.1106 41.6667 18.8928 41.6667H15.6071C15.3892 41.6667 15.1803 41.5789 15.0262 41.4226C14.8722 41.2663 14.7857 41.0543 14.7857 40.8333C14.7857 40.6123 14.8722 40.4004 15.0262 40.2441C15.1803 40.0878 15.3892 40 15.6071 40H18.8928C19.1106 40 19.3196 40.0878 19.4736 40.2441C19.6277 40.4004 19.7142 40.6123 19.7142 40.8333ZM4.92855 40.8333C4.92855 40.6123 5.01509 40.4004 5.16914 40.2441C5.32319 40.0878 5.53212 40 5.74998 40H12.3214C12.5392 40 12.7482 40.0878 12.9022 40.2441C13.0563 40.4004 13.1428 40.6123 13.1428 40.8333C13.1428 41.0543 13.0563 41.2663 12.9022 41.4226C12.7482 41.5789 12.5392 41.6667 12.3214 41.6667H5.74998C5.53212 41.6667 5.32319 41.5789 5.16914 41.4226C5.01509 41.2663 4.92855 41.0543 4.92855 40.8333ZM4.92855 35.8333C4.92855 35.6123 5.01509 35.4004 5.16914 35.2441C5.32319 35.0878 5.53212 35 5.74998 35H10.6785C10.8964 35 11.1053 35.0878 11.2594 35.2441C11.4134 35.4004 11.5 35.6123 11.5 35.8333C11.5 36.0543 11.4134 36.2663 11.2594 36.4226C11.1053 36.5789 10.8964 36.6667 10.6785 36.6667H5.74998C5.53212 36.6667 5.32319 36.5789 5.16914 36.4226C5.01509 36.2663 4.92855 36.0543 4.92855 35.8333ZM4.92855 10.8333C4.92855 10.6123 5.01509 10.4004 5.16914 10.2441C5.32319 10.0878 5.53212 10 5.74998 10H15.6071C15.8249 10 16.0339 10.0878 16.1879 10.2441C16.342 10.4004 16.4285 10.6123 16.4285 10.8333C16.4285 11.0543 16.342 11.2663 16.1879 11.4226C16.0339 11.5789 15.8249 11.6667 15.6071 11.6667H5.74998C5.53212 11.6667 5.32319 11.5789 5.16914 11.4226C5.01509 11.2663 4.92855 11.0543 4.92855 10.8333ZM19.7142 35.8333C19.7142 36.0543 19.6277 36.2663 19.4736 36.4226C19.3196 36.5789 19.1106 36.6667 18.8928 36.6667H13.9642C13.7464 36.6667 13.5374 36.5789 13.3834 36.4226C13.2293 36.2663 13.1428 36.0543 13.1428 35.8333C13.1428 35.6123 13.2293 35.4004 13.3834 35.2441C13.5374 35.0878 13.7464 35 13.9642 35H18.8928C19.1106 35 19.3196 35.0878 19.4736 35.2441C19.6277 35.4004 19.7142 35.6123 19.7142 35.8333ZM41.7949 34.3067C41.6137 34.1841 41.3919 34.1396 41.1783 34.1829C40.9647 34.2262 40.7768 34.3539 40.6559 34.5377L40.1508 35.3065C39.7218 34.0574 38.9364 32.9661 37.8943 32.1712C36.8523 31.3764 35.6007 30.9139 34.2989 30.8427C32.997 30.7715 31.7037 31.0948 30.5835 31.7714C29.4633 32.448 28.5667 33.4474 28.0079 34.6424C27.9616 34.7412 27.935 34.8484 27.9295 34.9577C27.924 35.067 27.9398 35.1763 27.976 35.2794C28.0122 35.3825 28.068 35.4773 28.1403 35.5586C28.2126 35.6398 28.3 35.7057 28.3974 35.7527C28.4948 35.7997 28.6004 35.8267 28.7082 35.8323C28.8159 35.8378 28.9236 35.8218 29.0253 35.7851C29.1269 35.7484 29.2204 35.6918 29.3005 35.6184C29.3805 35.5451 29.4455 35.4565 29.4918 35.3576C29.9058 34.4717 30.5673 33.7288 31.3942 33.2213C32.221 32.7139 33.1767 32.4642 34.1423 32.5034C35.1079 32.5425 36.0408 32.8688 36.8251 33.4417C37.6093 34.0145 38.2103 34.8086 38.5532 35.7252L37.6878 35.14C37.5065 35.02 37.2859 34.9774 37.0739 35.0216C36.8618 35.0657 36.6755 35.1929 36.5555 35.3756C36.4354 35.5583 36.3913 35.7817 36.4327 35.9973C36.4741 36.2128 36.5976 36.4031 36.7765 36.5267L39.2408 38.1933C39.4221 38.3159 39.6439 38.3605 39.8575 38.3171C40.0712 38.2738 40.2591 38.1462 40.3799 37.9623L42.0228 35.4623C42.0826 35.3712 42.1242 35.2691 42.1451 35.1618C42.166 35.0544 42.1659 34.9439 42.1448 34.8366C42.1236 34.7293 42.0818 34.6273 42.0218 34.5363C41.9618 34.4454 41.8847 34.3674 41.7949 34.3067ZM40.6023 40.914C40.5049 40.867 40.3993 40.84 40.2916 40.8344C40.1838 40.8288 40.0761 40.8449 39.9744 40.8816C39.8728 40.9182 39.7793 40.9749 39.6993 41.0482C39.6192 41.1216 39.5542 41.2102 39.5079 41.3091C39.0939 42.195 38.4324 42.9378 37.6056 43.4453C36.7787 43.9528 35.8231 44.2025 34.8575 44.1633C33.8919 44.1241 32.9589 43.7978 32.1746 43.225C31.3904 42.6522 30.7894 41.8581 30.4465 40.9415L31.3119 41.5267C31.4932 41.6467 31.7138 41.6892 31.9258 41.6451C32.1379 41.601 32.3242 41.4737 32.4442 41.291C32.5643 41.1083 32.6084 40.8849 32.5671 40.6694C32.5257 40.4539 32.4021 40.2636 32.2232 40.14L29.7589 38.4733C29.5776 38.3507 29.3558 38.3062 29.1422 38.3495C28.9286 38.3928 28.7406 38.5205 28.6198 38.7044L26.9769 41.2044C26.9164 41.2954 26.8742 41.3977 26.8528 41.5053C26.8313 41.6129 26.8311 41.7238 26.852 41.8316C26.873 41.9393 26.9147 42.0418 26.9748 42.1331C27.0349 42.2244 27.1122 42.3028 27.2022 42.3637C27.2923 42.4246 27.3933 42.4669 27.4995 42.4881C27.6058 42.5092 27.715 42.5089 27.8211 42.4871C27.9272 42.4653 28.028 42.4224 28.1177 42.3609C28.2074 42.2995 28.2842 42.2206 28.3438 42.129L28.849 41.3602C29.2779 42.6092 30.0633 43.7006 31.1054 44.4954C32.1474 45.2903 33.399 45.7527 34.7008 45.8239C36.0027 45.8951 37.296 45.5719 38.4162 44.8953C39.5365 44.2186 40.433 43.2193 40.9918 42.0243C41.0381 41.9254 41.0647 41.8183 41.0702 41.709C41.0757 41.5997 41.0599 41.4904 41.0237 41.3873C40.9876 41.2842 40.9317 41.1893 40.8594 41.1081C40.7871 41.0269 40.6998 40.9609 40.6023 40.914Z" fill="url(#paint0_linear_1415_8257)"/>
<defs>
<linearGradient id="paint0_linear_1415_8257" x1="22.9999" y1="50" x2="22.9999" y2="0" gradientUnits="userSpaceOnUse">
<stop stop-color="#0B2C4C"/>
<stop offset="0.455" stop-color="#00A99D"/>
<stop offset="1" stop-color="#81319B"/>
</linearGradient>
</defs>
</svg>
