<svg width="50" height="48" viewBox="0 0 50 48" fill="none" xmlns="http://www.w3.org/2000/svg">
<path d="M14.1667 13.2414H29.1667C29.3877 13.2414 29.5996 13.3286 29.7559 13.4838C29.9122 13.639 30 13.8495 30 14.069C30 14.2885 29.9122 14.499 29.7559 14.6542C29.5996 14.8094 29.3877 14.8966 29.1667 14.8966H14.1667C13.9457 14.8966 13.7337 14.8094 13.5774 14.6542C13.4211 14.499 13.3333 14.2885 13.3333 14.069C13.3333 13.8495 13.4211 13.639 13.5774 13.4838C13.7337 13.3286 13.9457 13.2414 14.1667 13.2414ZM5.83333 19.8621H19.1667C19.3877 19.8621 19.5996 19.7749 19.7559 19.6197C19.9122 19.4645 20 19.254 20 19.0345C20 18.815 19.9122 18.6045 19.7559 18.4493C19.5996 18.2941 19.3877 18.2069 19.1667 18.2069H5.83333C5.61232 18.2069 5.40036 18.2941 5.24408 18.4493C5.0878 18.6045 5 18.815 5 19.0345C5 19.254 5.0878 19.4645 5.24408 19.6197C5.40036 19.7749 5.61232 19.8621 5.83333 19.8621ZM24.1667 23.1724H19.1667C18.9457 23.1724 18.7337 23.2596 18.5774 23.4148C18.4211 23.57 18.3333 23.7805 18.3333 24C18.3333 24.2195 18.4211 24.43 18.5774 24.5852C18.7337 24.7404 18.9457 24.8276 19.1667 24.8276H24.1667C24.3877 24.8276 24.5996 24.7404 24.7559 24.5852C24.9122 24.43 25 24.2195 25 24C25 23.7805 24.9122 23.57 24.7559 23.4148C24.5996 23.2596 24.3877 23.1724 24.1667 23.1724ZM15.8333 28.1379H5.83333C5.61232 28.1379 5.40036 28.2251 5.24408 28.3803C5.0878 28.5355 5 28.746 5 28.9655C5 29.185 5.0878 29.3955 5.24408 29.5507C5.40036 29.7059 5.61232 29.7931 5.83333 29.7931H15.8333C16.0543 29.7931 16.2663 29.7059 16.4226 29.5507C16.5789 29.3955 16.6667 29.185 16.6667 28.9655C16.6667 28.746 16.5789 28.5355 16.4226 28.3803C16.2663 28.2251 16.0543 28.1379 15.8333 28.1379ZM5.83333 14.8966H10.8333C11.0543 14.8966 11.2663 14.8094 11.4226 14.6542C11.5789 14.499 11.6667 14.2885 11.6667 14.069C11.6667 13.8495 11.5789 13.639 11.4226 13.4838C11.2663 13.3286 11.0543 13.2414 10.8333 13.2414H5.83333C5.61232 13.2414 5.40036 13.3286 5.24408 13.4838C5.0878 13.639 5 13.8495 5 14.069C5 14.2885 5.0878 14.499 5.24408 14.6542C5.40036 14.8094 5.61232 14.8966 5.83333 14.8966ZM25.8333 18.2069H22.5C22.279 18.2069 22.067 18.2941 21.9107 18.4493C21.7545 18.6045 21.6667 18.815 21.6667 19.0345C21.6667 19.254 21.7545 19.4645 21.9107 19.6197C22.067 19.7749 22.279 19.8621 22.5 19.8621H25.8333C26.0543 19.8621 26.2663 19.7749 26.4226 19.6197C26.5789 19.4645 26.6667 19.254 26.6667 19.0345C26.6667 18.815 26.5789 18.6045 26.4226 18.4493C26.2663 18.2941 26.0543 18.2069 25.8333 18.2069ZM15.8333 23.1724H5.83333C5.61232 23.1724 5.40036 23.2596 5.24408 23.4148C5.0878 23.57 5 23.7805 5 24C5 24.2195 5.0878 24.43 5.24408 24.5852C5.40036 24.7404 5.61232 24.8276 5.83333 24.8276H15.8333C16.0543 24.8276 16.2663 24.7404 16.4226 24.5852C16.5789 24.43 16.6667 24.2195 16.6667 24C16.6667 23.7805 16.5789 23.57 16.4226 23.4148C16.2663 23.2596 16.0543 23.1724 15.8333 23.1724ZM10.8333 33.1035H5.83333C5.61232 33.1035 5.40036 33.1906 5.24408 33.3458C5.0878 33.501 5 33.7115 5 33.931C5 34.1505 5.0878 34.361 5.24408 34.5162C5.40036 34.6714 5.61232 34.7586 5.83333 34.7586H10.8333C11.0543 34.7586 11.2663 34.6714 11.4226 34.5162C11.5789 34.361 11.6667 34.1505 11.6667 33.931C11.6667 33.7115 11.5789 33.501 11.4226 33.3458C11.2663 33.1906 11.0543 33.1035 10.8333 33.1035ZM5.83333 9.93104H15.8333C16.0543 9.93104 16.2663 9.84384 16.4226 9.68864C16.5789 9.53344 16.6667 9.32294 16.6667 9.10345C16.6667 8.88396 16.5789 8.67346 16.4226 8.51826C16.2663 8.36305 16.0543 8.27586 15.8333 8.27586H5.83333C5.61232 8.27586 5.40036 8.36305 5.24408 8.51826C5.0878 8.67346 5 8.88396 5 9.10345C5 9.32294 5.0878 9.53344 5.24408 9.68864C5.40036 9.84384 5.61232 9.93104 5.83333 9.93104ZM15.8333 33.1035H14.1667C13.9457 33.1035 13.7337 33.1906 13.5774 33.3458C13.4211 33.501 13.3333 33.7115 13.3333 33.931C13.3333 34.1505 13.4211 34.361 13.5774 34.5162C13.7337 34.6714 13.9457 34.7586 14.1667 34.7586H15.8333C16.0543 34.7586 16.2663 34.6714 16.4226 34.5162C16.5789 34.361 16.6667 34.1505 16.6667 33.931C16.6667 33.7115 16.5789 33.501 16.4226 33.3458C16.2663 33.1906 16.0543 33.1035 15.8333 33.1035ZM50 28.9655V47.1724C50 47.3919 49.9122 47.6024 49.7559 47.7576C49.5996 47.9128 49.3877 48 49.1667 48H20.8333C20.6123 48 20.4004 47.9128 20.2441 47.7576C20.0878 47.6024 20 47.3919 20 47.1724V43.0345H4.16667C3.06198 43.0333 2.00289 42.5969 1.22176 41.8212C0.440626 41.0454 0.00124068 39.9936 0 38.8966V4.13793C0.00124068 3.04086 0.440626 1.98908 1.22176 1.21333C2.00289 0.437587 3.06198 0.00123213 4.16667 5.4944e-10H25.8333C25.9428 -3.95953e-06 26.0511 0.0213988 26.1522 0.0629863C26.2533 0.104574 26.3452 0.165532 26.4226 0.242379L34.7559 8.51824C34.8333 8.59509 34.8947 8.68633 34.9366 8.78674C34.9785 8.88715 35 8.99477 35 9.10345V17.4C36.3468 16.9466 37.7476 16.6701 39.1667 16.5775V14.8966C39.1667 14.7383 39.2124 14.5833 39.2983 14.45C39.3843 14.3167 39.507 14.2108 39.6518 14.1446C39.7966 14.0785 39.9575 14.055 40.1153 14.0769C40.2732 14.0988 40.4214 14.1652 40.5424 14.2682L46.3757 19.2337C46.467 19.3114 46.5403 19.4078 46.5905 19.5163C46.6407 19.6247 46.6667 19.7427 46.6667 19.8621C46.6667 19.9815 46.6407 20.0994 46.5905 20.2079C46.5403 20.3163 46.467 20.4127 46.3757 20.4904L40.5424 25.4559C40.4214 25.559 40.2732 25.6254 40.1153 25.6473C39.9575 25.6692 39.7966 25.6457 39.6518 25.5795C39.507 25.5134 39.3843 25.4074 39.2983 25.2741C39.2124 25.1408 39.1667 24.9859 39.1667 24.8276V23.1875C37.7707 23.2465 36.3794 23.387 35 23.6083V28.1379H49.1667C49.3877 28.1379 49.5996 28.2251 49.7559 28.3803C49.9122 28.5355 50 28.746 50 28.9655ZM22.9347 29.7931L35 41.0704L47.0653 29.7931H22.9347ZM30.2402 22.8667C32.2689 22.3735 36.3203 21.5172 40 21.5172C40.221 21.5172 40.433 21.6044 40.5893 21.7596C40.7455 21.9148 40.8333 22.1253 40.8333 22.3448V23.0282L44.5529 19.8621L40.8333 16.6959V17.3793C40.8333 17.5988 40.7455 17.8093 40.5893 17.9645C40.433 18.1197 40.221 18.2069 40 18.2069C36.0555 18.2069 31.3453 20.2595 30.2402 22.8667ZM26.6667 5.7931C26.6674 6.45135 26.931 7.08242 27.3997 7.54786C27.8684 8.01331 28.5039 8.27512 29.1667 8.27586H32.1549L26.6667 2.82548V5.7931ZM20.8333 28.1379H33.3333V23.8966C31.0721 24.3254 29.426 24.7874 29.3958 24.796C29.2718 24.8313 29.1412 24.8374 29.0143 24.814C28.8874 24.7906 28.7678 24.7382 28.6648 24.661C28.5618 24.5838 28.4782 24.484 28.4207 24.3693C28.3632 24.2546 28.3333 24.1281 28.3333 24C28.3333 21.9869 29.7387 20.0699 32.2907 18.6023C32.6241 18.4104 32.9738 18.2312 33.3333 18.0632V9.93104H29.1667C28.062 9.9298 27.0029 9.49345 26.2218 8.7177C25.4406 7.94196 25.0012 6.89017 25 5.7931V1.65517H4.16667C3.50385 1.65591 2.8684 1.91772 2.39972 2.38317C1.93104 2.84862 1.66741 3.47969 1.66667 4.13793V38.8966C1.66741 39.5548 1.93104 40.1859 2.39972 40.6513C2.8684 41.1168 3.50385 41.3786 4.16667 41.3793H20V28.9655C20 28.746 20.0878 28.5355 20.2441 28.3803C20.4004 28.2251 20.6123 28.1379 20.8333 28.1379ZM48.3333 30.881L35.5711 42.8096C35.4166 42.9541 35.2123 43.0345 35 43.0345C34.7877 43.0345 34.5834 42.9541 34.4289 42.8096L21.6667 30.881V46.3448H48.3333V30.881Z" fill="url(#paint0_linear_1415_1209)"/>
<defs>
<linearGradient id="paint0_linear_1415_1209" x1="25" y1="48" x2="25" y2="0" gradientUnits="userSpaceOnUse">
<stop stop-color="#0B2C4C"/>
<stop offset="0.5" stop-color="#00A99D"/>
<stop offset="1" stop-color="#81319B"/>
</linearGradient>
</defs>
</svg>
