<svg width="28" height="28" viewBox="0 0 28 28" fill="none" xmlns="http://www.w3.org/2000/svg">
<path d="M16.3906 14C16.3906 15.3202 15.3202 16.3906 14 16.3906C12.6798 16.3906 11.6094 15.3202 11.6094 14C11.6094 12.6798 12.6798 11.6094 14 11.6094C15.3202 11.6094 16.3906 12.6798 16.3906 14Z" fill="#0B2C4C"/>
<path d="M18.0375 6.7749H9.96252C8.20483 6.7749 6.77502 8.20471 6.77502 9.9624V18.0374C6.77502 19.7951 8.20483 21.2249 9.96252 21.2249H18.0375C19.7952 21.2249 21.225 19.7951 21.225 18.0374V9.9624C21.225 8.20471 19.7952 6.7749 18.0375 6.7749ZM14 17.9843C11.803 17.9843 10.0156 16.1969 10.0156 13.9999C10.0156 11.8029 11.803 10.0155 14 10.0155C16.197 10.0155 17.9844 11.8029 17.9844 13.9999C17.9844 16.1969 16.197 17.9843 14 17.9843ZM18.5688 10.228C18.1286 10.228 17.7719 9.8713 17.7719 9.43115C17.7719 8.991 18.1286 8.63428 18.5688 8.63428C19.0089 8.63428 19.3656 8.991 19.3656 9.43115C19.3656 9.8713 19.0089 10.228 18.5688 10.228Z" fill="#0B2C4C"/>
<path d="M20.4281 0.399902H7.5719C3.61741 0.399902 0.400024 3.61729 0.400024 7.57178V20.428C0.400024 24.3825 3.61741 27.5999 7.5719 27.5999H20.4281C24.3826 27.5999 27.6 24.3825 27.6 20.428V7.57178C27.6 3.61729 24.3826 0.399902 20.4281 0.399902ZM22.8188 18.0374C22.8188 20.6737 20.6739 22.8187 18.0375 22.8187H9.96252C7.3262 22.8187 5.18127 20.6737 5.18127 18.0374V9.9624C5.18127 7.32607 7.3262 5.18115 9.96252 5.18115H18.0375C20.6739 5.18115 22.8188 7.32607 22.8188 9.9624V18.0374Z" fill="#0B2C4C"/>
</svg>
