<svg width="36" height="50" viewBox="0 0 36 50" fill="none" xmlns="http://www.w3.org/2000/svg">
<path d="M10.8004 38.3631H6.08755H10.8223C10.8146 38.3631 10.8081 38.3631 10.8004 38.3631ZM15.3453 5.64795H5.47966C5.11646 5.64795 4.82129 5.93833 4.82129 6.29565V10.3858C4.82129 10.7432 5.11646 11.0335 5.47966 11.0335L15.3453 11.0325C15.7085 11.0325 16.0037 10.7432 16.0037 10.3848V6.29565C16.0037 5.93833 15.7085 5.64795 15.3453 5.64795ZM14.6869 9.73707H6.13803V6.94334H14.6869V9.73707ZM30.5207 13.8273H5.47966C5.11646 13.8273 4.82129 14.1166 4.82129 14.475C4.82129 14.8334 5.11646 15.1227 5.47966 15.1227H30.5207C30.8839 15.1227 31.1791 14.8323 31.1791 14.475C31.1791 14.1177 30.8839 13.8273 30.5207 13.8273ZM30.5207 17.9164H5.47966C5.11646 17.9164 4.82129 18.2068 4.82129 18.5641C4.82129 18.9214 5.11646 19.2118 5.47966 19.2118H30.5207C30.8839 19.2118 31.1791 18.9214 31.1791 18.5641C31.1791 18.2068 30.8839 17.9164 30.5207 17.9164ZM30.5207 13.8273H5.47966C5.11646 13.8273 4.82129 14.1166 4.82129 14.475C4.82129 14.8334 5.11646 15.1227 5.47966 15.1227H30.5207C30.8839 15.1227 31.1791 14.8323 31.1791 14.475C31.1791 14.1177 30.8839 13.8273 30.5207 13.8273ZM30.5207 17.9164H5.47966C5.11646 17.9164 4.82129 18.2068 4.82129 18.5641C4.82129 18.9214 5.11646 19.2118 5.47966 19.2118H30.5207C30.8839 19.2118 31.1791 18.9214 31.1791 18.5641C31.1791 18.2068 30.8839 17.9164 30.5207 17.9164ZM15.3453 5.64795H5.47966C5.11646 5.64795 4.82129 5.93833 4.82129 6.29565V10.3858C4.82129 10.7432 5.11646 11.0335 5.47966 11.0335L15.3453 11.0325C15.7085 11.0325 16.0037 10.7432 16.0037 10.3848V6.29565C16.0037 5.93833 15.7085 5.64795 15.3453 5.64795ZM14.6869 9.73707H6.13803V6.94334H14.6869V9.73707ZM10.8004 38.3631H6.08755H10.8223C10.8146 38.3631 10.8081 38.3631 10.8004 38.3631ZM30.5207 13.8273H5.47966C5.11646 13.8273 4.82129 14.1166 4.82129 14.475C4.82129 14.8334 5.11646 15.1227 5.47966 15.1227H30.5207C30.8839 15.1227 31.1791 14.8323 31.1791 14.475C31.1791 14.1177 30.8839 13.8273 30.5207 13.8273ZM30.5207 17.9164H5.47966C5.11646 17.9164 4.82129 18.2068 4.82129 18.5641C4.82129 18.9214 5.11646 19.2118 5.47966 19.2118H30.5207C30.8839 19.2118 31.1791 18.9214 31.1791 18.5641C31.1791 18.2068 30.8839 17.9164 30.5207 17.9164ZM15.3453 5.64795H5.47966C5.11646 5.64795 4.82129 5.93833 4.82129 6.29565V10.3858C4.82129 10.7432 5.11646 11.0335 5.47966 11.0335L15.3453 11.0325C15.7085 11.0325 16.0037 10.7432 16.0037 10.3848V6.29565C16.0037 5.93833 15.7085 5.64795 15.3453 5.64795ZM14.6869 9.73707H6.13803V6.94334H14.6869V9.73707ZM10.8004 38.3631H6.08755H10.8223C10.8146 38.3631 10.8081 38.3631 10.8004 38.3631Z" fill="url(#paint0_linear_1415_2062)"/>
<path d="M35.3069 6.09698L29.3026 0.188911C29.1786 0.0680081 29.0107 0 28.8362 0H1.15837C0.983901 0 0.816017 0.0680081 0.693122 0.188911C0.570226 0.309815 0.5 0.474977 0.5 0.647696V44.4492H14.7899L15.0313 44.6651C15.3989 44.9922 15.6513 45.3744 15.7895 45.804C15.502 46.0307 15.3177 46.3783 15.3177 46.768V48.7651C15.3177 49.4462 15.8806 50 16.5719 50H26.7503C27.4427 50 28.0056 49.4451 28.0056 48.7651V46.768C28.0056 46.293 27.7312 45.8807 27.3307 45.6734C27.5195 45.2783 27.6808 44.8638 27.8135 44.4492H34.8416C35.2048 44.4492 35.5 44.1599 35.5 43.8015V6.55469C35.5 6.38305 35.4298 6.21789 35.3069 6.09698ZM29.4946 2.2108L33.2517 5.90699H29.4946V2.2108ZM26.6888 48.7046H16.6344V46.8284H26.6888V48.7046ZM26.9511 41.92C26.9511 42.817 26.5923 44.3618 25.9262 45.5331H17.0821C16.8857 44.8346 16.4951 44.2215 15.9168 43.7055L14.599 42.5299C14.0141 42.0074 13.7168 41.3479 13.7168 40.5706V35.2833C13.7168 34.7154 14.1875 34.2523 14.7647 34.2523C15.3418 34.2523 15.8126 34.7154 15.8126 35.2833V38.1655C15.8126 38.5239 16.1077 38.8132 16.4709 38.8132C16.8341 38.8132 17.1293 38.5239 17.1293 38.1655V27.3501C17.1293 26.8783 17.5199 26.494 18.0005 26.494C18.4812 26.494 18.8707 26.8783 18.8707 27.3501V35.4657C18.8707 35.823 19.1659 36.1134 19.5291 36.1134C19.8923 36.1134 20.1874 35.823 20.1874 35.4657V33.6511C20.1874 33.2495 20.5199 32.9224 20.9281 32.9224C21.3363 32.9224 21.6677 33.2495 21.6677 33.6511V35.5682C21.6677 35.9266 21.9628 36.2159 22.326 36.2159C22.6892 36.2159 22.9844 35.9266 22.9844 35.5682V34.1023C22.9844 33.7309 23.2916 33.4298 23.668 33.4298C24.0444 33.4298 24.3516 33.7309 24.3516 34.1023V36.2656C24.3516 36.6229 24.6468 36.9133 25.01 36.9133C25.3732 36.9133 25.6684 36.6229 25.6684 36.2656V35.185C25.6684 34.8363 25.9569 34.5535 26.3103 34.5535C26.6636 34.5535 26.9511 34.8363 26.9511 35.185V41.92ZM17.9995 25.1986C16.7935 25.1986 15.8126 26.1637 15.8126 27.3501V30.309C14.5606 29.5673 13.7683 28.2277 13.7683 26.7434C13.7683 24.4473 15.6666 22.5798 17.9995 22.5798C20.3323 22.5798 22.2317 24.4473 22.2317 26.7434C22.2317 28.2277 21.4383 29.5673 20.1874 30.309V27.3501C20.1874 26.1637 19.2065 25.1986 17.9995 25.1986ZM34.1822 43.1539H28.1405C28.225 42.6951 28.2678 42.2708 28.2678 41.92V39.6585H30.5194C30.8837 39.6585 31.1778 39.3691 31.1778 39.0108C31.1778 38.6524 30.8837 38.3631 30.5194 38.3631H28.2678V35.5693H30.5194C30.8837 35.5693 31.1778 35.2789 31.1778 34.9216C31.1778 34.5643 30.8837 34.2739 30.5194 34.2739H28.0341C27.7038 33.6694 27.0542 33.2581 26.3092 33.2581C26.0359 33.2581 25.7759 33.3143 25.54 33.4136C25.2547 32.6676 24.525 32.1344 23.668 32.1344C23.2664 32.1344 22.8944 32.252 22.5806 32.4517C22.2053 31.953 21.6051 31.627 20.927 31.627C20.6658 31.627 20.4168 31.6767 20.1874 31.7652V31.7609C20.3849 31.6778 20.577 31.5838 20.7613 31.4802H30.5194C30.8837 31.4802 31.1778 31.1898 31.1778 30.8325C31.1778 30.4752 30.8837 30.1848 30.5194 30.1848H22.3096C22.9592 29.3968 23.3838 28.4328 23.5089 27.3911H30.5194C30.8837 27.3911 31.1778 27.1007 31.1778 26.7434C31.1778 26.3861 30.8837 26.0957 30.5194 26.0957H23.5078C23.3805 25.0443 22.9493 24.0835 22.3019 23.3009H30.5194C30.8837 23.3009 31.1778 23.0116 31.1778 22.6532C31.1778 22.2948 30.8837 22.0055 30.5194 22.0055H20.7514C19.9394 21.5478 19.0002 21.2844 17.9995 21.2844C16.9987 21.2844 16.0595 21.5478 15.2475 22.0055H5.47947C5.11517 22.0055 4.8211 22.2959 4.8211 22.6532C4.8211 23.0105 5.11517 23.3009 5.47947 23.3009H13.6959C13.0496 24.0835 12.6184 25.0443 12.4911 26.0957H5.47947C5.11517 26.0957 4.8211 26.385 4.8211 26.7434C4.8211 27.1018 5.11517 27.3911 5.47947 27.3911H12.49C12.6151 28.4328 13.0397 29.3968 13.6893 30.1848H5.47947C5.11517 30.1848 4.8211 30.4752 4.8211 30.8325C4.8211 31.1898 5.11517 31.4802 5.47947 31.4802H15.2376C15.4219 31.5838 15.614 31.6778 15.8115 31.7609V33.2009C15.4955 33.0466 15.141 32.957 14.7647 32.957C13.8287 32.957 13.02 33.4967 12.637 34.2739H5.47947C5.11517 34.2739 4.8211 34.5643 4.8211 34.9216C4.8211 35.2789 5.11517 35.5693 5.47947 35.5693H12.4V38.3641H6.08736H6.08846H5.48056C5.29841 38.3641 5.13382 38.4365 5.01422 38.5541C4.89571 38.6718 4.82219 38.8337 4.82219 39.0118C4.82219 39.3022 5.01532 39.5473 5.28195 39.6293C5.28195 39.6304 5.28415 39.6304 5.28525 39.6304C5.30609 39.6369 5.32694 39.6423 5.34779 39.6466C5.39059 39.6563 5.43448 39.6606 5.47947 39.6606H12.4V40.5717C12.4 41.554 12.738 42.4392 13.3799 43.156H8.0482H1.81674V1.29431H28.1778V6.55469C28.1778 6.912 28.4719 7.20238 28.8362 7.20238H34.1822V43.1539Z" fill="url(#paint1_linear_1415_2062)"/>
<defs>
<linearGradient id="paint0_linear_1415_2062" x1="20.7028" y1="48.9848" x2="20.4525" y2="-2.1574" gradientUnits="userSpaceOnUse">
<stop stop-color="#0B2C4C"/>
<stop offset="0.465" stop-color="#00A99D"/>
<stop offset="1" stop-color="#81319B"/>
</linearGradient>
<linearGradient id="paint1_linear_1415_2062" x1="20.4449" y1="50" x2="20.4449" y2="-4.93805e-07" gradientUnits="userSpaceOnUse">
<stop stop-color="#0B2C4C"/>
<stop offset="0.5" stop-color="#00A99D"/>
<stop offset="1" stop-color="#81319B"/>
</linearGradient>
</defs>
</svg>
