<svg width="28" height="28" viewBox="0 0 28 28" fill="none" xmlns="http://www.w3.org/2000/svg">
<path d="M16.3906 14C16.3906 15.3202 15.3202 16.3906 14 16.3906C12.6798 16.3906 11.6094 15.3202 11.6094 14C11.6094 12.6798 12.6798 11.6094 14 11.6094C15.3202 11.6094 16.3906 12.6798 16.3906 14Z" fill="white"/>
<path d="M18.0374 6.7749H9.9624C8.20471 6.7749 6.7749 8.20471 6.7749 9.9624V18.0374C6.7749 19.7951 8.20471 21.2249 9.9624 21.2249H18.0374C19.7951 21.2249 21.2249 19.7951 21.2249 18.0374V9.9624C21.2249 8.20471 19.7951 6.7749 18.0374 6.7749ZM13.9999 17.9843C11.8029 17.9843 10.0155 16.1969 10.0155 13.9999C10.0155 11.8029 11.8029 10.0155 13.9999 10.0155C16.1969 10.0155 17.9843 11.8029 17.9843 13.9999C17.9843 16.1969 16.1969 17.9843 13.9999 17.9843ZM18.5687 10.228C18.1285 10.228 17.7718 9.8713 17.7718 9.43115C17.7718 8.991 18.1285 8.63428 18.5687 8.63428C19.0088 8.63428 19.3655 8.991 19.3655 9.43115C19.3655 9.8713 19.0088 10.228 18.5687 10.228Z" fill="white"/>
<path d="M20.428 0.399902H7.57178C3.61729 0.399902 0.399902 3.61729 0.399902 7.57178V20.428C0.399902 24.3825 3.61729 27.5999 7.57178 27.5999H20.428C24.3825 27.5999 27.5999 24.3825 27.5999 20.428V7.57178C27.5999 3.61729 24.3825 0.399902 20.428 0.399902ZM22.8187 18.0374C22.8187 20.6737 20.6737 22.8187 18.0374 22.8187H9.9624C7.32607 22.8187 5.18115 20.6737 5.18115 18.0374V9.9624C5.18115 7.32607 7.32607 5.18115 9.9624 5.18115H18.0374C20.6737 5.18115 22.8187 7.32607 22.8187 9.9624V18.0374Z" fill="white"/>
</svg>
