<svg width="22" height="22" viewBox="0 0 22 22" fill="none" xmlns="http://www.w3.org/2000/svg">
<path d="M14.6041 6.94607C13.6366 5.98687 12.3607 5.46094 11.0041 5.46094C10.9796 5.46094 10.9547 5.46094 10.9302 5.46155C9.60953 5.48027 8.35882 6.00866 7.40883 6.95006C6.45852 7.89146 5.91449 9.14125 5.87705 10.469C5.83593 11.9293 6.41465 13.3444 7.46529 14.3515C8.06517 14.9265 8.40914 15.45 8.40914 16.2647V16.3546C8.40914 16.6875 8.67763 16.9575 9.00872 16.9575H12.9986C13.3297 16.9575 13.5979 16.6878 13.5979 16.3546V16.265C13.5979 15.4429 13.9385 14.9348 14.5565 14.3374C15.5725 13.3558 16.1318 12.0351 16.1318 10.619C16.1318 9.20292 15.5893 7.92338 14.6041 6.94638V6.94607ZM13.7256 13.4678C13.0097 14.1594 12.5531 14.797 12.4313 15.7516H9.57516C9.45488 14.7933 9.00197 14.1594 8.29193 13.4788C7.48677 12.7071 7.04337 11.6227 7.07498 10.5033C7.13389 8.4174 8.87064 6.69661 10.9465 6.66715C12.0081 6.65426 13.0072 7.05623 13.7618 7.80463C14.5166 8.55333 14.9324 9.55273 14.9324 10.6187C14.9324 11.6847 14.5037 12.7157 13.7253 13.4678H13.7256Z" fill="#81319B"/>
<path d="M12.5554 17.5791H9.44302C9.11193 17.5791 8.84375 17.8488 8.84375 18.1821C8.84375 18.5153 9.11224 18.785 9.44302 18.785H12.5554C12.8864 18.785 13.1546 18.5153 13.1546 18.1821C13.1546 17.8488 12.8861 17.5791 12.5554 17.5791Z" fill="#81319B"/>
<path d="M10.9986 20.3514C11.6651 20.3514 12.2536 19.9567 12.5973 19.3584H9.39844C9.7418 19.9564 10.3306 20.3514 10.9986 20.3514Z" fill="#81319B"/>
<path d="M10.9265 7.82227C10.5966 7.82227 10.3281 8.09076 10.3281 8.42062C10.3281 8.75047 10.5966 9.01897 10.9265 9.01897C11.8083 9.01897 12.5261 9.73668 12.5261 10.6186C12.5261 10.9484 12.7946 11.2169 13.1244 11.2169C13.4543 11.2169 13.7228 10.9484 13.7228 10.6186C13.7228 9.07665 12.4684 7.82227 10.9265 7.82227Z" fill="#81319B"/>
<path d="M11.0023 4.60244C11.3186 4.60244 11.5748 4.34592 11.5748 4.02987V2.22101C11.5748 1.90465 11.3183 1.64844 11.0023 1.64844C10.6862 1.64844 10.4297 1.90496 10.4297 2.22101V4.02987C10.4297 4.34623 10.6862 4.60244 11.0023 4.60244Z" fill="#81319B"/>
<path d="M15.6822 6.54083C15.8289 6.54083 15.9752 6.48499 16.0872 6.37299L17.3662 5.09405C17.5898 4.87036 17.5898 4.50767 17.3662 4.28398C17.1425 4.06029 16.7798 4.06029 16.5561 4.28398L15.2771 5.56291C15.0535 5.7866 15.0535 6.1493 15.2771 6.37299C15.3891 6.48468 15.5355 6.54083 15.6822 6.54083Z" fill="#81319B"/>
<path d="M19.4283 10.0752H17.6195C17.3031 10.0752 17.0469 10.3317 17.0469 10.6478C17.0469 10.9638 17.3034 11.2203 17.6195 11.2203H19.4283C19.7447 11.2203 20.0009 10.9638 20.0009 10.6478C20.0009 10.3317 19.7444 10.0752 19.4283 10.0752Z" fill="#81319B"/>
<path d="M5.91545 6.37299C6.02745 6.48468 6.17382 6.54083 6.32049 6.54083C6.46716 6.54083 6.61353 6.48499 6.72553 6.37299C6.94922 6.1493 6.94922 5.7866 6.72553 5.56291L5.44659 4.28398C5.2229 4.06029 4.86021 4.06029 4.63652 4.28398C4.41283 4.50767 4.41283 4.87036 4.63652 5.09405L5.91545 6.37299Z" fill="#81319B"/>
<path d="M4.95401 10.6478C4.95401 10.3314 4.69748 10.0752 4.38143 10.0752H2.57257C2.25622 10.0752 2 10.3317 2 10.6478C2 10.9638 2.25652 11.2203 2.57257 11.2203H4.38143C4.69779 11.2203 4.95401 10.9638 4.95401 10.6478Z" fill="#81319B"/>
<path d="M16.0872 14.9169C15.9752 14.8052 15.8289 14.749 15.6822 14.749C15.5355 14.749 15.3891 14.8049 15.2771 14.9169C15.0535 15.1406 15.0535 15.5033 15.2771 15.7269L16.5561 17.0059C16.7798 17.2296 17.1425 17.2296 17.3662 17.0059C17.5898 16.7822 17.5898 16.4195 17.3662 16.1958L16.0872 14.9169Z" fill="#81319B"/>
<path d="M6.32049 14.75C6.17382 14.75 6.02745 14.8058 5.91545 14.9178L4.63652 16.1968C4.41283 16.4205 4.41283 16.7832 4.63652 17.0069C4.86021 17.2305 5.2229 17.2305 5.44659 17.0069L6.72553 15.7279C6.94922 15.5042 6.94922 15.1415 6.72553 14.9178C6.61353 14.8062 6.46716 14.75 6.32049 14.75Z" fill="#81319B"/>
</svg>
