<svg width="22" height="22" viewBox="0 0 22 22" fill="none" xmlns="http://www.w3.org/2000/svg">
<path d="M14.6002 6.94616C13.6327 5.98696 12.3568 5.46103 11.0002 5.46103C10.9757 5.46103 10.9508 5.46103 10.9263 5.46164C9.60562 5.48036 8.35492 6.00875 7.40492 6.95015C6.45462 7.89156 5.91058 9.14134 5.87314 10.4691C5.83203 11.9293 6.41074 13.3445 7.46138 14.3516C8.06126 14.9266 8.40524 15.4501 8.40524 16.2648V16.3547C8.40524 16.6876 8.67373 16.9576 9.00482 16.9576H12.9947C13.3258 16.9576 13.594 16.6879 13.594 16.3547V16.2651C13.594 15.443 13.9346 14.9349 14.5526 14.3375C15.5686 13.3559 16.1279 12.0352 16.1279 10.6191C16.1279 9.20301 15.5854 7.92347 14.6002 6.94647V6.94616ZM13.7217 13.4679C13.0058 14.1595 12.5492 14.7971 12.4274 15.7517H9.57125C9.45097 14.7934 8.99807 14.1595 8.28802 13.4789C7.48286 12.7072 7.03947 11.6228 7.07107 10.5034C7.12999 8.41749 8.86673 6.6967 10.9425 6.66724C12.0042 6.65435 13.0033 7.05632 13.7579 7.80472C14.5127 8.55342 14.9285 9.55282 14.9285 10.6188C14.9285 11.6848 14.4998 12.7158 13.7213 13.4679H13.7217Z" fill="#0B2C4C"/>
<path d="M12.5563 17.5792H9.444C9.11291 17.5792 8.84473 17.8489 8.84473 18.1821C8.84473 18.5154 9.11322 18.7851 9.444 18.7851H12.5563C12.8874 18.7851 13.1556 18.5154 13.1556 18.1821C13.1556 17.8489 12.8871 17.5792 12.5563 17.5792Z" fill="#0B2C4C"/>
<path d="M11.0006 20.3514C11.6671 20.3514 12.2556 19.9568 12.5993 19.3585H9.40039C9.74375 19.9565 10.3326 20.3514 11.0006 20.3514Z" fill="#0B2C4C"/>
<path d="M10.9226 7.82245C10.5927 7.82245 10.3242 8.09094 10.3242 8.4208C10.3242 8.75066 10.5927 9.01915 10.9226 9.01915C11.8044 9.01915 12.5222 9.73686 12.5222 10.6187C12.5222 10.9486 12.7906 11.2171 13.1205 11.2171C13.4504 11.2171 13.7189 10.9486 13.7189 10.6187C13.7189 9.07684 12.4645 7.82245 10.9226 7.82245Z" fill="#0B2C4C"/>
<path d="M11.0003 4.60253C11.3167 4.60253 11.5729 4.34601 11.5729 4.02996V2.2211C11.5729 1.90475 11.3164 1.64853 11.0003 1.64853C10.6843 1.64853 10.4277 1.90505 10.4277 2.2211V4.02996C10.4277 4.34632 10.6843 4.60253 11.0003 4.60253Z" fill="#0B2C4C"/>
<path d="M15.6802 6.54092C15.8269 6.54092 15.9733 6.48508 16.0853 6.37308L17.3642 5.09414C17.5879 4.87045 17.5879 4.50776 17.3642 4.28407C17.1405 4.06038 16.7778 4.06038 16.5541 4.28407L15.2752 5.563C15.0515 5.7867 15.0515 6.14939 15.2752 6.37308C15.3872 6.48477 15.5336 6.54092 15.6802 6.54092Z" fill="#0B2C4C"/>
<path d="M19.4273 10.0753H17.6185C17.3021 10.0753 17.0459 10.3318 17.0459 10.6479C17.0459 10.9639 17.3024 11.2204 17.6185 11.2204H19.4273C19.7437 11.2204 19.9999 10.9639 19.9999 10.6479C19.9999 10.3318 19.7434 10.0753 19.4273 10.0753Z" fill="#0B2C4C"/>
<path d="M5.91448 6.37308C6.02647 6.48477 6.17284 6.54092 6.31951 6.54092C6.46618 6.54092 6.61255 6.48508 6.72455 6.37308C6.94824 6.14939 6.94824 5.7867 6.72455 5.563L5.44561 4.28407C5.22192 4.06038 4.85923 4.06038 4.63554 4.28407C4.41185 4.50776 4.41185 4.87045 4.63554 5.09414L5.91448 6.37308Z" fill="#0B2C4C"/>
<path d="M4.95401 10.6479C4.95401 10.3315 4.69748 10.0753 4.38143 10.0753H2.57257C2.25622 10.0753 2 10.3318 2 10.6479C2 10.9639 2.25652 11.2204 2.57257 11.2204H4.38143C4.69779 11.2204 4.95401 10.9639 4.95401 10.6479Z" fill="#0B2C4C"/>
<path d="M16.0853 14.917C15.9733 14.8053 15.8269 14.7491 15.6802 14.7491C15.5336 14.7491 15.3872 14.805 15.2752 14.917C15.0515 15.1406 15.0515 15.5033 15.2752 15.727L16.5541 17.006C16.7778 17.2297 17.1405 17.2297 17.3642 17.006C17.5879 16.7823 17.5879 16.4196 17.3642 16.1959L16.0853 14.917Z" fill="#0B2C4C"/>
<path d="M6.31951 14.7501C6.17284 14.7501 6.02647 14.8059 5.91448 14.9179L4.63554 16.1969C4.41185 16.4206 4.41185 16.7833 4.63554 17.0069C4.85923 17.2306 5.22192 17.2306 5.44561 17.0069L6.72455 15.728C6.94824 15.5043 6.94824 15.1416 6.72455 14.9179C6.61255 14.8062 6.46618 14.7501 6.31951 14.7501Z" fill="#0B2C4C"/>
</svg>
