<svg width="28" height="28" viewBox="0 0 28 28" fill="none" xmlns="http://www.w3.org/2000/svg">
<path d="M22.7523 0.399902H4.94184C3.63064 0.401422 2.37368 0.913851 1.44707 1.82462C0.520467 2.73538 -9.1384e-07 3.96999 0 5.25725V22.7426C-9.1384e-07 24.0298 0.520467 25.2644 1.44707 26.1752C2.37368 27.086 3.63064 27.5984 4.94184 27.5999H22.7523C24.0645 27.5999 25.323 27.0881 26.2509 26.1772C27.1787 25.2663 27.7 24.0308 27.7 22.7426V5.25725C27.7 3.969 27.1787 2.73352 26.2509 1.82259C25.323 0.911656 24.0645 0.399902 22.7523 0.399902ZM10.4328 20.0587H7.57047V10.9691H10.4328V20.0587ZM8.98993 9.77625C8.76621 9.77625 8.5447 9.7329 8.33809 9.64867C8.13147 9.56445 7.94381 9.44101 7.78589 9.28544C7.62797 9.12987 7.50287 8.94522 7.41779 8.74209C7.33271 8.53896 7.28931 8.32133 7.29008 8.1017C7.28931 7.88179 7.33267 7.66389 7.41768 7.46044C7.50269 7.25698 7.62769 7.07196 7.78553 6.91593C7.94338 6.7599 8.13099 6.63592 8.33764 6.55107C8.54429 6.46622 8.76594 6.42216 8.98993 6.42141C9.4413 6.42444 9.87303 6.603 10.1906 6.91795C10.5081 7.2329 10.6855 7.65857 10.6839 8.1017C10.6847 8.32085 10.6415 8.538 10.5568 8.74076C10.4721 8.94352 10.3475 9.12791 10.1902 9.28341C10.0329 9.4389 9.84594 9.56247 9.64 9.64703C9.43406 9.73159 9.21316 9.7755 8.98993 9.77625ZM21.181 20.0587H18.3245V15.2874C18.3245 13.9798 17.8163 13.2458 16.7649 13.2458C15.5966 13.2458 15.0124 14.0085 15.0124 15.2874V20.0587H12.2611V10.9691H15.0124V12.1963C15.3056 11.7301 15.717 11.3465 16.2064 11.0831C16.6959 10.8197 17.2466 10.6856 17.8046 10.6938C19.7674 10.6938 21.1751 11.8694 21.1751 14.3067L21.181 20.0587Z" fill="#0B2C4C"/>
</svg>
