<svg width="22" height="22" viewBox="0 0 22 22" fill="none" xmlns="http://www.w3.org/2000/svg">
<path d="M10.2631 16.4208H11.7368C11.7659 16.4208 11.7894 16.4443 11.7894 16.4735V21.9473C11.7894 21.9764 11.7659 22 11.7368 22H10.2631C10.234 22 10.2104 21.9764 10.2104 21.9473V16.4735C10.2104 16.4443 10.234 16.4208 10.2631 16.4208Z" fill="#8D8C8D"/>
<path d="M8.06176 15.5629L8.51697 15.8258C8.76888 15.9711 8.8552 16.2933 8.70976 16.5453L6.44689 20.4647C6.30146 20.7165 5.97935 20.8028 5.72744 20.6574L5.27223 20.3946C5.02032 20.2492 4.934 19.9271 5.07943 19.6751L7.3423 15.7556C7.48774 15.5039 7.80985 15.4176 8.06176 15.5629Z" fill="#9F9E9F"/>
<path d="M6.17376 13.4826L6.4366 13.9376C6.58204 14.1897 6.49571 14.5118 6.24381 14.6571L2.3244 16.92C2.07249 17.0656 1.75038 16.9793 1.60495 16.7273L1.34214 16.2719C1.1967 16.0202 1.283 15.698 1.5349 15.5527L5.45431 13.2896C5.70621 13.1443 6.02832 13.2306 6.17376 13.4826Z" fill="#B1B0B1"/>
<path d="M5.57909 10.2635V11.7369C5.57909 11.766 5.5555 11.7896 5.52643 11.7896H0.0526523C0.0235862 11.7896 0 11.766 0 11.7369V10.2635C0 10.2343 0.0235862 10.2108 0.0526523 10.2108H5.52643C5.5555 10.2108 5.57909 10.2343 5.57909 10.2635Z" fill="#D1D3D4"/>
<path d="M6.4366 8.06197L6.17376 8.51729C6.02832 8.7693 5.70621 8.8556 5.45431 8.71L1.5349 6.44718C1.283 6.30185 1.1967 5.97969 1.34214 5.72768L1.60495 5.27263C1.75038 5.02061 2.07249 4.93431 2.3244 5.07964L6.24381 7.34273C6.49571 7.48806 6.58204 7.81022 6.4366 8.06197Z" fill="#E6E7E8"/>
<path d="M8.51698 6.17387L8.06177 6.43674C7.80986 6.58207 7.48775 6.49577 7.34231 6.24402L5.07944 2.3246C4.934 2.07259 5.0203 1.75042 5.27221 1.60509L5.72742 1.34222C5.97933 1.19689 6.30144 1.28319 6.44687 1.5352L8.70974 5.45437C8.85518 5.70638 8.76888 6.02854 8.51698 6.17387Z" fill="#F1F2F2"/>
<path d="M11.7368 5.5791H10.2631C10.234 5.5791 10.2104 5.55528 10.2104 5.52616V0.0525537C10.2104 0.0234346 10.234 -0.000121593 10.2631 -0.000121593H11.7368C11.7659 -0.000121593 11.7894 0.0234346 11.7894 0.0525537V5.52616C11.7894 5.55528 11.7659 5.5791 11.7368 5.5791Z" fill="#231F20"/>
<path d="M13.9379 6.43657L13.4827 6.17397C13.2307 6.02837 13.1445 5.70621 13.2899 5.45446L15.5528 1.53502C15.6982 1.28301 16.0203 1.19672 16.2722 1.34232L16.7274 1.60492C16.9793 1.75051 17.0656 2.07268 16.9202 2.32442L14.6573 6.24385C14.5119 6.49586 14.1898 6.58216 13.9379 6.43657Z" fill="#353132"/>
<path d="M15.8261 8.51729L15.5633 8.06197C15.4179 7.81022 15.5042 7.48806 15.7561 7.34273L19.6754 5.07991C19.9274 4.93431 20.2496 5.02061 20.3949 5.27263L20.6578 5.72769C20.8031 5.9797 20.7168 6.30185 20.4651 6.44718L16.5456 8.71C16.2937 8.8556 15.9716 8.7693 15.8261 8.51729Z" fill="#464344"/>
<path d="M16.4209 11.7369V10.2632C16.4209 10.2341 16.4445 10.2105 16.4736 10.2105H21.9473C21.9764 10.2105 22 10.2341 22 10.2632V11.7369C22 11.766 21.9764 11.7896 21.9473 11.7896H16.4736C16.4445 11.7896 16.4209 11.766 16.4209 11.7369Z" fill="#585657"/>
<path d="M15.5633 13.9378L15.8261 13.4825C15.9716 13.2307 16.2937 13.1445 16.5456 13.2898L20.4651 15.5526C20.7169 15.6982 20.8032 16.0201 20.6578 16.2721L20.395 16.7274C20.2496 16.9792 19.9275 17.0655 19.6755 16.9201L15.7561 14.6573C15.5042 14.5117 15.4179 14.1896 15.5633 13.9378Z" fill="#6A6869"/>
<path d="M13.4832 15.8258L13.9384 15.5629C14.1903 15.4173 14.5124 15.5036 14.6578 15.7557L16.9207 19.6751C17.0661 19.9271 16.9798 20.249 16.7279 20.3946L16.2727 20.6575C16.0208 20.8028 15.6987 20.7165 15.5533 20.4645L13.2904 16.545C13.1449 16.2933 13.2312 15.9711 13.4832 15.8258Z" fill="#7C7A7B"/>
</svg>
