<?xml version="1.0" encoding="utf-8"?>
<!-- Generator: Adobe Illustrator 26.0.3, SVG Export Plug-In . SVG Version: 6.00 Build 0)  -->
<svg version="1.1" xmlns="http://www.w3.org/2000/svg" xmlns:xlink="http://www.w3.org/1999/xlink" x="0px" y="0px"
	 viewBox="0 0 51 51" style="enable-background:new 0 0 51 51;" xml:space="preserve">
<style type="text/css">
	.st0{fill:#0B2C4C;}
	.st1{fill:#00A99D;}
	.st2{fill:#81319B;}
	.st3{fill:#1D1D1B;}
	.st4{fill:#706F6F;}
	.st5{fill:none;}
	.st6{fill:#C6C6C6;}
	.st7{fill:#FFFFFF;}
	.st8{fill:#F2F2F2;}
	.st9{display:none;}
	.st10{display:inline;fill:#81319B;}
	.st11{display:inline;}
	.st12{fill:#162D4B;}
	.st13{display:inline;fill:#00A99D;}
</style>
<g id="Capa_1">
	<g>
		<g>
			<path class="st7" d="M17.16,26.51L28.39,11.7L9.86,2.06C5.45-0.24,0.98,5.04,3.97,9.02L17.16,26.51z"/>
			<path class="st7" d="M5.35,42.1c-2.95,3.89,1.39,9.08,5.74,6.88l30.92-15.64c5.36-2.71,6.02-9.19,1.5-13.29
				c-0.65-0.59-1.4-1.08-2.18-1.49l-12.78-6.77c-0.09-0.05-0.21-0.02-0.27,0.06L5.35,42.1z"/>
			<path class="st8" d="M17.16,26.51H46.5c0,0,0.58-5.24-5.93-8.35L28.39,11.7L17.16,26.51z"/>
		</g>
	</g>
</g>
<g id="Capa_2" class="st9">
</g>
</svg>
