<svg width="45" height="20" viewBox="0 0 45 20" fill="none" xmlns="http://www.w3.org/2000/svg">
<g clip-path="url(#clip0_26701_43823)">
<path d="M36.6309 19.7331H44.4425C44.4892 19.7324 44.5348 19.7192 44.5744 19.6947C44.614 19.6702 44.6461 19.6354 44.6672 19.5941C44.6884 19.5527 44.6978 19.5065 44.6945 19.4602C44.6912 19.414 44.6752 19.3695 44.6483 19.3316L42.533 16.4248C42.4743 16.3441 42.3974 16.2783 42.3084 16.2328C42.2194 16.1872 42.1209 16.1631 42.0208 16.1625H38.3501C38.25 16.1619 38.1515 16.1378 38.0625 16.0923C37.9735 16.0467 37.8966 15.9809 37.8379 15.9003L33.9761 10.6017C33.8947 10.4949 33.852 10.3639 33.8549 10.23H29.2393L31.5441 13.2005C33.0658 15.294 34.5882 17.3855 36.111 19.4751C36.1709 19.556 36.2493 19.6216 36.3396 19.6664C36.43 19.7113 36.5299 19.7341 36.6309 19.7331Z" fill="white"/>
<path d="M29.2395 10.2313C29.2422 10.0977 29.1995 9.96699 29.1182 9.86044L25.1838 4.45157C25.1526 4.40828 25.1357 4.35634 25.1357 4.30304C25.1357 4.24975 25.1526 4.1978 25.1838 4.15452L27.0277 1.62025C27.0515 1.58798 27.0826 1.56173 27.1185 1.54363C27.1543 1.52554 27.194 1.51611 27.2343 1.51611C27.2745 1.51611 27.3142 1.52554 27.3501 1.54363C27.386 1.56173 27.4171 1.58798 27.4408 1.62025L31.552 7.26931L33.8568 10.2347L29.2395 10.2313Z" fill="white"/>
<path d="M29.2395 10.23C29.2424 10.3639 29.1997 10.4949 29.1182 10.6017L25.1838 16.014C25.1526 16.0573 25.1357 16.1092 25.1357 16.1625C25.1357 16.2158 25.1526 16.2677 25.1838 16.311L27.0277 18.8453C27.0515 18.8776 27.0826 18.9038 27.1185 18.9219C27.1543 18.94 27.194 18.9494 27.2343 18.9494C27.2745 18.9494 27.3142 18.94 27.3501 18.9219C27.386 18.9038 27.4171 18.8776 27.4408 18.8453L31.552 13.1962L33.8568 10.2308L29.2395 10.23Z" fill="white"/>
<path d="M25.6634 1.13094L23.5472 4.03779C23.4886 4.1185 23.4117 4.18432 23.3227 4.22989C23.2337 4.27546 23.1351 4.2995 23.035 4.30004H19.3644C19.2637 4.30017 19.1644 4.3239 19.0747 4.36932C18.985 4.41474 18.9073 4.48057 18.8479 4.56145L14.9912 9.86084C14.9125 9.96885 14.8702 10.0988 14.8702 10.2321C14.8702 10.3655 14.9125 10.4955 14.9912 10.6035L18.8479 15.902C18.9071 15.9831 18.9848 16.0491 19.0745 16.0947C19.1643 16.1403 19.2636 16.1641 19.3644 16.1643H23.035C23.1351 16.1648 23.2337 16.1888 23.3227 16.2344C23.4117 16.28 23.4886 16.3458 23.5472 16.4265L25.6634 19.3334C25.6903 19.3713 25.7063 19.4158 25.7096 19.4622C25.7129 19.5085 25.7034 19.5548 25.6821 19.5962C25.6609 19.6375 25.6286 19.6723 25.5889 19.6967C25.5492 19.7212 25.5035 19.7343 25.4568 19.7348H17.6452C17.5444 19.7347 17.4451 19.7108 17.3553 19.6652C17.2656 19.6197 17.1879 19.5536 17.1287 19.4726L10.6718 10.6035C10.5931 10.4955 10.5508 10.3655 10.5508 10.2321C10.5508 10.0988 10.5931 9.96885 10.6718 9.86084L17.127 0.991746C17.1862 0.910658 17.2638 0.844633 17.3536 0.799057C17.4433 0.75348 17.5427 0.729644 17.6434 0.729492H25.4568C25.5035 0.729969 25.5492 0.743138 25.5889 0.767573C25.6286 0.792009 25.6609 0.82678 25.6821 0.868123C25.7034 0.909466 25.7129 0.955807 25.7096 1.00213C25.7063 1.04845 25.6903 1.093 25.6634 1.13094Z" fill="white"/>
<path d="M36.6309 0.72904H44.4425C44.489 0.729973 44.5344 0.743472 44.5738 0.76809C44.6131 0.792707 44.645 0.827514 44.666 0.868776C44.6869 0.910039 44.6962 0.956199 44.6928 1.0023C44.6894 1.04841 44.6734 1.09272 44.6466 1.13048L42.5313 4.03734C42.4726 4.118 42.3957 4.18378 42.3067 4.22934C42.2177 4.27491 42.1192 4.29898 42.0191 4.29959H38.3484C38.2484 4.30025 38.15 4.32424 38.061 4.36965C37.9721 4.41505 37.8951 4.48059 37.8362 4.561L33.9761 9.86039C33.8947 9.96716 33.852 10.0982 33.8549 10.2321H29.2393L31.5441 7.26162C33.0658 5.16811 34.5882 3.07659 36.111 0.98705C36.1709 0.906127 36.2493 0.840524 36.3397 0.79566C36.43 0.750797 36.5299 0.727962 36.6309 0.72904Z" fill="white"/>
<path d="M8.81262 16.1638H12.8068L15.1116 19.3329C15.1385 19.3709 15.1545 19.4154 15.1578 19.4617C15.1612 19.508 15.1517 19.5544 15.1304 19.5957C15.1091 19.6371 15.0769 19.6718 15.0371 19.6963C14.9974 19.7207 14.9517 19.7339 14.905 19.7344H7.09425C6.99417 19.7337 6.89565 19.7096 6.80667 19.664C6.71769 19.6185 6.64075 19.5527 6.58207 19.4721L0.121742 10.603C0.043082 10.495 0.000732422 10.3651 0.000732422 10.2317C0.000732422 10.0983 0.043082 9.9684 0.121742 9.86038C2.27291 6.90345 4.42407 3.94709 6.57524 0.991292C6.63392 0.910682 6.71086 0.844938 6.79984 0.799378C6.88882 0.753818 6.98734 0.729722 7.08742 0.729038H14.8982C14.9455 0.728265 14.9921 0.740525 15.0328 0.76446C15.0735 0.788395 15.1067 0.82307 15.1288 0.864641C15.1509 0.906212 15.161 0.953055 15.158 0.999978C15.1549 1.0469 15.1389 1.09207 15.1116 1.13048L12.9963 4.03734C12.9377 4.11805 12.8608 4.18386 12.7718 4.22943C12.6828 4.27501 12.5842 4.29904 12.4841 4.29959H8.81348C8.71276 4.29958 8.61346 4.32325 8.5237 4.36868C8.43395 4.41412 8.35627 4.48001 8.29702 4.561L4.44115 9.86038C4.36249 9.9684 4.32014 10.0983 4.32014 10.2317C4.32014 10.3651 4.36249 10.495 4.44115 10.603L8.29788 15.9016C8.35677 15.9826 8.43411 16.0486 8.52358 16.0941C8.61304 16.1397 8.71209 16.1636 8.81262 16.1638Z" fill="white"/>
</g>
<defs>
<clipPath id="clip0_26701_43823">
<rect width="44.7899" height="19.1769" fill="white" transform="translate(0 0.729004)"/>
</clipPath>
</defs>
</svg>
