<svg width="60" height="61" viewBox="0 0 60 61" fill="none" xmlns="http://www.w3.org/2000/svg">
<path d="M54.6617 23.7425L54.67 23.7307L49.1667 19.5197V11.7928C49.1667 11.5698 49.0789 11.356 48.9226 11.1984C48.7663 11.0408 48.5543 10.9522 48.3333 10.9522H37.9717L31.5142 6.01415C31.0791 5.6806 30.5477 5.5 30.0012 5.5C29.4548 5.5 28.9234 5.6806 28.4883 6.01415L22.0283 10.9522H11.6667C11.4457 10.9522 11.2337 11.0408 11.0774 11.1984C10.9211 11.356 10.8333 11.5698 10.8333 11.7928V19.5197L5.33333 23.7282L5.34167 23.74C5.2372 23.8152 5.15181 23.9143 5.09245 24.029C5.03308 24.1438 5.0014 24.2711 5 24.4006V54.6595C5 54.8824 5.0878 55.0962 5.24408 55.2538C5.40036 55.4114 5.61232 55.5 5.83333 55.5H54.1667C54.3877 55.5 54.5996 55.4114 54.7559 55.2538C54.9122 55.0962 55 54.8824 55 54.6595V24.4006C54.9986 24.2719 54.9672 24.1452 54.9085 24.0309C54.8497 23.9166 54.7652 23.8178 54.6617 23.7425ZM49.1667 21.6269L52.825 24.4258L49.1667 27.4811V21.6269ZM29.5 7.34974C29.6441 7.23695 29.8213 7.17572 30.0037 7.17572C30.1862 7.17572 30.3634 7.23695 30.5075 7.34974L35.2133 10.9522H24.7867L29.5 7.34974ZM12.5 12.6333H47.5V28.8722L36.0417 38.4374L31.6017 34.7323C31.1536 34.3528 30.5872 34.1448 30.0021 34.1448C29.417 34.1448 28.8506 34.3528 28.4025 34.7323L23.9583 38.4374L12.5 28.8722V12.6333ZM7.175 24.4292L10.8333 21.6269V27.4778L7.175 24.4292ZM6.66667 26.1867L22.6508 39.53L6.66667 52.8725V26.1867ZM8.1475 53.819L29.4692 36.0217C29.6188 35.8955 29.8078 35.8266 30.0028 35.8274C30.1979 35.8282 30.3864 35.8985 30.535 36.0259L51.8525 53.819H8.1475ZM53.3333 52.8725L37.3492 39.53L53.3333 26.1867V52.8725Z" fill="url(#paint0_linear_1044_57150)"/>
<path d="M30 31.1255H34.1667C34.3877 31.1255 34.5996 31.037 34.7559 30.8793C34.9122 30.7217 35 30.5079 35 30.285C35 30.0621 34.9122 29.8483 34.7559 29.6907C34.5996 29.533 34.3877 29.4445 34.1667 29.4445H30C28.4529 29.4445 26.9692 28.8246 25.8752 27.7212C24.7812 26.6178 24.1667 25.1213 24.1667 23.5608C24.1667 22.0004 24.7812 20.5038 25.8752 19.4004C26.9692 18.297 28.4529 17.6771 30 17.6771H31.6667C32.7713 17.6785 33.8304 18.1217 34.6115 18.9095C35.3926 19.6974 35.832 20.7656 35.8333 21.8798V25.2419C35.8333 25.4648 35.7455 25.6786 35.5893 25.8362C35.433 25.9938 35.221 26.0824 35 26.0824C34.779 26.0824 34.567 25.9938 34.4107 25.8362C34.2545 25.6786 34.1667 25.4648 34.1667 25.2419V21.8798C34.1667 21.211 33.9033 20.5696 33.4344 20.0967C32.9656 19.6239 32.3297 19.3582 31.6667 19.3582H30C29.317 19.3562 28.644 19.5236 28.0403 19.8457C27.4366 20.1677 26.9205 20.6345 26.5377 21.205C26.1548 21.7754 25.9169 22.4321 25.8448 23.1171C25.7727 23.8021 25.8686 24.4945 26.1242 25.1333C26.3797 25.7722 26.7871 26.3378 27.3103 26.7806C27.8336 27.2233 28.4567 27.5295 29.1249 27.6722C29.793 27.8149 30.4857 27.7898 31.142 27.5991C31.7982 27.4083 32.398 27.0578 32.8883 26.5783C33.1754 27.0423 33.6046 27.3993 34.1108 27.5954C34.617 27.7914 35.1728 27.8157 35.694 27.6647C36.2152 27.5137 36.6734 27.1955 36.9992 26.7583C37.3251 26.3211 37.5009 25.7888 37.5 25.2419V21.8798C37.4982 20.3199 36.8831 18.8244 35.7895 17.7213C34.6959 16.6183 33.2132 15.9979 31.6667 15.9961H30C28.0109 15.9961 26.1032 16.7931 24.6967 18.2117C23.2902 19.6304 22.5 21.5545 22.5 23.5608C22.5 25.5671 23.2902 27.4912 24.6967 28.9099C26.1032 30.3285 28.0109 31.1255 30 31.1255ZM30 26.0824C29.337 26.0824 28.7011 25.8167 28.2322 25.3438C27.7634 24.8709 27.5 24.2296 27.5 23.5608C27.5 22.892 27.7634 22.2507 28.2322 21.7778C28.7011 21.3049 29.337 21.0392 30 21.0392H31.6667C31.8877 21.0392 32.0996 21.1278 32.2559 21.2854C32.4122 21.443 32.5 21.6568 32.5 21.8798V23.5608C32.5 24.2296 32.2366 24.8709 31.7678 25.3438C31.2989 25.8167 30.663 26.0824 30 26.0824Z" fill="url(#paint1_linear_1044_57150)"/>
<defs>
<linearGradient id="paint0_linear_1044_57150" x1="30" y1="60.2523" x2="30" y2="5.56615" gradientUnits="userSpaceOnUse">
<stop stop-color="#0B2C4C"/>
<stop offset="0.5" stop-color="#00A99D"/>
<stop offset="1" stop-color="#81319B"/>
</linearGradient>
<linearGradient id="paint1_linear_1044_57150" x1="30" y1="60.253" x2="30" y2="5.56687" gradientUnits="userSpaceOnUse">
<stop stop-color="#0B2C4C"/>
<stop offset="0.5" stop-color="#00A99D"/>
<stop offset="1" stop-color="#81319B"/>
</linearGradient>
</defs>
</svg>
