<svg width="50" height="50" viewBox="0 0 50 50" fill="none" xmlns="http://www.w3.org/2000/svg">
<path d="M8.33333 45.8333V24.1667C8.33409 23.5039 8.59772 22.8684 9.0664 22.3997C9.53508 21.9311 10.1705 21.6674 10.8333 21.6667H44.1667C44.8295 21.6674 45.4649 21.9311 45.9336 22.3997C46.4023 22.8684 46.6659 23.5039 46.6667 24.1667V29.1667H48.3333V24.1667C48.3321 23.062 47.8927 22.0029 47.1116 21.2218C46.3304 20.4406 45.2713 20.0013 44.1667 20V7.35703C44.1675 7.02859 44.1033 6.70323 43.9776 6.39979C43.8519 6.09635 43.6673 5.82086 43.4344 5.58925L38.5774 0.732279C38.3458 0.499397 38.0703 0.314766 37.7669 0.189071C37.4634 0.063377 37.1381 -0.000883534 36.8096 9.17491e-06H11.6667C11.0039 0.000767341 10.3684 0.264403 9.89973 0.733079C9.43106 1.20176 9.16742 1.8372 9.16666 2.50001V12.5H4.16667C3.06198 12.5013 2.0029 12.9406 1.22176 13.7218C0.440633 14.5029 0.00124646 15.562 0 16.6667V45.8333C0.00124646 46.938 0.440633 47.9971 1.22176 48.7782C2.0029 49.5594 3.06198 49.9988 4.16667 50H36.6667V48.3333H7.49772C8.04088 47.6131 8.33426 46.7354 8.33333 45.8333ZM37.5 2.01183L41.3215 5.83334H38.3333C38.1124 5.83309 37.9006 5.74521 37.7443 5.58898C37.5881 5.43276 37.5002 5.22094 37.5 5.00001V2.01183ZM37.5 18.3333H40.8333V16.6667H37.5V14.1667H40.8333V12.5H37.5V7.35666C37.7676 7.45164 38.0494 7.50013 38.3333 7.50001H42.5V20H37.5V18.3333ZM35.8333 1.66668V4.65485L32.8451 1.66668H35.8333ZM30.8333 2.01183L34.6548 5.83334H31.6667C31.4457 5.83309 31.2339 5.74521 31.0777 5.58898C30.9215 5.43276 30.8336 5.22094 30.8333 5.00001V2.01183ZM10.8333 2.50001C10.8336 2.27907 10.9215 2.06726 11.0777 1.91103C11.2339 1.75481 11.4457 1.66693 11.6667 1.66668H29.1667V5.00001C29.1674 5.66282 29.431 6.29828 29.8997 6.76696C30.3684 7.23564 31.0038 7.49927 31.6667 7.50001H35.8333V20H10.8333V2.50001ZM6.66667 45.8333C6.66667 46.4964 6.40327 47.1323 5.93443 47.6011C5.46559 48.0699 4.82971 48.3333 4.16667 48.3333C3.50362 48.3333 2.86774 48.0699 2.3989 47.6011C1.93006 47.1323 1.66667 46.4964 1.66667 45.8333V16.6667C1.66742 16.0039 1.93106 15.3684 2.39974 14.8997C2.86841 14.4311 3.50386 14.1674 4.16667 14.1667H9.16666V20.349C8.4242 20.6737 7.79239 21.2077 7.34843 21.8857C6.90446 22.5637 6.66756 23.3563 6.66667 24.1667V45.8333Z" fill="url(#paint0_linear_77956_46962)"/>
<path d="M46.6665 38.5289V34.8051L44.1384 34.1989L43.696 33.1314L45.0589 30.9074L42.4263 28.2746L40.2021 29.6375L39.1347 29.1952L38.5284 26.667H34.8046L34.1984 29.1951L33.1309 29.6375L30.9069 28.2746L28.2741 30.9073L29.637 33.1314L29.1947 34.1989L26.6665 34.8051V38.5289L29.1946 39.1351L29.637 40.2025L28.2741 42.4266L30.9068 45.0594L33.1309 43.6965L34.1984 44.1388L34.8046 46.667H38.5284L39.1346 44.1389L40.2021 43.6965L42.4262 45.0594L45.0589 42.4267L43.696 40.2026L44.1384 39.1351L46.6665 38.5289ZM42.9514 42.1772L42.1768 42.9519L40.3487 41.8317L37.7119 42.9243L37.2141 45.0003H36.1189L35.6211 42.9243L32.9844 41.8316L31.1563 42.9518L30.3816 42.1772L31.5018 40.3491L30.4092 37.7124L28.3332 37.2146V36.1194L30.4092 35.6216L31.5019 32.9848L30.3817 31.1567L31.1563 30.3821L32.9843 31.5023L35.6211 30.4097L36.1189 28.3337H37.2141L37.7119 30.4097L40.3487 31.5023L42.1768 30.3822L42.9514 31.1568L41.8312 32.9848L42.9238 35.6216L44.9998 36.1194V37.2146L42.9238 37.7124L41.8312 40.3491L42.9514 42.1772Z" fill="url(#paint1_linear_77956_46962)"/>
<path d="M36.6667 32.5C35.8426 32.5 35.037 32.7444 34.3518 33.2022C33.6666 33.66 33.1325 34.3108 32.8172 35.0722C32.5018 35.8335 32.4193 36.6713 32.5801 37.4795C32.7408 38.2878 33.1377 39.0302 33.7204 39.6129C34.3031 40.1957 35.0455 40.5925 35.8538 40.7533C36.662 40.914 37.4998 40.8315 38.2612 40.5162C39.0225 40.2008 39.6733 39.6667 40.1311 38.9815C40.589 38.2963 40.8333 37.4908 40.8333 36.6667C40.8321 35.562 40.3927 34.5029 39.6116 33.7218C38.8304 32.9406 37.7714 32.5012 36.6667 32.5ZM36.6667 39.1667C36.1722 39.1667 35.6889 39.02 35.2777 38.7453C34.8666 38.4706 34.5462 38.0802 34.357 37.6234C34.1678 37.1666 34.1182 36.6639 34.2147 36.1789C34.3112 35.694 34.5493 35.2485 34.8989 34.8989C35.2485 34.5493 35.694 34.3112 36.1789 34.2147C36.6639 34.1182 37.1666 34.1677 37.6234 34.357C38.0802 34.5462 38.4706 34.8666 38.7453 35.2777C39.02 35.6889 39.1667 36.1722 39.1667 36.6667C39.1659 37.3295 38.9023 37.9649 38.4336 38.4336C37.9649 38.9023 37.3295 39.1659 36.6667 39.1667Z" fill="url(#paint2_linear_77956_46962)"/>
<path d="M12.5 8.33301H29.1667V9.99967H12.5V8.33301Z" fill="url(#paint3_linear_77956_46962)"/>
<path d="M12.5 12.5H34.1667V14.1667H12.5V12.5Z" fill="url(#paint4_linear_77956_46962)"/>
<path d="M12.5 16.667H34.1667V18.3337H12.5V16.667Z" fill="url(#paint5_linear_77956_46962)"/>
<path d="M32.0005 25.9707L31.3332 24.4434C28.0931 25.8601 25.5477 28.5047 24.2559 31.7965C22.9641 35.0884 23.0315 38.7583 24.4433 42.0005L25.9706 41.3333C24.7357 38.4962 24.6771 35.285 25.8077 32.4047C26.9382 29.5244 29.1655 27.2104 32.0005 25.9707Z" fill="url(#paint6_linear_77956_46962)"/>
<path d="M35.11 25.1033L34.89 23.4512C34.2896 23.5313 33.6955 23.6522 33.1116 23.8132L33.5551 25.4197C34.0656 25.279 34.5851 25.1733 35.11 25.1033Z" fill="url(#paint7_linear_77956_46962)"/>
<path d="M48.8902 31.333L47.3629 32.0003C48.5978 34.8375 48.6564 38.0487 47.5258 40.929C46.3953 43.8093 44.168 46.1233 41.333 47.3629L42.0003 48.8902C45.2404 47.4735 47.7858 44.8289 49.0776 41.537C50.3694 38.2452 50.302 34.5752 48.8902 31.333Z" fill="url(#paint8_linear_77956_46962)"/>
<path d="M38.2231 48.2306L38.4434 49.8826C39.0437 49.8025 39.6378 49.6816 40.2217 49.5206L39.7782 47.9141C39.2676 48.0548 38.7481 48.1605 38.2231 48.2306Z" fill="url(#paint9_linear_77956_46962)"/>
<path d="M12.5 4.16699H27.5V5.83366H12.5V4.16699Z" fill="#00A99D"/>
<defs>
<linearGradient id="paint0_linear_77956_46962" x1="24.1667" y1="-1.33832" x2="24.1667" y2="49.2034" gradientUnits="userSpaceOnUse">
<stop stop-color="#2AB793"/>
<stop offset="1" stop-color="#2C98B5"/>
</linearGradient>
<linearGradient id="paint1_linear_77956_46962" x1="36.6666" y1="-1.338" x2="36.6666" y2="49.2038" gradientUnits="userSpaceOnUse">
<stop stop-color="#2AB793"/>
<stop offset="1" stop-color="#2C98B5"/>
</linearGradient>
<linearGradient id="paint2_linear_77956_46962" x1="36.6667" y1="-1.33832" x2="36.6667" y2="49.2034" gradientUnits="userSpaceOnUse">
<stop stop-color="#2AB793"/>
<stop offset="1" stop-color="#2C98B5"/>
</linearGradient>
<linearGradient id="paint3_linear_77956_46962" x1="20.8333" y1="-1.33866" x2="20.8333" y2="49.2031" gradientUnits="userSpaceOnUse">
<stop stop-color="#2AB793"/>
<stop offset="1" stop-color="#2C98B5"/>
</linearGradient>
<linearGradient id="paint4_linear_77956_46962" x1="23.3333" y1="-1.33833" x2="23.3333" y2="49.2034" gradientUnits="userSpaceOnUse">
<stop stop-color="#2AB793"/>
<stop offset="1" stop-color="#2C98B5"/>
</linearGradient>
<linearGradient id="paint5_linear_77956_46962" x1="23.3333" y1="-1.33801" x2="23.3333" y2="49.2038" gradientUnits="userSpaceOnUse">
<stop stop-color="#2AB793"/>
<stop offset="1" stop-color="#2C98B5"/>
</linearGradient>
<linearGradient id="paint6_linear_77956_46962" x1="27.667" y1="-1.33808" x2="27.667" y2="49.2037" gradientUnits="userSpaceOnUse">
<stop stop-color="#2AB793"/>
<stop offset="1" stop-color="#2C98B5"/>
</linearGradient>
<linearGradient id="paint7_linear_77956_46962" x1="34.1108" y1="-1.33793" x2="34.1108" y2="49.2038" gradientUnits="userSpaceOnUse">
<stop stop-color="#2AB793"/>
<stop offset="1" stop-color="#2C98B5"/>
</linearGradient>
<linearGradient id="paint8_linear_77956_46962" x1="45.6665" y1="-1.33833" x2="45.6665" y2="49.2034" gradientUnits="userSpaceOnUse">
<stop stop-color="#2AB793"/>
<stop offset="1" stop-color="#2C98B5"/>
</linearGradient>
<linearGradient id="paint9_linear_77956_46962" x1="39.2224" y1="-1.33828" x2="39.2224" y2="49.2035" gradientUnits="userSpaceOnUse">
<stop stop-color="#2AB793"/>
<stop offset="1" stop-color="#2C98B5"/>
</linearGradient>
</defs>
</svg>
