<svg width="31" height="33" viewBox="0 0 31 33" fill="none" xmlns="http://www.w3.org/2000/svg">
<path d="M19.0769 19.7821C19.0769 20.9127 18.1851 21.8333 17.0897 21.8333H16.2949V17.7308H17.0897C18.1851 17.7308 19.0769 18.6514 19.0769 19.7821ZM31 16.5C31 25.3222 24.0465 32.5 15.5 32.5C6.95354 32.5 0 25.3222 0 16.5C0 7.67785 6.95354 0.5 15.5 0.5C24.0465 0.5 31 7.67785 31 16.5ZM21.4615 19.7821C21.4615 17.2926 19.5014 15.2692 17.0897 15.2692H16.2949V11.1667H18.6795C19.3376 11.1667 19.8718 10.6153 19.8718 9.9359C19.8718 9.25651 19.3376 8.70513 18.6795 8.70513H16.2949V7.47436C16.2949 7.02144 15.9388 6.65385 15.5 6.65385C15.0612 6.65385 14.7051 7.02144 14.7051 7.47436V8.70513H13.9103C11.4986 8.70513 9.53846 10.7285 9.53846 13.2179C9.53846 15.7074 11.4986 17.7308 13.9103 17.7308H14.7051V21.8333H12.3205C11.6624 21.8333 11.1282 22.3847 11.1282 23.0641C11.1282 23.7435 11.6624 24.2949 12.3205 24.2949H14.7051V25.5256C14.7051 25.9786 15.0612 26.3462 15.5 26.3462C15.9388 26.3462 16.2949 25.9786 16.2949 25.5256V24.2949H17.0897C19.5014 24.2949 21.4615 22.2715 21.4615 19.7821ZM13.9103 11.1667C12.8149 11.1667 11.9231 12.0873 11.9231 13.2179C11.9231 14.3486 12.8149 15.2692 13.9103 15.2692H14.7051V11.1667H13.9103Z" fill="url(#paint0_linear_1747_14713)"/>
<defs>
<linearGradient id="paint0_linear_1747_14713" x1="15.8028" y1="32.3184" x2="14.7158" y2="0.718982" gradientUnits="userSpaceOnUse">
<stop stop-color="#81319B" stop-opacity="0.81"/>
<stop offset="1" stop-color="#00A99D" stop-opacity="0.58"/>
</linearGradient>
</defs>
</svg>
