<svg width="24" height="31" viewBox="0 0 24 31" fill="none" xmlns="http://www.w3.org/2000/svg">
<g clip-path="url(#clip0_196_12753)">
<path d="M3.33594 11.3183C3.33594 16.2466 7.3456 20.2563 12.2739 20.2563C17.2022 20.2563 21.2119 16.2466 21.2119 11.3183C21.2119 6.39003 17.2022 2.38037 12.2739 2.38037C7.3456 2.38037 3.33594 6.39003 3.33594 11.3183ZM12.2739 3.57634C16.5436 3.57634 20.0159 7.04868 20.0159 11.3183C20.0159 15.588 16.5436 19.0603 12.2739 19.0603C8.00425 19.0603 4.5319 15.588 4.5319 11.3183C4.5319 7.04868 8.00425 3.57634 12.2739 3.57634Z" fill="white"/>
<path d="M6.75622 10.2555L9.06726 12.5318L8.53572 15.7269C8.50105 15.9522 8.5935 16.1717 8.7726 16.3046C8.95749 16.4375 9.19437 16.4548 9.39658 16.3508L12.2738 14.8544L15.1511 16.3508C15.3475 16.4548 15.5902 16.4375 15.7751 16.3046C15.9599 16.1717 16.0524 15.9464 16.0119 15.7269L15.4804 12.5318L17.7914 10.2555C17.9532 10.0995 18.011 9.86259 17.9417 9.64881C17.8723 9.43504 17.6875 9.27905 17.4621 9.24438L14.2556 8.76484L12.8054 5.86448C12.7072 5.66226 12.4992 5.53516 12.2738 5.53516C12.0485 5.53516 11.8405 5.66226 11.7423 5.86448L10.2921 8.76484L7.08554 9.24438C6.86021 9.27905 6.67533 9.43504 6.606 9.64881C6.53667 9.86259 6.59444 10.0995 6.75622 10.2555ZM10.7774 9.89147C10.9681 9.86259 11.1356 9.74126 11.2223 9.56793L12.2796 7.4591L13.3369 9.56793C13.4236 9.74126 13.5911 9.86259 13.7818 9.89147L16.1159 10.2439L14.4347 11.9021C14.296 12.0407 14.2324 12.2314 14.2671 12.4221L14.6542 14.7504L12.5627 13.6643C12.476 13.618 12.3836 13.5949 12.2912 13.5949C12.1987 13.5949 12.1005 13.618 12.0138 13.6643L9.92235 14.7504L10.3094 12.4221C10.3441 12.2314 10.2806 12.035 10.1419 11.9021L8.46061 10.2439L10.7948 9.89147H10.7774Z" fill="white"/>
<path d="M12.8689 0.595094C12.8689 0.924417 12.6031 1.19019 12.2738 1.19019C11.9445 1.19019 11.6787 0.924417 11.6787 0.595094C11.6787 0.26577 11.9445 0 12.2738 0C12.6031 0 12.8689 0.26577 12.8689 0.595094Z" fill="white"/>
<path d="M9.4655 0.352563C4.45631 1.62941 0.955078 6.14173 0.955078 11.3185C0.955078 14.5366 2.30704 17.5641 4.68164 19.7133L1.09374 26.0398C0.978189 26.242 0.995521 26.4962 1.12841 26.6869C1.26707 26.8776 1.50395 26.9642 1.72928 26.918L5.80249 26.0745L7.23534 30.113C7.31045 30.3326 7.51266 30.4886 7.74377 30.5059C7.97487 30.5232 8.2002 30.4077 8.31575 30.2055L12.2734 23.255L16.2311 30.2055C16.3351 30.3904 16.5373 30.5059 16.7511 30.5059C16.7684 30.5059 16.7857 30.5059 16.8031 30.5059C17.0342 30.4828 17.2364 30.3326 17.3115 30.113L18.7443 26.0745L22.8176 26.918C23.0487 26.9642 23.2798 26.8718 23.4184 26.6869C23.5571 26.4962 23.5686 26.2478 23.4531 26.0398L19.8652 19.7133C22.2398 17.5698 23.5918 14.5366 23.5918 11.3185C23.5918 6.14173 20.0905 1.62941 15.0813 0.352563C14.7636 0.271676 14.44 0.462337 14.3591 0.780106C14.2782 1.09787 14.4689 1.42142 14.7867 1.50231C19.2701 2.64627 22.4016 6.68482 22.4016 11.3127C22.4016 16.9516 17.8199 21.4408 12.2734 21.4408C6.72691 21.4408 2.14527 16.9516 2.14527 11.3185C2.14527 6.68482 5.27673 2.65205 9.76015 1.50808C10.0779 1.4272 10.2686 1.10365 10.1877 0.785884C10.1068 0.468115 9.78327 0.277454 9.4655 0.35834V0.352563ZM7.92865 28.478L6.7558 25.179C6.65758 24.8959 6.36292 24.7341 6.07404 24.7976L2.7808 25.4794L5.62339 20.476C7.28156 21.6777 9.24017 22.4115 11.2797 22.5964L7.93443 28.4837L7.92865 28.478ZM18.4728 24.7976C18.1839 24.7399 17.8893 24.9016 17.791 25.179L16.6182 28.478L13.2729 22.5906C15.3124 22.4115 17.271 21.6777 18.9292 20.4702L21.7718 25.4736L18.4786 24.7919L18.4728 24.7976Z" fill="white"/>
</g>
<defs>
<clipPath id="clip0_196_12753">
<rect width="22.6367" height="30.5" fill="white" transform="translate(0.955078)"/>
</clipPath>
</defs>
</svg>
