<svg width="12" height="29" viewBox="0 0 12 29" fill="none" xmlns="http://www.w3.org/2000/svg">
<path d="M9.32939 7.32959H2.7363C1.50025 7.33109 0.498567 8.33277 0.49707 9.56882V17.7032C0.49707 18.1388 0.850219 18.4919 1.28579 18.4919C1.72142 18.4919 2.07452 18.1387 2.07452 17.7032V11.0414C2.07452 10.7994 2.27068 10.6033 2.51264 10.6033C2.75459 10.6033 2.95076 10.7994 2.95076 11.0414V26.9823C2.97598 27.7119 3.58794 28.283 4.31757 28.2578C5.01184 28.2338 5.56908 27.6766 5.59308 26.9823V17.8783C5.59308 17.6363 5.78925 17.4401 6.03121 17.4401C6.27316 17.4401 6.46933 17.6363 6.46933 17.8783V26.9823C6.49455 27.712 7.10651 28.283 7.83614 28.2579C8.53041 28.2339 9.08765 27.6766 9.11166 26.9823V11.0414C9.11166 10.7994 9.30782 10.6033 9.54978 10.6033C9.79173 10.6033 9.9879 10.7994 9.9879 11.0414V17.7031C9.9879 18.1387 10.3411 18.4918 10.7766 18.4918C11.2123 18.4918 11.5653 18.1387 11.5653 17.7031V9.56921C11.5642 8.33421 10.5644 7.33286 9.32939 7.32959Z" fill="#0B2C4C"/>
<path d="M7.79136 28.5001C6.95298 28.4992 6.27351 27.8198 6.27262 26.9814V17.8773C6.27262 17.7441 6.16464 17.6362 6.03144 17.6362C5.89824 17.6362 5.79026 17.7441 5.79026 17.8773V26.9814C5.77114 27.82 5.07587 28.4843 4.23732 28.4651C3.42565 28.4466 2.77207 27.793 2.75361 26.9814V11.0405C2.75361 10.9074 2.64574 10.7995 2.51265 10.7995C2.37956 10.7995 2.27169 10.9074 2.27169 11.0405V17.7022C2.27169 18.2467 1.8303 18.6881 1.28575 18.6881C0.741199 18.6881 0.299805 18.2467 0.299805 17.7022V9.56829C0.301301 8.22332 1.39129 7.13339 2.73626 7.13184H9.32818C10.6731 7.13333 11.7631 8.22332 11.7646 9.56829V17.7022C11.7646 18.2467 11.3232 18.6882 10.7787 18.6882C10.2341 18.6882 9.79274 18.2468 9.79274 17.7022V11.0405C9.79274 10.9074 9.68487 10.7995 9.55179 10.7995C9.4187 10.7995 9.31083 10.9074 9.31083 11.0405V26.9814C9.30983 27.82 8.63003 28.4995 7.79136 28.5001ZM6.03166 17.242C6.38237 17.2424 6.66657 17.5266 6.66701 17.8773V26.9814C6.68347 27.6022 7.19997 28.092 7.82074 28.0756C8.41834 28.0598 8.89909 27.5791 8.91494 26.9814V11.0405C8.91494 10.6896 9.19941 10.4051 9.55029 10.4051C9.90116 10.4051 10.1856 10.6896 10.1856 11.0405V17.7022C10.1856 18.0289 10.4505 18.2937 10.7772 18.2937C11.1039 18.2937 11.3687 18.0289 11.3687 17.7022V9.56829C11.3674 8.44105 10.4539 7.52756 9.32668 7.52622H2.73515C1.60791 7.52756 0.694415 8.44105 0.693085 9.56829V17.7022C0.693085 18.0289 0.957932 18.2938 1.28464 18.2938C1.61135 18.2938 1.8762 18.0289 1.8762 17.7022V11.0405C1.8762 10.6896 2.16067 10.4051 2.51154 10.4051C2.86242 10.4051 3.14689 10.6896 3.14689 11.0405V26.9814C3.16335 27.6021 3.67985 28.092 4.30062 28.0756C4.89822 28.0597 5.37897 27.579 5.39482 26.9814V17.8773C5.39521 17.526 5.68034 17.2415 6.03166 17.242Z" fill="#0B2C4C"/>
<path d="M6.03221 5.83639C7.45121 5.83639 8.60153 4.68607 8.60153 3.26707C8.60153 1.84808 7.45121 0.697754 6.03221 0.697754C4.61321 0.697754 3.46289 1.84808 3.46289 3.26707C3.46289 4.68607 4.61321 5.83639 6.03221 5.83639Z" fill="#0B2C4C"/>
<path d="M6.03217 6.03308C4.50428 6.03308 3.26562 4.79449 3.26562 3.26654C3.26562 1.73865 4.50422 0.5 6.03217 0.5C7.55995 0.5 8.79849 1.73838 8.79871 3.2661C8.79721 4.79354 7.55956 6.03137 6.03217 6.03308ZM6.03217 0.894056C4.72206 0.894056 3.66001 1.95611 3.66001 3.26621C3.66001 4.57631 4.72206 5.63836 6.03217 5.63836C7.34227 5.63836 8.40432 4.57631 8.40432 3.26621C8.40282 1.95672 7.34166 0.895553 6.03217 0.894056Z" fill="#0B2C4C"/>
</svg>
