<svg width="28" height="28" viewBox="0 0 28 28" fill="none" xmlns="http://www.w3.org/2000/svg">
<path fill-rule="evenodd" clip-rule="evenodd" d="M4 7.33333C4 6.97971 4.15051 6.64057 4.41842 6.39052C4.68633 6.14048 5.04969 6 5.42857 6H22.5714C22.9503 6 23.3137 6.14048 23.5816 6.39052C23.8495 6.64057 24 6.97971 24 7.33333C24 7.68696 23.8495 8.02609 23.5816 8.27614C23.3137 8.52619 22.9503 8.66667 22.5714 8.66667H5.42857C5.04969 8.66667 4.68633 8.52619 4.41842 8.27614C4.15051 8.02609 4 7.68696 4 7.33333ZM4 14C4 13.6464 4.15051 13.3072 4.41842 13.0572C4.68633 12.8071 5.04969 12.6667 5.42857 12.6667H22.5714C22.9503 12.6667 23.3137 12.8071 23.5816 13.0572C23.8495 13.3072 24 13.6464 24 14C24 14.3536 23.8495 14.6928 23.5816 14.9428C23.3137 15.1929 22.9503 15.3333 22.5714 15.3333H5.42857C5.04969 15.3333 4.68633 15.1929 4.41842 14.9428C4.15051 14.6928 4 14.3536 4 14ZM4 20.6667C4 20.313 4.15051 19.9739 4.41842 19.7239C4.68633 19.4738 5.04969 19.3333 5.42857 19.3333H22.5714C22.9503 19.3333 23.3137 19.4738 23.5816 19.7239C23.8495 19.9739 24 20.313 24 20.6667C24 21.0203 23.8495 21.3594 23.5816 21.6095C23.3137 21.8595 22.9503 22 22.5714 22H5.42857C5.04969 22 4.68633 21.8595 4.41842 21.6095C4.15051 21.3594 4 21.0203 4 20.6667Z" fill="white"/>
</svg>
