<svg width="28" height="28" viewBox="0 0 28 28" fill="none" xmlns="http://www.w3.org/2000/svg">
<path fill-rule="evenodd" clip-rule="evenodd" d="M18.2617 11.2811L15.5549 13.3346C15.4656 13.4016 15.3569 13.4378 15.2452 13.4378C15.1336 13.4378 15.0249 13.4016 14.9356 13.3346L12.9284 11.826C12.7858 11.7194 12.6228 11.6434 12.4495 11.6028C12.2761 11.5622 12.0963 11.558 11.9212 11.5903C11.7462 11.6226 11.5797 11.6908 11.4323 11.7906C11.2848 11.8904 11.1597 12.0197 11.0646 12.1702L8.54131 16.1854C8.49866 16.2644 8.48331 16.3553 8.49768 16.444C8.51204 16.5326 8.5553 16.614 8.62073 16.6755C8.68615 16.737 8.77007 16.7752 8.85942 16.7841C8.94878 16.7929 9.03855 16.772 9.11478 16.7245L11.8216 14.6711C11.9105 14.6031 12.0193 14.5664 12.1313 14.5664C12.2432 14.5664 12.352 14.6031 12.4409 14.6711L14.4481 16.1739C14.5899 16.2813 14.7525 16.3579 14.9255 16.3989C15.0985 16.4399 15.2782 16.4443 15.4531 16.4119C15.6279 16.3796 15.7941 16.3111 15.941 16.2108C16.0879 16.1106 16.2123 15.9808 16.3062 15.8297L18.8295 11.8146C18.8681 11.7363 18.8805 11.6477 18.865 11.5618C18.8494 11.4759 18.8067 11.3973 18.7431 11.3375C18.6795 11.2778 18.5984 11.2401 18.5117 11.2299C18.4251 11.2197 18.3374 11.2377 18.2617 11.2811Z" fill="white"/>
<path fill-rule="evenodd" clip-rule="evenodd" d="M22.4425 0.399902H4.9572C3.66895 0.399902 2.43347 0.911747 1.52254 1.82287C0.611608 2.73399 0.0998535 3.96974 0.0998535 5.25826V22.7473C0.101373 24.0348 0.613785 25.2691 1.52455 26.1789C2.43531 27.0888 3.66995 27.5999 4.9572 27.5999H22.4425C23.7298 27.5999 24.9644 27.0888 25.8751 26.1789C26.7859 25.2691 27.2983 24.0348 27.2999 22.7473V5.25826C27.2999 3.96974 26.7881 2.73399 25.8772 1.82287C24.9662 0.911747 23.7308 0.399902 22.4425 0.399902ZM13.697 22.0704C12.858 22.0724 12.0227 21.9605 11.2138 21.7377C11.0614 21.6971 10.8997 21.7093 10.755 21.7721L9.03461 22.5293C8.93164 22.5743 8.81921 22.5934 8.70715 22.5849C8.59509 22.5765 8.48679 22.5407 8.39175 22.4807C8.2967 22.4207 8.2178 22.3384 8.16192 22.2409C8.10604 22.1434 8.07488 22.0336 8.07118 21.9213L8.02529 20.3898C8.02116 20.2974 7.99877 20.2067 7.9594 20.123C7.92002 20.0393 7.86445 19.9643 7.7959 19.9022C6.93289 19.1274 6.24582 18.1767 5.78089 17.1141C5.31597 16.0515 5.084 14.9016 5.10057 13.7418C5.10057 8.95795 8.84537 5.41314 13.7027 5.41314C18.5601 5.41314 22.3049 8.95795 22.3049 13.7418C22.3049 18.5256 18.5314 22.0704 13.697 22.0704Z" fill="white"/>
</svg>
