<svg width="22" height="22" viewBox="0 0 22 22" fill="none" xmlns="http://www.w3.org/2000/svg">
<path d="M14.2111 8.54643H7.31709C7.23213 8.54643 7.15066 8.51194 7.09059 8.45056C7.03052 8.38917 6.99677 8.30592 6.99677 8.21911C6.99677 8.1323 7.03052 8.04904 7.09059 7.98766C7.15066 7.92627 7.23213 7.89179 7.31709 7.89179H14.2111C14.296 7.89179 14.3775 7.92627 14.4376 7.98766C14.4977 8.04904 14.5314 8.1323 14.5314 8.21911C14.5314 8.30592 14.4977 8.38917 14.4376 8.45056C14.3775 8.51194 14.296 8.54643 14.2111 8.54643ZM14.1887 11.165C14.1887 11.122 14.1805 11.0794 14.1644 11.0397C14.1483 11 14.1247 10.9639 14.0949 10.9335C14.0652 10.9031 14.0299 10.879 13.991 10.8626C13.9521 10.8461 13.9105 10.8377 13.8684 10.8377H7.31787C7.23291 10.8377 7.15144 10.8722 7.09137 10.9335C7.0313 10.9949 6.99755 11.0782 6.99755 11.165C6.99755 11.2518 7.0313 11.3351 7.09137 11.3965C7.15144 11.4578 7.23291 11.4923 7.31787 11.4923H13.8684C13.9105 11.4923 13.9521 11.4839 13.991 11.4674C14.0299 11.451 14.0652 11.4269 14.0949 11.3965C14.1247 11.3661 14.1483 11.33 14.1644 11.2903C14.1805 11.2506 14.1887 11.208 14.1887 11.165ZM7.31787 14.4382H10.5755C10.6604 14.4382 10.7419 14.4037 10.802 14.3423C10.862 14.281 10.8958 14.1977 10.8958 14.1109C10.8958 14.0241 10.862 13.9408 10.802 13.8794C10.7419 13.8181 10.6604 13.7836 10.5755 13.7836H7.31787C7.23291 13.7836 7.15144 13.8181 7.09137 13.8794C7.0313 13.9408 6.99755 14.0241 6.99755 14.1109C6.99755 14.1977 7.0313 14.281 7.09137 14.3423C7.15144 14.4037 7.23291 14.4382 7.31787 14.4382ZM7.31787 17.3841H10.5787C10.6637 17.3841 10.7452 17.3496 10.8052 17.2882C10.8653 17.2269 10.8991 17.1436 10.8991 17.0568C10.8991 16.97 10.8653 16.8867 10.8052 16.8253C10.7452 16.764 10.6637 16.7295 10.5787 16.7295H7.31787C7.23291 16.7295 7.15144 16.764 7.09137 16.8253C7.0313 16.8867 6.99755 16.97 6.99755 17.0568C6.99755 17.1436 7.0313 17.2269 7.09137 17.2882C7.15144 17.3496 7.23291 17.3841 7.31787 17.3841ZM12.917 20.33H4.60158C4.17697 20.3295 3.76989 20.1569 3.46964 19.8501C3.1694 19.5433 3.0005 19.1273 3 18.6934V3.63661C3.0005 3.20271 3.1694 2.78673 3.46964 2.47992C3.76989 2.1731 4.17697 2.00051 4.60158 2H10.6876C10.8559 1.99989 11.0225 2.03375 11.1779 2.09965C11.3333 2.16555 11.4745 2.26217 11.5933 2.38398L15.4368 6.31161C15.5561 6.43298 15.6506 6.57722 15.7151 6.73605C15.7796 6.89489 15.8128 7.06518 15.8127 7.23714V10.6117C15.8127 10.6985 15.7789 10.7817 15.7189 10.8431C15.6588 10.9045 15.5773 10.939 15.4924 10.939C15.4074 10.939 15.3259 10.9045 15.2659 10.8431C15.2058 10.7817 15.172 10.6985 15.172 10.6117V7.23714C15.1718 7.0636 15.1042 6.89725 14.9841 6.77454C14.864 6.65183 14.7012 6.58277 14.5314 6.5825H12.9298C12.5052 6.58199 12.0981 6.4094 11.7979 6.10259C11.4976 5.79577 11.3287 5.37979 11.3282 4.94589V3.30929C11.328 3.13574 11.2604 2.96937 11.1403 2.84665C11.0202 2.72393 10.8574 2.65489 10.6876 2.65464H4.60159C4.34681 2.65493 4.10256 2.75848 3.9224 2.94257C3.74225 3.12666 3.64092 3.37626 3.64064 3.63661V18.6934C3.64092 18.9537 3.74225 19.2033 3.9224 19.3874C4.10256 19.5715 4.34681 19.6751 4.60159 19.6754H12.917C13.0009 19.6769 13.081 19.712 13.1398 19.7733C13.1986 19.8345 13.2316 19.9169 13.2316 20.0027C13.2316 20.0885 13.1987 20.1709 13.1398 20.2321C13.081 20.2933 13.001 20.3285 12.917 20.33ZM11.9689 4.94589C11.9691 5.20624 12.0705 5.45584 12.2506 5.63993C12.4308 5.82403 12.675 5.92757 12.9298 5.92786H14.1554L11.9689 3.6935L11.9689 4.94589ZM19.4182 17.7568L18.9789 18.5342C18.8969 18.6777 18.7628 18.7822 18.6057 18.8251C18.4486 18.868 18.2813 18.8457 18.1403 18.7631L18.0988 18.7388C17.6615 19.166 17.13 19.4794 16.5492 19.6527C16.5553 19.7389 16.5439 19.8256 16.5159 19.9072C16.4879 19.9888 16.4438 20.0637 16.3863 20.1272C16.3288 20.1907 16.2592 20.2415 16.1817 20.2764C16.1042 20.3112 16.0206 20.3295 15.9359 20.33H15.0569C14.8943 20.3298 14.7384 20.2637 14.6235 20.1462C14.5085 20.0286 14.4438 19.8693 14.4437 19.7032V19.6527C13.8627 19.4795 13.3311 19.1659 12.8938 18.7385L12.8607 18.758C12.7907 18.8002 12.7133 18.8279 12.6329 18.8395C12.5524 18.8511 12.4705 18.8464 12.3919 18.8256C12.3132 18.8048 12.2394 18.7684 12.1745 18.7184C12.1096 18.6684 12.0551 18.6058 12.0139 18.5342L11.5746 17.7568C11.533 17.6816 11.5068 17.5985 11.4978 17.5126C11.4888 17.4267 11.4971 17.3398 11.5221 17.2572C11.5471 17.1747 11.5884 17.0983 11.6434 17.0326C11.6984 16.967 11.7659 16.9135 11.8419 16.8755C11.698 16.2748 11.698 15.6475 11.8419 15.0468C11.7658 15.0091 11.698 14.9558 11.6429 14.8902C11.5878 14.8246 11.5464 14.7481 11.5213 14.6656C11.4963 14.583 11.4881 14.496 11.4972 14.4101C11.5064 14.3241 11.5327 14.241 11.5746 14.1659L12.0139 13.3885C12.0568 13.3141 12.1141 13.2494 12.1824 13.1984C12.2506 13.1474 12.3283 13.1113 12.4108 13.0921C12.4932 13.0729 12.5786 13.0712 12.6617 13.087C12.7448 13.1028 12.8238 13.1358 12.894 13.1839C13.3314 12.7567 13.8629 12.4433 14.4437 12.27V12.2192C14.4439 12.0531 14.5085 11.8938 14.6235 11.7764C14.7385 11.6589 14.8943 11.5928 15.0569 11.5927H15.9359C16.0985 11.5928 16.2544 11.6589 16.3693 11.7763C16.4843 11.8938 16.549 12.0531 16.5492 12.2192V12.27C17.13 12.4431 17.6615 12.7566 18.0987 13.1839C18.169 13.136 18.2481 13.1032 18.3312 13.0876C18.4143 13.072 18.4996 13.0738 18.582 13.093C18.6644 13.1121 18.7421 13.1483 18.8104 13.1991C18.8786 13.25 18.936 13.3145 18.9791 13.3888L19.4183 14.1659C19.4993 14.3099 19.5211 14.4808 19.4791 14.6413C19.437 14.8017 19.3344 14.9386 19.1938 15.0219L19.151 15.0468C19.295 15.6475 19.295 16.2749 19.151 16.8756C19.2269 16.9135 19.2945 16.967 19.3495 17.0326C19.4045 17.0983 19.4457 17.1747 19.4708 17.2572C19.4958 17.3398 19.5041 17.4267 19.495 17.5126C19.486 17.5985 19.4599 17.6816 19.4182 17.7568ZM18.8129 14.4906L18.8411 14.4739C18.8523 14.4671 18.8495 14.4694 18.8492 14.4682C18.8343 14.4433 18.4358 13.7338 18.4371 13.7405C18.3117 13.8246 18.1607 13.8596 18.012 13.8393C17.8633 13.8189 17.7267 13.7444 17.6274 13.6295C17.2582 13.2781 16.8117 13.0227 16.3255 12.8849C16.204 12.8428 16.0984 12.7629 16.0237 12.6564C15.9489 12.5498 15.9087 12.4221 15.9086 12.291V12.2574C15.9084 12.244 15.9089 12.2476 15.9078 12.2473C15.8792 12.2481 15.0778 12.2459 15.0843 12.2481C15.0931 12.4012 15.0475 12.5524 14.956 12.6739C14.8644 12.7955 14.733 12.8792 14.5859 12.9097C14.1024 13.061 13.6617 13.3291 13.3012 13.6914C13.1984 13.7804 13.0703 13.8332 12.9359 13.8421C12.8014 13.8509 12.6678 13.8153 12.5547 13.7404C12.5411 13.7661 12.1388 14.4739 12.1439 14.4693C12.1665 14.483 12.1864 14.4937 12.2039 14.5054C12.7408 14.8578 12.3078 15.5114 12.3753 16.0274C12.3805 16.2765 12.4139 16.5243 12.4748 16.7656C12.4996 16.9016 12.4807 17.0421 12.421 17.1662C12.3614 17.2903 12.2641 17.3914 12.1436 17.4545C12.1585 17.4794 12.5571 18.1889 12.5557 18.1822C12.583 18.1656 12.5948 18.1592 12.6175 18.1466C12.7404 18.083 12.8806 18.0628 13.016 18.0893C13.1513 18.1159 13.2743 18.1876 13.3654 18.2932C13.7346 18.6446 14.1812 18.9 14.6674 19.0378C14.7957 19.0825 14.9061 19.1692 14.9815 19.2844C15.0568 19.3997 15.093 19.537 15.0843 19.6754H15.9086V19.6309C15.9085 19.4952 15.9516 19.3632 16.0314 19.2548C16.1112 19.1463 16.2233 19.0673 16.3509 19.0297C16.8469 18.8855 17.3002 18.6181 17.6705 18.2513C17.7726 18.154 17.9036 18.0943 18.0426 18.0817C18.1817 18.0692 18.3209 18.1044 18.4382 18.1819C18.4518 18.1563 18.854 17.4488 18.849 17.4534C18.2307 17.1285 18.6812 16.4276 18.6178 15.8954C18.6379 15.4157 18.2804 14.7927 18.8129 14.4906ZM17.7813 15.9614C17.7813 16.4231 17.6473 16.8746 17.3962 17.2585C17.1451 17.6425 16.7882 17.9417 16.3707 18.1184C15.9532 18.2951 15.4938 18.3413 15.0506 18.2512C14.6073 18.1611 14.2002 17.9387 13.8807 17.6122C13.5612 17.2856 13.3436 16.8696 13.2554 16.4166C13.1673 15.9637 13.2125 15.4943 13.3855 15.0676C13.5584 14.641 13.8513 14.2764 14.227 14.0198C14.6028 13.7632 15.0445 13.6263 15.4964 13.6263C16.1022 13.627 16.683 13.8733 17.1114 14.311C17.5397 14.7488 17.7807 15.3423 17.7813 15.9614ZM17.1407 15.9614C17.1407 15.629 17.0443 15.3042 16.8637 15.0278C16.683 14.7515 16.4262 14.5361 16.1258 14.4089C15.8253 14.2817 15.4947 14.2484 15.1757 14.3132C14.8568 14.378 14.5638 14.5381 14.3338 14.773C14.1038 15.008 13.9472 15.3074 13.8838 15.6333C13.8203 15.9593 13.8528 16.2971 13.9773 16.6042C14.1017 16.9112 14.3125 17.1736 14.5829 17.3583C14.8533 17.5429 15.1712 17.6414 15.4964 17.6414C15.9323 17.6409 16.3503 17.4638 16.6585 17.1488C16.9668 16.8338 17.1402 16.4068 17.1407 15.9614ZM6.42965 7.44205C6.39991 7.41164 6.3646 7.38753 6.32575 7.37107C6.28689 7.35462 6.24524 7.34615 6.20317 7.34615C6.16111 7.34615 6.11946 7.35462 6.0806 7.37107C6.04174 7.38753 6.00643 7.41164 5.9767 7.44205L5.1354 8.30192L4.82806 7.98769C4.79839 7.95698 4.76307 7.93258 4.72413 7.91588C4.68519 7.89917 4.64341 7.8905 4.60118 7.89037C4.55895 7.89023 4.51711 7.89863 4.47807 7.91508C4.43903 7.93153 4.40356 7.95571 4.3737 7.98622C4.34383 8.01673 4.32017 8.05298 4.30407 8.09287C4.28797 8.13277 4.27975 8.17552 4.27988 8.21867C4.28002 8.26183 4.2885 8.30453 4.30484 8.34432C4.32119 8.38411 4.34507 8.4202 4.37512 8.45052L4.90893 8.99617C4.93866 9.02657 4.97397 9.05069 5.01283 9.06714C5.05169 9.08359 5.09334 9.09206 5.1354 9.09206C5.17746 9.09206 5.21911 9.08359 5.25797 9.06714C5.29683 9.05069 5.33214 9.02657 5.36187 8.99617L6.42965 7.90488C6.45939 7.87449 6.48299 7.83842 6.49909 7.79871C6.51519 7.759 6.52348 7.71644 6.52348 7.67346C6.52348 7.63048 6.51519 7.58792 6.49909 7.54821C6.48299 7.50851 6.45939 7.47243 6.42965 7.44205ZM6.42965 10.3879C6.39991 10.3575 6.3646 10.3334 6.32575 10.317C6.28689 10.3005 6.24524 10.292 6.20317 10.292C6.16111 10.292 6.11946 10.3005 6.0806 10.317C6.04174 10.3334 6.00643 10.3575 5.9767 10.3879L5.1354 11.2478L4.82806 10.9336C4.79839 10.9029 4.76307 10.8785 4.72413 10.8618C4.68519 10.8451 4.64341 10.8364 4.60118 10.8363C4.55895 10.8361 4.51711 10.8445 4.47807 10.861C4.43903 10.8774 4.40356 10.9016 4.3737 10.9321C4.34383 10.9626 4.32017 10.9989 4.30407 11.0388C4.28797 11.0787 4.27975 11.1214 4.27988 11.1646C4.28002 11.2077 4.2885 11.2504 4.30484 11.2902C4.32119 11.33 4.34507 11.3661 4.37512 11.3964L4.90893 11.9421C4.93866 11.9725 4.97397 11.9966 5.01283 12.013C5.05169 12.0295 5.09334 12.038 5.1354 12.038C5.17746 12.038 5.21911 12.0295 5.25797 12.013C5.29683 11.9966 5.33214 11.9725 5.36187 11.9421L6.42965 10.8508C6.45939 10.8204 6.48299 10.7843 6.49909 10.7446C6.51519 10.7049 6.52348 10.6623 6.52348 10.6194C6.52348 10.5764 6.51519 10.5338 6.49909 10.4941C6.48299 10.4544 6.45939 10.4183 6.42965 10.3879ZM6.42965 13.3338C6.39991 13.3034 6.3646 13.2793 6.32575 13.2629C6.28689 13.2464 6.24524 13.2379 6.20317 13.2379C6.16111 13.2379 6.11946 13.2464 6.0806 13.2629C6.04174 13.2793 6.00643 13.3034 5.9767 13.3338L5.1354 14.1937L4.82806 13.8795C4.79839 13.8488 4.76307 13.8244 4.72413 13.8077C4.68519 13.791 4.64341 13.7823 4.60118 13.7822C4.55895 13.782 4.51711 13.7904 4.47807 13.8069C4.43903 13.8233 4.40356 13.8475 4.3737 13.878C4.34383 13.9085 4.32017 13.9448 4.30407 13.9847C4.28797 14.0246 4.27975 14.0673 4.27988 14.1105C4.28002 14.1536 4.2885 14.1963 4.30484 14.2361C4.32119 14.2759 4.34507 14.312 4.37512 14.3423L4.90893 14.888C4.93866 14.9184 4.97397 14.9425 5.01283 14.9589C5.05169 14.9754 5.09334 14.9838 5.1354 14.9838C5.17746 14.9838 5.21911 14.9754 5.25797 14.9589C5.29683 14.9425 5.33214 14.9184 5.36187 14.888L6.42965 13.7967C6.45939 13.7663 6.48299 13.7302 6.49909 13.6905C6.51519 13.6508 6.52348 13.6082 6.52348 13.5652C6.52348 13.5223 6.51519 13.4797 6.49909 13.44C6.48299 13.4003 6.45939 13.3642 6.42965 13.3338ZM5.9767 16.2797L5.1354 17.1396L4.82806 16.8254C4.79839 16.7947 4.76307 16.7703 4.72413 16.7536C4.68519 16.7369 4.64341 16.7282 4.60118 16.728C4.55895 16.7279 4.51711 16.7363 4.47807 16.7528C4.43903 16.7692 4.40356 16.7934 4.3737 16.8239C4.34383 16.8544 4.32017 16.8907 4.30407 16.9306C4.28797 16.9704 4.27975 17.0132 4.27988 17.0564C4.28002 17.0995 4.2885 17.1422 4.30484 17.182C4.32119 17.2218 4.34507 17.2579 4.37512 17.2882L4.90893 17.8338C4.93866 17.8642 4.97397 17.8884 5.01283 17.9048C5.05169 17.9213 5.09334 17.9297 5.1354 17.9297C5.17746 17.9297 5.21911 17.9213 5.25797 17.9048C5.29683 17.8884 5.33214 17.8642 5.36187 17.8338L6.42965 16.7426C6.45969 16.7122 6.48358 16.6761 6.49992 16.6364C6.51626 16.5966 6.52475 16.5539 6.52488 16.5107C6.52501 16.4676 6.51679 16.4248 6.50069 16.3849C6.48459 16.345 6.46093 16.3088 6.43107 16.2783C6.4012 16.2477 6.36573 16.2236 6.32669 16.2071C6.28765 16.1907 6.24581 16.1823 6.20358 16.1824C6.16135 16.1825 6.11957 16.1912 6.08063 16.2079C6.04169 16.2246 6.00637 16.249 5.9767 16.2797Z" fill="white"/>
</svg>
