<svg width="22" height="22" viewBox="0 0 22 22" fill="none" xmlns="http://www.w3.org/2000/svg">
<path d="M13.9611 8.38087H7.06709C6.98213 8.38087 6.90066 8.34638 6.84059 8.28498C6.78052 8.22359 6.74677 8.14032 6.74677 8.05349C6.74677 7.96666 6.78052 7.88339 6.84059 7.822C6.90066 7.7606 6.98213 7.72611 7.06709 7.72611H13.9611C14.046 7.72611 14.1275 7.7606 14.1876 7.822C14.2477 7.88339 14.2814 7.96666 14.2814 8.05349C14.2814 8.14032 14.2477 8.22359 14.1876 8.28498C14.1275 8.34638 14.046 8.38087 13.9611 8.38087ZM13.9387 10.9999C13.9387 10.9569 13.9305 10.9143 13.9144 10.8746C13.8983 10.8349 13.8747 10.7988 13.8449 10.7684C13.8152 10.738 13.7799 10.7139 13.741 10.6974C13.7021 10.681 13.6605 10.6725 13.6184 10.6725H7.06787C6.98291 10.6725 6.90144 10.707 6.84137 10.7684C6.7813 10.8298 6.74755 10.9131 6.74755 10.9999C6.74755 11.0867 6.7813 11.17 6.84137 11.2314C6.90144 11.2928 6.98291 11.3273 7.06787 11.3273H13.6184C13.6605 11.3273 13.7021 11.3188 13.741 11.3024C13.7799 11.286 13.8152 11.2618 13.8449 11.2314C13.8747 11.201 13.8983 11.1649 13.9144 11.1252C13.9305 11.0855 13.9387 11.0429 13.9387 10.9999ZM7.06787 14.2737H10.3255C10.4104 14.2737 10.4919 14.2392 10.552 14.1778C10.612 14.1164 10.6458 14.0332 10.6458 13.9463C10.6458 13.8595 10.612 13.7762 10.552 13.7149C10.4919 13.6535 10.4104 13.619 10.3255 13.619H7.06787C6.98291 13.619 6.90144 13.6535 6.84137 13.7149C6.7813 13.7762 6.74755 13.8595 6.74755 13.9463C6.74755 14.0332 6.7813 14.1164 6.84137 14.1778C6.90144 14.2392 6.98291 14.2737 7.06787 14.2737ZM7.06787 17.2202H10.3287C10.4137 17.2202 10.4952 17.1857 10.5552 17.1243C10.6153 17.0629 10.6491 16.9796 10.6491 16.8928C10.6491 16.8059 10.6153 16.7227 10.5552 16.6613C10.4952 16.5999 10.4137 16.5654 10.3287 16.5654H7.06787C6.98291 16.5654 6.90144 16.5999 6.84137 16.6613C6.7813 16.7227 6.74755 16.8059 6.74755 16.8928C6.74755 16.9796 6.7813 17.0629 6.84137 17.1243C6.90144 17.1857 6.98291 17.2202 7.06787 17.2202ZM12.667 20.1666H4.35158C3.92697 20.1661 3.51989 19.9935 3.21964 19.6866C2.9194 19.3797 2.7505 18.9637 2.75 18.5297V3.47016C2.7505 3.03618 2.9194 2.62012 3.21964 2.31325C3.51989 2.00639 3.92697 1.83376 4.35158 1.83325H10.4376C10.6059 1.83314 10.7725 1.86701 10.9279 1.93292C11.0833 1.99883 11.2245 2.09547 11.3433 2.2173L15.1868 6.14565C15.3061 6.26703 15.4006 6.4113 15.4651 6.57017C15.5296 6.72903 15.5628 6.89935 15.5627 7.07135V10.4465C15.5627 10.5333 15.5289 10.6166 15.4689 10.678C15.4088 10.7394 15.3273 10.7739 15.2424 10.7739C15.1574 10.7739 15.0759 10.7394 15.0159 10.678C14.9558 10.6166 14.922 10.5333 14.922 10.4465V7.07135C14.9218 6.89778 14.8542 6.73139 14.7341 6.60866C14.614 6.48592 14.4512 6.41685 14.2814 6.41659H12.6798C12.2552 6.41607 11.8481 6.24345 11.5479 5.93658C11.2476 5.62971 11.0787 5.21366 11.0782 4.77968V3.14278C11.078 2.9692 11.0104 2.8028 10.8903 2.68006C10.7702 2.55732 10.6074 2.48826 10.4376 2.48801H4.35159C4.09681 2.4883 3.85256 2.59187 3.6724 2.77599C3.49225 2.96012 3.39092 3.20976 3.39064 3.47016V18.5297C3.39092 18.7901 3.49225 19.0397 3.6724 19.2238C3.85256 19.408 4.09681 19.5115 4.35159 19.5118H12.667C12.7509 19.5134 12.831 19.5485 12.8898 19.6097C12.9486 19.671 12.9816 19.7534 12.9816 19.8392C12.9816 19.925 12.9487 20.0074 12.8898 20.0686C12.831 20.1299 12.751 20.165 12.667 20.1666ZM11.7189 4.77968C11.7191 5.04007 11.8205 5.28972 12.0006 5.47385C12.1808 5.65797 12.425 5.76154 12.6798 5.76182H13.9054L11.7189 3.52706L11.7189 4.77968ZM19.1682 17.5929L18.7289 18.3705C18.6469 18.514 18.5128 18.6185 18.3557 18.6614C18.1986 18.7043 18.0313 18.682 17.8903 18.5994L17.8488 18.5751C17.4115 19.0024 16.88 19.3159 16.2992 19.4891C16.3053 19.5754 16.2939 19.6621 16.2659 19.7437C16.2379 19.8254 16.1938 19.9003 16.1363 19.9638C16.0788 20.0273 16.0092 20.078 15.9317 20.1129C15.8542 20.1478 15.7706 20.1661 15.6859 20.1666H14.8069C14.6443 20.1664 14.4884 20.1002 14.3735 19.9827C14.2585 19.8652 14.1938 19.7058 14.1937 19.5396V19.4891C13.6127 19.3159 13.0811 19.0023 12.6438 18.5748L12.6107 18.5943C12.5407 18.6365 12.4633 18.6642 12.3829 18.6758C12.3024 18.6874 12.2205 18.6827 12.1419 18.6619C12.0632 18.6411 11.9894 18.6047 11.9245 18.5546C11.8596 18.5046 11.8051 18.442 11.7639 18.3704L11.3246 17.5929C11.283 17.5177 11.2568 17.4346 11.2478 17.3486C11.2388 17.2627 11.2471 17.1758 11.2721 17.0932C11.2971 17.0107 11.3384 16.9343 11.3934 16.8686C11.4484 16.803 11.5159 16.7495 11.5919 16.7115C11.448 16.1107 11.448 15.4833 11.5919 14.8825C11.5158 14.8447 11.448 14.7914 11.3929 14.7258C11.3378 14.6602 11.2964 14.5837 11.2713 14.5011C11.2463 14.4185 11.2381 14.3316 11.2472 14.2456C11.2564 14.1596 11.2827 14.0765 11.3246 14.0013L11.7639 13.2238C11.8068 13.1494 11.8641 13.0847 11.9324 13.0337C12.0006 12.9827 12.0783 12.9465 12.1608 12.9274C12.2432 12.9082 12.3286 12.9065 12.4117 12.9223C12.4948 12.938 12.5738 12.971 12.644 13.0192C13.0814 12.5919 13.6129 12.2784 14.1937 12.1051V12.0543C14.1939 11.8882 14.2585 11.7289 14.3735 11.6114C14.4885 11.4939 14.6444 11.4278 14.8069 11.4277H15.6859C15.8485 11.4278 16.0044 11.4939 16.1193 11.6114C16.2343 11.7289 16.299 11.8882 16.2992 12.0543V12.1052C16.88 12.2782 17.4115 12.5918 17.8487 13.0192C17.919 12.9713 17.9981 12.9385 18.0812 12.9229C18.1643 12.9072 18.2496 12.9091 18.332 12.9282C18.4144 12.9474 18.4921 12.9835 18.5604 13.0344C18.6286 13.0853 18.686 13.1498 18.7291 13.2241L19.1683 14.0013C19.2493 14.1454 19.2711 14.3163 19.2291 14.4768C19.187 14.6373 19.0844 14.7742 18.9438 14.8575L18.901 14.8825C19.045 15.4833 19.045 16.1107 18.901 16.7115C18.9769 16.7495 19.0445 16.803 19.0995 16.8686C19.1545 16.9343 19.1957 17.0107 19.2208 17.0933C19.2458 17.1758 19.2541 17.2627 19.245 17.3486C19.236 17.4346 19.2099 17.5177 19.1682 17.5929ZM18.5629 14.3261L18.5911 14.3094C18.6023 14.3027 18.5995 14.3049 18.5992 14.3037C18.5843 14.2789 18.1858 13.5692 18.1871 13.5759C18.0617 13.66 17.9107 13.695 17.762 13.6747C17.6133 13.6543 17.4767 13.5798 17.3774 13.4649C17.0082 13.1134 16.5617 12.8579 16.0755 12.7201C15.954 12.678 15.8484 12.5981 15.7737 12.4915C15.6989 12.385 15.6587 12.2572 15.6586 12.1261V12.0925C15.6584 12.0791 15.6589 12.0827 15.6578 12.0824C15.6292 12.0832 14.8278 12.081 14.8343 12.0832C14.8431 12.2363 14.7975 12.3876 14.706 12.5091C14.6144 12.6307 14.483 12.7144 14.3359 12.745C13.8524 12.8963 13.4117 13.1644 13.0512 13.5268C12.9484 13.6158 12.8203 13.6686 12.6859 13.6775C12.5514 13.6863 12.4178 13.6507 12.3047 13.5758C12.2911 13.6015 11.8888 14.3094 11.8939 14.3048C11.9165 14.3185 11.9364 14.3292 11.9539 14.3409C12.4908 14.6934 12.0578 15.3471 12.1253 15.8632C12.1305 16.1124 12.1639 16.3602 12.2248 16.6015C12.2496 16.7375 12.2307 16.878 12.171 17.0022C12.1114 17.1263 12.0141 17.2275 11.8936 17.2905C11.9085 17.3154 12.3071 18.0251 12.3057 18.0184C12.333 18.0018 12.3448 17.9954 12.3675 17.9828C12.4904 17.9191 12.6306 17.899 12.766 17.9255C12.9013 17.952 13.0243 18.0238 13.1154 18.1294C13.4846 18.4809 13.9312 18.7364 14.4174 18.8741C14.5457 18.9189 14.6561 19.0056 14.7315 19.1208C14.8068 19.2361 14.843 19.3735 14.8343 19.5118H15.6586V19.4674C15.6585 19.3317 15.7016 19.1996 15.7814 19.0911C15.8612 18.9827 15.9733 18.9036 16.1009 18.866C16.5969 18.7218 17.0502 18.4544 17.4205 18.0875C17.5226 17.9902 17.6536 17.9305 17.7926 17.9179C17.9317 17.9053 18.0709 17.9406 18.1882 18.0181C18.2018 17.9925 18.604 17.2848 18.599 17.2895C17.9807 16.9645 18.4312 16.2635 18.3678 15.7312C18.3879 15.2514 18.0304 14.6283 18.5629 14.3261ZM17.5313 15.7971C17.5313 16.259 17.3973 16.7105 17.1462 17.0945C16.8951 17.4785 16.5382 17.7778 16.1207 17.9546C15.7032 18.1313 15.2438 18.1775 14.8006 18.0874C14.3573 17.9973 13.9502 17.7748 13.6307 17.4482C13.3112 17.1216 13.0936 16.7055 13.0054 16.2525C12.9173 15.7995 12.9625 15.33 13.1355 14.9033C13.3084 14.4766 13.6013 14.1118 13.977 13.8552C14.3528 13.5986 14.7945 13.4617 15.2464 13.4617C15.8522 13.4624 16.433 13.7087 16.8614 14.1465C17.2897 14.5843 17.5307 15.178 17.5313 15.7971ZM16.8907 15.7971C16.8907 15.4648 16.7943 15.1398 16.6137 14.8634C16.433 14.5871 16.1762 14.3716 15.8758 14.2444C15.5753 14.1172 15.2447 14.0839 14.9257 14.1487C14.6068 14.2135 14.3138 14.3736 14.0838 14.6086C13.8538 14.8436 13.6972 15.1431 13.6338 15.4691C13.5703 15.7951 13.6028 16.133 13.7273 16.4401C13.8517 16.7472 14.0625 17.0096 14.3329 17.1943C14.6033 17.379 14.9212 17.4775 15.2464 17.4775C15.6823 17.477 16.1003 17.2998 16.4085 16.9848C16.7168 16.6698 16.8902 16.2427 16.8907 15.7971ZM6.17965 7.27629C6.14991 7.24588 6.1146 7.22176 6.07575 7.2053C6.03689 7.18884 5.99524 7.18037 5.95317 7.18037C5.91111 7.18037 5.86946 7.18884 5.8306 7.2053C5.79174 7.22176 5.75643 7.24588 5.7267 7.27629L4.8854 8.13632L4.57806 7.82203C4.54839 7.79132 4.51307 7.76691 4.47413 7.7502C4.43519 7.7335 4.39341 7.72483 4.35118 7.72469C4.30895 7.72455 4.26711 7.73295 4.22807 7.74941C4.18903 7.76586 4.15356 7.79004 4.1237 7.82056C4.09383 7.85108 4.07017 7.88733 4.05407 7.92723C4.03797 7.96713 4.02975 8.0099 4.02988 8.05306C4.03002 8.09622 4.0385 8.13892 4.05484 8.17872C4.07119 8.21852 4.09507 8.25462 4.12512 8.28495L4.65893 8.83069C4.68866 8.8611 4.72397 8.88522 4.76283 8.90168C4.80169 8.91813 4.84334 8.9266 4.8854 8.9266C4.92746 8.9266 4.96911 8.91813 5.00797 8.90168C5.04683 8.88522 5.08214 8.8611 5.11187 8.83069L6.17965 7.7392C6.20939 7.70881 6.23299 7.67273 6.24909 7.63302C6.26519 7.5933 6.27348 7.55073 6.27348 7.50775C6.27348 7.46476 6.26519 7.42219 6.24909 7.38247C6.23299 7.34276 6.20939 7.30668 6.17965 7.27629ZM6.17965 10.2227C6.14991 10.1923 6.1146 10.1682 6.07575 10.1517C6.03689 10.1353 5.99524 10.1268 5.95317 10.1268C5.91111 10.1268 5.86946 10.1353 5.8306 10.1517C5.79174 10.1682 5.75643 10.1923 5.7267 10.2227L4.8854 11.0827L4.57806 10.7685C4.54839 10.7377 4.51307 10.7133 4.47413 10.6966C4.43519 10.6799 4.39341 10.6713 4.35118 10.6711C4.30895 10.671 4.26711 10.6794 4.22807 10.6958C4.18903 10.7123 4.15356 10.7365 4.1237 10.767C4.09383 10.7975 4.07017 10.8338 4.05407 10.8737C4.03797 10.9136 4.02975 10.9563 4.02988 10.9995C4.03002 11.0426 4.0385 11.0854 4.05484 11.1251C4.07119 11.1649 4.09507 11.201 4.12512 11.2314L4.65893 11.7771C4.68866 11.8075 4.72397 11.8316 4.76283 11.8481C4.80169 11.8646 4.84334 11.873 4.8854 11.873C4.92746 11.873 4.96911 11.8646 5.00797 11.8481C5.04683 11.8316 5.08214 11.8075 5.11187 11.7771L6.17965 10.6856C6.20939 10.6552 6.23299 10.6192 6.24909 10.5794C6.26519 10.5397 6.27348 10.4972 6.27348 10.4542C6.27348 10.4112 6.26519 10.3686 6.24909 10.3289C6.23299 10.2892 6.20939 10.2531 6.17965 10.2227ZM6.17965 13.1691C6.14991 13.1387 6.1146 13.1146 6.07575 13.0982C6.03689 13.0817 5.99524 13.0732 5.95317 13.0732C5.91111 13.0732 5.86946 13.0817 5.8306 13.0982C5.79174 13.1146 5.75643 13.1387 5.7267 13.1691L4.8854 14.0292L4.57806 13.7149C4.54839 13.6842 4.51307 13.6598 4.47413 13.6431C4.43519 13.6264 4.39341 13.6177 4.35118 13.6175C4.30895 13.6174 4.26711 13.6258 4.22807 13.6423C4.18903 13.6587 4.15356 13.6829 4.1237 13.7134C4.09383 13.7439 4.07017 13.7802 4.05407 13.8201C4.03797 13.86 4.02975 13.9028 4.02988 13.9459C4.03002 13.9891 4.0385 14.0318 4.05484 14.0716C4.07119 14.1114 4.09507 14.1475 4.12512 14.1778L4.65893 14.7235C4.68866 14.754 4.72397 14.7781 4.76283 14.7945C4.80169 14.811 4.84334 14.8195 4.8854 14.8195C4.92746 14.8195 4.96911 14.811 5.00797 14.7945C5.04683 14.7781 5.08214 14.754 5.11187 14.7235L6.17965 13.6321C6.20939 13.6017 6.23299 13.5656 6.24909 13.5259C6.26519 13.4862 6.27348 13.4436 6.27348 13.4006C6.27348 13.3576 6.26519 13.315 6.24909 13.2753C6.23299 13.2356 6.20939 13.1995 6.17965 13.1691ZM5.7267 16.1156L4.8854 16.9756L4.57806 16.6613C4.54839 16.6306 4.51307 16.6062 4.47413 16.5895C4.43519 16.5728 4.39341 16.5641 4.35118 16.564C4.30895 16.5638 4.26711 16.5722 4.22807 16.5887C4.18903 16.6051 4.15356 16.6293 4.1237 16.6598C4.09383 16.6904 4.07017 16.7266 4.05407 16.7665C4.03797 16.8064 4.02975 16.8492 4.02988 16.8923C4.03002 16.9355 4.0385 16.9782 4.05484 17.018C4.07119 17.0578 4.09507 17.0939 4.12512 17.1242L4.65893 17.67C4.68866 17.7004 4.72397 17.7245 4.76283 17.741C4.80169 17.7574 4.84334 17.7659 4.8854 17.7659C4.92746 17.7659 4.96911 17.7574 5.00797 17.741C5.04683 17.7245 5.08214 17.7004 5.11187 17.67L6.17965 16.5785C6.20969 16.5482 6.23358 16.5121 6.24992 16.4723C6.26626 16.4325 6.27475 16.3898 6.27488 16.3466C6.27501 16.3034 6.26679 16.2607 6.25069 16.2208C6.23459 16.1809 6.21093 16.1446 6.18107 16.1141C6.1512 16.0836 6.11573 16.0594 6.07669 16.0429C6.03765 16.0265 5.99581 16.0181 5.95358 16.0182C5.91135 16.0184 5.86957 16.027 5.83063 16.0437C5.79169 16.0604 5.75637 16.0849 5.7267 16.1156Z" fill="url(#paint0_linear_566_7070)"/>
<defs>
<linearGradient id="paint0_linear_566_7070" x1="11" y1="1.83325" x2="11" y2="20.1666" gradientUnits="userSpaceOnUse">
<stop stop-color="#81319B"/>
<stop offset="0.48" stop-color="#00A99D"/>
<stop offset="1" stop-color="#0B2C4C"/>
</linearGradient>
</defs>
</svg>
