<svg width="22" height="22" viewBox="0 0 22 22" fill="none" xmlns="http://www.w3.org/2000/svg">
<path d="M11.0403 10.2487V7.58222C11.6213 7.67829 12.1711 7.9126 12.6397 8.26407C12.7329 8.32734 12.8429 8.36014 12.9577 8.36248C13.321 8.36248 13.6175 8.07662 13.6223 7.71812C13.6223 7.56582 13.5625 7.4182 13.4525 7.30807C12.7736 6.74103 11.9249 6.40596 11.0332 6.35676V5.46168C11.0332 5.20862 10.8228 5.00008 10.5622 5.00008C10.5574 5.00008 10.5502 5.00008 10.5455 5.00008C10.2801 4.99539 10.0625 5.20393 10.0601 5.46168V6.32395C8.32211 6.44814 7.13872 7.50021 7.13872 8.90141C7.13872 10.6213 8.63051 11.0969 10.0601 11.4765V14.5062C9.30708 14.4078 8.59465 14.1008 8.01371 13.6205C7.90374 13.5338 7.76747 13.4869 7.62642 13.4846C7.27021 13.5057 6.99528 13.7986 7.00006 14.15C7.00006 14.3023 7.05983 14.45 7.1698 14.5601C7.96829 15.2654 8.9939 15.6684 10.0673 15.7035V16.5377C10.0673 16.5424 10.0673 16.5494 10.0673 16.5541C10.0793 16.8142 10.304 17.0134 10.5694 16.9993C10.8299 16.9993 11.0403 16.7931 11.0403 16.5377V15.6895C13.1489 15.5536 14 14.2953 14 12.9644C14 11.1719 12.47 10.6283 11.0403 10.2487ZM10.0673 10.0074C9.22579 9.76603 8.56835 9.51531 8.56835 8.81002C8.56835 8.10474 9.16364 7.59862 10.0673 7.53067V10.0074ZM11.0403 14.5203V11.7624C11.9129 12.0037 12.5943 12.3294 12.5847 13.1261C12.5871 13.7025 12.1855 14.3844 11.0403 14.5203Z" fill="#AEAEAF"/>
</svg>
