<svg width="53" height="53" viewBox="0 0 53 53" fill="none" xmlns="http://www.w3.org/2000/svg">
<path d="M37.3357 37.9808H5.19583C4.82554 37.9808 4.49635 37.7439 4.37893 37.3931C3.76578 35.5629 3.45508 33.6585 3.45508 31.7326C3.45508 29.8067 3.76578 27.9024 4.37893 26.0723C4.49635 25.721 4.82554 25.4844 5.19583 25.4844H37.3357C37.706 25.4844 38.0352 25.721 38.1526 26.0723C38.7659 27.9024 39.0765 29.8067 39.0765 31.7326C39.0765 33.6585 38.7658 35.5629 38.1526 37.3931C38.0351 37.7439 37.706 37.9808 37.3357 37.9808ZM5.8283 36.2576H36.7033C37.1348 34.7861 37.3533 33.2668 37.3533 31.7327C37.3533 30.1985 37.1348 28.6792 36.7033 27.2077H5.8283C5.39676 28.6792 5.17828 30.1985 5.17828 31.7327C5.17828 33.2667 5.39676 34.7861 5.8283 36.2576Z" fill="url(#paint0_linear_3077_13199)"/>
<path d="M21.2658 49.5456C11.4448 49.5456 3.45508 41.5559 3.45508 31.7345C3.45508 21.9135 11.4448 13.9238 21.2658 13.9238C31.0869 13.9238 39.0765 21.9135 39.0765 31.7345C39.0765 41.5559 31.0868 49.5456 21.2658 49.5456ZM21.2658 15.6472C12.3952 15.6472 5.1784 22.864 5.1784 31.7345C5.1784 40.6053 12.3954 47.8223 21.2658 47.8223C30.1363 47.8223 37.3533 40.6053 37.3533 31.7345C37.3533 22.864 30.1363 15.6472 21.2658 15.6472Z" fill="url(#paint1_linear_3077_13199)"/>
<path d="M21.2657 49.5456C14.8277 49.5456 9.58984 41.5559 9.58984 31.7345C9.58984 21.9135 14.8277 13.9238 21.2657 13.9238C27.7038 13.9238 32.9418 21.9135 32.9418 31.7345C32.9416 41.5559 27.7038 49.5456 21.2657 49.5456ZM21.2657 15.6472C15.7779 15.6472 11.3132 22.864 11.3132 31.7345C11.3132 40.6053 15.7779 47.8223 21.2657 47.8223C26.7537 47.8223 31.2184 40.6053 31.2184 31.7345C31.2183 22.864 26.7536 15.6472 21.2657 15.6472Z" fill="url(#paint2_linear_3077_13199)"/>
<path d="M21.2662 49.5456C17.3548 49.5456 16.3213 37.8953 16.3213 31.7345C16.3213 25.5742 17.3549 13.9238 21.2662 13.9238C25.1776 13.9238 26.2112 25.5742 26.2112 31.7345C26.2112 37.8953 25.1776 49.5456 21.2662 49.5456ZM21.2662 15.6472C20.1726 15.6472 18.0445 21.3255 18.0445 31.7345C18.0445 42.1436 20.1727 47.8223 21.2662 47.8223C22.3598 47.8223 24.488 42.1436 24.488 31.7345C24.4879 21.3255 22.3598 15.6472 21.2662 15.6472Z" fill="url(#paint3_linear_3077_13199)"/>
<path d="M45.2943 22.4777C44.8183 22.4777 44.4326 22.092 44.4326 21.6161V18.4886C44.4326 18.0128 44.8183 17.627 45.2943 17.627C45.7702 17.627 46.1559 18.0127 46.1559 18.4886V21.6161C46.1559 22.092 45.7702 22.4777 45.2943 22.4777Z" fill="url(#paint4_linear_3077_13199)"/>
<path d="M41.0553 12.669C38.7298 12.669 36.8379 10.7772 36.8379 8.45164C36.8379 6.12624 38.7298 4.23438 41.0553 4.23438C43.3807 4.23438 45.2725 6.12624 45.2725 8.45164C45.2725 10.777 43.3807 12.669 41.0553 12.669ZM41.0553 5.95758C39.68 5.95758 38.5612 7.07635 38.5612 8.45153C38.5612 9.82682 39.68 10.9456 41.0553 10.9456C42.4306 10.9456 43.5493 9.82682 43.5493 8.45153C43.5493 7.07635 42.4306 5.95758 41.0553 5.95758Z" fill="url(#paint5_linear_3077_13199)"/>
<path d="M48.3772 20.5208C47.9013 20.5208 47.5156 20.135 47.5156 19.6591V17.9729C47.5156 16.2597 46.1218 14.8659 44.4086 14.8659H37.704C36.5223 14.8659 35.4581 15.5223 34.9265 16.5787C34.7121 17.0042 34.1941 17.1755 33.7696 16.9615C33.3445 16.7478 33.1732 16.2298 33.3869 15.8046C34.2129 14.1625 35.8669 13.1426 37.7039 13.1426H44.4085C47.0719 13.1426 49.2388 15.3095 49.2388 17.9729V19.6591C49.239 20.135 48.8532 20.5208 48.3772 20.5208Z" fill="url(#paint6_linear_3077_13199)"/>
<path d="M19.886 12.2361C19.4366 12.2361 19.058 11.8873 19.0274 11.4323C18.9954 10.9575 19.3546 10.5469 19.8291 10.5148C20.3034 10.4829 20.7864 10.4668 21.2653 10.4668C21.7412 10.4668 22.1269 10.8525 22.1269 11.3285C22.1269 11.8044 21.7412 12.1901 21.2653 12.1901C20.8247 12.1901 20.3804 12.205 19.9449 12.2343C19.9249 12.2355 19.9055 12.2361 19.886 12.2361Z" fill="url(#paint7_linear_3077_13199)"/>
<path d="M14.6424 51.9016C14.5498 51.9016 14.4556 51.8868 14.3634 51.8551C13.4923 51.5569 12.6306 51.1968 11.8023 50.7841C11.3762 50.572 11.2028 50.0544 11.4149 49.6291C11.6273 49.203 12.1429 49.03 12.5704 49.2414C13.331 49.6204 14.1224 49.9509 14.9214 50.2248C15.3718 50.379 15.6117 50.8691 15.4575 51.3194C15.3351 51.6768 15.0005 51.9016 14.6424 51.9016ZM7.77557 47.9064C7.57299 47.9064 7.36959 47.835 7.20576 47.6909C6.51299 47.0791 5.85403 46.4173 5.24782 45.7233C4.93454 45.3652 4.97116 44.8213 5.32933 44.5076C5.68702 44.1946 6.23162 44.2303 6.54503 44.5898C7.10271 45.2273 7.70903 45.8365 8.34609 46.3987C8.70284 46.7137 8.73687 47.2583 8.42182 47.615C8.25151 47.8081 8.01419 47.9064 7.77557 47.9064ZM2.94833 41.5935C2.63021 41.5935 2.3247 41.417 2.17453 41.1121C1.7669 40.2841 1.41015 39.4205 1.11394 38.544C0.961538 38.093 1.20345 37.6042 1.65419 37.4515C2.10587 37.298 2.59394 37.5417 2.74634 37.9919C3.01829 38.7971 3.34618 39.5907 3.72084 40.3514C3.93083 40.7782 3.75523 41.2945 3.3284 41.5045C3.20579 41.5652 3.07624 41.5935 2.94833 41.5935ZM0.903002 33.9135C0.452031 33.9135 0.0730223 33.5634 0.0436956 33.1071C0.01484 32.6533 0 32.1962 0 31.7352C0 31.2633 0.0154289 30.7955 0.0453445 30.3324C0.07632 29.8579 0.492075 29.495 0.961184 29.5287C1.43606 29.5596 1.79588 29.9695 1.76525 30.4441C1.73734 30.871 1.72321 31.3011 1.72321 31.7352C1.72321 32.1586 1.73675 32.5793 1.7636 32.9966C1.79387 33.4719 1.43383 33.8811 0.958829 33.9114C0.939984 33.9128 0.921493 33.9135 0.903002 33.9135ZM1.93956 26.0351C1.8477 26.0351 1.75442 26.0203 1.66255 25.9891C1.21217 25.8362 0.970607 25.3468 1.12372 24.8962C1.41993 24.0238 1.77738 23.1609 2.18631 22.3322C2.39701 21.9054 2.91429 21.7314 3.34041 21.9408C3.76724 22.1515 3.94226 22.6682 3.73179 23.0949C3.35584 23.8562 3.02736 24.6485 2.75541 25.4504C2.63363 25.809 2.29879 26.0351 1.93956 26.0351ZM5.91362 19.1559C5.71199 19.1559 5.50976 19.0855 5.34617 18.9424C4.98836 18.6288 4.95244 18.0842 5.26573 17.7264C5.87428 17.0317 6.53431 16.3706 7.22673 15.7617C7.58418 15.4476 8.12867 15.482 8.44278 15.8395C8.75713 16.1969 8.72215 16.7415 8.36505 17.0555C7.72822 17.6157 7.12179 18.2234 6.56234 18.862C6.39145 19.0566 6.1533 19.1559 5.91362 19.1559ZM12.2113 14.3074C11.8943 14.3074 11.5893 14.1318 11.4388 13.8284C11.2272 13.4019 11.4015 12.885 11.8276 12.6736C12.6552 12.263 13.5179 11.9032 14.3923 11.6047C14.8426 11.4518 15.3323 11.6918 15.4862 12.1418C15.6401 12.5922 15.3993 13.0819 14.9491 13.2358C14.1463 13.5097 13.3536 13.8403 12.5936 14.2173C12.4704 14.2784 12.3399 14.3074 12.2113 14.3074Z" fill="url(#paint8_linear_3077_13199)"/>
<path d="M21.2652 52.999C20.7883 52.999 20.3053 52.9829 19.8298 52.9512C19.3549 52.9196 18.9957 52.5089 19.0273 52.0344C19.0593 51.5597 19.4767 51.2044 19.9441 51.232C20.3807 51.2609 20.8213 51.2758 21.2651 51.2758C21.7411 51.2758 22.1268 51.6615 22.1268 52.1374C22.1269 52.6133 21.7412 52.999 21.2652 52.999Z" fill="url(#paint9_linear_3077_13199)"/>
<path d="M21.2661 53C20.7903 53 20.4044 52.6143 20.4044 52.1383C20.4044 51.6624 20.7901 51.2767 21.2661 51.2767C32.0417 51.2767 40.8085 42.5102 40.8085 31.7343C40.8085 28.5791 40.0748 25.5617 38.6278 22.7661C38.4784 22.478 38.5039 22.1307 38.6931 21.8671C38.8819 21.6039 39.2036 21.4696 39.5241 21.5184C40.1017 21.6076 40.5883 21.649 41.0556 21.649C46.5492 21.649 51.0183 17.1795 51.0183 11.6859C51.0183 6.19264 46.5492 1.72309 41.0556 1.72309C35.5623 1.72309 31.0927 6.19252 31.0927 11.6859C31.0927 12.1999 31.1419 12.742 31.2426 13.3435C31.296 13.6633 31.1654 13.9863 30.9047 14.1789C30.6438 14.3717 30.2961 14.4007 30.0066 14.2563C27.2729 12.8861 24.3319 12.1914 21.266 12.1914C20.7901 12.1914 20.4043 11.8057 20.4043 11.3298C20.4043 10.8538 20.79 10.4681 21.266 10.4681C24.0845 10.4681 26.8061 11.0076 29.3768 12.0742C29.3718 11.9433 29.3694 11.8141 29.3694 11.6858C29.3695 5.24217 34.6117 0 41.0556 0C47.4994 0 52.7416 5.24217 52.7416 11.686C52.7416 18.1299 47.4994 23.3723 41.0556 23.3723C40.9775 23.3723 40.8983 23.3714 40.8186 23.3692C41.9562 26.0124 42.5318 28.8194 42.5318 31.7343C42.5318 43.46 32.9922 53 21.2661 53Z" fill="url(#paint10_linear_3077_13199)"/>
<path d="M41.0552 23.3723C40.0148 23.3723 38.9832 23.2353 37.9889 22.9657C37.5298 22.8409 37.2586 22.3676 37.3831 21.9082C37.5079 21.4484 37.9835 21.1792 38.4406 21.3023C39.2874 21.5325 40.1672 21.6491 41.0552 21.6491C46.5484 21.6491 51.0179 17.1797 51.0179 11.686C51.0179 6.19276 46.5484 1.72321 41.0552 1.72321C35.5619 1.72321 31.0923 6.19264 31.0923 11.686C31.0923 12.7115 31.2472 13.7219 31.5529 14.6896C31.6962 15.1433 31.4445 15.6273 30.9908 15.7707C30.5374 15.9147 30.0531 15.663 29.9097 15.2086C29.5509 14.073 29.3691 12.8876 29.3691 11.686C29.3691 5.24217 34.6113 0 41.0552 0C47.499 0 52.7412 5.24217 52.7412 11.686C52.7412 18.1299 47.4989 23.3723 41.0552 23.3723Z" fill="url(#paint11_linear_3077_13199)"/>
<defs>
<linearGradient id="paint0_linear_3077_13199" x1="21.2658" y1="25.4844" x2="21.2658" y2="37.9808" gradientUnits="userSpaceOnUse">
<stop stop-color="#81319B"/>
<stop offset="0.5" stop-color="#00A99D"/>
<stop offset="1" stop-color="#0B2C4C"/>
</linearGradient>
<linearGradient id="paint1_linear_3077_13199" x1="21.2658" y1="13.9238" x2="21.2658" y2="49.5456" gradientUnits="userSpaceOnUse">
<stop stop-color="#81319B"/>
<stop offset="0.5" stop-color="#00A99D"/>
<stop offset="1" stop-color="#0B2C4C"/>
</linearGradient>
<linearGradient id="paint2_linear_3077_13199" x1="21.2658" y1="13.9238" x2="21.2658" y2="49.5456" gradientUnits="userSpaceOnUse">
<stop stop-color="#81319B"/>
<stop offset="0.5" stop-color="#00A99D"/>
<stop offset="1" stop-color="#0B2C4C"/>
</linearGradient>
<linearGradient id="paint3_linear_3077_13199" x1="21.2662" y1="13.9238" x2="21.2662" y2="49.5456" gradientUnits="userSpaceOnUse">
<stop stop-color="#81319B"/>
<stop offset="0.5" stop-color="#00A99D"/>
<stop offset="1" stop-color="#0B2C4C"/>
</linearGradient>
<linearGradient id="paint4_linear_3077_13199" x1="45.2943" y1="17.627" x2="45.2943" y2="22.4777" gradientUnits="userSpaceOnUse">
<stop stop-color="#81319B"/>
<stop offset="0.5" stop-color="#00A99D"/>
<stop offset="1" stop-color="#0B2C4C"/>
</linearGradient>
<linearGradient id="paint5_linear_3077_13199" x1="41.0552" y1="4.23437" x2="41.0552" y2="12.669" gradientUnits="userSpaceOnUse">
<stop stop-color="#81319B"/>
<stop offset="0.5" stop-color="#00A99D"/>
<stop offset="1" stop-color="#0B2C4C"/>
</linearGradient>
<linearGradient id="paint6_linear_3077_13199" x1="41.2668" y1="13.1426" x2="41.2668" y2="20.5208" gradientUnits="userSpaceOnUse">
<stop stop-color="#81319B"/>
<stop offset="0.5" stop-color="#00A99D"/>
<stop offset="1" stop-color="#0B2C4C"/>
</linearGradient>
<linearGradient id="paint7_linear_3077_13199" x1="20.5762" y1="10.4668" x2="20.5762" y2="12.2361" gradientUnits="userSpaceOnUse">
<stop stop-color="#81319B"/>
<stop offset="0.5" stop-color="#00A99D"/>
<stop offset="1" stop-color="#0B2C4C"/>
</linearGradient>
<linearGradient id="paint8_linear_3077_13199" x1="7.76635" y1="11.5586" x2="7.76635" y2="51.9016" gradientUnits="userSpaceOnUse">
<stop stop-color="#81319B"/>
<stop offset="0.5" stop-color="#00A99D"/>
<stop offset="1" stop-color="#0B2C4C"/>
</linearGradient>
<linearGradient id="paint9_linear_3077_13199" x1="20.5761" y1="51.2305" x2="20.5761" y2="52.999" gradientUnits="userSpaceOnUse">
<stop stop-color="#81319B"/>
<stop offset="0.5" stop-color="#00A99D"/>
<stop offset="1" stop-color="#0B2C4C"/>
</linearGradient>
<linearGradient id="paint10_linear_3077_13199" x1="36.5729" y1="0" x2="36.5729" y2="53" gradientUnits="userSpaceOnUse">
<stop stop-color="#81319B"/>
<stop offset="0.5" stop-color="#00A99D"/>
<stop offset="1" stop-color="#0B2C4C"/>
</linearGradient>
<linearGradient id="paint11_linear_3077_13199" x1="41.0552" y1="0" x2="41.0552" y2="23.3723" gradientUnits="userSpaceOnUse">
<stop stop-color="#81319B"/>
<stop offset="0.5" stop-color="#00A99D"/>
<stop offset="1" stop-color="#0B2C4C"/>
</linearGradient>
</defs>
</svg>
