<svg width="81" height="80" viewBox="0 0 81 80" fill="none" xmlns="http://www.w3.org/2000/svg">
<path d="M40.5 0C18.4439 0 0.5 17.9439 0.5 40C0.5 62.0561 18.4439 80 40.5 80C62.5561 80 80.5 62.0561 80.5 40C80.5 17.9439 62.5561 0 40.5 0ZM40.5 75C21.2009 75 5.5 59.2991 5.5 40C5.5 20.7009 21.2009 5 40.5 5C59.7991 5 75.5 20.7009 75.5 40C75.5 59.2991 59.7991 75 40.5 75ZM56.9552 27.0803L44.0355 40L56.9552 52.9197C57.1907 53.1511 57.3782 53.4268 57.5066 53.731C57.635 54.0352 57.7019 54.3618 57.7034 54.692C57.7049 55.0222 57.641 55.3494 57.5153 55.6548C57.3896 55.9601 57.2047 56.2376 56.9712 56.4711C56.7377 56.7046 56.4603 56.8895 56.155 57.0152C55.8496 57.1408 55.5224 57.2048 55.1922 57.2033C54.862 57.2018 54.5354 57.135 54.2312 57.0065C53.927 56.8781 53.6512 56.6907 53.4198 56.4552L40.5 43.5355L27.5802 56.4552C27.3488 56.6907 27.073 56.8781 26.7688 57.0065C26.4646 57.135 26.138 57.2018 25.8078 57.2033C25.4776 57.2048 25.1504 57.1408 24.845 57.0152C24.5397 56.8895 24.2623 56.7046 24.0288 56.4711C23.7953 56.2376 23.6104 55.9601 23.4847 55.6548C23.3591 55.3494 23.2951 55.0222 23.2966 54.692C23.2981 54.3618 23.365 54.0352 23.4934 53.731C23.6218 53.4268 23.8093 53.1511 24.0448 52.9197L36.9645 40L24.0448 27.0803C23.8093 26.8489 23.6218 26.5732 23.4934 26.269C23.365 25.9648 23.2981 25.6382 23.2966 25.308C23.2951 24.9778 23.3591 24.6506 23.4847 24.3452C23.6104 24.0399 23.7953 23.7624 24.0288 23.5289C24.2623 23.2954 24.5397 23.1105 24.845 22.9848C25.1504 22.8592 25.4776 22.7952 25.8078 22.7967C26.138 22.7982 26.4646 22.865 26.7688 22.9935C27.073 23.1219 27.3488 23.3093 27.5802 23.5448L40.5 36.4645L53.4198 23.5448C53.6512 23.3093 53.927 23.1219 54.2312 22.9935C54.5354 22.865 54.862 22.7982 55.1922 22.7967C55.5224 22.7952 55.8496 22.8592 56.155 22.9848C56.4603 23.1105 56.7377 23.2954 56.9712 23.5289C57.2047 23.7624 57.3896 24.0399 57.5153 24.3452C57.641 24.6506 57.7049 24.9778 57.7034 25.308C57.7019 25.6382 57.635 25.9648 57.5066 26.269C57.3782 26.5732 57.1907 26.8489 56.9552 27.0803Z" fill="url(#paint0_linear_4404_8457)"/>
<defs>
<linearGradient id="paint0_linear_4404_8457" x1="40.5" y1="80" x2="40.5" y2="0" gradientUnits="userSpaceOnUse">
<stop stop-color="#0B2C4C"/>
<stop offset="0.475" stop-color="#00A99D"/>
<stop offset="1" stop-color="#81319B"/>
</linearGradient>
</defs>
</svg>
