<svg width="30" height="30" viewBox="-3 0 30 26" fill="none" xmlns="http://www.w3.org/2000/svg">
<path d="M23.3876 7.85608L16.2698 0.614406C16.1978 0.541166 16.1002 0.5 15.9984 0.5H7.93622C6.05975 0.5 4.53313 2.05295 4.53313 3.9617V10.813H1.54636C0.969369 10.813 0.5 11.2905 0.5 11.8775V17.9967C0.5 18.5836 0.969416 19.0611 1.54636 19.0611H4.53313V22.0383C4.53313 23.9471 6.05975 25.5 7.93622 25.5H20.0969C21.9733 25.5 23.5 23.9471 23.5 22.0383V8.13206C23.5 8.02854 23.4595 7.92927 23.3876 7.85608Z" fill="url(#paint0_linear_4285_12938)"/>
<path d="M16.3821 1.83301L22.19 7.7419H16.7658C16.5542 7.7419 16.3821 7.56617 16.3821 7.35025L16.3821 1.83301Z" fill="white"/>
<path d="M1.26733 17.9968V11.8776C1.26733 11.7237 1.39506 11.5938 1.54627 11.5938H17.9441C18.0979 11.5938 18.223 11.721 18.223 11.8776V17.9968C18.223 18.1531 18.0979 18.2804 17.9441 18.2804H1.54627C1.39506 18.2804 1.26733 18.1505 1.26733 17.9968Z" fill="white"/>
<path d="M16.7657 8.52281C16.131 8.52281 15.6145 7.99724 15.6145 7.35064V1.28125H7.93604C6.48261 1.28125 5.30078 2.4841 5.30078 3.96196V10.8138H17.9441C18.5208 10.8138 18.9907 11.291 18.9907 11.878V17.9974C18.9907 18.5843 18.5214 19.0616 17.9441 19.0616H5.30078V22.0389C5.30078 23.5173 6.48261 24.7196 7.93604 24.7196H20.097C21.5498 24.7196 22.7322 23.5173 22.7322 22.0389V8.52281H16.7657Z" fill="white"/>
<path d="M11.6991 17.0313C11.6991 17.2469 11.5273 17.4216 11.3153 17.4216H8.84156C8.62957 17.4216 8.45776 17.2469 8.45776 17.0313V12.8416C8.45776 12.626 8.62957 12.4512 8.84156 12.4512C9.05356 12.4512 9.22526 12.626 9.22526 12.8416V16.641H11.3153C11.5273 16.641 11.6991 16.8157 11.6991 17.0313Z" fill="url(#paint1_linear_4285_12938)"/>
<path d="M6.97802 13.0426L5.8598 14.9365L6.97802 16.8303C7.08713 17.0151 7.02832 17.2549 6.84663 17.3659C6.78481 17.4037 6.71664 17.4217 6.64944 17.4217C6.51911 17.4217 6.3921 17.3542 6.32014 17.2323L5.41217 15.6946L4.5042 17.2323C4.43225 17.3542 4.30519 17.4217 4.17491 17.4217C4.10765 17.4217 4.03959 17.4038 3.97771 17.3659C3.79603 17.255 3.73722 17.0151 3.84633 16.8303L4.96455 14.9365L3.84633 13.0426C3.73722 12.8578 3.79603 12.618 3.97771 12.507C4.15945 12.3961 4.39515 12.4559 4.5042 12.6406L5.41217 14.1783L6.32014 12.6406C6.42925 12.4558 6.66494 12.3958 6.84663 12.507C7.02832 12.6179 7.08717 12.8578 6.97802 13.0426Z" fill="url(#paint2_linear_4285_12938)"/>
<path d="M15.3749 15.345C15.454 15.5193 15.4937 15.7366 15.4937 15.995C15.4937 16.3232 15.4257 16.5941 15.2925 16.8096C15.1579 17.0251 14.974 17.1869 14.741 17.2914C14.5062 17.3959 14.2385 17.4467 13.9389 17.4467C13.644 17.4467 13.3826 17.4038 13.1558 17.3168C12.9274 17.2312 12.7499 17.1267 12.6232 16.9997C12.4965 16.8762 12.4331 16.7556 12.4331 16.6432C12.4331 16.5877 12.4474 16.5308 12.4775 16.4735C12.5061 16.4134 12.5455 16.3626 12.5931 16.3182C12.6407 16.277 12.6912 16.2548 12.7467 16.2548C12.8101 16.2548 12.8705 16.2802 12.9274 16.3325C12.9829 16.3848 13.0527 16.4481 13.135 16.5211C13.2159 16.5941 13.319 16.6575 13.441 16.7112C13.5645 16.7652 13.7216 16.7936 13.9117 16.7936C14.0749 16.7936 14.2224 16.7667 14.3509 16.7144C14.4808 16.6622 14.5839 16.5827 14.6583 16.4767C14.7328 16.369 14.7707 16.2341 14.7707 16.0709C14.7707 15.8966 14.731 15.7538 14.6519 15.6396C14.571 15.5272 14.4647 15.432 14.3301 15.3544C14.197 15.2784 14.0528 15.2069 13.8974 15.1421C13.7438 15.0787 13.5867 15.0121 13.4282 14.9392C13.2682 14.8662 13.1239 14.7774 12.9905 14.6761C12.8591 14.5748 12.7543 14.4445 12.6737 14.2877C12.5946 14.1309 12.5549 13.9341 12.5549 13.6979C12.5549 13.4492 12.6025 13.2398 12.6944 13.0719C12.7879 12.904 12.9117 12.7677 13.067 12.6693C13.2206 12.5679 13.392 12.4982 13.5774 12.4538C13.7646 12.4109 13.9485 12.3887 14.1307 12.3887C14.2434 12.3887 14.3701 12.3966 14.508 12.4126C14.6475 12.4284 14.7821 12.457 14.9138 12.495C15.0455 12.5329 15.1547 12.5837 15.242 12.6471C15.3276 12.7122 15.3705 12.7899 15.3705 12.8801C15.3705 12.9259 15.3594 12.9785 15.3372 13.0401C15.3133 13.1002 15.2817 13.1543 15.2391 13.2001C15.1947 13.2459 15.1392 13.2681 15.0709 13.2681C15.0122 13.2681 14.9456 13.2459 14.8729 13.203C14.8014 13.1601 14.7065 13.1157 14.5906 13.0746C14.475 13.0302 14.3211 13.008 14.131 13.008C13.9663 13.008 13.8203 13.0316 13.6904 13.0778C13.5619 13.1221 13.4603 13.1887 13.3876 13.2775C13.3146 13.3662 13.2781 13.4836 13.2781 13.6293C13.2781 13.7753 13.3178 13.8942 13.397 13.9876C13.4761 14.0796 13.5824 14.1587 13.7138 14.2253C13.8454 14.2918 13.9897 14.3552 14.1465 14.4124C14.3033 14.4726 14.4604 14.5424 14.6172 14.6218C14.7739 14.7009 14.9199 14.7978 15.0531 14.9103C15.1877 15.0247 15.294 15.1707 15.3749 15.345Z" fill="url(#paint3_linear_4285_12938)"/>
<defs>
<linearGradient id="paint0_linear_4285_12938" x1="12" y1="24.6976" x2="12" y2="0.499738" gradientUnits="userSpaceOnUse">
<stop stop-color="#162D4B"/>
<stop offset="0.4577" stop-color="#05AB9E"/>
<stop offset="1" stop-color="#79398E"/>
</linearGradient>
<linearGradient id="paint1_linear_4285_12938" x1="10.0784" y1="17.262" x2="10.0784" y2="12.4511" gradientUnits="userSpaceOnUse">
<stop stop-color="#162D4B"/>
<stop offset="0.231" stop-color="#03A69C"/>
</linearGradient>
<linearGradient id="paint2_linear_4285_12938" x1="5.41218" y1="17.2622" x2="5.41218" y2="12.4511" gradientUnits="userSpaceOnUse">
<stop stop-color="#162D4B"/>
<stop offset="0.231" stop-color="#03A69C"/>
</linearGradient>
<linearGradient id="paint3_linear_4285_12938" x1="13.9634" y1="17.2844" x2="13.9634" y2="12.3886" gradientUnits="userSpaceOnUse">
<stop stop-color="#162D4B"/>
<stop offset="0.231" stop-color="#03A69C"/>
</linearGradient>
</defs>
</svg>