<svg width="32" height="30" viewBox="0 0 32 30" fill="none" xmlns="http://www.w3.org/2000/svg">
<path d="M28.2214 18.4666C28.2911 18.4666 28.358 18.4397 28.4072 18.3919C28.4565 18.344 28.4842 18.2791 28.4842 18.2114V15.43V14.1949C28.4842 13.4504 28.1796 12.7365 27.6375 12.2101C27.0953 11.6837 26.3599 11.3879 25.5931 11.3879H23.5326L23.2225 9.21889C23.1557 8.90007 22.9751 8.61438 22.7126 8.41222C22.45 8.21007 22.1224 8.10443 21.7874 8.11396H20.702V2.75518C20.702 2.6875 20.6743 2.6226 20.625 2.57474C20.5757 2.52688 20.5088 2.5 20.4391 2.5H12.8382C12.7685 2.5 12.7016 2.52688 12.6524 2.57474C12.6031 2.6226 12.5754 2.6875 12.5754 2.75518C12.5754 2.82286 12.6031 2.88776 12.6524 2.93562C12.7016 2.98348 12.7685 3.01036 12.8382 3.01036H20.1763V11.3981H10.9774V3.01291H11.5241C11.5938 3.01291 11.6606 2.98603 11.7099 2.93817C11.7592 2.89032 11.7869 2.82541 11.7869 2.75773C11.7869 2.69005 11.7592 2.62515 11.7099 2.57729C11.6606 2.52944 11.5938 2.50255 11.5241 2.50255H10.7119C10.6422 2.50255 10.5754 2.52944 10.5261 2.57729C10.4768 2.62515 10.4491 2.69005 10.4491 2.75773V11.3981H8.42536L8.72761 9.30055C8.77725 9.10398 8.89551 8.93019 9.06227 8.80876C9.22903 8.68733 9.43399 8.62576 9.64224 8.63453H10.4307V8.12417H9.64224C9.30717 8.11413 8.97925 8.21957 8.71659 8.42181C8.45393 8.62406 8.27348 8.91004 8.20721 9.2291L7.89445 11.3981H6.37794C5.61346 11.4015 4.88147 11.6987 4.34213 12.2248C3.80278 12.7508 3.49999 13.4629 3.5 14.2051V15.4376V20.3014C3.5 20.6488 3.64197 20.982 3.89475 21.2279C4.14753 21.4738 4.49047 21.6123 4.8483 21.613H10.3203L9.91558 27.227C9.91305 27.2619 9.91798 27.297 9.93005 27.3301C9.94212 27.3631 9.96108 27.3934 9.98574 27.4191C10.0104 27.4447 10.0402 27.4651 10.0734 27.479C10.1065 27.4929 10.1423 27.5001 10.1784 27.5H20.9858C21.0223 27.5002 21.0584 27.4931 21.0919 27.479C21.1254 27.465 21.1555 27.4443 21.1803 27.4183C21.2045 27.3927 21.2231 27.3624 21.2349 27.3295C21.2466 27.2966 21.2513 27.2617 21.2486 27.227L20.8439 21.613H27.1517C27.5095 21.6123 27.8525 21.4738 28.1053 21.2279C28.358 20.982 28.5 20.6488 28.5 20.3014V19.4873C28.5 19.4197 28.4723 19.3548 28.423 19.3069C28.3737 19.259 28.3069 19.2322 28.2372 19.2322C28.1675 19.2322 28.1006 19.259 28.0513 19.3069C28.002 19.3548 27.9743 19.4197 27.9743 19.4873V20.3014C27.9743 20.5134 27.8878 20.7168 27.7336 20.867C27.5794 21.0172 27.3701 21.102 27.1517 21.1026H23.7586V19.7247C23.7579 19.2326 23.5565 18.7609 23.1984 18.4127C22.8403 18.0645 22.3547 17.8683 21.8479 17.8669H9.58179C9.07455 17.8676 8.58828 18.0636 8.2296 18.4118C7.87092 18.76 7.66911 19.2322 7.66842 19.7247V21.1026H4.8483C4.62988 21.102 4.42064 21.0172 4.26644 20.867C4.11224 20.7168 4.02565 20.5134 4.02565 20.3014V15.6826H27.9586V18.2114C27.9586 18.2791 27.9863 18.344 28.0356 18.3919C28.0848 18.4397 28.1517 18.4666 28.2214 18.4666ZM10.4728 26.9998L10.9774 19.9671H20.1973L20.702 26.9998H10.4728ZM8.19407 19.7247C8.19477 19.3675 8.34119 19.0252 8.60129 18.7727C8.86139 18.5201 9.21396 18.378 9.58179 18.3773H21.8479C22.2155 18.378 22.5678 18.5202 22.8274 18.7728C23.0871 19.0254 23.233 19.3678 23.233 19.7247V21.1026H20.7939L20.723 19.9671H21.5614C21.6311 19.9671 21.698 19.9402 21.7472 19.8923C21.7965 19.8445 21.8242 19.7796 21.8242 19.7119C21.8242 19.6442 21.7965 19.5793 21.7472 19.5315C21.698 19.4836 21.6311 19.4567 21.5614 19.4567H9.60019C9.53048 19.4567 9.46363 19.4836 9.41434 19.5315C9.36505 19.5793 9.33736 19.6442 9.33736 19.7119C9.33736 19.7796 9.36505 19.8445 9.41434 19.8923C9.46363 19.9402 9.53048 19.9671 9.60019 19.9671H10.4386L10.3545 21.1026H8.19407V19.7247ZM20.702 8.63453H21.7874C21.9957 8.62576 22.2006 8.68733 22.3674 8.80876C22.5342 8.93019 22.6524 9.10398 22.7021 9.30055L23.0017 11.3981H20.702V8.63453ZM4.02565 15.1722V14.1949C4.02565 13.5858 4.27487 13.0016 4.71847 12.5709C5.16208 12.1402 5.76373 11.8983 6.39108 11.8983H25.6063C26.2336 11.8983 26.8353 12.1402 27.2789 12.5709C27.7225 13.0016 27.9717 13.5858 27.9717 14.1949V15.1722H4.02565ZM19.0356 21.8962C19.0356 21.9639 19.0079 22.0288 18.9587 22.0767C18.9094 22.1245 18.8425 22.1514 18.7728 22.1514H12.0997C12.03 22.1514 11.9631 22.1245 11.9138 22.0767C11.8645 22.0288 11.8368 21.9639 11.8368 21.8962C11.8368 21.8286 11.8645 21.7637 11.9138 21.7158C11.9631 21.6679 12.03 21.6411 12.0997 21.6411H18.7728C18.8425 21.6411 18.9094 21.6679 18.9587 21.7158C19.0079 21.7637 19.0356 21.8286 19.0356 21.8962ZM19.0356 23.5141C19.0356 23.5818 19.0079 23.6467 18.9587 23.6945C18.9094 23.7424 18.8425 23.7693 18.7728 23.7693H12.0997C12.03 23.7693 11.9631 23.7424 11.9138 23.6945C11.8645 23.6467 11.8368 23.5818 11.8368 23.5141C11.8368 23.4464 11.8645 23.3815 11.9138 23.3336C11.9631 23.2858 12.03 23.2589 12.0997 23.2589H18.7728C18.8425 23.2589 18.9094 23.2858 18.9587 23.3336C19.0079 23.3815 19.0356 23.4464 19.0356 23.5141ZM19.0356 25.1294C19.0356 25.197 19.0079 25.262 18.9587 25.3098C18.9094 25.3577 18.8425 25.3846 18.7728 25.3846H12.0997C12.03 25.3846 11.9631 25.3577 11.9138 25.3098C11.8645 25.262 11.8368 25.197 11.8368 25.1294C11.8368 25.0617 11.8645 24.9968 11.9138 24.9489C11.9631 24.9011 12.03 24.8742 12.0997 24.8742H18.7728C18.8425 24.8742 18.9094 24.9011 18.9587 24.9489C19.0079 24.9968 19.0356 25.0617 19.0356 25.1294ZM26.2765 12.7455H24.8861C24.8164 12.7455 24.7496 12.7724 24.7003 12.8202C24.651 12.8681 24.6233 12.933 24.6233 13.0007V14.348C24.6233 14.4157 24.651 14.4806 24.7003 14.5285C24.7496 14.5763 24.8164 14.6032 24.8861 14.6032H26.2765C26.3462 14.6032 26.413 14.5763 26.4623 14.5285C26.5116 14.4806 26.5393 14.4157 26.5393 14.348V13.0007C26.5393 12.933 26.5116 12.8681 26.4623 12.8202C26.413 12.7724 26.3462 12.7455 26.2765 12.7455ZM26.0137 14.0928H25.149V13.2558H26.0137V14.0928ZM23.4958 12.7455H22.1081C22.0384 12.7455 21.9715 12.7724 21.9222 12.8202C21.8729 12.8681 21.8452 12.933 21.8452 13.0007V14.348C21.8452 14.4157 21.8729 14.4806 21.9222 14.5285C21.9715 14.5763 22.0384 14.6032 22.1081 14.6032H23.4958C23.5655 14.6032 23.6324 14.5763 23.6816 14.5285C23.7309 14.4806 23.7586 14.4157 23.7586 14.348V13.0007C23.7586 12.933 23.7309 12.8681 23.6816 12.8202C23.6324 12.7724 23.5655 12.7455 23.4958 12.7455ZM23.233 14.0928H22.3709V13.2558H23.233V14.0928ZM7.91548 13.5391C7.91548 13.6068 7.88778 13.6717 7.8385 13.7195C7.78921 13.7674 7.72236 13.7943 7.65265 13.7943H6.26756C6.19785 13.7943 6.131 13.7674 6.08171 13.7195C6.03242 13.6717 6.00473 13.6068 6.00473 13.5391C6.00473 13.4714 6.03242 13.4065 6.08171 13.3587C6.131 13.3108 6.19785 13.2839 6.26756 13.2839H7.65528C7.72453 13.2846 7.7907 13.3118 7.83943 13.3595C7.88815 13.4073 7.91548 13.4719 7.91548 13.5391ZM10.6962 13.5391C10.6962 13.6068 10.6685 13.6717 10.6192 13.7195C10.5699 13.7674 10.5031 13.7943 10.4333 13.7943H9.043C8.97329 13.7943 8.90644 13.7674 8.85715 13.7195C8.80786 13.6717 8.78017 13.6068 8.78017 13.5391C8.78017 13.4714 8.80786 13.4065 8.85715 13.3587C8.90644 13.3108 8.97329 13.2839 9.043 13.2839H10.4333C10.5031 13.2839 10.5699 13.3108 10.6192 13.3587C10.6685 13.4065 10.6962 13.4714 10.6962 13.5391Z" fill="url(#paint0_linear_295_9249)"/>
<defs>
<linearGradient id="paint0_linear_295_9249" x1="15.9924" y1="27.1348" x2="15.9924" y2="2.51794" gradientUnits="userSpaceOnUse">
<stop stop-color="#0B2C4C"/>
<stop offset="0.5" stop-color="#00A99D"/>
<stop offset="1" stop-color="#81319B"/>
</linearGradient>
</defs>
</svg>
