<svg width="30" height="30" viewBox="-3 0 30 26" fill="none" xmlns="http://www.w3.org/2000/svg">
<path d="M23.3876 7.85611L16.2698 0.614405C16.1978 0.541162 16.1002 0.5 15.9984 0.5H7.93624C6.05977 0.5 4.53309 2.05294 4.53309 3.96175V10.8131H1.54636C0.96937 10.8131 0.5 11.2906 0.5 11.8775V17.9966C0.5 18.5835 0.969418 19.061 1.54636 19.061H4.53309V22.0383C4.53309 23.9471 6.05972 25.5 7.93624 25.5H20.0969C21.9734 25.5 23.5 23.9471 23.5 22.0383V8.13204C23.5 8.02852 23.4596 7.92931 23.3876 7.85611ZM16.3822 1.83282L22.19 7.74171H16.7658C16.5543 7.74171 16.3821 7.56597 16.3821 7.35005V1.83282H16.3822ZM1.26742 17.9967V11.8775C1.26742 11.7237 1.39515 11.5937 1.54636 11.5937H17.9442C18.098 11.5937 18.2232 11.721 18.2232 11.8775V17.9966C18.2232 18.1531 18.098 18.2804 17.9442 18.2804H1.54641C1.3952 18.2804 1.26742 18.1505 1.26742 17.9967ZM20.0969 24.7193H7.93624C6.48291 24.7193 5.30055 23.5166 5.30055 22.0383V19.061H17.9443C18.5213 19.061 18.9906 18.5835 18.9906 17.9966V11.8775C18.9906 11.2906 18.5212 10.8131 17.9443 10.8131H5.30055V3.96175C5.30055 2.48341 6.48291 1.28072 7.93624 1.28072H15.6147V7.35005C15.6147 7.99649 16.1311 8.52243 16.7658 8.52243H22.7325V22.0383C22.7326 23.5166 21.5502 24.7193 20.0969 24.7193ZM5.57268 12.4533H4.3358C4.12387 12.4533 3.95206 12.628 3.95206 12.8436V14.9059V15.4125V17.0319C3.95206 17.2474 4.12387 17.4222 4.3358 17.4222C4.54773 17.4222 4.71953 17.2474 4.71953 17.0319V15.8028H5.57268C6.4663 15.8028 7.1933 15.0632 7.1933 14.1543V14.1017C7.1933 13.1928 6.4663 12.4533 5.57268 12.4533ZM6.42588 14.1544C6.42588 14.6329 6.04316 15.0221 5.57273 15.0221H4.71958V14.9059V13.2339H5.57273C6.04316 13.2339 6.42588 13.6232 6.42588 14.1017V14.1544ZM9.70787 12.4533H8.47099C8.25906 12.4533 8.08725 12.628 8.08725 12.8436V17.0319C8.08725 17.2474 8.25906 17.4222 8.47099 17.4222H9.70787C10.6015 17.4222 11.3284 16.6826 11.3284 15.7737V14.1017C11.3285 13.1928 10.6015 12.4533 9.70787 12.4533ZM10.561 15.7738C10.561 16.2523 10.1783 16.6415 9.70787 16.6415H8.85472V13.2339H9.70787C10.1783 13.2339 10.561 13.6232 10.561 14.1017V15.7738ZM15.5399 12.8436C15.5399 13.0592 15.3681 13.2339 15.1561 13.2339H13.0661V14.3163H14.85C15.0619 14.3163 15.2337 14.491 15.2337 14.7066C15.2337 14.9222 15.0619 15.0969 14.85 15.0969H13.0661V17.0319C13.0661 17.2474 12.8943 17.4222 12.6824 17.4222C12.4704 17.4222 12.2986 17.2474 12.2986 17.0319V12.8436C12.2986 12.628 12.4704 12.4533 12.6824 12.4533H15.1561C15.3681 12.4533 15.5399 12.628 15.5399 12.8436Z" fill="url(#paint0_linear_1924_9010)"/>
<defs>
<linearGradient id="paint0_linear_1924_9010" x1="15.7064" y1="25.5002" x2="15.7064" y2="0.5" gradientUnits="userSpaceOnUse">
<stop stop-color="#0B2C4C"/>
<stop offset="0.5" stop-color="#00A99D"/>
<stop offset="1" stop-color="#81319B"/>
</linearGradient>
</defs>
</svg>
