<svg width="30" height="30" viewBox="0 0 30 30" fill="none" xmlns="http://www.w3.org/2000/svg">
<path d="M27.3308 11.6212L27.335 11.6154L24.5833 9.50985V5.64638C24.5833 5.53492 24.5394 5.42802 24.4613 5.34921C24.3832 5.27039 24.2772 5.22612 24.1667 5.22612H18.9858L15.7571 2.75708C15.5396 2.5903 15.2739 2.5 15.0006 2.5C14.7274 2.5 14.4617 2.5903 14.2442 2.75708L11.0142 5.22612H5.83333C5.72283 5.22612 5.61685 5.27039 5.53871 5.34921C5.46057 5.42802 5.41667 5.53492 5.41667 5.64638V9.50985L2.66667 11.6141L2.67083 11.62C2.6186 11.6576 2.57591 11.7071 2.54622 11.7645C2.51654 11.8219 2.5007 11.8856 2.5 11.9503V27.0797C2.5 27.1912 2.5439 27.2981 2.62204 27.3769C2.70018 27.4557 2.80616 27.5 2.91667 27.5H27.0833C27.1938 27.5 27.2998 27.4557 27.378 27.3769C27.4561 27.2981 27.5 27.1912 27.5 27.0797V11.9503C27.4993 11.8859 27.4836 11.8226 27.4542 11.7655C27.4249 11.7083 27.3826 11.6589 27.3308 11.6212ZM24.5833 10.5634L26.4125 11.9629L24.5833 13.4906V10.5634ZM14.75 3.42487C14.8221 3.36847 14.9107 3.33786 15.0019 3.33786C15.0931 3.33786 15.1817 3.36847 15.2537 3.42487L17.6067 5.22612H12.3933L14.75 3.42487ZM6.25 6.06664H23.75V14.1861L18.0208 18.9687L15.8008 17.1162C15.5768 16.9264 15.2936 16.8224 15.001 16.8224C14.7085 16.8224 14.4253 16.9264 14.2013 17.1162L11.9792 18.9687L6.25 14.1861V6.06664ZM3.5875 11.9646L5.41667 10.5634V13.4889L3.5875 11.9646ZM3.33333 12.8434L11.3254 19.515L3.33333 26.1863V12.8434ZM4.07375 26.6595L14.7346 17.7608C14.8094 17.6977 14.9039 17.6633 15.0014 17.6637C15.0989 17.6641 15.1932 17.6992 15.2675 17.763L25.9262 26.6595H4.07375ZM26.6667 26.1863L18.6746 19.515L26.6667 12.8434V26.1863Z" fill="url(#paint0_linear_295_9252)"/>
<path d="M15 15.3128H17.0833C17.1938 15.3128 17.2998 15.2685 17.378 15.1897C17.4561 15.1109 17.5 15.004 17.5 14.8925C17.5 14.781 17.4561 14.6741 17.378 14.5953C17.2998 14.5165 17.1938 14.4722 17.0833 14.4722H15C14.2265 14.4722 13.4846 14.1623 12.9376 13.6106C12.3906 13.0589 12.0833 12.3106 12.0833 11.5304C12.0833 10.7502 12.3906 10.0019 12.9376 9.45021C13.4846 8.89851 14.2265 8.58857 15 8.58857H15.8333C16.3857 8.58924 16.9152 8.81084 17.3057 9.20477C17.6963 9.59869 17.916 10.1328 17.9167 10.6899V12.3709C17.9167 12.4824 17.8728 12.5893 17.7946 12.6681C17.7165 12.7469 17.6105 12.7912 17.5 12.7912C17.3895 12.7912 17.2835 12.7469 17.2054 12.6681C17.1272 12.5893 17.0833 12.4824 17.0833 12.3709V10.6899C17.0833 10.3555 16.9516 10.0348 16.7172 9.79837C16.4828 9.56193 16.1649 9.42909 15.8333 9.42909H15C14.6585 9.42812 14.322 9.51182 14.0201 9.67284C13.7183 9.83386 13.4603 10.0673 13.2688 10.3525C13.0774 10.6377 12.9584 10.966 12.9224 11.3085C12.8863 11.6511 12.9343 11.9973 13.0621 12.3167C13.1899 12.6361 13.3935 12.9189 13.6552 13.1403C13.9168 13.3616 14.2283 13.5147 14.5624 13.5861C14.8965 13.6575 15.2429 13.6449 15.571 13.5495C15.8991 13.4542 16.199 13.2789 16.4442 13.0391C16.5877 13.2711 16.8023 13.4497 17.0554 13.5477C17.3085 13.6457 17.5864 13.6579 17.847 13.5823C18.1076 13.5068 18.3367 13.3477 18.4996 13.1292C18.6626 12.9106 18.7504 12.6444 18.75 12.3709V10.6899C18.7491 9.90993 18.4415 9.16218 17.8948 8.61067C17.348 8.05916 16.6066 7.74894 15.8333 7.74805H15C14.0054 7.74805 13.0516 8.14654 12.3483 8.85587C11.6451 9.5652 11.25 10.5273 11.25 11.5304C11.25 12.5335 11.6451 13.4956 12.3483 14.2049C13.0516 14.9143 14.0054 15.3128 15 15.3128ZM15 12.7912C14.6685 12.7912 14.3505 12.6584 14.1161 12.4219C13.8817 12.1855 13.75 11.8648 13.75 11.5304C13.75 11.196 13.8817 10.8753 14.1161 10.6389C14.3505 10.4025 14.6685 10.2696 15 10.2696H15.8333C15.9438 10.2696 16.0498 10.3139 16.128 10.3927C16.2061 10.4715 16.25 10.5784 16.25 10.6899V11.5304C16.25 11.8648 16.1183 12.1855 15.8839 12.4219C15.6495 12.6584 15.3315 12.7912 15 12.7912Z" fill="url(#paint1_linear_295_9252)"/>
<defs>
<linearGradient id="paint0_linear_295_9252" x1="15" y1="29.8762" x2="15" y2="2.53307" gradientUnits="userSpaceOnUse">
<stop stop-color="#0B2C4C"/>
<stop offset="0.5" stop-color="#00A99D"/>
<stop offset="1" stop-color="#81319B"/>
</linearGradient>
<linearGradient id="paint1_linear_295_9252" x1="15" y1="29.8765" x2="15" y2="2.53344" gradientUnits="userSpaceOnUse">
<stop stop-color="#0B2C4C"/>
<stop offset="0.5" stop-color="#00A99D"/>
<stop offset="1" stop-color="#81319B"/>
</linearGradient>
</defs>
</svg>
