<svg width="28" height="28" viewBox="0 0 28 28" fill="none" xmlns="http://www.w3.org/2000/svg">
<path d="M13.9996 3.81641C11.9744 3.81641 10.032 4.62095 8.59992 6.05305C7.16782 7.48514 6.36328 9.42748 6.36328 11.4528V16.0168L5.46346 16.9166C5.28552 17.0946 5.16435 17.3213 5.11526 17.5682C5.06618 17.815 5.09138 18.0709 5.18769 18.3034C5.28399 18.5359 5.44708 18.7347 5.65633 18.8746C5.86558 19.0144 6.11159 19.0891 6.36328 19.0891H21.636C21.8877 19.0891 22.1337 19.0144 22.343 18.8746C22.5522 18.7347 22.7153 18.5359 22.8116 18.3034C22.9079 18.0709 22.9331 17.815 22.884 17.5682C22.8349 17.3213 22.7138 17.0946 22.5358 16.9166L21.636 16.0168V11.4528C21.636 9.42748 20.8315 7.48514 19.3994 6.05305C17.9673 4.62095 16.0249 3.81641 13.9996 3.81641ZM13.9996 24.18C12.987 24.18 12.0158 23.7778 11.2998 23.0617C10.5837 22.3457 10.1815 21.3745 10.1815 20.3619H17.8178C17.8178 21.3745 17.4156 22.3457 16.6995 23.0617C15.9835 23.7778 15.0123 24.18 13.9996 24.18Z" fill="white"/>
</svg>
