<svg width="12" height="12" viewBox="0 0 12 12" fill="none" xmlns="http://www.w3.org/2000/svg">
<path d="M5.99896 0.182312C4.84165 0.182312 3.73174 0.642051 2.9134 1.46039C2.09506 2.27873 1.63532 3.38864 1.63532 4.54595V7.15395L1.12114 7.66813C1.01946 7.76984 0.950218 7.89941 0.922169 8.04047C0.89412 8.18153 0.908522 8.32773 0.963555 8.46061C1.01859 8.59348 1.11178 8.70705 1.23135 8.78697C1.35092 8.86688 1.4915 8.90955 1.63532 8.90958H10.3626C10.5064 8.90955 10.647 8.86688 10.7666 8.78697C10.8861 8.70705 10.9793 8.59348 11.0344 8.46061C11.0894 8.32773 11.1038 8.18153 11.0757 8.04047C11.0477 7.89941 10.9785 7.76984 10.8768 7.66813L10.3626 7.15395V4.54595C10.3626 3.38864 9.90286 2.27873 9.08452 1.46039C8.26618 0.642051 7.15627 0.182312 5.99896 0.182312ZM5.99896 11.8187C5.4203 11.8187 4.86535 11.5888 4.45618 11.1796C4.04701 10.7705 3.81714 10.2155 3.81714 9.63686H8.18078C8.18078 10.2155 7.95091 10.7705 7.54174 11.1796C7.13257 11.5888 6.57761 11.8187 5.99896 11.8187Z" fill="#0B2C4C"/>
</svg>
