<svg xmlns="http://www.w3.org/2000/svg" width="16" height="18" viewBox="0 0 16 18" fill="none">
  <path d="M13.6363 1.63636H10.2163C9.87268 0.687273 8.97268 0 7.90905 0C6.84541 0 5.94541 0.687273 5.60177 1.63636H2.18177C1.28177 1.63636 0.54541 2.37273 0.54541 3.27273V16.3636C0.54541 17.2636 1.28177 18 2.18177 18H13.6363C14.5363 18 15.2727 17.2636 15.2727 16.3636V3.27273C15.2727 2.37273 14.5363 1.63636 13.6363 1.63636ZM7.90905 1.63636C8.35905 1.63636 8.72723 2.00455 8.72723 2.45455C8.72723 2.90455 8.35905 3.27273 7.90905 3.27273C7.45905 3.27273 7.09086 2.90455 7.09086 2.45455C7.09086 2.00455 7.45905 1.63636 7.90905 1.63636ZM13.6363 16.3636H2.18177V3.27273H3.81814V5.72727H12V3.27273H13.6363V16.3636Z" fill="#0B2C4C"/>
</svg>