<svg width="40" height="40" viewBox="0 0 40 40" fill="none" xmlns="http://www.w3.org/2000/svg">
<path fill-rule="evenodd" clip-rule="evenodd" d="M9 8.75C9 7.75544 9.38631 6.80161 10.0739 6.09835C10.7616 5.39509 11.6942 5 12.6667 5H21.0743C22.0467 5.00021 22.9792 5.39544 23.6667 6.09875L29.9257 12.5C30.6133 13.2031 30.9998 14.1568 31 15.1512V31.25C31 32.2446 30.6137 33.1984 29.9261 33.9016C29.2384 34.6049 28.3058 35 27.3333 35H12.6667C11.6942 35 10.7616 34.6049 10.0739 33.9016C9.38631 33.1984 9 32.2446 9 31.25V8.75Z" fill="#F44C4D"/>
<path d="M9 17H31" stroke="white"/>
<path d="M13.0605 24.87C13.1272 24.8567 13.1938 24.8467 13.2605 24.84C13.3338 24.8333 13.4072 24.83 13.4805 24.83C13.5472 24.83 13.6172 24.8333 13.6905 24.84C13.7638 24.8467 13.8338 24.8567 13.9005 24.87C13.9072 24.8833 13.9138 24.9267 13.9205 25C13.9338 25.0667 13.9438 25.14 13.9505 25.22C13.9638 25.3 13.9738 25.3767 13.9805 25.45C13.9938 25.5233 14.0005 25.57 14.0005 25.59C14.0672 25.4833 14.1472 25.38 14.2405 25.28C14.3338 25.18 14.4438 25.09 14.5705 25.01C14.7038 24.93 14.8505 24.8667 15.0105 24.82C15.1772 24.7733 15.3605 24.75 15.5605 24.75C15.8605 24.75 16.1372 24.8 16.3905 24.9C16.6505 25 16.8705 25.1567 17.0505 25.37C17.2372 25.5767 17.3805 25.8433 17.4805 26.17C17.5872 26.49 17.6405 26.87 17.6405 27.31C17.6405 28.19 17.4005 28.88 16.9205 29.38C16.4472 29.8733 15.7738 30.12 14.9005 30.12C14.7538 30.12 14.6038 30.11 14.4505 30.09C14.2972 30.07 14.1638 30.0433 14.0505 30.01V32.36C13.9705 32.3733 13.8838 32.3833 13.7905 32.39C13.7038 32.3967 13.6238 32.4 13.5505 32.4C13.4772 32.4 13.3938 32.3967 13.3005 32.39C13.2138 32.3833 13.1338 32.3733 13.0605 32.36V24.87ZM14.0505 29.16C14.1772 29.2067 14.3072 29.24 14.4405 29.26C14.5738 29.28 14.7472 29.29 14.9605 29.29C15.2005 29.29 15.4205 29.2533 15.6205 29.18C15.8205 29.1 15.9905 28.98 16.1305 28.82C16.2772 28.66 16.3905 28.46 16.4705 28.22C16.5572 27.9733 16.6005 27.6833 16.6005 27.35C16.6005 26.8167 16.5005 26.3933 16.3005 26.08C16.1072 25.7667 15.7872 25.61 15.3405 25.61C15.1738 25.61 15.0138 25.64 14.8605 25.7C14.7072 25.76 14.5705 25.85 14.4505 25.97C14.3305 26.09 14.2338 26.2433 14.1605 26.43C14.0872 26.61 14.0505 26.8267 14.0505 27.08V29.16ZM22.2589 22.67C22.3323 22.6567 22.4156 22.6467 22.5089 22.64C22.6023 22.6333 22.6823 22.63 22.7489 22.63C22.8223 22.63 22.9023 22.6333 22.9889 22.64C23.0823 22.6467 23.1656 22.6567 23.2389 22.67V29.86C22.9856 29.9333 22.7023 29.9933 22.3889 30.04C22.0756 30.0933 21.7256 30.12 21.3389 30.12C20.9789 30.12 20.6356 30.0767 20.3089 29.99C19.9889 29.8967 19.7089 29.7467 19.4689 29.54C19.2289 29.3333 19.0389 29.0667 18.8989 28.74C18.7589 28.4133 18.6889 28.01 18.6889 27.53C18.6889 27.1167 18.7489 26.74 18.8689 26.4C18.9956 26.06 19.1723 25.77 19.3989 25.53C19.6256 25.2833 19.8956 25.0933 20.2089 24.96C20.5289 24.8267 20.8823 24.76 21.2689 24.76C21.4423 24.76 21.6156 24.7733 21.7889 24.8C21.9689 24.8267 22.1256 24.86 22.2589 24.9V22.67ZM22.2589 25.74C22.1256 25.6867 21.9823 25.6467 21.8289 25.62C21.6756 25.5933 21.5089 25.58 21.3289 25.58C21.0556 25.58 20.8189 25.63 20.6189 25.73C20.4189 25.83 20.2523 25.9667 20.1189 26.14C19.9923 26.3133 19.8956 26.52 19.8289 26.76C19.7689 26.9933 19.7389 27.25 19.7389 27.53C19.7456 28.1633 19.8956 28.6167 20.1889 28.89C20.4823 29.1633 20.8823 29.3 21.3889 29.3C21.5623 29.3 21.7223 29.2933 21.8689 29.28C22.0156 29.26 22.1456 29.2333 22.2589 29.2V25.74ZM25.1783 25.65H24.3383C24.3117 25.5433 24.2983 25.4133 24.2983 25.26C24.2983 25.1133 24.3117 24.9833 24.3383 24.87H25.1783V24.51C25.1783 23.8767 25.335 23.3967 25.6483 23.07C25.9683 22.7367 26.4317 22.57 27.0383 22.57C27.205 22.57 27.3517 22.58 27.4783 22.6C27.605 22.6133 27.725 22.6367 27.8383 22.67C27.825 22.8367 27.805 22.98 27.7783 23.1C27.7583 23.22 27.7283 23.3433 27.6883 23.47C27.6217 23.4567 27.5417 23.4433 27.4483 23.43C27.3617 23.41 27.255 23.4 27.1283 23.4C26.9817 23.4 26.8483 23.4167 26.7283 23.45C26.615 23.4767 26.515 23.5333 26.4283 23.62C26.3483 23.7 26.285 23.8167 26.2383 23.97C26.1917 24.1167 26.1683 24.3067 26.1683 24.54V24.87H27.4783C27.4983 25.0033 27.5083 25.14 27.5083 25.28C27.5083 25.4067 27.4983 25.53 27.4783 25.65H26.1683V30C26.095 30.0133 26.0117 30.0233 25.9183 30.03C25.8317 30.0367 25.7517 30.04 25.6783 30.04C25.605 30.04 25.5217 30.0367 25.4283 30.03C25.335 30.0233 25.2517 30.0133 25.1783 30V25.65Z" fill="white"/>
</svg>
