<svg width="25" height="26" viewBox="0 0 25 26" fill="none" xmlns="http://www.w3.org/2000/svg">
<path d="M24.9991 4.4373C24.9991 3.3841 24.5884 2.39466 23.8415 1.65086C22.3001 0.115755 19.795 0.117005 18.2561 1.65086L1.99437 17.8607C1.99374 17.8614 1.99374 17.8632 1.99312 17.8638C1.94124 17.9157 1.90311 17.9789 1.87311 18.0457C1.86623 18.0614 1.85936 18.077 1.85311 18.0932C1.84748 18.1082 1.83936 18.1214 1.83498 18.137L0.0217323 24.7087C-0.0388969 24.9268 0.0242325 25.1606 0.184869 25.3194C0.303627 25.4369 0.461762 25.5 0.624274 25.5C0.682402 25.5 0.741157 25.4919 0.797411 25.4756L7.31348 23.5911C7.32723 23.5874 7.33974 23.5792 7.35286 23.5742C7.36849 23.5686 7.38349 23.5617 7.39911 23.5542C7.46599 23.5236 7.52912 23.4855 7.58163 23.433L21.8039 9.25638C21.8039 9.25638 21.8076 9.25451 21.8089 9.25326C21.8101 9.25201 21.8107 9.24951 21.812 9.24826L23.8434 7.22374C24.5897 6.47994 25.0009 5.4905 25.0009 4.43793L24.9991 4.4373ZM7.13847 22.1079L3.32133 18.3033L16.661 5.00609L20.4781 8.81073L7.13785 22.1079H7.13847ZM2.7538 19.5021L5.94651 22.6842L1.52246 23.9636L2.7538 19.5021ZM22.9589 6.33806L21.3638 7.92817L17.5467 4.12353L19.1393 2.53592C20.1919 1.48772 21.9057 1.48647 22.9589 2.53592C23.4683 3.04346 23.749 3.71913 23.749 4.4373C23.749 5.15548 23.469 5.83052 22.9589 6.33806Z" fill="url(#paint0_linear_4681_8976)"/>
<defs>
<linearGradient id="paint0_linear_4681_8976" x1="12.5" y1="0.5" x2="12.5" y2="25.5" gradientUnits="userSpaceOnUse">
<stop stop-color="#81319B"/>
<stop offset="0.48" stop-color="#00A99D"/>
<stop offset="1" stop-color="#0B2C4C"/>
</linearGradient>
</defs>
</svg>
