<svg width="60" height="61" viewBox="0 0 60 61" fill="none" xmlns="http://www.w3.org/2000/svg">
<path d="M44.9715 25.5796C47.7244 25.5796 49.9652 23.3192 49.9652 20.5398C49.9652 17.7604 47.7254 15.5 44.9715 15.5C42.2185 15.5 39.9777 17.7604 39.9777 20.5398C39.9777 23.3192 42.2175 25.5796 44.9715 25.5796ZM44.9715 16.5308C47.1622 16.5308 48.9448 18.3299 48.9448 20.5408C48.9448 22.7518 47.1622 24.5509 44.9715 24.5509C42.7807 24.5509 40.9981 22.7518 40.9981 20.5408C40.9981 18.3299 42.7807 16.5308 44.9715 16.5308ZM54.9671 36.1114C54.6181 33.7088 53.4242 31.4907 51.6039 29.8656C49.7682 28.2252 47.4153 27.3025 44.9786 27.2654C44.9735 27.2654 44.9684 27.2654 44.9633 27.2654C41.7542 27.3138 38.7655 28.8853 36.8615 31.4968C34.8799 30.0088 32.4841 29.1777 30.0117 29.1407C30.0066 29.1407 30.0015 29.1407 29.9964 29.1407C27.523 29.1788 25.1241 30.0098 23.1416 31.501C21.2386 28.8873 18.2489 27.3148 15.0367 27.2664C15.0316 27.2664 15.0265 27.2664 15.0214 27.2664C12.5848 27.3035 10.2318 28.2272 8.39611 29.8667C6.57678 31.4917 5.38192 33.7099 5.03295 36.1124C4.86765 37.2513 5.3309 38.3182 6.27271 38.967C8.81548 40.7197 12.5939 41.5178 15.0285 41.5178C16.0999 41.5178 17.4121 41.353 18.6917 41.0616C18.9284 41.6527 19.3366 42.1707 19.8968 42.5568C22.8303 44.5794 27.1924 45.5 30.0026 45.5C32.8137 45.5 37.1748 44.5794 40.1083 42.5568C40.6685 42.1707 41.0767 41.6537 41.3134 41.0636C42.5909 41.354 43.9001 41.5178 44.9694 41.5178C47.404 41.5178 51.1825 40.7197 53.7253 38.967C54.6691 38.3172 55.1324 37.2493 54.9671 36.1114ZM18.4958 39.3253C18.4601 39.5735 18.4509 39.8176 18.4662 40.0565C17.2601 40.3315 16.0295 40.487 15.0306 40.487C13.1255 40.487 9.37363 39.8557 6.85024 38.1153C6.23802 37.6931 5.93701 37.0001 6.04414 36.2596C6.69412 31.7883 10.5562 28.3652 15.0306 28.2942C17.9356 28.3405 20.6386 29.774 22.3508 32.1508C20.2651 34.0209 18.8968 36.5676 18.4958 39.3253ZM39.5349 41.7052C36.5932 43.7329 32.2239 44.4692 30.0046 44.4692C27.7853 44.4692 23.416 43.7329 20.4743 41.7052C19.7386 41.1985 19.3764 40.3644 19.506 39.4747C20.2651 34.2515 24.7772 30.2518 30.0056 30.1684C35.233 30.2518 39.7461 34.2505 40.5043 39.4747C40.6328 40.3644 40.2706 41.1985 39.5349 41.7052ZM53.1518 38.1153C50.6274 39.8547 46.8765 40.487 44.9715 40.487C43.9746 40.487 42.747 40.3325 41.543 40.0586C41.5583 39.8186 41.5491 39.5735 41.5134 39.3253C41.1124 36.5655 39.742 34.0168 37.6543 32.1466C39.3665 29.7719 42.0685 28.3405 44.9715 28.2942C49.4458 28.3663 53.3079 31.7893 53.9579 36.2596C54.065 37.0001 53.764 37.6942 53.1518 38.1153ZM15.0296 25.5796C17.7825 25.5796 20.0233 23.3192 20.0233 20.5398C20.0233 17.7604 17.7836 15.5 15.0296 15.5C12.2756 15.5 10.0359 17.7604 10.0359 20.5398C10.0359 23.3192 12.2766 25.5796 15.0296 25.5796ZM15.0296 16.5308C17.2203 16.5308 19.0029 18.3299 19.0029 20.5408C19.0029 22.7518 17.2203 24.5509 15.0296 24.5509C12.8388 24.5509 11.0562 22.7518 11.0562 20.5408C11.0562 18.3299 12.8388 16.5308 15.0296 16.5308ZM30.0046 27.0224C33.1525 27.0224 35.7126 24.4386 35.7126 21.2617C35.7126 18.0848 33.1525 15.501 30.0046 15.501C26.8567 15.501 24.2966 18.0848 24.2966 21.2617C24.2966 24.4386 26.8567 27.0224 30.0046 27.0224ZM30.0046 16.5308C32.5892 16.5308 34.6922 18.6532 34.6922 21.2617C34.6922 23.8702 32.5892 25.9926 30.0046 25.9926C27.42 25.9926 25.317 23.8702 25.317 21.2617C25.317 18.6532 27.42 16.5308 30.0046 16.5308Z" fill="url(#paint0_linear_4_2728)"/>
<defs>
<linearGradient id="paint0_linear_4_2728" x1="42.3473" y1="44.1963" x2="42.3473" y2="18.1874" gradientUnits="userSpaceOnUse">
<stop stop-color="#0B2C4C"/>
<stop offset="0.5" stop-color="#00A99D"/>
<stop offset="1" stop-color="#81319B"/>
</linearGradient>
</defs>
</svg>
