<svg width="42" height="39" viewBox="0 0 42 39" fill="none" xmlns="http://www.w3.org/2000/svg">
<g clip-path="url(#clip0_568_10409)">
<path d="M39.7441 5.32959H28.6771C28.6654 5.32959 28.6541 5.33056 28.6426 5.33115C28.237 4.9867 27.8013 4.66689 27.3366 4.37596C27.057 4.20117 26.6739 4.26433 26.4805 4.51697C26.2872 4.76976 26.357 5.11659 26.6364 5.29152C29.3538 6.99246 30.9761 9.79029 30.9761 12.7756C30.9761 17.79 26.4671 21.8696 20.9248 21.8696C15.3826 21.8696 10.8736 17.79 10.8736 12.7756C10.8736 7.76122 15.3826 3.68164 20.9248 3.68164C22.025 3.68164 23.1062 3.84129 24.1384 4.1562C24.4605 4.25468 24.8095 4.09793 24.918 3.80663C25.0266 3.51532 24.8536 3.19952 24.5316 3.10132C23.3724 2.74767 22.1589 2.56836 20.9248 2.56836C14.704 2.56836 9.6431 7.14729 9.6431 12.7756C9.6431 18.4039 14.704 22.9829 20.9248 22.9829C27.1455 22.9829 32.2065 18.4039 32.2065 12.7756C32.2065 10.4491 31.3281 8.22464 29.7709 6.44287H39.7441C40.3096 6.44287 40.7695 6.85902 40.7695 7.37061V24.8902H35.9033C35.5634 24.8902 35.288 25.1394 35.288 25.4469C35.288 25.7544 35.5634 26.0035 35.9033 26.0035H40.7695V28.9269C40.7695 29.4384 40.3096 29.8546 39.7441 29.8546H2.25586C1.69042 29.8546 1.23047 29.4384 1.23047 28.9269V26.0035H32.8048C33.1446 26.0035 33.42 25.7544 33.42 25.4469C33.42 25.1394 33.1446 24.8902 32.8048 24.8902H1.23047V7.37061C1.23047 6.85902 1.69042 6.44287 2.25586 6.44287H9.59257C9.93243 6.44287 10.2078 6.19372 10.2078 5.88623C10.2078 5.57875 9.93243 5.32959 9.59257 5.32959H2.25586C1.01194 5.32959 0 6.24523 0 7.37061V28.9268C0 30.0522 1.01194 30.9678 2.25586 30.9678H15.7415V35.3181H13.8841C13.5443 35.3181 13.2689 35.5672 13.2689 35.8747C13.2689 36.1822 13.5443 36.4313 13.8841 36.4313H27.9654C28.3053 36.4313 28.5807 36.1822 28.5807 35.8747C28.5807 35.5672 28.3053 35.3181 27.9654 35.3181H26.1081V30.9678H39.7441C40.9881 30.9678 42 30.0522 42 28.9268V7.37061C42 6.24523 40.9881 5.32959 39.7441 5.32959ZM24.8777 35.3181H16.9719V30.9679H24.8777V35.3181Z" fill="#81319B"/>
<path d="M4.00732 20.9175H7.64631C7.98617 20.9175 8.26155 20.6683 8.26155 20.3608C8.26155 20.0534 7.98617 19.8042 7.64631 19.8042H4.00732C3.66747 19.8042 3.39209 20.0534 3.39209 20.3608C3.39209 20.6683 3.66747 20.9175 4.00732 20.9175Z" fill="#81319B"/>
<path d="M4.00732 23.4282H10.7974C11.1372 23.4282 11.4126 23.1791 11.4126 22.8716C11.4126 22.5641 11.1372 22.3149 10.7974 22.3149H4.00732C3.66747 22.3149 3.39209 22.5641 3.39209 22.8716C3.39209 23.1791 3.66747 23.4282 4.00732 23.4282Z" fill="#81319B"/>
<g clip-path="url(#clip1_568_10409)">
<path d="M21 4.5C16.026 4.5 12 8.07803 12 12.5C12 16.9214 16.0253 20.5 21 20.5C25.974 20.5 30 16.922 30 12.5C30 8.07863 25.9747 4.5 21 4.5ZM21.7031 19.2212V18.6458C21.7031 18.3007 21.3883 18.0208 21 18.0208C20.6117 18.0208 20.2969 18.3007 20.2969 18.6458V19.2212C16.6631 18.9266 13.77 16.3546 13.4386 13.125H14.086C14.4743 13.125 14.7891 12.8452 14.7891 12.5C14.7891 12.1548 14.4743 11.875 14.086 11.875H13.4386C13.7701 8.64497 16.6636 6.07337 20.2969 5.77875V6.35416C20.2969 6.69934 20.6117 6.97916 21 6.97916C21.3883 6.97916 21.7031 6.69934 21.7031 6.35416V5.77875C25.3369 6.07341 28.23 8.64544 28.5614 11.875H27.914C27.5257 11.875 27.2109 12.1548 27.2109 12.5C27.2109 12.8452 27.5257 13.125 27.914 13.125H28.5614C28.2299 16.355 25.3364 18.9266 21.7031 19.2212ZM24.2628 14.5164C24.5374 14.7605 24.5374 15.1562 24.2628 15.4003C23.9882 15.6443 23.543 15.6443 23.2685 15.4003L20.5028 12.9419C20.3709 12.8247 20.2969 12.6657 20.2969 12.5V8.8125C20.2969 8.46731 20.6117 8.1875 21 8.1875C21.3883 8.1875 21.7031 8.46731 21.7031 8.8125V12.2411L24.2628 14.5164Z" fill="#81319B"/>
</g>
</g>
<defs>
<clipPath id="clip0_568_10409">
<rect width="42" height="38" fill="white" transform="translate(0 0.5)"/>
</clipPath>
<clipPath id="clip1_568_10409">
<rect width="18" height="16" fill="white" transform="translate(12 4.5)"/>
</clipPath>
</defs>
</svg>
