<svg width="28" height="28" viewBox="0 0 28 28" fill="none" xmlns="http://www.w3.org/2000/svg">
<path d="M22.4415 0.399902H4.95249C3.66496 0.401422 2.43069 0.913868 1.52081 1.82463C0.610925 2.7354 0.0998526 3.97001 0.0998535 5.25726V22.7425C0.0998526 24.0298 0.610925 25.2644 1.52081 26.1752C2.43069 27.0859 3.66496 27.5984 4.95249 27.5999H22.4415C23.73 27.5999 24.9657 27.0881 25.8769 26.1772C26.788 25.2663 27.2999 24.0308 27.2999 22.7425V5.25726C27.2999 3.96902 26.788 2.73353 25.8769 1.8226C24.9657 0.911673 23.73 0.399902 22.4415 0.399902ZM14.9446 17.6042C14.5012 17.6169 14.0617 17.5186 13.6661 17.3183C13.2704 17.118 12.931 16.822 12.6789 16.4572C12.6789 16.4572 12.1397 18.5963 12.0249 19.0035C11.6505 20.1075 11.0834 21.1366 10.35 22.0429C10.3362 22.0627 10.3168 22.0779 10.2942 22.0865C10.2716 22.0951 10.247 22.0967 10.2235 22.0912C10.2 22.0856 10.1787 22.0731 10.1624 22.0553C10.1461 22.0375 10.1355 22.0152 10.1321 21.9913C9.92971 20.8244 9.92971 19.6313 10.1321 18.4644L11.3252 13.4064C11.1221 12.9439 11.0204 12.4433 11.0269 11.9382C11.0269 10.5676 11.8242 9.54111 12.8165 9.54111C12.9935 9.53818 13.1691 9.57321 13.3314 9.64384C13.4938 9.71448 13.6391 9.8191 13.7575 9.9506C13.876 10.0821 13.965 10.2375 14.0183 10.4062C14.0717 10.575 14.0883 10.7532 14.0669 10.9289C14.0669 11.7777 13.5278 13.0508 13.2467 14.2264C13.1915 14.4444 13.1883 14.6723 13.2375 14.8917C13.2867 15.1111 13.3867 15.3159 13.5297 15.4895C13.6726 15.6631 13.8544 15.8007 14.0603 15.8911C14.2662 15.9815 14.4905 16.0222 14.7151 16.0099C16.4703 16.0099 17.6577 13.7504 17.6577 11.078C17.6577 9.04218 16.2868 7.5225 13.7974 7.5225C13.1998 7.49591 12.6031 7.59156 12.0438 7.80364C11.4845 8.01572 10.9744 8.33977 10.5448 8.75587C10.1152 9.17198 9.77508 9.6714 9.54531 10.2236C9.31554 10.7757 9.20095 11.369 9.20857 11.9669C9.18157 12.6279 9.4002 13.2755 9.82233 13.7848C9.89676 13.8454 9.94976 13.9282 9.97352 14.0211C9.99727 14.1141 9.99053 14.2122 9.95426 14.301C9.90837 14.473 9.80511 14.8745 9.76496 15.0465C9.75701 15.0967 9.73726 15.1443 9.70732 15.1854C9.67739 15.2264 9.63813 15.2599 9.59277 15.2828C9.54741 15.3058 9.49726 15.3176 9.44643 15.3174C9.39559 15.3172 9.34552 15.3049 9.30035 15.2816C8.00402 14.7483 7.40174 13.3318 7.40174 11.7375C7.40174 9.09955 9.62156 5.9397 14.0325 5.9397C17.5774 5.9397 19.9062 8.50315 19.9062 11.2558C19.9521 14.8745 17.9273 17.5927 14.9446 17.5927V17.6042Z" fill="#0B2C4C"/>
</svg>
