<svg width="226" height="128" viewBox="0 0 226 128" fill="none" xmlns="http://www.w3.org/2000/svg">
<rect width="225.5" height="127.884" transform="translate(0.5)" fill="white"/>
<path d="M64.5016 6.98861C87.702 -5.23875 93.9348 13.2388 114.688 17.0959C127.874 19.5467 141.083 8.60404 154.096 11.816C161.723 13.6982 171.036 22.6065 170.376 30.9664C169.357 43.8723 160.854 45.6016 161.667 55.6143C163.29 75.6169 179.926 78.2021 183.703 92.7933C185.985 101.611 182.582 115.7 159.39 119.198C129.834 123.657 104.433 103.918 75.769 106.367C64.1739 107.243 52.522 113.715 40.9 110.115C29.6947 106.644 22.1263 96.046 27.3369 80.5669C31.2363 68.9834 42.2578 64.4136 46.9979 52.4204C50.4158 43.7727 52.3242 33.6848 52.524 26.4074C52.7616 17.7626 57.4309 10.7151 64.5016 6.98861Z" fill="#E9FFFC"/>
<path d="M47.0188 109.019C47.0112 109.019 47.0035 109.018 46.9959 109.017C46.902 109.005 46.836 108.92 46.8485 108.829C46.8506 108.813 47.0661 107.206 46.8511 106.262C46.6243 105.267 46.7021 103.752 46.7056 103.688C46.7106 103.595 46.7879 103.523 46.8859 103.529C46.9804 103.534 47.0533 103.613 47.0483 103.705C47.0475 103.721 46.9697 105.239 47.1862 106.189C47.4146 107.191 47.198 108.805 47.1888 108.873C47.177 108.957 47.1034 109.019 47.0188 109.019Z" fill="#323536"/>
<path d="M46.8749 103.693C46.8749 103.693 45.811 102.073 45.6514 99.6014C45.4918 97.1298 45.1727 96.292 43.896 95.3286C42.6194 94.3651 41.9279 93.6948 41.9279 91.7678C41.9279 89.8407 40.4384 89.1286 40.598 88.0394C40.7576 86.9503 40.1725 82.5796 41.13 82.5238C42.0874 82.468 43.2577 82.0769 44.8181 84.1436C44.8181 84.1436 45.7048 82.6076 45.9884 81.6581C46.2721 80.7085 47.1232 78.195 49.0028 78.8374C50.8823 79.4797 51.0182 80.7364 50.2764 82.3283C49.5347 83.9203 50.0607 85.8429 50.2764 86.236C50.4922 86.6291 50.5449 87.6625 50.6959 88.1931C50.8468 88.7237 51.2369 92.2147 49.8184 95.538C48.4 98.8614 46.8749 103.693 46.8749 103.693Z" fill="#159D9B"/>
<path d="M46.8752 103.932C46.8173 103.932 46.7627 103.904 46.7307 103.855C46.6862 103.788 45.6409 102.17 45.4803 99.6838C45.3215 97.2255 45.0057 96.4498 43.7912 95.5331C42.5251 94.5776 41.7562 93.8521 41.7562 91.8395C41.7562 90.8366 41.3344 90.1803 40.9622 89.6013C40.6456 89.1086 40.3465 88.6433 40.428 88.0875C40.4755 87.7625 40.4523 87.0864 40.4277 86.3707C40.3492 84.0904 40.3529 82.4728 41.1195 82.4281C41.2248 82.422 41.3326 82.4117 41.4432 82.4011C42.3306 82.317 43.4266 82.2124 44.7942 83.9086C45.0475 83.4503 45.6119 82.3903 45.8233 81.6829C46.2769 80.1649 46.8908 79.202 47.6476 78.8214C48.0821 78.603 48.5569 78.5792 49.0591 78.7509C49.907 79.0407 50.4631 79.4763 50.7116 80.0455C50.9885 80.6791 50.8971 81.4721 50.4323 82.4698C49.7202 83.9978 50.2273 85.8642 50.4273 86.2286C50.5706 86.4896 50.6435 86.9687 50.714 87.4321C50.7598 87.7329 50.8031 88.0169 50.8608 88.22C51.0634 88.9322 51.3478 92.4614 49.9763 95.6745C48.5773 98.9521 47.0538 103.766 47.0385 103.814C47.0188 103.876 46.9639 103.922 46.8978 103.931C46.8906 103.932 46.883 103.932 46.8752 103.932ZM42.0706 82.698C41.8656 82.698 41.6684 82.7168 41.4769 82.7351C41.3619 82.746 41.2497 82.7566 41.1402 82.763C40.6482 82.7918 40.7281 85.1125 40.771 86.3594C40.7972 87.1221 40.8198 87.7808 40.7679 88.135C40.7042 88.569 40.9465 88.9458 41.253 89.4229C41.6302 90.0097 42.0996 90.7401 42.0996 91.8395C42.0996 93.7399 42.7866 94.351 44.0011 95.2675C45.3006 96.2482 45.6581 97.1107 45.8228 99.6626C45.9364 101.422 46.5234 102.753 46.8309 103.341C47.2188 102.141 48.4825 98.304 49.6601 95.5452C51.0901 92.1952 50.6469 88.7186 50.5307 88.3098C50.4672 88.0868 50.4226 87.7928 50.3752 87.4815C50.312 87.0667 50.2404 86.5967 50.1254 86.3872C49.8994 85.9754 49.3448 83.9954 50.1204 82.3307C50.543 81.4238 50.6333 80.7194 50.3965 80.1774C50.1844 79.6917 49.71 79.3287 48.9463 79.0677C48.5307 78.9257 48.1574 78.9427 47.8052 79.1198C47.1352 79.4568 46.5794 80.3507 46.1532 81.7771C45.8673 82.7341 45.0043 84.2346 44.9677 84.298C44.939 84.3476 44.8867 84.3796 44.8287 84.3831C44.7703 84.3878 44.7148 84.361 44.6802 84.3153C43.6419 82.9398 42.8061 82.698 42.0706 82.698Z" fill="#323536"/>
<path d="M46.8761 96.593C47.0043 95.9049 47.3865 94.1504 48.1195 93.035C48.8527 91.9195 48.6043 91.9608 49.072 91.2895C49.5397 90.6181 49.8864 88.3482 51.0138 87.2394C52.1412 86.1306 52.8352 86.1805 53.539 86.5766C54.2429 86.9726 53.7326 87.5436 53.6635 88.6525C53.5944 89.7614 53.6629 90.723 53.6435 92.0219C53.6242 93.3208 52.663 94.3724 52.0122 95.1802C51.3614 95.988 49.8384 97.0846 48.6332 99.1856C47.428 101.287 46.8761 103.769 46.8761 103.769C46.8761 103.769 46.7045 102.858 46.6705 101.372C46.6363 99.8864 46.7624 97.203 46.8761 96.593Z" fill="#159D9B"/>
<path d="M40.9717 106.461H52.781L51.5575 120.188H42.1953L40.9717 106.461Z" fill="#FDA202"/>
<path d="M46.8756 106.459H40.9709L42.1946 120.186H46.8756H51.5568L52.7802 106.459H46.8756Z" fill="#FDA202"/>
<path d="M51.5568 120.354H42.1944C42.1055 120.354 42.0312 120.288 42.0234 120.201L40.8 106.475C40.7958 106.428 40.8118 106.382 40.8444 106.347C40.8769 106.312 40.9229 106.292 40.9709 106.292H52.7802C52.8283 106.292 52.8743 106.312 52.9067 106.347C52.9392 106.382 52.9553 106.428 52.9512 106.475L51.7278 120.201C51.72 120.288 51.6457 120.354 51.5568 120.354ZM42.3518 120.019H51.3995L52.5932 106.628H41.1583L42.3518 120.019Z" fill="#323536"/>
<path d="M46.8776 103.939C46.8763 103.939 46.8751 103.939 46.8738 103.939C46.7888 103.937 46.718 103.875 46.7072 103.792C46.3895 101.361 46.2839 97.6323 47.0319 95.1223C47.429 93.7894 47.6892 93.3887 48.0187 92.8813C48.3668 92.3449 48.8 91.6775 49.5887 89.5544C50.3121 87.6072 51.188 86.4815 52.1921 86.2087C52.9785 85.995 53.5726 86.3755 53.7916 86.5489C54.1977 86.8701 54.1106 87.2685 53.9904 87.8197C53.891 88.2745 53.7551 88.8974 53.787 89.8014C53.7945 90.0141 53.8068 90.2204 53.8188 90.423C53.9222 92.1595 54.0116 93.6594 51.0381 96.4082C47.8569 99.3492 47.0543 103.755 47.0467 103.799C47.0325 103.88 46.9609 103.939 46.8776 103.939ZM52.6571 86.4812C52.5401 86.4812 52.4152 86.4961 52.2838 86.5318C51.6712 86.6982 50.7623 87.3776 49.9112 89.6687C49.1098 91.8262 48.6654 92.5108 48.3083 93.0609C47.9935 93.5458 47.7449 93.9288 47.3613 95.2161C46.7203 97.3671 46.7206 100.446 46.9404 102.789C47.3649 101.293 48.4481 98.3408 50.8022 96.1644C53.6595 93.5227 53.5786 92.1635 53.4761 90.4424C53.4639 90.2371 53.4514 90.0283 53.4438 89.813C53.4106 88.8678 53.5516 88.2215 53.6545 87.7496C53.7787 87.181 53.8069 86.9926 53.5756 86.8096C53.4347 86.6982 53.1031 86.4812 52.6571 86.4812Z" fill="#323536"/>
<path d="M45.8413 89.0037C45.7886 89.0037 45.7367 88.9801 45.703 88.9354C43.7607 86.3547 44.6252 84.2451 44.663 84.1565C44.6993 84.0711 44.7996 84.0304 44.8873 84.0662C44.9746 84.1018 45.016 84.1997 44.9798 84.2852C44.9714 84.3052 44.1577 86.3161 45.9794 88.7366C46.0356 88.8113 46.0192 88.9162 45.9429 88.9711C45.9122 88.993 45.8766 89.0037 45.8413 89.0037Z" fill="#323536"/>
<path d="M50.5752 112.911C50.5688 112.911 50.5623 112.91 50.5559 112.909C50.4616 112.899 50.3939 112.816 50.4044 112.724C50.7008 110.141 50.9313 108.052 50.9313 108.052C50.9415 107.96 51.0254 107.893 51.1204 107.903C51.2146 107.913 51.2826 107.996 51.2725 108.088C51.2725 108.088 51.0419 110.178 50.7454 112.762C50.7357 112.847 50.6613 112.911 50.5752 112.911Z" fill="white"/>
<path d="M50.1022 116.027C50.0948 116.027 50.0875 116.026 50.0802 116.025C49.9861 116.014 49.9198 115.93 49.9318 115.838C49.9332 115.827 50.0749 114.742 50.1398 114.005C50.1479 113.912 50.2312 113.843 50.3254 113.852C50.4198 113.86 50.4898 113.941 50.4817 114.033C50.4162 114.778 50.2738 115.869 50.2722 115.88C50.261 115.965 50.1872 116.027 50.1022 116.027Z" fill="white"/>
<path d="M52.0006 92.5969C51.9177 92.5969 51.8449 92.5382 51.8313 92.4559C51.8162 92.3644 51.8798 92.2784 51.9734 92.2636C51.97 92.2636 52.3945 92.1227 52.4221 90.7475C52.4536 89.1916 52.4229 88.7478 52.4225 88.7435C52.4158 88.6513 52.4868 88.5709 52.5813 88.5642C52.6771 88.5592 52.7579 88.627 52.7648 88.7193C52.766 88.7371 52.7971 89.1743 52.7653 90.754C52.732 92.4008 52.1453 92.5763 52.028 92.5949C52.0188 92.5963 52.0096 92.5969 52.0006 92.5969Z" fill="white"/>
<path d="M48.6266 84.383C48.535 84.383 48.459 84.3123 48.4553 84.2222C48.384 82.5099 49.0498 81.567 49.0782 81.5279C49.1329 81.4522 49.2398 81.4339 49.3173 81.4876C49.3947 81.541 49.4132 81.6453 49.3588 81.721C49.3526 81.7297 48.7319 82.6183 48.7982 84.2088C48.8021 84.3013 48.7284 84.3794 48.6337 84.383C48.6314 84.3829 48.6289 84.383 48.6266 84.383Z" fill="white"/>
<path d="M41.9183 88.203C41.9146 88.203 41.9108 88.2029 41.9071 88.2027C41.8125 88.1966 41.7408 88.1169 41.747 88.0245C41.748 88.0101 41.8411 86.5827 41.7477 85.7301C41.6506 84.8453 41.7436 83.9767 41.7477 83.9401C41.7576 83.848 41.843 83.782 41.9366 83.7911C42.0308 83.801 42.0991 83.8835 42.089 83.9758C42.088 83.9843 41.996 84.8464 42.089 85.6944C42.1857 86.5758 42.0935 87.9867 42.0896 88.0463C42.0835 88.135 42.008 88.203 41.9183 88.203Z" fill="white"/>
<path d="M202.646 81.1449C202.163 84.423 201.338 87.5312 200.215 90.4546C200.068 90.8411 199.916 91.2241 199.758 91.6035C199.259 92.8002 198.711 93.9651 198.113 95.098C192.459 105.84 182.571 113.627 171.257 117.707C157.898 122.526 142.554 122.174 129.853 115.418C123.167 111.861 117.214 106.528 112.668 99.2412C111.634 97.7502 110.705 96.1846 109.878 94.5606C107.866 90.6088 106.472 86.3076 105.695 81.8663C105.336 79.8274 105.109 77.7566 105.013 75.6787C104.906 73.42 104.953 71.1488 105.157 68.8936C105.507 64.9541 106.328 61.0624 107.62 57.3553C109.058 53.2207 111.083 49.3167 113.691 45.8399C113.736 45.7832 113.774 45.723 113.818 45.6644C113.823 45.6644 113.823 45.6609 113.823 45.6609C116.515 41.8827 119.557 38.6683 122.853 35.9877C123.357 35.5782 123.869 35.181 124.386 34.7945C144.999 19.4105 174.55 23.8821 190.96 41.5814C191.069 41.6984 191.176 41.8155 191.283 41.9324C195.268 46.317 198.452 51.494 200.51 57.3678C201.145 59.1744 201.672 61.0467 202.081 62.981C202.56 65.2343 202.883 67.5729 203.032 69.9931C203.099 71.0764 203.132 72.1774 203.128 73.2925C203.182 76.007 203.014 78.6255 202.646 81.1449Z" fill="#D6F9F6"/>
<path d="M175.109 109.277C174.405 109.168 175.547 107.992 175.751 105.853C175.937 103.91 178.933 103.285 179.487 101.745C179.778 100.936 180.354 100.132 180.946 100.034C181.384 99.9605 181.355 101.859 180.946 102.544C180.538 103.229 179.254 104.826 178.786 106.139C178.32 107.451 176.218 109.448 175.109 109.277Z" fill="#B6EFEA"/>
<path d="M199.334 77.3271C199.013 77.0989 199.305 75.3586 199.1 74.731C198.896 74.1034 199.947 74.7023 199.888 76.2002C199.83 77.6978 199.334 77.3271 199.334 77.3271Z" fill="#B6EFEA"/>
<path d="M164.816 62.7963C164.561 62.6957 165.342 62.0164 165.478 62.0164C165.614 62.0164 166.548 61.9214 166.276 62.2826C166.003 62.644 165.118 62.9149 164.816 62.7963Z" fill="#B6EFEA"/>
<path d="M158.809 62.822C157.485 61.7291 159.527 62.4999 159.918 62.4125C160.136 62.3326 160.808 62.4752 160.531 62.5894C160.253 62.7034 159.436 63.0834 158.809 62.822Z" fill="#B6EFEA"/>
<path d="M147.556 59.1442C146.601 59.2332 147.474 57.9028 147.167 57.6227C147.06 57.5086 147.819 57.4611 147.809 57.2613C147.799 57.0616 147.41 56.339 147.507 56.1678C147.605 55.9966 148.237 55.9204 148.159 56.2533C148.081 56.5862 148.295 57.1188 148.295 57.2328C148.295 57.3469 147.994 57.7843 148.101 58.0507C148.208 58.317 148.091 59.1251 147.556 59.1442Z" fill="#B6EFEA"/>
<path d="M113.348 99.4633C114.165 99.919 113.728 97.1807 112.663 94.982C111.598 92.7868 113.814 94.0703 113.582 91.7035C113.348 89.3336 112.385 89.8769 111.975 88.3636C111.68 87.2774 111.101 86.0552 110.109 85.8547C108.342 85.4991 109.011 83.6012 108.27 82.7734C107.218 81.6029 108.035 79.8346 107.132 78.4087C106.338 77.1575 106.576 74.2993 105.524 73.1872C104.419 72.0142 105.559 69.1362 105.291 67.5833C104.001 78.6846 106.458 90.2853 112.667 99.241C112.701 99.2953 112.736 99.3479 112.77 99.4019C112.941 99.3427 113.135 99.3454 113.348 99.4633Z" fill="#B6EFEA"/>
<path d="M141.27 49.0216C140.933 49.2793 140.92 48.3178 141.387 48.1277C141.854 47.9374 141.251 47.443 141.64 47.1957C142.029 46.9483 143.041 45.6742 142.535 45.522C142.029 45.3698 142.477 44.8182 142.34 44.5899C141.764 43.8605 142.898 42.6722 143.761 42.6499C144.345 42.7071 142.944 43.4488 143.314 43.5248C143.683 43.6009 144.306 43.4678 143.8 44.2855C143.294 45.1033 144.247 45.712 144.423 46.3966C145.394 49.6527 143.083 47.8748 141.27 49.0216Z" fill="#B6EFEA"/>
<path d="M138.938 47.5993C138.6 47.4853 138.413 46.9148 138.861 46.8196C139.308 46.7245 139.6 46.3822 139.269 46.1349C138.938 45.8876 140.437 45.5643 140.651 44.9177C140.865 44.2712 142.071 45.3387 141.585 45.8604C141.098 46.3822 141.312 46.8387 140.767 47.1621C140.223 47.4851 139.503 47.7896 138.938 47.5993Z" fill="#B6EFEA"/>
<path d="M140.348 38.6719C140.422 39.2091 139.317 38.2156 139.268 37.8446C139.188 37.2373 139.845 36.8807 139.808 36.4468C139.783 36.1536 140.231 36.2602 140.406 36.7167C140.582 37.1732 141.382 37.0329 141.537 36.8807C141.693 36.7285 142.471 36.7523 142.401 37.3311C142.33 37.9128 142.79 38.5864 142.537 38.6719C142.284 38.7575 141.268 38.5413 140.948 38.1144C140.652 37.7193 140.299 38.32 140.348 38.6719Z" fill="#B6EFEA"/>
<path d="M137.633 28.0711C137.862 27.9644 138.144 27.8058 138.445 27.6433C136.464 28.2601 134.514 29.0102 132.608 29.8955C134.545 29.5327 135.424 29.2786 135.688 29.7039C135.853 29.9697 134.257 30.6904 133.854 30.9967C133.329 31.3962 132.625 30.9672 132.341 31.0361C131.738 31.1823 130.823 32.2517 131.097 32.7108C131.368 33.1667 133.11 31.4391 133.198 31.9479C133.284 32.4483 132.965 33.3305 133.588 33.1669C134.409 32.9511 135.284 31.0256 136.234 30.8841C137.05 30.7627 140.1 28.6577 139.542 28.1068C139.063 27.6336 136.74 29.1738 136.271 29.1351C135.804 29.096 136.896 28.4171 137.633 28.0711Z" fill="#B6EFEA"/>
<path d="M121.501 41.1228C121.253 41.7362 120.122 41.8786 120.341 42.6934C120.559 43.5049 120.208 43.5049 120.357 43.864C120.503 44.2195 121.193 44.0423 121.174 43.2788C121.166 42.9171 122.137 42.5803 122.137 41.7074C122.137 40.8377 123.172 41.2069 123.129 40.5668C123.086 39.9234 124.544 40.2814 124.558 39.3441C124.57 38.5247 124.96 37.7406 125.867 37.4029C127.118 36.9368 128.197 34.9728 128.471 34.9534C128.743 34.9341 128.177 34.6302 127.496 35.0472C126.817 35.4676 128.207 33.7773 128.928 33.5534C129.369 33.4165 129.678 32.5162 129.831 32.2442C129.988 31.9656 128.82 32.9785 128.197 33.0329C127.647 33.0811 126.456 34.6901 125.23 34.9729C124.643 35.1083 123.635 35.6681 123.42 35.7942C123.527 35.695 123.821 35.3204 124.183 34.9527C121.165 37.2312 118.339 39.9362 115.779 43.0932C115.85 43.0984 115.898 43.1431 115.918 43.2372C116.143 44.3185 116.735 42.2931 118.108 42.3803C119.481 42.4643 116.795 43.2486 117.715 43.4097C118.797 43.5993 119.51 42.3716 119.391 41.9503C119.169 41.1614 121.376 40.4405 120.443 39.8552C119.51 39.27 121.319 39.0541 121.392 39.6686C121.465 40.2797 121.684 40.4982 122.18 40.3818C122.676 40.2679 121.667 40.7133 121.501 41.1228Z" fill="#B6EFEA"/>
<path d="M127.09 32.9233C126.458 33.3288 125.834 33.7529 125.216 34.1928C125.233 34.1869 125.251 34.1788 125.268 34.1738C125.616 34.0719 126.277 33.5582 127.09 32.9233Z" fill="#B6EFEA"/>
<path d="M131.541 38.0134C130.967 38.0412 131.405 37.1765 131.152 36.682C130.978 36.3399 131.571 34.6298 132.883 34.4758C134.829 34.2475 136.817 32.6384 137.981 31.4518C138.896 30.5199 141.114 30.4059 141.25 29.4549C141.312 29.0254 141.433 28.0781 143.241 28.3709C145.356 28.7132 146.239 27.8378 147.127 28.3158C148.041 28.8085 150.007 28.799 149.16 29.7118C148.314 30.6248 147.341 30.4821 146.971 31.3951C146.64 32.2122 145.336 33.2208 144.753 33.335C141.544 33.4963 141.669 35.7707 139.24 35.4177C138.419 35.3035 137.164 36.0737 135.909 35.9026C134.654 35.7309 133.107 37.9372 131.541 38.0134Z" fill="#B6EFEA"/>
<path d="M153.725 32.6128C153.53 32.5371 153.103 31.5099 152.869 31.3196C152.636 31.1295 152.986 30.6978 153.548 30.8866C154.19 31.1022 155.399 30.7077 155.301 31.0041C155.204 31.3005 154.426 31.1484 154.62 31.4336C154.815 31.7189 155.224 32.2894 154.776 32.1563C154.329 32.0231 154.188 31.6428 154.005 31.9851C153.823 32.3277 153.828 32.6528 153.725 32.6128Z" fill="#B6EFEA"/>
<path d="M141.851 27.0453C141.197 27.1321 139.795 27.9739 140.99 28.3718C141.418 28.504 142.697 27.8298 143.091 27.6445C143.485 27.459 144.871 27.9868 145.835 27.6872C146.798 27.3878 147.674 27.9013 147.323 27.2594C146.973 26.6175 145.757 27.0139 145.251 26.7172C144.795 26.4499 144.054 26.6602 144.259 26.3749C144.463 26.0895 145.382 26.2322 145.835 26.2464C146.133 26.2558 146.092 26.1104 145.91 25.9529C144.991 26.0864 144.074 26.2461 143.162 26.4319C142.914 26.8616 142.23 27.0453 141.851 27.0453Z" fill="#B6EFEA"/>
<path d="M163.716 26.5034C164.163 26.7006 164.606 26.7725 165.045 26.7916C164.603 26.6893 164.16 26.5943 163.716 26.5034Z" fill="#B6EFEA"/>
<path d="M166.969 27.2749C166.804 27.5736 167.109 27.6643 167.812 27.9843C168.527 28.3141 167.948 28.922 167.482 28.6374C167.012 28.3529 166.254 28.5049 166.139 29.5298C166.019 30.5579 166.8 30.0244 166.876 30.8619C166.956 31.6994 169.271 31.9256 168.434 31.9095C167.597 31.89 167.326 32.4786 167.207 32.5367C167.091 32.5917 165.622 31.3372 165.321 31.89C165.209 32.0969 166.119 32.5171 166.41 33.2577C166.701 34.0013 168.762 34.344 168.649 34.5509C168.411 34.9876 167.799 34.0112 166.264 34.1048C164.726 34.2018 164.329 33.7912 163.413 33.2772C162.5 32.7631 163.277 30.9395 163.122 30.9557C162.966 30.9751 161.934 31.8902 162.285 33.0671C162.635 34.2472 166.549 34.8518 165.904 35.1331C164.633 35.6859 163.449 37.1442 163.39 36.6721C163.33 36.2033 161.858 35.3045 162.513 36.2162C163.171 37.128 162.689 37.3155 162.411 37.5128C162.133 37.7133 162.381 38.2564 162.427 38.599C162.47 38.9418 161.273 38.3275 161.2 38.4117C161.127 38.4989 161.564 38.7123 161.756 39.1844C161.944 39.6531 160.267 38.4278 159.827 37.9977C159.391 37.5709 161.537 37.7553 161.885 37.0989C162.235 36.4457 160.37 36.074 157.77 35.5307C155.173 34.9907 153.188 36.6428 153.218 36.9306C153.248 37.2151 151.409 39.2972 150.767 39.6691C146.649 40.9777 147.775 44.4853 149.861 43.2904C150.562 42.7211 150.853 43.4325 150.853 44.0889C150.853 44.7451 152.08 45.9737 152.752 45.6311C153.423 45.2884 152.897 43.7202 153.685 43.4325C154.472 43.148 154.356 42.178 154.002 41.8935C153.652 41.609 153.83 40.125 154.591 40.1541C155.349 40.18 155.173 39.3265 155.584 38.6699C155.99 38.0136 157.072 38.7539 156.721 39.0385C155.324 40.3101 154.309 42.6816 157.915 41.9224C159.639 41.6088 158.501 42.6337 158.15 42.6337C157.8 42.6337 155.233 42.2359 156.516 43.3482C157.8 44.4603 156.546 44.1177 156.195 44.1468C155.845 44.1759 155.583 46.2872 154.823 46.1158C154.065 45.9445 152.722 46.7721 152.342 46.6556C151.961 46.5424 151.349 46.6298 150.622 46.5717C149.891 46.5135 150.823 44.1177 150.125 44.0335C149.424 43.9462 148.898 45.7859 148.796 46.3711C148.693 46.9564 146.927 46.8561 146.606 46.9983C146.285 47.1407 146.037 48.1687 145.382 48.298C144.723 48.4241 144.608 49.2389 144.244 49.3261C143.877 49.4135 143.47 49.9177 143.159 49.9372C142.848 49.9566 142.653 49.2712 142.458 49.3295C142.262 49.3845 142.398 50.1473 142.107 50.432C140.819 50.6422 139.279 49.0899 141.561 51.7059C142.031 52.2198 141.27 54.3117 140.744 54.5769C140.218 54.8451 137.886 54.1597 137.34 53.7589C136.794 53.3612 135.862 54.0272 136.249 54.6545C136.639 55.2817 135.762 55.8993 135.091 57.4124C134.423 58.9223 135.035 58.5829 135.617 59.5785C136.202 60.5777 137.31 59.9213 138.243 60.3772C139.179 60.8364 140.404 60.2091 140.959 59.6076C141.515 59.0095 141.746 57.839 143.149 57.1827C144.548 56.5264 144.667 55.2427 144.988 55.1589C145.309 55.0715 146.066 56.0706 146.622 55.6146C147.175 55.1589 148.518 54.3892 149.133 55.8991C149.745 57.4122 151.845 57.4122 152.312 58.7799C152.781 60.1509 149.54 59.239 150.036 60.6357C150.532 62.0324 153.433 60.2088 153.744 59.5236C154.055 58.8381 153.9 57.5447 153.423 57.5447C152.95 57.5447 151.604 55.718 150.863 55.0713C150.125 54.4247 151.369 52.4103 151.991 54.1983C152.616 55.9863 155.067 55.9863 155.104 57.202C155.672 60.1866 158.537 64.6671 157.789 58.7248C157.634 58.0393 159.774 57.4314 159.774 58.7248C159.774 60.0181 162.675 61.1497 163.228 61.3211C163.783 61.4923 166.35 61.0073 166.499 60.7196C166.645 60.4351 167.402 60.8361 167.227 63.1186C167.052 65.398 164.68 65.5143 164.329 65.5143C163.979 65.5143 163.162 66.4261 162.421 66.0091C161.683 65.5887 157.77 64.7709 156.777 64.8677C155.785 64.9616 155.593 65.7408 155.805 66.1222C156.02 66.5037 155.689 67.6451 154.832 66.7882C153.976 65.9314 152.877 66.6428 152.537 65.9702C151.991 64.8936 150.83 64.4605 150.387 64.5315C149.599 64.664 147.39 64.1275 148.217 63.5938C148.898 63.1541 148.839 62.4201 148.587 62.0516C148.432 61.8221 148.839 61.6893 148.839 61.1785C148.839 60.6643 148.177 60.519 147.148 60.8907C146.199 61.2334 145.435 61.5277 144.092 60.7582C141.73 59.4068 140.122 61.8996 138.839 61.8058C137.555 61.7088 137.01 59.8077 136.388 60.9491C135.763 62.0903 133.404 62.9731 132.567 63.7588C131.257 65.1733 132.167 66.971 129.941 66.6814C128.078 66.7396 127.751 68.5374 127.751 69.0514C127.751 69.5653 125.584 71.085 125.885 73.0606C126.19 75.0683 122.921 75.1848 124.01 77.7131C124.959 79.9117 123.738 79.9472 125.217 81.2793C126.696 82.6115 124.357 85.4274 126.735 85.9673C129.752 86.6528 130.51 88.887 132.108 88.431C133.702 87.9752 135.336 89.3072 136.309 89.3429C137.281 89.3816 137.516 88.318 140.083 88.1272C142.653 87.9363 140.979 90.4841 143.315 90.4454C145.65 90.4097 147.129 91.2828 145.921 93.2225C144.714 95.1625 146.428 96.6853 148.879 98.8159C151.33 100.947 150.357 102.466 149.074 104.788C147.79 107.106 149.047 109.327 150.943 110.226C154.006 111.681 154.634 115.939 155.379 116.046C158.336 116.472 159.775 114.762 162.034 114.866C165.617 115.031 163.433 112.043 166.731 110.902C170.029 109.76 168.485 107.843 168.776 107.536C170.205 106.023 174.379 106.136 173.913 103.569C173.698 102.385 173.767 99.8053 173.357 99.3462C172.95 98.8903 173.007 98.263 173.999 95.7541C174.991 93.2417 177.968 91.4151 180.363 88.3921C182.755 85.369 183.125 80.3866 182.679 80.3285C182.229 80.2703 181.607 81.0883 180.83 81.4506C180.052 81.8127 178.299 81.8869 177.637 82.4398C176.976 82.9926 175.888 82.7243 176.295 81.9645C176.705 81.2046 175.577 80.2154 174.118 79.5105C172.656 78.8058 172.133 76.7722 171.627 76.5813C171.121 76.3904 170.671 73.7102 170.01 73.2544C169.348 72.7985 169.504 72.1518 168.26 70.5352C167.013 68.9186 167.268 66.0088 168.376 68.4595C169.487 70.9133 171.392 70.2475 171.803 72.4168C172.832 76.8162 175.589 74.8205 176.295 80.0247C176.725 82.2878 179.163 80.9105 179.682 79.6819C180.344 78.1107 182.524 78.075 183.165 76.6395C183.456 75.9927 184.819 75.9993 185.13 74.567C185.342 73.5906 186.513 73.8234 186.453 72.9214C186.394 72.0161 186.9 70.5062 186.844 69.6785C186.784 68.8507 185.339 68.479 184.756 68.5791C184.171 68.6793 183.724 66.3613 183.47 67.1241C183.222 67.8645 181.574 69.9047 181.21 68.7214C180.847 67.5379 180.231 67.8807 180.347 68.6081C180.466 69.3356 179.073 67.5605 178.276 66.4258C177.181 64.8706 178.028 63.9427 178.729 65.0001C179.427 66.0539 181.091 65.3977 184.128 66.4258C187.164 67.4539 189.235 63.4028 189.996 65.4558C190.754 67.509 193.44 65.6853 193.817 68.5952C194.197 71.5052 196.794 72.4749 197.144 74.7577C197.495 77.0372 198.778 77.3508 198.517 76.3548C198.256 75.3559 198.897 73.7586 198.868 72.5624C198.838 71.3662 198.027 70.4221 198.692 68.2236C199.539 65.4268 198.051 59.2353 199.45 61.7476C200.897 64.4467 201.574 62.8699 202.545 65.5002C199.457 45.7051 184.482 32.0265 166.969 27.2749ZM165.841 100.304C165.523 100.421 164.805 98.9494 164.733 98.8493C164.66 98.7491 164.746 97.152 164.6 96.9222C164.455 96.6959 164.862 96.9515 165.037 97.9505C165.212 98.9494 166.307 100.133 165.841 100.304ZM161.352 57.8881C160.942 57.8881 160.611 57.7813 160.611 57.6487C160.858 57.067 163.307 57.6989 161.352 57.8881ZM169.228 103.712C169.652 104.439 169.066 103.912 169.066 103.912C168.775 103.686 168.6 102.645 168.745 102.144C168.891 101.646 168.639 100.818 168.692 100.718C169.614 101.423 168.701 102.724 169.228 103.712ZM169.033 93.3399C169.291 93.6244 168.299 94.5557 168.259 94.8789C168.219 95.2023 167.73 95.6969 167.111 95.3348C166.674 95.0794 166.979 94.2064 167.111 93.9867C167.336 93.605 168.775 93.0522 169.033 93.3399ZM169.155 56.3652C168.732 56.9797 167.369 56.5172 167.227 56.2909C166.906 55.7704 165.394 55.3435 164.601 56.0064C164.296 56.2586 163.006 57.1283 161.683 56.9569C161.223 56.8955 160.436 55.9093 161.041 55.3953C161.643 54.8812 161.954 54.1408 161.895 53.4553C161.839 52.7731 162.927 52.1072 163.043 52.5242C163.201 53.077 164.035 52.7149 163.879 53.1319C163.724 53.5523 164.24 53.5718 164.468 54.3444C164.62 54.8487 164.921 53.5814 165.332 53.5038C165.738 53.4262 164.756 53.0221 165.047 52.4013C165.341 51.7838 166.39 51.5153 166.45 51.8582C166.509 52.2008 167.052 52.1814 166.84 52.5242C166.625 52.8668 166.096 53.0479 166.324 53.2903L168.163 54.2183C168.669 55.2458 171.264 54.7579 169.155 56.3652ZM178.785 58.0982C178.464 58.4829 177.296 58.803 177.005 58.4118C176.674 57.9623 175.457 57.9916 175.576 56.9795C175.705 55.8445 175.827 55.3661 175.255 55.3305C174.358 55.2724 173.545 54.0373 173.376 53.7139C173.221 53.4166 173.406 53.0964 172.83 52.6178C172.592 52.4206 172.619 51.7094 173.406 51.5153C173.776 51.4249 173.766 51.1079 173.912 50.636C174.058 50.1671 175.063 50.2673 175.08 50.7782C175.093 51.2922 174.517 51.3085 174.494 51.6221C174.438 52.4498 175.02 53.1482 175.88 53.4327C176.743 53.7172 177.157 54.9135 177.167 55.2302C177.18 55.7218 178.407 56.113 178.48 56.7985C178.553 57.484 179.105 57.7103 178.785 58.0982Z" fill="#B6EFEA"/>
<path d="M163.655 120.07H66.7546C66.1501 120.07 65.6602 118.945 65.6602 117.557C65.6602 116.169 66.1503 115.043 66.7546 115.043H163.655C164.259 115.043 164.749 116.169 164.749 117.557C164.749 118.945 164.259 120.07 163.655 120.07Z" fill="#159D9B"/>
<path d="M160.578 44.9844H69.826C69.0792 44.9844 68.4744 45.6728 68.4744 46.522V52.1766H68.4904C68.5497 51.311 69.1977 50.6307 69.9878 50.6307H160.429C161.219 50.6307 161.865 51.3108 161.924 52.1766C161.928 52.2202 161.929 52.2638 161.929 52.3074V46.522C161.929 45.6728 161.324 44.9844 160.578 44.9844Z" fill="#159D9B"/>
<path d="M161.928 52.1782V52.309C161.928 52.2654 161.926 52.2218 161.923 52.1782H161.928Z" fill="#C29BF9"/>
<path d="M161.928 52.3084V113.369C161.928 114.295 161.258 115.045 160.429 115.045H69.9865C69.1574 115.045 68.4851 114.295 68.4851 113.369V52.3084C68.4851 51.3824 69.1576 50.6318 69.9865 50.6318H160.429C161.258 50.6318 161.928 51.3823 161.928 52.3084Z" fill="white"/>
<path d="M160.429 115.214H69.9871C69.0646 115.214 68.314 114.386 68.314 113.369V52.3089C68.314 51.2919 69.0644 50.4646 69.9871 50.4646H160.429C161.351 50.4646 162.1 51.2919 162.1 52.3089V113.369C162.1 114.386 161.351 115.214 160.429 115.214ZM69.9871 50.8C69.2538 50.8 68.6571 51.4768 68.6571 52.3089V113.369C68.6571 114.201 69.2538 114.878 69.9871 114.878H160.429C161.161 114.878 161.757 114.201 161.757 113.369V52.3089C161.757 51.4768 161.161 50.8 160.429 50.8H69.9871Z" fill="#292E30"/>
<path d="M176.451 100.189H99.1121C98.4251 100.189 97.8682 99.6443 97.8682 98.9728V69.7217C97.8682 69.0502 98.4251 68.5059 99.1121 68.5059H176.451C177.138 68.5059 177.695 69.0502 177.695 69.7217V98.9728C177.695 99.6443 177.138 100.189 176.451 100.189Z" fill="#3DC9C2"/>
<path d="M176.451 100.19H104.282C103.595 100.19 103.038 99.6453 103.038 98.9738V73.6206C103.038 72.9491 103.595 72.4048 104.282 72.4048H176.451C177.138 72.4048 177.695 72.9491 177.695 73.6206V98.974C177.695 99.6453 177.138 100.19 176.451 100.19Z" fill="#159D9B"/>
<path d="M123.271 80.1528L120.16 91.8183H116.64L114.736 84.141L112.764 91.8183H109.245L106.219 80.1528H109.33L111.047 88.6445L113.172 80.1528H116.369L118.409 88.6445L120.143 80.1528H123.271Z" fill="white"/>
<path d="M141.157 80.1528L138.045 91.8183H134.526L132.622 84.141L130.65 91.8183H127.131L124.104 80.1528H127.216L128.933 88.6445L131.058 80.1528H134.254L136.294 88.6445L138.028 80.1528H141.157Z" fill="white"/>
<path d="M159.041 80.1528L155.929 91.8183H152.41L150.506 84.141L148.534 91.8183H145.014L141.988 80.1528H145.099L146.816 88.6445L148.942 80.1528H152.138L154.178 88.6445L155.912 80.1528H159.041Z" fill="white"/>
<path d="M178.361 86.8965L166.347 81.8686C165.625 81.5664 164.535 82.2292 164.494 82.9958L163.801 95.7517C163.764 96.4433 164.626 96.7058 165.396 96.2373L168.147 94.5641C170.278 99.7636 172.408 104.963 174.538 110.163C174.735 110.644 175.462 110.734 176.086 110.354L186.338 104.119C186.962 103.739 187.2 103.063 186.846 102.677C183.014 98.5125 179.183 94.3474 175.352 90.1825L178.103 88.5093C178.873 88.0409 179.012 87.1691 178.361 86.8965Z" fill="white"/>
<path d="M148.466 13.8271C154.48 11.4491 162.577 30.1277 162.939 31.5795C162.939 31.5795 164.15 34.7362 160.669 35.627C159.128 36.0213 157.875 34.9538 157.875 34.9538C155.729 33.3597 141.319 16.6528 148.466 13.8271Z" fill="#FFA293"/>
<path d="M149.221 24.4114C149.221 24.4114 141.688 13.7844 146.85 12.199C151.981 10.6231 157.894 20.9162 157.894 20.9162L149.221 24.4114Z" fill="#81319B"/>
<path d="M142.842 8.74422C142.842 8.74422 139.556 7.3886 139.498 6.2187C139.441 5.04864 140.049 4.86156 140.049 4.86156C140.049 4.86156 138.985 4.14815 139.552 3.28654C140.12 2.42493 140.039 1.79156 140.298 1.43433L143.395 3.32892C143.395 3.32892 143.772 6.50168 143.499 7.18399C143.116 8.13952 142.842 8.74422 142.842 8.74422Z" fill="#323536"/>
<path d="M142.885 11.8701L146.731 12.8133L146.276 8.84875L146.223 8.38127L146.205 8.22575L146.193 8.13793L146.119 7.6145L142.615 6.73901L142.708 8.49974L142.758 9.46442L142.885 11.8701Z" fill="#FFA293"/>
<path d="M142.9 11.3745L139.966 12.4961L138.403 23.5641L151.939 18.7163L149.453 12.2459L146.514 10.9888L142.9 11.3745Z" fill="#FFA293"/>
<path d="M146.282 9.03392C144.611 9.72034 143.213 8.13724 143.149 8.06908C142.436 7.31436 141.9 5.88449 141.834 4.87788C141.697 2.76784 144.258 1.11033 146.164 2.20659C148.068 3.30362 147.698 5.22307 147.698 5.22307L147.712 5.30007C147.737 5.65639 147.87 8.38272 146.282 9.03392Z" fill="#FFA293"/>
<path d="M143.481 4.91191C143.481 4.91191 143.685 4.63898 143.997 4.54735C144.308 4.45572 144.479 4.64844 144.478 4.73138C144.476 4.81433 144.202 4.79054 143.971 4.91877C143.739 5.047 143.487 5.07856 143.481 4.91191Z" fill="#323536"/>
<path d="M147.064 4.65683C147.064 4.65683 146.822 4.41562 146.5 4.36927C146.178 4.32292 146.038 4.53775 146.051 4.61963C146.065 4.7015 146.333 4.63914 146.581 4.73306C146.829 4.82699 147.083 4.82256 147.064 4.65683Z" fill="#323536"/>
<path d="M144.391 5.63778C144.4 5.80367 144.31 5.94287 144.192 5.94882C144.073 5.95477 143.97 5.82517 143.961 5.65928C143.952 5.49339 144.041 5.35419 144.16 5.34809C144.279 5.34229 144.382 5.47189 144.391 5.63778Z" fill="#323536"/>
<path d="M146.761 5.54501C146.769 5.7109 146.68 5.8501 146.561 5.85605C146.443 5.86199 146.339 5.73239 146.33 5.56651C146.322 5.40062 146.411 5.26141 146.53 5.25531C146.648 5.24952 146.752 5.37912 146.761 5.54501Z" fill="#323536"/>
<path d="M145.773 8.09754C145.711 8.09754 145.646 8.09251 145.575 8.08153C144.876 7.97282 144.785 7.5645 144.747 7.39008L144.742 7.36888C144.721 7.27862 144.779 7.18882 144.871 7.16839C144.964 7.14826 145.056 7.20452 145.077 7.29509L145.082 7.31887C145.116 7.47028 145.162 7.67764 145.629 7.75021C146.066 7.81867 146.16 7.57319 146.169 7.54499C146.198 7.45777 146.293 7.40715 146.382 7.43414C146.472 7.46052 146.524 7.55048 146.498 7.63845C146.449 7.81013 146.237 8.09754 145.773 8.09754Z" fill="#323536"/>
<path d="M145.909 7.00594C145.849 7.00594 145.788 6.99603 145.726 6.97545C145.637 6.94556 145.589 6.85027 145.619 6.7626C145.65 6.67493 145.748 6.62812 145.837 6.65816C145.916 6.68438 145.977 6.67112 146.019 6.61897C146.02 6.58375 145.929 6.43479 145.891 6.37121C145.769 6.1704 145.636 5.77947 145.631 5.76285C145.601 5.67487 145.65 5.58004 145.74 5.55107C145.83 5.52179 145.927 5.56982 145.956 5.65765C145.991 5.76087 146.101 6.05941 146.186 6.20029C146.302 6.39164 146.446 6.6298 146.289 6.82603C146.195 6.94313 146.058 7.00594 145.909 7.00594Z" fill="#323536"/>
<path d="M140.236 1.53578C140.236 1.53578 140.522 0.989024 140.96 0.851191C141.398 0.713205 141.805 1.03461 142.061 1.00625C142.318 0.977894 142.434 0.0344068 143.762 0.00116821C145.089 -0.0322228 145.247 0.660755 145.601 0.72769C145.954 0.794777 146.604 0.92087 147.483 0.808347C148.363 0.695823 148.429 2.30774 148.596 2.44115C148.763 2.57456 150.061 3.01841 149.993 4.03752C149.925 5.05678 148.83 5.2242 148.83 5.2242C148.83 5.2242 149.509 4.66387 149.459 4.36076C149.409 4.05765 149.31 3.87605 149.31 3.87605C149.31 3.87605 149.427 4.47404 149.082 4.74574C148.737 5.0176 148.47 5.17922 148.47 5.17922C148.47 5.17922 148.671 5.83393 147.726 5.91839C147.726 5.91839 147.584 4.66143 147.448 3.92637C147.312 3.19116 147.286 3.18231 147.201 3.19329C147.115 3.20427 146.816 3.65528 145.998 3.75987C145.179 3.86462 143.862 3.71947 143.338 3.62783C142.813 3.5362 142.655 4.394 142.797 4.70961C142.938 5.02522 142.119 5.39725 142.095 5.77644C142.071 6.15579 141.898 7.27035 141.898 7.27035C141.898 7.27035 141.539 7.2798 141.111 6.40005C140.683 5.52029 140.236 1.53578 140.236 1.53578Z" fill="#323536"/>
<path d="M148.401 2.23535C148.401 2.23535 149.247 2.31936 149.61 2.54517C149.973 2.77098 150.014 3.20278 150.014 3.20278C150.014 3.20278 149.877 2.88426 149.535 2.70267C149.192 2.52108 148.591 2.50614 148.591 2.50614L148.401 2.23535Z" fill="#323536"/>
<path d="M148.174 1.58012C148.174 1.58012 148.431 2.11163 148.835 2.13282C149.238 2.15401 149.662 1.90869 149.676 1.59735C149.69 1.286 149.541 1.11401 149.541 1.11401C149.541 1.11401 149.515 1.7181 149.3 1.85487C149.086 1.99148 148.605 1.8073 148.484 1.66809C148.363 1.52889 148.051 1.19315 148.051 1.19315L148.174 1.58012Z" fill="#323536"/>
<path d="M140.957 4.30921C141.187 4.02409 141.575 4.11069 141.894 4.2595C142.19 4.39749 142.354 4.64586 142.298 4.89134C142.163 5.48216 142.601 6.11842 142.709 6.73699C140.501 6.61471 140.513 4.85779 140.957 4.30921Z" fill="#FFA293"/>
<path d="M141.294 4.78394C141.453 4.73011 141.685 4.7571 141.77 4.87954C141.807 4.93321 141.707 4.98047 141.659 4.92848C141.622 4.88838 141.553 4.86841 141.489 4.88228C141.432 4.89448 141.382 4.94068 141.357 4.97773C141.278 5.09055 141.358 5.22991 141.421 5.33862C141.484 5.44718 141.568 5.55071 141.666 5.64585C141.769 5.74679 141.911 5.82302 142.015 5.92228C142.114 6.01666 141.936 6.14885 141.799 6.08588C141.693 6.0374 141.613 5.96208 141.537 5.89179C141.466 5.82668 141.402 5.75761 141.345 5.68626C141.227 5.53989 141.128 5.37735 141.087 5.21162C141.05 5.06418 141.082 4.85621 141.294 4.78394Z" fill="#323536"/>
<path d="M145.477 9.308C144.557 9.308 143.112 8.92819 142.244 6.80016C142.209 6.71417 142.252 6.61659 142.34 6.58228C142.428 6.54798 142.528 6.58991 142.563 6.67605C143.78 9.66234 146.124 8.90792 146.224 8.87437C146.314 8.84403 146.411 8.89038 146.443 8.97759C146.474 9.06496 146.427 9.16041 146.337 9.19105C146.328 9.19441 145.981 9.308 145.477 9.308Z" fill="#323536"/>
<path d="M142.373 6.90506C142.152 6.90506 141.913 6.88707 141.771 6.82166C141.685 6.78202 141.649 6.682 141.689 6.59829C141.73 6.51474 141.832 6.4786 141.918 6.51839C142.063 6.58533 142.535 6.57542 142.824 6.54691C142.919 6.53791 143.003 6.605 143.012 6.69709C143.021 6.78918 142.953 6.87152 142.858 6.88082C142.793 6.88737 142.592 6.90506 142.373 6.90506Z" fill="#323536"/>
<path d="M162.168 45.5584L163.408 54.0348L170.818 52.0587L168.212 43.7686L162.168 45.5584Z" fill="#FFA293"/>
<path d="M182.569 62.2815C182.567 62.2815 182.567 62.283 182.567 62.283C182.382 63.6368 180.389 64.3807 177.734 63.39C173.416 61.779 161.681 55.419 161.681 55.419C161.723 54.9622 161.788 54.536 161.87 54.1462C162.252 52.2837 162.973 51.1981 162.973 51.1981C164.551 52.7951 166.986 52.8913 166.986 52.8913C167.852 50.7546 170.197 50.0728 170.197 50.0728C170.197 50.0728 176.175 56.5444 180.374 59.2176C182.055 60.2883 182.687 61.4103 182.569 62.2815Z" fill="#292E30"/>
<path d="M182.567 62.2817C182.382 63.6355 180.389 64.3794 177.734 63.3886C173.416 61.7776 161.681 55.4176 161.681 55.4176C161.723 54.9608 161.788 54.5346 161.87 54.1448C161.87 54.1448 175.45 61.5835 178.143 62.4268C180.848 63.2746 182.243 62.9349 182.567 62.2817Z" fill="white"/>
<path d="M170.426 54.3883C170.393 54.3883 170.36 54.379 170.33 54.3596C170.252 54.3078 170.231 54.2036 170.284 54.1269C170.319 54.0763 171.15 52.8781 172.218 52.2389C172.299 52.1904 172.404 52.2153 172.454 52.2942C172.503 52.3732 172.478 52.4766 172.397 52.5249C171.395 53.1252 170.577 54.3023 170.569 54.3142C170.536 54.3624 170.481 54.3883 170.426 54.3883Z" fill="white"/>
<path d="M171.939 55.7084C171.905 55.7084 171.871 55.6985 171.841 55.6779C171.763 55.6247 171.744 55.5202 171.799 55.4443C171.826 55.4071 172.467 54.5211 173.685 53.5512C173.759 53.4925 173.866 53.5035 173.926 53.5752C173.986 53.647 173.975 53.7526 173.901 53.811C172.723 54.7496 172.086 55.6282 172.08 55.6369C172.046 55.6834 171.993 55.7084 171.939 55.7084Z" fill="white"/>
<path d="M173.532 57.2354C173.5 57.2354 173.467 57.2267 173.439 57.2084C173.359 57.1581 173.336 57.0543 173.388 56.9767C173.416 56.9343 174.089 55.9291 175.302 55.0348C175.379 54.9789 175.486 54.994 175.543 55.0678C175.6 55.1417 175.585 55.2469 175.509 55.3026C174.347 56.1594 173.683 57.1491 173.676 57.159C173.643 57.2086 173.588 57.2354 173.532 57.2354Z" fill="white"/>
<path d="M138.014 44.3137L136.179 38.6389C136.179 38.6389 143.683 34.4898 152.477 29.5833C161.345 24.6355 165.031 25.3395 165.031 25.3395L165.031 25.3412C166.399 25.4239 167.701 26.0472 168.537 27.1603C170.047 29.1679 169.47 31.9947 167.246 33.4622C167.069 33.5794 166.884 33.6799 166.697 33.7729C158.819 38.2569 138.014 44.3137 138.014 44.3137Z" fill="#D299E4"/>
<path d="M157.952 29.4129C158.228 24.5349 167.303 24.9086 169.071 28.1719L169.141 28.3099C171.531 32.5706 174.432 49.389 174.432 49.389L161.831 51.8733C157.858 33.6392 157.952 29.4129 157.952 29.4129Z" fill="#AC77BD"/>
<path d="M153.862 58.035L154.491 67.1901L161.7 66.801L160.804 57.8203L153.862 58.035Z" fill="#FFA293"/>
<path d="M171.389 76.854C171.124 77.7763 170.173 78.3812 168.23 77.8751C164.001 76.7712 151.106 68.5064 151.106 68.5064C151.197 68.1324 151.326 67.7689 151.48 67.4243C152.407 65.3575 154.264 63.8695 154.264 63.8695C154.786 64.6642 157.107 65.8185 157.107 65.8185C158.76 64.4217 161.356 63.2634 161.356 63.2634C161.356 63.2634 167.992 72.3636 169.966 73.5419C171.056 74.1919 171.712 75.7489 171.389 76.854Z" fill="#292E30"/>
<path d="M171.389 76.8547C171.124 77.777 170.173 78.3819 168.23 77.8758C164.001 76.7719 151.106 68.5071 151.106 68.5071C151.197 68.1331 151.326 67.7696 151.48 67.425C151.48 67.425 163.355 74.5658 166.193 75.891C169.04 77.2202 170.759 77.3974 171.389 76.8547Z" fill="white"/>
<path d="M160.76 67.7887C160.72 67.7887 160.681 67.7756 160.649 67.7484C160.576 67.6882 160.568 67.5824 160.63 67.512C160.68 67.4545 161.874 66.0969 163.093 65.5379C163.178 65.4984 163.281 65.5349 163.321 65.6186C163.361 65.7023 163.324 65.8023 163.238 65.8416C162.088 66.3695 160.902 67.7164 160.891 67.7298C160.856 67.7687 160.808 67.7887 160.76 67.7887Z" fill="white"/>
<path d="M162.206 69.3979C162.168 69.3979 162.131 69.3858 162.099 69.361C162.025 69.303 162.013 69.1975 162.072 69.1252C162.11 69.0787 163.022 67.9756 164.421 67.2014C164.504 67.1555 164.609 67.184 164.655 67.2646C164.702 67.3453 164.673 67.4476 164.591 67.4932C163.251 68.2344 162.349 69.3239 162.34 69.3347C162.306 69.3762 162.256 69.3979 162.206 69.3979Z" fill="white"/>
<path d="M163.658 71.0247C163.618 71.0247 163.579 71.0114 163.546 70.9841C163.474 70.9238 163.466 70.8178 163.528 70.7475C163.576 70.6925 164.727 69.3933 165.767 68.9055C165.852 68.8653 165.955 68.9008 165.996 68.9842C166.037 69.0676 166.001 69.1679 165.915 69.2079C164.94 69.6657 163.8 70.9533 163.788 70.9663C163.754 71.0049 163.706 71.0247 163.658 71.0247Z" fill="white"/>
<path d="M131.561 38.598L138.286 32.9978L140.264 34.218C140.264 34.218 141.349 34.8273 149.52 33.5725C156.87 32.4436 159.405 35.02 159.72 35.2961L159.719 35.299C160.313 35.8017 160.934 36.5581 161.202 37.3213C162.035 39.6949 160.479 42.1538 157.916 42.9361C157.53 43.0538 157.141 43.1186 156.755 43.1452L156.753 43.1507C153.317 43.3734 144.42 45.8762 138.118 44.7964C131.878 43.727 131.561 38.598 131.561 38.598Z" fill="#D299E4"/>
<path d="M150.546 38.3796C150.551 38.3656 152.158 34.5704 157.275 34.8001C159.729 34.9772 160.935 36.9051 160.935 36.9051C160.936 36.9058 161.171 37.2664 161.202 37.323C161.562 37.9498 162.261 40.5907 162.831 47.3537C163.567 57.4889 164.057 62.7932 164.057 62.7932L151.399 63.4035C151.399 63.4035 148.18 43.6035 150.546 38.3796Z" fill="#D299E4"/>
<path d="M131.561 38.5988C132.357 38.1152 133.036 37.719 135.122 37.3144C136.334 37.0788 137.032 36.9231 138.448 36.6316C139.378 36.4403 142.086 35.5893 144.68 35.0473C149.641 34.0108 152.731 30.8435 152.731 30.8435C152.731 30.8435 152.842 27.7147 152.715 20.0215C152.679 17.9017 152.461 15.6919 151.561 14.1192H151.56C151.558 14.1177 151.558 14.116 151.558 14.116C151.312 13.6877 151.015 13.3067 150.657 12.9874C149.129 11.628 146.528 10.9934 146.528 10.9934C146.528 10.9934 148.794 13.6828 146.065 13.7145C142.559 13.7572 142.838 11.1308 142.838 11.1308C142.681 11.1544 141.525 11.3782 141.051 11.4432C138.16 11.8393 136.51 12.6488 136.505 12.663C136.432 12.8543 135.839 15.172 135.419 17.1637C134.555 21.2609 134.338 26.55 132.711 29.7999C132.664 29.8947 132.265 31.0076 131.875 32.1931C131.875 32.1963 131.874 32.201 131.872 32.2042C131.851 32.2675 131.83 32.3291 131.812 32.3891C131.474 33.4214 131.159 34.471 131.099 34.9293C130.85 36.8529 131.561 38.5988 131.561 38.5988Z" fill="#81319B"/>
<path d="M152.755 29.6871C152.753 29.6871 152.751 29.6869 152.748 29.6869C152.654 29.6833 152.58 29.6051 152.584 29.5125C152.983 19.8558 151.739 14.8871 151.727 14.838C151.704 14.7482 151.759 14.657 151.851 14.6344C151.943 14.612 152.036 14.6663 152.059 14.7561C152.072 14.8055 153.329 19.814 152.926 29.5261C152.923 29.6163 152.847 29.6871 152.755 29.6871Z" fill="#323536"/>
<path d="M142.845 11.1217C142.845 11.1217 142.788 13.4198 145.504 13.6709C148.42 13.9231 146.909 11.5674 146.514 10.9865C146.514 10.9865 146.885 10.9382 147.126 11.1647C147.126 11.1647 148.707 13.328 147.291 13.9385C145.529 14.6824 143.184 13.9967 142.535 12.5945C142.04 11.5941 142.234 11.2155 142.234 11.2155C142.234 11.2155 142.526 10.9028 142.845 11.1217Z" fill="white"/>
<path d="M164.056 62.9574C163.965 62.9574 163.889 62.887 163.885 62.7969C163.876 62.593 162.971 42.3436 161.041 37.3791C159.149 32.515 152.495 33.4518 152.428 33.462C152.334 33.4761 152.246 33.4131 152.232 33.3216C152.218 33.2301 152.282 33.1444 152.376 33.1304C152.445 33.1197 159.373 32.1451 161.361 37.2601C163.311 42.2751 164.191 61.9476 164.228 62.7827C164.232 62.8753 164.159 62.9535 164.064 62.9574C164.062 62.9574 164.059 62.9574 164.056 62.9574Z" fill="#323536"/>
<path d="M149.678 44.339C149.586 44.339 149.509 44.2672 149.507 44.1763C149.505 44.1289 149.475 42.9954 149.742 41.1987C149.756 41.1069 149.842 41.0437 149.936 41.0569C150.03 41.0702 150.095 41.1554 150.081 41.2471C149.819 43.0121 149.849 44.1551 149.85 44.1664C149.852 44.259 149.778 44.3363 149.683 44.339C149.682 44.339 149.68 44.339 149.678 44.339Z" fill="#323536"/>
<path d="M138.177 12.694C131.762 11.7462 128.323 31.752 128.317 33.2464C128.317 33.2464 127.889 36.5918 131.486 36.668C133.079 36.7017 134.044 35.3792 134.044 35.3792C135.752 33.3412 145.799 13.8201 138.177 12.694Z" fill="#FFA293"/>
<path d="M129.405 24.4626C129.405 24.4626 133.792 26.7512 138.874 27.5009C138.874 27.5009 144.16 13.6434 138.989 12.2509C133.819 10.8584 129.405 24.4626 129.405 24.4626Z" fill="#81319B"/>
<path d="M138.875 27.672C138.855 27.672 138.834 27.6685 138.815 27.6613C138.726 27.6288 138.681 27.5322 138.714 27.4454C138.74 27.3779 141.299 20.6353 141.08 16.3268C141.075 16.2343 141.148 16.1556 141.242 16.151C141.335 16.1448 141.418 16.2176 141.422 16.3102C141.646 20.6881 139.062 27.4948 139.035 27.5631C139.01 27.6304 138.944 27.672 138.875 27.672Z" fill="#323536"/>
<path d="M131.765 36.6687C137.03 36.5204 143.718 33.7483 143.608 33.7619L143.089 29.1418C133.101 29.3613 131.108 30.7556 130.749 30.8727C130.749 30.8727 128.683 31.367 128.455 33.3971C128.115 36.4237 131.355 36.6754 131.765 36.6687Z" fill="#FFA293"/>
<path d="M143.09 29.1449L147.974 28.4519L147.659 32.5736L143.337 33.8646L143.09 29.1449Z" fill="#FFA293"/>
<path d="M144.568 28.9427C144.568 28.9427 146.104 27.4169 148.143 27.3736C150.183 27.3303 155.641 29.6409 155.902 30.1858C156.163 30.7309 155.539 31.2098 155.539 31.2098C155.539 31.2098 156.16 32.172 155.798 32.8118C155.436 33.4516 153.109 33.6704 152.323 33.2842C151.538 32.898 149.837 31.7732 149.542 31.7084C149.247 31.6437 146.72 33.4243 145.966 33.4581C145.212 33.492 143.902 33.2648 143.902 33.2648L144.568 28.9427Z" fill="#FFA293"/>
<path d="M172.471 21.2863C172.471 21.2863 172.296 20.8253 171.481 20.807L155.437 20.8022L151.624 32.601H152.336L172.471 21.2863Z" fill="#EAEAEA"/>
<path d="M144.672 33.5387H152.048H168.462L172.471 21.2847H156.057L152.336 32.5993H144.672V33.5387Z" fill="white"/>
<path d="M152.335 33.5387H168.462L172.471 21.2847H170.557C167.432 33.0209 156.917 31.2809 152.335 33.5387Z" fill="#EAEAEA"/>
<path d="M163.182 25.3298C162.074 25.3298 161.173 26.2108 161.173 27.2935C161.173 28.376 162.074 29.2572 163.182 29.2572C164.29 29.2572 165.191 28.3762 165.191 27.2935C165.191 26.2108 164.29 25.3298 163.182 25.3298ZM163.182 29.0687C162.18 29.0687 161.366 28.2725 161.366 27.2935C161.366 26.3151 162.18 25.5183 163.182 25.5183C164.183 25.5183 164.998 26.3153 164.998 27.2935C164.998 28.2725 164.183 29.0687 163.182 29.0687Z" fill="#292E30"/>
<path d="M163.181 28.6885C163.971 28.6885 164.612 28.0624 164.612 27.2902C164.612 26.5179 163.971 25.8918 163.181 25.8918C162.391 25.8918 161.75 26.5179 161.75 27.2902C161.75 28.0624 162.391 28.6885 163.181 28.6885Z" fill="#292E30"/>
<path d="M132.255 30.4735C132.186 30.4735 132.12 30.4322 132.094 30.3652C132.061 30.2786 132.105 30.1818 132.194 30.149C133.965 29.4914 138.005 29.2203 138.176 29.2092C138.275 29.2025 138.352 29.2729 138.359 29.3653C138.365 29.4577 138.294 29.5378 138.199 29.5439C138.158 29.5466 134.039 29.8229 132.316 30.4626C132.296 30.4698 132.275 30.4735 132.255 30.4735Z" fill="#323536"/>
<path d="M138.403 27.5985C138.393 27.5985 138.383 27.5977 138.373 27.5959C133.846 26.8231 129.776 24.8378 129.735 24.8179C129.651 24.7762 129.617 24.6755 129.659 24.5927C129.702 24.5099 129.805 24.4765 129.89 24.5183C129.93 24.5379 133.956 26.5014 138.432 27.2655C138.526 27.2813 138.588 27.3682 138.572 27.4594C138.557 27.541 138.485 27.5985 138.403 27.5985Z" fill="#323536"/>
<path d="M117.029 21.7708H106.926C105.957 21.7708 105.168 21.0001 105.168 20.0528V12.5864C105.168 11.6391 105.957 10.8684 106.926 10.8684H117.029C117.998 10.8684 118.786 11.6391 118.786 12.5864V20.0528C118.786 21.0002 117.998 21.7708 117.029 21.7708ZM106.926 11.1737C106.129 11.1737 105.48 11.8075 105.48 12.5867V20.0531C105.48 20.8322 106.128 21.4662 106.926 21.4662H117.029C117.826 21.4662 118.474 20.8324 118.474 20.0531V12.5867C118.474 11.8076 117.826 11.1737 117.029 11.1737H106.926Z" fill="#292E30"/>
<path d="M117.031 21.7919H106.929C105.951 21.7919 105.155 21.0143 105.155 20.0586V12.5923C105.155 11.6366 105.951 10.8591 106.929 10.8591H117.031C118.009 10.8591 118.805 11.6366 118.805 12.5923V20.0586C118.805 21.0143 118.009 21.7919 117.031 21.7919ZM106.929 11.1946C106.14 11.1946 105.498 11.8217 105.498 12.5923V20.0586C105.498 20.8293 106.14 21.4564 106.929 21.4564H117.031C117.82 21.4564 118.462 20.8293 118.462 20.0586V12.5923C118.462 11.8215 117.82 11.1946 117.031 11.1946H106.929Z" fill="#292E30"/>
<path d="M113.982 18.6561C113.916 18.6561 113.853 18.6186 113.825 18.5556C113.807 18.516 113.356 17.5684 111.977 17.5542C111.967 17.554 111.956 17.554 111.946 17.554C110.582 17.554 110.122 18.4908 110.117 18.5004C110.077 18.5844 109.975 18.6207 109.889 18.5821C109.804 18.5433 109.766 18.4435 109.806 18.3595C109.828 18.3126 110.365 17.2188 111.945 17.2188C111.957 17.2188 111.969 17.2189 111.981 17.2189C113.588 17.2355 114.118 18.3726 114.139 18.421C114.177 18.5058 114.138 18.6047 114.051 18.6419C114.029 18.6515 114.005 18.6561 113.982 18.6561Z" fill="#81319B"/>
<path d="M114.933 17.5244C114.87 17.5246 114.809 17.4903 114.779 17.4311C114.748 17.3688 113.969 15.8945 111.972 15.8945C110.03 15.8945 109.168 17.3421 109.159 17.3569C109.113 17.4374 109.008 17.4657 108.925 17.4201C108.843 17.3744 108.814 17.2721 108.861 17.1914C108.899 17.1248 109.832 15.5591 111.971 15.5591C114.188 15.5591 115.051 17.2119 115.087 17.2823C115.129 17.3652 115.094 17.4659 115.009 17.507C114.985 17.5188 114.959 17.5244 114.933 17.5244Z" fill="#81319B"/>
<path d="M115.634 16.4197C115.571 16.4197 115.51 16.3855 115.48 16.3264C115.44 16.2481 114.478 14.4109 112.084 14.4109C112.083 14.4109 112.083 14.4109 112.082 14.4109C109.54 14.4122 108.501 16.1591 108.458 16.2335C108.411 16.314 108.307 16.3427 108.224 16.2972C108.142 16.2518 108.113 16.15 108.159 16.0693C108.205 15.9879 109.333 14.0768 112.082 14.0754C112.083 14.0754 112.083 14.0754 112.084 14.0754C114.697 14.0754 115.777 16.157 115.788 16.1779C115.829 16.261 115.795 16.3613 115.71 16.4023C115.685 16.414 115.659 16.4197 115.634 16.4197Z" fill="#81319B"/>
<path d="M116.538 15.3715C116.482 15.3717 116.428 15.3453 116.395 15.2965C116.378 15.272 114.702 12.8526 112.09 12.9273C108.839 13.0206 107.572 15.1408 107.56 15.1622C107.513 15.2427 107.408 15.2711 107.326 15.2256C107.244 15.1802 107.214 15.0782 107.261 14.9975C107.315 14.9035 108.627 12.6911 112.08 12.592C114.883 12.5063 116.609 15.0051 116.681 15.1114C116.733 15.1887 116.712 15.2926 116.633 15.3438C116.603 15.3625 116.57 15.3715 116.538 15.3715Z" fill="#81319B"/>
<path d="M111.971 20.2295C111.431 20.2295 110.992 19.8006 110.992 19.2732C110.992 18.7458 111.431 18.3169 111.971 18.3169C112.51 18.3169 112.949 18.7459 112.949 19.2732C112.949 19.8004 112.51 20.2295 111.971 20.2295ZM111.971 18.6522C111.62 18.6522 111.336 18.9307 111.336 19.273C111.336 19.6153 111.621 19.8939 111.971 19.8939C112.321 19.8939 112.606 19.6153 112.606 19.273C112.606 18.9307 112.321 18.6522 111.971 18.6522Z" fill="#81319B"/>
<path d="M59.3759 67.2629H49.3586C48.3884 67.2629 47.5989 66.4912 47.5989 65.5428V58.1398C47.5989 57.1914 48.3884 56.4199 49.3586 56.4199H59.3759C60.3462 56.4199 61.1356 57.1914 61.1356 58.1398V65.5428C61.1356 66.4914 60.3462 67.2629 59.3759 67.2629ZM49.3586 56.7554C48.5774 56.7554 47.9421 57.3764 47.9421 58.1398V65.5428C47.9421 66.3064 48.5774 66.9274 49.3586 66.9274H59.3759C60.1571 66.9274 60.7924 66.3064 60.7924 65.5428V58.1398C60.7924 57.3764 60.1571 56.7554 59.3759 56.7554H49.3586Z" fill="#292E30"/>
<path d="M57.4033 61.5027L51.6726 58.7021C51.4194 58.5783 51.1213 58.7584 51.1213 59.0351V64.6363C51.1213 64.913 51.4194 65.0931 51.6726 64.9693L57.4033 62.1687C57.6841 62.0316 57.6841 61.64 57.4033 61.5027Z" fill="#81319B"/>
<path d="M95.3758 37.7073H85.1892C84.2041 37.7073 83.4026 36.9241 83.4026 35.9611V28.433C83.4026 27.4702 84.2039 26.6868 85.1892 26.6868H95.3758C96.3609 26.6868 97.1624 27.47 97.1624 28.433V35.9611C97.1624 36.9241 96.3611 37.7073 95.3758 37.7073ZM85.1893 27.0222C84.3935 27.0222 83.7459 27.6551 83.7459 28.433V35.9611C83.7459 36.739 84.3935 37.3719 85.1893 37.3719H95.376C96.1719 37.3719 96.8194 36.739 96.8194 35.9611V28.433C96.8194 27.6551 96.1719 27.0222 95.376 27.0222H85.1893Z" fill="#292E30"/>
<path d="M88.6792 31.2751L88.757 35.6783L87.1819 35.7049C86.4397 35.7174 85.8273 35.1392 85.8145 34.4136L85.7832 32.6401C85.7704 31.9146 86.3619 31.3143 87.1041 31.3018L88.6792 31.2751Z" fill="#159D9B"/>
<path d="M94.4563 35.4823C93.9264 36.0899 89.3496 35.6673 89.3496 35.6673L89.2717 31.2641C89.2717 31.2641 90.0118 30.855 90.2228 30.1207C90.4306 29.3914 90.7456 28.4559 91.3212 28.5949C91.8985 28.734 92.1364 30.2425 91.4455 31.2273C91.4455 31.2273 93.667 30.5996 94.2838 31.2346C94.8692 31.8351 94.9527 34.9138 94.4563 35.4823Z" fill="#159D9B"/>
<path d="M70.483 28.0325H60.6712C59.7189 28.0325 58.9441 27.2752 58.9441 26.3444V19.0932C58.9441 18.1623 59.7189 17.405 60.6712 17.405H70.483C71.4354 17.405 72.2102 18.1623 72.2102 19.0932V26.3444C72.2102 27.2754 71.4354 28.0325 70.483 28.0325ZM60.6712 17.7406C59.908 17.7406 59.2873 18.3474 59.2873 19.0933V26.3445C59.2873 27.0904 59.9081 27.6972 60.6712 27.6972H70.483C71.2462 27.6972 71.867 27.0904 71.867 26.3445V19.0933C71.867 18.3474 71.2462 17.7406 70.483 17.7406H60.6712Z" fill="#292E30"/>
<path d="M64.3335 20.9663C62.9041 20.9663 61.7457 22.0986 61.7457 23.4956C61.7457 23.9813 61.886 24.4336 62.1282 24.8195C61.7988 25.0577 61.6681 25.5953 61.5537 26.1555C62.0465 25.9041 62.5842 25.7589 63.1859 25.763C63.5317 25.9294 63.9209 26.0251 64.3335 26.0251C65.7629 26.0251 66.9213 24.8929 66.9213 23.4958C66.9214 22.0986 65.7629 20.9663 64.3335 20.9663ZM63.0186 23.8257C62.8116 23.8257 62.6443 23.6608 62.6443 23.4598C62.6443 23.2575 62.8116 23.0925 63.0186 23.0925C63.2255 23.0925 63.393 23.2575 63.393 23.4598C63.3929 23.6606 63.2255 23.8257 63.0186 23.8257ZM64.2695 23.8257C64.0627 23.8257 63.8952 23.6608 63.8952 23.4598C63.8952 23.2575 64.0625 23.0925 64.2695 23.0925C64.4764 23.0925 64.6439 23.2575 64.6439 23.4598C64.6439 23.6606 64.4766 23.8257 64.2695 23.8257ZM65.5192 23.8257C65.3124 23.8257 65.1448 23.6608 65.1448 23.4598C65.1448 23.2575 65.3122 23.0925 65.5192 23.0925C65.7262 23.0925 65.8936 23.2575 65.8936 23.4598C65.8936 23.6606 65.7262 23.8257 65.5192 23.8257Z" fill="#81319B"/>
<path d="M69.6042 24.4804C69.0545 24.1352 68.5075 23.9021 67.9711 24.0875C67.71 24.2139 67.424 24.2988 67.1222 24.3328C67.205 24.0686 67.2498 23.7881 67.2498 23.4975C67.2498 21.9894 66.046 20.751 64.5283 20.6524C64.96 19.8434 65.826 19.2913 66.8239 19.2913C68.253 19.2913 69.4115 20.4235 69.4115 21.8203C69.4115 22.3058 69.2711 22.7592 69.0286 23.1443C69.4171 23.3705 69.5541 23.877 69.6042 24.4804Z" fill="#81319B"/>
<path d="M73.2214 102.683L71.6797 110.466L78.2152 112.133L80.3588 104.735L73.2214 102.683Z" fill="#FFA293"/>
<path d="M71.9085 107.144C71.9085 107.144 68.7546 108.169 64.6798 108.019C60.6049 107.87 56.5334 107.684 55.4475 111.007C55.4475 111.007 59.3834 114.598 66.4776 117.506C73.5719 120.414 75.7912 119.926 75.7912 119.926C75.7912 119.926 78.61 115.385 78.6571 110.601C78.6571 110.601 75.2979 111.061 74.1033 110.053C72.9086 109.046 73.1831 106.712 71.9085 107.144Z" fill="#292E30"/>
<path d="M81.6926 95.2705C86.4801 93.822 95.5989 87.2534 95.5989 87.2534L93.1309 80.9338C81.1001 82.502 76.4535 89.2487 76.4535 89.2487C76.4535 89.2487 73.5594 94.1216 79.966 95.4867C80.4346 95.5865 81.6712 95.2773 81.6926 95.2705Z" fill="#AC77BD"/>
<path d="M84.1067 92.3298C84.1067 92.3298 82.8109 88.3922 79.8203 87.9425C78.2187 87.7018 76.8382 88.9583 76.8382 88.9583C76.244 89.6804 73.7512 92.4409 71.5271 105.937C71.5271 105.937 76.7265 108.124 80.4772 110.04C80.4772 110.04 84.3009 96.2122 84.1067 92.3298Z" fill="#AC77BD"/>
<path d="M102.79 77.4661L76.1584 71.6222C74.5961 71.3917 73.3958 72.743 73.2576 74.2133C73.1056 75.8298 74.482 76.8364 74.482 76.8364C75.7822 77.8316 91.3531 88.3013 94.3392 88.537C97.4358 88.7814 101.643 87.0469 102.458 83.2807C103.275 79.5144 102.79 77.4661 102.79 77.4661Z" fill="#D299E4"/>
<path d="M86.4951 94.1275L81.5266 86.7744L86.8497 84.6511L91.1667 88.5531L86.4951 94.1275Z" fill="#FFA293"/>
<path d="M85.428 92.6016C85.428 92.6016 85.7596 94.7393 85.8417 100.551C85.9237 106.363 86.6653 109.222 88.7272 109.886C90.9002 110.585 91.3161 109.757 91.3161 109.757L97.8661 92.3421C97.8661 92.3421 95.2585 88.5006 89.9621 87.4646L85.428 92.6016Z" fill="#292E30"/>
<path d="M76.7854 71.1001C76.7854 71.1001 72.4254 71.6523 71.5184 75.1662C71.2791 76.0935 71.7583 77.22 71.9093 77.4639C74.0993 81.5413 81.258 92.4912 81.258 92.4912C85.4853 89.5699 90.6575 85.5965 90.6575 85.5965C81.8355 72.9833 77.5607 71.4215 76.7854 71.1001Z" fill="#D299E4"/>
<path d="M87.0886 61.1913C89.1447 65.4777 75.4005 73.4202 71.995 71.2997C71.995 71.2997 71.7474 70.9339 71.8909 69.7646C72.0983 68.076 72.6612 67.1063 72.6612 67.1063C74.2711 65.8678 84.6454 56.0979 87.0886 61.1913Z" fill="#FFA293"/>
<path d="M80.8503 69.5614L76.2981 63.7125C76.2981 63.7125 85.7987 56.2968 87.8157 60.3676C90.4365 65.6568 80.8503 69.5614 80.8503 69.5614Z" fill="#FDA202"/>
<path d="M86.5364 48.7153C86.5364 48.7153 85.4285 50.5295 85.8667 50.596C87.6151 50.8612 87.1368 54.6421 87.1368 54.6421C88.2245 54.966 92.0476 50.8886 88.7257 48.0249L86.5364 48.7153Z" fill="#323536"/>
<path d="M90.0125 57.499L91.0523 57.8459L98.5169 66.8282L88.4229 68.2204L84.7554 60.0419L86.0568 58.5732L90.0125 57.499Z" fill="#FFA293"/>
<path d="M89.7127 57.8415L86.5888 60.2102L85.3765 56.4125L85.2338 55.9647L85.1862 55.8156L85.161 55.7308L85.0142 55.2239L87.8537 53.0505L88.4914 54.6946L88.8413 55.5951L89.7127 57.8415Z" fill="#FFA293"/>
<path d="M85.4471 56.5838C87.2538 56.5557 87.8805 54.562 87.9113 54.4745C88.2522 53.506 88.1553 51.9902 87.8015 51.0454C87.0612 49.0652 84.0424 48.5561 82.7527 50.3041C81.4645 52.0524 82.5903 53.6597 82.5903 53.6597L82.6088 53.7356C82.7322 54.0708 83.7293 56.6121 85.4471 56.5838Z" fill="#FFA293"/>
<path d="M86.3137 51.7238C86.3137 51.7238 86.0156 51.5544 85.6933 51.5932C85.371 51.6317 85.2944 51.8746 85.3297 51.9498C85.3651 52.025 85.6054 51.8958 85.8695 51.922C86.1338 51.9483 86.3765 51.8784 86.3137 51.7238Z" fill="#323536"/>
<path d="M82.9377 52.893C82.9377 52.893 83.0599 52.5778 83.3349 52.4092C83.6099 52.2405 83.8261 52.3819 83.8472 52.4619C83.8682 52.542 83.5984 52.59 83.4102 52.7731C83.2221 52.9561 82.9886 53.0515 82.9377 52.893Z" fill="#323536"/>
<path d="M85.7803 52.7421C85.8403 52.897 85.979 52.9891 86.0899 52.9479C86.2008 52.9067 86.242 52.7478 86.182 52.5931C86.1219 52.4382 85.9832 52.3461 85.8723 52.3873C85.7614 52.4284 85.7202 52.5873 85.7803 52.7421Z" fill="#323536"/>
<path d="M83.5759 53.5856C83.636 53.7405 83.7747 53.8326 83.8856 53.7914C83.9965 53.7502 84.0377 53.5914 83.9776 53.4366C83.9176 53.2817 83.7789 53.1896 83.668 53.2308C83.5571 53.2718 83.5159 53.4307 83.5759 53.5856Z" fill="#323536"/>
<path d="M85.1726 55.6089C84.9299 55.6089 84.7541 55.4928 84.6736 55.3971C84.6134 55.3256 84.624 55.2198 84.6971 55.1611C84.7697 55.1027 84.8765 55.1124 84.9371 55.1822C84.9583 55.2057 85.1445 55.3895 85.5134 55.1575C85.9101 54.908 85.8671 54.7007 85.8357 54.5495L85.8309 54.5259C85.8128 54.435 85.8735 54.3469 85.9665 54.3292C86.0597 54.311 86.1496 54.3708 86.1677 54.4617L86.172 54.4827C86.2082 54.6573 86.2933 55.0659 85.6991 55.4396C85.5022 55.5634 85.3244 55.6089 85.1726 55.6089Z" fill="#323536"/>
<path d="M84.7595 54.6294C84.6826 54.6294 84.6057 54.6109 84.5335 54.573C84.3089 54.4556 84.343 54.1813 84.3705 53.961C84.3906 53.7989 84.3678 53.4834 84.3574 53.3756C84.3485 53.2834 84.4176 53.2015 84.512 53.1928C84.6082 53.1846 84.69 53.2518 84.699 53.3439C84.7007 53.3611 84.7399 53.7702 84.711 54.0015C84.7018 54.0746 84.6806 54.2456 84.7034 54.2847C84.755 54.3084 84.816 54.2967 84.8768 54.2421C84.9464 54.1795 85.055 54.184 85.1193 54.2522C85.1834 54.3203 85.1789 54.4265 85.109 54.4891C85.0063 54.5817 84.8829 54.6294 84.7595 54.6294Z" fill="#323536"/>
<path d="M88.9874 48.3319L87.6931 51.0132C86.9771 51.7079 85.1571 50.5646 85.1571 50.5646C85.1571 50.5646 84.8812 51.6223 83.795 51.6216C83.795 51.6216 83.4774 52.3156 82.521 52.507C82.521 52.507 82.4007 53.1534 81.8022 53.246C81.8022 53.246 80.0105 53.3606 79.6219 51.7441C79.2873 50.3524 79.9939 49.6338 80.8542 49.0024C81.6853 48.3925 82.2338 48.5938 82.2338 48.5938C82.2338 48.5938 82.2192 47.5797 83.1986 47.337C84.7091 46.9628 84.949 47.949 84.949 47.949C84.949 47.949 85.2626 46.9878 86.331 47.1655C87.1142 47.2957 87.3109 48.0242 87.3109 48.0242C87.3109 48.0242 88.0374 47.505 88.8149 48.0861C88.8426 48.107 88.9671 48.304 88.9874 48.3319Z" fill="#323536"/>
<path d="M88.3696 50.1807C88.0421 50.0108 87.7235 50.242 87.4931 50.503C87.2796 50.745 87.2315 51.0362 87.3836 51.2382C87.7499 51.7245 87.6109 52.4772 87.7658 53.0845C89.7315 52.1072 88.9999 50.5076 88.3696 50.1807Z" fill="#FFA293"/>
<path d="M88.2572 50.7458C88.0904 50.7588 87.8895 50.8745 87.8622 51.0195C87.8502 51.0831 87.9613 51.0869 87.9839 51.0206C88.0014 50.9695 88.0555 50.9245 88.1199 50.9119C88.177 50.9006 88.241 50.9235 88.2797 50.9472C88.3974 51.0195 88.3825 51.1778 88.3692 51.3019C88.3561 51.4257 88.3219 51.5533 88.2719 51.6783C88.2187 51.8111 88.1202 51.9365 88.066 52.0678C88.0145 52.1928 88.2315 52.2435 88.331 52.1322C88.4077 52.0464 88.4494 51.9465 88.4903 51.8525C88.5282 51.7654 88.5583 51.6771 88.5812 51.5894C88.6283 51.4098 88.652 51.2226 88.6221 51.0549C88.5956 50.9058 88.4811 50.7283 88.2572 50.7458Z" fill="#323536"/>
<path d="M85.4461 56.753C85.3572 56.753 85.282 56.6861 85.2752 56.5981C85.268 56.5058 85.3386 56.4253 85.4329 56.418C85.5386 56.4096 87.9866 56.1786 87.8723 52.976C87.869 52.8834 87.9431 52.8058 88.0378 52.8025C88.132 52.7975 88.2119 52.8717 88.2153 52.9643C88.3414 56.4965 85.4879 56.7503 85.4592 56.7524C85.455 56.7528 85.4505 56.753 85.4461 56.753Z" fill="#323536"/>
<path d="M87.637 53.2877C87.5646 53.2877 87.4973 53.2426 87.4738 53.1717C87.4445 53.0836 87.4939 52.989 87.5841 52.9604C87.8597 52.873 88.2949 52.6969 88.3996 52.579C88.4617 52.5091 88.5699 52.5016 88.6417 52.5623C88.7133 52.623 88.7209 52.7289 88.6589 52.7989C88.4545 53.029 87.816 53.2397 87.69 53.2795C87.6724 53.2851 87.6544 53.2877 87.637 53.2877Z" fill="#323536"/>
<path d="M90.0129 57.5015C90.0129 57.5015 91.0429 60.8288 88.3552 61.2902C85.6672 61.7516 85.5237 59.1776 85.5237 59.1776C85.5237 59.1776 84.426 59.7785 84.0859 60.4004C84.0859 60.4004 84.7849 67.2761 88.8963 70.6565C93.0076 74.0369 93.9873 75.7435 93.9873 75.7435C93.9873 75.7435 96.3986 76.9261 97.9252 77.9414C99.4517 78.9567 102.356 78.9083 102.912 78.4564C102.912 78.4564 103.845 69.1124 100.596 64.6048C97.3467 60.0971 96.0798 59.2663 95.2372 58.5024C93.8243 57.2217 90.5199 57.4341 90.0129 57.5015Z" fill="#FDA202"/>
<path d="M90.6567 72.3362C90.6162 72.3362 90.5753 72.3222 90.5425 72.2937C90.5316 72.2842 89.4509 71.341 89.3152 71.2265C89.3058 71.2186 89.2873 71.2047 89.2603 71.1844C87.8936 70.1545 86.6758 68.636 85.8311 66.9086C84.4348 64.0526 84.0946 61.238 84.0915 61.21C84.0807 61.1179 84.1484 61.0348 84.2425 61.0243C84.3371 61.0139 84.4217 61.0799 84.4325 61.1719C84.4356 61.1995 84.7703 63.9608 86.1409 66.7639C86.9628 68.4447 88.1449 69.9203 89.4699 70.9187C89.5043 70.9446 89.5278 70.9626 89.5397 70.9727C89.6773 71.0888 90.7265 72.0043 90.7711 72.0432C90.8417 72.1047 90.848 72.2109 90.7848 72.2799C90.751 72.3173 90.7038 72.3362 90.6567 72.3362Z" fill="#323536"/>
<path d="M93.8634 60.2868C89.1982 61.7135 93.7043 70.8994 94.8109 73.8991C94.8109 73.8991 95.8669 76.5502 97.4911 76.4401C100.306 76.2492 100.246 73.6266 100.246 73.6266C100.576 70.1492 98.2898 58.9332 93.8634 60.2868Z" fill="#FFA293"/>
<path d="M99.3102 74.583C99.6495 72.0573 97.8044 71.6115 97.8044 71.6115C96.2729 71.0527 93.202 69.9938 85.464 69.2732L84.6338 72.3847C84.6338 72.3847 92.9471 77.5435 97.8851 76.3896C97.8855 76.3894 99.0931 76.1995 99.3102 74.583Z" fill="#FFA293"/>
<path d="M71.2652 62.1525L74.5202 62.3577C74.8188 62.3764 75.0855 62.5463 75.2239 62.8056L79.4511 70.7288C79.7545 71.2975 79.3173 71.9746 78.6615 71.9514L75.4733 71.8389C75.1662 71.8281 74.8886 71.6572 74.7461 71.391L70.452 63.3751C70.1424 62.7971 70.5991 62.1105 71.2652 62.1525Z" fill="#292E30"/>
<path d="M92.2547 68.4523C92.2547 68.4523 97.2103 67.5112 99.3888 67.2802C99.3888 67.2802 98.2349 58.2098 93.1932 59.4655C88.8996 60.5346 92.2547 68.4523 92.2547 68.4523Z" fill="#FDA202"/>
<path d="M88.4949 70.1735C88.4949 70.1735 84.5988 66.7022 83.9223 66.4084C83.2394 66.1144 76.629 65.9635 76.2879 66.1637C75.9415 66.3747 75.9972 67.3882 76.1239 67.7112C76.0696 67.8049 75.9253 69.1498 76.5707 69.1766C76.5707 69.1766 76.5654 69.1905 76.558 69.2169C76.5541 69.2299 76.5496 69.2465 76.5449 69.2648C76.5448 69.2651 76.5448 69.2654 76.5448 69.2654C76.5445 69.2666 76.5443 69.2678 76.5438 69.2692C76.5406 69.2823 76.5373 69.2962 76.534 69.3117C76.4941 69.4711 76.4911 69.6287 76.5245 69.7852C76.5243 69.7882 76.5259 69.7914 76.5273 69.7946C76.549 69.9126 76.5927 70.0405 76.6685 70.1651C76.7973 70.3787 77.0223 70.5861 77.401 70.7453C77.401 70.7453 77.3645 70.8332 77.3472 70.9641C77.319 71.1853 77.3427 71.5285 77.6968 71.751C78.1198 72.0178 79.5952 72.5311 80.285 72.7643C80.2975 72.771 80.3086 72.776 80.3196 72.7826C80.3889 72.8161 80.4983 72.8493 80.6379 72.882C80.6426 72.8837 80.6443 72.8838 80.6443 72.8838C81.9474 73.193 84.8044 73.2985 84.8044 73.2985L86.5573 73.3347C86.5576 73.3345 88.6762 71.3991 88.4949 70.1735Z" fill="#FFA293"/>
<path d="M80.7921 68.3697C80.786 68.3697 80.7799 68.3694 80.7737 68.3686L76.1065 67.882C76.0123 67.8722 75.9441 67.7896 75.9541 67.6975C75.9641 67.6054 76.0466 67.5377 76.1428 67.5485L80.81 68.0352C80.9042 68.0449 80.9725 68.1276 80.9624 68.2197C80.953 68.3058 80.8786 68.3697 80.7921 68.3697Z" fill="#323536"/>
<path d="M80.7476 69.6664C80.7437 69.6664 80.7398 69.6663 80.7357 69.666L76.5466 69.3859C76.452 69.3796 76.3806 69.2996 76.3871 69.2072C76.3935 69.1148 76.4745 69.0454 76.5701 69.0514L80.7593 69.3315C80.8538 69.3377 80.9251 69.4178 80.9187 69.5103C80.9123 69.5988 80.837 69.6664 80.7476 69.6664Z" fill="#323536"/>
<path d="M80.6841 71.2657C80.6778 71.2657 80.6714 71.2654 80.6652 71.2648L77.3829 70.9135C77.2887 70.9035 77.2207 70.8205 77.231 70.7286C77.2415 70.6365 77.3263 70.5702 77.4202 70.5801L80.7025 70.9314C80.7967 70.9414 80.8647 71.0244 80.8544 71.1163C80.8447 71.2023 80.7703 71.2657 80.6841 71.2657Z" fill="#323536"/>
<path d="M72.7772 65.2922C72.7772 65.2922 71.1901 63.8344 69.9599 66.277C69.0407 68.1024 70.2128 71.5796 70.9586 71.6153C71.7044 71.651 73.944 71.0288 73.981 70.1342C74.0179 69.2397 73.4085 69.0056 73.4085 69.0056C73.4085 69.0056 73.6155 67.946 73.041 67.4469C73.041 67.4469 73.2814 66.553 72.7739 66.2531C72.7739 66.2531 73.0452 66.2208 72.7772 65.2922Z" fill="#FFA293"/>
<path d="M71.8129 66.5599C71.7296 66.5599 71.6564 66.5005 71.6436 66.4175C71.6293 66.326 71.6937 66.2403 71.7873 66.2264L72.7494 66.0826C72.8429 66.0692 72.9307 66.1316 72.9449 66.2232C72.9592 66.3147 72.8948 66.4004 72.8012 66.4142L71.8391 66.558C71.8303 66.5593 71.8214 66.5599 71.8129 66.5599Z" fill="#323536"/>
<path d="M71.9163 67.8399C71.8365 67.8399 71.7649 67.7853 71.7484 67.7061C71.7294 67.6153 71.789 67.5266 71.8819 67.508L73.0084 67.2814C73.1004 67.2624 73.192 67.3211 73.211 67.4119C73.23 67.5027 73.1704 67.5914 73.0775 67.61L71.951 67.8366C71.9393 67.8389 71.9276 67.8399 71.9163 67.8399Z" fill="#323536"/>
<path d="M71.9032 71.6527C71.8253 71.6527 71.7548 71.6006 71.7363 71.5233C71.7146 71.4332 71.7718 71.3429 71.8642 71.3217C73.2971 70.993 73.9467 70.4885 73.7948 69.8226C73.7004 69.4082 73.4832 69.2373 73.39 69.1812L72.3273 69.4491C72.2358 69.472 72.142 69.4183 72.1183 69.3285C72.0946 69.2388 72.1498 69.1473 72.2417 69.1242L73.3676 68.8403C73.4021 68.8316 73.4389 68.8336 73.4722 68.8462C73.4923 68.8538 73.9681 69.0408 74.1297 69.7495C74.3306 70.6301 73.5948 71.269 71.9425 71.6482C71.9294 71.6514 71.9161 71.6527 71.9032 71.6527Z" fill="#323536"/>
<path d="M92.2562 68.6184C92.186 68.6184 92.1203 68.576 92.0949 68.5078C92.0431 68.3686 90.8273 65.0684 90.8565 62.4398C90.8574 62.3471 90.9289 62.2744 91.0299 62.2739C91.1248 62.275 91.2008 62.3508 91.1997 62.4435C91.1711 65.0105 92.405 68.3598 92.4175 68.3933C92.4498 68.4804 92.4039 68.5766 92.3149 68.6083C92.2955 68.6152 92.2755 68.6184 92.2562 68.6184Z" fill="#323536"/>
<path d="M92.6406 68.5385C92.5584 68.5385 92.4859 68.4807 92.4717 68.399C92.4558 68.3077 92.5186 68.2211 92.6121 68.2055L98.9832 67.1454C99.0772 67.1292 99.1652 67.1913 99.1811 67.2826C99.197 67.3739 99.1342 67.4605 99.0407 67.4761L92.6697 68.5362C92.6598 68.5377 92.6503 68.5385 92.6406 68.5385Z" fill="#323536"/>
<path d="M99.3887 67.4525C99.3052 67.4525 99.2321 67.3929 99.2193 67.3098C99.2132 67.2707 98.598 63.384 96.9401 61.0867C96.8855 61.0111 96.9039 60.9063 96.9814 60.8529C97.0588 60.7996 97.1658 60.8176 97.2206 60.8934C98.9257 63.256 99.5335 67.0974 99.5586 67.2598C99.5728 67.3512 99.5082 67.4368 99.4144 67.4505C99.4059 67.4519 99.3973 67.4525 99.3887 67.4525Z" fill="#323536"/>
<path d="M97.2788 71.5954C97.2571 71.5954 97.2349 71.5913 97.2135 71.5828C95.6001 70.9345 93.4148 70.5611 93.3928 70.5574C93.2995 70.5417 93.2368 70.4549 93.253 70.3636C93.2693 70.2724 93.3571 70.2116 93.4513 70.227C93.4735 70.2308 95.6962 70.6106 97.3441 71.2726C97.4318 71.3079 97.4736 71.4059 97.4376 71.4916C97.4103 71.5562 97.3463 71.5954 97.2788 71.5954Z" fill="#323536"/>
<path d="M96.4738 76.7358C95.6646 76.7358 94.7304 76.6287 93.6656 76.4153C89.3728 75.5546 85.2485 72.8723 85.2073 72.8453C85.1287 72.7936 85.1077 72.6895 85.1604 72.6127C85.2131 72.5358 85.3198 72.5151 85.3984 72.5668C85.439 72.5933 89.5092 75.2396 93.7344 76.0867C96.4548 76.6321 98.3309 76.4548 99.3105 75.5593C100.039 74.8935 100.303 73.7951 100.094 72.2948C100.081 72.203 100.147 72.1185 100.241 72.106C100.335 72.0926 100.421 72.1577 100.434 72.2496C100.659 73.864 100.36 75.06 99.5451 75.8045C98.8645 76.4263 97.8499 76.7358 96.4738 76.7358Z" fill="#323536"/>
<path d="M85.32 73.4366C81.0467 73.4366 80.1406 72.8978 80.1017 72.8734C80.0222 72.8231 79.9993 72.7193 80.0506 72.6415C80.1014 72.5645 80.2059 72.5416 80.2855 72.5901C80.3067 72.602 81.3673 73.1736 86.2273 73.0934C86.2282 73.0934 86.2291 73.0934 86.2302 73.0934C86.3237 73.0934 86.4001 73.1666 86.4017 73.2584C86.4032 73.351 86.3277 73.4273 86.2329 73.4289C85.9128 73.4342 85.6088 73.4366 85.32 73.4366Z" fill="#323536"/>
<path d="M90.6575 85.7648C90.6037 85.7648 90.5506 85.7401 90.5171 85.6937C90.4771 85.6385 86.4873 80.1225 83.0826 76.3074C83.0202 76.2375 83.0277 76.1316 83.0991 76.0707C83.1706 76.0097 83.279 76.0169 83.3412 76.0869C86.7578 79.9151 90.7575 85.4451 90.7974 85.5004C90.852 85.576 90.8336 85.6808 90.7562 85.7341C90.7263 85.7549 90.6918 85.7648 90.6575 85.7648Z" fill="#323536"/>
<path d="M81.259 92.6554C81.2062 92.6554 81.1543 92.6317 81.1206 92.5872C81.0644 92.5126 81.0807 92.4076 81.1569 92.3527L90.2693 85.7885C90.3454 85.7337 90.4529 85.7495 90.5092 85.8241C90.5653 85.8986 90.5491 86.0037 90.4728 86.0586L81.3605 92.6227C81.3299 92.6447 81.2944 92.6554 81.259 92.6554Z" fill="#323536"/>
<path d="M93.1912 70.2681C93.1741 70.2681 93.1567 70.2655 93.1396 70.2601C92.354 70.0179 87.3558 69.326 87.3053 69.3191C87.2722 69.3145 87.2412 69.3006 87.2161 69.279L85.3095 67.6413C85.2384 67.5802 85.2314 67.4742 85.2939 67.4047C85.3563 67.335 85.4647 67.3283 85.536 67.3894L87.404 68.994C87.9655 69.0719 92.4646 69.7006 93.2425 69.9404C93.333 69.9683 93.3831 70.0624 93.3545 70.1508C93.3318 70.2223 93.2641 70.2681 93.1912 70.2681Z" fill="#323536"/>
<path d="M85.5241 59.1775C85.5241 59.1775 85.9417 61.7701 88.467 61.1572C90.751 60.6026 90.0133 57.5014 90.0133 57.5014C90.0133 57.5014 90.2105 57.278 90.5265 57.4608C90.5265 57.4608 91.5052 61.0312 88.5284 61.7486C85.2159 62.5469 85.0134 59.1905 85.0134 59.1905C85.0134 59.1905 85.2108 58.983 85.5241 59.1775Z" fill="white"/>
<path d="M202.217 121.014H23.8771C23.5927 121.014 23.3623 120.789 23.3623 120.511C23.3623 120.233 23.5929 120.008 23.8771 120.008H202.217C202.502 120.008 202.732 120.233 202.732 120.511C202.732 120.789 202.502 121.014 202.217 121.014Z" fill="#3A3B51"/>
<path d="M159.84 127.884H114.42C114.136 127.884 113.905 127.659 113.905 127.381C113.905 127.103 114.136 126.878 114.42 126.878H159.84C160.124 126.878 160.354 127.103 160.354 127.381C160.354 127.659 160.124 127.884 159.84 127.884Z" fill="#3A3B51"/>
<path d="M104.21 127.884H92.6415C92.3573 127.884 92.1267 127.659 92.1267 127.381C92.1267 127.103 92.3573 126.878 92.6415 126.878H104.21C104.494 126.878 104.725 127.103 104.725 127.381C104.725 127.659 104.495 127.884 104.21 127.884Z" fill="#3A3B51"/>
</svg>
