<svg width="9" height="10" viewBox="0 0 9 10" fill="none" xmlns="http://www.w3.org/2000/svg">
<path d="M8.47803 5.00036C8.47803 5.31085 8.24096 5.56254 7.94782 5.56254H4.76856V8.93781C4.76856 9.24831 4.53148 9.5 4.23902 9.5C3.94655 9.5 3.7088 9.24831 3.7088 8.93781V5.56254H0.529539C0.237077 5.56254 0 5.31085 0 5.00036C0 4.68987 0.237077 4.43746 0.529539 4.43746H3.7088V1.06219C3.7088 0.900845 3.77297 0.755278 3.87563 0.653454C3.97087 0.558083 4.09853 0.5 4.23902 0.5C4.34979 0.5 4.45245 0.536571 4.53756 0.598239C4.67737 0.699347 4.76856 0.869293 4.76856 1.06219V4.43746H7.94782C8.24096 4.43746 8.47803 4.68915 8.47803 5.00036Z" fill="url(#paint0_linear_1136_122721)"/>
<defs>
<linearGradient id="paint0_linear_1136_122721" x1="4.23902" y1="0.5" x2="4.23902" y2="9.5" gradientUnits="userSpaceOnUse">
<stop stop-color="#81319B"/>
<stop offset="0.48" stop-color="#00A99D"/>
<stop offset="1" stop-color="#0B2C4C"/>
</linearGradient>
</defs>
</svg>
