<svg width="47" height="53" viewBox="0 0 47 53" fill="none" xmlns="http://www.w3.org/2000/svg">
<path d="M5.87109 42.6455V46.8205C5.87109 47.534 6.45151 48.1144 7.16504 48.1144H11.3401C12.0537 48.1144 12.6341 47.534 12.6341 46.8205V42.6455C12.6341 41.932 12.0537 41.3516 11.3401 41.3516H7.16504C6.45161 41.3516 5.87109 41.932 5.87109 42.6455ZM7.42383 42.9043H11.0813V46.5617H7.42383V42.9043Z" fill="url(#paint0_linear_3367_16173)"/>
<path d="M14.9639 46.5625C14.535 46.5625 14.1875 46.91 14.1875 47.3389C14.1875 47.7677 14.535 48.1152 14.9639 48.1152H16.1025C16.5314 48.1152 16.8789 47.7677 16.8789 47.3389C16.8789 46.91 16.5314 46.5625 16.1025 46.5625H14.9639Z" fill="url(#paint1_linear_3367_16173)"/>
<path d="M18.4287 46.5625C17.9998 46.5625 17.6523 46.91 17.6523 47.3389C17.6523 47.7677 17.9998 48.1152 18.4287 48.1152H19.5674C19.9962 48.1152 20.3438 47.7677 20.3438 47.3389C20.3438 46.91 19.9962 46.5625 19.5674 46.5625H18.4287Z" fill="url(#paint2_linear_3367_16173)"/>
<path d="M21.8975 46.5625C21.4686 46.5625 21.1211 46.91 21.1211 47.3389C21.1211 47.7677 21.4686 48.1152 21.8975 48.1152H23.0361C23.465 48.1152 23.8125 47.7677 23.8125 47.3389C23.8125 46.91 23.465 46.5625 23.0361 46.5625H21.8975Z" fill="url(#paint3_linear_3367_16173)"/>
<path d="M25.6437 44.7295C25.6437 44.3006 25.2962 43.9531 24.8673 43.9531H14.9639C14.535 43.9531 14.1875 44.3006 14.1875 44.7295C14.1875 45.1584 14.535 45.5059 14.9639 45.5059H24.8673C25.2962 45.5059 25.6437 45.1584 25.6437 44.7295Z" fill="url(#paint4_linear_3367_16173)"/>
<path d="M24.8673 41.3516H14.9639C14.535 41.3516 14.1875 41.6991 14.1875 42.1279C14.1875 42.5568 14.535 42.9043 14.9639 42.9043H24.8673C25.2962 42.9043 25.6437 42.5568 25.6437 42.1279C25.6437 41.6991 25.2962 41.3516 24.8673 41.3516Z" fill="url(#paint5_linear_3367_16173)"/>
<path d="M15.7543 23.2656C11.47 23.2656 7.98438 26.7512 7.98438 31.0355C7.98438 35.3199 11.47 38.8055 15.7543 38.8055C20.0387 38.8055 23.5242 35.3199 23.5242 31.0355C23.5242 26.7512 20.0387 23.2656 15.7543 23.2656ZM15.7543 37.2528C12.3261 37.2528 9.53711 34.4637 9.53711 31.0355C9.53711 27.6073 12.326 24.8184 15.7543 24.8184C19.1825 24.8184 21.9715 27.6073 21.9715 31.0355C21.9715 34.4637 19.1824 37.2528 15.7543 37.2528Z" fill="url(#paint6_linear_3367_16173)"/>
<path d="M18.67 28.6647L15.0394 32.2955L12.8917 30.1478C12.5886 29.8447 12.097 29.8446 11.7938 30.1479C11.4906 30.4511 11.4906 30.9427 11.7939 31.2458L14.4906 33.9424C14.6421 34.0939 14.8409 34.1697 15.0395 34.1697C15.2382 34.1697 15.4369 34.0939 15.5886 33.9424L19.7682 29.7627C20.0714 29.4594 20.0714 28.9679 19.7682 28.6647C19.4648 28.3618 18.9733 28.3618 18.67 28.6647Z" fill="url(#paint7_linear_3367_16173)"/>
<path d="M46.0745 35.335L38.4611 29.2431C38.132 28.9796 37.6912 28.9293 37.3114 29.1121C36.9313 29.2948 36.6953 29.6702 36.6953 30.0918V32.1194H35.6133C35.1845 32.1194 34.837 32.467 34.837 32.8958C34.837 33.3247 35.1845 33.6722 35.6133 33.6722H37.4716C37.9005 33.6722 38.248 33.3247 38.248 32.8958V31.0611L44.6499 36.1835L38.248 41.3059V39.4712C38.248 39.0424 37.9005 38.6949 37.4716 38.6949H30.9962V33.6721H31.9903C32.4191 33.6721 32.7666 33.3246 32.7666 32.8957C32.7666 32.4668 32.4191 32.1193 31.9903 32.1193H30.9962V26.1247C31.7499 26.2593 32.5257 26.3296 33.3176 26.3296C40.5767 26.3296 46.4825 20.4238 46.4825 13.1647C46.4825 5.90557 40.5767 0 33.3176 0C30.676 0 28.1278 0.779473 25.9484 2.25426C25.5932 2.49452 25.5002 2.97721 25.7404 3.33238C25.9807 3.68743 26.4634 3.78049 26.8185 3.54034C28.7401 2.24008 30.9874 1.55273 33.3176 1.55273C39.7205 1.55273 44.9297 6.76185 44.9297 13.1649C44.9297 19.568 39.7206 24.7771 33.3176 24.7771C26.9145 24.7771 21.7053 19.568 21.7053 13.1649C21.7053 10.5011 22.6305 7.89845 24.3102 5.83642C24.581 5.50393 24.5311 5.01492 24.1988 4.74412C23.8663 4.47322 23.3773 4.52332 23.1065 4.85561C21.2036 7.19133 20.1549 10.1383 20.1526 13.155H3.41706C1.81723 13.155 0.515625 14.4566 0.515625 16.0564V41.4479C0.515625 41.8767 0.863127 42.2242 1.29199 42.2242C1.72086 42.2242 2.06836 41.8767 2.06836 41.4479V20.88H22.6571C24.3148 23.1642 26.6872 24.8975 29.4435 25.7478V50.0985C29.4435 50.8422 28.8384 51.4473 28.0948 51.4473H3.41706C2.6733 51.4473 2.06836 50.8421 2.06836 50.0985V45.071C2.06836 44.6422 1.72086 44.2946 1.29199 44.2946C0.863127 44.2946 0.515625 44.6422 0.515625 45.071V50.0985C0.515625 51.6984 1.81723 53 3.41706 53H28.0948C29.6946 53 30.9962 51.6984 30.9962 50.0985V40.2478H36.6953V42.2755C36.6953 42.6971 36.9313 43.0724 37.3114 43.2551C37.463 43.328 37.6241 43.3638 37.7841 43.3638C38.0251 43.3638 38.2633 43.2826 38.4611 43.1243L46.0743 37.0325C46.3336 36.8253 46.4823 36.516 46.4824 36.184C46.4824 35.8519 46.3338 35.5425 46.0745 35.335ZM6.77936 19.3273H2.06836V16.0564C2.06836 15.3127 2.67341 14.7077 3.41706 14.7077H6.77936V19.3273ZM8.33209 19.3273V14.7077H20.2434C20.4372 16.3597 20.9378 17.9191 21.687 19.3273H8.33209Z" fill="url(#paint8_linear_3367_16173)"/>
<path d="M34.8331 17.4376H31.8037C31.017 17.4376 30.377 16.7975 30.377 16.0109C30.377 15.582 30.0295 15.2345 29.6006 15.2345C29.1717 15.2345 28.8242 15.582 28.8242 16.0109C28.8242 17.6538 30.1608 18.9904 31.8037 18.9904H32.5421V20.2336C32.5421 20.6625 32.8896 21.01 33.3185 21.01C33.7473 21.01 34.0948 20.6625 34.0948 20.2336V18.9904H34.8331C36.476 18.9904 37.8126 17.6538 37.8126 16.0109V15.3683C37.8126 13.7254 36.476 12.3888 34.8331 12.3888H31.8037C31.017 12.3888 30.377 11.7486 30.377 10.962V10.3194C30.377 9.53267 31.0171 8.89264 31.8037 8.89264H34.8331C35.6198 8.89264 36.2599 9.53278 36.2599 10.3194C36.2599 10.7483 36.6074 11.0958 37.0362 11.0958C37.4651 11.0958 37.8126 10.7483 37.8126 10.3194C37.8126 8.6765 36.476 7.3399 34.8331 7.3399H34.0948V6.09668C34.0948 5.66781 33.7473 5.32031 33.3185 5.32031C32.8896 5.32031 32.5421 5.66781 32.5421 6.09668V7.3399H31.8037C30.1608 7.3399 28.8242 8.6765 28.8242 10.3194V10.962C28.8242 12.6049 30.1608 13.9415 31.8037 13.9415H34.8331C35.6198 13.9415 36.2599 14.5816 36.2599 15.3683V16.0109C36.26 16.7976 35.6198 17.4376 34.8331 17.4376Z" fill="url(#paint9_linear_3367_16173)"/>
<path d="M39.7201 18.4304C39.8535 18.5208 40.0048 18.5641 40.1546 18.5641C40.4036 18.5641 40.6482 18.4446 40.7982 18.2229C42.8481 15.1952 42.8481 11.1268 40.7983 8.09904C40.5578 7.74388 40.0753 7.65102 39.7201 7.89139C39.365 8.13175 39.2721 8.61444 39.5124 8.9696C41.2098 11.4766 41.2098 14.8454 39.5125 17.3522C39.2721 17.7074 39.365 18.1901 39.7201 18.4304Z" fill="url(#paint10_linear_3367_16173)"/>
<path d="M26.9124 7.89905C26.5573 7.6589 26.0746 7.75175 25.8342 8.1067C23.7844 11.1344 23.7844 15.2029 25.8343 18.2305C25.9843 18.4523 26.2289 18.5717 26.4779 18.5717C26.6277 18.5717 26.7791 18.5284 26.9124 18.4381C27.2675 18.1977 27.3604 17.715 27.12 17.36C25.4228 14.853 25.4227 11.4843 27.1201 8.97737C27.3604 8.62221 27.2675 8.13952 26.9124 7.89905Z" fill="url(#paint11_linear_3367_16173)"/>
<defs>
<linearGradient id="paint0_linear_3367_16173" x1="9.21496" y1="21.9463" x2="9.25259" y2="48.1144" gradientUnits="userSpaceOnUse">
<stop stop-color="#81319B"/>
<stop offset="0.48" stop-color="#01847B"/>
<stop offset="1" stop-color="#0B2C4C"/>
</linearGradient>
<linearGradient id="paint1_linear_3367_16173" x1="15.5303" y1="39.4412" x2="15.5332" y2="48.1152" gradientUnits="userSpaceOnUse">
<stop stop-color="#81319B"/>
<stop offset="0.48" stop-color="#01847B"/>
<stop offset="1" stop-color="#0B2C4C"/>
</linearGradient>
<linearGradient id="paint2_linear_3367_16173" x1="18.998" y1="40.8905" x2="18.998" y2="48.1152" gradientUnits="userSpaceOnUse">
<stop stop-color="#81319B"/>
<stop offset="0.48" stop-color="#01847B"/>
<stop offset="1" stop-color="#0B2C4C"/>
</linearGradient>
<linearGradient id="paint3_linear_3367_16173" x1="22.4668" y1="41.3563" x2="22.4668" y2="48.1152" gradientUnits="userSpaceOnUse">
<stop stop-color="#81319B"/>
<stop offset="0.48" stop-color="#01847B"/>
<stop offset="1" stop-color="#0B2C4C"/>
</linearGradient>
<linearGradient id="paint4_linear_3367_16173" x1="19.9156" y1="41.1967" x2="19.9156" y2="45.5059" gradientUnits="userSpaceOnUse">
<stop stop-color="#81319B"/>
<stop offset="0.48" stop-color="#01847B"/>
<stop offset="1" stop-color="#0B2C4C"/>
</linearGradient>
<linearGradient id="paint5_linear_3367_16173" x1="20.0332" y1="37.9395" x2="20.085" y2="44.5645" gradientUnits="userSpaceOnUse">
<stop stop-color="#81319B"/>
<stop offset="0.48" stop-color="#01847B"/>
<stop offset="1" stop-color="#0B2C4C"/>
</linearGradient>
<linearGradient id="paint6_linear_3367_16173" x1="16.5101" y1="11.5399" x2="15.7338" y2="43.785" gradientUnits="userSpaceOnUse">
<stop stop-color="#81319B"/>
<stop offset="0.48" stop-color="#01847B"/>
<stop offset="1" stop-color="#0B2C4C"/>
</linearGradient>
<linearGradient id="paint7_linear_3367_16173" x1="15.781" y1="24.1723" x2="15.781" y2="38.0951" gradientUnits="userSpaceOnUse">
<stop stop-color="#81319B"/>
<stop offset="0.48" stop-color="#01847B"/>
<stop offset="1" stop-color="#0B2C4C"/>
</linearGradient>
<linearGradient id="paint8_linear_3367_16173" x1="23.499" y1="0" x2="23.499" y2="53" gradientUnits="userSpaceOnUse">
<stop stop-color="#81319B"/>
<stop offset="0.48" stop-color="#01847B"/>
<stop offset="1" stop-color="#0B2C4C"/>
</linearGradient>
<linearGradient id="paint9_linear_3367_16173" x1="33.3184" y1="5.32031" x2="33.3184" y2="21.01" gradientUnits="userSpaceOnUse">
<stop stop-color="#81319B"/>
<stop offset="0.48" stop-color="#01847B"/>
<stop offset="1" stop-color="#0B2C4C"/>
</linearGradient>
<linearGradient id="paint10_linear_3367_16173" x1="40.8573" y1="7.75781" x2="40.8573" y2="18.5641" gradientUnits="userSpaceOnUse">
<stop stop-color="#81319B"/>
<stop offset="0.48" stop-color="#01847B"/>
<stop offset="1" stop-color="#0B2C4C"/>
</linearGradient>
<linearGradient id="paint11_linear_3367_16173" x1="25.7752" y1="7.76562" x2="25.7752" y2="18.5717" gradientUnits="userSpaceOnUse">
<stop stop-color="#81319B"/>
<stop offset="0.48" stop-color="#01847B"/>
<stop offset="1" stop-color="#0B2C4C"/>
</linearGradient>
</defs>
</svg>
