<svg width="31" height="31" viewBox="0 0 31 31" fill="none" xmlns="http://www.w3.org/2000/svg">
<g clip-path="url(#clip0_3367_16191)">
<path d="M23.7536 5.13956C23.7671 5.14054 23.7806 5.14152 23.7944 5.14152C23.8177 5.14152 23.841 5.13956 23.8638 5.13637C24.4742 5.14888 24.9627 5.64671 24.9634 6.25711C24.9634 6.53448 25.1883 6.75936 25.4657 6.75936C25.743 6.75936 25.9679 6.53448 25.9679 6.25711C25.9667 5.25875 25.2717 4.39502 24.2966 4.18019V3.69756C24.2966 3.4202 24.0717 3.19531 23.7944 3.19531C23.517 3.19531 23.2921 3.4202 23.2921 3.69756V4.203C22.2611 4.47864 21.5941 5.47603 21.7331 6.53423C21.8722 7.59244 22.7742 8.38357 23.8414 8.38357C24.4612 8.38357 24.9634 8.88607 24.9634 9.50578C24.9634 10.1253 24.4612 10.6277 23.8414 10.6277C23.2217 10.6277 22.7195 10.1253 22.7195 9.50578C22.7195 9.22842 22.4946 9.00354 22.2172 9.00354C21.9399 9.00354 21.715 9.22842 21.715 9.50578C21.7162 10.4681 22.3627 11.31 23.2921 11.5599V12.1102C23.2921 12.3876 23.517 12.6125 23.7944 12.6125C24.0717 12.6125 24.2966 12.3876 24.2966 12.1102V11.583C25.3573 11.3507 26.0726 10.3565 25.9556 9.27698C25.8389 8.19744 24.9274 7.37932 23.8414 7.37957C23.2389 7.37981 22.7438 6.90405 22.72 6.30199C22.6964 5.69993 23.1528 5.18665 23.7536 5.13981V5.13956Z" fill="url(#paint0_linear_3367_16191)"/>
<path d="M23.8698 0.742188C20.78 0.742188 18.1432 2.75829 17.1554 5.45787H4.68969C4.41355 5.45787 4.18941 5.70679 4.18744 5.98268L4.06875 23.6016H0.515491C0.238126 23.6016 0 23.8024 0 24.0803V26.3161C0.00637616 28.421 1.66419 30.1502 3.76686 30.2453V30.2564H19.2738V30.2417C19.3993 30.2463 19.4511 30.2564 19.5305 30.2564H19.5413C21.7176 30.2529 23.4801 28.4877 23.4801 26.3115V15.007C23.6057 15.0138 23.7386 15.0175 23.8686 15.0175C27.8005 15.0175 31.0001 11.8118 31.0001 7.8796C31.0001 3.9477 27.8019 0.742188 23.8698 0.742188ZM3.9579 29.2519H3.95471C2.33001 29.2497 1.01185 27.9359 1.0045 26.311V24.6061H15.5697V26.3039C15.5704 27.352 15.989 28.3568 16.7326 29.0957C16.7853 29.1484 16.8508 29.1891 16.906 29.2519H3.9579ZM22.4756 26.311C22.4758 27.933 21.1626 29.2487 19.5408 29.2519H19.5313C17.9029 29.2489 16.5823 27.9325 16.5742 26.3044V24.0803C16.5784 23.9518 16.5293 23.8274 16.4383 23.7367C16.3473 23.646 16.223 23.5972 16.0947 23.6016H5.07325L5.18851 6.46237H16.8766C16.7875 6.92219 16.7414 7.38913 16.739 7.85729C16.738 8.84731 16.9445 9.8263 17.3452 10.7315H12.6013C12.3237 10.7315 12.0991 10.9564 12.0991 11.2337C12.0991 11.5111 12.3237 11.736 12.6013 11.736H17.8901C18.9263 13.3653 20.5826 14.5013 22.4756 14.8814V26.311ZM23.8698 14.0133C20.4865 14.0133 17.7435 11.2705 17.7437 7.88696C17.7437 4.50341 20.4865 1.76066 23.87 1.76066C27.2533 1.76066 29.9961 4.50365 29.9961 7.88696C29.9924 11.2688 27.2519 14.0096 23.8698 14.0133Z" fill="url(#paint1_linear_3367_16191)"/>
<path d="M9.37707 14.0703C8.49053 14.0703 7.76953 14.7685 7.76953 15.6268C7.76953 16.4852 8.49053 17.1834 9.37707 17.1834C10.2636 17.1834 10.9849 16.4852 10.9849 15.6268C10.9849 14.7685 10.2636 14.0703 9.37707 14.0703ZM9.37707 16.1789C9.04428 16.1789 8.77403 15.9312 8.77403 15.6268C8.77403 15.3223 9.04453 15.0748 9.37707 15.0748C9.70961 15.0748 9.98035 15.3225 9.98035 15.6268C9.98035 15.9312 9.70961 16.1789 9.37707 16.1789Z" fill="url(#paint2_linear_3367_16191)"/>
<path d="M12.0977 15.6272C12.0977 15.9046 12.3223 16.1295 12.5999 16.1295H19.2959C19.5733 16.1295 19.7981 15.9046 19.7981 15.6272C19.7981 15.3499 19.5733 15.125 19.2959 15.125H12.5999C12.3223 15.125 12.0977 15.3499 12.0977 15.6272Z" fill="url(#paint3_linear_3367_16191)"/>
<path d="M9.37707 9.70312C8.49053 9.70312 7.76953 10.4016 7.76953 11.2599C7.76953 12.1182 8.49053 12.8164 9.37707 12.8164C10.2636 12.8164 10.9848 12.1182 10.9848 11.2599C10.9848 10.4016 10.2636 9.70312 9.37707 9.70312ZM9.37707 11.8119C9.04428 11.8119 8.77403 11.5642 8.77403 11.2599C8.77403 10.9556 9.04452 10.7076 9.37707 10.7076C9.70961 10.7076 9.98035 10.9553 9.98035 11.2599C9.98035 11.5642 9.70961 11.8122 9.37707 11.8122V11.8119Z" fill="url(#paint4_linear_3367_16191)"/>
<path d="M9.37707 18.4375C8.49053 18.4375 7.76953 19.1357 7.76953 19.994C7.76953 20.8524 8.49053 21.5506 9.37707 21.5506C10.2636 21.5506 10.9849 20.8524 10.9849 19.994C10.9849 19.1357 10.2636 18.4375 9.37707 18.4375ZM9.37707 20.5461C9.04428 20.5461 8.77403 20.2986 8.77403 19.994C8.77403 19.6897 9.04453 19.442 9.37707 19.442C9.70961 19.442 9.98035 19.6897 9.98035 19.994C9.98035 20.2984 9.70961 20.5461 9.37707 20.5461Z" fill="url(#paint5_linear_3367_16191)"/>
<path d="M19.2959 19.5156H12.5999C12.3223 19.5156 12.0977 19.7405 12.0977 20.0179C12.0977 20.2952 12.3223 20.5201 12.5999 20.5201H19.2959C19.5733 20.5201 19.7981 20.2952 19.7981 20.0179C19.7981 19.7405 19.5733 19.5156 19.2959 19.5156Z" fill="url(#paint6_linear_3367_16191)"/>
</g>
<defs>
<linearGradient id="paint0_linear_3367_16191" x1="23.8575" y1="4.35714" x2="23.8575" y2="18.5" gradientUnits="userSpaceOnUse">
<stop stop-color="#81319B"/>
<stop offset="0.5" stop-color="#00A99D"/>
<stop offset="1" stop-color="#0B2C4C"/>
</linearGradient>
<linearGradient id="paint1_linear_3367_16191" x1="15.5" y1="0.742187" x2="15.5" y2="30.2564" gradientUnits="userSpaceOnUse">
<stop stop-color="#81319B"/>
<stop offset="0.5" stop-color="#00A99D"/>
<stop offset="1" stop-color="#0B2C4C"/>
</linearGradient>
<linearGradient id="paint2_linear_3367_16191" x1="9.42822" y1="11.356" x2="9.42822" y2="18.5703" gradientUnits="userSpaceOnUse">
<stop stop-color="#81319B"/>
<stop offset="0.372284" stop-color="#00A99D"/>
<stop offset="1" stop-color="#0B2C4C"/>
</linearGradient>
<linearGradient id="paint3_linear_3367_16191" x1="15.9986" y1="12.5731" x2="15.9986" y2="17.716" gradientUnits="userSpaceOnUse">
<stop stop-color="#81319B"/>
<stop offset="0.5" stop-color="#00A99D"/>
<stop offset="1" stop-color="#0B2C4C"/>
</linearGradient>
<linearGradient id="paint4_linear_3367_16191" x1="9.21394" y1="4.28348" x2="9.42822" y2="21.2121" gradientUnits="userSpaceOnUse">
<stop stop-color="#81319B"/>
<stop offset="0.5" stop-color="#00A99D"/>
<stop offset="0.756272" stop-color="#1D8E9D"/>
<stop offset="1" stop-color="#0B2C4C"/>
</linearGradient>
<linearGradient id="paint5_linear_3367_16191" x1="9.37719" y1="16.8577" x2="9.37719" y2="21.5506" gradientUnits="userSpaceOnUse">
<stop stop-color="#81319B"/>
<stop offset="0.5" stop-color="#00A99D"/>
<stop offset="1" stop-color="#0B2C4C"/>
</linearGradient>
<linearGradient id="paint6_linear_3367_16191" x1="15.9986" y1="16.9972" x2="15.9986" y2="22.0686" gradientUnits="userSpaceOnUse">
<stop stop-color="#81319B"/>
<stop offset="0.5" stop-color="#00A99D"/>
<stop offset="1" stop-color="#0B2C4C"/>
</linearGradient>
<clipPath id="clip0_3367_16191">
<rect width="31" height="31" fill="white"/>
</clipPath>
</defs>
</svg>
