<svg width="46" height="53" viewBox="0 0 46 53" fill="none" xmlns="http://www.w3.org/2000/svg">
<path d="M5.37109 42.6455V46.8205C5.37109 47.534 5.95151 48.1144 6.66504 48.1144H10.8401C11.5537 48.1144 12.1341 47.534 12.1341 46.8205V42.6455C12.1341 41.932 11.5537 41.3516 10.8401 41.3516H6.66504C5.95161 41.3516 5.37109 41.932 5.37109 42.6455ZM6.92383 42.9043H10.5813V46.5617H6.92383V42.9043Z" fill="url(#paint0_linear_4011_17901)"/>
<path d="M14.4639 46.5625C14.035 46.5625 13.6875 46.91 13.6875 47.3389C13.6875 47.7677 14.035 48.1152 14.4639 48.1152H15.6025C16.0314 48.1152 16.3789 47.7677 16.3789 47.3389C16.3789 46.91 16.0314 46.5625 15.6025 46.5625H14.4639Z" fill="url(#paint1_linear_4011_17901)"/>
<path d="M17.9287 46.5625C17.4998 46.5625 17.1523 46.91 17.1523 47.3389C17.1523 47.7677 17.4998 48.1152 17.9287 48.1152H19.0674C19.4962 48.1152 19.8438 47.7677 19.8438 47.3389C19.8438 46.91 19.4962 46.5625 19.0674 46.5625H17.9287Z" fill="url(#paint2_linear_4011_17901)"/>
<path d="M21.3975 46.5625C20.9686 46.5625 20.6211 46.91 20.6211 47.3389C20.6211 47.7677 20.9686 48.1152 21.3975 48.1152H22.5361C22.965 48.1152 23.3125 47.7677 23.3125 47.3389C23.3125 46.91 22.965 46.5625 22.5361 46.5625H21.3975Z" fill="url(#paint3_linear_4011_17901)"/>
<path d="M25.1437 44.7334C25.1437 44.3045 24.7962 43.957 24.3673 43.957H14.4639C14.035 43.957 13.6875 44.3045 13.6875 44.7334C13.6875 45.1623 14.035 45.5098 14.4639 45.5098H24.3673C24.7962 45.5098 25.1437 45.1623 25.1437 44.7334Z" fill="url(#paint4_linear_4011_17901)"/>
<path d="M24.3673 41.3516H14.4639C14.035 41.3516 13.6875 41.6991 13.6875 42.1279C13.6875 42.5568 14.035 42.9043 14.4639 42.9043H24.3673C24.7962 42.9043 25.1437 42.5568 25.1437 42.1279C25.1437 41.6991 24.7962 41.3516 24.3673 41.3516Z" fill="url(#paint5_linear_4011_17901)"/>
<path d="M15.2543 23.2695C10.97 23.2695 7.48438 26.7551 7.48438 31.0394C7.48438 35.3238 10.97 38.8094 15.2543 38.8094C19.5387 38.8094 23.0242 35.3238 23.0242 31.0394C23.0242 26.7551 19.5387 23.2695 15.2543 23.2695ZM15.2543 37.2567C11.8261 37.2567 9.03711 34.4676 9.03711 31.0394C9.03711 27.6112 11.826 24.8223 15.2543 24.8223C18.6825 24.8223 21.4715 27.6112 21.4715 31.0394C21.4715 34.4676 18.6824 37.2567 15.2543 37.2567Z" fill="url(#paint6_linear_4011_17901)"/>
<path d="M18.17 28.6647L14.5394 32.2955L12.3917 30.1478C12.0886 29.8447 11.597 29.8446 11.2938 30.1479C10.9906 30.4511 10.9906 30.9427 11.2939 31.2458L13.9906 33.9424C14.1421 34.0939 14.3409 34.1697 14.5395 34.1697C14.7382 34.1697 14.9369 34.0939 15.0886 33.9424L19.2682 29.7627C19.5714 29.4594 19.5714 28.9679 19.2682 28.6647C18.9648 28.3618 18.4733 28.3618 18.17 28.6647Z" fill="url(#paint7_linear_4011_17901)"/>
<path d="M45.5745 35.335L37.9611 29.2431C37.632 28.9796 37.1912 28.9293 36.8114 29.1121C36.4313 29.2948 36.1953 29.6702 36.1953 30.0918V32.1194H35.1133C34.6845 32.1194 34.337 32.467 34.337 32.8958C34.337 33.3247 34.6845 33.6722 35.1133 33.6722H36.9716C37.4005 33.6722 37.748 33.3247 37.748 32.8958V31.0611L44.1499 36.1835L37.748 41.3059V39.4712C37.748 39.0424 37.4005 38.6949 36.9716 38.6949H30.4962V33.6721H31.4903C31.9191 33.6721 32.2666 33.3246 32.2666 32.8957C32.2666 32.4668 31.9191 32.1193 31.4903 32.1193H30.4962V26.1247C31.2499 26.2593 32.0257 26.3296 32.8176 26.3296C40.0767 26.3296 45.9825 20.4238 45.9825 13.1647C45.9825 5.90557 40.0767 0 32.8176 0C30.176 0 27.6278 0.779473 25.4484 2.25426C25.0932 2.49452 25.0002 2.97721 25.2404 3.33238C25.4807 3.68743 25.9634 3.78049 26.3185 3.54034C28.2401 2.24008 30.4874 1.55273 32.8176 1.55273C39.2205 1.55273 44.4297 6.76185 44.4297 13.1649C44.4297 19.568 39.2206 24.7771 32.8176 24.7771C26.4145 24.7771 21.2053 19.568 21.2053 13.1649C21.2053 10.5011 22.1305 7.89845 23.8102 5.83642C24.081 5.50393 24.0311 5.01492 23.6988 4.74412C23.3663 4.47322 22.8773 4.52332 22.6065 4.85561C20.7036 7.19133 19.6549 10.1383 19.6526 13.155H2.91706C1.31723 13.155 0.015625 14.4566 0.015625 16.0564V41.4479C0.015625 41.8767 0.363127 42.2242 0.791992 42.2242C1.22086 42.2242 1.56836 41.8767 1.56836 41.4479V20.88H22.1571C23.8148 23.1642 26.1872 24.8975 28.9435 25.7478V50.0985C28.9435 50.8422 28.3384 51.4473 27.5948 51.4473H2.91706C2.1733 51.4473 1.56836 50.8421 1.56836 50.0985V45.071C1.56836 44.6422 1.22086 44.2946 0.791992 44.2946C0.363127 44.2946 0.015625 44.6422 0.015625 45.071V50.0985C0.015625 51.6984 1.31723 53 2.91706 53H27.5948C29.1946 53 30.4962 51.6984 30.4962 50.0985V40.2478H36.1953V42.2755C36.1953 42.6971 36.4313 43.0724 36.8114 43.2551C36.963 43.328 37.1241 43.3638 37.2841 43.3638C37.5251 43.3638 37.7633 43.2826 37.9611 43.1243L45.5743 37.0325C45.8336 36.8253 45.9823 36.516 45.9824 36.184C45.9824 35.8519 45.8338 35.5425 45.5745 35.335ZM6.27936 19.3273H1.56836V16.0564C1.56836 15.3127 2.17341 14.7077 2.91706 14.7077H6.27936V19.3273ZM7.83209 19.3273V14.7077H19.7434C19.9372 16.3597 20.4378 17.9191 21.187 19.3273H7.83209Z" fill="url(#paint8_linear_4011_17901)"/>
<path d="M34.3331 17.4376H31.3037C30.517 17.4376 29.877 16.7975 29.877 16.0109C29.877 15.582 29.5295 15.2345 29.1006 15.2345C28.6717 15.2345 28.3242 15.582 28.3242 16.0109C28.3242 17.6538 29.6608 18.9904 31.3037 18.9904H32.0421V20.2336C32.0421 20.6625 32.3896 21.01 32.8185 21.01C33.2473 21.01 33.5948 20.6625 33.5948 20.2336V18.9904H34.3331C35.976 18.9904 37.3126 17.6538 37.3126 16.0109V15.3683C37.3126 13.7254 35.976 12.3888 34.3331 12.3888H31.3037C30.517 12.3888 29.877 11.7486 29.877 10.962V10.3194C29.877 9.53267 30.5171 8.89264 31.3037 8.89264H34.3331C35.1198 8.89264 35.7599 9.53278 35.7599 10.3194C35.7599 10.7483 36.1074 11.0958 36.5362 11.0958C36.9651 11.0958 37.3126 10.7483 37.3126 10.3194C37.3126 8.6765 35.976 7.3399 34.3331 7.3399H33.5948V6.09668C33.5948 5.66781 33.2473 5.32031 32.8185 5.32031C32.3896 5.32031 32.0421 5.66781 32.0421 6.09668V7.3399H31.3037C29.6608 7.3399 28.3242 8.6765 28.3242 10.3194V10.962C28.3242 12.6049 29.6608 13.9415 31.3037 13.9415H34.3331C35.1198 13.9415 35.7599 14.5816 35.7599 15.3683V16.0109C35.76 16.7976 35.1198 17.4376 34.3331 17.4376Z" fill="url(#paint9_linear_4011_17901)"/>
<path d="M39.2201 18.4343C39.3535 18.5247 39.5048 18.568 39.6546 18.568C39.9036 18.568 40.1482 18.4485 40.2982 18.2268C42.3481 15.1991 42.3481 11.1307 40.2983 8.10294C40.0578 7.74778 39.5753 7.65493 39.2201 7.89529C38.865 8.13565 38.7721 8.61835 39.0124 8.97351C40.7098 11.4806 40.7098 14.8493 39.0125 17.3561C38.7721 17.7113 38.865 18.194 39.2201 18.4343Z" fill="url(#paint10_linear_4011_17901)"/>
<path d="M26.4124 7.89515C26.0573 7.65499 25.5746 7.74784 25.3342 8.1028C23.2844 11.1305 23.2844 15.199 25.3343 18.2266C25.4843 18.4484 25.7289 18.5678 25.9779 18.5678C26.1277 18.5678 26.2791 18.5245 26.4124 18.4342C26.7675 18.1938 26.8604 17.7111 26.62 17.3561C24.9228 14.8491 24.9227 11.4804 26.6201 8.97347C26.8604 8.61831 26.7675 8.13561 26.4124 7.89515Z" fill="url(#paint11_linear_4011_17901)"/>
<defs>
<linearGradient id="paint0_linear_4011_17901" x1="8.71496" y1="21.9463" x2="8.75259" y2="48.1144" gradientUnits="userSpaceOnUse">
<stop stop-color="#81319B"/>
<stop offset="0.48" stop-color="#01847B"/>
<stop offset="1" stop-color="#0B2C4C"/>
</linearGradient>
<linearGradient id="paint1_linear_4011_17901" x1="15.0303" y1="39.4412" x2="15.0332" y2="48.1152" gradientUnits="userSpaceOnUse">
<stop stop-color="#81319B"/>
<stop offset="0.48" stop-color="#01847B"/>
<stop offset="1" stop-color="#0B2C4C"/>
</linearGradient>
<linearGradient id="paint2_linear_4011_17901" x1="18.498" y1="40.8905" x2="18.498" y2="48.1152" gradientUnits="userSpaceOnUse">
<stop stop-color="#81319B"/>
<stop offset="0.48" stop-color="#01847B"/>
<stop offset="1" stop-color="#0B2C4C"/>
</linearGradient>
<linearGradient id="paint3_linear_4011_17901" x1="21.9668" y1="41.3563" x2="21.9668" y2="48.1152" gradientUnits="userSpaceOnUse">
<stop stop-color="#81319B"/>
<stop offset="0.48" stop-color="#01847B"/>
<stop offset="1" stop-color="#0B2C4C"/>
</linearGradient>
<linearGradient id="paint4_linear_4011_17901" x1="19.4156" y1="41.2006" x2="19.4156" y2="45.5098" gradientUnits="userSpaceOnUse">
<stop stop-color="#81319B"/>
<stop offset="0.48" stop-color="#01847B"/>
<stop offset="1" stop-color="#0B2C4C"/>
</linearGradient>
<linearGradient id="paint5_linear_4011_17901" x1="19.5332" y1="37.9395" x2="19.585" y2="44.5645" gradientUnits="userSpaceOnUse">
<stop stop-color="#81319B"/>
<stop offset="0.48" stop-color="#01847B"/>
<stop offset="1" stop-color="#0B2C4C"/>
</linearGradient>
<linearGradient id="paint6_linear_4011_17901" x1="16.0101" y1="11.5438" x2="15.2338" y2="43.7889" gradientUnits="userSpaceOnUse">
<stop stop-color="#81319B"/>
<stop offset="0.48" stop-color="#01847B"/>
<stop offset="1" stop-color="#0B2C4C"/>
</linearGradient>
<linearGradient id="paint7_linear_4011_17901" x1="15.281" y1="24.1723" x2="15.281" y2="38.0951" gradientUnits="userSpaceOnUse">
<stop stop-color="#81319B"/>
<stop offset="0.48" stop-color="#01847B"/>
<stop offset="1" stop-color="#0B2C4C"/>
</linearGradient>
<linearGradient id="paint8_linear_4011_17901" x1="22.999" y1="0" x2="22.999" y2="53" gradientUnits="userSpaceOnUse">
<stop stop-color="#81319B"/>
<stop offset="0.48" stop-color="#01847B"/>
<stop offset="1" stop-color="#0B2C4C"/>
</linearGradient>
<linearGradient id="paint9_linear_4011_17901" x1="32.8184" y1="5.32031" x2="32.8184" y2="21.01" gradientUnits="userSpaceOnUse">
<stop stop-color="#81319B"/>
<stop offset="0.48" stop-color="#01847B"/>
<stop offset="1" stop-color="#0B2C4C"/>
</linearGradient>
<linearGradient id="paint10_linear_4011_17901" x1="40.3573" y1="7.76172" x2="40.3573" y2="18.568" gradientUnits="userSpaceOnUse">
<stop stop-color="#81319B"/>
<stop offset="0.48" stop-color="#01847B"/>
<stop offset="1" stop-color="#0B2C4C"/>
</linearGradient>
<linearGradient id="paint11_linear_4011_17901" x1="25.2752" y1="7.76172" x2="25.2752" y2="18.5678" gradientUnits="userSpaceOnUse">
<stop stop-color="#81319B"/>
<stop offset="0.48" stop-color="#01847B"/>
<stop offset="1" stop-color="#0B2C4C"/>
</linearGradient>
</defs>
</svg>
