<svg width="22" height="22" viewBox="0 0 22 22" fill="none" xmlns="http://www.w3.org/2000/svg">
<path d="M14.6002 6.94607C13.6327 5.98687 12.3568 5.46094 11.0002 5.46094C10.9757 5.46094 10.9508 5.46094 10.9263 5.46155C9.60562 5.48027 8.35492 6.00866 7.40492 6.95006C6.45462 7.89146 5.91058 9.14125 5.87314 10.469C5.83203 11.9293 6.41074 13.3444 7.46138 14.3515C8.06126 14.9265 8.40524 15.45 8.40524 16.2647V16.3546C8.40524 16.6875 8.67373 16.9575 9.00482 16.9575H12.9947C13.3258 16.9575 13.594 16.6878 13.594 16.3546V16.265C13.594 15.4429 13.9346 14.9348 14.5526 14.3374C15.5686 13.3558 16.1279 12.0351 16.1279 10.619C16.1279 9.20292 15.5854 7.92338 14.6002 6.94638V6.94607ZM13.7217 13.4678C13.0058 14.1594 12.5492 14.797 12.4274 15.7516H9.57125C9.45097 14.7933 8.99807 14.1594 8.28802 13.4788C7.48286 12.7071 7.03947 11.6227 7.07107 10.5033C7.12999 8.4174 8.86673 6.69661 10.9425 6.66715C12.0042 6.65426 13.0033 7.05623 13.7579 7.80463C14.5127 8.55333 14.9285 9.55273 14.9285 10.6187C14.9285 11.6847 14.4998 12.7157 13.7213 13.4678H13.7217Z" fill="#81319B"/>
<path d="M12.5563 17.5791H9.444C9.11291 17.5791 8.84473 17.8488 8.84473 18.1821C8.84473 18.5153 9.11322 18.785 9.444 18.785H12.5563C12.8874 18.785 13.1556 18.5153 13.1556 18.1821C13.1556 17.8488 12.8871 17.5791 12.5563 17.5791Z" fill="#81319B"/>
<path d="M11.0006 20.3514C11.6671 20.3514 12.2556 19.9567 12.5993 19.3584H9.40039C9.74375 19.9564 10.3326 20.3514 11.0006 20.3514Z" fill="#81319B"/>
<path d="M10.9226 7.82227C10.5927 7.82227 10.3242 8.09076 10.3242 8.42062C10.3242 8.75047 10.5927 9.01897 10.9226 9.01897C11.8044 9.01897 12.5222 9.73668 12.5222 10.6186C12.5222 10.9484 12.7906 11.2169 13.1205 11.2169C13.4504 11.2169 13.7189 10.9484 13.7189 10.6186C13.7189 9.07665 12.4645 7.82227 10.9226 7.82227Z" fill="#81319B"/>
<path d="M11.0003 4.60244C11.3167 4.60244 11.5729 4.34592 11.5729 4.02987V2.22101C11.5729 1.90465 11.3164 1.64844 11.0003 1.64844C10.6843 1.64844 10.4277 1.90496 10.4277 2.22101V4.02987C10.4277 4.34623 10.6843 4.60244 11.0003 4.60244Z" fill="#81319B"/>
<path d="M15.6802 6.54083C15.8269 6.54083 15.9733 6.48499 16.0853 6.37299L17.3642 5.09405C17.5879 4.87036 17.5879 4.50767 17.3642 4.28398C17.1405 4.06029 16.7778 4.06029 16.5541 4.28398L15.2752 5.56291C15.0515 5.7866 15.0515 6.1493 15.2752 6.37299C15.3872 6.48468 15.5336 6.54083 15.6802 6.54083Z" fill="#81319B"/>
<path d="M19.4273 10.0752H17.6185C17.3021 10.0752 17.0459 10.3317 17.0459 10.6478C17.0459 10.9638 17.3024 11.2203 17.6185 11.2203H19.4273C19.7437 11.2203 19.9999 10.9638 19.9999 10.6478C19.9999 10.3317 19.7434 10.0752 19.4273 10.0752Z" fill="#81319B"/>
<path d="M5.91448 6.37299C6.02647 6.48468 6.17284 6.54083 6.31951 6.54083C6.46618 6.54083 6.61255 6.48499 6.72455 6.37299C6.94824 6.1493 6.94824 5.7866 6.72455 5.56291L5.44561 4.28398C5.22192 4.06029 4.85923 4.06029 4.63554 4.28398C4.41185 4.50767 4.41185 4.87036 4.63554 5.09405L5.91448 6.37299Z" fill="#81319B"/>
<path d="M4.95401 10.6478C4.95401 10.3314 4.69748 10.0752 4.38143 10.0752H2.57257C2.25622 10.0752 2 10.3317 2 10.6478C2 10.9638 2.25652 11.2203 2.57257 11.2203H4.38143C4.69779 11.2203 4.95401 10.9638 4.95401 10.6478Z" fill="#81319B"/>
<path d="M16.0853 14.9169C15.9733 14.8052 15.8269 14.749 15.6802 14.749C15.5336 14.749 15.3872 14.8049 15.2752 14.9169C15.0515 15.1406 15.0515 15.5033 15.2752 15.7269L16.5541 17.0059C16.7778 17.2296 17.1405 17.2296 17.3642 17.0059C17.5879 16.7822 17.5879 16.4195 17.3642 16.1958L16.0853 14.9169Z" fill="#81319B"/>
<path d="M6.31951 14.75C6.17284 14.75 6.02647 14.8058 5.91448 14.9178L4.63554 16.1968C4.41185 16.4205 4.41185 16.7832 4.63554 17.0069C4.85923 17.2305 5.22192 17.2305 5.44561 17.0069L6.72455 15.7279C6.94824 15.5042 6.94824 15.1415 6.72455 14.9178C6.61255 14.8062 6.46618 14.75 6.31951 14.75Z" fill="#81319B"/>
</svg>
