<svg width="401" height="6" viewBox="0 0 401 6" fill="none" xmlns="http://www.w3.org/2000/svg">
<path d="M0.415365 3C0.415365 4.47276 1.60927 5.66667 3.08203 5.66667C4.55479 5.66667 5.7487 4.47276 5.7487 3C5.7487 1.52724 4.55479 0.333333 3.08203 0.333333C1.60927 0.333333 0.415365 1.52724 0.415365 3ZM395.415 3C395.415 4.47276 396.609 5.66667 398.082 5.66667C399.555 5.66667 400.749 4.47276 400.749 3C400.749 1.52724 399.555 0.333333 398.082 0.333333C396.609 0.333333 395.415 1.52724 395.415 3ZM3.08203 3.5H398.082V2.5H3.08203V3.5Z" fill="#81319B"/>
</svg>
