<svg width="52" height="52" viewBox="0 0 52 52" fill="none" xmlns="http://www.w3.org/2000/svg">
<path fill-rule="evenodd" clip-rule="evenodd" d="M51.455 26C51.455 32.7509 48.7732 39.2254 43.9995 43.999C39.2259 48.7727 32.7514 51.4545 26.0004 51.4545C19.2495 51.4545 12.775 48.7727 8.00136 43.999C3.22771 39.2254 0.545898 32.7509 0.545898 26C0.545898 19.249 3.22771 12.7745 8.00136 8.00087C12.775 3.22722 19.2495 0.54541 26.0004 0.54541C32.7514 0.54541 39.2259 3.22722 43.9995 8.00087C48.7732 12.7745 51.455 19.249 51.455 26ZM26.0004 16.4545C25.4414 16.454 24.8921 16.6007 24.4078 16.88C23.9235 17.1593 23.5213 17.5613 23.2418 18.0454C23.04 18.4205 22.7649 18.7512 22.4329 19.018C22.1008 19.2847 21.7186 19.4821 21.3089 19.5985C20.8992 19.7148 20.4703 19.7477 20.0476 19.6951C19.6249 19.6426 19.2171 19.5058 18.8483 19.2927C18.4795 19.0797 18.1572 18.7947 17.9006 18.4548C17.644 18.1149 17.4582 17.7269 17.3543 17.3139C17.2504 16.9008 17.2304 16.4711 17.2957 16.0502C17.3609 15.6293 17.51 15.2258 17.7341 14.8636C18.7848 13.0439 20.4065 11.6218 22.3478 10.8178C24.2891 10.0137 26.4414 9.87271 28.471 10.4165C30.5006 10.9604 32.2941 12.1587 33.5732 13.8257C34.8524 15.4927 35.5458 17.5351 35.5459 19.6363C35.5465 21.611 34.9348 23.5373 33.7951 25.1499C32.6555 26.7626 31.0439 27.9822 29.1823 28.6409V29.1818C29.1823 30.0256 28.847 30.8349 28.2503 31.4317C27.6536 32.0284 26.8443 32.3636 26.0004 32.3636C25.1566 32.3636 24.3473 32.0284 23.7506 31.4317C23.1539 30.8349 22.8186 30.0256 22.8186 29.1818V26C22.8186 25.1561 23.1539 24.3468 23.7506 23.7501C24.3473 23.1534 25.1566 22.8181 26.0004 22.8181C26.8443 22.8181 27.6536 22.4829 28.2503 21.8862C28.847 21.2895 29.1823 20.4802 29.1823 19.6363C29.1823 18.7924 28.847 17.9831 28.2503 17.3864C27.6536 16.7897 26.8443 16.4545 26.0004 16.4545ZM26.0004 41.909C26.8443 41.909 27.6536 41.5738 28.2503 40.9771C28.847 40.3804 29.1823 39.5711 29.1823 38.7272C29.1823 37.8834 28.847 37.074 28.2503 36.4773C27.6536 35.8806 26.8443 35.5454 26.0004 35.5454C25.1566 35.5454 24.3473 35.8806 23.7506 36.4773C23.1539 37.074 22.8186 37.8834 22.8186 38.7272C22.8186 39.5711 23.1539 40.3804 23.7506 40.9771C24.3473 41.5738 25.1566 41.909 26.0004 41.909Z" fill="#00A99D"/>
</svg>
