<svg width="73" height="70" viewBox="0 0 73 70" fill="none" xmlns="http://www.w3.org/2000/svg">
<ellipse cx="34.5" cy="34.5" rx="21.5" ry="22.5" fill="white"/>
<path fill-rule="evenodd" clip-rule="evenodd" d="M60.455 35C60.455 41.751 57.7732 48.2254 52.9995 52.9991C48.2259 57.7727 41.7514 60.4545 35.0004 60.4545C28.2495 60.4545 21.775 57.7727 17.0014 52.9991C12.2277 48.2254 9.5459 41.751 9.5459 35C9.5459 28.249 12.2277 21.7746 17.0014 17.0009C21.775 12.2273 28.2495 9.54546 35.0004 9.54546C41.7514 9.54546 48.2259 12.2273 52.9995 17.0009C57.7732 21.7746 60.455 28.249 60.455 35ZM35.0004 25.4545C34.4414 25.454 33.8921 25.6008 33.4078 25.8801C32.9235 26.1593 32.5213 26.5613 32.2418 27.0455C32.04 27.4205 31.7649 27.7512 31.4329 28.018C31.1008 28.2848 30.7186 28.4822 30.3089 28.5985C29.8992 28.7148 29.4703 28.7477 29.0476 28.6952C28.6249 28.6427 28.2171 28.5058 27.8483 28.2928C27.4795 28.0797 27.1572 27.7948 26.9006 27.4549C26.644 27.1149 26.4582 26.727 26.3543 26.3139C26.2504 25.9009 26.2304 25.4711 26.2957 25.0502C26.3609 24.6294 26.51 24.2258 26.7341 23.8636C27.7848 22.044 29.4065 20.6219 31.3478 19.8178C33.2891 19.0138 35.4414 18.8728 37.471 19.4166C39.5006 19.9604 41.2941 21.1588 42.5732 22.8257C43.8524 24.4927 44.5458 26.5352 44.5459 28.6364C44.5465 30.6111 43.9348 32.5374 42.7951 34.15C41.6555 35.7626 40.0439 36.9822 38.1823 37.6409V38.1818C38.1823 39.0257 37.847 39.835 37.2503 40.4317C36.6536 41.0284 35.8443 41.3636 35.0004 41.3636C34.1566 41.3636 33.3473 41.0284 32.7506 40.4317C32.1539 39.835 31.8186 39.0257 31.8186 38.1818V35C31.8186 34.1561 32.1539 33.3468 32.7506 32.7501C33.3473 32.1534 34.1566 31.8182 35.0004 31.8182C35.8443 31.8182 36.6536 31.483 37.2503 30.8862C37.847 30.2895 38.1823 29.4802 38.1823 28.6364C38.1823 27.7925 37.847 26.9832 37.2503 26.3865C36.6536 25.7898 35.8443 25.4545 35.0004 25.4545ZM35.0004 50.9091C35.8443 50.9091 36.6536 50.5739 37.2503 49.9772C37.847 49.3805 38.1823 48.5711 38.1823 47.7273C38.1823 46.8834 37.847 46.0741 37.2503 45.4774C36.6536 44.8807 35.8443 44.5455 35.0004 44.5455C34.1566 44.5455 33.3473 44.8807 32.7506 45.4774C32.1539 46.0741 31.8186 46.8834 31.8186 47.7273C31.8186 48.5711 32.1539 49.3805 32.7506 49.9772C33.3473 50.5739 34.1566 50.9091 35.0004 50.9091Z" fill="#00A99D"/>
</svg>
