<svg width="70" height="70" viewBox="0 0 70 70" fill="none" xmlns="http://www.w3.org/2000/svg">
<ellipse cx="34.5" cy="34.5" rx="21.5" ry="22.5" fill="white"/>
<path fill-rule="evenodd" clip-rule="evenodd" d="M60.455 34.9995C60.455 41.7504 57.7732 48.2249 52.9995 52.9985C48.2259 57.7722 41.7514 60.454 35.0004 60.454C28.2495 60.454 21.775 57.7722 17.0014 52.9985C12.2277 48.2249 9.5459 41.7504 9.5459 34.9995C9.5459 28.2485 12.2277 21.774 17.0014 17.0004C21.775 12.2267 28.2495 9.54492 35.0004 9.54492C41.7514 9.54492 48.2259 12.2267 52.9995 17.0004C57.7732 21.774 60.455 28.2485 60.455 34.9995ZM35.0004 25.454C34.4414 25.4535 33.8921 25.6002 33.4078 25.8795C32.9235 26.1588 32.5213 26.5608 32.2418 27.0449C32.04 27.42 31.7649 27.7507 31.4329 28.0175C31.1008 28.2843 30.7186 28.4816 30.3089 28.598C29.8992 28.7143 29.4703 28.7472 29.0476 28.6946C28.6249 28.6421 28.2171 28.5053 27.8483 28.2922C27.4795 28.0792 27.1572 27.7942 26.9006 27.4543C26.644 27.1144 26.4582 26.7264 26.3543 26.3134C26.2504 25.9003 26.2304 25.4706 26.2957 25.0497C26.3609 24.6288 26.51 24.2253 26.7341 23.8631C27.7848 22.0435 29.4065 20.6213 31.3478 19.8173C33.2891 19.0133 35.4414 18.8722 37.471 19.4161C39.5006 19.9599 41.2941 21.1582 42.5732 22.8252C43.8524 24.4922 44.5458 26.5346 44.5459 28.6358C44.5465 30.6105 43.9348 32.5368 42.7951 34.1495C41.6555 35.7621 40.0439 36.9817 38.1823 37.6404V38.1813C38.1823 39.0252 37.847 39.8345 37.2503 40.4312C36.6536 41.0279 35.8443 41.3631 35.0004 41.3631C34.1566 41.3631 33.3473 41.0279 32.7506 40.4312C32.1539 39.8345 31.8186 39.0252 31.8186 38.1813V34.9995C31.8186 34.1556 32.1539 33.3463 32.7506 32.7496C33.3473 32.1529 34.1566 31.8176 35.0004 31.8176C35.8443 31.8176 36.6536 31.4824 37.2503 30.8857C37.847 30.289 38.1823 29.4797 38.1823 28.6358C38.1823 27.792 37.847 26.9827 37.2503 26.3859C36.6536 25.7892 35.8443 25.454 35.0004 25.454ZM35.0004 50.9086C35.8443 50.9086 36.6536 50.5733 37.2503 49.9766C37.847 49.3799 38.1823 48.5706 38.1823 47.7267C38.1823 46.8829 37.847 46.0736 37.2503 45.4769C36.6536 44.8801 35.8443 44.5449 35.0004 44.5449C34.1566 44.5449 33.3473 44.8801 32.7506 45.4769C32.1539 46.0736 31.8186 46.8829 31.8186 47.7267C31.8186 48.5706 32.1539 49.3799 32.7506 49.9766C33.3473 50.5733 34.1566 50.9086 35.0004 50.9086Z" fill="#00A99D"/>
</svg>
