<svg width="91" height="90" viewBox="0 0 91 90" fill="none" xmlns="http://www.w3.org/2000/svg">
<g clip-path="url(#clip0_76_9769)">
<path d="M65.1858 34.0911H18.8293C18.4493 34.084 18.082 34.2308 17.8111 34.4981C17.541 34.7654 17.3892 35.1306 17.3906 35.5106V81.1091C17.3906 83.5476 18.2422 85.811 19.8008 87.4497C21.3352 89.082 23.4773 90.0052 25.7173 90.0002H58.2972C60.5315 90.0045 62.6672 89.0805 64.1931 87.4497C65.7517 85.8096 66.5834 83.5469 66.5834 81.1091V35.5106C66.5948 35.1341 66.4515 34.7704 66.1878 34.5023C65.924 34.2343 65.5616 34.0861 65.1858 34.0911ZM63.6791 81.1091C63.6791 84.502 61.3958 87.0958 58.2972 87.0958H25.7173C22.6186 87.0958 20.295 84.502 20.295 81.1091V36.9954H63.6791V81.1091Z" fill="url(#paint0_linear_76_9769)"/>
<path d="M52.2432 79.1513C53.0452 79.1513 53.6954 78.5011 53.6954 77.6991V43.4317C53.6954 42.6297 53.0452 41.9795 52.2432 41.9795C51.4412 41.9795 50.791 42.6297 50.791 43.4317V77.6991C50.791 78.5011 51.4412 79.1513 52.2432 79.1513Z" fill="url(#paint1_linear_76_9769)"/>
<path d="M31.7315 79.1513C32.5334 79.1513 33.1837 78.5011 33.1837 77.6991V43.4317C33.1837 42.6297 32.5334 41.9795 31.7315 41.9795C30.9295 41.9795 30.2793 42.6297 30.2793 43.4317V77.6991C30.2793 78.5011 30.9295 79.1513 31.7315 79.1513Z" fill="url(#paint2_linear_76_9769)"/>
<path d="M70.5013 15.5765L62.0293 13.7209L62.5583 11.3043C63.3404 7.73415 61.0799 4.2058 57.509 3.42369L42.5716 0.152723C39.0014 -0.629387 35.473 1.63115 34.6916 5.20205L34.162 7.61858L25.6899 5.76363C22.119 4.98082 18.5907 7.24206 17.8086 10.8123L15.7459 20.2323C15.5743 21.0158 16.0699 21.7902 16.8534 21.9617L71.7578 33.9848C72.1343 34.0678 72.5279 33.9976 72.8519 33.7898C73.1767 33.5821 73.405 33.2538 73.4873 32.878L75.5514 23.4572C76.3328 19.887 74.0722 16.3586 70.502 15.5765H70.5013ZM37.5286 5.8232C37.9669 3.81935 39.9473 2.55082 41.9511 2.98973L56.8885 6.2607C58.8924 6.69961 60.1609 8.67935 59.722 10.6832L59.193 13.0997L36.999 8.23973L37.5286 5.8232ZM72.7137 22.836L70.9615 30.8372L18.8942 19.4353L20.6463 11.4341C21.0845 9.43026 23.0649 8.16173 25.0688 8.60064L69.8802 18.4135C71.884 18.8525 73.1526 20.8322 72.7137 22.836Z" fill="url(#paint3_linear_76_9769)"/>
<path d="M42.0782 79.1513C42.8801 79.1513 43.5303 78.5011 43.5303 77.6991V43.4317C43.5303 42.6297 42.8801 41.9795 42.0782 41.9795C41.2762 41.9795 40.626 42.6297 40.626 43.4317V77.6991C40.626 78.5011 41.2762 79.1513 42.0782 79.1513Z" fill="url(#paint4_linear_76_9769)"/>
</g>
<defs>
<linearGradient id="paint0_linear_76_9769" x1="41.9873" y1="3.91603" x2="41.9873" y2="87.288" gradientUnits="userSpaceOnUse">
<stop stop-color="#81319B"/>
<stop offset="0.43" stop-color="#00A99D"/>
<stop offset="0.995" stop-color="#0B2C4C"/>
</linearGradient>
<linearGradient id="paint1_linear_76_9769" x1="52.2434" y1="3.916" x2="52.2434" y2="87.288" gradientUnits="userSpaceOnUse">
<stop stop-color="#81319B"/>
<stop offset="0.465" stop-color="#00A99D"/>
<stop offset="1" stop-color="#0B2C4C"/>
</linearGradient>
<linearGradient id="paint2_linear_76_9769" x1="31.7317" y1="3.916" x2="31.7317" y2="87.288" gradientUnits="userSpaceOnUse">
<stop stop-color="#81319B"/>
<stop offset="0.465" stop-color="#00A99D"/>
<stop offset="1" stop-color="#0B2C4C"/>
</linearGradient>
<linearGradient id="paint3_linear_76_9769" x1="45.7093" y1="3.91544" x2="45.7093" y2="87.2874" gradientUnits="userSpaceOnUse">
<stop stop-color="#81319B"/>
<stop offset="0.495" stop-color="#00A99D"/>
<stop offset="1" stop-color="#0B2C4C"/>
</linearGradient>
<linearGradient id="paint4_linear_76_9769" x1="42.0784" y1="3.916" x2="42.0784" y2="87.288" gradientUnits="userSpaceOnUse">
<stop stop-color="#81319B"/>
<stop offset="0.465" stop-color="#00A99D"/>
<stop offset="1" stop-color="#0B2C4C"/>
</linearGradient>
<clipPath id="clip0_76_9769">
<rect width="90" height="90" fill="white" transform="translate(0.5)"/>
</clipPath>
</defs>
</svg>
