<svg width="18" height="18" viewBox="0 0 18 18" fill="none" xmlns="http://www.w3.org/2000/svg">
<path fill-rule="evenodd" clip-rule="evenodd" d="M9 18.001C11.3869 18.001 13.6761 17.0528 15.364 15.3649C17.0518 13.6771 18 11.3879 18 9.00098C18 6.61403 17.0518 4.32484 15.364 2.63702C13.6761 0.949188 11.3869 0.000976563 9 0.000976562C6.61305 0.000976563 4.32387 0.949188 2.63604 2.63702C0.948212 4.32484 0 6.61403 0 9.00098C0 11.3879 0.948212 13.6771 2.63604 15.3649C4.32387 17.0528 6.61305 18.001 9 18.001ZM7.54537 5.9556C7.3332 5.75067 7.04902 5.63728 6.75405 5.63984C6.45908 5.64241 6.17691 5.76072 5.96833 5.96931C5.75974 6.17789 5.64143 6.46005 5.63887 6.75503C5.6363 7.05 5.7497 7.33417 5.95462 7.54635L7.40925 9.00098L5.95462 10.4556C5.84718 10.5594 5.76147 10.6835 5.70251 10.8208C5.64355 10.958 5.61252 11.1056 5.61122 11.255C5.60992 11.4044 5.63838 11.5525 5.69495 11.6908C5.75152 11.8291 5.83505 11.9547 5.94068 12.0603C6.04631 12.1659 6.17192 12.2495 6.31018 12.306C6.44843 12.3626 6.59657 12.3911 6.74595 12.3898C6.89533 12.3885 7.04295 12.3574 7.1802 12.2985C7.31746 12.2395 7.4416 12.1538 7.54537 12.0464L9 10.5917L10.4546 12.0464C10.6668 12.2513 10.951 12.3647 11.2459 12.3621C11.5409 12.3595 11.8231 12.2412 12.0317 12.0326C12.2403 11.8241 12.3586 11.5419 12.3611 11.2469C12.3637 10.952 12.2503 10.6678 12.0454 10.4556L10.5907 9.00098L12.0454 7.54635C12.2503 7.33417 12.3637 7.05 12.3611 6.75503C12.3586 6.46005 12.2403 6.17789 12.0317 5.96931C11.8231 5.76072 11.5409 5.64241 11.2459 5.63984C10.951 5.63728 10.6668 5.75067 10.4546 5.9556L9 7.41023L7.54537 5.9556Z" fill="#0B2C4C"/>
</svg>
