<svg width="60" height="60" viewBox="0 0 60 60" fill="none" xmlns="http://www.w3.org/2000/svg">
<path d="M11.1071 55H41.4999C44.1108 55.0003 46.6442 54.099 48.6832 52.4446C50.7223 50.7901 52.1456 48.4809 52.7191 45.8968C53.2927 43.3127 52.9823 40.6074 51.839 38.2261C50.6957 35.8447 48.7875 33.9289 46.4284 32.7939V15.8333C46.4284 15.7239 46.4072 15.6155 46.3659 15.5144C46.3246 15.4133 46.2641 15.3214 46.1878 15.2441L36.3307 5.24406C36.2545 5.16668 36.1639 5.1053 36.0642 5.06342C35.9646 5.02155 35.8578 5 35.7499 5H11.1071C10.0182 5.00124 8.97427 5.44063 8.2043 6.22176C7.43433 7.00289 7.00122 8.06198 7 9.16667V50.8333C7.00122 51.938 7.43433 52.9971 8.2043 53.7782C8.97427 54.5594 10.0182 54.9988 11.1071 55ZM51.357 43.3333C51.357 45.3111 50.7789 47.2445 49.6957 48.889C48.6126 50.5335 47.0732 51.8153 45.272 52.5721C43.4709 53.329 41.4889 53.527 39.5768 53.1412C37.6647 52.7553 35.9084 51.8029 34.5298 50.4044C33.1513 49.0059 32.2125 47.224 31.8322 45.2842C31.4518 43.3444 31.647 41.3338 32.3931 39.5065C33.1391 37.6792 34.4026 36.1175 36.0235 35.0186C37.6445 33.9198 39.5503 33.3333 41.4999 33.3333C44.1132 33.3363 46.6187 34.3908 48.4666 36.2656C50.3146 38.1403 51.354 40.6821 51.357 43.3333ZM36.5713 7.8451L43.624 15H39.0356C38.3822 14.9993 37.7559 14.7356 37.2939 14.2669C36.8319 13.7983 36.572 13.1628 36.5713 12.5V7.8451ZM8.64285 9.16667C8.64361 8.50386 8.90348 7.86843 9.36546 7.39975C9.82744 6.93108 10.4538 6.66744 11.1071 6.66667H34.9285V12.5C34.9297 13.6047 35.3628 14.6638 36.1328 15.4449C36.9027 16.226 37.9467 16.6654 39.0356 16.6667H44.7856V32.1527C42.1017 31.3403 39.2178 31.5496 36.6752 32.7414C34.1327 33.9332 32.1063 36.0255 30.9766 38.6255C29.8469 41.2255 29.6914 44.1545 30.5395 46.8625C31.3875 49.5706 33.1807 51.8715 35.5824 53.3333H11.1071C10.4538 53.3326 9.82744 53.0689 9.36546 52.6002C8.90348 52.1316 8.64361 51.4961 8.64285 50.8333V9.16667ZM20.9642 20H40.6784C40.8963 20 41.1052 20.0878 41.2593 20.2441C41.4133 20.4004 41.4999 20.6123 41.4999 20.8333C41.4999 21.0543 41.4133 21.2663 41.2593 21.4226C41.1052 21.5789 40.8963 21.6667 40.6784 21.6667H20.9642C20.7464 21.6667 20.5374 21.5789 20.3834 21.4226C20.2293 21.2663 20.1428 21.0543 20.1428 20.8333C20.1428 20.6123 20.2293 20.4004 20.3834 20.2441C20.5374 20.0878 20.7464 20 20.9642 20ZM11.9286 25.8333C11.9286 25.6123 12.0151 25.4004 12.1691 25.2441C12.3232 25.0878 12.5321 25 12.75 25H29.1785C29.3963 25 29.6053 25.0878 29.7593 25.2441C29.9134 25.4004 29.9999 25.6123 29.9999 25.8333C29.9999 26.0543 29.9134 26.2663 29.7593 26.4226C29.6053 26.5789 29.3963 26.6667 29.1785 26.6667H12.75C12.5321 26.6667 12.3232 26.5789 12.1691 26.4226C12.0151 26.2663 11.9286 26.0543 11.9286 25.8333ZM33.2856 30.8333C33.2856 31.0543 33.1991 31.2663 33.045 31.4226C32.891 31.5789 32.682 31.6667 32.4642 31.6667H25.8928C25.6749 31.6667 25.466 31.5789 25.3119 31.4226C25.1579 31.2663 25.0714 31.0543 25.0714 30.8333C25.0714 30.6123 25.1579 30.4004 25.3119 30.2441C25.466 30.0878 25.6749 30 25.8928 30H32.4642C32.682 30 32.891 30.0878 33.045 30.2441C33.1991 30.4004 33.2856 30.6123 33.2856 30.8333ZM11.9286 35.8333C11.9286 35.6123 12.0151 35.4004 12.1691 35.2441C12.3232 35.0878 12.5321 35 12.75 35H27.5356C27.7535 35 27.9624 35.0878 28.1165 35.2441C28.2705 35.4004 28.3571 35.6123 28.3571 35.8333C28.3571 36.0543 28.2705 36.2663 28.1165 36.4226C27.9624 36.5789 27.7535 36.6667 27.5356 36.6667H12.75C12.5321 36.6667 12.3232 36.5789 12.1691 36.4226C12.0151 36.2663 11.9286 36.0543 11.9286 35.8333ZM11.9286 20.8333C11.9286 20.6123 12.0151 20.4004 12.1691 20.2441C12.3232 20.0878 12.5321 20 12.75 20H17.6785C17.8964 20 18.1053 20.0878 18.2594 20.2441C18.4134 20.4004 18.5 20.6123 18.5 20.8333C18.5 21.0543 18.4134 21.2663 18.2594 21.4226C18.1053 21.5789 17.8964 21.6667 17.6785 21.6667H12.75C12.5321 21.6667 12.3232 21.5789 12.1691 21.4226C12.0151 21.2663 11.9286 21.0543 11.9286 20.8333ZM41.4999 25.8333C41.4999 26.0543 41.4133 26.2663 41.2593 26.4226C41.1052 26.5789 40.8963 26.6667 40.6784 26.6667H32.4642C32.2463 26.6667 32.0374 26.5789 31.8833 26.4226C31.7293 26.2663 31.6428 26.0543 31.6428 25.8333C31.6428 25.6123 31.7293 25.4004 31.8833 25.2441C32.0374 25.0878 32.2463 25 32.4642 25H40.6784C40.8963 25 41.1052 25.0878 41.2593 25.2441C41.4133 25.4004 41.4999 25.6123 41.4999 25.8333ZM11.9286 30.8333C11.9286 30.6123 12.0151 30.4004 12.1691 30.2441C12.3232 30.0878 12.5321 30 12.75 30H22.6071C22.8249 30 23.0339 30.0878 23.1879 30.2441C23.342 30.4004 23.4285 30.6123 23.4285 30.8333C23.4285 31.0543 23.342 31.2663 23.1879 31.4226C23.0339 31.5789 22.8249 31.6667 22.6071 31.6667H12.75C12.5321 31.6667 12.3232 31.5789 12.1691 31.4226C12.0151 31.2663 11.9286 31.0543 11.9286 30.8333ZM26.7142 45.8333C26.7142 46.0543 26.6277 46.2663 26.4736 46.4226C26.3196 46.5789 26.1106 46.6667 25.8928 46.6667H22.6071C22.3892 46.6667 22.1803 46.5789 22.0262 46.4226C21.8722 46.2663 21.7857 46.0543 21.7857 45.8333C21.7857 45.6123 21.8722 45.4004 22.0262 45.2441C22.1803 45.0878 22.3892 45 22.6071 45H25.8928C26.1106 45 26.3196 45.0878 26.4736 45.2441C26.6277 45.4004 26.7142 45.6123 26.7142 45.8333ZM11.9286 45.8333C11.9286 45.6123 12.0151 45.4004 12.1691 45.2441C12.3232 45.0878 12.5321 45 12.75 45H19.3214C19.5392 45 19.7482 45.0878 19.9022 45.2441C20.0563 45.4004 20.1428 45.6123 20.1428 45.8333C20.1428 46.0543 20.0563 46.2663 19.9022 46.4226C19.7482 46.5789 19.5392 46.6667 19.3214 46.6667H12.75C12.5321 46.6667 12.3232 46.5789 12.1691 46.4226C12.0151 46.2663 11.9286 46.0543 11.9286 45.8333ZM11.9286 40.8333C11.9286 40.6123 12.0151 40.4004 12.1691 40.2441C12.3232 40.0878 12.5321 40 12.75 40H17.6785C17.8964 40 18.1053 40.0878 18.2594 40.2441C18.4134 40.4004 18.5 40.6123 18.5 40.8333C18.5 41.0543 18.4134 41.2663 18.2594 41.4226C18.1053 41.5789 17.8964 41.6667 17.6785 41.6667H12.75C12.5321 41.6667 12.3232 41.5789 12.1691 41.4226C12.0151 41.2663 11.9286 41.0543 11.9286 40.8333ZM11.9286 15.8333C11.9286 15.6123 12.0151 15.4004 12.1691 15.2441C12.3232 15.0878 12.5321 15 12.75 15H22.6071C22.8249 15 23.0339 15.0878 23.1879 15.2441C23.342 15.4004 23.4285 15.6123 23.4285 15.8333C23.4285 16.0543 23.342 16.2663 23.1879 16.4226C23.0339 16.5789 22.8249 16.6667 22.6071 16.6667H12.75C12.5321 16.6667 12.3232 16.5789 12.1691 16.4226C12.0151 16.2663 11.9286 16.0543 11.9286 15.8333ZM26.7142 40.8333C26.7142 41.0543 26.6277 41.2663 26.4736 41.4226C26.3196 41.5789 26.1106 41.6667 25.8928 41.6667H20.9642C20.7464 41.6667 20.5374 41.5789 20.3834 41.4226C20.2293 41.2663 20.1428 41.0543 20.1428 40.8333C20.1428 40.6123 20.2293 40.4004 20.3834 40.2441C20.5374 40.0878 20.7464 40 20.9642 40H25.8928C26.1106 40 26.3196 40.0878 26.4736 40.2441C26.6277 40.4004 26.7142 40.6123 26.7142 40.8333ZM48.7949 39.3067C48.6137 39.1841 48.3919 39.1396 48.1783 39.1829C47.9647 39.2262 47.7768 39.3539 47.6559 39.5377L47.1508 40.3065C46.7218 39.0574 45.9364 37.9661 44.8943 37.1712C43.8523 36.3764 42.6007 35.9139 41.2989 35.8427C39.997 35.7715 38.7037 36.0948 37.5835 36.7714C36.4633 37.448 35.5667 38.4474 35.0079 39.6424C34.9616 39.7412 34.935 39.8484 34.9295 39.9577C34.924 40.067 34.9398 40.1763 34.976 40.2794C35.0122 40.3825 35.068 40.4773 35.1403 40.5586C35.2126 40.6398 35.3 40.7057 35.3974 40.7527C35.4948 40.7997 35.6004 40.8267 35.7082 40.8323C35.8159 40.8378 35.9236 40.8218 36.0253 40.7851C36.1269 40.7484 36.2204 40.6918 36.3005 40.6184C36.3805 40.5451 36.4455 40.4565 36.4918 40.3576C36.9058 39.4717 37.5673 38.7288 38.3942 38.2213C39.221 37.7139 40.1767 37.4642 41.1423 37.5034C42.1079 37.5425 43.0408 37.8688 43.8251 38.4417C44.6093 39.0145 45.2103 39.8086 45.5532 40.7252L44.6878 40.14C44.5065 40.02 44.2859 39.9774 44.0739 40.0216C43.8618 40.0657 43.6755 40.1929 43.5555 40.3756C43.4354 40.5583 43.3913 40.7817 43.4327 40.9973C43.4741 41.2128 43.5976 41.4031 43.7765 41.5267L46.2408 43.1933C46.4221 43.3159 46.6439 43.3605 46.8575 43.3171C47.0712 43.2738 47.2591 43.1462 47.3799 42.9623L49.0228 40.4623C49.0826 40.3712 49.1242 40.2691 49.1451 40.1618C49.166 40.0544 49.1659 39.9439 49.1448 39.8366C49.1236 39.7293 49.0818 39.6273 49.0218 39.5363C48.9618 39.4454 48.8847 39.3674 48.7949 39.3067ZM47.6023 45.914C47.5049 45.867 47.3993 45.84 47.2916 45.8344C47.1838 45.8288 47.0761 45.8449 46.9744 45.8816C46.8728 45.9182 46.7793 45.9749 46.6993 46.0482C46.6192 46.1216 46.5542 46.2102 46.5079 46.3091C46.0939 47.195 45.4324 47.9378 44.6056 48.4453C43.7787 48.9528 42.8231 49.2025 41.8575 49.1633C40.8919 49.1241 39.9589 48.7978 39.1746 48.225C38.3904 47.6522 37.7894 46.8581 37.4465 45.9415L38.3119 46.5267C38.4932 46.6467 38.7138 46.6892 38.9258 46.6451C39.1379 46.601 39.3242 46.4737 39.4442 46.291C39.5643 46.1083 39.6084 45.8849 39.5671 45.6694C39.5257 45.4539 39.4021 45.2636 39.2232 45.14L36.7589 43.4733C36.5776 43.3507 36.3558 43.3062 36.1422 43.3495C35.9286 43.3928 35.7406 43.5205 35.6198 43.7044L33.9769 46.2044C33.9164 46.2954 33.8742 46.3977 33.8528 46.5053C33.8313 46.6129 33.8311 46.7238 33.852 46.8316C33.873 46.9393 33.9147 47.0418 33.9748 47.1331C34.0349 47.2244 34.1122 47.3028 34.2022 47.3637C34.2923 47.4246 34.3933 47.4669 34.4995 47.4881C34.6058 47.5092 34.715 47.5089 34.8211 47.4871C34.9272 47.4653 35.028 47.4224 35.1177 47.3609C35.2074 47.2995 35.2842 47.2206 35.3438 47.129L35.849 46.3602C36.2779 47.6092 37.0633 48.7006 38.1054 49.4954C39.1474 50.2903 40.399 50.7527 41.7008 50.8239C43.0027 50.8951 44.296 50.5719 45.4162 49.8953C46.5365 49.2186 47.433 48.2193 47.9918 47.0243C48.0381 46.9254 48.0647 46.8183 48.0702 46.709C48.0757 46.5997 48.0599 46.4904 48.0237 46.3873C47.9876 46.2842 47.9317 46.1893 47.8594 46.1081C47.7871 46.0269 47.6998 45.9609 47.6023 45.914Z" fill="url(#paint0_linear_4_1612)"/>
<defs>
<linearGradient id="paint0_linear_4_1612" x1="29.9999" y1="55" x2="29.9999" y2="5" gradientUnits="userSpaceOnUse">
<stop stop-color="#0B2C4C"/>
<stop offset="0.455" stop-color="#00A99D"/>
<stop offset="1" stop-color="#81319B"/>
</linearGradient>
</defs>
</svg>
