<svg width="22" height="22" viewBox="0 0 22 22" fill="none" xmlns="http://www.w3.org/2000/svg">
<circle cx="11" cy="11" r="11" fill="#0B2C4C"/>
<path d="M10.9995 7.50158C13.5376 7.50158 15.8012 8.85531 16.9062 10.9971C15.8012 13.139 13.5376 14.4927 10.9995 14.4927C8.46133 14.4927 6.19775 13.139 5.09275 10.9971C6.19775 8.85531 8.46133 7.50158 10.9995 7.50158ZM10.9995 6.23047C7.65099 6.23047 4.79139 8.20705 3.63281 10.9971C4.79139 13.7872 7.65099 15.7638 10.9995 15.7638C14.348 15.7638 17.2076 13.7872 18.3661 10.9971C17.2076 8.20705 14.348 6.23047 10.9995 6.23047ZM10.9995 9.40825C11.9237 9.40825 12.6737 10.1201 12.6737 10.9971C12.6737 11.8742 11.9237 12.586 10.9995 12.586C10.0753 12.586 9.32524 11.8742 9.32524 10.9971C9.32524 10.1201 10.0753 9.40825 10.9995 9.40825ZM10.9995 8.13714C9.33863 8.13714 7.98584 9.42096 7.98584 10.9971C7.98584 12.5733 9.33863 13.8571 10.9995 13.8571C12.6603 13.8571 14.0131 12.5733 14.0131 10.9971C14.0131 9.42096 12.6603 8.13714 10.9995 8.13714Z" fill="white"/>
</svg>
