<svg width="22" height="24" viewBox="0 0 22 24" fill="none" xmlns="http://www.w3.org/2000/svg">
<g filter="url(#filter0_d_1057_48234)">
<path fill-rule="evenodd" clip-rule="evenodd" d="M8.30468 15.7076C8.11758 15.5203 8.01248 15.2663 8.01248 15.0014C8.01248 14.7366 8.11758 14.4826 8.30468 14.2953L11.5911 11.0062L8.30468 7.71722C8.20936 7.62508 8.13333 7.51487 8.08102 7.39301C8.02872 7.27115 8.00119 7.14009 8.00004 7.00747C7.99889 6.87485 8.02414 6.74333 8.07432 6.62059C8.1245 6.49784 8.1986 6.38632 8.2923 6.29254C8.38601 6.19876 8.49744 6.1246 8.62009 6.07438C8.74274 6.02416 8.87415 5.99889 9.00666 6.00004C9.13918 6.00119 9.27013 6.02874 9.39189 6.08109C9.51365 6.13344 9.62377 6.20953 9.71584 6.30492L13.7078 10.3001C13.8949 10.4874 14 10.7414 14 11.0062C14 11.2711 13.8949 11.5251 13.7078 11.7124L9.71583 15.7076C9.52868 15.8948 9.27489 16 9.01026 16C8.74562 16 8.49183 15.8948 8.30468 15.7076Z" fill="#4B4B4B"/>
</g>
<defs>
<filter id="filter0_d_1057_48234" x="-4" y="0" width="30" height="30" filterUnits="userSpaceOnUse" color-interpolation-filters="sRGB">
<feFlood flood-opacity="0" result="BackgroundImageFix"/>
<feColorMatrix in="SourceAlpha" type="matrix" values="0 0 0 0 0 0 0 0 0 0 0 0 0 0 0 0 0 0 127 0" result="hardAlpha"/>
<feOffset dy="4"/>
<feGaussianBlur stdDeviation="2"/>
<feComposite in2="hardAlpha" operator="out"/>
<feColorMatrix type="matrix" values="0 0 0 0 0 0 0 0 0 0 0 0 0 0 0 0 0 0 0.25 0"/>
<feBlend mode="normal" in2="BackgroundImageFix" result="effect1_dropShadow_1057_48234"/>
<feBlend mode="normal" in="SourceGraphic" in2="effect1_dropShadow_1057_48234" result="shape"/>
</filter>
</defs>
</svg>
