<svg width="60" height="61" viewBox="0 0 60 61" fill="none" xmlns="http://www.w3.org/2000/svg">
<path d="M51.3947 35.0008L47.5597 28.3879C47.4703 28.2336 47.3305 28.1143 47.1637 28.0497L39.0666 24.9153C39.3186 24.0684 39.4547 23.1724 39.4547 22.2453C39.4547 17.055 35.2133 12.8324 30 12.8324C24.7867 12.8324 20.5454 17.055 20.5454 22.2453C20.5454 23.1725 20.6814 24.0684 20.9334 24.9153L12.8363 28.0497C12.6695 28.1143 12.5298 28.2336 12.4403 28.3879L8.60531 35.0008C8.49062 35.1985 8.46841 35.4364 8.54458 35.6519C8.62065 35.8673 8.78753 36.0389 9.00129 36.1217L12.3349 37.4122V48.1833C12.3349 48.5061 12.534 48.7958 12.8363 48.9128L29.715 55.4468C29.8067 55.4823 29.9033 55.5 29.9999 55.5C30.0965 55.5 30.1932 55.4823 30.2848 55.4468L47.1635 48.9128C47.4658 48.7958 47.665 48.5061 47.665 48.1833V37.4122L50.9986 36.1217C51.2124 36.0389 51.3792 35.8673 51.4553 35.6519C51.5316 35.4364 51.5094 35.1986 51.3947 35.0008ZM30.0001 14.3979C34.3464 14.3979 37.8823 17.9183 37.8823 22.2453C37.8823 26.5723 34.3463 30.0927 30.0001 30.0927C25.6539 30.0927 22.118 26.5723 22.118 22.2453C22.118 17.9183 25.6538 14.3979 30.0001 14.3979ZM30.0001 31.6582C33.7464 31.6582 36.9908 29.4777 38.52 26.3245L44.725 28.7732L30.0001 34.4734L15.2752 28.7732L21.4801 26.3245C23.0094 29.4777 26.2537 31.6582 30.0001 31.6582ZM10.4256 34.9932L13.465 29.7522L28.8608 35.7121L25.8214 40.9533L10.4256 34.9932ZM13.9076 38.0209L25.8803 42.6558C26.2419 42.7956 26.6521 42.6522 26.8461 42.3176L29.2139 38.2346V53.573L13.9076 47.6478V38.0209ZM46.0927 47.6478L30.7864 53.573V38.2346L33.1542 42.3177C33.3483 42.6523 33.7584 42.7958 34.12 42.6559L46.0927 38.021V47.6478ZM34.1788 40.9533L31.1393 35.7121L46.5352 29.7522L49.5747 34.9932L34.1788 40.9533ZM28.0438 27.33C28.5881 27.33 29.1004 27.1185 29.4861 26.7344L35.6153 20.6324C36.4117 19.8394 36.4117 18.5492 35.6152 17.7561C35.2295 17.372 34.7164 17.1605 34.1709 17.1605C33.6253 17.1605 33.1123 17.372 32.7264 17.7561L28.2147 22.2479L27.0106 20.7394C26.6212 20.2518 26.0387 19.972 25.4126 19.972C24.9539 19.972 24.5033 20.1288 24.1436 20.4133C23.263 21.1105 23.1161 22.3909 23.8161 23.2675L26.3815 26.4816C26.765 27.0135 27.3844 27.3301 28.0438 27.33ZM25.1219 21.6387C25.2277 21.5551 25.3383 21.5375 25.4125 21.5375C25.5564 21.5375 25.6902 21.6017 25.7794 21.7134L27.5318 23.9089C27.6713 24.0836 27.8788 24.1907 28.1026 24.2034C28.3258 24.2159 28.5449 24.1332 28.7033 23.9754L33.8382 18.8631C33.9269 18.7747 34.0451 18.726 34.1708 18.726C34.2965 18.726 34.4144 18.7748 34.5032 18.863C34.6866 19.0457 34.6867 19.3429 34.5033 19.5254L28.3742 25.6275C28.2603 25.7407 28.1316 25.7645 28.0436 25.7645C27.8863 25.7645 27.7447 25.6911 27.6549 25.5632C27.6456 25.5499 27.636 25.537 27.6258 25.5244L25.047 22.2934C24.8865 22.0924 24.9202 21.7986 25.1219 21.6387ZM29.2139 9.94902V6.28278C29.2139 5.85049 29.5658 5.5 30.0001 5.5C30.4343 5.5 30.7864 5.85049 30.7864 6.28278V9.94902C30.7864 10.3813 30.4343 10.7318 30.0001 10.7318C29.5658 10.7318 29.2139 10.3813 29.2139 9.94902ZM21.2748 8.70969C21.0577 8.33532 21.1867 7.85656 21.5627 7.64041C21.9386 7.42436 22.4196 7.55254 22.6367 7.92691L24.4779 11.102C24.695 11.4763 24.5662 11.9551 24.1901 12.1712C24.0663 12.2424 23.9311 12.2762 23.7977 12.2762C23.526 12.2762 23.2618 12.1358 23.116 11.8847L21.2748 8.70969ZM15.3305 13.6942C15.5476 13.3198 16.0285 13.1915 16.4045 13.4077L19.5936 15.2408C19.9697 15.4569 20.0985 15.9357 19.8814 16.3101C19.7358 16.5612 19.4715 16.7016 19.1997 16.7016C19.0663 16.7016 18.9312 16.6677 18.8074 16.5966L15.6183 14.7635C15.2422 14.5474 15.1134 14.0686 15.3305 13.6942ZM12.9737 22.0392C12.9737 21.6069 13.3257 21.2565 13.76 21.2565H17.4424C17.8767 21.2565 18.2286 21.6069 18.2286 22.0392C18.2286 22.4715 17.8767 22.822 17.4424 22.822H13.76C13.3257 22.822 12.9737 22.4716 12.9737 22.0392ZM35.4669 11.3079L37.3081 8.13288C37.5252 7.75841 38.0061 7.63004 38.3821 7.84638C38.7581 8.06252 38.8871 8.54129 38.67 8.91566L36.8287 12.0907C36.683 12.3418 36.4188 12.4822 36.147 12.4822C36.0136 12.4822 35.8784 12.4483 35.7546 12.3772C35.3787 12.1612 35.2498 11.6824 35.4669 11.3079ZM39.912 16.6669C39.6949 16.2926 39.8237 15.8138 40.1997 15.5977L43.3889 13.7646C43.7649 13.5485 44.2458 13.6768 44.4629 14.0511C44.68 14.4254 44.5511 14.9042 44.1751 15.1204L40.986 16.9534C40.8621 17.0246 40.727 17.0584 40.5936 17.0584C40.3218 17.0584 40.0575 16.918 39.912 16.6669ZM42.144 21.6685H45.8264C46.2607 21.6685 46.6127 22.019 46.6127 22.4513C46.6127 22.8836 46.2607 23.2341 45.8264 23.2341H42.144C41.7097 23.2341 41.3578 22.8836 41.3578 22.4513C41.3578 22.019 41.7098 21.6685 42.144 21.6685Z" fill="url(#paint0_linear_1136_122891)"/>
<defs>
<linearGradient id="paint0_linear_1136_122891" x1="45.837" y1="55.5489" x2="45.837" y2="14.0585" gradientUnits="userSpaceOnUse">
<stop stop-color="#0B2C4C"/>
<stop offset="0.5" stop-color="#00A99D"/>
<stop offset="1" stop-color="#81319B"/>
</linearGradient>
</defs>
</svg>
