<svg width="80" height="80" viewBox="0 0 80 80" fill="none" xmlns="http://www.w3.org/2000/svg">
<path d="M73.9875 66.6141H76.7167C77.057 66.6141 77.3835 66.4773 77.6241 66.2338C77.8648 65.9903 78 65.6601 78 65.3158V57.5263C78 57.3447 77.9623 57.1651 77.8895 56.9991L72.7561 45.3149C72.6553 45.0854 72.4909 44.8904 72.2827 44.7536C72.0745 44.6167 71.8316 44.5439 71.5833 44.5439H70.3V23.772H71.5833C71.9237 23.772 72.2501 23.6352 72.4908 23.3918C72.7315 23.1483 72.8667 22.8181 72.8667 22.4738V18.579C72.8667 18.3271 72.7942 18.0806 72.6581 17.8696C72.522 17.6587 72.3281 17.4923 72.1002 17.3908L40.0169 3.11014C39.854 3.03751 39.678 3 39.5 3C39.322 3 39.146 3.03751 38.9831 3.11014L6.8998 17.3908C6.67186 17.4923 6.47802 17.6587 6.34192 17.8696C6.20582 18.0806 6.13335 18.3271 6.13333 18.579V22.4738C6.13333 22.8181 6.26854 23.1483 6.50921 23.3918C6.74988 23.6352 7.07631 23.772 7.41667 23.772H8.7V61.4211C8.35964 61.4211 8.03322 61.5579 7.79255 61.8013C7.55188 62.0448 7.41667 62.375 7.41667 62.7193V69.2105H2.28333C1.94297 69.2105 1.61655 69.3473 1.37588 69.5908C1.13521 69.8343 1 70.1645 1 70.5088V75.7018C1 76.0461 1.13521 76.3763 1.37588 76.6198C1.61655 76.8632 1.94297 77 2.28333 77H76.7167C77.057 77 77.3835 76.8632 77.6241 76.6198C77.8648 76.3763 78 76.0461 78 75.7018V70.5088C78 70.1645 77.8648 69.8343 77.6241 69.5908C77.3835 69.3473 77.057 69.2105 76.7167 69.2105H72.4066C73.1783 68.5244 73.7289 67.6199 73.9875 66.6141ZM73.9875 64.0176C73.7033 62.9024 73.0608 61.9144 72.161 61.2091C71.2611 60.5037 70.1551 60.1209 69.0167 60.1209C67.8783 60.1209 66.7722 60.5037 65.8724 61.2091C64.9725 61.9144 64.33 62.9024 64.0458 64.0176H63.8833V47.1404H66.45V57.5263C66.45 57.8707 66.5852 58.2009 66.8259 58.4443C67.0666 58.6878 67.393 58.8246 67.7333 58.8246H75.4333V64.0176H73.9875ZM71.5833 65.3158C71.5833 65.8293 71.4328 66.3313 71.1508 66.7583C70.8688 67.1853 70.4679 67.5181 69.9989 67.7147C69.5299 67.9112 69.0138 67.9626 68.5159 67.8624C68.018 67.7622 67.5607 67.5149 67.2018 67.1518C66.8428 66.7887 66.5984 66.326 66.4993 65.8224C66.4003 65.3187 66.4511 64.7966 66.6454 64.3222C66.8396 63.8477 67.1686 63.4422 67.5907 63.1569C68.0128 62.8716 68.509 62.7193 69.0167 62.7193C69.6971 62.7201 70.3495 62.994 70.8307 63.4807C71.3119 63.9675 71.5825 64.6274 71.5833 65.3158ZM41.6066 69.2105C42.3783 68.5244 42.9289 67.6199 43.1875 66.6141H60.0333V69.2105H41.6066ZM43.1875 64.0176C42.9033 62.9024 42.2608 61.9144 41.361 61.2091C40.4611 60.5037 39.355 60.1209 38.2167 60.1209C37.0783 60.1209 35.9722 60.5037 35.0724 61.2091C34.1725 61.9144 33.53 62.9024 33.2458 64.0176H31.8V47.1404H61.3167V64.0176H43.1875ZM35.65 65.3158C35.65 64.8023 35.8005 64.3003 36.0826 63.8733C36.3646 63.4463 36.7654 63.1135 37.2344 62.917C37.7034 62.7204 38.2195 62.669 38.7174 62.7692C39.2153 62.8694 39.6726 63.1167 40.0316 63.4798C40.3905 63.8429 40.635 64.3056 40.734 64.8093C40.8331 65.3129 40.7822 65.835 40.588 66.3094C40.3937 66.7839 40.0647 67.1894 39.6426 67.4747C39.2205 67.76 38.7243 67.9123 38.2167 67.9123C37.5362 67.9115 36.8838 67.6377 36.4026 67.1509C35.9215 66.6641 35.6508 66.0042 35.65 65.3158ZM61.3167 34.158H17.6833V31.5615H61.3167V34.158ZM60.0333 36.7545V39.3509H18.9667V36.7545H60.0333ZM18.9667 41.9474H21.5333V46.4913C21.5328 47.0076 21.3298 47.5026 20.9689 47.8677C20.608 48.2327 20.1187 48.4381 19.6083 48.4386H18.9667V41.9474ZM18.9667 51.0351H19.6083C20.7992 51.0338 21.9409 50.5546 22.7829 49.7028C23.625 48.8509 24.0986 47.696 24.1 46.4913V41.9474H60.0333V44.5439H30.5167C30.1763 44.5439 29.8499 44.6807 29.6092 44.9242C29.3685 45.1676 29.2333 45.4978 29.2333 45.8422V64.6918L25.3833 67.8076V62.7193C25.3833 62.375 25.2481 62.0448 25.0075 61.8013C24.7668 61.5579 24.4404 61.4211 24.1 61.4211H22.8167V54.9299C22.8167 54.5855 22.6815 54.2553 22.4408 54.0119C22.2001 53.7684 21.8737 53.6316 21.5333 53.6316H18.9667V51.0351ZM20.25 56.2281V61.4211H15.1167V56.2281H20.25ZM17.6833 64.0176H22.8167V69.2105H17.6833V64.0176ZM30.967 66.6141H33.2458C33.5044 67.6199 34.0551 68.5244 34.8267 69.2105H27.7586L30.967 66.6141ZM74.7419 56.2281H69.0167V47.1404H70.7492L74.7419 56.2281ZM8.7 19.4261L39.5 5.71669L70.3 19.4261V21.1755H8.7V19.4261ZM11.2667 23.772H67.7333V44.5439H62.6V36.7545C62.9404 36.7545 63.2668 36.6177 63.5075 36.3742C63.7481 36.1307 63.8833 35.8005 63.8833 35.4562V30.2632C63.8833 29.9189 63.7481 29.5887 63.5075 29.3452C63.2668 29.1018 62.9404 28.965 62.6 28.965H16.4C16.0596 28.965 15.7332 29.1018 15.4925 29.3452C15.2519 29.5887 15.1167 29.9189 15.1167 30.2632V35.4562C15.1167 35.8005 15.2519 36.1307 15.4925 36.3742C15.7332 36.6177 16.0596 36.7545 16.4 36.7545V53.6316H13.8333C13.493 53.6316 13.1666 53.7684 12.9259 54.0119C12.6852 54.2553 12.55 54.5855 12.55 54.9299V61.4211H11.2667V23.772ZM9.98333 64.0176H15.1167V69.2105H9.98333V64.0176ZM75.4333 74.4035H3.56667V71.807H75.4333V74.4035ZM62.6 69.2105V66.6141H64.0458C64.3044 67.6199 64.8551 68.5244 65.6267 69.2105H62.6ZM53.6167 51.0351H47.2C46.8596 51.0351 46.5332 51.1719 46.2925 51.4154C46.0519 51.6588 45.9167 51.9891 45.9167 52.3334V58.8246C45.9167 59.1689 46.0519 59.4991 46.2925 59.7426C46.5332 59.9861 46.8596 60.1228 47.2 60.1228H53.6167C53.957 60.1228 54.2834 59.9861 54.5241 59.7426C54.7648 59.4991 54.9 59.1689 54.9 58.8246V52.3334C54.9 51.9891 54.7648 51.6588 54.5241 51.4154C54.2834 51.1719 53.957 51.0351 53.6167 51.0351ZM52.3333 57.5263H48.4833V53.6316H52.3333V57.5263ZM43.35 52.3334C43.35 52.6777 43.2148 53.0079 42.9741 53.2514C42.7334 53.4948 42.407 53.6316 42.0667 53.6316H39.5C39.1596 53.6316 38.8332 53.4948 38.5925 53.2514C38.3519 53.0079 38.2167 52.6777 38.2167 52.3334C38.2167 51.9891 38.3519 51.6588 38.5925 51.4154C38.8332 51.1719 39.1596 51.0351 39.5 51.0351H42.0667C42.407 51.0351 42.7334 51.1719 42.9741 51.4154C43.2148 51.6588 43.35 51.9891 43.35 52.3334ZM43.35 57.5263C43.35 57.8707 43.2148 58.2009 42.9741 58.4443C42.7334 58.6878 42.407 58.8246 42.0667 58.8246H36.9333C36.593 58.8246 36.2666 58.6878 36.0259 58.4443C35.7852 58.2009 35.65 57.8707 35.65 57.5263C35.65 57.182 35.7852 56.8518 36.0259 56.6083C36.2666 56.3649 36.593 56.2281 36.9333 56.2281H42.0667C42.407 56.2281 42.7334 56.3649 42.9741 56.6083C43.2148 56.8518 43.35 57.182 43.35 57.5263ZM35.65 19.8773H43.35C43.6904 19.8773 44.0168 19.7405 44.2575 19.497C44.4981 19.2536 44.6333 18.9234 44.6333 18.579V10.7896C44.6333 10.4453 44.4981 10.1151 44.2575 9.87158C44.0168 9.62811 43.6904 9.49134 43.35 9.49134H35.65C35.3096 9.49134 34.9832 9.62811 34.7425 9.87158C34.5019 10.1151 34.3667 10.4453 34.3667 10.7896V18.579C34.3667 18.9234 34.5019 19.2536 34.7425 19.497C34.9832 19.7405 35.3096 19.8773 35.65 19.8773ZM36.9333 17.2808V15.9826H42.0667V17.2808H36.9333ZM36.9333 12.0878H42.0667V13.3861H36.9333V12.0878Z" fill="url(#paint0_linear_4061_13740)"/>
<defs>
<linearGradient id="paint0_linear_4061_13740" x1="39.0188" y1="76.7688" x2="42.6592" y2="2.94828" gradientUnits="userSpaceOnUse">
<stop stop-color="#0B2C4C"/>
<stop offset="0.5" stop-color="#00A99D"/>
<stop offset="1" stop-color="#81319B"/>
</linearGradient>
</defs>
</svg>
