<svg width="38" height="38" viewBox="0 0 38 38" fill="none" xmlns="http://www.w3.org/2000/svg">
<path d="M15.2864 30.5821C18.6866 30.5866 21.9897 29.4474 24.6649 27.3476L34.7774 37.4659C35.5329 38.1959 36.7366 38.175 37.4662 37.4191C38.1779 36.6818 38.1779 35.5128 37.4662 34.7756L27.3537 24.6573C32.5249 17.9852 31.3114 8.38191 24.6431 3.20776C17.9749 -1.96639 8.37718 -0.752217 3.20592 5.91985C-1.96534 12.5919 -0.751698 22.1952 5.91654 27.3694C8.59734 29.4495 11.8939 30.5778 15.2864 30.5764V30.5821ZM7.16099 7.14895C11.6485 2.65873 18.9243 2.65865 23.4119 7.14878C27.8996 11.6389 27.8997 18.9189 23.4121 23.4091C18.9245 27.8993 11.6488 27.8994 7.16115 23.4092C7.16107 23.4092 7.16107 23.4092 7.16099 23.4091C2.67343 18.9831 2.62163 11.755 7.0451 7.2649C7.08348 7.226 7.12211 7.18735 7.16099 7.14895Z" fill="#0B2C4C" fill-opacity="0.7"/>
<path d="M9.4375 17.1875H13.3125V21.0625C13.3125 22.1326 14.1799 23 15.25 23C16.3201 23 17.1875 22.1326 17.1875 21.0625V17.1875H21.0625C22.1326 17.1875 23 16.3201 23 15.25C23 14.1799 22.1326 13.3125 21.0625 13.3125H17.1875V9.4375C17.1875 8.36741 16.3201 7.5 15.25 7.5C14.1799 7.5 13.3125 8.36741 13.3125 9.4375V13.3125H9.4375C8.36741 13.3125 7.5 14.1799 7.5 15.25C7.5 16.3201 8.36741 17.1875 9.4375 17.1875Z" fill="#0B2C4C" fill-opacity="0.7"/>
</svg>
