<svg width="10" height="10" viewBox="0 0 10 10" fill="none" xmlns="http://www.w3.org/2000/svg">
<path fill-rule="evenodd" clip-rule="evenodd" d="M3.7527 1.25138C3.08918 1.25138 2.45284 1.51496 1.98366 1.98414C1.51448 2.45332 1.2509 3.08966 1.2509 3.75318C1.2509 4.4167 1.51448 5.05304 1.98366 5.52222C2.45284 5.9914 3.08918 6.25498 3.7527 6.25498C4.41622 6.25498 5.05256 5.9914 5.52174 5.52222C5.99092 5.05304 6.2545 4.4167 6.2545 3.75318C6.2545 3.08966 5.99092 2.45332 5.52174 1.98414C5.05256 1.51496 4.41622 1.25138 3.7527 1.25138ZM7.09645e-08 3.75318C-7.52978e-05 3.16257 0.139252 2.58028 0.40665 2.05367C0.674048 1.52706 1.06197 1.071 1.53886 0.722578C2.01574 0.374157 2.56814 0.143215 3.15111 0.0485345C3.73408 -0.0461456 4.33117 -0.00189042 4.89381 0.177701C5.45646 0.357292 5.96877 0.667148 6.38908 1.08207C6.80939 1.49699 7.12583 2.00526 7.31267 2.56553C7.49951 3.12581 7.55147 3.72228 7.46433 4.30643C7.37718 4.89057 7.15339 5.4459 6.81115 5.92725L9.82395 8.94004C9.93788 9.058 10.0009 9.21599 9.9995 9.37998C9.99807 9.54397 9.93229 9.70085 9.81633 9.81681C9.70037 9.93277 9.5435 9.99855 9.3795 9.99998C9.21551 10.0014 9.05752 9.93836 8.93956 9.82443L5.92739 6.81226C5.36596 7.21147 4.70548 7.44844 4.01832 7.4972C3.33115 7.54596 2.64382 7.40463 2.03165 7.08869C1.41948 6.77275 0.906082 6.2944 0.547722 5.70606C0.189362 5.11771 -0.000133878 4.44207 7.09645e-08 3.75318Z" fill="#AEAEAF"/>
</svg>
