<svg width="28" height="28" viewBox="0 0 28 28" fill="none" xmlns="http://www.w3.org/2000/svg">
<path fill-rule="evenodd" clip-rule="evenodd" d="M11.4547 6.36284C10.1045 6.36284 8.80964 6.8992 7.85491 7.85393C6.90018 8.80866 6.36381 10.1036 6.36381 11.4537C6.36381 12.8039 6.90018 14.0988 7.85491 15.0536C8.80964 16.0083 10.1045 16.5447 11.4547 16.5447C12.8049 16.5447 14.0998 16.0083 15.0545 15.0536C16.0093 14.0988 16.5456 12.8039 16.5456 11.4537C16.5456 10.1036 16.0093 8.80866 15.0545 7.85393C14.0998 6.8992 12.8049 6.36284 11.4547 6.36284ZM3.81836 11.4537C3.81821 10.2519 4.10172 9.06702 4.64585 7.99542C5.18998 6.92382 5.97935 5.99578 6.94977 5.28678C7.92019 4.57778 9.04426 4.10783 10.2305 3.91517C11.4168 3.7225 12.6318 3.81256 13.7768 4.17801C14.9217 4.54346 15.9642 5.17398 16.8195 6.0183C17.6748 6.86262 18.3187 7.8969 18.6989 9.037C19.0791 10.1771 19.1848 11.3909 19.0075 12.5795C18.8302 13.7682 18.3748 14.8983 17.6784 15.8777L23.8091 22.0085C24.0409 22.2485 24.1692 22.57 24.1663 22.9037C24.1634 23.2374 24.0296 23.5566 23.7936 23.7926C23.5576 24.0286 23.2384 24.1624 22.9047 24.1653C22.571 24.1682 22.2495 24.0399 22.0094 23.8081L15.88 17.6787C14.7375 18.491 13.3935 18.9732 11.9952 19.0724C10.5969 19.1717 9.19827 18.8841 7.95256 18.2412C6.70685 17.5983 5.66214 16.6249 4.93292 15.4276C4.20369 14.2304 3.81809 12.8556 3.81836 11.4537Z" fill="white"/>
</svg>
