<svg width="22" height="22" viewBox="0 0 22 22" fill="none" xmlns="http://www.w3.org/2000/svg">
<path fill-rule="evenodd" clip-rule="evenodd" d="M9 5.00077C7.93913 5.00077 6.92172 5.42219 6.17157 6.17234C5.42143 6.92248 5 7.9399 5 9.00077C5 10.0616 5.42143 11.079 6.17157 11.8292C6.92172 12.5793 7.93913 13.0008 9 13.0008C10.0609 13.0008 11.0783 12.5793 11.8284 11.8292C12.5786 11.079 13 10.0616 13 9.00077C13 7.9399 12.5786 6.92248 11.8284 6.17234C11.0783 5.42219 10.0609 5.00077 9 5.00077ZM3 9.00077C2.99988 8.05647 3.22264 7.12548 3.65017 6.28351C4.0777 5.44154 4.69792 4.71236 5.4604 4.15529C6.22287 3.59822 7.10606 3.22898 8.03815 3.0776C8.97023 2.92622 9.92488 2.99698 10.8245 3.28412C11.724 3.57126 12.5432 4.06667 13.2152 4.73006C13.8872 5.39346 14.3931 6.2061 14.6919 7.1019C14.9906 7.9977 15.0737 8.95136 14.9343 9.88532C14.795 10.8193 14.4372 11.7072 13.89 12.4768L18.707 17.2938C18.8892 17.4824 18.99 17.735 18.9877 17.9972C18.9854 18.2594 18.8802 18.5102 18.6948 18.6956C18.5094 18.881 18.2586 18.9862 17.9964 18.9884C17.7342 18.9907 17.4816 18.8899 17.293 18.7078L12.477 13.8918C11.5794 14.53 10.5233 14.9089 9.42468 14.9869C8.326 15.0648 7.22707 14.8389 6.2483 14.3337C5.26953 13.8286 4.44869 13.0638 3.87572 12.1231C3.30276 11.1824 2.99979 10.1022 3 9.00077Z" fill="#00A99D"/>
</svg>
