<svg xmlns="http://www.w3.org/2000/svg" width="19" height="18" viewBox="0 0 19 18" fill="none">
  <path d="M6.19995 4H4.19995V6H6.19995V4ZM6.19995 8H4.19995V10H6.19995V8ZM6.19995 0C5.08995 0 4.19995 0.9 4.19995 2H6.19995V0ZM10.2 12H8.19995V14H10.2V12ZM16.2 0V2H18.2C18.2 0.9 17.3 0 16.2 0ZM10.2 0H8.19995V2H10.2V0ZM6.19995 14V12H4.19995C4.19995 13.1 5.08995 14 6.19995 14ZM16.2 10H18.2V8H16.2V10ZM16.2 6H18.2V4H16.2V6ZM16.2 14C17.3 14 18.2 13.1 18.2 12H16.2V14ZM2.19995 4H0.199951V16C0.199951 17.1 1.08995 18 2.19995 18H14.2V16H2.19995V4ZM12.2 2H14.2V0H12.2V2ZM12.2 14H14.2V12H12.2V14Z" fill="#0B2C4C"/>
</svg>