<svg xmlns="http://www.w3.org/2000/svg" width="19" height="18" viewBox="0 0 19 18" fill="none">
  <path d="M0.199951 10H2.19995V8H0.199951V10ZM0.199951 14H2.19995V12H0.199951V14ZM2.19995 18V16H0.199951C0.199951 17.1 1.08995 18 2.19995 18ZM0.199951 6H2.19995V4H0.199951V6ZM12.2 18H14.2V16H12.2V18ZM16.2 0H6.19995C5.08995 0 4.19995 0.9 4.19995 2V12C4.19995 13.1 5.08995 14 6.19995 14H16.2C17.3 14 18.2 13.1 18.2 12V2C18.2 0.9 17.3 0 16.2 0ZM16.2 12H6.19995V2H16.2V12ZM8.19995 18H10.2V16H8.19995V18ZM4.19995 18H6.19995V16H4.19995V18Z" fill="#0B2C4C"/>
</svg>