<svg width="60" height="60" viewBox="0 0 60 60" fill="none" xmlns="http://www.w3.org/2000/svg">
<path d="M19.1667 19.2414H34.1667C34.3877 19.2414 34.5996 19.3286 34.7559 19.4838C34.9122 19.639 35 19.8495 35 20.069C35 20.2885 34.9122 20.499 34.7559 20.6542C34.5996 20.8094 34.3877 20.8966 34.1667 20.8966H19.1667C18.9457 20.8966 18.7337 20.8094 18.5774 20.6542C18.4211 20.499 18.3333 20.2885 18.3333 20.069C18.3333 19.8495 18.4211 19.639 18.5774 19.4838C18.7337 19.3286 18.9457 19.2414 19.1667 19.2414ZM10.8333 25.8621H24.1667C24.3877 25.8621 24.5996 25.7749 24.7559 25.6197C24.9122 25.4645 25 25.254 25 25.0345C25 24.815 24.9122 24.6045 24.7559 24.4493C24.5996 24.2941 24.3877 24.2069 24.1667 24.2069H10.8333C10.6123 24.2069 10.4004 24.2941 10.2441 24.4493C10.0878 24.6045 10 24.815 10 25.0345C10 25.254 10.0878 25.4645 10.2441 25.6197C10.4004 25.7749 10.6123 25.8621 10.8333 25.8621ZM29.1667 29.1724H24.1667C23.9457 29.1724 23.7337 29.2596 23.5774 29.4148C23.4211 29.57 23.3333 29.7805 23.3333 30C23.3333 30.2195 23.4211 30.43 23.5774 30.5852C23.7337 30.7404 23.9457 30.8276 24.1667 30.8276H29.1667C29.3877 30.8276 29.5996 30.7404 29.7559 30.5852C29.9122 30.43 30 30.2195 30 30C30 29.7805 29.9122 29.57 29.7559 29.4148C29.5996 29.2596 29.3877 29.1724 29.1667 29.1724ZM20.8333 34.1379H10.8333C10.6123 34.1379 10.4004 34.2251 10.2441 34.3803C10.0878 34.5355 10 34.746 10 34.9655C10 35.185 10.0878 35.3955 10.2441 35.5507C10.4004 35.7059 10.6123 35.7931 10.8333 35.7931H20.8333C21.0543 35.7931 21.2663 35.7059 21.4226 35.5507C21.5789 35.3955 21.6667 35.185 21.6667 34.9655C21.6667 34.746 21.5789 34.5355 21.4226 34.3803C21.2663 34.2251 21.0543 34.1379 20.8333 34.1379ZM10.8333 20.8966H15.8333C16.0543 20.8966 16.2663 20.8094 16.4226 20.6542C16.5789 20.499 16.6667 20.2885 16.6667 20.069C16.6667 19.8495 16.5789 19.639 16.4226 19.4838C16.2663 19.3286 16.0543 19.2414 15.8333 19.2414H10.8333C10.6123 19.2414 10.4004 19.3286 10.2441 19.4838C10.0878 19.639 10 19.8495 10 20.069C10 20.2885 10.0878 20.499 10.2441 20.6542C10.4004 20.8094 10.6123 20.8966 10.8333 20.8966ZM30.8333 24.2069H27.5C27.279 24.2069 27.067 24.2941 26.9107 24.4493C26.7545 24.6045 26.6667 24.815 26.6667 25.0345C26.6667 25.254 26.7545 25.4645 26.9107 25.6197C27.067 25.7749 27.279 25.8621 27.5 25.8621H30.8333C31.0543 25.8621 31.2663 25.7749 31.4226 25.6197C31.5789 25.4645 31.6667 25.254 31.6667 25.0345C31.6667 24.815 31.5789 24.6045 31.4226 24.4493C31.2663 24.2941 31.0543 24.2069 30.8333 24.2069ZM20.8333 29.1724H10.8333C10.6123 29.1724 10.4004 29.2596 10.2441 29.4148C10.0878 29.57 10 29.7805 10 30C10 30.2195 10.0878 30.43 10.2441 30.5852C10.4004 30.7404 10.6123 30.8276 10.8333 30.8276H20.8333C21.0543 30.8276 21.2663 30.7404 21.4226 30.5852C21.5789 30.43 21.6667 30.2195 21.6667 30C21.6667 29.7805 21.5789 29.57 21.4226 29.4148C21.2663 29.2596 21.0543 29.1724 20.8333 29.1724ZM15.8333 39.1035H10.8333C10.6123 39.1035 10.4004 39.1906 10.2441 39.3458C10.0878 39.501 10 39.7115 10 39.931C10 40.1505 10.0878 40.361 10.2441 40.5162C10.4004 40.6714 10.6123 40.7586 10.8333 40.7586H15.8333C16.0543 40.7586 16.2663 40.6714 16.4226 40.5162C16.5789 40.361 16.6667 40.1505 16.6667 39.931C16.6667 39.7115 16.5789 39.501 16.4226 39.3458C16.2663 39.1906 16.0543 39.1035 15.8333 39.1035ZM10.8333 15.931H20.8333C21.0543 15.931 21.2663 15.8438 21.4226 15.6886C21.5789 15.5334 21.6667 15.3229 21.6667 15.1034C21.6667 14.884 21.5789 14.6735 21.4226 14.5183C21.2663 14.3631 21.0543 14.2759 20.8333 14.2759H10.8333C10.6123 14.2759 10.4004 14.3631 10.2441 14.5183C10.0878 14.6735 10 14.884 10 15.1034C10 15.3229 10.0878 15.5334 10.2441 15.6886C10.4004 15.8438 10.6123 15.931 10.8333 15.931ZM20.8333 39.1035H19.1667C18.9457 39.1035 18.7337 39.1906 18.5774 39.3458C18.4211 39.501 18.3333 39.7115 18.3333 39.931C18.3333 40.1505 18.4211 40.361 18.5774 40.5162C18.7337 40.6714 18.9457 40.7586 19.1667 40.7586H20.8333C21.0543 40.7586 21.2663 40.6714 21.4226 40.5162C21.5789 40.361 21.6667 40.1505 21.6667 39.931C21.6667 39.7115 21.5789 39.501 21.4226 39.3458C21.2663 39.1906 21.0543 39.1035 20.8333 39.1035ZM55 34.9655V53.1724C55 53.3919 54.9122 53.6024 54.7559 53.7576C54.5996 53.9128 54.3877 54 54.1667 54H25.8333C25.6123 54 25.4004 53.9128 25.2441 53.7576C25.0878 53.6024 25 53.3919 25 53.1724V49.0345H9.16667C8.06198 49.0333 7.00289 48.5969 6.22176 47.8212C5.44063 47.0454 5.00124 45.9936 5 44.8966V10.1379C5.00124 9.04086 5.44063 7.98908 6.22176 7.21333C7.00289 6.43759 8.06198 6.00123 9.16667 6H30.8333C30.9428 6 31.0511 6.0214 31.1522 6.06299C31.2533 6.10457 31.3452 6.16553 31.4226 6.24238L39.7559 14.5182C39.8333 14.5951 39.8947 14.6863 39.9366 14.7867C39.9785 14.8871 40 14.9948 40 15.1034V23.4C41.3468 22.9466 42.7476 22.6701 44.1667 22.5775V20.8966C44.1667 20.7383 44.2124 20.5833 44.2983 20.45C44.3843 20.3167 44.507 20.2108 44.6518 20.1446C44.7966 20.0785 44.9575 20.055 45.1153 20.0769C45.2732 20.0988 45.4214 20.1652 45.5424 20.2682L51.3757 25.2337C51.467 25.3114 51.5403 25.4078 51.5905 25.5163C51.6407 25.6247 51.6667 25.7427 51.6667 25.8621C51.6667 25.9815 51.6407 26.0994 51.5905 26.2079C51.5403 26.3163 51.467 26.4127 51.3757 26.4904L45.5424 31.4559C45.4214 31.559 45.2732 31.6254 45.1153 31.6473C44.9575 31.6692 44.7966 31.6457 44.6518 31.5795C44.507 31.5134 44.3843 31.4074 44.2983 31.2741C44.2124 31.1408 44.1667 30.9859 44.1667 30.8276V29.1875C42.7707 29.2465 41.3794 29.387 40 29.6083V34.1379H54.1667C54.3877 34.1379 54.5996 34.2251 54.7559 34.3803C54.9122 34.5355 55 34.746 55 34.9655ZM27.9347 35.7931L40 47.0704L52.0653 35.7931H27.9347ZM35.2402 28.8667C37.2689 28.3735 41.3203 27.5172 45 27.5172C45.221 27.5172 45.433 27.6044 45.5893 27.7596C45.7455 27.9148 45.8333 28.1253 45.8333 28.3448V29.0282L49.5529 25.8621L45.8333 22.6959V23.3793C45.8333 23.5988 45.7455 23.8093 45.5893 23.9645C45.433 24.1197 45.221 24.2069 45 24.2069C41.0555 24.2069 36.3453 26.2595 35.2402 28.8667ZM31.6667 11.7931C31.6674 12.4513 31.931 13.0824 32.3997 13.5479C32.8684 14.0133 33.5039 14.2751 34.1667 14.2759H37.1549L31.6667 8.82548V11.7931ZM25.8333 34.1379H38.3333V29.8966C36.0721 30.3254 34.426 30.7874 34.3958 30.796C34.2718 30.8313 34.1412 30.8374 34.0143 30.814C33.8874 30.7906 33.7678 30.7382 33.6648 30.661C33.5618 30.5838 33.4782 30.484 33.4207 30.3693C33.3632 30.2546 33.3333 30.1281 33.3333 30C33.3333 27.9869 34.7387 26.0699 37.2907 24.6023C37.6241 24.4104 37.9738 24.2312 38.3333 24.0632V15.931H34.1667C33.062 15.9298 32.0029 15.4934 31.2218 14.7177C30.4406 13.942 30.0012 12.8902 30 11.7931V7.65517H9.16667C8.50385 7.65591 7.8684 7.91772 7.39972 8.38317C6.93104 8.84862 6.66741 9.47969 6.66667 10.1379V44.8966C6.66741 45.5548 6.93104 46.1859 7.39972 46.6513C7.8684 47.1168 8.50385 47.3786 9.16667 47.3793H25V34.9655C25 34.746 25.0878 34.5355 25.2441 34.3803C25.4004 34.2251 25.6123 34.1379 25.8333 34.1379ZM53.3333 36.881L40.5711 48.8096C40.4166 48.9541 40.2123 49.0345 40 49.0345C39.7877 49.0345 39.5834 48.9541 39.4289 48.8096L26.6667 36.881V52.3448H53.3333V36.881Z" fill="url(#paint0_linear_4_1616)"/>
<defs>
<linearGradient id="paint0_linear_4_1616" x1="30" y1="54" x2="30" y2="6" gradientUnits="userSpaceOnUse">
<stop stop-color="#0B2C4C"/>
<stop offset="0.5" stop-color="#00A99D"/>
<stop offset="1" stop-color="#81319B"/>
</linearGradient>
</defs>
</svg>
