<svg width="23" height="22" viewBox="0 0 23 22" fill="none" xmlns="http://www.w3.org/2000/svg">
<path d="M16.3894 14.3083C15.7957 14.3083 15.2263 14.5332 14.7952 14.9269L8.99599 11.5928C9.04479 11.4081 9.06919 11.2233 9.06919 11.0305C9.06919 10.8377 9.04479 10.6529 8.99599 10.4681L14.7302 7.16623C15.7143 8.06601 17.2597 8.00977 18.1707 7.03768C19.0816 6.0656 19.0247 4.53918 18.0405 3.63939C17.0564 2.73961 15.511 2.79584 14.6 3.76793C14.1852 4.20979 13.9493 4.79626 13.9493 5.40683C13.9493 5.59964 13.9737 5.78441 14.0225 5.96919L8.28837 9.27108C7.30421 8.36326 5.75883 8.41146 4.83973 9.38355C3.92064 10.3556 3.96944 11.8821 4.9536 12.7899C5.88896 13.6575 7.35301 13.6575 8.28837 12.7899L14.0795 16.1319C14.0388 16.3006 14.0144 16.4774 14.0144 16.6541C14.0144 17.9476 15.0799 19 16.3894 19C17.6989 19 18.7644 17.9476 18.7644 16.6541C18.7644 15.3607 17.6989 14.3083 16.3894 14.3083Z" fill="white"/>
</svg>
