<svg width="22" height="22" viewBox="0 0 22 22" fill="none" xmlns="http://www.w3.org/2000/svg">
<path d="M15.677 14.3083C15.1091 14.3083 14.5645 14.5332 14.1521 14.9269L8.60503 11.5928C8.65171 11.4081 8.67505 11.2233 8.67505 11.0305C8.67505 10.8377 8.65171 10.6529 8.60503 10.4681L14.0899 7.16623C15.0313 8.06601 16.5095 8.00977 17.3808 7.03768C18.2522 6.0656 18.1977 4.53918 17.2563 3.63939C16.315 2.73961 14.8368 2.79584 13.9654 3.76793C13.5686 4.20979 13.343 4.79626 13.343 5.40683C13.343 5.59964 13.3664 5.78441 13.413 5.96919L7.92817 9.27108C6.9868 8.36326 5.50861 8.41146 4.62948 9.38355C3.75034 10.3556 3.79702 11.8821 4.7384 12.7899C5.63309 13.6575 7.03348 13.6575 7.92817 12.7899L13.4675 16.1319C13.4286 16.3006 13.4053 16.4774 13.4053 16.6541C13.4053 17.9476 14.4244 19 15.677 19C16.9296 19 17.9487 17.9476 17.9487 16.6541C17.9487 15.3607 16.9296 14.3083 15.677 14.3083Z" fill="#0B2C4C"/>
</svg>
