<svg width="29" height="27" viewBox="0 0 29 27" fill="none" xmlns="http://www.w3.org/2000/svg">
<rect width="29" height="27" rx="4" fill="#00A99D"/>
<path d="M21.9869 19.7152L20.6974 8.52107H17.7773V8.14687C17.7773 6.41168 16.3071 5 14.5 5C12.6929 5 11.2227 6.41168 11.2227 8.14687V8.52107H8.30162L7.01312 19.7152C6.94585 20.2989 7.13948 20.8827 7.5443 21.3168C7.94921 21.751 8.53233 22 9.14412 22H19.8559C20.4677 22 21.0508 21.751 21.4557 21.3168C21.8605 20.8827 22.0542 20.2989 21.9869 19.7152ZM12.3292 8.14687C12.3292 6.99754 13.303 6.0625 14.5 6.0625C15.697 6.0625 16.6708 6.99754 16.6708 8.14687V8.52107H12.3292V8.14687ZM20.6313 20.608C20.4332 20.8205 20.1578 20.9375 19.8559 20.9375H9.14412C8.8422 20.9375 8.56681 20.8205 8.36866 20.608C8.17057 20.3956 8.07976 20.12 8.11296 19.832L9.2926 9.58357H11.2227V10.6228H10.5311V11.6853H13.0209V10.6228H12.3293V9.58357H16.6708V10.6228H15.9791V11.6853H18.4689V10.6228H17.7773V9.58357H19.7065L20.887 19.8321C20.9202 20.12 20.8294 20.3956 20.6313 20.608ZM13.8201 15.2652C13.8201 15.5713 13.8837 15.6441 14.6138 15.7915C14.951 15.8596 15.3332 15.9368 15.6522 16.1386C16.073 16.4049 16.2864 16.8151 16.2864 17.3576C16.2864 18.057 15.7682 18.6513 15.0533 18.8576V19.5792H13.9467V18.8576C13.2318 18.6513 12.7136 18.0571 12.7136 17.3576H13.8201C13.8201 17.6369 14.1315 17.8729 14.5 17.8729C14.8685 17.8729 15.1798 17.6369 15.1798 17.3576C15.1798 17.0515 15.1162 16.9787 14.3861 16.8313C14.0489 16.7632 13.6667 16.686 13.3477 16.4842C12.927 16.2179 12.7136 15.8077 12.7136 15.2652C12.7136 14.5658 13.2318 13.9715 13.9467 13.7652V13.0436H15.0533V13.7652C15.7682 13.9715 16.2864 14.5658 16.2864 15.2652H15.1798C15.1798 14.9859 14.8685 14.7499 14.5 14.7499C14.1315 14.7499 13.8201 14.9859 13.8201 15.2652Z" fill="white"/>
</svg>
