<svg width="80" height="80" viewBox="0 0 80 80" fill="none" xmlns="http://www.w3.org/2000/svg">
<path d="M79 16.7419C79 10.8184 73.9851 6 67.8226 6C62.0799 6 57.3382 10.1858 56.7184 15.5484H51.6774V14.3548C51.6774 11.0642 48.8918 8.3871 45.4677 8.3871H39.0295C38.5154 7.00139 37.1493 6 35.5323 6H18.1452C16.5282 6 15.162 7.00139 14.6479 8.3871H8.20968C4.78566 8.3871 2 11.0642 2 14.3548V66.871C2 70.1616 4.78566 72.8387 8.20968 72.8387H39.2581C39.2581 74.8128 40.9297 76.4194 42.9839 76.4194H44.4022C44.9573 78.4735 46.886 80 49.1936 80C51.5011 80 53.4298 78.4735 53.9849 76.4194H64.2731C64.8283 78.4735 66.757 80 69.0645 80C71.372 80 73.3008 78.4735 73.8559 76.4194H75.2742C77.3284 76.4194 79 74.8128 79 72.8387V60.5058L74.6532 54.9355H69.0645V27.4135C74.6445 26.8179 79 22.2621 79 16.7419ZM67.8226 8.3871C72.6165 8.3871 76.5161 12.136 76.5161 16.7419C76.5161 21.3478 72.6165 25.0968 67.8226 25.0968C63.0287 25.0968 59.129 21.3478 59.129 16.7419C59.129 12.136 63.0287 8.3871 67.8226 8.3871ZM61.6129 69.2581H41.7419V52.5484H46.7097V57.3226H56.6452V52.5484H61.6129V69.2581ZM14.6479 15.5484C15.162 16.9341 16.5282 17.9355 18.1452 17.9355H35.5323C37.1493 17.9355 38.5154 16.9341 39.0295 15.5484H44.2258V50.1613H39.2581V65.6774H9.45161V15.5484H14.6479ZM54.1613 54.9355H49.1936V52.5484H54.1613V54.9355ZM49.1936 14.3548V50.1613H46.7097V15.5484C46.7097 14.2319 45.5957 13.1613 44.2258 13.1613H39.2581V10.7742H45.4677C47.5219 10.7742 49.1936 12.3807 49.1936 14.3548ZM16.9032 9.58065C16.9032 8.92181 17.4609 8.3871 18.1452 8.3871H35.5323C36.2166 8.3871 36.7742 8.92181 36.7742 9.58065V14.3548C36.7742 15.0137 36.2166 15.5484 35.5323 15.5484H18.1452C17.4609 15.5484 16.9032 15.0137 16.9032 14.3548V9.58065ZM8.20968 70.4516C6.15552 70.4516 4.48387 68.8451 4.48387 66.871V14.3548C4.48387 12.3807 6.15552 10.7742 8.20968 10.7742H14.4194V13.1613H9.45161C8.08176 13.1613 6.96774 14.2319 6.96774 15.5484V65.6774C6.96774 66.9939 8.08176 68.0645 9.45161 68.0645H39.2581V69.2581V70.4516H8.20968ZM44.4022 74.0323H42.9839C42.2996 74.0323 41.7419 73.4976 41.7419 72.8387V71.6452H45.9422C45.2007 72.2682 44.6568 73.0906 44.4022 74.0323ZM49.1936 77.6129C47.8237 77.6129 46.7097 76.5423 46.7097 75.2258C46.7097 73.9093 47.8237 72.8387 49.1936 72.8387C50.5634 72.8387 51.6774 73.9093 51.6774 75.2258C51.6774 76.5423 50.5634 77.6129 49.1936 77.6129ZM64.2731 74.0323H53.9849C53.7303 73.0894 53.1864 72.267 52.4449 71.6452H65.8131C65.0717 72.2682 64.5277 73.0906 64.2731 74.0323ZM69.0645 77.6129C67.6947 77.6129 66.5806 76.5423 66.5806 75.2258C66.5806 73.9093 67.6947 72.8387 69.0645 72.8387C70.4344 72.8387 71.5484 73.9093 71.5484 75.2258C71.5484 76.5423 70.4344 77.6129 69.0645 77.6129ZM75.2742 74.0323H73.8559C73.6013 73.0894 73.0573 72.267 72.3159 71.6452H76.5161V72.8387C76.5161 73.4976 75.9585 74.0323 75.2742 74.0323ZM76.5161 61.3007V69.2581H64.0968V57.3226H73.4113L76.5161 61.3007ZM64.0968 54.9355V50.1613H51.6774V17.9355H56.7184C57.2935 22.9066 61.4092 26.8608 66.5806 27.4135V54.9355H64.0968ZM65.3387 22.0103L61.9768 18.7793L63.7329 17.0916L65.3387 18.6349L71.9123 12.3175L73.6684 14.0051L65.3387 22.0103ZM14.5535 31.6887L11.0574 28.3289L12.8135 26.6412L14.2852 28.0556L20.8787 19.6088L22.8658 21.0399L14.5535 31.6887ZM41.7419 22.7097H25.5968V20.3226H41.7419V22.7097ZM39.2581 25.0968H41.7419V27.4839H39.2581V25.0968ZM36.7742 27.4839H25.5968V25.0968H36.7742V27.4839ZM41.7419 32.2581H25.5968V29.871H41.7419V32.2581ZM14.5535 46.0113L11.0574 42.6515L12.8135 40.9638L14.2852 42.3782L20.8787 33.9314L22.8658 35.3625L14.5535 46.0113ZM41.7419 37.0323H25.5968V34.6452H41.7419V37.0323ZM39.2581 39.4194H41.7419V41.8065H39.2581V39.4194ZM36.7742 41.8065H25.5968V39.4194H36.7742V41.8065ZM41.7419 46.5806H25.5968V44.1936H41.7419V46.5806ZM11.9355 63.2903H26.8387V51.3548H11.9355V63.2903ZM14.4194 53.7419H24.3548V60.9032H14.4194V53.7419ZM29.3226 51.3548H36.7742V53.7419H29.3226V51.3548ZM29.3226 56.129H36.7742V58.5161H29.3226V56.129ZM29.3226 60.9032H36.7742V63.2903H29.3226V60.9032Z" fill="url(#paint0_linear_4061_14078)"/>
<defs>
<linearGradient id="paint0_linear_4061_14078" x1="40.5" y1="80" x2="40.5" y2="6" gradientUnits="userSpaceOnUse">
<stop stop-color="#0B2C4C"/>
<stop offset="0.5" stop-color="#00A99D"/>
<stop offset="1" stop-color="#81319B"/>
</linearGradient>
</defs>
</svg>
