<svg width="22" height="22" viewBox="0 0 22 22" fill="none" xmlns="http://www.w3.org/2000/svg">
<path d="M18.103 4.8788C17.5481 4.3054 16.7804 3.99095 15.9851 4.0002H12.6557C12.5817 4.0002 12.4984 4.0187 12.443 4.06494C12.3875 4.12043 12.3505 4.19441 12.3412 4.2684C12.3227 4.35164 12.3135 4.43487 12.3135 4.50886C12.3135 4.60134 12.3135 4.69383 12.3227 4.78631C12.332 4.89729 12.332 4.96203 12.332 4.98978C12.3505 5.03602 12.3597 5.08226 12.3505 5.1285C12.3412 5.1655 12.369 5.20249 12.4245 5.22099C12.4799 5.23948 12.5077 5.26723 12.5077 5.27648C12.5077 5.28572 12.5447 5.30422 12.6279 5.30422L12.7482 5.31347H15.9943C16.9099 5.31347 17.659 6.06259 17.659 6.97818V14.3029C17.659 15.2185 16.9099 15.9676 15.9943 15.9676H12.6649C12.5909 15.9676 12.5077 15.9861 12.4522 16.0324C12.3967 16.0878 12.3597 16.1618 12.3505 16.2358C12.332 16.3191 12.3227 16.4023 12.3227 16.4763C12.3227 16.5688 12.3227 16.6612 12.332 16.7537C12.3412 16.8647 12.3412 16.9294 12.3412 16.9572C12.3412 17.1422 12.4892 17.2901 12.6742 17.2901H16.0036C17.659 17.2901 19.0001 15.9491 19.0001 14.2937V6.99668C19.0001 6.20132 18.6764 5.4337 18.103 4.8788Z" fill="#0B2C4C"/>
<path d="M3 10.6579C3 10.8336 3.07399 11.0001 3.19422 11.1296L8.85423 16.7896C9.10394 17.0486 9.52011 17.0578 9.77907 16.7989L9.78832 16.7896C9.91779 16.6694 9.98253 16.4937 9.98253 16.3179V13.3215H14.6437C14.8194 13.3215 14.9859 13.2475 15.1154 13.1272C15.2449 13.007 15.3189 12.8313 15.3096 12.6556V8.66028C15.3096 8.48456 15.2356 8.31809 15.1154 8.18861C14.9952 8.05913 14.8194 7.98514 14.6437 7.99439H9.99178V4.99792C9.99178 4.62798 9.69583 4.33203 9.33515 4.33203C9.15943 4.33203 8.98371 4.40602 8.86348 4.52625L3.20346 10.1863C3.07399 10.3157 3 10.4822 3 10.6579Z" fill="#0B2C4C"/>
</svg>
