<svg width="28" height="28" viewBox="0 0 28 28" fill="none" xmlns="http://www.w3.org/2000/svg">
<path d="M22.4425 0.399902H4.9572C3.66895 0.399902 2.43347 0.911747 1.52254 1.82287C0.611608 2.73399 0.0998535 3.96974 0.0998535 5.25826V22.7415C0.0998535 24.0301 0.611608 25.2658 1.52254 26.1769C2.43347 27.0881 3.66895 27.5999 4.9572 27.5999H22.4425C23.7308 27.5999 24.9662 27.0881 25.8772 26.1769C26.7881 25.2658 27.2999 24.0301 27.2999 22.7415V5.25826C27.2999 3.96974 26.7881 2.73399 25.8772 1.82287C24.9662 0.911747 23.7308 0.399902 22.4425 0.399902ZM22.2074 18.9099C22.1789 18.9565 22.142 18.9974 22.0984 19.0303C22.0351 19.0796 21.968 19.1237 21.8977 19.1623C21.5863 19.3253 21.2573 19.4523 20.9171 19.5409L20.4812 19.667C20.3805 19.6987 20.2826 19.7391 20.1887 19.7875C20.1156 19.825 20.0524 19.8795 20.0045 19.9463C19.9567 20.0132 19.9255 20.0904 19.9135 20.1718C19.9135 20.2693 19.8791 20.3611 19.8619 20.4586C19.8619 20.555 19.824 20.6475 19.7564 20.7162C19.6888 20.7849 19.5969 20.8242 19.5006 20.8257C19.4166 20.8313 19.3323 20.8313 19.2483 20.8257L18.6174 20.8544C18.144 20.8783 17.6756 20.9632 17.2239 21.1068C17.0237 21.166 16.8312 21.2488 16.6504 21.3534C16.4612 21.4567 16.2834 21.5714 16.0769 21.6804C15.7884 21.8619 15.4853 22.0192 15.1708 22.1507C14.8175 22.2863 14.4468 22.3713 14.0698 22.4031C13.7513 22.4347 13.4305 22.4347 13.112 22.4031C12.6395 22.3491 12.1808 22.2092 11.7586 21.9901C11.562 21.889 11.3706 21.778 11.1852 21.6574L10.7665 21.4051C10.4311 21.2115 10.0672 21.0722 9.68839 20.9921C9.34311 20.9183 8.99185 20.8761 8.63893 20.8659L8.06545 20.8372C7.95895 20.8336 7.85316 20.8182 7.75003 20.7913C7.68349 20.7772 7.62273 20.7435 7.57567 20.6944C7.52861 20.6452 7.49745 20.5831 7.48624 20.516C7.48624 20.4357 7.45756 20.3554 7.44609 20.2693C7.44331 20.2522 7.44331 20.2348 7.44609 20.2177C7.43645 20.1141 7.3988 20.015 7.33718 19.9311C7.27556 19.8473 7.19228 19.7817 7.09628 19.7416C6.97044 19.6847 6.83999 19.6386 6.70632 19.6039C6.47693 19.5351 6.24179 19.4835 6.01814 19.3975C5.82102 19.3276 5.62934 19.2432 5.44466 19.1451C5.38905 19.114 5.33542 19.0795 5.28409 19.0418C5.24782 19.02 5.21496 18.9929 5.18659 18.9615C5.07763 18.8525 5.08911 18.7493 5.21527 18.6518C5.27628 18.6087 5.34163 18.5722 5.41025 18.5428C5.89051 18.3105 6.3459 18.0299 6.76939 17.7053C7.37533 17.246 7.89065 16.6781 8.2891 16.0304C8.5079 15.6867 8.67776 15.3141 8.79376 14.9234C8.83051 14.7982 8.85359 14.6693 8.86258 14.5391C8.8652 14.4771 8.85539 14.4152 8.83372 14.3571C8.81205 14.299 8.77896 14.2458 8.73641 14.2007C8.68303 14.1466 8.62551 14.0967 8.56438 14.0515C8.39233 13.9196 8.20882 13.7992 8.02531 13.6787L7.33141 13.2255C7.21529 13.1511 7.10591 13.0667 7.00452 12.9732C6.93016 12.903 6.86468 12.8241 6.80954 12.738C6.75648 12.6528 6.72554 12.5557 6.71953 12.4556C6.71352 12.3554 6.73264 12.2553 6.77513 12.1644C6.80085 12.0993 6.84028 12.0405 6.89074 11.992C6.94121 11.9435 7.00153 11.9064 7.06759 11.8833C7.21376 11.8273 7.37271 11.8134 7.52638 11.8432C7.70861 11.8753 7.88724 11.9253 8.05971 11.9923L8.58732 12.1931C8.66799 12.2284 8.75274 12.2534 8.83963 12.2676H8.90273C9.00595 12.2676 9.09198 12.2332 9.08624 12.0956C9.08051 11.9579 9.08624 11.8661 9.08624 11.7514C9.04325 11.1386 9.03176 10.5241 9.05184 9.91016C9.06561 9.52428 9.11359 9.14037 9.1952 8.76297C9.31464 8.23472 9.54534 7.73801 9.8719 7.30601C10.4611 6.52333 11.298 5.96331 12.2461 5.71717C12.7686 5.57332 13.3103 5.51139 13.8518 5.53361C14.4255 5.54801 14.9922 5.66252 15.5264 5.87201C16.0353 6.06152 16.5027 6.34787 16.9027 6.71522C17.4155 7.18239 17.7971 7.77564 18.0095 8.43601C18.101 8.73929 18.1643 9.05034 18.1988 9.36524C18.2494 9.85105 18.2685 10.3396 18.2561 10.8279C18.2561 11.2007 18.2561 11.5678 18.2045 11.9407C18.2045 12.0038 18.2045 12.0669 18.2045 12.13C18.2045 12.1931 18.2791 12.325 18.4167 12.3078C18.468 12.3045 18.5183 12.2929 18.5658 12.2734L18.9672 12.13C19.1879 12.0398 19.4139 11.9632 19.644 11.9005C19.8008 11.8662 19.9631 11.8662 20.1199 11.9005C20.2039 11.9174 20.283 11.9528 20.3514 12.0042C20.4199 12.0556 20.476 12.1217 20.5156 12.1976C20.5552 12.2735 20.5773 12.3573 20.5802 12.4429C20.5832 12.5285 20.567 12.6136 20.5328 12.6921C20.4951 12.7819 20.4406 12.8636 20.3723 12.933C20.2796 13.0382 20.1736 13.1308 20.0569 13.2084L19.6497 13.4779C19.4203 13.6271 19.1909 13.7762 18.9672 13.9311C18.8722 13.9933 18.7803 14.0604 18.692 14.1318C18.6408 14.1678 18.5946 14.2102 18.5543 14.258C18.5128 14.3036 18.4808 14.357 18.4601 14.4151C18.4394 14.4732 18.4305 14.5349 18.4339 14.5964C18.4438 14.7186 18.4649 14.8396 18.497 14.9578C18.6096 15.3323 18.7695 15.6908 18.973 16.0247C19.3431 16.6387 19.8187 17.1824 20.378 17.6308C20.8526 18.0146 21.3703 18.3418 21.9207 18.6059C21.9703 18.6292 22.0182 18.656 22.064 18.6862C22.1011 18.7071 22.1326 18.7366 22.1558 18.7722C22.1755 18.7888 22.1907 18.8101 22.1997 18.8343C22.2088 18.8584 22.2114 18.8845 22.2074 18.9099Z" fill="#0B2C4C"/>
</svg>
