<svg width="16" height="16" viewBox="0 0 16 16" fill="none" xmlns="http://www.w3.org/2000/svg">
<g clip-path="url(#clip0_75474_67608)">
<path d="M4.66667 0H2.66667C1.95942 0 1.28115 0.280952 0.781049 0.781049C0.280952 1.28115 0 1.95942 0 2.66667L0 4.66667C0 5.37391 0.280952 6.05219 0.781049 6.55229C1.28115 7.05238 1.95942 7.33333 2.66667 7.33333H4.66667C5.37391 7.33333 6.05219 7.05238 6.55229 6.55229C7.05238 6.05219 7.33333 5.37391 7.33333 4.66667V2.66667C7.33333 1.95942 7.05238 1.28115 6.55229 0.781049C6.05219 0.280952 5.37391 0 4.66667 0ZM6 4.66667C6 5.02029 5.85952 5.35943 5.60948 5.60948C5.35943 5.85952 5.02029 6 4.66667 6H2.66667C2.31304 6 1.97391 5.85952 1.72386 5.60948C1.47381 5.35943 1.33333 5.02029 1.33333 4.66667V2.66667C1.33333 2.31304 1.47381 1.97391 1.72386 1.72386C1.97391 1.47381 2.31304 1.33333 2.66667 1.33333H4.66667C5.02029 1.33333 5.35943 1.47381 5.60948 1.72386C5.85952 1.97391 6 2.31304 6 2.66667V4.66667Z" fill="#0B2C4C"/>
<path d="M4.66667 8.66699H2.66667C1.95942 8.66699 1.28115 8.94794 0.781049 9.44804C0.280952 9.94814 0 10.6264 0 11.3337L0 13.3337C0 14.0409 0.280952 14.7192 0.781049 15.2193C1.28115 15.7194 1.95942 16.0003 2.66667 16.0003H4.66667C5.37391 16.0003 6.05219 15.7194 6.55229 15.2193C7.05238 14.7192 7.33333 14.0409 7.33333 13.3337V11.3337C7.33333 10.6264 7.05238 9.94814 6.55229 9.44804C6.05219 8.94794 5.37391 8.66699 4.66667 8.66699ZM6 13.3337C6 13.6873 5.85952 14.0264 5.60948 14.2765C5.35943 14.5265 5.02029 14.667 4.66667 14.667H2.66667C2.31304 14.667 1.97391 14.5265 1.72386 14.2765C1.47381 14.0264 1.33333 13.6873 1.33333 13.3337V11.3337C1.33333 10.98 1.47381 10.6409 1.72386 10.3909C1.97391 10.1408 2.31304 10.0003 2.66667 10.0003H4.66667C5.02029 10.0003 5.35943 10.1408 5.60948 10.3909C5.85952 10.6409 6 10.98 6 11.3337V13.3337Z" fill="#0B2C4C"/>
<path d="M14.8628 12.6998L13.3341 14.2265V1.7558L14.8628 3.28247C14.9247 3.34436 14.9983 3.39345 15.0792 3.42693C15.1601 3.46042 15.2468 3.47763 15.3344 3.4776C15.4219 3.47757 15.5086 3.46029 15.5895 3.42675C15.6704 3.39322 15.7439 3.34407 15.8058 3.28213C15.8677 3.22019 15.9168 3.14667 15.9503 3.06576C15.9837 2.98484 16.001 2.89813 16.0009 2.81056C16.0009 2.723 15.9836 2.6363 15.9501 2.55541C15.9165 2.47452 15.8674 2.40103 15.8055 2.33913L14.0808 0.617133C13.7058 0.242599 13.1975 0.0322266 12.6675 0.0322266C12.1375 0.0322266 11.6291 0.242599 11.2541 0.617133L9.52945 2.33913C9.46751 2.40103 9.41837 2.47452 9.38483 2.55541C9.35129 2.6363 9.33402 2.723 9.33398 2.81056C9.33395 2.89813 9.35117 2.98484 9.38465 3.06576C9.41813 3.14667 9.46722 3.22019 9.52912 3.28213C9.59102 3.34407 9.66451 3.39322 9.74539 3.42675C9.82628 3.46029 9.91298 3.47757 10.0006 3.4776C10.0881 3.47763 10.1748 3.46042 10.2557 3.42693C10.3367 3.39345 10.4102 3.34436 10.4721 3.28247L12.0008 1.7558V14.2265L10.4721 12.6998C10.4102 12.6379 10.3367 12.5888 10.2557 12.5553C10.1748 12.5219 10.0881 12.5046 10.0006 12.5047C9.91298 12.5047 9.82628 12.522 9.74539 12.5555C9.66451 12.5891 9.59102 12.6382 9.52912 12.7001C9.46722 12.7621 9.41813 12.8356 9.38465 12.9165C9.35117 12.9974 9.33395 13.0841 9.33398 13.1717C9.33402 13.2593 9.35129 13.346 9.38483 13.4269C9.41837 13.5077 9.46751 13.5812 9.52945 13.6431L11.2541 15.3651C11.6291 15.7397 12.1375 15.95 12.6675 15.95C13.1975 15.95 13.7058 15.7397 14.0808 15.3651L15.8055 13.6431C15.8674 13.5812 15.9165 13.5077 15.9501 13.4269C15.9836 13.346 16.0009 13.2593 16.0009 13.1717C16.001 13.0841 15.9837 12.9974 15.9503 12.9165C15.9168 12.8356 15.8677 12.7621 15.8058 12.7001C15.7439 12.6382 15.6704 12.5891 15.5895 12.5555C15.5086 12.522 15.4219 12.5047 15.3344 12.5047C15.2468 12.5046 15.1601 12.5219 15.0792 12.5553C14.9983 12.5888 14.9247 12.6379 14.8628 12.6998Z" fill="#0B2C4C"/>
</g>
<defs>
<clipPath id="clip0_75474_67608">
<rect width="16" height="16" fill="white"/>
</clipPath>
</defs>
</svg>
