<svg xmlns="http://www.w3.org/2000/svg" width="25" height="24" viewBox="0 0 25 24" fill="none">
  <path d="M19.2 13V11H21.2V13H19.2ZM21.2 9V7H19.2V9H21.2ZM21.2 3H19.2V5H21.2V3ZM17.2 15H19.2V13H17.2V15ZM21.2 17V15H19.2V17H21.2ZM13.2 17V15H15.2V13H13.2V11H15.2V9H13.2V7H15.2V5H13.2V3H3.19995V21H13.2V19H15.2V17H13.2ZM15.2 21H17.2V19H15.2V21ZM17.2 3H15.2V5H17.2V3ZM17.2 11H19.2V9H17.2V11ZM15.2 17H17.2V15H15.2V17ZM17.2 19H19.2V17H17.2V19ZM21.2 21V19H19.2V21H21.2ZM15.2 9H17.2V7H15.2V9ZM15.2 13H17.2V11H15.2V13ZM17.2 5V7H19.2V5H17.2Z" fill="#0B2C4C"/>
</svg>