<svg width="22" height="22" viewBox="0 0 22 22" fill="none" xmlns="http://www.w3.org/2000/svg">
<path d="M10.232 5.58207C10.4741 4.80598 11.5257 4.80598 11.767 5.58207L12.6306 8.35614C12.6834 8.52508 12.7859 8.67229 12.9236 8.77672C13.0613 8.88114 13.2271 8.93745 13.3973 8.93758H16.1914C16.9735 8.93758 17.298 9.98249 16.666 10.4628L14.4062 12.1768C14.2682 12.2813 14.1655 12.4288 14.1127 12.598C14.0599 12.7672 14.0598 12.9496 14.1124 13.1189L14.976 15.893C15.2181 16.6691 14.3666 17.3154 13.7331 16.8351L11.4733 15.1211C11.3354 15.0166 11.1694 14.9603 10.9991 14.9603C10.8287 14.9603 10.6628 15.0166 10.5249 15.1211L8.2651 16.8351C7.63235 17.3154 6.78169 16.6691 7.023 15.893L7.88658 13.1189C7.93918 12.9496 7.93909 12.7672 7.88631 12.598C7.83354 12.4288 7.73079 12.2813 7.5928 12.1768L5.33378 10.4637C4.70184 9.98333 5.02709 8.93842 5.80835 8.93842H8.60166C8.77199 8.93847 8.93797 8.88225 9.07583 8.77781C9.2137 8.67337 9.31639 8.52606 9.36919 8.35698L10.2328 5.58292L10.232 5.58207Z" fill="#0B2C4C"/>
</svg>
