<svg width="31" height="32" viewBox="0 0 31 32" fill="none" xmlns="http://www.w3.org/2000/svg">
<path d="M22.3517 11.0817C22.8248 11.5548 22.8248 12.3215 22.3517 12.7943L14.228 20.9183C13.755 21.391 12.9885 21.391 12.5155 20.9183L8.64827 17.0508C8.17525 16.578 8.17525 15.8113 8.64827 15.3385C9.12106 14.8655 9.88783 14.8655 10.3606 15.3385L13.3716 18.3495L20.6392 11.0817C21.1122 10.609 21.8789 10.609 22.3517 11.0817ZM31 16C31 24.5676 24.0664 31.5 15.5 31.5C6.93238 31.5 0 24.5664 0 16C0 7.43238 6.93356 0.5 15.5 0.5C24.0676 0.5 31 7.43356 31 16ZM28.5781 16C28.5781 8.77103 22.728 2.92188 15.5 2.92188C8.27103 2.92188 2.42188 8.77198 2.42188 16C2.42188 23.229 8.27198 29.0781 15.5 29.0781C22.729 29.0781 28.5781 23.228 28.5781 16Z" fill="url(#paint0_linear_1083_13308)"/>
<defs>
<linearGradient id="paint0_linear_1083_13308" x1="17.8644" y1="31.5" x2="17.8644" y2="0.5" gradientUnits="userSpaceOnUse">
<stop stop-color="#0B2C4C"/>
<stop offset="0.5" stop-color="#00A99D"/>
<stop offset="1" stop-color="#81319B"/>
</linearGradient>
</defs>
</svg>
