<svg width="18" height="18" viewBox="0 0 18 18" fill="none" xmlns="http://www.w3.org/2000/svg">
<path d="M12.5364 6.46155C12.7805 6.70569 12.7805 7.10144 12.5364 7.34546L8.34351 11.5385C8.09937 11.7825 7.70374 11.7825 7.45959 11.5385L5.46362 9.54236C5.21948 9.29834 5.21948 8.90259 5.46362 8.65857C5.70764 8.41443 6.10339 8.41443 6.34741 8.65857L7.90149 10.2126L11.6525 6.46155C11.8966 6.21753 12.2924 6.21753 12.5364 6.46155ZM17 9C17 13.422 13.4214 17 9 17C4.578 17 1 13.4214 1 9C1 4.578 4.57861 1 9 1C13.422 1 17 4.57861 17 9ZM15.75 9C15.75 5.26892 12.7306 2.25 9 2.25C5.26892 2.25 2.25 5.26941 2.25 9C2.25 12.7311 5.26941 15.75 9 15.75C12.7311 15.75 15.75 12.7306 15.75 9Z" fill="url(#paint0_linear_262_10578)"/>
<defs>
<linearGradient id="paint0_linear_262_10578" x1="10.2203" y1="17" x2="10.2203" y2="1" gradientUnits="userSpaceOnUse">
<stop stop-color="#0B2C4C"/>
<stop offset="0.5" stop-color="#00A99D"/>
<stop offset="1" stop-color="#81319B"/>
</linearGradient>
</defs>
</svg>
