<svg width="28" height="28" viewBox="0 0 28 28" fill="none" xmlns="http://www.w3.org/2000/svg">
<path fill-rule="evenodd" clip-rule="evenodd" d="M6 0C2.68629 0 0 2.68629 0 6V22C0 25.3137 2.68629 28 6 28H22C25.3137 28 28 25.3137 28 22V6C28 2.68629 25.3137 0 22 0H6ZM19.9949 21.2925L23 5.60241C23 4.55789 21.6132 5.18891 21.6132 5.18891L4.73906 12.044C4.73906 12.044 3.94046 12.3268 4.00355 12.8491C4.06627 13.3713 4.71791 13.6108 4.71791 13.6108L8.85713 15.0538L19.5859 7.99812C20.1567 7.63918 20.4613 7.92164 19.9704 8.39625C19.6527 8.70292 12.3892 15.4654 11.4529 16.337L18.4188 21.8582C19.5748 22.3804 19.9949 21.2925 19.9949 21.2925Z" fill="#FFF"/>
</svg>
