<svg width="18" height="13" viewBox="0 0 18 13" fill="none" xmlns="http://www.w3.org/2000/svg">
<path d="M4.02638 0.995999C4.25038 0.963999 4.46371 0.942666 4.66638 0.931999C4.86904 0.910666 5.09304 0.9 5.33838 0.9C5.55171 0.9 5.75971 0.910666 5.96238 0.931999C6.16504 0.942666 6.38904 0.963999 6.63438 0.995999L10.2344 12.5C9.79704 12.564 9.37038 12.596 8.95438 12.596C8.54904 12.596 8.15438 12.564 7.77038 12.5L7.13038 10.196H3.32238L2.66638 12.5C2.28238 12.564 1.91438 12.596 1.56238 12.596C1.16771 12.596 0.778375 12.564 0.394375 12.5L4.02638 0.995999ZM6.58638 8.26L5.25838 3.428L3.86638 8.26H6.58638ZM15.6543 8.708C15.5263 8.68667 15.3876 8.67067 15.2383 8.66C15.0889 8.63867 14.9556 8.628 14.8383 8.628C14.3156 8.628 13.8996 8.724 13.5903 8.916C13.2916 9.09733 13.1423 9.396 13.1423 9.812C13.1423 10.0893 13.2009 10.3027 13.3183 10.452C13.4356 10.6013 13.5743 10.7133 13.7343 10.788C13.9049 10.852 14.0809 10.8947 14.2623 10.916C14.4543 10.9267 14.6196 10.932 14.7583 10.932C14.9183 10.932 15.0783 10.9213 15.2383 10.9C15.3983 10.868 15.5369 10.8413 15.6543 10.82V8.708ZM15.6543 7.06C15.6543 6.804 15.6116 6.596 15.5263 6.436C15.4409 6.276 15.3236 6.15333 15.1743 6.068C15.0249 5.972 14.8383 5.908 14.6143 5.876C14.4009 5.844 14.1609 5.828 13.8943 5.828C13.3183 5.828 12.7049 5.94 12.0543 6.164C11.9049 5.88667 11.7929 5.62533 11.7183 5.38C11.6436 5.13467 11.6063 4.84133 11.6063 4.5C12.0756 4.34 12.5449 4.22267 13.0143 4.148C13.4836 4.07333 13.9209 4.036 14.3263 4.036C15.4356 4.036 16.2996 4.30267 16.9183 4.836C17.5476 5.36933 17.8623 6.22267 17.8623 7.396V12.196C17.4889 12.3133 17.0356 12.4253 16.5023 12.532C15.9689 12.6387 15.3663 12.692 14.6943 12.692C14.1503 12.692 13.6489 12.644 13.1903 12.548C12.7423 12.452 12.3529 12.292 12.0223 12.068C11.7023 11.844 11.4516 11.556 11.2703 11.204C11.0996 10.852 11.0143 10.42 11.0143 9.908C11.0143 9.396 11.1209 8.96933 11.3343 8.628C11.5583 8.276 11.8409 7.99867 12.1823 7.796C12.5343 7.58267 12.9236 7.43333 13.3503 7.348C13.7769 7.252 14.2036 7.204 14.6302 7.204C14.9396 7.204 15.2809 7.22 15.6543 7.252V7.06Z" fill="#0B2C4C"/>
</svg>
