<svg width="28" height="28" viewBox="0 0 28 28" fill="none" xmlns="http://www.w3.org/2000/svg">
<path fill-rule="evenodd" clip-rule="evenodd" d="M6 0C2.68629 0 0 2.68629 0 6V22C0 25.3137 2.68629 28 6 28H22C25.3137 28 28 25.3137 28 22V6C28 2.68629 25.3137 0 22 0H6ZM19.2703 7.99014C20.1029 8.62902 21.1397 9.00773 22.2635 9.00773C22.2642 9.00773 22.272 9.00773 22.2727 9.00712V9.88682V12.2581C21.1736 12.2584 20.1056 12.0394 19.0984 11.607C18.4508 11.3289 17.8474 10.9705 17.2955 10.5374L17.3121 17.8362C17.3051 19.4797 16.666 21.0239 15.5092 22.187C14.5677 23.1338 13.3748 23.7359 12.0818 23.9308C11.778 23.9765 11.4688 24 11.1562 24C9.77208 24 8.45799 23.5438 7.3831 22.7023C7.18082 22.5438 6.98738 22.3721 6.80317 22.187C5.54945 20.9265 4.90298 19.218 5.01182 17.4207C5.09489 16.0526 5.63329 14.7478 6.53089 13.7252C7.71845 12.3719 9.37982 11.6207 11.1562 11.6207C11.4688 11.6207 11.778 11.6446 12.0818 11.6904V12.5671V15.006C11.7938 14.9094 11.4861 14.8562 11.1658 14.8562C9.54288 14.8562 8.22994 16.2032 8.25417 17.8554C8.26955 18.9125 8.83718 19.8365 9.6744 20.3459C10.0678 20.5854 10.5205 20.7336 11.0035 20.7606C11.3819 20.7818 11.7453 20.7282 12.0818 20.6151C13.2413 20.2254 14.0778 19.1175 14.0778 17.8108L14.0816 12.9231V4H17.2917C17.2947 4.32355 17.3271 4.63927 17.387 4.94521C17.6293 6.18345 18.3154 7.25776 19.2703 7.99014ZM22.2727 9.00694C22.2727 9.00701 22.2727 9.00707 22.2727 9.00712V9.00694Z" fill="#0B2C4C"/>
</svg>
