<svg width="80" height="80" viewBox="0 0 80 80" fill="none" xmlns="http://www.w3.org/2000/svg">
<g clip-path="url(#clip0_4061_14624)">
<path d="M75.7953 13.5003H40.1979C38.155 13.5003 36.4929 15.2212 36.4929 17.3364V69.6839C36.4929 71.7991 38.155 73.52 40.1979 73.52H75.7953C77.8381 73.52 79.5 71.7991 79.5 69.6839V17.3364C79.5 15.2212 77.8381 13.5003 75.7953 13.5003ZM78.2812 69.684C78.2812 71.1035 77.1661 72.2582 75.7953 72.2582H40.1979C38.827 72.2582 37.7117 71.1035 37.7117 69.684V17.3364C37.7117 15.917 38.827 14.7623 40.1979 14.7623H75.7953C77.1661 14.7623 78.2812 15.917 78.2812 17.3364V69.684ZM72.8616 18.5602H43.1313C41.8818 18.5602 40.8652 19.6129 40.8652 20.9067V28.6462C40.8652 29.9401 41.8818 30.9927 43.1313 30.9927H72.8615C74.111 30.9927 75.1277 29.9401 75.1277 28.6462V20.9067C75.1279 19.613 74.1111 18.5602 72.8616 18.5602ZM73.9091 28.6464C73.9091 29.2444 73.4392 29.7309 72.8616 29.7309H43.1313C42.5537 29.7309 42.0839 29.2444 42.0839 28.6464V20.9069C42.0839 20.3088 42.5537 19.8223 43.1313 19.8223H72.8615C73.439 19.8223 73.909 20.3088 73.909 20.9069V28.6464H73.9091ZM48.3593 35.9736H44.0976C43.0511 35.9736 42.1998 36.8552 42.1998 37.9388V42.3513C42.1998 43.435 43.0511 44.3165 44.0976 44.3165H48.3593C49.4057 44.3165 50.2572 43.4348 50.2572 42.3513V37.9388C50.2572 36.8552 49.4057 35.9736 48.3593 35.9736ZM49.0384 42.3514C49.0384 42.7392 48.7337 43.0547 48.3593 43.0547H44.0976C43.7231 43.0547 43.4186 42.7392 43.4186 42.3514V37.9389C43.4186 37.5512 43.7231 37.2357 44.0976 37.2357H48.3593C48.7337 37.2357 49.0384 37.5512 49.0384 37.9389V42.3514ZM60.1274 35.9736H55.8658C54.8192 35.9736 53.9678 36.8552 53.9678 37.9388V42.3513C53.9678 43.435 54.8192 44.3165 55.8658 44.3165H60.1274C61.1738 44.3165 62.0253 43.4348 62.0253 42.3513V37.9388C62.0253 36.8552 61.1738 35.9736 60.1274 35.9736ZM60.8065 42.3514C60.8065 42.7392 60.5018 43.0547 60.1274 43.0547H55.8658C55.4912 43.0547 55.1865 42.7392 55.1865 42.3514V37.9389C55.1865 37.5512 55.4912 37.2357 55.8658 37.2357H60.1274C60.5018 37.2357 60.8065 37.5512 60.8065 37.9389V42.3514ZM71.8951 35.9736H67.6338C66.5872 35.9736 65.7357 36.8552 65.7357 37.9388V42.3513C65.7357 43.435 66.5872 44.3165 67.6338 44.3165H71.8951C72.9417 44.3165 73.7932 43.4348 73.7932 42.3513V37.9388C73.7932 36.8552 72.9417 35.9736 71.8951 35.9736ZM72.5745 42.3514C72.5745 42.7392 72.2698 43.0547 71.8951 43.0547H67.6338C67.2592 43.0547 66.9545 42.7392 66.9545 42.3514V37.9389C66.9545 37.5512 67.2592 37.2357 67.6338 37.2357H71.8951C72.2698 37.2357 72.5745 37.5512 72.5745 37.9389V42.3514ZM48.3593 48.159H44.0976C43.0511 48.159 42.1998 49.0407 42.1998 50.1242V54.5367C42.1998 55.6204 43.0511 56.5019 44.0976 56.5019H48.3593C49.4057 56.5019 50.2572 55.6203 50.2572 54.5367V50.1242C50.2572 49.0407 49.4057 48.159 48.3593 48.159ZM49.0384 54.5369C49.0384 54.9246 48.7337 55.2401 48.3593 55.2401H44.0976C43.7231 55.2401 43.4186 54.9246 43.4186 54.5369V50.1244C43.4186 49.7366 43.7231 49.4212 44.0976 49.4212H48.3593C48.7337 49.4212 49.0384 49.7366 49.0384 50.1244V54.5369ZM48.3593 60.3443H44.0976C43.0511 60.3443 42.1998 61.226 42.1998 62.3095V66.722C42.1998 67.8058 43.0511 68.6872 44.0976 68.6872H48.3593C49.4057 68.6872 50.2572 67.8056 50.2572 66.722V62.3095C50.2572 61.226 49.4057 60.3443 48.3593 60.3443ZM49.0384 66.7222C49.0384 67.1099 48.7337 67.4254 48.3593 67.4254H44.0976C43.7231 67.4254 43.4186 67.1099 43.4186 66.7222V62.3097C43.4186 61.922 43.7231 61.6065 44.0976 61.6065H48.3593C48.7337 61.6065 49.0384 61.922 49.0384 62.3097V66.7222ZM60.1274 48.159H55.8658C54.8192 48.159 53.9678 49.0407 53.9678 50.1242V54.5367C53.9678 55.6204 54.8192 56.5019 55.8658 56.5019H60.1274C61.1738 56.5019 62.0253 55.6203 62.0253 54.5367V50.1242C62.0253 49.0407 61.1738 48.159 60.1274 48.159ZM60.8065 54.5369C60.8065 54.9246 60.5018 55.2401 60.1274 55.2401H55.8658C55.4912 55.2401 55.1865 54.9246 55.1865 54.5369V50.1244C55.1865 49.7366 55.4912 49.4212 55.8658 49.4212H60.1274C60.5018 49.4212 60.8065 49.7366 60.8065 50.1244V54.5369ZM71.8951 48.1584H67.6338C66.5872 48.1584 65.7357 49.04 65.7357 50.1238V66.7216C65.7357 67.8053 66.5872 68.6868 67.6338 68.6868H71.8951C72.9417 68.6868 73.7932 67.8051 73.7932 66.7216V50.1238C73.7932 49.04 72.9417 48.1584 71.8951 48.1584ZM72.5745 66.7216C72.5745 67.1093 72.2698 67.4248 71.8951 67.4248H67.6338C67.2592 67.4248 66.9545 67.1093 66.9545 66.7216V50.1238C66.9545 49.736 67.2592 49.4204 67.6338 49.4204H71.8951C72.2698 49.4204 72.5745 49.7359 72.5745 50.1238V66.7216ZM60.1274 60.3443H55.8658C54.8192 60.3443 53.9678 61.226 53.9678 62.3095V66.722C53.9678 67.8058 54.8192 68.6872 55.8658 68.6872H60.1274C61.1738 68.6872 62.0253 67.8056 62.0253 66.722V62.3095C62.0253 61.226 61.1738 60.3443 60.1274 60.3443ZM60.8065 66.7222C60.8065 67.1099 60.5018 67.4254 60.1274 67.4254H55.8658C55.4912 67.4254 55.1865 67.1099 55.1865 66.7222V62.3097C55.1865 61.922 55.4912 61.6065 55.8658 61.6065H60.1274C60.5018 61.6065 60.8065 61.922 60.8065 62.3097V66.7222ZM33.5489 29.4545C33.5444 29.4184 33.5362 29.3835 33.5259 29.3493C33.5231 29.3403 33.5202 29.3316 33.5172 29.3228C33.4925 29.2518 33.4559 29.1862 33.4089 29.1286C33.4029 29.1214 33.397 29.1141 33.3907 29.107C33.3674 29.0808 33.3424 29.056 33.3147 29.0343C33.3107 29.031 33.3062 29.0286 33.3021 29.0254C33.2852 29.0127 33.2678 29 33.2494 28.989L29.3812 26.6766V19.6009C29.3812 19.5786 29.3791 19.5565 29.3771 19.5348C29.3765 19.5299 29.3766 19.5248 29.376 19.5199C29.3716 19.4838 29.3634 19.449 29.353 19.4147C29.3503 19.4057 29.3474 19.3971 29.3443 19.3882C29.3196 19.3172 29.2831 19.2516 29.236 19.194C29.2301 19.1868 29.2241 19.1795 29.2179 19.1726C29.1946 19.1464 29.1696 19.1216 29.1419 19.0997C29.1379 19.0964 29.1333 19.094 29.1294 19.091C29.1123 19.0781 29.0949 19.0655 29.0765 19.0544L15.7454 11.0846C15.5568 10.9718 15.3246 10.9718 15.136 11.0846L1.80469 19.0543C1.78625 19.0653 1.76919 19.0779 1.75213 19.0907C1.74786 19.0939 1.74329 19.0964 1.73933 19.0995C1.71161 19.1215 1.68662 19.1462 1.66331 19.1723C1.65707 19.1792 1.65112 19.1865 1.64518 19.1939C1.59811 19.2515 1.56155 19.3171 1.53687 19.3881C1.53382 19.3969 1.53093 19.4056 1.52818 19.4146C1.51782 19.4488 1.5096 19.4837 1.50518 19.5198C1.50457 19.5247 1.50472 19.5296 1.50411 19.5345C1.50213 19.5564 1.5 19.5783 1.5 19.6007V35.5404C1.5 35.7658 1.61624 35.9742 1.80469 36.0868L5.6727 38.3992V45.4751C5.6727 45.7005 5.78893 45.9089 5.97738 46.0216L7.96669 47.2108L5.11816 48.9135C5.09973 48.9246 5.08252 48.9372 5.06545 48.95C5.06134 48.9531 5.05677 48.9555 5.05281 48.9588C5.02508 48.9807 5.0001 49.0055 4.97679 49.0315C4.97054 49.0385 4.9646 49.0457 4.95866 49.053C4.91159 49.1106 4.87502 49.1762 4.85034 49.2472C4.8473 49.256 4.8444 49.2647 4.84166 49.2737C4.8313 49.3079 4.82307 49.3428 4.81866 49.3789C4.81805 49.3838 4.8182 49.3885 4.81759 49.3934C4.81546 49.4155 4.81348 49.4374 4.81348 49.4598V65.3993C4.81348 65.6247 4.92971 65.8331 5.11816 65.9458L18.4496 73.9154C18.4679 73.9263 18.4869 73.9353 18.506 73.9443C18.5109 73.9465 18.5153 73.9494 18.5203 73.9514C18.5524 73.9653 18.5855 73.9752 18.619 73.9833C18.628 73.9853 18.6368 73.9871 18.6461 73.9888C18.6818 73.9954 18.718 74 18.7543 74C18.7906 74 18.8268 73.9954 18.8625 73.9888C18.8718 73.9871 18.8806 73.9853 18.8896 73.9833C18.9233 73.9754 18.9563 73.9653 18.9883 73.9514C18.9933 73.9494 18.9979 73.9464 19.0026 73.9442C19.0217 73.9353 19.0407 73.9263 19.059 73.9154L32.3901 65.9456C32.5786 65.833 32.6948 65.6246 32.6948 65.3992V49.46C32.6948 49.4376 32.6927 49.4158 32.6907 49.3939C32.6901 49.389 32.6902 49.3839 32.6896 49.379C32.6852 49.3431 32.677 49.3082 32.6666 49.274C32.6639 49.265 32.661 49.2563 32.658 49.2475C32.6333 49.1765 32.5969 49.1109 32.5498 49.0534C32.5437 49.046 32.5378 49.0388 32.5315 49.0317C32.508 49.0056 32.4834 48.981 32.4556 48.9591C32.4512 48.9556 32.4463 48.953 32.4419 48.9497C32.4253 48.937 32.4083 48.9246 32.3901 48.9137L30.401 47.7244L33.2494 46.0216C33.4378 45.9089 33.554 45.7005 33.554 45.4751V29.5354C33.554 29.5132 33.5519 29.4911 33.5499 29.4693C33.5493 29.4643 33.5495 29.4594 33.5489 29.4545ZM6.89145 39.1279L15.136 44.0567C15.1543 44.0675 15.1733 44.0765 15.1925 44.0854C15.1972 44.0877 15.2018 44.0904 15.2065 44.0926C15.2387 44.1065 15.272 44.1164 15.3054 44.1245C15.3145 44.1265 15.3234 44.1283 15.3325 44.13C15.3683 44.1366 15.4044 44.1414 15.4407 44.1414C15.4769 44.1414 15.513 44.1368 15.5488 44.13C15.558 44.1283 15.5668 44.1267 15.576 44.1245C15.6095 44.1166 15.6427 44.1065 15.6748 44.0926C15.6795 44.0904 15.6841 44.0876 15.689 44.0854C15.708 44.0765 15.7271 44.0675 15.7454 44.0567L19.004 42.1086V52.3521L6.89145 45.1107V39.1279ZM13.5557 53.9575C13.5498 53.961 13.5454 53.9658 13.5397 53.9695C13.5286 53.9766 13.5176 53.9837 13.507 53.9916C13.4959 53.9998 13.4852 54.0089 13.4745 54.0179C13.4639 54.0272 13.453 54.0364 13.443 54.0461C13.4343 54.0545 13.4264 54.063 13.4182 54.072C13.4089 54.0821 13.4003 54.0928 13.3916 54.1037C13.3825 54.1151 13.3737 54.1263 13.3653 54.1381C13.3577 54.1491 13.351 54.1607 13.344 54.1722C13.3406 54.178 13.3359 54.1824 13.3327 54.1884C13.3295 54.1944 13.3278 54.2007 13.3248 54.2067C13.3185 54.2186 13.3126 54.2302 13.3073 54.2424C13.3013 54.2558 13.2963 54.2697 13.2913 54.2835C13.2865 54.2968 13.282 54.3099 13.2782 54.3231C13.2748 54.3347 13.2716 54.3462 13.2689 54.358C13.2657 54.372 13.2634 54.3864 13.2611 54.4008C13.2587 54.4149 13.2564 54.429 13.2551 54.4433C13.2539 54.4564 13.2533 54.4695 13.253 54.4828C13.2527 54.4899 13.2509 54.4965 13.2509 54.5038V57.576L11.19 56.3439V52.9074L14.3427 51.0226L16.4036 52.2548L13.5557 53.9575ZM22.6595 16.6751L10.2421 24.0984C10.236 24.102 10.2316 24.1069 10.2256 24.1107C10.2147 24.1178 10.2037 24.1249 10.1932 24.1326C10.1822 24.1408 10.1719 24.1497 10.1614 24.1586C10.1504 24.1679 10.1396 24.1773 10.1292 24.1874C10.1207 24.1957 10.1126 24.2042 10.1044 24.2132C10.0952 24.2233 10.0867 24.2339 10.0782 24.2446C10.069 24.256 10.06 24.2673 10.0517 24.2793C10.044 24.2904 10.0372 24.3019 10.0303 24.3134C10.0268 24.3192 10.0223 24.3236 10.0191 24.3296C10.0159 24.3356 10.0143 24.3419 10.011 24.3479C10.005 24.3598 9.9988 24.3714 9.99347 24.3837C9.98753 24.3972 9.9828 24.411 9.97762 24.4249C9.9729 24.438 9.96803 24.4511 9.96422 24.4645C9.96102 24.476 9.95797 24.4875 9.95523 24.4994C9.95203 24.5134 9.94959 24.5278 9.94716 24.5421C9.94487 24.5563 9.94274 24.5704 9.94121 24.5847C9.94 24.5978 9.93969 24.6109 9.93908 24.6242C9.93893 24.6313 9.9371 24.6379 9.9371 24.645V27.7171L7.8762 26.4849V23.0484L20.5981 15.443L22.6595 16.6751ZM27.5532 19.6007L15.4407 26.8419L11.7655 24.6448L23.8781 17.4036L27.5532 19.6007ZM29.3813 30.937V28.1337L31.7261 29.5354L29.3813 30.937ZM28.1626 35.176L16.05 42.4172V27.9348L28.1626 20.6936V35.176ZM7.26682 21.9557L3.32812 19.6009L15.4407 12.3595L19.3795 14.7143L7.26682 21.9557ZM2.71875 20.6937L6.6576 23.0487V26.8493C6.6576 27.0748 6.77384 27.2831 6.96229 27.3958L10.2419 29.3566C10.3362 29.4129 10.4415 29.4411 10.5466 29.4411C10.6517 29.4411 10.757 29.4129 10.8513 29.3566C11.0398 29.2439 11.156 29.0355 11.156 28.8101V25.738L14.8311 27.9349V42.4174L2.71875 35.176V20.6937ZM13.1241 50.294L10.5808 51.8146L6.6416 49.46L9.18529 47.9393L13.1241 50.294ZM6.03223 50.5528L9.97123 52.9075V56.7081C9.97123 56.9335 10.0875 57.1419 10.2759 57.2546L13.5556 59.2153C13.6499 59.2717 13.7551 59.2999 13.8603 59.2999C13.9654 59.2999 14.0706 59.2717 14.1649 59.2153C14.3534 59.1026 14.4696 58.8943 14.4696 58.6689V55.5968L18.1448 57.7939V72.2765L6.03223 65.0352V50.5528ZM19.3637 72.2765V57.7939L31.4761 50.5527V65.0351L19.3637 72.2765ZM18.7543 56.7012L15.0789 54.5039L17.6225 52.9832L19.3085 53.9912C19.3268 54.0021 19.3459 54.0111 19.3649 54.02C19.3698 54.0223 19.3742 54.025 19.3792 54.0272C19.4114 54.0411 19.4444 54.051 19.4779 54.0589C19.4869 54.0611 19.4958 54.0627 19.5051 54.0644C19.5407 54.0712 19.577 54.0758 19.6132 54.0758C19.6495 54.0758 19.6857 54.0712 19.7214 54.0644C19.7307 54.0627 19.7395 54.0611 19.7485 54.0589C19.7822 54.051 19.8152 54.0411 19.8472 54.0272C19.8522 54.025 19.8568 54.0222 19.8615 54.02C19.8806 54.0111 19.8996 54.0021 19.9179 53.9912L29.1822 48.4529L30.8667 49.46L18.7543 56.7012ZM20.2226 52.3519V41.3799L29.0765 36.0867C29.265 35.974 29.3812 35.7656 29.3812 35.5402V32.3941L32.3353 30.6282V45.1106L20.2226 52.3519Z" fill="url(#paint0_linear_4061_14624)" stroke="url(#paint1_linear_4061_14624)" stroke-width="1.5"/>
</g>
<defs>
<linearGradient id="paint0_linear_4061_14624" x1="42.0195" y1="-1.91377" x2="40.8337" y2="88.909" gradientUnits="userSpaceOnUse">
<stop stop-color="#81319B"/>
<stop offset="0.5" stop-color="#00A99D"/>
<stop offset="1" stop-color="#0B2C4C"/>
</linearGradient>
<linearGradient id="paint1_linear_4061_14624" x1="40.5" y1="11" x2="40.5" y2="74" gradientUnits="userSpaceOnUse">
<stop stop-color="#81319B"/>
<stop offset="0.5" stop-color="#00A99D"/>
<stop offset="1" stop-color="#0B2C4C"/>
</linearGradient>
<clipPath id="clip0_4061_14624">
<rect width="80" height="80" fill="white" transform="translate(0.5)"/>
</clipPath>
</defs>
</svg>
