<svg width="91" height="90" viewBox="0 0 91 90" fill="none" xmlns="http://www.w3.org/2000/svg">
<g clip-path="url(#clip0_1470_15424)">
<path d="M65.1863 34.0901H18.8298C18.4498 34.083 18.0825 34.2298 17.8116 34.4971C17.5414 34.7644 17.3897 35.1296 17.3911 35.5097V81.1081C17.3911 83.5466 18.2427 85.81 19.8013 87.4487C21.3357 89.081 23.4778 90.0042 25.7178 89.9992H58.2977C60.532 90.0035 62.6677 89.0796 64.1936 87.4487C65.7522 85.8086 66.5839 83.5459 66.5839 81.1081V35.5097C66.5953 35.1331 66.452 34.7694 66.1882 34.5014C65.9245 34.2333 65.5621 34.0851 65.1863 34.0901ZM63.6795 81.1081C63.6795 84.5011 61.3963 87.0949 58.2977 87.0949H25.7178C22.6191 87.0949 20.2955 84.5011 20.2955 81.1081V36.9945H63.6795V81.1081Z" fill="url(#paint0_linear_1470_15424)"/>
<path d="M52.2432 79.1523C53.0452 79.1523 53.6954 78.5021 53.6954 77.7001V43.4327C53.6954 42.6307 53.0452 41.9805 52.2432 41.9805C51.4412 41.9805 50.791 42.6307 50.791 43.4327V77.7001C50.791 78.5021 51.4412 79.1523 52.2432 79.1523Z" fill="url(#paint1_linear_1470_15424)"/>
<path d="M31.731 79.1523C32.533 79.1523 33.1832 78.5021 33.1832 77.7001V43.4327C33.1832 42.6307 32.533 41.9805 31.731 41.9805C30.929 41.9805 30.2788 42.6307 30.2788 43.4327V77.7001C30.2788 78.5021 30.929 79.1523 31.731 79.1523Z" fill="url(#paint2_linear_1470_15424)"/>
<path d="M70.5011 15.5785L62.0291 13.7228L62.558 11.3063C63.3401 7.73611 61.0796 4.20775 57.5087 3.42564L42.5713 0.154677C39.0012 -0.627433 35.4728 1.6331 34.6914 5.204L34.1617 7.62053L25.6897 5.76559C22.1188 4.98277 18.5904 7.24401 17.8083 10.8142L15.7456 20.2343C15.574 21.0178 16.0697 21.7921 16.8532 21.9637L71.7576 33.9868C72.1341 34.0697 72.5276 33.9995 72.8517 33.7918C73.1764 33.584 73.4048 33.2557 73.487 32.8799L75.5511 23.4591C76.3325 19.8889 74.072 16.3606 70.5018 15.5785H70.5011ZM37.5284 5.82515C37.9666 3.8213 39.9471 2.55277 41.9509 2.99169L56.8883 6.26265C58.8921 6.70157 60.1607 8.6813 59.7217 10.6852L59.1928 13.1017L36.9987 8.24168L37.5284 5.82515ZM72.7134 22.838L70.9613 30.8392L18.8939 19.4373L20.646 11.4361C21.0842 9.43222 23.0647 8.16368 25.0685 8.6026L69.8799 18.4155C71.8838 18.8544 73.1523 20.8341 72.7134 22.838Z" fill="url(#paint3_linear_1470_15424)"/>
<path d="M42.0779 79.1523C42.8799 79.1523 43.5301 78.5021 43.5301 77.7001V43.4327C43.5301 42.6307 42.8799 41.9805 42.0779 41.9805C41.276 41.9805 40.6257 42.6307 40.6257 43.4327V77.7001C40.6257 78.5021 41.276 79.1523 42.0779 79.1523Z" fill="url(#paint4_linear_1470_15424)"/>
</g>
<defs>
<linearGradient id="paint0_linear_1470_15424" x1="41.9878" y1="3.91506" x2="41.9878" y2="87.287" gradientUnits="userSpaceOnUse">
<stop stop-color="#81319B"/>
<stop offset="0.43" stop-color="#00A99D"/>
<stop offset="0.995" stop-color="#0B2C4C"/>
</linearGradient>
<linearGradient id="paint1_linear_1470_15424" x1="52.2434" y1="3.91698" x2="52.2434" y2="87.2889" gradientUnits="userSpaceOnUse">
<stop stop-color="#81319B"/>
<stop offset="0.465" stop-color="#00A99D"/>
<stop offset="1" stop-color="#0B2C4C"/>
</linearGradient>
<linearGradient id="paint2_linear_1470_15424" x1="31.7312" y1="3.91698" x2="31.7312" y2="87.2889" gradientUnits="userSpaceOnUse">
<stop stop-color="#81319B"/>
<stop offset="0.465" stop-color="#00A99D"/>
<stop offset="1" stop-color="#0B2C4C"/>
</linearGradient>
<linearGradient id="paint3_linear_1470_15424" x1="45.7091" y1="3.91739" x2="45.7091" y2="87.2894" gradientUnits="userSpaceOnUse">
<stop stop-color="#81319B"/>
<stop offset="0.495" stop-color="#00A99D"/>
<stop offset="1" stop-color="#0B2C4C"/>
</linearGradient>
<linearGradient id="paint4_linear_1470_15424" x1="42.0782" y1="3.91698" x2="42.0782" y2="87.2889" gradientUnits="userSpaceOnUse">
<stop stop-color="#81319B"/>
<stop offset="0.465" stop-color="#00A99D"/>
<stop offset="1" stop-color="#0B2C4C"/>
</linearGradient>
<clipPath id="clip0_1470_15424">
<rect width="90" height="90" fill="white" transform="translate(0.5)"/>
</clipPath>
</defs>
</svg>
