<svg width="236" height="236" viewBox="0 0 236 236" fill="none" xmlns="http://www.w3.org/2000/svg">
<g clip-path="url(#clip0_954_54024)">
<path d="M169.619 89.3942H48.0617C47.0651 89.3756 46.102 89.7605 45.3917 90.4615C44.6833 91.1624 44.2854 92.12 44.2891 93.1166V212.686C44.2891 219.08 46.5222 225.015 50.609 229.312C54.6327 233.593 60.2498 236.013 66.1235 236H151.555C157.414 236.012 163.014 233.589 167.016 229.312C171.102 225.012 173.284 219.078 173.284 212.686V93.1166C173.313 92.1293 172.938 91.1755 172.246 90.4726C171.554 89.7698 170.604 89.3812 169.619 89.3942ZM165.668 212.686C165.668 221.583 159.68 228.384 151.555 228.384H66.1235C57.9981 228.384 51.905 221.583 51.905 212.686V97.0101H165.668V212.686Z" fill="url(#paint0_linear_954_54024)"/>
<path d="M135.683 207.552C137.786 207.552 139.491 205.847 139.491 203.744V113.887C139.491 111.784 137.786 110.079 135.683 110.079C133.58 110.079 131.875 111.784 131.875 113.887V203.744C131.875 205.847 133.58 207.552 135.683 207.552Z" fill="url(#paint1_linear_954_54024)"/>
<path d="M81.8939 207.552C83.9968 207.552 85.7018 205.847 85.7018 203.744V113.887C85.7018 111.784 83.9968 110.079 81.8939 110.079C79.791 110.079 78.0859 111.784 78.0859 113.887V203.744C78.0859 205.847 79.791 207.552 81.8939 207.552Z" fill="url(#paint2_linear_954_54024)"/>
<path d="M183.561 40.8463L161.345 35.9804L162.732 29.6437C164.783 20.2819 158.855 11.0297 149.492 8.97888L110.323 0.40169C100.961 -1.64918 91.7087 4.27844 89.6597 13.6421L88.2707 19.9788L66.0552 15.1147C56.6915 13.062 47.4394 18.9915 45.3885 28.3533L39.9797 53.0548C39.5297 55.1094 40.8294 57.1398 42.884 57.5898L186.855 89.117C187.843 89.3345 188.875 89.1504 189.724 88.6057C190.576 88.0609 191.175 87.2 191.39 86.2145L196.803 61.5112C198.852 52.1493 192.924 42.8972 183.563 40.8463H183.561ZM97.0989 15.2709C98.248 10.0164 103.441 6.69002 108.696 7.84096L147.865 16.4182C153.119 17.5691 156.446 22.7604 155.295 28.0149L153.908 34.3516L95.71 21.6076L97.0989 15.2709ZM189.362 59.8824L184.767 80.8633L48.2352 50.9649L52.8296 29.984C53.9787 24.7295 59.1719 21.4031 64.4264 22.554L181.932 48.2856C187.186 49.4365 190.513 54.6278 189.362 59.8824Z" fill="url(#paint3_linear_954_54024)"/>
<path d="M109.027 207.552C111.13 207.552 112.835 205.847 112.835 203.744V113.887C112.835 111.784 111.13 110.079 109.027 110.079C106.924 110.079 105.219 111.784 105.219 113.887V203.744C105.219 205.847 106.924 207.552 109.027 207.552Z" fill="url(#paint4_linear_954_54024)"/>
</g>
<defs>
<linearGradient id="paint0_linear_954_54024" x1="108.787" y1="10.2686" x2="108.787" y2="228.888" gradientUnits="userSpaceOnUse">
<stop stop-color="#81319B"/>
<stop offset="0.43" stop-color="#00A99D"/>
<stop offset="0.995" stop-color="#0B2C4C"/>
</linearGradient>
<linearGradient id="paint1_linear_954_54024" x1="135.684" y1="10.2682" x2="135.684" y2="228.888" gradientUnits="userSpaceOnUse">
<stop stop-color="#81319B"/>
<stop offset="0.465" stop-color="#00A99D"/>
<stop offset="1" stop-color="#0B2C4C"/>
</linearGradient>
<linearGradient id="paint2_linear_954_54024" x1="81.8945" y1="10.2682" x2="81.8945" y2="228.888" gradientUnits="userSpaceOnUse">
<stop stop-color="#81319B"/>
<stop offset="0.465" stop-color="#00A99D"/>
<stop offset="1" stop-color="#0B2C4C"/>
</linearGradient>
<linearGradient id="paint3_linear_954_54024" x1="118.55" y1="10.2684" x2="118.55" y2="228.888" gradientUnits="userSpaceOnUse">
<stop stop-color="#81319B"/>
<stop offset="0.495" stop-color="#00A99D"/>
<stop offset="1" stop-color="#0B2C4C"/>
</linearGradient>
<linearGradient id="paint4_linear_954_54024" x1="109.027" y1="10.2682" x2="109.027" y2="228.888" gradientUnits="userSpaceOnUse">
<stop stop-color="#81319B"/>
<stop offset="0.465" stop-color="#00A99D"/>
<stop offset="1" stop-color="#0B2C4C"/>
</linearGradient>
<clipPath id="clip0_954_54024">
<rect width="236" height="236" fill="white"/>
</clipPath>
</defs>
</svg>
