<svg width="81" height="70" viewBox="0 0 81 70" fill="none" xmlns="http://www.w3.org/2000/svg">
<path d="M45.2227 2.70555C44.2348 1.01161 42.468 0 40.4993 0C38.5307 0 36.7673 1.01144 35.7796 2.70555L1.24565 61.8205C0.261406 63.511 0.250972 65.5375 1.21778 67.2385C2.1986 68.9676 3.97944 70 5.97239 70H75.0266C77.0196 70 78.8004 68.9676 79.7812 67.2385C80.7516 65.5375 80.7377 63.511 79.7499 61.8171L45.2227 2.70555ZM76.7655 65.4989C76.4073 66.1255 75.7604 66.4999 75.0264 66.4999H5.97239C5.24199 66.4999 4.59164 66.1253 4.23329 65.4989C4.06976 65.2084 3.74288 64.449 4.24372 63.5914L38.7743 4.47661C39.289 3.59461 40.1516 3.50011 40.4993 3.50011C40.8471 3.50011 41.7097 3.59461 42.228 4.48005L76.7517 63.5916C77.2525 64.4526 76.9291 65.212 76.7655 65.4989Z" fill="url(#paint0_linear_8606_50297)"/>
<path d="M40.4969 17.5C39.537 17.5 38.7578 18.2841 38.7578 19.2501V47.2501C38.7578 48.2161 39.537 49.0001 40.4969 49.0001C41.4569 49.0001 42.236 48.2161 42.236 47.2501V19.2501C42.2359 18.2841 41.4569 17.5 40.4969 17.5Z" fill="url(#paint1_linear_8606_50297)"/>
<path d="M40.4969 52.5C39.537 52.5 38.7578 53.2841 38.7578 54.2501V57.75C38.7578 58.716 39.537 59.5001 40.4969 59.5001C41.4569 59.5001 42.236 58.716 42.236 57.75V54.2501C42.2359 53.2841 41.4569 52.5 40.4969 52.5Z" fill="url(#paint2_linear_8606_50297)"/>
<defs>
<linearGradient id="paint0_linear_8606_50297" x1="46.3775" y1="0.00545504" x2="46.3775" y2="69.9943" gradientUnits="userSpaceOnUse">
<stop stop-color="#81319B"/>
<stop offset="0.49" stop-color="#00A99D"/>
<stop offset="1" stop-color="#0B2C4C"/>
</linearGradient>
<linearGradient id="paint1_linear_8606_50297" x1="48.6827" y1="0.498559" x2="47.338" y2="70.1585" gradientUnits="userSpaceOnUse">
<stop stop-color="#81319B"/>
<stop offset="0.48" stop-color="#00A99D"/>
<stop offset="1" stop-color="#0B2C4C"/>
</linearGradient>
<linearGradient id="paint2_linear_8606_50297" x1="42.5877" y1="0.169764" x2="42.5878" y2="69.9943" gradientUnits="userSpaceOnUse">
<stop stop-color="#81319B"/>
<stop offset="0.5" stop-color="#00A99D"/>
<stop offset="1" stop-color="#0B2C4C"/>
</linearGradient>
</defs>
</svg>
