<svg width="13" height="20" viewBox="0 0 13 20" fill="none" xmlns="http://www.w3.org/2000/svg">
<path fill-rule="evenodd" clip-rule="evenodd" d="M13.001 7.44097C13.001 8.39262 12.237 9.15661 11.2853 9.15661C10.8269 9.15661 10.3953 8.97969 10.0737 8.65533L8.21863 6.80029L8.21863 18.2844C8.21863 19.2306 7.44927 20 6.50299 20C5.5567 20 4.78467 19.2306 4.78467 18.2844L4.78467 6.80029L2.92963 8.65533C2.26214 9.3255 1.17378 9.3255 0.503605 8.65533C-0.166567 7.98515 -0.166567 6.89679 0.503605 6.2293L5.28863 1.44427C5.95613 0.774101 7.04717 0.774101 7.71466 1.44427L12.4997 6.2293C12.8241 6.55098 13.001 6.98258 13.001 7.44097Z" fill="#81319B"/>
</svg>
