<svg width="22" height="22" viewBox="0 0 22 22" fill="none" xmlns="http://www.w3.org/2000/svg">
<path fill-rule="evenodd" clip-rule="evenodd" d="M4 17.9998C4 17.7346 4.10536 17.4802 4.29289 17.2927C4.48043 17.1051 4.73478 16.9998 5 16.9998H17C17.2652 16.9998 17.5196 17.1051 17.7071 17.2927C17.8946 17.4802 18 17.7346 18 17.9998C18 18.265 17.8946 18.5194 17.7071 18.7069C17.5196 18.8944 17.2652 18.9998 17 18.9998H5C4.73478 18.9998 4.48043 18.8944 4.29289 18.7069C4.10536 18.5194 4 18.265 4 17.9998ZM7.293 7.70679C7.10553 7.51926 7.00021 7.26495 7.00021 6.99979C7.00021 6.73462 7.10553 6.48031 7.293 6.29279L10.293 3.29279C10.4805 3.10532 10.7348 3 11 3C11.2652 3 11.5195 3.10532 11.707 3.29279L14.707 6.29279C14.8892 6.48139 14.99 6.73399 14.9877 6.99619C14.9854 7.25838 14.8802 7.5092 14.6948 7.6946C14.5094 7.88001 14.2586 7.98518 13.9964 7.98746C13.7342 7.98974 13.4816 7.88894 13.293 7.70679L12 6.41379V13.9998C12 14.265 11.8946 14.5194 11.7071 14.7069C11.5196 14.8944 11.2652 14.9998 11 14.9998C10.7348 14.9998 10.4804 14.8944 10.2929 14.7069C10.1054 14.5194 10 14.265 10 13.9998V6.41379L8.707 7.70679C8.51947 7.89426 8.26516 7.99957 8 7.99957C7.73484 7.99957 7.48053 7.89426 7.293 7.70679Z" fill="#0B2C4C"/>
</svg>
