<svg width="53" height="53" viewBox="0 0 53 53" fill="none" xmlns="http://www.w3.org/2000/svg">
<path d="M11.9728 10.164L13.6714 10.353L12.7328 18.8065H10.4965L8.86209 13.904C8.77233 13.6338 8.32354 13.6338 8.23378 13.904L6.60019 18.8065H4.36394L3.42447 10.3521L5.12303 10.1632L5.76245 15.912L6.61216 13.3628C6.89083 12.5277 7.66874 11.9677 8.54836 11.9677C9.42799 11.9677 10.2059 12.5277 10.4846 13.3628L11.3343 15.912L11.9728 10.164ZM22.4471 15.912L21.5974 13.3628C21.3188 12.5277 20.5409 11.9677 19.6612 11.9677C18.7816 11.9677 18.0037 12.5277 17.725 13.3628L16.8753 15.912L16.2359 10.1632L14.5373 10.3521L15.4768 18.8065H17.7131L19.3475 13.904C19.4373 13.6338 19.8861 13.6338 19.9758 13.904L21.6094 18.8065H23.8457L24.7851 10.3521L23.0866 10.1632L22.4471 15.912ZM52.9998 41.0323C52.9998 42.918 51.4663 44.4516 49.5805 44.4516H27.3112C26.8778 49.237 22.8481 53 17.9516 53H9.4032C4.21862 53 0 48.7814 0 43.5968C0 38.4122 4.21862 34.1936 9.4032 34.1936H17.9516C22.8481 34.1936 26.8778 37.9566 27.3112 42.7419H49.5805C50.5234 42.7419 51.2902 41.9751 51.2902 41.0323C51.2902 40.0894 50.5234 39.3226 49.5805 39.3226H32.4838C30.598 39.3226 29.0644 37.789 29.0644 35.9032C29.0644 34.0175 30.598 32.4839 32.4838 32.4839H35.9031C36.846 32.4839 37.6128 31.7171 37.6128 30.7742V29.0363C32.9462 28.7576 28.649 26.2145 26.152 22.2258H4.27418C1.9174 22.2258 0 20.3084 0 17.9516V11.1129C0 8.75611 1.9174 6.83871 4.27418 6.83871H26.152C28.8063 2.59016 33.3839 0.0495806 38.3727 0.00598387C38.4052 0.00512903 38.436 0 38.4676 0C38.501 0 38.5326 0.00854839 38.5651 0.00940323C38.7959 0.0102581 39.0267 0.00940323 39.2584 0.021371C46.6117 0.412887 52.64 6.48139 52.9836 13.8373C53.1708 17.8542 51.7501 21.6642 48.9813 24.5646C46.4108 27.2582 43.0051 28.8106 39.3225 29.0218V30.7742C39.3225 32.66 37.7889 34.1936 35.9031 34.1936H32.4838C31.5409 34.1936 30.7741 34.9603 30.7741 35.9032C30.7741 36.8461 31.5409 37.6129 32.4838 37.6129H49.5805C51.4663 37.6129 52.9998 39.1465 52.9998 41.0323ZM38.4676 27.3548C40.3756 27.3548 42.1041 25.3143 43.2085 22.2258H33.7216C34.8653 25.4152 36.6323 27.3548 38.4676 27.3548ZM47.7452 23.3833C48.0965 23.0148 48.4162 22.625 48.718 22.2258H45.0191C44.4549 23.9611 43.7086 25.452 42.817 26.588C44.6609 25.9247 46.3449 24.8502 47.7452 23.3833ZM49.7745 8.54839H45.4969C45.8645 10.1213 46.0859 11.8489 46.1398 13.6774H51.2534C51.1312 11.8412 50.6097 10.1042 49.7745 8.54839ZM46.1389 15.3871C46.0851 17.2156 45.8637 18.9432 45.4961 20.5161H49.801C50.6388 18.9364 51.138 17.2002 51.256 15.3871H46.1389ZM42.8264 2.49015C43.7138 3.62452 44.4566 5.10937 45.0191 6.83871H48.6718C47.1852 4.88113 45.1618 3.35011 42.8264 2.49015ZM33.7216 6.83871H43.2094C42.1161 3.78095 40.4098 1.75498 38.524 1.71566C38.4873 1.71566 38.4497 1.7131 38.4129 1.7131C36.5964 1.75242 34.8542 3.68094 33.7216 6.83871ZM34.0917 26.5701C33.2249 25.4537 32.4846 23.9851 31.9153 22.2258H29.0644V20.5161H43.7326C44.1275 18.9595 44.3703 17.2182 44.4301 15.3871H35.3381L34.9585 18.8065H32.7223L31.0878 13.904C30.9981 13.6338 30.5493 13.6338 30.4595 13.904L28.8259 18.8065H26.5897L25.6502 10.3521L27.3488 10.1632L27.9882 15.912L28.8379 13.3628C29.1166 12.5277 29.8945 11.9677 30.7741 11.9677C31.6537 11.9677 32.4316 12.5277 32.7103 13.3628L33.56 15.912L34.1994 10.1632L35.898 10.3521L35.5287 13.6774H44.431C44.3711 11.8464 44.1284 10.105 43.7334 8.54839H29.0644V6.83871H31.9162C32.488 5.0709 33.2326 3.59545 34.1054 2.47732C31.3229 3.48603 28.9234 5.4496 27.3744 8.12182L27.1274 8.54839H4.27418C2.86028 8.54839 1.70967 9.699 1.70967 11.1129V17.9516C1.70967 19.3655 2.86028 20.5161 4.27418 20.5161H27.1274L27.3744 20.9427C28.9046 23.5833 31.3092 25.5503 34.0917 26.5701ZM25.6451 43.5968C25.6451 43.1249 25.2613 42.7419 24.7902 42.7419H19.6612C19.1902 42.7419 18.8064 43.1249 18.8064 43.5968C18.8064 44.0686 19.1902 44.4516 19.6612 44.4516H24.7902C25.2613 44.4516 25.6451 44.0686 25.6451 43.5968ZM9.4032 51.2903H13.6774V35.9032H9.4032C5.1615 35.9032 1.70967 39.3542 1.70967 43.5968C1.70967 47.8393 5.1615 51.2903 9.4032 51.2903ZM25.2117 46.1185C25.0741 46.1416 24.9347 46.1613 24.7902 46.1613H19.6612C18.2473 46.1613 17.0967 45.0107 17.0967 43.5968C17.0967 42.1829 18.2473 41.0323 19.6612 41.0323H24.7902C24.9347 41.0323 25.0741 41.0519 25.2117 41.075C24.1645 38.0694 21.3094 35.9032 17.9516 35.9032H15.3871V51.2903H17.9516C21.3094 51.2903 24.1645 49.1242 25.2117 46.1185ZM7.69353 32.4839C6.27963 32.4839 5.12902 31.3333 5.12902 29.9194C5.12902 28.5055 6.27963 27.3548 7.69353 27.3548C9.10742 27.3548 10.258 28.5055 10.258 29.9194C10.258 31.3333 9.10742 32.4839 7.69353 32.4839ZM7.69353 30.7742C8.16454 30.7742 8.54836 30.3912 8.54836 29.9194C8.54836 29.4475 8.16454 29.0645 7.69353 29.0645C7.22251 29.0645 6.83869 29.4475 6.83869 29.9194C6.83869 30.3912 7.22251 30.7742 7.69353 30.7742ZM14.5322 32.4839C13.1183 32.4839 11.9677 31.3333 11.9677 29.9194C11.9677 28.5055 13.1183 27.3548 14.5322 27.3548C15.9461 27.3548 17.0967 28.5055 17.0967 29.9194C17.0967 31.3333 15.9461 32.4839 14.5322 32.4839ZM14.5322 30.7742C15.0032 30.7742 15.3871 30.3912 15.3871 29.9194C15.3871 29.4475 15.0032 29.0645 14.5322 29.0645C14.0612 29.0645 13.6774 29.4475 13.6774 29.9194C13.6774 30.3912 14.0612 30.7742 14.5322 30.7742ZM21.3709 32.4839C19.957 32.4839 18.8064 31.3333 18.8064 29.9194C18.8064 28.5055 19.957 27.3548 21.3709 27.3548C22.7848 27.3548 23.9354 28.5055 23.9354 29.9194C23.9354 31.3333 22.7848 32.4839 21.3709 32.4839ZM21.3709 30.7742C21.8419 30.7742 22.2257 30.3912 22.2257 29.9194C22.2257 29.4475 21.8419 29.0645 21.3709 29.0645C20.8999 29.0645 20.5161 29.4475 20.5161 29.9194C20.5161 30.3912 20.8999 30.7742 21.3709 30.7742Z" fill="url(#paint0_linear_3077_13229)"/>
<defs>
<linearGradient id="paint0_linear_3077_13229" x1="26.5" y1="0" x2="26.5" y2="53" gradientUnits="userSpaceOnUse">
<stop stop-color="#81319B"/>
<stop offset="0.5" stop-color="#00A99D"/>
<stop offset="1" stop-color="#0B2C4C"/>
</linearGradient>
</defs>
</svg>
