<svg width="192" height="207" viewBox="0 0 192 207" fill="none" xmlns="http://www.w3.org/2000/svg">
<g clip-path="url(#clip0_954_47921)">
<path d="M0 169.053C0 142.843 8.14587 119.005 22.9336 101.933C33.1534 90.1344 46.0085 82.0662 60.2177 78.3146C39.9623 67.9609 31.8807 43.0448 42.1691 22.6566C52.4575 2.277 77.2165 -5.85587 97.4719 4.49779C117.727 14.8515 125.809 39.7675 115.521 60.1558C111.574 67.9781 105.258 74.3344 97.4848 78.3102C115.006 82.933 130.351 94.0973 141.239 110.488C142.143 110.436 143.056 110.406 143.973 110.406C170.48 110.389 191.979 131.997 191.996 158.673C192.013 185.348 170.54 206.983 144.033 207C130.008 207.009 116.686 200.847 107.559 190.131C98.1147 192.132 88.4905 193.162 78.8405 193.201C40.6951 193.201 3.35519 172.942 1.78258 172.08C0.685607 171.48 0 170.316 0 169.053ZM102.841 158.703C102.841 181.567 121.258 200.101 143.977 200.101C166.697 200.101 185.114 181.567 185.114 158.703C185.114 135.84 166.697 117.306 143.977 117.306C121.271 117.332 102.867 135.853 102.841 158.703ZM78.8448 75.9083C97.7761 75.9083 113.125 60.4619 113.125 41.4105C113.125 22.3591 97.7761 6.91264 78.8448 6.91264C59.9135 6.91264 44.5645 22.3591 44.5645 41.4105C44.5859 60.4533 59.9221 75.8868 78.8448 75.9083ZM6.87321 166.965C14.7406 170.959 47.0541 186.301 78.8448 186.301C86.9821 186.271 95.1023 185.495 103.098 183.977C89.2146 161.269 96.255 131.536 118.82 117.564C123.384 114.74 128.384 112.705 133.616 111.54C120.281 93.2133 100.574 82.8036 78.8448 82.8036C59.3393 82.8036 41.3164 91.2081 28.1013 106.46C14.792 121.829 7.28886 143.244 6.87321 166.957V166.965ZM170.798 145.003L146.956 132.994C145.974 132.424 145.199 132.541 144.423 132.994L120.573 145.003C119.428 145.667 119.004 146.551 119.004 147.517V173.257C119.004 174.395 119.686 175.426 120.731 175.866L144.582 186.146C145.289 186.448 146.086 186.448 146.793 186.146L170.643 175.866C171.676 175.413 172.34 174.391 172.336 173.257V147.517C172.336 146.18 171.487 145.404 170.793 145.003H170.798ZM142.855 179.234L124.635 171.394V151.808L142.855 159.691V179.234ZM145.67 154.736L128.508 147.336L145.67 138.694L162.862 147.336L145.67 154.736ZM166.71 171.394L148.49 179.234V159.708L166.71 151.842V171.394Z" fill="url(#paint0_linear_954_47921)"/>
</g>
<defs>
<linearGradient id="paint0_linear_954_47921" x1="96.0021" y1="207" x2="96.0021" y2="0.000137568" gradientUnits="userSpaceOnUse">
<stop stop-color="#0B2C4C"/>
<stop offset="0.5" stop-color="#00A99D"/>
<stop offset="1" stop-color="#81319B"/>
</linearGradient>
<clipPath id="clip0_954_47921">
<rect width="192" height="207" fill="white"/>
</clipPath>
</defs>
</svg>
