<svg width="17" height="16" viewBox="0 0 17 16" fill="none" xmlns="http://www.w3.org/2000/svg">
<path id="Vector" d="M8.5 0C4.084 0 0.5 3.584 0.5 8C0.5 12.416 4.084 16 8.5 16C12.916 16 16.5 12.416 16.5 8C16.5 3.584 12.916 0 8.5 0ZM8.5 2.4C9.828 2.4 10.9 3.472 10.9 4.8C10.9 6.128 9.828 7.2 8.5 7.2C7.172 7.2 6.1 6.128 6.1 4.8C6.1 3.472 7.172 2.4 8.5 2.4ZM8.5 13.76C6.5 13.76 4.732 12.736 3.7 11.184C3.724 9.592 6.9 8.72 8.5 8.72C10.092 8.72 13.276 9.592 13.3 11.184C12.268 12.736 10.5 13.76 8.5 13.76Z" fill="#0B2C4C"/>
</svg>
