<svg width="22" height="22" viewBox="0 0 22 22" fill="none" xmlns="http://www.w3.org/2000/svg">
<path d="M5.31776 18.3334C5.50633 18.3334 5.65938 18.1605 5.65938 17.9474V16.9995C5.65935 13.9041 8.11147 11.3861 11.1252 11.3861C14.1389 11.3861 16.591 13.9041 16.591 16.9995V17.9474C16.591 18.1605 16.744 18.3334 16.9326 18.3334C17.1212 18.3334 17.2742 18.1605 17.2742 17.9474V16.9995C17.2742 14.0855 15.383 11.6269 12.8093 10.8635C13.8383 10.1981 14.5413 8.95911 14.5413 7.5264C14.5413 5.3982 13.0088 3.66675 11.1252 3.66675C9.24152 3.66675 7.70903 5.3982 7.70903 7.5264C7.70903 8.95911 8.41207 10.1981 9.44101 10.8635C6.86732 11.6269 4.97614 14.0855 4.97614 16.9995V17.9474C4.97614 18.1605 5.12919 18.3334 5.31776 18.3334ZM8.39228 7.5264C8.39228 5.82354 9.61799 4.4387 11.1252 4.4387C12.6324 4.4387 13.8581 5.82354 13.8581 7.5264C13.8581 9.22927 12.6324 10.6141 11.1252 10.6141C9.61799 10.6141 8.39228 9.2293 8.39228 7.5264Z" fill="url(#paint0_linear_567_8396)"/>
<path d="M16.8864 10.8736C17.6263 10.3201 18.1169 9.37368 18.1169 8.2984C18.1169 6.59553 16.8912 5.21069 15.384 5.21069C15.1954 5.21069 15.0424 5.38362 15.0424 5.59667C15.0424 5.80972 15.1954 5.98265 15.384 5.98265C16.514 5.98265 17.4337 7.02167 17.4337 8.29843C17.4337 9.57519 16.514 10.6142 15.384 10.6142C15.1954 10.6142 15.0424 10.7871 15.0424 11.0002C15.0424 11.2132 15.1954 11.3861 15.384 11.3861C17.6448 11.3861 19.4833 13.3066 19.4833 15.6664V16.4036C19.4833 16.6167 19.6364 16.7896 19.825 16.7896C20.0135 16.7896 20.1666 16.6167 20.1666 16.4036V15.6664C20.1666 13.4356 18.7892 11.5405 16.8864 10.8736Z" fill="url(#paint1_linear_567_8396)"/>
<path d="M5.11348 10.8091C4.37355 10.2556 3.883 9.30923 3.883 8.23394C3.883 6.53108 5.10871 5.14624 6.61589 5.14624C6.80447 5.14624 6.95752 5.31916 6.95752 5.53222C6.95752 5.74527 6.80447 5.91819 6.61589 5.91819C5.48585 5.91819 4.56622 6.95722 4.56622 8.23398C4.56622 9.51074 5.48585 10.5498 6.61589 10.5498C6.80447 10.5498 6.95752 10.7227 6.95752 10.9357C6.95752 11.1488 6.80447 11.3216 6.61589 11.3216C4.3551 11.3216 2.51654 13.2422 2.51654 15.602V16.3392C2.51654 16.5522 2.36348 16.7251 2.17491 16.7251C1.98634 16.7251 1.83329 16.5522 1.83329 16.3392V15.602C1.83329 13.3711 3.21067 11.476 5.11348 10.8091Z" fill="url(#paint2_linear_567_8396)"/>
<defs>
<linearGradient id="paint0_linear_567_8396" x1="11.1252" y1="3.66675" x2="11.1252" y2="18.3334" gradientUnits="userSpaceOnUse">
<stop stop-color="#81319B"/>
<stop offset="0.48" stop-color="#00A99D"/>
<stop offset="1" stop-color="#0B2C4C"/>
</linearGradient>
<linearGradient id="paint1_linear_567_8396" x1="17.6045" y1="5.21069" x2="17.6045" y2="16.7896" gradientUnits="userSpaceOnUse">
<stop stop-color="#81319B"/>
<stop offset="0.48" stop-color="#00A99D"/>
<stop offset="1" stop-color="#0B2C4C"/>
</linearGradient>
<linearGradient id="paint2_linear_567_8396" x1="4.3954" y1="5.14624" x2="4.3954" y2="16.7251" gradientUnits="userSpaceOnUse">
<stop stop-color="#81319B"/>
<stop offset="0.48" stop-color="#00A99D"/>
<stop offset="1" stop-color="#0B2C4C"/>
</linearGradient>
</defs>
</svg>
