<svg width="22" height="22" viewBox="0 0 22 22" fill="none" xmlns="http://www.w3.org/2000/svg">
<path d="M5.48386 18.67C5.67237 18.67 5.82538 18.497 5.82538 18.2839V17.3358C5.82535 14.2397 8.27675 11.7211 11.2896 11.7211C14.3024 11.7211 16.7538 14.2397 16.7538 17.3358V18.2839C16.7538 18.497 16.9068 18.67 17.0953 18.67C17.2838 18.67 17.4368 18.497 17.4368 18.2839V17.3358C17.4368 14.4211 15.5462 11.962 12.9732 11.1983C14.0019 10.5328 14.7047 9.29357 14.7047 7.86053C14.7047 5.73184 13.1727 4 11.2896 4C9.40647 4 7.87443 5.73184 7.87443 7.86053C7.87443 9.29357 8.57726 10.5328 9.6059 11.1983C7.03296 11.962 5.14233 14.4211 5.14233 17.3358V18.2839C5.14233 18.497 5.29534 18.67 5.48386 18.67ZM8.55748 7.86053C8.55748 6.15728 9.78283 4.77213 11.2896 4.77213C12.7963 4.77213 14.0217 6.15728 14.0217 7.86053C14.0217 9.56378 12.7963 10.949 11.2896 10.949C9.78283 10.949 8.55748 9.56382 8.55748 7.86053Z" fill="white"/>
<path d="M17.0508 11.2086C17.7905 10.655 18.2809 9.70837 18.2809 8.63284C18.2809 6.92959 17.0555 5.54443 15.5488 5.54443C15.3603 5.54443 15.2073 5.7174 15.2073 5.9305C15.2073 6.1436 15.3603 6.31656 15.5488 6.31656C16.6785 6.31656 17.5979 7.35583 17.5979 8.63287C17.5979 9.90992 16.6785 10.9492 15.5488 10.9492C15.3603 10.9492 15.2073 11.1221 15.2073 11.3353C15.2073 11.5484 15.3603 11.7212 15.5488 11.7212C17.8089 11.7212 19.647 13.6422 19.647 16.0025V16.7399C19.647 16.953 19.8 17.126 19.9885 17.126C20.177 17.126 20.33 16.953 20.33 16.7399V16.0025C20.33 13.7712 18.953 11.8757 17.0508 11.2086Z" fill="white"/>
<path d="M5.27924 11.1439C4.53952 10.5903 4.04912 9.64367 4.04912 8.56814C4.04912 6.86489 5.27447 5.47974 6.78122 5.47974C6.96973 5.47974 7.12274 5.6527 7.12274 5.8658C7.12274 6.0789 6.96973 6.25186 6.78122 6.25186C5.6515 6.25186 4.73214 7.29113 4.73214 8.56818C4.73214 9.84522 5.6515 10.8845 6.78122 10.8845C6.96973 10.8845 7.12274 11.0575 7.12274 11.2706C7.12274 11.4837 6.96973 11.6565 6.78122 11.6565C4.52108 11.6565 2.68306 13.5775 2.68306 15.9378V16.6752C2.68306 16.8883 2.53005 17.0613 2.34153 17.0613C2.15302 17.0613 2.00001 16.8883 2.00001 16.6752V15.9378C2.00001 13.7065 3.37699 11.811 5.27924 11.1439Z" fill="white"/>
</svg>
