<svg width="18" height="13" viewBox="0 0 18 13" fill="none" xmlns="http://www.w3.org/2000/svg">
<path d="M10.6641 1.83317V0.166504H17.3307V1.83317H10.6641ZM10.6641 5.1665V3.49984H17.3307V5.1665H10.6641ZM10.6641 8.49984V6.83317H17.3307V8.49984H10.6641ZM5.66406 7.6665C4.96962 7.6665 4.37934 7.42345 3.89323 6.93734C3.40712 6.45123 3.16406 5.86095 3.16406 5.1665C3.16406 4.47206 3.40712 3.88178 3.89323 3.39567C4.37934 2.90956 4.96962 2.6665 5.66406 2.6665C6.35851 2.6665 6.94878 2.90956 7.4349 3.39567C7.92101 3.88178 8.16406 4.47206 8.16406 5.1665C8.16406 5.86095 7.92101 6.45123 7.4349 6.93734C6.94878 7.42345 6.35851 7.6665 5.66406 7.6665ZM0.664062 12.6665V11.0832C0.664062 10.7915 0.733507 10.5137 0.872396 10.2498C1.01128 9.98595 1.20573 9.77762 1.45573 9.62484C2.08073 9.24984 2.74392 8.96859 3.44531 8.78109C4.1467 8.59359 4.88628 8.49984 5.66406 8.49984C6.44184 8.49984 7.18142 8.59359 7.88281 8.78109C8.5842 8.96859 9.2474 9.24984 9.8724 9.62484C10.1224 9.77762 10.3168 9.98595 10.4557 10.2498C10.5946 10.5137 10.6641 10.7915 10.6641 11.0832V12.6665H0.664062Z" fill="#00A99D"/>
</svg>
