<svg xmlns="http://www.w3.org/2000/svg" width="26" height="26" viewBox="0 0 26 26" fill="none">
  <path d="M10.1147 18.625L17.6147 13L10.1147 7.375V18.625ZM12.6147 0.5C5.71475 0.5 0.114746 6.1 0.114746 13C0.114746 19.9 5.71475 25.5 12.6147 25.5C19.5147 25.5 25.1147 19.9 25.1147 13C25.1147 6.1 19.5147 0.5 12.6147 0.5ZM12.6147 23C7.10225 23 2.61475 18.5125 2.61475 13C2.61475 7.4875 7.10225 3 12.6147 3C18.1272 3 22.6147 7.4875 22.6147 13C22.6147 18.5125 18.1272 23 12.6147 23Z" fill="#0B2C4C"/>
</svg>