<svg width="34" height="37" viewBox="0 0 34 37" fill="none" xmlns="http://www.w3.org/2000/svg">
<rect y="2" width="34" height="35" rx="6" fill="white"/>
<path d="M6.96303 30L6.89103 29.844L9.24303 27.096C9.45103 26.848 9.64303 26.616 9.81903 26.4C10.003 26.176 10.159 25.96 10.287 25.752C10.423 25.544 10.527 25.34 10.599 25.14C10.679 24.94 10.719 24.732 10.719 24.516C10.719 24.092 10.583 23.768 10.311 23.544C10.039 23.32 9.65103 23.208 9.14703 23.208C8.76303 23.208 8.43903 23.252 8.17503 23.34C7.91103 23.428 7.65503 23.528 7.40703 23.64C7.34303 23.48 7.27903 23.316 7.21503 23.148C7.15903 22.98 7.12303 22.808 7.10703 22.632C7.38703 22.512 7.69503 22.4 8.03103 22.296C8.37503 22.192 8.77503 22.14 9.23103 22.14C9.63903 22.14 10.011 22.188 10.347 22.284C10.683 22.372 10.971 22.508 11.211 22.692C11.459 22.876 11.647 23.112 11.775 23.4C11.911 23.68 11.979 24.012 11.979 24.396C11.979 24.932 11.831 25.452 11.535 25.956C11.239 26.46 10.819 27.02 10.275 27.636L9.12303 28.944H12.303C12.319 29.032 12.331 29.12 12.339 29.208C12.347 29.296 12.351 29.388 12.351 29.484C12.351 29.572 12.347 29.66 12.339 29.748C12.331 29.836 12.319 29.92 12.303 30H6.96303ZM16.1143 29.82C16.4183 29.82 16.7023 29.788 16.9663 29.724C17.2383 29.66 17.4703 29.556 17.6623 29.412C17.8623 29.268 18.0183 29.084 18.1303 28.86C18.2503 28.628 18.3103 28.348 18.3103 28.02C18.3103 27.524 18.1463 27.156 17.8183 26.916C17.4903 26.676 17.0623 26.556 16.5343 26.556C16.3743 26.556 16.2103 26.564 16.0423 26.58C15.8823 26.588 15.7223 26.612 15.5623 26.652L15.4663 26.484L17.4703 23.328H14.3863C14.3543 23.168 14.3383 22.996 14.3383 22.812C14.3383 22.724 14.3423 22.632 14.3503 22.536C14.3583 22.44 14.3703 22.348 14.3863 22.26H19.2463L19.3303 22.404L17.1463 25.728C17.1703 25.72 17.1983 25.716 17.2303 25.716C17.2623 25.716 17.2943 25.716 17.3263 25.716C17.7023 25.716 18.0263 25.784 18.2983 25.92C18.5783 26.048 18.8063 26.22 18.9823 26.436C19.1663 26.644 19.3023 26.88 19.3903 27.144C19.4783 27.4 19.5223 27.656 19.5223 27.912C19.5223 28.424 19.4303 28.868 19.2463 29.244C19.0703 29.612 18.8303 29.916 18.5263 30.156C18.2223 30.404 17.8663 30.584 17.4583 30.696C17.0503 30.816 16.6143 30.876 16.1503 30.876C15.7503 30.876 15.3743 30.844 15.0223 30.78C14.6703 30.716 14.3223 30.616 13.9783 30.48C14.0023 30.304 14.0463 30.132 14.1103 29.964C14.1823 29.796 14.2623 29.632 14.3503 29.472C14.6063 29.576 14.8743 29.66 15.1543 29.724C15.4343 29.788 15.7543 29.82 16.1143 29.82ZM24.2217 22.14C24.7257 22.14 25.1657 22.24 25.5417 22.44C25.9257 22.64 26.2417 22.92 26.4897 23.28C26.7457 23.632 26.9337 24.052 27.0537 24.54C27.1817 25.028 27.2457 25.564 27.2457 26.148C27.2457 26.724 27.1817 27.26 27.0537 27.756C26.9257 28.244 26.7337 28.664 26.4777 29.016C26.2297 29.368 25.9137 29.644 25.5297 29.844C25.1457 30.044 24.7017 30.144 24.1977 30.144C23.6937 30.144 23.2537 30.044 22.8777 29.844C22.5017 29.644 22.1857 29.368 21.9297 29.016C21.6817 28.664 21.4937 28.244 21.3657 27.756C21.2457 27.26 21.1857 26.724 21.1857 26.148C21.1857 25.564 21.2497 25.028 21.3777 24.54C21.5057 24.052 21.6937 23.632 21.9417 23.28C22.1977 22.92 22.5137 22.64 22.8897 22.44C23.2737 22.24 23.7177 22.14 24.2217 22.14ZM24.2097 23.196C23.6577 23.196 23.2257 23.44 22.9137 23.928C22.6017 24.416 22.4457 25.156 22.4457 26.148C22.4457 27.14 22.6017 27.88 22.9137 28.368C23.2257 28.848 23.6577 29.088 24.2097 29.088C24.7617 29.088 25.1897 28.848 25.4937 28.368C25.7977 27.88 25.9497 27.14 25.9497 26.148C25.9497 25.156 25.7977 24.416 25.4937 23.928C25.1897 23.44 24.7617 23.196 24.2097 23.196Z" fill="#0B2C4C"/>
<path d="M17 11.0667C19.0673 11.0667 20.9109 12.2027 21.8109 14C20.9109 15.7973 19.0673 16.9333 17 16.9333C14.9327 16.9333 13.0891 15.7973 12.1891 14C13.0891 12.2027 14.9327 11.0667 17 11.0667ZM17 10C14.2727 10 11.9436 11.6587 11 14C11.9436 16.3413 14.2727 18 17 18C19.7273 18 22.0564 16.3413 23 14C22.0564 11.6587 19.7273 10 17 10ZM17 12.6667C17.7527 12.6667 18.3636 13.264 18.3636 14C18.3636 14.736 17.7527 15.3333 17 15.3333C16.2473 15.3333 15.6364 14.736 15.6364 14C15.6364 13.264 16.2473 12.6667 17 12.6667ZM17 11.6C15.6473 11.6 14.5455 12.6773 14.5455 14C14.5455 15.3227 15.6473 16.4 17 16.4C18.3527 16.4 19.4545 15.3227 19.4545 14C19.4545 12.6773 18.3527 11.6 17 11.6Z" fill="#0B2C4C"/>
</svg>
