<svg width="60" height="60" viewBox="0 0 60 60" fill="none" xmlns="http://www.w3.org/2000/svg">
<path d="M54.2 48.2H51V23.3281C53.3066 22.9359 54.9957 20.9398 55 18.6C55 18.5922 54.9961 18.5863 54.9961 18.5785C54.9949 18.5 54.9824 18.4223 54.9594 18.3473L51.8 8.86953V6.6C51.8 5.71641 51.0836 5 50.2 5H11.8C10.9164 5 10.2 5.71641 10.2 6.6V8.86953L7.04062 18.3473C7.01758 18.4223 7.00508 18.5 7.00391 18.5785V18.6C7.0082 20.9398 8.69727 22.9359 11.0039 23.3281V48.2H7.8C7.3582 48.2 7 48.5582 7 49V52.2C7 52.6418 7.3582 53 7.8 53H54.2C54.6418 53 55 52.6418 55 52.2V49C55 48.5582 54.6418 48.2 54.2 48.2ZM50.2 21.8C48.7414 21.798 47.4676 20.8117 47.1008 19.4H53.2992C52.9324 20.8117 51.6586 21.798 50.2 21.8ZM36.5359 17.8L36.0398 11.8L35.8695 9.8H42.3754L44.3754 17.8H36.5352H36.5359ZM34.2641 9.8L34.7641 15.8L34.9305 17.8H27.0695L27.2359 15.8L27.7359 9.8H34.2641ZM25.9641 11.8L25.4641 17.8H17.6238L19.6238 9.8H26.1297L25.9641 11.8ZM24.4992 19.4C24.1355 20.8145 22.8605 21.8031 21.4 21.8031C19.9395 21.8031 18.6645 20.8145 18.3008 19.4H24.4992ZM34.0992 19.4C33.7355 20.8145 32.4605 21.8031 31 21.8031C29.5395 21.8031 28.2645 20.8145 27.9008 19.4H34.0992ZM43.6992 19.4C43.3355 20.8145 42.0605 21.8031 40.6 21.8031C39.1395 21.8031 37.8645 20.8145 37.5008 19.4H43.6992ZM46.2 17.8H46.0246L44.0246 9.8H50.4246L53.0922 17.8H46.2ZM11.8 6.6H50.2V8.2H11.8V6.6ZM11.577 9.8H17.977L15.977 17.8H8.90977L11.577 9.8ZM8.70078 19.4H14.8992C14.5355 20.8145 13.2605 21.8031 11.8 21.8031C10.3395 21.8031 9.06445 20.8145 8.70078 19.4ZM12.6 23.3281C14.6102 22.9844 16.1844 21.4102 16.5281 19.4H16.6719C17.0602 21.7086 19.059 23.3992 21.4 23.3992C23.741 23.3992 25.7398 21.7086 26.1281 19.4H26.2719C26.6602 21.7086 28.659 23.3992 31 23.3992C33.341 23.3992 35.3398 21.7086 35.7281 19.4H35.8719C36.2602 21.7086 38.259 23.3992 40.6 23.3992C42.941 23.3992 44.9398 21.7086 45.3281 19.4H45.4719C45.8156 21.4102 47.3898 22.9844 49.4 23.3281V48.2H12.6V23.3281ZM53.4 51.4H8.6V49.8H53.4V51.4Z" fill="url(#paint0_linear_2077_12429)"/>
<path d="M47.8004 25H14.2004C13.7586 25 13.4004 25.3582 13.4004 25.8V46.6C13.4004 47.0418 13.7586 47.4 14.2004 47.4H47.8004C48.2422 47.4 48.6004 47.0418 48.6004 46.6V25.8C48.6004 25.3582 48.2422 25 47.8004 25ZM47.0004 45.8H15.0004V26.6H47.0004V45.8Z" fill="url(#paint1_linear_2077_12429)"/>
<path d="M31 44.2C35.4184 44.2 39 40.6184 39 36.2C39 31.7816 35.4184 28.2 31 28.2C26.5816 28.2 23 31.7816 23 36.2C23.0047 40.6164 26.5836 44.1953 31 44.2ZM31 29.8C34.5348 29.8 37.4 32.6652 37.4 36.2C37.4 39.7348 34.5348 42.6 31 42.6C27.4652 42.6 24.6 39.7348 24.6 36.2C24.6039 32.6672 27.4672 29.8039 31 29.8Z" fill="url(#paint2_linear_2077_12429)"/>
<path d="M34.9331 35.4338H31.6657V32.1664C31.6657 31.8656 31.4219 31.6218 31.1212 31.6218C30.8204 31.6218 30.5766 31.8657 30.5766 32.1664V35.4338H27.3092C27.0084 35.4338 26.7646 35.6777 26.7646 35.9784C26.7646 36.2791 27.0085 36.5229 27.3092 36.5229H30.5766V39.7903C30.5766 40.0911 30.8205 40.3349 31.1212 40.3349C31.4219 40.3349 31.6657 40.091 31.6657 39.7903V36.5229H34.9331C35.2339 36.5229 35.4777 36.2791 35.4777 35.9784C35.4777 35.6776 35.2339 35.4338 34.9331 35.4338Z" fill="url(#paint3_linear_2077_12429)"/>
<defs>
<linearGradient id="paint0_linear_2077_12429" x1="31" y1="5" x2="31" y2="53" gradientUnits="userSpaceOnUse">
<stop stop-color="#00A99D"/>
<stop offset="0.5" stop-color="#81319B"/>
<stop offset="1" stop-color="#0B2C4C"/>
</linearGradient>
<linearGradient id="paint1_linear_2077_12429" x1="31.0004" y1="5" x2="31.0004" y2="53" gradientUnits="userSpaceOnUse">
<stop stop-color="#00A99D"/>
<stop offset="0.5" stop-color="#81319B"/>
<stop offset="1" stop-color="#0B2C4C"/>
</linearGradient>
<linearGradient id="paint2_linear_2077_12429" x1="31" y1="5.4" x2="31" y2="52.6" gradientUnits="userSpaceOnUse">
<stop stop-color="#00A99D"/>
<stop offset="0.5" stop-color="#81319B"/>
<stop offset="1" stop-color="#0B2C4C"/>
</linearGradient>
<linearGradient id="paint3_linear_2077_12429" x1="31.1212" y1="5" x2="31.1212" y2="53" gradientUnits="userSpaceOnUse">
<stop stop-color="#00A99D"/>
<stop offset="0.5" stop-color="#81319B"/>
<stop offset="1" stop-color="#0B2C4C"/>
</linearGradient>
</defs>
</svg>
