<svg width="60" height="60" viewBox="0 0 60 60" fill="none" xmlns="http://www.w3.org/2000/svg">
<path d="M45.4022 29.2414V8.20015C45.4022 6.43277 43.9695 5 42.2021 5H10.2002C8.43277 5 7 6.43277 7 8.20015V40.202C7 41.9695 8.43277 43.4022 10.2002 43.4022H31.2414C32.4442 49.2869 37.8122 53.3759 43.8049 52.9726C49.7977 52.5693 54.5693 47.7977 54.9726 41.8049C55.3759 35.8122 51.2869 30.4442 45.4022 29.2414ZM10.2002 41.8021C9.31642 41.8021 8.60003 41.0857 8.60003 40.202V8.20015C8.60003 7.31642 9.31642 6.60003 10.2002 6.60003H42.202C43.0857 6.60003 43.8021 7.31642 43.8021 8.20015V29.0422C43.5365 29.0245 43.2725 29.0014 43.0021 29.0014C36.3774 29.0089 31.0089 34.3774 31.0014 41.0021C31.0014 41.2725 31.0245 41.5365 31.0422 41.8021H10.2002ZM43.0021 51.4027C37.258 51.4027 32.6015 46.7461 32.6015 41.0021C32.6015 35.2581 37.258 30.6015 43.0021 30.6015C48.7462 30.6015 53.4027 35.258 53.4027 41.0021C53.3961 46.7435 48.7435 51.3961 43.0021 51.4027Z" fill="url(#paint0_linear_2078_12381)"/>
<path d="M48.6022 40.2021H43.8019V35.4018C43.8019 34.9599 43.4437 34.6018 43.0019 34.6018C42.56 34.6018 42.2019 34.96 42.2019 35.4018V40.2021H37.4016C36.9597 40.2021 36.6016 40.5603 36.6016 41.0021C36.6016 41.4439 36.9598 41.8021 37.4016 41.8021H42.2019V46.6024C42.2019 47.0443 42.5601 47.4024 43.0019 47.4024C43.4436 47.4024 43.8019 47.0442 43.8019 46.6024V41.8021H48.6022C49.044 41.8021 49.4022 41.444 49.4022 41.0021C49.4022 40.5602 49.044 40.2021 48.6022 40.2021Z" fill="url(#paint1_linear_2078_12381)"/>
<path d="M20.6009 12.2004C21.0428 12.2004 21.4009 11.8423 21.4009 11.4004V10.6004H25.4012V23.4011C24.9593 23.4011 24.6012 23.7594 24.6012 24.2011C24.6012 24.643 24.9594 25.0012 25.4012 25.0012H27.0013C27.4432 25.0012 27.8013 24.6429 27.8013 24.2011C27.8013 23.7593 27.4431 23.4011 27.0013 23.4011V10.6003H31.0015V11.4003C31.0015 11.8422 31.3597 12.2004 31.8015 12.2004C32.2433 12.2004 32.6015 11.8422 32.6015 11.4003V10.6003C32.6015 9.71658 31.8851 9.0002 31.0014 9.0002H21.4009C20.5172 9.0002 19.8008 9.71658 19.8008 10.6003V11.4003C19.8008 11.8423 20.159 12.2004 20.6009 12.2004Z" fill="url(#paint2_linear_2078_12381)"/>
<path d="M11.8 29.0014H35.0014C35.4433 29.0014 35.8014 28.6433 35.8014 28.2014C35.8014 27.7595 35.4433 27.4014 35.0014 27.4014H11.8C11.3581 27.4014 11 27.7596 11 28.2014C11 28.6433 11.3581 29.0014 11.8 29.0014Z" fill="url(#paint3_linear_2078_12381)"/>
<path d="M30.2011 32.2015H11.8C11.3581 32.2015 11 32.5597 11 33.0016C11 33.4434 11.3582 33.8016 11.8 33.8016H30.2011C30.643 33.8016 31.0011 33.4434 31.0011 33.0016C31.0011 32.5597 30.643 32.2015 30.2011 32.2015Z" fill="url(#paint4_linear_2078_12381)"/>
<path d="M28.601 37.0018H11.8C11.3581 37.0018 11 37.3601 11 37.8018C11 38.2437 11.3582 38.6019 11.8 38.6019H28.601C29.0429 38.6019 29.401 38.2436 29.401 37.8018C29.401 37.3601 29.0429 37.0018 28.601 37.0018Z" fill="url(#paint5_linear_2078_12381)"/>
<defs>
<linearGradient id="paint0_linear_2078_12381" x1="31" y1="5" x2="31" y2="53" gradientUnits="userSpaceOnUse">
<stop stop-color="#81319B"/>
<stop offset="0.495" stop-color="#00A99D"/>
<stop offset="1" stop-color="#0B2C4C"/>
</linearGradient>
<linearGradient id="paint1_linear_2078_12381" x1="43.0019" y1="-7.99999" x2="43.0019" y2="47.4024" gradientUnits="userSpaceOnUse">
<stop stop-color="#81319B"/>
<stop offset="0.495" stop-color="#00A99D"/>
<stop offset="1" stop-color="#0B2C4C"/>
</linearGradient>
<linearGradient id="paint2_linear_2078_12381" x1="26" y1="8.50002" x2="26" y2="39.5" gradientUnits="userSpaceOnUse">
<stop stop-color="#81319B"/>
<stop offset="0.495" stop-color="#00A99D"/>
<stop offset="1" stop-color="#0B2C4C"/>
</linearGradient>
<linearGradient id="paint3_linear_2078_12381" x1="23.4007" y1="27.4014" x2="23.4007" y2="29.0014" gradientUnits="userSpaceOnUse">
<stop stop-color="#81319B"/>
<stop offset="0.0001" stop-color="#00A99D"/>
<stop offset="1" stop-color="#0B2C4C"/>
</linearGradient>
<linearGradient id="paint4_linear_2078_12381" x1="29.5" y1="32.5" x2="29.5" y2="40.5" gradientUnits="userSpaceOnUse">
<stop stop-color="#048485"/>
<stop offset="0.536223" stop-color="#0B2C4C"/>
<stop offset="1" stop-color="#81319B"/>
</linearGradient>
<linearGradient id="paint5_linear_2078_12381" x1="20" y1="32" x2="20" y2="40.5" gradientUnits="userSpaceOnUse">
<stop stop-color="#81319B"/>
<stop offset="0.495" stop-color="#00A99D"/>
<stop offset="1" stop-color="#0B2C4C"/>
</linearGradient>
</defs>
</svg>
