<svg width="42" height="37" viewBox="0 0 42 37" fill="none" xmlns="http://www.w3.org/2000/svg">
<path d="M21 24.5C19.6155 24.5 18.2622 24.1481 17.111 23.4888C15.9599 22.8295 15.0627 21.8925 14.5328 20.7961C14.003 19.6997 13.8644 18.4933 14.1345 17.3295C14.4046 16.1656 15.0713 15.0965 16.0503 14.2574C17.0292 13.4182 18.2765 12.8468 19.6344 12.6153C20.9922 12.3838 22.3997 12.5026 23.6788 12.9567C24.9579 13.4108 26.0511 14.1799 26.8203 15.1666C27.5895 16.1533 28 17.3133 28 18.5C28 20.0913 27.2625 21.6174 25.9497 22.7426C24.637 23.8679 22.8565 24.5 21 24.5ZM21 15.5C20.3078 15.5 19.6311 15.6759 19.0555 16.0056C18.4799 16.3352 18.0313 16.8038 17.7664 17.352C17.5015 17.9001 17.4322 18.5033 17.5673 19.0853C17.7023 19.6672 18.0356 20.2018 18.5251 20.6213C19.0146 21.0409 19.6383 21.3266 20.3172 21.4424C20.9961 21.5581 21.6999 21.4987 22.3394 21.2716C22.9789 21.0446 23.5256 20.6601 23.9101 20.1667C24.2947 19.6734 24.5 19.0933 24.5 18.5C24.5 17.7044 24.1313 16.9413 23.4749 16.3787C22.8185 15.8161 21.9283 15.5 21 15.5ZM31.5 35C31.5 32.6131 30.3938 30.3239 28.4246 28.636C26.4555 26.9482 23.7848 26 21 26C18.2152 26 15.5445 26.9482 13.5754 28.636C11.6062 30.3239 10.5 32.6131 10.5 35C10.5 35.3978 10.6844 35.7794 11.0126 36.0607C11.3408 36.342 11.7859 36.5 12.25 36.5C12.7141 36.5 13.1592 36.342 13.4874 36.0607C13.8156 35.7794 14 35.3978 14 35C14 33.4087 14.7375 31.8826 16.0503 30.7574C17.363 29.6321 19.1435 29 21 29C22.8565 29 24.637 29.6321 25.9497 30.7574C27.2625 31.8826 28 33.4087 28 35C28 35.3978 28.1844 35.7794 28.5126 36.0607C28.8407 36.342 29.2859 36.5 29.75 36.5C30.2141 36.5 30.6593 36.342 30.9874 36.0607C31.3156 35.7794 31.5 35.3978 31.5 35ZM31.5 12.5C30.1155 12.5 28.7622 12.1481 27.611 11.4888C26.4599 10.8295 25.5627 9.89246 25.0328 8.7961C24.503 7.69975 24.3644 6.49335 24.6345 5.32946C24.9046 4.16557 25.5713 3.09648 26.5503 2.25736C27.5292 1.41825 28.7765 0.846802 30.1344 0.615291C31.4922 0.38378 32.8997 0.5026 34.1788 0.956725C35.4579 1.41085 36.5511 2.17989 37.3203 3.16658C38.0895 4.15328 38.5 5.31331 38.5 6.5C38.5 8.0913 37.7625 9.61742 36.4497 10.7426C35.137 11.8679 33.3565 12.5 31.5 12.5ZM31.5 3.5C30.8078 3.5 30.1311 3.67595 29.5555 4.00559C28.9799 4.33524 28.5313 4.80377 28.2664 5.35195C28.0015 5.90013 27.9322 6.50333 28.0673 7.08527C28.2023 7.66722 28.5356 8.20177 29.0251 8.62132C29.5146 9.04088 30.1383 9.3266 30.8172 9.44236C31.4961 9.55811 32.1999 9.4987 32.8394 9.27164C33.4789 9.04458 34.0256 8.66006 34.4101 8.16671C34.7947 7.67337 35 7.09335 35 6.5C35 5.70435 34.6312 4.94129 33.9749 4.37868C33.3185 3.81607 32.4283 3.5 31.5 3.5ZM42 23C41.9972 20.6138 40.8901 18.326 38.9216 16.6387C36.953 14.9514 34.2839 14.0024 31.5 14C31.0359 14 30.5907 14.158 30.2626 14.4393C29.9344 14.7206 29.75 15.1022 29.75 15.5C29.75 15.8978 29.9344 16.2794 30.2626 16.5607C30.5907 16.842 31.0359 17 31.5 17C33.3565 17 35.137 17.6321 36.4497 18.7574C37.7625 19.8826 38.5 21.4087 38.5 23C38.5 23.3978 38.6844 23.7794 39.0126 24.0607C39.3408 24.342 39.7859 24.5 40.25 24.5C40.7141 24.5 41.1592 24.342 41.4874 24.0607C41.8156 23.7794 42 23.3978 42 23ZM10.5 12.5C9.11553 12.5 7.76215 12.1481 6.61101 11.4888C5.45986 10.8295 4.56266 9.89246 4.03284 8.7961C3.50303 7.69975 3.36441 6.49335 3.6345 5.32946C3.9046 4.16557 4.57129 3.09648 5.55025 2.25736C6.52922 1.41825 7.7765 0.846802 9.13437 0.615291C10.4922 0.38378 11.8997 0.5026 13.1788 0.956725C14.4579 1.41085 15.5511 2.17989 16.3203 3.16658C17.0895 4.15328 17.5 5.31331 17.5 6.5C17.5 8.0913 16.7625 9.61742 15.4497 10.7426C14.137 11.8679 12.3565 12.5 10.5 12.5ZM10.5 3.5C9.80777 3.5 9.13108 3.67595 8.5555 4.00559C7.97993 4.33524 7.53133 4.80377 7.26642 5.35195C7.00151 5.90013 6.9322 6.50333 7.06725 7.08527C7.2023 7.66722 7.53564 8.20177 8.02513 8.62132C8.51461 9.04088 9.13825 9.3266 9.81718 9.44236C10.4961 9.55811 11.1999 9.4987 11.8394 9.27164C12.4789 9.04458 13.0256 8.66006 13.4101 8.16671C13.7947 7.67337 14 7.09335 14 6.5C14 5.70435 13.6313 4.94129 12.9749 4.37868C12.3185 3.81607 11.4283 3.5 10.5 3.5ZM3.5 23C3.5 21.4087 4.2375 19.8826 5.55025 18.7574C6.86301 17.6321 8.64348 17 10.5 17C10.9641 17 11.4092 16.842 11.7374 16.5607C12.0656 16.2794 12.25 15.8978 12.25 15.5C12.25 15.1022 12.0656 14.7206 11.7374 14.4393C11.4092 14.158 10.9641 14 10.5 14C7.71608 14.0024 5.04698 14.9514 3.07845 16.6387C1.10992 18.326 0.00277975 20.6138 0 23C0 23.3978 0.184374 23.7794 0.512563 24.0607C0.840752 24.342 1.28587 24.5 1.75 24.5C2.21413 24.5 2.65925 24.342 2.98744 24.0607C3.31563 23.7794 3.5 23.3978 3.5 23Z" fill="#0B2C4C"/>
</svg>
