<svg width="60" height="60" viewBox="0 0 60 60" fill="none" xmlns="http://www.w3.org/2000/svg">
<path d="M50.2397 7.38848H9.76025C7.68677 7.38848 6 9.07524 6 11.1487V16.5961C6 18.6696 7.68677 20.3564 9.76025 20.3564H50.2394C52.3129 20.3564 54 18.6696 54 16.5961V11.1487C54 9.07524 52.3132 7.38848 50.2397 7.38848ZM52.125 16.5961C52.125 17.6358 51.2794 18.4814 50.2397 18.4814H9.76025C8.72058 18.4814 7.875 17.6358 7.875 16.5961V11.1487C7.875 10.1094 8.72058 9.26348 9.76025 9.26348H50.2394C51.2791 9.26348 52.125 10.1091 52.125 11.1487V16.5961Z" fill="url(#paint0_linear_2077_12439)"/>
<path d="M50.2397 23.3564H9.76025C7.68677 23.3564 6 25.0431 6 27.1166V32.564C6 34.6375 7.68677 36.3243 9.76025 36.3243H35.0266C36.1348 40.3017 39.9221 42.7916 43.8615 42.4422L44.7609 44.7775C44.4294 45.3481 44.3826 46.0113 44.6129 46.6089L46.1521 50.6065C46.7673 52.2039 48.5662 53.0279 50.194 52.4009C51.8031 51.7813 52.608 49.9682 51.9884 48.3594L50.4489 44.3619C50.2452 43.8327 49.8479 43.4148 49.3297 43.1849C49.2579 43.153 49.1847 43.1259 49.1111 43.1025L48.2106 40.7649C49.7311 39.6125 50.7949 37.9843 51.2684 36.1825C52.8658 35.7358 54 34.2856 54 32.564V27.1166C54 25.0431 52.3132 23.3564 50.2397 23.3564ZM50.2386 49.0333C50.4869 49.6774 50.1647 50.4032 49.5201 50.6512C48.876 50.8995 48.1512 50.5801 47.9019 49.933C46.3528 45.8 46.2854 45.9311 46.3674 45.7461C46.452 45.5553 46.6007 45.6279 48.3801 44.8936C48.4314 44.8738 48.505 44.8702 48.5691 44.8984C48.7544 44.9808 48.6163 44.9288 50.2386 49.0333ZM47.1936 43.3412C47.183 43.3453 46.2993 43.6858 46.3429 43.669L45.724 42.061C46.0499 41.9559 46.3348 41.8409 46.5747 41.7336L47.1936 43.3412ZM52.125 32.564C52.125 33.0892 51.9027 33.5726 51.5457 33.9179C51.468 29.4036 47.8363 25.8953 43.8208 25.6679C43.1547 25.6305 42.6764 26.2743 42.8767 26.8921C42.9895 27.2397 43.3011 27.5033 43.6879 27.537C46.7882 27.8051 49.2766 30.1862 49.6304 33.3345C50.1859 38.3516 45.0626 42.0698 40.4755 40.0336C36.5559 38.293 35.3716 33.3407 37.9904 30.0079C38.3101 29.6006 38.2394 29.0114 37.8322 28.6913C37.4414 28.3844 36.8503 28.4222 36.5087 28.8591C35.2782 30.429 34.6267 32.4212 34.7219 34.4493H9.76025C8.72058 34.4493 7.875 33.6037 7.875 32.564V27.1166C7.875 26.0773 8.72058 25.2314 9.76025 25.2314H50.2394C51.2791 25.2314 52.125 26.0773 52.125 27.1166V32.564Z" fill="url(#paint1_linear_2077_12439)"/>
<path d="M40.5521 33.7117L41.2376 32.6008C41.4826 32.204 41.0725 31.832 40.6682 31.832C40.2639 31.832 40.2628 32.1947 39.8563 32.8174L39.4212 32.0504C39.1455 31.5329 38.1179 32.0263 38.4746 32.6008L39.1601 33.7117L38.4409 34.8337C38.1113 35.3893 39.0938 35.8613 39.359 35.4334L39.8563 34.5797C40.3778 35.4374 40.3503 35.5996 40.6817 35.5996C41.0783 35.5996 41.5064 35.229 41.2677 34.8281L40.5521 33.7117Z" fill="url(#paint2_linear_2077_12439)"/>
<path d="M44.0242 31.8594C43.6346 31.8594 43.6181 32.2614 43.1936 32.9558C42.7209 32.1666 42.7384 31.8594 42.3598 31.8594C41.9676 31.8594 41.5658 32.1688 41.7237 32.4779L42.6549 34.0378C42.7055 35.0151 42.5246 35.3101 42.8567 35.4922C43.1742 35.6666 43.7334 35.5596 43.7334 35.1639V34.0382C43.8407 33.8579 43.3698 34.6508 44.6607 32.4768C44.8178 32.1644 44.4117 31.8594 44.0242 31.8594Z" fill="url(#paint3_linear_2077_12439)"/>
<path d="M47.3679 34.5727H46.4623C47.5305 32.6112 47.6774 32.5205 47.6774 32.2358C47.6774 32.0071 47.5239 31.8594 47.287 31.8594H45.5453C45.0081 31.8594 45.0165 32.8588 45.5453 32.8588H46.2708C45.1567 34.8973 45.0557 34.9177 45.0557 35.1957C45.0557 35.4245 45.2087 35.5722 45.446 35.5722C47.2745 35.5163 47.4833 35.7084 47.681 35.3863C47.8751 35.0687 47.722 34.5727 47.3679 34.5727Z" fill="url(#paint4_linear_2077_12439)"/>
<path d="M40.0879 26.0014C39.5701 26.0014 39.1504 26.4256 39.1504 26.949C39.1504 27.4725 39.5701 27.8967 40.0879 27.8967H40.0901C40.6079 27.8967 41.0265 27.4725 41.0265 26.949C41.0265 26.4256 40.6053 26.0014 40.0879 26.0014Z" fill="url(#paint5_linear_2077_12439)"/>
<path d="M14.1779 27.7275C13.8116 27.3577 13.218 27.3577 12.8518 27.7275L12.3311 28.2539L11.8103 27.7275C11.4445 27.3577 10.8508 27.3577 10.4846 27.7275C10.1184 28.0977 10.1184 28.6977 10.4846 29.0679L11.0054 29.5939L10.4846 30.1203C10.1184 30.4905 10.1184 31.0905 10.4846 31.4607C10.6677 31.6458 10.9076 31.7379 11.1475 31.7379C11.7272 31.7379 11.9381 31.2689 12.3311 30.9343C12.7251 31.27 12.9338 31.7379 13.5146 31.7379C13.7545 31.7379 13.9944 31.6454 14.1775 31.4607C14.5437 31.0905 14.5437 30.4905 14.1775 30.1203L13.6567 29.5939L14.1775 29.0679C14.5437 28.6977 14.5437 28.0977 14.1779 27.7275Z" fill="url(#paint6_linear_2077_12439)"/>
<path d="M21.002 27.7275C20.6358 27.3577 20.0425 27.3577 19.6763 27.7275L19.1556 28.2539L18.6348 27.7275C18.2686 27.3577 17.6754 27.3577 17.3088 27.7275C16.9429 28.0977 16.9429 28.6977 17.3088 29.0679L17.8295 29.5939L17.3088 30.1203C16.7166 30.7192 17.144 31.7379 17.9716 31.7379C18.5513 31.7379 18.7626 31.2689 19.1552 30.9343C19.5493 31.27 19.7584 31.7379 20.3388 31.7379C21.1668 31.7379 21.5942 30.7189 21.002 30.1203L20.4813 29.5939L21.002 29.0679C21.3682 28.6977 21.3682 28.0977 21.002 27.7275Z" fill="url(#paint7_linear_2077_12439)"/>
<path d="M27.8264 27.7275C27.4602 27.3577 26.8669 27.3577 26.5003 27.7275L25.9796 28.2539L25.4588 27.7275C25.0926 27.3577 24.4994 27.3577 24.1332 27.7275C23.767 28.0977 23.767 28.6977 24.1332 29.0679L24.6539 29.5939L24.1332 30.1203C23.5406 30.7192 23.9684 31.7379 24.796 31.7379C25.3757 31.7379 25.5874 31.2686 25.9796 30.9343C26.3736 31.27 26.5824 31.7379 27.1632 31.7379C27.4031 31.7379 27.6429 31.6454 27.826 31.4607C28.1922 31.0905 28.1922 30.4905 27.826 30.1203L27.3053 29.5939L27.826 29.0679C28.1922 28.6977 28.1922 28.0977 27.8264 27.7275Z" fill="url(#paint8_linear_2077_12439)"/>
<path d="M34.6505 27.7275C34.2843 27.3577 33.6907 27.3577 33.3245 27.7275L32.8037 28.2539L32.2833 27.7275C31.9171 27.3577 31.3235 27.3577 30.9573 27.7275C30.5911 28.0977 30.5911 28.6977 30.9573 29.0679L31.478 29.5939L30.9573 30.1203C30.5911 30.4905 30.5911 31.0905 30.9573 31.4607C31.3235 31.8305 31.9167 31.8305 32.2833 31.4607L32.8037 30.9343L33.3245 31.4607C33.6907 31.8305 34.2839 31.8309 34.6505 31.4607C35.0167 31.0905 35.0167 30.4905 34.6505 30.1203L34.1298 29.5939L34.6505 29.0679C35.0167 28.6977 35.0167 28.0977 34.6505 27.7275Z" fill="url(#paint9_linear_2077_12439)"/>
<defs>
<linearGradient id="paint0_linear_2077_12439" x1="30" y1="50.2947" x2="30" y2="7.79473" gradientUnits="userSpaceOnUse">
<stop stop-color="#0B2C4C"/>
<stop offset="0.5" stop-color="#00A99D"/>
<stop offset="1" stop-color="#81319B"/>
</linearGradient>
<linearGradient id="paint1_linear_2077_12439" x1="46.5" y1="52.6115" x2="46.5" y2="7.77849" gradientUnits="userSpaceOnUse">
<stop stop-color="#0B2C4C"/>
<stop offset="0.5" stop-color="#00A99D"/>
<stop offset="1" stop-color="#81319B"/>
</linearGradient>
<linearGradient id="paint2_linear_2077_12439" x1="39.8552" y1="31.832" x2="39.8552" y2="35.5996" gradientUnits="userSpaceOnUse">
<stop stop-color="#0B2C4C"/>
<stop offset="0.5" stop-color="#00A99D"/>
<stop offset="1" stop-color="#81319B"/>
</linearGradient>
<linearGradient id="paint3_linear_2077_12439" x1="43.1919" y1="31.8594" x2="43.1919" y2="35.573" gradientUnits="userSpaceOnUse">
<stop stop-color="#0B2C4C"/>
<stop offset="0.5" stop-color="#00A99D"/>
<stop offset="1" stop-color="#81319B"/>
</linearGradient>
<linearGradient id="paint4_linear_2077_12439" x1="46.4108" y1="31.8594" x2="46.4108" y2="35.5791" gradientUnits="userSpaceOnUse">
<stop stop-color="#0B2C4C"/>
<stop offset="0.5" stop-color="#00A99D"/>
<stop offset="1" stop-color="#81319B"/>
</linearGradient>
<linearGradient id="paint5_linear_2077_12439" x1="40.0884" y1="26.0014" x2="40.0884" y2="27.8967" gradientUnits="userSpaceOnUse">
<stop stop-color="#0B2C4C"/>
<stop offset="0.5" stop-color="#00A99D"/>
<stop offset="1" stop-color="#81319B"/>
</linearGradient>
<linearGradient id="paint6_linear_2077_12439" x1="12.3311" y1="27.4502" x2="12.3311" y2="31.7379" gradientUnits="userSpaceOnUse">
<stop stop-color="#0B2C4C"/>
<stop offset="0.5" stop-color="#00A99D"/>
<stop offset="1" stop-color="#81319B"/>
</linearGradient>
<linearGradient id="paint7_linear_2077_12439" x1="19.1554" y1="27.4502" x2="19.1554" y2="31.7379" gradientUnits="userSpaceOnUse">
<stop stop-color="#0B2C4C"/>
<stop offset="0.5" stop-color="#00A99D"/>
<stop offset="1" stop-color="#81319B"/>
</linearGradient>
<linearGradient id="paint8_linear_2077_12439" x1="25.9791" y1="27.4502" x2="25.9791" y2="31.7379" gradientUnits="userSpaceOnUse">
<stop stop-color="#0B2C4C"/>
<stop offset="0.5" stop-color="#00A99D"/>
<stop offset="1" stop-color="#81319B"/>
</linearGradient>
<linearGradient id="paint9_linear_2077_12439" x1="32.8039" y1="27.4502" x2="32.8039" y2="31.7382" gradientUnits="userSpaceOnUse">
<stop stop-color="#0B2C4C"/>
<stop offset="0.5" stop-color="#00A99D"/>
<stop offset="1" stop-color="#81319B"/>
</linearGradient>
</defs>
</svg>
