<svg width="60" height="60" viewBox="0 0 60 60" fill="none" xmlns="http://www.w3.org/2000/svg">
<path d="M22.8004 43.3631H18.0876H22.8223C22.8146 43.3631 22.8081 43.3631 22.8004 43.3631ZM27.3453 10.6479H17.4797C17.1165 10.6479 16.8213 10.9383 16.8213 11.2956V15.3858C16.8213 15.7432 17.1165 16.0335 17.4797 16.0335L27.3453 16.0325C27.7085 16.0325 28.0037 15.7432 28.0037 15.3848V11.2956C28.0037 10.9383 27.7085 10.6479 27.3453 10.6479ZM26.6869 14.7371H18.138V11.9433H26.6869V14.7371ZM42.5207 18.8273H17.4797C17.1165 18.8273 16.8213 19.1166 16.8213 19.475C16.8213 19.8334 17.1165 20.1227 17.4797 20.1227H42.5207C42.8839 20.1227 43.1791 19.8323 43.1791 19.475C43.1791 19.1177 42.8839 18.8273 42.5207 18.8273ZM42.5207 22.9164H17.4797C17.1165 22.9164 16.8213 23.2068 16.8213 23.5641C16.8213 23.9214 17.1165 24.2118 17.4797 24.2118H42.5207C42.8839 24.2118 43.1791 23.9214 43.1791 23.5641C43.1791 23.2068 42.8839 22.9164 42.5207 22.9164ZM42.5207 18.8273H17.4797C17.1165 18.8273 16.8213 19.1166 16.8213 19.475C16.8213 19.8334 17.1165 20.1227 17.4797 20.1227H42.5207C42.8839 20.1227 43.1791 19.8323 43.1791 19.475C43.1791 19.1177 42.8839 18.8273 42.5207 18.8273ZM42.5207 22.9164H17.4797C17.1165 22.9164 16.8213 23.2068 16.8213 23.5641C16.8213 23.9214 17.1165 24.2118 17.4797 24.2118H42.5207C42.8839 24.2118 43.1791 23.9214 43.1791 23.5641C43.1791 23.2068 42.8839 22.9164 42.5207 22.9164ZM27.3453 10.6479H17.4797C17.1165 10.6479 16.8213 10.9383 16.8213 11.2956V15.3858C16.8213 15.7432 17.1165 16.0335 17.4797 16.0335L27.3453 16.0325C27.7085 16.0325 28.0037 15.7432 28.0037 15.3848V11.2956C28.0037 10.9383 27.7085 10.6479 27.3453 10.6479ZM26.6869 14.7371H18.138V11.9433H26.6869V14.7371ZM22.8004 43.3631H18.0876H22.8223C22.8146 43.3631 22.8081 43.3631 22.8004 43.3631ZM42.5207 18.8273H17.4797C17.1165 18.8273 16.8213 19.1166 16.8213 19.475C16.8213 19.8334 17.1165 20.1227 17.4797 20.1227H42.5207C42.8839 20.1227 43.1791 19.8323 43.1791 19.475C43.1791 19.1177 42.8839 18.8273 42.5207 18.8273ZM42.5207 22.9164H17.4797C17.1165 22.9164 16.8213 23.2068 16.8213 23.5641C16.8213 23.9214 17.1165 24.2118 17.4797 24.2118H42.5207C42.8839 24.2118 43.1791 23.9214 43.1791 23.5641C43.1791 23.2068 42.8839 22.9164 42.5207 22.9164ZM27.3453 10.6479H17.4797C17.1165 10.6479 16.8213 10.9383 16.8213 11.2956V15.3858C16.8213 15.7432 17.1165 16.0335 17.4797 16.0335L27.3453 16.0325C27.7085 16.0325 28.0037 15.7432 28.0037 15.3848V11.2956C28.0037 10.9383 27.7085 10.6479 27.3453 10.6479ZM26.6869 14.7371H18.138V11.9433H26.6869V14.7371ZM22.8004 43.3631H18.0876H22.8223C22.8146 43.3631 22.8081 43.3631 22.8004 43.3631Z" fill="url(#paint0_linear_4_1724)"/>
<path d="M47.3069 11.097L41.3026 5.18891C41.1786 5.06801 41.0107 5 40.8362 5H13.1584C12.9839 5 12.816 5.06801 12.6931 5.18891C12.5702 5.30981 12.5 5.47498 12.5 5.6477V49.4492H26.7899L27.0313 49.6651C27.3989 49.9922 27.6513 50.3744 27.7895 50.804C27.502 51.0307 27.3177 51.3783 27.3177 51.768V53.7651C27.3177 54.4462 27.8806 55 28.5719 55H38.7503C39.4427 55 40.0056 54.4451 40.0056 53.7651V51.768C40.0056 51.293 39.7312 50.8807 39.3307 50.6734C39.5195 50.2783 39.6808 49.8638 39.8135 49.4492H46.8416C47.2048 49.4492 47.5 49.1599 47.5 48.8015V11.5547C47.5 11.383 47.4298 11.2179 47.3069 11.097ZM41.4946 7.2108L45.2517 10.907H41.4946V7.2108ZM38.6888 53.7046H28.6344V51.8284H38.6888V53.7046ZM38.9511 46.92C38.9511 47.817 38.5923 49.3618 37.9262 50.5331H29.0821C28.8857 49.8346 28.4951 49.2215 27.9168 48.7055L26.599 47.5299C26.0141 47.0074 25.7168 46.3479 25.7168 45.5706V40.2833C25.7168 39.7154 26.1875 39.2523 26.7647 39.2523C27.3418 39.2523 27.8126 39.7154 27.8126 40.2833V43.1655C27.8126 43.5239 28.1077 43.8132 28.4709 43.8132C28.8341 43.8132 29.1293 43.5239 29.1293 43.1655V32.3501C29.1293 31.8783 29.5199 31.494 30.0005 31.494C30.4812 31.494 30.8707 31.8783 30.8707 32.3501V40.4657C30.8707 40.823 31.1659 41.1134 31.5291 41.1134C31.8923 41.1134 32.1874 40.823 32.1874 40.4657V38.6511C32.1874 38.2495 32.5199 37.9224 32.9281 37.9224C33.3363 37.9224 33.6677 38.2495 33.6677 38.6511V40.5682C33.6677 40.9266 33.9628 41.2159 34.326 41.2159C34.6892 41.2159 34.9844 40.9266 34.9844 40.5682V39.1023C34.9844 38.7309 35.2916 38.4298 35.668 38.4298C36.0444 38.4298 36.3516 38.7309 36.3516 39.1023V41.2656C36.3516 41.6229 36.6468 41.9133 37.01 41.9133C37.3732 41.9133 37.6684 41.6229 37.6684 41.2656V40.185C37.6684 39.8363 37.9569 39.5535 38.3103 39.5535C38.6636 39.5535 38.9511 39.8363 38.9511 40.185V46.92ZM29.9995 30.1986C28.7935 30.1986 27.8126 31.1637 27.8126 32.3501V35.309C26.5606 34.5673 25.7683 33.2277 25.7683 31.7434C25.7683 29.4473 27.6666 27.5798 29.9995 27.5798C32.3323 27.5798 34.2317 29.4473 34.2317 31.7434C34.2317 33.2277 33.4383 34.5673 32.1874 35.309V32.3501C32.1874 31.1637 31.2065 30.1986 29.9995 30.1986ZM46.1822 48.1539H40.1405C40.225 47.6951 40.2678 47.2708 40.2678 46.92V44.6585H42.5194C42.8837 44.6585 43.1778 44.3691 43.1778 44.0108C43.1778 43.6524 42.8837 43.3631 42.5194 43.3631H40.2678V40.5693H42.5194C42.8837 40.5693 43.1778 40.2789 43.1778 39.9216C43.1778 39.5643 42.8837 39.2739 42.5194 39.2739H40.0341C39.7038 38.6694 39.0542 38.2581 38.3092 38.2581C38.0359 38.2581 37.7759 38.3143 37.54 38.4136C37.2547 37.6676 36.525 37.1344 35.668 37.1344C35.2664 37.1344 34.8944 37.252 34.5806 37.4517C34.2053 36.953 33.6051 36.627 32.927 36.627C32.6658 36.627 32.4168 36.6767 32.1874 36.7652V36.7609C32.3849 36.6778 32.577 36.5838 32.7613 36.4802H42.5194C42.8837 36.4802 43.1778 36.1898 43.1778 35.8325C43.1778 35.4752 42.8837 35.1848 42.5194 35.1848H34.3096C34.9592 34.3968 35.3838 33.4328 35.5089 32.3911H42.5194C42.8837 32.3911 43.1778 32.1007 43.1778 31.7434C43.1778 31.3861 42.8837 31.0957 42.5194 31.0957H35.5078C35.3805 30.0443 34.9493 29.0835 34.3019 28.3009H42.5194C42.8837 28.3009 43.1778 28.0116 43.1778 27.6532C43.1778 27.2948 42.8837 27.0055 42.5194 27.0055H32.7514C31.9394 26.5478 31.0002 26.2844 29.9995 26.2844C28.9987 26.2844 28.0595 26.5478 27.2475 27.0055H17.4795C17.1152 27.0055 16.8211 27.2959 16.8211 27.6532C16.8211 28.0105 17.1152 28.3009 17.4795 28.3009H25.6959C25.0496 29.0835 24.6184 30.0443 24.4911 31.0957H17.4795C17.1152 31.0957 16.8211 31.385 16.8211 31.7434C16.8211 32.1018 17.1152 32.3911 17.4795 32.3911H24.49C24.6151 33.4328 25.0397 34.3968 25.6893 35.1848H17.4795C17.1152 35.1848 16.8211 35.4752 16.8211 35.8325C16.8211 36.1898 17.1152 36.4802 17.4795 36.4802H27.2376C27.4219 36.5838 27.614 36.6778 27.8115 36.7609V38.2009C27.4955 38.0466 27.141 37.957 26.7647 37.957C25.8287 37.957 25.02 38.4967 24.637 39.2739H17.4795C17.1152 39.2739 16.8211 39.5643 16.8211 39.9216C16.8211 40.2789 17.1152 40.5693 17.4795 40.5693H24.4V43.3641H18.0874H18.0885H17.4806C17.2984 43.3641 17.1338 43.4365 17.0142 43.5541C16.8957 43.6718 16.8222 43.8337 16.8222 44.0118C16.8222 44.3022 17.0153 44.5473 17.282 44.6293C17.282 44.6304 17.2841 44.6304 17.2852 44.6304C17.3061 44.6369 17.3269 44.6423 17.3478 44.6466C17.3906 44.6563 17.4345 44.6606 17.4795 44.6606H24.4V45.5717C24.4 46.554 24.738 47.4392 25.3799 48.156H20.0482H13.8167V6.29431H40.1778V11.5547C40.1778 11.912 40.4719 12.2024 40.8362 12.2024H46.1822V48.1539Z" fill="url(#paint1_linear_4_1724)"/>
<defs>
<linearGradient id="paint0_linear_4_1724" x1="32.7028" y1="53.9848" x2="32.4525" y2="2.8426" gradientUnits="userSpaceOnUse">
<stop stop-color="#0B2C4C"/>
<stop offset="0.465" stop-color="#00A99D"/>
<stop offset="1" stop-color="#81319B"/>
</linearGradient>
<linearGradient id="paint1_linear_4_1724" x1="32.4449" y1="55" x2="32.4449" y2="5" gradientUnits="userSpaceOnUse">
<stop stop-color="#0B2C4C"/>
<stop offset="0.5" stop-color="#00A99D"/>
<stop offset="1" stop-color="#81319B"/>
</linearGradient>
</defs>
</svg>
