<svg width="91" height="90" viewBox="0 0 91 90" fill="none" xmlns="http://www.w3.org/2000/svg">
<g clip-path="url(#clip0_820_9350)">
<path d="M50.813 8.8958C49.7017 7.00203 47.714 5.87109 45.4993 5.87109C43.2845 5.87109 41.3007 7.00185 40.1896 8.8958L1.33886 74.9841C0.231582 76.874 0.219843 79.1396 1.3075 81.0412C2.41093 82.9742 4.41437 84.1285 6.65645 84.1285H84.3425C86.5845 84.1285 88.588 82.9742 89.6914 81.0412C90.7831 79.1396 90.7675 76.874 89.6562 74.9802L50.813 8.8958ZM86.2988 79.0965C85.8958 79.7969 85.168 80.2155 84.3423 80.2155H6.65645C5.83474 80.2155 5.1031 79.7967 4.69995 79.0965C4.51599 78.7716 4.14824 77.9226 4.71169 76.9639L43.5586 10.8758C44.1376 9.88973 45.1081 9.78408 45.4993 9.78408C45.8905 9.78408 46.861 9.88973 47.444 10.8796L86.2832 76.9641C86.8466 77.9266 86.4827 78.7757 86.2988 79.0965Z" fill="url(#paint0_linear_820_9350)"/>
<path d="M45.4995 25.4355C44.4195 25.4355 43.543 26.3121 43.543 27.392V58.695C43.543 59.775 44.4195 60.6515 45.4995 60.6515C46.5794 60.6515 47.456 59.775 47.456 58.695V27.392C47.4558 26.3121 46.5794 25.4355 45.4995 25.4355Z" fill="url(#paint1_linear_820_9350)"/>
<path d="M45.4995 64.5645C44.4195 64.5645 43.543 65.441 43.543 66.521V70.4338C43.543 71.5137 44.4195 72.3902 45.4995 72.3902C46.5794 72.3902 47.456 71.5137 47.456 70.4338V66.521C47.4558 65.441 46.5794 64.5645 45.4995 64.5645Z" fill="url(#paint2_linear_820_9350)"/>
</g>
<defs>
<linearGradient id="paint0_linear_820_9350" x1="52.1122" y1="5.87719" x2="52.1123" y2="84.1221" gradientUnits="userSpaceOnUse">
<stop stop-color="#81319B"/>
<stop offset="0.49" stop-color="#00A99D"/>
<stop offset="1" stop-color="#0B2C4C"/>
</linearGradient>
<linearGradient id="paint1_linear_820_9350" x1="54.7085" y1="6.42857" x2="53.2145" y2="84.3061" gradientUnits="userSpaceOnUse">
<stop stop-color="#81319B"/>
<stop offset="0.48" stop-color="#00A99D"/>
<stop offset="1" stop-color="#0B2C4C"/>
</linearGradient>
<linearGradient id="paint2_linear_820_9350" x1="47.8516" y1="6.06122" x2="47.8517" y2="84.1224" gradientUnits="userSpaceOnUse">
<stop stop-color="#81319B"/>
<stop offset="0.5" stop-color="#00A99D"/>
<stop offset="1" stop-color="#0B2C4C"/>
</linearGradient>
<clipPath id="clip0_820_9350">
<rect width="90" height="90" fill="white" transform="translate(0.5)"/>
</clipPath>
</defs>
</svg>
