<svg width="298" height="169" viewBox="0 0 298 169" fill="none" xmlns="http://www.w3.org/2000/svg">
<rect width="298" height="169" fill="white"/>
<path d="M84.5789 9.23617C115.238 -6.92239 123.475 17.4959 150.9 22.593C168.326 25.8318 185.782 11.371 202.979 15.6156C213.057 18.103 225.365 29.8753 224.493 40.923C223.146 57.9782 211.909 60.2635 212.983 73.4954C215.129 99.929 237.113 103.345 242.104 122.628C245.121 134.281 240.623 152.899 209.975 157.522C170.916 163.415 137.348 137.329 99.4688 140.565C84.1458 141.723 68.7477 150.276 53.3892 145.519C38.5814 140.932 28.5796 126.926 35.4655 106.47C40.6185 91.1628 55.1835 85.1237 61.4477 69.2746C65.9643 57.8467 68.4863 44.5154 68.7504 34.8983C69.0644 23.4741 75.2349 14.1608 84.5789 9.23617Z" fill="#E9FFFC"/>
<path d="M61.4756 144.069C61.4655 144.069 61.4554 144.069 61.4453 144.067C61.3212 144.051 61.234 143.94 61.2505 143.818C61.2534 143.797 61.5381 141.674 61.254 140.427C60.9543 139.111 61.0571 137.109 61.0617 137.025C61.0683 136.902 61.1705 136.807 61.3 136.815C61.4249 136.821 61.5212 136.925 61.5146 137.048C61.5135 137.068 61.4107 139.075 61.6968 140.33C61.9986 141.655 61.7125 143.787 61.7003 143.877C61.6846 143.988 61.5873 144.069 61.4756 144.069Z" fill="#323536"/>
<path d="M61.2855 137.031C61.2855 137.031 59.8796 134.89 59.6687 131.624C59.4579 128.358 59.0361 127.25 57.349 125.977C55.6619 124.704 54.748 123.818 54.748 121.272C54.748 118.725 52.7798 117.784 52.9906 116.345C53.2015 114.905 52.4283 109.129 53.6936 109.056C54.9589 108.982 56.5054 108.465 58.5675 111.196C58.5675 111.196 59.7392 109.166 60.114 107.912C60.489 106.657 61.6137 103.335 64.0976 104.184C66.5814 105.033 66.761 106.693 65.7808 108.797C64.8005 110.901 65.4957 113.442 65.7808 113.961C66.0659 114.481 66.1355 115.846 66.3351 116.548C66.5344 117.249 67.05 121.862 65.1755 126.254C63.301 130.646 61.2855 137.031 61.2855 137.031Z" fill="#159D9B"/>
<path d="M61.2856 137.347C61.2091 137.347 61.1369 137.309 61.0947 137.245C61.0359 137.156 59.6545 135.018 59.4422 131.733C59.2323 128.484 58.8151 127.459 57.21 126.247C55.537 124.985 54.5209 124.026 54.5209 121.366C54.5209 120.041 53.9635 119.174 53.4716 118.408C53.0531 117.757 52.6579 117.142 52.7655 116.408C52.8284 115.978 52.7977 115.085 52.7651 114.139C52.6614 111.126 52.6664 108.988 53.6794 108.929C53.8185 108.921 53.961 108.907 54.1071 108.893C55.2799 108.782 56.7283 108.644 58.5356 110.885C58.8703 110.28 59.6162 108.879 59.8955 107.944C60.495 105.938 61.3062 104.666 62.3064 104.163C62.8805 103.874 63.508 103.843 64.1716 104.069C65.2922 104.452 66.0271 105.028 66.3555 105.78C66.7214 106.618 66.6006 107.666 65.9863 108.984C65.0452 111.003 65.7154 113.47 65.9797 113.951C66.1691 114.296 66.2654 114.929 66.3586 115.542C66.4192 115.939 66.4763 116.315 66.5526 116.583C66.8204 117.524 67.1962 122.188 65.3837 126.434C63.535 130.766 61.5216 137.127 61.5014 137.191C61.4754 137.273 61.4029 137.333 61.3154 137.345C61.306 137.346 61.2959 137.347 61.2856 137.347ZM54.9363 109.286C54.6654 109.286 54.4048 109.31 54.1517 109.335C53.9997 109.349 53.8515 109.363 53.7068 109.371C53.0566 109.41 53.1622 112.476 53.2189 114.124C53.2535 115.132 53.2834 116.003 53.2147 116.471C53.1306 117.044 53.4508 117.542 53.8558 118.173C54.3543 118.948 54.9746 119.913 54.9746 121.366C54.9746 123.878 55.8825 124.685 57.4875 125.896C59.2047 127.192 59.6772 128.332 59.8949 131.705C60.045 134.03 60.8207 135.788 61.227 136.566C61.7397 134.98 63.4097 129.909 64.9659 126.263C66.8556 121.836 66.27 117.242 66.1164 116.702C66.0325 116.407 65.9735 116.018 65.9108 115.607C65.8274 115.059 65.7327 114.438 65.5808 114.161C65.2821 113.617 64.5493 111 65.5742 108.8C66.1327 107.602 66.252 106.671 65.9391 105.955C65.6587 105.313 65.0318 104.833 64.0226 104.488C63.4734 104.301 62.9801 104.323 62.5146 104.557C61.6292 105.002 60.8947 106.184 60.3315 108.069C59.9536 109.333 58.8132 111.316 58.7648 111.4C58.7269 111.466 58.6578 111.508 58.5811 111.513C58.504 111.519 58.4306 111.483 58.3849 111.423C57.0128 109.605 55.9082 109.286 54.9363 109.286Z" fill="#323536"/>
<path d="M61.287 127.647C61.4565 126.738 61.9615 124.419 62.9302 122.945C63.8991 121.471 63.5709 121.526 64.189 120.638C64.807 119.751 65.2652 116.751 66.7551 115.286C68.2449 113.821 69.162 113.887 70.0921 114.41C71.0223 114.934 70.348 115.688 70.2567 117.154C70.1653 118.619 70.2558 119.89 70.2303 121.606C70.2047 123.323 68.9344 124.713 68.0744 125.78C67.2144 126.848 65.2017 128.297 63.6091 131.073C62.0164 133.85 61.287 137.13 61.287 137.13C61.287 137.13 61.0603 135.927 61.0153 133.963C60.9702 131.999 61.1368 128.453 61.287 127.647Z" fill="#159D9B"/>
<path d="M53.4844 140.689H69.0904L67.4736 158.829H55.1014L53.4844 140.689Z" fill="#FDA202"/>
<path d="M61.2855 140.686H53.4824L55.0994 158.825H61.2855H67.4717L69.0885 140.686H61.2855Z" fill="#FDA202"/>
<path d="M67.4719 159.048H55.0995C54.982 159.048 54.8838 158.96 54.8735 158.845L53.2567 140.706C53.2512 140.644 53.2724 140.583 53.3155 140.537C53.3584 140.491 53.4192 140.465 53.4827 140.465H69.0887C69.1522 140.465 69.213 140.491 69.2559 140.537C69.2988 140.583 69.32 140.644 69.3147 140.706L67.6979 158.845C67.6876 158.96 67.5894 159.048 67.4719 159.048ZM55.3075 158.604H67.2641L68.8416 140.908H53.7303L55.3075 158.604Z" fill="#323536"/>
<path d="M61.2886 137.356C61.2869 137.356 61.2853 137.356 61.2837 137.356C61.1713 137.354 61.0777 137.271 61.0635 137.162C60.6436 133.95 60.504 129.022 61.4925 125.705C62.0173 123.944 62.3612 123.414 62.7966 122.744C63.2567 122.035 63.8291 121.153 64.8714 118.347C65.8273 115.774 66.9848 114.286 68.3118 113.926C69.351 113.643 70.1362 114.146 70.4256 114.375C70.9622 114.8 70.8472 115.326 70.6882 116.055C70.5569 116.656 70.3774 117.479 70.4194 118.673C70.4293 118.954 70.4456 119.227 70.4615 119.495C70.5981 121.79 70.7163 123.772 66.7867 127.404C62.5828 131.291 61.5222 137.113 61.5121 137.172C61.4933 137.278 61.3987 137.356 61.2886 137.356ZM68.9263 114.286C68.7717 114.286 68.6066 114.305 68.433 114.353C67.6235 114.572 66.4222 115.47 65.2975 118.498C64.2385 121.349 63.6512 122.254 63.1794 122.981C62.7634 123.622 62.4348 124.128 61.9279 125.829C61.0808 128.672 61.0812 132.74 61.3717 135.837C61.9326 133.86 63.3641 129.958 66.475 127.082C70.251 123.591 70.144 121.795 70.0086 119.52C69.9925 119.249 69.976 118.973 69.9659 118.689C69.922 117.44 70.1083 116.586 70.2444 115.962C70.4085 115.211 70.4458 114.962 70.1401 114.72C69.9539 114.572 69.5157 114.286 68.9263 114.286Z" fill="#323536"/>
<path d="M59.9197 117.618C59.85 117.618 59.7813 117.587 59.7368 117.528C57.1701 114.118 58.3125 111.33 58.3624 111.213C58.4105 111.1 58.543 111.046 58.6589 111.093C58.7743 111.14 58.8289 111.27 58.7811 111.383C58.77 111.409 57.6947 114.067 60.1021 117.265C60.1763 117.364 60.1547 117.503 60.0539 117.575C60.0132 117.604 59.9662 117.618 59.9197 117.618Z" fill="#323536"/>
<path d="M66.1754 149.211C66.1669 149.211 66.1583 149.21 66.1498 149.209C66.0253 149.195 65.9358 149.086 65.9496 148.964C66.3413 145.551 66.646 142.79 66.646 142.79C66.6594 142.668 66.7703 142.58 66.8959 142.593C67.0204 142.606 67.1103 142.715 67.0969 142.837C67.0969 142.837 66.7922 145.599 66.4003 149.014C66.3875 149.127 66.2892 149.211 66.1754 149.211Z" fill="white"/>
<path d="M65.5502 153.33C65.5405 153.33 65.5308 153.33 65.5211 153.328C65.3968 153.313 65.3092 153.202 65.3251 153.08C65.327 153.066 65.5141 151.632 65.5999 150.658C65.6106 150.536 65.7207 150.444 65.8452 150.456C65.9699 150.467 66.0625 150.574 66.0518 150.696C65.9652 151.68 65.777 153.122 65.7749 153.137C65.7601 153.249 65.6626 153.33 65.5502 153.33Z" fill="white"/>
<path d="M68.0586 122.367C67.9492 122.367 67.8529 122.289 67.835 122.18C67.815 122.059 67.8991 121.946 68.0228 121.926C68.0182 121.926 68.5792 121.74 68.6156 119.923C68.6573 117.867 68.6167 117.28 68.6163 117.274C68.6074 117.153 68.7012 117.046 68.8261 117.037C68.9527 117.031 69.0595 117.12 69.0686 117.242C69.0702 117.266 69.1112 117.844 69.0692 119.931C69.0253 122.108 68.2499 122.339 68.0949 122.364C68.0828 122.366 68.0706 122.367 68.0586 122.367Z" fill="white"/>
<path d="M63.6006 111.512C63.4796 111.512 63.3792 111.418 63.3742 111.299C63.28 109.036 64.1599 107.79 64.1974 107.738C64.2697 107.639 64.411 107.614 64.5134 107.685C64.6157 107.756 64.6402 107.894 64.5682 107.994C64.56 108.005 63.7397 109.18 63.8274 111.281C63.8325 111.404 63.7352 111.507 63.6101 111.512C63.607 111.511 63.6037 111.512 63.6006 111.512Z" fill="white"/>
<path d="M54.7349 116.56C54.7299 116.56 54.725 116.56 54.7201 116.56C54.5951 116.552 54.5003 116.446 54.5085 116.324C54.5098 116.305 54.6329 114.419 54.5094 113.292C54.3811 112.123 54.504 110.975 54.5094 110.926C54.5226 110.805 54.6353 110.718 54.759 110.73C54.8835 110.743 54.9738 110.852 54.9604 110.974C54.9592 110.985 54.8376 112.124 54.9604 113.245C55.0882 114.41 54.9664 116.274 54.9612 116.353C54.9532 116.47 54.8534 116.56 54.7349 116.56Z" fill="white"/>
<path d="M267.137 107.234C266.5 111.566 265.409 115.673 263.925 119.537C263.731 120.047 263.53 120.554 263.321 121.055C262.662 122.636 261.938 124.176 261.147 125.673C253.675 139.869 240.609 150.159 225.658 155.55C208.003 161.919 187.726 161.455 170.942 152.526C162.106 147.826 154.238 140.778 148.231 131.148C146.865 129.178 145.638 127.109 144.545 124.963C141.886 119.74 140.043 114.056 139.017 108.187C138.542 105.493 138.243 102.756 138.116 100.01C137.974 97.0253 138.036 94.0239 138.305 91.0437C138.768 85.8376 139.854 80.6947 141.56 75.7957C143.461 70.3318 146.136 65.1726 149.583 60.578C149.643 60.5031 149.693 60.4235 149.751 60.3461C149.758 60.3461 149.758 60.3415 149.758 60.3415C153.315 55.3486 157.335 51.1007 161.691 47.5583C162.357 47.0171 163.033 46.4922 163.717 45.9814C190.957 25.6514 230.008 31.5605 251.695 54.9504C251.839 55.105 251.98 55.2597 252.122 55.4142C257.388 61.2085 261.595 68.0499 264.316 75.8122C265.155 78.1996 265.85 80.6739 266.392 83.2301C267.025 86.2079 267.451 89.2984 267.648 92.4966C267.737 93.9282 267.78 95.3832 267.775 96.8569C267.847 100.444 267.624 103.904 267.137 107.234Z" fill="#D6F9F6"/>
<path d="M230.748 144.411C229.818 144.267 231.326 142.713 231.596 139.887C231.842 137.319 235.801 136.492 236.533 134.458C236.919 133.389 237.679 132.327 238.462 132.196C239.04 132.1 239.002 134.609 238.462 135.514C237.922 136.418 236.225 138.53 235.608 140.264C234.991 141.998 232.214 144.637 230.748 144.411Z" fill="#B6EFEA"/>
<path d="M262.761 102.188C262.337 101.887 262.723 99.5869 262.453 98.7576C262.183 97.9282 263.571 98.7197 263.494 100.699C263.417 102.678 262.761 102.188 262.761 102.188Z" fill="#B6EFEA"/>
<path d="M217.146 82.985C216.809 82.852 217.841 81.9544 218.021 81.9544C218.201 81.9544 219.435 81.8288 219.075 82.3062C218.715 82.7837 217.545 83.1417 217.146 82.985Z" fill="#B6EFEA"/>
<path d="M209.206 83.0194C207.458 81.5751 210.156 82.5936 210.672 82.4782C210.961 82.3726 211.848 82.561 211.482 82.7119C211.115 82.8626 210.036 83.3647 209.206 83.0194Z" fill="#B6EFEA"/>
<path d="M194.337 78.1599C193.075 78.2776 194.228 76.5193 193.823 76.1492C193.681 75.9985 194.684 75.9356 194.671 75.6717C194.658 75.4077 194.144 74.4529 194.273 74.2266C194.401 74.0003 195.237 73.8996 195.134 74.3396C195.031 74.7795 195.314 75.4833 195.314 75.634C195.314 75.7847 194.915 76.3628 195.057 76.7148C195.198 77.0668 195.044 78.1347 194.337 78.1599Z" fill="#B6EFEA"/>
<path d="M149.129 131.442C150.209 132.044 149.632 128.426 148.224 125.52C146.817 122.619 149.746 124.315 149.44 121.188C149.129 118.056 147.857 118.774 147.315 116.774C146.926 115.338 146.161 113.723 144.85 113.458C142.515 112.988 143.398 110.48 142.419 109.386C141.029 107.84 142.109 105.503 140.916 103.618C139.866 101.965 140.181 98.1878 138.791 96.7181C137.33 95.168 138.837 91.3647 138.483 89.3125C136.778 103.983 140.025 119.313 148.23 131.148C148.275 131.22 148.321 131.29 148.366 131.361C148.593 131.283 148.848 131.286 149.129 131.442Z" fill="#B6EFEA"/>
<path d="M186.03 64.7816C185.585 65.1222 185.567 63.8516 186.184 63.6003C186.801 63.3488 186.004 62.6954 186.519 62.3686C187.033 62.0418 188.37 60.3579 187.702 60.1568C187.033 59.9557 187.624 59.2267 187.444 58.9251C186.683 57.9612 188.18 56.3907 189.322 56.3613C190.093 56.4369 188.242 57.4171 188.73 57.5175C189.219 57.618 190.042 57.4421 189.373 58.5227C188.705 59.6035 189.964 60.4079 190.196 61.3126C191.479 65.6156 188.425 63.266 186.03 64.7816Z" fill="#B6EFEA"/>
<path d="M182.948 62.9024C182.501 62.7517 182.253 61.9977 182.845 61.872C183.436 61.7462 183.822 61.2939 183.385 60.9671C182.948 60.6403 184.927 60.2131 185.21 59.3586C185.493 58.5043 187.088 59.9149 186.445 60.6044C185.802 61.2939 186.085 61.8972 185.365 62.3245C184.645 62.7515 183.693 63.1539 182.948 62.9024Z" fill="#B6EFEA"/>
<path d="M184.811 51.1063C184.909 51.8161 183.449 50.5032 183.384 50.013C183.278 49.2104 184.146 48.7392 184.097 48.1657C184.065 47.7782 184.657 47.9191 184.888 48.5224C185.12 49.1256 186.177 48.9402 186.383 48.7392C186.589 48.5381 187.617 48.5695 187.524 49.3344C187.43 50.1031 188.038 50.9932 187.704 51.1063C187.369 51.2193 186.026 50.9336 185.604 50.3694C185.213 49.8474 184.747 50.6412 184.811 51.1063Z" fill="#B6EFEA"/>
<path d="M181.223 37.0966C181.525 36.9556 181.898 36.746 182.296 36.5312C179.678 37.3463 177.101 38.3376 174.582 39.5075C177.142 39.0281 178.304 38.6922 178.653 39.2544C178.871 39.6056 176.761 40.558 176.229 40.9628C175.535 41.4907 174.605 40.9237 174.229 41.0148C173.433 41.2081 172.223 42.6213 172.586 43.228C172.944 43.8305 175.245 41.5474 175.362 42.2197C175.476 42.881 175.054 44.0469 175.877 43.8307C176.962 43.5455 178.119 41.0009 179.375 40.8139C180.452 40.6536 184.483 37.8718 183.746 37.1438C183.112 36.5184 180.043 38.5538 179.423 38.5026C178.806 38.4511 180.248 37.5538 181.223 37.0966Z" fill="#B6EFEA"/>
<path d="M159.905 54.344C159.577 55.1546 158.083 55.3428 158.371 56.4196C158.66 57.4919 158.196 57.4919 158.393 57.9664C158.585 58.4363 159.497 58.2022 159.473 57.1931C159.461 56.7152 160.745 56.2701 160.745 55.1165C160.745 53.9672 162.113 54.4551 162.056 53.6092C161.999 52.7589 163.926 53.232 163.945 51.9934C163.961 50.9106 164.476 49.8744 165.675 49.4281C167.328 48.8121 168.753 46.2167 169.116 46.1911C169.475 46.1655 168.727 45.7639 167.827 46.315C166.93 46.8705 168.767 44.6368 169.719 44.341C170.303 44.1601 170.711 42.9703 170.913 42.6108C171.12 42.2427 169.577 43.5812 168.753 43.6531C168.027 43.7168 166.453 45.8431 164.832 46.2169C164.057 46.3958 162.725 47.1355 162.441 47.3021C162.582 47.1712 162.971 46.6761 163.45 46.1901C159.46 49.2012 155.726 52.7758 152.343 56.9479C152.437 56.9547 152.501 57.0138 152.527 57.1381C152.824 58.5671 153.606 55.8905 155.421 56.0057C157.235 56.1167 153.686 57.1532 154.901 57.3662C156.331 57.6166 157.274 55.9942 157.117 55.4375C156.823 54.395 159.739 53.4424 158.507 52.6688C157.274 51.8955 159.664 51.6102 159.761 52.4222C159.857 53.2298 160.146 53.5185 160.802 53.3648C161.458 53.2143 160.124 53.8028 159.905 54.344Z" fill="#B6EFEA"/>
<path d="M167.291 43.5078C166.456 44.0436 165.631 44.6041 164.814 45.1854C164.837 45.1776 164.86 45.1669 164.883 45.1602C165.343 45.0256 166.216 44.3468 167.291 43.5078Z" fill="#B6EFEA"/>
<path d="M173.172 50.2355C172.414 50.2721 172.992 49.1295 172.659 48.476C172.428 48.0239 173.212 45.764 174.946 45.5605C177.518 45.2588 180.145 43.1323 181.683 41.5643C182.892 40.3328 185.823 40.1821 186.003 38.9254C186.085 38.3578 186.245 37.1059 188.635 37.4928C191.429 37.9451 192.596 36.7884 193.769 37.42C194.978 38.071 197.575 38.0586 196.456 39.2649C195.337 40.4714 194.052 40.2828 193.563 41.4893C193.126 42.5691 191.403 43.902 190.632 44.0529C186.392 44.2661 186.556 47.2717 183.347 46.8053C182.262 46.6544 180.603 47.6721 178.945 47.446C177.286 47.2191 175.242 50.1347 173.172 50.2355Z" fill="#B6EFEA"/>
<path d="M202.489 43.0989C202.231 42.9987 201.666 41.6413 201.358 41.3898C201.049 41.1386 201.511 40.5682 202.254 40.8176C203.103 41.1025 204.7 40.5813 204.572 40.973C204.443 41.3647 203.415 41.1636 203.672 41.5406C203.929 41.9175 204.469 42.6715 203.878 42.4956C203.286 42.3195 203.1 41.817 202.859 42.2693C202.618 42.7221 202.625 43.1517 202.489 43.0989Z" fill="#B6EFEA"/>
<path d="M186.797 35.7406C185.933 35.8552 184.08 36.9676 185.659 37.4935C186.225 37.6682 187.916 36.7772 188.437 36.5324C188.957 36.2872 190.789 36.9848 192.062 36.5888C193.335 36.1931 194.492 36.8717 194.029 36.0235C193.567 35.1752 191.959 35.6991 191.291 35.3069C190.688 34.9537 189.71 35.2316 189.979 34.8546C190.249 34.4774 191.464 34.666 192.062 34.6847C192.457 34.6972 192.402 34.505 192.162 34.2969C190.947 34.4734 189.736 34.6843 188.53 34.93C188.202 35.4978 187.299 35.7406 186.797 35.7406Z" fill="#B6EFEA"/>
<path d="M215.692 35.0254C216.283 35.2859 216.869 35.381 217.448 35.4062C216.865 35.271 216.279 35.1455 215.692 35.0254Z" fill="#B6EFEA"/>
<path d="M219.991 36.0449C219.773 36.4396 220.176 36.5595 221.106 36.9825C222.05 37.4183 221.285 38.2216 220.669 37.8454C220.048 37.4695 219.047 37.6703 218.894 39.0248C218.736 40.3834 219.768 39.6784 219.869 40.7852C219.974 41.892 223.034 42.1908 221.928 42.1696C220.822 42.1438 220.463 42.9216 220.306 42.9984C220.153 43.0711 218.212 41.4132 217.814 42.1438C217.665 42.4173 218.868 42.9726 219.252 43.9512C219.637 44.9339 222.36 45.3868 222.212 45.6603C221.897 46.2373 221.088 44.947 219.06 45.0707C217.027 45.1989 216.503 44.6562 215.292 43.977C214.085 43.2976 215.113 40.8878 214.907 40.9091C214.702 40.9347 213.338 42.1441 213.801 43.6994C214.265 45.2589 219.436 46.0578 218.583 46.4296C216.905 47.1602 215.34 49.0872 215.261 48.4634C215.183 47.8438 213.238 46.656 214.103 47.861C214.973 49.0659 214.335 49.3137 213.967 49.5744C213.6 49.8394 213.928 50.5571 213.989 51.0098C214.046 51.4628 212.464 50.651 212.368 50.7622C212.272 50.8775 212.849 51.1596 213.102 51.7834C213.351 52.4028 211.135 50.7836 210.553 50.2152C209.976 49.6512 212.813 49.8948 213.273 49.0274C213.736 48.1642 211.27 47.673 207.834 46.955C204.403 46.2414 201.78 48.4247 201.819 48.8049C201.859 49.1809 199.428 51.9325 198.58 52.4239C193.139 54.1533 194.626 58.7886 197.383 57.2095C198.309 56.4572 198.694 57.3973 198.694 58.2647C198.694 59.132 200.316 60.7556 201.203 60.3028C202.091 59.8499 201.396 57.7775 202.436 57.3973C203.477 57.0213 203.323 55.7395 202.856 55.3635C202.392 54.9875 202.628 53.0264 203.634 53.0649C204.635 53.0991 204.403 51.9712 204.945 51.1035C205.483 50.2361 206.913 51.2146 206.449 51.5905C204.602 53.271 203.261 56.405 208.027 55.4017C210.304 54.9873 208.801 56.3417 208.337 56.3417C207.874 56.3417 204.482 55.816 206.178 57.2859C207.874 58.7556 206.217 58.3028 205.754 58.3413C205.291 58.3798 204.945 61.1698 203.94 60.9434C202.939 60.7169 201.164 61.8106 200.661 61.6566C200.159 61.5071 199.35 61.6226 198.388 61.5458C197.422 61.4688 198.655 58.3028 197.732 58.1916C196.806 58.0761 196.111 60.5073 195.975 61.2806C195.84 62.0542 193.505 61.9216 193.081 62.1096C192.657 62.2978 192.329 63.6562 191.464 63.8271C190.594 63.9937 190.441 65.0705 189.96 65.1857C189.475 65.3012 188.937 65.9675 188.526 65.9933C188.115 66.0189 187.857 65.1132 187.599 65.1902C187.341 65.2629 187.521 66.271 187.136 66.6472C185.433 66.925 183.399 64.8736 186.415 68.3306C187.036 69.0098 186.03 71.7743 185.335 72.1247C184.64 72.4791 181.558 71.5734 180.837 71.0437C180.115 70.5182 178.883 71.3983 179.394 72.2272C179.91 73.0562 178.752 73.8722 177.864 75.8718C176.981 77.8672 177.79 77.4187 178.559 78.7344C179.333 80.0548 180.797 79.1874 182.03 79.7898C183.267 80.3967 184.885 79.5678 185.619 78.7729C186.353 77.9824 186.659 76.4356 188.513 75.5684C190.362 74.701 190.519 73.0046 190.943 72.8938C191.367 72.7783 192.368 74.0987 193.103 73.496C193.833 72.8938 195.608 71.8767 196.421 73.872C197.229 75.8716 200.005 75.8716 200.622 77.679C201.242 79.4908 196.958 78.2857 197.614 80.1315C198.27 81.9772 202.104 79.5674 202.514 78.6619C202.925 77.756 202.72 76.0467 202.09 76.0467C201.465 76.0467 199.686 73.6326 198.707 72.7781C197.732 71.9236 199.376 69.2615 200.198 71.6244C201.024 73.9873 204.263 73.9873 204.311 75.5938C205.062 79.5379 208.849 85.459 207.86 77.6063C207.655 76.7003 210.483 75.897 210.483 77.6063C210.483 79.3153 214.317 80.8108 215.047 81.0372C215.782 81.2635 219.174 80.6226 219.371 80.2424C219.563 79.8664 220.564 80.3963 220.332 83.4126C220.101 86.4249 216.966 86.5786 216.503 86.5786C216.04 86.5786 214.96 87.7836 213.98 87.2325C213.006 86.677 207.834 85.5962 206.523 85.7241C205.211 85.8482 204.958 86.8779 205.238 87.382C205.522 87.8861 205.085 89.3945 203.953 88.2621C202.821 87.1297 201.369 88.0699 200.919 87.1811C200.198 85.7584 198.664 85.1859 198.078 85.2798C197.037 85.4549 194.117 84.7459 195.21 84.0407C196.11 83.4596 196.032 82.4896 195.7 82.0026C195.494 81.6993 196.032 81.5238 196.032 80.8488C196.032 80.1692 195.157 79.9772 193.798 80.4684C192.544 80.9214 191.534 81.3103 189.759 80.2933C186.638 78.5075 184.513 81.8017 182.817 81.6778C181.121 81.5496 180.4 79.0372 179.578 80.5456C178.752 82.0538 175.635 83.2204 174.529 84.2587C172.797 86.1279 174.001 88.5037 171.058 88.1209C168.597 88.1978 168.164 90.5736 168.164 91.2528C168.164 91.9321 165.301 93.9403 165.699 96.551C166.101 99.2043 161.782 99.3582 163.22 102.699C164.475 105.605 162.862 105.652 164.816 107.412C166.77 109.173 163.679 112.894 166.822 113.607C170.809 114.513 171.81 117.466 173.922 116.863C176.029 116.261 178.188 118.021 179.473 118.068C180.758 118.119 181.069 116.714 184.461 116.462C187.858 116.209 185.646 119.576 188.732 119.525C191.818 119.478 193.772 120.632 192.177 123.195C190.581 125.759 192.846 127.771 196.085 130.587C199.324 133.403 198.039 135.411 196.343 138.479C194.646 141.542 196.308 144.477 198.813 145.665C202.861 147.588 203.691 153.215 204.675 153.356C208.583 153.92 210.484 151.66 213.47 151.797C218.204 152.015 215.319 148.066 219.677 146.558C224.035 145.05 221.994 142.516 222.379 142.11C224.267 140.111 229.784 140.26 229.168 136.868C228.884 135.304 228.975 131.894 228.433 131.288C227.896 130.685 227.97 129.856 229.281 126.541C230.593 123.221 234.527 120.807 237.692 116.812C240.852 112.817 241.342 106.232 240.752 106.156C240.157 106.079 239.335 107.16 238.308 107.638C237.281 108.117 234.964 108.215 234.09 108.946C233.216 109.676 231.778 109.322 232.315 108.318C232.857 107.313 231.367 106.006 229.439 105.075C227.507 104.143 226.816 101.456 226.147 101.204C225.478 100.951 224.884 97.4096 224.01 96.8071C223.136 96.2047 223.341 95.3501 221.697 93.2137C220.049 91.0773 220.386 87.2321 221.85 90.4706C223.319 93.7134 225.837 92.8335 226.379 95.7003C227.74 101.514 231.383 98.8768 232.315 105.754C232.884 108.745 236.105 106.925 236.792 105.301C237.666 103.225 240.547 103.178 241.395 101.281C241.78 100.426 243.581 100.435 243.992 98.5418C244.271 97.2514 245.819 97.5591 245.74 96.3671C245.662 95.1708 246.33 93.1754 246.256 92.0816C246.177 90.9877 244.267 90.4964 243.497 90.6288C242.724 90.7612 242.134 87.6979 241.797 88.706C241.469 89.6844 239.292 92.3806 238.811 90.8168C238.331 89.2528 237.517 89.7058 237.671 90.6671C237.828 91.6284 235.987 89.2826 234.934 87.7831C233.487 85.7279 234.606 84.5017 235.533 85.899C236.455 87.2917 238.654 86.4245 242.667 87.7831C246.68 89.1418 249.416 83.7882 250.422 86.5013C251.423 89.2145 254.972 86.8045 255.471 90.65C255.973 94.4956 259.405 95.7771 259.868 98.7938C260.332 101.806 262.028 102.221 261.682 100.904C261.337 99.5843 262.185 97.4735 262.146 95.8928C262.106 94.3119 261.035 93.0642 261.914 90.1589C263.033 86.463 261.066 78.2808 262.915 81.6008C264.827 85.1678 265.722 83.084 267.006 86.5599C262.924 60.4005 243.135 42.3242 219.991 36.0449ZM218.5 132.554C218.081 132.708 217.132 130.763 217.036 130.631C216.94 130.499 217.053 128.388 216.861 128.084C216.669 127.785 217.206 128.123 217.438 129.443C217.67 130.763 219.117 132.327 218.5 132.554ZM212.568 76.5005C212.026 76.5005 211.589 76.3594 211.589 76.1841C211.916 75.4154 215.152 76.2504 212.568 76.5005ZM222.977 137.057C223.536 138.018 222.763 137.322 222.763 137.322C222.378 137.023 222.146 135.647 222.339 134.985C222.531 134.327 222.199 133.233 222.269 133.1C223.487 134.032 222.28 135.752 222.977 137.057ZM222.719 123.35C223.06 123.726 221.748 124.957 221.696 125.384C221.643 125.812 220.996 126.465 220.179 125.987C219.602 125.649 220.004 124.495 220.179 124.205C220.476 123.701 222.378 122.97 222.719 123.35ZM222.881 74.488C222.321 75.3 220.52 74.6889 220.332 74.3898C219.908 73.702 217.91 73.1378 216.861 74.0139C216.459 74.3471 214.754 75.4964 213.006 75.27C212.398 75.1888 211.358 73.8855 212.158 73.2063C212.953 72.5269 213.364 71.5484 213.286 70.6425C213.211 69.7411 214.649 68.8609 214.803 69.412C215.012 70.1426 216.114 69.6641 215.908 70.2152C215.703 70.7707 216.385 70.7965 216.687 71.8174C216.888 72.4839 217.285 70.8092 217.828 70.7066C218.365 70.604 217.067 70.0701 217.452 69.2496C217.841 68.4336 219.226 68.0788 219.305 68.5319C219.384 68.9847 220.101 68.9591 219.821 69.412C219.537 69.8648 218.837 70.1041 219.139 70.4245L221.569 71.6508C222.238 73.0086 225.667 72.3639 222.881 74.488ZM235.606 76.7781C235.182 77.2865 233.639 77.7096 233.254 77.1926C232.817 76.5986 231.208 76.6373 231.365 75.2998C231.536 73.7999 231.697 73.1676 230.941 73.1207C229.757 73.0439 228.681 71.4116 228.458 70.9843C228.253 70.5913 228.498 70.1682 227.737 69.5357C227.422 69.2752 227.457 68.3353 228.498 68.0788C228.987 67.9593 228.974 67.5404 229.166 66.9168C229.359 66.2972 230.688 66.4295 230.709 67.1047C230.727 67.784 229.966 67.8055 229.936 68.22C229.862 69.3137 230.631 70.2367 231.768 70.6127C232.908 70.9887 233.455 72.5696 233.468 72.9881C233.485 73.6377 235.107 74.1547 235.203 75.0606C235.3 75.9665 236.03 76.2655 235.606 76.7781Z" fill="#B6EFEA"/>
<path d="M215.611 158.672H87.5567C86.7579 158.672 86.1104 157.185 86.1104 155.351C86.1104 153.517 86.7581 152.029 87.5567 152.029H215.611C216.41 152.029 217.057 153.517 217.057 155.351C217.057 157.185 216.41 158.672 215.611 158.672Z" fill="#159D9B"/>
<path d="M211.545 59.4473H91.6154C90.6283 59.4473 89.8291 60.357 89.8291 61.4793V68.9518H89.8503C89.9287 67.8079 90.785 66.9089 91.8291 66.9089H211.348C212.392 66.9089 213.245 67.8077 213.323 68.9518C213.328 69.0094 213.33 69.067 213.33 69.1247V61.4793C213.33 60.357 212.53 59.4473 211.545 59.4473Z" fill="#159D9B"/>
<path d="M213.329 68.9531V69.126C213.329 69.0684 213.327 69.0107 213.322 68.9531H213.329Z" fill="#C29BF9"/>
<path d="M213.328 69.1258V149.818C213.328 151.041 212.442 152.033 211.347 152.033H91.8269C90.7313 152.033 89.8428 151.041 89.8428 149.818V69.1258C89.8428 67.9021 90.7315 66.9102 91.8269 66.9102H211.347C212.442 66.9102 213.328 67.9019 213.328 69.1258Z" fill="white"/>
<path d="M211.348 152.256H91.8283C90.6092 152.256 89.6172 151.162 89.6172 149.819V69.1267C89.6172 67.7827 90.609 66.6895 91.8283 66.6895H211.348C212.566 66.6895 213.557 67.7827 213.557 69.1267V149.819C213.557 151.162 212.566 152.256 211.348 152.256ZM91.8283 67.1327C90.8592 67.1327 90.0707 68.0271 90.0707 69.1267V149.819C90.0707 150.918 90.8592 151.812 91.8283 151.812H211.348C212.316 151.812 213.103 150.918 213.103 149.819V69.1267C213.103 68.0271 212.316 67.1327 211.348 67.1327H91.8283Z" fill="#292E30"/>
<path d="M232.521 132.4H130.317C129.409 132.4 128.673 131.681 128.673 130.794V92.1379C128.673 91.2506 129.409 90.5312 130.317 90.5312H232.521C233.429 90.5312 234.165 91.2506 234.165 92.1379V130.794C234.165 131.681 233.429 132.4 232.521 132.4Z" fill="#3DC9C2"/>
<path d="M232.521 132.401H137.149C136.241 132.401 135.505 131.682 135.505 130.795V97.2903C135.505 96.4029 136.241 95.6836 137.149 95.6836H232.521C233.429 95.6836 234.164 96.4029 234.164 97.2903V130.795C234.165 131.682 233.429 132.401 232.521 132.401Z" fill="#159D9B"/>
<path d="M162.243 105.924L158.131 121.34H153.481L150.964 111.194L148.358 121.34H143.707L139.708 105.924H143.82L146.089 117.146L148.897 105.924H153.121L155.817 117.146L158.109 105.924H162.243Z" fill="white"/>
<path d="M185.879 105.924L181.767 121.34H177.116L174.6 111.194L171.994 121.34H167.343L163.344 105.924H167.455L169.725 117.146L172.533 105.924H176.757L179.453 117.146L181.745 105.924H185.879Z" fill="white"/>
<path d="M209.513 105.924L205.401 121.34H200.75L198.234 111.194L195.628 121.34H190.977L186.978 105.924H191.089L193.358 117.146L196.167 105.924H200.391L203.087 117.146L205.379 105.924H209.513Z" fill="white"/>
<path d="M235.045 114.835L219.168 108.19C218.214 107.791 216.774 108.667 216.719 109.68L215.804 126.537C215.755 127.451 216.894 127.798 217.912 127.179L221.547 124.968C224.362 131.839 227.178 138.71 229.993 145.581C230.254 146.217 231.214 146.336 232.038 145.834L245.586 137.594C246.411 137.093 246.726 136.199 246.257 135.689C241.194 130.185 236.131 124.681 231.068 119.177L234.703 116.966C235.721 116.347 235.906 115.195 235.045 114.835Z" fill="white"/>
<path d="M195.538 18.2721C203.486 15.1297 214.187 39.8135 214.665 41.7321C214.665 41.7321 216.265 45.9038 211.665 47.0809C209.629 47.602 207.973 46.1913 207.973 46.1913C205.137 44.0847 186.094 22.0064 195.538 18.2721Z" fill="#FFA293"/>
<path d="M196.536 32.26C196.536 32.26 186.581 18.2163 193.403 16.1212C200.183 14.0386 207.997 27.641 207.997 27.641L196.536 32.26Z" fill="#81319B"/>
<path d="M188.105 11.5546C188.105 11.5546 183.763 9.76315 183.687 8.21711C183.611 6.67087 184.415 6.42364 184.415 6.42364C184.415 6.42364 183.008 5.48087 183.758 4.34224C184.509 3.20362 184.401 2.36662 184.743 1.89453L188.837 4.39826C188.837 4.39826 189.334 8.59108 188.974 9.49275C188.468 10.7555 188.105 11.5546 188.105 11.5546Z" fill="#323536"/>
<path d="M188.163 15.687L193.245 16.9334L192.645 11.6943L192.573 11.0765L192.55 10.871L192.534 10.7549L192.436 10.0632L187.806 8.90625L187.929 11.2331L187.995 12.5079L188.163 15.687Z" fill="#FFA293"/>
<path d="M188.182 15.0313L184.306 16.5134L182.24 31.1398L200.128 24.7334L196.843 16.1828L192.959 14.5215L188.182 15.0313Z" fill="#FFA293"/>
<path d="M192.652 11.9376C190.444 12.8447 188.597 10.7526 188.512 10.6625C187.57 9.66517 186.861 7.77559 186.775 6.44534C186.593 3.65691 189.978 1.4665 192.496 2.91522C195.012 4.36495 194.523 6.90152 194.523 6.90152L194.542 7.00327C194.575 7.47415 194.751 11.077 192.652 11.9376Z" fill="#FFA293"/>
<path d="M188.951 6.49025C188.951 6.49025 189.22 6.12958 189.632 6.00849C190.044 5.88739 190.27 6.14207 190.268 6.25169C190.266 6.3613 189.904 6.32986 189.598 6.49932C189.292 6.66877 188.959 6.71048 188.951 6.49025Z" fill="#323536"/>
<path d="M193.686 6.1542C193.686 6.1542 193.366 5.83544 192.941 5.77418C192.515 5.71293 192.33 5.99683 192.348 6.10503C192.366 6.21323 192.72 6.13082 193.048 6.25494C193.376 6.37906 193.711 6.37322 193.686 6.1542Z" fill="#323536"/>
<path d="M190.153 7.44949C190.165 7.66871 190.047 7.85267 189.89 7.86053C189.733 7.86838 189.596 7.69712 189.585 7.4779C189.573 7.25867 189.691 7.07471 189.848 7.06665C190.005 7.059 190.142 7.23026 190.153 7.44949Z" fill="#323536"/>
<path d="M193.285 7.32839C193.297 7.54761 193.179 7.73158 193.022 7.73943C192.865 7.74729 192.728 7.57602 192.717 7.3568C192.705 7.13758 192.823 6.95362 192.98 6.94556C193.137 6.9379 193.274 7.10917 193.285 7.32839Z" fill="#323536"/>
<path d="M191.979 10.7001C191.898 10.7001 191.811 10.6934 191.718 10.6789C190.795 10.5353 190.674 9.99566 190.623 9.76515L190.617 9.73715C190.589 9.61786 190.666 9.49919 190.788 9.47219C190.91 9.44559 191.032 9.51994 191.059 9.63963L191.066 9.67106C191.111 9.87114 191.172 10.1452 191.789 10.2411C192.367 10.3315 192.491 10.0071 192.503 9.96987C192.541 9.85462 192.667 9.78772 192.785 9.82339C192.903 9.85824 192.972 9.97712 192.938 10.0934C192.874 10.3203 192.593 10.7001 191.979 10.7001Z" fill="#323536"/>
<path d="M192.159 9.25819C192.081 9.25819 192 9.2451 191.918 9.2179C191.8 9.1784 191.736 9.05247 191.777 8.93662C191.818 8.82076 191.946 8.7589 192.065 8.79859C192.168 8.83325 192.249 8.81572 192.305 8.74681C192.306 8.70027 192.187 8.50341 192.136 8.41939C191.975 8.15403 191.799 7.6374 191.792 7.61544C191.752 7.49918 191.817 7.37385 191.936 7.33557C192.055 7.29688 192.183 7.36035 192.222 7.47641C192.269 7.61282 192.413 8.00734 192.526 8.19352C192.679 8.44639 192.87 8.76112 192.662 9.02044C192.537 9.17518 192.356 9.25819 192.159 9.25819Z" fill="#323536"/>
<path d="M184.662 2.02955C184.662 2.02955 185.041 1.307 185.62 1.12485C186.199 0.942506 186.736 1.36725 187.075 1.32977C187.415 1.29229 187.568 0.0454688 189.322 0.00154379C191.076 -0.0425827 191.285 0.873193 191.752 0.961648C192.219 1.0503 193.079 1.21694 194.24 1.06824C195.402 0.919536 195.49 3.0497 195.711 3.226C195.931 3.40231 197.647 3.98885 197.557 5.33561C197.466 6.68258 196.019 6.90382 196.019 6.90382C196.019 6.90382 196.917 6.16334 196.851 5.76277C196.785 5.36221 196.654 5.12223 196.654 5.12223C196.654 5.12223 196.809 5.91248 196.353 6.27154C195.896 6.6308 195.543 6.84438 195.543 6.84438C195.543 6.84438 195.809 7.70958 194.561 7.8212C194.561 7.8212 194.373 6.16011 194.193 5.18873C194.014 4.21714 193.979 4.20545 193.867 4.21996C193.754 4.23446 193.358 4.83047 192.277 4.9687C191.195 5.10712 189.455 4.9153 188.762 4.79421C188.068 4.67311 187.859 5.8067 188.046 6.22378C188.234 6.64087 187.151 7.13251 187.119 7.63362C187.088 8.13492 186.859 9.60782 186.859 9.60782C186.859 9.60782 186.384 9.62032 185.818 8.45771C185.253 7.29511 184.662 2.02955 184.662 2.02955Z" fill="#323536"/>
<path d="M195.452 2.95508C195.452 2.95508 196.57 3.0661 197.05 3.36451C197.53 3.66292 197.585 4.23354 197.585 4.23354C197.585 4.23354 197.404 3.81262 196.951 3.57265C196.499 3.33267 195.703 3.31293 195.703 3.31293L195.452 2.95508Z" fill="#323536"/>
<path d="M195.153 2.08861C195.153 2.08861 195.493 2.79101 196.026 2.81902C196.559 2.84703 197.118 2.52283 197.137 2.11138C197.156 1.69994 196.959 1.47266 196.959 1.47266C196.959 1.47266 196.925 2.27096 196.641 2.4517C196.358 2.63224 195.722 2.38884 195.562 2.20487C195.402 2.02091 194.99 1.57723 194.99 1.57723L195.153 2.08861Z" fill="#323536"/>
<path d="M185.614 5.69553C185.919 5.31875 186.431 5.43319 186.853 5.62985C187.244 5.8122 187.461 6.14043 187.387 6.46483C187.208 7.2456 187.787 8.08643 187.93 8.90387C185.012 8.74228 185.028 6.4205 185.614 5.69553Z" fill="#FFA293"/>
<path d="M186.06 6.32195C186.27 6.25083 186.577 6.28649 186.689 6.44829C186.738 6.51922 186.606 6.58168 186.542 6.51297C186.493 6.45998 186.403 6.43358 186.317 6.45192C186.242 6.46804 186.177 6.52909 186.143 6.57805C186.039 6.72715 186.144 6.91132 186.228 7.05498C186.311 7.19844 186.422 7.33525 186.551 7.46098C186.688 7.59437 186.876 7.69512 187.013 7.82629C187.144 7.95101 186.908 8.1257 186.727 8.04249C186.587 7.97841 186.482 7.87888 186.381 7.78599C186.287 7.69995 186.203 7.60868 186.127 7.51438C185.972 7.32095 185.841 7.10616 185.786 6.88714C185.737 6.6923 185.779 6.41746 186.06 6.32195Z" fill="#323536"/>
<path d="M191.589 12.3015C190.373 12.3015 188.463 11.7996 187.317 8.98734C187.27 8.8737 187.327 8.74475 187.444 8.69941C187.56 8.65408 187.692 8.70949 187.738 8.82333C189.347 12.7697 192.444 11.7728 192.576 11.7284C192.695 11.6883 192.823 11.7496 192.865 11.8648C192.906 11.9803 192.844 12.1064 192.726 12.1469C192.713 12.1514 192.255 12.3015 191.589 12.3015Z" fill="#323536"/>
<path d="M187.486 9.12418C187.194 9.12418 186.878 9.10041 186.69 9.01397C186.577 8.96158 186.529 8.8294 186.582 8.71878C186.636 8.60837 186.771 8.56061 186.884 8.6132C187.076 8.70166 187.7 8.68856 188.082 8.65088C188.208 8.63899 188.318 8.72765 188.33 8.84935C188.343 8.97105 188.252 9.07985 188.127 9.09215C188.041 9.10081 187.776 9.12418 187.486 9.12418Z" fill="#323536"/>
<path d="M213.646 60.2051L215.284 71.4068L225.077 68.7953L221.633 57.8398L213.646 60.2051Z" fill="#FFA293"/>
<path d="M240.605 82.3059C240.603 82.3059 240.603 82.3079 240.603 82.3079C240.358 84.0969 237.724 85.08 234.216 83.7707C228.509 81.6417 213.002 73.237 213.002 73.237C213.057 72.6333 213.143 72.0701 213.251 71.5549C213.756 69.0937 214.709 67.6591 214.709 67.6591C216.794 69.7695 220.012 69.8966 220.012 69.8966C221.156 67.0729 224.256 66.1719 224.256 66.1719C224.256 66.1719 232.155 74.7242 237.705 78.2569C239.925 79.6718 240.761 81.1545 240.605 82.3059Z" fill="#292E30"/>
<path d="M240.603 82.3057C240.358 84.0947 237.724 85.0778 234.216 83.7685C228.509 81.6396 213.002 73.2348 213.002 73.2348C213.057 72.6311 213.143 72.0679 213.251 71.5527C213.251 71.5527 231.197 81.3831 234.756 82.4975C238.33 83.6178 240.174 83.1689 240.603 82.3057Z" fill="white"/>
<path d="M224.559 71.8751C224.515 71.8751 224.471 71.8628 224.432 71.8372C224.328 71.7687 224.301 71.6311 224.371 71.5298C224.417 71.4629 225.516 69.8794 226.926 69.0347C227.033 68.9706 227.173 69.0035 227.238 69.1078C227.304 69.2122 227.27 69.3488 227.163 69.4127C225.838 70.206 224.758 71.7615 224.747 71.7772C224.703 71.8409 224.631 71.8751 224.559 71.8751Z" fill="white"/>
<path d="M226.558 73.6194C226.513 73.6194 226.467 73.6063 226.428 73.5791C226.325 73.5088 226.3 73.3707 226.372 73.2704C226.407 73.2212 227.255 72.0504 228.864 70.7687C228.962 70.6911 229.104 70.7056 229.183 70.8003C229.262 70.8952 229.248 71.0349 229.151 71.112C227.594 72.3524 226.752 73.5134 226.743 73.5249C226.699 73.5863 226.629 73.6194 226.558 73.6194Z" fill="white"/>
<path d="M228.662 75.6364C228.62 75.6364 228.577 75.625 228.539 75.6008C228.434 75.5343 228.404 75.3971 228.472 75.2945C228.509 75.2385 229.399 73.9101 231.002 72.7283C231.103 72.6544 231.244 72.6743 231.32 72.7718C231.395 72.8696 231.375 73.0086 231.275 73.0821C229.739 74.2145 228.861 75.5224 228.853 75.5355C228.809 75.601 228.736 75.6364 228.662 75.6364Z" fill="white"/>
<path d="M181.725 58.5616L179.301 51.0623C179.301 51.0623 189.217 45.5793 200.839 39.0954C212.558 32.5568 217.429 33.4871 217.429 33.4871L217.43 33.4893C219.237 33.5987 220.957 34.4224 222.063 35.8933C224.057 38.5463 223.295 42.2819 220.356 44.2213C220.122 44.3762 219.878 44.509 219.631 44.6319C209.22 50.5576 181.725 58.5616 181.725 58.5616Z" fill="#D299E4"/>
<path d="M208.073 38.8699C208.439 32.4236 220.432 32.9175 222.767 37.23L222.861 37.4123C226.019 43.0428 229.853 65.2685 229.853 65.2685L213.201 68.5516C207.949 44.4551 208.073 38.8699 208.073 38.8699Z" fill="#AC77BD"/>
<path d="M202.67 76.6939L203.5 88.7924L213.027 88.2782L211.844 76.4102L202.67 76.6939Z" fill="#FFA293"/>
<path d="M225.832 101.564C225.482 102.782 224.225 103.582 221.658 102.913C216.068 101.454 199.028 90.5322 199.028 90.5322C199.148 90.0379 199.318 89.5576 199.522 89.1022C200.747 86.3708 203.201 84.4044 203.201 84.4044C203.891 85.4546 206.958 86.9801 206.958 86.9801C209.142 85.1342 212.574 83.6035 212.574 83.6035C212.574 83.6035 221.343 95.6295 223.951 97.1866C225.391 98.0456 226.259 100.103 225.832 101.564Z" fill="#292E30"/>
<path d="M225.832 101.565C225.482 102.784 224.225 103.583 221.658 102.914C216.068 101.456 199.028 90.5335 199.028 90.5335C199.148 90.0392 199.318 89.5589 199.522 89.1035C199.522 89.1035 215.216 98.5401 218.965 100.291C222.728 102.048 224.999 102.282 225.832 101.565Z" fill="white"/>
<path d="M211.785 89.5834C211.733 89.5834 211.681 89.566 211.638 89.5302C211.543 89.4506 211.532 89.3108 211.613 89.2177C211.679 89.1417 213.258 87.3476 214.868 86.609C214.981 86.5568 215.116 86.6049 215.169 86.7156C215.223 86.8262 215.174 86.9584 215.06 87.0103C213.54 87.7079 211.973 89.4879 211.958 89.5056C211.913 89.557 211.849 89.5834 211.785 89.5834Z" fill="white"/>
<path d="M213.696 91.711C213.646 91.711 213.597 91.695 213.555 91.6622C213.457 91.5856 213.441 91.4462 213.52 91.3507C213.57 91.2892 214.775 89.8315 216.624 88.8083C216.733 88.7476 216.871 88.7853 216.933 88.8919C216.995 88.9985 216.956 89.1337 216.847 89.1939C215.077 90.1734 213.885 91.6132 213.873 91.6275C213.829 91.6823 213.763 91.711 213.696 91.711Z" fill="white"/>
<path d="M215.616 93.8596C215.563 93.8596 215.51 93.842 215.468 93.806C215.372 93.7262 215.362 93.5861 215.444 93.4933C215.508 93.4205 217.028 91.7036 218.402 91.059C218.515 91.0059 218.65 91.0528 218.705 91.163C218.759 91.2732 218.711 91.4058 218.598 91.4586C217.309 92.0637 215.802 93.7653 215.787 93.7824C215.743 93.8334 215.679 93.8596 215.616 93.8596Z" fill="white"/>
<path d="M173.198 51.0082L182.085 43.6074L184.7 45.22C184.7 45.22 186.133 46.0251 196.931 44.3668C206.645 42.875 209.995 46.2798 210.41 46.6447L210.409 46.6485C211.194 47.3128 212.015 48.3124 212.369 49.3209C213.47 52.4577 211.414 55.7072 208.026 56.741C207.517 56.8966 207.003 56.9822 206.492 57.0172L206.489 57.0245C201.949 57.3189 190.191 60.6263 181.864 59.1994C173.617 57.7861 173.198 51.0082 173.198 51.0082Z" fill="#D299E4"/>
<path d="M198.287 50.7202C198.293 50.7017 200.417 45.6864 207.179 45.9898C210.421 46.2239 212.016 48.7716 212.016 48.7716C212.016 48.7726 212.328 49.2491 212.368 49.3239C212.844 50.1522 213.768 53.6422 214.521 62.5796C215.494 75.9733 216.142 82.9829 216.142 82.9829L199.413 83.7895C199.413 83.7895 195.159 57.6237 198.287 50.7202Z" fill="#D299E4"/>
<path d="M173.199 51.0081C174.25 50.3689 175.148 49.8455 177.905 49.3107C179.505 48.9994 180.428 48.7937 182.299 48.4084C183.529 48.1556 187.107 47.031 190.535 46.3147C197.091 44.945 201.175 40.7594 201.175 40.7594C201.175 40.7594 201.322 36.6246 201.153 26.458C201.106 23.6567 200.817 20.7365 199.629 18.6581H199.627C199.625 18.6561 199.625 18.6539 199.625 18.6539C199.3 18.0879 198.907 17.5844 198.434 17.1624C196.415 15.3659 192.978 14.5273 192.978 14.5273C192.978 14.5273 195.972 18.0814 192.365 18.1234C187.732 18.1798 188.101 14.7089 188.101 14.7089C187.893 14.7401 186.366 15.0359 185.74 15.1217C181.919 15.6452 179.738 16.7149 179.732 16.7337C179.636 16.9865 178.852 20.0494 178.296 22.6815C177.155 28.0959 176.868 35.0855 174.718 39.3802C174.656 39.5056 174.129 40.9762 173.613 42.5428C173.613 42.5471 173.611 42.5533 173.609 42.5575C173.581 42.6412 173.554 42.7226 173.53 42.8019C173.083 44.166 172.667 45.5531 172.587 46.1588C172.258 48.7008 173.199 51.0081 173.199 51.0081Z" fill="#81319B"/>
<path d="M201.206 39.2328C201.203 39.2328 201.2 39.2326 201.197 39.2326C201.072 39.2278 200.974 39.1244 200.979 39.0021C201.508 26.2407 199.863 19.6745 199.847 19.6096C199.816 19.491 199.89 19.3705 200.011 19.3407C200.133 19.311 200.256 19.3828 200.286 19.5014C200.303 19.5667 201.964 26.1855 201.432 39.0201C201.427 39.1394 201.327 39.2328 201.206 39.2328Z" fill="#323536"/>
<path d="M188.11 14.6981C188.11 14.6981 188.035 17.735 191.625 18.0668C195.478 18.4001 193.481 15.2871 192.959 14.5194C192.959 14.5194 193.449 14.4555 193.768 14.7549C193.768 14.7549 195.857 17.6137 193.986 18.4204C191.657 19.4035 188.558 18.4974 187.701 16.6443C187.047 15.3223 187.304 14.822 187.304 14.822C187.304 14.822 187.689 14.4088 188.11 14.6981Z" fill="white"/>
<path d="M216.14 83.1993C216.02 83.1993 215.919 83.1062 215.914 82.9871C215.902 82.7177 214.705 55.9579 212.155 49.3974C209.656 42.9694 200.862 44.2074 200.773 44.2209C200.649 44.2394 200.533 44.1562 200.514 44.0353C200.495 43.9144 200.58 43.8012 200.704 43.7826C200.796 43.7685 209.951 42.4806 212.579 49.24C215.155 55.8674 216.319 81.8648 216.367 82.9684C216.373 83.0907 216.275 83.194 216.15 83.1993C216.147 83.1993 216.144 83.1993 216.14 83.1993Z" fill="#323536"/>
<path d="M197.14 58.5935C197.018 58.5935 196.917 58.4986 196.913 58.3785C196.912 58.3159 196.871 56.818 197.224 54.4436C197.242 54.3223 197.356 54.2387 197.481 54.2562C197.605 54.2738 197.691 54.3864 197.673 54.5075C197.326 56.8399 197.366 58.3505 197.367 58.3654C197.37 58.4877 197.272 58.5899 197.147 58.5935C197.145 58.5935 197.142 58.5935 197.14 58.5935Z" fill="#323536"/>
<path d="M181.941 16.7755C173.464 15.5231 168.92 41.9609 168.912 43.9357C168.912 43.9357 168.346 48.3566 173.1 48.4574C175.204 48.5019 176.479 46.7541 176.479 46.7541C178.737 44.061 192.014 18.2637 181.941 16.7755Z" fill="#FFA293"/>
<path d="M170.349 32.3267C170.349 32.3267 176.146 35.351 182.863 36.3418C182.863 36.3418 189.848 18.0291 183.015 16.1889C176.182 14.3486 170.349 32.3267 170.349 32.3267Z" fill="#81319B"/>
<path d="M182.864 36.5693C182.837 36.5693 182.81 36.5647 182.784 36.5552C182.667 36.5123 182.607 36.3845 182.651 36.2699C182.685 36.1806 186.067 27.2703 185.777 21.5766C185.771 21.4543 185.867 21.3503 185.992 21.3442C186.115 21.336 186.224 21.4323 186.23 21.5546C186.525 27.34 183.11 36.3352 183.076 36.4254C183.042 36.5143 182.956 36.5693 182.864 36.5693Z" fill="#323536"/>
<path d="M173.468 48.4585C180.425 48.2625 189.264 44.5992 189.118 44.6171L188.433 38.5117C175.233 38.8017 172.6 40.6443 172.125 40.799C172.125 40.799 169.394 41.4523 169.093 44.1351C168.645 48.1347 172.926 48.4674 173.468 48.4585Z" fill="#FFA293"/>
<path d="M188.435 38.5154L194.889 37.5996L194.472 43.0465L188.76 44.7525L188.435 38.5154Z" fill="#FFA293"/>
<path d="M190.387 38.2482C190.387 38.2482 192.417 36.2318 195.112 36.1746C197.808 36.1174 205.021 39.1708 205.366 39.8909C205.71 40.6112 204.886 41.2441 204.886 41.2441C204.886 41.2441 205.706 42.5157 205.228 43.3612C204.749 44.2067 201.674 44.4958 200.636 43.9854C199.598 43.475 197.35 41.9886 196.961 41.903C196.571 41.8176 193.231 44.1706 192.235 44.2153C191.239 44.26 189.508 43.9598 189.508 43.9598L190.387 38.2482Z" fill="#FFA293"/>
<path d="M227.261 28.13C227.261 28.13 227.031 27.5207 225.953 27.4965L204.751 27.4902L199.712 43.0824H200.653L227.261 28.13Z" fill="#EAEAEA"/>
<path d="M190.524 44.3208H200.272H221.963L227.261 28.127H205.571L200.652 43.0794H190.524V44.3208Z" fill="white"/>
<path d="M200.652 44.3208H221.963L227.261 28.127H224.732C220.602 43.6365 206.707 41.3371 200.652 44.3208Z" fill="#EAEAEA"/>
<path d="M214.985 33.4727C213.522 33.4727 212.331 34.6369 212.331 36.0677C212.331 37.4982 213.521 38.6627 214.985 38.6627C216.45 38.6627 217.64 37.4984 217.64 36.0677C217.64 34.6369 216.45 33.4727 214.985 33.4727ZM214.985 38.4136C213.662 38.4136 212.586 37.3614 212.586 36.0677C212.586 34.7747 213.662 33.7217 214.985 33.7217C216.309 33.7217 217.385 34.7749 217.385 36.0677C217.385 37.3614 216.309 38.4136 214.985 38.4136Z" fill="#292E30"/>
<path d="M214.984 37.9125C216.028 37.9125 216.875 37.0852 216.875 36.0647C216.875 35.0441 216.028 34.2168 214.984 34.2168C213.94 34.2168 213.094 35.0441 213.094 36.0647C213.094 37.0852 213.94 37.9125 214.984 37.9125Z" fill="#292E30"/>
<path d="M174.115 40.271C174.024 40.271 173.938 40.2164 173.904 40.1279C173.859 40.0135 173.918 39.8855 174.035 39.8422C176.375 38.9732 181.714 38.6149 181.94 38.6002C182.071 38.5913 182.173 38.6844 182.182 38.8065C182.19 38.9286 182.096 39.0344 181.971 39.0425C181.916 39.0461 176.473 39.4112 174.196 40.2566C174.17 40.2661 174.142 40.271 174.115 40.271Z" fill="#323536"/>
<path d="M182.239 36.4713C182.227 36.4713 182.213 36.4703 182.2 36.4678C176.217 35.4467 170.839 32.8231 170.785 32.7967C170.673 32.7417 170.628 32.6085 170.684 32.4991C170.741 32.3897 170.878 32.3455 170.989 32.4008C171.042 32.4267 176.363 35.0215 182.278 36.0312C182.402 36.0522 182.484 36.167 182.463 36.2875C182.443 36.3953 182.347 36.4713 182.239 36.4713Z" fill="#323536"/>
<path d="M153.994 28.7689H140.643C139.362 28.7689 138.32 27.7504 138.32 26.4985V16.6317C138.32 15.3799 139.362 14.3613 140.643 14.3613H153.994C155.275 14.3613 156.317 15.3799 156.317 16.6317V26.4985C156.317 27.7506 155.275 28.7689 153.994 28.7689ZM140.643 14.7647C139.59 14.7647 138.733 15.6023 138.733 16.6321V26.4989C138.733 27.5286 139.59 28.3664 140.643 28.3664H153.994C155.048 28.3664 155.905 27.5288 155.905 26.4989V16.6321C155.905 15.6025 155.048 14.7647 153.994 14.7647H140.643Z" fill="#292E30"/>
<path d="M153.998 28.7973H140.647C139.355 28.7973 138.304 27.7697 138.304 26.5068V16.64C138.304 15.377 139.355 14.3496 140.647 14.3496H153.998C155.29 14.3496 156.342 15.377 156.342 16.64V26.5068C156.341 27.7697 155.29 28.7973 153.998 28.7973ZM140.647 14.7929C139.605 14.7929 138.757 15.6216 138.757 16.64V26.5068C138.757 27.5253 139.605 28.354 140.647 28.354H153.998C155.04 28.354 155.888 27.5253 155.888 26.5068V16.64C155.888 15.6214 155.04 14.7929 153.998 14.7929H140.647Z" fill="#292E30"/>
<path d="M149.969 24.6534C149.882 24.6534 149.798 24.6038 149.761 24.5206C149.737 24.4682 149.141 23.2159 147.319 23.1972C147.305 23.197 147.291 23.197 147.278 23.197C145.475 23.197 144.867 24.4349 144.861 24.4476C144.808 24.5587 144.673 24.6066 144.56 24.5556C144.447 24.5043 144.397 24.3725 144.45 24.2615C144.479 24.1994 145.189 22.7539 147.277 22.7539C147.292 22.7539 147.308 22.7541 147.324 22.7541C149.448 22.7761 150.148 24.2788 150.176 24.3427C150.227 24.4547 150.175 24.5855 150.06 24.6346C150.03 24.6473 149.999 24.6534 149.969 24.6534Z" fill="#81319B"/>
<path d="M151.225 23.1578C151.142 23.158 151.062 23.1126 151.022 23.0345C150.98 22.952 149.951 21.0038 147.312 21.0038C144.745 21.0038 143.606 22.9168 143.595 22.9363C143.533 23.0427 143.395 23.0802 143.286 23.0199C143.177 22.9595 143.139 22.8243 143.2 22.7177C143.251 22.6297 144.484 20.5605 147.311 20.5605C150.24 20.5605 151.381 22.7447 151.428 22.8378C151.484 22.9474 151.438 23.0804 151.326 23.1348C151.294 23.1503 151.259 23.1578 151.225 23.1578Z" fill="#81319B"/>
<path d="M152.151 21.6975C152.068 21.6975 151.987 21.6524 151.948 21.5742C151.895 21.4709 150.624 19.0429 147.461 19.0429C147.459 19.0429 147.459 19.0429 147.457 19.0429C144.099 19.0447 142.725 21.3532 142.669 21.4515C142.607 21.5579 142.469 21.5958 142.36 21.5357C142.251 21.4757 142.212 21.3411 142.273 21.2345C142.335 21.1269 143.824 18.6014 147.457 18.5996C147.458 18.5996 147.459 18.5996 147.46 18.5996C150.913 18.5996 152.341 21.3504 152.354 21.378C152.41 21.4878 152.364 21.6204 152.252 21.6746C152.219 21.6901 152.185 21.6975 152.151 21.6975Z" fill="#81319B"/>
<path d="M153.346 20.3127C153.272 20.3129 153.2 20.2781 153.156 20.2136C153.134 20.1812 150.919 16.9839 147.467 17.0826C143.171 17.206 141.497 20.0079 141.481 20.0361C141.419 20.1425 141.281 20.18 141.172 20.1199C141.063 20.0599 141.024 19.9251 141.086 19.8185C141.157 19.6942 142.891 16.7705 147.454 16.6396C151.159 16.5263 153.44 19.8286 153.535 19.969C153.604 20.0712 153.575 20.2084 153.471 20.2761C153.432 20.3009 153.388 20.3127 153.346 20.3127Z" fill="#81319B"/>
<path d="M147.311 26.7326C146.598 26.7326 146.018 26.1658 146.018 25.4688C146.018 24.7719 146.598 24.2051 147.311 24.2051C148.023 24.2051 148.603 24.7721 148.603 25.4688C148.603 26.1656 148.023 26.7326 147.311 26.7326ZM147.311 24.6482C146.848 24.6482 146.471 25.0163 146.471 25.4686C146.471 25.921 146.848 26.2891 147.311 26.2891C147.773 26.2891 148.15 25.921 148.15 25.4686C148.15 25.0163 147.773 24.6482 147.311 24.6482Z" fill="#81319B"/>
<path d="M77.8056 88.8876H64.5677C63.2855 88.8876 62.2422 87.8679 62.2422 86.6146V76.8314C62.2422 75.5781 63.2855 74.5586 64.5677 74.5586H77.8056C79.0878 74.5586 80.1311 75.5781 80.1311 76.8314V86.6146C80.1311 87.8681 79.0878 88.8876 77.8056 88.8876ZM64.5677 75.0019C63.5353 75.0019 62.6957 75.8225 62.6957 76.8314V86.6146C62.6957 87.6237 63.5353 88.4443 64.5677 88.4443H77.8056C78.838 88.4443 79.6776 87.6237 79.6776 86.6146V76.8314C79.6776 75.8225 78.838 75.0019 77.8056 75.0019H64.5677Z" fill="#292E30"/>
<path d="M75.1982 81.277L67.625 77.576C67.2904 77.4124 66.8965 77.6504 66.8965 78.0161V85.4181C66.8965 85.7838 67.2904 86.0217 67.625 85.8581L75.1982 82.1571C75.5692 81.976 75.5692 81.4584 75.1982 81.277Z" fill="#81319B"/>
<path d="M125.379 49.8313H111.918C110.616 49.8313 109.557 48.7963 109.557 47.5237V37.5753C109.557 36.3028 110.616 35.2676 111.918 35.2676H125.379C126.681 35.2676 127.74 36.3026 127.74 37.5753V47.5237C127.74 48.7963 126.681 49.8313 125.379 49.8313ZM111.918 35.7109C110.866 35.7109 110.01 36.5472 110.01 37.5753V47.5237C110.01 48.5517 110.866 49.3881 111.918 49.3881H125.38C126.431 49.3881 127.287 48.5517 127.287 47.5237V37.5753C127.287 36.5472 126.431 35.7109 125.38 35.7109H111.918Z" fill="#292E30"/>
<path d="M116.53 41.332L116.632 47.1509L114.551 47.1859C113.57 47.2025 112.761 46.4384 112.744 45.4795L112.702 43.1358C112.686 42.1771 113.467 41.3838 114.448 41.3673L116.53 41.332Z" fill="#159D9B"/>
<path d="M124.164 46.8916C123.464 47.6945 117.415 47.136 117.415 47.136L117.312 41.3171C117.312 41.3171 118.29 40.7765 118.569 39.8061C118.844 38.8424 119.26 37.606 120.021 37.7898C120.784 37.9736 121.098 39.9671 120.185 41.2685C120.185 41.2685 123.121 40.439 123.936 41.2782C124.71 42.0717 124.82 46.1402 124.164 46.8916Z" fill="#159D9B"/>
<path d="M92.4842 37.0443H79.5178C78.2593 37.0443 77.2354 36.0435 77.2354 34.8134V25.2309C77.2354 24.0008 78.2593 23 79.5178 23H92.4842C93.7427 23 94.7666 24.0008 94.7666 25.2309V34.8134C94.7666 36.0437 93.7427 37.0443 92.4842 37.0443ZM79.5178 23.4435C78.5091 23.4435 77.6889 24.2454 77.6889 25.2311V34.8136C77.6889 35.7993 78.5093 36.6012 79.5178 36.6012H92.4842C93.4926 36.6012 94.3131 35.7993 94.3131 34.8136V25.2311C94.3131 24.2454 93.4926 23.4435 92.4842 23.4435H79.5178Z" fill="#292E30"/>
<path d="M84.3571 27.7051C82.4682 27.7051 80.9374 29.2014 80.9374 31.0476C80.9374 31.6894 81.1227 32.2872 81.4428 32.7972C81.0074 33.1119 80.8347 33.8223 80.6836 34.5626C81.3348 34.2304 82.0454 34.0385 82.8405 34.044C83.2975 34.2638 83.8119 34.3903 84.3571 34.3903C86.246 34.3903 87.7769 32.8941 87.7769 31.0478C87.7771 29.2013 86.246 27.7051 84.3571 27.7051ZM82.6195 31.4838C82.346 31.4838 82.1248 31.2658 82.1248 31.0003C82.1248 30.7329 82.346 30.5149 82.6195 30.5149C82.8929 30.5149 83.1143 30.7329 83.1143 31.0003C83.1141 31.2656 82.8929 31.4838 82.6195 31.4838ZM84.2726 31.4838C83.9992 31.4838 83.7778 31.2658 83.7778 31.0003C83.7778 30.7329 83.999 30.5149 84.2726 30.5149C84.5459 30.5149 84.7673 30.7329 84.7673 31.0003C84.7673 31.2656 84.5461 31.4838 84.2726 31.4838ZM85.924 31.4838C85.6507 31.4838 85.4293 31.2658 85.4293 31.0003C85.4293 30.7329 85.6505 30.5149 85.924 30.5149C86.1976 30.5149 86.4188 30.7329 86.4188 31.0003C86.4188 31.2656 86.1976 31.4838 85.924 31.4838Z" fill="#81319B"/>
<path d="M91.322 32.3497C90.5956 31.8936 89.8728 31.5855 89.1639 31.8305C88.8188 31.9975 88.4409 32.1098 88.0421 32.1547C88.1515 31.8055 88.2107 31.4348 88.2107 31.0507C88.2107 29.0578 86.6199 27.4213 84.6143 27.2909C85.1847 26.2218 86.3292 25.4922 87.6479 25.4922C89.5364 25.4922 91.0675 26.9885 91.0675 28.8343C91.0675 29.4759 90.8819 30.0751 90.5614 30.5841C91.0749 30.8829 91.2559 31.5522 91.322 32.3497Z" fill="#81319B"/>
<path d="M96.1028 135.697L94.0654 145.982L102.702 148.185L105.535 138.408L96.1028 135.697Z" fill="#FFA293"/>
<path d="M94.3676 141.593C94.3676 141.593 90.1997 142.948 84.8148 142.75C79.4299 142.552 74.0492 142.307 72.6143 146.698C72.6143 146.698 77.8155 151.444 87.1906 155.287C96.5657 159.13 99.4986 158.485 99.4986 158.485C99.4986 158.485 103.224 152.484 103.286 146.161C103.286 146.161 98.8467 146.769 97.2681 145.438C95.6892 144.107 96.052 141.023 94.3676 141.593Z" fill="#292E30"/>
<path d="M107.297 125.901C113.624 123.987 125.674 115.306 125.674 115.306L122.413 106.955C106.514 109.027 100.373 117.943 100.373 117.943C100.373 117.943 96.5487 124.383 105.015 126.187C105.634 126.319 107.269 125.91 107.297 125.901Z" fill="#AC77BD"/>
<path d="M110.487 122.014C110.487 122.014 108.775 116.81 104.823 116.216C102.706 115.898 100.882 117.559 100.882 117.559C100.097 118.513 96.8025 122.161 93.8633 139.996C93.8633 139.996 100.734 142.887 105.691 145.418C105.691 145.418 110.744 127.145 110.487 122.014Z" fill="#AC77BD"/>
<path d="M135.178 102.372L99.9837 94.6493C97.9192 94.3447 96.3329 96.1305 96.1502 98.0735C95.9495 100.21 97.7683 101.54 97.7683 101.54C99.4865 102.855 120.064 116.691 124.01 117.002C128.102 117.325 133.661 115.033 134.739 110.056C135.818 105.079 135.178 102.372 135.178 102.372Z" fill="#D299E4"/>
<path d="M113.644 124.39L107.078 114.673L114.113 111.867L119.818 117.024L113.644 124.39Z" fill="#FFA293"/>
<path d="M112.233 122.375C112.233 122.375 112.672 125.199 112.78 132.88C112.889 140.56 113.869 144.338 116.593 145.215C119.465 146.14 120.015 145.045 120.015 145.045L128.67 122.032C128.67 122.032 125.225 116.955 118.225 115.586L112.233 122.375Z" fill="#292E30"/>
<path d="M100.812 93.959C100.812 93.959 95.0501 94.6888 93.8516 99.3323C93.5354 100.558 94.1686 102.046 94.3682 102.369C97.2623 107.757 106.723 122.228 106.723 122.228C112.309 118.367 119.144 113.116 119.144 113.116C107.486 96.4476 101.836 94.3837 100.812 93.959Z" fill="#D299E4"/>
<path d="M114.428 80.8651C117.145 86.5296 98.9822 97.0257 94.4818 94.2234C94.4818 94.2234 94.1546 93.74 94.3443 92.1948C94.6183 89.9633 95.3622 88.6818 95.3622 88.6818C97.4897 87.0451 111.199 74.1341 114.428 80.8651Z" fill="#FFA293"/>
<path d="M106.184 91.9269L100.168 84.1975C100.168 84.1975 112.723 74.3975 115.389 79.7771C118.852 86.7669 106.184 91.9269 106.184 91.9269Z" fill="#FDA202"/>
<path d="M113.698 64.3772C113.698 64.3772 112.234 66.7747 112.813 66.8626C115.124 67.213 114.492 72.2096 114.492 72.2096C115.929 72.6375 120.981 67.2492 116.591 63.4648L113.698 64.3772Z" fill="#323536"/>
<path d="M118.293 75.9863L119.667 76.4447L129.532 88.315L116.192 90.1548L111.346 79.3468L113.066 77.4058L118.293 75.9863Z" fill="#FFA293"/>
<path d="M117.896 76.4367L113.767 79.5671L112.165 74.5483L111.977 73.9566L111.914 73.7595L111.881 73.6475L111.687 72.9775L115.439 70.1055L116.282 72.2781L116.744 73.4681L117.896 76.4367Z" fill="#FFA293"/>
<path d="M112.259 74.7761C114.647 74.7391 115.475 72.1044 115.516 71.9887C115.966 70.7089 115.838 68.7056 115.371 67.4572C114.392 64.8402 110.403 64.1674 108.698 66.4775C106.996 68.7878 108.484 70.912 108.484 70.912L108.508 71.0123C108.671 71.4552 109.989 74.8136 112.259 74.7761Z" fill="#FFA293"/>
<path d="M113.404 68.3541C113.404 68.3541 113.01 68.1303 112.584 68.1814C112.158 68.2324 112.057 68.5534 112.103 68.6527C112.15 68.7521 112.468 68.5814 112.817 68.6161C113.166 68.6507 113.487 68.5584 113.404 68.3541Z" fill="#323536"/>
<path d="M108.942 69.9001C108.942 69.9001 109.104 69.4836 109.467 69.2608C109.831 69.0379 110.116 69.2247 110.144 69.3305C110.172 69.4363 109.815 69.4997 109.567 69.7417C109.318 69.9835 109.01 70.1097 108.942 69.9001Z" fill="#323536"/>
<path d="M112.699 69.7006C112.778 69.9053 112.961 70.027 113.108 69.9726C113.254 69.9182 113.309 69.7082 113.229 69.5037C113.15 69.299 112.967 69.1773 112.82 69.2317C112.674 69.2861 112.619 69.4961 112.699 69.7006Z" fill="#323536"/>
<path d="M109.786 70.8139C109.865 71.0186 110.048 71.1403 110.195 71.0859C110.341 71.0315 110.396 70.8215 110.316 70.617C110.237 70.4123 110.054 70.2906 109.907 70.345C109.761 70.3992 109.706 70.6092 109.786 70.8139Z" fill="#323536"/>
<path d="M111.896 73.4884C111.575 73.4884 111.343 73.335 111.236 73.2085C111.157 73.114 111.171 72.9742 111.267 72.8966C111.363 72.8194 111.504 72.8323 111.584 72.9246C111.612 72.9556 111.859 73.1984 112.346 72.892C112.87 72.5621 112.813 72.2883 112.772 72.0884L112.766 72.0572C112.742 71.9371 112.822 71.8206 112.945 71.7973C113.068 71.7733 113.187 71.8523 113.211 71.9724L113.216 72.0002C113.264 72.2309 113.377 72.7709 112.591 73.2647C112.331 73.4283 112.096 73.4884 111.896 73.4884Z" fill="#323536"/>
<path d="M111.35 72.1943C111.248 72.1943 111.147 72.1699 111.051 72.1197C110.754 71.9646 110.8 71.6021 110.836 71.3109C110.862 71.0967 110.832 70.6799 110.819 70.5374C110.807 70.4155 110.898 70.3073 111.023 70.2958C111.15 70.2849 111.258 70.3738 111.27 70.4955C111.272 70.5183 111.324 71.0589 111.286 71.3645C111.274 71.461 111.246 71.6871 111.276 71.7387C111.344 71.7701 111.425 71.7546 111.505 71.6825C111.597 71.5997 111.74 71.6057 111.825 71.6958C111.91 71.7858 111.904 71.9261 111.812 72.0089C111.676 72.1312 111.513 72.1943 111.35 72.1943Z" fill="#323536"/>
<path d="M116.938 63.8711L115.227 67.4146C114.281 68.3325 111.876 66.8218 111.876 66.8218C111.876 66.8218 111.511 68.2195 110.076 68.2185C110.076 68.2185 109.656 69.1357 108.392 69.3886C108.392 69.3886 108.234 70.2429 107.443 70.3652C107.443 70.3652 105.075 70.5167 104.561 68.3805C104.119 66.5413 105.053 65.5917 106.19 64.7573C107.288 63.9513 108.013 64.2173 108.013 64.2173C108.013 64.2173 107.994 62.8772 109.288 62.5564C111.284 62.0619 111.601 63.3652 111.601 63.3652C111.601 63.3652 112.015 62.095 113.427 62.3297C114.462 62.5018 114.722 63.4645 114.722 63.4645C114.722 63.4645 115.682 62.7784 116.71 63.5463C116.747 63.5739 116.911 63.8343 116.938 63.8711Z" fill="#323536"/>
<path d="M116.121 66.3132C115.689 66.0887 115.268 66.3942 114.963 66.7391C114.681 67.0589 114.617 67.4437 114.818 67.7107C115.302 68.3532 115.119 69.348 115.323 70.1505C117.921 68.859 116.954 66.7452 116.121 66.3132Z" fill="#FFA293"/>
<path d="M115.972 67.0602C115.752 67.0773 115.486 67.2302 115.45 67.4219C115.435 67.5059 115.581 67.5109 115.611 67.4233C115.634 67.3558 115.706 67.2963 115.791 67.2796C115.866 67.2647 115.951 67.2949 116.002 67.3264C116.158 67.4219 116.138 67.631 116.12 67.795C116.103 67.9586 116.058 68.1273 115.992 68.2925C115.921 68.468 115.791 68.6336 115.72 68.8071C115.652 68.9723 115.938 69.0394 116.07 68.8923C116.171 68.7789 116.226 68.6469 116.28 68.5226C116.33 68.4076 116.37 68.2909 116.401 68.175C116.463 67.9377 116.494 67.6902 116.455 67.4686C116.42 67.2715 116.268 67.037 115.972 67.0602Z" fill="#323536"/>
<path d="M112.258 75.0002C112.14 75.0002 112.041 74.9118 112.032 74.7955C112.022 74.6736 112.116 74.5672 112.24 74.5576C112.38 74.5465 115.615 74.2412 115.464 70.0089C115.46 69.8866 115.558 69.784 115.683 69.7796C115.807 69.773 115.913 69.8711 115.917 69.9934C116.084 74.6613 112.313 74.9966 112.275 74.9994C112.27 75 112.264 75.0002 112.258 75.0002Z" fill="#323536"/>
<path d="M115.153 70.4211C115.057 70.4211 114.968 70.3615 114.937 70.2678C114.898 70.1513 114.964 70.0264 115.083 69.9885C115.447 69.8731 116.022 69.6403 116.16 69.4846C116.242 69.3921 116.386 69.3822 116.48 69.4624C116.575 69.5426 116.585 69.6827 116.503 69.7751C116.233 70.0792 115.389 70.3577 115.223 70.4102C115.199 70.4177 115.176 70.4211 115.153 70.4211Z" fill="#323536"/>
<path d="M118.292 75.9876C118.292 75.9876 119.654 80.3848 116.102 80.9945C112.55 81.6042 112.36 78.2026 112.36 78.2026C112.36 78.2026 110.909 78.9967 110.46 79.8186C110.46 79.8186 111.384 88.9048 116.817 93.3721C122.25 97.8393 123.545 100.095 123.545 100.095C123.545 100.095 126.731 101.657 128.749 102.999C130.766 104.341 134.604 104.277 135.339 103.68C135.339 103.68 136.572 91.3316 132.278 85.3747C127.984 79.4178 126.31 78.3199 125.197 77.3104C123.329 75.6179 118.962 75.8986 118.292 75.9876Z" fill="#FDA202"/>
<path d="M119.143 95.5928C119.09 95.5928 119.036 95.5743 118.992 95.5366C118.978 95.5241 117.55 94.2777 117.371 94.1264C117.358 94.1159 117.334 94.0975 117.298 94.0707C115.492 92.7097 113.883 90.703 112.766 88.4201C110.921 84.646 110.471 80.9265 110.467 80.8894C110.453 80.7677 110.543 80.6579 110.667 80.644C110.792 80.6303 110.904 80.7175 110.918 80.839C110.922 80.8755 111.364 84.5247 113.176 88.2289C114.262 90.4501 115.824 92.4002 117.575 93.7195C117.62 93.7538 117.651 93.7776 117.667 93.7909C117.849 93.9444 119.236 95.1542 119.294 95.2055C119.388 95.2869 119.396 95.4272 119.313 95.5185C119.268 95.5678 119.206 95.5928 119.143 95.5928Z" fill="#323536"/>
<path d="M123.382 79.6705C117.217 81.5558 123.171 93.695 124.634 97.6592C124.634 97.6592 126.029 101.163 128.176 101.017C131.896 100.765 131.817 97.2991 131.817 97.2991C132.252 92.7037 129.231 77.8816 123.382 79.6705Z" fill="#FFA293"/>
<path d="M130.58 98.5618C131.028 95.2241 128.59 94.635 128.59 94.635C126.566 93.8965 122.508 92.4972 112.282 91.5449L111.185 95.6567C111.185 95.6567 122.171 102.474 128.696 100.949C128.697 100.949 130.293 100.698 130.58 98.5618Z" fill="#FFA293"/>
<path d="M93.517 82.1352L97.8185 82.4064C98.213 82.4312 98.5655 82.6557 98.7484 82.9984L104.335 93.4689C104.736 94.2204 104.158 95.1153 103.291 95.0846L99.078 94.9359C98.6721 94.9216 98.3054 94.6958 98.117 94.344L92.4424 83.751C92.0332 82.9871 92.6368 82.0798 93.517 82.1352Z" fill="#292E30"/>
<path d="M121.255 90.4595C121.255 90.4595 127.804 89.2159 130.683 88.9107C130.683 88.9107 129.158 76.924 122.495 78.5835C116.821 79.9963 121.255 90.4595 121.255 90.4595Z" fill="#FDA202"/>
<path d="M116.287 92.7339C116.287 92.7339 111.138 88.1466 110.244 87.7583C109.342 87.3698 100.606 87.1704 100.155 87.4349C99.6978 87.7138 99.7714 89.0531 99.9388 89.4801C99.867 89.6038 99.6764 91.3811 100.529 91.4166C100.529 91.4166 100.522 91.4349 100.512 91.4698C100.507 91.4869 100.501 91.5089 100.495 91.533C100.495 91.5334 100.495 91.5339 100.495 91.5339C100.495 91.5355 100.494 91.5371 100.494 91.5389C100.489 91.5562 100.485 91.5746 100.481 91.5951C100.428 91.8057 100.424 92.014 100.468 92.2207C100.468 92.2248 100.47 92.229 100.472 92.2332C100.501 92.3892 100.558 92.5582 100.658 92.7229C100.829 93.0051 101.126 93.2792 101.627 93.4895C101.627 93.4895 101.578 93.6058 101.555 93.7787C101.518 94.071 101.549 94.5246 102.017 94.8186C102.576 95.1712 104.526 95.8496 105.438 96.1577C105.454 96.1665 105.469 96.1732 105.483 96.1818C105.575 96.2262 105.72 96.2701 105.904 96.3132C105.91 96.3154 105.912 96.3156 105.912 96.3156C107.635 96.7243 111.41 96.8637 111.41 96.8637L113.727 96.9114C113.727 96.9112 116.527 94.3535 116.287 92.7339Z" fill="#FFA293"/>
<path d="M106.108 90.3504C106.1 90.3504 106.092 90.35 106.083 90.349L99.9156 89.7058C99.7911 89.6929 99.701 89.5837 99.7142 89.462C99.7274 89.3403 99.8364 89.2509 99.9636 89.2652L106.131 89.9083C106.256 89.9212 106.346 90.0304 106.333 90.1521C106.32 90.266 106.222 90.3504 106.108 90.3504Z" fill="#323536"/>
<path d="M106.049 92.0633C106.044 92.0633 106.039 92.0631 106.033 92.0627L100.497 91.6925C100.372 91.6843 100.278 91.5785 100.287 91.4564C100.295 91.3343 100.402 91.2426 100.528 91.2505L106.065 91.6206C106.189 91.6289 106.284 91.7347 106.275 91.857C106.267 91.9738 106.167 92.0633 106.049 92.0633Z" fill="#323536"/>
<path d="M105.965 94.1769C105.957 94.1769 105.948 94.1765 105.94 94.1757L101.603 93.7115C101.478 93.6982 101.388 93.5886 101.402 93.4671C101.416 93.3454 101.528 93.2577 101.652 93.2708L105.989 93.7351C106.114 93.7484 106.204 93.858 106.19 93.9795C106.177 94.0931 106.079 94.1769 105.965 94.1769Z" fill="#323536"/>
<path d="M95.5162 86.2833C95.5162 86.2833 93.4189 84.3568 91.7932 87.5847C90.5784 89.997 92.1274 94.5922 93.1129 94.6393C94.0985 94.6865 97.0582 93.8642 97.107 92.682C97.1559 91.4999 96.3505 91.1906 96.3505 91.1906C96.3505 91.1906 96.624 89.7902 95.8648 89.1308C95.8648 89.1308 96.1825 87.9494 95.5119 87.5531C95.5119 87.5531 95.8704 87.5104 95.5162 86.2833Z" fill="#FFA293"/>
<path d="M94.2419 87.9592C94.1319 87.9592 94.0352 87.8809 94.0183 87.771C93.9993 87.6502 94.0844 87.5369 94.2081 87.5186L95.4796 87.3286C95.6031 87.3108 95.7192 87.3932 95.7379 87.5143C95.7569 87.6352 95.6718 87.7485 95.5481 87.7668L94.2766 87.9568C94.265 87.9584 94.2533 87.9592 94.2419 87.9592Z" fill="#323536"/>
<path d="M94.3779 89.651C94.2725 89.651 94.1779 89.5789 94.156 89.4741C94.1309 89.3542 94.2096 89.2369 94.3325 89.2124L95.8211 88.913C95.9427 88.8878 96.0637 88.9653 96.0889 89.0854C96.114 89.2053 96.0353 89.3226 95.9124 89.3472L94.4238 89.6466C94.4084 89.6496 94.3929 89.651 94.3779 89.651Z" fill="#323536"/>
<path d="M94.3614 94.6886C94.2585 94.6886 94.1654 94.6196 94.1408 94.5175C94.1122 94.3984 94.1878 94.2791 94.3099 94.2511C96.2035 93.8167 97.0619 93.15 96.8611 92.2701C96.7364 91.7224 96.4495 91.4965 96.3262 91.4224L94.9219 91.7764C94.8009 91.8066 94.677 91.7357 94.6457 91.617C94.6143 91.4986 94.6873 91.3777 94.8087 91.347L96.2967 90.9719C96.3423 90.9604 96.3909 90.963 96.4348 90.9797C96.4614 90.9898 97.0902 91.2368 97.3037 92.1734C97.5692 93.3372 96.5968 94.1814 94.4134 94.6825C94.396 94.6867 94.3785 94.6886 94.3614 94.6886Z" fill="#323536"/>
<path d="M121.257 90.6792C121.164 90.6792 121.077 90.6231 121.044 90.5331C120.975 90.3491 119.368 85.9878 119.407 82.5141C119.408 82.3916 119.503 82.2955 119.636 82.2949C119.762 82.2963 119.862 82.3965 119.86 82.519C119.823 85.9113 121.453 90.3374 121.47 90.3818C121.513 90.4968 121.452 90.6239 121.334 90.6659C121.309 90.6749 121.282 90.6792 121.257 90.6792Z" fill="#323536"/>
<path d="M121.766 90.5749C121.657 90.5749 121.561 90.4985 121.542 90.3905C121.521 90.2698 121.604 90.1554 121.728 90.1348L130.147 88.7339C130.272 88.7125 130.388 88.7945 130.409 88.9152C130.43 89.0359 130.347 89.1503 130.223 89.1709L121.804 90.5719C121.791 90.5739 121.778 90.5749 121.766 90.5749Z" fill="#323536"/>
<path d="M130.684 89.1388C130.573 89.1388 130.477 89.0601 130.46 88.9502C130.452 88.8987 129.639 83.7623 127.448 80.7264C127.376 80.6264 127.4 80.488 127.502 80.4175C127.605 80.347 127.746 80.3708 127.818 80.4709C130.072 83.5932 130.875 88.6696 130.908 88.8841C130.927 89.005 130.842 89.1181 130.718 89.1362C130.706 89.138 130.695 89.1388 130.684 89.1388Z" fill="#323536"/>
<path d="M127.895 94.6143C127.866 94.6143 127.837 94.6088 127.809 94.5975C125.676 93.7408 122.788 93.2474 122.759 93.2425C122.636 93.2218 122.553 93.1071 122.575 92.9864C122.596 92.8659 122.712 92.7855 122.837 92.8059C122.866 92.8109 125.803 93.3128 127.981 94.1877C128.097 94.2343 128.152 94.3638 128.105 94.477C128.068 94.5625 127.984 94.6143 127.895 94.6143Z" fill="#323536"/>
<path d="M126.831 101.406C125.762 101.406 124.527 101.264 123.12 100.982C117.447 99.8448 111.997 96.3002 111.942 96.2645C111.838 96.1962 111.811 96.0586 111.88 95.957C111.95 95.8555 112.091 95.8281 112.195 95.8964C112.248 95.9314 117.627 99.4285 123.211 100.548C126.806 101.269 129.285 101.034 130.58 99.851C131.543 98.9711 131.891 97.5196 131.615 95.5369C131.598 95.4156 131.685 95.304 131.809 95.2875C131.934 95.2697 132.048 95.3558 132.065 95.4773C132.361 97.6107 131.966 99.1912 130.89 100.175C129.99 100.997 128.65 101.406 126.831 101.406Z" fill="#323536"/>
<path d="M112.092 97.0468C106.444 97.0468 105.247 96.3348 105.196 96.3025C105.09 96.236 105.06 96.0988 105.128 95.996C105.195 95.8943 105.333 95.8641 105.438 95.9281C105.466 95.9439 106.868 96.6992 113.291 96.5933C113.292 96.5933 113.293 96.5933 113.294 96.5933C113.418 96.5933 113.519 96.69 113.521 96.8113C113.523 96.9336 113.423 97.0345 113.298 97.0365C112.875 97.0436 112.473 97.0468 112.092 97.0468Z" fill="#323536"/>
<path d="M119.144 113.338C119.073 113.338 119.003 113.306 118.959 113.244C118.906 113.171 113.633 105.882 109.134 100.84C109.052 100.748 109.061 100.608 109.156 100.527C109.25 100.447 109.394 100.456 109.476 100.549C113.991 105.608 119.276 112.916 119.329 112.989C119.401 113.089 119.377 113.227 119.275 113.298C119.235 113.325 119.19 113.338 119.144 113.338Z" fill="#323536"/>
<path d="M106.724 122.444C106.654 122.444 106.586 122.413 106.541 122.354C106.467 122.255 106.488 122.116 106.589 122.044L118.631 113.369C118.732 113.297 118.874 113.318 118.948 113.416C119.023 113.515 119.001 113.654 118.9 113.726L106.858 122.401C106.818 122.43 106.771 122.444 106.724 122.444Z" fill="#323536"/>
<path d="M122.983 93.2832C122.96 93.2832 122.937 93.2798 122.915 93.2727C121.877 92.9525 115.271 92.0382 115.205 92.0291C115.161 92.0231 115.12 92.0047 115.087 91.9761L112.567 89.8119C112.473 89.7311 112.464 89.5911 112.547 89.4992C112.629 89.4071 112.772 89.3982 112.867 89.479L115.335 91.5995C116.077 91.7025 122.023 92.5332 123.051 92.8502C123.17 92.8871 123.237 93.0114 123.199 93.1282C123.169 93.2227 123.079 93.2832 122.983 93.2832Z" fill="#323536"/>
<path d="M112.36 78.2035C112.36 78.2035 112.912 81.6296 116.249 80.8196C119.268 80.0868 118.293 75.9885 118.293 75.9885C118.293 75.9885 118.553 75.6933 118.971 75.9349C118.971 75.9349 120.265 80.6532 116.331 81.6012C111.953 82.6562 111.686 78.2206 111.686 78.2206C111.686 78.2206 111.946 77.9464 112.36 78.2035Z" fill="white"/>
<path d="M266.571 159.922H30.8932C30.5174 159.922 30.2129 159.624 30.2129 159.257C30.2129 158.89 30.5176 158.592 30.8932 158.592H266.571C266.947 158.592 267.251 158.89 267.251 159.257C267.251 159.624 266.947 159.922 266.571 159.922Z" fill="#3A3B51"/>
<path d="M210.569 169H150.547C150.171 169 149.866 168.702 149.866 168.335C149.866 167.968 150.171 167.67 150.547 167.67H210.569C210.945 167.67 211.249 167.968 211.249 168.335C211.249 168.702 210.945 169 210.569 169Z" fill="#3A3B51"/>
<path d="M137.054 169.002H121.766C121.391 169.002 121.086 168.704 121.086 168.337C121.086 167.97 121.391 167.672 121.766 167.672H137.054C137.43 167.672 137.735 167.97 137.735 168.337C137.735 168.704 137.43 169.002 137.054 169.002Z" fill="#3A3B51"/>
</svg>
