<svg width="22" height="23" viewBox="0 0 22 23" fill="none" xmlns="http://www.w3.org/2000/svg">
<path fill-rule="evenodd" clip-rule="evenodd" d="M20 4.42857C20 3.364 19.136 2.5 18.0714 2.5H3.92857C2.864 2.5 2 3.364 2 4.42857V18.5714C2 19.636 2.864 20.5 3.92857 20.5H18.0714C19.136 20.5 20 19.636 20 18.5714V4.42857ZM18.7143 7.64286V18.5714C18.7143 18.9263 18.4263 19.2143 18.0714 19.2143H3.92857C3.57371 19.2143 3.28571 18.9263 3.28571 18.5714V7.64286H18.7143ZM15.0179 9.91664C15.1066 9.68071 15.0487 9.41457 14.8706 9.2365C14.6926 9.05843 14.4264 9.00057 14.1905 9.08929L6.91721 11.8169C6.66971 11.9095 6.5045 12.1435 6.5 12.4077C6.4955 12.6719 6.653 12.9117 6.89664 13.0126L9.86536 14.2418L11.0945 17.2105C11.1954 17.4541 11.4352 17.6116 11.6994 17.6071C11.9636 17.6026 12.1976 17.4374 12.2902 17.1899L15.0179 9.91664ZM13.3175 10.7896L11.6589 15.2125L10.9511 13.5038C10.8856 13.3463 10.7609 13.2216 10.6034 13.156L8.89464 12.4482L13.3175 10.7896ZM18.7143 6.35714H3.28571V4.42857C3.28571 4.07371 3.57371 3.78571 3.92857 3.78571H18.0714C18.4263 3.78571 18.7143 4.07371 18.7143 4.42857V6.35714ZM12.9286 4.42857C12.5737 4.42857 12.2857 4.71657 12.2857 5.07143C12.2857 5.42629 12.5737 5.71429 12.9286 5.71429C13.2834 5.71429 13.5714 5.42629 13.5714 5.07143C13.5714 4.71657 13.2834 4.42857 12.9286 4.42857ZM14.8571 4.42857C14.5023 4.42857 14.2143 4.71657 14.2143 5.07143C14.2143 5.42629 14.5023 5.71429 14.8571 5.71429C15.212 5.71429 15.5 5.42629 15.5 5.07143C15.5 4.71657 15.212 4.42857 14.8571 4.42857ZM16.7857 4.42857C16.4309 4.42857 16.1429 4.71657 16.1429 5.07143C16.1429 5.42629 16.4309 5.71429 16.7857 5.71429C17.1406 5.71429 17.4286 5.42629 17.4286 5.07143C17.4286 4.71657 17.1406 4.42857 16.7857 4.42857Z" fill="white"/>
</svg>
