<svg width="53" height="53" viewBox="0 0 53 53" fill="none" xmlns="http://www.w3.org/2000/svg">
<path d="M37.4655 3.65517C37.9772 3.65517 38.3793 4.05724 38.3793 4.56897C38.3793 5.08069 37.9772 5.48276 37.4655 5.48276C36.9538 5.48276 36.5517 5.08069 36.5517 4.56897C36.5517 4.05724 36.9538 3.65517 37.4655 3.65517ZM41.1207 3.65517C41.6324 3.65517 42.0345 4.05724 42.0345 4.56897C42.0345 5.08069 41.6324 5.48276 41.1207 5.48276C40.609 5.48276 40.2069 5.08069 40.2069 4.56897C40.2069 4.05724 40.609 3.65517 41.1207 3.65517ZM8.22414 5.48276H4.56897C4.05724 5.48276 3.65517 5.08069 3.65517 4.56897C3.65517 4.05724 4.05724 3.65517 4.56897 3.65517H8.22414C8.73586 3.65517 9.13793 4.05724 9.13793 4.56897C9.13793 5.08069 8.73586 5.48276 8.22414 5.48276ZM1.82759 7.31034H43.8621V1.82759H1.82759V7.31034ZM0.913793 14.6207C1.42552 14.6207 1.82759 15.0228 1.82759 15.5345C1.82759 16.0462 1.42552 16.4483 0.913793 16.4483C0.402069 16.4483 0 16.0462 0 15.5345C0 15.0228 0.402069 14.6207 0.913793 14.6207ZM37.9224 21.931C38.4341 21.931 38.8362 22.3331 38.8362 22.8448C38.8362 23.3566 38.4341 23.7586 37.9224 23.7586C37.4107 23.7586 37.0086 23.3566 37.0086 22.8448C37.0086 22.3331 37.4107 21.931 37.9224 21.931ZM34.2672 23.7586C33.92 23.7586 33.6093 23.5576 33.4448 23.2469L32.4397 21.2183L31.4345 23.2469C31.2517 23.5941 30.8862 23.8134 30.5024 23.7403C30.1186 23.6855 29.8079 23.3931 29.7348 23.0093L27.9072 13.8714C27.8159 13.3779 28.1266 12.9028 28.62 12.7931C29.1134 12.6834 29.5886 13.0124 29.6983 13.5059L31.0141 20.0303L31.6538 18.751C31.9645 18.1297 32.9697 18.1297 33.2803 18.751L33.92 20.0303L35.2359 13.5059C35.3272 13.0124 35.8024 12.6834 36.3141 12.7931C36.8076 12.8845 37.1366 13.3779 37.0269 13.8714L35.1993 23.0093C35.1262 23.3931 34.8155 23.6855 34.4317 23.7403C34.3952 23.7403 34.3586 23.7403 34.3038 23.7403L34.2672 23.7586ZM12.3362 23.7586C11.989 23.7586 11.6783 23.5576 11.5138 23.2469L10.5086 21.2183L9.50345 23.2469C9.33897 23.5941 8.95517 23.8134 8.57138 23.7403C8.18759 23.6855 7.8769 23.3931 7.80379 23.0093L5.97621 13.8714C5.88483 13.3779 6.19552 12.9028 6.68897 12.7931C7.18241 12.6834 7.65759 13.0124 7.76724 13.5059L9.0831 20.0303L9.72276 18.751C10.0334 18.1297 11.0386 18.1297 11.3493 18.751L11.989 20.0303L13.3048 13.5059C13.3962 13.0124 13.8714 12.6834 14.3831 12.7931C14.8766 12.8845 15.2055 13.3779 15.0959 13.8714L13.2683 23.0093C13.1952 23.3931 12.8845 23.6855 12.5007 23.7403C12.4641 23.7403 12.4276 23.7403 12.3728 23.7403L12.3362 23.7586ZM23.3017 23.7586C22.9545 23.7586 22.6438 23.5576 22.4793 23.2469L21.4741 21.2183L20.469 23.2469C20.3045 23.5941 19.9207 23.8134 19.5369 23.7403C19.1531 23.6855 18.8424 23.3931 18.7693 23.0093L16.9417 13.8714C16.8503 13.3779 17.161 12.9028 17.6545 12.7931C18.1479 12.6834 18.6231 13.0124 18.7328 13.5059L20.0486 20.0303L20.6883 18.751C20.999 18.1297 22.0041 18.1297 22.3148 18.751L22.9545 20.0303L24.2703 13.5059C24.3617 13.0124 24.8369 12.6834 25.3486 12.7931C25.8421 12.8845 26.171 13.3779 26.0614 13.8714L24.2338 23.0093C24.1607 23.3931 23.85 23.6855 23.4662 23.7403C23.4297 23.7403 23.3931 23.7403 23.3383 23.7403L23.3017 23.7586ZM45.6897 26.5C45.6897 27.0117 45.2876 27.4138 44.7759 27.4138C44.2641 27.4138 43.8621 27.0117 43.8621 26.5V9.13793H1.82759V11.8793C1.82759 12.391 1.42552 12.7931 0.913793 12.7931C0.402069 12.7931 0 12.391 0 11.8793V0.913793C0 0.402069 0.402069 0 0.913793 0H44.7759C45.2876 0 45.6897 0.402069 45.6897 0.913793V26.5ZM26.5 29.2414H6.39655C5.88483 29.2414 5.48276 28.8393 5.48276 28.3276C5.48276 27.8159 5.88483 27.4138 6.39655 27.4138H26.5C27.0117 27.4138 27.4138 27.8159 27.4138 28.3276C27.4138 28.8393 27.0117 29.2414 26.5 29.2414ZM26.5 34.7241H6.39655C5.88483 34.7241 5.48276 34.3221 5.48276 33.8103C5.48276 33.2986 5.88483 32.8966 6.39655 32.8966H26.5C27.0117 32.8966 27.4138 33.2986 27.4138 33.8103C27.4138 34.3221 27.0117 34.7241 26.5 34.7241ZM26.5 40.2069H6.39655C5.88483 40.2069 5.48276 39.8048 5.48276 39.2931C5.48276 38.7814 5.88483 38.3793 6.39655 38.3793H26.5C27.0117 38.3793 27.4138 38.7814 27.4138 39.2931C27.4138 39.8048 27.0117 40.2069 26.5 40.2069ZM26.5 45.6897H0.913793C0.402069 45.6897 0 45.2876 0 44.7759V19.1897C0 18.6779 0.402069 18.2759 0.913793 18.2759C1.42552 18.2759 1.82759 18.6779 1.82759 19.1897V43.8621H26.5C27.0117 43.8621 27.4138 44.2641 27.4138 44.7759C27.4138 45.2876 27.0117 45.6897 26.5 45.6897ZM38.3976 46.5852C38.16 46.5852 37.9224 46.4938 37.7579 46.311L34.1028 42.6559C33.7555 42.2903 33.7555 41.7238 34.1028 41.3583C34.4683 41.011 35.0348 41.011 35.4003 41.3583L38.4159 44.3738L46.8776 35.9121C47.2248 35.5648 47.8097 35.5648 48.1752 35.9121C48.5224 36.2776 48.5224 36.8441 48.1752 37.2097L39.0555 46.3293C38.8728 46.5121 38.6352 46.6034 38.4159 46.6034L38.3976 46.5852ZM41.1207 31.069C35.5831 31.069 31.069 35.5831 31.069 41.1207C31.069 46.6583 35.5831 51.1724 41.1207 51.1724C46.6583 51.1724 51.1724 46.6583 51.1724 41.1207C51.1724 35.5831 46.6583 31.069 41.1207 31.069ZM41.1207 53C34.5779 53 29.2414 47.6634 29.2414 41.1207C29.2414 34.5779 34.5779 29.2414 41.1207 29.2414C47.6634 29.2414 53 34.5779 53 41.1207C53 47.6634 47.6634 53 41.1207 53Z" fill="url(#paint0_linear_3077_13197)"/>
<defs>
<linearGradient id="paint0_linear_3077_13197" x1="26.5" y1="0" x2="26.5" y2="53" gradientUnits="userSpaceOnUse">
<stop stop-color="#81319B"/>
<stop offset="0.5" stop-color="#00A99D"/>
<stop offset="1" stop-color="#0B2C4C"/>
</linearGradient>
</defs>
</svg>
