<svg width="28" height="28" viewBox="0 0 28 28" fill="none" xmlns="http://www.w3.org/2000/svg">
<path d="M13.8375 7.69605C12.3137 7.69356 10.8431 8.25644 9.71043 9.27577C8.57772 10.2951 7.86342 11.6984 7.70578 13.2141C7.70578 13.4091 7.67711 13.6098 7.67711 13.7877C7.66948 15.0741 8.07125 16.3296 8.8243 17.3726L8.05569 19.667L10.4246 18.9156C11.4318 19.576 12.6103 19.9269 13.8146 19.9252C15.4409 19.9282 17.0021 19.2863 18.1558 18.1401C19.3096 16.9938 19.9617 15.4369 19.9693 13.8106C19.9693 13.65 19.9693 13.4951 19.9693 13.3345C19.8412 11.7967 19.1396 10.3633 18.0037 9.31878C16.8678 8.27427 15.3807 7.69504 13.8375 7.69605ZM17.4283 16.3287C17.2978 16.5475 17.1225 16.7363 16.9139 16.8826C16.7053 17.0289 16.4682 17.1294 16.218 17.1776C15.891 17.1776 15.891 17.4415 14.0613 16.7302C12.8071 16.1401 11.7453 15.2075 10.9982 14.04C10.7123 13.6706 10.4947 13.2529 10.3558 12.8068C10.2965 12.6095 10.2656 12.4048 10.264 12.1988C10.2552 11.9229 10.3043 11.6481 10.408 11.3923C10.5117 11.1364 10.6678 10.9051 10.8663 10.7132C10.9272 10.6451 11.0013 10.5901 11.0841 10.5516C11.167 10.5131 11.2568 10.492 11.3481 10.4895C11.4686 10.4895 11.589 10.4895 11.6866 10.4895C11.7841 10.4895 11.9447 10.4264 12.0938 10.782C12.243 11.1376 12.6043 12.0152 12.6674 12.107C12.6946 12.1541 12.7089 12.2075 12.7089 12.2619C12.7089 12.3163 12.6946 12.3697 12.6674 12.4168C12.6358 12.4898 12.5994 12.5607 12.5584 12.629L12.4896 12.715C12.3978 12.8183 12.3003 12.9445 12.22 13.0305C12.1397 13.1165 12.0365 13.2141 12.1397 13.3919C12.4106 13.8493 12.7469 14.2647 13.1378 14.6251C13.5658 14.9997 14.0546 15.2984 14.5832 15.5084C14.7668 15.6002 14.87 15.583 14.9733 15.4626C15.0765 15.3421 15.4207 14.9463 15.5469 14.7685C15.6731 14.5907 15.7878 14.6194 15.9541 14.6767C16.1205 14.7341 16.9981 15.17 17.1816 15.2503C17.3652 15.3306 17.4799 15.388 17.5258 15.4568C17.5777 15.7508 17.5438 16.0535 17.4283 16.3287Z" fill="#00A99D"/>
<path d="M22.4415 0.399902H4.95249C3.66549 0.399902 2.4312 0.91116 1.52116 1.82121C0.611111 2.73125 0.0998535 3.96553 0.0998535 5.25253V22.7415C0.0998526 24.0291 0.610925 25.2639 1.52081 26.1749C2.43069 27.0858 3.66496 27.5984 4.95249 27.5999H22.4415C23.73 27.5999 24.9657 27.088 25.8769 26.1769C26.788 25.2658 27.2999 24.0301 27.2999 22.7415V5.25253C27.2983 3.96501 26.7858 2.73074 25.8748 1.82086C24.9639 0.910974 23.729 0.399901 22.4415 0.399902ZM13.8375 21.0494C12.6 21.0531 11.3819 20.7412 10.2984 20.1431L6.23734 21.4337L7.55663 17.5333C6.87017 16.4006 6.50897 15.1007 6.51267 13.7762C6.51267 13.673 6.51267 13.564 6.51267 13.4607C6.60277 11.5824 7.41402 9.81133 8.77745 8.51629C10.1409 7.22125 11.9514 6.50212 13.8318 6.50871C15.7346 6.50192 17.5648 7.23878 18.9321 8.56213C20.2993 9.88548 21.0955 11.6906 21.1509 13.5926C21.1509 13.6557 21.1509 13.7188 21.1509 13.7762C21.1516 14.7363 20.9629 15.6871 20.5955 16.5741C20.2281 17.4611 19.6892 18.2668 19.0098 18.9452C18.3304 19.6235 17.5238 20.1611 16.6363 20.5271C15.7487 20.8931 14.7976 21.0803 13.8375 21.0781V21.0494Z" fill="#00A99D"/>
</svg>
