<svg width="22" height="22" viewBox="0 0 22 22" fill="none" xmlns="http://www.w3.org/2000/svg">
<path d="M11 6.96667C13.9286 6.96667 16.5405 8.52867 17.8155 11C16.5405 13.4713 13.9286 15.0333 11 15.0333C8.07136 15.0333 5.45955 13.4713 4.18455 11C5.45955 8.52867 8.07136 6.96667 11 6.96667ZM11 5.5C7.13636 5.5 3.83682 7.78067 2.5 11C3.83682 14.2193 7.13636 16.5 11 16.5C14.8636 16.5 18.1632 14.2193 19.5 11C18.1632 7.78067 14.8636 5.5 11 5.5ZM11 9.16667C12.0664 9.16667 12.9318 9.988 12.9318 11C12.9318 12.012 12.0664 12.8333 11 12.8333C9.93364 12.8333 9.06818 12.012 9.06818 11C9.06818 9.988 9.93364 9.16667 11 9.16667ZM11 7.7C9.08364 7.7 7.52273 9.18133 7.52273 11C7.52273 12.8187 9.08364 14.3 11 14.3C12.9164 14.3 14.4773 12.8187 14.4773 11C14.4773 9.18133 12.9164 7.7 11 7.7Z" fill="white"/>
</svg>
