<svg width="32" height="31" viewBox="0 0 32 31" fill="none" xmlns="http://www.w3.org/2000/svg">
<g clip-path="url(#clip0_4_2530)">
<path d="M23.4776 16.701C23.458 16.6472 21.5029 11.2983 20.6419 8.79306C20.0864 7.17656 19.1549 6.35693 17.8734 6.35693C16.0903 6.35693 15.4966 6.35693 13.7154 6.35693C12.4339 6.35693 11.5024 7.17656 10.947 8.79306C10.086 11.2983 8.13094 16.6473 8.11123 16.701C7.88414 17.322 8.2035 18.0096 8.82458 18.2366C9.4456 18.4637 10.1332 18.1442 10.3602 17.5233C10.3765 17.4787 11.717 13.8112 12.673 11.1108C12.7585 11.3915 12.9333 11.6325 13.1634 11.8034L13.1663 13.5579L11.1068 18.7512C10.9945 19.0344 11.1589 19.3509 11.4543 19.4219C11.7618 19.4958 12.1689 19.5964 12.6106 19.7068V29.3159C12.6106 30.1094 13.2539 30.7527 14.0474 30.7527C14.8409 30.7527 15.4842 30.1094 15.4842 29.3159V20.386C15.6906 20.4043 15.8981 20.4041 16.1045 20.3856V29.3159C16.1045 30.1094 16.7478 30.7527 17.5414 30.7527C18.3349 30.7527 18.9782 30.1094 18.9782 29.3159V19.7054C19.4195 19.5951 19.8263 19.4947 20.1338 19.4209C20.4271 19.3506 20.5943 19.0342 20.4817 18.7501L18.4225 13.5578L18.4254 11.8034C18.6555 11.6325 18.8302 11.3915 18.9158 11.1108C19.8717 13.8111 21.2123 17.4787 21.2285 17.5232C21.4556 18.1443 22.1432 18.4636 22.7642 18.2366C23.3854 18.0096 23.7047 17.322 23.4776 16.701Z" fill="#0B2C4C"/>
<path d="M15.7947 5.48003C17.2389 5.48003 18.4097 4.30925 18.4097 2.86502C18.4097 1.42078 17.2389 0.25 15.7947 0.25C14.3505 0.25 13.1797 1.42078 13.1797 2.86502C13.1797 4.30925 14.3505 5.48003 15.7947 5.48003Z" fill="#0B2C4C"/>
</g>
<defs>
<clipPath id="clip0_4_2530">
<rect width="30.5" height="30.5" fill="white" transform="translate(0.544922 0.25)"/>
</clipPath>
</defs>
</svg>
