<svg width="107" height="78" viewBox="0 0 107 78" fill="none" xmlns="http://www.w3.org/2000/svg">
<g clip-path="url(#clip0_103_7040)">
<path d="M90.7881 0H6.8106C3.46592 0.00374284 0.753754 2.70607 0.75 6.04281V59.2398C0.753754 62.5765 3.46592 65.2807 6.8106 65.2845H27.4643C27.5469 65.2845 27.6276 65.277 27.7046 65.262H72.9142C72.993 65.277 73.0718 65.2845 73.1544 65.2845H90.7881C94.1328 65.2807 96.845 62.5765 96.8488 59.2398V6.04281C96.845 2.70607 94.1328 0.00374284 90.7881 0ZM94.206 59.2398C94.2042 61.1224 92.6745 62.6458 90.7881 62.6495H73.1544C73.1319 62.6495 73.1094 62.6495 73.0868 62.6533H27.5319C27.5094 62.6495 27.4869 62.6495 27.4643 62.6495H6.8106C4.92429 62.6458 3.39459 61.1224 3.39272 59.2398V17.2863H94.206V59.2398ZM94.206 14.6513H3.39272V6.04281C3.39647 4.16204 4.92429 2.63683 6.8106 2.63496H90.7881C92.6745 2.63683 94.2042 4.16204 94.206 6.04281V14.6513Z" fill="url(#paint0_linear_103_7040)"/>
<path d="M11.2662 10.2331C12.2282 10.2331 13.008 9.45558 13.008 8.49644C13.008 7.5373 12.2282 6.75977 11.2662 6.75977C10.3042 6.75977 9.52441 7.5373 9.52441 8.49644C9.52441 9.45558 10.3042 10.2331 11.2662 10.2331Z" fill="url(#paint1_linear_103_7040)"/>
<path d="M17.4078 10.2331C18.3698 10.2331 19.1496 9.45558 19.1496 8.49644C19.1496 7.5373 18.3698 6.75977 17.4078 6.75977C16.4458 6.75977 15.666 7.5373 15.666 8.49644C15.666 9.45558 16.4458 10.2331 17.4078 10.2331Z" fill="url(#paint2_linear_103_7040)"/>
<path d="M23.5514 10.2331C24.5133 10.2331 25.2931 9.45558 25.2931 8.49644C25.2931 7.5373 24.5133 6.75977 23.5514 6.75977C22.5894 6.75977 21.8096 7.5373 21.8096 8.49644C21.8096 9.45558 22.5894 10.2331 23.5514 10.2331Z" fill="url(#paint3_linear_103_7040)"/>
<path d="M88.0761 7.17882H70.5757C69.8455 7.16946 69.2468 7.75335 69.2374 8.48133C69.228 9.20931 69.8136 9.8063 70.5438 9.81565C70.555 9.81565 70.5644 9.81565 70.5757 9.81565H88.0761C88.8063 9.82501 89.405 9.24113 89.4144 8.51314C89.4238 7.78516 88.8382 7.18818 88.1081 7.17882C88.0968 7.17882 88.0874 7.17882 88.0761 7.17882Z" fill="url(#paint4_linear_103_7040)"/>
<path d="M31.5507 43.2506L36.0065 34.528C36.3368 33.8786 36.0778 33.0851 35.4284 32.7557C34.7771 32.4264 33.9813 32.6846 33.6509 33.3321L30.4245 39.6482L27.8362 33.4126C27.5265 32.6883 26.6875 32.3515 25.9612 32.6584C25.6177 32.8044 25.3437 33.0795 25.201 33.4238L22.6165 39.6482L19.3919 33.3321C19.0616 32.6827 18.2658 32.4245 17.6145 32.7557C16.9632 33.0851 16.7041 33.8786 17.0364 34.528L21.4603 43.1908L21.4922 43.2506C21.8864 43.9337 22.7591 44.1676 23.4442 43.7746C23.7164 43.6174 23.9303 43.376 24.0523 43.086L26.5224 37.1348L28.998 43.0972C29.2083 43.5969 29.685 43.9318 30.2274 43.9618C30.2575 43.9618 30.2856 43.9637 30.3156 43.9637C30.8262 43.9637 31.2991 43.6923 31.5525 43.2506H31.5507Z" fill="url(#paint5_linear_103_7040)"/>
<path d="M43.7689 43.2506C44.163 43.9337 45.0377 44.1676 45.7209 43.7746C45.993 43.6174 46.207 43.376 46.329 43.086L48.799 37.1348L51.2747 43.0972C51.4849 43.5969 51.9635 43.9318 52.5041 43.9618C52.5341 43.9618 52.5623 43.9637 52.5923 43.9637C53.1028 43.9637 53.5758 43.6923 53.8292 43.2506L58.285 34.528C58.6154 33.8786 58.3564 33.0851 57.7069 32.7557C57.0575 32.4264 56.2617 32.6846 55.9295 33.3321L52.703 39.6482L50.1148 33.4126C49.8051 32.6883 48.9661 32.3515 48.2397 32.6584C47.8962 32.8044 47.6222 33.0795 47.4796 33.4238L44.8969 39.6482L41.6723 33.3321C41.342 32.6827 40.5462 32.4245 39.8949 32.7557C39.2436 33.0851 38.9864 33.8786 39.3168 34.528L43.7407 43.1908L43.7726 43.2506H43.7689Z" fill="url(#paint6_linear_103_7040)"/>
<path d="M66.0489 43.2506C66.4431 43.9337 67.3158 44.1676 68.0009 43.7746C68.2731 43.6174 68.487 43.376 68.609 43.086L71.0791 37.1348L73.5547 43.0972C73.765 43.5969 74.2417 43.9318 74.7841 43.9618C74.8142 43.9618 74.8423 43.9637 74.8724 43.9637C75.3829 43.9637 75.8559 43.6923 76.1092 43.2488L80.5651 34.5261C80.8954 33.8767 80.6364 33.0832 79.987 32.7538C79.3376 32.4245 78.5417 32.6827 78.2095 33.3302L74.985 39.6482L72.3948 33.4126C72.0851 32.6883 71.2461 32.3515 70.5198 32.6584C70.1763 32.8044 69.9022 33.0795 69.7596 33.4238L67.1769 39.6482L63.9505 33.3321C63.6202 32.6827 62.8243 32.4264 62.1731 32.7557C61.5218 33.0851 61.2627 33.8786 61.595 34.528L66.0189 43.1908L66.0508 43.2506H66.0489Z" fill="url(#paint7_linear_103_7040)"/>
</g>
<circle cx="90.4972" cy="61.5451" r="12.5665" fill="white"/>
<path d="M96.5788 56.8746C97.0109 57.3067 97.0109 58.0072 96.5788 58.4391L89.1577 65.8604C88.7256 66.2923 88.0253 66.2923 87.5932 65.8604L84.0605 62.3274C83.6284 61.8955 83.6284 61.1951 84.0605 60.7632C84.4924 60.3311 85.1928 60.3311 85.6247 60.7632L88.3753 63.5138L95.0143 56.8746C95.4464 56.4427 96.1469 56.4427 96.5788 56.8746ZM104.479 61.3675C104.479 69.1941 98.1452 75.527 90.3196 75.527C82.493 75.527 76.1602 69.1931 76.1602 61.3675C76.1602 53.5408 82.4941 47.208 90.3196 47.208C98.1463 47.208 104.479 53.5419 104.479 61.3675ZM102.267 61.3675C102.267 54.7637 96.9225 49.4204 90.3196 49.4204C83.7159 49.4204 78.3726 54.7646 78.3726 61.3675C78.3726 67.9713 83.7167 73.3145 90.3196 73.3145C96.9234 73.3145 102.267 67.9704 102.267 61.3675Z" fill="url(#paint8_linear_103_7040)"/>
<defs>
<linearGradient id="paint0_linear_103_7040" x1="48.7994" y1="0" x2="48.7994" y2="65.2845" gradientUnits="userSpaceOnUse">
<stop stop-color="#00A99D"/>
<stop offset="0.495" stop-color="#81319B"/>
<stop offset="1" stop-color="#0B2C4C"/>
</linearGradient>
<linearGradient id="paint1_linear_103_7040" x1="11.2662" y1="6.75977" x2="11.2662" y2="10.2331" gradientUnits="userSpaceOnUse">
<stop stop-color="#00A99D"/>
<stop offset="0.9998" stop-color="#406E9C"/>
<stop offset="0.9999" stop-color="#81319B"/>
</linearGradient>
<linearGradient id="paint2_linear_103_7040" x1="17.4078" y1="6.75977" x2="17.4078" y2="10.2331" gradientUnits="userSpaceOnUse">
<stop stop-color="#00A99D"/>
<stop offset="0.9998" stop-color="#406E9C"/>
<stop offset="0.9999" stop-color="#81319B"/>
</linearGradient>
<linearGradient id="paint3_linear_103_7040" x1="23.5514" y1="6.75977" x2="23.5514" y2="10.2331" gradientUnits="userSpaceOnUse">
<stop stop-color="#00A99D"/>
<stop offset="0.9998" stop-color="#406E9C"/>
<stop offset="0.9999" stop-color="#81319B"/>
</linearGradient>
<linearGradient id="paint4_linear_103_7040" x1="79.3259" y1="7.17871" x2="79.3259" y2="9.81576" gradientUnits="userSpaceOnUse">
<stop stop-color="#00A99D"/>
<stop offset="0.9998" stop-color="#406E9C"/>
<stop offset="0.9999" stop-color="#81319B"/>
</linearGradient>
<linearGradient id="paint5_linear_103_7040" x1="26.5208" y1="32.5449" x2="26.5208" y2="43.9653" gradientUnits="userSpaceOnUse">
<stop stop-color="#00A99D"/>
<stop offset="0.02" stop-color="#81319B"/>
<stop offset="1" stop-color="#0B2C4C"/>
</linearGradient>
<linearGradient id="paint6_linear_103_7040" x1="48.8007" y1="32.5449" x2="48.8007" y2="43.9653" gradientUnits="userSpaceOnUse">
<stop stop-color="#00A99D"/>
<stop offset="0.02" stop-color="#81319B"/>
<stop offset="1" stop-color="#0B2C4C"/>
</linearGradient>
<linearGradient id="paint7_linear_103_7040" x1="71.0794" y1="32.5449" x2="71.0794" y2="43.9653" gradientUnits="userSpaceOnUse">
<stop stop-color="#00A99D"/>
<stop offset="0.02" stop-color="#81319B"/>
<stop offset="1" stop-color="#0B2C4C"/>
</linearGradient>
<linearGradient id="paint8_linear_103_7040" x1="92.4796" y1="75.527" x2="92.4796" y2="47.208" gradientUnits="userSpaceOnUse">
<stop stop-color="#0B2C4C"/>
<stop offset="0.5" stop-color="#00A99D"/>
<stop offset="1" stop-color="#81319B"/>
</linearGradient>
<clipPath id="clip0_103_7040">
<rect width="96.0988" height="65.2845" fill="white" transform="translate(0.75)"/>
</clipPath>
</defs>
</svg>
