<svg width="28" height="28" viewBox="0 0 28 28" fill="none" xmlns="http://www.w3.org/2000/svg">
<path fill-rule="evenodd" clip-rule="evenodd" d="M0.629883 6.44911V21.5509C0.629883 24.6469 3.48294 27.5 6.579 27.5H21.6808C24.7768 27.5 27.6299 24.6469 27.6299 21.5509V6.44911C27.6299 3.35306 24.7768 0.5 21.6808 0.5H6.579C3.48294 0.5 0.629883 3.35306 0.629883 6.44911ZM21.0503 6.65918L15.7264 12.7345L22.237 21.3413H17.3316L13.1886 16.0096L8.524 21.3413H6.62118L12.307 14.7955L6.04675 6.65918H11.0765L14.8447 11.5205L19.0852 6.65918H21.0503ZM9.06029 8.21438L17.8363 19.7236H19.2931L10.5173 8.21438H9.06029Z" fill="#0B2C4C"/>
</svg>
