<svg width="34" height="34" viewBox="0 0 34 34" fill="none" xmlns="http://www.w3.org/2000/svg">
<path fill-rule="evenodd" clip-rule="evenodd" d="M3.5 9.44911V24.5509C3.5 27.6469 6.35306 30.5 9.44911 30.5H24.5509C27.6469 30.5 30.5 27.6469 30.5 24.5509V9.44911C30.5 6.35306 27.6469 3.5 24.5509 3.5H9.44911C6.35306 3.5 3.5 6.35306 3.5 9.44911ZM23.9204 9.65918L18.5965 15.7345L25.1071 24.3413H20.2017L16.0587 19.0096L11.3941 24.3413H9.49129L15.1772 17.7955L8.91687 9.65918H13.9466L17.7148 14.5205L21.9553 9.65918H23.9204ZM11.9304 11.2144L20.7064 22.7236H22.1632L13.3874 11.2144H11.9304Z" fill="white"/>
</svg>
