<svg width="40" height="40" viewBox="0 0 40 40" fill="none" xmlns="http://www.w3.org/2000/svg">
<path fill-rule="evenodd" clip-rule="evenodd" d="M9 8.75C9 7.75544 9.38631 6.80161 10.0739 6.09835C10.7616 5.39509 11.6942 5 12.6667 5H21.0743C22.0467 5.00021 22.9792 5.39544 23.6667 6.09875L29.9257 12.5C30.6133 13.2031 30.9998 14.1568 31 15.1512V31.25C31 32.2446 30.6137 33.1984 29.9261 33.9016C29.2384 34.6049 28.3058 35 27.3333 35H12.6667C11.6942 35 10.7616 34.6049 10.0739 33.9016C9.38631 33.1984 9 32.2446 9 31.25V8.75Z" fill="#34B25B"/>
<path d="M9 17H31" stroke="white"/>
<path d="M15.2614 27.34L14.0514 24.87C14.2047 24.8433 14.3781 24.83 14.5714 24.83C14.6647 24.83 14.7547 24.8333 14.8414 24.84C14.9347 24.8467 15.0314 24.8567 15.1314 24.87L16.1914 27.35L14.9114 30C14.8247 30.0133 14.7381 30.0233 14.6514 30.03C14.5714 30.0367 14.4914 30.04 14.4114 30.04C14.3181 30.04 14.2281 30.0367 14.1414 30.03C14.0547 30.0233 13.9647 30.0133 13.8714 30L15.2614 27.34ZM16.2714 27.35L17.3414 24.87C17.4347 24.8567 17.5281 24.8467 17.6214 24.84C17.7147 24.8333 17.8081 24.83 17.9014 24.83C18.0814 24.83 18.2481 24.8433 18.4014 24.87L17.2114 27.31L18.6014 30C18.5081 30.0133 18.4181 30.0233 18.3314 30.03C18.2447 30.0367 18.1547 30.04 18.0614 30.04C17.8814 30.04 17.7147 30.0267 17.5614 30L16.2714 27.35ZM19.5593 22.67C19.6326 22.6567 19.7126 22.6467 19.7993 22.64C19.8926 22.6333 19.976 22.63 20.0493 22.63C20.1226 22.63 20.2026 22.6333 20.2893 22.64C20.3826 22.6467 20.466 22.6567 20.5393 22.67V28.45C20.5393 28.6367 20.556 28.7833 20.5893 28.89C20.6226 28.9967 20.666 29.08 20.7193 29.14C20.7793 29.1933 20.846 29.23 20.9193 29.25C20.9993 29.2633 21.0826 29.27 21.1693 29.27C21.2293 29.27 21.296 29.2667 21.3693 29.26C21.4493 29.2533 21.516 29.2433 21.5693 29.23C21.6293 29.4633 21.6593 29.7167 21.6593 29.99C21.566 30.0233 21.4526 30.0433 21.3193 30.05C21.186 30.0633 21.0626 30.07 20.9493 30.07C20.756 30.07 20.576 30.0467 20.4093 30C20.2426 29.9533 20.096 29.8767 19.9693 29.77C19.8426 29.6633 19.7426 29.52 19.6693 29.34C19.596 29.16 19.5593 28.9367 19.5593 28.67V22.67ZM22.4678 29.07C22.6478 29.1433 22.8445 29.2033 23.0578 29.25C23.2778 29.29 23.4945 29.31 23.7078 29.31C23.8611 29.31 24.0078 29.2933 24.1478 29.26C24.2878 29.2267 24.4078 29.1767 24.5078 29.11C24.6145 29.0433 24.6978 28.9633 24.7578 28.87C24.8245 28.77 24.8578 28.66 24.8578 28.54C24.8578 28.4067 24.8311 28.2967 24.7778 28.21C24.7311 28.1233 24.6645 28.05 24.5778 27.99C24.4978 27.93 24.4011 27.88 24.2878 27.84C24.1811 27.7933 24.0645 27.75 23.9378 27.71L23.5878 27.58C23.1611 27.42 22.8511 27.24 22.6578 27.04C22.4645 26.84 22.3678 26.57 22.3678 26.23C22.3678 25.7767 22.5278 25.4167 22.8478 25.15C23.1745 24.8833 23.6511 24.75 24.2778 24.75C24.5378 24.75 24.7911 24.7767 25.0378 24.83C25.2911 24.8767 25.5111 24.9333 25.6978 25C25.6845 25.1333 25.6578 25.2667 25.6178 25.4C25.5845 25.5333 25.5411 25.6567 25.4878 25.77C25.3411 25.7167 25.1645 25.6667 24.9578 25.62C24.7578 25.5667 24.5411 25.54 24.3078 25.54C24.0611 25.54 23.8411 25.5833 23.6478 25.67C23.4611 25.7567 23.3678 25.91 23.3678 26.13C23.3678 26.2433 23.3911 26.34 23.4378 26.42C23.4845 26.5 23.5478 26.57 23.6278 26.63C23.7078 26.6833 23.7978 26.73 23.8978 26.77C24.0045 26.81 24.1178 26.85 24.2378 26.89L24.6778 27.04C24.8378 27.0933 24.9878 27.1567 25.1278 27.23C25.2745 27.3033 25.3978 27.3967 25.4978 27.51C25.6045 27.6167 25.6878 27.75 25.7478 27.91C25.8145 28.0633 25.8478 28.25 25.8478 28.47C25.8478 28.7167 25.7978 28.9433 25.6978 29.15C25.5978 29.35 25.4545 29.5233 25.2678 29.67C25.0878 29.81 24.8678 29.92 24.6078 30C24.3478 30.08 24.0611 30.12 23.7478 30.12C23.4278 30.12 23.1478 30.0967 22.9078 30.05C22.6678 30.01 22.4445 29.9533 22.2378 29.88C22.2511 29.7467 22.2778 29.6133 22.3178 29.48C22.3645 29.34 22.4145 29.2033 22.4678 29.07Z" fill="white"/>
</svg>
