<svg width="40" height="41" viewBox="0 0 40 41" fill="none" xmlns="http://www.w3.org/2000/svg">
<g filter="url(#filter0_d_50559_305585)">
<path fill-rule="evenodd" clip-rule="evenodd" d="M9 8.75C9 7.75544 9.38631 6.80161 10.0739 6.09835C10.7616 5.39509 11.6942 5 12.6667 5H21.0743C22.0467 5.00021 22.9792 5.39544 23.6667 6.09875L29.9257 12.5C30.6133 13.2031 30.9998 14.1568 31 15.1512V31.25C31 32.2446 30.6137 33.1984 29.9261 33.9016C29.2384 34.6049 28.3058 35 27.3333 35H12.6667C11.6942 35 10.7616 34.6049 10.0739 33.9016C9.38631 33.1984 9 32.2446 9 31.25V8.75Z" fill="#E68231"/>
<path d="M9 17H31" stroke="white"/>
<path d="M13.2692 27.34L12.0592 24.87C12.2126 24.8433 12.3859 24.83 12.5792 24.83C12.6726 24.83 12.7626 24.8333 12.8492 24.84C12.9426 24.8467 13.0392 24.8567 13.1392 24.87L14.1992 27.35L12.9192 30C12.8326 30.0133 12.7459 30.0233 12.6592 30.03C12.5792 30.0367 12.4992 30.04 12.4192 30.04C12.3259 30.04 12.2359 30.0367 12.1492 30.03C12.0626 30.0233 11.9726 30.0133 11.8792 30L13.2692 27.34ZM14.2792 27.35L15.3492 24.87C15.4426 24.8567 15.5359 24.8467 15.6292 24.84C15.7226 24.8333 15.8159 24.83 15.9092 24.83C16.0892 24.83 16.2559 24.8433 16.4092 24.87L15.2192 27.31L16.6092 30C16.5159 30.0133 16.4259 30.0233 16.3392 30.03C16.2526 30.0367 16.1626 30.04 16.0692 30.04C15.8892 30.04 15.7226 30.0267 15.5692 30L14.2792 27.35ZM17.5871 24.87C17.6604 24.8567 17.7304 24.8467 17.7971 24.84C17.8704 24.8333 17.9438 24.83 18.0171 24.83C18.0904 24.83 18.1571 24.8333 18.2171 24.84C18.2838 24.8467 18.3538 24.8567 18.4271 24.87C18.4471 24.97 18.4671 25.1033 18.4871 25.27C18.5071 25.43 18.5171 25.5667 18.5171 25.68C18.5771 25.56 18.6504 25.4467 18.7371 25.34C18.8304 25.2267 18.9371 25.1267 19.0571 25.04C19.1838 24.9533 19.3271 24.8833 19.4871 24.83C19.6471 24.7767 19.8238 24.75 20.0171 24.75C20.4171 24.75 20.7238 24.8333 20.9371 25C21.1571 25.16 21.3238 25.3867 21.4371 25.68C21.5038 25.5667 21.5838 25.4533 21.6771 25.34C21.7771 25.2267 21.8871 25.1267 22.0071 25.04C22.1271 24.9533 22.2638 24.8833 22.4171 24.83C22.5704 24.7767 22.7438 24.75 22.9371 24.75C23.5304 24.75 23.9604 24.9167 24.2271 25.25C24.5004 25.5833 24.6371 26.0767 24.6371 26.73V30C24.5638 30.0133 24.4804 30.0233 24.3871 30.03C24.2938 30.0367 24.2104 30.04 24.1371 30.04C24.0638 30.04 23.9804 30.0367 23.8871 30.03C23.8004 30.0233 23.7204 30.0133 23.6471 30V27.02C23.6471 26.56 23.5771 26.2167 23.4371 25.99C23.2971 25.7567 23.0671 25.64 22.7471 25.64C22.4071 25.64 22.1304 25.7633 21.9171 26.01C21.7104 26.2567 21.6071 26.62 21.6071 27.1V30C21.5338 30.0133 21.4504 30.0233 21.3571 30.03C21.2704 30.0367 21.1904 30.04 21.1171 30.04C21.0438 30.04 20.9604 30.0367 20.8671 30.03C20.7804 30.0233 20.7004 30.0133 20.6271 30V26.95C20.6271 26.5033 20.5604 26.17 20.4271 25.95C20.2938 25.7233 20.0804 25.61 19.7871 25.61C19.6204 25.61 19.4638 25.6467 19.3171 25.72C19.1704 25.7933 19.0404 25.9033 18.9271 26.05C18.8204 26.1967 18.7338 26.3833 18.6671 26.61C18.6071 26.83 18.5771 27.0867 18.5771 27.38V30C18.5038 30.0133 18.4204 30.0233 18.3271 30.03C18.2404 30.0367 18.1604 30.04 18.0871 30.04C18.0138 30.04 17.9304 30.0367 17.8371 30.03C17.7438 30.0233 17.6604 30.0133 17.5871 30V24.87ZM26.1023 22.67C26.1756 22.6567 26.2556 22.6467 26.3423 22.64C26.4356 22.6333 26.5189 22.63 26.5923 22.63C26.6656 22.63 26.7456 22.6333 26.8323 22.64C26.9256 22.6467 27.0089 22.6567 27.0823 22.67V28.45C27.0823 28.6367 27.0989 28.7833 27.1323 28.89C27.1656 28.9967 27.2089 29.08 27.2623 29.14C27.3223 29.1933 27.3889 29.23 27.4623 29.25C27.5423 29.2633 27.6256 29.27 27.7123 29.27C27.7723 29.27 27.8389 29.2667 27.9123 29.26C27.9923 29.2533 28.0589 29.2433 28.1123 29.23C28.1723 29.4633 28.2023 29.7167 28.2023 29.99C28.1089 30.0233 27.9956 30.0433 27.8623 30.05C27.7289 30.0633 27.6056 30.07 27.4923 30.07C27.2989 30.07 27.1189 30.0467 26.9523 30C26.7856 29.9533 26.6389 29.8767 26.5123 29.77C26.3856 29.6633 26.2856 29.52 26.2123 29.34C26.1389 29.16 26.1023 28.9367 26.1023 28.67V22.67Z" fill="white"/>
</g>
<defs>
<filter id="filter0_d_50559_305585" x="-2" y="-2" width="48" height="48" filterUnits="userSpaceOnUse" color-interpolation-filters="sRGB">
<feFlood flood-opacity="0" result="BackgroundImageFix"/>
<feColorMatrix in="SourceAlpha" type="matrix" values="0 0 0 0 0 0 0 0 0 0 0 0 0 0 0 0 0 0 127 0" result="hardAlpha"/>
<feOffset dx="2" dy="2"/>
<feGaussianBlur stdDeviation="2"/>
<feColorMatrix type="matrix" values="0 0 0 0 0.35 0 0 0 0 0.215758 0 0 0 0 0.0860417 0 0 0 0.25 0"/>
<feBlend mode="normal" in2="BackgroundImageFix" result="effect1_dropShadow_50559_305585"/>
<feBlend mode="normal" in="SourceGraphic" in2="effect1_dropShadow_50559_305585" result="shape"/>
</filter>
</defs>
</svg>
