<svg width="30" height="30" viewBox="-3 0 30 26" fill="none" xmlns="http://www.w3.org/2000/svg">
<path d="M23.3876 7.85608L16.2698 0.614405C16.1978 0.541163 16.1002 0.5 15.9984 0.5H7.93622C6.05975 0.5 4.53313 2.05295 4.53313 3.9617V10.813H1.54636C0.969369 10.813 0.5 11.2905 0.5 11.8775V17.9967C0.5 18.5836 0.969417 19.0611 1.54636 19.0611H4.53313V22.0383C4.53313 23.9471 6.05975 25.5 7.93622 25.5H20.0969C21.9733 25.5 23.5 23.9471 23.5 22.0383V8.13206C23.5 8.02854 23.4595 7.92927 23.3876 7.85608ZM16.3821 1.83278L22.19 7.74167H16.7658C16.5542 7.74167 16.3821 7.56594 16.3821 7.35002L16.3821 1.83278ZM1.26742 17.9967V11.8775C1.26742 11.7236 1.39515 11.5937 1.54636 11.5937H17.9442C18.098 11.5937 18.2231 11.721 18.2231 11.8775V17.9967C18.2231 18.1531 18.098 18.2804 17.9442 18.2804H1.54636C1.39515 18.2804 1.26742 18.1505 1.26742 17.9967ZM20.0969 24.7193H7.93622C6.4829 24.7193 5.30054 23.5166 5.30054 22.0383V19.0611H17.9442C18.5212 19.0611 18.9905 18.5836 18.9905 17.9967V11.8775C18.9905 11.2905 18.5211 10.813 17.9442 10.813H5.30054V3.96166C5.30054 2.48337 6.4829 1.28067 7.93622 1.28067H15.6147V7.35002C15.6147 7.99646 16.1311 8.52239 16.7658 8.52239H22.7325V22.0383C22.7325 23.5166 21.5501 24.7193 20.0969 24.7193ZM11.4869 12.8169C11.4875 12.8271 11.4878 12.8374 11.4877 12.8476V17.0319C11.4877 17.2475 11.3159 17.4222 11.104 17.4222C10.892 17.4222 10.7202 17.2475 10.7202 17.0319V14.0812L9.97739 15.1615C9.90557 15.2659 9.78821 15.3281 9.66297 15.3281C9.53768 15.328 9.42022 15.2658 9.34846 15.1613L8.60711 14.0821V17.0319C8.60711 17.2474 8.4353 17.4222 8.22337 17.4222C8.01144 17.4222 7.83964 17.2474 7.83964 17.0319V12.8476C7.8395 12.8375 7.83974 12.8273 7.84041 12.8172C7.84386 12.7613 7.85889 12.7087 7.88303 12.6616C7.90708 12.6147 7.94088 12.5721 7.98379 12.5372C8.02013 12.5077 8.0618 12.4847 8.10721 12.47C8.15343 12.455 8.20129 12.4495 8.24886 12.4527C8.3032 12.4563 8.35447 12.4715 8.40031 12.4958C8.44663 12.5202 8.48868 12.5546 8.52305 12.5984C8.52934 12.6064 8.53529 12.6146 8.54096 12.6231L9.66311 14.2566L10.7864 12.623C10.7921 12.6145 10.7982 12.6062 10.8045 12.5981C10.8386 12.5546 10.8805 12.5204 10.9265 12.496C10.9725 12.4716 11.024 12.4563 11.0786 12.4527C11.126 12.4496 11.1743 12.4552 11.2207 12.4703C11.266 12.485 11.3076 12.5079 11.3438 12.5375C11.3866 12.5723 11.4202 12.6148 11.4443 12.6617C11.4684 12.7086 11.4834 12.7612 11.4869 12.8169ZM15.6991 17.0319C15.6991 17.2475 15.5273 17.4222 15.3153 17.4222H12.8416C12.6296 17.4222 12.4578 17.2475 12.4578 17.0319V12.8422C12.4578 12.6266 12.6296 12.4518 12.8416 12.4518C13.0535 12.4518 13.2253 12.6266 13.2253 12.8422V16.6416H15.3153C15.5273 16.6416 15.6991 16.8163 15.6991 17.0319ZM6.97795 13.0432L5.85973 14.9371L6.97795 16.8309C7.08706 17.0157 7.02825 17.2555 6.84656 17.3665C6.78474 17.4043 6.71657 17.4223 6.64937 17.4223C6.51904 17.4223 6.39203 17.3548 6.32007 17.2329L5.4121 15.6952L4.50413 17.2329C4.43218 17.3548 4.30512 17.4223 4.17484 17.4223C4.10758 17.4223 4.03952 17.4044 3.97764 17.3665C3.79595 17.2556 3.73715 17.0157 3.84626 16.8309L4.96448 14.9371L3.84626 13.0432C3.73715 12.8584 3.79595 12.6186 3.97764 12.5076C4.15938 12.3967 4.39507 12.4565 4.50413 12.6412L5.4121 14.1789L6.32007 12.6412C6.42918 12.4564 6.66487 12.3964 6.84656 12.5076C7.02825 12.6185 7.0871 12.8584 6.97795 13.0432Z" fill="url(#paint0_linear_1924_11877)"/>
<defs>
<linearGradient id="paint0_linear_1924_11877" x1="12.0002" y1="24.6976" x2="12.0002" y2="0.499741" gradientUnits="userSpaceOnUse">
<stop stop-color="#0B2C4C"/>
<stop offset="0.4577" stop-color="#00A99D"/>
<stop offset="1" stop-color="#81319B"/>
</linearGradient>
</defs>
</svg>
