<svg width="28" height="28" viewBox="0 0 28 28" fill="none" xmlns="http://www.w3.org/2000/svg">
<path d="M22.4415 0.399902H4.95249C3.66496 0.401422 2.43069 0.91396 1.52081 1.82492C0.610925 2.73587 0.0998526 3.97075 0.0998535 5.25827V22.7415C0.0998526 24.0291 0.610925 25.2639 1.52081 26.1749C2.43069 27.0858 3.66496 27.5984 4.95249 27.5999H22.4415C23.73 27.5999 24.9657 27.088 25.8769 26.1769C26.788 25.2658 27.2999 24.0301 27.2999 22.7415V5.24681C27.2968 3.96028 26.7836 2.72747 25.8728 1.81882C24.962 0.910183 23.728 0.399899 22.4415 0.399902ZM22.2407 18.3191C22.1407 18.6986 21.9422 19.045 21.6651 19.323C21.3881 19.601 21.0425 19.8009 20.6633 19.9022C19.2752 20.2808 13.6999 20.2808 13.6999 20.2808C13.6999 20.2808 8.12447 20.2808 6.73637 19.9022C6.3572 19.8009 6.01157 19.601 5.73455 19.323C5.45753 19.045 5.25895 18.6986 5.15897 18.3191C4.90178 16.8939 4.77697 15.448 4.78614 13.9999C4.77697 12.5517 4.90178 11.1059 5.15897 9.68071C5.25967 9.3009 5.4584 8.95422 5.73523 8.67537C6.01207 8.39652 6.3573 8.1953 6.73637 8.09185C8.12447 7.71901 13.6999 7.71901 13.6999 7.71901C13.6999 7.71901 19.2752 7.71901 20.6633 8.09185C21.0424 8.1953 21.3876 8.39652 21.6645 8.67537C21.9413 8.95422 22.14 9.3009 22.2407 9.68071C22.4979 11.1059 22.6227 12.5517 22.6136 13.9999C22.622 15.4442 22.4972 16.8862 22.2407 18.3076V18.3191Z" fill="#0B2C4C"/>
<path d="M11.8816 16.6385L16.5392 13.9885L11.8816 11.3384V16.6385Z" fill="#0B2C4C"/>
</svg>
