<svg width="34" height="36" viewBox="0 0 34 36" fill="none" xmlns="http://www.w3.org/2000/svg">
<path d="M7.08521 32.5C6.66494 32.4995 6.26201 32.3323 5.96483 32.035C5.66765 31.7376 5.50048 31.3345 5.5 30.9141V10.383C5.5 10.3235 5.51171 10.2645 5.53447 10.2096C5.55723 10.1546 5.59059 10.1046 5.63265 10.0626L12.0596 3.63271C12.1016 3.59063 12.1516 3.55726 12.2065 3.53449C12.2615 3.51172 12.3204 3.5 12.3798 3.5H26.9148C27.3351 3.50048 27.738 3.66772 28.0352 3.96504C28.3324 4.26236 28.4995 4.66547 28.5 5.08594V30.9141C28.4995 31.3345 28.3324 31.7376 28.0352 32.035C27.738 32.3323 27.3351 32.4995 26.9148 32.5H7.08521ZM11.9269 5.04708L7.04638 9.92984H11.2475C11.4277 9.92965 11.6004 9.85798 11.7277 9.73055C11.8551 9.60313 11.9267 9.43036 11.9269 9.25016V5.04708ZM27.5942 30.9141V5.08594C27.594 4.90573 27.5223 4.73296 27.395 4.60554C27.2676 4.47812 27.0949 4.40644 26.9148 4.40625H12.8328V9.25016C12.8323 9.67063 12.6651 10.0737 12.3679 10.3711C12.0707 10.6684 11.6678 10.8356 11.2475 10.8361H6.40584V30.9141C6.40603 31.0943 6.47767 31.267 6.60504 31.3945C6.7324 31.5219 6.90509 31.5936 7.08521 31.5938H26.9148C27.0949 31.5936 27.2676 31.5219 27.395 31.3945C27.5223 31.267 27.594 31.0943 27.5942 30.9141ZM25.8206 28.6477H8.17941C8.05929 28.6477 7.94409 28.6 7.85915 28.515C7.77421 28.43 7.72649 28.3148 7.72649 28.1946C7.72649 28.0744 7.77421 27.9591 7.85915 27.8742C7.94409 27.7892 8.05929 27.7415 8.17941 27.7415H9.33769V18.1047C9.33769 17.9846 9.38541 17.8693 9.47035 17.7843C9.55529 17.6993 9.67049 17.6516 9.79061 17.6516H12.0997C12.2198 17.6516 12.335 17.6993 12.42 17.7843C12.5049 17.8693 12.5526 17.9846 12.5526 18.1047V27.7415H13.3743V20.6929C13.3743 20.5727 13.422 20.4574 13.5069 20.3725C13.5919 20.2875 13.7071 20.2397 13.8272 20.2397H16.1363C16.2564 20.2397 16.3716 20.2875 16.4565 20.3725C16.5415 20.4574 16.5892 20.5727 16.5892 20.6929V27.7415H17.4108V23.1033C17.4108 22.9831 17.4585 22.8679 17.5435 22.7829C17.6284 22.6979 17.7436 22.6502 17.8637 22.6502H20.1728C20.2929 22.6502 20.4081 22.6979 20.4931 22.7829C20.578 22.8679 20.6257 22.9831 20.6257 23.1033V27.7417H21.4474V24.8163C21.4474 24.6961 21.4951 24.5809 21.58 24.4959C21.665 24.4109 21.7802 24.3632 21.9003 24.3632H24.2094C24.3295 24.3632 24.4447 24.4109 24.5297 24.4959C24.6146 24.5809 24.6623 24.6961 24.6623 24.8163V27.7415H25.8206C25.9407 27.7415 26.0559 27.7892 26.1409 27.8742C26.2258 27.9591 26.2735 28.0744 26.2735 28.1946C26.2735 28.3148 26.2258 28.43 26.1409 28.515C26.0559 28.6 25.9407 28.6477 25.8206 28.6477ZM11.6468 18.5579H10.2435V27.7415H11.6468V18.5579ZM15.6834 21.146H14.2802V27.7415H15.6834L15.6834 21.146ZM19.7201 23.5562H18.3168V27.7415H19.7199L19.7201 23.5562ZM23.7567 25.2694H22.3534V27.7415H23.7565L23.7567 25.2694ZM16.7176 17.8722L13.1342 14.3807H15.022C15.1422 14.3807 15.2574 14.3329 15.3423 14.2479C15.4272 14.163 15.475 14.0477 15.475 13.9275C15.475 13.8074 15.4272 13.6921 15.3423 13.6071C15.2574 13.5222 15.1422 13.4744 15.022 13.4744H12.0202C11.9 13.4744 11.7848 13.5222 11.6999 13.6071C11.615 13.6921 11.5672 13.8074 11.5672 13.9275V16.9308C11.5672 17.051 11.615 17.1662 11.6999 17.2512C11.7848 17.3362 11.9 17.3839 12.0202 17.3839C12.1403 17.3839 12.2555 17.3362 12.3404 17.2512C12.4254 17.1662 12.4731 17.051 12.4731 16.9308V15.0013L16.4055 18.8336C16.4908 18.9167 16.6055 18.9629 16.7245 18.9621C16.8436 18.9614 16.9576 18.9137 17.0418 18.8294L19.961 15.9088L24.5 20.4499C24.5853 20.5333 24.7 20.5797 24.8192 20.5791C24.9385 20.5784 25.0527 20.5307 25.137 20.4464C25.2213 20.362 25.269 20.2478 25.2696 20.1285C25.2703 20.0092 25.2239 19.8945 25.1405 19.8092L20.2812 14.9476C20.1962 14.8626 20.081 14.8149 19.9609 14.8149C19.8408 14.8149 19.7256 14.8626 19.6407 14.9476L16.7176 17.8722ZM23.1904 13.7383C22.475 13.7375 21.7892 13.4528 21.2833 12.9467C20.7775 12.4407 20.4929 11.7545 20.4921 11.0388C20.4921 10.9186 20.5398 10.8034 20.6248 10.7184C20.7097 10.6334 20.8249 10.5857 20.945 10.5857H22.7375V8.79267C22.7375 8.67249 22.7852 8.55724 22.8701 8.47226C22.9551 8.38728 23.0703 8.33954 23.1904 8.33954C23.5447 8.33954 23.8956 8.40937 24.223 8.54503C24.5503 8.68069 24.8478 8.87954 25.0983 9.13021C25.3489 9.38088 25.5476 9.67847 25.6832 10.006C25.8188 10.3335 25.8886 10.6845 25.8886 11.039C25.8886 11.3935 25.8188 11.7446 25.6832 12.0721C25.5476 12.3996 25.3489 12.6972 25.0983 12.9479C24.8478 13.1985 24.5503 13.3974 24.223 13.533C23.8956 13.6687 23.5447 13.7385 23.1904 13.7385V13.7383ZM23.6433 9.30334V11.0389C23.6433 11.159 23.5956 11.2743 23.5106 11.3593C23.4257 11.4443 23.3105 11.492 23.1904 11.492H21.4556C21.5354 11.7975 21.6943 12.0765 21.9165 12.3008C22.1386 12.5251 22.416 12.6868 22.7206 12.7695C23.0252 12.8522 23.3462 12.8529 23.6512 12.7717C23.9562 12.6904 24.2343 12.5301 24.4575 12.3068C24.6806 12.0835 24.8409 11.8052 24.9221 11.5001C25.0033 11.195 25.0026 10.8738 24.9199 10.5691C24.8373 10.2644 24.6757 9.98685 24.4514 9.76463C24.2272 9.54242 23.9483 9.38337 23.643 9.30357L23.6433 9.30334ZM21.8486 10.1518H19.6033C19.4831 10.1518 19.3679 10.104 19.283 10.019C19.1981 9.93407 19.1503 9.81881 19.1503 9.69864C19.1512 8.98294 19.4357 8.29678 19.9415 7.7907C20.4474 7.28462 21.1332 6.99995 21.8486 6.99914C21.9687 6.99914 22.0839 7.04688 22.1689 7.13186C22.2538 7.21684 22.3015 7.33209 22.3015 7.45227V9.69864C22.3016 9.7582 22.2899 9.8172 22.2671 9.87224C22.2444 9.92728 22.211 9.9773 22.1689 10.0194C22.1268 10.0615 22.0768 10.0949 22.0218 10.1177C21.9668 10.1405 21.9078 10.1522 21.8483 10.1522L21.8486 10.1518ZM21.3957 7.96334C21.0877 8.04449 20.8067 8.20598 20.5815 8.43131C20.3563 8.65665 20.1949 8.93775 20.1138 9.24591H21.3953L21.3957 7.96334Z" fill="#0B2C4C"/>
</svg>
