<svg width="34" height="36" viewBox="0 0 34 36" fill="none" xmlns="http://www.w3.org/2000/svg">
<path d="M13.5479 25.5272H9.30733C9.12325 25.5272 8.94672 25.4538 8.81656 25.323C8.6864 25.1923 8.61328 25.0149 8.61328 24.83C8.61328 24.6451 8.6864 24.4678 8.81656 24.337C8.94672 24.2063 9.12325 24.1328 9.30733 24.1328H13.5479C13.732 24.1328 13.9085 24.2063 14.0387 24.337C14.1689 24.4678 14.242 24.6451 14.242 24.83C14.242 25.0149 14.1689 25.1923 14.0387 25.323C13.9085 25.4538 13.732 25.5272 13.5479 25.5272Z" fill="#0B2C4C"/>
<path d="M7.30215 25.5272H6.60811C6.42404 25.5272 6.2475 25.4538 6.11734 25.323C5.98718 25.1923 5.91406 25.0149 5.91406 24.83C5.91406 24.6451 5.98718 24.4678 6.11734 24.337C6.2475 24.2063 6.42404 24.1328 6.60811 24.1328H7.30215C7.48622 24.1328 7.66276 24.2063 7.79292 24.337C7.92307 24.4678 7.9962 24.6451 7.9962 24.83C7.9962 25.0149 7.92307 25.1923 7.79292 25.323C7.66276 25.4538 7.48622 25.5272 7.30215 25.5272Z" fill="#0B2C4C"/>
<path d="M19.1008 31.8008H14.9366C14.3844 31.8008 13.8548 31.5804 13.4643 31.1882C13.0738 30.7959 12.8544 30.2639 12.8544 29.7092V22.04H10.0783C9.94124 22.0393 9.80749 21.9979 9.69386 21.921C9.58023 21.844 9.49181 21.735 9.43974 21.6077C9.38659 21.4807 9.37207 21.3408 9.39801 21.2056C9.42395 21.0703 9.48919 20.9458 9.58549 20.8478L16.5259 13.8758C16.5905 13.8104 16.6672 13.7585 16.7518 13.7232C16.8364 13.6878 16.9271 13.6695 17.0187 13.6695C17.1103 13.6695 17.201 13.6878 17.2856 13.7232C17.3702 13.7585 17.447 13.8104 17.5115 13.8758L24.4519 20.8478C24.5482 20.9458 24.6135 21.0703 24.6394 21.2056C24.6653 21.3408 24.6508 21.4807 24.5977 21.6077C24.5456 21.735 24.4572 21.844 24.3436 21.921C24.2299 21.9979 24.0962 22.0393 23.9592 22.04H21.183V24.1316C21.183 24.3165 21.1099 24.4938 20.9797 24.6246C20.8495 24.7553 20.673 24.8288 20.4889 24.8288C20.3049 24.8288 20.1283 24.7553 19.9982 24.6246C19.868 24.4938 19.7949 24.3165 19.7949 24.1316V21.3428C19.7949 21.1579 19.868 20.9805 19.9982 20.8498C20.1283 20.719 20.3049 20.6456 20.4889 20.6456H22.2865L17.0187 15.3538L11.7509 20.6456H13.5485C13.7326 20.6456 13.9091 20.719 14.0393 20.8498C14.1694 20.9805 14.2425 21.1579 14.2425 21.3428V29.7092C14.2425 29.8941 14.3157 30.0714 14.4458 30.2022C14.576 30.3329 14.7525 30.4064 14.9366 30.4064H19.1008C19.2849 30.4064 19.4614 30.3329 19.5916 30.2022C19.7218 30.0714 19.7949 29.8941 19.7949 29.7092V29.0608C19.7949 25.1704 23.2651 24.1316 25.3472 24.1316H26.7353C27.6027 24.1307 28.4579 23.9257 29.2322 23.533C30.0065 23.1403 30.6784 22.5709 31.1942 21.8703C31.7099 21.1697 32.0551 20.3575 32.202 19.4987C32.3489 18.64 32.2935 17.7586 32.0402 16.9252C31.7869 16.0919 31.3428 15.3297 30.7434 14.6998C30.144 14.07 29.4061 13.59 28.5887 13.2983C27.7714 13.0065 26.8974 12.9112 26.0368 13.02C25.1762 13.1288 24.3529 13.4386 23.633 13.9246C23.5267 13.9978 23.4022 14.0398 23.2735 14.0459C23.1448 14.0521 23.0169 14.0221 22.9042 13.9594C22.7906 13.8956 22.6972 13.8009 22.6346 13.6863C22.572 13.5716 22.5428 13.4416 22.5502 13.311V13.1716C22.5502 13.1088 22.5502 13.0461 22.5502 12.9764C22.5502 11.1273 21.819 9.35393 20.5174 8.04642C19.2159 6.73892 17.4505 6.00437 15.6098 6.00437C13.7691 6.00437 12.0037 6.73892 10.7022 8.04642C9.40058 9.35393 8.66935 11.1273 8.66935 12.9764C8.66986 13.249 8.68608 13.5214 8.71794 13.7921C8.73072 13.9049 8.7159 14.0191 8.67478 14.1248C8.63366 14.2305 8.56747 14.3245 8.48196 14.3987C8.39649 14.4729 8.29429 14.525 8.18423 14.5505C8.07417 14.576 7.95957 14.5741 7.85038 14.5451C6.65054 14.2372 5.37893 14.4011 4.29541 15.0035C3.21189 15.6059 2.39825 16.6011 2.02076 17.7859C1.64327 18.9707 1.73042 20.2556 2.26441 21.378C2.7984 22.5005 3.73891 23.3757 4.89375 23.8248C4.97943 23.8569 5.05798 23.9055 5.12492 23.9681C5.19187 24.0306 5.2459 24.1058 5.28392 24.1893C5.32194 24.2728 5.34322 24.3631 5.34654 24.4548C5.34985 24.5466 5.33514 24.6381 5.30324 24.7242C5.27134 24.8103 5.22287 24.8892 5.16062 24.9564C5.09836 25.0237 5.02352 25.0779 4.94039 25.1161C4.85725 25.1543 4.76743 25.1757 4.67607 25.179C4.58471 25.1824 4.49359 25.1676 4.40792 25.1355C2.9743 24.603 1.78484 23.5608 1.06475 22.2064C0.344649 20.852 0.143904 19.2794 0.50052 17.7863C0.857136 16.2932 1.74636 14.9833 2.99982 14.1046C4.25328 13.2259 5.78398 12.8394 7.30209 13.0182V12.9764C7.19716 10.7575 7.97401 8.58757 9.46172 6.94404C10.9494 5.3005 13.0261 4.31797 15.235 4.21257C17.4439 4.10717 19.604 4.88755 21.24 6.38202C22.8761 7.8765 23.8542 9.96266 23.9592 12.1816C24.8324 11.7881 25.7783 11.5838 26.7353 11.582C28.5761 11.582 30.3414 12.3165 31.643 13.624C32.9446 14.9315 33.6758 16.7049 33.6758 18.554C33.6758 20.4031 32.9446 22.1764 31.643 23.4839C30.3414 24.7914 28.5761 25.526 26.7353 25.526H25.3472C24.9239 25.526 21.183 25.6236 21.183 29.0608V29.7092C21.183 30.2639 20.9636 30.7959 20.5731 31.1882C20.1827 31.5804 19.6531 31.8008 19.1008 31.8008Z" fill="#0B2C4C"/>
</svg>
