<svg width="35" height="34" viewBox="0 0 35 34" fill="none" xmlns="http://www.w3.org/2000/svg">
<path d="M27.0238 2.42969H10.3571C8.90529 2.43133 7.51338 2.99232 6.48676 3.98961C5.46014 4.9869 4.88264 6.33904 4.88095 7.74941V9.36846H3.21429C3.02485 9.36846 2.84316 9.44157 2.70921 9.57169C2.57526 9.70182 2.5 9.87831 2.5 10.0623C2.5 10.2464 2.57526 10.4229 2.70921 10.553C2.84316 10.6831 3.02485 10.7562 3.21429 10.7562H4.88095V16.3072H3.21429C3.02485 16.3072 2.84316 16.3803 2.70921 16.5105C2.57526 16.6406 2.5 16.8171 2.5 17.0011C2.5 17.1851 2.57526 17.3616 2.70921 17.4918C2.84316 17.6219 3.02485 17.695 3.21429 17.695H4.88095V23.246H3.21429C3.02485 23.246 2.84316 23.3191 2.70921 23.4492C2.57526 23.5794 2.5 23.7559 2.5 23.9399C2.5 24.1239 2.57526 24.3004 2.70921 24.4305C2.84316 24.5607 3.02485 24.6338 3.21429 24.6338H4.88095V26.2528C4.88264 27.6632 5.46014 29.0153 6.48676 30.0126C7.51338 31.0099 8.90529 31.5709 10.3571 31.5725H27.0238C28.4757 31.5709 29.8676 31.0099 30.8942 30.0126C31.9208 29.0153 32.4983 27.6632 32.5 26.2528V7.74941C32.4983 6.33904 31.9208 4.9869 30.8942 3.98961C29.8676 2.99232 28.4757 2.43133 27.0238 2.42969ZM31.0714 26.2528C31.0702 27.2953 30.6433 28.2947 29.8845 29.0318C29.1257 29.7689 28.0969 30.1836 27.0238 30.1848H10.3571C9.28403 30.1836 8.25524 29.7689 7.49644 29.0318C6.73763 28.2947 6.31078 27.2953 6.30952 26.2528V24.6338H7.97619C8.16563 24.6338 8.34731 24.5607 8.48127 24.4305C8.61522 24.3004 8.69048 24.1239 8.69048 23.9399C8.69048 23.7559 8.61522 23.5794 8.48127 23.4492C8.34731 23.3191 8.16563 23.246 7.97619 23.246H6.30952V17.695H7.97619C8.16563 17.695 8.34731 17.6219 8.48127 17.4918C8.61522 17.3616 8.69048 17.1851 8.69048 17.0011C8.69048 16.8171 8.61522 16.6406 8.48127 16.5105C8.34731 16.3803 8.16563 16.3072 7.97619 16.3072H6.30952V10.7562H7.97619C8.16563 10.7562 8.34731 10.6831 8.48127 10.553C8.61522 10.4229 8.69048 10.2464 8.69048 10.0623C8.69048 9.87831 8.61522 9.70182 8.48127 9.57169C8.34731 9.44157 8.16563 9.36846 7.97619 9.36846H6.30952V7.74941C6.31078 6.70697 6.73763 5.70756 7.49644 4.97044C8.25524 4.23332 9.28403 3.81867 10.3571 3.81744H27.0238C28.0969 3.81867 29.1257 4.23332 29.8845 4.97044C30.6433 5.70756 31.0702 6.70697 31.0714 7.74941V26.2528Z" fill="#0B2C4C"/>
<path d="M20.4409 16.1445H17.0781C15.7059 16.1461 14.3903 16.6822 13.42 17.6352C12.4497 18.5882 11.9039 19.8803 11.9023 21.228V21.8682C11.9032 22.6233 12.209 23.3471 12.7526 23.881C13.2963 24.4149 14.0333 24.7152 14.8021 24.716H22.7168C23.4856 24.7152 24.2227 24.4149 24.7663 23.881C25.31 23.3471 25.6158 22.6233 25.6166 21.8682V21.228C25.6151 19.8803 25.0693 18.5882 24.099 17.6352C23.1287 16.6822 21.8131 16.1461 20.4409 16.1445ZM24.3699 21.8682C24.3693 22.2986 24.195 22.7112 23.8851 23.0155C23.5752 23.3199 23.1551 23.491 22.7168 23.4915H14.8021C14.3639 23.491 13.9438 23.3199 13.6339 23.0155C13.324 22.7112 13.1496 22.2986 13.1491 21.8682V21.228C13.1503 20.2049 13.5646 19.2241 14.3012 18.5006C15.0377 17.7772 16.0364 17.3702 17.0781 17.369H20.4409C21.4826 17.3702 22.4812 17.7772 23.2178 18.5006C23.9544 19.2241 24.3687 20.2049 24.3699 21.228V21.8682Z" fill="#0B2C4C"/>
<path d="M18.7997 15.2751C19.4778 15.2751 20.1407 15.074 20.7045 14.6973C21.2683 14.3206 21.7077 13.7851 21.9672 13.1586C22.2268 12.5321 22.2946 11.8427 22.1624 11.1777C22.0301 10.5126 21.7035 9.90167 21.224 9.42218C20.7445 8.94268 20.1336 8.61614 19.4685 8.48385C18.8035 8.35156 18.1141 8.41945 17.4876 8.67895C16.8611 8.93846 16.3256 9.3779 15.9489 9.94173C15.5722 10.5056 15.3711 11.1684 15.3711 11.8465C15.3722 12.7555 15.7338 13.6269 16.3765 14.2697C17.0193 14.9124 17.8907 15.274 18.7997 15.2751ZM18.7997 9.60024C19.2439 9.60024 19.6782 9.73198 20.0476 9.97881C20.417 10.2256 20.705 10.5765 20.875 10.9869C21.045 11.3974 21.0895 11.849 21.0028 12.2848C20.9161 12.7205 20.7022 13.1208 20.388 13.4349C20.0739 13.7491 19.6736 13.963 19.2379 14.0497C18.8022 14.1364 18.3505 14.0919 17.94 13.9219C17.5296 13.7518 17.1788 13.4639 16.9319 13.0945C16.6851 12.7251 16.5534 12.2908 16.5534 11.8465C16.554 11.251 16.7908 10.68 17.212 10.2588C17.6331 9.8377 18.2041 9.60084 18.7997 9.60024Z" fill="#0B2C4C"/>
</svg>
