<svg width="34" height="36" viewBox="0 0 34 36" fill="none" xmlns="http://www.w3.org/2000/svg">
<path d="M32.8301 26.5763L31.8271 26.1269L31.5275 25.4229L31.9091 24.4147C31.9827 24.2203 31.9333 24.0022 31.7825 23.8557L30.6975 22.8016C30.5466 22.6551 30.322 22.6072 30.122 22.6786L29.3985 22.9371V9.5699C29.3985 9.27652 29.1536 9.03865 28.8516 9.03865H24.4104C24.1084 9.03865 23.8635 9.27652 23.8635 9.5699V22.9371L23.1401 22.6786C22.9402 22.6072 22.7155 22.6551 22.5646 22.8015L22.3686 22.992V13.4003C22.3686 13.107 22.1237 12.8691 21.8217 12.8691H17.3804C17.0784 12.8691 16.8336 13.107 16.8336 13.4003V27.2746H15.3386V17.4192C15.3386 17.1258 15.0937 16.8879 14.7917 16.8879H10.3486C10.0466 16.8879 9.80172 17.1258 9.80172 17.4192V27.2746H8.30861V20.4309C8.30861 20.1375 8.06375 19.8997 7.76174 19.8997H3.31872C3.01671 19.8997 2.77185 20.1375 2.77185 20.4309V27.2746H1.39844C1.09643 27.2746 0.851562 27.5125 0.851562 27.8059C0.851562 28.0992 1.09643 28.3371 1.39844 28.3371H20.1141V28.5513C20.1141 28.7586 20.2382 28.9469 20.4319 29.0337L21.4348 29.4829L21.7347 30.1886L21.3531 31.195C21.2794 31.3892 21.3287 31.6073 21.4792 31.7539L22.5643 32.8099C22.7154 32.9568 22.9404 33.0048 23.1409 32.9329L24.1782 32.5608L24.9046 32.8533L25.3672 33.8279C25.4566 34.0161 25.6505 34.1367 25.8638 34.1367H27.3984C27.6118 34.1367 27.8057 34.0162 27.8951 33.8279L28.3578 32.8533L29.0842 32.5608L30.1215 32.9329C30.3219 33.0048 30.5471 32.9568 30.698 32.8099L31.7831 31.7539C31.9336 31.6074 31.9829 31.3893 31.9092 31.195L31.5276 30.1886L31.8275 29.4829L32.8304 29.0337C33.0241 28.9469 33.1482 28.7586 33.1482 28.5513V27.0586C33.1482 26.8513 33.0241 26.6629 32.8304 26.5761L32.8301 26.5763ZM28.3048 10.1012V22.6454L27.895 21.7821C27.8056 21.594 27.6117 21.4734 27.3984 21.4734H25.8638C25.6504 21.4734 25.4565 21.5939 25.3671 21.7821L24.9573 22.6454V10.1012H28.3048V10.1012ZM10.8955 17.9506H14.2449V27.2747H10.8955V17.9506ZM3.8656 20.9623H7.21493V27.2747H3.8656V20.9623ZM17.9274 27.2747V13.9317H21.2749V24.2315H21.3208C21.3208 24.293 21.3304 24.355 21.353 24.4148L21.7347 25.423L21.435 26.127L20.432 26.5764C20.2383 26.6632 20.1142 26.8516 20.1142 27.0589V27.2749H17.9275L17.9274 27.2747ZM32.0542 28.2113L31.1746 28.6055C31.0495 28.6615 30.9507 28.7614 30.8981 28.8852L30.435 29.975C30.3826 30.0983 30.3799 30.2362 30.4274 30.3613L30.7619 31.2436L30.1714 31.8183L29.2621 31.4921C29.1329 31.4456 28.9903 31.4484 28.8632 31.4996L27.7413 31.9514C27.6143 32.0025 27.5117 32.0984 27.4541 32.2197L27.0484 33.0742H26.2138L25.8081 32.2197C25.7505 32.0984 25.648 32.0025 25.521 31.9514L24.399 31.4996C24.2719 31.4484 24.1294 31.4456 24.0002 31.4921L23.0908 31.8183L22.5002 31.2436L22.8348 30.3613C22.8822 30.2362 22.8795 30.0983 22.8271 29.975L22.3641 28.8852C22.3115 28.7614 22.2127 28.6615 22.0876 28.6055L21.208 28.2113V27.3987L22.0876 27.0046C22.2126 26.9486 22.3113 26.8488 22.3639 26.7252L22.827 25.6372C22.8795 25.5139 22.8823 25.376 22.8349 25.2508L22.5002 24.3668L23.0909 23.7931L24.0008 24.1183C24.1299 24.1643 24.272 24.1615 24.399 24.1104L25.521 23.6587C25.648 23.6075 25.7505 23.5117 25.8081 23.3904L26.2138 22.5359H27.0484L27.4541 23.3904C27.5117 23.5117 27.6143 23.6075 27.7413 23.6587L28.8632 24.1104C28.9901 24.1616 29.1323 24.1643 29.2614 24.1183L30.1714 23.7931L30.7619 24.3668L30.4272 25.2508C30.3799 25.376 30.3827 25.5139 30.4352 25.6372L30.8982 26.7252C30.9509 26.8488 31.0495 26.9486 31.1746 27.0046L32.0542 27.3987V28.2113ZM26.631 25.1383C25.1168 25.1383 23.8848 26.335 23.8848 27.806C23.8848 29.277 25.1167 30.4737 26.631 30.4737C28.1453 30.4737 29.3772 29.277 29.3772 27.806C29.3772 26.335 28.1453 25.1383 26.631 25.1383ZM26.631 29.4112C25.7199 29.4112 24.9786 28.6911 24.9786 27.806C24.9786 26.9209 25.7199 26.2008 26.631 26.2008C27.5422 26.2008 28.2835 26.9209 28.2835 27.806C28.2835 28.6911 27.5422 29.4112 26.631 29.4112ZM5.54115 18.103C7.9796 18.103 9.96339 16.1759 9.96339 13.8072C9.96339 13.5032 9.9303 13.2066 9.86817 12.9204L16.7833 8.33608L19.1079 10.2864C19.3055 10.4522 19.5962 10.4592 19.802 10.303L28.1193 3.99145L28.0226 4.69622C27.9827 4.98701 28.1931 5.25416 28.4925 5.29294C28.5169 5.29613 28.5413 5.29766 28.5653 5.29766C28.8353 5.29766 29.0702 5.10355 29.1067 4.83647L29.3935 2.7452C29.4334 2.45454 29.2233 2.18752 28.9242 2.14854L26.7714 1.86804C26.4718 1.82913 26.1968 2.03313 26.1567 2.32399C26.1165 2.61478 26.3266 2.88213 26.626 2.92111L27.5878 3.04642L19.4827 9.19703L17.1797 7.26488C16.9921 7.10743 16.7189 7.09235 16.5141 7.22815L9.49328 11.8824C8.76553 10.4767 7.2677 9.50934 5.54108 9.50934C3.10154 9.50934 1.11687 11.4373 1.11687 13.8072C1.11687 16.177 3.10161 18.103 5.54115 18.103ZM5.54115 10.5718C7.37653 10.5718 8.86964 12.0231 8.86964 13.8072C8.86964 15.5912 7.37646 17.0405 5.54115 17.0405C3.70584 17.0405 2.21068 15.59 2.21068 13.8072C2.21068 12.0243 3.70468 10.5718 5.54115 10.5718ZM4.0138 12.9657C4.0138 12.382 4.42149 11.8825 4.99428 11.6844V11.6048C4.99428 11.3114 5.23914 11.0735 5.54115 11.0735C5.84316 11.0735 6.08803 11.3114 6.08803 11.6048V11.6837C6.43269 11.8017 6.72281 12.0296 6.89733 12.3355C7.04369 12.5922 6.94812 12.9155 6.68398 13.0577C6.41978 13.1999 6.087 13.1071 5.94058 12.8504C5.87311 12.732 5.71629 12.6555 5.54115 12.6555C5.30613 12.6555 5.10755 12.7976 5.10755 12.9657C5.10755 13.139 5.10755 13.1752 5.6521 13.2863C6.14641 13.3873 7.06652 13.5751 7.06652 14.6485C7.06652 15.232 6.65965 15.7312 6.08803 15.9296V16.0075C6.08803 16.3008 5.84316 16.5387 5.54115 16.5387C5.23914 16.5387 4.99428 16.3008 4.99428 16.0075V15.9304C4.64893 15.8122 4.35806 15.5836 4.18306 15.2767C4.0367 15.0201 4.1322 14.6968 4.39641 14.5546C4.66055 14.4124 4.99339 14.5051 5.13981 14.7618C5.19566 14.8598 5.34141 14.9586 5.54115 14.9586C5.77515 14.9586 5.97277 14.8165 5.97277 14.6485C5.97277 14.4739 5.97277 14.4375 5.42713 14.3261C4.93316 14.2252 4.0138 14.0375 4.0138 12.9657V12.9657Z" fill="#0B2C4C"/>
</svg>
