<svg width="35" height="34" viewBox="0 0 35 34" fill="none" xmlns="http://www.w3.org/2000/svg">
<path d="M33.9482 10.2422H17.1544C17.1214 10.2422 17.0887 10.2451 17.0564 10.2497C16.817 10.2851 16.6088 10.4547 16.5321 10.6779L12.3337 22.9134C12.1943 23.3196 12.5159 23.7521 12.956 23.7521H29.7498C30.0321 23.7521 30.2828 23.5767 30.3721 23.3164L34.5706 11.081C34.7095 10.6761 34.3879 10.2422 33.9482 10.2422ZM31.8362 11.5167L22.9073 17.4799L18.4428 11.5167H31.8362ZM29.2771 22.4776H13.8663L17.3739 12.2558L22.222 18.7315C22.4284 19.007 22.8347 19.0751 23.1241 18.8819L32.7069 12.4819L29.2771 22.4776Z" fill="#0B2C4C"/>
<path d="M15.0474 10.2422H8.74978C8.3875 10.2422 8.09375 10.5275 8.09375 10.8795C8.09375 11.2315 8.3875 11.5168 8.74978 11.5168H15.0474C15.4097 11.5168 15.7035 11.2315 15.7035 10.8795C15.7035 10.5275 15.4097 10.2422 15.0474 10.2422Z" fill="#0B2C4C"/>
<path d="M12.9475 16.3594H4.55057C4.18828 16.3594 3.89453 16.6447 3.89453 16.9967C3.89453 17.3487 4.18828 17.634 4.55057 17.634H12.9475C13.3097 17.634 13.6035 17.3487 13.6035 16.9967C13.6035 16.6446 13.3098 16.3594 12.9475 16.3594Z" fill="#0B2C4C"/>
<path d="M10.8508 22.4844H1.05447C0.69219 22.4844 0.398438 22.7697 0.398438 23.1217C0.398438 23.4737 0.69219 23.759 1.05447 23.759H10.8508C11.2131 23.759 11.5068 23.4737 11.5068 23.1217C11.5068 22.7697 11.2132 22.4844 10.8508 22.4844Z" fill="#0B2C4C"/>
</svg>
