<svg width="35" height="34" viewBox="0 0 35 34" fill="none" xmlns="http://www.w3.org/2000/svg">
<path d="M20.6508 7.21256C20.763 7.20279 20.8765 7.19547 20.9912 7.19059C21.1059 7.18327 21.2218 7.17961 21.339 7.17961C21.461 7.17961 21.5842 7.19181 21.7087 7.21622C21.8356 7.24062 21.949 7.28699 22.0491 7.35532C22.1516 7.42121 22.2346 7.51394 22.298 7.63352C22.3615 7.7531 22.3932 7.90806 22.3932 8.09841C22.3932 8.28876 22.3615 8.44372 22.298 8.5633C22.2346 8.68043 22.1528 8.77317 22.0528 8.8415C21.9527 8.90983 21.8404 8.9562 21.716 8.9806C21.594 9.005 21.4732 9.0172 21.3536 9.0172C21.3219 9.0172 21.2914 9.0172 21.2621 9.0172C21.2352 9.01476 21.2096 9.01232 21.1852 9.00988V9.85547C21.1388 9.86279 21.0937 9.86767 21.0498 9.87011C21.0058 9.87255 20.9631 9.87377 20.9216 9.87377C20.8826 9.87377 20.8399 9.87255 20.7935 9.87011C20.7472 9.86767 20.6996 9.86279 20.6508 9.85547V7.21256ZM21.1852 8.56696C21.2145 8.57184 21.2413 8.57428 21.2657 8.57428C21.2926 8.57428 21.3243 8.57428 21.3609 8.57428C21.4219 8.57428 21.4817 8.56696 21.5403 8.55232C21.5989 8.53523 21.6501 8.50839 21.694 8.47178C21.7404 8.43518 21.777 8.38759 21.8038 8.32902C21.8307 8.26801 21.8441 8.19358 21.8441 8.10573C21.8441 8.01544 21.8307 7.93978 21.8038 7.87878C21.777 7.81533 21.7404 7.7653 21.694 7.72869C21.6501 7.68965 21.5989 7.6628 21.5403 7.64816C21.4817 7.63108 21.4219 7.62254 21.3609 7.62254C21.3341 7.62254 21.3084 7.62376 21.284 7.6262C21.2621 7.6262 21.2291 7.62864 21.1852 7.63352V8.56696ZM25.0654 10.0605C25.0605 10.1312 25.052 10.2032 25.0398 10.2764C25.0276 10.3521 25.0081 10.4229 24.9812 10.4887L24.0734 10.3423C24.0807 10.2911 24.0868 10.2471 24.0917 10.2105C24.0966 10.1764 24.1027 10.1434 24.11 10.1117C24.1173 10.0824 24.1259 10.0519 24.1356 10.0202C24.1454 9.99091 24.1564 9.95796 24.1686 9.92136L25.0654 10.0605ZM23.8574 9.8994C23.6598 9.8994 23.4889 9.86523 23.345 9.7969C23.201 9.72857 23.0826 9.63462 22.9899 9.51504C22.8972 9.39302 22.8276 9.25026 22.7812 9.08675C22.7373 8.92081 22.7153 8.74022 22.7153 8.54499C22.7153 8.34977 22.7373 8.16918 22.7812 8.00323C22.8276 7.83485 22.8972 7.68965 22.9899 7.56763C23.0826 7.44561 23.201 7.35044 23.345 7.28211C23.4889 7.21378 23.6598 7.17961 23.8574 7.17961C24.0551 7.17961 24.2259 7.21378 24.3699 7.28211C24.5139 7.35044 24.6322 7.44561 24.725 7.56763C24.8177 7.68965 24.886 7.83485 24.93 8.00323C24.9763 8.16918 24.9995 8.34977 24.9995 8.54499C24.9995 8.74022 24.9763 8.92081 24.93 9.08675C24.886 9.25026 24.8177 9.39302 24.725 9.51504C24.6322 9.63462 24.5139 9.72857 24.3699 9.7969C24.2259 9.86523 24.0551 9.8994 23.8574 9.8994ZM23.8574 9.45281C24.2357 9.45281 24.4248 9.1502 24.4248 8.54499C24.4248 8.24239 24.3785 8.01544 24.2857 7.86413C24.1954 7.71283 24.0539 7.63718 23.8611 7.63718C23.478 7.63718 23.2864 7.93978 23.2864 8.54499C23.2864 9.1502 23.4767 9.45281 23.8574 9.45281ZM25.4666 7.22354C25.5739 7.21134 25.674 7.20157 25.7667 7.19425C25.8619 7.18449 25.9668 7.17961 26.0815 7.17961C26.2157 7.17961 26.3475 7.19181 26.4769 7.21622C26.6086 7.24062 26.727 7.28455 26.8319 7.348C26.9369 7.40901 27.0211 7.4932 27.0845 7.60057C27.1504 7.70551 27.1834 7.83973 27.1834 8.00323C27.1834 8.10085 27.1712 8.18748 27.1467 8.26313C27.1223 8.33634 27.0906 8.40101 27.0516 8.45714C27.015 8.51327 26.9747 8.56208 26.9308 8.60356C26.8868 8.64261 26.8454 8.67433 26.8063 8.69874L26.7441 8.739L27.3847 9.85181C27.3359 9.85669 27.2846 9.86157 27.2309 9.86645C27.1773 9.87133 27.1223 9.87377 27.0662 9.87377C26.9735 9.87377 26.882 9.86645 26.7917 9.85181L26.1035 8.62919L26.1913 8.58526C26.2255 8.56818 26.267 8.54621 26.3158 8.51937C26.3646 8.49253 26.411 8.45958 26.4549 8.42054C26.5013 8.37905 26.5403 8.33024 26.572 8.27411C26.6038 8.21555 26.6196 8.14722 26.6196 8.06912C26.6196 7.91538 26.5757 7.80312 26.4878 7.73235C26.4 7.65914 26.2865 7.62254 26.1474 7.62254C26.0937 7.62254 26.0449 7.6262 26.001 7.63352V9.85547C25.9571 9.86035 25.9131 9.86401 25.8692 9.86645C25.8253 9.87133 25.7826 9.87377 25.7411 9.87377C25.6996 9.87377 25.6557 9.87255 25.6093 9.87011C25.563 9.86767 25.5154 9.86279 25.4666 9.85547V7.22354ZM28.1583 8.63651C28.0753 8.60478 28.0009 8.57062 27.935 8.53401C27.8691 8.49497 27.8129 8.44982 27.7666 8.39857C27.7202 8.34488 27.6836 8.28144 27.6568 8.20822C27.6324 8.13501 27.6202 8.04716 27.6202 7.94467C27.6202 7.82021 27.6409 7.71039 27.6824 7.61522C27.7263 7.52004 27.7873 7.44073 27.8654 7.37728C27.9435 7.31139 28.0375 7.26258 28.1473 7.23086C28.2571 7.19669 28.3803 7.17961 28.517 7.17961C28.6414 7.17961 28.7574 7.19059 28.8647 7.21256C28.9746 7.23452 29.0893 7.26624 29.2088 7.30773C29.1942 7.44927 29.1551 7.58837 29.0917 7.72503C29.0551 7.71039 29.0173 7.69575 28.9782 7.68111C28.9416 7.66646 28.9013 7.65426 28.8574 7.6445C28.8159 7.63474 28.7683 7.62742 28.7147 7.62254C28.661 7.61522 28.6 7.61156 28.5316 7.61156C28.4901 7.61156 28.4474 7.61522 28.4035 7.62254C28.362 7.62986 28.3242 7.64328 28.29 7.6628C28.2559 7.68233 28.2278 7.71161 28.2058 7.75066C28.1839 7.78726 28.1729 7.83607 28.1729 7.89708C28.1729 7.94589 28.1814 7.98737 28.1985 8.02154C28.2156 8.05326 28.2388 8.08133 28.2681 8.10573C28.2974 8.12769 28.3303 8.14722 28.3669 8.1643C28.4035 8.17894 28.4401 8.19358 28.4767 8.20822L28.6964 8.29242C28.7891 8.32902 28.8733 8.36685 28.9489 8.40589C29.0246 8.44494 29.088 8.49375 29.1393 8.55232C29.193 8.60844 29.2345 8.67799 29.2637 8.76097C29.293 8.8415 29.3077 8.94155 29.3077 9.06113C29.3077 9.18559 29.2845 9.29907 29.2381 9.40156C29.1942 9.50406 29.1295 9.59191 29.0441 9.66512C28.9587 9.73833 28.8525 9.79568 28.7256 9.83717C28.6012 9.87865 28.4572 9.8994 28.2937 9.8994C28.2132 9.8994 28.1412 9.89695 28.0777 9.89207C28.0143 9.88719 27.9533 9.87865 27.8947 9.86645C27.8386 9.85669 27.7824 9.84327 27.7263 9.82618C27.6702 9.8091 27.6116 9.78836 27.5506 9.76396C27.5579 9.69318 27.5714 9.61997 27.5909 9.54432C27.6104 9.46623 27.6336 9.38814 27.6604 9.31005C27.7629 9.35153 27.8593 9.38326 27.9496 9.40522C28.0399 9.42474 28.1363 9.43451 28.2388 9.43451C28.3925 9.43451 28.5133 9.40644 28.6012 9.35031C28.689 9.29175 28.733 9.20389 28.733 9.08675C28.733 9.02819 28.722 8.97938 28.7 8.94033C28.6805 8.90129 28.6537 8.86834 28.6195 8.8415C28.5878 8.81465 28.5512 8.79269 28.5097 8.77561C28.4682 8.75609 28.4255 8.73778 28.3816 8.7207L28.1583 8.63651ZM29.6913 7.22354H31.1848C31.1995 7.29675 31.2068 7.37118 31.2068 7.44683C31.2068 7.52736 31.1995 7.60423 31.1848 7.67745H30.2258V8.29608H30.9871C31.0018 8.37417 31.0091 8.44982 31.0091 8.52303C31.0091 8.60112 31.0018 8.67799 30.9871 8.75365H30.2258V9.85547C30.133 9.87011 30.0452 9.87743 29.9622 9.87743C29.8719 9.87743 29.7816 9.87011 29.6913 9.85547V7.22354Z" fill="#0B2C4C"/>
<path d="M6.94058 32.4978C6.58368 32.4974 6.23856 32.3701 5.96687 32.1387C5.76633 31.9704 5.61261 31.7532 5.52058 31.5081C5.42856 31.2631 5.40134 30.9984 5.44156 30.7397L5.85337 27.8555C5.86 27.801 5.8549 27.7457 5.83842 27.6934C5.82193 27.641 5.79444 27.5928 5.75779 27.5519C5.72224 27.5107 5.67822 27.4777 5.62873 27.455C5.57925 27.4323 5.52546 27.4206 5.47103 27.4206H3.35299C2.84619 27.42 2.36032 27.2184 2.00195 26.86C1.64359 26.5016 1.442 26.0158 1.44141 25.509V10.2163C1.442 9.70947 1.64359 9.2236 2.00195 8.86524C2.36032 8.50687 2.84619 8.30528 3.35299 8.30469H19.1042C19.307 8.30469 19.5015 8.38525 19.6449 8.52864C19.7882 8.67204 19.8688 8.86653 19.8688 9.06932C19.8688 9.27212 19.7882 9.4666 19.6449 9.61C19.5015 9.7534 19.307 9.83396 19.1042 9.83396H3.35299C3.25162 9.83403 3.15441 9.87433 3.08273 9.94601C3.01105 10.0177 2.97074 10.1149 2.97068 10.2163V25.509C2.97074 25.6103 3.01105 25.7076 3.08273 25.7792C3.15441 25.8509 3.25162 25.8912 3.35299 25.8913H5.47103C5.74409 25.892 6.01386 25.951 6.2623 26.0643C6.51075 26.1776 6.73215 26.3426 6.91171 26.5484C7.09128 26.7541 7.22488 26.9957 7.30358 27.2572C7.38228 27.5187 7.40428 27.7939 7.36809 28.0646L6.95442 30.9619C9.35364 30.1853 11.4514 28.6806 12.9561 26.657C13.1327 26.4197 13.3623 26.2269 13.6265 26.0939C13.8908 25.961 14.1825 25.8916 14.4783 25.8913H23.9981C24.0995 25.8912 24.1967 25.8508 24.2683 25.7792C24.34 25.7075 24.3803 25.6103 24.3805 25.509V15.9051C24.3805 15.7023 24.461 15.5078 24.6044 15.3644C24.7478 15.221 24.9423 15.1405 25.1451 15.1405C25.3479 15.1405 25.5424 15.221 25.6858 15.3644C25.8292 15.5078 25.9097 15.7023 25.9097 15.9051V25.509C25.9092 26.0158 25.7076 26.5017 25.3492 26.8601C24.9909 27.2185 24.505 27.42 23.9981 27.4206H14.4783C14.421 27.4202 14.3644 27.4335 14.3132 27.4593C14.262 27.485 14.2176 27.5226 14.1837 27.5688C12.4861 29.8515 10.1189 31.548 7.41176 32.422C7.25975 32.4723 7.10068 32.4979 6.94058 32.4978Z" fill="#0B2C4C"/>
<path d="M18.2636 15.1855H14.4404C14.2376 15.1855 14.0431 15.105 13.8997 14.9616C13.7563 14.8182 13.6758 14.6237 13.6758 14.4209C13.6758 14.2181 13.7563 14.0236 13.8997 13.8802C14.0431 13.7368 14.2376 13.6562 14.4404 13.6562H18.2636C18.4664 13.6562 18.6609 13.7368 18.8043 13.8802C18.9477 14.0236 19.0282 14.2181 19.0282 14.4209C19.0282 14.6237 18.9477 14.8182 18.8043 14.9616C18.6609 15.105 18.4664 15.1855 18.2636 15.1855Z" fill="#0B2C4C"/>
<path d="M21.3221 19.0097H14.4404C14.2376 19.0097 14.0431 18.9292 13.8997 18.7858C13.7563 18.6424 13.6758 18.4479 13.6758 18.2451C13.6758 18.0423 13.7563 17.8478 13.8997 17.7044C14.0431 17.561 14.2376 17.4805 14.4404 17.4805H21.3221C21.5249 17.4805 21.7194 17.561 21.8628 17.7044C22.0062 17.8478 22.0868 18.0423 22.0868 18.2451C22.0868 18.4479 22.0062 18.6424 21.8628 18.7858C21.7194 18.9292 21.5249 19.0097 21.3221 19.0097Z" fill="#0B2C4C"/>
<path d="M21.3221 22.834H14.4404C14.2376 22.834 14.0431 22.7534 13.8997 22.61C13.7563 22.4666 13.6758 22.2721 13.6758 22.0693C13.6758 21.8665 13.7563 21.672 13.8997 21.5286C14.0431 21.3852 14.2376 21.3047 14.4404 21.3047H21.3221C21.5249 21.3047 21.7194 21.3852 21.8628 21.5286C22.0062 21.672 22.0868 21.8665 22.0868 22.0693C22.0868 22.2721 22.0062 22.4666 21.8628 22.61C21.7194 22.7534 21.5249 22.834 21.3221 22.834Z" fill="#0B2C4C"/>
<path d="M9.46672 23.0243H7.17281C6.56463 23.0237 5.98156 22.7818 5.55151 22.3517C5.12146 21.9217 4.87957 21.3386 4.87891 20.7304C4.87983 19.9195 5.20237 19.1421 5.77576 18.5687C6.34914 17.9953 7.12656 17.6728 7.93745 17.6719H8.70208C9.51297 17.6728 10.2904 17.9953 10.8638 18.5687C11.4372 19.1421 11.7597 19.9195 11.7606 20.7304C11.76 21.3386 11.5181 21.9217 11.088 22.3517C10.658 22.7818 10.0749 23.0237 9.46672 23.0243ZM7.93745 19.2011C7.53198 19.2015 7.14324 19.3628 6.85654 19.6495C6.56983 19.9362 6.40858 20.325 6.40818 20.7304C6.40844 20.9331 6.48908 21.1275 6.63242 21.2708C6.77576 21.4141 6.9701 21.4948 7.17281 21.495H9.46672C9.66943 21.4948 9.86376 21.4141 10.0071 21.2708C10.1504 21.1275 10.2311 20.9331 10.2314 20.7304C10.2309 20.325 10.0697 19.9362 9.78299 19.6495C9.49628 19.3628 9.10754 19.2015 8.70208 19.2011H7.93745Z" fill="#0B2C4C"/>
<path d="M8.32051 19.2035C7.75339 19.2035 7.19901 19.0353 6.72748 18.7203C6.25594 18.4052 5.88842 17.9574 5.67139 17.4334C5.45437 16.9095 5.39758 16.333 5.50822 15.7767C5.61886 15.2205 5.89195 14.7096 6.29296 14.3086C6.69397 13.9076 7.20489 13.6345 7.76111 13.5238C8.31733 13.4132 8.89386 13.47 9.41781 13.687C9.94175 13.904 10.3896 14.2716 10.7046 14.7431C11.0197 15.2146 11.1879 15.769 11.1879 16.3361C11.1871 17.0964 10.8847 17.8252 10.3471 18.3628C9.80958 18.9003 9.08073 19.2027 8.32051 19.2035ZM8.32051 14.998C8.05585 14.998 7.79714 15.0765 7.57709 15.2235C7.35704 15.3706 7.18553 15.5796 7.08425 15.8241C6.98298 16.0686 6.95648 16.3376 7.00811 16.5972C7.05974 16.8568 7.18718 17.0952 7.37432 17.2823C7.56146 17.4695 7.79989 17.5969 8.05946 17.6485C8.31902 17.7002 8.58807 17.6737 8.83258 17.5724C9.07709 17.4711 9.28607 17.2996 9.43311 17.0795C9.58014 16.8595 9.65862 16.6008 9.65862 16.3361C9.65819 15.9814 9.51707 15.6413 9.26622 15.3904C9.01537 15.1396 8.67526 14.9985 8.32051 14.998Z" fill="#0B2C4C"/>
<path d="M25.9448 16.7176C25.5601 16.7175 25.176 16.689 24.7956 16.6325C22.8171 16.3288 21.038 15.2579 19.8435 13.6518C18.649 12.0456 18.1354 10.0335 18.4139 8.05139C18.6924 6.06924 19.7406 4.27661 21.3315 3.06182C22.9223 1.84704 24.9277 1.30791 26.9133 1.56121C28.1523 1.71926 29.3341 2.18009 30.3527 2.90296C31.3714 3.62584 32.1963 4.5885 32.7545 5.70589C33.3128 6.82327 33.5872 8.06097 33.5535 9.30959C33.5198 10.5582 33.1791 11.7793 32.5614 12.865C32.5195 12.9329 32.5026 13.0133 32.5136 13.0923L32.9049 14.9483C32.9505 15.1652 32.9396 15.3902 32.8731 15.6016C32.8066 15.813 32.6868 16.0037 32.5252 16.1554C32.3636 16.3071 32.1657 16.4146 31.9505 16.4677C31.7353 16.5207 31.51 16.5174 31.2965 16.4582L29.4491 15.9452C29.3723 15.9291 29.2924 15.9402 29.2229 15.9765C28.1993 16.4655 27.0791 16.7188 25.9448 16.7176ZM25.9537 3.0315C25.0408 3.02985 24.1393 3.23381 23.316 3.62826C22.4927 4.0227 21.7688 4.5975 21.1981 5.30998C20.6273 6.02246 20.2243 6.85434 20.0191 7.74387C19.8138 8.63339 19.8115 9.55773 20.0123 10.4483C20.2132 11.3388 20.612 12.1727 21.1792 12.888C21.7464 13.6033 22.4674 14.1817 23.2887 14.5802C24.11 14.9788 25.0105 15.1872 25.9234 15.1901C26.8363 15.193 27.7382 14.9903 28.562 14.597C28.9645 14.4 29.4247 14.3555 29.8575 14.4715L31.3278 14.88L31.0172 13.406C30.9284 12.9617 31.0049 12.5004 31.2322 12.1086C31.7255 11.2417 31.9977 10.2666 32.0249 9.26959C32.052 8.27255 31.8332 7.28417 31.3878 6.39174C30.9424 5.4993 30.2841 4.73028 29.471 4.15257C28.6579 3.57486 27.7151 3.20625 26.7258 3.07929C26.4697 3.04745 26.2118 3.03149 25.9537 3.0315Z" fill="#0B2C4C"/>
</svg>
