<svg width="35" height="34" viewBox="0 0 35 34" fill="none" xmlns="http://www.w3.org/2000/svg">
<g clip-path="url(#clip0_6661_17834)">
<path fill-rule="evenodd" clip-rule="evenodd" d="M28.6797 32.082H6.76562C6.57227 32.082 6.44336 31.9531 6.37891 31.8242C6.31445 31.6953 6.37891 31.502 6.50781 31.373L8.95703 28.9883C9.15039 28.8594 9.2793 28.6016 9.2793 28.3438C9.2793 28.0859 9.15039 27.8926 8.95703 27.6992C8.76367 27.5059 8.57031 27.4414 8.24805 27.4414C7.99023 27.4414 7.73242 27.5059 7.53906 27.6992L5.73438 29.4395C5.66992 29.5684 5.47656 29.5684 5.34766 29.5039C5.21875 29.4395 5.08984 29.3105 5.08984 29.1816V1.98242C5.08984 1.14453 5.73438 0.5 6.44336 0.5H23.8457C24.0391 0.5 24.2324 0.693359 24.2324 0.886719V5.7207H29.7109C29.9043 5.7207 30.0977 5.91406 30.0977 6.10742V30.5996C30.0977 31.4375 29.4531 32.082 28.6797 32.082ZM7.73242 31.3086H28.6797C29.0664 31.3086 29.3242 30.9863 29.3242 30.5996V6.49414H23.8457C23.6523 6.49414 23.459 6.36523 23.459 6.10742V1.27344H6.44336C6.31445 1.27344 6.18555 1.33789 6.05664 1.4668C5.92773 1.5957 5.86328 1.78906 5.86328 1.98242V28.2793L7.02344 27.1191C7.3457 26.8613 7.79688 26.668 8.24805 26.668C8.76367 26.668 9.21484 26.8613 9.53711 27.1191C9.85938 27.4414 10.0527 27.8926 10.0527 28.3438C10.0527 28.7949 9.85938 29.2461 9.53711 29.5684L7.73242 31.3086Z" fill="#0B2C4C" stroke="#0B2C4C" stroke-width="0.3"/>
<path fill-rule="evenodd" clip-rule="evenodd" d="M29.7129 6.49546H23.8477C23.6543 6.49546 23.4609 6.36655 23.4609 6.10874V0.888039C23.4609 0.759133 23.5898 0.565774 23.7188 0.565774C23.8477 0.501321 23.9766 0.501321 24.1055 0.630227L29.9707 5.85093C30.0996 5.91538 30.0996 6.10874 30.0352 6.23765C29.9707 6.43101 29.8418 6.49546 29.7129 6.49546ZM24.2344 5.72202H28.6816L24.2344 1.72593V5.72202Z" fill="#0B2C4C" stroke="#0B2C4C" stroke-width="0.3"/>
<path fill-rule="evenodd" clip-rule="evenodd" d="M9.27832 27.8286C9.14941 27.8286 9.02051 27.7642 8.95605 27.6997C8.82715 27.5708 8.82715 27.313 8.95605 27.1196L11.0186 25.2505C11.1475 25.0571 11.4053 25.0571 11.5342 25.2505C11.6631 25.3794 11.6631 25.6372 11.5342 25.7661L9.53613 27.6997C9.47168 27.7642 9.34277 27.8286 9.27832 27.8286Z" fill="#0B2C4C" stroke="#0B2C4C" stroke-width="0.3"/>
<path fill-rule="evenodd" clip-rule="evenodd" d="M4.70312 33.5C4.1875 33.5 3.73633 33.3066 3.41406 32.9844C3.0918 32.6621 2.89844 32.2754 2.89844 31.8242C2.89844 31.3086 3.0918 30.9219 3.41406 30.5996L7.02344 27.1191C7.3457 26.8613 7.79688 26.668 8.24805 26.668C8.76367 26.668 9.21484 26.8613 9.53711 27.1191C9.85938 27.4414 10.0527 27.8926 10.0527 28.3438C10.0527 28.7949 9.85938 29.2461 9.53711 29.5684L5.92773 32.9844C5.60547 33.3066 5.1543 33.5 4.70312 33.5ZM8.24805 27.4414C7.99023 27.4414 7.73242 27.5059 7.53906 27.6992L3.99414 31.1152C3.80078 31.3086 3.67188 31.5664 3.67188 31.8242C3.67188 32.0176 3.80078 32.2754 3.99414 32.4688C4.1875 32.5977 4.38086 32.7266 4.70312 32.7266C4.96094 32.7266 5.21875 32.5977 5.41211 32.4688L8.95703 28.9883C9.15039 28.8594 9.2793 28.6016 9.2793 28.3438C9.2793 28.0859 9.15039 27.8926 8.95703 27.6992C8.82812 27.5059 8.57031 27.4414 8.24805 27.4414Z" fill="#0B2C4C" stroke="#0B2C4C" stroke-width="0.3"/>
<path fill-rule="evenodd" clip-rule="evenodd" d="M18.0449 28.6035C15.4023 28.6035 12.8887 27.5723 11.0195 25.7676C9.08594 23.9629 8.05469 21.5781 8.05469 19C8.05469 16.4219 9.08594 14.0371 11.0195 12.2324C12.8887 10.4277 15.4023 9.46094 18.0449 9.46094C20.752 9.46094 23.2656 10.4277 25.1348 12.2324C27.0039 14.0371 28.0352 16.4219 28.0352 19C28.0352 21.5781 27.0039 23.9629 25.1348 25.7676C23.2656 27.5723 20.752 28.6035 18.0449 28.6035ZM18.0449 10.2344C15.5957 10.2344 13.2754 11.1367 11.5352 12.8125C9.79492 14.4883 8.82812 16.6797 8.82812 19C8.82812 21.3848 9.79492 23.5762 11.5352 25.252C13.2754 26.8633 15.5957 27.8301 18.0449 27.8301C20.4941 27.8301 22.8145 26.8633 24.6191 25.252C26.2949 23.5762 27.2617 21.3848 27.2617 19C27.2617 16.6797 26.2949 14.4883 24.6191 12.8125C22.8145 11.1367 20.4941 10.2344 18.0449 10.2344Z" fill="#0B2C4C" stroke="#0B2C4C" stroke-width="0.3"/>
<path fill-rule="evenodd" clip-rule="evenodd" d="M18.0449 26.9922C15.8535 26.9922 13.7266 26.1543 12.1797 24.6719C10.5684 23.125 9.73047 21.127 9.73047 19C9.73047 16.873 10.5684 14.875 12.1797 13.3926C13.7266 11.8457 15.8535 11.0078 18.0449 11.0078C20.3008 11.0078 22.3633 11.8457 23.9102 13.3926C25.5215 14.875 26.3594 16.873 26.3594 19C26.3594 21.127 25.5215 23.125 23.9102 24.6719C22.3633 26.1543 20.3008 26.9922 18.0449 26.9922ZM18.0449 11.7812C16.0469 11.7812 14.1133 12.5547 12.6953 13.9082C11.2773 15.2617 10.5039 17.0664 10.5039 19C10.5039 20.9336 11.2773 22.7383 12.6953 24.0918C14.1133 25.4453 16.0469 26.2188 18.0449 26.2188C20.1074 26.2188 21.9766 25.4453 23.3945 24.0918C24.8125 22.7383 25.5859 20.9336 25.5859 19C25.5859 17.0664 24.8125 15.2617 23.3945 13.9082C21.9766 12.5547 20.1074 11.7812 18.0449 11.7812Z" fill="#0B2C4C" stroke="#0B2C4C" stroke-width="0.3"/>
<path fill-rule="evenodd" clip-rule="evenodd" d="M18.0469 23.125C16.7578 23.125 15.7266 22.1582 15.7266 20.8691C15.7266 20.6758 15.9199 20.4824 16.1133 20.4824C16.3066 20.4824 16.5 20.6758 16.5 20.8691C16.5 21.707 17.209 22.3516 18.0469 22.3516C18.9492 22.3516 19.6582 21.707 19.6582 20.8691C19.6582 20.0957 18.9492 19.3867 18.0469 19.3867C16.7578 19.3867 15.7266 18.3555 15.7266 17.1309C15.7266 15.9062 16.7578 14.875 18.0469 14.875C19.3359 14.875 20.4316 15.9062 20.4316 17.1309C20.4316 17.3242 20.2383 17.5176 20.0449 17.5176C19.7871 17.5176 19.6582 17.3242 19.6582 17.1309C19.6582 16.293 18.9492 15.6484 18.0469 15.6484C17.209 15.6484 16.5 16.293 16.5 17.1309C16.5 17.9688 17.209 18.6133 18.0469 18.6133C19.3359 18.6133 20.4316 19.6445 20.4316 20.8691C20.4316 22.1582 19.3359 23.125 18.0469 23.125Z" fill="#0B2C4C" stroke="#0B2C4C" stroke-width="0.3"/>
<path fill-rule="evenodd" clip-rule="evenodd" d="M18.043 24.0234C17.8496 24.0234 17.6562 23.8301 17.6562 23.6367V14.3555C17.6562 14.1621 17.8496 13.9688 18.043 13.9688C18.3008 13.9688 18.4297 14.1621 18.4297 14.3555V23.6367C18.4297 23.8301 18.3008 24.0234 18.043 24.0234Z" fill="#0B2C4C" stroke="#0B2C4C" stroke-width="0.3"/>
<path fill-rule="evenodd" clip-rule="evenodd" d="M20.752 3.59375H8.57031C8.37695 3.59375 8.18359 3.46484 8.18359 3.20703C8.18359 3.01367 8.37695 2.82031 8.57031 2.82031H20.752C20.9453 2.82031 21.1387 3.01367 21.1387 3.20703C21.1387 3.46484 20.9453 3.59375 20.752 3.59375Z" fill="#0B2C4C" stroke="#0B2C4C" stroke-width="0.3"/>
<path fill-rule="evenodd" clip-rule="evenodd" d="M20.752 5.78516H8.57031C8.37695 5.78516 8.18359 5.5918 8.18359 5.39844C8.18359 5.20508 8.37695 5.01172 8.57031 5.01172H20.752C20.9453 5.01172 21.1387 5.20508 21.1387 5.39844C21.1387 5.5918 20.9453 5.78516 20.752 5.78516Z" fill="#0B2C4C" stroke="#0B2C4C" stroke-width="0.3"/>
</g>
<defs>
<clipPath id="clip0_6661_17834">
<rect width="33" height="33" fill="white" transform="translate(0 0.5)"/>
</clipPath>
</defs>
</svg>
