<svg width="35" height="34" viewBox="0 0 35 34" fill="none" xmlns="http://www.w3.org/2000/svg">
<g clip-path="url(#clip0_6661_17676)">
<path d="M31.5218 3.14844H27.3805C27.1185 3.14844 26.9062 3.35471 26.9062 3.60913C26.9062 3.86356 27.1185 4.06982 27.3805 4.06982H31.5218C31.7837 4.06982 31.996 3.86356 31.996 3.60913C31.996 3.35471 31.7837 3.14844 31.5218 3.14844Z" fill="#0B2C4C"/>
<path d="M25.0289 4.06982H25.5337C25.7956 4.06982 26.0079 3.86356 26.0079 3.60913C26.0079 3.35471 25.7956 3.14844 25.5337 3.14844H25.0289C24.767 3.14844 24.5547 3.35471 24.5547 3.60913C24.5547 3.86356 24.767 4.06982 25.0289 4.06982Z" fill="#0B2C4C"/>
<path d="M25.0289 6.23779H31.5219C31.7839 6.23779 31.9961 6.03153 31.9961 5.7771C31.9961 5.52267 31.7839 5.31641 31.5219 5.31641H25.0289C24.767 5.31641 24.5547 5.52267 24.5547 5.7771C24.5547 6.03153 24.767 6.23779 25.0289 6.23779Z" fill="#0B2C4C"/>
<path d="M26.8035 29.8804V27.592C26.8035 25.8452 26.162 24.1672 24.9932 22.8444L25.0718 21.4385C25.1316 20.3671 24.2565 19.4608 23.1435 19.4608H21.8888L21.8878 14.9502C21.8879 14.9408 21.8885 14.9315 21.8885 14.9221V14.0557C22.2115 13.7942 22.4174 13.4008 22.4174 12.9615V11.0555C22.4174 10.6125 22.2081 10.2162 21.8806 9.95479C21.7306 6.09995 18.4482 3.00391 14.4477 3.00391C10.4473 3.00391 7.16486 6.09989 7.01487 9.95472C6.68726 10.2162 6.47797 10.6125 6.47797 11.0555V12.9615C6.47797 13.4013 6.68436 13.7951 7.00785 14.0566L7.00659 19.4609H5.75199C4.64764 19.4609 3.7634 20.3588 3.82372 21.4385L3.90226 22.8445C2.73347 24.1672 2.09198 25.8452 2.09198 27.592V29.8804C2.09198 29.8853 2.09235 29.8902 2.09235 29.895C1.87629 30.1469 1.74609 30.4705 1.74609 30.8232C1.74609 31.6238 2.41661 32.2753 3.24091 32.2753H25.6547C26.4789 32.2753 27.1495 31.6239 27.1495 30.8232C27.1495 30.4704 27.0193 30.1469 26.8032 29.895C26.8032 29.8902 26.8035 29.8853 26.8035 29.8804ZM25.855 27.592V29.3846C25.7895 29.376 25.7226 29.3711 25.6547 29.3711H24.6286L24.9118 24.3025C25.5251 25.2888 25.855 26.4226 25.855 27.592ZM17.9101 19.4608C17.6282 19.3209 17.4499 19.0425 17.4499 18.7312V17.5354H17.691C18.2123 17.5354 18.6618 17.236 18.8704 16.8056H19.9497C20.3112 16.8056 20.6497 16.7087 20.9397 16.5407L20.9404 19.4608H17.9101ZM7.9442 13.4643C7.65877 13.4643 7.42652 13.2387 7.42652 12.9614V11.0555C7.42652 10.7782 7.65877 10.5526 7.9442 10.5526H9.00568V13.1482C9.00568 13.1505 9.00568 13.1529 9.00574 13.1551C9.00739 13.2588 9.01302 13.3616 9.02067 13.4642H7.9442V13.4643ZM10.023 13.8386C10.0223 13.8354 10.0218 13.832 10.0211 13.8288C9.90447 13.1756 9.97497 12.9166 9.95411 10.5526H10.8896C13.5497 10.5526 15.6206 9.6307 16.7762 7.94543C17.089 8.67412 17.717 9.67585 18.9413 10.3657V13.1445C18.9296 13.8653 18.7368 14.5656 18.3767 15.1931C18.1772 15.0725 17.9427 15.0017 17.691 15.0017H16.4898C15.7707 15.0017 15.1858 15.57 15.1858 16.2685C15.1858 16.676 15.3856 17.0381 15.6943 17.27C14.182 17.6936 12.4897 17.331 11.2925 16.1839C10.6205 15.5402 10.1833 14.7249 10.023 13.8386ZM20.9514 10.5526C21.2368 10.5526 21.469 10.7782 21.469 11.0555V12.9615C21.469 13.2387 21.2368 13.4643 20.9514 13.4643H19.8748C19.8825 13.3618 19.8882 13.2589 19.8898 13.1553C19.8899 13.153 19.8899 13.1506 19.8899 13.1484V10.5528H20.9514V10.5526ZM18.0465 16.2686C18.0465 16.459 17.8871 16.614 17.691 16.614C17.3336 16.614 16.8915 16.614 16.4898 16.614C16.2937 16.614 16.1343 16.4591 16.1343 16.2686C16.1343 16.0781 16.2937 15.9232 16.4898 15.9232H17.691C17.8885 15.9232 18.0465 16.0813 18.0465 16.2686ZM19.7216 14.3857H20.9392L20.9393 14.9362C20.9314 15.4602 20.4908 15.8842 19.9497 15.8842H19.0578C19.3599 15.418 19.5829 14.9138 19.7216 14.3857ZM12.3942 17.9742C13.6822 18.4837 15.1662 18.5014 16.5014 17.972V18.7313C16.5014 18.9897 16.5598 19.2371 16.6657 19.4609H12.2298C12.3358 19.2371 12.3942 18.9897 12.3942 18.7313V17.9742ZM14.4478 3.92523C17.8132 3.92523 20.5961 6.43656 20.9084 9.63126H19.5327C18.3141 8.99329 17.7685 7.99371 17.5252 7.25813C17.4353 6.9862 17.1883 6.79234 16.896 6.76439C16.6024 6.73669 16.3208 6.88006 16.1776 7.13049C15.2552 8.74316 13.3773 9.63126 10.8897 9.63126C10.611 9.63126 8.25277 9.63126 7.98726 9.63126C8.29944 6.43656 11.0823 3.92523 14.4478 3.92523ZM7.95634 14.3857H9.17407C9.41568 15.309 9.91123 16.1548 10.6265 16.8401C10.8803 17.0833 11.1548 17.2993 11.4456 17.4869V18.7312C11.4456 19.0426 11.2673 19.3209 10.9854 19.4608H7.95514L7.95634 14.3857ZM3.9837 24.3026L4.07785 25.9879C4.09208 26.242 4.31643 26.4373 4.57714 26.423C4.83867 26.4092 5.03924 26.1921 5.02501 25.938L4.77082 21.3886C4.7404 20.8435 5.18562 20.3822 5.75199 20.3822H23.1436C23.7055 20.3822 24.1555 20.8392 24.1247 21.3886L23.6788 29.3712H16.2421C16.3247 28.8236 16.5733 28.3074 16.9636 27.8861L16.9761 27.8726C18.4128 26.3112 17.9823 23.8701 16.1259 22.8455C15.6488 22.582 15.0447 22.9112 15.0447 23.4553V25.5473C15.0447 25.6434 14.9643 25.7215 14.8654 25.7215H14.0619C13.963 25.7215 13.8825 25.6434 13.8825 25.5473V23.4553C13.8825 22.9111 13.2782 22.5821 12.8014 22.8455C10.9472 23.8689 10.5114 26.308 11.9544 27.8762L11.9648 27.8875C12.3542 28.3077 12.6025 28.8237 12.6851 29.3712H5.21686L5.14503 28.0856C5.13086 27.8315 4.9062 27.637 4.64574 27.6505C4.38421 27.6643 4.18364 27.8814 4.19787 28.1355L4.26692 29.3712H3.24091C3.17293 29.3712 3.1061 29.376 3.04046 29.3846V27.5921C3.04046 26.4226 3.37041 25.2888 3.9837 24.3026ZM13.6407 29.3711C13.5531 28.5952 13.2165 27.861 12.6686 27.2697L12.6583 27.2586C11.7395 26.2601 11.8659 24.7186 12.934 23.8702V25.5472C12.934 26.1513 13.4399 26.6428 14.0618 26.6428H14.8653C15.4872 26.6428 15.9931 26.1513 15.9931 25.5472V23.8702C17.0604 24.718 17.1883 26.2592 16.269 27.2584L16.2574 27.271C15.7105 27.8611 15.374 28.5952 15.2864 29.3711H13.6407ZM25.6547 31.3539H3.24091C2.93967 31.3539 2.69458 31.1158 2.69458 30.8232C2.69458 30.5305 2.93967 30.2925 3.24091 30.2925H25.6547C25.956 30.2925 26.201 30.5305 26.201 30.8232C26.201 31.1158 25.9559 31.3539 25.6547 31.3539Z" fill="#0B2C4C"/>
<path d="M33.6469 4.17729C33.9088 4.17729 34.1211 3.97102 34.1211 3.71659V2.6804C34.1211 1.68709 33.2892 0.878906 32.2666 0.878906H24.2842C23.2616 0.878906 22.4297 1.68709 22.4297 2.6804V6.55864C22.4297 7.55196 23.2616 8.36014 24.2842 8.36014C24.4672 8.36014 24.616 8.50473 24.616 8.6825V11.0809C24.616 11.855 25.664 12.1316 26.0709 11.4722L27.8954 8.51665C27.955 8.42015 28.0641 8.36014 28.18 8.36014H32.2666C33.2892 8.36014 34.1211 7.55196 34.1211 6.55864V5.87215C34.1211 5.61772 33.9088 5.41145 33.6469 5.41145C33.3849 5.41145 33.1726 5.61772 33.1726 5.87215V6.55864C33.1726 7.0439 32.7662 7.43875 32.2666 7.43875H28.18C27.7327 7.43875 27.3119 7.67026 27.082 8.04281L25.5645 10.501V8.6825C25.5645 7.99668 24.9902 7.43875 24.2842 7.43875C23.7846 7.43875 23.3782 7.0439 23.3782 6.55864V2.6804C23.3782 2.19514 23.7846 1.80029 24.2842 1.80029H32.2666C32.7662 1.80029 33.1726 2.19514 33.1726 2.6804V3.71659C33.1726 3.97108 33.3849 4.17729 33.6469 4.17729Z" fill="#0B2C4C"/>
</g>
<defs>
<clipPath id="clip0_6661_17676">
<rect width="35" height="34" fill="white"/>
</clipPath>
</defs>
</svg>
