<svg width="530" height="285" viewBox="0 0 530 285" fill="none" xmlns="http://www.w3.org/2000/svg">
<rect width="530" height="285" rx="8" fill="white"/>
<rect x="46" y="46" width="210" height="32" rx="6" stroke="#AEAEAF"/>
<path d="M53.232 56.434C53.3347 56.4153 53.442 56.4013 53.554 56.392C53.6753 56.3827 53.7873 56.378 53.89 56.378C53.9927 56.378 54.1 56.3827 54.212 56.392C54.3333 56.4013 54.4453 56.4153 54.548 56.434L58.93 63.994V56.434C59.042 56.4153 59.1587 56.4013 59.28 56.392C59.4013 56.3827 59.5227 56.378 59.644 56.378C59.7467 56.378 59.854 56.3827 59.966 56.392C60.078 56.4013 60.1853 56.4153 60.288 56.434V66.5C60.1853 66.5187 60.0733 66.5327 59.952 66.542C59.84 66.5513 59.7327 66.556 59.63 66.556C59.5273 66.556 59.4153 66.5513 59.294 66.542C59.182 66.5327 59.0747 66.5187 58.972 66.5L54.576 58.982V66.5C54.4733 66.5187 54.3613 66.5327 54.24 66.542C54.128 66.5513 54.016 66.556 53.904 66.556C53.7827 66.556 53.6613 66.5513 53.54 66.542C53.428 66.5327 53.3253 66.5187 53.232 66.5V56.434ZM65.5476 66.668C64.9876 66.668 64.4976 66.5747 64.0776 66.388C63.6576 66.192 63.3076 65.926 63.0276 65.59C62.7476 65.254 62.5376 64.8573 62.3976 64.4C62.267 63.9427 62.2016 63.448 62.2016 62.916C62.2016 62.384 62.267 61.8893 62.3976 61.432C62.5376 60.9747 62.7476 60.578 63.0276 60.242C63.3076 59.906 63.6576 59.64 64.0776 59.444C64.4976 59.248 64.9876 59.15 65.5476 59.15C66.1076 59.15 66.5976 59.248 67.0176 59.444C67.4376 59.64 67.7876 59.906 68.0676 60.242C68.3476 60.578 68.553 60.9747 68.6836 61.432C68.8236 61.8893 68.8936 62.384 68.8936 62.916C68.8936 63.448 68.8236 63.9427 68.6836 64.4C68.553 64.8573 68.3476 65.254 68.0676 65.59C67.7876 65.926 67.4376 66.192 67.0176 66.388C66.5976 66.5747 66.1076 66.668 65.5476 66.668ZM65.5476 65.562C66.1916 65.562 66.6676 65.3287 66.9756 64.862C67.2836 64.3953 67.4376 63.7467 67.4376 62.916C67.4376 62.0853 67.2836 61.4413 66.9756 60.984C66.6676 60.5173 66.1916 60.284 65.5476 60.284C64.9036 60.284 64.4276 60.5173 64.1196 60.984C63.821 61.4413 63.6716 62.0853 63.6716 62.916C63.6716 63.7467 63.821 64.3953 64.1196 64.862C64.4276 65.3287 64.9036 65.562 65.5476 65.562ZM70.7157 59.318C70.8184 59.2993 70.9164 59.2853 71.0097 59.276C71.1124 59.2667 71.215 59.262 71.3177 59.262C71.4204 59.262 71.5137 59.2667 71.5977 59.276C71.691 59.2853 71.789 59.2993 71.8917 59.318C71.9197 59.458 71.9477 59.6447 71.9757 59.878C72.0037 60.102 72.0177 60.2933 72.0177 60.452C72.1017 60.284 72.2044 60.1253 72.3257 59.976C72.4564 59.8173 72.6057 59.6773 72.7737 59.556C72.951 59.4347 73.1517 59.3367 73.3757 59.262C73.5997 59.1873 73.847 59.15 74.1177 59.15C74.6777 59.15 75.107 59.2667 75.4057 59.5C75.7137 59.724 75.947 60.0413 76.1057 60.452C76.199 60.2933 76.311 60.1347 76.4417 59.976C76.5817 59.8173 76.7357 59.6773 76.9037 59.556C77.0717 59.4347 77.263 59.3367 77.4777 59.262C77.6924 59.1873 77.935 59.15 78.2057 59.15C79.0364 59.15 79.6384 59.3833 80.0117 59.85C80.3944 60.3167 80.5857 61.0073 80.5857 61.922V66.5C80.483 66.5187 80.3664 66.5327 80.2357 66.542C80.105 66.5513 79.9884 66.556 79.8857 66.556C79.783 66.556 79.6664 66.5513 79.5357 66.542C79.4144 66.5327 79.3024 66.5187 79.1997 66.5V62.328C79.1997 61.684 79.1017 61.2033 78.9057 60.886C78.7097 60.5593 78.3877 60.396 77.9397 60.396C77.4637 60.396 77.0764 60.5687 76.7777 60.914C76.4884 61.2593 76.3437 61.768 76.3437 62.44V66.5C76.241 66.5187 76.1244 66.5327 75.9937 66.542C75.8724 66.5513 75.7604 66.556 75.6577 66.556C75.555 66.556 75.4384 66.5513 75.3077 66.542C75.1864 66.5327 75.0744 66.5187 74.9717 66.5V62.23C74.9717 61.6047 74.8784 61.138 74.6917 60.83C74.505 60.5127 74.2064 60.354 73.7957 60.354C73.5624 60.354 73.343 60.4053 73.1377 60.508C72.9324 60.6107 72.7504 60.7647 72.5917 60.97C72.4424 61.1753 72.321 61.4367 72.2277 61.754C72.1437 62.062 72.1017 62.4213 72.1017 62.832V66.5C71.999 66.5187 71.8824 66.5327 71.7517 66.542C71.6304 66.5513 71.5184 66.556 71.4157 66.556C71.313 66.556 71.1964 66.5513 71.0657 66.542C70.935 66.5327 70.8184 66.5187 70.7157 66.5V59.318ZM82.6509 56.238C82.7536 56.2193 82.8656 56.2053 82.9869 56.196C83.1176 56.1867 83.2343 56.182 83.3369 56.182C83.4396 56.182 83.5563 56.1867 83.6869 56.196C83.8176 56.2053 83.9343 56.2193 84.0369 56.238V60.186C84.2049 59.906 84.4663 59.6633 84.8209 59.458C85.1756 59.2527 85.6049 59.15 86.1089 59.15C86.5383 59.15 86.9349 59.22 87.2989 59.36C87.6629 59.5 87.9756 59.7193 88.2369 60.018C88.4983 60.3073 88.6989 60.6807 88.8389 61.138C88.9883 61.586 89.0629 62.118 89.0629 62.734C89.0629 63.966 88.7129 64.932 88.0129 65.632C87.3223 66.3227 86.3236 66.668 85.0169 66.668C84.6063 66.668 84.1816 66.626 83.7429 66.542C83.3136 66.4673 82.9496 66.3787 82.6509 66.276V56.238ZM84.0369 65.338C84.2049 65.394 84.3823 65.436 84.5689 65.464C84.7649 65.4827 84.9656 65.492 85.1709 65.492C85.5163 65.492 85.8336 65.4407 86.1229 65.338C86.4216 65.226 86.6783 65.0627 86.8929 64.848C87.1076 64.624 87.2756 64.344 87.3969 64.008C87.5276 63.6627 87.5929 63.2567 87.5929 62.79C87.5929 62.0153 87.4576 61.4133 87.1869 60.984C86.9163 60.5547 86.4683 60.34 85.8429 60.34C85.6283 60.34 85.4136 60.3773 85.1989 60.452C84.9936 60.5173 84.8023 60.6293 84.6249 60.788C84.4476 60.9373 84.3029 61.1427 84.1909 61.404C84.0883 61.656 84.0369 61.964 84.0369 62.328V65.338ZM90.9227 59.318C91.0254 59.2993 91.1234 59.2853 91.2167 59.276C91.3101 59.2667 91.4081 59.262 91.5107 59.262C91.6134 59.262 91.7161 59.2667 91.8187 59.276C91.9214 59.2853 92.0147 59.2993 92.0987 59.318C92.1267 59.458 92.1547 59.6447 92.1827 59.878C92.2107 60.102 92.2247 60.2933 92.2247 60.452C92.4207 60.1347 92.6774 59.8593 92.9947 59.626C93.3214 59.3927 93.7367 59.276 94.2407 59.276C94.3154 59.276 94.3901 59.2807 94.4647 59.29C94.5487 59.29 94.6187 59.2947 94.6747 59.304C94.6934 59.388 94.7074 59.4767 94.7167 59.57C94.7261 59.6633 94.7307 59.7613 94.7307 59.864C94.7307 59.976 94.7214 60.0927 94.7027 60.214C94.6934 60.3353 94.6794 60.452 94.6607 60.564C94.5861 60.5453 94.5067 60.536 94.4227 60.536C94.3481 60.536 94.2874 60.536 94.2407 60.536C93.9887 60.536 93.7461 60.5733 93.5127 60.648C93.2887 60.7133 93.0834 60.8347 92.8967 61.012C92.7194 61.1893 92.5747 61.432 92.4627 61.74C92.3601 62.048 92.3087 62.4447 92.3087 62.93V66.5C92.2061 66.5187 92.0894 66.5327 91.9587 66.542C91.8374 66.5513 91.7254 66.556 91.6227 66.556C91.5201 66.556 91.4034 66.5513 91.2727 66.542C91.1514 66.5327 91.0347 66.5187 90.9227 66.5V59.318ZM96.9626 63.252C96.9813 64.036 97.182 64.61 97.5646 64.974C97.9566 65.338 98.5306 65.52 99.2866 65.52C99.9493 65.52 100.579 65.4033 101.177 65.17C101.251 65.31 101.312 65.4827 101.359 65.688C101.405 65.884 101.433 66.08 101.443 66.276C101.135 66.4067 100.794 66.5047 100.421 66.57C100.057 66.6353 99.6506 66.668 99.2026 66.668C98.5493 66.668 97.9893 66.5793 97.5226 66.402C97.056 66.2153 96.6686 65.9587 96.3606 65.632C96.062 65.296 95.8426 64.904 95.7026 64.456C95.5626 63.9987 95.4926 63.4993 95.4926 62.958C95.4926 62.426 95.558 61.9313 95.6886 61.474C95.8286 61.0073 96.0386 60.606 96.3186 60.27C96.5986 59.9247 96.9486 59.654 97.3686 59.458C97.798 59.2527 98.302 59.15 98.8806 59.15C99.3753 59.15 99.8093 59.234 100.183 59.402C100.556 59.57 100.869 59.8033 101.121 60.102C101.373 60.3913 101.564 60.7413 101.695 61.152C101.825 61.5533 101.891 61.992 101.891 62.468C101.891 62.5987 101.886 62.7387 101.877 62.888C101.867 63.028 101.858 63.1493 101.849 63.252H96.9626ZM100.519 62.216C100.519 61.9547 100.481 61.7073 100.407 61.474C100.341 61.2313 100.239 61.0213 100.099 60.844C99.968 60.6667 99.7953 60.5267 99.5806 60.424C99.3753 60.312 99.128 60.256 98.8386 60.256C98.2693 60.256 97.8306 60.4287 97.5226 60.774C97.224 61.1193 97.042 61.6 96.9766 62.216H100.519Z" fill="#AEAEAF"/>
<rect x="274" y="46" width="210" height="32" rx="6" stroke="#AEAEAF"/>
<path d="M286.188 64.176H282.366L281.68 66.5C281.559 66.5187 281.437 66.5327 281.316 66.542C281.195 66.5513 281.073 66.556 280.952 66.556C280.821 66.556 280.691 66.5513 280.56 66.542C280.439 66.5327 280.327 66.5187 280.224 66.5L283.5 56.434C283.621 56.4153 283.752 56.4013 283.892 56.392C284.032 56.3827 284.177 56.378 284.326 56.378C284.457 56.378 284.592 56.3827 284.732 56.392C284.872 56.4013 285.007 56.4153 285.138 56.434L288.4 66.5C288.288 66.5187 288.162 66.5327 288.022 66.542C287.882 66.5513 287.747 66.556 287.616 66.556C287.495 66.556 287.369 66.5513 287.238 66.542C287.117 66.5327 287 66.5187 286.888 66.5L286.188 64.176ZM282.744 62.93H285.81L284.27 57.792L282.744 62.93ZM289.747 59.318C289.84 59.2993 289.933 59.2853 290.027 59.276C290.129 59.2667 290.232 59.262 290.335 59.262C290.428 59.262 290.526 59.2667 290.629 59.276C290.731 59.2853 290.829 59.2993 290.923 59.318C290.932 59.3367 290.941 59.3973 290.951 59.5C290.969 59.5933 290.983 59.696 290.993 59.808C291.011 59.92 291.025 60.0273 291.035 60.13C291.053 60.2327 291.063 60.298 291.063 60.326C291.156 60.1767 291.268 60.032 291.399 59.892C291.529 59.752 291.683 59.626 291.861 59.514C292.047 59.402 292.253 59.3133 292.477 59.248C292.71 59.1827 292.967 59.15 293.247 59.15C293.667 59.15 294.054 59.22 294.409 59.36C294.773 59.5 295.081 59.7193 295.333 60.018C295.594 60.3073 295.795 60.6807 295.935 61.138C296.084 61.586 296.159 62.118 296.159 62.734C296.159 63.966 295.823 64.932 295.151 65.632C294.488 66.3227 293.545 66.668 292.323 66.668C292.117 66.668 291.907 66.654 291.693 66.626C291.478 66.598 291.291 66.5607 291.133 66.514V69.804C291.021 69.8227 290.899 69.8367 290.769 69.846C290.647 69.8553 290.535 69.86 290.433 69.86C290.33 69.86 290.213 69.8553 290.083 69.846C289.961 69.8367 289.849 69.8227 289.747 69.804V59.318ZM291.133 65.324C291.31 65.3893 291.492 65.436 291.679 65.464C291.865 65.492 292.108 65.506 292.407 65.506C292.743 65.506 293.051 65.4547 293.331 65.352C293.611 65.24 293.849 65.072 294.045 64.848C294.25 64.624 294.409 64.344 294.521 64.008C294.642 63.6627 294.703 63.2567 294.703 62.79C294.703 62.0433 294.563 61.4507 294.283 61.012C294.012 60.5733 293.564 60.354 292.939 60.354C292.705 60.354 292.481 60.396 292.267 60.48C292.052 60.564 291.861 60.69 291.693 60.858C291.525 61.026 291.389 61.2407 291.287 61.502C291.184 61.754 291.133 62.0573 291.133 62.412V65.324ZM299.054 63.252C299.073 64.036 299.274 64.61 299.656 64.974C300.048 65.338 300.622 65.52 301.378 65.52C302.041 65.52 302.671 65.4033 303.268 65.17C303.343 65.31 303.404 65.4827 303.45 65.688C303.497 65.884 303.525 66.08 303.534 66.276C303.226 66.4067 302.886 66.5047 302.512 66.57C302.148 66.6353 301.742 66.668 301.294 66.668C300.641 66.668 300.081 66.5793 299.614 66.402C299.148 66.2153 298.76 65.9587 298.452 65.632C298.154 65.296 297.934 64.904 297.794 64.456C297.654 63.9987 297.584 63.4993 297.584 62.958C297.584 62.426 297.65 61.9313 297.78 61.474C297.92 61.0073 298.13 60.606 298.41 60.27C298.69 59.9247 299.04 59.654 299.46 59.458C299.89 59.2527 300.394 59.15 300.972 59.15C301.467 59.15 301.901 59.234 302.274 59.402C302.648 59.57 302.96 59.8033 303.212 60.102C303.464 60.3913 303.656 60.7413 303.786 61.152C303.917 61.5533 303.982 61.992 303.982 62.468C303.982 62.5987 303.978 62.7387 303.968 62.888C303.959 63.028 303.95 63.1493 303.94 63.252H299.054ZM302.61 62.216C302.61 61.9547 302.573 61.7073 302.498 61.474C302.433 61.2313 302.33 61.0213 302.19 60.844C302.06 60.6667 301.887 60.5267 301.672 60.424C301.467 60.312 301.22 60.256 300.93 60.256C300.361 60.256 299.922 60.4287 299.614 60.774C299.316 61.1193 299.134 61.6 299.068 62.216H302.61ZM305.77 56.238C305.872 56.2193 305.984 56.2053 306.106 56.196C306.236 56.1867 306.353 56.182 306.456 56.182C306.558 56.182 306.67 56.1867 306.792 56.196C306.922 56.2053 307.039 56.2193 307.142 56.238V64.33C307.142 64.5913 307.165 64.7967 307.212 64.946C307.258 65.0953 307.319 65.212 307.394 65.296C307.478 65.3707 307.571 65.422 307.674 65.45C307.786 65.4687 307.902 65.478 308.024 65.478C308.108 65.478 308.201 65.4733 308.304 65.464C308.416 65.4547 308.509 65.4407 308.584 65.422C308.668 65.7487 308.71 66.1033 308.71 66.486C308.579 66.5327 308.42 66.5607 308.234 66.57C308.047 66.5887 307.874 66.598 307.716 66.598C307.445 66.598 307.193 66.5653 306.96 66.5C306.726 66.4347 306.521 66.3273 306.344 66.178C306.166 66.0287 306.026 65.828 305.924 65.576C305.821 65.324 305.77 65.0113 305.77 64.638V56.238ZM309.94 56.238C310.042 56.2193 310.154 56.2053 310.276 56.196C310.406 56.1867 310.523 56.182 310.626 56.182C310.728 56.182 310.84 56.1867 310.962 56.196C311.092 56.2053 311.209 56.2193 311.312 56.238V64.33C311.312 64.5913 311.335 64.7967 311.382 64.946C311.428 65.0953 311.489 65.212 311.564 65.296C311.648 65.3707 311.741 65.422 311.844 65.45C311.956 65.4687 312.072 65.478 312.194 65.478C312.278 65.478 312.371 65.4733 312.474 65.464C312.586 65.4547 312.679 65.4407 312.754 65.422C312.838 65.7487 312.88 66.1033 312.88 66.486C312.749 66.5327 312.59 66.5607 312.404 66.57C312.217 66.5887 312.044 66.598 311.886 66.598C311.615 66.598 311.363 66.5653 311.13 66.5C310.896 66.4347 310.691 66.3273 310.514 66.178C310.336 66.0287 310.196 65.828 310.094 65.576C309.991 65.324 309.94 65.0113 309.94 64.638V56.238ZM314.558 60.41H313.648C313.629 60.3353 313.615 60.2513 313.606 60.158C313.596 60.0553 313.592 59.9573 313.592 59.864C313.592 59.7707 313.596 59.6773 313.606 59.584C313.615 59.4813 313.629 59.3927 313.648 59.318H315.916V66.5C315.813 66.5187 315.696 66.5327 315.566 66.542C315.444 66.5513 315.332 66.556 315.23 66.556C315.136 66.556 315.024 66.5513 314.894 66.542C314.772 66.5327 314.66 66.5187 314.558 66.5V60.41ZM314.25 57.736C314.231 57.624 314.217 57.5027 314.208 57.372C314.208 57.2413 314.208 57.1247 314.208 57.022C314.208 56.9193 314.208 56.8027 314.208 56.672C314.217 56.5413 314.231 56.4247 314.25 56.322C314.371 56.3033 314.502 56.2893 314.642 56.28C314.782 56.2707 314.903 56.266 315.006 56.266C315.108 56.266 315.23 56.2707 315.37 56.28C315.51 56.2893 315.636 56.3033 315.748 56.322C315.766 56.4247 315.776 56.5413 315.776 56.672C315.785 56.8027 315.79 56.9193 315.79 57.022C315.79 57.1247 315.785 57.2413 315.776 57.372C315.776 57.5027 315.766 57.624 315.748 57.736C315.636 57.7547 315.51 57.7687 315.37 57.778C315.239 57.7873 315.122 57.792 315.02 57.792C314.908 57.792 314.782 57.7873 314.642 57.778C314.502 57.7687 314.371 57.7547 314.25 57.736ZM322.777 56.238C322.879 56.2193 322.996 56.2053 323.127 56.196C323.257 56.1867 323.369 56.182 323.463 56.182C323.565 56.182 323.677 56.1867 323.799 56.196C323.929 56.2053 324.046 56.2193 324.149 56.238V66.304C323.794 66.4067 323.397 66.4907 322.959 66.556C322.52 66.6307 322.03 66.668 321.489 66.668C320.985 66.668 320.504 66.6073 320.047 66.486C319.599 66.3553 319.207 66.1453 318.871 65.856C318.535 65.5667 318.269 65.1933 318.073 64.736C317.877 64.2787 317.779 63.714 317.779 63.042C317.779 62.4633 317.863 61.936 318.031 61.46C318.208 60.984 318.455 60.578 318.773 60.242C319.09 59.8967 319.468 59.6307 319.907 59.444C320.355 59.2573 320.849 59.164 321.391 59.164C321.633 59.164 321.876 59.1827 322.119 59.22C322.371 59.2573 322.59 59.304 322.777 59.36V56.238ZM322.777 60.536C322.59 60.4613 322.389 60.4053 322.175 60.368C321.96 60.3307 321.727 60.312 321.475 60.312C321.092 60.312 320.761 60.382 320.481 60.522C320.201 60.662 319.967 60.8533 319.781 61.096C319.603 61.3387 319.468 61.628 319.375 61.964C319.291 62.2907 319.249 62.65 319.249 63.042C319.258 63.9287 319.468 64.5633 319.879 64.946C320.289 65.3287 320.849 65.52 321.559 65.52C321.801 65.52 322.025 65.5107 322.231 65.492C322.436 65.464 322.618 65.4267 322.777 65.38V60.536ZM329.286 66.668C328.726 66.668 328.236 66.5747 327.816 66.388C327.396 66.192 327.046 65.926 326.766 65.59C326.486 65.254 326.276 64.8573 326.136 64.4C326.005 63.9427 325.94 63.448 325.94 62.916C325.94 62.384 326.005 61.8893 326.136 61.432C326.276 60.9747 326.486 60.578 326.766 60.242C327.046 59.906 327.396 59.64 327.816 59.444C328.236 59.248 328.726 59.15 329.286 59.15C329.846 59.15 330.336 59.248 330.756 59.444C331.176 59.64 331.526 59.906 331.806 60.242C332.086 60.578 332.291 60.9747 332.422 61.432C332.562 61.8893 332.632 62.384 332.632 62.916C332.632 63.448 332.562 63.9427 332.422 64.4C332.291 64.8573 332.086 65.254 331.806 65.59C331.526 65.926 331.176 66.192 330.756 66.388C330.336 66.5747 329.846 66.668 329.286 66.668ZM329.286 65.562C329.93 65.562 330.406 65.3287 330.714 64.862C331.022 64.3953 331.176 63.7467 331.176 62.916C331.176 62.0853 331.022 61.4413 330.714 60.984C330.406 60.5173 329.93 60.284 329.286 60.284C328.642 60.284 328.166 60.5173 327.858 60.984C327.559 61.4413 327.41 62.0853 327.41 62.916C327.41 63.7467 327.559 64.3953 327.858 64.862C328.166 65.3287 328.642 65.562 329.286 65.562Z" fill="#AEAEAF"/>
<rect x="46" y="96" width="210" height="32" rx="6" stroke="#AEAEAF"/>
<path d="M59.658 115.03C59.8633 115.431 59.994 115.819 60.05 116.192C59.658 116.36 59.2567 116.481 58.846 116.556C58.4353 116.631 57.992 116.668 57.516 116.668C56.788 116.668 56.13 116.551 55.542 116.318C54.9633 116.075 54.4733 115.735 54.072 115.296C53.6707 114.848 53.3627 114.307 53.148 113.672C52.9333 113.037 52.826 112.323 52.826 111.53C52.826 110.727 52.9333 110.004 53.148 109.36C53.3627 108.707 53.6707 108.151 54.072 107.694C54.4733 107.237 54.9633 106.887 55.542 106.644C56.1207 106.392 56.7693 106.266 57.488 106.266C58.02 106.266 58.4773 106.303 58.86 106.378C59.2427 106.453 59.5833 106.541 59.882 106.644C59.8633 106.859 59.8213 107.059 59.756 107.246C59.7 107.423 59.63 107.615 59.546 107.82C59.406 107.773 59.2707 107.731 59.14 107.694C59.0093 107.657 58.8693 107.624 58.72 107.596C58.5707 107.568 58.4027 107.549 58.216 107.54C58.0387 107.521 57.8333 107.512 57.6 107.512C56.5827 107.512 55.7893 107.857 55.22 108.548C54.66 109.239 54.38 110.233 54.38 111.53C54.38 112.193 54.4593 112.767 54.618 113.252C54.7767 113.737 55.0007 114.139 55.29 114.456C55.5793 114.773 55.9247 115.011 56.326 115.17C56.7367 115.329 57.194 115.408 57.698 115.408C58.09 115.408 58.4447 115.375 58.762 115.31C59.0793 115.245 59.378 115.151 59.658 115.03ZM64.4812 116.668C63.9212 116.668 63.4312 116.575 63.0112 116.388C62.5912 116.192 62.2412 115.926 61.9612 115.59C61.6812 115.254 61.4712 114.857 61.3312 114.4C61.2006 113.943 61.1352 113.448 61.1352 112.916C61.1352 112.384 61.2006 111.889 61.3312 111.432C61.4712 110.975 61.6812 110.578 61.9612 110.242C62.2412 109.906 62.5912 109.64 63.0112 109.444C63.4312 109.248 63.9212 109.15 64.4812 109.15C65.0412 109.15 65.5312 109.248 65.9512 109.444C66.3712 109.64 66.7212 109.906 67.0012 110.242C67.2812 110.578 67.4866 110.975 67.6172 111.432C67.7572 111.889 67.8272 112.384 67.8272 112.916C67.8272 113.448 67.7572 113.943 67.6172 114.4C67.4866 114.857 67.2812 115.254 67.0012 115.59C66.7212 115.926 66.3712 116.192 65.9512 116.388C65.5312 116.575 65.0412 116.668 64.4812 116.668ZM64.4812 115.562C65.1252 115.562 65.6012 115.329 65.9092 114.862C66.2172 114.395 66.3712 113.747 66.3712 112.916C66.3712 112.085 66.2172 111.441 65.9092 110.984C65.6012 110.517 65.1252 110.284 64.4812 110.284C63.8372 110.284 63.3612 110.517 63.0532 110.984C62.7546 111.441 62.6052 112.085 62.6052 112.916C62.6052 113.747 62.7546 114.395 63.0532 114.862C63.3612 115.329 63.8372 115.562 64.4812 115.562ZM69.6493 109.318C69.752 109.299 69.85 109.285 69.9433 109.276C70.0366 109.267 70.1346 109.262 70.2373 109.262C70.34 109.262 70.4426 109.267 70.5453 109.276C70.648 109.285 70.7413 109.299 70.8253 109.318C70.8533 109.458 70.8813 109.645 70.9093 109.878C70.9373 110.102 70.9513 110.293 70.9513 110.452C71.1473 110.135 71.404 109.859 71.7213 109.626C72.048 109.393 72.4633 109.276 72.9673 109.276C73.042 109.276 73.1166 109.281 73.1913 109.29C73.2753 109.29 73.3453 109.295 73.4013 109.304C73.42 109.388 73.434 109.477 73.4433 109.57C73.4526 109.663 73.4573 109.761 73.4573 109.864C73.4573 109.976 73.448 110.093 73.4293 110.214C73.42 110.335 73.406 110.452 73.3873 110.564C73.3126 110.545 73.2333 110.536 73.1493 110.536C73.0746 110.536 73.014 110.536 72.9673 110.536C72.7153 110.536 72.4726 110.573 72.2393 110.648C72.0153 110.713 71.81 110.835 71.6233 111.012C71.446 111.189 71.3013 111.432 71.1893 111.74C71.0866 112.048 71.0353 112.445 71.0353 112.93V116.5C70.9326 116.519 70.816 116.533 70.6853 116.542C70.564 116.551 70.452 116.556 70.3493 116.556C70.2466 116.556 70.13 116.551 69.9993 116.542C69.878 116.533 69.7613 116.519 69.6493 116.5V109.318ZM74.8583 109.318C74.9609 109.299 75.0589 109.285 75.1523 109.276C75.2456 109.267 75.3436 109.262 75.4463 109.262C75.5489 109.262 75.6516 109.267 75.7543 109.276C75.8569 109.285 75.9503 109.299 76.0343 109.318C76.0623 109.458 76.0903 109.645 76.1183 109.878C76.1463 110.102 76.1603 110.293 76.1603 110.452C76.3563 110.135 76.6129 109.859 76.9303 109.626C77.2569 109.393 77.6723 109.276 78.1763 109.276C78.2509 109.276 78.3256 109.281 78.4003 109.29C78.4843 109.29 78.5543 109.295 78.6103 109.304C78.6289 109.388 78.6429 109.477 78.6523 109.57C78.6616 109.663 78.6663 109.761 78.6663 109.864C78.6663 109.976 78.6569 110.093 78.6383 110.214C78.6289 110.335 78.6149 110.452 78.5963 110.564C78.5216 110.545 78.4423 110.536 78.3583 110.536C78.2836 110.536 78.2229 110.536 78.1763 110.536C77.9243 110.536 77.6816 110.573 77.4483 110.648C77.2243 110.713 77.0189 110.835 76.8323 111.012C76.6549 111.189 76.5103 111.432 76.3983 111.74C76.2956 112.048 76.2443 112.445 76.2443 112.93V116.5C76.1416 116.519 76.0249 116.533 75.8943 116.542C75.7729 116.551 75.6609 116.556 75.5583 116.556C75.4556 116.556 75.3389 116.551 75.2083 116.542C75.0869 116.533 74.9703 116.519 74.8583 116.5V109.318ZM80.8982 113.252C80.9169 114.036 81.1175 114.61 81.5002 114.974C81.8922 115.338 82.4662 115.52 83.2222 115.52C83.8849 115.52 84.5149 115.403 85.1122 115.17C85.1869 115.31 85.2475 115.483 85.2942 115.688C85.3409 115.884 85.3689 116.08 85.3782 116.276C85.0702 116.407 84.7295 116.505 84.3562 116.57C83.9922 116.635 83.5862 116.668 83.1382 116.668C82.4849 116.668 81.9249 116.579 81.4582 116.402C80.9915 116.215 80.6042 115.959 80.2962 115.632C79.9975 115.296 79.7782 114.904 79.6382 114.456C79.4982 113.999 79.4282 113.499 79.4282 112.958C79.4282 112.426 79.4935 111.931 79.6242 111.474C79.7642 111.007 79.9742 110.606 80.2542 110.27C80.5342 109.925 80.8842 109.654 81.3042 109.458C81.7335 109.253 82.2375 109.15 82.8162 109.15C83.3109 109.15 83.7449 109.234 84.1182 109.402C84.4915 109.57 84.8042 109.803 85.0562 110.102C85.3082 110.391 85.4995 110.741 85.6302 111.152C85.7609 111.553 85.8262 111.992 85.8262 112.468C85.8262 112.599 85.8215 112.739 85.8122 112.888C85.8029 113.028 85.7935 113.149 85.7842 113.252H80.8982ZM84.4542 112.216C84.4542 111.955 84.4169 111.707 84.3422 111.474C84.2769 111.231 84.1742 111.021 84.0342 110.844C83.9035 110.667 83.7309 110.527 83.5162 110.424C83.3109 110.312 83.0635 110.256 82.7742 110.256C82.2049 110.256 81.7662 110.429 81.4582 110.774C81.1595 111.119 80.9775 111.6 80.9122 112.216H84.4542ZM90.5535 116.668C89.9935 116.668 89.5035 116.575 89.0835 116.388C88.6635 116.192 88.3135 115.926 88.0335 115.59C87.7535 115.254 87.5435 114.857 87.4035 114.4C87.2728 113.943 87.2075 113.448 87.2075 112.916C87.2075 112.384 87.2728 111.889 87.4035 111.432C87.5435 110.975 87.7535 110.578 88.0335 110.242C88.3135 109.906 88.6635 109.64 89.0835 109.444C89.5035 109.248 89.9935 109.15 90.5535 109.15C91.1135 109.15 91.6035 109.248 92.0235 109.444C92.4435 109.64 92.7935 109.906 93.0735 110.242C93.3535 110.578 93.5588 110.975 93.6895 111.432C93.8295 111.889 93.8995 112.384 93.8995 112.916C93.8995 113.448 93.8295 113.943 93.6895 114.4C93.5588 114.857 93.3535 115.254 93.0735 115.59C92.7935 115.926 92.4435 116.192 92.0235 116.388C91.6035 116.575 91.1135 116.668 90.5535 116.668ZM90.5535 115.562C91.1975 115.562 91.6735 115.329 91.9815 114.862C92.2895 114.395 92.4435 113.747 92.4435 112.916C92.4435 112.085 92.2895 111.441 91.9815 110.984C91.6735 110.517 91.1975 110.284 90.5535 110.284C89.9095 110.284 89.4335 110.517 89.1255 110.984C88.8268 111.441 88.6775 112.085 88.6775 112.916C88.6775 113.747 88.8268 114.395 89.1255 114.862C89.4335 115.329 89.9095 115.562 90.5535 115.562Z" fill="#AEAEAF"/>
<rect x="274" y="96" width="210" height="32" rx="6" stroke="#AEAEAF"/>
<path d="M282.968 107.68H280.35C280.331 107.587 280.317 107.484 280.308 107.372C280.299 107.26 280.294 107.153 280.294 107.05C280.294 106.947 280.299 106.845 280.308 106.742C280.317 106.63 280.331 106.527 280.35 106.434H287.014C287.033 106.527 287.047 106.625 287.056 106.728C287.065 106.831 287.07 106.933 287.07 107.036C287.07 107.139 287.065 107.251 287.056 107.372C287.047 107.484 287.033 107.587 287.014 107.68H284.396V116.5C284.181 116.528 283.948 116.542 283.696 116.542C283.435 116.542 283.192 116.528 282.968 116.5V107.68ZM288.377 113.252C288.395 114.036 288.596 114.61 288.979 114.974C289.371 115.338 289.945 115.52 290.701 115.52C291.363 115.52 291.993 115.403 292.591 115.17C292.665 115.31 292.726 115.483 292.773 115.688C292.819 115.884 292.847 116.08 292.857 116.276C292.549 116.407 292.208 116.505 291.835 116.57C291.471 116.635 291.065 116.668 290.617 116.668C289.963 116.668 289.403 116.579 288.937 116.402C288.47 116.215 288.083 115.959 287.775 115.632C287.476 115.296 287.257 114.904 287.117 114.456C286.977 113.999 286.907 113.499 286.907 112.958C286.907 112.426 286.972 111.931 287.103 111.474C287.243 111.007 287.453 110.606 287.733 110.27C288.013 109.925 288.363 109.654 288.783 109.458C289.212 109.253 289.716 109.15 290.295 109.15C290.789 109.15 291.223 109.234 291.597 109.402C291.97 109.57 292.283 109.803 292.535 110.102C292.787 110.391 292.978 110.741 293.109 111.152C293.239 111.553 293.305 111.992 293.305 112.468C293.305 112.599 293.3 112.739 293.291 112.888C293.281 113.028 293.272 113.149 293.263 113.252H288.377ZM291.933 112.216C291.933 111.955 291.895 111.707 291.821 111.474C291.755 111.231 291.653 111.021 291.513 110.844C291.382 110.667 291.209 110.527 290.995 110.424C290.789 110.312 290.542 110.256 290.253 110.256C289.683 110.256 289.245 110.429 288.937 110.774C288.638 111.119 288.456 111.6 288.391 112.216H291.933ZM295.092 106.238C295.195 106.219 295.307 106.205 295.428 106.196C295.559 106.187 295.675 106.182 295.778 106.182C295.881 106.182 295.993 106.187 296.114 106.196C296.245 106.205 296.361 106.219 296.464 106.238V114.33C296.464 114.591 296.487 114.797 296.534 114.946C296.581 115.095 296.641 115.212 296.716 115.296C296.8 115.371 296.893 115.422 296.996 115.45C297.108 115.469 297.225 115.478 297.346 115.478C297.43 115.478 297.523 115.473 297.626 115.464C297.738 115.455 297.831 115.441 297.906 115.422C297.99 115.749 298.032 116.103 298.032 116.486C297.901 116.533 297.743 116.561 297.556 116.57C297.369 116.589 297.197 116.598 297.038 116.598C296.767 116.598 296.515 116.565 296.282 116.5C296.049 116.435 295.843 116.327 295.666 116.178C295.489 116.029 295.349 115.828 295.246 115.576C295.143 115.324 295.092 115.011 295.092 114.638V106.238ZM300.34 113.252C300.359 114.036 300.559 114.61 300.942 114.974C301.334 115.338 301.908 115.52 302.664 115.52C303.327 115.52 303.957 115.403 304.554 115.17C304.629 115.31 304.689 115.483 304.736 115.688C304.783 115.884 304.811 116.08 304.82 116.276C304.512 116.407 304.171 116.505 303.798 116.57C303.434 116.635 303.028 116.668 302.58 116.668C301.927 116.668 301.367 116.579 300.9 116.402C300.433 116.215 300.046 115.959 299.738 115.632C299.439 115.296 299.22 114.904 299.08 114.456C298.94 113.999 298.87 113.499 298.87 112.958C298.87 112.426 298.935 111.931 299.066 111.474C299.206 111.007 299.416 110.606 299.696 110.27C299.976 109.925 300.326 109.654 300.746 109.458C301.175 109.253 301.679 109.15 302.258 109.15C302.753 109.15 303.187 109.234 303.56 109.402C303.933 109.57 304.246 109.803 304.498 110.102C304.75 110.391 304.941 110.741 305.072 111.152C305.203 111.553 305.268 111.992 305.268 112.468C305.268 112.599 305.263 112.739 305.254 112.888C305.245 113.028 305.235 113.149 305.226 113.252H300.34ZM303.896 112.216C303.896 111.955 303.859 111.707 303.784 111.474C303.719 111.231 303.616 111.021 303.476 110.844C303.345 110.667 303.173 110.527 302.958 110.424C302.753 110.312 302.505 110.256 302.216 110.256C301.647 110.256 301.208 110.429 300.9 110.774C300.601 111.119 300.419 111.6 300.354 112.216H303.896ZM302.384 108.184C302.281 108.203 302.169 108.217 302.048 108.226C301.927 108.235 301.791 108.24 301.642 108.24C301.539 108.24 301.432 108.235 301.32 108.226C301.217 108.217 301.11 108.203 300.998 108.184L302.608 106.406C302.748 106.387 302.893 106.373 303.042 106.364C303.191 106.355 303.345 106.35 303.504 106.35C303.672 106.35 303.826 106.355 303.966 106.364C304.106 106.373 304.241 106.387 304.372 106.406L302.384 108.184ZM307.505 110.41H306.329C306.291 110.261 306.273 110.079 306.273 109.864C306.273 109.659 306.291 109.477 306.329 109.318H307.505V108.814C307.505 107.927 307.724 107.255 308.163 106.798C308.611 106.331 309.259 106.098 310.109 106.098C310.342 106.098 310.547 106.112 310.725 106.14C310.902 106.159 311.07 106.191 311.229 106.238C311.21 106.471 311.182 106.672 311.145 106.84C311.117 107.008 311.075 107.181 311.019 107.358C310.925 107.339 310.813 107.321 310.683 107.302C310.561 107.274 310.412 107.26 310.235 107.26C310.029 107.26 309.843 107.283 309.675 107.33C309.516 107.367 309.376 107.447 309.255 107.568C309.143 107.68 309.054 107.843 308.989 108.058C308.923 108.263 308.891 108.529 308.891 108.856V109.318H310.725C310.753 109.505 310.767 109.696 310.767 109.892C310.767 110.069 310.753 110.242 310.725 110.41H308.891V116.5C308.788 116.519 308.671 116.533 308.541 116.542C308.419 116.551 308.307 116.556 308.205 116.556C308.102 116.556 307.985 116.551 307.855 116.542C307.724 116.533 307.607 116.519 307.505 116.5V110.41ZM314.766 116.668C314.206 116.668 313.716 116.575 313.296 116.388C312.876 116.192 312.526 115.926 312.246 115.59C311.966 115.254 311.756 114.857 311.616 114.4C311.486 113.943 311.42 113.448 311.42 112.916C311.42 112.384 311.486 111.889 311.616 111.432C311.756 110.975 311.966 110.578 312.246 110.242C312.526 109.906 312.876 109.64 313.296 109.444C313.716 109.248 314.206 109.15 314.766 109.15C315.326 109.15 315.816 109.248 316.236 109.444C316.656 109.64 317.006 109.906 317.286 110.242C317.566 110.578 317.772 110.975 317.902 111.432C318.042 111.889 318.112 112.384 318.112 112.916C318.112 113.448 318.042 113.943 317.902 114.4C317.772 114.857 317.566 115.254 317.286 115.59C317.006 115.926 316.656 116.192 316.236 116.388C315.816 116.575 315.326 116.668 314.766 116.668ZM314.766 115.562C315.41 115.562 315.886 115.329 316.194 114.862C316.502 114.395 316.656 113.747 316.656 112.916C316.656 112.085 316.502 111.441 316.194 110.984C315.886 110.517 315.41 110.284 314.766 110.284C314.122 110.284 313.646 110.517 313.338 110.984C313.04 111.441 312.89 112.085 312.89 112.916C312.89 113.747 313.04 114.395 313.338 114.862C313.646 115.329 314.122 115.562 314.766 115.562ZM319.934 109.318C320.037 109.299 320.135 109.285 320.228 109.276C320.331 109.267 320.434 109.262 320.536 109.262C320.639 109.262 320.732 109.267 320.816 109.276C320.91 109.285 321.008 109.299 321.11 109.318C321.138 109.458 321.166 109.649 321.194 109.892C321.222 110.125 321.236 110.321 321.236 110.48C321.33 110.321 321.446 110.163 321.586 110.004C321.736 109.845 321.904 109.705 322.09 109.584C322.277 109.453 322.492 109.351 322.734 109.276C322.977 109.192 323.243 109.15 323.532 109.15C324.354 109.15 324.96 109.388 325.352 109.864C325.744 110.331 325.94 111.026 325.94 111.95V116.5C325.838 116.519 325.721 116.533 325.59 116.542C325.46 116.551 325.343 116.556 325.24 116.556C325.138 116.556 325.021 116.551 324.89 116.542C324.769 116.533 324.657 116.519 324.554 116.5V112.328C324.554 111.665 324.452 111.18 324.246 110.872C324.041 110.555 323.714 110.396 323.266 110.396C323.005 110.396 322.758 110.443 322.524 110.536C322.291 110.629 322.086 110.774 321.908 110.97C321.731 111.166 321.586 111.423 321.474 111.74C321.372 112.048 321.32 112.421 321.32 112.86V116.5C321.218 116.519 321.101 116.533 320.97 116.542C320.849 116.551 320.737 116.556 320.634 116.556C320.532 116.556 320.415 116.551 320.284 116.542C320.154 116.533 320.037 116.519 319.934 116.5V109.318ZM330.94 116.668C330.38 116.668 329.89 116.575 329.47 116.388C329.05 116.192 328.7 115.926 328.42 115.59C328.14 115.254 327.93 114.857 327.79 114.4C327.66 113.943 327.594 113.448 327.594 112.916C327.594 112.384 327.66 111.889 327.79 111.432C327.93 110.975 328.14 110.578 328.42 110.242C328.7 109.906 329.05 109.64 329.47 109.444C329.89 109.248 330.38 109.15 330.94 109.15C331.5 109.15 331.99 109.248 332.41 109.444C332.83 109.64 333.18 109.906 333.46 110.242C333.74 110.578 333.946 110.975 334.076 111.432C334.216 111.889 334.286 112.384 334.286 112.916C334.286 113.448 334.216 113.943 334.076 114.4C333.946 114.857 333.74 115.254 333.46 115.59C333.18 115.926 332.83 116.192 332.41 116.388C331.99 116.575 331.5 116.668 330.94 116.668ZM330.94 115.562C331.584 115.562 332.06 115.329 332.368 114.862C332.676 114.395 332.83 113.747 332.83 112.916C332.83 112.085 332.676 111.441 332.368 110.984C332.06 110.517 331.584 110.284 330.94 110.284C330.296 110.284 329.82 110.517 329.512 110.984C329.214 111.441 329.064 112.085 329.064 112.916C329.064 113.747 329.214 114.395 329.512 114.862C329.82 115.329 330.296 115.562 330.94 115.562Z" fill="#AEAEAF"/>
<rect x="46" y="146" width="438" height="32" rx="6" stroke="#AEAEAF"/>
<path d="M52.91 166.5C52.8913 166.369 52.8727 166.243 52.854 166.122C52.8447 165.991 52.84 165.861 52.84 165.73C52.84 165.599 52.8447 165.469 52.854 165.338C52.8727 165.198 52.8913 165.063 52.91 164.932C53.0407 164.913 53.1667 164.899 53.288 164.89C53.4187 164.881 53.5493 164.876 53.68 164.876C53.8107 164.876 53.9413 164.881 54.072 164.89C54.2027 164.899 54.3333 164.913 54.464 164.932C54.4827 165.063 54.4967 165.193 54.506 165.324C54.5247 165.455 54.534 165.585 54.534 165.716C54.534 165.847 54.5247 165.977 54.506 166.108C54.4967 166.239 54.4827 166.369 54.464 166.5C54.3333 166.519 54.2027 166.533 54.072 166.542C53.9507 166.551 53.8247 166.556 53.694 166.556C53.5633 166.556 53.4327 166.551 53.302 166.542C53.1713 166.533 53.0407 166.519 52.91 166.5ZM56.287 166.5C56.2683 166.369 56.2496 166.243 56.231 166.122C56.2216 165.991 56.217 165.861 56.217 165.73C56.217 165.599 56.2216 165.469 56.231 165.338C56.2496 165.198 56.2683 165.063 56.287 164.932C56.4176 164.913 56.5436 164.899 56.665 164.89C56.7956 164.881 56.9263 164.876 57.057 164.876C57.1876 164.876 57.3183 164.881 57.449 164.89C57.5796 164.899 57.7103 164.913 57.841 164.932C57.8596 165.063 57.8736 165.193 57.883 165.324C57.9016 165.455 57.911 165.585 57.911 165.716C57.911 165.847 57.9016 165.977 57.883 166.108C57.8736 166.239 57.8596 166.369 57.841 166.5C57.7103 166.519 57.5796 166.533 57.449 166.542C57.3276 166.551 57.2016 166.556 57.071 166.556C56.9403 166.556 56.8096 166.551 56.679 166.542C56.5483 166.533 56.4176 166.519 56.287 166.5ZM59.6639 166.5C59.6452 166.369 59.6266 166.243 59.6079 166.122C59.5986 165.991 59.5939 165.861 59.5939 165.73C59.5939 165.599 59.5986 165.469 59.6079 165.338C59.6266 165.198 59.6452 165.063 59.6639 164.932C59.7946 164.913 59.9206 164.899 60.0419 164.89C60.1726 164.881 60.3032 164.876 60.4339 164.876C60.5646 164.876 60.6952 164.881 60.8259 164.89C60.9566 164.899 61.0872 164.913 61.2179 164.932C61.2366 165.063 61.2506 165.193 61.2599 165.324C61.2786 165.455 61.2879 165.585 61.2879 165.716C61.2879 165.847 61.2786 165.977 61.2599 166.108C61.2506 166.239 61.2366 166.369 61.2179 166.5C61.0872 166.519 60.9566 166.533 60.8259 166.542C60.7046 166.551 60.5786 166.556 60.4479 166.556C60.3172 166.556 60.1866 166.551 60.0559 166.542C59.9252 166.533 59.7946 166.519 59.6639 166.5Z" fill="#AEAEAF"/>
<rect x="188.5" y="206" width="153" height="33" rx="8" fill="#0B2C4C"/>
<path d="M247.165 217.153H252.469C252.521 217.413 252.547 217.677 252.547 217.946C252.547 218.232 252.521 218.505 252.469 218.765H249.063V220.793H251.767C251.819 221.07 251.845 221.339 251.845 221.599C251.845 221.876 251.819 222.149 251.767 222.418H249.063V224.888H252.56C252.612 225.148 252.638 225.412 252.638 225.681C252.638 225.967 252.612 226.24 252.56 226.5H247.165V217.153ZM254.072 219.779C254.193 219.753 254.314 219.736 254.436 219.727C254.557 219.71 254.691 219.701 254.839 219.701C254.986 219.701 255.116 219.71 255.229 219.727C255.341 219.736 255.458 219.753 255.58 219.779C255.606 219.822 255.627 219.887 255.645 219.974C255.671 220.052 255.692 220.139 255.71 220.234C255.727 220.321 255.74 220.407 255.749 220.494C255.766 220.581 255.779 220.654 255.788 220.715C255.874 220.585 255.978 220.455 256.1 220.325C256.221 220.195 256.36 220.078 256.516 219.974C256.68 219.87 256.862 219.788 257.062 219.727C257.261 219.658 257.482 219.623 257.725 219.623C258.487 219.623 259.059 219.831 259.441 220.247C259.831 220.663 260.026 221.317 260.026 222.21V226.5C259.714 226.552 259.406 226.578 259.103 226.578C258.799 226.578 258.492 226.552 258.18 226.5V222.704C258.18 222.236 258.106 221.876 257.959 221.625C257.82 221.374 257.573 221.248 257.218 221.248C257.07 221.248 256.919 221.27 256.763 221.313C256.607 221.356 256.464 221.443 256.334 221.573C256.212 221.694 256.113 221.868 256.035 222.093C255.957 222.318 255.918 222.613 255.918 222.977V226.5C255.606 226.552 255.298 226.578 254.995 226.578C254.691 226.578 254.384 226.552 254.072 226.5V219.779ZM260.73 219.792C260.938 219.749 261.128 219.723 261.302 219.714C261.484 219.705 261.64 219.701 261.77 219.701C261.943 219.701 262.116 219.705 262.29 219.714C262.463 219.723 262.623 219.744 262.771 219.779L264.24 224.784L265.683 219.779C265.83 219.753 265.986 219.736 266.151 219.727C266.315 219.71 266.48 219.701 266.645 219.701C266.775 219.701 266.922 219.705 267.087 219.714C267.26 219.723 267.455 219.749 267.672 219.792L265.124 226.5C264.959 226.526 264.786 226.543 264.604 226.552C264.422 226.561 264.27 226.565 264.149 226.565C264.019 226.565 263.871 226.561 263.707 226.552C263.542 226.543 263.386 226.522 263.239 226.487L260.73 219.792ZM269.01 221.183H268.139C268.113 221.07 268.091 220.953 268.074 220.832C268.065 220.702 268.061 220.581 268.061 220.468C268.061 220.234 268.087 220.004 268.139 219.779H270.817V226.5C270.505 226.552 270.202 226.578 269.907 226.578C269.621 226.578 269.322 226.552 269.01 226.5V221.183ZM268.737 218.648C268.685 218.353 268.659 218.063 268.659 217.777C268.659 217.5 268.685 217.209 268.737 216.906C268.884 216.88 269.04 216.863 269.205 216.854C269.378 216.837 269.534 216.828 269.673 216.828C269.82 216.828 269.981 216.837 270.154 216.854C270.327 216.863 270.488 216.88 270.635 216.906C270.661 217.053 270.678 217.201 270.687 217.348C270.696 217.487 270.7 217.63 270.7 217.777C270.7 217.916 270.696 218.059 270.687 218.206C270.678 218.353 270.661 218.501 270.635 218.648C270.488 218.674 270.327 218.691 270.154 218.7C269.989 218.709 269.833 218.713 269.686 218.713C269.547 218.713 269.391 218.709 269.218 218.7C269.045 218.691 268.884 218.674 268.737 218.648ZM275.986 223.419C275.882 223.402 275.77 223.389 275.648 223.38C275.527 223.363 275.419 223.354 275.323 223.354C274.899 223.354 274.561 223.432 274.309 223.588C274.067 223.735 273.945 223.978 273.945 224.316C273.945 224.541 273.993 224.715 274.088 224.836C274.184 224.957 274.296 225.048 274.426 225.109C274.565 225.161 274.708 225.196 274.855 225.213C275.011 225.222 275.146 225.226 275.258 225.226C275.388 225.226 275.518 225.217 275.648 225.2C275.778 225.174 275.891 225.152 275.986 225.135V223.419ZM275.986 222.08C275.986 221.872 275.952 221.703 275.882 221.573C275.813 221.443 275.718 221.343 275.596 221.274C275.475 221.196 275.323 221.144 275.141 221.118C274.968 221.092 274.773 221.079 274.556 221.079C274.088 221.079 273.59 221.17 273.061 221.352C272.94 221.127 272.849 220.914 272.788 220.715C272.728 220.516 272.697 220.277 272.697 220C273.079 219.87 273.46 219.775 273.841 219.714C274.223 219.653 274.578 219.623 274.907 219.623C275.809 219.623 276.511 219.84 277.013 220.273C277.525 220.706 277.78 221.4 277.78 222.353V226.253C277.477 226.348 277.109 226.439 276.675 226.526C276.242 226.613 275.752 226.656 275.206 226.656C274.764 226.656 274.357 226.617 273.984 226.539C273.62 226.461 273.304 226.331 273.035 226.149C272.775 225.967 272.572 225.733 272.424 225.447C272.286 225.161 272.216 224.81 272.216 224.394C272.216 223.978 272.303 223.631 272.476 223.354C272.658 223.068 272.888 222.843 273.165 222.678C273.451 222.505 273.768 222.383 274.114 222.314C274.461 222.236 274.808 222.197 275.154 222.197C275.406 222.197 275.683 222.21 275.986 222.236V222.08ZM279.424 219.779C279.554 219.753 279.675 219.736 279.788 219.727C279.909 219.71 280.039 219.701 280.178 219.701C280.308 219.701 280.434 219.71 280.555 219.727C280.685 219.744 280.811 219.766 280.932 219.792C280.958 219.835 280.98 219.9 280.997 219.987C281.023 220.065 281.045 220.152 281.062 220.247C281.079 220.334 281.092 220.425 281.101 220.52C281.118 220.607 281.131 220.68 281.14 220.741C281.331 220.472 281.565 220.234 281.842 220.026C282.119 219.809 282.466 219.701 282.882 219.701C282.969 219.701 283.068 219.705 283.181 219.714C283.294 219.723 283.376 219.736 283.428 219.753C283.445 219.84 283.458 219.939 283.467 220.052C283.476 220.165 283.48 220.282 283.48 220.403C283.48 220.55 283.471 220.711 283.454 220.884C283.445 221.057 283.424 221.222 283.389 221.378C283.294 221.361 283.185 221.352 283.064 221.352C282.951 221.352 282.882 221.352 282.856 221.352C282.709 221.352 282.544 221.369 282.362 221.404C282.18 221.43 282.007 221.508 281.842 221.638C281.677 221.768 281.539 221.963 281.426 222.223C281.322 222.483 281.27 222.847 281.27 223.315V226.513C281.114 226.539 280.958 226.556 280.802 226.565C280.646 226.574 280.494 226.578 280.347 226.578C280.2 226.578 280.048 226.574 279.892 226.565C279.745 226.556 279.589 226.539 279.424 226.513V219.779Z" fill="white"/>
</svg>
