<svg width="500" height="99" viewBox="0 0 500 99" fill="none" xmlns="http://www.w3.org/2000/svg">
<rect width="500" height="99" fill="white"/>
<path d="M28 30C28 28.8954 28.8954 28 30 28H313V71H30C28.8954 71 28 70.1046 28 69V30Z" stroke="#AEAEAF"/>
<path d="M36.968 44.434C37.108 44.406 37.248 44.392 37.388 44.392C37.528 44.392 37.6773 44.406 37.836 44.434L37.948 46.254C37.8453 46.2727 37.7473 46.2867 37.654 46.296C37.57 46.296 37.4813 46.296 37.388 46.296C37.2947 46.296 37.2013 46.296 37.108 46.296C37.024 46.2867 36.94 46.2727 36.856 46.254L36.968 44.434ZM36.562 46.436C36.506 46.8093 36.3987 47.1547 36.24 47.472L34.532 46.8C34.5693 46.5107 34.6627 46.2353 34.812 45.974L36.562 46.436ZM36.352 47.766C36.5013 47.8407 36.6507 47.934 36.8 48.046C36.9493 48.1487 37.094 48.2653 37.234 48.396L36.072 49.81C35.9413 49.7353 35.8153 49.6607 35.694 49.586C35.582 49.502 35.4747 49.404 35.372 49.292L36.352 47.766ZM39.978 45.974C40.1273 46.2353 40.2207 46.5107 40.258 46.8L38.55 47.472C38.3913 47.1547 38.284 46.8093 38.228 46.436L39.978 45.974ZM39.418 49.292C39.3153 49.404 39.2033 49.502 39.082 49.586C38.97 49.6607 38.8487 49.7353 38.718 49.81L37.556 48.396C37.696 48.2653 37.8407 48.1487 37.99 48.046C38.1393 47.934 38.2887 47.8407 38.438 47.766L39.418 49.292ZM43.7629 45.68H41.1449C41.1263 45.5867 41.1123 45.484 41.1029 45.372C41.0936 45.26 41.0889 45.1527 41.0889 45.05C41.0889 44.9473 41.0936 44.8447 41.1029 44.742C41.1123 44.63 41.1263 44.5273 41.1449 44.434H47.8089C47.8276 44.5273 47.8416 44.6253 47.8509 44.728C47.8603 44.8307 47.8649 44.9333 47.8649 45.036C47.8649 45.1387 47.8603 45.2507 47.8509 45.372C47.8416 45.484 47.8276 45.5867 47.8089 45.68H45.1909V54.5C44.9763 54.528 44.7429 54.542 44.4909 54.542C44.2296 54.542 43.9869 54.528 43.7629 54.5V45.68ZM48.243 47.318C48.3457 47.2993 48.4624 47.2853 48.593 47.276C48.7237 47.2667 48.8357 47.262 48.929 47.262C49.0317 47.262 49.1484 47.2667 49.279 47.276C49.4097 47.2853 49.5264 47.2993 49.629 47.318V51.252C49.629 51.7 49.671 52.0733 49.755 52.372C49.839 52.6613 49.965 52.89 50.133 53.058C50.301 53.226 50.5064 53.3427 50.749 53.408C50.9917 53.4733 51.2717 53.506 51.589 53.506C52.065 53.506 52.471 53.4547 52.807 53.352V47.318C52.9097 47.2993 53.0217 47.2853 53.143 47.276C53.2737 47.2667 53.3904 47.262 53.493 47.262C53.5957 47.262 53.7077 47.2667 53.829 47.276C53.9597 47.2853 54.0764 47.2993 54.179 47.318V54.276C53.8524 54.3693 53.4604 54.458 53.003 54.542C52.555 54.626 52.0884 54.668 51.603 54.668C51.1457 54.668 50.7117 54.626 50.301 54.542C49.8997 54.4673 49.545 54.3087 49.237 54.066C48.929 53.8233 48.6864 53.4827 48.509 53.044C48.3317 52.6053 48.243 52.0267 48.243 51.308V47.318ZM64.4764 53.254C64.551 53.3847 64.6164 53.548 64.6724 53.744C64.7284 53.94 64.761 54.1407 64.7704 54.346C64.2197 54.5607 63.5897 54.668 62.8804 54.668C61.6857 54.668 60.785 54.332 60.1784 53.66C59.5717 52.9787 59.2684 52.064 59.2684 50.916C59.2684 50.384 59.343 49.8893 59.4924 49.432C59.6417 48.9747 59.861 48.578 60.1504 48.242C60.449 47.906 60.8177 47.64 61.2564 47.444C61.695 47.248 62.2037 47.15 62.7824 47.15C63.1744 47.15 63.5197 47.1733 63.8184 47.22C64.117 47.2667 64.4017 47.3413 64.6724 47.444C64.6724 47.6027 64.649 47.7893 64.6024 48.004C64.565 48.2093 64.509 48.3913 64.4344 48.55C63.977 48.3913 63.4544 48.312 62.8664 48.312C62.1477 48.312 61.611 48.55 61.2564 49.026C60.9017 49.502 60.7244 50.132 60.7244 50.916C60.7244 51.812 60.925 52.47 61.3264 52.89C61.7277 53.3007 62.2784 53.506 62.9784 53.506C63.2584 53.506 63.515 53.4873 63.7484 53.45C63.991 53.4127 64.2337 53.3473 64.4764 53.254ZM69.0808 54.668C68.5208 54.668 68.0308 54.5747 67.6108 54.388C67.1908 54.192 66.8408 53.926 66.5608 53.59C66.2808 53.254 66.0708 52.8573 65.9308 52.4C65.8002 51.9427 65.7348 51.448 65.7348 50.916C65.7348 50.384 65.8002 49.8893 65.9308 49.432C66.0708 48.9747 66.2808 48.578 66.5608 48.242C66.8408 47.906 67.1908 47.64 67.6108 47.444C68.0308 47.248 68.5208 47.15 69.0808 47.15C69.6408 47.15 70.1308 47.248 70.5508 47.444C70.9708 47.64 71.3208 47.906 71.6008 48.242C71.8808 48.578 72.0862 48.9747 72.2168 49.432C72.3568 49.8893 72.4268 50.384 72.4268 50.916C72.4268 51.448 72.3568 51.9427 72.2168 52.4C72.0862 52.8573 71.8808 53.254 71.6008 53.59C71.3208 53.926 70.9708 54.192 70.5508 54.388C70.1308 54.5747 69.6408 54.668 69.0808 54.668ZM69.0808 53.562C69.7248 53.562 70.2008 53.3287 70.5088 52.862C70.8168 52.3953 70.9708 51.7467 70.9708 50.916C70.9708 50.0853 70.8168 49.4413 70.5088 48.984C70.2008 48.5173 69.7248 48.284 69.0808 48.284C68.4368 48.284 67.9608 48.5173 67.6528 48.984C67.3542 49.4413 67.2048 50.0853 67.2048 50.916C67.2048 51.7467 67.3542 52.3953 67.6528 52.862C67.9608 53.3287 68.4368 53.562 69.0808 53.562ZM74.2489 47.318C74.3516 47.2993 74.4496 47.2853 74.5429 47.276C74.6362 47.2667 74.7342 47.262 74.8369 47.262C74.9396 47.262 75.0422 47.2667 75.1449 47.276C75.2476 47.2853 75.3409 47.2993 75.4249 47.318C75.4529 47.458 75.4809 47.6447 75.5089 47.878C75.5369 48.102 75.5509 48.2933 75.5509 48.452C75.7469 48.1347 76.0036 47.8593 76.3209 47.626C76.6476 47.3927 77.0629 47.276 77.5669 47.276C77.6416 47.276 77.7162 47.2807 77.7909 47.29C77.8749 47.29 77.9449 47.2947 78.0009 47.304C78.0196 47.388 78.0336 47.4767 78.0429 47.57C78.0522 47.6633 78.0569 47.7613 78.0569 47.864C78.0569 47.976 78.0476 48.0927 78.0289 48.214C78.0196 48.3353 78.0056 48.452 77.9869 48.564C77.9122 48.5453 77.8329 48.536 77.7489 48.536C77.6742 48.536 77.6136 48.536 77.5669 48.536C77.3149 48.536 77.0722 48.5733 76.8389 48.648C76.6149 48.7133 76.4096 48.8347 76.2229 49.012C76.0456 49.1893 75.9009 49.432 75.7889 49.74C75.6862 50.048 75.6349 50.4447 75.6349 50.93V54.5C75.5322 54.5187 75.4156 54.5327 75.2849 54.542C75.1636 54.5513 75.0516 54.556 74.9489 54.556C74.8462 54.556 74.7296 54.5513 74.5989 54.542C74.4776 54.5327 74.3609 54.5187 74.2489 54.5V47.318ZM79.4579 47.318C79.5606 47.2993 79.6586 47.2853 79.7519 47.276C79.8452 47.2667 79.9432 47.262 80.0459 47.262C80.1486 47.262 80.2512 47.2667 80.3539 47.276C80.4566 47.2853 80.5499 47.2993 80.6339 47.318C80.6619 47.458 80.6899 47.6447 80.7179 47.878C80.7459 48.102 80.7599 48.2933 80.7599 48.452C80.9559 48.1347 81.2126 47.8593 81.5299 47.626C81.8566 47.3927 82.2719 47.276 82.7759 47.276C82.8506 47.276 82.9252 47.2807 82.9999 47.29C83.0839 47.29 83.1539 47.2947 83.2099 47.304C83.2286 47.388 83.2426 47.4767 83.2519 47.57C83.2612 47.6633 83.2659 47.7613 83.2659 47.864C83.2659 47.976 83.2566 48.0927 83.2379 48.214C83.2286 48.3353 83.2146 48.452 83.1959 48.564C83.1212 48.5453 83.0419 48.536 82.9579 48.536C82.8832 48.536 82.8226 48.536 82.7759 48.536C82.5239 48.536 82.2812 48.5733 82.0479 48.648C81.8239 48.7133 81.6186 48.8347 81.4319 49.012C81.2546 49.1893 81.1099 49.432 80.9979 49.74C80.8952 50.048 80.8439 50.4447 80.8439 50.93V54.5C80.7412 54.5187 80.6246 54.5327 80.4939 54.542C80.3726 54.5513 80.2606 54.556 80.1579 54.556C80.0552 54.556 79.9386 54.5513 79.8079 54.542C79.6866 54.5327 79.5699 54.5187 79.4579 54.5V47.318ZM85.4978 51.252C85.5165 52.036 85.7171 52.61 86.0998 52.974C86.4918 53.338 87.0658 53.52 87.8218 53.52C88.4845 53.52 89.1145 53.4033 89.7118 53.17C89.7865 53.31 89.8471 53.4827 89.8938 53.688C89.9405 53.884 89.9685 54.08 89.9778 54.276C89.6698 54.4067 89.3291 54.5047 88.9558 54.57C88.5918 54.6353 88.1858 54.668 87.7378 54.668C87.0845 54.668 86.5245 54.5793 86.0578 54.402C85.5911 54.2153 85.2038 53.9587 84.8958 53.632C84.5971 53.296 84.3778 52.904 84.2378 52.456C84.0978 51.9987 84.0278 51.4993 84.0278 50.958C84.0278 50.426 84.0931 49.9313 84.2238 49.474C84.3638 49.0073 84.5738 48.606 84.8538 48.27C85.1338 47.9247 85.4838 47.654 85.9038 47.458C86.3331 47.2527 86.8371 47.15 87.4158 47.15C87.9105 47.15 88.3445 47.234 88.7178 47.402C89.0911 47.57 89.4038 47.8033 89.6558 48.102C89.9078 48.3913 90.0991 48.7413 90.2298 49.152C90.3605 49.5533 90.4258 49.992 90.4258 50.468C90.4258 50.5987 90.4211 50.7387 90.4118 50.888C90.4025 51.028 90.3931 51.1493 90.3838 51.252H85.4978ZM89.0538 50.216C89.0538 49.9547 89.0165 49.7073 88.9418 49.474C88.8765 49.2313 88.7738 49.0213 88.6338 48.844C88.5031 48.6667 88.3305 48.5267 88.1158 48.424C87.9105 48.312 87.6631 48.256 87.3738 48.256C86.8045 48.256 86.3658 48.4287 86.0578 48.774C85.7591 49.1193 85.5771 49.6 85.5118 50.216H89.0538ZM95.1531 54.668C94.5931 54.668 94.1031 54.5747 93.6831 54.388C93.2631 54.192 92.9131 53.926 92.6331 53.59C92.3531 53.254 92.1431 52.8573 92.0031 52.4C91.8724 51.9427 91.8071 51.448 91.8071 50.916C91.8071 50.384 91.8724 49.8893 92.0031 49.432C92.1431 48.9747 92.3531 48.578 92.6331 48.242C92.9131 47.906 93.2631 47.64 93.6831 47.444C94.1031 47.248 94.5931 47.15 95.1531 47.15C95.7131 47.15 96.2031 47.248 96.6231 47.444C97.0431 47.64 97.3931 47.906 97.6731 48.242C97.9531 48.578 98.1584 48.9747 98.2891 49.432C98.4291 49.8893 98.4991 50.384 98.4991 50.916C98.4991 51.448 98.4291 51.9427 98.2891 52.4C98.1584 52.8573 97.9531 53.254 97.6731 53.59C97.3931 53.926 97.0431 54.192 96.6231 54.388C96.2031 54.5747 95.7131 54.668 95.1531 54.668ZM95.1531 53.562C95.7971 53.562 96.2731 53.3287 96.5811 52.862C96.8891 52.3953 97.0431 51.7467 97.0431 50.916C97.0431 50.0853 96.8891 49.4413 96.5811 48.984C96.2731 48.5173 95.7971 48.284 95.1531 48.284C94.5091 48.284 94.0331 48.5173 93.7251 48.984C93.4264 49.4413 93.2771 50.0853 93.2771 50.916C93.2771 51.7467 93.4264 52.3953 93.7251 52.862C94.0331 53.3287 94.5091 53.562 95.1531 53.562Z" fill="#0B2C4C"/>
<path d="M313 28H470C471.105 28 472 28.8954 472 30V69C472 70.1046 471.105 71 470 71H313V28Z" fill="#0B2C4C"/>
<path d="M355.951 52.974C356.259 53.086 356.581 53.184 356.917 53.268C357.253 53.352 357.663 53.394 358.149 53.394C358.914 53.394 359.483 53.24 359.857 52.932C360.239 52.6147 360.431 52.19 360.431 51.658C360.431 51.3967 360.389 51.1727 360.305 50.986C360.23 50.7993 360.113 50.6407 359.955 50.51C359.796 50.37 359.595 50.244 359.353 50.132C359.119 50.02 358.844 49.8987 358.527 49.768L357.729 49.446C357.458 49.334 357.211 49.2127 356.987 49.082C356.763 48.942 356.567 48.774 356.399 48.578C356.24 48.382 356.114 48.158 356.021 47.906C355.927 47.6447 355.881 47.3367 355.881 46.982C355.881 46.1327 356.17 45.47 356.749 44.994C357.327 44.5087 358.139 44.266 359.185 44.266C359.633 44.266 360.057 44.3033 360.459 44.378C360.86 44.4527 361.215 44.546 361.523 44.658C361.476 45.05 361.373 45.4373 361.215 45.82C360.963 45.7267 360.669 45.6427 360.333 45.568C360.006 45.4933 359.633 45.456 359.213 45.456C358.625 45.456 358.172 45.5773 357.855 45.82C357.537 46.0533 357.379 46.408 357.379 46.884C357.379 47.08 357.416 47.2573 357.491 47.416C357.575 47.5653 357.682 47.7007 357.813 47.822C357.943 47.934 358.097 48.0367 358.275 48.13C358.452 48.2233 358.639 48.3073 358.835 48.382L359.619 48.69C359.992 48.8393 360.323 48.998 360.613 49.166C360.902 49.3247 361.149 49.516 361.355 49.74C361.56 49.9547 361.714 50.2113 361.817 50.51C361.929 50.8087 361.985 51.1587 361.985 51.56C361.985 52.5213 361.653 53.282 360.991 53.842C360.328 54.3927 359.399 54.668 358.205 54.668C357.915 54.668 357.654 54.6587 357.421 54.64C357.187 54.6213 356.968 54.5933 356.763 54.556C356.567 54.5187 356.375 54.472 356.189 54.416C356.002 54.36 355.811 54.2993 355.615 54.234C355.633 54.0287 355.675 53.8187 355.741 53.604C355.806 53.3893 355.876 53.1793 355.951 52.974ZM363.636 47.318C363.738 47.2993 363.855 47.2853 363.986 47.276C364.116 47.2667 364.228 47.262 364.322 47.262C364.424 47.262 364.541 47.2667 364.672 47.276C364.802 47.2853 364.919 47.2993 365.022 47.318V51.252C365.022 51.7 365.064 52.0733 365.148 52.372C365.232 52.6613 365.358 52.89 365.526 53.058C365.694 53.226 365.899 53.3427 366.142 53.408C366.384 53.4733 366.664 53.506 366.982 53.506C367.458 53.506 367.864 53.4547 368.2 53.352V47.318C368.302 47.2993 368.414 47.2853 368.536 47.276C368.666 47.2667 368.783 47.262 368.886 47.262C368.988 47.262 369.1 47.2667 369.222 47.276C369.352 47.2853 369.469 47.2993 369.572 47.318V54.276C369.245 54.3693 368.853 54.458 368.396 54.542C367.948 54.626 367.481 54.668 366.996 54.668C366.538 54.668 366.104 54.626 365.694 54.542C365.292 54.4673 364.938 54.3087 364.63 54.066C364.322 53.8233 364.079 53.4827 363.902 53.044C363.724 52.6053 363.636 52.0267 363.636 51.308V47.318ZM371.745 44.238C371.847 44.2193 371.959 44.2053 372.081 44.196C372.211 44.1867 372.328 44.182 372.431 44.182C372.533 44.182 372.65 44.1867 372.781 44.196C372.911 44.2053 373.028 44.2193 373.131 44.238V48.186C373.299 47.906 373.56 47.6633 373.915 47.458C374.269 47.2527 374.699 47.15 375.203 47.15C375.632 47.15 376.029 47.22 376.393 47.36C376.757 47.5 377.069 47.7193 377.331 48.018C377.592 48.3073 377.793 48.6807 377.933 49.138C378.082 49.586 378.157 50.118 378.157 50.734C378.157 51.966 377.807 52.932 377.107 53.632C376.416 54.3227 375.417 54.668 374.111 54.668C373.7 54.668 373.275 54.626 372.837 54.542C372.407 54.4673 372.043 54.3787 371.745 54.276V44.238ZM373.131 53.338C373.299 53.394 373.476 53.436 373.663 53.464C373.859 53.4827 374.059 53.492 374.265 53.492C374.61 53.492 374.927 53.4407 375.217 53.338C375.515 53.226 375.772 53.0627 375.987 52.848C376.201 52.624 376.369 52.344 376.491 52.008C376.621 51.6627 376.687 51.2567 376.687 50.79C376.687 50.0153 376.551 49.4133 376.281 48.984C376.01 48.5547 375.562 48.34 374.937 48.34C374.722 48.34 374.507 48.3773 374.293 48.452C374.087 48.5173 373.896 48.6293 373.719 48.788C373.541 48.9373 373.397 49.1427 373.285 49.404C373.182 49.656 373.131 49.964 373.131 50.328V53.338ZM379.89 53.198C380.142 53.3007 380.418 53.3847 380.716 53.45C381.024 53.506 381.328 53.534 381.626 53.534C381.841 53.534 382.046 53.5107 382.242 53.464C382.438 53.4173 382.606 53.3473 382.746 53.254C382.896 53.1607 383.012 53.0487 383.096 52.918C383.19 52.778 383.236 52.624 383.236 52.456C383.236 52.2693 383.199 52.1153 383.124 51.994C383.059 51.8727 382.966 51.77 382.844 51.686C382.732 51.602 382.597 51.532 382.438 51.476C382.289 51.4107 382.126 51.35 381.948 51.294L381.458 51.112C380.861 50.888 380.427 50.636 380.156 50.356C379.886 50.076 379.75 49.698 379.75 49.222C379.75 48.5873 379.974 48.0833 380.422 47.71C380.88 47.3367 381.547 47.15 382.424 47.15C382.788 47.15 383.143 47.1873 383.488 47.262C383.843 47.3273 384.151 47.4067 384.412 47.5C384.394 47.6867 384.356 47.8733 384.3 48.06C384.254 48.2467 384.193 48.4193 384.118 48.578C383.913 48.5033 383.666 48.4333 383.376 48.368C383.096 48.2933 382.793 48.256 382.466 48.256C382.121 48.256 381.813 48.3167 381.542 48.438C381.281 48.5593 381.15 48.774 381.15 49.082C381.15 49.2407 381.183 49.376 381.248 49.488C381.314 49.6 381.402 49.698 381.514 49.782C381.626 49.8567 381.752 49.922 381.892 49.978C382.042 50.034 382.2 50.09 382.368 50.146L382.984 50.356C383.208 50.4307 383.418 50.5193 383.614 50.622C383.82 50.7247 383.992 50.8553 384.132 51.014C384.282 51.1633 384.398 51.35 384.482 51.574C384.576 51.7887 384.622 52.05 384.622 52.358C384.622 52.7033 384.552 53.0207 384.412 53.31C384.272 53.59 384.072 53.8327 383.81 54.038C383.558 54.234 383.25 54.388 382.886 54.5C382.522 54.612 382.121 54.668 381.682 54.668C381.234 54.668 380.842 54.6353 380.506 54.57C380.17 54.514 379.858 54.4347 379.568 54.332C379.587 54.1453 379.624 53.9587 379.68 53.772C379.746 53.576 379.816 53.3847 379.89 53.198ZM391.176 53.254C391.25 53.3847 391.316 53.548 391.372 53.744C391.428 53.94 391.46 54.1407 391.47 54.346C390.919 54.5607 390.289 54.668 389.58 54.668C388.385 54.668 387.484 54.332 386.878 53.66C386.271 52.9787 385.968 52.064 385.968 50.916C385.968 50.384 386.042 49.8893 386.192 49.432C386.341 48.9747 386.56 48.578 386.85 48.242C387.148 47.906 387.517 47.64 387.956 47.444C388.394 47.248 388.903 47.15 389.482 47.15C389.874 47.15 390.219 47.1733 390.518 47.22C390.816 47.2667 391.101 47.3413 391.372 47.444C391.372 47.6027 391.348 47.7893 391.302 48.004C391.264 48.2093 391.208 48.3913 391.134 48.55C390.676 48.3913 390.154 48.312 389.566 48.312C388.847 48.312 388.31 48.55 387.956 49.026C387.601 49.502 387.424 50.132 387.424 50.916C387.424 51.812 387.624 52.47 388.026 52.89C388.427 53.3007 388.978 53.506 389.678 53.506C389.958 53.506 390.214 53.4873 390.448 53.45C390.69 53.4127 390.933 53.3473 391.176 53.254ZM393.073 47.318C393.176 47.2993 393.274 47.2853 393.367 47.276C393.46 47.2667 393.558 47.262 393.661 47.262C393.764 47.262 393.866 47.2667 393.969 47.276C394.072 47.2853 394.165 47.2993 394.249 47.318C394.277 47.458 394.305 47.6447 394.333 47.878C394.361 48.102 394.375 48.2933 394.375 48.452C394.571 48.1347 394.828 47.8593 395.145 47.626C395.472 47.3927 395.887 47.276 396.391 47.276C396.466 47.276 396.54 47.2807 396.615 47.29C396.699 47.29 396.769 47.2947 396.825 47.304C396.844 47.388 396.858 47.4767 396.867 47.57C396.876 47.6633 396.881 47.7613 396.881 47.864C396.881 47.976 396.872 48.0927 396.853 48.214C396.844 48.3353 396.83 48.452 396.811 48.564C396.736 48.5453 396.657 48.536 396.573 48.536C396.498 48.536 396.438 48.536 396.391 48.536C396.139 48.536 395.896 48.5733 395.663 48.648C395.439 48.7133 395.234 48.8347 395.047 49.012C394.87 49.1893 394.725 49.432 394.613 49.74C394.51 50.048 394.459 50.4447 394.459 50.93V54.5C394.356 54.5187 394.24 54.5327 394.109 54.542C393.988 54.5513 393.876 54.556 393.773 54.556C393.67 54.556 393.554 54.5513 393.423 54.542C393.302 54.5327 393.185 54.5187 393.073 54.5V47.318ZM398.702 48.41H397.792C397.773 48.3353 397.759 48.2513 397.75 48.158C397.741 48.0553 397.736 47.9573 397.736 47.864C397.736 47.7707 397.741 47.6773 397.75 47.584C397.759 47.4813 397.773 47.3927 397.792 47.318H400.06V54.5C399.957 54.5187 399.841 54.5327 399.71 54.542C399.589 54.5513 399.477 54.556 399.374 54.556C399.281 54.556 399.169 54.5513 399.038 54.542C398.917 54.5327 398.805 54.5187 398.702 54.5V48.41ZM398.394 45.736C398.375 45.624 398.361 45.5027 398.352 45.372C398.352 45.2413 398.352 45.1247 398.352 45.022C398.352 44.9193 398.352 44.8027 398.352 44.672C398.361 44.5413 398.375 44.4247 398.394 44.322C398.515 44.3033 398.646 44.2893 398.786 44.28C398.926 44.2707 399.047 44.266 399.15 44.266C399.253 44.266 399.374 44.2707 399.514 44.28C399.654 44.2893 399.78 44.3033 399.892 44.322C399.911 44.4247 399.92 44.5413 399.92 44.672C399.929 44.8027 399.934 44.9193 399.934 45.022C399.934 45.1247 399.929 45.2413 399.92 45.372C399.92 45.5027 399.911 45.624 399.892 45.736C399.78 45.7547 399.654 45.7687 399.514 45.778C399.383 45.7873 399.267 45.792 399.164 45.792C399.052 45.792 398.926 45.7873 398.786 45.778C398.646 45.7687 398.515 45.7547 398.394 45.736ZM402.301 44.238C402.404 44.2193 402.516 44.2053 402.637 44.196C402.768 44.1867 402.885 44.182 402.987 44.182C403.09 44.182 403.207 44.1867 403.337 44.196C403.468 44.2053 403.585 44.2193 403.687 44.238V48.186C403.855 47.906 404.117 47.6633 404.471 47.458C404.826 47.2527 405.255 47.15 405.759 47.15C406.189 47.15 406.585 47.22 406.949 47.36C407.313 47.5 407.626 47.7193 407.887 48.018C408.149 48.3073 408.349 48.6807 408.489 49.138C408.639 49.586 408.713 50.118 408.713 50.734C408.713 51.966 408.363 52.932 407.663 53.632C406.973 54.3227 405.974 54.668 404.667 54.668C404.257 54.668 403.832 54.626 403.393 54.542C402.964 54.4673 402.6 54.3787 402.301 54.276V44.238ZM403.687 53.338C403.855 53.394 404.033 53.436 404.219 53.464C404.415 53.4827 404.616 53.492 404.821 53.492C405.167 53.492 405.484 53.4407 405.773 53.338C406.072 53.226 406.329 53.0627 406.543 52.848C406.758 52.624 406.926 52.344 407.047 52.008C407.178 51.6627 407.243 51.2567 407.243 50.79C407.243 50.0153 407.108 49.4133 406.837 48.984C406.567 48.5547 406.119 48.34 405.493 48.34C405.279 48.34 405.064 48.3773 404.849 48.452C404.644 48.5173 404.453 48.6293 404.275 48.788C404.098 48.9373 403.953 49.1427 403.841 49.404C403.739 49.656 403.687 49.964 403.687 50.328V53.338ZM411.609 51.252C411.628 52.036 411.828 52.61 412.211 52.974C412.603 53.338 413.177 53.52 413.933 53.52C414.596 53.52 415.226 53.4033 415.823 53.17C415.898 53.31 415.958 53.4827 416.005 53.688C416.052 53.884 416.08 54.08 416.089 54.276C415.781 54.4067 415.44 54.5047 415.067 54.57C414.703 54.6353 414.297 54.668 413.849 54.668C413.196 54.668 412.636 54.5793 412.169 54.402C411.702 54.2153 411.315 53.9587 411.007 53.632C410.708 53.296 410.489 52.904 410.349 52.456C410.209 51.9987 410.139 51.4993 410.139 50.958C410.139 50.426 410.204 49.9313 410.335 49.474C410.475 49.0073 410.685 48.606 410.965 48.27C411.245 47.9247 411.595 47.654 412.015 47.458C412.444 47.2527 412.948 47.15 413.527 47.15C414.022 47.15 414.456 47.234 414.829 47.402C415.202 47.57 415.515 47.8033 415.767 48.102C416.019 48.3913 416.21 48.7413 416.341 49.152C416.472 49.5533 416.537 49.992 416.537 50.468C416.537 50.5987 416.532 50.7387 416.523 50.888C416.514 51.028 416.504 51.1493 416.495 51.252H411.609ZM415.165 50.216C415.165 49.9547 415.128 49.7073 415.053 49.474C414.988 49.2313 414.885 49.0213 414.745 48.844C414.614 48.6667 414.442 48.5267 414.227 48.424C414.022 48.312 413.774 48.256 413.485 48.256C412.916 48.256 412.477 48.4287 412.169 48.774C411.87 49.1193 411.688 49.6 411.623 50.216H415.165ZM418.618 48.424H417.526L417.47 48.228L419.878 45.54H419.99V47.318H421.81C421.848 47.4767 421.866 47.654 421.866 47.85C421.866 47.9527 421.862 48.0507 421.852 48.144C421.843 48.2373 421.829 48.3307 421.81 48.424H419.99V51.7C419.99 52.092 420.004 52.4047 420.032 52.638C420.07 52.8713 420.126 53.0533 420.2 53.184C420.284 53.3053 420.392 53.3893 420.522 53.436C420.662 53.4733 420.835 53.492 421.04 53.492C421.199 53.492 421.348 53.4827 421.488 53.464C421.628 53.436 421.754 53.408 421.866 53.38C421.932 53.5667 421.969 53.758 421.978 53.954C421.997 54.15 422.006 54.3227 422.006 54.472C421.82 54.5187 421.624 54.5513 421.418 54.57C421.213 54.598 420.994 54.612 420.76 54.612C420.088 54.612 419.561 54.4487 419.178 54.122C418.805 53.7953 418.618 53.254 418.618 52.498V48.424ZM424.406 51.252C424.425 52.036 424.625 52.61 425.008 52.974C425.4 53.338 425.974 53.52 426.73 53.52C427.393 53.52 428.023 53.4033 428.62 53.17C428.695 53.31 428.755 53.4827 428.802 53.688C428.849 53.884 428.877 54.08 428.886 54.276C428.578 54.4067 428.237 54.5047 427.864 54.57C427.5 54.6353 427.094 54.668 426.646 54.668C425.993 54.668 425.433 54.5793 424.966 54.402C424.499 54.2153 424.112 53.9587 423.804 53.632C423.505 53.296 423.286 52.904 423.146 52.456C423.006 51.9987 422.936 51.4993 422.936 50.958C422.936 50.426 423.001 49.9313 423.132 49.474C423.272 49.0073 423.482 48.606 423.762 48.27C424.042 47.9247 424.392 47.654 424.812 47.458C425.241 47.2527 425.745 47.15 426.324 47.15C426.819 47.15 427.253 47.234 427.626 47.402C427.999 47.57 428.312 47.8033 428.564 48.102C428.816 48.3913 429.007 48.7413 429.138 49.152C429.269 49.5533 429.334 49.992 429.334 50.468C429.334 50.5987 429.329 50.7387 429.32 50.888C429.311 51.028 429.301 51.1493 429.292 51.252H424.406ZM427.962 50.216C427.962 49.9547 427.925 49.7073 427.85 49.474C427.785 49.2313 427.682 49.0213 427.542 48.844C427.411 48.6667 427.239 48.5267 427.024 48.424C426.819 48.312 426.571 48.256 426.282 48.256C425.713 48.256 425.274 48.4287 424.966 48.774C424.667 49.1193 424.485 49.6 424.42 50.216H427.962Z" fill="white"/>
</svg>
