<svg width="597" height="348" viewBox="0 0 597 348" fill="none" xmlns="http://www.w3.org/2000/svg">
<rect width="597" height="348" rx="8" fill="white"/>
<path d="M54.52 52.86H52.372C52.324 52.62 52.3 52.368 52.3 52.104C52.3 51.856 52.324 51.612 52.372 51.372H58.432C58.48 51.612 58.504 51.856 58.504 52.104C58.504 52.368 58.48 52.62 58.432 52.86H56.284V60C56.14 60.016 55.996 60.028 55.852 60.036C55.708 60.052 55.568 60.06 55.432 60.06C55.296 60.06 55.148 60.056 54.988 60.048C54.836 60.04 54.68 60.024 54.52 60V52.86ZM59.9846 55.092H59.1806C59.1566 54.988 59.1366 54.88 59.1206 54.768C59.1126 54.648 59.1086 54.536 59.1086 54.432C59.1086 54.216 59.1326 54.004 59.1806 53.796H61.6526V60C61.3646 60.048 61.0846 60.072 60.8126 60.072C60.5486 60.072 60.2726 60.048 59.9846 60V55.092ZM60.7046 51.372C61.0246 51.324 61.3846 51.3 61.7846 51.3C61.9926 51.3 62.1686 51.308 62.3126 51.324C62.4646 51.332 62.6206 51.348 62.7806 51.372L60.9686 52.848C60.8646 52.864 60.7406 52.88 60.5966 52.896C60.4526 52.912 60.3006 52.92 60.1406 52.92C59.8846 52.92 59.6246 52.896 59.3606 52.848L60.7046 51.372ZM63.4963 55.092H62.7163L62.6563 54.852L64.9003 51.984H65.1763V53.796H66.6283C66.6523 53.916 66.6683 54.024 66.6763 54.12C66.6843 54.216 66.6883 54.316 66.6883 54.42C66.6883 54.532 66.6843 54.64 66.6763 54.744C66.6683 54.848 66.6523 54.964 66.6283 55.092H65.1763V57.528C65.1763 57.776 65.1963 57.976 65.2363 58.128C65.2763 58.28 65.3323 58.4 65.4043 58.488C65.4843 58.576 65.5803 58.636 65.6923 58.668C65.8043 58.7 65.9363 58.716 66.0883 58.716C66.2083 58.716 66.3243 58.708 66.4363 58.692C66.5563 58.668 66.6603 58.648 66.7483 58.632C66.8043 58.784 66.8443 58.944 66.8683 59.112C66.8923 59.272 66.9043 59.416 66.9043 59.544C66.9043 59.632 66.9003 59.708 66.8923 59.772C66.8923 59.828 66.8883 59.884 66.8803 59.94C66.5123 60.028 66.1323 60.072 65.7403 60.072C65.0123 60.072 64.4563 59.904 64.0723 59.568C63.6883 59.224 63.4963 58.668 63.4963 57.9V55.092ZM67.814 53.796C68.102 53.748 68.386 53.724 68.666 53.724C68.946 53.724 69.23 53.748 69.518 53.796V57.084C69.518 57.412 69.542 57.684 69.59 57.9C69.646 58.108 69.726 58.276 69.83 58.404C69.942 58.524 70.078 58.612 70.238 58.668C70.398 58.716 70.586 58.74 70.802 58.74C71.098 58.74 71.346 58.712 71.546 58.656V53.796C71.834 53.748 72.114 53.724 72.386 53.724C72.666 53.724 72.95 53.748 73.238 53.796V59.76C72.982 59.848 72.642 59.932 72.218 60.012C71.802 60.1 71.366 60.144 70.91 60.144C70.502 60.144 70.11 60.112 69.734 60.048C69.358 59.984 69.026 59.848 68.738 59.64C68.458 59.432 68.234 59.128 68.066 58.728C67.898 58.328 67.814 57.796 67.814 57.132V53.796ZM74.7412 51.228C75.0292 51.18 75.3132 51.156 75.5932 51.156C75.8652 51.156 76.1452 51.18 76.4332 51.228V57.528C76.4332 57.776 76.4452 57.976 76.4692 58.128C76.5012 58.28 76.5452 58.4 76.6012 58.488C76.6652 58.568 76.7452 58.624 76.8412 58.656C76.9372 58.688 77.0572 58.704 77.2012 58.704C77.2652 58.704 77.3332 58.7 77.4052 58.692C77.4852 58.684 77.5612 58.672 77.6332 58.656C77.7212 58.984 77.7652 59.304 77.7652 59.616C77.7652 59.68 77.7652 59.74 77.7652 59.796C77.7652 59.844 77.7572 59.9 77.7412 59.964C77.6132 60.004 77.4572 60.032 77.2732 60.048C77.0972 60.064 76.9332 60.072 76.7812 60.072C76.1652 60.072 75.6692 59.904 75.2932 59.568C74.9252 59.224 74.7412 58.668 74.7412 57.9V51.228ZM81.3078 60.144C80.8038 60.144 80.3638 60.064 79.9878 59.904C79.6198 59.736 79.3118 59.508 79.0638 59.22C78.8238 58.924 78.6398 58.58 78.5118 58.188C78.3918 57.796 78.3318 57.372 78.3318 56.916C78.3318 56.46 78.3918 56.032 78.5118 55.632C78.6398 55.232 78.8238 54.888 79.0638 54.6C79.3118 54.304 79.6198 54.072 79.9878 53.904C80.3638 53.736 80.8038 53.652 81.3078 53.652C81.8118 53.652 82.2518 53.736 82.6278 53.904C83.0038 54.072 83.3158 54.304 83.5638 54.6C83.8118 54.888 83.9958 55.232 84.1158 55.632C84.2358 56.032 84.2958 56.46 84.2958 56.916C84.2958 57.372 84.2358 57.796 84.1158 58.188C83.9958 58.58 83.8118 58.924 83.5638 59.22C83.3158 59.508 83.0038 59.736 82.6278 59.904C82.2518 60.064 81.8118 60.144 81.3078 60.144ZM81.3078 58.848C81.7558 58.848 82.0758 58.684 82.2678 58.356C82.4678 58.02 82.5678 57.54 82.5678 56.916C82.5678 56.292 82.4678 55.816 82.2678 55.488C82.0758 55.152 81.7558 54.984 81.3078 54.984C80.8678 54.984 80.5478 55.152 80.3478 55.488C80.1558 55.816 80.0598 56.292 80.0598 56.916C80.0598 57.54 80.1558 58.02 80.3478 58.356C80.5478 58.684 80.8678 58.848 81.3078 58.848Z" fill="#0B2C4C"/>
<rect x="46" y="67" width="240" height="32" rx="6" stroke="#AEAEAF"/>
<path d="M52.91 87.5C52.8913 87.3693 52.8727 87.2433 52.854 87.122C52.8447 86.9913 52.84 86.8607 52.84 86.73C52.84 86.5993 52.8447 86.4687 52.854 86.338C52.8727 86.198 52.8913 86.0627 52.91 85.932C53.0407 85.9133 53.1667 85.8993 53.288 85.89C53.4187 85.8807 53.5493 85.876 53.68 85.876C53.8107 85.876 53.9413 85.8807 54.072 85.89C54.2027 85.8993 54.3333 85.9133 54.464 85.932C54.4827 86.0627 54.4967 86.1933 54.506 86.324C54.5247 86.4547 54.534 86.5853 54.534 86.716C54.534 86.8467 54.5247 86.9773 54.506 87.108C54.4967 87.2387 54.4827 87.3693 54.464 87.5C54.3333 87.5187 54.2027 87.5327 54.072 87.542C53.9507 87.5513 53.8247 87.556 53.694 87.556C53.5633 87.556 53.4327 87.5513 53.302 87.542C53.1713 87.5327 53.0407 87.5187 52.91 87.5ZM56.287 87.5C56.2683 87.3693 56.2496 87.2433 56.231 87.122C56.2216 86.9913 56.217 86.8607 56.217 86.73C56.217 86.5993 56.2216 86.4687 56.231 86.338C56.2496 86.198 56.2683 86.0627 56.287 85.932C56.4176 85.9133 56.5436 85.8993 56.665 85.89C56.7956 85.8807 56.9263 85.876 57.057 85.876C57.1876 85.876 57.3183 85.8807 57.449 85.89C57.5796 85.8993 57.7103 85.9133 57.841 85.932C57.8596 86.0627 57.8736 86.1933 57.883 86.324C57.9016 86.4547 57.911 86.5853 57.911 86.716C57.911 86.8467 57.9016 86.9773 57.883 87.108C57.8736 87.2387 57.8596 87.3693 57.841 87.5C57.7103 87.5187 57.5796 87.5327 57.449 87.542C57.3276 87.5513 57.2016 87.556 57.071 87.556C56.9403 87.556 56.8096 87.5513 56.679 87.542C56.5483 87.5327 56.4176 87.5187 56.287 87.5ZM59.6639 87.5C59.6452 87.3693 59.6266 87.2433 59.6079 87.122C59.5986 86.9913 59.5939 86.8607 59.5939 86.73C59.5939 86.5993 59.5986 86.4687 59.6079 86.338C59.6266 86.198 59.6452 86.0627 59.6639 85.932C59.7946 85.9133 59.9206 85.8993 60.0419 85.89C60.1726 85.8807 60.3032 85.876 60.4339 85.876C60.5646 85.876 60.6952 85.8807 60.8259 85.89C60.9566 85.8993 61.0872 85.9133 61.2179 85.932C61.2366 86.0627 61.2506 86.1933 61.2599 86.324C61.2786 86.4547 61.2879 86.5853 61.2879 86.716C61.2879 86.8467 61.2786 86.9773 61.2599 87.108C61.2506 87.2387 61.2366 87.3693 61.2179 87.5C61.0872 87.5187 60.9566 87.5327 60.8259 87.542C60.7046 87.5513 60.5786 87.556 60.4479 87.556C60.3172 87.556 60.1866 87.5513 60.0559 87.542C59.9252 87.5327 59.7946 87.5187 59.6639 87.5Z" fill="#AEAEAF"/>
<path d="M312.52 52.86H310.372C310.324 52.62 310.3 52.368 310.3 52.104C310.3 51.856 310.324 51.612 310.372 51.372H316.432C316.48 51.612 316.504 51.856 316.504 52.104C316.504 52.368 316.48 52.62 316.432 52.86H314.284V60C314.14 60.016 313.996 60.028 313.852 60.036C313.708 60.052 313.568 60.06 313.432 60.06C313.296 60.06 313.148 60.056 312.988 60.048C312.836 60.04 312.68 60.024 312.52 60V52.86ZM317.985 55.092H317.181C317.157 54.988 317.137 54.88 317.121 54.768C317.113 54.648 317.109 54.536 317.109 54.432C317.109 54.216 317.133 54.004 317.181 53.796H319.653V60C319.365 60.048 319.085 60.072 318.813 60.072C318.549 60.072 318.273 60.048 317.985 60V55.092ZM318.705 51.372C319.025 51.324 319.385 51.3 319.785 51.3C319.993 51.3 320.169 51.308 320.313 51.324C320.465 51.332 320.621 51.348 320.781 51.372L318.969 52.848C318.865 52.864 318.741 52.88 318.597 52.896C318.453 52.912 318.301 52.92 318.141 52.92C317.885 52.92 317.625 52.896 317.361 52.848L318.705 51.372ZM321.496 55.092H320.716L320.656 54.852L322.9 51.984H323.176V53.796H324.628C324.652 53.916 324.668 54.024 324.676 54.12C324.684 54.216 324.688 54.316 324.688 54.42C324.688 54.532 324.684 54.64 324.676 54.744C324.668 54.848 324.652 54.964 324.628 55.092H323.176V57.528C323.176 57.776 323.196 57.976 323.236 58.128C323.276 58.28 323.332 58.4 323.404 58.488C323.484 58.576 323.58 58.636 323.692 58.668C323.804 58.7 323.936 58.716 324.088 58.716C324.208 58.716 324.324 58.708 324.436 58.692C324.556 58.668 324.66 58.648 324.748 58.632C324.804 58.784 324.844 58.944 324.868 59.112C324.892 59.272 324.904 59.416 324.904 59.544C324.904 59.632 324.9 59.708 324.892 59.772C324.892 59.828 324.888 59.884 324.88 59.94C324.512 60.028 324.132 60.072 323.74 60.072C323.012 60.072 322.456 59.904 322.072 59.568C321.688 59.224 321.496 58.668 321.496 57.9V55.092ZM325.814 53.796C326.102 53.748 326.386 53.724 326.666 53.724C326.946 53.724 327.23 53.748 327.518 53.796V57.084C327.518 57.412 327.542 57.684 327.59 57.9C327.646 58.108 327.726 58.276 327.83 58.404C327.942 58.524 328.078 58.612 328.238 58.668C328.398 58.716 328.586 58.74 328.802 58.74C329.098 58.74 329.346 58.712 329.546 58.656V53.796C329.834 53.748 330.114 53.724 330.386 53.724C330.666 53.724 330.95 53.748 331.238 53.796V59.76C330.982 59.848 330.642 59.932 330.218 60.012C329.802 60.1 329.366 60.144 328.91 60.144C328.502 60.144 328.11 60.112 327.734 60.048C327.358 59.984 327.026 59.848 326.738 59.64C326.458 59.432 326.234 59.128 326.066 58.728C325.898 58.328 325.814 57.796 325.814 57.132V53.796ZM332.741 51.228C333.029 51.18 333.313 51.156 333.593 51.156C333.865 51.156 334.145 51.18 334.433 51.228V57.528C334.433 57.776 334.445 57.976 334.469 58.128C334.501 58.28 334.545 58.4 334.601 58.488C334.665 58.568 334.745 58.624 334.841 58.656C334.937 58.688 335.057 58.704 335.201 58.704C335.265 58.704 335.333 58.7 335.405 58.692C335.485 58.684 335.561 58.672 335.633 58.656C335.721 58.984 335.765 59.304 335.765 59.616C335.765 59.68 335.765 59.74 335.765 59.796C335.765 59.844 335.757 59.9 335.741 59.964C335.613 60.004 335.457 60.032 335.273 60.048C335.097 60.064 334.933 60.072 334.781 60.072C334.165 60.072 333.669 59.904 333.293 59.568C332.925 59.224 332.741 58.668 332.741 57.9V51.228ZM339.308 60.144C338.804 60.144 338.364 60.064 337.988 59.904C337.62 59.736 337.312 59.508 337.064 59.22C336.824 58.924 336.64 58.58 336.512 58.188C336.392 57.796 336.332 57.372 336.332 56.916C336.332 56.46 336.392 56.032 336.512 55.632C336.64 55.232 336.824 54.888 337.064 54.6C337.312 54.304 337.62 54.072 337.988 53.904C338.364 53.736 338.804 53.652 339.308 53.652C339.812 53.652 340.252 53.736 340.628 53.904C341.004 54.072 341.316 54.304 341.564 54.6C341.812 54.888 341.996 55.232 342.116 55.632C342.236 56.032 342.296 56.46 342.296 56.916C342.296 57.372 342.236 57.796 342.116 58.188C341.996 58.58 341.812 58.924 341.564 59.22C341.316 59.508 341.004 59.736 340.628 59.904C340.252 60.064 339.812 60.144 339.308 60.144ZM339.308 58.848C339.756 58.848 340.076 58.684 340.268 58.356C340.468 58.02 340.568 57.54 340.568 56.916C340.568 56.292 340.468 55.816 340.268 55.488C340.076 55.152 339.756 54.984 339.308 54.984C338.868 54.984 338.548 55.152 338.348 55.488C338.156 55.816 338.06 56.292 338.06 56.916C338.06 57.54 338.156 58.02 338.348 58.356C338.548 58.684 338.868 58.848 339.308 58.848Z" fill="#0B2C4C"/>
<rect x="304" y="67" width="240" height="32" rx="6" stroke="#AEAEAF"/>
<path d="M310.91 87.5C310.891 87.3693 310.873 87.2433 310.854 87.122C310.845 86.9913 310.84 86.8607 310.84 86.73C310.84 86.5993 310.845 86.4687 310.854 86.338C310.873 86.198 310.891 86.0627 310.91 85.932C311.041 85.9133 311.167 85.8993 311.288 85.89C311.419 85.8807 311.549 85.876 311.68 85.876C311.811 85.876 311.941 85.8807 312.072 85.89C312.203 85.8993 312.333 85.9133 312.464 85.932C312.483 86.0627 312.497 86.1933 312.506 86.324C312.525 86.4547 312.534 86.5853 312.534 86.716C312.534 86.8467 312.525 86.9773 312.506 87.108C312.497 87.2387 312.483 87.3693 312.464 87.5C312.333 87.5187 312.203 87.5327 312.072 87.542C311.951 87.5513 311.825 87.556 311.694 87.556C311.563 87.556 311.433 87.5513 311.302 87.542C311.171 87.5327 311.041 87.5187 310.91 87.5ZM314.287 87.5C314.268 87.3693 314.25 87.2433 314.231 87.122C314.222 86.9913 314.217 86.8607 314.217 86.73C314.217 86.5993 314.222 86.4687 314.231 86.338C314.25 86.198 314.268 86.0627 314.287 85.932C314.418 85.9133 314.544 85.8993 314.665 85.89C314.796 85.8807 314.926 85.876 315.057 85.876C315.188 85.876 315.318 85.8807 315.449 85.89C315.58 85.8993 315.71 85.9133 315.841 85.932C315.86 86.0627 315.874 86.1933 315.883 86.324C315.902 86.4547 315.911 86.5853 315.911 86.716C315.911 86.8467 315.902 86.9773 315.883 87.108C315.874 87.2387 315.86 87.3693 315.841 87.5C315.71 87.5187 315.58 87.5327 315.449 87.542C315.328 87.5513 315.202 87.556 315.071 87.556C314.94 87.556 314.81 87.5513 314.679 87.542C314.548 87.5327 314.418 87.5187 314.287 87.5ZM317.664 87.5C317.645 87.3693 317.627 87.2433 317.608 87.122C317.599 86.9913 317.594 86.8607 317.594 86.73C317.594 86.5993 317.599 86.4687 317.608 86.338C317.627 86.198 317.645 86.0627 317.664 85.932C317.795 85.9133 317.921 85.8993 318.042 85.89C318.173 85.8807 318.303 85.876 318.434 85.876C318.565 85.876 318.695 85.8807 318.826 85.89C318.957 85.8993 319.087 85.9133 319.218 85.932C319.237 86.0627 319.251 86.1933 319.26 86.324C319.279 86.4547 319.288 86.5853 319.288 86.716C319.288 86.8467 319.279 86.9773 319.26 87.108C319.251 87.2387 319.237 87.3693 319.218 87.5C319.087 87.5187 318.957 87.5327 318.826 87.542C318.705 87.5513 318.579 87.556 318.448 87.556C318.317 87.556 318.187 87.5513 318.056 87.542C317.925 87.5327 317.795 87.5187 317.664 87.5Z" fill="#AEAEAF"/>
<path d="M54.52 123.86H52.372C52.324 123.62 52.3 123.368 52.3 123.104C52.3 122.856 52.324 122.612 52.372 122.372H58.432C58.48 122.612 58.504 122.856 58.504 123.104C58.504 123.368 58.48 123.62 58.432 123.86H56.284V131C56.14 131.016 55.996 131.028 55.852 131.036C55.708 131.052 55.568 131.06 55.432 131.06C55.296 131.06 55.148 131.056 54.988 131.048C54.836 131.04 54.68 131.024 54.52 131V123.86ZM59.9846 126.092H59.1806C59.1566 125.988 59.1366 125.88 59.1206 125.768C59.1126 125.648 59.1086 125.536 59.1086 125.432C59.1086 125.216 59.1326 125.004 59.1806 124.796H61.6526V131C61.3646 131.048 61.0846 131.072 60.8126 131.072C60.5486 131.072 60.2726 131.048 59.9846 131V126.092ZM60.7046 122.372C61.0246 122.324 61.3846 122.3 61.7846 122.3C61.9926 122.3 62.1686 122.308 62.3126 122.324C62.4646 122.332 62.6206 122.348 62.7806 122.372L60.9686 123.848C60.8646 123.864 60.7406 123.88 60.5966 123.896C60.4526 123.912 60.3006 123.92 60.1406 123.92C59.8846 123.92 59.6246 123.896 59.3606 123.848L60.7046 122.372ZM63.4963 126.092H62.7163L62.6563 125.852L64.9003 122.984H65.1763V124.796H66.6283C66.6523 124.916 66.6683 125.024 66.6763 125.12C66.6843 125.216 66.6883 125.316 66.6883 125.42C66.6883 125.532 66.6843 125.64 66.6763 125.744C66.6683 125.848 66.6523 125.964 66.6283 126.092H65.1763V128.528C65.1763 128.776 65.1963 128.976 65.2363 129.128C65.2763 129.28 65.3323 129.4 65.4043 129.488C65.4843 129.576 65.5803 129.636 65.6923 129.668C65.8043 129.7 65.9363 129.716 66.0883 129.716C66.2083 129.716 66.3243 129.708 66.4363 129.692C66.5563 129.668 66.6603 129.648 66.7483 129.632C66.8043 129.784 66.8443 129.944 66.8683 130.112C66.8923 130.272 66.9043 130.416 66.9043 130.544C66.9043 130.632 66.9003 130.708 66.8923 130.772C66.8923 130.828 66.8883 130.884 66.8803 130.94C66.5123 131.028 66.1323 131.072 65.7403 131.072C65.0123 131.072 64.4563 130.904 64.0723 130.568C63.6883 130.224 63.4963 129.668 63.4963 128.9V126.092ZM67.814 124.796C68.102 124.748 68.386 124.724 68.666 124.724C68.946 124.724 69.23 124.748 69.518 124.796V128.084C69.518 128.412 69.542 128.684 69.59 128.9C69.646 129.108 69.726 129.276 69.83 129.404C69.942 129.524 70.078 129.612 70.238 129.668C70.398 129.716 70.586 129.74 70.802 129.74C71.098 129.74 71.346 129.712 71.546 129.656V124.796C71.834 124.748 72.114 124.724 72.386 124.724C72.666 124.724 72.95 124.748 73.238 124.796V130.76C72.982 130.848 72.642 130.932 72.218 131.012C71.802 131.1 71.366 131.144 70.91 131.144C70.502 131.144 70.11 131.112 69.734 131.048C69.358 130.984 69.026 130.848 68.738 130.64C68.458 130.432 68.234 130.128 68.066 129.728C67.898 129.328 67.814 128.796 67.814 128.132V124.796ZM74.7412 122.228C75.0292 122.18 75.3132 122.156 75.5932 122.156C75.8652 122.156 76.1452 122.18 76.4332 122.228V128.528C76.4332 128.776 76.4452 128.976 76.4692 129.128C76.5012 129.28 76.5452 129.4 76.6012 129.488C76.6652 129.568 76.7452 129.624 76.8412 129.656C76.9372 129.688 77.0572 129.704 77.2012 129.704C77.2652 129.704 77.3332 129.7 77.4052 129.692C77.4852 129.684 77.5612 129.672 77.6332 129.656C77.7212 129.984 77.7652 130.304 77.7652 130.616C77.7652 130.68 77.7652 130.74 77.7652 130.796C77.7652 130.844 77.7572 130.9 77.7412 130.964C77.6132 131.004 77.4572 131.032 77.2732 131.048C77.0972 131.064 76.9332 131.072 76.7812 131.072C76.1652 131.072 75.6692 130.904 75.2932 130.568C74.9252 130.224 74.7412 129.668 74.7412 128.9V122.228ZM81.3078 131.144C80.8038 131.144 80.3638 131.064 79.9878 130.904C79.6198 130.736 79.3118 130.508 79.0638 130.22C78.8238 129.924 78.6398 129.58 78.5118 129.188C78.3918 128.796 78.3318 128.372 78.3318 127.916C78.3318 127.46 78.3918 127.032 78.5118 126.632C78.6398 126.232 78.8238 125.888 79.0638 125.6C79.3118 125.304 79.6198 125.072 79.9878 124.904C80.3638 124.736 80.8038 124.652 81.3078 124.652C81.8118 124.652 82.2518 124.736 82.6278 124.904C83.0038 125.072 83.3158 125.304 83.5638 125.6C83.8118 125.888 83.9958 126.232 84.1158 126.632C84.2358 127.032 84.2958 127.46 84.2958 127.916C84.2958 128.372 84.2358 128.796 84.1158 129.188C83.9958 129.58 83.8118 129.924 83.5638 130.22C83.3158 130.508 83.0038 130.736 82.6278 130.904C82.2518 131.064 81.8118 131.144 81.3078 131.144ZM81.3078 129.848C81.7558 129.848 82.0758 129.684 82.2678 129.356C82.4678 129.02 82.5678 128.54 82.5678 127.916C82.5678 127.292 82.4678 126.816 82.2678 126.488C82.0758 126.152 81.7558 125.984 81.3078 125.984C80.8678 125.984 80.5478 126.152 80.3478 126.488C80.1558 126.816 80.0598 127.292 80.0598 127.916C80.0598 128.54 80.1558 129.02 80.3478 129.356C80.5478 129.684 80.8678 129.848 81.3078 129.848Z" fill="#0B2C4C"/>
<rect x="46" y="138" width="240" height="32" rx="6" stroke="#AEAEAF"/>
<path d="M52.91 158.5C52.8913 158.369 52.8727 158.243 52.854 158.122C52.8447 157.991 52.84 157.861 52.84 157.73C52.84 157.599 52.8447 157.469 52.854 157.338C52.8727 157.198 52.8913 157.063 52.91 156.932C53.0407 156.913 53.1667 156.899 53.288 156.89C53.4187 156.881 53.5493 156.876 53.68 156.876C53.8107 156.876 53.9413 156.881 54.072 156.89C54.2027 156.899 54.3333 156.913 54.464 156.932C54.4827 157.063 54.4967 157.193 54.506 157.324C54.5247 157.455 54.534 157.585 54.534 157.716C54.534 157.847 54.5247 157.977 54.506 158.108C54.4967 158.239 54.4827 158.369 54.464 158.5C54.3333 158.519 54.2027 158.533 54.072 158.542C53.9507 158.551 53.8247 158.556 53.694 158.556C53.5633 158.556 53.4327 158.551 53.302 158.542C53.1713 158.533 53.0407 158.519 52.91 158.5ZM56.287 158.5C56.2683 158.369 56.2496 158.243 56.231 158.122C56.2216 157.991 56.217 157.861 56.217 157.73C56.217 157.599 56.2216 157.469 56.231 157.338C56.2496 157.198 56.2683 157.063 56.287 156.932C56.4176 156.913 56.5436 156.899 56.665 156.89C56.7956 156.881 56.9263 156.876 57.057 156.876C57.1876 156.876 57.3183 156.881 57.449 156.89C57.5796 156.899 57.7103 156.913 57.841 156.932C57.8596 157.063 57.8736 157.193 57.883 157.324C57.9016 157.455 57.911 157.585 57.911 157.716C57.911 157.847 57.9016 157.977 57.883 158.108C57.8736 158.239 57.8596 158.369 57.841 158.5C57.7103 158.519 57.5796 158.533 57.449 158.542C57.3276 158.551 57.2016 158.556 57.071 158.556C56.9403 158.556 56.8096 158.551 56.679 158.542C56.5483 158.533 56.4176 158.519 56.287 158.5ZM59.6639 158.5C59.6452 158.369 59.6266 158.243 59.6079 158.122C59.5986 157.991 59.5939 157.861 59.5939 157.73C59.5939 157.599 59.5986 157.469 59.6079 157.338C59.6266 157.198 59.6452 157.063 59.6639 156.932C59.7946 156.913 59.9206 156.899 60.0419 156.89C60.1726 156.881 60.3032 156.876 60.4339 156.876C60.5646 156.876 60.6952 156.881 60.8259 156.89C60.9566 156.899 61.0872 156.913 61.2179 156.932C61.2366 157.063 61.2506 157.193 61.2599 157.324C61.2786 157.455 61.2879 157.585 61.2879 157.716C61.2879 157.847 61.2786 157.977 61.2599 158.108C61.2506 158.239 61.2366 158.369 61.2179 158.5C61.0872 158.519 60.9566 158.533 60.8259 158.542C60.7046 158.551 60.5786 158.556 60.4479 158.556C60.3172 158.556 60.1866 158.551 60.0559 158.542C59.9252 158.533 59.7946 158.519 59.6639 158.5Z" fill="#AEAEAF"/>
<path d="M312.52 123.86H310.372C310.324 123.62 310.3 123.368 310.3 123.104C310.3 122.856 310.324 122.612 310.372 122.372H316.432C316.48 122.612 316.504 122.856 316.504 123.104C316.504 123.368 316.48 123.62 316.432 123.86H314.284V131C314.14 131.016 313.996 131.028 313.852 131.036C313.708 131.052 313.568 131.06 313.432 131.06C313.296 131.06 313.148 131.056 312.988 131.048C312.836 131.04 312.68 131.024 312.52 131V123.86ZM317.985 126.092H317.181C317.157 125.988 317.137 125.88 317.121 125.768C317.113 125.648 317.109 125.536 317.109 125.432C317.109 125.216 317.133 125.004 317.181 124.796H319.653V131C319.365 131.048 319.085 131.072 318.813 131.072C318.549 131.072 318.273 131.048 317.985 131V126.092ZM318.705 122.372C319.025 122.324 319.385 122.3 319.785 122.3C319.993 122.3 320.169 122.308 320.313 122.324C320.465 122.332 320.621 122.348 320.781 122.372L318.969 123.848C318.865 123.864 318.741 123.88 318.597 123.896C318.453 123.912 318.301 123.92 318.141 123.92C317.885 123.92 317.625 123.896 317.361 123.848L318.705 122.372ZM321.496 126.092H320.716L320.656 125.852L322.9 122.984H323.176V124.796H324.628C324.652 124.916 324.668 125.024 324.676 125.12C324.684 125.216 324.688 125.316 324.688 125.42C324.688 125.532 324.684 125.64 324.676 125.744C324.668 125.848 324.652 125.964 324.628 126.092H323.176V128.528C323.176 128.776 323.196 128.976 323.236 129.128C323.276 129.28 323.332 129.4 323.404 129.488C323.484 129.576 323.58 129.636 323.692 129.668C323.804 129.7 323.936 129.716 324.088 129.716C324.208 129.716 324.324 129.708 324.436 129.692C324.556 129.668 324.66 129.648 324.748 129.632C324.804 129.784 324.844 129.944 324.868 130.112C324.892 130.272 324.904 130.416 324.904 130.544C324.904 130.632 324.9 130.708 324.892 130.772C324.892 130.828 324.888 130.884 324.88 130.94C324.512 131.028 324.132 131.072 323.74 131.072C323.012 131.072 322.456 130.904 322.072 130.568C321.688 130.224 321.496 129.668 321.496 128.9V126.092ZM325.814 124.796C326.102 124.748 326.386 124.724 326.666 124.724C326.946 124.724 327.23 124.748 327.518 124.796V128.084C327.518 128.412 327.542 128.684 327.59 128.9C327.646 129.108 327.726 129.276 327.83 129.404C327.942 129.524 328.078 129.612 328.238 129.668C328.398 129.716 328.586 129.74 328.802 129.74C329.098 129.74 329.346 129.712 329.546 129.656V124.796C329.834 124.748 330.114 124.724 330.386 124.724C330.666 124.724 330.95 124.748 331.238 124.796V130.76C330.982 130.848 330.642 130.932 330.218 131.012C329.802 131.1 329.366 131.144 328.91 131.144C328.502 131.144 328.11 131.112 327.734 131.048C327.358 130.984 327.026 130.848 326.738 130.64C326.458 130.432 326.234 130.128 326.066 129.728C325.898 129.328 325.814 128.796 325.814 128.132V124.796ZM332.741 122.228C333.029 122.18 333.313 122.156 333.593 122.156C333.865 122.156 334.145 122.18 334.433 122.228V128.528C334.433 128.776 334.445 128.976 334.469 129.128C334.501 129.28 334.545 129.4 334.601 129.488C334.665 129.568 334.745 129.624 334.841 129.656C334.937 129.688 335.057 129.704 335.201 129.704C335.265 129.704 335.333 129.7 335.405 129.692C335.485 129.684 335.561 129.672 335.633 129.656C335.721 129.984 335.765 130.304 335.765 130.616C335.765 130.68 335.765 130.74 335.765 130.796C335.765 130.844 335.757 130.9 335.741 130.964C335.613 131.004 335.457 131.032 335.273 131.048C335.097 131.064 334.933 131.072 334.781 131.072C334.165 131.072 333.669 130.904 333.293 130.568C332.925 130.224 332.741 129.668 332.741 128.9V122.228ZM339.308 131.144C338.804 131.144 338.364 131.064 337.988 130.904C337.62 130.736 337.312 130.508 337.064 130.22C336.824 129.924 336.64 129.58 336.512 129.188C336.392 128.796 336.332 128.372 336.332 127.916C336.332 127.46 336.392 127.032 336.512 126.632C336.64 126.232 336.824 125.888 337.064 125.6C337.312 125.304 337.62 125.072 337.988 124.904C338.364 124.736 338.804 124.652 339.308 124.652C339.812 124.652 340.252 124.736 340.628 124.904C341.004 125.072 341.316 125.304 341.564 125.6C341.812 125.888 341.996 126.232 342.116 126.632C342.236 127.032 342.296 127.46 342.296 127.916C342.296 128.372 342.236 128.796 342.116 129.188C341.996 129.58 341.812 129.924 341.564 130.22C341.316 130.508 341.004 130.736 340.628 130.904C340.252 131.064 339.812 131.144 339.308 131.144ZM339.308 129.848C339.756 129.848 340.076 129.684 340.268 129.356C340.468 129.02 340.568 128.54 340.568 127.916C340.568 127.292 340.468 126.816 340.268 126.488C340.076 126.152 339.756 125.984 339.308 125.984C338.868 125.984 338.548 126.152 338.348 126.488C338.156 126.816 338.06 127.292 338.06 127.916C338.06 128.54 338.156 129.02 338.348 129.356C338.548 129.684 338.868 129.848 339.308 129.848Z" fill="#0B2C4C"/>
<rect x="304" y="138" width="240" height="32" rx="6" stroke="#AEAEAF"/>
<path d="M310.91 158.5C310.891 158.369 310.873 158.243 310.854 158.122C310.845 157.991 310.84 157.861 310.84 157.73C310.84 157.599 310.845 157.469 310.854 157.338C310.873 157.198 310.891 157.063 310.91 156.932C311.041 156.913 311.167 156.899 311.288 156.89C311.419 156.881 311.549 156.876 311.68 156.876C311.811 156.876 311.941 156.881 312.072 156.89C312.203 156.899 312.333 156.913 312.464 156.932C312.483 157.063 312.497 157.193 312.506 157.324C312.525 157.455 312.534 157.585 312.534 157.716C312.534 157.847 312.525 157.977 312.506 158.108C312.497 158.239 312.483 158.369 312.464 158.5C312.333 158.519 312.203 158.533 312.072 158.542C311.951 158.551 311.825 158.556 311.694 158.556C311.563 158.556 311.433 158.551 311.302 158.542C311.171 158.533 311.041 158.519 310.91 158.5ZM314.287 158.5C314.268 158.369 314.25 158.243 314.231 158.122C314.222 157.991 314.217 157.861 314.217 157.73C314.217 157.599 314.222 157.469 314.231 157.338C314.25 157.198 314.268 157.063 314.287 156.932C314.418 156.913 314.544 156.899 314.665 156.89C314.796 156.881 314.926 156.876 315.057 156.876C315.188 156.876 315.318 156.881 315.449 156.89C315.58 156.899 315.71 156.913 315.841 156.932C315.86 157.063 315.874 157.193 315.883 157.324C315.902 157.455 315.911 157.585 315.911 157.716C315.911 157.847 315.902 157.977 315.883 158.108C315.874 158.239 315.86 158.369 315.841 158.5C315.71 158.519 315.58 158.533 315.449 158.542C315.328 158.551 315.202 158.556 315.071 158.556C314.94 158.556 314.81 158.551 314.679 158.542C314.548 158.533 314.418 158.519 314.287 158.5ZM317.664 158.5C317.645 158.369 317.627 158.243 317.608 158.122C317.599 157.991 317.594 157.861 317.594 157.73C317.594 157.599 317.599 157.469 317.608 157.338C317.627 157.198 317.645 157.063 317.664 156.932C317.795 156.913 317.921 156.899 318.042 156.89C318.173 156.881 318.303 156.876 318.434 156.876C318.565 156.876 318.695 156.881 318.826 156.89C318.957 156.899 319.087 156.913 319.218 156.932C319.237 157.063 319.251 157.193 319.26 157.324C319.279 157.455 319.288 157.585 319.288 157.716C319.288 157.847 319.279 157.977 319.26 158.108C319.251 158.239 319.237 158.369 319.218 158.5C319.087 158.519 318.957 158.533 318.826 158.542C318.705 158.551 318.579 158.556 318.448 158.556C318.317 158.556 318.187 158.551 318.056 158.542C317.925 158.533 317.795 158.519 317.664 158.5Z" fill="#AEAEAF"/>
<path d="M52.876 193.372C53.212 193.332 53.564 193.3 53.932 193.276C54.3 193.244 54.708 193.228 55.156 193.228C56.668 193.228 57.816 193.604 58.6 194.356C59.392 195.108 59.788 196.236 59.788 197.74C59.788 199.252 59.388 200.364 58.588 201.076C57.788 201.788 56.6 202.144 55.024 202.144C54.616 202.144 54.24 202.128 53.896 202.096C53.552 202.072 53.212 202.04 52.876 202V193.372ZM54.64 200.608C54.712 200.616 54.804 200.624 54.916 200.632C55.028 200.64 55.164 200.644 55.324 200.644C55.692 200.644 56.032 200.604 56.344 200.524C56.664 200.436 56.94 200.28 57.172 200.056C57.404 199.832 57.588 199.532 57.724 199.156C57.86 198.78 57.928 198.296 57.928 197.704C57.928 197.128 57.86 196.648 57.724 196.264C57.588 195.88 57.404 195.576 57.172 195.352C56.94 195.128 56.672 194.972 56.368 194.884C56.072 194.788 55.756 194.74 55.42 194.74C55.308 194.74 55.176 194.744 55.024 194.752C54.88 194.752 54.752 194.76 54.64 194.776V200.608ZM62.5983 199.42C62.6303 199.9 62.7983 200.248 63.1023 200.464C63.4063 200.68 63.8063 200.788 64.3023 200.788C64.5743 200.788 64.8503 200.764 65.1303 200.716C65.4183 200.66 65.6903 200.584 65.9463 200.488C66.0343 200.648 66.1103 200.84 66.1743 201.064C66.2383 201.288 66.2743 201.528 66.2823 201.784C65.6583 202.024 64.9543 202.144 64.1703 202.144C63.5943 202.144 63.0983 202.064 62.6823 201.904C62.2743 201.744 61.9383 201.524 61.6743 201.244C61.4183 200.956 61.2263 200.616 61.0983 200.224C60.9783 199.832 60.9183 199.404 60.9183 198.94C60.9183 198.484 60.9823 198.056 61.1103 197.656C61.2383 197.256 61.4263 196.908 61.6743 196.612C61.9303 196.316 62.2423 196.084 62.6103 195.916C62.9863 195.74 63.4223 195.652 63.9183 195.652C64.3503 195.652 64.7343 195.728 65.0703 195.88C65.4063 196.032 65.6903 196.24 65.9223 196.504C66.1623 196.768 66.3423 197.084 66.4623 197.452C66.5823 197.812 66.6423 198.2 66.6423 198.616C66.6423 198.768 66.6343 198.92 66.6183 199.072C66.6103 199.216 66.5983 199.332 66.5823 199.42H62.5983ZM65.0343 198.232C65.0183 197.848 64.9103 197.54 64.7103 197.308C64.5183 197.068 64.2463 196.948 63.8943 196.948C63.4943 196.948 63.1903 197.06 62.9823 197.284C62.7743 197.508 62.6503 197.824 62.6103 198.232H65.0343ZM69.1806 199.3C68.7326 199.172 68.3806 198.984 68.1246 198.736C67.8766 198.48 67.7526 198.1 67.7526 197.596C67.7526 196.988 67.9686 196.512 68.4006 196.168C68.8406 195.824 69.4366 195.652 70.1886 195.652C70.5006 195.652 70.8086 195.68 71.1126 195.736C71.4166 195.792 71.7246 195.876 72.0366 195.988C72.0206 196.196 71.9806 196.412 71.9166 196.636C71.8526 196.86 71.7766 197.056 71.6886 197.224C71.4966 197.144 71.2846 197.076 71.0526 197.02C70.8206 196.956 70.5766 196.924 70.3206 196.924C70.0486 196.924 69.8366 196.968 69.6846 197.056C69.5326 197.136 69.4566 197.268 69.4566 197.452C69.4566 197.628 69.5086 197.752 69.6126 197.824C69.7246 197.896 69.8806 197.964 70.0806 198.028L70.7646 198.232C70.9886 198.296 71.1886 198.376 71.3646 198.472C71.5486 198.56 71.7046 198.672 71.8326 198.808C71.9606 198.944 72.0606 199.112 72.1326 199.312C72.2046 199.512 72.2406 199.756 72.2406 200.044C72.2406 200.34 72.1766 200.616 72.0486 200.872C71.9286 201.128 71.7486 201.352 71.5086 201.544C71.2766 201.728 70.9926 201.876 70.6566 201.988C70.3206 202.092 69.9406 202.144 69.5166 202.144C69.3246 202.144 69.1486 202.136 68.9886 202.12C68.8286 202.112 68.6726 202.092 68.5206 202.06C68.3766 202.036 68.2326 202.004 68.0886 201.964C67.9446 201.924 67.7886 201.872 67.6206 201.808C67.6366 201.592 67.6726 201.376 67.7286 201.16C67.7926 200.936 67.8726 200.72 67.9686 200.512C68.2326 200.616 68.4806 200.696 68.7126 200.752C68.9526 200.8 69.2006 200.824 69.4566 200.824C69.5686 200.824 69.6886 200.816 69.8166 200.8C69.9526 200.776 70.0766 200.74 70.1886 200.692C70.3006 200.636 70.3926 200.568 70.4646 200.488C70.5446 200.4 70.5846 200.288 70.5846 200.152C70.5846 199.96 70.5246 199.824 70.4046 199.744C70.2926 199.656 70.1326 199.58 69.9246 199.516L69.1806 199.3ZM77.6642 200.536C77.7602 200.696 77.8402 200.884 77.9042 201.1C77.9682 201.308 78.0002 201.556 78.0002 201.844C77.6802 201.972 77.3802 202.052 77.1002 202.084C76.8202 202.124 76.5282 202.144 76.2242 202.144C75.7042 202.144 75.2522 202.064 74.8682 201.904C74.4842 201.736 74.1642 201.508 73.9082 201.22C73.6602 200.932 73.4722 200.592 73.3442 200.2C73.2162 199.8 73.1522 199.368 73.1522 198.904C73.1522 198.448 73.2122 198.024 73.3322 197.632C73.4602 197.24 73.6482 196.896 73.8962 196.6C74.1522 196.304 74.4682 196.072 74.8442 195.904C75.2202 195.736 75.6562 195.652 76.1522 195.652C76.3282 195.652 76.4882 195.656 76.6322 195.664C76.7842 195.672 76.9282 195.688 77.0642 195.712C77.2002 195.736 77.3362 195.768 77.4722 195.808C77.6082 195.848 77.7602 195.9 77.9282 195.964C77.9282 196.148 77.9042 196.356 77.8562 196.588C77.8082 196.812 77.7322 197.028 77.6282 197.236C77.3882 197.156 77.1762 197.104 76.9922 197.08C76.8162 197.048 76.6122 197.032 76.3802 197.032C75.8842 197.032 75.5082 197.196 75.2522 197.524C75.0042 197.844 74.8802 198.304 74.8802 198.904C74.8802 199.552 75.0162 200.024 75.2882 200.32C75.5602 200.616 75.9282 200.764 76.3922 200.764C76.5122 200.764 76.6202 200.764 76.7162 200.764C76.8202 200.756 76.9202 200.744 77.0162 200.728C77.1122 200.712 77.2082 200.688 77.3042 200.656C77.4082 200.624 77.5282 200.584 77.6642 200.536ZM79.5315 197.092H78.7275C78.7035 196.988 78.6835 196.88 78.6675 196.768C78.6595 196.648 78.6555 196.536 78.6555 196.432C78.6555 196.216 78.6795 196.004 78.7275 195.796H81.1995V202C80.9115 202.048 80.6315 202.072 80.3595 202.072C80.0955 202.072 79.8195 202.048 79.5315 202V197.092ZM79.2795 194.752C79.2315 194.48 79.2075 194.212 79.2075 193.948C79.2075 193.692 79.2315 193.424 79.2795 193.144C79.4155 193.12 79.5595 193.104 79.7115 193.096C79.8715 193.08 80.0155 193.072 80.1435 193.072C80.2795 193.072 80.4275 193.08 80.5875 193.096C80.7475 193.104 80.8955 193.12 81.0315 193.144C81.0555 193.28 81.0715 193.416 81.0795 193.552C81.0875 193.68 81.0915 193.812 81.0915 193.948C81.0915 194.076 81.0875 194.208 81.0795 194.344C81.0715 194.48 81.0555 194.616 81.0315 194.752C80.8955 194.776 80.7475 194.792 80.5875 194.8C80.4355 194.808 80.2915 194.812 80.1555 194.812C80.0275 194.812 79.8835 194.808 79.7235 194.8C79.5635 194.792 79.4155 194.776 79.2795 194.752ZM82.8392 195.784C82.9512 195.76 83.0592 195.744 83.1632 195.736C83.2752 195.728 83.3992 195.724 83.5352 195.724C83.7592 195.724 83.9872 195.748 84.2192 195.796C84.2432 195.836 84.2632 195.896 84.2792 195.976C84.3032 196.048 84.3232 196.128 84.3392 196.216C84.3632 196.304 84.3792 196.392 84.3872 196.48C84.4032 196.56 84.4152 196.628 84.4232 196.684C84.4952 196.556 84.5832 196.432 84.6872 196.312C84.7912 196.184 84.9152 196.072 85.0592 195.976C85.2112 195.88 85.3792 195.804 85.5632 195.748C85.7472 195.684 85.9512 195.652 86.1752 195.652C86.5192 195.652 86.8392 195.716 87.1352 195.844C87.4392 195.972 87.7032 196.168 87.9272 196.432C88.1512 196.688 88.3232 197.012 88.4432 197.404C88.5712 197.796 88.6352 198.26 88.6352 198.796C88.6352 199.316 88.5592 199.784 88.4072 200.2C88.2552 200.608 88.0352 200.956 87.7472 201.244C87.4592 201.532 87.1072 201.756 86.6912 201.916C86.2752 202.068 85.8032 202.144 85.2752 202.144C85.1392 202.144 85.0032 202.136 84.8672 202.12C84.7392 202.112 84.6312 202.1 84.5432 202.084V204.844C84.3912 204.868 84.2432 204.884 84.0992 204.892C83.9632 204.9 83.8272 204.904 83.6912 204.904C83.5552 204.904 83.4152 204.9 83.2712 204.892C83.1352 204.884 82.9912 204.868 82.8392 204.844V195.784ZM84.5432 200.68C84.7592 200.744 85.0072 200.776 85.2872 200.776C85.7832 200.776 86.1632 200.616 86.4272 200.296C86.6912 199.976 86.8232 199.492 86.8232 198.844C86.8232 198.596 86.8032 198.368 86.7632 198.16C86.7232 197.944 86.6552 197.76 86.5592 197.608C86.4632 197.456 86.3392 197.336 86.1872 197.248C86.0432 197.16 85.8632 197.116 85.6472 197.116C85.4472 197.116 85.2752 197.156 85.1312 197.236C84.9952 197.308 84.8832 197.412 84.7952 197.548C84.7072 197.676 84.6432 197.828 84.6032 198.004C84.5632 198.18 84.5432 198.368 84.5432 198.568V200.68ZM94.129 200.536C94.225 200.696 94.305 200.884 94.369 201.1C94.433 201.308 94.465 201.556 94.465 201.844C94.145 201.972 93.845 202.052 93.565 202.084C93.285 202.124 92.993 202.144 92.689 202.144C92.169 202.144 91.717 202.064 91.333 201.904C90.949 201.736 90.629 201.508 90.373 201.22C90.125 200.932 89.937 200.592 89.809 200.2C89.681 199.8 89.617 199.368 89.617 198.904C89.617 198.448 89.677 198.024 89.797 197.632C89.925 197.24 90.113 196.896 90.361 196.6C90.617 196.304 90.933 196.072 91.309 195.904C91.685 195.736 92.121 195.652 92.617 195.652C92.793 195.652 92.953 195.656 93.097 195.664C93.249 195.672 93.393 195.688 93.529 195.712C93.665 195.736 93.801 195.768 93.937 195.808C94.073 195.848 94.225 195.9 94.393 195.964C94.393 196.148 94.369 196.356 94.321 196.588C94.273 196.812 94.197 197.028 94.093 197.236C93.853 197.156 93.641 197.104 93.457 197.08C93.281 197.048 93.077 197.032 92.845 197.032C92.349 197.032 91.973 197.196 91.717 197.524C91.469 197.844 91.345 198.304 91.345 198.904C91.345 199.552 91.481 200.024 91.753 200.32C92.025 200.616 92.393 200.764 92.857 200.764C92.977 200.764 93.085 200.764 93.181 200.764C93.285 200.756 93.385 200.744 93.481 200.728C93.577 200.712 93.673 200.688 93.769 200.656C93.873 200.624 93.993 200.584 94.129 200.536ZM95.9963 197.092H95.1923C95.1683 196.988 95.1483 196.88 95.1323 196.768C95.1243 196.648 95.1203 196.536 95.1203 196.432C95.1203 196.216 95.1443 196.004 95.1923 195.796H97.6643V202C97.3763 202.048 97.0963 202.072 96.8243 202.072C96.5603 202.072 96.2843 202.048 95.9963 202V197.092ZM95.7443 194.752C95.6963 194.48 95.6723 194.212 95.6723 193.948C95.6723 193.692 95.6963 193.424 95.7443 193.144C95.8803 193.12 96.0243 193.104 96.1763 193.096C96.3363 193.08 96.4803 193.072 96.6083 193.072C96.7443 193.072 96.8923 193.08 97.0523 193.096C97.2123 193.104 97.3603 193.12 97.4963 193.144C97.5203 193.28 97.5363 193.416 97.5443 193.552C97.5523 193.68 97.5563 193.812 97.5563 193.948C97.5563 194.076 97.5523 194.208 97.5443 194.344C97.5363 194.48 97.5203 194.616 97.4963 194.752C97.3603 194.776 97.2123 194.792 97.0523 194.8C96.9003 194.808 96.7563 194.812 96.6203 194.812C96.4923 194.812 96.3483 194.808 96.1883 194.8C96.0283 194.792 95.8803 194.776 95.7443 194.752ZM101.968 202.144C101.464 202.144 101.024 202.064 100.648 201.904C100.28 201.736 99.972 201.508 99.724 201.22C99.484 200.924 99.3 200.58 99.172 200.188C99.052 199.796 98.992 199.372 98.992 198.916C98.992 198.46 99.052 198.032 99.172 197.632C99.3 197.232 99.484 196.888 99.724 196.6C99.972 196.304 100.28 196.072 100.648 195.904C101.024 195.736 101.464 195.652 101.968 195.652C102.472 195.652 102.912 195.736 103.288 195.904C103.664 196.072 103.976 196.304 104.224 196.6C104.472 196.888 104.656 197.232 104.776 197.632C104.896 198.032 104.956 198.46 104.956 198.916C104.956 199.372 104.896 199.796 104.776 200.188C104.656 200.58 104.472 200.924 104.224 201.22C103.976 201.508 103.664 201.736 103.288 201.904C102.912 202.064 102.472 202.144 101.968 202.144ZM101.968 200.848C102.416 200.848 102.736 200.684 102.928 200.356C103.128 200.02 103.228 199.54 103.228 198.916C103.228 198.292 103.128 197.816 102.928 197.488C102.736 197.152 102.416 196.984 101.968 196.984C101.528 196.984 101.208 197.152 101.008 197.488C100.816 197.816 100.72 198.292 100.72 198.916C100.72 199.54 100.816 200.02 101.008 200.356C101.208 200.684 101.528 200.848 101.968 200.848ZM102.088 193.372C102.408 193.324 102.768 193.3 103.168 193.3C103.376 193.3 103.552 193.308 103.696 193.324C103.848 193.332 104.004 193.348 104.164 193.372L102.352 194.848C102.248 194.864 102.124 194.88 101.98 194.896C101.836 194.912 101.684 194.92 101.524 194.92C101.268 194.92 101.008 194.896 100.744 194.848L102.088 193.372ZM106.301 195.796C106.413 195.772 106.525 195.756 106.637 195.748C106.749 195.732 106.873 195.724 107.009 195.724C107.145 195.724 107.265 195.732 107.369 195.748C107.473 195.756 107.581 195.772 107.693 195.796C107.717 195.836 107.737 195.896 107.753 195.976C107.777 196.048 107.797 196.128 107.813 196.216C107.829 196.296 107.841 196.376 107.849 196.456C107.865 196.536 107.877 196.604 107.885 196.66C107.965 196.54 108.061 196.42 108.173 196.3C108.285 196.18 108.413 196.072 108.557 195.976C108.709 195.88 108.877 195.804 109.061 195.748C109.245 195.684 109.449 195.652 109.673 195.652C110.377 195.652 110.905 195.844 111.257 196.228C111.617 196.612 111.797 197.216 111.797 198.04V202C111.509 202.048 111.225 202.072 110.945 202.072C110.665 202.072 110.381 202.048 110.093 202V198.496C110.093 198.064 110.025 197.732 109.889 197.5C109.761 197.268 109.533 197.152 109.205 197.152C109.069 197.152 108.929 197.172 108.785 197.212C108.641 197.252 108.509 197.332 108.389 197.452C108.277 197.564 108.185 197.724 108.113 197.932C108.041 198.14 108.005 198.412 108.005 198.748V202C107.717 202.048 107.433 202.072 107.153 202.072C106.873 202.072 106.589 202.048 106.301 202V195.796Z" fill="#0B2C4C"/>
<rect x="46" y="209" width="504" height="32" rx="6" stroke="#AEAEAF"/>
<path d="M52.91 229.5C52.8913 229.369 52.8727 229.243 52.854 229.122C52.8447 228.991 52.84 228.861 52.84 228.73C52.84 228.599 52.8447 228.469 52.854 228.338C52.8727 228.198 52.8913 228.063 52.91 227.932C53.0407 227.913 53.1667 227.899 53.288 227.89C53.4187 227.881 53.5493 227.876 53.68 227.876C53.8107 227.876 53.9413 227.881 54.072 227.89C54.2027 227.899 54.3333 227.913 54.464 227.932C54.4827 228.063 54.4967 228.193 54.506 228.324C54.5247 228.455 54.534 228.585 54.534 228.716C54.534 228.847 54.5247 228.977 54.506 229.108C54.4967 229.239 54.4827 229.369 54.464 229.5C54.3333 229.519 54.2027 229.533 54.072 229.542C53.9507 229.551 53.8247 229.556 53.694 229.556C53.5633 229.556 53.4327 229.551 53.302 229.542C53.1713 229.533 53.0407 229.519 52.91 229.5ZM56.287 229.5C56.2683 229.369 56.2496 229.243 56.231 229.122C56.2216 228.991 56.217 228.861 56.217 228.73C56.217 228.599 56.2216 228.469 56.231 228.338C56.2496 228.198 56.2683 228.063 56.287 227.932C56.4176 227.913 56.5436 227.899 56.665 227.89C56.7956 227.881 56.9263 227.876 57.057 227.876C57.1876 227.876 57.3183 227.881 57.449 227.89C57.5796 227.899 57.7103 227.913 57.841 227.932C57.8596 228.063 57.8736 228.193 57.883 228.324C57.9016 228.455 57.911 228.585 57.911 228.716C57.911 228.847 57.9016 228.977 57.883 229.108C57.8736 229.239 57.8596 229.369 57.841 229.5C57.7103 229.519 57.5796 229.533 57.449 229.542C57.3276 229.551 57.2016 229.556 57.071 229.556C56.9403 229.556 56.8096 229.551 56.679 229.542C56.5483 229.533 56.4176 229.519 56.287 229.5ZM59.6639 229.5C59.6452 229.369 59.6266 229.243 59.6079 229.122C59.5986 228.991 59.5939 228.861 59.5939 228.73C59.5939 228.599 59.5986 228.469 59.6079 228.338C59.6266 228.198 59.6452 228.063 59.6639 227.932C59.7946 227.913 59.9206 227.899 60.0419 227.89C60.1726 227.881 60.3032 227.876 60.4339 227.876C60.5646 227.876 60.6952 227.881 60.8259 227.89C60.9566 227.899 61.0872 227.913 61.2179 227.932C61.2366 228.063 61.2506 228.193 61.2599 228.324C61.2786 228.455 61.2879 228.585 61.2879 228.716C61.2879 228.847 61.2786 228.977 61.2599 229.108C61.2506 229.239 61.2366 229.369 61.2179 229.5C61.0872 229.519 60.9566 229.533 60.8259 229.542C60.7046 229.551 60.5786 229.556 60.4479 229.556C60.3172 229.556 60.1866 229.551 60.0559 229.542C59.9252 229.533 59.7946 229.519 59.6639 229.5Z" fill="#AEAEAF"/>
<rect x="222" y="269" width="153" height="33" rx="8" fill="#0B2C4C"/>
<path d="M280.665 280.153H285.969C286.021 280.413 286.047 280.677 286.047 280.946C286.047 281.232 286.021 281.505 285.969 281.765H282.563V283.793H285.267C285.319 284.07 285.345 284.339 285.345 284.599C285.345 284.876 285.319 285.149 285.267 285.418H282.563V287.888H286.06C286.112 288.148 286.138 288.412 286.138 288.681C286.138 288.967 286.112 289.24 286.06 289.5H280.665V280.153ZM287.572 282.779C287.693 282.753 287.814 282.736 287.936 282.727C288.057 282.71 288.191 282.701 288.339 282.701C288.486 282.701 288.616 282.71 288.729 282.727C288.841 282.736 288.958 282.753 289.08 282.779C289.106 282.822 289.127 282.887 289.145 282.974C289.171 283.052 289.192 283.139 289.21 283.234C289.227 283.321 289.24 283.407 289.249 283.494C289.266 283.581 289.279 283.654 289.288 283.715C289.374 283.585 289.478 283.455 289.6 283.325C289.721 283.195 289.86 283.078 290.016 282.974C290.18 282.87 290.362 282.788 290.562 282.727C290.761 282.658 290.982 282.623 291.225 282.623C291.987 282.623 292.559 282.831 292.941 283.247C293.331 283.663 293.526 284.317 293.526 285.21V289.5C293.214 289.552 292.906 289.578 292.603 289.578C292.299 289.578 291.992 289.552 291.68 289.5V285.704C291.68 285.236 291.606 284.876 291.459 284.625C291.32 284.374 291.073 284.248 290.718 284.248C290.57 284.248 290.419 284.27 290.263 284.313C290.107 284.356 289.964 284.443 289.834 284.573C289.712 284.694 289.613 284.868 289.535 285.093C289.457 285.318 289.418 285.613 289.418 285.977V289.5C289.106 289.552 288.798 289.578 288.495 289.578C288.191 289.578 287.884 289.552 287.572 289.5V282.779ZM294.23 282.792C294.438 282.749 294.628 282.723 294.802 282.714C294.984 282.705 295.14 282.701 295.27 282.701C295.443 282.701 295.616 282.705 295.79 282.714C295.963 282.723 296.123 282.744 296.271 282.779L297.74 287.784L299.183 282.779C299.33 282.753 299.486 282.736 299.651 282.727C299.815 282.71 299.98 282.701 300.145 282.701C300.275 282.701 300.422 282.705 300.587 282.714C300.76 282.723 300.955 282.749 301.172 282.792L298.624 289.5C298.459 289.526 298.286 289.543 298.104 289.552C297.922 289.561 297.77 289.565 297.649 289.565C297.519 289.565 297.371 289.561 297.207 289.552C297.042 289.543 296.886 289.522 296.739 289.487L294.23 282.792ZM302.51 284.183H301.639C301.613 284.07 301.591 283.953 301.574 283.832C301.565 283.702 301.561 283.581 301.561 283.468C301.561 283.234 301.587 283.004 301.639 282.779H304.317V289.5C304.005 289.552 303.702 289.578 303.407 289.578C303.121 289.578 302.822 289.552 302.51 289.5V284.183ZM302.237 281.648C302.185 281.353 302.159 281.063 302.159 280.777C302.159 280.5 302.185 280.209 302.237 279.906C302.384 279.88 302.54 279.863 302.705 279.854C302.878 279.837 303.034 279.828 303.173 279.828C303.32 279.828 303.481 279.837 303.654 279.854C303.827 279.863 303.988 279.88 304.135 279.906C304.161 280.053 304.178 280.201 304.187 280.348C304.196 280.487 304.2 280.63 304.2 280.777C304.2 280.916 304.196 281.059 304.187 281.206C304.178 281.353 304.161 281.501 304.135 281.648C303.988 281.674 303.827 281.691 303.654 281.7C303.489 281.709 303.333 281.713 303.186 281.713C303.047 281.713 302.891 281.709 302.718 281.7C302.545 281.691 302.384 281.674 302.237 281.648ZM309.486 286.419C309.382 286.402 309.27 286.389 309.148 286.38C309.027 286.363 308.919 286.354 308.823 286.354C308.399 286.354 308.061 286.432 307.809 286.588C307.567 286.735 307.445 286.978 307.445 287.316C307.445 287.541 307.493 287.715 307.588 287.836C307.684 287.957 307.796 288.048 307.926 288.109C308.065 288.161 308.208 288.196 308.355 288.213C308.511 288.222 308.646 288.226 308.758 288.226C308.888 288.226 309.018 288.217 309.148 288.2C309.278 288.174 309.391 288.152 309.486 288.135V286.419ZM309.486 285.08C309.486 284.872 309.452 284.703 309.382 284.573C309.313 284.443 309.218 284.343 309.096 284.274C308.975 284.196 308.823 284.144 308.641 284.118C308.468 284.092 308.273 284.079 308.056 284.079C307.588 284.079 307.09 284.17 306.561 284.352C306.44 284.127 306.349 283.914 306.288 283.715C306.228 283.516 306.197 283.277 306.197 283C306.579 282.87 306.96 282.775 307.341 282.714C307.723 282.653 308.078 282.623 308.407 282.623C309.309 282.623 310.011 282.84 310.513 283.273C311.025 283.706 311.28 284.4 311.28 285.353V289.253C310.977 289.348 310.609 289.439 310.175 289.526C309.742 289.613 309.252 289.656 308.706 289.656C308.264 289.656 307.857 289.617 307.484 289.539C307.12 289.461 306.804 289.331 306.535 289.149C306.275 288.967 306.072 288.733 305.924 288.447C305.786 288.161 305.716 287.81 305.716 287.394C305.716 286.978 305.803 286.631 305.976 286.354C306.158 286.068 306.388 285.843 306.665 285.678C306.951 285.505 307.268 285.383 307.614 285.314C307.961 285.236 308.308 285.197 308.654 285.197C308.906 285.197 309.183 285.21 309.486 285.236V285.08ZM312.924 282.779C313.054 282.753 313.175 282.736 313.288 282.727C313.409 282.71 313.539 282.701 313.678 282.701C313.808 282.701 313.934 282.71 314.055 282.727C314.185 282.744 314.311 282.766 314.432 282.792C314.458 282.835 314.48 282.9 314.497 282.987C314.523 283.065 314.545 283.152 314.562 283.247C314.579 283.334 314.592 283.425 314.601 283.52C314.618 283.607 314.631 283.68 314.64 283.741C314.831 283.472 315.065 283.234 315.342 283.026C315.619 282.809 315.966 282.701 316.382 282.701C316.469 282.701 316.568 282.705 316.681 282.714C316.794 282.723 316.876 282.736 316.928 282.753C316.945 282.84 316.958 282.939 316.967 283.052C316.976 283.165 316.98 283.282 316.98 283.403C316.98 283.55 316.971 283.711 316.954 283.884C316.945 284.057 316.924 284.222 316.889 284.378C316.794 284.361 316.685 284.352 316.564 284.352C316.451 284.352 316.382 284.352 316.356 284.352C316.209 284.352 316.044 284.369 315.862 284.404C315.68 284.43 315.507 284.508 315.342 284.638C315.177 284.768 315.039 284.963 314.926 285.223C314.822 285.483 314.77 285.847 314.77 286.315V289.513C314.614 289.539 314.458 289.556 314.302 289.565C314.146 289.574 313.994 289.578 313.847 289.578C313.7 289.578 313.548 289.574 313.392 289.565C313.245 289.556 313.089 289.539 312.924 289.513V282.779Z" fill="white"/>
</svg>
