<svg width="332" height="419" viewBox="0 0 332 419" fill="none" xmlns="http://www.w3.org/2000/svg">
<rect width="332" height="419" rx="8" fill="white"/>
<path d="M54.52 52.86H52.372C52.324 52.62 52.3 52.368 52.3 52.104C52.3 51.856 52.324 51.612 52.372 51.372H58.432C58.48 51.612 58.504 51.856 58.504 52.104C58.504 52.368 58.48 52.62 58.432 52.86H56.284V60C56.14 60.016 55.996 60.028 55.852 60.036C55.708 60.052 55.568 60.06 55.432 60.06C55.296 60.06 55.148 60.056 54.988 60.048C54.836 60.04 54.68 60.024 54.52 60V52.86ZM59.9846 55.092H59.1806C59.1566 54.988 59.1366 54.88 59.1206 54.768C59.1126 54.648 59.1086 54.536 59.1086 54.432C59.1086 54.216 59.1326 54.004 59.1806 53.796H61.6526V60C61.3646 60.048 61.0846 60.072 60.8126 60.072C60.5486 60.072 60.2726 60.048 59.9846 60V55.092ZM60.7046 51.372C61.0246 51.324 61.3846 51.3 61.7846 51.3C61.9926 51.3 62.1686 51.308 62.3126 51.324C62.4646 51.332 62.6206 51.348 62.7806 51.372L60.9686 52.848C60.8646 52.864 60.7406 52.88 60.5966 52.896C60.4526 52.912 60.3006 52.92 60.1406 52.92C59.8846 52.92 59.6246 52.896 59.3606 52.848L60.7046 51.372ZM63.4963 55.092H62.7163L62.6563 54.852L64.9003 51.984H65.1763V53.796H66.6283C66.6523 53.916 66.6683 54.024 66.6763 54.12C66.6843 54.216 66.6883 54.316 66.6883 54.42C66.6883 54.532 66.6843 54.64 66.6763 54.744C66.6683 54.848 66.6523 54.964 66.6283 55.092H65.1763V57.528C65.1763 57.776 65.1963 57.976 65.2363 58.128C65.2763 58.28 65.3323 58.4 65.4043 58.488C65.4843 58.576 65.5803 58.636 65.6923 58.668C65.8043 58.7 65.9363 58.716 66.0883 58.716C66.2083 58.716 66.3243 58.708 66.4363 58.692C66.5563 58.668 66.6603 58.648 66.7483 58.632C66.8043 58.784 66.8443 58.944 66.8683 59.112C66.8923 59.272 66.9043 59.416 66.9043 59.544C66.9043 59.632 66.9003 59.708 66.8923 59.772C66.8923 59.828 66.8883 59.884 66.8803 59.94C66.5123 60.028 66.1323 60.072 65.7403 60.072C65.0123 60.072 64.4563 59.904 64.0723 59.568C63.6883 59.224 63.4963 58.668 63.4963 57.9V55.092ZM67.814 53.796C68.102 53.748 68.386 53.724 68.666 53.724C68.946 53.724 69.23 53.748 69.518 53.796V57.084C69.518 57.412 69.542 57.684 69.59 57.9C69.646 58.108 69.726 58.276 69.83 58.404C69.942 58.524 70.078 58.612 70.238 58.668C70.398 58.716 70.586 58.74 70.802 58.74C71.098 58.74 71.346 58.712 71.546 58.656V53.796C71.834 53.748 72.114 53.724 72.386 53.724C72.666 53.724 72.95 53.748 73.238 53.796V59.76C72.982 59.848 72.642 59.932 72.218 60.012C71.802 60.1 71.366 60.144 70.91 60.144C70.502 60.144 70.11 60.112 69.734 60.048C69.358 59.984 69.026 59.848 68.738 59.64C68.458 59.432 68.234 59.128 68.066 58.728C67.898 58.328 67.814 57.796 67.814 57.132V53.796ZM74.7412 51.228C75.0292 51.18 75.3132 51.156 75.5932 51.156C75.8652 51.156 76.1452 51.18 76.4332 51.228V57.528C76.4332 57.776 76.4452 57.976 76.4692 58.128C76.5012 58.28 76.5452 58.4 76.6012 58.488C76.6652 58.568 76.7452 58.624 76.8412 58.656C76.9372 58.688 77.0572 58.704 77.2012 58.704C77.2652 58.704 77.3332 58.7 77.4052 58.692C77.4852 58.684 77.5612 58.672 77.6332 58.656C77.7212 58.984 77.7652 59.304 77.7652 59.616C77.7652 59.68 77.7652 59.74 77.7652 59.796C77.7652 59.844 77.7572 59.9 77.7412 59.964C77.6132 60.004 77.4572 60.032 77.2732 60.048C77.0972 60.064 76.9332 60.072 76.7812 60.072C76.1652 60.072 75.6692 59.904 75.2932 59.568C74.9252 59.224 74.7412 58.668 74.7412 57.9V51.228ZM81.3078 60.144C80.8038 60.144 80.3638 60.064 79.9878 59.904C79.6198 59.736 79.3118 59.508 79.0638 59.22C78.8238 58.924 78.6398 58.58 78.5118 58.188C78.3918 57.796 78.3318 57.372 78.3318 56.916C78.3318 56.46 78.3918 56.032 78.5118 55.632C78.6398 55.232 78.8238 54.888 79.0638 54.6C79.3118 54.304 79.6198 54.072 79.9878 53.904C80.3638 53.736 80.8038 53.652 81.3078 53.652C81.8118 53.652 82.2518 53.736 82.6278 53.904C83.0038 54.072 83.3158 54.304 83.5638 54.6C83.8118 54.888 83.9958 55.232 84.1158 55.632C84.2358 56.032 84.2958 56.46 84.2958 56.916C84.2958 57.372 84.2358 57.796 84.1158 58.188C83.9958 58.58 83.8118 58.924 83.5638 59.22C83.3158 59.508 83.0038 59.736 82.6278 59.904C82.2518 60.064 81.8118 60.144 81.3078 60.144ZM81.3078 58.848C81.7558 58.848 82.0758 58.684 82.2678 58.356C82.4678 58.02 82.5678 57.54 82.5678 56.916C82.5678 56.292 82.4678 55.816 82.2678 55.488C82.0758 55.152 81.7558 54.984 81.3078 54.984C80.8678 54.984 80.5478 55.152 80.3478 55.488C80.1558 55.816 80.0598 56.292 80.0598 56.916C80.0598 57.54 80.1558 58.02 80.3478 58.356C80.5478 58.684 80.8678 58.848 81.3078 58.848Z" fill="#0B2C4C"/>
<rect x="46" y="67" width="240" height="32" rx="6" stroke="#AEAEAF"/>
<path d="M52.91 87.5C52.8913 87.3693 52.8727 87.2433 52.854 87.122C52.8447 86.9913 52.84 86.8607 52.84 86.73C52.84 86.5993 52.8447 86.4687 52.854 86.338C52.8727 86.198 52.8913 86.0627 52.91 85.932C53.0407 85.9133 53.1667 85.8993 53.288 85.89C53.4187 85.8807 53.5493 85.876 53.68 85.876C53.8107 85.876 53.9413 85.8807 54.072 85.89C54.2027 85.8993 54.3333 85.9133 54.464 85.932C54.4827 86.0627 54.4967 86.1933 54.506 86.324C54.5247 86.4547 54.534 86.5853 54.534 86.716C54.534 86.8467 54.5247 86.9773 54.506 87.108C54.4967 87.2387 54.4827 87.3693 54.464 87.5C54.3333 87.5187 54.2027 87.5327 54.072 87.542C53.9507 87.5513 53.8247 87.556 53.694 87.556C53.5633 87.556 53.4327 87.5513 53.302 87.542C53.1713 87.5327 53.0407 87.5187 52.91 87.5ZM56.287 87.5C56.2683 87.3693 56.2496 87.2433 56.231 87.122C56.2216 86.9913 56.217 86.8607 56.217 86.73C56.217 86.5993 56.2216 86.4687 56.231 86.338C56.2496 86.198 56.2683 86.0627 56.287 85.932C56.4176 85.9133 56.5436 85.8993 56.665 85.89C56.7956 85.8807 56.9263 85.876 57.057 85.876C57.1876 85.876 57.3183 85.8807 57.449 85.89C57.5796 85.8993 57.7103 85.9133 57.841 85.932C57.8596 86.0627 57.8736 86.1933 57.883 86.324C57.9016 86.4547 57.911 86.5853 57.911 86.716C57.911 86.8467 57.9016 86.9773 57.883 87.108C57.8736 87.2387 57.8596 87.3693 57.841 87.5C57.7103 87.5187 57.5796 87.5327 57.449 87.542C57.3276 87.5513 57.2016 87.556 57.071 87.556C56.9403 87.556 56.8096 87.5513 56.679 87.542C56.5483 87.5327 56.4176 87.5187 56.287 87.5ZM59.6639 87.5C59.6452 87.3693 59.6266 87.2433 59.6079 87.122C59.5986 86.9913 59.5939 86.8607 59.5939 86.73C59.5939 86.5993 59.5986 86.4687 59.6079 86.338C59.6266 86.198 59.6452 86.0627 59.6639 85.932C59.7946 85.9133 59.9206 85.8993 60.0419 85.89C60.1726 85.8807 60.3032 85.876 60.4339 85.876C60.5646 85.876 60.6952 85.8807 60.8259 85.89C60.9566 85.8993 61.0872 85.9133 61.2179 85.932C61.2366 86.0627 61.2506 86.1933 61.2599 86.324C61.2786 86.4547 61.2879 86.5853 61.2879 86.716C61.2879 86.8467 61.2786 86.9773 61.2599 87.108C61.2506 87.2387 61.2366 87.3693 61.2179 87.5C61.0872 87.5187 60.9566 87.5327 60.8259 87.542C60.7046 87.5513 60.5786 87.556 60.4479 87.556C60.3172 87.556 60.1866 87.5513 60.0559 87.542C59.9252 87.5327 59.7946 87.5187 59.6639 87.5Z" fill="#AEAEAF"/>
<path d="M54.52 123.86H52.372C52.324 123.62 52.3 123.368 52.3 123.104C52.3 122.856 52.324 122.612 52.372 122.372H58.432C58.48 122.612 58.504 122.856 58.504 123.104C58.504 123.368 58.48 123.62 58.432 123.86H56.284V131C56.14 131.016 55.996 131.028 55.852 131.036C55.708 131.052 55.568 131.06 55.432 131.06C55.296 131.06 55.148 131.056 54.988 131.048C54.836 131.04 54.68 131.024 54.52 131V123.86ZM59.9846 126.092H59.1806C59.1566 125.988 59.1366 125.88 59.1206 125.768C59.1126 125.648 59.1086 125.536 59.1086 125.432C59.1086 125.216 59.1326 125.004 59.1806 124.796H61.6526V131C61.3646 131.048 61.0846 131.072 60.8126 131.072C60.5486 131.072 60.2726 131.048 59.9846 131V126.092ZM60.7046 122.372C61.0246 122.324 61.3846 122.3 61.7846 122.3C61.9926 122.3 62.1686 122.308 62.3126 122.324C62.4646 122.332 62.6206 122.348 62.7806 122.372L60.9686 123.848C60.8646 123.864 60.7406 123.88 60.5966 123.896C60.4526 123.912 60.3006 123.92 60.1406 123.92C59.8846 123.92 59.6246 123.896 59.3606 123.848L60.7046 122.372ZM63.4963 126.092H62.7163L62.6563 125.852L64.9003 122.984H65.1763V124.796H66.6283C66.6523 124.916 66.6683 125.024 66.6763 125.12C66.6843 125.216 66.6883 125.316 66.6883 125.42C66.6883 125.532 66.6843 125.64 66.6763 125.744C66.6683 125.848 66.6523 125.964 66.6283 126.092H65.1763V128.528C65.1763 128.776 65.1963 128.976 65.2363 129.128C65.2763 129.28 65.3323 129.4 65.4043 129.488C65.4843 129.576 65.5803 129.636 65.6923 129.668C65.8043 129.7 65.9363 129.716 66.0883 129.716C66.2083 129.716 66.3243 129.708 66.4363 129.692C66.5563 129.668 66.6603 129.648 66.7483 129.632C66.8043 129.784 66.8443 129.944 66.8683 130.112C66.8923 130.272 66.9043 130.416 66.9043 130.544C66.9043 130.632 66.9003 130.708 66.8923 130.772C66.8923 130.828 66.8883 130.884 66.8803 130.94C66.5123 131.028 66.1323 131.072 65.7403 131.072C65.0123 131.072 64.4563 130.904 64.0723 130.568C63.6883 130.224 63.4963 129.668 63.4963 128.9V126.092ZM67.814 124.796C68.102 124.748 68.386 124.724 68.666 124.724C68.946 124.724 69.23 124.748 69.518 124.796V128.084C69.518 128.412 69.542 128.684 69.59 128.9C69.646 129.108 69.726 129.276 69.83 129.404C69.942 129.524 70.078 129.612 70.238 129.668C70.398 129.716 70.586 129.74 70.802 129.74C71.098 129.74 71.346 129.712 71.546 129.656V124.796C71.834 124.748 72.114 124.724 72.386 124.724C72.666 124.724 72.95 124.748 73.238 124.796V130.76C72.982 130.848 72.642 130.932 72.218 131.012C71.802 131.1 71.366 131.144 70.91 131.144C70.502 131.144 70.11 131.112 69.734 131.048C69.358 130.984 69.026 130.848 68.738 130.64C68.458 130.432 68.234 130.128 68.066 129.728C67.898 129.328 67.814 128.796 67.814 128.132V124.796ZM74.7412 122.228C75.0292 122.18 75.3132 122.156 75.5932 122.156C75.8652 122.156 76.1452 122.18 76.4332 122.228V128.528C76.4332 128.776 76.4452 128.976 76.4692 129.128C76.5012 129.28 76.5452 129.4 76.6012 129.488C76.6652 129.568 76.7452 129.624 76.8412 129.656C76.9372 129.688 77.0572 129.704 77.2012 129.704C77.2652 129.704 77.3332 129.7 77.4052 129.692C77.4852 129.684 77.5612 129.672 77.6332 129.656C77.7212 129.984 77.7652 130.304 77.7652 130.616C77.7652 130.68 77.7652 130.74 77.7652 130.796C77.7652 130.844 77.7572 130.9 77.7412 130.964C77.6132 131.004 77.4572 131.032 77.2732 131.048C77.0972 131.064 76.9332 131.072 76.7812 131.072C76.1652 131.072 75.6692 130.904 75.2932 130.568C74.9252 130.224 74.7412 129.668 74.7412 128.9V122.228ZM81.3078 131.144C80.8038 131.144 80.3638 131.064 79.9878 130.904C79.6198 130.736 79.3118 130.508 79.0638 130.22C78.8238 129.924 78.6398 129.58 78.5118 129.188C78.3918 128.796 78.3318 128.372 78.3318 127.916C78.3318 127.46 78.3918 127.032 78.5118 126.632C78.6398 126.232 78.8238 125.888 79.0638 125.6C79.3118 125.304 79.6198 125.072 79.9878 124.904C80.3638 124.736 80.8038 124.652 81.3078 124.652C81.8118 124.652 82.2518 124.736 82.6278 124.904C83.0038 125.072 83.3158 125.304 83.5638 125.6C83.8118 125.888 83.9958 126.232 84.1158 126.632C84.2358 127.032 84.2958 127.46 84.2958 127.916C84.2958 128.372 84.2358 128.796 84.1158 129.188C83.9958 129.58 83.8118 129.924 83.5638 130.22C83.3158 130.508 83.0038 130.736 82.6278 130.904C82.2518 131.064 81.8118 131.144 81.3078 131.144ZM81.3078 129.848C81.7558 129.848 82.0758 129.684 82.2678 129.356C82.4678 129.02 82.5678 128.54 82.5678 127.916C82.5678 127.292 82.4678 126.816 82.2678 126.488C82.0758 126.152 81.7558 125.984 81.3078 125.984C80.8678 125.984 80.5478 126.152 80.3478 126.488C80.1558 126.816 80.0598 127.292 80.0598 127.916C80.0598 128.54 80.1558 129.02 80.3478 129.356C80.5478 129.684 80.8678 129.848 81.3078 129.848Z" fill="#0B2C4C"/>
<rect x="46" y="138" width="240" height="32" rx="6" stroke="#AEAEAF"/>
<path d="M52.91 158.5C52.8913 158.369 52.8727 158.243 52.854 158.122C52.8447 157.991 52.84 157.861 52.84 157.73C52.84 157.599 52.8447 157.469 52.854 157.338C52.8727 157.198 52.8913 157.063 52.91 156.932C53.0407 156.913 53.1667 156.899 53.288 156.89C53.4187 156.881 53.5493 156.876 53.68 156.876C53.8107 156.876 53.9413 156.881 54.072 156.89C54.2027 156.899 54.3333 156.913 54.464 156.932C54.4827 157.063 54.4967 157.193 54.506 157.324C54.5247 157.455 54.534 157.585 54.534 157.716C54.534 157.847 54.5247 157.977 54.506 158.108C54.4967 158.239 54.4827 158.369 54.464 158.5C54.3333 158.519 54.2027 158.533 54.072 158.542C53.9507 158.551 53.8247 158.556 53.694 158.556C53.5633 158.556 53.4327 158.551 53.302 158.542C53.1713 158.533 53.0407 158.519 52.91 158.5ZM56.287 158.5C56.2683 158.369 56.2496 158.243 56.231 158.122C56.2216 157.991 56.217 157.861 56.217 157.73C56.217 157.599 56.2216 157.469 56.231 157.338C56.2496 157.198 56.2683 157.063 56.287 156.932C56.4176 156.913 56.5436 156.899 56.665 156.89C56.7956 156.881 56.9263 156.876 57.057 156.876C57.1876 156.876 57.3183 156.881 57.449 156.89C57.5796 156.899 57.7103 156.913 57.841 156.932C57.8596 157.063 57.8736 157.193 57.883 157.324C57.9016 157.455 57.911 157.585 57.911 157.716C57.911 157.847 57.9016 157.977 57.883 158.108C57.8736 158.239 57.8596 158.369 57.841 158.5C57.7103 158.519 57.5796 158.533 57.449 158.542C57.3276 158.551 57.2016 158.556 57.071 158.556C56.9403 158.556 56.8096 158.551 56.679 158.542C56.5483 158.533 56.4176 158.519 56.287 158.5ZM59.6639 158.5C59.6452 158.369 59.6266 158.243 59.6079 158.122C59.5986 157.991 59.5939 157.861 59.5939 157.73C59.5939 157.599 59.5986 157.469 59.6079 157.338C59.6266 157.198 59.6452 157.063 59.6639 156.932C59.7946 156.913 59.9206 156.899 60.0419 156.89C60.1726 156.881 60.3032 156.876 60.4339 156.876C60.5646 156.876 60.6952 156.881 60.8259 156.89C60.9566 156.899 61.0872 156.913 61.2179 156.932C61.2366 157.063 61.2506 157.193 61.2599 157.324C61.2786 157.455 61.2879 157.585 61.2879 157.716C61.2879 157.847 61.2786 157.977 61.2599 158.108C61.2506 158.239 61.2366 158.369 61.2179 158.5C61.0872 158.519 60.9566 158.533 60.8259 158.542C60.7046 158.551 60.5786 158.556 60.4479 158.556C60.3172 158.556 60.1866 158.551 60.0559 158.542C59.9252 158.533 59.7946 158.519 59.6639 158.5Z" fill="#AEAEAF"/>
<path d="M54.52 194.86H52.372C52.324 194.62 52.3 194.368 52.3 194.104C52.3 193.856 52.324 193.612 52.372 193.372H58.432C58.48 193.612 58.504 193.856 58.504 194.104C58.504 194.368 58.48 194.62 58.432 194.86H56.284V202C56.14 202.016 55.996 202.028 55.852 202.036C55.708 202.052 55.568 202.06 55.432 202.06C55.296 202.06 55.148 202.056 54.988 202.048C54.836 202.04 54.68 202.024 54.52 202V194.86ZM59.9846 197.092H59.1806C59.1566 196.988 59.1366 196.88 59.1206 196.768C59.1126 196.648 59.1086 196.536 59.1086 196.432C59.1086 196.216 59.1326 196.004 59.1806 195.796H61.6526V202C61.3646 202.048 61.0846 202.072 60.8126 202.072C60.5486 202.072 60.2726 202.048 59.9846 202V197.092ZM60.7046 193.372C61.0246 193.324 61.3846 193.3 61.7846 193.3C61.9926 193.3 62.1686 193.308 62.3126 193.324C62.4646 193.332 62.6206 193.348 62.7806 193.372L60.9686 194.848C60.8646 194.864 60.7406 194.88 60.5966 194.896C60.4526 194.912 60.3006 194.92 60.1406 194.92C59.8846 194.92 59.6246 194.896 59.3606 194.848L60.7046 193.372ZM63.4963 197.092H62.7163L62.6563 196.852L64.9003 193.984H65.1763V195.796H66.6283C66.6523 195.916 66.6683 196.024 66.6763 196.12C66.6843 196.216 66.6883 196.316 66.6883 196.42C66.6883 196.532 66.6843 196.64 66.6763 196.744C66.6683 196.848 66.6523 196.964 66.6283 197.092H65.1763V199.528C65.1763 199.776 65.1963 199.976 65.2363 200.128C65.2763 200.28 65.3323 200.4 65.4043 200.488C65.4843 200.576 65.5803 200.636 65.6923 200.668C65.8043 200.7 65.9363 200.716 66.0883 200.716C66.2083 200.716 66.3243 200.708 66.4363 200.692C66.5563 200.668 66.6603 200.648 66.7483 200.632C66.8043 200.784 66.8443 200.944 66.8683 201.112C66.8923 201.272 66.9043 201.416 66.9043 201.544C66.9043 201.632 66.9003 201.708 66.8923 201.772C66.8923 201.828 66.8883 201.884 66.8803 201.94C66.5123 202.028 66.1323 202.072 65.7403 202.072C65.0123 202.072 64.4563 201.904 64.0723 201.568C63.6883 201.224 63.4963 200.668 63.4963 199.9V197.092ZM67.814 195.796C68.102 195.748 68.386 195.724 68.666 195.724C68.946 195.724 69.23 195.748 69.518 195.796V199.084C69.518 199.412 69.542 199.684 69.59 199.9C69.646 200.108 69.726 200.276 69.83 200.404C69.942 200.524 70.078 200.612 70.238 200.668C70.398 200.716 70.586 200.74 70.802 200.74C71.098 200.74 71.346 200.712 71.546 200.656V195.796C71.834 195.748 72.114 195.724 72.386 195.724C72.666 195.724 72.95 195.748 73.238 195.796V201.76C72.982 201.848 72.642 201.932 72.218 202.012C71.802 202.1 71.366 202.144 70.91 202.144C70.502 202.144 70.11 202.112 69.734 202.048C69.358 201.984 69.026 201.848 68.738 201.64C68.458 201.432 68.234 201.128 68.066 200.728C67.898 200.328 67.814 199.796 67.814 199.132V195.796ZM74.7412 193.228C75.0292 193.18 75.3132 193.156 75.5932 193.156C75.8652 193.156 76.1452 193.18 76.4332 193.228V199.528C76.4332 199.776 76.4452 199.976 76.4692 200.128C76.5012 200.28 76.5452 200.4 76.6012 200.488C76.6652 200.568 76.7452 200.624 76.8412 200.656C76.9372 200.688 77.0572 200.704 77.2012 200.704C77.2652 200.704 77.3332 200.7 77.4052 200.692C77.4852 200.684 77.5612 200.672 77.6332 200.656C77.7212 200.984 77.7652 201.304 77.7652 201.616C77.7652 201.68 77.7652 201.74 77.7652 201.796C77.7652 201.844 77.7572 201.9 77.7412 201.964C77.6132 202.004 77.4572 202.032 77.2732 202.048C77.0972 202.064 76.9332 202.072 76.7812 202.072C76.1652 202.072 75.6692 201.904 75.2932 201.568C74.9252 201.224 74.7412 200.668 74.7412 199.9V193.228ZM81.3078 202.144C80.8038 202.144 80.3638 202.064 79.9878 201.904C79.6198 201.736 79.3118 201.508 79.0638 201.22C78.8238 200.924 78.6398 200.58 78.5118 200.188C78.3918 199.796 78.3318 199.372 78.3318 198.916C78.3318 198.46 78.3918 198.032 78.5118 197.632C78.6398 197.232 78.8238 196.888 79.0638 196.6C79.3118 196.304 79.6198 196.072 79.9878 195.904C80.3638 195.736 80.8038 195.652 81.3078 195.652C81.8118 195.652 82.2518 195.736 82.6278 195.904C83.0038 196.072 83.3158 196.304 83.5638 196.6C83.8118 196.888 83.9958 197.232 84.1158 197.632C84.2358 198.032 84.2958 198.46 84.2958 198.916C84.2958 199.372 84.2358 199.796 84.1158 200.188C83.9958 200.58 83.8118 200.924 83.5638 201.22C83.3158 201.508 83.0038 201.736 82.6278 201.904C82.2518 202.064 81.8118 202.144 81.3078 202.144ZM81.3078 200.848C81.7558 200.848 82.0758 200.684 82.2678 200.356C82.4678 200.02 82.5678 199.54 82.5678 198.916C82.5678 198.292 82.4678 197.816 82.2678 197.488C82.0758 197.152 81.7558 196.984 81.3078 196.984C80.8678 196.984 80.5478 197.152 80.3478 197.488C80.1558 197.816 80.0598 198.292 80.0598 198.916C80.0598 199.54 80.1558 200.02 80.3478 200.356C80.5478 200.684 80.8678 200.848 81.3078 200.848Z" fill="#0B2C4C"/>
<rect x="46" y="209" width="240" height="32" rx="6" stroke="#AEAEAF"/>
<path d="M52.91 229.5C52.8913 229.369 52.8727 229.243 52.854 229.122C52.8447 228.991 52.84 228.861 52.84 228.73C52.84 228.599 52.8447 228.469 52.854 228.338C52.8727 228.198 52.8913 228.063 52.91 227.932C53.0407 227.913 53.1667 227.899 53.288 227.89C53.4187 227.881 53.5493 227.876 53.68 227.876C53.8107 227.876 53.9413 227.881 54.072 227.89C54.2027 227.899 54.3333 227.913 54.464 227.932C54.4827 228.063 54.4967 228.193 54.506 228.324C54.5247 228.455 54.534 228.585 54.534 228.716C54.534 228.847 54.5247 228.977 54.506 229.108C54.4967 229.239 54.4827 229.369 54.464 229.5C54.3333 229.519 54.2027 229.533 54.072 229.542C53.9507 229.551 53.8247 229.556 53.694 229.556C53.5633 229.556 53.4327 229.551 53.302 229.542C53.1713 229.533 53.0407 229.519 52.91 229.5ZM56.287 229.5C56.2683 229.369 56.2496 229.243 56.231 229.122C56.2216 228.991 56.217 228.861 56.217 228.73C56.217 228.599 56.2216 228.469 56.231 228.338C56.2496 228.198 56.2683 228.063 56.287 227.932C56.4176 227.913 56.5436 227.899 56.665 227.89C56.7956 227.881 56.9263 227.876 57.057 227.876C57.1876 227.876 57.3183 227.881 57.449 227.89C57.5796 227.899 57.7103 227.913 57.841 227.932C57.8596 228.063 57.8736 228.193 57.883 228.324C57.9016 228.455 57.911 228.585 57.911 228.716C57.911 228.847 57.9016 228.977 57.883 229.108C57.8736 229.239 57.8596 229.369 57.841 229.5C57.7103 229.519 57.5796 229.533 57.449 229.542C57.3276 229.551 57.2016 229.556 57.071 229.556C56.9403 229.556 56.8096 229.551 56.679 229.542C56.5483 229.533 56.4176 229.519 56.287 229.5ZM59.6639 229.5C59.6452 229.369 59.6266 229.243 59.6079 229.122C59.5986 228.991 59.5939 228.861 59.5939 228.73C59.5939 228.599 59.5986 228.469 59.6079 228.338C59.6266 228.198 59.6452 228.063 59.6639 227.932C59.7946 227.913 59.9206 227.899 60.0419 227.89C60.1726 227.881 60.3032 227.876 60.4339 227.876C60.5646 227.876 60.6952 227.881 60.8259 227.89C60.9566 227.899 61.0872 227.913 61.2179 227.932C61.2366 228.063 61.2506 228.193 61.2599 228.324C61.2786 228.455 61.2879 228.585 61.2879 228.716C61.2879 228.847 61.2786 228.977 61.2599 229.108C61.2506 229.239 61.2366 229.369 61.2179 229.5C61.0872 229.519 60.9566 229.533 60.8259 229.542C60.7046 229.551 60.5786 229.556 60.4479 229.556C60.3172 229.556 60.1866 229.551 60.0559 229.542C59.9252 229.533 59.7946 229.519 59.6639 229.5Z" fill="#AEAEAF"/>
<path d="M54.52 265.86H52.372C52.324 265.62 52.3 265.368 52.3 265.104C52.3 264.856 52.324 264.612 52.372 264.372H58.432C58.48 264.612 58.504 264.856 58.504 265.104C58.504 265.368 58.48 265.62 58.432 265.86H56.284V273C56.14 273.016 55.996 273.028 55.852 273.036C55.708 273.052 55.568 273.06 55.432 273.06C55.296 273.06 55.148 273.056 54.988 273.048C54.836 273.04 54.68 273.024 54.52 273V265.86ZM59.9846 268.092H59.1806C59.1566 267.988 59.1366 267.88 59.1206 267.768C59.1126 267.648 59.1086 267.536 59.1086 267.432C59.1086 267.216 59.1326 267.004 59.1806 266.796H61.6526V273C61.3646 273.048 61.0846 273.072 60.8126 273.072C60.5486 273.072 60.2726 273.048 59.9846 273V268.092ZM60.7046 264.372C61.0246 264.324 61.3846 264.3 61.7846 264.3C61.9926 264.3 62.1686 264.308 62.3126 264.324C62.4646 264.332 62.6206 264.348 62.7806 264.372L60.9686 265.848C60.8646 265.864 60.7406 265.88 60.5966 265.896C60.4526 265.912 60.3006 265.92 60.1406 265.92C59.8846 265.92 59.6246 265.896 59.3606 265.848L60.7046 264.372ZM63.4963 268.092H62.7163L62.6563 267.852L64.9003 264.984H65.1763V266.796H66.6283C66.6523 266.916 66.6683 267.024 66.6763 267.12C66.6843 267.216 66.6883 267.316 66.6883 267.42C66.6883 267.532 66.6843 267.64 66.6763 267.744C66.6683 267.848 66.6523 267.964 66.6283 268.092H65.1763V270.528C65.1763 270.776 65.1963 270.976 65.2363 271.128C65.2763 271.28 65.3323 271.4 65.4043 271.488C65.4843 271.576 65.5803 271.636 65.6923 271.668C65.8043 271.7 65.9363 271.716 66.0883 271.716C66.2083 271.716 66.3243 271.708 66.4363 271.692C66.5563 271.668 66.6603 271.648 66.7483 271.632C66.8043 271.784 66.8443 271.944 66.8683 272.112C66.8923 272.272 66.9043 272.416 66.9043 272.544C66.9043 272.632 66.9003 272.708 66.8923 272.772C66.8923 272.828 66.8883 272.884 66.8803 272.94C66.5123 273.028 66.1323 273.072 65.7403 273.072C65.0123 273.072 64.4563 272.904 64.0723 272.568C63.6883 272.224 63.4963 271.668 63.4963 270.9V268.092ZM67.814 266.796C68.102 266.748 68.386 266.724 68.666 266.724C68.946 266.724 69.23 266.748 69.518 266.796V270.084C69.518 270.412 69.542 270.684 69.59 270.9C69.646 271.108 69.726 271.276 69.83 271.404C69.942 271.524 70.078 271.612 70.238 271.668C70.398 271.716 70.586 271.74 70.802 271.74C71.098 271.74 71.346 271.712 71.546 271.656V266.796C71.834 266.748 72.114 266.724 72.386 266.724C72.666 266.724 72.95 266.748 73.238 266.796V272.76C72.982 272.848 72.642 272.932 72.218 273.012C71.802 273.1 71.366 273.144 70.91 273.144C70.502 273.144 70.11 273.112 69.734 273.048C69.358 272.984 69.026 272.848 68.738 272.64C68.458 272.432 68.234 272.128 68.066 271.728C67.898 271.328 67.814 270.796 67.814 270.132V266.796ZM74.7412 264.228C75.0292 264.18 75.3132 264.156 75.5932 264.156C75.8652 264.156 76.1452 264.18 76.4332 264.228V270.528C76.4332 270.776 76.4452 270.976 76.4692 271.128C76.5012 271.28 76.5452 271.4 76.6012 271.488C76.6652 271.568 76.7452 271.624 76.8412 271.656C76.9372 271.688 77.0572 271.704 77.2012 271.704C77.2652 271.704 77.3332 271.7 77.4052 271.692C77.4852 271.684 77.5612 271.672 77.6332 271.656C77.7212 271.984 77.7652 272.304 77.7652 272.616C77.7652 272.68 77.7652 272.74 77.7652 272.796C77.7652 272.844 77.7572 272.9 77.7412 272.964C77.6132 273.004 77.4572 273.032 77.2732 273.048C77.0972 273.064 76.9332 273.072 76.7812 273.072C76.1652 273.072 75.6692 272.904 75.2932 272.568C74.9252 272.224 74.7412 271.668 74.7412 270.9V264.228ZM81.3078 273.144C80.8038 273.144 80.3638 273.064 79.9878 272.904C79.6198 272.736 79.3118 272.508 79.0638 272.22C78.8238 271.924 78.6398 271.58 78.5118 271.188C78.3918 270.796 78.3318 270.372 78.3318 269.916C78.3318 269.46 78.3918 269.032 78.5118 268.632C78.6398 268.232 78.8238 267.888 79.0638 267.6C79.3118 267.304 79.6198 267.072 79.9878 266.904C80.3638 266.736 80.8038 266.652 81.3078 266.652C81.8118 266.652 82.2518 266.736 82.6278 266.904C83.0038 267.072 83.3158 267.304 83.5638 267.6C83.8118 267.888 83.9958 268.232 84.1158 268.632C84.2358 269.032 84.2958 269.46 84.2958 269.916C84.2958 270.372 84.2358 270.796 84.1158 271.188C83.9958 271.58 83.8118 271.924 83.5638 272.22C83.3158 272.508 83.0038 272.736 82.6278 272.904C82.2518 273.064 81.8118 273.144 81.3078 273.144ZM81.3078 271.848C81.7558 271.848 82.0758 271.684 82.2678 271.356C82.4678 271.02 82.5678 270.54 82.5678 269.916C82.5678 269.292 82.4678 268.816 82.2678 268.488C82.0758 268.152 81.7558 267.984 81.3078 267.984C80.8678 267.984 80.5478 268.152 80.3478 268.488C80.1558 268.816 80.0598 269.292 80.0598 269.916C80.0598 270.54 80.1558 271.02 80.3478 271.356C80.5478 271.684 80.8678 271.848 81.3078 271.848Z" fill="#0B2C4C"/>
<rect x="46" y="280" width="240" height="32" rx="6" stroke="#AEAEAF"/>
<path d="M52.91 300.5C52.8913 300.369 52.8727 300.243 52.854 300.122C52.8447 299.991 52.84 299.861 52.84 299.73C52.84 299.599 52.8447 299.469 52.854 299.338C52.8727 299.198 52.8913 299.063 52.91 298.932C53.0407 298.913 53.1667 298.899 53.288 298.89C53.4187 298.881 53.5493 298.876 53.68 298.876C53.8107 298.876 53.9413 298.881 54.072 298.89C54.2027 298.899 54.3333 298.913 54.464 298.932C54.4827 299.063 54.4967 299.193 54.506 299.324C54.5247 299.455 54.534 299.585 54.534 299.716C54.534 299.847 54.5247 299.977 54.506 300.108C54.4967 300.239 54.4827 300.369 54.464 300.5C54.3333 300.519 54.2027 300.533 54.072 300.542C53.9507 300.551 53.8247 300.556 53.694 300.556C53.5633 300.556 53.4327 300.551 53.302 300.542C53.1713 300.533 53.0407 300.519 52.91 300.5ZM56.287 300.5C56.2683 300.369 56.2496 300.243 56.231 300.122C56.2216 299.991 56.217 299.861 56.217 299.73C56.217 299.599 56.2216 299.469 56.231 299.338C56.2496 299.198 56.2683 299.063 56.287 298.932C56.4176 298.913 56.5436 298.899 56.665 298.89C56.7956 298.881 56.9263 298.876 57.057 298.876C57.1876 298.876 57.3183 298.881 57.449 298.89C57.5796 298.899 57.7103 298.913 57.841 298.932C57.8596 299.063 57.8736 299.193 57.883 299.324C57.9016 299.455 57.911 299.585 57.911 299.716C57.911 299.847 57.9016 299.977 57.883 300.108C57.8736 300.239 57.8596 300.369 57.841 300.5C57.7103 300.519 57.5796 300.533 57.449 300.542C57.3276 300.551 57.2016 300.556 57.071 300.556C56.9403 300.556 56.8096 300.551 56.679 300.542C56.5483 300.533 56.4176 300.519 56.287 300.5ZM59.6639 300.5C59.6452 300.369 59.6266 300.243 59.6079 300.122C59.5986 299.991 59.5939 299.861 59.5939 299.73C59.5939 299.599 59.5986 299.469 59.6079 299.338C59.6266 299.198 59.6452 299.063 59.6639 298.932C59.7946 298.913 59.9206 298.899 60.0419 298.89C60.1726 298.881 60.3032 298.876 60.4339 298.876C60.5646 298.876 60.6952 298.881 60.8259 298.89C60.9566 298.899 61.0872 298.913 61.2179 298.932C61.2366 299.063 61.2506 299.193 61.2599 299.324C61.2786 299.455 61.2879 299.585 61.2879 299.716C61.2879 299.847 61.2786 299.977 61.2599 300.108C61.2506 300.239 61.2366 300.369 61.2179 300.5C61.0872 300.519 60.9566 300.533 60.8259 300.542C60.7046 300.551 60.5786 300.556 60.4479 300.556C60.3172 300.556 60.1866 300.551 60.0559 300.542C59.9252 300.533 59.7946 300.519 59.6639 300.5Z" fill="#AEAEAF"/>
<rect x="89.5" y="340" width="153" height="33" rx="8" fill="#0B2C4C"/>
<path d="M148.165 351.153H153.469C153.521 351.413 153.547 351.677 153.547 351.946C153.547 352.232 153.521 352.505 153.469 352.765H150.063V354.793H152.767C152.819 355.07 152.845 355.339 152.845 355.599C152.845 355.876 152.819 356.149 152.767 356.418H150.063V358.888H153.56C153.612 359.148 153.638 359.412 153.638 359.681C153.638 359.967 153.612 360.24 153.56 360.5H148.165V351.153ZM155.072 353.779C155.193 353.753 155.314 353.736 155.436 353.727C155.557 353.71 155.691 353.701 155.839 353.701C155.986 353.701 156.116 353.71 156.229 353.727C156.341 353.736 156.458 353.753 156.58 353.779C156.606 353.822 156.627 353.887 156.645 353.974C156.671 354.052 156.692 354.139 156.71 354.234C156.727 354.321 156.74 354.407 156.749 354.494C156.766 354.581 156.779 354.654 156.788 354.715C156.874 354.585 156.978 354.455 157.1 354.325C157.221 354.195 157.36 354.078 157.516 353.974C157.68 353.87 157.862 353.788 158.062 353.727C158.261 353.658 158.482 353.623 158.725 353.623C159.487 353.623 160.059 353.831 160.441 354.247C160.831 354.663 161.026 355.317 161.026 356.21V360.5C160.714 360.552 160.406 360.578 160.103 360.578C159.799 360.578 159.492 360.552 159.18 360.5V356.704C159.18 356.236 159.106 355.876 158.959 355.625C158.82 355.374 158.573 355.248 158.218 355.248C158.07 355.248 157.919 355.27 157.763 355.313C157.607 355.356 157.464 355.443 157.334 355.573C157.212 355.694 157.113 355.868 157.035 356.093C156.957 356.318 156.918 356.613 156.918 356.977V360.5C156.606 360.552 156.298 360.578 155.995 360.578C155.691 360.578 155.384 360.552 155.072 360.5V353.779ZM161.73 353.792C161.938 353.749 162.128 353.723 162.302 353.714C162.484 353.705 162.64 353.701 162.77 353.701C162.943 353.701 163.116 353.705 163.29 353.714C163.463 353.723 163.623 353.744 163.771 353.779L165.24 358.784L166.683 353.779C166.83 353.753 166.986 353.736 167.151 353.727C167.315 353.71 167.48 353.701 167.645 353.701C167.775 353.701 167.922 353.705 168.087 353.714C168.26 353.723 168.455 353.749 168.672 353.792L166.124 360.5C165.959 360.526 165.786 360.543 165.604 360.552C165.422 360.561 165.27 360.565 165.149 360.565C165.019 360.565 164.871 360.561 164.707 360.552C164.542 360.543 164.386 360.522 164.239 360.487L161.73 353.792ZM170.01 355.183H169.139C169.113 355.07 169.091 354.953 169.074 354.832C169.065 354.702 169.061 354.581 169.061 354.468C169.061 354.234 169.087 354.004 169.139 353.779H171.817V360.5C171.505 360.552 171.202 360.578 170.907 360.578C170.621 360.578 170.322 360.552 170.01 360.5V355.183ZM169.737 352.648C169.685 352.353 169.659 352.063 169.659 351.777C169.659 351.5 169.685 351.209 169.737 350.906C169.884 350.88 170.04 350.863 170.205 350.854C170.378 350.837 170.534 350.828 170.673 350.828C170.82 350.828 170.981 350.837 171.154 350.854C171.327 350.863 171.488 350.88 171.635 350.906C171.661 351.053 171.678 351.201 171.687 351.348C171.696 351.487 171.7 351.63 171.7 351.777C171.7 351.916 171.696 352.059 171.687 352.206C171.678 352.353 171.661 352.501 171.635 352.648C171.488 352.674 171.327 352.691 171.154 352.7C170.989 352.709 170.833 352.713 170.686 352.713C170.547 352.713 170.391 352.709 170.218 352.7C170.045 352.691 169.884 352.674 169.737 352.648ZM176.986 357.419C176.882 357.402 176.77 357.389 176.648 357.38C176.527 357.363 176.419 357.354 176.323 357.354C175.899 357.354 175.561 357.432 175.309 357.588C175.067 357.735 174.945 357.978 174.945 358.316C174.945 358.541 174.993 358.715 175.088 358.836C175.184 358.957 175.296 359.048 175.426 359.109C175.565 359.161 175.708 359.196 175.855 359.213C176.011 359.222 176.146 359.226 176.258 359.226C176.388 359.226 176.518 359.217 176.648 359.2C176.778 359.174 176.891 359.152 176.986 359.135V357.419ZM176.986 356.08C176.986 355.872 176.952 355.703 176.882 355.573C176.813 355.443 176.718 355.343 176.596 355.274C176.475 355.196 176.323 355.144 176.141 355.118C175.968 355.092 175.773 355.079 175.556 355.079C175.088 355.079 174.59 355.17 174.061 355.352C173.94 355.127 173.849 354.914 173.788 354.715C173.728 354.516 173.697 354.277 173.697 354C174.079 353.87 174.46 353.775 174.841 353.714C175.223 353.653 175.578 353.623 175.907 353.623C176.809 353.623 177.511 353.84 178.013 354.273C178.525 354.706 178.78 355.4 178.78 356.353V360.253C178.477 360.348 178.109 360.439 177.675 360.526C177.242 360.613 176.752 360.656 176.206 360.656C175.764 360.656 175.357 360.617 174.984 360.539C174.62 360.461 174.304 360.331 174.035 360.149C173.775 359.967 173.572 359.733 173.424 359.447C173.286 359.161 173.216 358.81 173.216 358.394C173.216 357.978 173.303 357.631 173.476 357.354C173.658 357.068 173.888 356.843 174.165 356.678C174.451 356.505 174.768 356.383 175.114 356.314C175.461 356.236 175.808 356.197 176.154 356.197C176.406 356.197 176.683 356.21 176.986 356.236V356.08ZM180.424 353.779C180.554 353.753 180.675 353.736 180.788 353.727C180.909 353.71 181.039 353.701 181.178 353.701C181.308 353.701 181.434 353.71 181.555 353.727C181.685 353.744 181.811 353.766 181.932 353.792C181.958 353.835 181.98 353.9 181.997 353.987C182.023 354.065 182.045 354.152 182.062 354.247C182.079 354.334 182.092 354.425 182.101 354.52C182.118 354.607 182.131 354.68 182.14 354.741C182.331 354.472 182.565 354.234 182.842 354.026C183.119 353.809 183.466 353.701 183.882 353.701C183.969 353.701 184.068 353.705 184.181 353.714C184.294 353.723 184.376 353.736 184.428 353.753C184.445 353.84 184.458 353.939 184.467 354.052C184.476 354.165 184.48 354.282 184.48 354.403C184.48 354.55 184.471 354.711 184.454 354.884C184.445 355.057 184.424 355.222 184.389 355.378C184.294 355.361 184.185 355.352 184.064 355.352C183.951 355.352 183.882 355.352 183.856 355.352C183.709 355.352 183.544 355.369 183.362 355.404C183.18 355.43 183.007 355.508 182.842 355.638C182.677 355.768 182.539 355.963 182.426 356.223C182.322 356.483 182.27 356.847 182.27 357.315V360.513C182.114 360.539 181.958 360.556 181.802 360.565C181.646 360.574 181.494 360.578 181.347 360.578C181.2 360.578 181.048 360.574 180.892 360.565C180.745 360.556 180.589 360.539 180.424 360.513V353.779Z" fill="white"/>
</svg>
