<svg width="181" height="134" viewBox="0 0 181 134" fill="none" xmlns="http://www.w3.org/2000/svg">
<path d="M181 14.4874V120.969C168.328 129.018 152.706 133.769 135.801 133.769C118.896 133.769 102.441 129.018 89.7769 120.969C76.3692 111.347 59.1704 105.567 40.4192 105.567C25.6062 105.567 11.7654 109.17 0 115.431V14.4874C0 6.48848 7.46779 0 16.6841 0H164.308C173.165 0 180.412 5.99209 180.959 13.5584C180.992 13.8634 181 14.1754 181 14.4874Z" fill="url(#paint0_linear_309_6785)"/>
<path d="M181 118.898C168.277 110.708 152.593 105.866 135.62 105.866C118.648 105.866 101.479 111.17 88.4525 120.081C88.7724 120.305 89.0924 120.521 89.4041 120.745C102.119 128.934 118.648 133.769 135.612 133.769C152.576 133.769 168.269 128.934 180.992 120.745V118.898H181Z" fill="url(#paint1_linear_309_6785)"/>
<ellipse opacity="0.55" cx="42.1787" cy="42.2644" rx="42.1787" ry="42.2644" fill="url(#paint2_linear_309_6785)"/>
<defs>
<linearGradient id="paint0_linear_309_6785" x1="199.254" y1="66.8845" x2="-91.0656" y2="66.8845" gradientUnits="userSpaceOnUse">
<stop offset="0.06" stop-color="#1081C5"/>
<stop offset="0.5" stop-color="#475AA7"/>
<stop offset="0.91" stop-color="#78398D"/>
</linearGradient>
<linearGradient id="paint1_linear_309_6785" x1="190.333" y1="119.818" x2="41.8896" y2="119.818" gradientUnits="userSpaceOnUse">
<stop offset="0.06" stop-color="#1081C5"/>
<stop offset="0.5" stop-color="#475AA7"/>
<stop offset="0.91" stop-color="#78398D"/>
</linearGradient>
<linearGradient id="paint2_linear_309_6785" x1="92.8648" y1="42.2644" x2="-42.4423" y2="42.2644" gradientUnits="userSpaceOnUse">
<stop offset="0.06" stop-color="#1081C5"/>
<stop offset="0.5" stop-color="#475AA7"/>
<stop offset="0.91" stop-color="#78398D"/>
</linearGradient>
</defs>
</svg>
