<svg width="35" height="34" viewBox="0 0 35 34" fill="none" xmlns="http://www.w3.org/2000/svg">
<g clip-path="url(#clip0_222_5895)">
<path d="M33.6859 21.6843C33.4722 21.2568 33.4216 21.3749 26.4353 21.3749C26.4353 7.11554 26.4972 7.31242 26.3791 7.08179C26.3116 6.93554 26.6603 7.30679 21.7722 2.41304C21.5134 2.15992 22.1547 2.24992 5.6228 2.24992C5.47362 2.24992 5.33054 2.30918 5.22506 2.41467C5.11957 2.52016 5.0603 2.66323 5.0603 2.81242V10.1249H2.8103C2.66112 10.1249 2.51804 10.1842 2.41256 10.2897C2.30707 10.3952 2.2478 10.5382 2.2478 10.6874V18.5624C2.2478 18.7116 2.30707 18.8547 2.41256 18.9602C2.51804 19.0657 2.66112 19.1249 2.8103 19.1249H5.0603V30.9374C5.0603 31.0866 5.11957 31.2297 5.22506 31.3352C5.33054 31.4407 5.47362 31.4999 5.6228 31.4999H14.6228V33.1874C14.6228 33.3366 14.6821 33.4797 14.7876 33.5852C14.893 33.6907 15.0361 33.7499 15.1853 33.7499H33.1853C33.3345 33.7499 33.4776 33.6907 33.583 33.5852C33.6885 33.4797 33.7478 33.3366 33.7478 33.1874C33.7478 21.4312 33.7759 21.8587 33.6859 21.6843ZM30.8003 22.4999L24.1853 25.8074L17.5703 22.4999H30.8003ZM24.5172 6.74992H21.9353V4.16804L24.5172 6.74992ZM3.3728 11.2499H13.4978V17.9999H3.3728V11.2499ZM6.1853 30.3749V19.1249H14.0603C14.2095 19.1249 14.3526 19.0657 14.4581 18.9602C14.5635 18.8547 14.6228 18.7116 14.6228 18.5624V10.6874C14.6228 10.5382 14.5635 10.3952 14.4581 10.2897C14.3526 10.1842 14.2095 10.1249 14.0603 10.1249H6.1853V3.37492H20.8103V7.31242C20.8103 7.4616 20.8696 7.60468 20.9751 7.71017C21.0805 7.81566 21.2236 7.87492 21.3728 7.87492H25.3103V21.3749C14.9997 21.3749 14.9041 21.2455 14.6847 21.6843C14.5891 21.8699 14.6228 21.4987 14.6228 30.3749H6.1853ZM15.7478 32.6249V22.8487C24.6691 27.3093 23.9884 26.9999 24.1853 26.9999C24.3822 26.9999 23.7522 27.2812 32.6228 22.8487V32.6249H15.7478Z" fill="#0B2C4C"/>
<path d="M30.436 20.5821C30.4884 20.6538 30.557 20.712 30.6362 20.7521C30.7153 20.7922 30.8029 20.813 30.8916 20.8127C31.2573 20.8127 31.1842 20.8127 33.0685 18.3434C33.2373 18.124 33.1867 19.0409 33.1867 6.18774C33.1855 5.99142 33.1329 5.79882 33.0342 5.62909C32.9356 5.45936 32.7942 5.31841 32.6242 5.22024V3.93774C32.6242 3.49019 32.4464 3.06097 32.1299 2.7445C31.8134 2.42803 31.3842 2.25024 30.9367 2.25024C30.4891 2.25024 30.0599 2.42803 29.7434 2.7445C29.4269 3.06097 29.2492 3.49019 29.2492 3.93774V5.22024C29.0791 5.31841 28.9377 5.45936 28.8391 5.62909C28.7404 5.79882 28.6878 5.99142 28.6867 6.18774C28.6867 19.1252 28.6416 18.1184 28.7935 18.3321L30.436 20.5821ZM32.0617 17.809L30.9029 19.3109L29.8117 17.8146V6.18774H32.0617V17.809ZM30.3742 3.93774C30.3742 3.78856 30.4334 3.64549 30.5389 3.54C30.6444 3.43451 30.7875 3.37524 30.9367 3.37524C31.0858 3.37524 31.2289 3.43451 31.3344 3.54C31.4399 3.64549 31.4992 3.78856 31.4992 3.93774V5.06274H30.3742V3.93774Z" fill="#0B2C4C"/>
<path d="M7.87354 14.0623C7.87354 13.7285 7.77457 13.4022 7.58914 13.1247C7.40372 12.8472 7.14016 12.6309 6.83181 12.5032C6.52346 12.3755 6.18416 12.3421 5.85682 12.4072C5.52948 12.4723 5.22879 12.633 4.99279 12.869C4.75679 13.105 4.59607 13.4057 4.53096 13.733C4.46585 14.0604 4.49927 14.3997 4.62699 14.708C4.75471 15.0164 4.971 15.2799 5.24851 15.4654C5.52602 15.6508 5.85228 15.7498 6.18604 15.7498C6.63359 15.7498 7.06281 15.572 7.37928 15.2555C7.69575 14.939 7.87354 14.5098 7.87354 14.0623ZM5.62354 14.0623C5.62354 13.9131 5.6828 13.77 5.78829 13.6645C5.89378 13.559 6.03685 13.4998 6.18604 13.4998C6.33522 13.4998 6.47829 13.559 6.58378 13.6645C6.68927 13.77 6.74854 13.9131 6.74854 14.0623C6.74854 14.2114 6.68927 14.3545 6.58378 14.46C6.47829 14.5655 6.33522 14.6248 6.18604 14.6248C6.03685 14.6248 5.89378 14.5655 5.78829 14.46C5.6828 14.3545 5.62354 14.2114 5.62354 14.0623Z" fill="#0B2C4C"/>
<path d="M9.56055 15.1875H11.8105C11.9597 15.1875 12.1028 15.1282 12.2083 15.0227C12.3138 14.9173 12.373 14.7742 12.373 14.625C12.373 14.4758 12.3138 14.3327 12.2083 14.2273C12.1028 14.1218 11.9597 14.0625 11.8105 14.0625H9.56055C9.41136 14.0625 9.26829 14.1218 9.1628 14.2273C9.05731 14.3327 8.99805 14.4758 8.99805 14.625C8.99805 14.7742 9.05731 14.9173 9.1628 15.0227C9.26829 15.1282 9.41136 15.1875 9.56055 15.1875Z" fill="#0B2C4C"/>
<path d="M9.56055 16.875H11.8105C11.9597 16.875 12.1028 16.8157 12.2083 16.7102C12.3138 16.6048 12.373 16.4617 12.373 16.3125C12.373 16.1633 12.3138 16.0202 12.2083 15.9148C12.1028 15.8093 11.9597 15.75 11.8105 15.75H9.56055C9.41136 15.75 9.26829 15.8093 9.1628 15.9148C9.05731 16.0202 8.99805 16.1633 8.99805 16.3125C8.99805 16.4617 9.05731 16.6048 9.1628 16.7102C9.26829 16.8157 9.41136 16.875 9.56055 16.875Z" fill="#0B2C4C"/>
<path d="M10.1228 4.5C9.6778 4.5 9.24278 4.63196 8.87277 4.87919C8.50276 5.12643 8.21437 5.47783 8.04407 5.88896C7.87378 6.3001 7.82922 6.7525 7.91604 7.18895C8.00285 7.62541 8.21715 8.02632 8.53181 8.34099C8.84648 8.65566 9.24739 8.86995 9.68385 8.95677C10.1203 9.04358 10.5727 8.99903 10.9838 8.82873C11.395 8.65843 11.7464 8.37004 11.9936 8.00003C12.2408 7.63002 12.3728 7.19501 12.3728 6.75C12.3728 6.15326 12.1358 5.58097 11.7138 5.15901C11.2918 4.73705 10.7195 4.5 10.1228 4.5ZM10.1228 7.875C9.9003 7.875 9.68279 7.80902 9.49779 7.6854C9.31278 7.56179 9.16859 7.38609 9.08344 7.18052C8.99829 6.97495 8.97601 6.74875 9.01942 6.53052C9.06283 6.31229 9.16997 6.11184 9.32731 5.9545C9.48464 5.79717 9.6851 5.69002 9.90333 5.64662C10.1216 5.60321 10.3478 5.62549 10.5533 5.71064C10.7589 5.79578 10.9346 5.93998 11.0582 6.12498C11.1818 6.30999 11.2478 6.5275 11.2478 6.75C11.2478 7.04837 11.1293 7.33452 10.9183 7.54549C10.7073 7.75647 10.4212 7.875 10.1228 7.875Z" fill="#0B2C4C"/>
<path d="M14.0603 6.1875H19.1228C19.272 6.1875 19.4151 6.12824 19.5206 6.02275C19.626 5.91726 19.6853 5.77418 19.6853 5.625C19.6853 5.47582 19.626 5.33274 19.5206 5.22725C19.4151 5.12176 19.272 5.0625 19.1228 5.0625H14.0603C13.9111 5.0625 13.768 5.12176 13.6626 5.22725C13.5571 5.33274 13.4978 5.47582 13.4978 5.625C13.4978 5.77418 13.5571 5.91726 13.6626 6.02275C13.768 6.12824 13.9111 6.1875 14.0603 6.1875Z" fill="#0B2C4C"/>
<path d="M16.8726 7.3125H14.0601C13.9109 7.3125 13.7678 7.37176 13.6623 7.47725C13.5568 7.58274 13.4976 7.72582 13.4976 7.875C13.4976 8.02418 13.5568 8.16726 13.6623 8.27275C13.7678 8.37824 13.9109 8.4375 14.0601 8.4375H16.8726C17.0217 8.4375 17.1648 8.37824 17.2703 8.27275C17.3758 8.16726 17.4351 8.02418 17.4351 7.875C17.4351 7.72582 17.3758 7.58274 17.2703 7.47725C17.1648 7.37176 17.0217 7.3125 16.8726 7.3125Z" fill="#0B2C4C"/>
<path d="M18.8425 27.5625C18.4531 27.5625 18.0725 27.678 17.7488 27.8943C17.425 28.1106 17.1727 28.4181 17.0236 28.7778C16.8746 29.1376 16.8356 29.5334 16.9116 29.9153C16.9876 30.2972 17.1751 30.648 17.4504 30.9234C17.7257 31.1987 18.0765 31.3862 18.4584 31.4622C18.8403 31.5381 19.2362 31.4991 19.5959 31.3501C19.9557 31.2011 20.2632 30.9488 20.4795 30.625C20.6958 30.3013 20.8113 29.9206 20.8113 29.5312C20.8113 29.0091 20.6039 28.5083 20.2346 28.1391C19.8654 27.7699 19.3647 27.5625 18.8425 27.5625ZM18.8425 30.375C18.6188 30.375 18.4041 30.2861 18.2459 30.1279C18.0877 29.9696 17.9988 29.755 17.9988 29.5312C17.9988 29.3075 18.0877 29.0929 18.2459 28.9346C18.4041 28.7764 18.6188 28.6875 18.8425 28.6875C19.0663 28.6875 19.2809 28.7764 19.4392 28.9346C19.5974 29.0929 19.6863 29.3075 19.6863 29.5312C19.6863 29.755 19.5974 29.9696 19.4392 30.1279C19.2809 30.2861 19.0663 30.375 18.8425 30.375Z" fill="#0B2C4C"/>
<path d="M27.5613 28.1251H22.4988C22.3496 28.1251 22.2065 28.1844 22.101 28.2899C21.9955 28.3954 21.9363 28.5384 21.9363 28.6876C21.9363 28.8368 21.9955 28.9799 22.101 29.0854C22.2065 29.1909 22.3496 29.2501 22.4988 29.2501H27.5613C27.7105 29.2501 27.8535 29.1909 27.959 29.0854C28.0645 28.9799 28.1238 28.8368 28.1238 28.6876C28.1238 28.5384 28.0645 28.3954 27.959 28.2899C27.8535 28.1844 27.7105 28.1251 27.5613 28.1251Z" fill="#0B2C4C"/>
<path d="M25.3113 30.375H22.4988C22.3496 30.375 22.2065 30.4343 22.101 30.5398C21.9955 30.6452 21.9363 30.7883 21.9363 30.9375C21.9363 31.0867 21.9955 31.2298 22.101 31.3352C22.2065 31.4407 22.3496 31.5 22.4988 31.5H25.3113C25.4605 31.5 25.6035 31.4407 25.709 31.3352C25.8145 31.2298 25.8738 31.0867 25.8738 30.9375C25.8738 30.7883 25.8145 30.6452 25.709 30.5398C25.6035 30.4343 25.4605 30.375 25.3113 30.375Z" fill="#0B2C4C"/>
</g>
<defs>
<clipPath id="clip0_222_5895">
<rect width="35" height="34" fill="white"/>
</clipPath>
</defs>
</svg>
