<svg width="35" height="34" viewBox="0 0 35 34" fill="none" xmlns="http://www.w3.org/2000/svg">
<path d="M26.149 14.7183V8.28391C26.149 8.09974 26.0589 7.92957 25.9314 7.79494L18.2932 0.219711C18.1506 0.0780791 17.9479 0 17.7455 0H5.63531C3.39959 0 1.61377 1.72189 1.61377 3.83366V25.4611C1.61377 27.5728 3.39959 29.2664 5.63531 29.2664H15.1945C17.0026 32.1009 20.2891 34 24.033 34C29.7203 34 34.3648 29.6348 34.3648 24.2564C34.3725 19.5582 30.8008 15.6324 26.149 14.7183ZM18.4959 2.48738L23.6205 7.58223H20.2965C19.3061 7.58223 18.4959 6.81 18.4959 5.87461V2.48738ZM5.63531 27.8491C4.23236 27.8491 3.1145 26.7861 3.1145 25.4611V3.83366C3.1145 2.50139 4.23236 1.41736 5.63531 1.41736H16.9952V5.87461C16.9952 7.5965 18.4734 8.99959 20.2965 8.99959H24.6482V14.5339C24.4233 14.5269 24.2431 14.5056 24.0481 14.5056C21.4295 14.5056 19.021 15.4553 17.2053 16.9434H7.67629C7.26348 16.9434 6.92593 17.2622 6.92593 17.6518C6.92593 18.0417 7.26348 18.3605 7.67629 18.3605H15.8097C15.2769 19.0692 14.8341 19.7779 14.4892 20.5574H7.67629C7.26348 20.5574 6.92593 20.8762 6.92593 21.2661C6.92593 21.6557 7.26348 21.9747 7.67629 21.9747H14.0014C13.8138 22.6834 13.7163 23.4699 13.7163 24.2564C13.7163 25.5319 13.9789 26.7933 14.4515 27.8563H5.63531V27.8491ZM24.0407 32.5899C19.1787 32.5899 15.2244 28.8553 15.2244 24.2634C15.2244 19.6715 19.171 15.937 24.0407 15.937C28.9101 15.937 32.8566 19.6715 32.8566 24.2634C32.8566 28.8553 28.9027 32.5899 24.0407 32.5899Z" fill="#0B2C4C"/>
<path d="M7.67493 14.8086H15.2755C15.6883 14.8086 16.0259 14.4895 16.0259 14.0999C16.0259 13.71 15.6883 13.3912 15.2755 13.3912H7.67493C7.26211 13.3912 6.92456 13.71 6.92456 14.0999C6.92456 14.4895 7.26211 14.8086 7.67493 14.8086Z" fill="#0B2C4C"/>
<path d="M27.8812 24.1138L24.7976 27.2531V19.515C24.7976 19.1251 24.4597 18.8063 24.0472 18.8063C23.6344 18.8063 23.2968 19.1251 23.2968 19.515V27.2531L20.1905 24.1138C19.9054 23.8306 19.4253 23.8093 19.1251 24.0786C18.8249 24.3478 18.8023 24.7942 19.0877 25.0778L23.477 29.535C23.6196 29.6767 23.8146 29.7617 24.0247 29.7617C24.2348 29.7617 24.4298 29.6767 24.5724 29.535L28.9694 25.0778C29.2545 24.7942 29.2393 24.3408 28.9391 24.0786C28.6315 23.8093 28.1665 23.8306 27.8812 24.1138Z" fill="#0B2C4C"/>
</svg>
