<svg width="35" height="34" viewBox="0 0 35 34" fill="none" xmlns="http://www.w3.org/2000/svg">
<g clip-path="url(#clip0_222_5949)">
<path d="M31.6865 24.6479C31.3969 24.6479 31.1622 24.4262 31.1622 24.1527V8.07207C31.1622 7.5854 30.7432 7.18964 30.2278 7.18964H5.76735C5.25219 7.18964 4.83315 7.5854 4.83315 8.07207V24.1527C4.83315 24.4262 4.59843 24.6479 4.30885 24.6479C4.01927 24.6479 3.78455 24.4262 3.78455 24.1527V8.07207C3.78455 7.03956 4.67403 6.19922 5.76743 6.19922H30.2278C31.3214 6.19922 32.2109 7.03949 32.2109 8.07207V24.1527C32.2108 24.4261 31.9761 24.6479 31.6865 24.6479Z" fill="#0B2C4C"/>
<path d="M32.7478 27.7966H3.24839C2.44876 27.7966 1.7981 27.1823 1.7981 26.4267V25.0262C1.7981 24.2706 2.44883 23.6562 3.24839 23.6562H9.57892C9.8685 23.6562 10.1032 23.8779 10.1032 24.1515V24.5577H25.8929V24.1515C25.8929 23.878 26.1276 23.6562 26.4172 23.6562H32.7477C33.5473 23.6562 34.198 24.2706 34.198 25.0262V26.4267C34.1981 27.1823 33.5474 27.7966 32.7478 27.7966ZM3.24839 24.6467C3.02699 24.6467 2.84678 24.8169 2.84678 25.0262V26.4267C2.84678 26.6359 3.02699 26.8062 3.24839 26.8062H32.7478C32.9691 26.8062 33.1494 26.6359 33.1494 26.4267V25.0262C33.1494 24.8169 32.9691 24.6467 32.7478 24.6467H26.9416V25.0529C26.9416 25.3264 26.7069 25.5481 26.4173 25.5481H9.57892C9.28934 25.5481 9.05454 25.3265 9.05454 25.0529V24.6467H3.24839Z" fill="#0B2C4C"/>
<path d="M4.30912 22.4825C4.15324 22.4825 3.99924 22.4172 3.89584 22.2925C3.71743 22.077 3.75753 21.7656 3.9857 21.5973L4.83415 20.9705C5.5049 20.4745 5.94648 19.7638 6.07716 18.9688C6.27501 17.7683 7.01625 16.7141 8.1108 16.0769L11.2774 14.2314C12.1551 13.72 13.3105 13.9784 13.8518 14.8071C14.1142 15.2086 14.1952 15.6826 14.0802 16.1418C13.965 16.601 13.6674 16.9906 13.242 17.2382L11.3436 18.3447C11.0976 18.4894 10.7742 18.4163 10.622 18.1833C10.47 17.9508 10.5464 17.6455 10.7931 17.502L12.6915 16.3956C12.8783 16.2864 13.0092 16.1155 13.0598 15.9139C13.1103 15.712 13.0748 15.5034 12.9592 15.3269C12.7215 14.9625 12.2141 14.8495 11.828 15.0739L8.66131 16.9193C7.82812 17.4048 7.26408 18.2072 7.11352 19.1211C6.94166 20.1653 6.36163 21.0988 5.48028 21.7502L4.63168 22.3771C4.53585 22.448 4.42195 22.4825 4.30912 22.4825Z" fill="#0B2C4C"/>
<path d="M17.578 25.5481C17.4024 25.5481 17.2304 25.4645 17.1313 25.3129C16.9793 25.0799 17.0559 24.775 17.3023 24.6315L18.9929 23.6465C19.2889 23.474 19.4078 23.123 19.2581 22.865C19.1782 22.7269 19.046 22.6286 18.8857 22.5888C18.7258 22.5489 18.56 22.5718 18.4194 22.6537C18.1734 22.7985 17.85 22.7253 17.6976 22.4924C17.5456 22.2599 17.622 21.9546 17.8684 21.8111C17.8686 21.8111 18.3692 21.5194 18.3692 21.5194C18.7331 21.307 18.8779 20.8737 18.6922 20.5526C18.5931 20.3816 18.4292 20.2597 18.2308 20.2101C18.0321 20.161 17.8269 20.1897 17.652 20.2902C17.4047 20.4358 17.0813 20.3626 16.9292 20.1298C16.7772 19.8968 16.8538 19.5919 17.1002 19.4484L17.7237 19.0851C18.0876 18.8728 18.2327 18.4391 18.0469 18.1183C17.9478 17.947 17.7837 17.8254 17.5848 17.7759C17.3874 17.726 17.1807 17.7551 17.0056 17.8569C16.7595 18.0011 16.4364 17.9284 16.284 17.6955C16.1318 17.463 16.2082 17.1577 16.4547 17.0142C16.4566 17.013 20.7386 14.5176 20.7386 14.5176C21.1026 14.3052 21.2476 13.8716 21.0618 13.5508C20.9628 13.3798 20.7987 13.2579 20.5999 13.2084C20.4009 13.1589 20.1954 13.1875 20.0203 13.2893L11.3444 18.345C11.0985 18.4897 10.775 18.4166 10.6228 18.1837C10.4708 17.9512 10.5472 17.6459 10.7939 17.5024L19.4698 12.4466C19.8858 12.2041 20.3954 12.1333 20.8684 12.2509C21.3478 12.3708 21.7431 12.6637 21.9819 13.0757C22.4385 13.8646 22.1343 14.8681 21.2893 15.3602L18.3937 17.0479C18.6297 17.1972 18.8259 17.3991 18.967 17.6433C19.2908 18.2027 19.2318 18.8705 18.8685 19.3869C19.181 19.5401 19.4384 19.7769 19.6124 20.0775C19.9278 20.6219 19.8803 21.2691 19.5427 21.7794C19.8082 21.9202 20.0273 22.1288 20.1783 22.3895C20.5984 23.1145 20.3196 24.0368 19.5438 24.4891L17.853 25.4741C17.767 25.5245 17.672 25.5481 17.578 25.5481Z" fill="#0B2C4C"/>
<path d="M12.8211 20.2093C12.6454 20.2093 12.4735 20.1258 12.3744 19.9741C12.2224 19.7413 12.2989 19.4364 12.5454 19.2928L16.4535 17.0157C16.6999 16.8714 17.0231 16.9444 17.1751 17.1769C17.3271 17.4098 17.2505 17.7148 17.0041 17.8583L13.0959 20.1355C13.0101 20.1857 12.915 20.2093 12.8211 20.2093Z" fill="#0B2C4C"/>
<path d="M15.8852 21.2344C15.7095 21.2344 15.5376 21.1509 15.4385 20.9992C15.2865 20.7662 15.3631 20.4614 15.6095 20.3179L17.1007 19.4489C17.3472 19.305 17.6701 19.3777 17.8223 19.6103C17.9743 19.8433 17.8977 20.148 17.6513 20.2916L16.16 21.1605C16.0742 21.2107 15.9792 21.2344 15.8852 21.2344Z" fill="#0B2C4C"/>
<path d="M16.8496 23.484C16.6738 23.484 16.502 23.4004 16.4028 23.2487C16.2508 23.0158 16.3274 22.711 16.5739 22.5674L17.87 21.8122C18.1165 21.6683 18.4393 21.741 18.5915 21.9736C18.7435 22.2065 18.6669 22.5113 18.4205 22.6549L17.1244 23.4101C17.0386 23.4604 16.9435 23.484 16.8496 23.484Z" fill="#0B2C4C"/>
<path d="M21.2936 16.5772C20.6878 16.5772 20.0916 16.4275 19.5692 16.1443C19.3181 16.008 19.2315 15.7056 19.3757 15.4684C19.52 15.2312 19.8409 15.1504 20.0915 15.2854C20.455 15.4827 20.8708 15.5868 21.2935 15.5868C22.6285 15.5868 23.7145 14.5612 23.7145 13.3003C23.7145 12.0395 22.6286 11.0139 21.2935 11.0139C19.9585 11.0139 18.8725 12.0395 18.8725 13.3003C18.8725 13.4028 18.8795 13.5042 18.8935 13.6036C18.9314 13.8749 18.7292 14.1236 18.4423 14.1592C18.1541 14.1987 17.8917 14.0041 17.8538 13.7329C17.8339 13.5909 17.8239 13.4454 17.8239 13.3003C17.8239 11.4936 19.3803 10.0234 21.2935 10.0234C23.2067 10.0234 24.7631 11.4936 24.7631 13.3003C24.7632 15.107 23.2068 16.5772 21.2936 16.5772Z" fill="#0B2C4C"/>
<path d="M21.2955 18.6913C21.0059 18.6913 20.7712 18.4696 20.7712 18.196C20.7712 17.9225 21.0059 17.7009 21.2955 17.7009C23.8656 17.7009 25.9563 15.7258 25.9563 13.2985C25.9563 10.8713 23.8656 8.89667 21.2955 8.89667C18.9928 8.89667 17.0095 10.5169 16.6822 12.6656C16.6408 12.936 16.3732 13.1244 16.0886 13.0854C15.8019 13.0463 15.6031 12.7957 15.6442 12.5248C16.0452 9.89171 18.4747 7.90625 21.2955 7.90625C24.4438 7.90625 27.005 10.3253 27.005 13.2985C27.005 16.2721 24.4438 18.6913 21.2955 18.6913Z" fill="#0B2C4C"/>
<path d="M29.8557 22.8982H21.8973C21.6078 22.8982 21.373 22.6766 21.373 22.4029C21.373 22.1294 21.6078 21.9078 21.8973 21.9078H29.3313V20.7989H24.3978C24.1082 20.7989 23.8735 20.5773 23.8735 20.3038C23.8735 20.0303 24.1082 19.8086 24.3978 19.8086H29.8556C30.1452 19.8086 30.3798 20.0303 30.3798 20.3038V22.403C30.3799 22.6766 30.1452 22.8982 29.8557 22.8982Z" fill="#0B2C4C"/>
<path d="M14.1776 13.0453H6.2673C5.97771 13.0453 5.74292 12.8236 5.74292 12.5501V9.16681C5.74292 8.89331 5.97764 8.67163 6.2673 8.67163H14.1776C14.4672 8.67163 14.7019 8.89331 14.7019 9.16681C14.7019 9.4403 14.4672 9.66205 14.1776 9.66205H6.79167V12.0549H14.1776C14.4672 12.0549 14.702 12.2766 14.702 12.5501C14.702 12.8236 14.4672 13.0453 14.1776 13.0453Z" fill="#0B2C4C"/>
</g>
<defs>
<clipPath id="clip0_222_5949">
<rect width="35" height="34" fill="white"/>
</clipPath>
</defs>
</svg>
