<svg width="35" height="34" viewBox="0 0 35 34" fill="none" xmlns="http://www.w3.org/2000/svg">
<path d="M29.7724 32.3319H5.23408C4.33238 32.3305 3.46801 31.9819 2.83041 31.3625C2.19281 30.7431 1.83397 29.9034 1.83252 29.0275V28.1562C1.83252 28.0154 1.89014 27.8802 1.9927 27.7806C2.09525 27.681 2.23435 27.625 2.37939 27.625H32.6216C32.7666 27.625 32.9057 27.681 33.0083 27.7806C33.1108 27.8802 33.1685 28.0154 33.1685 28.1562V29.0328C33.167 29.9073 32.8087 30.7457 32.1722 31.364C31.5356 31.9824 30.6726 32.3305 29.7724 32.3319ZM2.92627 28.6875V29.0328C2.92627 29.6274 3.16941 30.1976 3.60221 30.6181C4.03501 31.0385 4.62201 31.2747 5.23408 31.2747H29.7724C30.3835 31.2733 30.9691 31.0365 31.4007 30.6162C31.8323 30.1959 32.0747 29.6265 32.0747 29.0328V28.6875H2.92627Z" fill="#0B2C4C"/>
<path d="M30.625 28.6875H4.40234C4.2573 28.6875 4.1182 28.6315 4.01564 28.5319C3.91309 28.4323 3.85547 28.2971 3.85547 28.1563V11.6875C3.85547 11.5466 3.91309 11.4115 4.01564 11.3118C4.1182 11.2122 4.2573 11.1562 4.40234 11.1562H8.23047C8.37551 11.1562 8.51461 11.2122 8.61717 11.3118C8.71973 11.4115 8.77734 11.5466 8.77734 11.6875C8.77734 11.8284 8.71973 11.9635 8.61717 12.0632C8.51461 12.1628 8.37551 12.2188 8.23047 12.2188H4.94922V27.625H30.0781V12.2188H26.7969C26.6518 12.2188 26.5127 12.1628 26.4102 12.0632C26.3076 11.9635 26.25 11.8284 26.25 11.6875C26.25 11.5466 26.3076 11.4115 26.4102 11.3118C26.5127 11.2122 26.6518 11.1562 26.7969 11.1562H30.625C30.77 11.1562 30.9091 11.2122 31.0117 11.3118C31.1143 11.4115 31.1719 11.5466 31.1719 11.6875V28.1563C31.1719 28.2971 31.1143 28.4323 31.0117 28.5319C30.9091 28.6315 30.77 28.6875 30.625 28.6875Z" fill="#0B2C4C"/>
<path d="M26.7471 25.1973H8.25183C8.10679 25.1973 7.96769 25.1414 7.86513 25.0417C7.76257 24.9421 7.70496 24.807 7.70496 24.6661V2.58203C7.70496 2.44114 7.76257 2.30601 7.86513 2.20638C7.96769 2.10675 8.10679 2.05078 8.25183 2.05078H23.5643C23.6406 2.05096 23.7161 2.06665 23.7858 2.09684C23.8555 2.12703 23.9179 2.17106 23.969 2.22609L27.1409 5.68984C27.2288 5.78669 27.2774 5.91134 27.2776 6.04047V24.6661C27.2777 24.8043 27.2223 24.937 27.1233 25.0362C27.0242 25.1354 26.8893 25.1932 26.7471 25.1973ZM8.79871 24.1348H26.2003V6.24234L23.3346 3.11328H8.79871V24.1348Z" fill="#0B2C4C"/>
<path d="M26.7487 6.73109H23.4674C23.3224 6.73109 23.1833 6.67512 23.0807 6.57549C22.9781 6.47587 22.9205 6.34074 22.9205 6.19984V2.58203C22.9205 2.44114 22.9781 2.30601 23.0807 2.20638C23.1833 2.10675 23.3224 2.05078 23.4674 2.05078C23.6124 2.05078 23.7515 2.10675 23.8541 2.20638C23.9567 2.30601 24.0143 2.44114 24.0143 2.58203V5.66859H26.7487C26.8937 5.66859 27.0328 5.72457 27.1354 5.82419C27.2379 5.92382 27.2955 6.05895 27.2955 6.19984C27.2955 6.34074 27.2379 6.47587 27.1354 6.57549C27.0328 6.67512 26.8937 6.73109 26.7487 6.73109Z" fill="#0B2C4C"/>
<path d="M19.6881 30.5097H15.3131C14.8528 30.5083 14.4118 30.3297 14.0869 30.013C13.7619 29.6963 13.5795 29.2674 13.5795 28.8203V28.1562C13.5795 28.0154 13.6371 27.8802 13.7396 27.7806C13.8422 27.681 13.9813 27.625 14.1263 27.625C14.2714 27.625 14.4105 27.681 14.513 27.7806C14.6156 27.8802 14.6732 28.0154 14.6732 28.1562V28.8256C14.6746 28.99 14.7425 29.1473 14.8622 29.2636C14.9819 29.3799 15.1438 29.4458 15.3131 29.4472H19.6881C19.8592 29.4472 20.0233 29.3811 20.1444 29.2636C20.2654 29.146 20.3334 28.9866 20.3334 28.8203V28.1562C20.3334 28.0154 20.391 27.8802 20.4935 27.7806C20.5961 27.681 20.7352 27.625 20.8802 27.625C21.0253 27.625 21.1644 27.681 21.2669 27.7806C21.3695 27.8802 21.4271 28.0154 21.4271 28.1562V28.8256C21.4242 29.2723 21.2399 29.6998 20.9143 30.0152C20.5886 30.3306 20.1479 30.5083 19.6881 30.5097Z" fill="#0B2C4C"/>
<path d="M23.9033 9.79297H11.0134C10.8684 9.79297 10.7293 9.737 10.6267 9.63737C10.5242 9.53774 10.4666 9.40262 10.4666 9.26172C10.4666 9.12082 10.5242 8.9857 10.6267 8.88607C10.7293 8.78644 10.8684 8.73047 11.0134 8.73047H23.9033C24.0483 8.73047 24.1874 8.78644 24.29 8.88607C24.3925 8.9857 24.4501 9.12082 24.4501 9.26172C24.4501 9.40262 24.3925 9.53774 24.29 9.63737C24.1874 9.737 24.0483 9.79297 23.9033 9.79297Z" fill="#0B2C4C"/>
<path d="M23.9033 11.9141H11.0134C10.8684 11.9141 10.7293 11.8581 10.6267 11.7585C10.5242 11.6588 10.4666 11.5237 10.4666 11.3828C10.4666 11.2419 10.5242 11.1068 10.6267 11.0072C10.7293 10.9075 10.8684 10.8516 11.0134 10.8516H23.9033C24.0483 10.8516 24.1874 10.9075 24.29 11.0072C24.3925 11.1068 24.4501 11.2419 24.4501 11.3828C24.4501 11.5237 24.3925 11.6588 24.29 11.7585C24.1874 11.8581 24.0483 11.9141 23.9033 11.9141Z" fill="#0B2C4C"/>
<path d="M23.9033 14.0391H11.0134C10.8684 14.0391 10.7293 13.9831 10.6267 13.8835C10.5242 13.7838 10.4666 13.6487 10.4666 13.5078C10.4666 13.3669 10.5242 13.2318 10.6267 13.1322C10.7293 13.0325 10.8684 12.9766 11.0134 12.9766H23.9033C24.0483 12.9766 24.1874 13.0325 24.29 13.1322C24.3925 13.2318 24.4501 13.3669 24.4501 13.5078C24.4501 13.6487 24.3925 13.7838 24.29 13.8835C24.1874 13.9831 24.0483 14.0391 23.9033 14.0391Z" fill="#0B2C4C"/>
<path d="M23.9033 16.1641H11.0134C10.8684 16.1641 10.7293 16.1081 10.6267 16.0085C10.5242 15.9088 10.4666 15.7737 10.4666 15.6328C10.4666 15.4919 10.5242 15.3568 10.6267 15.2572C10.7293 15.1575 10.8684 15.1016 11.0134 15.1016H23.9033C24.0483 15.1016 24.1874 15.1575 24.29 15.2572C24.3925 15.3568 24.4501 15.4919 24.4501 15.6328C24.4501 15.7737 24.3925 15.9088 24.29 16.0085C24.1874 16.1081 24.0483 16.1641 23.9033 16.1641Z" fill="#0B2C4C"/>
<path d="M23.9033 18.2891H11.0134C10.8684 18.2891 10.7293 18.2331 10.6267 18.1335C10.5242 18.0338 10.4666 17.8987 10.4666 17.7578C10.4666 17.6169 10.5242 17.4818 10.6267 17.3822C10.7293 17.2825 10.8684 17.2266 11.0134 17.2266H23.9033C24.0483 17.2266 24.1874 17.2825 24.29 17.3822C24.3925 17.4818 24.4501 17.6169 24.4501 17.7578C24.4501 17.8987 24.3925 18.0338 24.29 18.1335C24.1874 18.2331 24.0483 18.2891 23.9033 18.2891Z" fill="#0B2C4C"/>
<path d="M23.904 20.4141H17.1282C16.9831 20.4141 16.844 20.3581 16.7415 20.2585C16.6389 20.1588 16.5813 20.0237 16.5813 19.8828C16.5813 19.7419 16.6389 19.6068 16.7415 19.5072C16.844 19.4075 16.9831 19.3516 17.1282 19.3516H23.904C24.049 19.3516 24.1881 19.4075 24.2907 19.5072C24.3932 19.6068 24.4508 19.7419 24.4508 19.8828C24.4508 20.0237 24.3932 20.1588 24.2907 20.2585C24.1881 20.3581 24.049 20.4141 23.904 20.4141Z" fill="#0B2C4C"/>
<path d="M23.9038 22.0078H17.1281C16.983 22.0078 16.8439 21.9518 16.7414 21.8522C16.6388 21.7526 16.5812 21.6175 16.5812 21.4766C16.5812 21.3357 16.6388 21.2005 16.7414 21.1009C16.8439 21.0013 16.983 20.9453 17.1281 20.9453H23.9038C24.0489 20.9453 24.188 21.0013 24.2905 21.1009C24.3931 21.2005 24.4507 21.3357 24.4507 21.4766C24.4507 21.6175 24.3931 21.7526 24.2905 21.8522C24.188 21.9518 24.0489 22.0078 23.9038 22.0078Z" fill="#0B2C4C"/>
</svg>
