<svg width="36" height="34" viewBox="0 0 36 34" fill="none" xmlns="http://www.w3.org/2000/svg">
<path d="M31.9388 20.2803C31.7415 19.9005 31.6948 20.0054 25.2468 20.0054C25.2468 7.33668 25.3039 7.51159 25.1949 7.30669C25.1326 7.17676 25.4545 7.50659 20.943 3.15874C20.7042 2.93385 21.296 3.01381 6.03782 3.01381C5.90013 3.01381 5.76808 3.06646 5.67072 3.16018C5.57336 3.25391 5.51866 3.38102 5.51866 3.51356V10.0104H3.44201C3.30432 10.0104 3.17227 10.063 3.07491 10.1567C2.97755 10.2505 2.92285 10.3776 2.92285 10.5101V17.5067C2.92285 17.6392 2.97755 17.7663 3.07491 17.86C3.17227 17.9538 3.30432 18.0064 3.44201 18.0064H5.51866V28.5012C5.51866 28.6338 5.57336 28.7609 5.67072 28.8546C5.76808 28.9483 5.90013 29.001 6.03782 29.001H14.3444V30.5002C14.3444 30.6328 14.3991 30.7599 14.4965 30.8536C14.5938 30.9473 14.7259 31 14.8636 31H31.4768C31.6145 31 31.7465 30.9473 31.8439 30.8536C31.9412 30.7599 31.9959 30.6328 31.9959 30.5002C31.9959 20.0554 32.0219 20.4352 31.9388 20.2803ZM29.2755 21.0049L23.1702 23.9435L17.0648 21.0049H29.2755ZM23.4765 7.01184H21.0935V4.71797L23.4765 7.01184ZM3.96118 11.0099H13.3061V17.0069H3.96118V11.0099ZM6.55699 28.0015V18.0064H13.8253C13.9629 18.0064 14.095 17.9538 14.1924 17.86C14.2897 17.7663 14.3444 17.6392 14.3444 17.5067V10.5101C14.3444 10.3776 14.2897 10.2505 14.1924 10.1567C14.095 10.063 13.9629 10.0104 13.8253 10.0104H6.55699V4.01332H20.0552V7.51159C20.0552 7.64413 20.1099 7.77125 20.2073 7.86497C20.3046 7.95869 20.4367 8.01134 20.5744 8.01134H24.2085V20.0054C14.6923 20.0054 14.604 19.8905 14.4015 20.2803C14.3133 20.4452 14.3444 20.1154 14.3444 28.0015H6.55699ZM15.3827 30.0005V21.3148C23.6167 25.2778 22.9885 25.003 23.1702 25.003C23.3519 25.003 22.7704 25.2528 30.9576 21.3148V30.0005H15.3827Z" fill="#0B2C4C"/>
<path d="M28.9394 19.301C28.9878 19.3647 29.0511 19.4164 29.1241 19.452C29.1972 19.4876 29.278 19.5061 29.36 19.5059C29.6974 19.5059 29.6299 19.5059 31.3691 17.312C31.5249 17.1171 31.4781 17.9317 31.4781 6.51231C31.477 6.33788 31.4286 6.16677 31.3375 6.01597C31.2464 5.86518 31.1159 5.73995 30.959 5.65274V4.5133C30.959 4.11567 30.7949 3.73433 30.5028 3.45316C30.2107 3.172 29.8146 3.01404 29.4015 3.01404C28.9884 3.01404 28.5923 3.172 28.3002 3.45316C28.0081 3.73433 27.844 4.11567 27.844 4.5133V5.65274C27.6871 5.73995 27.5566 5.86518 27.4655 6.01597C27.3744 6.16677 27.3259 6.33788 27.3248 6.51231C27.3248 18.0066 27.2833 17.1121 27.4235 17.302L28.9394 19.301ZM30.4398 16.8372L29.3703 18.1716L28.3632 16.8422V6.51231H30.4398V16.8372ZM28.8823 4.5133C28.8823 4.38076 28.937 4.25364 29.0344 4.15992C29.1317 4.0662 29.2638 4.01354 29.4015 4.01354C29.5392 4.01354 29.6712 4.0662 29.7686 4.15992C29.866 4.25364 29.9207 4.38076 29.9207 4.5133V5.51281H28.8823V4.5133Z" fill="#0B2C4C"/>
<path d="M8.11522 13.5085C8.11522 13.212 8.02387 12.9221 7.85273 12.6756C7.6816 12.429 7.43835 12.2369 7.15376 12.1234C6.86916 12.0099 6.556 11.9802 6.25388 12.0381C5.95176 12.0959 5.67424 12.2387 5.45642 12.4484C5.2386 12.6581 5.09027 12.9252 5.03017 13.216C4.97008 13.5069 5.00092 13.8083 5.1188 14.0823C5.23668 14.3562 5.43631 14.5904 5.69244 14.7551C5.94857 14.9199 6.24969 15.0078 6.55773 15.0078C6.9708 15.0078 7.36696 14.8498 7.65904 14.5687C7.95113 14.2875 8.11522 13.9062 8.11522 13.5085ZM6.03857 13.5085C6.03857 13.376 6.09327 13.2489 6.19063 13.1552C6.28799 13.0614 6.42004 13.0088 6.55773 13.0088C6.69542 13.0088 6.82747 13.0614 6.92483 13.1552C7.0222 13.2489 7.07689 13.376 7.07689 13.5085C7.07689 13.6411 7.0222 13.7682 6.92483 13.8619C6.82747 13.9556 6.69542 14.0083 6.55773 14.0083C6.42004 14.0083 6.28799 13.9556 6.19063 13.8619C6.09327 13.7682 6.03857 13.6411 6.03857 13.5085Z" fill="#0B2C4C"/>
<path d="M9.67224 14.5082H11.7489C11.8866 14.5082 12.0186 14.4555 12.116 14.3618C12.2134 14.2681 12.268 14.141 12.268 14.0084C12.268 13.8759 12.2134 13.7488 12.116 13.655C12.0186 13.5613 11.8866 13.5087 11.7489 13.5087H9.67224C9.53455 13.5087 9.4025 13.5613 9.30513 13.655C9.20777 13.7488 9.15308 13.8759 9.15308 14.0084C9.15308 14.141 9.20777 14.2681 9.30513 14.3618C9.4025 14.4555 9.53455 14.5082 9.67224 14.5082Z" fill="#0B2C4C"/>
<path d="M9.67224 16.0074H11.7489C11.8866 16.0074 12.0186 15.9548 12.116 15.8611C12.2134 15.7673 12.268 15.6402 12.268 15.5077C12.268 15.3751 12.2134 15.248 12.116 15.1543C12.0186 15.0606 11.8866 15.0079 11.7489 15.0079H9.67224C9.53455 15.0079 9.4025 15.0606 9.30513 15.1543C9.20777 15.248 9.15308 15.3751 9.15308 15.5077C9.15308 15.6402 9.20777 15.7673 9.30513 15.8611C9.4025 15.9548 9.53455 16.0074 9.67224 16.0074Z" fill="#0B2C4C"/>
<path d="M10.1912 5.01294C9.78043 5.01294 9.37893 5.13018 9.03743 5.34983C8.69592 5.56949 8.42976 5.88169 8.27258 6.24696C8.1154 6.61224 8.07428 7.01417 8.15441 7.40194C8.23453 7.78971 8.43231 8.1459 8.72274 8.42547C9.01316 8.70504 9.38319 8.89542 9.78602 8.97256C10.1888 9.04969 10.6064 9.0101 10.9859 8.8588C11.3653 8.7075 11.6896 8.45128 11.9178 8.12255C12.146 7.79381 12.2678 7.40732 12.2678 7.01195C12.2678 6.48178 12.049 5.97332 11.6596 5.59844C11.2701 5.22355 10.7419 5.01294 10.1912 5.01294ZM10.1912 8.01146C9.98579 8.01146 9.78504 7.95284 9.61429 7.84301C9.44354 7.73319 9.31045 7.57708 9.23187 7.39445C9.15328 7.21181 9.13271 7.01084 9.17278 6.81696C9.21284 6.62307 9.31173 6.44498 9.45695 6.3052C9.60216 6.16541 9.78717 6.07022 9.98858 6.03165C10.19 5.99309 10.3988 6.01288 10.5885 6.08853C10.7782 6.16418 10.9404 6.29229 11.0545 6.45666C11.1686 6.62102 11.2295 6.81427 11.2295 7.01195C11.2295 7.27704 11.1201 7.53127 10.9254 7.71871C10.7306 7.90615 10.4665 8.01146 10.1912 8.01146Z" fill="#0B2C4C"/>
<path d="M13.8253 6.5122H18.4978C18.6355 6.5122 18.7675 6.45955 18.8649 6.36583C18.9622 6.27211 19.0169 6.14499 19.0169 6.01245C19.0169 5.87991 18.9622 5.75279 18.8649 5.65907C18.7675 5.56535 18.6355 5.5127 18.4978 5.5127H13.8253C13.6876 5.5127 13.5556 5.56535 13.4582 5.65907C13.3608 5.75279 13.3062 5.87991 13.3062 6.01245C13.3062 6.14499 13.3608 6.27211 13.4582 6.36583C13.5556 6.45955 13.6876 6.5122 13.8253 6.5122Z" fill="#0B2C4C"/>
<path d="M16.4209 7.51172H13.8251C13.6874 7.51172 13.5553 7.56437 13.458 7.65809C13.3606 7.75182 13.3059 7.87893 13.3059 8.01147C13.3059 8.14402 13.3606 8.27113 13.458 8.36485C13.5553 8.45857 13.6874 8.51123 13.8251 8.51123H16.4209C16.5586 8.51123 16.6906 8.45857 16.788 8.36485C16.8853 8.27113 16.94 8.14402 16.94 8.01147C16.94 7.87893 16.8853 7.75182 16.788 7.65809C16.6906 7.56437 16.5586 7.51172 16.4209 7.51172Z" fill="#0B2C4C"/>
<path d="M18.2389 25.5028C17.8796 25.5028 17.5282 25.6054 17.2294 25.7976C16.9306 25.9898 16.6977 26.263 16.5602 26.5826C16.4227 26.9022 16.3867 27.2539 16.4568 27.5932C16.5269 27.9325 16.7 28.2441 16.9541 28.4888C17.2082 28.7334 17.532 28.9 17.8845 28.9675C18.2369 29.035 18.6023 29.0003 18.9343 28.8679C19.2663 28.7355 19.5501 28.5114 19.7498 28.2237C19.9494 27.9361 20.056 27.5979 20.056 27.2519C20.056 26.788 19.8646 26.3431 19.5238 26.0151C19.183 25.6871 18.7209 25.5028 18.2389 25.5028ZM18.2389 28.0016C18.0324 28.0016 17.8343 27.9226 17.6883 27.782C17.5422 27.6414 17.4602 27.4508 17.4602 27.2519C17.4602 27.0531 17.5422 26.8625 17.6883 26.7219C17.8343 26.5813 18.0324 26.5023 18.2389 26.5023C18.4455 26.5023 18.6436 26.5813 18.7896 26.7219C18.9356 26.8625 19.0177 27.0531 19.0177 27.2519C19.0177 27.4508 18.9356 27.6414 18.7896 27.782C18.6436 27.9226 18.4455 28.0016 18.2389 28.0016Z" fill="#0B2C4C"/>
<path d="M26.2861 26.0026H21.6136C21.476 26.0026 21.3439 26.0552 21.2465 26.1489C21.1492 26.2427 21.0945 26.3698 21.0945 26.5023C21.0945 26.6349 21.1492 26.762 21.2465 26.8557C21.3439 26.9494 21.476 27.0021 21.6136 27.0021H26.2861C26.4238 27.0021 26.5558 26.9494 26.6532 26.8557C26.7506 26.762 26.8053 26.6349 26.8053 26.5023C26.8053 26.3698 26.7506 26.2427 26.6532 26.1489C26.5558 26.0552 26.4238 26.0026 26.2861 26.0026Z" fill="#0B2C4C"/>
<path d="M24.2092 28.0016H21.6134C21.4757 28.0016 21.3437 28.0542 21.2463 28.148C21.1489 28.2417 21.0942 28.3688 21.0942 28.5013C21.0942 28.6339 21.1489 28.761 21.2463 28.8547C21.3437 28.9484 21.4757 29.0011 21.6134 29.0011H24.2092C24.3469 29.0011 24.479 28.9484 24.5763 28.8547C24.6737 28.761 24.7284 28.6339 24.7284 28.5013C24.7284 28.3688 24.6737 28.2417 24.5763 28.148C24.479 28.0542 24.3469 28.0016 24.2092 28.0016Z" fill="#0B2C4C"/>
</svg>
