<svg width="35" height="34" viewBox="0 0 35 34" fill="none" xmlns="http://www.w3.org/2000/svg">
<path d="M31.5204 3.14868H27.379C27.1171 3.14868 26.9048 3.35495 26.9048 3.60938C26.9048 3.8638 27.1171 4.07007 27.379 4.07007H31.5203C31.7823 4.07007 31.9946 3.8638 31.9946 3.60938C31.9946 3.35495 31.7823 3.14868 31.5204 3.14868Z" fill="#0B2C4C"/>
<path d="M25.0265 4.07007H25.5312C25.7932 4.07007 26.0055 3.8638 26.0055 3.60938C26.0055 3.35495 25.7932 3.14868 25.5312 3.14868H25.0265C24.7645 3.14868 24.5522 3.35495 24.5522 3.60938C24.5522 3.8638 24.7645 4.07007 25.0265 4.07007Z" fill="#0B2C4C"/>
<path d="M25.0265 6.23804H31.5194C31.7814 6.23804 31.9937 6.03177 31.9937 5.77734C31.9937 5.52292 31.7814 5.31665 31.5194 5.31665H25.0265C24.7645 5.31665 24.5522 5.52292 24.5522 5.77734C24.5522 6.03177 24.7645 6.23804 25.0265 6.23804Z" fill="#0B2C4C"/>
<path d="M26.8021 29.8807V27.5923C26.8021 25.8454 26.1606 24.1674 24.9918 22.8447L25.0703 21.4387C25.1301 20.3673 24.255 19.461 23.142 19.461H21.8873L21.8863 14.9505C21.8864 14.9411 21.8871 14.9317 21.8871 14.9223V14.0559C22.21 13.7944 22.4159 13.4011 22.4159 12.9617V11.0558C22.4159 10.6128 22.2066 10.2165 21.8791 9.95503C21.7291 6.10019 18.4467 3.00415 14.4463 3.00415C10.4458 3.00415 7.16339 6.10013 7.01341 9.95497C6.6858 10.2164 6.4765 10.6127 6.4765 11.0558V12.9617C6.4765 13.4015 6.68289 13.7953 7.00639 14.0568L7.00512 19.4611H5.75053C4.64618 19.4611 3.76193 20.359 3.82226 21.4387L3.90079 22.8447C2.732 24.1674 2.09051 25.8454 2.09051 27.5923V29.8807C2.09051 29.8855 2.09089 29.8904 2.09089 29.8953C1.87482 30.1471 1.74463 30.4707 1.74463 30.8234C1.74463 31.6241 2.41515 32.2755 3.23944 32.2755H25.6532C26.4774 32.2755 27.148 31.6241 27.148 30.8234C27.148 30.4707 27.0178 30.1471 26.8017 29.8953C26.8017 29.8904 26.8021 29.8855 26.8021 29.8807ZM25.8536 27.5923V29.3848C25.788 29.3762 25.7212 29.3713 25.6532 29.3713H24.6271L24.9103 24.3027C25.5236 25.2891 25.8536 26.4229 25.8536 27.5923ZM17.9086 19.461C17.6267 19.3211 17.4484 19.0428 17.4484 18.7315V17.5356H17.6895C18.2108 17.5356 18.6604 17.2363 18.8689 16.8058H19.9482C20.3097 16.8058 20.6483 16.709 20.9383 16.5409L20.9389 19.461H17.9086ZM7.94273 13.4645C7.6573 13.4645 7.42505 13.239 7.42505 12.9616V11.0557C7.42505 10.7784 7.6573 10.5528 7.94273 10.5528H9.00422V13.1484C9.00422 13.1508 9.00422 13.1531 9.00428 13.1554C9.00592 13.259 9.01155 13.3619 9.0192 13.4644H7.94273V13.4645ZM10.0215 13.8389C10.0209 13.8356 10.0203 13.8323 10.0196 13.829C9.903 13.1759 9.97351 12.9169 9.95264 10.5528H10.8882C13.5482 10.5528 15.6191 9.63095 16.7747 7.94567C17.0875 8.67436 17.7156 9.6761 18.9399 10.366V13.1447C18.9281 13.8655 18.7353 14.5659 18.3753 15.1933C18.1758 15.0728 17.9412 15.002 17.6895 15.002H16.4883C15.7693 15.002 15.1843 15.5702 15.1843 16.2687C15.1843 16.6762 15.3842 17.0383 15.6928 17.2702C14.1805 17.6939 12.4882 17.3312 11.291 16.1842C10.619 15.5404 10.1819 14.7251 10.0215 13.8389ZM20.9499 10.5529C21.2353 10.5529 21.4676 10.7784 21.4676 11.0558V12.9617C21.4676 13.239 21.2353 13.4646 20.9499 13.4646H19.8734C19.8811 13.362 19.8867 13.2591 19.8884 13.1556C19.8884 13.1532 19.8884 13.1509 19.8884 13.1486V10.553H20.9499V10.5529ZM18.0451 16.2689C18.0451 16.4593 17.8856 16.6143 17.6895 16.6143C17.3321 16.6143 16.8901 16.6143 16.4883 16.6143C16.2923 16.6143 16.1328 16.4593 16.1328 16.2689C16.1328 16.0784 16.2923 15.9235 16.4883 15.9235H17.6895C17.887 15.9235 18.0451 16.0815 18.0451 16.2689ZM19.7202 14.3859H20.9378L20.9379 14.9365C20.93 15.4604 20.4894 15.8845 19.9482 15.8845H19.0563C19.3585 15.4182 19.5814 14.914 19.7202 14.3859ZM12.3927 17.9744C13.6808 18.4839 15.1647 18.5017 16.4999 17.9722V18.7315C16.4999 18.99 16.5583 19.2374 16.6643 19.4611H12.2284C12.3343 19.2374 12.3927 18.99 12.3927 18.7315V17.9744ZM14.4463 3.92548C17.8117 3.92548 20.5946 6.43681 20.9069 9.6315H19.5313C18.3127 8.99353 17.767 7.99395 17.5237 7.25838C17.4338 6.98644 17.1869 6.79259 16.8945 6.76464C16.601 6.73693 16.3193 6.8803 16.1762 7.13073C15.2537 8.74341 13.3758 9.6315 10.8882 9.6315C10.6095 9.6315 8.25131 9.6315 7.9858 9.6315C8.29797 6.43681 11.0808 3.92548 14.4463 3.92548ZM7.95487 14.3859H9.1726C9.41422 15.3093 9.90977 16.155 10.625 16.8403C10.8789 17.0836 11.1533 17.2995 11.4442 17.4871V18.7315C11.4442 19.0429 11.2658 19.3212 10.984 19.461H7.95367L7.95487 14.3859ZM3.98223 24.3028L4.07639 25.9881C4.09062 26.2423 4.31496 26.4376 4.57567 26.4232C4.8372 26.4095 5.03777 26.1923 5.02355 25.9383L4.76935 21.3888C4.73894 20.8437 5.18416 20.3825 5.75053 20.3825H23.1421C23.704 20.3825 24.1541 20.8394 24.1233 21.3888L23.6773 29.3714H16.2406C16.3232 28.8239 16.5718 28.3076 16.9621 27.8864L16.9746 27.8729C18.4113 26.3114 17.9808 23.8704 16.1244 22.8457C15.6474 22.5823 15.0432 22.9114 15.0432 23.4556V25.5475C15.0432 25.6436 14.9628 25.7217 14.8639 25.7217H14.0604C13.9616 25.7217 13.8811 25.6436 13.8811 25.5475V23.4556C13.8811 22.9113 13.2768 22.5823 12.7999 22.8457C10.9458 23.8691 10.5099 26.3083 11.9529 27.8765L11.9633 27.8877C12.3527 28.3079 12.6011 28.824 12.6836 29.3715H5.21539L5.14356 28.0858C5.1294 27.8318 4.90473 27.6372 4.64428 27.6508C4.38275 27.6645 4.18218 27.8817 4.1964 28.1357L4.26545 29.3714H3.23944C3.17147 29.3714 3.10463 29.3763 3.039 29.3849V27.5923C3.039 26.4228 3.36894 25.2891 3.98223 24.3028ZM13.6392 29.3713C13.5516 28.5954 13.215 27.8613 12.6671 27.27L12.6568 27.2588C11.738 26.2603 11.8645 24.7188 12.9325 23.8705V25.5474C12.9325 26.1515 13.4385 26.643 14.0603 26.643H14.8638C15.4857 26.643 15.9917 26.1515 15.9917 25.5474V23.8705C17.059 24.7182 17.1869 26.2595 16.2675 27.2586L16.2559 27.2712C15.709 27.8614 15.3725 28.5954 15.285 29.3713H13.6392ZM25.6532 31.3541H3.23944C2.9382 31.3541 2.69312 31.116 2.69312 30.8234C2.69312 30.5308 2.9382 30.2927 3.23944 30.2927H25.6532C25.9545 30.2927 26.1995 30.5308 26.1995 30.8234C26.1995 31.116 25.9544 31.3541 25.6532 31.3541Z" fill="#0B2C4C"/>
<path d="M33.6449 4.17753C33.9069 4.17753 34.1192 3.97126 34.1192 3.71684V2.68065C34.1192 1.68733 33.2873 0.87915 32.2647 0.87915H24.2822C23.2596 0.87915 22.4277 1.68733 22.4277 2.68065V6.55888C22.4277 7.5522 23.2596 8.36038 24.2822 8.36038C24.4652 8.36038 24.6141 8.50498 24.6141 8.68274V11.0811C24.6141 11.8552 25.6621 12.1318 26.069 11.4725L27.8935 8.51689C27.953 8.42039 28.0621 8.36038 28.178 8.36038H32.2647C33.2873 8.36038 34.1192 7.5522 34.1192 6.55888V5.87239C34.1192 5.61796 33.9069 5.4117 33.6449 5.4117C33.3829 5.4117 33.1707 5.61796 33.1707 5.87239V6.55888C33.1707 7.04415 32.7642 7.43899 32.2647 7.43899H28.178C27.7307 7.43899 27.3099 7.67051 27.0801 8.04305L25.5625 10.5013V8.68274C25.5625 7.99692 24.9882 7.43899 24.2822 7.43899C23.7827 7.43899 23.3762 7.04415 23.3762 6.55888V2.68065C23.3762 2.19538 23.7827 1.80054 24.2822 1.80054H32.2647C32.7642 1.80054 33.1707 2.19538 33.1707 2.68065V3.71684C33.1707 3.97132 33.3829 4.17753 33.6449 4.17753Z" fill="#0B2C4C"/>
</svg>
