<svg width="31" height="34" viewBox="0 0 31 34" fill="none" xmlns="http://www.w3.org/2000/svg">
<path d="M23.5888 1.88794H8.83665C8.71045 1.88797 8.58943 1.93807 8.50021 2.02723L4.21731 6.30566C4.12806 6.39479 4.07791 6.51569 4.07788 6.64176V28.0339C4.07788 28.16 4.12802 28.2809 4.21726 28.3701C4.30651 28.4592 4.42755 28.5093 4.55376 28.5093H6.93314V30.8862C6.93314 31.0123 6.98328 31.1332 7.07253 31.2224C7.16177 31.3115 7.28281 31.3616 7.40902 31.3616H26.4441C26.5703 31.3616 26.6914 31.3115 26.7806 31.2224C26.8699 31.1332 26.92 31.0123 26.92 30.8862V5.21561C26.92 5.08953 26.8699 4.96862 26.7806 4.87947C26.6914 4.79032 26.5703 4.74023 26.4441 4.74023H24.0647V2.36332C24.0647 2.23724 24.0146 2.11633 23.9253 2.02718C23.8361 1.93802 23.7151 1.88794 23.5888 1.88794ZM8.36078 3.51089V6.16638H5.70253L8.36078 3.51089ZM5.02964 7.11714H8.83665C8.96286 7.11714 9.0839 7.06706 9.17315 6.9779C9.26239 6.88875 9.31253 6.76784 9.31253 6.64176V2.8387H23.113V27.5586H5.02964V7.11714ZM25.9682 5.69099V30.4109H7.8849V28.5093H23.5888C23.7151 28.5093 23.8361 28.4592 23.9253 28.3701C24.0146 28.2809 24.0647 28.16 24.0647 28.0339V5.69099H25.9682Z" fill="#0B2C4C"/>
<path d="M21.6874 3.79016H13.5975C13.4712 3.79016 13.3502 3.84025 13.261 3.9294C13.1717 4.01855 13.1216 4.13946 13.1216 4.26554V11.8717C13.1216 11.9977 13.1717 12.1186 13.261 12.2078C13.3502 12.297 13.4712 12.347 13.5975 12.347H21.6874C21.8136 12.347 21.9346 12.297 22.0239 12.2078C22.1131 12.1186 22.1632 11.9977 22.1632 11.8717V4.26554C22.1632 4.13946 22.1131 4.01855 22.0239 3.9294C21.9346 3.84025 21.8136 3.79016 21.6874 3.79016ZM21.2115 11.3963H14.0733V4.74093H21.2115V11.3963Z" fill="#0B2C4C"/>
<path d="M6.93384 14.2487H21.2102V15.1994H6.93384V14.2487Z" fill="#0B2C4C"/>
<path d="M6.93384 16.1475H21.2102V17.0982H6.93384V16.1475Z" fill="#0B2C4C"/>
<path d="M6.93213 18.0497H21.2084V19.0004H6.93213V18.0497Z" fill="#0B2C4C"/>
<path d="M19.1686 20.091C19.102 20.0245 19.0172 19.9792 18.9249 19.9609C18.8326 19.9426 18.737 19.952 18.65 19.988C18.5631 20.0239 18.4888 20.0849 18.4365 20.163C18.3842 20.2412 18.3563 20.3331 18.3562 20.4271V21.3778H13.5975C13.4712 21.3778 13.3502 21.4279 13.261 21.5171C13.1717 21.6062 13.1216 21.7271 13.1216 21.8532V24.7055C13.1216 24.8316 13.1717 24.9525 13.261 25.0416C13.3502 25.1308 13.4712 25.1809 13.5975 25.1809H18.3562V26.1316C18.3562 26.2257 18.3841 26.3176 18.4364 26.3958C18.4886 26.4739 18.5629 26.5349 18.6498 26.5709C18.7076 26.5949 18.7696 26.6072 18.8321 26.607C18.9583 26.607 19.0793 26.5569 19.1686 26.4677L22.0238 23.6154C22.113 23.5263 22.1631 23.4054 22.1631 23.2794C22.1631 23.1533 22.113 23.0324 22.0238 22.9433L19.1686 20.091ZM19.308 24.9841V24.7055C19.308 24.5794 19.2578 24.4585 19.1686 24.3694C19.0794 24.2802 18.9583 24.2301 18.8321 24.2301H14.0733V22.3286H18.8321C18.9583 22.3286 19.0794 22.2785 19.1686 22.1894C19.2578 22.1002 19.308 21.9793 19.308 21.8532V21.5746L21.0145 23.2794L19.308 24.9841Z" fill="#0B2C4C"/>
</svg>
