<svg width="35" height="36" viewBox="0 0 35 36" fill="none" xmlns="http://www.w3.org/2000/svg">
<g clip-path="url(#clip0_222_5925)">
<g clip-path="url(#clip1_222_5925)">
<path d="M35.4544 30.0885H33.9356V13.6361C33.9356 12.5551 32.9569 11.6762 31.7531 11.6762H24.6262C24.6206 11.661 24.615 11.6459 24.6094 11.6358C24.6038 11.6206 24.5981 11.6055 24.5925 11.5903C24.57 11.5398 24.5419 11.4943 24.4969 11.4539L20.9194 7.86745C20.8744 7.82199 20.8181 7.78663 20.7563 7.76138C20.7394 7.75127 20.7225 7.74622 20.7056 7.74117C20.655 7.72602 20.6044 7.71591 20.5481 7.71086C20.5369 7.71086 20.5256 7.70581 20.5144 7.70581H11.9081C11.6044 7.70581 11.3625 7.92302 11.3625 8.19579V11.6812H4.24125C3.0375 11.6812 2.05875 12.5602 2.05875 13.6412V30.0986H0.54C0.241875 30.0885 0 30.3107 0 30.5785C0 32.8415 2.05313 34.6852 4.57312 34.6852H31.4212C33.9412 34.6852 35.9944 32.8415 35.9944 30.5785C36 30.3107 35.7581 30.0885 35.4544 30.0885ZM22.8713 11.2822H21.06V9.46874L22.8713 11.2822ZM24.6375 16.9751L25.3575 17.4903L24.6375 18.0409V16.9751ZM25.6669 18.541V25.5372L20.3344 22.6377L25.6669 18.541ZM19.4681 23.3095L24.2606 25.916H11.745L16.5375 23.3095L17.6456 24.1632C17.7469 24.244 17.8762 24.2794 18 24.2794C18.1238 24.2794 18.2531 24.239 18.3544 24.1632L19.4681 23.3095ZM10.3331 25.5372V18.541L15.6656 22.6427L10.3331 25.5372ZM10.7269 17.556L11.3625 17.2277V18.0409L10.7269 17.556ZM11.3625 16.1012L9.5175 17.0509C9.47812 17.0711 9.43875 17.0963 9.405 17.1266C9.39937 17.1317 9.39937 17.1367 9.39375 17.1418C9.35438 17.1772 9.32625 17.2226 9.29813 17.2681C9.2925 17.2782 9.28687 17.2883 9.28125 17.2984C9.26437 17.3388 9.2475 17.3843 9.24187 17.4297V17.46C9.24187 17.4651 9.23625 17.4701 9.23625 17.4752V26.406C9.23625 26.4212 9.24188 26.4313 9.2475 26.4464C9.2475 26.4717 9.25875 26.497 9.26437 26.5222C9.27562 26.5576 9.28687 26.5929 9.30937 26.6283C9.315 26.6384 9.315 26.6485 9.32063 26.6586C9.3375 26.6839 9.36 26.7041 9.3825 26.7293C9.39375 26.7394 9.39937 26.7495 9.405 26.7546C9.45 26.795 9.50062 26.8202 9.55688 26.8455C9.56812 26.8506 9.585 26.8556 9.59625 26.8607C9.65812 26.8809 9.72 26.896 9.7875 26.896H9.79313H26.2013H26.2069C26.2744 26.896 26.3363 26.8809 26.3981 26.8607C26.4094 26.8556 26.4206 26.8506 26.4319 26.8455C26.4881 26.8202 26.5387 26.795 26.5837 26.7546C26.5894 26.7495 26.595 26.7394 26.6006 26.7344C26.6231 26.7091 26.6513 26.6889 26.6681 26.6586C26.6737 26.6485 26.6737 26.6384 26.6794 26.6283C26.6963 26.598 26.7075 26.5626 26.7188 26.5323C26.73 26.502 26.7356 26.4767 26.7413 26.4464C26.7413 26.4313 26.7469 26.4212 26.7469 26.4111V17.4752V17.4701V17.4651C26.7469 17.4499 26.7356 17.4348 26.7356 17.4247C26.73 17.3691 26.7188 17.3186 26.6962 17.2731C26.685 17.2529 26.6681 17.2378 26.6569 17.2176C26.6287 17.1772 26.6006 17.1418 26.5613 17.1115C26.5556 17.1064 26.55 17.0963 26.5444 17.0913L24.6319 15.7224V15.0101H29.9475V27.7345H6.04125V15.0101H11.3569V16.1012H11.3625ZM12.4537 8.68073H19.9688V11.7772C19.9688 12.05 20.2106 12.2672 20.5144 12.2672H23.5462V18.8845L18 23.1479L12.4537 18.8795V8.68073ZM3.15563 13.6361C3.15563 13.0956 3.645 12.6562 4.24688 12.6562H11.3625V14.0301H5.49563C5.19188 14.0301 4.95 14.2474 4.95 14.5201V28.2245C4.95 28.4973 5.19188 28.7145 5.49563 28.7145H30.4988C30.8025 28.7145 31.0444 28.4973 31.0444 28.2245V14.5201C31.0444 14.2474 30.8025 14.0301 30.4988 14.0301H24.6375V12.6562H31.7531C32.355 12.6562 32.8444 13.0956 32.8444 13.6361V30.0935H3.15563V13.6361ZM31.4269 33.7053H4.57312C2.835 33.7053 1.395 32.5586 1.13063 31.0685H34.8638C34.605 32.5637 33.1594 33.7053 31.4269 33.7053Z" fill="#0B2C4C"/>
<path d="M13.5625 15.5745C13.5625 15.8472 13.8044 16.0644 14.1081 16.0644H21.6569C21.9606 16.0644 22.2025 15.8472 22.2025 15.5745C22.2025 15.3017 21.9606 15.0845 21.6569 15.0845H14.1081C13.81 15.0845 13.5625 15.3017 13.5625 15.5745Z" fill="#0B2C4C"/>
<path d="M21.5495 17.3503H14.0007C13.697 17.3503 13.4551 17.5676 13.4551 17.8403C13.4551 18.1131 13.697 18.3303 14.0007 18.3303H21.5438C21.8476 18.3303 22.0895 18.1131 22.0895 17.8403C22.0895 17.5676 21.8476 17.3503 21.5495 17.3503Z" fill="#0B2C4C"/>
<path d="M13.6228 10.847H17.9371C18.2409 10.847 18.4828 10.6298 18.4828 10.357C18.4828 10.0843 18.2409 9.86707 17.9371 9.86707H13.6228C13.319 9.86707 13.0771 10.0843 13.0771 10.357C13.0771 10.6248 13.319 10.847 13.6228 10.847Z" fill="#0B2C4C"/>
<path d="M13.6228 12.6548H17.9371C18.2409 12.6548 18.4828 12.4376 18.4828 12.1648C18.4828 11.892 18.2409 11.6748 17.9371 11.6748H13.6228C13.319 11.6748 13.0771 11.892 13.0771 12.1648C13.0771 12.4325 13.319 12.6548 13.6228 12.6548Z" fill="#0B2C4C"/>
</g>
</g>
<defs>
<clipPath id="clip0_222_5925">
<rect width="35" height="35" fill="white" transform="translate(0 0.5)"/>
</clipPath>
<clipPath id="clip1_222_5925">
<rect width="36" height="36.0294" fill="white" transform="translate(0 7.19116)"/>
</clipPath>
</defs>
</svg>
