<svg width="60" height="60" viewBox="0 0 60 60" fill="none" xmlns="http://www.w3.org/2000/svg">
<path d="M16.5122 21.5996H18.8144C19.563 21.5996 20.1719 20.9938 20.1719 20.249V17.9585C20.1719 17.2137 19.563 16.6079 18.8144 16.6079H16.5122C15.7636 16.6079 15.1547 17.2137 15.1547 17.9585V20.249C15.1547 20.9927 15.7636 21.5996 16.5122 21.5996ZM16.4059 17.9575C16.4059 17.9004 16.4559 17.8517 16.5122 17.8517H18.8144C18.8718 17.8517 18.9208 17.9015 18.9208 17.9575V20.2479C18.9208 20.305 18.8707 20.3537 18.8144 20.3537H16.5122C16.4549 20.3537 16.4059 20.3039 16.4059 20.2479V17.9575ZM22.1217 17.8257C22.1217 17.4824 22.4022 17.2033 22.7473 17.2033H32.8152C33.1603 17.2033 33.4408 17.4824 33.4408 17.8257C33.4408 18.1691 33.1603 18.4481 32.8152 18.4481H22.7473C22.4022 18.4481 22.1217 18.1701 22.1217 17.8257ZM22.1217 20.3797C22.1217 20.0363 22.4022 19.7573 22.7473 19.7573H32.8152C33.1603 19.7573 33.4408 20.0363 33.4408 20.3797C33.4408 20.723 33.1603 21.0021 32.8152 21.0021H22.7473C22.4022 21.0021 22.1217 20.723 22.1217 20.3797ZM16.5122 29.1971H18.8144C19.563 29.1971 20.1719 28.5913 20.1719 27.8465V25.556C20.1719 24.8112 19.563 24.2054 18.8144 24.2054H16.5122C15.7636 24.2054 15.1547 24.8112 15.1547 25.556V27.8465C15.1547 28.5913 15.7636 29.1971 16.5122 29.1971ZM16.4059 25.556C16.4059 25.499 16.4559 25.4502 16.5122 25.4502H18.8144C18.8718 25.4502 18.9208 25.5 18.9208 25.556V27.8465C18.9208 27.9035 18.8707 27.9523 18.8144 27.9523H16.5122C16.4549 27.9523 16.4059 27.9025 16.4059 27.8465V25.556ZM22.1217 25.4243C22.1217 25.0809 22.4022 24.8019 22.7473 24.8019H32.8152C33.1603 24.8019 33.4408 25.0809 33.4408 25.4243C33.4408 25.7676 33.1603 26.0467 32.8152 26.0467H22.7473C22.4022 26.0467 22.1217 25.7676 22.1217 25.4243ZM22.1217 27.9782C22.1217 27.6349 22.4022 27.3558 22.7473 27.3558H32.8152C33.1603 27.3558 33.4408 27.6349 33.4408 27.9782C33.4408 28.3216 33.1603 28.6006 32.8152 28.6006H22.7473C22.4022 28.6006 22.1217 28.3216 22.1217 27.9782ZM16.5122 36.7956H18.8144C19.563 36.7956 20.1719 36.1898 20.1719 35.445V33.1546C20.1719 32.4098 19.563 31.8029 18.8144 31.8029H16.5122C15.7636 31.8029 15.1547 32.4087 15.1547 33.1546V35.445C15.1547 36.1898 15.7636 36.7956 16.5122 36.7956ZM16.4059 33.1546C16.4059 33.0975 16.4559 33.0477 16.5122 33.0477H18.8144C18.8718 33.0477 18.9208 33.0975 18.9208 33.1546V35.445C18.9208 35.5021 18.8707 35.5508 18.8144 35.5508H16.5122C16.4549 35.5508 16.4059 35.501 16.4059 35.445V33.1546ZM22.1217 33.0228C22.1217 32.6795 22.4022 32.4004 22.7473 32.4004H32.8152C33.1603 32.4004 33.4408 32.6795 33.4408 33.0228C33.4408 33.3662 33.1603 33.6452 32.8152 33.6452H22.7473C22.4022 33.6452 22.1217 33.3662 22.1217 33.0228ZM22.1217 35.5768C22.1217 35.2334 22.4022 34.9544 22.7473 34.9544H32.8152C33.1603 34.9544 33.4408 35.2334 33.4408 35.5768C33.4408 35.9201 33.1603 36.1992 32.8152 36.1992H22.7473C22.4022 36.1992 22.1217 35.9201 22.1217 35.5768ZM16.5122 44.3942H18.8144C19.563 44.3942 20.1719 43.7884 20.1719 43.0425V40.7521C20.1719 40.0073 19.563 39.4015 18.8144 39.4015H16.5122C15.7636 39.4015 15.1547 40.0073 15.1547 40.7521V43.0425C15.1547 43.7884 15.7636 44.3942 16.5122 44.3942ZM16.4059 40.7531C16.4059 40.6961 16.4559 40.6473 16.5122 40.6473H18.8144C18.8718 40.6473 18.9208 40.6971 18.9208 40.7531V43.0436C18.9208 43.1006 18.8707 43.1504 18.8144 43.1504H16.5122C16.4549 43.1504 16.4059 43.1006 16.4059 43.0436V40.7531ZM22.1217 40.6214C22.1217 40.278 22.4022 39.999 22.7473 39.999H31.0114C31.3565 39.999 31.637 40.278 31.637 40.6214C31.637 40.9647 31.3565 41.2438 31.0114 41.2438H22.7473C22.4022 41.2438 22.1217 40.9647 22.1217 40.6214ZM22.1217 43.1753C22.1217 42.832 22.4022 42.5529 22.7473 42.5529H31.0114C31.3565 42.5529 31.637 42.832 31.637 43.1753C31.637 43.5187 31.3565 43.7977 31.0114 43.7977H22.7473C22.4022 43.7977 22.1217 43.5187 22.1217 43.1753ZM52 39.8413V39.8361C52 39.834 52 39.832 52 39.8288C52 39.8071 51.9979 39.7853 51.9958 39.7645C51.9948 39.7573 51.9937 39.751 51.9927 39.7438C51.9896 39.7251 51.9864 39.7054 51.9812 39.6867C51.9802 39.6815 51.9791 39.6763 51.9771 39.6712C51.9708 39.6483 51.9625 39.6255 51.9541 39.6027C51.952 39.5975 51.95 39.5923 51.9479 39.5882C51.9406 39.5705 51.9312 39.5529 51.9228 39.5363C51.9197 39.5301 51.9166 39.5249 51.9135 39.5187C51.903 39.501 51.8916 39.4834 51.8791 39.4658C51.877 39.4627 51.8749 39.4606 51.8738 39.4575C51.8582 39.4378 51.8426 39.4191 51.8248 39.4004C51.8217 39.3973 51.8186 39.3952 51.8165 39.3921C51.8019 39.3776 51.7863 39.3641 51.7706 39.3517C51.7654 39.3475 51.7591 39.3423 51.7529 39.3382C51.7383 39.3268 51.7227 39.3164 51.707 39.3071C51.7028 39.3039 51.6987 39.3008 51.6945 39.2988C51.6924 39.2977 51.6903 39.2967 51.6893 39.2956C51.6872 39.2946 51.6851 39.2925 51.682 39.2915L42.442 34.1701C42.2522 34.0654 42.0228 34.0654 41.8331 34.1701L40.5986 34.8548V9.83506C40.5986 9.4917 40.3181 9.21266 39.973 9.21266H33.1134C33.0685 8.41494 32.4044 7.77801 31.5911 7.77801H29.3327C28.8656 6.16183 27.3631 5 25.6334 5H22.9621C21.2313 5 19.7299 6.16183 19.2669 7.77801H17.0085C16.1953 7.77801 15.5311 8.4139 15.4863 9.21266H8.62559C8.28047 9.21266 8 9.4917 8 9.83506V51.166C8 51.5093 8.28047 51.7884 8.62559 51.7884H36.1767L41.83 54.9212V54.9201C41.9248 54.972 42.0291 55 42.1344 55C42.2397 55 42.344 54.9741 42.4389 54.9212L51.6789 49.7998C51.877 49.6898 52 49.4824 52 49.2562V39.8444C52 39.8434 52 39.8423 52 39.8413ZM42.1344 35.4274L50.0888 39.8361L47.9462 41.0239L40.3494 36.416L42.1344 35.4274ZM15.6166 13.9969C15.8564 14.5249 16.3892 14.8932 17.0075 14.8932H31.5869C32.2052 14.8932 32.738 14.5249 32.9778 13.9969H35.7857V37.5207L32.5889 39.2925C32.5868 39.2936 32.5847 39.2956 32.5816 39.2967C32.5795 39.2977 32.5774 39.2988 32.5764 39.2998C32.5722 39.3019 32.5681 39.305 32.5639 39.3081C32.5482 39.3185 32.5326 39.3288 32.518 39.3392C32.5118 39.3434 32.5065 39.3485 32.5003 39.3527C32.4846 39.3651 32.469 39.3797 32.4544 39.3932C32.4513 39.3963 32.4482 39.3983 32.4461 39.4015C32.4283 39.4191 32.4117 39.4388 32.3971 39.4585C32.395 39.4616 32.3929 39.4637 32.3918 39.4668C32.3793 39.4834 32.3679 39.501 32.3574 39.5197C32.3543 39.5249 32.3512 39.5311 32.3481 39.5373C32.3387 39.5539 32.3303 39.5716 32.323 39.5892C32.3209 39.5944 32.3189 39.5996 32.3168 39.6037C32.3074 39.6255 32.3001 39.6483 32.2938 39.6722C32.2928 39.6774 32.2918 39.6826 32.2897 39.6878C32.2855 39.7064 32.2813 39.7251 32.2782 39.7448C32.2772 39.7521 32.2761 39.7583 32.2751 39.7656C32.273 39.7873 32.2709 39.8091 32.2709 39.8299V39.8371V39.8423V39.8454V47.0052H12.8087V13.9969H15.6166ZM39.094 37.112L46.6908 41.7199L45.8702 42.1743L38.1963 37.61L39.094 37.112ZM33.52 40.8952L41.5088 45.3226V53.3174L33.52 48.889V40.8952ZM34.18 39.8361L36.9347 38.3091L44.6086 42.8734L42.1355 44.2448L34.18 39.8361ZM46.5219 43.2386L47.306 42.8039V45.749L46.5219 46.2002V43.2386ZM39.3443 35.5488L37.0379 36.8268V13.3745C37.0379 13.0311 36.7574 12.7521 36.4123 12.7521H33.1144V10.4575H39.3443V35.5488ZM16.7322 9.29668C16.7322 9.14834 16.8584 9.02282 17.0075 9.02282H19.7736C20.0875 9.02282 20.3523 8.79149 20.394 8.48237C20.565 7.20643 21.6692 6.24481 22.9621 6.24481H25.6323C26.9263 6.24481 28.0294 7.20643 28.2004 8.48237C28.2421 8.79149 28.5069 9.02282 28.8208 9.02282H31.5869C31.736 9.02282 31.8622 9.14834 31.8622 9.29668V13.3745C31.8622 13.5228 31.736 13.6483 31.5869 13.6483H17.0075C16.8584 13.6483 16.7322 13.5228 16.7322 13.3745V9.29668ZM9.25118 50.5436V10.4575H15.481V12.7521H12.1831C11.838 12.7521 11.5575 13.0311 11.5575 13.3745V47.6266C11.5575 47.9699 11.838 48.249 12.1831 48.249H32.2688V49.2562C32.2688 49.4824 32.3918 49.6898 32.59 49.7998L33.9308 50.5436H9.25118ZM50.7488 48.89L42.76 53.3174V45.3226L45.2707 43.9315V47.278C45.2707 47.5 45.3896 47.7064 45.5835 47.8174C45.6805 47.8734 45.7879 47.9004 45.8963 47.9004C46.0047 47.9004 46.1121 47.8724 46.2091 47.8164L48.2444 46.6452C48.4373 46.5342 48.5572 46.3288 48.5572 46.1068V42.11L50.7488 40.8952V48.89Z" fill="url(#paint0_linear_1036_45382)"/>
<defs>
<linearGradient id="paint0_linear_1036_45382" x1="30" y1="5" x2="30" y2="55" gradientUnits="userSpaceOnUse">
<stop stop-color="#81319B"/>
<stop offset="0.475" stop-color="#00A99D"/>
<stop offset="1" stop-color="#0B2C4C"/>
</linearGradient>
</defs>
</svg>
