<svg width="30" height="30" viewBox="0 0 30 30" fill="none" xmlns="http://www.w3.org/2000/svg">
<path d="M26.9894 9.32751V7.36798L24.0405 4.52471H13.0205V5.88686H17.2834C18.1606 5.88816 18.8714 6.60839 18.8727 7.49732V7.94978H23.7656C23.9065 7.94978 24.0209 8.06571 24.0209 8.20846C24.0209 8.35121 23.9065 8.46713 23.7656 8.46713H18.8727V11.2174H23.7656C23.9065 11.2174 24.0209 11.3333 24.0209 11.4761C24.0209 11.6188 23.9065 11.7348 23.7656 11.7348H18.8727V14.498H23.7656C23.9065 14.498 24.0209 14.6139 24.0209 14.7567C24.0209 14.8994 23.9065 15.0154 23.7656 15.0154H18.8727V17.7708H24.0205C24.1613 17.7708 24.2757 17.8867 24.2757 18.0295C24.2757 18.1722 24.1613 18.2882 24.0205 18.2882H18.8727V21.0384H24.0205C24.1613 21.0384 24.2757 21.1544 24.2757 21.2971C24.2757 21.4399 24.1613 21.5558 24.0205 21.5558H18.7579C18.5184 22.1687 17.934 22.5715 17.2834 22.5715H13.0205V24.983H26.9894V10.8787C26.9894 10.736 27.1038 10.62 27.2447 10.62C27.3856 10.62 27.5 10.736 27.5 10.8787V25.2482C27.5 25.3909 27.3856 25.5069 27.2447 25.5069H12.7653C12.6244 25.5069 12.51 25.3909 12.51 25.2482V22.578H7.02068C6.14173 22.5767 5.43011 21.8534 5.4314 20.9623C5.4314 20.9614 5.4314 20.9606 5.4314 20.9597V19.9259C5.4314 19.7831 5.5458 19.6672 5.68667 19.6672C5.82754 19.6672 5.94195 19.7831 5.94195 19.9259V20.9597C5.94323 21.5631 6.42561 22.0515 7.02111 22.0532H17.2838C17.8793 22.0519 18.3613 21.5631 18.363 20.9597V7.48953C18.3617 6.8861 17.8793 6.39773 17.2838 6.396H7.02068C6.42518 6.39729 5.94323 6.8861 5.94152 7.48953V18.3747C5.94152 18.5174 5.82712 18.6334 5.68625 18.6334C5.54537 18.6334 5.43097 18.5174 5.43097 18.3747V7.48953C5.43225 6.6006 6.14301 5.88038 7.02026 5.87908H12.51V4.25868C12.51 4.11593 12.6244 4 12.7653 4H24.1426C24.2083 4 24.2715 4.02639 24.3184 4.07224L27.4206 7.0708C27.471 7.11925 27.4996 7.18673 27.4996 7.25681V9.32492C27.4996 9.46767 27.3852 9.58359 27.2443 9.58359C27.1034 9.58359 26.989 9.46767 26.989 9.32492V9.32751H26.9894ZM17.6428 9.54207C17.6428 10.4107 16.9487 11.1149 16.092 11.1162H8.2198C7.36475 11.1119 6.67405 10.4085 6.67405 9.54207V8.88024C6.67405 8.01164 7.36817 7.30742 8.22492 7.30612H16.0843C16.9423 7.30309 17.6403 8.00558 17.6428 8.87505C17.6428 8.87678 17.6428 8.87851 17.6428 8.88024V9.54207ZM17.1327 8.88024C17.1327 8.29714 16.667 7.82434 16.092 7.82304H8.2198C7.6465 7.82737 7.18418 8.2993 7.18418 8.88024V9.54207C7.18418 10.1252 7.64991 10.598 8.22492 10.5993H16.0843C16.6606 10.6023 17.1297 10.1312 17.1327 9.54726C17.1327 9.54553 17.1327 9.5438 17.1327 9.54207V8.88024ZM9.41337 14.2389C9.41337 14.3816 9.29896 14.4976 9.15809 14.4976H7.24224C7.10136 14.4976 6.98696 14.3816 6.98696 14.2389V12.2871C6.98696 12.1444 7.10136 12.0285 7.24224 12.0285H9.15809C9.29896 12.0285 9.41337 12.1444 9.41337 12.2871V14.2389ZM8.90324 12.5562H7.49751V13.9807H8.90324V12.5562ZM13.365 14.2389C13.365 14.3816 13.2506 14.4976 13.1098 14.4976H11.1939C11.053 14.4976 10.9386 14.3816 10.9386 14.2389V12.2871C10.9386 12.1444 11.053 12.0285 11.1939 12.0285H13.1098C13.2506 12.0285 13.365 12.1444 13.365 12.2871V14.2389ZM12.8549 12.5562H11.4492V13.9807H12.8549V12.5562ZM17.3163 14.2389C17.3163 14.3816 17.2019 14.4976 17.061 14.4976H15.1451C15.0043 14.4976 14.8899 14.3816 14.8899 14.2389V12.2871C14.8899 12.1444 15.0043 12.0285 15.1451 12.0285H17.061C17.2019 12.0285 17.3163 12.1444 17.3163 12.2871V14.2389ZM16.8061 12.5562H15.4004V13.9807H16.8061V12.5562ZM9.40824 17.638C9.40824 17.7808 9.29384 17.8967 9.15297 17.8967H7.24224C7.10136 17.8967 6.98696 17.7808 6.98696 17.638V15.6837C6.98696 15.5409 7.10136 15.425 7.24224 15.425H9.15809C9.29896 15.425 9.41337 15.5409 9.41337 15.6837L9.40824 17.638ZM8.89812 15.9527H7.49751V17.3798H8.90324L8.89812 15.9527ZM13.3599 17.638C13.3599 17.7808 13.2455 17.8967 13.1046 17.8967H11.1939C11.053 17.8967 10.9386 17.7808 10.9386 17.638V15.6837C10.9386 15.5409 11.053 15.425 11.1939 15.425H13.1098C13.2506 15.425 13.365 15.5409 13.365 15.6837L13.3599 17.638ZM12.8498 15.9527H11.4492V17.3798H12.8549L12.8498 15.9527ZM17.3111 17.638C17.3111 17.7808 17.1967 17.8967 17.0559 17.8967H15.1451C15.0043 17.8967 14.8899 17.7808 14.8899 17.638V15.6837C14.8899 15.5409 15.0043 15.425 15.1451 15.425H17.061C17.2019 15.425 17.3163 15.5409 17.3163 15.6837L17.3111 17.638ZM16.801 15.9527H15.4004V17.3798H16.8061L16.801 15.9527ZM9.40312 19.0932V21.0345C9.40312 21.1773 9.28872 21.2932 9.14784 21.2932H7.24224C7.10136 21.2932 6.98696 21.1773 6.98696 21.0345V19.0828C6.98696 18.9401 7.10136 18.8241 7.24224 18.8241H9.15809C9.29896 18.8241 9.41337 18.9401 9.41337 19.0828L9.40312 19.0932ZM8.893 19.3519H7.49751V20.7763H8.90324L8.893 19.3519ZM13.3548 19.0932V21.0345C13.3548 21.1773 13.2404 21.2932 13.0995 21.2932H11.1939C11.053 21.2932 10.9386 21.1773 10.9386 21.0345V19.0828C10.9386 18.9401 11.053 18.8241 11.1939 18.8241H13.1098C13.2506 18.8241 13.365 18.9401 13.365 19.0828L13.3548 19.0932ZM12.8447 19.3519H11.4492V20.7763H12.8549L12.8447 19.3519ZM17.306 19.0932V21.0345C17.306 21.1773 17.1916 21.2932 17.0507 21.2932H15.1451C15.0043 21.2932 14.8899 21.1773 14.8899 21.0345V19.0828C14.8899 18.9401 15.0043 18.8241 15.1451 18.8241H17.061C17.2019 18.8241 17.3163 18.9401 17.3163 19.0828L17.306 19.0932ZM16.7959 19.3519H15.4004V20.7763H16.8061L16.7959 19.3519ZM15.6992 8.35294V9.82367C15.6992 9.96642 15.5848 10.0823 15.444 10.0823H14.5816C14.4408 10.0823 14.3264 9.96642 14.3264 9.82367V8.34256C14.3264 8.19981 14.4408 8.08388 14.5816 8.08388H15.4516C15.5925 8.08258 15.7078 8.19721 15.7095 8.33996C15.7095 8.34083 15.7095 8.34169 15.7095 8.34256L15.6992 8.35294ZM15.1887 8.61161H14.8365V9.56543H15.1964L15.1887 8.61161ZM4.77826 11.6357C4.79619 11.6707 4.80558 11.7097 4.80644 11.7495V24.762C4.82351 25.426 4.30826 25.9792 3.65343 26C2.99859 25.9788 2.48334 25.4256 2.50041 24.762V11.7495C2.50169 11.7166 2.50852 11.6841 2.5209 11.6539L3.35759 9.68655C3.39772 9.59354 3.48737 9.53298 3.58726 9.53125C3.68587 9.52996 3.77594 9.58619 3.81948 9.67616L4.77869 11.6357H4.77826ZM3.01054 23.6663H4.23484C4.25533 23.6637 4.27582 23.6637 4.29589 23.6663V12.1167C4.27539 12.1193 4.2549 12.1193 4.23484 12.1167H3.01054V23.6663ZM3.10232 11.6102H4.19941L3.61287 10.4055L3.10275 11.6102H3.10232ZM4.29631 24.762V24.1702C4.27582 24.1728 4.25533 24.1728 4.23527 24.1702H3.01054V24.7494C2.98621 25.1297 3.27051 25.4584 3.64574 25.4831C3.6483 25.4831 3.65086 25.4831 3.65343 25.4835C4.02652 25.4628 4.31381 25.1409 4.29631 24.7624V24.762Z" fill="url(#paint0_linear_1051_2901)"/>
<defs>
<linearGradient id="paint0_linear_1051_2901" x1="15" y1="25.9628" x2="15" y2="4.95425" gradientUnits="userSpaceOnUse">
<stop stop-color="#0B2C4C"/>
<stop offset="0.54" stop-color="#00A89C"/>
<stop offset="1" stop-color="#80319A"/>
</linearGradient>
</defs>
</svg>
