<svg width="60" height="60" viewBox="0 0 60 60" fill="none" xmlns="http://www.w3.org/2000/svg">
<path d="M30.3886 54.3776C30.3886 54.721 30.1053 55 29.7568 55H8.22964C6.44897 55 5 53.5726 5 51.8185V8.18154C5 6.42739 6.44897 5 8.22964 5H40.6314C42.4121 5 43.861 6.42739 43.861 8.18154V30.8994C43.861 31.2427 43.5778 31.5218 43.2292 31.5218C42.8807 31.5218 42.5974 31.2427 42.5974 30.8994V8.18154C42.5974 7.11411 41.715 6.24481 40.6314 6.24481H8.22964C7.14608 6.24481 6.26364 7.11411 6.26364 8.18154V51.8185C6.26364 52.8859 7.14608 53.7552 8.22964 53.7552H29.7568C30.1053 53.7552 30.3886 54.0342 30.3886 54.3776ZM55 43.8392V54.3776C55 54.721 54.7167 55 54.3682 55H43.2303H32.0924C31.7438 55 31.4606 54.721 31.4606 54.3776V43.8392C31.4606 43.4958 31.7438 43.2168 32.0924 43.2168H37.982V33.2998C37.982 32.9564 38.2652 32.6774 38.6138 32.6774H49.7517C50.1003 32.6774 50.3835 32.9564 50.3835 33.2998V43.2168H54.3682C54.7167 43.2168 55 43.4948 55 43.8392ZM47.3245 46.5135L48.3512 45.4938C48.4702 45.3755 48.6313 45.3091 48.7998 45.3091C48.9682 45.3091 49.1294 45.3755 49.2483 45.4938L50.2751 46.5135V44.4616H47.3255V46.5135H47.3245ZM42.7069 35.9741L43.7336 34.9544C43.8526 34.8361 44.0137 34.7697 44.1822 34.7697C44.3507 34.7697 44.5118 34.8361 44.6308 34.9544L45.6575 35.9741V33.9222H42.708V35.9741H42.7069ZM36.1866 46.5135L37.2133 45.4938C37.3323 45.3755 37.4934 45.3091 37.6619 45.3091C37.8303 45.3091 37.9914 45.3755 38.1104 45.4938L39.1361 46.5135V44.4616H36.1866V46.5135ZM32.7242 53.7552H42.5985V44.4616H40.3997V48.0259C40.3997 48.278 40.2449 48.5052 40.008 48.6017C39.9301 48.6328 39.849 48.6483 39.7679 48.6483C39.6026 48.6483 39.4404 48.584 39.3193 48.4637L37.6619 46.8164L36.0033 48.4637C35.8233 48.6432 35.5505 48.6971 35.3146 48.6006C35.0777 48.5042 34.9229 48.277 34.9229 48.0249V44.4606H32.7242V53.7552ZM43.2303 43.2168H49.1199V33.9222H46.9212V37.4865C46.9212 37.7386 46.7664 37.9658 46.5294 38.0622C46.4515 38.0934 46.3704 38.1089 46.2893 38.1089C46.124 38.1089 45.9618 38.0446 45.8407 37.9243L44.1822 36.277L42.5237 37.9243C42.3436 38.1037 42.0719 38.1577 41.835 38.0612C41.5981 37.9647 41.4433 37.7376 41.4433 37.4855V33.9212H39.2446V43.2158H43.2303V43.2168ZM53.7364 44.4616H51.5376V48.0259C51.5376 48.278 51.3828 48.5052 51.1459 48.6017C51.068 48.6328 50.9869 48.6483 50.9058 48.6483C50.7405 48.6483 50.5783 48.584 50.4572 48.4637L48.7987 46.8164L47.1402 48.4637C46.9601 48.6432 46.6874 48.6971 46.4515 48.6006C46.2146 48.5042 46.0598 48.277 46.0598 48.0249V44.4606H43.861V53.7552H53.7353V44.4616H53.7364ZM19.8741 28.8589C19.8741 29.4564 19.3802 29.9429 18.7736 29.9429H12.5681C11.9616 29.9429 11.4677 29.4564 11.4677 28.8589V22.7459C11.4677 22.1483 11.9616 21.6618 12.5681 21.6618H18.7736C19.3802 21.6618 19.8741 22.1483 19.8741 22.7459V28.8589ZM18.6104 22.9066H12.7314V28.6992H18.6115V22.9066H18.6104ZM14.6658 27.3911C14.789 27.5124 14.9511 27.5737 15.1123 27.5737C15.2734 27.5737 15.4355 27.5124 15.5587 27.3911L17.8912 25.0934C18.1376 24.8506 18.1376 24.4564 17.8912 24.2127C17.6448 23.9699 17.2446 23.9699 16.9972 24.2127L15.1112 26.0705L14.3404 25.3112C14.094 25.0685 13.6938 25.0685 13.4464 25.3112C13.2 25.5539 13.2 25.9481 13.4464 26.1919L14.6658 27.3911ZM36.294 17.2894H12.5681C11.8268 17.2894 11.2234 16.695 11.2234 15.9647V10.4326C11.2234 9.70228 11.8268 9.10788 12.5681 9.10788H36.295C37.0364 9.10788 37.6397 9.70228 37.6397 10.4326V15.9647C37.6387 16.695 37.0353 17.2894 36.294 17.2894ZM36.375 10.4326C36.375 10.39 36.3371 10.3527 36.294 10.3527H12.5681C12.525 10.3527 12.487 10.39 12.487 10.4326V15.9647C12.487 16.0073 12.525 16.0446 12.5681 16.0446H36.295C36.3382 16.0446 36.3761 16.0073 36.3761 15.9647V10.4326H36.375ZM25.215 25.1483H31.1731C31.5216 25.1483 31.8049 24.8693 31.8049 24.5259C31.8049 24.1826 31.5216 23.9035 31.1731 23.9035H25.215C24.8665 23.9035 24.5832 24.1826 24.5832 24.5259C24.5832 24.8693 24.8665 25.1483 25.215 25.1483ZM35.8791 26.8527H25.215C24.8665 26.8527 24.5832 27.1317 24.5832 27.4751C24.5832 27.8185 24.8665 28.0975 25.215 28.0975H35.878C36.2266 28.0975 36.5098 27.8185 36.5098 27.4751C36.5098 27.1317 36.2276 26.8527 35.8791 26.8527ZM19.8741 39.333C19.8741 39.9305 19.3802 40.417 18.7736 40.417H12.5681C11.9616 40.417 11.4677 39.9305 11.4677 39.333V33.2199C11.4677 32.6224 11.9616 32.1359 12.5681 32.1359H18.7736C19.3802 32.1359 19.8741 32.6224 19.8741 33.2199V39.333ZM18.6104 33.3807H12.7314V39.1732H18.6115V33.3807H18.6104ZM14.6658 37.8662C14.789 37.9876 14.9511 38.0488 15.1123 38.0488C15.2734 38.0488 15.4355 37.9876 15.5587 37.8662L17.8912 35.5685C18.1376 35.3257 18.1376 34.9315 17.8912 34.6878C17.6448 34.445 17.2446 34.445 16.9972 34.6878L15.1112 36.5456L14.3404 35.7863C14.094 35.5436 13.6938 35.5436 13.4464 35.7863C13.2 36.029 13.2 36.4232 13.4464 36.667L14.6658 37.8662ZM31.1731 35.6224C31.5216 35.6224 31.8049 35.3434 31.8049 35C31.8049 34.6566 31.5216 34.3776 31.1731 34.3776H25.215C24.8665 34.3776 24.5832 34.6566 24.5832 35C24.5832 35.3434 24.8665 35.6224 25.215 35.6224H31.1731ZM35.8791 38.639C36.2266 38.639 36.5088 38.3631 36.5109 38.0207C36.513 37.6774 36.2318 37.3963 35.8833 37.3942L25.2203 37.3268C25.2192 37.3268 25.2171 37.3268 25.2161 37.3268C24.8686 37.3268 24.5864 37.6027 24.5843 37.945C24.5822 38.2884 24.8633 38.5695 25.2119 38.5716L35.8749 38.639H35.8791ZM19.8741 43.694V49.8071C19.8741 50.4046 19.3802 50.8911 18.7736 50.8911H12.5681C11.9616 50.8911 11.4677 50.4046 11.4677 49.8071V43.694C11.4677 43.0965 11.9616 42.61 12.5681 42.61H18.7736C19.3802 42.61 19.8741 43.0965 19.8741 43.694ZM18.6104 43.8548H12.7314V49.6473H18.6115V43.8548H18.6104ZM14.6658 48.3402C14.789 48.4616 14.9511 48.5228 15.1123 48.5228C15.2734 48.5228 15.4355 48.4616 15.5587 48.3402L17.8912 46.0425C18.1376 45.7998 18.1376 45.4056 17.8912 45.1618C17.6448 44.9191 17.2446 44.9191 16.9972 45.1618L15.1112 47.0197L14.3404 46.2604C14.094 46.0176 13.6938 46.0176 13.4464 46.2604C13.2 46.5031 13.2 46.8973 13.4464 47.1411L14.6658 48.3402ZM29.6483 44.8517H25.2161C24.8675 44.8517 24.5843 45.1307 24.5843 45.4741C24.5843 45.8174 24.8675 46.0965 25.2161 46.0965H29.6483C29.9968 46.0965 30.2801 45.8174 30.2801 45.4741C30.2801 45.1307 29.9968 44.8517 29.6483 44.8517ZM29.5998 47.8008H25.2161C24.8675 47.8008 24.5843 48.0799 24.5843 48.4232C24.5843 48.7666 24.8675 49.0456 25.2161 49.0456H29.5998C29.9484 49.0456 30.2317 48.7666 30.2317 48.4232C30.2317 48.0799 29.9484 47.8008 29.5998 47.8008Z" fill="url(#paint0_linear_866_11495)"/>
<defs>
<linearGradient id="paint0_linear_866_11495" x1="30" y1="5" x2="30" y2="55" gradientUnits="userSpaceOnUse">
<stop stop-color="#81319B"/>
<stop offset="0.48" stop-color="#00A99D"/>
<stop offset="1" stop-color="#0B2C4C"/>
</linearGradient>
</defs>
</svg>
