<svg width="60" height="60" viewBox="0 0 60 60" fill="none" xmlns="http://www.w3.org/2000/svg">
<path d="M55.001 8.88597C55.001 6.74381 53.2188 5 51.0279 5H18.6351C16.4442 5 14.662 6.74381 14.662 8.88597V19.9858C9.27913 20.3022 5 24.6726 5 30.0005C5 35.3284 9.27913 39.6989 14.661 40.0142V51.114C14.661 53.2572 16.4432 55 18.6341 55H42.1149C42.2705 55 42.424 54.9419 42.5423 54.8299L54.806 43.2508C54.9326 43.1305 54.999 42.9666 54.999 42.7985H55.001V8.88597ZM6.24484 30.0005C6.24484 25.155 10.2999 21.213 15.2834 21.213C20.2669 21.213 24.322 25.155 24.322 30.0005C24.322 34.8461 20.2669 38.788 15.2834 38.788C10.2999 38.788 6.24484 34.8461 6.24484 30.0005ZM41.4925 48.5891V53.7562H18.6351C17.131 53.7562 15.9069 52.5715 15.9069 51.1151V40.0153C21.2887 39.6999 25.5679 35.3295 25.5679 30.0016C25.5679 24.6736 21.2887 20.3032 15.9069 19.9879V8.88805C15.9069 7.43159 17.131 6.24691 18.6351 6.24691H51.0279C52.5321 6.24691 53.7562 7.43159 53.7562 8.88805V42.1782H48.059C44.4386 42.1771 41.4925 45.0527 41.4925 48.5891ZM42.7373 52.9346V48.588C42.7373 45.7384 45.1243 43.4209 48.059 43.4209H52.8122L42.7373 52.9346ZM25.8272 24.6778C25.7069 24.7909 25.5533 24.8479 25.3998 24.8479C25.2349 24.8479 25.0699 24.7826 24.9475 24.6529C24.712 24.4029 24.7234 24.0087 24.9734 23.7732L34.0286 15.2295C34.2662 15.0054 34.6375 15.0033 34.8782 15.2253L39.9914 19.9484L48.7208 11.3207H47.0164C46.6731 11.3207 46.394 11.0416 46.394 10.6983C46.394 10.3549 46.6731 10.0758 47.0164 10.0758H50.2302C50.5736 10.0758 50.8526 10.3549 50.8526 10.6983V13.8311C50.8526 14.1745 50.5736 14.4535 50.2302 14.4535C49.8868 14.4535 49.6078 14.1745 49.6078 13.8311V12.1921L40.4437 21.2493C40.2072 21.4827 39.8285 21.49 39.5837 21.2638L34.4602 16.5314L25.8272 24.6778ZM27.5918 27.5897C27.2484 27.5897 26.9693 27.8687 26.9693 28.2121V33.9083C26.9693 34.2516 27.2484 34.5307 27.5918 34.5307H30.6592C31.0026 34.5307 31.2817 34.2516 31.2817 33.9083V28.2121C31.2817 27.8687 31.0026 27.5897 30.6592 27.5897H27.5918ZM30.0358 33.2859H28.2131V28.8345H30.0358V33.2859ZM33.2879 24.1716C32.9446 24.1716 32.6655 24.4506 32.6655 24.794V33.9072C32.6655 34.2506 32.9446 34.5297 33.2879 34.5297H36.3554C36.6988 34.5297 36.9778 34.2506 36.9778 33.9072V24.794C36.9778 24.4506 36.6988 24.1716 36.3554 24.1716H33.2879ZM35.732 33.2859H33.9093V25.4174H35.732V33.2859ZM42.0506 25.738H38.9841C38.6407 25.738 38.3617 26.017 38.3617 26.3604V33.9072C38.3617 34.2506 38.6407 34.5297 38.9841 34.5297H42.0516C42.395 34.5297 42.674 34.2506 42.674 33.9072V26.3604C42.673 26.017 42.395 25.738 42.0506 25.738ZM41.4281 33.2859H39.6065V26.9839H41.4292V33.2859H41.4281ZM47.7467 20.185H44.6792C44.3359 20.185 44.0568 20.464 44.0568 20.8074V33.9083C44.0568 34.2516 44.3359 34.5307 44.6792 34.5307H47.7467C48.0901 34.5307 48.3692 34.2516 48.3692 33.9083V20.8074C48.3692 20.463 48.0911 20.185 47.7467 20.185ZM47.1243 33.2859H45.3017V21.4298H47.1243V33.2859ZM15.2834 36.3471C14.94 36.3471 14.661 36.0681 14.661 35.7247V34.7973C14.0541 34.6676 13.5023 34.3512 13.0915 33.8855C12.8643 33.6272 12.8881 33.234 13.1464 33.0068C13.4037 32.7796 13.7979 32.8035 14.0251 33.0618C14.3373 33.4155 14.7958 33.6178 15.2834 33.6178C16.1776 33.6178 16.9058 32.9456 16.9058 32.1199C16.9058 31.4362 16.6247 30.6219 15.2834 30.6219C13.5417 30.6219 12.4161 29.5451 12.4161 27.8791C12.4161 26.571 13.3788 25.4755 14.661 25.2027V24.2753C14.661 23.9319 14.94 23.6529 15.2834 23.6529C15.6268 23.6529 15.9058 23.9319 15.9058 24.2753V25.2027C16.5604 25.3407 17.1455 25.6954 17.5646 26.2224C17.7783 26.4911 17.7347 26.8832 17.466 27.0969C17.1973 27.3117 16.8052 27.2671 16.5915 26.9973C16.2845 26.6114 15.7959 26.3822 15.2834 26.3822C14.3892 26.3822 13.661 27.0544 13.661 27.8801C13.661 28.5638 13.9421 29.3781 15.2834 29.3781C17.0251 29.3781 18.1507 30.4549 18.1507 32.1209C18.1507 33.429 17.188 34.5245 15.9058 34.7973V35.7247C15.9058 36.0681 15.6278 36.3471 15.2834 36.3471ZM18.4401 43.1647C18.4401 42.8213 18.7192 42.5423 19.0625 42.5423H35.0805C35.4239 42.5423 35.7029 42.8213 35.7029 43.1647C35.7029 43.5081 35.4239 43.7871 35.0805 43.7871H19.0625C18.7192 43.7871 18.4401 43.5081 18.4401 43.1647ZM18.4401 47.0652C18.4401 46.7218 18.7192 46.4428 19.0625 46.4428H37.8337C38.177 46.4428 38.4561 46.7218 38.4561 47.0652C38.4561 47.4086 38.177 47.6876 37.8337 47.6876H19.0625C18.7192 47.6876 18.4401 47.4086 18.4401 47.0652ZM39.9582 50.9657C39.9582 51.3091 39.6791 51.5881 39.3358 51.5881H19.0625C18.7192 51.5881 18.4401 51.3091 18.4401 50.9657C18.4401 50.6223 18.7192 50.3433 19.0625 50.3433H39.3358C39.6791 50.3433 39.9582 50.6223 39.9582 50.9657Z" fill="url(#paint0_linear_1036_45390)"/>
<defs>
<linearGradient id="paint0_linear_1036_45390" x1="30.0005" y1="5" x2="30.0005" y2="55.001" gradientUnits="userSpaceOnUse">
<stop stop-color="#81319B"/>
<stop offset="0.425" stop-color="#00A99D"/>
<stop offset="1" stop-color="#0B2C4C"/>
</linearGradient>
</defs>
</svg>
