<svg width="28" height="28" viewBox="0 0 28 28" fill="none" xmlns="http://www.w3.org/2000/svg">
<path d="M14 4C11.954 4 9.99176 4.79018 8.54501 6.1967C7.09826 7.60322 6.28548 9.51088 6.28548 11.5V15.9825L5.37645 16.8663C5.19669 17.0411 5.07428 17.2638 5.02469 17.5062C4.9751 17.7487 5.00056 17.9999 5.09786 18.2283C5.19515 18.4567 5.35991 18.6519 5.5713 18.7893C5.78269 18.9266 6.03122 18.9999 6.28548 19H21.7145C21.9688 18.9999 22.2173 18.9266 22.4287 18.7893C22.6401 18.6519 22.8048 18.4567 22.9021 18.2283C22.9994 17.9999 23.0249 17.7487 22.9753 17.5062C22.9257 17.2638 22.8033 17.0411 22.6236 16.8663L21.7145 15.9825V11.5C21.7145 9.51088 20.9017 7.60322 19.455 6.1967C18.0082 4.79018 16.046 4 14 4ZM14 24C12.977 24 11.9959 23.6049 11.2725 22.9017C10.5491 22.1984 10.1427 21.2446 10.1427 20.25H17.8573C17.8573 21.2446 17.4509 22.1984 16.7275 22.9017C16.0041 23.6049 15.023 24 14 24Z" fill="#0B2C4C"/>
</svg>
