<svg width="60" height="60" viewBox="0 0 60 60" fill="none" xmlns="http://www.w3.org/2000/svg">
    <path
        d="M55.0005 8.88597C55.0005 6.74381 53.2184 5 51.0274 5H18.6347C16.4437 5 14.6615 6.74381 14.6615 8.88597V19.9858C9.27865 20.3022 4.99951 24.6726 4.99951 30.0005C4.99951 35.3284 9.27865 39.6989 14.6605 40.0142V51.114C14.6605 53.2572 16.4427 55 18.6336 55H42.1144C42.27 55 42.4235 54.9419 42.5418 54.8299L54.8055 43.2508C54.9321 43.1305 54.9985 42.9666 54.9985 42.7985H55.0005V8.88597ZM6.24435 30.0005C6.24435 25.155 10.2994 21.213 15.2829 21.213C20.2664 21.213 24.3215 25.155 24.3215 30.0005C24.3215 34.8461 20.2664 38.788 15.2829 38.788C10.2994 38.788 6.24435 34.8461 6.24435 30.0005ZM41.492 48.5891V53.7562H18.6347C17.1305 53.7562 15.9064 52.5715 15.9064 51.1151V40.0153C21.2882 39.6999 25.5674 35.3295 25.5674 30.0016C25.5674 24.6736 21.2882 20.3032 15.9064 19.9879V8.88805C15.9064 7.43159 17.1305 6.24691 18.6347 6.24691H51.0274C52.5316 6.24691 53.7557 7.43159 53.7557 8.88805V42.1782H48.0585C44.4381 42.1771 41.492 45.0527 41.492 48.5891ZM42.7368 52.9346V48.588C42.7368 45.7384 45.1238 43.4209 48.0585 43.4209H52.8117L42.7368 52.9346ZM25.8267 24.6778C25.7064 24.7909 25.5528 24.8479 25.3993 24.8479C25.2344 24.8479 25.0694 24.7826 24.947 24.6529C24.7115 24.4029 24.7229 24.0087 24.973 23.7732L34.0281 15.2295C34.2657 15.0054 34.6371 15.0033 34.8777 15.2253L39.9909 19.9484L48.7203 11.3207H47.0159C46.6726 11.3207 46.3935 11.0416 46.3935 10.6983C46.3935 10.3549 46.6726 10.0758 47.0159 10.0758H50.2297C50.5731 10.0758 50.8521 10.3549 50.8521 10.6983V13.8311C50.8521 14.1745 50.5731 14.4535 50.2297 14.4535C49.8863 14.4535 49.6073 14.1745 49.6073 13.8311V12.1921L40.4432 21.2493C40.2067 21.4827 39.828 21.49 39.5832 21.2638L34.4597 16.5314L25.8267 24.6778ZM27.5913 27.5897C27.2479 27.5897 26.9688 27.8687 26.9688 28.2121V33.9083C26.9688 34.2516 27.2479 34.5307 27.5913 34.5307H30.6588C31.0021 34.5307 31.2812 34.2516 31.2812 33.9083V28.2121C31.2812 27.8687 31.0021 27.5897 30.6588 27.5897H27.5913ZM30.0353 33.2859H28.2127V28.8345H30.0353V33.2859ZM33.2874 24.1716C32.9441 24.1716 32.665 24.4506 32.665 24.794V33.9072C32.665 34.2506 32.9441 34.5297 33.2874 34.5297H36.3549C36.6983 34.5297 36.9774 34.2506 36.9774 33.9072V24.794C36.9774 24.4506 36.6983 24.1716 36.3549 24.1716H33.2874ZM35.7315 33.2859H33.9088V25.4174H35.7315V33.2859ZM42.0501 25.738H38.9836C38.6403 25.738 38.3612 26.017 38.3612 26.3604V33.9072C38.3612 34.2506 38.6403 34.5297 38.9836 34.5297H42.0511C42.3945 34.5297 42.6735 34.2506 42.6735 33.9072V26.3604C42.6725 26.017 42.3945 25.738 42.0501 25.738ZM41.4277 33.2859H39.606V26.9839H41.4287V33.2859H41.4277ZM47.7463 20.185H44.6788C44.3354 20.185 44.0563 20.464 44.0563 20.8074V33.9083C44.0563 34.2516 44.3354 34.5307 44.6788 34.5307H47.7463C48.0896 34.5307 48.3687 34.2516 48.3687 33.9083V20.8074C48.3687 20.463 48.0907 20.185 47.7463 20.185ZM47.1238 33.2859H45.3012V21.4298H47.1238V33.2859ZM15.2829 36.3471C14.9396 36.3471 14.6605 36.0681 14.6605 35.7247V34.7973C14.0536 34.6676 13.5018 34.3512 13.091 33.8855C12.8638 33.6272 12.8876 33.234 13.1459 33.0068C13.4032 32.7796 13.7974 32.8035 14.0246 33.0618C14.3368 33.4155 14.7954 33.6178 15.2829 33.6178C16.1771 33.6178 16.9054 32.9456 16.9054 32.1199C16.9054 31.4362 16.6242 30.6219 15.2829 30.6219C13.5412 30.6219 12.4156 29.5451 12.4156 27.8791C12.4156 26.571 13.3783 25.4755 14.6605 25.2027V24.2753C14.6605 23.9319 14.9396 23.6529 15.2829 23.6529C15.6263 23.6529 15.9053 23.9319 15.9053 24.2753V25.2027C16.5599 25.3407 17.145 25.6954 17.5641 26.2224C17.7778 26.4911 17.7342 26.8832 17.4655 27.0969C17.1969 27.3117 16.8047 27.2671 16.591 26.9973C16.284 26.6114 15.7954 26.3822 15.2829 26.3822C14.3887 26.3822 13.6605 27.0544 13.6605 27.8801C13.6605 28.5638 13.9416 29.3781 15.2829 29.3781C17.0247 29.3781 18.1502 30.4549 18.1502 32.1209C18.1502 33.429 17.1875 34.5245 15.9053 34.7973V35.7247C15.9053 36.0681 15.6273 36.3471 15.2829 36.3471ZM18.4396 43.1647C18.4396 42.8213 18.7187 42.5423 19.062 42.5423H35.08C35.4234 42.5423 35.7024 42.8213 35.7024 43.1647C35.7024 43.5081 35.4234 43.7871 35.08 43.7871H19.062C18.7187 43.7871 18.4396 43.5081 18.4396 43.1647ZM18.4396 47.0652C18.4396 46.7218 18.7187 46.4428 19.062 46.4428H37.8332C38.1766 46.4428 38.4556 46.7218 38.4556 47.0652C38.4556 47.4086 38.1766 47.6876 37.8332 47.6876H19.062C18.7187 47.6876 18.4396 47.4086 18.4396 47.0652ZM39.9577 50.9657C39.9577 51.3091 39.6787 51.5881 39.3353 51.5881H19.062C18.7187 51.5881 18.4396 51.3091 18.4396 50.9657C18.4396 50.6223 18.7187 50.3433 19.062 50.3433H39.3353C39.6787 50.3433 39.9577 50.6223 39.9577 50.9657Z"
        fill="url(#paint0_linear_713_28696)" />
    <defs>
        <linearGradient id="paint0_linear_713_28696" x1="30" y1="5" x2="30" y2="55.001" gradientUnits="userSpaceOnUse">
            <stop stop-color="#81319B" />
            <stop offset="0.425" stop-color="#00A99D" />
            <stop offset="1" stop-color="#0B2C4C" />
        </linearGradient>
    </defs>
</svg>