<svg width="60" height="60" viewBox="0 0 60 60" fill="none" xmlns="http://www.w3.org/2000/svg">
    <path
        d="M30.8934 16.3747H17.8783C17.605 16.3747 17.3902 16.5993 17.3902 16.8629C17.3902 17.1265 17.6147 17.3511 17.8783 17.3511H30.8934C31.1668 17.3511 31.3816 17.1265 31.3816 16.8629C31.3816 16.5993 31.1668 16.3747 30.8934 16.3747ZM17.8783 13.6897H25.8455C26.1189 13.6897 26.3337 13.4651 26.3337 13.2015C26.3337 12.9281 26.1092 12.7133 25.8455 12.7133H17.8783C17.605 12.7133 17.3902 12.9379 17.3902 13.2015C17.3902 13.4651 17.605 13.6897 17.8783 13.6897ZM17.8783 15.5936H28.5013C28.7747 15.5936 28.9895 15.3691 28.9895 15.1054C28.9895 14.8418 28.7649 14.6173 28.5013 14.6173H17.8783C17.605 14.6173 17.3902 14.8418 17.3902 15.1054C17.3902 15.3691 17.605 15.5936 17.8783 15.5936ZM49.4347 25.1035H48.1947V19.5382C48.1947 18.6302 47.8237 17.7612 47.1793 17.1265L35.7069 5.97637C35.6093 5.87873 35.5019 5.79086 35.3945 5.70299L35.3652 5.68346C35.2968 5.61511 35.2089 5.55653 35.1211 5.52724C34.5743 5.18551 33.9397 5 33.2953 5H18.3568C14.7442 5 11.7955 7.89983 11.7955 11.4733V25.1133H10.5556C7.48975 25.1133 5 27.3882 5 30.1904V36.9469C5 39.7491 7.48975 42.024 10.5556 42.024H11.7955V48.5755C11.7955 52.1197 14.7344 55 18.3568 55H41.6432C45.2656 55 48.2045 52.1197 48.2045 48.5755V42.024H49.4445C52.5103 42.024 55 39.7491 55 36.9469V30.1904C54.9902 27.3784 52.5005 25.1035 49.4347 25.1035ZM35.1699 7.21636C35.1699 6.82582 35.4433 6.58172 35.8924 6.86487L36.4294 7.38235L46.5837 17.605C46.7594 17.7807 46.7594 18.0736 46.5837 18.2494C46.4958 18.3372 46.3884 18.3763 46.2615 18.3763H37.2789C36.117 18.3763 35.1797 17.439 35.1797 16.2771V7.21636H35.1699ZM12.3033 11.4733C12.3033 8.17321 15.0176 5.50771 18.3568 5.50771H33.2953C33.7444 5.50771 34.1935 5.61511 34.5841 5.80062V16.2771C34.5841 17.7612 35.785 18.9621 37.2691 18.9621H47.6284C47.6674 19.1476 47.687 19.3429 47.687 19.5382V25.1035H12.3033V11.4733ZM47.687 48.5755C47.687 51.8463 44.9727 54.5021 41.6335 54.5021H18.3568C15.0176 54.5021 12.3033 51.8463 12.3033 48.5755V42.024H47.6967V48.5755H47.687ZM54.3458 36.9371C54.3458 39.4171 52.149 41.4284 49.4347 41.4284H10.5556C7.84124 41.4284 5.64441 39.4171 5.64441 36.9371V30.1806C5.64441 27.7006 7.84124 25.6893 10.5556 25.6893H49.4347C52.149 25.6893 54.3458 27.7006 54.3458 30.1806V36.9371ZM24.8887 48.927H35.0918C35.2773 48.927 35.4237 48.7805 35.4237 48.595C35.4237 48.4095 35.2773 48.263 35.0918 48.263H24.8887C24.7032 48.263 24.5567 48.4095 24.5567 48.595C24.5567 48.7805 24.7129 48.927 24.8887 48.927ZM27.1636 34.7403H29.585C30.3076 34.7403 30.8934 34.1545 30.8934 33.432V31.1961C30.8934 30.4735 30.3076 29.8877 29.585 29.8877H26.7731C26.0506 29.8877 25.4648 30.4735 25.4648 31.1961V32.3189H27.1636V31.3816H29.214V33.2562H26.7829C26.0603 33.2562 25.4745 33.842 25.4745 34.5645V38.099H30.8934V36.6149H27.1636V34.7403ZM36.2634 29.8975H33.3929C32.6704 29.8975 32.0846 30.4833 32.0846 31.2058V32.3286H33.7639V31.3913H35.8143V33.266H33.9787V34.7501H35.8143V36.6149H33.7639V35.6776H32.0846V36.8004C32.0846 37.5229 32.6704 38.1088 33.3929 38.1088H36.2634C36.9664 38.0795 37.5132 37.5034 37.5132 36.8004V35.0234C37.5132 34.6231 37.3374 34.2521 37.025 34.008C37.3374 33.7639 37.5132 33.3831 37.5132 32.9926V31.2156C37.5132 30.5028 36.9664 29.9268 36.2634 29.8975ZM23.7756 50.167H36.2048C36.3708 50.167 36.5075 50.0303 36.5075 49.8643C36.5075 49.6983 36.3708 49.5616 36.2048 49.5616H23.7756C23.6096 49.5616 23.473 49.6983 23.473 49.8643C23.473 50.0303 23.6096 50.167 23.7756 50.167ZM22.4771 38.099H24.1564V29.8975H22.4771V38.099Z"
        fill="url(#paint0_linear_713_28657)" />
    <defs>
        <linearGradient id="paint0_linear_713_28657" x1="28.3218" y1="56.6636" x2="28.3218" y2="5"
            gradientUnits="userSpaceOnUse">
            <stop offset="0.03" stop-color="#0B2C4C" />
            <stop offset="0.475" stop-color="#00A99D" />
            <stop offset="1" stop-color="#81319B" />
        </linearGradient>
    </defs>
</svg>