<svg width="30" height="30" viewBox="0 0 30 30" fill="none" xmlns="http://www.w3.org/2000/svg">
<path fill-rule="evenodd" clip-rule="evenodd" d="M5.76174 11.9609L5.03323 10.8226C4.97951 10.7379 4.88674 10.6869 4.78762 10.6869C4.78225 10.6869 4.77737 10.6869 4.77199 10.6869L3.43557 10.7587L4.27834 9.70456C4.34426 9.62188 4.36184 9.50998 4.32424 9.41095L3.84377 8.14392L5.09328 8.63112C5.19094 8.66925 5.30129 8.65142 5.38284 8.58458L6.42239 7.72999L6.35159 9.08516C6.34622 9.19111 6.397 9.29212 6.48489 9.35005L7.60794 10.0888L6.31497 10.4393C6.2134 10.4666 6.1343 10.5468 6.10745 10.6493L5.76223 11.9604L5.76174 11.9609ZM6.15774 12.76L6.62991 10.9691L8.39554 10.4903C8.55179 10.4482 8.64505 10.2853 8.60306 10.1269C8.5845 10.0556 8.54056 9.99421 8.47952 9.95411L6.94583 8.94553L7.04251 7.09424C7.05081 6.93036 6.92629 6.79023 6.76467 6.78182C6.69241 6.77786 6.62161 6.80162 6.56545 6.84767L5.14553 8.01518L3.43898 7.35023C3.2881 7.29131 3.11867 7.36805 3.06057 7.52154C3.03469 7.58987 3.03469 7.66562 3.06057 7.73395L3.71682 9.46393L2.56545 10.9043C2.4634 11.0315 2.48293 11.2187 2.60842 11.3221C2.66457 11.3687 2.73586 11.392 2.80861 11.388L4.63381 11.29L5.62893 12.8452C5.68313 12.9293 5.77541 12.9803 5.87454 12.9803C6.00735 12.9808 6.12405 12.8902 6.15774 12.76ZM25.2281 10.6874C25.1236 10.6819 25.024 10.7334 24.9669 10.8226L24.2383 11.9609L23.8926 10.6498C23.8658 10.5473 23.7867 10.4671 23.6851 10.4398L22.3921 10.0893L23.5152 9.35055C23.6031 9.29262 23.6539 9.19161 23.6485 9.08565L23.5777 7.73048L24.6172 8.58508C24.6988 8.65192 24.8091 8.66974 24.9068 8.63162L26.1563 8.14441L25.6758 9.41095C25.6382 9.51047 25.6558 9.62237 25.7217 9.70506L26.5645 10.7592L25.2281 10.6874ZM26.2833 9.46393L26.9395 7.73395C26.9976 7.58096 26.9224 7.40915 26.772 7.35023C26.7042 7.32349 26.629 7.32349 26.5611 7.35023L24.8545 8.01518L23.4346 6.84767C23.3091 6.74419 23.1246 6.76399 23.0225 6.89124C22.9766 6.94818 22.9537 7.02047 22.9576 7.09424L23.0543 8.94553L21.5206 9.95411C21.3848 10.0432 21.3462 10.2274 21.4341 10.3651C21.4737 10.427 21.5342 10.4715 21.6045 10.4903L23.3702 10.9691L23.8423 12.76C23.8726 12.8734 23.9654 12.9581 24.0796 12.9769C24.1939 12.9947 24.3077 12.9432 24.3712 12.8452L25.3663 11.29L27.1915 11.388C27.3531 11.3969 27.4908 11.2712 27.4996 11.1073C27.5035 11.034 27.4805 10.9617 27.4346 10.9043L26.2833 9.46393ZM16.1006 5.95099C16.023 6.02229 15.9883 6.12973 16.0103 6.23371L16.2842 7.53689L15.1465 6.86995C15.0557 6.81697 14.9444 6.81697 14.8536 6.86995L13.7159 7.53689L13.9898 6.23371C14.0118 6.12973 13.9771 6.02229 13.8995 5.95099L12.9224 5.06025L14.229 4.92162C14.3335 4.91073 14.4239 4.84388 14.4663 4.74684L15 3.52932L15.5337 4.74684C15.5762 4.84388 15.6665 4.91073 15.771 4.92162L17.0777 5.06025L16.1006 5.95099ZM18.042 4.74238C18.0064 4.63048 17.9092 4.55077 17.794 4.53888L16.0005 4.34875L15.2676 2.67769C15.2022 2.52767 15.0298 2.45984 14.8819 2.52619C14.815 2.55589 14.7618 2.60986 14.7325 2.67769L13.9995 4.34875L12.2061 4.53888C12.045 4.55572 11.9283 4.70178 11.9449 4.86517C11.9522 4.93845 11.9864 5.00629 12.0406 5.0553L13.3814 6.27827L13.0054 8.06668C12.9717 8.2271 13.0728 8.38504 13.231 8.41871C13.3018 8.43406 13.3755 8.42218 13.4385 8.38504L15 7.47005L16.5616 8.38504C16.606 8.41129 16.6568 8.42515 16.7081 8.42515C16.8697 8.42515 17.001 8.29196 17.001 8.12807C17.001 8.10728 16.9991 8.08648 16.9947 8.06618L16.6187 6.27778L17.9595 5.05481C18.0455 4.97608 18.0777 4.85379 18.042 4.74189V4.74238ZM21.1553 24.1866C24.316 20.7395 24.1221 15.3471 20.7227 12.1421C17.3233 8.93711 12.0054 9.13368 8.84476 12.5808C5.84573 15.8516 5.84573 20.9158 8.84476 24.1871C9.39603 21.8555 11.1831 20.0305 13.4786 19.4556C11.98 18.6035 11.4463 16.6809 12.2867 15.1614C13.127 13.6418 15.023 13.1007 16.5215 13.9528C18.0201 14.8049 18.5538 16.7275 17.7134 18.247C17.4332 18.7535 17.021 19.1719 16.5215 19.4556C18.8169 20.0305 20.6041 21.8555 21.1553 24.1871V24.1866ZM13.2168 18.5164C12.232 17.5177 12.2315 15.8986 13.2168 14.8995C14.2022 13.9003 15.7984 13.9003 16.7837 14.8995C17.7686 15.8981 17.7691 17.5172 16.7837 18.5164C15.8116 19.5155 14.2256 19.5259 13.2408 18.5406C13.2329 18.5327 13.2251 18.5248 13.2173 18.5169L13.2168 18.5164ZM9.34183 24.6857C9.54104 23.5023 10.0992 22.4115 10.9385 21.5654C13.1831 19.2942 16.8169 19.2942 19.0616 21.5654C19.9009 22.4115 20.459 23.5023 20.6583 24.6857C17.4512 27.647 12.5489 27.647 9.34183 24.6857ZM8.64261 11.9376C5.13137 15.4981 5.13137 21.2703 8.64261 24.8307C12.1538 28.3912 17.8462 28.3912 21.3575 24.8307C24.8687 21.2703 24.8687 15.4981 21.3575 11.9376C17.8521 8.38257 12.148 8.38257 8.64261 11.9376Z" fill="url(#paint0_linear_3795_3794)"/>
<defs>
<linearGradient id="paint0_linear_3795_3794" x1="15" y1="27.5371" x2="15" y2="3.4907" gradientUnits="userSpaceOnUse">
<stop stop-color="#0B2C4C"/>
<stop offset="0.54" stop-color="#00A89C"/>
<stop offset="1" stop-color="#80319A"/>
</linearGradient>
</defs>
</svg>
