<svg width="26" height="26" viewBox="0 0 26 26" fill="none" xmlns="http://www.w3.org/2000/svg">
<path d="M25.5001 2.44299C25.5001 1.37191 24.609 0.5 23.5136 0.5H7.31745C6.22201 0.5 5.33093 1.37191 5.33093 2.44299V7.99289C2.63953 8.15109 0.5 10.3363 0.5 13.0003C0.5 15.6642 2.63953 17.8494 5.33041 18.0071V23.557C5.33041 24.6286 6.22149 25.5 7.31693 25.5H19.0571C19.1349 25.5 19.2117 25.471 19.2708 25.4149L25.4026 19.6254C25.4659 19.5652 25.4991 19.4833 25.4991 19.3993H25.5001V2.44299ZM1.12241 13.0003C1.12241 10.5775 3.14991 8.6065 5.64162 8.6065C8.13333 8.6065 10.1608 10.5775 10.1608 13.0003C10.1608 15.423 8.13333 17.394 5.64162 17.394C3.14991 17.394 1.12241 15.423 1.12241 13.0003ZM18.7459 22.2945V24.8781H7.31745C6.56537 24.8781 5.95334 24.2858 5.95334 23.5575V18.0076C8.64422 17.8499 10.7838 15.6647 10.7838 13.0008C10.7838 10.3368 8.64422 8.15161 5.95334 7.99393V2.44402C5.95334 1.71579 6.56537 1.12346 7.31745 1.12346H23.5136C24.2656 1.12346 24.8777 1.71579 24.8777 2.44402V19.0891H22.0291C20.2189 19.0886 18.7459 20.5264 18.7459 22.2945ZM19.3683 24.4673V22.294C19.3683 20.8692 20.5618 19.7105 22.0291 19.7105H24.4057L19.3683 24.4673ZM10.9134 10.3389C10.8533 10.3954 10.7765 10.424 10.6997 10.424C10.6173 10.424 10.5348 10.3913 10.4736 10.3264C10.3558 10.2014 10.3615 10.0043 10.4865 9.88661L15.0141 5.61473C15.1328 5.5027 15.3185 5.50166 15.4388 5.61266L17.9954 7.97422L22.36 3.66034H21.5079C21.3362 3.66034 21.1966 3.52081 21.1966 3.34913C21.1966 3.17744 21.3362 3.03792 21.5079 3.03792H23.1147C23.2864 3.03792 23.4259 3.17744 23.4259 3.34913V4.91555C23.4259 5.08723 23.2864 5.22676 23.1147 5.22676C22.943 5.22676 22.8035 5.08723 22.8035 4.91555V4.09603L18.2215 8.62465C18.1033 8.74135 17.914 8.74498 17.7916 8.63191L15.2298 6.26568L10.9134 10.3389ZM11.7957 11.7948C11.624 11.7948 11.4845 11.9344 11.4845 12.106V14.9541C11.4845 15.1258 11.624 15.2653 11.7957 15.2653H13.3294C13.5011 15.2653 13.6406 15.1258 13.6406 14.9541V12.106C13.6406 11.9344 13.5011 11.7948 13.3294 11.7948H11.7957ZM13.0177 14.6429H12.1064V12.4173H13.0177V14.6429ZM14.6437 10.0858C14.472 10.0858 14.3325 10.2253 14.3325 10.397V14.9536C14.3325 15.1253 14.472 15.2648 14.6437 15.2648H16.1774C16.3491 15.2648 16.4886 15.1253 16.4886 14.9536V10.397C16.4886 10.2253 16.3491 10.0858 16.1774 10.0858H14.6437ZM15.8657 14.6429H14.9544V10.7087H15.8657V14.6429ZM19.025 10.869H17.4918C17.3201 10.869 17.1806 11.0085 17.1806 11.1802V14.9536C17.1806 15.1253 17.3201 15.2648 17.4918 15.2648H19.0255C19.1972 15.2648 19.3367 15.1253 19.3367 14.9536V11.1802C19.3362 11.0085 19.1972 10.869 19.025 10.869ZM18.7138 14.6429H17.803V11.4919H18.7143V14.6429H18.7138ZM21.873 8.09248H20.3393C20.1676 8.09248 20.0281 8.23201 20.0281 8.40369V14.9541C20.0281 15.1258 20.1676 15.2653 20.3393 15.2653H21.873C22.0447 15.2653 22.1842 15.1258 22.1842 14.9541V8.40369C22.1842 8.23149 22.0452 8.09248 21.873 8.09248ZM21.5618 14.6429H20.6505V8.7149H21.5618V14.6429ZM5.64162 16.1736C5.46993 16.1736 5.33041 16.034 5.33041 15.8624V15.3986C5.02699 15.3338 4.75105 15.1756 4.54566 14.9427C4.43207 14.8136 4.444 14.617 4.57315 14.5034C4.70178 14.3898 4.89887 14.4017 5.01246 14.5309C5.16858 14.7078 5.39784 14.8089 5.64162 14.8089C6.08871 14.8089 6.45282 14.4728 6.45282 14.0599C6.45282 13.7181 6.31226 13.311 5.64162 13.311C4.77076 13.311 4.208 12.7726 4.208 11.9396C4.208 11.2855 4.68933 10.7378 5.33041 10.6014V10.1376C5.33041 9.96596 5.46993 9.82644 5.64162 9.82644C5.8133 9.82644 5.95282 9.96596 5.95282 10.1376V10.6014C6.2801 10.6703 6.57264 10.8477 6.78218 11.1112C6.88903 11.2456 6.86724 11.4416 6.73291 11.5485C6.59857 11.6558 6.40251 11.6335 6.29566 11.4987C6.14214 11.3057 5.89784 11.1911 5.64162 11.1911C5.19452 11.1911 4.83041 11.5272 4.83041 11.9401C4.83041 12.2819 4.97097 12.689 5.64162 12.689C6.51247 12.689 7.07523 13.2274 7.07523 14.0604C7.07523 14.7145 6.5939 15.2622 5.95282 15.3986V15.8624C5.95282 16.034 5.81382 16.1736 5.64162 16.1736ZM7.21994 19.5823C7.21994 19.4107 7.35946 19.2711 7.53115 19.2711H15.54C15.7117 19.2711 15.8512 19.4107 15.8512 19.5823C15.8512 19.754 15.7117 19.8936 15.54 19.8936H7.53115C7.35946 19.8936 7.21994 19.754 7.21994 19.5823ZM7.21994 21.5326C7.21994 21.3609 7.35946 21.2214 7.53115 21.2214H16.9166C17.0882 21.2214 17.2278 21.3609 17.2278 21.5326C17.2278 21.7043 17.0882 21.8438 16.9166 21.8438H7.53115C7.35946 21.8438 7.21994 21.7043 7.21994 21.5326ZM17.9788 23.4828C17.9788 23.6545 17.8393 23.7941 17.6676 23.7941H7.53115C7.35946 23.7941 7.21994 23.6545 7.21994 23.4828C7.21994 23.3112 7.35946 23.1716 7.53115 23.1716H17.6676C17.8393 23.1716 17.9788 23.3112 17.9788 23.4828Z" fill="url(#paint0_linear_405_184)"/>
<defs>
<linearGradient id="paint0_linear_405_184" x1="13" y1="0.5" x2="13" y2="25.5005" gradientUnits="userSpaceOnUse">
<stop stop-color="#81319B"/>
<stop offset="0.425" stop-color="#00A99D"/>
<stop offset="1" stop-color="#0B2C4C"/>
</linearGradient>
</defs>
</svg>
