<svg width="60" height="60" viewBox="0 0 60 60" fill="none" xmlns="http://www.w3.org/2000/svg">
<path d="M14.956 50.9192C15.4701 50.9192 15.8874 50.4475 15.8874 49.8663V47.2805C15.8873 38.8365 22.573 31.9676 30.7897 31.9676C39.0065 31.9676 45.6922 38.8365 45.6922 47.2805V49.8663C45.6922 50.4475 46.1095 50.9192 46.6236 50.9192C47.1377 50.9192 47.5549 50.4475 47.5549 49.8663V47.2805C47.5549 39.3314 42.3987 32.6246 35.3816 30.542C38.1869 28.7269 40.1038 25.3472 40.1038 21.4389C40.1038 15.6334 35.9255 10.9102 30.7897 10.9102C25.654 10.9102 21.4757 15.6334 21.4757 21.4389C21.4757 25.3472 23.3925 28.7269 26.1979 30.542C19.1808 32.6246 14.0245 39.3314 14.0245 47.2805V49.8663C14.0245 50.4475 14.4418 50.9192 14.956 50.9192ZM23.3386 21.4389C23.3386 16.7937 26.6804 13.016 30.7897 13.016C34.899 13.016 38.2409 16.7937 38.2409 21.4389C38.2409 26.0841 34.899 29.8619 30.7897 29.8619C26.6804 29.8619 23.3386 26.0842 23.3386 21.4389Z" fill="url(#paint0_linear_3688_16697)"/>
<path d="M46.5021 30.5688C48.5195 29.0589 49.857 26.4773 49.857 23.544C49.857 18.8988 46.5151 15.1211 42.4058 15.1211C41.8917 15.1211 41.4744 15.5928 41.4744 16.174C41.4744 16.7552 41.8917 17.2269 42.4058 17.2269C45.4868 17.2269 47.9942 20.0613 47.9942 23.5441C47.9942 27.027 45.4868 29.8613 42.4058 29.8613C41.8917 29.8613 41.4744 30.333 41.4744 30.9142C41.4744 31.4954 41.8917 31.9669 42.4058 31.9669C48.5698 31.9669 53.5826 37.206 53.5826 43.6432V45.6542C53.5826 46.2353 53.9999 46.7071 54.514 46.7071C55.0282 46.7071 55.4455 46.2353 55.4455 45.6542V43.6432C55.4455 37.5577 51.69 32.3881 46.5021 30.5688Z" fill="url(#paint1_linear_3688_16697)"/>
<path d="M14.3979 30.393C12.3805 28.8832 11.0431 26.3015 11.0431 23.3682C11.0431 18.723 14.3849 14.9453 18.4942 14.9453C19.0084 14.9453 19.4257 15.417 19.4257 15.9982C19.4257 16.5794 19.0084 17.0511 18.4942 17.0511C15.4132 17.0511 12.9058 19.8855 12.9058 23.3683C12.9058 26.8512 15.4132 29.6855 18.4942 29.6855C19.0084 29.6855 19.4257 30.1573 19.4257 30.7384C19.4257 31.3196 19.0084 31.7912 18.4942 31.7912C12.3302 31.7912 7.31743 37.0302 7.31743 43.4674V45.4784C7.31743 46.0596 6.90013 46.5313 6.386 46.5313C5.87187 46.5313 5.45457 46.0596 5.45457 45.4784V43.4674C5.45457 37.3819 9.20998 32.2123 14.3979 30.393Z" fill="url(#paint2_linear_3688_16697)"/>
<defs>
<linearGradient id="paint0_linear_3688_16697" x1="32.5" y1="11" x2="25.778" y2="48.2533" gradientUnits="userSpaceOnUse">
<stop stop-color="#81319B"/>
<stop offset="0.492827" stop-color="#00A99D"/>
<stop offset="1" stop-color="#0B2C4C"/>
</linearGradient>
<linearGradient id="paint1_linear_3688_16697" x1="41" y1="9.5" x2="29.0088" y2="32.2393" gradientUnits="userSpaceOnUse">
<stop offset="0.0326786" stop-color="#81319B"/>
<stop offset="0.492827" stop-color="#00A99D"/>
<stop offset="1" stop-color="#0B2C4C"/>
</linearGradient>
<linearGradient id="paint2_linear_3688_16697" x1="15" y1="14" x2="27.7707" y2="31.2797" gradientUnits="userSpaceOnUse">
<stop stop-color="#81319B"/>
<stop offset="0.413878" stop-color="#00A99D"/>
<stop offset="1" stop-color="#0B2C4C"/>
</linearGradient>
</defs>
</svg>
