<svg width="60" height="60" viewBox="0 0 60 60" fill="none" xmlns="http://www.w3.org/2000/svg">
<path d="M30.8934 16.3747H17.8783C17.605 16.3747 17.3902 16.5993 17.3902 16.8629C17.3902 17.1265 17.6147 17.3511 17.8783 17.3511H30.8934C31.1668 17.3511 31.3816 17.1265 31.3816 16.8629C31.3816 16.5993 31.1668 16.3747 30.8934 16.3747ZM17.8783 13.6897H25.8455C26.1189 13.6897 26.3337 13.4651 26.3337 13.2015C26.3337 12.9379 26.1092 12.7133 25.8455 12.7133H17.8783C17.605 12.7133 17.3902 12.9379 17.3902 13.2015C17.3902 13.4651 17.605 13.6897 17.8783 13.6897ZM17.8783 15.5936H28.5013C28.7747 15.5936 28.9895 15.3691 28.9895 15.1054C28.9895 14.8418 28.7649 14.6173 28.5013 14.6173H17.8783C17.605 14.6173 17.3902 14.8418 17.3902 15.1054C17.3902 15.3691 17.605 15.5936 17.8783 15.5936ZM49.4347 25.1035H48.1947V19.5382C48.1947 18.6302 47.8237 17.7612 47.1793 17.1265L35.7069 5.97637C35.6093 5.87873 35.5019 5.79086 35.3945 5.70299L35.3652 5.68346C35.2968 5.61511 35.2089 5.55653 35.1211 5.52724C34.5743 5.18551 33.9397 5 33.2953 5H18.3568C14.7442 5 11.7955 7.89983 11.7955 11.4733V25.1133H10.5556C7.48975 25.1133 5 27.3882 5 30.1904V36.9469C5 39.7491 7.48975 42.024 10.5556 42.024H11.7955V48.5755C11.7955 52.1197 14.7344 55 18.3568 55H41.6432C45.2656 55 48.2045 52.1197 48.2045 48.5755V42.024H49.4444C52.5103 42.024 55 39.7491 55 36.9469V30.1904C54.9902 27.3784 52.5005 25.1035 49.4347 25.1035ZM35.1699 7.21636C35.1699 6.82582 35.4433 6.58172 35.8924 6.86487L36.4294 7.38235L46.5837 17.605C46.7594 17.7807 46.7594 18.0736 46.5837 18.2494C46.4958 18.3372 46.3884 18.3763 46.2615 18.3763H37.2789C36.117 18.3763 35.1797 17.439 35.1797 16.2771V7.21636H35.1699ZM12.3033 11.4733C12.3033 8.17321 15.0176 5.50771 18.3568 5.50771H33.2953C33.7444 5.50771 34.1935 5.61511 34.5841 5.80062V16.2771C34.5841 17.7612 35.785 18.9621 37.2691 18.9621H47.6284C47.6674 19.1476 47.687 19.3429 47.687 19.5382V25.1035H12.3033V11.4733ZM47.687 48.5755C47.687 51.8463 44.9727 54.5021 41.6335 54.5021H18.3568C15.0176 54.5021 12.3033 51.8463 12.3033 48.5755V42.024H47.6967V48.5755H47.687ZM54.3458 36.9371C54.3458 39.4171 52.149 41.4284 49.4347 41.4284H10.5556C7.84124 41.4284 5.64441 39.4171 5.64441 36.9371V30.1806C5.64441 27.7006 7.84124 25.6893 10.5556 25.6893H49.4347C52.149 25.6893 54.3458 27.7006 54.3458 30.1806V36.9371ZM24.8887 48.927H35.0918C35.2773 48.927 35.4237 48.7805 35.4237 48.595C35.4237 48.4095 35.2773 48.263 35.0918 48.263H24.8887C24.7032 48.263 24.5567 48.4095 24.5567 48.595C24.5567 48.7805 24.7129 48.927 24.8887 48.927ZM23.7756 50.167H36.2048C36.3708 50.167 36.5075 50.0303 36.5075 49.8643C36.5075 49.6983 36.3708 49.5616 36.2048 49.5616H23.7756C23.6096 49.5616 23.473 49.6983 23.473 49.8643C23.473 50.0303 23.6096 50.167 23.7756 50.167Z" fill="url(#paint0_linear_1038_45410)"/>
<path d="M16.4386 35.7823H15.1039L13.3269 33.0992V35.7823H11.9922V30.9814H13.3269L15.1039 33.6987V30.9814H16.4386V35.7823Z" fill="url(#paint1_linear_1038_45410)"/>
<path d="M20.4281 31.2841C20.8069 31.4862 21.0988 31.7684 21.3029 32.1316C21.507 32.4948 21.6095 32.9108 21.6095 33.3775C21.6095 33.8442 21.506 34.2533 21.3 34.6165C21.093 34.9797 20.8001 35.2648 20.4212 35.4708C20.0424 35.6778 19.603 35.7803 19.1031 35.7803H17.2031V30.9795H19.1031C19.607 30.9795 20.0483 31.081 20.4281 31.2822V31.2841ZM19.9213 34.2845C20.144 34.0707 20.2553 33.769 20.2553 33.3784C20.2553 32.9879 20.144 32.6784 19.9213 32.4626C19.6987 32.2468 19.3922 32.1394 19.0016 32.1394H18.5388V34.6048H19.0016C19.3922 34.6048 19.6987 34.4983 19.9213 34.2845Z" fill="url(#paint2_linear_1038_45410)"/>
<path d="M24.8392 29.2988L23.0212 37.0961H21.7344L23.5524 29.2988H24.8392Z" fill="url(#paint3_linear_1038_45410)"/>
<path d="M29.5558 35.7823H28.2211L26.4441 33.0992V35.7823H25.1094V30.9814H26.4441L28.2211 33.6987V30.9814H29.5558V35.7823Z" fill="url(#paint4_linear_1038_45410)"/>
<path d="M30.4521 32.1082C30.6493 31.7381 30.9295 31.4501 31.2937 31.2431C31.6569 31.0361 32.0748 30.9336 32.5464 30.9336C33.1459 30.9336 33.6497 31.0937 34.0578 31.414C34.466 31.7342 34.7296 32.1687 34.8477 32.7184H33.4105C33.3246 32.5368 33.2055 32.3982 33.0531 32.3034C32.9008 32.2087 32.7251 32.1609 32.5259 32.1609C32.2174 32.1609 31.9703 32.2712 31.7868 32.4909C31.6032 32.7116 31.5115 33.0055 31.5115 33.3726C31.5115 33.7397 31.6032 34.0414 31.7868 34.2611C31.9703 34.4817 32.2164 34.5911 32.5259 34.5911C32.7251 34.5911 32.9018 34.5432 33.0531 34.4485C33.2045 34.3538 33.3246 34.2152 33.4105 34.0336H34.8477C34.7296 34.5833 34.466 35.0178 34.0578 35.338C33.6487 35.6583 33.1449 35.8184 32.5464 35.8184C32.0738 35.8184 31.656 35.7149 31.2937 35.5089C30.9305 35.3019 30.6503 35.0139 30.4521 34.6438C30.2549 34.2738 30.1562 33.85 30.1562 33.3735C30.1562 32.8971 30.2549 32.4802 30.4521 32.1101V32.1082Z" fill="url(#paint5_linear_1038_45410)"/>
<path d="M38.1127 29.2988L36.2947 37.0961H35.0078L36.8258 29.2988H38.1127Z" fill="url(#paint6_linear_1038_45410)"/>
<path d="M42.8292 35.7823H41.4945L39.7175 33.0992V35.7823H38.3828V30.9814H39.7175L41.4945 33.6987V30.9814H42.8292V35.7823Z" fill="url(#paint7_linear_1038_45410)"/>
<path d="M46.6302 34.9992H44.9274L44.6687 35.7823H43.2656L45.0163 30.9814H46.555L48.2988 35.7823H46.8889L46.6302 34.9992ZM46.2963 33.9779L45.7788 32.4255L45.2682 33.9779H46.2963Z" fill="url(#paint8_linear_1038_45410)"/>
<defs>
<linearGradient id="paint0_linear_1038_45410" x1="29.0586" y1="55" x2="29.0586" y2="5" gradientUnits="userSpaceOnUse">
<stop stop-color="#0B2C4C"/>
<stop offset="0.5" stop-color="#00A99D"/>
<stop offset="1" stop-color="#81319B"/>
</linearGradient>
<linearGradient id="paint1_linear_1038_45410" x1="14.185" y1="46.87" x2="14.185" y2="15.6985" gradientUnits="userSpaceOnUse">
<stop stop-color="#0B2C4C"/>
<stop offset="0.5" stop-color="#00A99D"/>
<stop offset="1" stop-color="#81319B"/>
</linearGradient>
<linearGradient id="paint2_linear_1038_45410" x1="19.3762" y1="46.868" x2="19.3762" y2="15.6965" gradientUnits="userSpaceOnUse">
<stop stop-color="#0B2C4C"/>
<stop offset="0.5" stop-color="#00A99D"/>
<stop offset="1" stop-color="#81319B"/>
</linearGradient>
<linearGradient id="paint3_linear_1038_45410" x1="23.2656" y1="55.1044" x2="23.2656" y2="4.47678" gradientUnits="userSpaceOnUse">
<stop stop-color="#0B2C4C"/>
<stop offset="0.5" stop-color="#00A99D"/>
<stop offset="1" stop-color="#81319B"/>
</linearGradient>
<linearGradient id="paint4_linear_1038_45410" x1="27.3022" y1="46.87" x2="27.3022" y2="15.6985" gradientUnits="userSpaceOnUse">
<stop stop-color="#0B2C4C"/>
<stop offset="0.5" stop-color="#00A99D"/>
<stop offset="1" stop-color="#81319B"/>
</linearGradient>
<linearGradient id="paint5_linear_1038_45410" x1="32.4699" y1="47.1" x2="32.4699" y2="15.3833" gradientUnits="userSpaceOnUse">
<stop stop-color="#0B2C4C"/>
<stop offset="0.5" stop-color="#00A99D"/>
<stop offset="1" stop-color="#81319B"/>
</linearGradient>
<linearGradient id="paint6_linear_1038_45410" x1="36.539" y1="55.1044" x2="36.539" y2="4.47678" gradientUnits="userSpaceOnUse">
<stop stop-color="#0B2C4C"/>
<stop offset="0.5" stop-color="#00A99D"/>
<stop offset="1" stop-color="#81319B"/>
</linearGradient>
<linearGradient id="paint7_linear_1038_45410" x1="40.5756" y1="46.87" x2="40.5756" y2="15.6985" gradientUnits="userSpaceOnUse">
<stop stop-color="#0B2C4C"/>
<stop offset="0.5" stop-color="#00A99D"/>
<stop offset="1" stop-color="#81319B"/>
</linearGradient>
<linearGradient id="paint8_linear_1038_45410" x1="45.7478" y1="46.87" x2="45.7478" y2="15.6985" gradientUnits="userSpaceOnUse">
<stop stop-color="#0B2C4C"/>
<stop offset="0.5" stop-color="#00A99D"/>
<stop offset="1" stop-color="#81319B"/>
</linearGradient>
</defs>
</svg>
