<svg width="60" height="60" viewBox="0 0 60 60" fill="none" xmlns="http://www.w3.org/2000/svg">
<path d="M57.7261 35.7859C56.589 34.5588 50.6638 28.3424 49.6852 27.2898C49.0466 26.6114 48.277 26.0696 47.4231 25.6972C46.5691 25.3247 45.6485 25.1293 44.7168 25.1228H38.1905V24.1199C38.2041 23.3018 37.8929 22.5116 37.325 21.9225C36.757 21.3335 35.9788 20.9936 35.1607 20.9773H27.6704V12.7439C27.6668 12.5773 27.6235 12.4139 27.5441 12.2673C27.4647 12.1208 27.3515 11.9952 27.2139 11.9011L18.3189 6.13843C18.0115 5.94351 17.6547 5.84067 17.2906 5.84205C16.9266 5.84344 16.5706 5.94899 16.2647 6.14624L7.38039 11.9021C7.24386 11.9973 7.13127 12.1229 7.05147 12.2689C6.97166 12.415 6.92682 12.5776 6.92046 12.7439V20.9773H5.02051C4.20375 20.9949 3.42726 21.3355 2.86118 21.9246C2.29511 22.5136 1.98562 23.3031 2.00051 24.1199V46.8914C1.98698 47.7068 2.29725 48.4943 2.86333 49.0813C3.42942 49.6684 4.20515 50.0071 5.02051 50.0232H11.3633C11.5396 51.1741 12.1222 52.2239 13.0056 52.9823C13.889 53.7407 15.0149 54.1577 16.1792 54.1577C17.3435 54.1577 18.4694 53.7407 19.3528 52.9823C20.2362 52.2239 20.8188 51.1741 20.9951 50.0232C25.2497 50.0211 38.2262 50.0232 42.2755 50.0283C42.4636 51.1697 43.0511 52.2071 43.933 52.9556C44.815 53.704 45.9342 54.1149 47.091 54.1148C48.2477 54.1148 49.3669 53.7039 50.2488 52.9553C51.1307 52.2068 51.7181 51.1694 51.9062 50.028L54.9766 50.0252C55.793 50.0092 56.5699 49.6702 57.1367 49.0824C57.7036 48.4945 58.0142 47.7059 58.0005 46.8894V36.4744C58.0006 36.2182 57.9024 35.9718 57.7261 35.7859ZM50.0197 30.5525L54.6051 35.3982H45.001C44.7151 35.3825 44.4471 35.2543 44.2552 35.0418C44.0634 34.8292 43.9634 34.5494 43.9771 34.2634V31.6882C43.9634 31.4021 44.0634 31.1222 44.2552 30.9095C44.447 30.6968 44.715 30.5685 45.001 30.5525H50.0197ZM8.92043 24.5945V14.593L10.0801 15.3559V20.1023C10.08 20.2644 10.1194 20.424 10.1948 20.5674C10.2701 20.7108 10.3793 20.8337 10.5127 20.9256L13.0567 22.6785C13.2073 22.7796 13.3824 22.838 13.5635 22.8478C13.7446 22.8575 13.925 22.8181 14.0856 22.7338C14.2462 22.6494 14.381 22.5233 14.4757 22.3686C14.5705 22.214 14.6218 22.0366 14.624 21.8552V18.3362C14.7036 18.379 16.2444 19.4274 16.2974 19.4037V29.17L8.92043 24.5945ZM21.1823 10.3773L13.0793 15.6461C12.9709 15.7295 12.8733 15.826 12.7886 15.9334C12.6897 16.1008 12.6332 16.2899 12.624 16.4841V19.9519L12.08 19.5769V15.3513L20.3697 9.85083L21.1823 10.3773ZM18.2974 19.4034C18.3517 19.3744 18.4112 19.3609 18.4634 19.3269L25.6704 14.594V24.3806L20.6719 27.5466L18.2974 29.1064L18.2974 19.4034ZM17.3692 17.6531C17.3203 17.8241 15.7667 16.6474 15.4535 16.4877L23.0191 11.5674L24.8394 12.7468L17.3692 17.6531ZM17.2974 7.86008L18.5401 8.66526L11.0758 13.6173L9.75344 12.7477L17.2974 7.86008ZM5.02051 22.9773H6.92041C6.93479 24.0377 6.69312 25.6384 7.82141 26.2351C8.39385 26.4942 16.8721 32.1068 17.2974 31.9657C17.725 31.9867 17.953 31.6452 18.2994 31.4978L21.7559 29.2273L27.2056 25.7752C27.348 25.685 27.4653 25.5602 27.5466 25.4125C27.6278 25.2648 27.6705 25.099 27.6704 24.9304V22.9773H35.1607C35.4484 22.9934 35.718 23.1225 35.9109 23.3365C36.1038 23.5505 36.2043 23.8321 36.1905 24.1199C36.1825 24.7583 36.1962 39.3146 36.1905 40.4793H4.00051V24.1199C3.98554 23.8334 4.08431 23.5526 4.27535 23.3387C4.46638 23.1247 4.7342 22.9948 5.02051 22.9773ZM4.00051 46.8914V42.4793H36.1905V48.0233H20.9939C20.8045 46.8831 20.2166 45.8471 19.335 45.0998C18.4533 44.3525 17.335 43.9424 16.1792 43.9424C15.0234 43.9424 13.9051 44.3526 13.0234 45.0999C12.1418 45.8472 11.5539 46.8832 11.3645 48.0234L5.02051 48.0232C4.73556 48.0073 4.46844 47.8794 4.27738 47.6674C4.08631 47.4554 3.9868 47.1764 4.00051 46.8914ZM16.1792 52.158C12.3418 52.0542 12.343 46.0051 16.1793 45.9012C20.0177 46.0051 20.0168 52.0546 16.1792 52.158ZM47.0908 52.158C43.2528 52.0541 43.2527 46.0047 47.0909 45.9012C50.9298 46.0053 50.928 52.0547 47.0908 52.158ZM54.9766 48.0252L51.906 48.0282C51.728 46.8788 51.1448 45.831 50.2617 45.0741C49.3786 44.3172 48.2538 43.9012 47.0907 43.9012C45.9277 43.9012 44.8029 44.3173 43.9199 45.0742C43.0368 45.8311 42.4536 46.879 42.2757 48.0284L38.1848 48.0249C38.1745 48.0011 38.2041 27.16 38.1904 27.1229H44.7168C45.3477 27.1268 45.9716 27.2551 46.5528 27.5004C47.134 27.7458 47.6612 28.1033 48.104 28.5526H45.001C44.1846 28.5685 43.4077 28.9076 42.8409 29.4954C42.274 30.0832 41.9634 30.8718 41.9771 31.6883V34.2635C41.9636 35.0799 42.2743 35.8683 42.8412 36.4559C43.408 37.0435 44.1847 37.3824 45.001 37.3983H56.0005V46.8895C56.0141 47.1756 55.9142 47.4555 55.7224 47.6682C55.5306 47.8809 55.2625 48.0092 54.9766 48.0252Z" fill="url(#paint0_linear_7823_15295)"/>
<path d="M31.7612 18.3971H46.8516V19.5358C46.8541 19.7564 46.917 19.972 47.0335 20.1593C47.15 20.3466 47.3156 20.4984 47.5123 20.5981C47.709 20.6979 47.9293 20.7418 48.1493 20.7252C48.3692 20.7085 48.5804 20.6318 48.7598 20.5035L54.6133 16.2223C54.7636 16.1096 54.8855 15.9634 54.9694 15.7953C55.0533 15.6272 55.0969 15.4419 55.0967 15.254C55.0965 15.0662 55.0525 14.881 54.9683 14.7131C54.884 14.5452 54.7618 14.3992 54.6113 14.2868L48.7607 10.0065C48.5812 9.87843 48.37 9.80197 48.1501 9.7854C47.9302 9.76883 47.7099 9.81279 47.5132 9.91251C47.3165 10.0122 47.1508 10.1639 47.0342 10.3511C46.9176 10.5383 46.8544 10.7538 46.8516 10.9743V12.1129H31.7612C31.4431 12.1133 31.138 12.2399 30.9131 12.4649C30.6882 12.6899 30.5617 12.995 30.5615 13.3131V17.1979C30.5619 17.5159 30.6885 17.8208 30.9134 18.0456C31.1383 18.2704 31.4432 18.3968 31.7612 18.3971ZM32.5615 14.113H47.6514C47.839 14.1051 48.0226 14.0562 48.1892 13.9697C48.3559 13.8833 48.5016 13.7613 48.616 13.6124C48.7304 13.4635 48.8108 13.2913 48.8515 13.108C48.8922 12.9247 48.8922 12.7347 48.8515 12.5514L52.5483 15.2545L48.8515 17.9586C48.8922 17.7753 48.8922 17.5853 48.8515 17.402C48.8108 17.2187 48.7304 17.0465 48.616 16.8977C48.5016 16.7488 48.3559 16.6268 48.1892 16.5403C48.0225 16.4538 47.8389 16.405 47.6513 16.3971H32.5615L32.5615 14.113Z" fill="url(#paint1_linear_7823_15295)"/>
<path d="M26.6662 35.2641C26.4044 35.2692 26.155 35.3768 25.9716 35.5638C25.7883 35.7508 25.6855 36.0023 25.6855 36.2641C25.6856 36.526 25.7883 36.7775 25.9717 36.9644C26.155 37.1514 26.4044 37.259 26.6663 37.2641H28.7263V38.103C28.7314 38.3648 28.839 38.6142 29.026 38.7976C29.213 38.9809 29.4644 39.0836 29.7263 39.0836C29.9882 39.0836 30.2396 38.9809 30.4266 38.7975C30.6136 38.6142 30.7212 38.3648 30.7263 38.1029V37.2391C34.765 36.8766 34.7658 31.7088 30.7262 31.3468L30.7263 29.3793H32.7858C33.0477 29.3742 33.2971 29.2666 33.4804 29.0796C33.6638 28.8926 33.7665 28.6412 33.7665 28.3793C33.7665 28.1174 33.6638 27.866 33.4804 27.679C33.297 27.492 33.0476 27.3844 32.7858 27.3793H30.7263V26.5395C30.7212 26.2777 30.6136 26.0283 30.4266 25.8449C30.2396 25.6615 29.9882 25.5588 29.7263 25.5588C29.4644 25.5588 29.213 25.6616 29.026 25.8449C28.839 26.0283 28.7314 26.2777 28.7263 26.5396V27.4044C24.6859 27.7672 24.6872 32.9346 28.7264 33.2967L28.7263 35.2641H26.6662ZM31.7858 34.2924C31.7858 34.7498 31.3231 35.1451 30.7263 35.2412V33.3447C31.3231 33.4406 31.7858 33.8351 31.7858 34.2924ZM27.6662 30.35C27.6662 29.8927 28.1293 29.4981 28.7263 29.4023V31.2988C28.1293 31.2028 27.6662 30.8074 27.6662 30.35Z" fill="url(#paint2_linear_7823_15295)"/>
<defs>
<linearGradient id="paint0_linear_7823_15295" x1="30.0005" y1="5.84204" x2="30.0005" y2="54.1577" gradientUnits="userSpaceOnUse">
<stop stop-color="#81319B"/>
<stop offset="0.48" stop-color="#00A99D"/>
<stop offset="1" stop-color="#0B2C4C"/>
</linearGradient>
<linearGradient id="paint1_linear_7823_15295" x1="42.8291" y1="9.78198" x2="42.8291" y2="20.7286" gradientUnits="userSpaceOnUse">
<stop stop-color="#81319B"/>
<stop offset="0.48" stop-color="#00A99D"/>
<stop offset="1" stop-color="#0B2C4C"/>
</linearGradient>
<linearGradient id="paint2_linear_7823_15295" x1="29.726" y1="25.5588" x2="29.726" y2="39.0836" gradientUnits="userSpaceOnUse">
<stop stop-color="#81319B"/>
<stop offset="0.48" stop-color="#00A99D"/>
<stop offset="1" stop-color="#0B2C4C"/>
</linearGradient>
</defs>
</svg>
