<svg width="30" height="30" viewBox="0 0 30 30" fill="none" xmlns="http://www.w3.org/2000/svg">
<path d="M22.1902 11.5566L13.2682 10.2718C13.1624 10.2543 13.0675 10.1951 13.0039 10.1068C12.9403 10.0185 12.913 9.90818 12.928 9.79957C12.943 9.69095 12.999 9.59267 13.084 9.52583C13.169 9.45899 13.2762 9.42891 13.3826 9.44206L22.3045 10.7269C22.4104 10.7443 22.5053 10.8036 22.5689 10.8919C22.6325 10.9802 22.6597 11.0905 22.6448 11.1991C22.6298 11.3077 22.5738 11.406 22.4888 11.4728C22.4038 11.5397 22.2966 11.5697 22.1902 11.5566ZM22.019 12.8015L13.0975 11.5167C12.991 11.5035 12.8838 11.5336 12.7988 11.6004C12.7138 11.6673 12.6578 11.7656 12.6428 11.8742C12.6279 11.9828 12.6551 12.0931 12.7187 12.1814C12.7823 12.2697 12.8772 12.3289 12.9831 12.3464L21.9046 13.6314C22.0122 13.6469 22.1214 13.6181 22.2081 13.5513C22.2949 13.4844 22.3522 13.385 22.3674 13.275C22.3825 13.1649 22.3543 13.0532 22.289 12.9644C22.2237 12.8756 22.1266 12.817 22.019 12.8015ZM21.4483 16.9511L12.5267 15.6663C12.4203 15.6532 12.3131 15.6833 12.2282 15.7501C12.1432 15.817 12.0872 15.9153 12.0723 16.0238C12.0573 16.1324 12.0846 16.2427 12.1481 16.331C12.2117 16.4193 12.3066 16.4785 12.4124 16.496L21.3339 17.7808C21.4402 17.7937 21.5472 17.7635 21.632 17.6966C21.7168 17.6298 21.7726 17.5317 21.7876 17.4232C21.8025 17.3148 21.7754 17.2046 21.712 17.1164C21.6486 17.0282 21.5539 16.9688 21.4483 16.9511ZM21.7339 14.8763L12.8119 13.5915C12.7055 13.5784 12.5982 13.6084 12.5132 13.6753C12.4282 13.7421 12.3723 13.8404 12.3573 13.949C12.3423 14.0576 12.3695 14.1679 12.4332 14.2562C12.4968 14.3445 12.5917 14.4038 12.6975 14.4213L21.6195 15.706C21.7259 15.7192 21.8331 15.6891 21.9181 15.6223C22.0031 15.5554 22.0591 15.4572 22.0741 15.3485C22.0891 15.2399 22.0618 15.1296 21.9982 15.0413C21.9346 14.953 21.8397 14.8938 21.7339 14.8763ZM21.1632 19.0259L12.2412 17.7411C12.1348 17.728 12.0276 17.7581 11.9426 17.8249C11.8576 17.8917 11.8016 17.99 11.7866 18.0986C11.7716 18.2073 11.7989 18.3176 11.8625 18.4058C11.9261 18.4941 12.021 18.5534 12.1268 18.5709L21.0487 19.8559C21.102 19.8636 21.1562 19.8604 21.2083 19.8467C21.2604 19.8329 21.3093 19.8088 21.3522 19.7757C21.3952 19.7426 21.4314 19.7012 21.4587 19.6538C21.486 19.6064 21.504 19.5539 21.5115 19.4994C21.519 19.4449 21.5159 19.3895 21.5025 19.3362C21.4891 19.2829 21.4655 19.2328 21.4332 19.1889C21.4008 19.1449 21.3603 19.1079 21.314 19.0799C21.2677 19.052 21.2164 19.0336 21.1632 19.0259ZM20.8776 21.1008L11.9561 19.8162C11.8496 19.803 11.7424 19.8331 11.6574 19.8999C11.5724 19.9668 11.5164 20.0651 11.5015 20.1737C11.4865 20.2823 11.5137 20.3926 11.5773 20.4809C11.641 20.5692 11.7359 20.6284 11.8417 20.6459L20.7633 21.9307C20.8708 21.9463 20.98 21.9174 21.0668 21.8506C21.1535 21.7837 21.2108 21.6843 21.226 21.5742C21.2411 21.4642 21.213 21.3525 21.1476 21.2637C21.0823 21.1749 20.9852 21.1163 20.8776 21.1008ZM25.9753 8.09769L23.7475 24.29C23.6992 24.6188 23.5266 24.9151 23.267 25.1149C23.0073 25.3148 22.6813 25.4023 22.3592 25.3586L22.0029 25.3083C21.9405 25.4266 21.8604 25.534 21.7654 25.6268C21.6448 25.7449 21.5021 25.8366 21.3458 25.8964C21.1895 25.9562 21.0229 25.9828 20.8563 25.9746L19.9594 25.9285V25.9495C19.9592 26.2774 19.8335 26.5922 19.6092 26.8264C19.3849 27.0606 19.0799 27.1956 18.7595 27.2025L5.65881 27.5H5.63014C5.30947 27.4969 5.00242 27.3669 4.77337 27.1372C4.54433 26.9075 4.41108 26.596 4.40157 26.268L4.00024 7.6032C3.99383 7.26942 4.11693 6.94663 4.34259 6.70551C4.56824 6.46439 4.87807 6.32458 5.20424 6.3167L7.48119 6.26641L7.52624 5.32773C7.54447 4.99538 7.69026 4.68386 7.93185 4.46097C8.17345 4.23808 8.49131 4.12186 8.81624 4.13761L10.7902 4.23818L10.8802 3.58026C10.9272 3.25083 11.0995 2.95373 11.3595 2.7536C11.6195 2.55347 11.9462 2.46652 12.2685 2.51167L21.5688 3.85265C21.8444 3.8925 23.0428 4.04961 23.297 4.11665C24.8819 4.54141 26.1981 6.42369 25.9753 8.09769ZM22.2814 4.79972C22.3403 5.13115 22.3591 5.46873 22.3374 5.80486L22.3387 5.80545C22.311 6.29425 22.2481 6.78028 22.1504 7.25958C22.1292 7.44358 22.179 7.62876 22.2891 7.77585C22.3992 7.92293 22.561 8.02033 22.7401 8.0474L22.7393 8.04833C23.5405 8.09767 24.3302 8.26823 25.0825 8.55446C25.094 8.45946 25.1764 7.93539 25.1767 7.85045C25.2614 6.55942 24.0792 5.02182 22.8279 4.87904C22.8336 4.88122 22.2814 4.79972 22.2814 4.79972ZM21.3395 7.12129C21.386 6.88104 21.4197 6.66058 21.4475 6.45042L14.9714 5.5163C14.8639 5.50105 14.7549 5.52995 14.6682 5.5967C14.5815 5.66344 14.5241 5.7626 14.5086 5.8725L14.4513 6.29994C14.4362 6.40995 14.4644 6.52161 14.5296 6.61039C14.5949 6.69917 14.6919 6.75782 14.7994 6.77347L21.3723 7.72054L21.3764 7.72117C21.3253 7.52569 21.3128 7.32177 21.3395 7.12129ZM19.1403 25.8866L7.76786 25.2958C7.44278 25.2779 7.13786 25.129 6.91987 24.8816C6.70188 24.6342 6.58859 24.3084 6.60481 23.9757L7.44024 7.10453L5.22062 7.15481C5.11211 7.15737 5.009 7.20375 4.93381 7.28384C4.85861 7.36392 4.81744 7.47121 4.81929 7.58225L5.22062 26.2512C5.22517 26.3615 5.27113 26.4658 5.34895 26.5423C5.42676 26.6188 5.53042 26.6617 5.63833 26.6619L18.7431 26.3644C18.7967 26.3634 18.8496 26.3515 18.8987 26.3294C18.9478 26.3073 18.9922 26.2754 19.0291 26.2357C19.0661 26.1959 19.0949 26.149 19.114 26.0977C19.1331 26.0464 19.1421 25.9918 19.1403 25.9369V25.8866ZM20.7703 25.1281L9.38139 23.4896C9.05919 23.4421 8.76848 23.266 8.57279 22.9998C8.37711 22.7336 8.29237 22.399 8.3371 22.069L10.6755 5.0721L8.77529 4.97153C8.66695 4.96706 8.56122 5.00626 8.48082 5.0807C8.40042 5.15514 8.35176 5.25888 8.34529 5.36963L7.42386 24.0176C7.41873 24.1287 7.45677 24.2373 7.52967 24.3198C7.60257 24.4022 7.7044 24.4518 7.81291 24.4577L20.7703 25.1281ZM24.9638 9.45124C24.8942 9.35486 24.542 9.09085 22.7524 8.8939C22.46 8.87181 22.1801 8.76356 21.9465 8.58224L21.9415 8.5838H21.9374C21.8092 8.60965 21.6775 8.61249 21.5484 8.59218L14.6847 7.6032C14.3622 7.55648 14.071 7.38057 13.8751 7.11417C13.6793 6.84777 13.5949 6.51268 13.6404 6.1826L13.6978 5.75936C13.7432 5.42889 13.9149 5.13037 14.1752 4.92926C14.4354 4.72815 14.763 4.64087 15.0861 4.68657L21.5156 5.61269H21.5167C21.5484 5.29307 21.5015 4.9704 21.3804 4.674L12.1539 3.3414C12.0464 3.32614 11.9374 3.35505 11.8507 3.42179C11.7639 3.48854 11.7066 3.5877 11.6911 3.6976L9.14796 22.1864C9.13305 22.2963 9.16129 22.4079 9.22652 22.4966C9.29175 22.5854 9.38865 22.6441 9.49605 22.6599L22.4739 24.5289C22.5814 24.5441 22.6904 24.5152 22.7771 24.4485C22.8638 24.3818 22.9212 24.2826 22.9366 24.1727L24.9638 9.45124Z" fill="url(#paint0_linear_780_144)"/>
<defs>
<linearGradient id="paint0_linear_780_144" x1="13.2478" y1="27.5437" x2="13.2478" y2="2.44938" gradientUnits="userSpaceOnUse">
<stop stop-color="#0B2C4C"/>
<stop offset="0.45" stop-color="#00A99D"/>
<stop offset="1" stop-color="#81319B"/>
</linearGradient>
</defs>
</svg>
