<svg width="22" height="22" viewBox="0 0 22 22" fill="none" xmlns="http://www.w3.org/2000/svg">
<path fill-rule="evenodd" clip-rule="evenodd" d="M6.29243 8.30468C6.47973 8.11758 6.73374 8.01248 6.99858 8.01248C7.26342 8.01248 7.51743 8.11758 7.70473 8.30468L10.9938 11.5911L14.2828 8.30468C14.3749 8.20936 14.4851 8.13333 14.607 8.08102C14.7288 8.02872 14.8599 8.00119 14.9925 8.00004C15.1251 7.99889 15.2567 8.02414 15.3794 8.07432C15.5022 8.1245 15.6137 8.1986 15.7075 8.2923C15.8012 8.38601 15.8754 8.49744 15.9256 8.62009C15.9758 8.74274 16.0011 8.87415 16 9.00666C15.9988 9.13918 15.9713 9.27013 15.9189 9.39189C15.8666 9.51365 15.7905 9.62377 15.6951 9.71583L11.6999 13.7078C11.5126 13.8949 11.2586 14 10.9938 14C10.7289 14 10.4749 13.8949 10.2876 13.7078L6.29243 9.71583C6.10519 9.52868 6 9.27489 6 9.01026C6 8.74562 6.10519 8.49183 6.29243 8.30468Z" fill="#00A99D"/>
</svg>