<svg width="60" height="60" viewBox="0 0 60 60" fill="none" xmlns="http://www.w3.org/2000/svg">
<path d="M33.2258 17.0968H23.5484V15.4839H33.2258V17.0968ZM33.2258 18.7097H20.3226V20.3226H33.2258V18.7097ZM55 17.0968V50.9677C54.9987 52.0368 54.5735 53.0616 53.8176 53.8176C53.0616 54.5735 52.0368 54.9987 50.9677 55H9.03226C7.96323 54.9987 6.93835 54.5735 6.18244 53.8176C5.42652 53.0616 5.00128 52.0368 5 50.9677V26.7742C5.00114 25.7745 5.31188 24.7997 5.88951 23.9838C6.46714 23.1679 7.2833 22.551 8.22581 22.2177V17.9032C8.22582 17.7838 8.25239 17.6658 8.30357 17.5578C8.35476 17.4499 8.42929 17.3547 8.52177 17.279L14.6774 12.2427V5.80645C14.6774 5.59257 14.7624 5.38744 14.9136 5.2362C15.0649 5.08497 15.27 5 15.4839 5H44.5161C44.73 5 44.9351 5.08497 45.0864 5.2362C45.2376 5.38744 45.3226 5.59257 45.3226 5.80645V13.0645H50.9677C52.0372 13.0645 53.0628 13.4893 53.819 14.2455C54.5752 15.0017 55 16.0274 55 17.0968ZM16.2903 10.9234L17.3927 10.021C17.5368 9.90314 17.7171 9.83874 17.9032 9.83871H36.4516C36.6655 9.83871 36.8706 9.92368 37.0219 10.0749C37.1731 10.2262 37.2581 10.4313 37.2581 10.6452V14.6774H41.2903V16.2903H37.2581V17.9032H41.2903V19.5161H37.2581V21.129H41.2903V22.7419H37.2581V24.3548H41.2903V25.9677H37.2581V27.5806H43.7097V6.6129H16.2903V10.9234ZM11.2903 17.0968H17.0968V12.3476L11.2903 17.0968ZM9.83871 21.9355H29.1935C29.833 21.9376 30.4546 22.1468 30.9651 22.5318C31.4757 22.9167 31.8479 23.4568 32.0258 24.071L32.7516 26.6153C32.8321 26.893 33.0004 27.1371 33.2313 27.3111C33.4621 27.4852 33.7432 27.5797 34.0323 27.5806H35.6452V11.4516H18.7097V17.9032C18.7097 18.1171 18.6247 18.3222 18.4735 18.4735C18.3222 18.6247 18.1171 18.7097 17.9032 18.7097H9.83871V21.9355ZM47.7419 53.3871C47.217 52.6899 46.9339 51.8405 46.9355 50.9677V31.6129C46.9355 30.9713 46.6806 30.3559 46.2269 29.9022C45.7732 29.4484 45.1578 29.1935 44.5161 29.1935H34.0323C33.3928 29.1914 32.7712 28.9822 32.2607 28.5973C31.7501 28.2123 31.3779 27.6723 31.2 27.0581L30.4742 24.5137C30.3937 24.236 30.2254 23.9919 29.9945 23.8179C29.7637 23.6439 29.4827 23.5493 29.1935 23.5484H9.83871C8.98317 23.5484 8.16268 23.8882 7.55772 24.4932C6.95276 25.0982 6.6129 25.9187 6.6129 26.7742V50.9677C6.6129 51.6094 6.8678 52.2248 7.32152 52.6785C7.77523 53.1322 8.39061 53.3871 9.03226 53.3871H47.7419ZM53.3871 17.0968C53.3871 16.4551 53.1322 15.8397 52.6785 15.386C52.2248 14.9323 51.6094 14.6774 50.9677 14.6774H45.3226V27.6613C46.2327 27.8485 47.0505 28.3437 47.6381 29.0635C48.2257 29.7833 48.5472 30.6837 48.5484 31.6129V50.9677C48.5484 51.6094 48.8033 52.2248 49.257 52.6785C49.7107 53.1322 50.3261 53.3871 50.9677 53.3871C51.6094 53.3871 52.2248 53.1322 52.6785 52.6785C53.1322 52.2248 53.3871 51.6094 53.3871 50.9677V17.0968ZM30 33.0879C30.0012 33.4934 29.9219 33.895 29.7667 34.2696C29.6115 34.6442 29.3835 34.9843 29.096 35.2702L16.054 48.3121C15.9815 48.3846 15.8959 48.4426 15.8016 48.4831L10.1565 50.9024C10.0561 50.9457 9.94798 50.968 9.83871 50.9677C9.70526 50.9677 9.57389 50.9346 9.4564 50.8713C9.3389 50.808 9.23895 50.7166 9.1655 50.6052C9.09204 50.4937 9.04739 50.3658 9.03553 50.2329C9.02368 50.1 9.045 49.9662 9.09758 49.8435L11.5169 44.1984C11.5574 44.1041 11.6154 44.0185 11.6879 43.946L24.7298 30.9048C25.1616 30.473 25.7117 30.179 26.3106 30.0598C26.9094 29.9407 27.5302 30.0018 28.0943 30.2355C28.6585 30.4692 29.1406 30.8649 29.4798 31.3726C29.819 31.8804 30.0001 32.4773 30 33.0879ZM15.4839 46.6016L24.4242 37.6613L22.3387 35.5758L13.3984 44.5161L15.4839 46.6016ZM11.371 48.629L14.0685 47.4734L12.5274 45.9323L11.371 48.629ZM28.3871 33.0879C28.387 32.7963 28.3005 32.5114 28.1385 32.2689C27.9765 32.0265 27.7463 31.8375 27.477 31.7259C27.2077 31.6142 26.9113 31.5848 26.6253 31.6415C26.3393 31.6982 26.0765 31.8384 25.8702 32.0444L23.479 34.4355L25.5645 36.521L27.9556 34.1306C28.0928 33.9939 28.2016 33.8314 28.2757 33.6524C28.3497 33.4735 28.3876 33.2816 28.3871 33.0879Z" fill="url(#paint0_linear_1036_45394)"/>
<defs>
<linearGradient id="paint0_linear_1036_45394" x1="30" y1="5" x2="30" y2="55" gradientUnits="userSpaceOnUse">
<stop stop-color="#81319B"/>
<stop offset="0.48" stop-color="#00A99D"/>
<stop offset="1" stop-color="#0B2C4C"/>
</linearGradient>
</defs>
</svg>
