<svg width="60" height="60" viewBox="0 0 60 60" fill="none" xmlns="http://www.w3.org/2000/svg">
<path d="M49.2961 9.46914H47.4068V7.64619C47.4063 7.03423 47.1629 6.4475 46.7303 6.01474C46.2976 5.58199 45.7109 5.33856 45.0989 5.33789H12.3078C11.6959 5.33859 11.1092 5.58202 10.6765 6.01478C10.2439 6.44753 10.0006 7.03425 10 7.64619V48.2224C10.0007 48.8342 10.244 49.4208 10.6767 49.8535C11.1093 50.2861 11.6959 50.5295 12.3078 50.5302H14.5783V51.9724C14.5791 52.6853 14.8627 53.3688 15.3668 53.873C15.8709 54.3771 16.5544 54.6607 17.2674 54.6615H49.2961C50.009 54.6607 50.6926 54.3771 51.1967 53.873C51.7008 53.3688 51.9844 52.6853 51.9852 51.9724V12.1579C51.9843 11.445 51.7007 10.7616 51.1966 10.2575C50.6925 9.75344 50.009 9.46992 49.2961 9.46914ZM11.3672 48.2224V7.64619C11.3674 7.39679 11.4666 7.15768 11.643 6.98132C11.8193 6.80496 12.0584 6.70575 12.3078 6.70547H45.0989C45.3483 6.70573 45.5875 6.80492 45.7638 6.98129C45.9402 7.15765 46.0394 7.39678 46.0396 7.64619V47.8423C46.0393 48.1925 45.9 48.5282 45.6524 48.7758C45.4048 49.0234 45.069 49.1627 44.7188 49.1631H12.3078C12.0584 49.1628 11.8193 49.0636 11.643 48.8872C11.4666 48.7109 11.3674 48.4718 11.3672 48.2224ZM50.618 51.9724C50.6176 52.3228 50.4782 52.6589 50.2304 52.9067C49.9826 53.1545 49.6466 53.2939 49.2961 53.2943H17.2674C16.9169 53.2939 16.5809 53.1545 16.3331 52.9067C16.0853 52.6589 15.9459 52.3228 15.9455 51.9724V50.5303H44.7188C45.4315 50.5295 46.1147 50.246 46.6187 49.7421C47.1226 49.2382 47.406 48.5549 47.4068 47.8423V10.8363H49.2961C49.6465 10.8367 49.9825 10.9761 50.2303 11.2238C50.4781 11.4716 50.6175 11.8075 50.618 12.1579V51.9724ZM19.6401 22.1091C18.6426 22.1091 17.6674 22.4049 16.8379 22.9591C16.0085 23.5134 15.362 24.3011 14.9802 25.2228C14.5985 26.1444 14.4986 27.1586 14.6932 28.137C14.8878 29.1154 15.3682 30.0141 16.0736 30.7195C16.779 31.4249 17.6778 31.9053 18.6562 32.0999C19.6346 32.2945 20.6488 32.1946 21.5704 31.8128C22.492 31.431 23.2798 30.7845 23.834 29.9551C24.3882 29.1256 24.684 28.1504 24.684 27.1528C24.6825 25.8156 24.1506 24.5335 23.205 23.588C22.2594 22.6424 20.9774 22.1106 19.6401 22.1091ZM19.6401 30.8298C18.913 30.8298 18.2021 30.6142 17.5975 30.2102C16.9929 29.8062 16.5217 29.232 16.2434 28.5602C15.9651 27.8884 15.8923 27.1491 16.0341 26.4359C16.1759 25.7228 16.5261 25.0676 17.0402 24.5534C17.5544 24.0392 18.2095 23.689 18.9227 23.5471C19.6359 23.4052 20.3751 23.478 21.0469 23.7562C21.7188 24.0345 22.293 24.5057 22.697 25.1103C23.1011 25.7149 23.3167 26.4257 23.3168 27.1528C23.3158 28.1277 22.9281 29.0623 22.2388 29.7516C21.5495 30.4409 20.615 30.8287 19.6401 30.8298ZM22.5453 25.6092C22.6088 25.6727 22.6592 25.748 22.6935 25.831C22.7279 25.9139 22.7456 26.0028 22.7456 26.0926C22.7456 26.1824 22.7279 26.2713 22.6935 26.3542C22.6592 26.4371 22.6088 26.5125 22.5453 26.576L19.7831 29.3384C19.7196 29.4019 19.6443 29.4522 19.5613 29.4866C19.4784 29.5209 19.3895 29.5386 19.2997 29.5386C19.2099 29.5386 19.121 29.5209 19.0381 29.4866C18.9551 29.4522 18.8798 29.4019 18.8163 29.3384L16.9804 27.5024C16.8522 27.3742 16.7801 27.2004 16.7801 27.019C16.7801 26.8377 16.8522 26.6638 16.9804 26.5356C17.1086 26.4074 17.2825 26.3354 17.4638 26.3354C17.6451 26.3354 17.819 26.4074 17.9472 26.5356L19.3001 27.8886L21.5785 25.6092C21.642 25.5457 21.7174 25.4953 21.8003 25.461C21.8832 25.4266 21.9721 25.4089 22.0619 25.4089C22.1517 25.4089 22.2406 25.4266 22.3235 25.461C22.4065 25.4953 22.4818 25.5457 22.5453 25.6092ZM42.6625 23.3786C42.6625 23.5599 42.5905 23.7338 42.4623 23.862C42.3341 23.9902 42.1602 24.0622 41.9789 24.0622H27.4142C27.2329 24.0622 27.059 23.9902 26.9308 23.862C26.8026 23.7338 26.7306 23.5599 26.7306 23.3786C26.7306 23.1973 26.8026 23.0234 26.9308 22.8952C27.059 22.767 27.2329 22.695 27.4142 22.695H41.9789C42.1602 22.695 42.3341 22.767 42.4623 22.8952C42.5905 23.0234 42.6625 23.1973 42.6625 23.3786ZM42.6625 27.1528C42.6625 27.3341 42.5905 27.508 42.4623 27.6362C42.3341 27.7644 42.1602 27.8364 41.9789 27.8364H27.4142C27.2329 27.8364 27.059 27.7644 26.9308 27.6362C26.8026 27.508 26.7306 27.3341 26.7306 27.1528C26.7306 26.9715 26.8026 26.7977 26.9308 26.6695C27.059 26.5413 27.2329 26.4692 27.4142 26.4692H41.9789C42.1602 26.4692 42.3341 26.5413 42.4623 26.6695C42.5905 26.7977 42.6625 26.9715 42.6625 27.1528ZM42.6625 30.9271C42.6625 31.1084 42.5905 31.2823 42.4623 31.4105C42.3341 31.5387 42.1602 31.6107 41.9789 31.6107H27.4142C27.2329 31.6107 27.059 31.5387 26.9308 31.4105C26.8026 31.2823 26.7306 31.1084 26.7306 30.9271C26.7306 30.7458 26.8026 30.572 26.9308 30.4438C27.059 30.3156 27.2329 30.2436 27.4142 30.2436H41.9789C42.0687 30.2436 42.1576 30.2612 42.2406 30.2956C42.3235 30.33 42.3989 30.3804 42.4624 30.4439C42.5259 30.5074 42.5762 30.5828 42.6105 30.6657C42.6449 30.7487 42.6625 30.8376 42.6625 30.9274V30.9271ZM19.6401 34.2804C18.6426 34.2804 17.6674 34.5762 16.838 35.1304C16.0086 35.6847 15.3621 36.4724 14.9804 37.394C14.5987 38.3157 14.4988 39.3298 14.6934 40.3082C14.888 41.2865 15.3684 42.1852 16.0738 42.8906C16.7792 43.596 17.6779 44.0764 18.6563 44.271C19.6347 44.4656 20.6488 44.3657 21.5704 43.9839C22.492 43.6022 23.2798 42.9557 23.834 42.1263C24.3882 41.2968 24.684 40.3217 24.684 39.3241C24.6825 37.9869 24.1506 36.7048 23.205 35.7593C22.2594 34.8137 20.9774 34.2818 19.6401 34.2804ZM19.6401 43.0011C18.913 43.0011 18.2022 42.7854 17.5976 42.3814C16.993 41.9775 16.5218 41.4033 16.2435 40.7315C15.9653 40.0597 15.8925 39.3205 16.0343 38.6073C16.1761 37.8942 16.5263 37.2391 17.0404 36.7249C17.5545 36.2107 18.2096 35.8605 18.9228 35.7186C19.6359 35.5767 20.3751 35.6495 21.0469 35.9277C21.7188 36.2059 22.293 36.6771 22.697 37.2816C23.101 37.8862 23.3167 38.597 23.3168 39.3241C23.3157 40.2989 22.928 41.2334 22.2387 41.9227C21.5494 42.6119 20.6149 42.9996 19.6401 43.0007V43.0011ZM22.5453 37.7805C22.6088 37.8439 22.6592 37.9193 22.6935 38.0022C22.7279 38.0852 22.7456 38.1741 22.7456 38.2639C22.7456 38.3536 22.7279 38.4425 22.6935 38.5255C22.6592 38.6084 22.6088 38.6838 22.5453 38.7473L19.7834 41.5095C19.7199 41.573 19.6446 41.6233 19.5616 41.6577C19.4787 41.692 19.3898 41.7097 19.3 41.7097C19.2102 41.7097 19.1213 41.692 19.0384 41.6577C18.9554 41.6233 18.8801 41.573 18.8166 41.5095L16.9807 39.6735C16.9172 39.6101 16.8668 39.5347 16.8325 39.4517C16.7981 39.3688 16.7804 39.2799 16.7804 39.1901C16.7804 39.1004 16.7981 39.0115 16.8325 38.9285C16.8668 38.8456 16.9172 38.7702 16.9807 38.7067C17.0441 38.6433 17.1195 38.5929 17.2024 38.5585C17.2854 38.5242 17.3743 38.5065 17.4641 38.5065C17.5538 38.5065 17.6427 38.5242 17.7257 38.5585C17.8086 38.5929 17.884 38.6433 17.9475 38.7067L19.3004 40.0597L21.5785 37.7805C21.642 37.717 21.7174 37.6666 21.8003 37.6323C21.8832 37.5979 21.9721 37.5802 22.0619 37.5802C22.1517 37.5802 22.2406 37.5979 22.3235 37.6323C22.4065 37.6666 22.4818 37.717 22.5453 37.7805ZM42.6625 35.5499C42.6625 35.7312 42.5905 35.9051 42.4623 36.0333C42.3341 36.1615 42.1602 36.2335 41.9789 36.2335H27.4142C27.2329 36.2335 27.059 36.1615 26.9308 36.0333C26.8026 35.9051 26.7306 35.7312 26.7306 35.5499C26.7306 35.3686 26.8026 35.1947 26.9308 35.0665C27.059 34.9383 27.2329 34.8663 27.4142 34.8663H41.9789C42.1602 34.8663 42.3341 34.9383 42.4623 35.0665C42.5905 35.1947 42.6625 35.3686 42.6625 35.5499ZM42.6625 39.3241C42.6625 39.5054 42.5905 39.6793 42.4623 39.8075C42.3341 39.9357 42.1602 40.0077 41.9789 40.0077H27.4142C27.2329 40.0077 27.059 39.9357 26.9308 39.8075C26.8026 39.6793 26.7306 39.5054 26.7306 39.3241C26.7306 39.1428 26.8026 38.9689 26.9308 38.8407C27.059 38.7125 27.2329 38.6405 27.4142 38.6405H41.9789C42.1602 38.6405 42.3341 38.7125 42.4623 38.8407C42.5905 38.9689 42.6625 39.1428 42.6625 39.3241ZM42.6625 43.0983C42.6625 43.2796 42.5905 43.4535 42.4623 43.5817C42.3341 43.7099 42.1602 43.7819 41.9789 43.7819H27.4142C27.2329 43.7819 27.059 43.7099 26.9308 43.5817C26.8026 43.4535 26.7306 43.2796 26.7306 43.0983C26.7306 42.917 26.8026 42.7432 26.9308 42.615C27.059 42.4868 27.2329 42.4147 27.4142 42.4147H41.9789C42.1602 42.4147 42.3341 42.4868 42.4623 42.615C42.5905 42.7432 42.6625 42.917 42.6625 43.0983ZM21.7055 15.6875C21.6428 15.3395 21.2193 15.0787 20.5727 14.9903C19.7426 14.8767 19.1048 14.3955 18.866 13.7031C18.7586 13.3856 18.7405 13.0447 18.8137 12.7176C18.8869 12.3905 19.0486 12.0898 19.2812 11.8483C19.5332 11.5943 19.8446 11.407 20.1871 11.3033V10.8275C20.1871 10.6462 20.2591 10.4724 20.3873 10.3442C20.5155 10.216 20.6894 10.1439 20.8707 10.1439C21.052 10.1439 21.2259 10.216 21.3541 10.3442C21.4823 10.4724 21.5543 10.6462 21.5543 10.8275V11.2865C22.0184 11.4197 22.4298 11.6934 22.7319 12.07C22.8455 12.2108 22.8987 12.391 22.8797 12.5709C22.8608 12.7508 22.7712 12.9159 22.6308 13.03C22.4903 13.144 22.3103 13.1977 22.1303 13.1793C21.9503 13.1609 21.785 13.0719 21.6705 12.9317C21.5836 12.8213 21.4737 12.7311 21.3485 12.6674C21.2232 12.6037 21.0856 12.568 20.9452 12.5629C20.8211 12.554 20.6964 12.5705 20.5788 12.6115C20.4613 12.6525 20.3534 12.717 20.2616 12.8012C20.2042 12.8605 20.1641 12.9345 20.1459 13.015C20.1277 13.0955 20.1319 13.1795 20.1582 13.2578C20.2273 13.4583 20.4402 13.5927 20.7577 13.6361C22.0202 13.809 22.8769 14.4853 23.0504 15.4453C23.1209 15.855 23.0595 16.2765 22.8752 16.6491C22.6908 17.0217 22.3929 17.3262 22.0244 17.5187C21.8745 17.5988 21.7169 17.6636 21.5539 17.7119V18.1873C21.5539 18.3686 21.4819 18.5425 21.3537 18.6707C21.2255 18.7989 21.0516 18.8709 20.8703 18.8709C20.689 18.8709 20.5151 18.7989 20.3869 18.6707C20.2587 18.5425 20.1867 18.3686 20.1867 18.1873V17.7438C20.0644 17.7131 19.9446 17.673 19.8283 17.6239C19.5586 17.5185 19.3159 17.3538 19.1183 17.142C18.9207 16.9302 18.7732 16.6768 18.6866 16.4004C18.6616 16.314 18.6539 16.2235 18.664 16.1341C18.674 16.0447 18.7016 15.9582 18.7452 15.8794C18.7887 15.8007 18.8474 15.7314 18.9178 15.6754C18.9882 15.6194 19.0689 15.5779 19.1554 15.5531C19.2419 15.5284 19.3325 15.521 19.4218 15.5313C19.5112 15.5417 19.5976 15.5696 19.6762 15.6134C19.7548 15.6572 19.8239 15.7161 19.8797 15.7866C19.9354 15.8572 19.9767 15.9381 20.0012 16.0247C20.0327 16.1041 20.0812 16.1756 20.1432 16.2343C20.2053 16.293 20.2794 16.3374 20.3604 16.3646C20.5233 16.4308 20.6989 16.4606 20.8746 16.4519C21.0503 16.4432 21.222 16.3961 21.3776 16.3141C21.4908 16.2568 21.5832 16.1656 21.642 16.0533C21.7007 15.941 21.7229 15.8131 21.7055 15.6875ZM26.5199 16.4004C26.4949 16.314 26.4872 16.2235 26.4973 16.1341C26.5073 16.0447 26.5349 15.9582 26.5785 15.8794C26.622 15.8007 26.6807 15.7314 26.7511 15.6754C26.8215 15.6194 26.9022 15.5779 26.9887 15.5531C27.0752 15.5284 27.1658 15.521 27.2551 15.5313C27.3445 15.5417 27.4309 15.5696 27.5095 15.6134C27.5881 15.6572 27.6572 15.7161 27.713 15.7866C27.7687 15.8572 27.81 15.9381 27.8345 16.0247C27.866 16.1041 27.9145 16.1756 27.9766 16.2343C28.0386 16.293 28.1128 16.3374 28.1938 16.3646C28.3567 16.4308 28.5322 16.4606 28.7079 16.4519C28.8836 16.4431 29.0553 16.3961 29.2109 16.3141C29.3239 16.2567 29.4162 16.1656 29.4748 16.0533C29.5335 15.941 29.5557 15.8133 29.5383 15.6878C29.4755 15.3397 29.0521 15.079 28.4055 14.9906C27.5754 14.877 26.9376 14.3958 26.6988 13.7034C26.5914 13.3859 26.5733 13.045 26.6465 12.7179C26.7197 12.3908 26.8814 12.0901 27.1139 11.8486C27.366 11.5946 27.6773 11.4073 28.0198 11.3036V10.8275C28.0198 10.6462 28.0918 10.4724 28.22 10.3442C28.3482 10.216 28.5221 10.1439 28.7034 10.1439C28.8847 10.1439 29.0586 10.216 29.1868 10.3442C29.315 10.4724 29.387 10.6462 29.387 10.8275V11.2865C29.8512 11.4197 30.2627 11.6934 30.5648 12.07C30.6785 12.2108 30.7316 12.391 30.7126 12.5709C30.6937 12.7508 30.6041 12.9159 30.4637 13.03C30.3232 13.144 30.1432 13.1977 29.9632 13.1793C29.7832 13.1609 29.6179 13.0719 29.5034 12.9317C29.4166 12.8213 29.3067 12.7311 29.1815 12.6674C29.0562 12.6037 28.9186 12.5681 28.7782 12.5629C28.6541 12.554 28.5294 12.5706 28.4119 12.6116C28.2943 12.6525 28.1864 12.7171 28.0946 12.8012C28.0372 12.8605 27.9972 12.9345 27.9789 13.015C27.9607 13.0955 27.9649 13.1795 27.9912 13.2578C28.0604 13.4583 28.2732 13.5927 28.5907 13.6361C29.8533 13.809 30.7099 14.4853 30.8835 15.4453C30.954 15.855 30.8926 16.2765 30.7082 16.6491C30.5239 17.0217 30.226 17.3262 29.8575 17.5187C29.7076 17.5988 29.5499 17.6636 29.3869 17.7119V18.1873C29.3869 18.3686 29.3149 18.5425 29.1867 18.6707C29.0585 18.7989 28.8846 18.8709 28.7033 18.8709C28.522 18.8709 28.3481 18.7989 28.2199 18.6707C28.0917 18.5425 28.0197 18.3686 28.0197 18.1873V17.7438C27.8974 17.713 27.7776 17.6729 27.6613 17.6239C27.3916 17.5184 27.149 17.3537 26.9514 17.1418C26.7539 16.93 26.6064 16.6765 26.5199 16.4001V16.4004ZM37.3712 15.6875C37.3085 15.3395 36.8851 15.0787 36.2384 14.9903C35.4083 14.8767 34.7705 14.3955 34.5317 13.7031C34.4243 13.3856 34.4062 13.0447 34.4794 12.7176C34.5527 12.3905 34.7144 12.0898 34.9469 11.8483C35.1989 11.5942 35.5103 11.4068 35.8528 11.3032V10.8275C35.8528 10.6462 35.9249 10.4724 36.0531 10.3442C36.1812 10.216 36.3551 10.1439 36.5364 10.1439C36.7177 10.1439 36.8916 10.216 37.0198 10.3442C37.148 10.4724 37.22 10.6462 37.22 10.8275V11.2865C37.6841 11.4197 38.0956 11.6934 38.3978 12.07C38.4549 12.1396 38.4978 12.2199 38.5238 12.3061C38.5499 12.3923 38.5586 12.4829 38.5496 12.5725C38.5406 12.6621 38.5139 12.7491 38.4711 12.8284C38.4283 12.9077 38.3703 12.9777 38.3004 13.0345C38.2304 13.0913 38.15 13.1337 38.0636 13.1593C37.9772 13.1849 37.8866 13.1931 37.7971 13.1836C37.7075 13.1741 37.6207 13.1469 37.5416 13.1037C37.4626 13.0605 37.3928 13.0021 37.3364 12.9318C37.2495 12.8214 37.1397 12.7312 37.0144 12.6675C36.8892 12.6038 36.7516 12.5682 36.6111 12.563C36.487 12.5542 36.3623 12.5707 36.2448 12.6117C36.1273 12.6527 36.0193 12.7172 35.9275 12.8013C35.8701 12.8606 35.8301 12.9346 35.8118 13.0151C35.7936 13.0956 35.7978 13.1796 35.8241 13.2579C35.8933 13.4584 36.1062 13.5928 36.4236 13.6362C37.6861 13.8091 38.5433 14.4854 38.7163 15.4454C38.7868 15.8551 38.7255 16.2766 38.5411 16.6492C38.3567 17.0218 38.0588 17.3263 37.6903 17.5188C37.5404 17.5989 37.3828 17.6636 37.2198 17.712V18.1874C37.2198 18.3687 37.1478 18.5426 37.0196 18.6708C36.8914 18.799 36.7175 18.871 36.5362 18.871C36.3549 18.871 36.1811 18.799 36.0529 18.6708C35.9247 18.5426 35.8526 18.3687 35.8526 18.1874V17.7438C35.7302 17.7131 35.6103 17.6729 35.494 17.6238C35.2243 17.5184 34.9817 17.3537 34.7841 17.142C34.5865 16.9302 34.439 16.6768 34.3525 16.4004C34.3275 16.314 34.3198 16.2235 34.3299 16.1341C34.3399 16.0447 34.3675 15.9582 34.4111 15.8794C34.4546 15.8007 34.5133 15.7314 34.5837 15.6754C34.6541 15.6194 34.7349 15.5779 34.8214 15.5531C34.9079 15.5284 34.9984 15.521 35.0877 15.5313C35.1771 15.5417 35.2635 15.5696 35.3421 15.6134C35.4207 15.6572 35.4898 15.7161 35.5456 15.7866C35.6014 15.8572 35.6427 15.9381 35.6671 16.0247C35.6986 16.1041 35.7471 16.1756 35.8091 16.2343C35.8712 16.2929 35.9453 16.3374 36.0263 16.3645C36.1892 16.4308 36.3648 16.4606 36.5405 16.4519C36.7162 16.4432 36.8879 16.3962 37.0436 16.3141C37.1566 16.2568 37.2489 16.1656 37.3076 16.0532C37.3663 15.9409 37.3885 15.813 37.371 15.6875H37.3712Z" fill="url(#paint0_linear_16591_60018)"/>
<defs>
<linearGradient id="paint0_linear_16591_60018" x1="30.9926" y1="5.33789" x2="30.9926" y2="54.6615" gradientUnits="userSpaceOnUse">
<stop stop-color="#81319B"/>
<stop offset="0.48" stop-color="#00A99D"/>
<stop offset="1" stop-color="#0B2C4C"/>
</linearGradient>
</defs>
</svg>
