<svg width="45" height="20" viewBox="0 0 45 20" fill="none" xmlns="http://www.w3.org/2000/svg">
<g clip-path="url(#clip0_745_7438)">
<path d="M36.6309 19.4171H44.4425C44.4892 19.4165 44.5348 19.4032 44.5744 19.3787C44.614 19.3542 44.6461 19.3195 44.6672 19.2781C44.6884 19.2368 44.6978 19.1906 44.6945 19.1443C44.6912 19.0981 44.6752 19.0536 44.6483 19.0157L42.533 16.1088C42.4743 16.0282 42.3974 15.9624 42.3084 15.9168C42.2194 15.8713 42.1209 15.8472 42.0208 15.8466H38.3501C38.25 15.846 38.1515 15.8219 38.0625 15.7763C37.9735 15.7308 37.8966 15.665 37.8379 15.5843L33.9761 10.2858C33.8947 10.179 33.852 10.048 33.8549 9.91406H29.2393L31.5441 12.8846C33.0658 14.9781 34.5882 17.0696 36.111 19.1591C36.1709 19.2401 36.2493 19.3057 36.3396 19.3505C36.43 19.3954 36.5299 19.4182 36.6309 19.4171Z" fill="#0B2C4C"/>
<path d="M29.2395 9.91444C29.2422 9.78077 29.1995 9.65009 29.1182 9.54355L25.1838 4.13467C25.1526 4.09139 25.1357 4.03944 25.1357 3.98615C25.1357 3.93286 25.1526 3.88091 25.1838 3.83762L27.0277 1.30335C27.0515 1.27108 27.0826 1.24483 27.1185 1.22674C27.1543 1.20865 27.194 1.19922 27.2343 1.19922C27.2745 1.19922 27.3142 1.20865 27.3501 1.22674C27.386 1.24483 27.4171 1.27108 27.4408 1.30335L31.552 6.95241L33.8568 9.91783L29.2395 9.91444Z" fill="#0B2C4C"/>
<path d="M29.2395 9.91406C29.2424 10.048 29.1997 10.179 29.1182 10.2858L25.1838 15.6981C25.1526 15.7414 25.1357 15.7933 25.1357 15.8466C25.1357 15.8999 25.1526 15.9518 25.1838 15.9951L27.0277 18.5294C27.0515 18.5617 27.0826 18.5879 27.1185 18.606C27.1543 18.6241 27.194 18.6335 27.2343 18.6335C27.2745 18.6335 27.3142 18.6241 27.3501 18.606C27.386 18.5879 27.4171 18.5617 27.4408 18.5294L31.552 12.8803L33.8568 9.91491L29.2395 9.91406Z" fill="#0B2C4C"/>
<path d="M25.6634 0.813553L23.5472 3.72041C23.4886 3.80112 23.4117 3.86693 23.3227 3.9125C23.2337 3.95808 23.1351 3.98211 23.035 3.98266H19.3644C19.2637 3.98278 19.1644 4.00652 19.0747 4.05194C18.985 4.09736 18.9073 4.16318 18.8479 4.24407L14.9912 9.54345C14.9125 9.65147 14.8702 9.78141 14.8702 9.91477C14.8702 10.0481 14.9125 10.1781 14.9912 10.2861L18.8479 15.5846C18.9071 15.6657 18.9848 15.7317 19.0745 15.7773C19.1643 15.8229 19.2636 15.8467 19.3644 15.8469H23.035C23.1351 15.8474 23.2337 15.8715 23.3227 15.917C23.4117 15.9626 23.4886 16.0284 23.5472 16.1091L25.6634 19.016C25.6903 19.0539 25.7063 19.0985 25.7096 19.1448C25.7129 19.1911 25.7034 19.2374 25.6821 19.2788C25.6609 19.3201 25.6286 19.3549 25.5889 19.3793C25.5492 19.4038 25.5035 19.4169 25.4568 19.4174H17.6452C17.5444 19.4173 17.4451 19.3934 17.3553 19.3479C17.2656 19.3023 17.1879 19.2363 17.1287 19.1552L10.6718 10.2861C10.5931 10.1781 10.5508 10.0481 10.5508 9.91477C10.5508 9.78141 10.5931 9.65147 10.6718 9.54345L17.127 0.674363C17.1862 0.593275 17.2638 0.52725 17.3536 0.481674C17.4433 0.436098 17.5427 0.412261 17.6434 0.412109H25.4568C25.5035 0.412587 25.5492 0.425755 25.5889 0.450191C25.6286 0.474626 25.6609 0.509397 25.6821 0.55074C25.7034 0.592083 25.7129 0.638425 25.7096 0.684748C25.7063 0.731072 25.6903 0.775614 25.6634 0.813553Z" fill="#0B2C4C"/>
<path d="M36.6309 0.412146H44.4425C44.489 0.413078 44.5344 0.426578 44.5738 0.451195C44.6131 0.475813 44.645 0.51062 44.666 0.551882C44.6869 0.593144 44.6962 0.639304 44.6928 0.68541C44.6894 0.731515 44.6734 0.775827 44.6466 0.813589L42.5313 3.72045C42.4726 3.8011 42.3957 3.86688 42.3067 3.91245C42.2177 3.95802 42.1192 3.98208 42.0191 3.9827H38.3484C38.2484 3.98335 38.15 4.00735 38.061 4.05275C37.9721 4.09816 37.8951 4.1637 37.8362 4.2441L33.9761 9.54349C33.8947 9.65027 33.852 9.78127 33.8549 9.91523H29.2393L31.5441 6.94472C33.0658 4.85122 34.5882 2.7597 36.111 0.670156C36.1709 0.589232 36.2493 0.523629 36.3397 0.478766C36.43 0.433903 36.5299 0.411067 36.6309 0.412146Z" fill="#0B2C4C"/>
<path d="M8.81287 15.8469H12.807L15.1119 19.016C15.1388 19.054 15.1548 19.0985 15.1581 19.1448C15.1614 19.1911 15.1519 19.2375 15.1306 19.2788C15.1094 19.3202 15.0771 19.3549 15.0374 19.3794C14.9977 19.4038 14.952 19.417 14.9053 19.4175H7.09449C6.99441 19.4168 6.8959 19.3927 6.80692 19.3471C6.71794 19.3016 6.64099 19.2358 6.58231 19.1552L0.121986 10.2861C0.0433262 10.1781 0.000976562 10.0482 0.000976562 9.9148C0.000976562 9.78145 0.0433262 9.6515 0.121986 9.54349C2.27315 6.58656 4.42432 3.6302 6.57548 0.674398C6.63417 0.593788 6.71111 0.528043 6.80009 0.482483C6.88907 0.436923 6.98758 0.412827 7.08767 0.412144H14.8984C14.9457 0.41137 14.9923 0.423631 15.033 0.447566C15.0737 0.471501 15.107 0.506175 15.1291 0.547746C15.1512 0.589317 15.1613 0.63616 15.1582 0.683084C15.1552 0.730007 15.1391 0.775177 15.1119 0.813587L12.9965 3.72044C12.938 3.80115 12.861 3.86697 12.772 3.91254C12.683 3.95811 12.5845 3.98215 12.4844 3.9827H8.81372C8.713 3.98268 8.61371 4.00636 8.52395 4.05179C8.43419 4.09722 8.35652 4.16312 8.29727 4.2441L4.44139 9.54349C4.36273 9.6515 4.32038 9.78145 4.32038 9.9148C4.32038 10.0482 4.36273 10.1781 4.44139 10.2861L8.29812 15.5847C8.35701 15.6657 8.43435 15.7317 8.52382 15.7772C8.61329 15.8228 8.71234 15.8467 8.81287 15.8469Z" fill="#0B2C4C"/>
</g>
<defs>
<clipPath id="clip0_745_7438">
<rect width="44.7899" height="19.1769" fill="white" transform="translate(0 0.412109)"/>
</clipPath>
</defs>
</svg>
 