<svg width="21" height="22" viewBox="0 0 21 22" fill="none" xmlns="http://www.w3.org/2000/svg">
<path d="M7.28526 11.4591L12.4272 4.67421L3.93701 0.25494C1.91454 -0.795287 -0.133929 1.62232 1.23345 3.44722L7.28526 11.4591Z" fill="#81319B"/>
<path d="M1.86832 18.6097C0.516538 20.3879 2.50262 22.7691 4.49909 21.7604L18.6668 14.596C21.1208 13.3534 21.4223 10.3847 19.353 8.50261C19.0515 8.23225 18.7135 8.00869 18.3548 7.82152L12.5006 4.71763C12.459 4.69683 12.407 4.70723 12.3758 4.74363L1.86832 18.6097Z" fill="#00A99D"/>
<path d="M7.28516 11.4587H20.7301C20.7301 11.4587 20.9953 9.06191 18.011 7.63214L12.4271 4.67383L7.28516 11.4587Z" fill="#0B2C4C"/>
</svg>