<svg width="30" height="30" viewBox="0 0 30 30" fill="none" xmlns="http://www.w3.org/2000/svg">
<path d="M6.71468 7.82473C6.71468 7.68082 6.83169 7.56441 6.97634 7.56441H12.4607C12.6054 7.56441 12.7224 7.68082 12.7224 7.82473C12.7224 7.96865 12.6054 8.08505 12.4607 8.08505H6.97634C6.83169 8.08505 6.71468 7.96865 6.71468 7.82473ZM6.97634 11.6735H18.8974C19.0421 11.6735 19.1591 11.5571 19.1591 11.4132C19.1591 11.2693 19.0421 11.1529 18.8974 11.1529H6.97634C6.83169 11.1529 6.71468 11.2693 6.71468 11.4132C6.71468 11.5571 6.83169 11.6735 6.97634 11.6735ZM6.97634 15.2615H14.1748C14.3195 15.2615 14.4365 15.1451 14.4365 15.0012C14.4365 14.8573 14.3195 14.7408 14.1748 14.7408H6.97634C6.83169 14.7408 6.71468 14.8573 6.71468 15.0012C6.71468 15.1451 6.83169 15.2615 6.97634 15.2615ZM6.97634 18.8495H10.6553C10.8 18.8495 10.917 18.733 10.917 18.5891C10.917 18.4452 10.8 18.3288 10.6553 18.3288H6.97634C6.83169 18.3288 6.71468 18.4452 6.71468 18.5891C6.71468 18.733 6.83169 18.8495 6.97634 18.8495ZM6.97634 22.4374H10.6553C10.8 22.4374 10.917 22.321 10.917 22.1771C10.917 22.0332 10.8 21.9168 10.6553 21.9168H6.97634C6.83169 21.9168 6.71468 22.0332 6.71468 22.1771C6.71468 22.321 6.83169 22.4374 6.97634 22.4374ZM4.5 26.3648V3.63607C4.5 3.00983 5.01195 2.50049 5.64141 2.50049H16.3757C16.4235 2.50049 16.5124 2.52848 16.5608 2.57662L21.2982 7.29034C21.3348 7.3375 21.3747 7.39889 21.3747 7.47453V15.2767L22.3824 16.4049C23.079 17.1859 22.4426 18.4325 21.3747 18.2954V20.9507L25.146 25.1742C25.6604 25.7503 25.6081 26.6359 25.0285 27.1482C24.4465 27.662 23.5573 27.606 23.0444 27.0313L21.3747 25.1614V26.3653C21.3747 26.991 20.8628 27.5004 20.2338 27.5004H5.64141C5.01195 27.5004 4.5 26.991 4.5 26.3653V26.3648ZM19.2711 19.378C19.3432 19.3141 17.9787 20.5204 17.9525 20.5435C18.7459 21.4325 22.0467 25.129 23.4364 26.685C23.7588 27.0465 24.3176 27.0799 24.6815 26.7582C25.0448 26.437 25.0779 25.8815 24.755 25.52L19.2711 19.3784V19.378ZM20.4259 17.6608L18.2931 15.2723L13.9689 19.0936C14.0203 19.151 13.8579 18.9688 16.1017 21.4826C17.68 20.0877 19.5279 18.4546 20.4259 17.6608ZM15.9466 22.0931C10.6923 16.2085 15.7003 21.8205 13.341 19.1751C13.1124 18.9192 12.7155 18.8937 12.4558 19.123C12.1971 19.3514 12.1739 19.7463 12.4034 20.0032L15.0091 22.9212C15.2382 23.1781 15.6361 23.2012 15.8938 22.9733C16.152 22.7449 16.1757 22.35 15.9462 22.0931H15.9466ZM19.6621 19.0322L20.8514 20.3637V18.0921C20.8287 18.0759 20.8075 18.0567 20.7858 18.0385L19.6621 19.0317V19.0322ZM19.3852 13.8327C19.1566 13.5758 18.7592 13.5517 18.5005 13.7806C18.2423 14.009 18.2186 14.4039 18.4482 14.6613L21.0538 17.5793C21.2864 17.8401 21.6828 17.8578 21.9385 17.6314C22.1967 17.403 22.2204 17.0076 21.9909 16.7507L19.3852 13.8327ZM16.6373 6.59976C16.6373 6.93867 16.9143 7.21421 17.2549 7.21421H20.4807L16.6373 3.39048V6.59976ZM5.02331 26.3648C5.02331 26.7037 5.30027 26.9792 5.64091 26.9792H20.2333C20.574 26.9792 20.8509 26.7037 20.8509 26.3648V24.575L17.5605 20.8898L16.4369 21.8829C16.7607 22.3736 16.6576 22.9959 16.2414 23.3628C15.764 23.7847 15.0358 23.7361 14.6176 23.2675L12.0115 20.3495C11.5899 19.8775 11.6333 19.153 12.1072 18.734C12.5387 18.3529 13.1776 18.3578 13.6071 18.7159L17.9569 14.8715C17.6499 14.4054 17.7205 13.7733 18.1515 13.3916C18.6259 12.9722 19.3546 13.0154 19.7757 13.4874L20.8504 14.6907V7.73534H17.2539C16.6245 7.73534 16.1125 7.226 16.1125 6.59976V3.02112H5.64141C5.30076 3.02112 5.0238 3.29667 5.0238 3.63557V26.3643L5.02331 26.3648Z" fill="url(#paint0_linear_1051_2916)"/>
<defs>
<linearGradient id="paint0_linear_1051_2916" x1="15.0002" y1="27.4999" x2="15.0002" y2="3.64589" gradientUnits="userSpaceOnUse">
<stop stop-color="#0B2C4C"/>
<stop offset="0.54" stop-color="#00A89C"/>
<stop offset="1" stop-color="#80319A"/>
</linearGradient>
</defs>
</svg>
