<svg width="60" height="60" viewBox="0 0 60 60" fill="none" xmlns="http://www.w3.org/2000/svg">
<path d="M53.1025 53.4172C53.5142 52.7955 53.5861 52.0142 53.2951 51.3278C52.727 49.9881 47.9227 38.6574 47.2063 36.9679C46.8984 36.2061 46.0974 35.5544 45.072 35.5544H34.3549C38.2601 30.9916 43.4297 24.0615 43.4297 19.3393C43.4297 11.7549 37.2593 5.58447 29.6749 5.58447C22.0934 5.58447 15.9255 11.7549 15.9255 19.3393C15.9255 24.0615 21.0953 30.9916 25.0005 35.5544H19.9983C17.7387 35.5544 16.6145 35.5544 14.346 35.5544C13.379 35.5544 12.5046 36.1643 12.1707 37.0721C11.2121 39.6768 7.82026 48.8937 6.63305 52.12C6.44096 52.6417 6.51606 53.2255 6.83403 53.6816C7.52934 54.6783 8.66479 54.3479 9.11342 54.4102H51.2539C51.9996 54.4102 52.6906 54.0389 53.1025 53.4172ZM46.8537 39.187H31.0832C31.653 38.5869 32.4289 37.7513 33.319 36.7453H45.0582C45.5612 36.7587 45.8909 36.9951 46.1098 37.4326L46.8537 39.187ZM29.6749 6.77539C36.6027 6.77539 42.2388 12.4115 42.2388 19.3393C42.2388 25.5558 31.9108 36.6122 29.6777 38.9295C27.4446 36.6122 17.1164 25.5557 17.1164 19.3393C17.1164 12.4115 22.7502 6.77539 29.6749 6.77539ZM29.6778 40.3778H47.3587L49.3156 44.9929H35.8142C35.3957 44.9929 35.0178 45.241 34.8515 45.6251C34.6852 46.0094 34.7629 46.4548 35.0495 46.7602L41.1145 53.2192H36.5587L24.0553 41.3048C23.7274 40.9931 23.2689 40.8682 22.8284 40.972C22.3878 41.0755 22.0329 41.3911 21.8787 41.8163L17.7436 53.2193H13.8256L16.1934 47.9002C16.3885 47.4617 16.3553 46.9559 16.1043 46.5468C15.8534 46.1377 15.4175 45.8788 14.9383 45.8539L10.2959 45.6138L11.4183 42.5637L16.9193 42.8446C16.9502 42.846 16.9812 42.847 17.0119 42.847C17.7859 42.847 18.49 42.3502 18.7445 41.6124L20.4226 36.7454H26.0364C29.3086 40.4431 29.423 40.3778 29.6778 40.3778ZM19.1629 36.7452L17.6188 41.224C17.5264 41.4925 17.2678 41.6771 16.9803 41.655L11.8494 41.3931L13.277 37.5137C13.4461 37.0541 13.8887 36.7452 14.3786 36.7452H19.1629ZM9.11342 53.2192C8.73969 53.2192 8.40258 53.0434 8.18862 52.7368C7.97524 52.4308 7.92661 52.0548 8.05493 51.7044C8.26245 51.1404 9.65688 47.3507 9.86538 46.7838L14.877 47.0432C14.9982 47.0494 15.0619 47.1248 15.0894 47.1692C15.1166 47.2137 15.155 47.3049 15.1054 47.4158L12.522 53.2192H9.11342ZM19.0104 53.2192L22.9984 42.2223C23.0203 42.1615 23.0663 42.1393 23.1009 42.1311C23.1349 42.1225 23.1865 42.122 23.2337 42.1669L34.8324 53.2191L19.0104 53.2192ZM42.748 53.2192L36.1417 46.1838H49.8205C50.8424 48.5939 51.5734 50.318 52.1389 51.6518C52.2892 52.0063 52.2536 52.3933 52.041 52.7143C51.8286 53.0353 51.486 53.2192 51.101 53.2192H42.748Z" fill="url(#paint0_linear_9144_19737)"/>
<path d="M39.6649 18.724C39.6649 13.217 35.1848 8.73682 29.6777 8.73682C24.1707 8.73682 19.6904 13.217 19.6904 18.724C19.6904 24.2311 24.1706 28.7112 29.6776 28.7112C35.1847 28.7112 39.6649 24.2312 39.6649 18.724ZM20.8813 18.724C20.8813 13.8738 24.8275 9.92764 29.6777 9.92764C34.5279 9.92764 38.4741 13.8738 38.4741 18.724C38.4741 23.5742 34.5279 27.5204 29.6777 27.5204C24.8275 27.5204 20.8813 23.5743 20.8813 18.724Z" fill="url(#paint1_linear_9144_19737)"/>
<path d="M30.2718 25.1343V24.0211H30.3692C31.9938 24.0211 33.3154 22.6993 33.3154 21.0746C33.3154 19.4499 31.9938 18.1284 30.3692 18.1284H29.6867C29.683 18.1283 29.6801 18.1264 29.6764 18.1264C29.6727 18.1264 29.6696 18.1284 29.666 18.1284H28.9863C28.0186 18.1284 27.231 17.3408 27.231 16.3729C27.231 15.4049 28.0186 14.6173 28.9863 14.6173H29.666C29.6697 14.6174 29.6727 14.6193 29.6764 14.6193C29.6801 14.6193 29.6831 14.6173 29.6867 14.6173H30.2999C31.268 14.6173 32.0555 15.4049 32.0555 16.3729C32.0555 16.7018 32.322 16.9683 32.6509 16.9683C32.9798 16.9683 33.2463 16.7018 33.2463 16.3729C33.2463 14.7482 31.9245 13.4264 30.2998 13.4264H30.2717V12.3137C30.2717 11.9848 30.0052 11.7183 29.6763 11.7183C29.3474 11.7183 29.0809 11.9848 29.0809 12.3137V13.4264H28.9862C27.3616 13.4264 26.04 14.7481 26.04 16.3729C26.04 17.9976 27.3616 19.3193 28.9862 19.3193H30.3692C31.337 19.3193 32.1246 20.1069 32.1246 21.0747C32.1246 22.0428 31.337 22.8303 30.3692 22.8303H29.6855C29.6823 22.8302 29.6796 22.8284 29.6764 22.8284C29.6731 22.8284 29.6704 22.8302 29.6672 22.8303H29.0554C28.0876 22.8303 27.3 22.0427 27.3 21.0747C27.3 20.7458 27.0335 20.4793 26.7046 20.4793C26.3757 20.4793 26.1092 20.7458 26.1092 21.0747C26.1092 22.6993 27.4308 24.0212 29.0554 24.0212H29.081V25.1344C29.081 25.4633 29.3475 25.7298 29.6764 25.7298C30.0052 25.7298 30.2718 25.4632 30.2718 25.1343Z" fill="url(#paint2_linear_9144_19737)"/>
<defs>
<linearGradient id="paint0_linear_9144_19737" x1="30" y1="5.58447" x2="30" y2="54.4154" gradientUnits="userSpaceOnUse">
<stop stop-color="#81319B"/>
<stop offset="0.48" stop-color="#00A99D"/>
<stop offset="1" stop-color="#0B2C4C"/>
</linearGradient>
<linearGradient id="paint1_linear_9144_19737" x1="29.6777" y1="8.73682" x2="29.6777" y2="28.7112" gradientUnits="userSpaceOnUse">
<stop stop-color="#81319B"/>
<stop offset="0.48" stop-color="#00A99D"/>
<stop offset="1" stop-color="#0B2C4C"/>
</linearGradient>
<linearGradient id="paint2_linear_9144_19737" x1="29.6777" y1="11.7183" x2="29.6777" y2="25.7298" gradientUnits="userSpaceOnUse">
<stop stop-color="#81319B"/>
<stop offset="0.48" stop-color="#00A99D"/>
<stop offset="1" stop-color="#0B2C4C"/>
</linearGradient>
</defs>
</svg>
