<svg width="60" height="60" viewBox="0 0 60 60" fill="none" xmlns="http://www.w3.org/2000/svg">
<path d="M47 22.0893C47 17.2424 44.9363 12.6037 41.3381 9.36265C37.6895 6.07487 32.9792 4.56652 28.0689 5.10786C20.2574 5.97224 13.9642 12.301 13.1056 20.1544C12.5288 25.4198 14.3349 30.5602 18.0583 34.2584C20.6654 36.8474 22.1831 40.4991 22.2803 44.325C21.4712 44.6207 20.8888 45.3941 20.8888 46.3087C20.8888 46.9448 21.1783 47.5088 21.6257 47.8948C21.1783 48.2835 20.8888 48.851 20.8888 49.4909C20.8888 50.6518 21.8333 51.5964 22.9949 51.5964H25.5768L28.0153 54.0483C29.2766 55.3165 31.3316 55.3179 32.5944 54.0483L35.0328 51.5964H37.0046C38.1663 51.5964 39.1107 50.6518 39.1107 49.4909C39.1107 48.851 38.8212 48.2835 38.3738 47.8948C38.8212 47.5088 39.1107 46.9447 39.1107 46.3087C39.1107 45.394 38.5282 44.6205 37.7189 44.3248C37.8141 40.4847 39.3275 36.8884 42.028 34.1671C45.2343 30.9361 47 26.6478 47 22.0893ZM31.8629 53.3129C31.0043 54.1763 29.6052 54.1763 28.7467 53.3129L27.0395 51.5964H33.5702L31.8629 53.3129ZM38.0763 49.4909C38.0763 50.0779 37.5955 50.5563 37.0046 50.5563C31.8973 50.5563 27.8882 50.5563 22.9949 50.5563C22.4039 50.5563 21.9232 50.0779 21.9232 49.4909C21.9232 48.8967 22.404 48.4133 22.9949 48.4133H37.0046C37.5955 48.4132 38.0763 48.8967 38.0763 49.4909ZM38.0763 46.3087C38.0763 46.8957 37.5955 47.3732 37.0046 47.3732H22.9948C22.4038 47.3732 21.9231 46.8958 21.9231 46.3087C21.9231 45.7145 22.4039 45.2311 22.9948 45.2311H37.0045C37.5955 45.231 38.0763 45.7145 38.0763 46.3087ZM36.6742 44.1909H23.3252C23.1959 40.1362 21.5575 36.2716 18.7855 33.5189C15.2874 30.0453 13.5924 25.2156 14.1338 20.2682C14.9399 12.8942 20.8483 6.95339 28.1819 6.14187C32.7892 5.63099 37.2198 7.04995 40.6482 10.1366C44.0271 13.1807 45.9656 17.5381 45.9656 22.0894C45.9656 26.3696 44.307 30.3978 41.2967 33.4317C38.4319 36.3182 36.8025 40.119 36.6742 44.1909ZM39.2298 21.6701C40.1719 20.3777 40.0857 18.5101 39.0117 17.3146C39.0723 16.3405 38.4279 15.2242 37.3116 14.8231C37.3004 14.1197 36.9356 13.3002 36.2711 12.7974C35.7203 12.3775 35.0143 12.2228 34.5419 12.2717C34.5388 12.2717 34.5308 12.2727 34.5207 12.2727C34.1753 11.2346 33.2015 10.5043 32.069 10.5043C31.22 10.5043 30.4717 10.923 29.9998 11.5599C29.5278 10.9231 28.7795 10.5043 27.9305 10.5043C26.7991 10.5043 25.8253 11.2336 25.4798 12.2716C25.4758 12.2706 25.4717 12.2706 25.4677 12.2706C24.5472 12.2107 23.7426 12.6219 23.2308 13.2972C22.8905 13.7457 22.6951 14.3618 22.6878 14.8231C21.5584 15.23 20.9281 16.3559 20.9877 17.3146C19.9574 18.4633 19.7555 20.2788 20.7696 21.6701C20.1152 22.3212 19.7372 23.2147 19.7372 24.1513C19.7372 25.1954 20.1978 26.1694 20.9867 26.8235C20.9453 27.0318 20.9251 27.2481 20.9251 27.4705C20.9251 29.3566 22.4313 30.8964 24.3021 30.9472C25.8994 32.9313 28.7562 32.6646 29.9998 30.6276C30.1438 30.8637 30.3055 31.0874 30.4998 31.2822C32.0008 32.7879 34.4471 32.5743 35.6976 30.9473C37.5683 30.8965 39.0745 29.3567 39.0745 27.4706C39.0745 27.2482 39.0543 27.0318 39.0139 26.8246C39.8018 26.1695 40.2625 25.1954 40.2625 24.1514C40.2623 23.2147 39.8843 22.3212 39.2298 21.6701ZM21.9594 27.4705C21.9594 27.2267 21.9958 26.9881 22.0654 26.7798C22.1392 26.5563 22.0544 26.3106 21.8583 26.1805C21.1775 25.7306 20.7715 24.9718 20.7715 24.1512C20.7715 23.4928 21.0502 22.8749 21.5109 22.4171C22.0874 22.8458 22.7934 23.1081 23.5645 23.1081C25.4766 23.1081 27.0323 21.548 27.0323 19.6293C27.0323 19.3419 26.8009 19.1092 26.5151 19.1092C26.2293 19.1092 25.9979 19.3419 25.9979 19.6293C25.9979 20.9741 24.9059 22.068 23.5645 22.068C22.9083 22.068 22.3141 21.8037 21.8759 21.3787C21.8707 21.3731 21.8709 21.3645 21.8655 21.359C21.4028 20.8938 21.1483 20.2793 21.1483 19.6283C21.1483 18.9548 21.4089 18.3333 21.8827 17.8803C22.118 17.6552 22.0211 17.3939 22.0211 17.2658C22.0211 16.5101 22.5787 15.8499 23.3182 15.7291C23.5989 15.6844 23.7899 15.4183 23.7464 15.1359C23.5883 14.1097 24.459 13.1414 25.5463 13.3292C26.3043 13.4599 26.8375 14.1157 26.8375 14.8646C26.8375 15.152 27.0688 15.3846 27.3547 15.3846C27.6405 15.3846 27.8719 15.152 27.8719 14.8646C27.8719 13.8715 27.3099 13.0173 26.4946 12.5788C26.7121 11.9759 27.2644 11.5443 27.9304 11.5443C28.7853 11.5443 29.4797 12.2414 29.4825 13.0993C29.4825 13.1011 29.482 13.1026 29.482 13.1044V28.8234C29.482 29.3657 29.2984 29.8624 28.9985 30.2679C27.5985 32.157 24.6161 31.1398 24.6161 28.8234C24.6161 27.4745 25.7081 26.3766 27.0495 26.3766C27.3354 26.3766 27.5667 26.1439 27.5667 25.8565C27.5667 25.5691 27.3354 25.3365 27.0495 25.3365C25.1374 25.3365 23.5817 26.9007 23.5817 28.8234C23.5817 29.1672 23.6469 29.4929 23.74 29.8068C22.716 29.5179 21.9594 28.5852 21.9594 27.4705ZM38.141 26.1805C37.9461 26.3106 37.8612 26.5553 37.935 26.7788C38.0037 26.9881 38.04 27.2268 38.04 27.4705C38.04 28.5667 37.3074 29.4848 36.2658 29.7891C36.3555 29.4803 36.4187 29.1607 36.4187 28.8234C36.4187 26.9007 34.8631 25.3365 32.9509 25.3365C32.6651 25.3365 32.4337 25.5691 32.4337 25.8565C32.4337 26.1439 32.665 26.3766 32.9509 26.3766C34.2924 26.3766 35.3843 27.4746 35.3843 28.8234C35.3843 29.3274 35.2309 29.7961 34.9683 30.1854C34.9682 30.1857 34.9673 30.1867 34.9672 30.1869C34.109 31.457 32.3137 31.6305 31.231 30.5466C30.7904 30.105 30.5175 29.4956 30.5175 28.8233V13.1045C30.5175 13.1027 30.517 13.1012 30.517 13.0994C30.5197 12.2415 31.2141 11.5444 32.069 11.5444C32.7353 11.5444 33.2876 11.9763 33.505 12.5791C32.6898 13.0177 32.1276 13.8718 32.1276 14.8646C32.1276 15.152 32.3589 15.3846 32.6448 15.3846C32.9306 15.3846 33.162 15.152 33.162 14.8646C33.162 13.6987 34.3922 12.9396 35.4292 13.4848C36.0333 13.7977 36.3545 14.4772 36.253 15.1358C36.2095 15.4181 36.4005 15.6843 36.6823 15.729C37.4328 15.8508 37.9783 16.4969 37.9783 17.2657C37.9783 17.4001 37.8801 17.6538 38.1167 17.8802C38.5905 18.3333 38.8511 18.9538 38.8511 19.6282C38.8511 20.9417 37.7997 22.0679 36.4348 22.0679C35.0933 22.0679 34.0024 20.974 34.0024 19.6292C34.0024 19.3418 33.7711 19.1091 33.4852 19.1091C33.1994 19.1091 32.968 19.3418 32.968 19.6292C32.968 21.5479 34.5237 23.108 36.4348 23.108C37.2059 23.108 37.9119 22.8457 38.4884 22.417C38.9493 22.8748 39.2279 23.4927 39.2279 24.1511C39.2279 24.9719 38.8218 25.7306 38.141 26.1805Z" fill="url(#paint0_linear_1036_45376)"/>
<defs>
<linearGradient id="paint0_linear_1036_45376" x1="29.9994" y1="53.3056" x2="29.9994" y2="6.69443" gradientUnits="userSpaceOnUse">
<stop stop-color="#0B2C4C"/>
<stop offset="0.485" stop-color="#00A99D"/>
<stop offset="0.9888" stop-color="#81319B"/>
</linearGradient>
</defs>
</svg>
