<svg width="60" height="60" viewBox="0 0 60 60" fill="none" xmlns="http://www.w3.org/2000/svg">
<g clip-path="url(#clip0_2300_16147)">
<path d="M51.9844 47.9452C53.0688 47.1872 53.9001 46.1206 54.3704 44.8839C54.8407 43.6473 54.9282 42.2977 54.6214 41.0107C54.3147 39.7237 53.628 38.5587 52.6505 37.667C51.673 36.7754 50.45 36.1983 49.1402 36.0109V30.0003C49.1402 29.7517 49.0415 29.5132 48.8656 29.3374C48.6898 29.1616 48.4514 29.0628 48.2027 29.0628H30.9234V24.0577H39.9223C40.1709 24.0577 40.4094 23.959 40.5852 23.7832C40.761 23.6073 40.8598 23.3689 40.8598 23.1202C40.8571 20.9045 40.1779 18.7423 38.913 16.9231C37.6481 15.1039 35.8578 13.7142 33.7816 12.9402C34.932 12.1357 35.7958 10.9854 36.2477 9.6564C36.6995 8.32738 36.7157 6.88891 36.294 5.55003C35.8723 4.21115 35.0347 3.04163 33.9028 2.21143C32.7709 1.38122 31.4037 0.933594 30 0.933594C28.5963 0.933594 27.2291 1.38122 26.0972 2.21143C24.9653 3.04163 24.1277 4.21115 23.706 5.55003C23.2843 6.88891 23.3005 8.32738 23.7523 9.6564C24.2042 10.9854 25.068 12.1357 26.2184 12.9402C24.1422 13.7142 22.3519 15.1039 21.087 16.9231C19.8221 18.7423 19.1429 20.9045 19.1402 23.1202C19.1402 23.3689 19.239 23.6073 19.4148 23.7832C19.5906 23.959 19.8291 24.0577 20.0777 24.0577H29.0484V29.0628H11.7973C11.5486 29.0628 11.3102 29.1616 11.1344 29.3374C10.9585 29.5132 10.8598 29.7517 10.8598 30.0003V36.0109C9.55004 36.1983 8.32698 36.7754 7.34949 37.667C6.372 38.5587 5.68528 39.7237 5.37856 41.0107C5.07185 42.2977 5.15931 43.6473 5.62959 44.8839C6.09987 46.1206 6.93122 47.1872 8.01562 47.9452C5.93946 48.7193 4.14918 50.1089 2.88427 51.9282C1.61936 53.7474 0.940151 55.9096 0.9375 58.1253C0.9375 58.374 1.03627 58.6124 1.21209 58.7882C1.3879 58.9641 1.62636 59.0628 1.875 59.0628H58.125C58.3736 59.0628 58.6121 58.9641 58.7879 58.7882C58.9637 58.6124 59.0625 58.374 59.0625 58.1253C59.0598 55.9096 58.3806 53.7474 57.1157 51.9282C55.8508 50.1089 54.0605 48.7193 51.9844 47.9452ZM25.2762 7.53665C25.2762 6.60237 25.5532 5.68906 26.0723 4.91223C26.5913 4.13541 27.3291 3.52994 28.1923 3.17241C29.0554 2.81487 30.0052 2.72132 30.9216 2.90359C31.8379 3.08586 32.6796 3.53576 33.3403 4.1964C34.0009 4.85704 34.4508 5.69875 34.6331 6.61508C34.8153 7.53141 34.7218 8.48122 34.3642 9.34438C34.0067 10.2076 33.4012 10.9453 32.6244 11.4644C31.8476 11.9834 30.9343 12.2605 30 12.2605C28.7476 12.2589 27.547 11.7607 26.6615 10.8752C25.7759 9.98964 25.2777 8.78901 25.2762 7.53665ZM30 14.1355C32.2195 14.1387 34.3596 14.9621 36.0088 16.4476C37.658 17.933 38.6999 19.9756 38.9344 22.1827H21.0633C21.298 19.9753 22.3404 17.9325 23.99 16.4471C25.6396 14.9616 27.7801 14.1384 30 14.1355ZM52.9266 42.5394C52.9253 43.7912 52.4277 44.9915 51.5429 45.877C50.658 46.7626 49.4581 47.261 48.2062 47.2632H48.2004C47.2662 47.2627 46.3531 46.9853 45.5766 46.466C44.8001 45.9466 44.195 45.2087 43.8378 44.3455C43.4806 43.4823 43.3874 42.5326 43.57 41.6164C43.7525 40.7002 44.2026 39.8587 44.8633 39.1983C45.524 38.5379 46.3658 38.0882 47.282 37.9062C48.1983 37.7241 49.148 37.8178 50.011 38.1754C50.874 38.533 51.6117 39.1384 52.1306 39.9152C52.6496 40.692 52.9266 41.6052 52.9266 42.5394ZM47.2652 36.0085C45.9552 36.1956 44.7319 36.7725 43.7541 37.6642C42.7764 38.5559 42.0895 39.7211 41.7829 41.0084C41.4763 42.2956 41.564 43.6454 42.0347 44.8821C42.5054 46.1188 43.3373 47.1853 44.4223 47.9429C42.2368 48.7546 40.3703 50.2476 39.0984 52.2015C37.8254 50.2515 35.9625 48.7594 33.7816 47.9429C34.8673 47.1844 35.6994 46.1166 36.1697 44.8786C36.6399 43.6405 36.7264 42.2895 36.418 41.0016C36.1096 39.7136 35.4205 38.5484 34.4405 37.6576C33.4604 36.7668 32.2349 36.1918 30.9234 36.0074V30.9378H47.2652V36.0085ZM30 47.2656C28.7475 47.2646 27.5466 46.7663 26.6614 45.8801C25.7762 44.9939 25.2792 43.7925 25.2797 42.54C25.2802 41.2874 25.778 40.0864 26.6639 39.2009C27.5497 38.3153 28.751 37.8179 30.0035 37.8179C31.256 37.8179 32.4573 38.3153 33.3431 39.2009C34.229 40.0864 34.7269 41.2874 34.7273 42.54C34.7278 43.7925 34.2308 44.9939 33.3456 45.8801C32.4605 46.7663 31.2596 47.2646 30.007 47.2656H30ZM29.0484 30.9378V36.0132C27.7404 36.2034 26.5197 36.7822 25.5446 37.6746C24.5695 38.567 23.8851 39.7317 23.58 41.0178C23.275 42.3039 23.3634 43.652 23.8339 44.8873C24.3043 46.1225 25.1351 47.1879 26.2184 47.9452C24.0374 48.7617 22.1746 50.2538 20.9016 52.2038C19.6297 50.25 17.7632 48.7569 15.5777 47.9452C16.6627 47.1876 17.4946 46.1211 17.9653 44.8844C18.436 43.6477 18.5237 42.298 18.2171 41.0107C17.9105 39.7234 17.2236 38.5582 16.2459 37.6665C15.2681 36.7749 14.0447 36.198 12.7348 36.0109V30.9378H29.0484ZM7.07344 42.5394C7.07344 41.6052 7.35043 40.692 7.86938 39.9152C8.38834 39.1384 9.12596 38.533 9.98899 38.1754C10.852 37.8178 11.8017 37.7241 12.718 37.9062C13.6342 38.0882 14.476 38.5379 15.1367 39.1983C15.7974 39.8587 16.2475 40.7002 16.43 41.6164C16.6126 42.5326 16.5194 43.4823 16.1622 44.3455C15.805 45.2087 15.1999 45.9466 14.4234 46.466C13.6469 46.9853 12.7338 47.2627 11.7996 47.2632C10.5467 47.2626 9.34534 46.7648 8.45921 45.8791C7.57309 44.9934 7.07468 43.7922 7.07344 42.5394ZM11.7949 49.1382C13.4795 49.1385 15.1302 49.6123 16.5584 50.5055C17.9867 51.3988 19.1351 52.6756 19.8727 54.1902C19.5004 55.1513 19.2675 56.1607 19.1812 57.1878H2.86055C3.09524 54.9808 4.13727 52.9383 5.78641 51.453C7.43555 49.9676 9.57545 49.144 11.7949 49.1406V49.1382ZM21.0633 57.1878C21.2983 54.9805 22.3407 52.9379 23.9903 51.4525C25.6399 49.9671 27.7802 49.1437 30 49.1406C32.2199 49.1434 34.3603 49.9667 36.01 51.4522C37.6596 52.9376 38.702 54.9804 38.9367 57.1878H21.0633ZM40.8188 57.1878C40.7308 56.1613 40.4963 55.1526 40.1227 54.1925C40.8604 52.6781 42.0089 51.4015 43.4371 50.5082C44.8653 49.615 46.5158 49.1411 48.2004 49.1406C50.4207 49.1429 52.5617 49.9659 54.2118 51.4514C55.862 52.9369 56.9047 54.98 57.1395 57.1878H40.8188Z" fill="url(#paint0_linear_2300_16147)"/>
</g>
<defs>
<linearGradient id="paint0_linear_2300_16147" x1="7.6582" y1="65.2339" x2="52.3418" y2="20.5503" gradientUnits="userSpaceOnUse">
<stop offset="0.3" stop-color="#0B2C4C"/>
<stop offset="0.5" stop-color="#00A99D"/>
<stop offset="0.75" stop-color="#81319B"/>
</linearGradient>
<clipPath id="clip0_2300_16147">
<rect width="60" height="60" fill="white"/>
</clipPath>
</defs>
</svg>
