<svg width="60" height="60" viewBox="0 0 60 60" fill="none" xmlns="http://www.w3.org/2000/svg">
<path fill-rule="evenodd" clip-rule="evenodd" d="M15.6138 20.5667V11.1869C15.6138 10.7688 15.9537 10.4294 16.372 10.4294H25.3533L23.529 8.60808C23.233 8.31207 23.233 7.83236 23.529 7.53646C23.8256 7.24056 24.3062 7.24056 24.6015 7.53646L27.7211 10.6506C27.723 10.6526 27.7243 10.6546 27.7262 10.6566H27.7269C27.7269 10.6576 27.7269 10.6576 27.7282 10.6576C27.7282 10.6585 27.7282 10.6585 27.7295 10.6585V10.6595C27.7301 10.6595 27.7301 10.6605 27.7313 10.6605C28.0157 10.9571 28.0154 11.4178 27.7281 11.7161H27.7268C27.7268 11.7171 27.7261 11.7171 27.7261 11.7181C27.7249 11.7181 27.7249 11.7191 27.7242 11.7191V11.7201C27.7229 11.7201 27.7229 11.7201 27.7229 11.7211C27.7222 11.7211 27.7222 11.7221 27.721 11.7221L24.6014 14.8372C24.3061 15.1333 23.8255 15.1333 23.5289 14.8372C23.2329 14.5413 23.2329 14.0614 23.5289 13.7654L25.3532 11.9443H17.1312V20.5666C17.1312 20.9847 16.7919 21.3241 16.3718 21.3241C15.9537 21.3243 15.6138 20.9848 15.6138 20.5667ZM53.5219 36.0001C53.8186 36.2962 53.8186 36.7758 53.5219 37.0718C53.2259 37.3677 52.7454 37.3677 52.4487 37.0718L50.6251 35.2506V46.7959C50.6251 47.2143 50.2852 47.5536 49.8664 47.5536H41.5979C41.1791 47.5536 40.8391 47.2143 40.8391 46.7959C40.8391 46.3768 41.179 46.0384 41.5979 46.0384H49.1076V35.2507L47.2827 37.0719C46.9867 37.3678 46.5067 37.3678 46.2102 37.0719C45.9142 36.776 45.9142 36.2963 46.2102 36.0003L49.3323 32.883C49.6516 32.5854 50.1108 32.5952 50.4022 32.886L53.5219 36.0001ZM44.0345 20.3284C43.997 19.7777 43.7251 19.3727 43.1821 19.0577C42.2895 18.5644 41.2778 18.9669 40.0581 18.2646C38.7571 17.493 38.4611 16.4425 38.4426 15.6969C38.4413 15.6808 38.4413 15.6647 38.4426 15.6484C38.4878 14.5151 39.0549 13.6263 40.0823 13.0777C40.4324 12.8838 40.813 12.7473 41.2185 12.6695V11.9263C41.2185 11.5069 41.5584 11.1688 41.9772 11.1688C42.396 11.1688 42.7359 11.5069 42.7359 11.9263V12.6535C43.6328 12.7707 44.4367 13.0505 45.177 13.5022C45.5334 13.7201 45.6467 14.187 45.4284 14.5435C45.21 14.901 44.7429 15.0133 44.3857 14.795C43.6887 14.3697 42.9045 14.1456 41.9892 14.1102C41.603 14.1028 41.0963 14.2318 40.8148 14.4041C40.8104 14.4071 40.8066 14.4091 40.8015 14.411C40.2502 14.705 39.9899 15.098 39.9599 15.6837C39.9733 16.0221 40.0841 16.5129 40.8198 16.9544C41.6668 17.4326 42.7259 17.0493 43.928 17.7382C44.9375 18.3192 45.499 19.2028 45.5531 20.2938C45.5538 20.3202 45.5538 20.3464 45.5518 20.3728C45.4471 21.9997 44.2705 23.0622 42.7358 23.3454V24.0828C42.7358 24.5009 42.3959 24.8403 41.9771 24.8403C41.5583 24.8403 41.2184 24.5009 41.2184 24.0828V23.3596C40.3667 23.2474 39.5469 22.9646 38.776 22.5142C38.4139 22.3028 38.2916 21.8384 38.503 21.4776C38.7149 21.1161 39.1796 20.995 39.5412 21.2061C40.5575 21.7991 42.0895 22.2049 43.1878 21.6001C43.7271 21.2989 43.9918 20.9052 44.0345 20.3284ZM41.9773 9.56162C37.3147 9.56162 33.5218 13.3484 33.5218 18.004C33.5218 22.6597 37.3149 26.4475 41.9773 26.4475C46.6392 26.4475 50.4316 22.6597 50.4316 18.004C50.4316 13.3485 46.6392 9.56162 41.9773 9.56162ZM41.9773 27.9628C47.4762 27.9628 51.949 23.495 51.949 18.004C51.949 12.5132 47.4762 8.04642 41.9773 8.04642C36.4784 8.04642 32.0043 12.5132 32.0043 18.004C32.0043 23.495 36.4783 27.9628 41.9773 27.9628ZM41.9773 6.51531C35.6324 6.51531 30.4715 11.6698 30.4715 18.004C30.4715 24.3393 35.6324 29.4929 41.9773 29.4929C48.3216 29.4929 53.4825 24.3393 53.4825 18.004C53.4825 11.6698 48.3216 6.51531 41.9773 6.51531ZM41.9773 31.0082C49.1586 31.0082 55 25.1749 55 18.004C55 10.8333 49.1587 5 41.9773 5C34.796 5 28.954 10.8334 28.954 18.004C28.954 25.1749 34.7961 31.0082 41.9773 31.0082ZM31.1252 49.0183C29.898 49.0183 28.8993 48.0211 28.8993 46.7959C28.8993 45.5696 29.898 44.5738 31.1252 44.5738C32.3517 44.5738 33.3505 45.5697 33.3505 46.7959C33.3505 48.0211 32.3517 49.0183 31.1252 49.0183ZM31.1252 43.0585C29.0616 43.0585 27.3825 44.7344 27.3825 46.7959C27.3825 48.8567 29.0616 50.5333 31.1252 50.5333C33.1894 50.5333 34.8679 48.8567 34.8679 46.7959C34.8679 44.7344 33.1895 43.0585 31.1252 43.0585ZM37.8246 47.2475V46.3436L36.7755 46.0032C36.5285 45.9222 36.3396 45.7224 36.2759 45.4709C36.1511 44.9889 35.9588 44.5265 35.7042 44.0971C35.5725 43.874 35.5636 43.5981 35.682 43.3667L36.1829 42.385L35.5425 41.7454L34.5591 42.2454C34.3274 42.3636 34.0512 42.3546 33.8277 42.2223C33.3974 41.9688 32.9347 41.7768 32.4522 41.6525C32.2 41.5879 31.9989 41.4 31.9187 41.1535L31.5775 40.106H30.6717L30.3319 41.1535C30.251 41.4 30.0504 41.5879 29.7984 41.6525C29.3159 41.7768 28.8525 41.9689 28.4217 42.2223C28.1983 42.3546 27.9233 42.3635 27.6916 42.2454L26.7082 41.7454L26.0678 42.385L26.5687 43.3667C26.6871 43.5981 26.6775 43.8738 26.5451 44.0971C26.2911 44.5265 26.0989 44.9889 25.9748 45.4709C25.9099 45.7224 25.7215 45.9222 25.4752 46.0032L24.4261 46.3436V47.2475L25.4752 47.5879C25.7215 47.6685 25.9099 47.8687 25.9748 48.1202C26.0989 48.6021 26.2912 49.0646 26.5451 49.494C26.6775 49.7171 26.6871 49.993 26.5687 50.2244L26.0678 51.2061L26.7082 51.8454L27.6916 51.3453C27.9233 51.2271 28.1995 51.2363 28.4229 51.3687C28.8525 51.6232 29.316 51.8141 29.7984 51.9382C30.0504 52.0031 30.251 52.191 30.3319 52.4383L30.6717 53.4848H31.5775L31.9187 52.4373C31.9989 52.191 32.2 52.0031 32.4522 51.9382C32.9347 51.8141 33.3974 51.6222 33.8277 51.3687C34.0511 51.2363 34.3274 51.2272 34.5591 51.3453L35.5425 51.8454L36.1829 51.2061L35.682 50.2244C35.5636 49.993 35.5725 49.7171 35.7042 49.494C35.9588 49.0646 36.151 48.6021 36.2759 48.1202C36.3408 47.8687 36.5285 47.6685 36.7755 47.5879L37.8246 47.2475ZM38.8182 45.0718L37.626 44.686C37.5159 44.3463 37.3784 44.0162 37.2154 43.6981L37.7851 42.5829C37.934 42.2899 37.8781 41.9354 37.6457 41.7032L36.2251 40.285C35.9928 40.0526 35.6375 39.997 35.3441 40.1455L34.2277 40.7143C33.9088 40.5518 33.5785 40.4142 33.2379 40.3041L32.851 39.1142C32.7497 38.802 32.4582 38.591 32.1298 38.591H30.1214C29.793 38.591 29.5014 38.802 29.399 39.1142L29.0127 40.3041C28.6728 40.4141 28.3424 40.5518 28.0229 40.7133L26.9071 40.1454C26.6136 39.997 26.2585 40.0526 26.0254 40.2849L24.6053 41.7031C24.373 41.9353 24.3157 42.2898 24.4659 42.5828L25.0343 43.698C24.8726 44.0161 24.7351 44.3463 24.6244 44.6859L23.4328 45.0717C23.1202 45.1736 22.909 45.4645 22.909 45.7929V47.7978C22.909 48.1263 23.1202 48.417 23.4328 48.5191L24.6244 48.9049C24.7351 49.2443 24.8726 49.5748 25.0343 49.8928L24.4659 51.0081C24.3157 51.3007 24.3729 51.6553 24.6053 51.8878L26.0254 53.306C26.2584 53.5384 26.6136 53.594 26.9071 53.4452L28.0236 52.8776C28.3425 53.0392 28.6728 53.1766 29.0127 53.2869L29.399 54.4766C29.5014 54.7889 29.793 55 30.1214 55H32.1297C32.4581 55 32.7496 54.7889 32.8508 54.4766L33.2378 53.2869C33.5784 53.1767 33.9088 53.0393 34.2276 52.8776L35.344 53.4452C35.6374 53.5939 35.9926 53.5383 36.225 53.306L37.6457 51.8878C37.878 51.6553 37.934 51.3008 37.7851 51.0081L37.2154 49.8928C37.3783 49.5748 37.5159 49.2443 37.626 48.9049L38.8182 48.5191C39.1307 48.4171 39.3421 48.1263 39.3421 47.7978V45.7929C39.3421 45.4647 39.1307 45.1739 38.8182 45.0718ZM19.4405 35.7171C17.69 37.4092 14.8961 37.3636 13.202 35.6141C11.5067 33.8633 11.5516 31.0782 13.3051 29.3849C15.0585 27.6918 17.8485 27.7394 19.5436 29.4879C21.2382 31.2359 21.1906 34.026 19.4405 35.7171ZM16.4705 26.6313C13.2017 26.5688 10.4986 29.1817 10.4445 32.4534C10.3899 35.7641 13.0584 38.4718 16.3751 38.4718C19.611 38.4718 22.2471 35.8814 22.301 32.6486C22.3557 29.3771 19.7463 26.6856 16.4705 26.6313ZM21.324 38.9161C21.1184 39.0758 21.0095 39.3283 21.0336 39.5868L21.2074 41.4292L19.5403 42.1495L18.3143 40.7606C18.1432 40.5657 17.8834 40.4716 17.6262 40.5129C16.877 40.6312 16.1157 40.6433 15.3653 40.5495C15.1075 40.517 14.8509 40.618 14.6854 40.8171L13.504 42.2422L11.8158 41.5746L11.9317 39.7281C11.9483 39.4693 11.8304 39.2199 11.6204 39.0674C11.0094 38.624 10.4631 38.0946 9.99787 37.4948C9.83807 37.2897 9.58539 37.1805 9.32637 37.2048L7.48111 37.3786L6.75994 35.7138L8.15073 34.4905C8.34617 34.3189 8.43904 34.0593 8.39839 33.8039C8.28002 33.0543 8.26855 32.2948 8.36209 31.5452C8.39583 31.2877 8.29327 31.031 8.09349 30.8664L6.66706 29.6866L7.33545 28.0008L9.1846 28.117C9.44363 28.1341 9.69386 28.0159 9.84598 27.8069C10.2903 27.1946 10.8205 26.6504 11.4214 26.1856C11.627 26.0269 11.7359 25.7735 11.7116 25.5159L11.5379 23.6725L13.205 22.9522L14.4296 24.3411C14.6021 24.5363 14.8606 24.6291 15.1177 24.5887C15.8682 24.4694 16.6289 24.4573 17.3799 24.5524C17.6377 24.5856 17.8942 24.4836 18.0591 24.2835L19.2405 22.8594L20.9292 23.527L20.8127 25.3735C20.7968 25.6321 20.9139 25.8817 21.1233 26.0332C21.7357 26.4776 22.2818 27.007 22.747 27.6068C22.9055 27.8119 23.1589 27.9211 23.418 27.8968L25.2639 27.723L25.9839 29.3877L24.5944 30.612C24.399 30.7826 24.3061 31.0422 24.3462 31.2988C24.4646 32.0473 24.4767 32.8068 24.3818 33.5563C24.3493 33.8139 24.4506 34.0705 24.6511 34.2352L26.0782 35.415L25.4091 37.1009L23.56 36.9847C23.3015 36.9696 23.0514 37.0857 22.8986 37.2947C22.4551 37.9062 21.9249 38.4514 21.324 38.9161ZM22.5825 39.8475C23.0547 39.4486 23.4857 39.0041 23.8701 38.5221L25.8637 38.6485C26.1916 38.6676 26.4958 38.4758 26.6167 38.1708L27.6918 35.4615C27.8133 35.1554 27.7242 34.808 27.4703 34.5989L25.9319 33.3262C25.9815 32.712 25.972 32.0937 25.9026 31.4808L27.4016 30.1604C27.6486 29.9433 27.7269 29.5928 27.5964 29.2919L26.4372 26.616C26.3067 26.3151 25.9961 26.1323 25.6696 26.1627L23.6798 26.3504C23.28 25.8787 22.8351 25.4484 22.3526 25.0646L22.478 23.0738C22.4996 22.7463 22.3062 22.4424 22.0006 22.3212L19.2864 21.2484C18.9808 21.1272 18.6327 21.2162 18.4227 21.4696L17.149 23.006C16.5342 22.9552 15.9148 22.9655 15.2999 23.0353L13.9791 21.5383C13.7614 21.2918 13.4101 21.2129 13.109 21.3432L10.4292 22.5009C10.1275 22.6309 9.94475 22.9401 9.97471 23.2675L10.1631 25.2543C9.69085 25.6533 9.25988 26.0976 8.87546 26.5796L6.88188 26.4532C6.55281 26.4332 6.24912 26.626 6.12819 26.9312L5.05377 29.6402C4.93217 29.9463 5.02137 30.2937 5.27527 30.504L6.81373 31.7757C6.7635 32.3897 6.77364 33.0079 6.84301 33.6222L5.34398 34.9413C5.09698 35.1586 5.01803 35.5089 5.14854 35.8101L6.30759 38.4859C6.43877 38.7868 6.74802 38.9708 7.07587 38.9395L9.06433 38.7516C9.46534 39.2233 9.91023 39.6536 10.3928 40.0375L10.2661 42.0284C10.2458 42.3556 10.438 42.6595 10.7448 42.7806L13.4576 43.8535C13.7605 43.9741 14.1104 43.8876 14.3214 43.6323L15.595 42.096C16.2112 42.1466 16.8299 42.1365 17.4441 42.0666L18.7662 43.5635C18.9826 43.81 19.3346 43.8891 19.6364 43.7586L22.3162 42.6009C22.6179 42.4708 22.8006 42.1617 22.77 41.8344L22.5825 39.8475Z" fill="url(#paint0_linear_866_11475)"/>
<defs>
<linearGradient id="paint0_linear_866_11475" x1="30" y1="5" x2="30" y2="55" gradientUnits="userSpaceOnUse">
<stop stop-color="#81319B"/>
<stop offset="0.48" stop-color="#00A99D"/>
<stop offset="1" stop-color="#0B2C4C"/>
</linearGradient>
</defs>
</svg>
