<svg width="30" height="30" viewBox="0 0 30 30" fill="none" xmlns="http://www.w3.org/2000/svg">
<path d="M16.7587 15.998V14.3349C16.7587 14.0462 16.5064 13.813 16.1961 13.8125H6.72027C6.40944 13.8125 6.15771 14.0467 6.15771 14.3349V15.998C6.15771 16.2866 6.40999 16.5198 6.72027 16.5203H16.1961C16.507 16.5203 16.7581 16.2861 16.7587 15.998ZM16.102 15.9106H6.81439V14.4217H16.1025V15.9106H16.102Z" fill="url(#paint0_linear_1051_2896)"/>
<path d="M7.591 17.6406C6.94417 17.6406 6.41992 18.1274 6.41992 18.728C6.41992 19.3286 6.94417 19.8154 7.591 19.8154C8.23782 19.8154 8.76207 19.3286 8.76207 18.728C8.76152 18.1279 8.23728 17.6411 7.591 17.6406ZM7.591 19.2062C7.30698 19.2062 7.0766 18.9922 7.0766 18.7285C7.0766 18.4648 7.30698 18.2509 7.591 18.2509C7.87501 18.2509 8.10539 18.4648 8.10539 18.7285C8.10539 18.9922 7.87501 19.2057 7.591 19.2062Z" fill="url(#paint1_linear_1051_2896)"/>
<path d="M7.591 20.3799C6.94417 20.3799 6.41992 20.8667 6.41992 21.4673C6.41992 22.0679 6.94417 22.5547 7.591 22.5547C8.23782 22.5547 8.76207 22.0679 8.76207 21.4673C8.76152 20.8672 8.23728 20.3804 7.591 20.3799ZM7.591 21.9449C7.30698 21.9449 7.0766 21.731 7.0766 21.4673C7.0766 21.2036 7.30698 20.9896 7.591 20.9896C7.87501 20.9896 8.10539 21.2036 8.10539 21.4673C8.10539 21.731 7.87501 21.9449 7.591 21.9449Z" fill="url(#paint2_linear_1051_2896)"/>
<path d="M7.591 23.1191C6.94417 23.1191 6.41992 23.6059 6.41992 24.2065C6.41992 24.8071 6.94417 25.2939 7.591 25.2939C8.23782 25.2939 8.76207 24.8071 8.76207 24.2065C8.76152 23.6064 8.23728 23.1196 7.591 23.1191ZM7.591 24.6842C7.30698 24.6842 7.0766 24.4703 7.0766 24.2065C7.0766 23.9428 7.30698 23.7289 7.591 23.7289C7.87501 23.7289 8.10539 23.9428 8.10539 24.2065C8.10539 24.4703 7.87501 24.6842 7.591 24.6842Z" fill="url(#paint3_linear_1051_2896)"/>
<path d="M11.4579 17.6406C10.8111 17.6406 10.2869 18.1274 10.2869 18.728C10.2869 19.3286 10.8111 19.8154 11.4579 19.8154C12.1048 19.8154 12.629 19.3286 12.629 18.728C12.6285 18.1279 12.1042 17.6411 11.4579 17.6406ZM11.4579 19.2062C11.1739 19.2062 10.9435 18.9922 10.9435 18.7285C10.9435 18.4648 11.1739 18.2509 11.4579 18.2509C11.742 18.2509 11.9723 18.4648 11.9723 18.7285C11.9723 18.9922 11.742 19.2057 11.4579 19.2062Z" fill="url(#paint4_linear_1051_2896)"/>
<path d="M11.4579 20.3799C10.8111 20.3799 10.2869 20.8667 10.2869 21.4673C10.2869 22.0679 10.8111 22.5547 11.4579 22.5547C12.1048 22.5547 12.629 22.0679 12.629 21.4673C12.6285 20.8672 12.1042 20.3804 11.4579 20.3799ZM11.4579 21.9449C11.1739 21.9449 10.9435 21.731 10.9435 21.4673C10.9435 21.2036 11.1739 20.9896 11.4579 20.9896C11.742 20.9896 11.9723 21.2036 11.9723 21.4673C11.9723 21.731 11.742 21.9449 11.4579 21.9449Z" fill="url(#paint5_linear_1051_2896)"/>
<path d="M11.4579 23.1191C10.8111 23.1191 10.2869 23.6059 10.2869 24.2065C10.2869 24.8071 10.8111 25.2939 11.4579 25.2939C12.1048 25.2939 12.629 24.8071 12.629 24.2065C12.6285 23.6064 12.1042 23.1196 11.4579 23.1191ZM11.4579 24.6842C11.1739 24.6842 10.9435 24.4703 10.9435 24.2065C10.9435 23.9428 11.1739 23.7289 11.4579 23.7289C11.742 23.7289 11.9723 23.9428 11.9723 24.2065C11.9723 24.4703 11.742 24.6842 11.4579 24.6842Z" fill="url(#paint6_linear_1051_2896)"/>
<path d="M15.3254 17.6406C14.6785 17.6406 14.1543 18.1274 14.1543 18.728C14.1543 19.3286 14.6785 19.8154 15.3254 19.8154C15.9722 19.8154 16.4964 19.3286 16.4964 18.728C16.4959 18.1279 15.9717 17.6411 15.3254 17.6406ZM15.3254 19.2062C15.0414 19.2062 14.811 18.9922 14.811 18.7285C14.811 18.4648 15.0414 18.2509 15.3254 18.2509C15.6094 18.2509 15.8398 18.4648 15.8398 18.7285C15.8398 18.9922 15.6094 19.2057 15.3254 19.2062Z" fill="url(#paint7_linear_1051_2896)"/>
<path d="M15.3254 20.3799C14.6785 20.3799 14.1543 20.8667 14.1543 21.4673C14.1543 22.0679 14.6785 22.5547 15.3254 22.5547C15.9722 22.5547 16.4964 22.0679 16.4964 21.4673C16.4959 20.8672 15.9717 20.3804 15.3254 20.3799ZM15.3254 21.9449C15.0414 21.9449 14.811 21.731 14.811 21.4673C14.811 21.2036 15.0414 20.9896 15.3254 20.9896C15.6094 20.9896 15.8398 21.2036 15.8398 21.4673C15.8398 21.731 15.6094 21.9449 15.3254 21.9449Z" fill="url(#paint8_linear_1051_2896)"/>
<path d="M15.3254 23.1191C14.6785 23.1191 14.1543 23.6059 14.1543 24.2065C14.1543 24.8071 14.6785 25.2939 15.3254 25.2939C15.9722 25.2939 16.4964 24.8071 16.4964 24.2065C16.4959 23.6064 15.9717 23.1196 15.3254 23.1191ZM15.3254 24.6842C15.0414 24.6842 14.811 24.4703 14.811 24.2065C14.811 23.9428 15.0414 23.7289 15.3254 23.7289C15.6094 23.7289 15.8398 23.9428 15.8398 24.2065C15.8398 24.4703 15.6094 24.6842 15.3254 24.6842Z" fill="url(#paint9_linear_1051_2896)"/>
<path d="M13.3525 5.12977H13.8012C13.9824 5.12977 14.1296 4.99309 14.1296 4.8249C14.1296 4.65671 13.9824 4.52002 13.8012 4.52002H13.3525C13.1714 4.52002 13.0242 4.65671 13.0242 4.8249C13.0242 4.99309 13.1714 5.12977 13.3525 5.12977Z" fill="url(#paint10_linear_1051_2896)"/>
<path d="M8.63257 4.8249C8.63257 4.99309 8.77977 5.12977 8.96091 5.12977H11.9532C12.1343 5.12977 12.2815 4.99309 12.2815 4.8249C12.2815 4.65671 12.1343 4.52002 11.9532 4.52002H8.96091C8.77977 4.52002 8.63257 4.65671 8.63257 4.8249Z" fill="url(#paint11_linear_1051_2896)"/>
<path d="M13.3525 6.7621H13.8012C13.9824 6.7621 14.1296 6.62541 14.1296 6.45722C14.1296 6.28903 13.9824 6.15234 13.8012 6.15234H13.3525C13.1714 6.15234 13.0242 6.28903 13.0242 6.45722C13.0242 6.62541 13.1714 6.7621 13.3525 6.7621Z" fill="url(#paint12_linear_1051_2896)"/>
<path d="M11.9532 6.15234H8.96091C8.77977 6.15234 8.63257 6.28903 8.63257 6.45722C8.63257 6.62541 8.77977 6.7621 8.96091 6.7621H11.9532C12.1343 6.7621 12.2815 6.62541 12.2815 6.45722C12.2815 6.28903 12.1343 6.15234 11.9532 6.15234Z" fill="url(#paint13_linear_1051_2896)"/>
<path d="M13.3525 8.39393H13.8012C13.9824 8.39393 14.1296 8.25725 14.1296 8.08906C14.1296 7.92087 13.9824 7.78418 13.8012 7.78418H13.3525C13.1714 7.78418 13.0242 7.92087 13.0242 8.08906C13.0242 8.25725 13.1714 8.39393 13.3525 8.39393Z" fill="url(#paint14_linear_1051_2896)"/>
<path d="M11.9532 7.78418H8.96091C8.77977 7.78418 8.63257 7.92087 8.63257 8.08906C8.63257 8.25725 8.77977 8.39393 8.96091 8.39393H11.9532C12.1343 8.39393 12.2815 8.25725 12.2815 8.08906C12.2815 7.92087 12.1343 7.78418 11.9532 7.78418Z" fill="url(#paint15_linear_1051_2896)"/>
<path d="M13.3525 10.0267H13.8012C13.9824 10.0267 14.1296 9.89006 14.1296 9.72187C14.1296 9.55368 13.9824 9.41699 13.8012 9.41699H13.3525C13.1714 9.41699 13.0242 9.55368 13.0242 9.72187C13.0242 9.89006 13.1714 10.0267 13.3525 10.0267Z" fill="url(#paint16_linear_1051_2896)"/>
<path d="M11.9532 9.41699H8.96091C8.77977 9.41699 8.63257 9.55368 8.63257 9.72187C8.63257 9.89006 8.77977 10.0267 8.96091 10.0267H11.9532C12.1343 10.0267 12.2815 9.89006 12.2815 9.72187C12.2815 9.55368 12.1343 9.41699 11.9532 9.41699Z" fill="url(#paint17_linear_1051_2896)"/>
<path d="M13.3525 11.6591H13.8012C13.9824 11.6591 14.1296 11.5224 14.1296 11.3542C14.1296 11.186 13.9824 11.0493 13.8012 11.0493H13.3525C13.1714 11.0493 13.0242 11.186 13.0242 11.3542C13.0242 11.5224 13.1714 11.6591 13.3525 11.6591Z" fill="url(#paint18_linear_1051_2896)"/>
<path d="M11.9532 11.0493H8.96091C8.77977 11.0493 8.63257 11.186 8.63257 11.3542C8.63257 11.5224 8.77977 11.6591 8.96091 11.6591H11.9532C12.1343 11.6591 12.2815 11.5224 12.2815 11.3542C12.2815 11.186 12.1343 11.0493 11.9532 11.0493Z" fill="url(#paint19_linear_1051_2896)"/>
<path d="M21.201 22.1446C21.196 22.8032 21.7673 23.3403 22.4766 23.3443C23.1858 23.3489 23.7642 22.8184 23.7686 22.1599C23.7686 22.1548 23.7686 22.1492 23.7686 22.1441V19.8895C23.7636 19.231 23.1852 18.701 22.4766 18.7051C21.7739 18.7092 21.2059 19.2371 21.201 19.8895V22.1441V22.1446ZM21.8576 19.8901C21.8609 19.5684 22.1444 19.3103 22.4908 19.3133C22.8328 19.3164 23.1086 19.573 23.1119 19.8901V22.1446C23.1152 22.4663 22.8372 22.7295 22.4908 22.7325C22.1444 22.7356 21.8609 22.4774 21.8576 22.1558C21.8576 22.1522 21.8576 22.1487 21.8576 22.1446V19.8901Z" fill="url(#paint20_linear_1051_2896)"/>
<path d="M21.8554 15.0154C22.0366 15.0154 22.1838 14.8787 22.1838 14.7105V11.3005C22.1838 11.1323 22.0366 10.9956 21.8554 10.9956C21.6743 10.9956 21.5271 11.1323 21.5271 11.3005V14.7105C21.5271 14.8787 21.6743 15.0154 21.8554 15.0154Z" fill="url(#paint21_linear_1051_2896)"/>
<path d="M21.5271 16.1118C21.5271 16.28 21.6743 16.4167 21.8554 16.4167C22.0366 16.4167 22.1838 16.28 22.1838 16.1118V15.8293C22.1838 15.6611 22.0366 15.5244 21.8554 15.5244C21.6743 15.5244 21.5271 15.6611 21.5271 15.8293V16.1118Z" fill="url(#paint22_linear_1051_2896)"/>
<path d="M23.1521 12.0276C23.3332 12.0276 23.4804 11.8909 23.4804 11.7227V11.3005C23.4804 11.1323 23.3332 10.9956 23.1521 10.9956C22.9709 10.9956 22.8237 11.1323 22.8237 11.3005V11.7227C22.8237 11.8909 22.9709 12.0276 23.1521 12.0276Z" fill="url(#paint23_linear_1051_2896)"/>
<path d="M22.8237 13.7332C22.8237 13.9014 22.9709 14.0381 23.1521 14.0381C23.3332 14.0381 23.4804 13.9014 23.4804 13.7332V12.8684C23.4804 12.7002 23.3332 12.5635 23.1521 12.5635C22.9709 12.5635 22.8237 12.7002 22.8237 12.8684V13.7332Z" fill="url(#paint24_linear_1051_2896)"/>
<path d="M22.8237 16.1114C22.8237 16.2796 22.9709 16.4163 23.1521 16.4163C23.3332 16.4163 23.4804 16.2796 23.4804 16.1114V14.8513C23.4804 14.6831 23.3332 14.5464 23.1521 14.5464C22.9709 14.5464 22.8237 14.6831 22.8237 14.8513V16.1114Z" fill="url(#paint25_linear_1051_2896)"/>
<path d="M23.7718 9.61387H20.1065V9.15858C20.1065 8.75005 19.7497 8.41824 19.3092 8.41824H18.4161V8.16265C18.4161 7.42739 17.7742 6.83186 16.9829 6.83186H15.432L15.4342 6.05239C15.6553 6.10168 15.8884 6.04934 16.0614 5.91215C16.0822 5.89538 16.1133 5.89538 16.1341 5.91215L16.1363 5.91418C16.4017 6.12302 16.7908 6.12251 17.0557 5.91367C17.077 5.89691 17.1082 5.8964 17.1301 5.91266L17.3698 6.10168C17.4491 6.16621 17.5558 6.19365 17.6593 6.17485C17.8109 6.14538 17.9192 6.0214 17.9198 5.8781L17.9302 3.99091C17.9329 3.18401 17.2319 2.52801 16.3629 2.52344H16.3569L8.76348 2.50006H8.75691C8.47071 2.49752 8.18889 2.56968 7.94482 2.7084C7.47694 2.97212 7.19074 3.44315 7.18909 3.95128V6.83186H5.93375C5.1419 6.83186 4.5 7.4279 4.5 8.16316V8.98988C4.5 9.15808 4.64721 9.29476 4.82834 9.29476C5.00947 9.29476 5.15668 9.15808 5.15668 8.98988V8.16316C5.15668 7.76479 5.50417 7.44212 5.9332 7.44212H7.188V12.3435H6.49958C6.31845 12.341 6.16796 12.4716 6.15756 12.6393C6.15209 12.8075 6.29437 12.9482 6.4755 12.9533C6.47879 12.9533 6.48207 12.9533 6.4859 12.9533H16.4165C16.5976 12.9558 16.7481 12.8252 16.7585 12.6576C16.764 12.4894 16.6217 12.3486 16.4406 12.3435C16.4373 12.3435 16.434 12.3435 16.4302 12.3435H15.4173L15.4304 7.44212H16.9829C17.4119 7.44212 17.7594 7.76479 17.7594 8.16316V26.1692C17.7594 26.5676 17.4119 26.8902 16.9829 26.8902H5.9332C5.50417 26.8902 5.15668 26.5676 5.15668 26.1692V11.5305C5.15668 11.3623 5.00947 11.2257 4.82834 11.2257C4.64721 11.2257 4.5 11.3623 4.5 11.5305V26.1692C4.5 26.904 5.1419 27.5 5.9332 27.5H16.9829C17.7747 27.5 18.4161 26.904 18.4161 26.1692V25.9136H19.3092C19.7491 25.9136 20.1065 25.5823 20.1065 25.1733V24.718H23.7718C24.7262 24.718 25.5 23.9995 25.5 23.1133V21.6499C25.5 21.4817 25.3528 21.345 25.1717 21.345C24.9905 21.345 24.8433 21.4817 24.8433 21.6499V23.1133C24.8433 23.6626 24.3634 24.1082 23.7718 24.1082H20.1065V10.2236H23.7718C24.3634 10.2236 24.8433 10.6687 24.8433 11.2185V19.1093C24.8433 19.2775 24.9905 19.4141 25.1717 19.4141C25.3528 19.4141 25.5 19.2775 25.5 19.1093V11.2185C25.5 10.3324 24.7262 9.61387 23.7718 9.61387ZM15.4397 3.98075C15.4424 3.51226 15.8518 3.13319 16.3569 3.13269H16.3607C16.8669 3.13523 17.2751 3.51785 17.274 3.98787L17.2669 5.30951C17.0436 5.25768 16.8072 5.30951 16.6327 5.44772C16.6119 5.46449 16.5807 5.46449 16.5599 5.44772L16.5577 5.4462C16.2917 5.23685 15.9016 5.23786 15.6367 5.44823C15.6154 5.465 15.5847 5.465 15.5634 5.44823L15.4364 5.34813L15.4402 3.98126L15.4397 3.98075ZM14.783 3.97872L14.7606 12.343H7.84413L7.84522 3.9528C7.84741 3.48533 8.25729 3.10829 8.76074 3.10982L15.0807 3.12913C14.8875 3.37608 14.7836 3.67384 14.783 3.97923V3.97872ZM19.4493 25.1733C19.4493 25.2454 19.3863 25.3034 19.3086 25.3039H18.4155V9.0285H19.3086C19.3863 9.0285 19.4487 9.08694 19.4493 9.15909V25.1738V25.1733Z" fill="url(#paint26_linear_1051_2896)"/>
<defs>
<linearGradient id="paint0_linear_1051_2896" x1="11.4582" y1="27.8968" x2="11.4582" y2="3.21903" gradientUnits="userSpaceOnUse">
<stop stop-color="#0B2C4C"/>
<stop offset="0.54" stop-color="#00A89C"/>
<stop offset="1" stop-color="#80319A"/>
</linearGradient>
<linearGradient id="paint1_linear_1051_2896" x1="7.591" y1="27.8972" x2="7.591" y2="3.21942" gradientUnits="userSpaceOnUse">
<stop stop-color="#0B2C4C"/>
<stop offset="0.54" stop-color="#00A89C"/>
<stop offset="1" stop-color="#80319A"/>
</linearGradient>
<linearGradient id="paint2_linear_1051_2896" x1="7.591" y1="27.8971" x2="7.591" y2="3.21935" gradientUnits="userSpaceOnUse">
<stop stop-color="#0B2C4C"/>
<stop offset="0.54" stop-color="#00A89C"/>
<stop offset="1" stop-color="#80319A"/>
</linearGradient>
<linearGradient id="paint3_linear_1051_2896" x1="7.591" y1="27.8971" x2="7.591" y2="3.2193" gradientUnits="userSpaceOnUse">
<stop stop-color="#0B2C4C"/>
<stop offset="0.54" stop-color="#00A89C"/>
<stop offset="1" stop-color="#80319A"/>
</linearGradient>
<linearGradient id="paint4_linear_1051_2896" x1="11.4579" y1="2.50041" x2="11.4579" y2="3.21942" gradientUnits="userSpaceOnUse">
<stop stop-color="#0B2C4C"/>
<stop offset="0.54" stop-color="#00A89C"/>
<stop offset="1" stop-color="#80319A"/>
</linearGradient>
<linearGradient id="paint5_linear_1051_2896" x1="11.4579" y1="2.50035" x2="11.4579" y2="3.21935" gradientUnits="userSpaceOnUse">
<stop stop-color="#0B2C4C"/>
<stop offset="0.54" stop-color="#00A89C"/>
<stop offset="1" stop-color="#80319A"/>
</linearGradient>
<linearGradient id="paint6_linear_1051_2896" x1="11.4579" y1="2.5003" x2="11.4579" y2="3.2193" gradientUnits="userSpaceOnUse">
<stop stop-color="#0B2C4C"/>
<stop offset="0.54" stop-color="#00A89C"/>
<stop offset="1" stop-color="#80319A"/>
</linearGradient>
<linearGradient id="paint7_linear_1051_2896" x1="15.3254" y1="27.8972" x2="15.3254" y2="3.21942" gradientUnits="userSpaceOnUse">
<stop stop-color="#0B2C4C"/>
<stop offset="0.54" stop-color="#00A89C"/>
<stop offset="1" stop-color="#80319A"/>
</linearGradient>
<linearGradient id="paint8_linear_1051_2896" x1="15.3254" y1="27.8971" x2="15.3254" y2="3.21935" gradientUnits="userSpaceOnUse">
<stop stop-color="#0B2C4C"/>
<stop offset="0.54" stop-color="#00A89C"/>
<stop offset="1" stop-color="#80319A"/>
</linearGradient>
<linearGradient id="paint9_linear_1051_2896" x1="15.3254" y1="27.8971" x2="15.3254" y2="3.2193" gradientUnits="userSpaceOnUse">
<stop stop-color="#0B2C4C"/>
<stop offset="0.54" stop-color="#00A89C"/>
<stop offset="1" stop-color="#80319A"/>
</linearGradient>
<linearGradient id="paint10_linear_1051_2896" x1="13.5769" y1="27.897" x2="13.5769" y2="3.21921" gradientUnits="userSpaceOnUse">
<stop stop-color="#0B2C4C"/>
<stop offset="0.54" stop-color="#00A89C"/>
<stop offset="1" stop-color="#80319A"/>
</linearGradient>
<linearGradient id="paint11_linear_1051_2896" x1="10.457" y1="27.897" x2="10.457" y2="3.21921" gradientUnits="userSpaceOnUse">
<stop stop-color="#0B2C4C"/>
<stop offset="0.54" stop-color="#00A89C"/>
<stop offset="1" stop-color="#80319A"/>
</linearGradient>
<linearGradient id="paint12_linear_1051_2896" x1="13.5769" y1="27.8972" x2="13.5769" y2="3.21942" gradientUnits="userSpaceOnUse">
<stop stop-color="#0B2C4C"/>
<stop offset="0.54" stop-color="#00A89C"/>
<stop offset="1" stop-color="#80319A"/>
</linearGradient>
<linearGradient id="paint13_linear_1051_2896" x1="10.457" y1="27.8972" x2="10.457" y2="3.21942" gradientUnits="userSpaceOnUse">
<stop stop-color="#0B2C4C"/>
<stop offset="0.54" stop-color="#00A89C"/>
<stop offset="1" stop-color="#80319A"/>
</linearGradient>
<linearGradient id="paint14_linear_1051_2896" x1="13.5769" y1="27.8969" x2="13.5769" y2="3.21915" gradientUnits="userSpaceOnUse">
<stop stop-color="#0B2C4C"/>
<stop offset="0.54" stop-color="#00A89C"/>
<stop offset="1" stop-color="#80319A"/>
</linearGradient>
<linearGradient id="paint15_linear_1051_2896" x1="10.457" y1="27.8969" x2="10.457" y2="3.21915" gradientUnits="userSpaceOnUse">
<stop stop-color="#0B2C4C"/>
<stop offset="0.54" stop-color="#00A89C"/>
<stop offset="1" stop-color="#80319A"/>
</linearGradient>
<linearGradient id="paint16_linear_1051_2896" x1="13.5769" y1="27.8971" x2="13.5769" y2="3.21935" gradientUnits="userSpaceOnUse">
<stop stop-color="#0B2C4C"/>
<stop offset="0.54" stop-color="#00A89C"/>
<stop offset="1" stop-color="#80319A"/>
</linearGradient>
<linearGradient id="paint17_linear_1051_2896" x1="10.457" y1="27.8971" x2="10.457" y2="3.21935" gradientUnits="userSpaceOnUse">
<stop stop-color="#0B2C4C"/>
<stop offset="0.54" stop-color="#00A89C"/>
<stop offset="1" stop-color="#80319A"/>
</linearGradient>
<linearGradient id="paint18_linear_1051_2896" x1="13.5769" y1="27.8973" x2="13.5769" y2="3.21956" gradientUnits="userSpaceOnUse">
<stop stop-color="#0B2C4C"/>
<stop offset="0.54" stop-color="#00A89C"/>
<stop offset="1" stop-color="#80319A"/>
</linearGradient>
<linearGradient id="paint19_linear_1051_2896" x1="10.457" y1="27.8973" x2="10.457" y2="3.21956" gradientUnits="userSpaceOnUse">
<stop stop-color="#0B2C4C"/>
<stop offset="0.54" stop-color="#00A89C"/>
<stop offset="1" stop-color="#80319A"/>
</linearGradient>
<linearGradient id="paint20_linear_1051_2896" x1="22.4848" y1="27.8971" x2="22.4848" y2="3.21937" gradientUnits="userSpaceOnUse">
<stop stop-color="#0B2C4C"/>
<stop offset="0.54" stop-color="#00A89C"/>
<stop offset="1" stop-color="#80319A"/>
</linearGradient>
<linearGradient id="paint21_linear_1051_2896" x1="21.8554" y1="27.897" x2="21.8554" y2="3.2192" gradientUnits="userSpaceOnUse">
<stop stop-color="#0B2C4C"/>
<stop offset="0.54" stop-color="#00A89C"/>
<stop offset="1" stop-color="#80319A"/>
</linearGradient>
<linearGradient id="paint22_linear_1051_2896" x1="21.8554" y1="27.8973" x2="21.8554" y2="3.21957" gradientUnits="userSpaceOnUse">
<stop stop-color="#0B2C4C"/>
<stop offset="0.54" stop-color="#00A89C"/>
<stop offset="1" stop-color="#80319A"/>
</linearGradient>
<linearGradient id="paint23_linear_1051_2896" x1="23.1521" y1="27.897" x2="23.1521" y2="3.2192" gradientUnits="userSpaceOnUse">
<stop stop-color="#0B2C4C"/>
<stop offset="0.54" stop-color="#00A89C"/>
<stop offset="1" stop-color="#80319A"/>
</linearGradient>
<linearGradient id="paint24_linear_1051_2896" x1="23.1521" y1="27.8973" x2="23.1521" y2="3.21949" gradientUnits="userSpaceOnUse">
<stop stop-color="#0B2C4C"/>
<stop offset="0.54" stop-color="#00A89C"/>
<stop offset="1" stop-color="#80319A"/>
</linearGradient>
<linearGradient id="paint25_linear_1051_2896" x1="23.1521" y1="27.897" x2="23.1521" y2="3.21918" gradientUnits="userSpaceOnUse">
<stop stop-color="#0B2C4C"/>
<stop offset="0.54" stop-color="#00A89C"/>
<stop offset="1" stop-color="#80319A"/>
</linearGradient>
<linearGradient id="paint26_linear_1051_2896" x1="14.9997" y1="27.8968" x2="14.9997" y2="3.21907" gradientUnits="userSpaceOnUse">
<stop stop-color="#0B2C4C"/>
<stop offset="0.54" stop-color="#00A89C"/>
<stop offset="1" stop-color="#80319A"/>
</linearGradient>
</defs>
</svg>
