<svg width="30" height="30" viewBox="0 0 30 30" fill="none" xmlns="http://www.w3.org/2000/svg">
<path d="M20.7494 11.4583C20.7494 11.4998 20.7406 11.541 20.7234 11.5793C20.7063 11.6177 20.6811 11.6525 20.6494 11.6819C20.6176 11.7112 20.5799 11.7345 20.5384 11.7504C20.497 11.7662 20.4525 11.7744 20.4076 11.7744H19.325C19.2344 11.7744 19.1474 11.7411 19.0833 11.6818C19.0192 11.6225 18.9832 11.5422 18.9832 11.4583C18.9832 11.3745 19.0192 11.2941 19.0833 11.2349C19.1474 11.1756 19.2344 11.1423 19.325 11.1423H20.4076C20.4525 11.1423 20.497 11.1505 20.5384 11.1663C20.5799 11.1822 20.6176 11.2055 20.6494 11.2348C20.6811 11.2642 20.7063 11.299 20.7234 11.3374C20.7406 11.3757 20.7494 11.4168 20.7494 11.4583ZM27.5 9.08764V23.7815C27.4996 24.1047 27.3606 24.4145 27.1134 24.643C26.8663 24.8716 26.5312 25.0001 26.1816 25.0005H3.81836C3.46884 25.0001 3.13375 24.8716 2.8866 24.643C2.63944 24.4145 2.50041 24.1047 2.5 23.7815L2.5 9.08764C2.50047 8.71659 2.66009 8.36087 2.94386 8.0985C3.22763 7.83613 3.61236 7.68854 4.01367 7.68811H5.1123V6.03884C5.11267 5.76356 5.2311 5.49964 5.44164 5.30499C5.65217 5.11033 5.93761 5.00082 6.23535 5.00049H7.02324C7.32098 5.00082 7.60642 5.11033 7.81696 5.30499C8.02749 5.49964 8.14593 5.76356 8.14629 6.03884V7.68811H10.6928V6.03884C10.6931 5.76356 10.8116 5.49964 11.0221 5.30499C11.2326 5.11033 11.5181 5.00082 11.8158 5.00049H12.6037C12.9015 5.00082 13.1869 5.11033 13.3974 5.30499C13.608 5.49964 13.7264 5.76356 13.7268 6.03884V7.68811H16.2732V6.03884C16.2736 5.76356 16.392 5.49964 16.6026 5.30499C16.8131 5.11033 17.0985 5.00082 17.3963 5.00049H18.1836C18.4813 5.00078 18.7668 5.11027 18.9774 5.30493C19.1879 5.4996 19.3063 5.76354 19.3066 6.03884V7.68811H21.8537V6.03884C21.854 5.76354 21.9724 5.4996 22.183 5.30493C22.3935 5.11027 22.679 5.00078 22.9768 5.00049H23.7646C24.0624 5.00078 24.3479 5.11027 24.5584 5.30493C24.769 5.4996 24.8874 5.76354 24.8877 6.03884V7.68811H25.9863C26.3876 7.68854 26.7724 7.83613 27.0561 8.0985C27.3399 8.36087 27.4995 8.71659 27.5 9.08764ZM22.5373 7.68811H24.2041V6.03884C24.2039 5.93113 24.1576 5.82786 24.0752 5.7517C23.9928 5.67553 23.8812 5.63267 23.7646 5.63253H22.9768C22.8603 5.63267 22.7486 5.67553 22.6662 5.7517C22.5838 5.82786 22.5375 5.93113 22.5373 6.03884V7.68811ZM16.9568 7.68811H18.6236V6.03884C18.6235 5.93113 18.5771 5.82786 18.4947 5.7517C18.4124 5.67553 18.3007 5.63267 18.1842 5.63253H17.3963C17.2798 5.63267 17.1681 5.67553 17.0857 5.7517C17.0033 5.82786 16.957 5.93113 16.9568 6.03884V7.68811ZM11.3764 7.68811H13.0432V6.03884C13.043 5.93113 12.9967 5.82786 12.9143 5.7517C12.8319 5.67553 12.7202 5.63267 12.6037 5.63253H11.8164C11.6999 5.63267 11.5882 5.67553 11.5058 5.7517C11.4235 5.82786 11.3771 5.93113 11.377 6.03884L11.3764 7.68811ZM5.7959 7.68811H7.4627V6.03884C7.46254 5.93113 7.41619 5.82786 7.33381 5.7517C7.25143 5.67553 7.13974 5.63267 7.02324 5.63253H6.23535C6.11885 5.63267 6.00716 5.67553 5.92478 5.7517C5.8424 5.82786 5.79605 5.93113 5.7959 6.03884V7.68811ZM26.8164 11.7744H23.1176C23.0269 11.7744 22.94 11.7411 22.8759 11.6818C22.8118 11.6225 22.7758 11.5422 22.7758 11.4583C22.7758 11.3745 22.8118 11.2941 22.8759 11.2349C22.94 11.1756 23.0269 11.1423 23.1176 11.1423H26.8164V9.08764C26.8162 8.88415 26.7287 8.68905 26.5731 8.54516C26.4174 8.40127 26.2064 8.32035 25.9863 8.32016H4.01367C3.7936 8.3204 3.58262 8.40133 3.427 8.54521C3.27139 8.68909 3.18385 8.88416 3.18359 9.08764V11.1423H16.615C16.7057 11.1423 16.7926 11.1756 16.8567 11.2349C16.9208 11.2941 16.9568 11.3745 16.9568 11.4583C16.9568 11.5422 16.9208 11.6225 16.8567 11.6818C16.7926 11.7411 16.7057 11.7744 16.615 11.7744H3.18359V23.7815C3.1838 23.9371 3.25074 24.0863 3.36974 24.1963C3.48874 24.3064 3.65007 24.3683 3.81836 24.3684H26.1816C26.3499 24.3683 26.5113 24.3064 26.6303 24.1963C26.7493 24.0863 26.8162 23.9371 26.8164 23.7815V11.7744ZM8.01484 13.6253V15.057C8.01459 15.2365 7.93734 15.4086 7.80004 15.5356C7.66274 15.6625 7.47659 15.734 7.28242 15.7342H5.18555C4.99138 15.734 4.80523 15.6625 4.66793 15.5356C4.53063 15.4086 4.45338 15.2365 4.45312 15.057V13.6253C4.45333 13.4458 4.53056 13.2737 4.66787 13.1467C4.80519 13.0198 4.99136 12.9483 5.18555 12.9482H7.28242C7.47661 12.9483 7.66278 13.0198 7.80009 13.1467C7.9374 13.2737 8.01464 13.4458 8.01484 13.6253ZM7.33125 13.6253C7.33125 13.6134 7.32611 13.6019 7.31695 13.5934C7.30779 13.585 7.29537 13.5802 7.28242 13.5802H5.18555C5.1726 13.5802 5.16018 13.585 5.15102 13.5934C5.14186 13.6019 5.13672 13.6134 5.13672 13.6253V15.057C5.13677 15.069 5.14193 15.0804 5.15108 15.0889C5.16022 15.0973 5.17261 15.1021 5.18555 15.1022H7.28242C7.29536 15.1021 7.30775 15.0973 7.31689 15.0889C7.32604 15.0804 7.3312 15.069 7.33125 15.057V13.6253ZM13.8588 13.6253V15.057C13.8585 15.2365 13.7813 15.4086 13.644 15.5356C13.5067 15.6625 13.3205 15.734 13.1264 15.7342H11.0295C10.8353 15.734 10.6492 15.6625 10.5119 15.5356C10.3746 15.4086 10.2973 15.2365 10.2971 15.057V13.6253C10.2973 13.4458 10.3745 13.2737 10.5118 13.1467C10.6491 13.0198 10.8353 12.9483 11.0295 12.9482H13.1264C13.3206 12.9483 13.5067 13.0198 13.644 13.1467C13.7814 13.2737 13.8586 13.4458 13.8588 13.6253ZM13.1752 13.6253C13.1752 13.6134 13.1701 13.6019 13.1609 13.5934C13.1517 13.585 13.1393 13.5802 13.1264 13.5802H11.0295C11.0166 13.5802 11.0042 13.585 10.995 13.5935C10.9859 13.6019 10.9807 13.6134 10.9807 13.6253V15.057C10.9807 15.069 10.9859 15.0804 10.995 15.0889C11.0042 15.0973 11.0166 15.1021 11.0295 15.1022H13.1264C13.1393 15.1021 13.1517 15.0973 13.1608 15.0889C13.17 15.0804 13.1751 15.069 13.1752 15.057V13.6253ZM19.7029 13.6253V15.057C19.7027 15.2365 19.6254 15.4086 19.4881 15.5356C19.3508 15.6625 19.1647 15.734 18.9705 15.7342H16.8736C16.6795 15.734 16.4933 15.6625 16.356 15.5356C16.2187 15.4086 16.1415 15.2365 16.1412 15.057V13.6253C16.1414 13.4458 16.2186 13.2737 16.356 13.1467C16.4933 13.0198 16.6794 12.9483 16.8736 12.9482H18.9705C19.1647 12.9484 19.3508 13.0198 19.4881 13.1468C19.6254 13.2737 19.7027 13.4458 19.7029 13.6253ZM19.0193 13.6253C19.0193 13.6134 19.0142 13.6019 19.005 13.5934C18.9959 13.585 18.9835 13.5802 18.9705 13.5802H16.8736C16.8607 13.5802 16.8483 13.585 16.8391 13.5934C16.8299 13.6019 16.8248 13.6134 16.8248 13.6253V15.057C16.8249 15.069 16.83 15.0804 16.8392 15.0889C16.8483 15.0973 16.8607 15.1021 16.8736 15.1022H18.9705C18.9834 15.1021 18.9958 15.0973 19.005 15.0889C19.0141 15.0804 19.0193 15.069 19.0193 15.057V13.6253ZM22.7176 12.9482H24.8145C25.0086 12.9484 25.1948 13.0198 25.3321 13.1468C25.4694 13.2737 25.5466 13.4458 25.5469 13.6253V15.057C25.5466 15.2365 25.4694 15.4086 25.3321 15.5356C25.1948 15.6625 25.0086 15.734 24.8145 15.7342H22.7176C22.5234 15.734 22.3373 15.6625 22.2 15.5356C22.0627 15.4086 21.9854 15.2365 21.9852 15.057V13.6253C21.9854 13.4458 22.0626 13.2737 22.1999 13.1467C22.3372 13.0198 22.5234 12.9483 22.7176 12.9482ZM24.8145 13.5802H22.7176C22.7046 13.5802 22.6922 13.585 22.6831 13.5934C22.6739 13.6019 22.6688 13.6134 22.6688 13.6253V15.057C22.6688 15.069 22.674 15.0804 22.6831 15.0889C22.6923 15.0973 22.7046 15.1021 22.7176 15.1022H24.8145C24.8274 15.1021 24.8398 15.0973 24.8489 15.0889C24.8581 15.0804 24.8632 15.069 24.8633 15.057V13.6253C24.8633 13.6134 24.8581 13.6019 24.849 13.5934C24.8398 13.585 24.8274 13.5802 24.8145 13.5802ZM8.01484 17.3555V18.7871C8.01459 18.9667 7.93734 19.1388 7.80004 19.2657C7.66274 19.3927 7.47659 19.4641 7.28242 19.4643H5.18555C4.99138 19.4641 4.80523 19.3927 4.66793 19.2657C4.53063 19.1388 4.45338 18.9667 4.45312 18.7871V17.3555C4.45338 17.176 4.53063 17.0038 4.66793 16.8769C4.80523 16.75 4.99138 16.6785 5.18555 16.6783H7.28242C7.47659 16.6785 7.66274 16.75 7.80004 16.8769C7.93734 17.0038 8.01459 17.176 8.01484 17.3555ZM7.33125 17.3555C7.33125 17.3435 7.32611 17.332 7.31695 17.3236C7.30779 17.3151 7.29537 17.3103 7.28242 17.3103H5.18555C5.1726 17.3103 5.16018 17.3151 5.15102 17.3236C5.14186 17.332 5.13672 17.3435 5.13672 17.3555V18.7871C5.13677 18.7991 5.14193 18.8106 5.15108 18.819C5.16022 18.8275 5.17261 18.8322 5.18555 18.8323H7.28242C7.29536 18.8322 7.30775 18.8275 7.31689 18.819C7.32604 18.8106 7.3312 18.7991 7.33125 18.7871V17.3555ZM13.8588 17.3555V18.7871C13.8585 18.9667 13.7813 19.1388 13.644 19.2657C13.5067 19.3927 13.3205 19.4641 13.1264 19.4643H11.0295C10.8353 19.4641 10.6492 19.3927 10.5119 19.2657C10.3746 19.1388 10.2973 18.9667 10.2971 18.7871V17.3555C10.2973 17.176 10.3746 17.0038 10.5119 16.8769C10.6492 16.75 10.8353 16.6785 11.0295 16.6783H13.1264C13.3205 16.6785 13.5067 16.75 13.644 16.8769C13.7813 17.0038 13.8585 17.176 13.8588 17.3555ZM13.1752 17.3555C13.1752 17.3435 13.1701 17.332 13.1609 17.3236C13.1517 17.3151 13.1393 17.3103 13.1264 17.3103H11.0295C11.0166 17.3104 11.0042 17.3152 10.995 17.3236C10.9859 17.3321 10.9807 17.3435 10.9807 17.3555V18.7871C10.9807 18.7991 10.9859 18.8106 10.995 18.819C11.0042 18.8275 11.0166 18.8322 11.0295 18.8323H13.1264C13.1393 18.8322 13.1517 18.8275 13.1608 18.819C13.17 18.8106 13.1751 18.7991 13.1752 18.7871V17.3555ZM19.7029 17.3555V18.7871C19.7027 18.9667 19.6254 19.1388 19.4881 19.2657C19.3508 19.3927 19.1647 19.4641 18.9705 19.4643H16.8736C16.6795 19.4641 16.4933 19.3927 16.356 19.2657C16.2187 19.1388 16.1415 18.9667 16.1412 18.7871V17.3555C16.1415 17.176 16.2187 17.0038 16.356 16.8769C16.4933 16.75 16.6795 16.6785 16.8736 16.6783H18.9705C19.1647 16.6785 19.3508 16.75 19.4881 16.8769C19.6254 17.0038 19.7027 17.176 19.7029 17.3555ZM19.0193 17.3555C19.0193 17.3435 19.0142 17.332 19.005 17.3236C18.9959 17.3151 18.9835 17.3103 18.9705 17.3103H16.8736C16.8607 17.3103 16.8483 17.3151 16.8391 17.3236C16.8299 17.332 16.8248 17.3435 16.8248 17.3555V18.7871C16.8249 18.7991 16.83 18.8106 16.8392 18.819C16.8483 18.8275 16.8607 18.8322 16.8736 18.8323H18.9705C18.9834 18.8322 18.9958 18.8275 19.005 18.819C19.0141 18.8106 19.0193 18.7991 19.0193 18.7871V17.3555ZM25.5469 17.3555V18.7871C25.5466 18.9667 25.4694 19.1388 25.3321 19.2657C25.1948 19.3927 25.0086 19.4641 24.8145 19.4643H22.7176C22.5234 19.4641 22.3373 19.3927 22.2 19.2657C22.0627 19.1388 21.9854 18.9667 21.9852 18.7871V17.3555C21.9854 17.176 22.0627 17.0038 22.2 16.8769C22.3373 16.75 22.5234 16.6785 22.7176 16.6783H24.8145C25.0086 16.6785 25.1948 16.75 25.3321 16.8769C25.4694 17.0038 25.5466 17.176 25.5469 17.3555ZM24.8633 17.3555C24.8633 17.3435 24.8581 17.332 24.849 17.3236C24.8398 17.3151 24.8274 17.3103 24.8145 17.3103H22.7176C22.7046 17.3103 22.6922 17.3151 22.6831 17.3236C22.6739 17.332 22.6688 17.3435 22.6688 17.3555V18.7871C22.6688 18.7991 22.674 18.8106 22.6831 18.819C22.6923 18.8275 22.7046 18.8322 22.7176 18.8323H24.8145C24.8274 18.8322 24.8398 18.8275 24.8489 18.819C24.8581 18.8106 24.8632 18.7991 24.8633 18.7871V17.3555ZM7.28242 20.4086H5.18555C4.99131 20.4088 4.8051 20.4803 4.66779 20.6073C4.53048 20.7344 4.45328 20.9066 4.45312 21.0862V21.856C4.45312 21.9398 4.48914 22.0202 4.55323 22.0794C4.61733 22.1387 4.70427 22.172 4.79492 22.172C4.88557 22.172 4.97251 22.1387 5.03661 22.0794C5.10071 22.0202 5.13672 21.9398 5.13672 21.856V21.0862C5.13672 21.0742 5.14186 21.0627 5.15102 21.0542C5.16018 21.0458 5.1726 21.041 5.18555 21.041H7.28242C7.29537 21.041 7.30779 21.0458 7.31695 21.0542C7.32611 21.0627 7.33125 21.0742 7.33125 21.0862V22.5178C7.33125 22.5298 7.32611 22.5413 7.31695 22.5497C7.30779 22.5582 7.29537 22.563 7.28242 22.563H6.23398C6.14333 22.563 6.0564 22.5963 5.9923 22.6555C5.9282 22.7148 5.89219 22.7952 5.89219 22.879C5.89219 22.9628 5.9282 23.0432 5.9923 23.1025C6.0564 23.1617 6.14333 23.195 6.23398 23.195H7.28242C7.47659 23.1948 7.66274 23.1234 7.80004 22.9964C7.93734 22.8695 8.01459 22.6974 8.01484 22.5178V21.0862C8.01469 20.9066 7.93749 20.7344 7.80017 20.6073C7.66286 20.4803 7.47666 20.4088 7.28242 20.4086ZM13.8588 21.0862V22.5178C13.8585 22.6974 13.7813 22.8695 13.644 22.9964C13.5067 23.1234 13.3205 23.1948 13.1264 23.195H11.0295C10.8353 23.1948 10.6492 23.1234 10.5119 22.9964C10.3746 22.8695 10.2973 22.6974 10.2971 22.5178V21.0862C10.2973 20.9066 10.3746 20.7345 10.5119 20.6076C10.6492 20.4806 10.8353 20.4092 11.0295 20.409H13.1264C13.3205 20.4092 13.5067 20.4806 13.644 20.6076C13.7813 20.7345 13.8585 20.9066 13.8588 21.0862ZM13.1752 21.0862C13.1752 21.0742 13.1701 21.0627 13.1609 21.0542C13.1517 21.0458 13.1393 21.041 13.1264 21.041H11.0295C11.0166 21.0411 11.0042 21.0458 10.995 21.0543C10.9859 21.0627 10.9807 21.0742 10.9807 21.0862V22.5178C10.9807 22.5298 10.9859 22.5412 10.995 22.5497C11.0042 22.5582 11.0166 22.5629 11.0295 22.563H13.1264C13.1393 22.563 13.1517 22.5582 13.1609 22.5497C13.1701 22.5413 13.1752 22.5298 13.1752 22.5178V21.0862ZM19.4563 20.5818C19.3842 20.5309 19.2933 20.5086 19.2034 20.5197C19.1136 20.5308 19.0322 20.5744 18.9771 20.641L17.5514 22.3645L16.7506 21.4296C16.7227 21.3971 16.6882 21.37 16.649 21.3498C16.6098 21.3296 16.5667 21.3168 16.5221 21.312C16.4775 21.3073 16.4324 21.3106 16.3892 21.322C16.3461 21.3334 16.3058 21.3525 16.2706 21.3783C16.2354 21.404 16.2061 21.4359 16.1843 21.4722C16.1625 21.5084 16.1486 21.5483 16.1434 21.5895C16.1383 21.6307 16.1419 21.6725 16.1542 21.7124C16.1665 21.7523 16.1872 21.7895 16.215 21.822L17.2893 23.0753C17.3212 23.1126 17.3619 23.1428 17.4083 23.1635C17.4547 23.1842 17.5055 23.195 17.557 23.195H17.56C17.612 23.1946 17.6632 23.1831 17.7097 23.1616C17.7563 23.1402 17.7969 23.1091 17.8285 23.071L19.5199 21.0248C19.5473 20.9918 19.5673 20.9542 19.5789 20.914C19.5906 20.8739 19.5935 20.8321 19.5876 20.7909C19.5817 20.7497 19.567 20.71 19.5445 20.6741C19.5219 20.6381 19.492 20.6066 19.4563 20.5814V20.5818ZM25.3002 20.5818C25.2282 20.5309 25.1372 20.5086 25.0474 20.5197C24.9575 20.5308 24.8761 20.5744 24.8211 20.641L23.3965 22.3645L22.5957 21.4296C22.5678 21.3971 22.5333 21.37 22.4941 21.3498C22.4549 21.3296 22.4118 21.3168 22.3672 21.312C22.3227 21.3073 22.2775 21.3106 22.2343 21.322C22.1912 21.3334 22.1509 21.3525 22.1157 21.3783C22.0806 21.404 22.0512 21.4359 22.0294 21.4722C22.0076 21.5084 21.9937 21.5483 21.9885 21.5895C21.9834 21.6307 21.987 21.6725 21.9993 21.7124C22.0116 21.7523 22.0323 21.7895 22.0602 21.822L23.1344 23.0753C23.1664 23.1126 23.2071 23.1428 23.2535 23.1635C23.2999 23.1842 23.3508 23.195 23.4023 23.195H23.4053C23.4573 23.1946 23.5085 23.1831 23.555 23.1616C23.6016 23.1402 23.6422 23.1091 23.6738 23.071L25.365 21.0248C25.3923 20.9917 25.4123 20.954 25.4238 20.9139C25.4353 20.8737 25.4381 20.8318 25.4321 20.7907C25.426 20.7495 25.4113 20.7098 25.3887 20.6739C25.366 20.638 25.336 20.6066 25.3002 20.5814V20.5818Z" fill="url(#paint0_linear_1051_2911)"/>
<defs>
<linearGradient id="paint0_linear_1051_2911" x1="15.5859" y1="25.6098" x2="15.085" y2="4.97603" gradientUnits="userSpaceOnUse">
<stop stop-color="#0B2C4C"/>
<stop offset="0.5" stop-color="#00A99D"/>
<stop offset="1" stop-color="#81319B"/>
</linearGradient>
</defs>
</svg>
