<svg width="28" height="28" viewBox="0 0 28 28" fill="none" xmlns="http://www.w3.org/2000/svg">
<path d="M13.95 20C14.3 20 14.596 19.879 14.838 19.637C15.0793 19.3957 15.2 19.1 15.2 18.75C15.2 18.4 15.0793 18.1043 14.838 17.863C14.596 17.621 14.3 17.5 13.95 17.5C13.6 17.5 13.304 17.621 13.062 17.863C12.8207 18.1043 12.7 18.4 12.7 18.75C12.7 19.1 12.8207 19.3957 13.062 19.637C13.304 19.879 13.6 20 13.95 20ZM14.1 9.7C14.5667 9.7 14.9417 9.829 15.225 10.087C15.5083 10.3457 15.65 10.6833 15.65 11.1C15.65 11.3833 15.5543 11.6707 15.363 11.962C15.171 12.254 14.9 12.5583 14.55 12.875C14.05 13.3083 13.6833 13.725 13.45 14.125C13.2167 14.525 13.1 14.925 13.1 15.325C13.1 15.5583 13.1877 15.754 13.363 15.912C13.5377 16.0707 13.7417 16.15 13.975 16.15C14.2083 16.15 14.4167 16.0667 14.6 15.9C14.7833 15.7333 14.9 15.525 14.95 15.275C15 14.9917 15.1127 14.7293 15.288 14.488C15.4627 14.246 15.75 13.9333 16.15 13.55C16.6667 13.0667 17.0293 12.625 17.238 12.225C17.446 11.825 17.55 11.3833 17.55 10.9C17.55 10.05 17.2293 9.354 16.588 8.812C15.946 8.27067 15.1167 8 14.1 8C13.4 8 12.7793 8.13333 12.238 8.4C11.696 8.66667 11.275 9.075 10.975 9.625C10.8583 9.84167 10.8167 10.054 10.85 10.262C10.8833 10.4707 11 10.6417 11.2 10.775C11.4167 10.9083 11.6543 10.95 11.913 10.9C12.171 10.85 12.3833 10.7083 12.55 10.475C12.7333 10.225 12.9543 10.0333 13.213 9.9C13.471 9.76667 13.7667 9.7 14.1 9.7ZM14 24C12.6333 24 11.3417 23.7373 10.125 23.212C8.90833 22.6873 7.846 21.975 6.938 21.075C6.02933 20.175 5.31267 19.1167 4.788 17.9C4.26267 16.6833 4 15.3833 4 14C4 12.6167 4.26267 11.3167 4.788 10.1C5.31267 8.88333 6.02933 7.825 6.938 6.925C7.846 6.025 8.90833 5.31233 10.125 4.787C11.3417 4.26233 12.6333 4 14 4C15.4 4 16.7083 4.26233 17.925 4.787C19.1417 5.31233 20.2 6.025 21.1 6.925C22 7.825 22.7083 8.88333 23.225 10.1C23.7417 11.3167 24 12.6167 24 14C24 15.3833 23.7417 16.6833 23.225 17.9C22.7083 19.1167 22 20.175 21.1 21.075C20.2 21.975 19.1417 22.6873 17.925 23.212C16.7083 23.7373 15.4 24 14 24Z" fill="#0B2C4C"/>
</svg>
