<svg width="30" height="30" viewBox="0 0 30 30" fill="none" xmlns="http://www.w3.org/2000/svg">
    <path
        d="M23.8544 24H4.15643C3.71728 23.9994 3.29628 23.803 2.98575 23.4539C2.67523 23.1049 2.50054 22.6316 2.5 22.138V10.099C2.50534 9.82331 2.56322 9.55209 2.66974 9.30366C2.77625 9.05522 2.92891 8.83535 3.11744 8.65888C3.30596 8.4824 3.52596 8.35343 3.76259 8.28065C3.99923 8.20787 4.24699 8.19298 4.48918 8.23698C4.44999 7.96468 4.4632 7.68609 4.52792 7.42001C4.59264 7.15393 4.70736 6.90655 4.86436 6.69454C5.02135 6.48253 5.21695 6.31083 5.43799 6.19102C5.65902 6.07121 5.90034 6.00607 6.14567 6H25.8436C26.2827 6.00061 26.7037 6.19699 27.0142 6.54605C27.3248 6.89512 27.4995 7.36837 27.5 7.86203V19.901C27.4946 20.1767 27.4367 20.448 27.3301 20.6965C27.2235 20.945 27.0707 21.1648 26.8821 21.3413C26.6935 21.5178 26.4735 21.6467 26.2368 21.7195C26.0001 21.7922 25.7522 21.8071 25.51 21.763C25.5493 22.0353 25.5362 22.3138 25.4716 22.5799C25.407 22.846 25.2924 23.0934 25.1355 23.3054C24.9785 23.5175 24.783 23.6892 24.562 23.809C24.341 23.9288 24.0997 23.994 23.8544 24ZM4.15643 9.1712C3.93758 9.1714 3.72775 9.26922 3.573 9.44318C3.41825 9.61713 3.33123 9.85301 3.33105 10.099V22.138C3.33123 22.384 3.41825 22.6198 3.573 22.7938C3.72775 22.9678 3.93758 23.0656 4.15643 23.0658H23.8544C24.0731 23.0654 24.2827 22.9675 24.4373 22.7935C24.5919 22.6196 24.6788 22.3838 24.6789 22.138V10.099C24.6788 9.85316 24.5919 9.61739 24.4373 9.44345C24.2827 9.26951 24.0731 9.1716 23.8544 9.1712H4.15643ZM25.51 20.8288C26.0854 20.9006 26.6538 20.6369 26.6689 19.9009V7.86203C26.6688 7.61601 26.5817 7.38013 26.427 7.20618C26.2722 7.03222 26.0624 6.9344 25.8436 6.93419H6.14562C5.50371 6.95051 5.25012 7.5833 5.32024 8.23698H23.8544C24.2934 8.23763 24.7144 8.43404 25.0247 8.78313C25.3351 9.13222 25.5096 9.60546 25.51 10.099V20.8288ZM21.2825 21.763H6.72753C6.67295 21.763 6.6189 21.751 6.56847 21.7275C6.51805 21.7041 6.47223 21.6696 6.43363 21.6263C6.39504 21.5829 6.36444 21.5314 6.34356 21.4747C6.32269 21.418 6.31197 21.3572 6.312 21.2959C6.31144 20.8766 6.16297 20.4747 5.89915 20.1783C5.63533 19.8819 5.2777 19.7152 4.90471 19.7149C4.85013 19.7149 4.79609 19.7028 4.74566 19.6794C4.69523 19.6559 4.64941 19.6215 4.61082 19.5781C4.57223 19.5347 4.54162 19.4832 4.52075 19.4265C4.49988 19.3699 4.48915 19.3091 4.48918 19.2477V12.9892C4.48915 12.9279 4.49987 12.8671 4.52075 12.8105C4.54162 12.7538 4.57222 12.7023 4.61082 12.6589C4.64941 12.6155 4.69523 12.5811 4.74566 12.5576C4.79608 12.5342 4.85013 12.5221 4.90471 12.5221C5.2777 12.5218 5.63533 12.3551 5.89915 12.0587C6.16297 11.7623 6.31144 11.3604 6.312 10.9411C6.31197 10.8797 6.32269 10.819 6.34356 10.7623C6.36444 10.7056 6.39504 10.6541 6.43363 10.6107C6.47223 10.5673 6.51805 10.5329 6.56847 10.5095C6.6189 10.486 6.67295 10.4739 6.72753 10.474H21.2825C21.337 10.4739 21.3911 10.486 21.4415 10.5095C21.492 10.5329 21.5378 10.5673 21.5764 10.6107C21.615 10.6541 21.6456 10.7056 21.6664 10.7623C21.6873 10.819 21.698 10.8797 21.698 10.9411C21.6986 11.3604 21.847 11.7623 22.1109 12.0587C22.3747 12.3551 22.7323 12.5218 23.1053 12.5221C23.1599 12.5221 23.2139 12.5342 23.2643 12.5576C23.3148 12.5811 23.3606 12.6155 23.3992 12.6589C23.4378 12.7023 23.4684 12.7538 23.4893 12.8105C23.5101 12.8671 23.5208 12.9279 23.5208 12.9892V19.2477C23.5208 19.3091 23.5101 19.3699 23.4893 19.4265C23.4684 19.4832 23.4378 19.5347 23.3992 19.5781C23.3606 19.6215 23.3148 19.6559 23.2643 19.6794C23.2139 19.7028 23.1599 19.7149 23.1053 19.7149C22.7323 19.7152 22.3747 19.8819 22.1109 20.1783C21.847 20.4747 21.6986 20.8766 21.698 21.2959C21.698 21.3572 21.6873 21.418 21.6664 21.4747C21.6456 21.5314 21.615 21.5829 21.5764 21.6263C21.5378 21.6696 21.492 21.7041 21.4415 21.7275C21.3911 21.751 21.337 21.763 21.2825 21.763ZM7.1041 20.8288H20.9059C20.9902 20.3321 21.2054 19.8754 21.5235 19.5179C21.8416 19.1604 22.2479 18.9187 22.6898 18.824V13.413C22.2479 13.3183 21.8416 13.0765 21.5235 12.719C21.2054 12.3616 20.9902 11.9048 20.9059 11.4082H7.10408C7.01975 11.9048 6.80458 12.3616 6.48648 12.719C6.16839 13.0765 5.76207 13.3183 5.32022 13.413V18.824C5.76207 18.9187 6.16839 19.1604 6.48648 19.5179C6.80458 19.8754 7.01976 20.3321 7.1041 20.8288ZM14.005 19.1738C10.3817 19.1334 10.3857 13.1024 14.0051 13.0632C17.6354 13.1042 17.6122 19.1384 14.005 19.1738ZM12.0929 16.1185C12.0968 16.6868 12.3006 17.2302 12.6599 17.63C13.0192 18.0298 13.5047 18.2533 14.0103 18.2518C14.5158 18.2502 15.0002 18.0236 15.3576 17.6217C15.7149 17.2197 15.9161 16.675 15.9171 16.1067C15.9133 15.5384 15.7095 14.9949 15.3502 14.5952C14.9909 14.1954 14.5053 13.9718 13.9998 13.9734C13.4943 13.975 13.0098 14.2015 12.6525 14.6035C12.2952 15.0055 12.094 15.5502 12.0929 16.1185ZM19.7689 17.6904C19.3986 17.6893 19.0439 17.5231 18.7824 17.2283C18.521 16.9336 18.3742 16.5343 18.3743 16.118C18.3745 15.7018 18.5214 15.3026 18.783 15.008C19.0446 14.7134 19.3995 14.5475 19.7697 14.5466C20.14 14.5477 20.4948 14.7139 20.7562 15.0087C21.0176 15.3034 21.1644 15.7027 21.1643 16.119C21.1642 16.5352 21.0172 16.9344 20.7556 17.229C20.494 17.5236 20.1392 17.6895 19.7689 17.6904ZM19.1878 16.1189C19.1851 16.2048 19.1984 16.2904 19.2268 16.3702C19.2552 16.4499 19.2982 16.5221 19.3529 16.5821C19.4076 16.6422 19.4729 16.6886 19.5445 16.7186C19.6162 16.7486 19.6926 16.7614 19.7689 16.7562C19.8442 16.7576 19.9189 16.7421 19.9888 16.7108C20.0587 16.6794 20.1223 16.6327 20.176 16.5733C20.2297 16.514 20.2723 16.4433 20.3014 16.3653C20.3305 16.2873 20.3456 16.2036 20.3456 16.119C20.3457 16.0344 20.3308 15.9506 20.3017 15.8725C20.2727 15.7945 20.2302 15.7237 20.1766 15.6643C20.123 15.6049 20.0594 15.5581 19.9896 15.5266C19.9197 15.4951 19.845 15.4795 19.7697 15.4808C19.6933 15.4756 19.6168 15.4884 19.545 15.5184C19.4733 15.5484 19.4079 15.595 19.3531 15.6551C19.2983 15.7152 19.2553 15.7875 19.2268 15.8674C19.1983 15.9472 19.1851 16.0329 19.1878 16.1189ZM8.24679 17.6904C8.06053 17.6962 7.87517 17.6594 7.70198 17.5821C7.52878 17.5049 7.37136 17.3889 7.23928 17.2411C7.1072 17.0934 7.00323 16.917 6.93367 16.7227C6.86411 16.5284 6.83043 16.3202 6.83466 16.1108C6.84582 15.6981 6.99949 15.3066 7.2631 15.0191C7.52672 14.7316 7.87955 14.5709 8.24681 14.5709C8.61408 14.5709 8.96691 14.7316 9.23052 15.0191C9.49413 15.3066 9.64781 15.6981 9.65897 16.1108C9.6629 16.3201 9.62902 16.5281 9.55935 16.7223C9.48969 16.9165 9.3857 17.0927 9.25368 17.2404C9.12166 17.3881 8.96435 17.5041 8.79128 17.5815C8.61821 17.6588 8.43298 17.6959 8.24679 17.6904ZM7.66571 16.1185C7.66662 16.2917 7.72872 16.4575 7.83834 16.5793C7.94796 16.701 8.09613 16.7689 8.25025 16.7679C8.40436 16.7668 8.5518 16.697 8.66013 16.5738C8.76847 16.4506 8.82881 16.284 8.8279 16.1108C8.82745 16.025 8.81197 15.9401 8.78235 15.8611C8.75274 15.782 8.70955 15.7103 8.65527 15.65C8.601 15.5897 8.53668 15.542 8.46601 15.5097C8.39533 15.4773 8.31968 15.4609 8.24337 15.4614C8.16706 15.4619 8.09159 15.4793 8.02126 15.5126C7.95093 15.5459 7.88712 15.5945 7.83348 15.6555C7.77984 15.7165 7.73742 15.7888 7.70863 15.8682C7.67985 15.9477 7.66526 16.0327 7.66571 16.1185Z"
        fill="url(#paint0_linear_1745_6754)" />
    <defs>
        <linearGradient id="paint0_linear_1745_6754" x1="15" y1="6" x2="15" y2="24" gradientUnits="userSpaceOnUse">
            <stop stop-color="#81319B" />
            <stop offset="0.48" stop-color="#00A99D" />
            <stop offset="1" stop-color="#0B2C4C" />
        </linearGradient>
    </defs>
</svg>