<svg width="60" height="60" viewBox="0 0 60 60" fill="none" xmlns="http://www.w3.org/2000/svg">
<path d="M22.6355 19.9161L21.2355 19.1161L27.6871 7.82581L29.0871 8.62581L22.6355 19.9161ZM30 13.0645C31.3339 13.0645 32.4194 14.15 32.4194 15.4839C32.4194 16.8177 31.3339 17.9032 30 17.9032C28.6661 17.9032 27.5806 16.8177 27.5806 15.4839C27.5806 14.15 28.6661 13.0645 30 13.0645ZM29.1935 15.4839C29.1935 15.929 29.5548 16.2903 30 16.2903C30.4452 16.2903 30.8065 15.929 30.8065 15.4839C30.8065 15.0387 30.4452 14.6774 30 14.6774C29.5548 14.6774 29.1935 15.0387 29.1935 15.4839ZM20.3226 14.6774C18.9887 14.6774 17.9032 13.5919 17.9032 12.2581C17.9032 10.9242 18.9887 9.83871 20.3226 9.83871C21.6565 9.83871 22.7419 10.9242 22.7419 12.2581C22.7419 13.5919 21.6565 14.6774 20.3226 14.6774ZM21.129 12.2581C21.129 11.8129 20.7677 11.4516 20.3226 11.4516C19.8774 11.4516 19.5161 11.8129 19.5161 12.2581C19.5161 12.7032 19.8774 13.0645 20.3226 13.0645C20.7677 13.0645 21.129 12.7032 21.129 12.2581ZM47.1427 17.9032H46.9355V16.2903H45.3226V17.9032H45.1153C43.8952 17.9032 42.9032 18.8952 42.9032 20.1153C42.9032 21.0694 43.5113 21.9129 44.4161 22.2145L47.3315 23.1863C47.5774 23.2677 47.7419 23.4976 47.7419 23.7556C47.7419 24.0863 47.4734 24.3548 47.1427 24.3548H45.1153C44.7847 24.3548 44.5161 24.0863 44.5161 23.7556V22.7419H42.9032V23.7556C42.9032 24.9758 43.8952 25.9677 45.1153 25.9677H45.3226V27.5806H46.9355V25.9677H47.1427C48.3629 25.9677 49.3548 24.9758 49.3548 23.7556C49.3548 22.8016 48.7468 21.9581 47.8419 21.6565L44.9266 20.6847C44.6806 20.6032 44.5161 20.3734 44.5161 20.1153C44.5161 19.7847 44.7847 19.5161 45.1153 19.5161H47.1427C47.4734 19.5161 47.7419 19.7847 47.7419 20.1153V20.3226H49.3548V20.1153C49.3548 18.8952 48.3629 17.9032 47.1427 17.9032ZM51.2137 29.1935H51.4185C53.3935 29.1935 55 30.8 55 32.775C55 33.1613 54.9379 33.5419 54.8153 33.9081L52.3645 41.2597C51.8774 42.725 50.5121 43.7097 48.9677 43.7097H30.0645L30.6694 46.9355H47.7419C49.9653 46.9355 51.7742 48.7444 51.7742 50.9677C51.7742 53.1911 49.9653 55 47.7419 55C45.5185 55 43.7097 53.1911 43.7097 50.9677C43.7097 50.0565 44.025 49.2242 44.5371 48.5484H33.2048C33.7169 49.2242 34.0323 50.0565 34.0323 50.9677C34.0323 53.1911 32.2234 55 30 55H5V53.3871H6.6129V40.4839H11.4516V53.3871H13.0645V35.6452H17.9032V53.3871H19.5161V43.7097H24.3548V53.3871H26.7952C26.2831 52.7113 25.9677 51.879 25.9677 50.9677C25.9677 49.0726 27.2863 47.4895 29.0516 47.0605L24.8621 24.7161C24.6468 23.5718 23.6476 22.7419 22.4847 22.7419H21.129H11.896L5 14.9839V12.7581L11.896 5H38.871V16.8508C40.4774 14.5653 43.129 13.0645 46.129 13.0645C51.0202 13.0645 55 17.0444 55 21.9355C55 24.9355 53.4992 27.5871 51.2137 29.1935ZM6.6129 14.371L11.4516 19.8145V7.92742L6.6129 13.371V14.371ZM22.4847 21.129H37.2581V6.6129H13.0645V21.129H21.129H22.4847ZM26.4468 24.4177L27.3419 29.1935H41.0444C38.9661 27.7331 37.5403 25.4081 37.2984 22.7419H25.6927C26.0581 23.2258 26.329 23.7895 26.4468 24.4177ZM43.7097 30.8065V32.4194H46.9355V30.8065H43.7097ZM46.9355 34.0323H43.7097V37.2581H46.9355V34.0323ZM48.5484 37.2581H51.9992L53.075 34.0323H48.5484V37.2581ZM42.0968 32.4194V30.8065H38.871V32.4194H42.0968ZM38.871 34.0323V37.2581H42.0968V34.0323H38.871ZM37.2581 30.8065H34.0323V32.4194H37.2581V30.8065ZM32.4194 30.8065H27.6444L27.9468 32.4194H32.4194V30.8065ZM28.8548 37.2581H32.4194V34.0323H28.25L28.8548 37.2581ZM34.0323 37.2581H37.2581V34.0323H34.0323V37.2581ZM34.0323 38.871V42.0968H37.2581V38.871H34.0323ZM38.871 42.0968H42.0968V38.871H38.871V42.0968ZM43.7097 42.0968H46.9355V38.871H43.7097V42.0968ZM21.129 53.3871H22.7419V45.3226H21.129V53.3871ZM14.6774 53.3871H16.2903V37.2581H14.6774V53.3871ZM8.22581 53.3871H9.83871V42.0968H8.22581V53.3871ZM30 48.5484C28.6661 48.5484 27.5806 49.6339 27.5806 50.9677C27.5806 52.3016 28.6661 53.3871 30 53.3871C31.3339 53.3871 32.4194 52.3016 32.4194 50.9677C32.4194 49.6339 31.3339 48.5484 30 48.5484ZM47.7419 48.5484C46.4081 48.5484 45.3226 49.6339 45.3226 50.9677C45.3226 52.3016 46.4081 53.3871 47.7419 53.3871C49.0758 53.3871 50.1613 52.3016 50.1613 50.9677C50.1613 49.6339 49.0758 48.5484 47.7419 48.5484ZM29.7621 42.0968H32.4194V38.871H29.1573L29.7621 42.0968ZM50.8347 40.7508L51.4613 38.871H48.5484V42.0968H48.9677C49.8161 42.0968 50.5669 41.5556 50.8347 40.7508ZM51.4185 30.8065H48.5484V32.4194H53.3508C53.1831 31.5032 52.3823 30.8065 51.4185 30.8065ZM53.3871 21.9355C53.3871 17.9331 50.1315 14.6774 46.129 14.6774C42.1266 14.6774 38.871 17.9331 38.871 21.9355C38.871 25.9379 42.1266 29.1935 46.129 29.1935C50.1315 29.1935 53.3871 25.9379 53.3871 21.9355Z" fill="url(#paint0_linear_866_11491)"/>
<defs>
<linearGradient id="paint0_linear_866_11491" x1="30" y1="5" x2="30" y2="55" gradientUnits="userSpaceOnUse">
<stop stop-color="#81319B"/>
<stop offset="0.48" stop-color="#00A99D"/>
<stop offset="1" stop-color="#0B2C4C"/>
</linearGradient>
</defs>
</svg>
