<svg width="60" height="60" viewBox="0 0 60 60" fill="none" xmlns="http://www.w3.org/2000/svg">
<path d="M23.5035 46.2535C22.9516 46.2535 22.5031 46.7022 22.5031 47.2539V48.0544C22.5031 48.6086 22.9517 49.0593 23.5035 49.0593H23.9856C24.011 49.1643 24.039 49.2694 24.07 49.3742L23.6545 49.6128C23.1759 49.8862 23.0096 50.4995 23.2847 50.9818L23.6876 51.6797C23.9662 52.1511 24.5776 52.3147 25.0537 52.0422L25.4707 51.8C25.5455 51.8786 25.6218 51.9552 25.7006 52.0297L25.457 52.4502C25.1823 52.9304 25.3486 53.5436 25.8252 53.8161L26.5175 54.2157C27.0132 54.5028 27.6248 54.3165 27.8856 53.8497L28.1282 53.4312C28.232 53.462 28.3357 53.4903 28.4405 53.5154V53.9977C28.4405 54.5493 28.8911 54.9981 29.4455 54.9981H30.2455C30.7973 54.9981 31.2459 54.5493 31.2459 53.9977V53.5161C31.3512 53.491 31.4565 53.4627 31.5607 53.4317L31.8008 53.8499C32.0877 54.3447 32.7107 54.4879 33.1659 54.217L33.8637 53.8171C34.3378 53.5461 34.5102 52.9336 34.2324 52.4473L33.9903 52.0296C34.0686 51.9553 34.1449 51.879 34.2192 51.8007L34.6393 52.0456C35.1204 52.3163 35.7349 52.1486 36.0059 51.675L36.4072 50.9794C36.6813 50.4994 36.515 49.8861 36.0374 49.6132L35.6208 49.3741C35.6519 49.2693 35.6799 49.1643 35.7052 49.0592H36.1828C36.7372 49.0592 37.1878 48.6085 37.1878 48.0543V47.2538C37.1878 46.7021 36.7372 46.2534 36.1828 46.2534H35.7063C35.6808 46.1479 35.6524 46.0427 35.6213 45.9385L36.0363 45.7001C36.5149 45.4267 36.6812 44.8134 36.4066 44.3324L36.0068 43.6349C35.7347 43.1593 35.1213 42.9921 34.6316 43.2666L34.2175 43.5082C34.1428 43.4296 34.0669 43.3543 33.9912 43.2818L34.2364 42.8585C34.5064 42.3757 34.3457 41.7767 33.8641 41.4913L33.1653 41.0907C32.6928 40.8208 32.0814 40.9844 31.7987 41.4618L31.5612 41.8777C31.4575 41.8462 31.3522 41.8174 31.2459 41.7918V41.3151C31.2459 40.7609 30.7973 40.3102 30.2455 40.3102H29.4455C28.8911 40.3102 28.4405 40.7609 28.4405 41.3151V41.7929C28.3352 41.8183 28.231 41.8468 28.1273 41.8783L27.8872 41.4619C27.6161 40.9868 27.0043 40.8192 26.5186 41.0918L25.8202 41.4952C25.3452 41.7768 25.1845 42.3759 25.4587 42.8655L25.6992 43.2809C25.6214 43.3544 25.5456 43.4303 25.4713 43.5083L25.0507 43.2643C24.5777 42.9942 23.9668 43.157 23.6846 43.6341L23.2838 44.3334C23.0097 44.8134 23.176 45.4267 23.6536 45.6996L24.0696 45.9385C24.0385 46.0427 24.0101 46.1479 23.9846 46.2534H23.5035V46.2535ZM24.9586 45.2478L24.2074 44.8163L24.5675 44.1886L25.3172 44.6235C25.5389 44.7518 25.8197 44.7004 25.9814 44.5032C26.1961 44.2411 26.4351 44.0034 26.6919 43.7963C26.8918 43.6351 26.9442 43.3519 26.8155 43.1297L26.3786 42.3758L27.0036 42.0148L27.44 42.7716C27.5691 42.9949 27.8423 43.09 28.0813 42.9965C28.3885 42.8759 28.713 42.7869 29.0456 42.7322C29.2974 42.6907 29.482 42.4733 29.482 42.2181L29.4453 41.3523H30.2041V42.2181C30.2041 42.4735 30.3893 42.6912 30.6416 42.7322C30.9757 42.7866 31.3012 42.8754 31.6094 42.9965C31.8485 43.0896 32.1241 42.9939 32.2517 42.7696L32.682 42.0149L33.3121 42.3761L32.8752 43.1298C32.7465 43.3521 32.7989 43.6352 32.9988 43.7964C33.2424 43.9931 33.4825 44.2322 33.7128 44.5071C33.8751 44.702 34.1547 44.7508 34.3745 44.6229L35.1221 44.1866L35.4832 44.8164L34.732 45.2479C34.5103 45.375 34.4137 45.6447 34.5042 45.8838C34.6242 46.2012 34.7122 46.5291 34.7655 46.8582C34.8067 47.1104 35.0244 47.2955 35.2798 47.2955H36.1479L36.1825 48.0176H35.2798C35.025 48.0176 34.8073 48.2022 34.7661 48.4539C34.7122 48.7795 34.6242 49.1086 34.5037 49.4316C34.4142 49.6705 34.5113 49.9386 34.732 50.0654L35.4832 50.4966L35.1221 51.1218L34.3745 50.6855C34.1543 50.5568 33.8725 50.6074 33.7098 50.8046C33.4926 51.0684 33.2586 51.3026 32.9947 51.5201C32.7978 51.6821 32.7475 51.9629 32.8751 52.1835L33.31 52.9339L32.6819 53.2936L32.2512 52.5427C32.124 52.3209 31.8534 52.2245 31.6154 52.3146C31.298 52.4346 30.97 52.5227 30.6415 52.5763C30.3892 52.6173 30.204 52.835 30.204 53.0904V53.9565H29.4819V53.0904C29.4819 52.8352 29.2973 52.6178 29.0455 52.5763C28.7185 52.5224 28.392 52.4343 28.0751 52.3146C27.8386 52.2253 27.5685 52.3199 27.4403 52.5405L27.0034 53.2937L26.3803 52.934L26.8152 52.1836C26.9429 51.963 26.8925 51.6822 26.6957 51.5202C26.4317 51.3027 26.1977 51.0684 25.9805 50.8047C25.8178 50.6076 25.538 50.5569 25.3168 50.6849L24.5671 51.1201L24.207 50.4967L24.9582 50.0655C25.1789 49.9386 25.276 49.6706 25.1866 49.4317C25.066 49.1086 24.978 48.7795 24.9241 48.454C24.8829 48.2024 24.6653 48.0177 24.4104 48.0177H23.5443V47.2956H24.4104C24.6657 47.2956 24.8834 47.1104 24.9247 46.8583C24.9781 46.5292 25.066 46.2013 25.1861 45.8839C25.2769 45.6446 25.1803 45.3749 24.9586 45.2478ZM29.8462 50.4599C31.3923 50.4599 32.6501 49.2016 32.6501 47.6548C32.6501 46.1083 31.3923 44.8502 29.8462 44.8502C28.3001 44.8502 27.0417 46.1083 27.0417 47.6548C27.0418 49.2016 28.3001 50.4599 29.8462 50.4599ZM29.8462 45.892C30.8182 45.892 31.6085 46.6828 31.6085 47.6548C31.6085 48.627 30.8182 49.418 29.8462 49.418C28.8742 49.418 28.0834 48.627 28.0834 47.6548C28.0834 46.6828 28.8743 45.892 29.8462 45.892ZM32.6343 24.3228C32.6343 23.6421 32.0815 23.0884 31.4015 23.0884H30.8328C29.5786 23.0884 28.5578 22.0679 28.5578 20.8133C28.5578 19.5587 29.5786 18.5383 30.8328 18.5383H33.1551C33.443 18.5383 33.6759 18.7716 33.6759 19.0593C33.6759 19.347 33.443 19.5802 33.1551 19.5802H30.8328C30.1528 19.5802 29.5994 20.1335 29.5994 20.8134C29.5994 21.4933 30.1528 22.0466 30.8328 22.0466H31.4015C32.6557 22.0466 33.676 23.0673 33.676 24.3218C33.676 25.5768 32.6558 26.5979 31.4015 26.5979H29.0787C28.7908 26.5979 28.5579 26.3646 28.5579 26.077C28.5579 25.7893 28.7908 25.556 29.0787 25.556H31.4015C32.0815 25.556 32.6343 25.0027 32.6343 24.3228ZM34.8641 26.077V22.5688V22.5675V19.0594C34.8641 18.7717 35.097 18.5384 35.3849 18.5384H39.4613C39.7492 18.5384 39.9821 18.7717 39.9821 19.0594C39.9821 19.3471 39.7492 19.5803 39.4613 19.5803H35.9057V22.0466H39.4613C39.7492 22.0466 39.9821 22.2798 39.9821 22.5675C39.9821 22.5678 39.982 22.5679 39.982 22.5681C39.982 22.5683 39.9821 22.5685 39.9821 22.5687C39.9821 22.8564 39.7492 23.0896 39.4613 23.0896H35.9057V25.5559H39.4613C39.7492 25.5559 39.9821 25.7892 39.9821 26.0769C39.9821 26.3645 39.7492 26.5978 39.4613 26.5978H35.3849C35.097 26.5979 34.8641 26.3646 34.8641 26.077ZM43.7285 26.5963C45.1394 26.5963 46.2873 25.4484 46.2873 24.0372V21.096C46.2873 19.6848 45.1394 18.5369 43.7285 18.5369C42.3176 18.5369 41.1697 19.6848 41.1697 21.096V24.0372C41.1697 25.4484 42.3176 26.5963 43.7285 26.5963ZM42.2114 21.096C42.2114 20.2593 42.8919 19.5787 43.7285 19.5787C44.5652 19.5787 45.2457 20.2594 45.2457 21.096V24.0372C45.2457 24.8738 44.5652 25.5544 43.7285 25.5544C42.8919 25.5544 42.2114 24.8737 42.2114 24.0372V21.096ZM24.9983 10.1361C22.7099 12.4201 21.1227 15.2633 20.3698 18.377C20.2653 18.3715 20.1624 18.3612 20.0567 18.3612C16.7716 18.3612 14.0995 21.0343 14.0995 24.3202C14.0995 27.6085 16.7716 30.2837 20.0567 30.2837C20.5714 30.2837 21.0682 30.2113 21.5449 30.0881C22.0186 31.0951 22.5857 32.0505 23.243 32.9473L21.5978 34.5892C20.4209 34.4935 19.2112 34.8925 18.3133 35.7908L6.21758 47.8896C4.59414 49.5134 4.59414 52.1553 6.21758 53.7791C7.84417 55.4067 10.4785 55.4072 12.1057 53.7791L24.2017 41.6806C25.1007 40.7814 25.4995 39.5702 25.4031 38.3923L27.0424 36.7523C33.9411 41.8095 43.6666 41.1747 49.8475 34.993C56.7168 28.1272 56.7182 17.0088 49.8475 10.1421C42.995 3.28787 31.8475 3.2861 24.9983 10.1361ZM20.0567 29.2417C17.3463 29.2417 15.1411 27.0339 15.1411 24.3201C15.1411 21.6089 17.3463 19.403 20.0567 19.403C22.7696 19.403 24.9769 21.6088 24.9769 24.3201C24.9768 27.0339 22.7695 29.2417 20.0567 29.2417ZM24.3561 20.2026C24.829 17.5316 26.0897 15.1017 28.0259 13.1652C33.2109 7.97841 41.6342 7.97792 46.8197 13.1652C52.0023 18.3494 52.0049 26.7825 46.8248 31.9636C41.6438 37.1459 33.2169 37.1608 28.0259 31.9689C26.7366 30.6794 25.7522 29.1764 25.0896 27.5029C25.6747 26.5807 26.0185 25.4909 26.0185 24.32C26.0185 22.7228 25.3832 21.2735 24.3561 20.2026ZM23.4653 40.9439L11.3692 53.0424C10.1497 54.2627 8.17393 54.263 6.95411 53.0424C5.73704 51.8248 5.73704 49.8438 6.95411 48.6262L19.0496 36.5274C20.2675 35.3098 22.2477 35.3101 23.4653 36.5274C24.6823 37.7451 24.6823 39.7263 23.4653 40.9439ZM25.1252 37.1968C24.9222 36.6846 24.6154 36.2045 24.2018 35.7908C23.7877 35.3767 23.3069 35.0695 22.7943 34.8666L23.8859 33.7773C24.2357 34.1989 24.6062 34.6062 24.9979 34.9977C25.3903 35.3901 25.7981 35.7572 26.217 36.1047L25.1252 37.1968ZM49.111 34.256C42.6645 40.7033 32.1777 40.7064 25.7342 34.2611C25.219 33.7458 24.7438 33.2007 24.306 32.6309C24.3045 32.6293 24.304 32.6271 24.3025 32.6256C24.302 32.6251 24.3015 32.6251 24.3009 32.6246C23.6108 31.7253 23.0199 30.7604 22.5315 29.7389C23.2189 29.4234 23.8361 28.983 24.3535 28.4436C25.0594 30.0275 26.0428 31.4589 27.2895 32.7057C32.8767 38.2941 41.9641 38.2998 47.5613 32.7003C53.1472 27.113 53.1452 18.0191 47.5562 12.4287C41.9641 6.83473 32.8823 6.83395 27.2895 12.4287C25.3459 14.3724 24.0336 16.7786 23.4493 19.4263C22.8408 19.0036 22.1502 18.694 21.4066 18.521C22.1244 15.6339 23.607 12.9968 25.7341 10.8733C32.1781 4.4282 42.6649 4.43075 49.1109 10.8789C55.5734 17.3371 55.5743 27.7958 49.111 34.256ZM22.0915 22.7438C22.295 22.9473 22.295 23.2769 22.0915 23.4804L19.6716 25.9009C19.4682 26.1044 19.1386 26.1044 18.9352 25.9009L18.0264 24.9918C17.823 24.7884 17.823 24.4587 18.0264 24.2552C18.2298 24.0518 18.5594 24.0518 18.7628 24.2552L19.3035 24.796L21.3552 22.7438C21.5585 22.5403 21.8881 22.5403 22.0915 22.7438Z" fill="url(#paint0_linear_866_11479)"/>
<defs>
<linearGradient id="paint0_linear_866_11479" x1="30" y1="5" x2="30" y2="55" gradientUnits="userSpaceOnUse">
<stop stop-color="#81319B"/>
<stop offset="0.48" stop-color="#00A99D"/>
<stop offset="1" stop-color="#0B2C4C"/>
</linearGradient>
</defs>
</svg>
