<svg width="60" height="60" viewBox="0 0 60 60" fill="none" xmlns="http://www.w3.org/2000/svg">
<path d="M45.4419 24.1047C40.1744 24.1047 35.8837 19.814 35.8837 14.5465C35.8837 9.27907 40.1744 5 45.4419 5C50.7093 5 55 9.2907 55 14.5581C55 19.8256 50.7093 24.1047 45.4419 24.1047ZM45.4419 6.13953C40.8023 6.13953 37.0233 9.9186 37.0233 14.5581C37.0233 19.1977 40.8023 22.9767 45.4419 22.9767C50.0814 22.9767 53.8605 19.1977 53.8605 14.5581C53.8605 9.9186 50.093 6.13953 45.4419 6.13953ZM43.0349 19.1628C42.9419 19.1628 42.8488 19.1395 42.7558 19.093C42.5814 18.9884 42.4651 18.8023 42.4651 18.593V10.5233C42.4651 10.314 42.5814 10.1279 42.7558 10.0233C42.9302 9.9186 43.1512 9.93023 43.3256 10.0349L49.9535 14.0698C50.1279 14.1744 50.2209 14.3605 50.2209 14.5581C50.2209 14.7558 50.1163 14.9419 49.9535 15.0465L43.3256 19.0814C43.2442 19.1279 43.1395 19.1628 43.0349 19.1628ZM43.6047 11.5233V17.5698L48.5698 14.5465L43.6047 11.5233ZM45.4419 47.7674C44.1628 47.7674 43.1279 46.7326 43.1279 45.4535C43.1279 44.1744 44.1628 43.1395 45.4419 43.1395C46.7209 43.1395 47.7558 44.1744 47.7558 45.4535C47.7674 46.7209 46.7209 47.7674 45.4419 47.7674ZM45.4419 44.2674C44.7907 44.2674 44.2558 44.8023 44.2558 45.4535C44.2558 46.1047 44.7907 46.6395 45.4419 46.6395C46.093 46.6395 46.6279 46.1047 46.6279 45.4535C46.6279 44.7907 46.1047 44.2674 45.4419 44.2674ZM45.4419 55C40.1744 55 35.8837 50.7093 35.8837 45.4419C35.8837 40.1744 40.1744 35.8837 45.4419 35.8837C50.7093 35.8837 55 40.1744 55 45.4419C55 50.7093 50.7093 55 45.4419 55ZM45.4419 37.0349C40.8023 37.0349 37.0233 40.814 37.0233 45.4535C37.0233 50.093 40.8023 53.8721 45.4419 53.8721C50.0814 53.8721 53.8605 50.093 53.8605 45.4535C53.8605 40.814 50.093 37.0349 45.4419 37.0349ZM49.2093 50.2093H41.686C41.1395 50.2093 40.686 49.7558 40.686 49.2093V41.686C40.686 41.1395 41.1395 40.686 41.686 40.686H49.2093C49.7558 40.686 50.2093 41.1395 50.2093 41.686V49.2093C50.2093 49.7558 49.7558 50.2093 49.2093 50.2093ZM41.8256 49.0698H49.0698V41.814H41.814V49.0698H41.8256ZM16.1512 50.7326C14.9419 50.7326 13.1744 50.5233 11.9186 49.5C11.6744 49.3023 11.6395 48.9419 11.8372 48.6977C12.0349 48.4535 12.3953 48.4186 12.6395 48.6163C14.2791 49.9651 17.2907 49.5116 17.314 49.5116H17.3372C18.4651 49.3721 18.8605 47.8023 19.0116 46.5C19.0465 46.1977 18.9535 45.9186 18.7558 45.686C18.5581 45.4651 18.2791 45.3372 17.9767 45.3372H16.7558C16.593 45.3372 16.4302 45.2674 16.3256 45.1395C16.2209 45.0116 16.1744 44.8488 16.1977 44.686L16.6279 41.8605C16.6628 41.6628 16.5698 41.5233 16.5116 41.4535C16.4535 41.3837 16.3256 41.2791 16.1279 41.2791C15.907 41.2791 15.7093 41.4186 15.6395 41.6395C14.5465 44.8721 12.6047 45.7674 12.5233 45.8023C12.2326 45.9302 11.8953 45.8023 11.7791 45.5116C11.6512 45.2209 11.7791 44.8954 12.0698 44.7674C12.1395 44.7326 13.6512 43.9884 14.5698 41.2791C14.8023 40.6047 15.4302 40.1512 16.1279 40.1512C16.6047 40.1512 17.0581 40.3605 17.3721 40.7209C17.686 41.0814 17.8256 41.5698 17.7558 42.0465L17.4302 44.2093H17.9884C18.6047 44.2093 19.1977 44.4767 19.6163 44.9302C20.0233 45.3953 20.2326 46.0116 20.1628 46.6163C19.8256 49.6977 18.5349 50.5 17.5116 50.6279C17.3953 50.6628 16.8721 50.7326 16.1512 50.7326ZM12.0116 50.2326H9.80233C9.33721 50.2326 8.95349 49.8488 8.95349 49.3837V44.9767C8.95349 44.5116 9.33721 44.1279 9.80233 44.1279H12.0116C12.4767 44.1279 12.8605 44.5116 12.8605 44.9767V49.3837C12.8488 49.8488 12.4767 50.2326 12.0116 50.2326ZM10.0814 49.093H11.7093V45.2558H10.0814V49.093ZM14.5581 55C9.2907 55 5 50.7093 5 45.4419C5 40.1744 9.2907 35.8837 14.5581 35.8837C19.8256 35.8837 24.1163 40.1744 24.1163 45.4419C24.1163 50.7093 19.8256 55 14.5581 55ZM14.5581 37.0349C9.9186 37.0349 6.13953 40.814 6.13953 45.4535C6.13953 50.093 9.9186 53.8721 14.5581 53.8721C19.1977 53.8721 22.9767 50.093 22.9767 45.4535C22.9767 40.814 19.1977 37.0349 14.5581 37.0349ZM14.5581 24.1047C9.2907 24.1047 5 19.814 5 14.5465C5 9.27907 9.2907 5 14.5581 5C19.8256 5 24.1163 9.2907 24.1163 14.5581C24.1163 19.8256 19.8256 24.1047 14.5581 24.1047ZM14.5581 6.13953C9.9186 6.13953 6.13953 9.9186 6.13953 14.5581C6.13953 19.1977 9.9186 22.9767 14.5581 22.9767C19.1977 22.9767 22.9767 19.1977 22.9767 14.5581C22.9767 9.9186 19.1977 6.13953 14.5581 6.13953ZM13.814 19.6395C13.5 19.6395 13.2442 19.3837 13.2442 19.0698V11.6395C13.2442 10.4302 14.2209 9.45349 15.4302 9.45349H16.7791C17.093 9.45349 17.3488 9.7093 17.3488 10.0233C17.3488 10.3372 17.093 10.593 16.7791 10.593H15.4302C14.8488 10.593 14.3837 11.0581 14.3837 11.6395V19.0698C14.3837 19.3837 14.1279 19.6395 13.814 19.6395ZM15.2907 15.1163H12.3256C12.0116 15.1163 11.7558 14.8605 11.7558 14.5465C11.7558 14.2326 12.0116 13.9767 12.3256 13.9767H15.2907C15.6047 13.9767 15.8605 14.2326 15.8605 14.5465C15.8605 14.8721 15.6047 15.1163 15.2907 15.1163ZM30 52.4186C27.2442 52.4186 24.4884 51.907 21.8721 50.8954C21.5814 50.7791 21.4302 50.4535 21.5465 50.1628C21.6628 49.8721 21.9884 49.7209 22.2791 49.8372C27.2558 51.7674 32.7442 51.7674 37.7209 49.8372C38.0116 49.7209 38.3372 49.8721 38.4535 50.1628C38.5698 50.4535 38.4186 50.7791 38.1279 50.8954C35.5116 51.907 32.7558 52.4186 30 52.4186ZM9.63954 38.4884C9.40698 38.4884 9.19767 38.3488 9.10465 38.1279C7.06977 32.8837 7.06977 27.1163 9.10465 21.8721C9.22093 21.5814 9.54651 21.4302 9.83721 21.5465C10.1279 21.6628 10.2791 21.9884 10.1628 22.2791C8.23256 27.2558 8.23256 32.7442 10.1628 37.7209C10.2791 38.0116 10.1279 38.3372 9.83721 38.4535C9.77907 38.4767 9.7093 38.4884 9.63954 38.4884ZM37.9186 10.2093C37.8488 10.2093 37.7791 10.1977 37.7093 10.1744C32.7326 8.24419 27.2442 8.24419 22.2674 10.1744C21.9767 10.2907 21.6512 10.1395 21.5349 9.84884C21.4186 9.55814 21.5698 9.23256 21.8605 9.11628C27.1047 7.0814 32.8721 7.0814 38.1163 9.11628C38.407 9.23256 38.5581 9.55814 38.4419 9.84884C38.3721 10.0698 38.1512 10.2093 37.9186 10.2093ZM50.3605 38.4884C50.2907 38.4884 50.2209 38.4767 50.1512 38.4535C49.8605 38.3372 49.7093 38.0116 49.8256 37.7209C51.7558 32.7442 51.7558 27.2558 49.8256 22.2791C49.7093 21.9884 49.8605 21.6628 50.1512 21.5465C50.4419 21.4302 50.7674 21.5814 50.8837 21.8721C52.9186 27.1163 52.9186 32.8837 50.8837 38.1279C50.8023 38.3605 50.593 38.4884 50.3605 38.4884ZM31.2907 39.5581H28.7209C28.4419 39.5581 28.1977 39.3488 28.1628 39.0698L27.9302 37.4884C27.3256 37.3256 26.7326 37.0814 26.186 36.7674L24.8953 37.7209C24.6744 37.8837 24.3488 37.8721 24.1512 37.6628L22.3256 35.8488C22.1279 35.6512 22.1047 35.3372 22.2674 35.1047L23.2209 33.814C22.907 33.2674 22.6628 32.686 22.5 32.0698L20.9186 31.8372C20.6395 31.7907 20.4302 31.5581 20.4302 31.2791V28.7093C20.4302 28.4302 20.6395 28.186 20.9186 28.1512L22.5 27.9186C22.6744 27.314 22.907 26.7326 23.2209 26.1744L22.2674 24.8953C22.1047 24.6744 22.1163 24.3488 22.3256 24.1512L24.1512 22.3256C24.3488 22.1279 24.6628 22.1047 24.8953 22.2674L26.186 23.2209C26.7326 22.907 27.314 22.6628 27.9302 22.5L28.1628 20.9186C28.2093 20.6395 28.4419 20.4302 28.7209 20.4302H31.2907C31.5698 20.4302 31.814 20.6395 31.8488 20.9186L32.0814 22.5C32.686 22.6628 33.2674 22.907 33.8256 23.2209L35.1163 22.2674C35.3372 22.1047 35.6628 22.1163 35.8605 22.3256L37.686 24.1512C37.8837 24.3488 37.907 24.6628 37.7442 24.8953L36.7907 26.1744C37.1047 26.7209 37.3488 27.3023 37.5116 27.9186L39.093 28.1512C39.3721 28.1977 39.5814 28.4302 39.5814 28.7093V31.2791C39.5814 31.5581 39.3721 31.8023 39.093 31.8372L37.5116 32.0698C37.3488 32.6744 37.1047 33.2558 36.7907 33.814L37.7442 35.1047C37.907 35.3256 37.8954 35.6512 37.686 35.8488L35.8488 37.6744C35.6512 37.8721 35.3372 37.8954 35.1047 37.7326L33.814 36.7791C33.2674 37.093 32.686 37.3372 32.0698 37.5L31.8372 39.0814C31.814 39.3488 31.5698 39.5581 31.2907 39.5581ZM29.2093 38.4186H30.8023L31.0233 36.9419C31.0581 36.7093 31.2326 36.5233 31.4651 36.4651C32.2093 36.3023 32.9186 36 33.5698 35.593C33.7674 35.4651 34.0233 35.4767 34.2093 35.6163L35.407 36.5116L36.5349 35.3837L35.6395 34.186C35.5 34 35.4884 33.7442 35.6163 33.5465C36.0233 32.8953 36.3256 32.186 36.4884 31.4419C36.5349 31.2093 36.7326 31.0349 36.9651 31L38.4419 30.7791V29.186L36.9651 28.9651C36.7326 28.9302 36.5465 28.7558 36.4884 28.5233C36.3256 27.7791 36.0233 27.0698 35.6163 26.4186C35.4884 26.2209 35.5 25.9651 35.6395 25.7791L36.5349 24.5814L35.407 23.4535L34.2093 24.3488C34.0233 24.4884 33.7674 24.5 33.5698 24.3721C32.9186 23.9651 32.2093 23.6628 31.4651 23.5C31.2326 23.4535 31.0581 23.2558 31.0233 23.0233L30.8023 21.5465H29.2093L28.9884 23.0233C28.9535 23.2558 28.7791 23.4419 28.5465 23.5C27.8023 23.6628 27.093 23.9651 26.4419 24.3721C26.2442 24.5 25.9884 24.4884 25.8023 24.3488L24.6047 23.4535L23.4767 24.5814L24.3721 25.7791C24.5116 25.9651 24.5233 26.2209 24.3953 26.4186C23.9884 27.0698 23.686 27.7791 23.5233 28.5233C23.4767 28.7558 23.2791 28.9302 23.0465 28.9651L21.5698 29.186V30.7791L23.0465 31C23.2791 31.0349 23.4651 31.2093 23.5233 31.4419C23.686 32.186 23.9884 32.8953 24.3953 33.5465C24.5233 33.7442 24.5116 34 24.3721 34.186L23.4767 35.3837L24.6047 36.5116L25.8023 35.6163C25.9884 35.4767 26.2442 35.4651 26.4419 35.593C27.093 36 27.8023 36.3023 28.5465 36.4651C28.7791 36.5116 28.9535 36.7093 28.9884 36.9419L29.2093 38.4186ZM30 34.5581C27.4884 34.5581 25.4419 32.5116 25.4419 30C25.4419 27.4884 27.4884 25.4419 30 25.4419C32.5116 25.4419 34.5581 27.4884 34.5581 30C34.5581 32.5116 32.5116 34.5581 30 34.5581ZM30 26.5814C28.1163 26.5814 26.5814 28.1163 26.5814 30C26.5814 31.8837 28.1163 33.4186 30 33.4186C31.8837 33.4186 33.4186 31.8837 33.4186 30C33.4186 28.1163 31.8837 26.5814 30 26.5814Z" fill="url(#paint0_linear_866_11483)"/>
<defs>
<linearGradient id="paint0_linear_866_11483" x1="30" y1="5" x2="30" y2="55" gradientUnits="userSpaceOnUse">
<stop stop-color="#81319B"/>
<stop offset="0.48" stop-color="#00A99D"/>
<stop offset="1" stop-color="#0B2C4C"/>
</linearGradient>
</defs>
</svg>
