<svg width="30" height="30" viewBox="0 0 30 30" fill="none" xmlns="http://www.w3.org/2000/svg">
<path d="M14.9989 2.5C12.5268 2.50021 10.1102 3.23348 8.05471 4.60707C5.99926 5.98067 4.39727 7.93292 3.45131 10.2169C2.50534 12.501 2.25789 15.0142 2.74024 17.4389C3.22259 19.8635 4.41308 22.0907 6.16117 23.8388C7.90926 25.5869 10.1364 26.7774 12.5611 27.2598C14.9858 27.7421 17.499 27.4947 19.7831 26.5487C22.0671 25.6027 24.0193 24.0007 25.3929 21.9453C26.7665 19.8898 27.4998 17.4732 27.5 15.0011C27.4963 11.6867 26.178 8.5092 23.8344 6.1656C21.4908 3.82201 18.3133 2.50374 14.9989 2.5ZM14.9989 3.24857C17.2695 3.24818 19.4915 3.9056 21.3963 5.14133C23.3011 6.37706 24.8071 8.13817 25.7322 10.2117C26.6573 12.2852 26.9618 14.5823 26.609 16.8253C26.2562 19.0682 25.2611 21.1609 23.7441 22.8503C23.2412 21.3744 22.3728 20.0497 21.22 18.9997C20.0672 17.9497 18.6674 17.2086 17.151 16.8453C18.1585 16.3581 18.9709 15.5434 19.4553 14.5344C19.9397 13.5255 20.0673 12.3821 19.8174 11.2911C19.5675 10.2002 18.9548 9.22637 18.0795 8.52893C17.2042 7.83148 16.1181 7.45169 14.9989 7.45169C13.8797 7.45169 12.7937 7.83148 11.9184 8.52893C11.0431 9.22637 10.4304 10.2002 10.1804 11.2911C9.93052 12.3821 10.0582 13.5255 10.5426 14.5344C11.0269 15.5434 11.8393 16.3581 12.8469 16.8453C11.3305 17.2086 9.93069 17.9497 8.77787 18.9997C7.62505 20.0497 6.75671 21.3744 6.25375 22.8503C4.73676 21.1609 3.74169 19.0682 3.38888 16.8253C3.03606 14.5823 3.34062 12.2852 4.2657 10.2117C5.19079 8.13817 6.69679 6.37706 8.60159 5.14133C10.5064 3.9056 12.7284 3.24818 14.9989 3.24857ZM14.9989 16.5902H14.9932C13.8811 16.5886 12.8152 16.1456 12.0297 15.3585C11.2442 14.5714 10.8034 13.5045 10.8042 12.3925C10.8049 11.2805 11.2472 10.2143 12.0338 9.42826C12.8204 8.64221 13.8869 8.20066 14.9989 8.20066C16.111 8.20066 17.1775 8.64221 17.9641 9.42826C18.7506 10.2143 19.1929 11.2805 19.1937 12.3925C19.1945 13.5045 18.7536 14.5714 17.9681 15.3585C17.1826 16.1456 16.1167 16.5886 15.0047 16.5902H14.9989ZM6.8449 23.459C7.35782 21.6951 8.42894 20.1451 9.89754 19.0416C11.3661 17.9382 13.153 17.3407 14.99 17.3389H15.0079C16.8449 17.3407 18.6317 17.9382 20.1003 19.0416C21.5689 20.1451 22.6401 21.6951 23.153 23.459C20.9646 25.5724 18.0412 26.7535 14.9989 26.7535C11.9567 26.7535 9.03327 25.5724 6.8449 23.459Z" fill="url(#paint0_linear_57_8715)"/>
<defs>
<linearGradient id="paint0_linear_57_8715" x1="15" y1="2.5" x2="15" y2="27.5" gradientUnits="userSpaceOnUse">
<stop stop-color="#81319B"/>
<stop offset="0.475" stop-color="#00A99D"/>
<stop offset="1" stop-color="#0B2C4C"/>
</linearGradient>
</defs>
</svg>