<svg width="30" height="30" viewBox="0 0 30 30" fill="none" xmlns="http://www.w3.org/2000/svg">
<path fill-rule="evenodd" clip-rule="evenodd" d="M20.9082 8.92157C20.3809 8.92157 19.8828 8.42157 19.8828 7.89216C19.8828 7.33333 20.3516 6.86275 20.9082 6.86275C21.4844 6.86275 21.9336 7.31373 21.9336 7.89216C21.9336 8.45098 21.4648 8.92157 20.9082 8.92157ZM6.25977 20.2941C6.25488 20.2941 6.25488 20.2941 6.25 20.2941C6.09863 20.2892 5.9668 20.1863 5.92773 20.0392L4.6582 15.2353C4.60938 15.0539 4.7168 14.8627 4.90234 14.8137C5.08301 14.7647 5.27344 14.8726 5.32227 15.0588L6.28906 18.7157L7.45117 14.9951C7.49512 14.8529 7.62695 14.7549 7.77832 14.7549H7.7832C7.93457 14.7549 8.06641 14.8578 8.11035 15L9.19434 18.7108L10.2393 15.0049C10.293 14.8235 10.4785 14.7157 10.6592 14.7696C10.8398 14.8235 10.9473 15.0098 10.8936 15.1912L9.52637 20.0441C9.4873 20.1912 9.35059 20.2941 9.19922 20.2941C9.04785 20.2941 8.91602 20.1961 8.87207 20.049L7.77344 16.2843L6.59668 20.0588C6.54297 20.1961 6.41113 20.2941 6.25977 20.2941ZM13.4863 20.2941C13.4814 20.2941 13.4814 20.2941 13.4766 20.2941C13.3252 20.2892 13.1934 20.1863 13.1543 20.0392L11.8848 15.2353C11.8359 15.0539 11.9434 14.8627 12.1289 14.8137C12.3096 14.7647 12.5 14.8726 12.5488 15.0588L13.5156 18.7157L14.6777 14.9951C14.7217 14.8529 14.8535 14.7549 15.0049 14.7549C15.1562 14.7549 15.2881 14.8529 15.332 15L16.4502 18.7108L17.4561 15.0098C17.5049 14.8284 17.6953 14.7206 17.876 14.7696C18.0566 14.8186 18.1641 15.0098 18.1152 15.1912L16.7969 20.0441C16.7578 20.1912 16.626 20.2941 16.4697 20.299H16.4648C16.3135 20.299 16.1816 20.201 16.1377 20.0539L14.9951 16.2647L13.8135 20.0539C13.7695 20.1961 13.6377 20.2941 13.4863 20.2941ZM20.7129 20.2941C20.708 20.2941 20.708 20.2941 20.7031 20.2941C20.5518 20.2892 20.4199 20.1863 20.3809 20.0392L19.1113 15.2353C19.0625 15.0539 19.1699 14.8627 19.3555 14.8137C19.5361 14.7647 19.7266 14.8726 19.7754 15.0588L20.7422 18.7157L21.9043 14.9951C21.9482 14.8529 22.0801 14.7549 22.2314 14.7549C22.3828 14.7549 22.5146 14.8529 22.5586 15L23.6768 18.7108L24.6826 15.0098C24.7314 14.8284 24.9219 14.7206 25.1025 14.7696C25.2832 14.8186 25.3906 15.0098 25.3418 15.1912L24.0234 20.0441C23.9844 20.1912 23.8525 20.2941 23.6963 20.299H23.6914C23.54 20.299 23.4082 20.201 23.3643 20.0539L22.2217 16.2647L21.04 20.0539C20.9961 20.1961 20.8643 20.2941 20.7129 20.2941ZM24.4238 25H5.57617C3.88184 25 2.5 23.6127 2.5 21.9118V10.3922V8.08824C2.5 7.27941 2.81738 6.5098 3.39844 5.92157C3.98438 5.32843 4.75586 5 5.57617 5H24.4238C25.2441 5 26.0156 5.32843 26.6016 5.92157C27.1826 6.5098 27.5 7.27941 27.5 8.08824V10.3922V21.9118C27.5 23.6127 26.1182 25 24.4238 25ZM5.57617 5.68627C4.27734 5.68627 3.18359 6.78431 3.18359 8.08824V10.049H26.8164V8.08824C26.8164 6.78431 25.7227 5.68627 24.4238 5.68627H5.57617ZM3.18359 10.7353V21.9118C3.18359 23.2353 4.25781 24.3137 5.57617 24.3137H24.4238C25.7422 24.3137 26.8164 23.2353 26.8164 21.9118V10.7353H3.18359ZM11.1914 8.23529H9.28711C9.09668 8.23529 8.94531 8.08333 8.94531 7.89216C8.94531 7.70098 9.09668 7.54902 9.28711 7.54902H11.1914C11.3818 7.54902 11.5332 7.70098 11.5332 7.89216C11.5332 8.08333 11.3818 8.23529 11.1914 8.23529ZM15.293 8.23529H13.3887C13.1982 8.23529 13.0469 8.08333 13.0469 7.89216C13.0469 7.70098 13.1982 7.54902 13.3887 7.54902H15.293C15.4834 7.54902 15.6348 7.70098 15.6348 7.89216C15.6348 8.08333 15.4834 8.23529 15.293 8.23529ZM7.13867 8.23529H5.23438C5.04395 8.23529 4.89258 8.08333 4.89258 7.89216C4.89258 7.70098 5.04395 7.54902 5.23438 7.54902H7.13867C7.3291 7.54902 7.48047 7.70098 7.48047 7.89216C7.48047 8.08333 7.3291 8.23529 7.13867 8.23529ZM23.5938 8.92157C23.0371 8.92157 22.5684 8.45098 22.5684 7.89216C22.5684 7.31373 23.0176 6.86275 23.5938 6.86275C24.1699 6.86275 24.6191 7.31373 24.6191 7.89216C24.6191 8.45098 24.1504 8.92157 23.5938 8.92157ZM23.5938 7.54902C23.3936 7.54902 23.252 7.69118 23.252 7.89216C23.252 8.05392 23.3984 8.23529 23.5938 8.23529C23.7891 8.23529 23.9355 8.05392 23.9355 7.89216C23.9355 7.69118 23.7939 7.54902 23.5938 7.54902ZM20.9082 7.54902C20.7471 7.54902 20.5664 7.69608 20.5664 7.89216C20.5664 8.04412 20.7568 8.23529 20.9082 8.23529C21.1035 8.23529 21.25 8.05392 21.25 7.89216C21.25 7.69118 21.1084 7.54902 20.9082 7.54902Z" fill="url(#paint0_linear_1051_2865)"/>
<defs>
<linearGradient id="paint0_linear_1051_2865" x1="15" y1="5" x2="15" y2="25" gradientUnits="userSpaceOnUse">
<stop offset="0.01" stop-color="#81319B"/>
<stop offset="0.45" stop-color="#00A99D"/>
<stop offset="1" stop-color="#0B2C4C"/>
</linearGradient>
</defs>
</svg>
