<svg width="60" height="60" viewBox="0 0 60 60" fill="none" xmlns="http://www.w3.org/2000/svg">
<path d="M8.94531 49.973H34.7266C34.9609 49.973 35.1172 49.8145 35.1172 49.5767V29.8019C35.1172 29.5641 34.9609 29.4056 34.7266 29.4056H8.94531C8.71094 29.4056 8.55469 29.5641 8.55469 29.8019V49.5371C8.55469 49.7749 8.75 49.973 8.94531 49.973ZM9.33594 30.1981H34.3359V49.1408H9.33594V30.1981ZM50.0391 9.03626H27.4219C26.4453 9.03626 25.6641 9.82884 25.6641 10.8196C25.6641 11.8103 26.4453 12.6029 27.4219 12.6029H50.0391C51.0156 12.6029 51.7969 11.8103 51.7969 10.8196C51.7969 9.82884 51.0156 9.03626 50.0391 9.03626ZM50.0391 11.8103H27.4219C26.875 11.8103 26.4453 11.3744 26.4453 10.8196C26.4453 10.2648 26.875 9.82884 27.4219 9.82884H50.0391C50.5859 9.82884 51.0156 10.2648 51.0156 10.8196C51.0156 11.3744 50.5859 11.8103 50.0391 11.8103ZM9.96094 9.03626C8.98438 9.03626 8.20312 9.82884 8.20312 10.8196C8.20312 11.8103 8.98438 12.6029 9.96094 12.6029C10.9375 12.6029 11.7188 11.8103 11.7188 10.8196C11.7188 9.82884 10.8984 9.03626 9.96094 9.03626ZM9.96094 11.8103C9.41406 11.8103 8.98438 11.3744 8.98438 10.8196C8.98438 10.2648 9.41406 9.82884 9.96094 9.82884C10.5078 9.82884 10.9375 10.2648 10.9375 10.8196C10.9375 11.3744 10.4688 11.8103 9.96094 11.8103ZM14.8047 9.03626C13.8281 9.03626 13.0469 9.82884 13.0469 10.8196C13.0469 11.8103 13.8281 12.6029 14.8047 12.6029C15.7812 12.6029 16.5625 11.8103 16.5625 10.8196C16.5625 9.82884 15.7812 9.03626 14.8047 9.03626ZM14.8047 11.8103C14.2578 11.8103 13.8281 11.3744 13.8281 10.8196C13.8281 10.2648 14.2578 9.82884 14.8047 9.82884C15.3516 9.82884 15.7812 10.2648 15.7812 10.8196C15.7812 11.3744 15.3516 11.8103 14.8047 11.8103ZM19.6875 9.03626C18.7109 9.03626 17.9297 9.82884 17.9297 10.8196C17.9297 11.8103 18.7109 12.6029 19.6875 12.6029C20.6641 12.6029 21.4453 11.8103 21.4453 10.8196C21.4453 9.82884 20.6641 9.03626 19.6875 9.03626ZM19.6875 11.8103C19.1406 11.8103 18.7109 11.3744 18.7109 10.8196C18.7109 10.2648 19.1406 9.82884 19.6875 9.82884C20.2344 9.82884 20.6641 10.2648 20.6641 10.8196C20.6641 11.3744 20.2344 11.8103 19.6875 11.8103ZM55 9.94772C55 8.04553 53.4766 6.5 51.6016 6.5H8.39844C6.52344 6.5 5 8.04553 5 9.94772V50.0523C5 51.9545 6.52344 53.5 8.39844 53.5H51.6016C53.4766 53.5 55 51.9545 55 50.0523C55 48.1105 55 51.2411 55 9.94772ZM5.78125 9.94772C5.78125 8.48145 6.95312 7.29258 8.39844 7.29258H51.6016C53.0469 7.29258 54.2188 8.48145 54.2188 9.94772V14.3069H5.78125V9.94772ZM54.2188 50.0523C54.2188 51.5185 53.0469 52.7074 51.6016 52.7074H8.39844C6.95312 52.7074 5.78125 51.5185 5.78125 50.0523V15.0995H54.2188V50.0523ZM10.1562 26.5919H49.8438C50.7031 26.5919 51.4453 25.8786 51.4453 24.9671V20.0135C51.4453 19.1417 50.7422 18.3887 49.8438 18.3887H10.1562C9.29688 18.3887 8.55469 19.102 8.55469 20.0135V25.0067C8.55469 25.8786 9.29688 26.5919 10.1562 26.5919ZM50.6641 20.0135V25.0067C50.6641 25.4427 50.3125 25.839 49.8438 25.839H17.1484V19.1813H49.8047C50.2734 19.1813 50.6641 19.5379 50.6641 20.0135ZM9.33594 20.0135C9.33594 19.5776 9.6875 19.1813 10.1562 19.1813H16.3672V25.7993H10.1562C9.72656 25.7993 9.33594 25.4427 9.33594 24.9671V20.0135ZM13.5547 23.7386L14.375 24.5708C14.5312 24.7293 14.7656 24.7293 14.9219 24.5708C15.0781 24.4123 15.0781 24.1745 14.9219 24.016L14.1016 23.1838C14.5703 22.4705 14.4531 21.5194 13.8672 20.8853C13.1641 20.172 11.9922 20.172 11.2891 20.8853C10.5859 21.5986 10.5859 22.7875 11.2891 23.5008C11.875 24.0953 12.8125 24.2142 13.5547 23.7386ZM11.8359 21.4401C12.2266 21.0438 12.8906 21.0438 13.2812 21.4401C13.6719 21.8364 13.6719 22.5101 13.2812 22.9064C12.8906 23.3027 12.2266 23.3027 11.8359 22.9064C11.4453 22.5101 11.4453 21.8364 11.8359 21.4401ZM28.75 41.4528L31.1328 40.1847C31.4453 40.0261 31.4062 39.5506 31.0547 39.4317L22.7734 37.2521C22.6562 37.2125 22.5 37.2521 22.3828 37.371C22.2656 37.4899 22.2656 37.6088 22.3047 37.7673L24.8047 46.0497C24.9219 46.4064 25.3906 46.446 25.5469 46.0894L26.6797 43.6324L29.9609 46.8027C30.1172 46.9612 30.3516 46.9612 30.5078 46.8027L32.0312 45.1779C32.1875 45.0194 32.1875 44.7816 32.0312 44.6231L28.75 41.4528ZM30.1953 45.9705L26.8359 42.6813C26.6406 42.4831 26.3281 42.5624 26.2109 42.8002L25.2734 44.8609L23.2812 38.2032L29.8828 39.9469L27.8906 40.9772C27.6562 41.0961 27.6172 41.4132 27.8125 41.6113L31.2109 44.9005L30.1953 45.9705ZM51.0547 29.4056H38.2812C38.0469 29.4056 37.8906 29.5641 37.8906 29.8019V37.8862C37.8906 38.1239 38.0469 38.2825 38.2812 38.2825H51.0156C51.25 38.2825 51.4062 38.1239 51.4062 37.8862V29.8019C51.4453 29.6037 51.25 29.4056 51.0547 29.4056ZM50.6641 37.4899H38.6719V30.1981H50.625V37.4899H50.6641ZM51.0547 41.0961H38.2812C38.0469 41.0961 37.8906 41.2546 37.8906 41.4924V49.5767C37.8906 49.8145 38.0469 49.973 38.2812 49.973H51.0156C51.25 49.973 51.4062 49.8145 51.4062 49.5767V41.4924C51.4453 41.2943 51.25 41.0961 51.0547 41.0961ZM50.6641 49.1804H38.6719V41.8887H50.625V49.1804H50.6641Z" fill="url(#paint0_linear_866_11471)"/>
<defs>
<linearGradient id="paint0_linear_866_11471" x1="30" y1="6.5" x2="30" y2="53.5" gradientUnits="userSpaceOnUse">
<stop stop-color="#81319B"/>
<stop offset="0.48" stop-color="#00A99D"/>
<stop offset="1" stop-color="#0B2C4C"/>
</linearGradient>
</defs>
</svg>
