<svg width="34" height="34" viewBox="0 0 34 34" fill="none" xmlns="http://www.w3.org/2000/svg">
<path d="M19.3906 17C19.3906 18.3202 18.3202 19.3906 17 19.3906C15.6798 19.3906 14.6094 18.3202 14.6094 17C14.6094 15.6798 15.6798 14.6094 17 14.6094C18.3202 14.6094 19.3906 15.6798 19.3906 17Z" fill="white"/>
<path d="M21.0374 9.7749H12.9624C11.2047 9.7749 9.7749 11.2047 9.7749 12.9624V21.0374C9.7749 22.7951 11.2047 24.2249 12.9624 24.2249H21.0374C22.7951 24.2249 24.2249 22.7951 24.2249 21.0374V12.9624C24.2249 11.2047 22.7951 9.7749 21.0374 9.7749ZM16.9999 20.9843C14.8029 20.9843 13.0155 19.1969 13.0155 16.9999C13.0155 14.8029 14.8029 13.0155 16.9999 13.0155C19.1969 13.0155 20.9843 14.8029 20.9843 16.9999C20.9843 19.1969 19.1969 20.9843 16.9999 20.9843ZM21.5687 13.228C21.1285 13.228 20.7718 12.8713 20.7718 12.4312C20.7718 11.991 21.1285 11.6343 21.5687 11.6343C22.0088 11.6343 22.3655 11.991 22.3655 12.4312C22.3655 12.8713 22.0088 13.228 21.5687 13.228Z" fill="white"/>
<path d="M23.428 3.3999H10.5718C6.61729 3.3999 3.3999 6.61729 3.3999 10.5718V23.428C3.3999 27.3825 6.61729 30.5999 10.5718 30.5999H23.428C27.3825 30.5999 30.5999 27.3825 30.5999 23.428V10.5718C30.5999 6.61729 27.3825 3.3999 23.428 3.3999ZM25.8187 21.0374C25.8187 23.6737 23.6737 25.8187 21.0374 25.8187H12.9624C10.3261 25.8187 8.18115 23.6737 8.18115 21.0374V12.9624C8.18115 10.3261 10.3261 8.18115 12.9624 8.18115H21.0374C23.6737 8.18115 25.8187 10.3261 25.8187 12.9624V21.0374Z" fill="white"/>
</svg>
