<svg width="31" height="34" viewBox="0 0 31 34" fill="none" xmlns="http://www.w3.org/2000/svg">
<path d="M24.4022 3.40002H6.59174C5.28054 3.40154 4.02358 3.91397 3.09698 4.82474C2.17037 5.7355 1.6499 6.97012 1.6499 8.25737V25.7427C1.6499 27.0299 2.17037 28.2645 3.09698 29.1753C4.02358 30.0861 5.28054 30.5985 6.59174 30.6H24.4022C25.7144 30.6 26.9729 30.0883 27.9008 29.1773C28.8286 28.2664 29.3499 27.0309 29.3499 25.7427V8.25737C29.3499 6.96912 28.8286 5.73364 27.9008 4.82271C26.9729 3.91178 25.7144 3.40002 24.4022 3.40002ZM12.0827 23.0588H9.22038V13.9692H12.0827V23.0588ZM10.6398 12.7764C10.4161 12.7764 10.1946 12.733 9.98799 12.6488C9.78137 12.5646 9.59372 12.4411 9.43579 12.2856C9.27787 12.13 9.15277 11.9453 9.06769 11.7422C8.98261 11.5391 8.93921 11.3215 8.93998 11.1018C8.93921 10.8819 8.98257 10.664 9.06758 10.4606C9.15259 10.2571 9.27759 10.0721 9.43544 9.91605C9.59328 9.76002 9.78089 9.63604 9.98754 9.55119C10.1942 9.46635 10.4158 9.42228 10.6398 9.42153C11.0912 9.42456 11.5229 9.60312 11.8405 9.91807C12.158 10.233 12.3354 10.6587 12.3338 11.1018C12.3346 11.321 12.2914 11.5381 12.2067 11.7409C12.122 11.9436 11.9974 12.128 11.8401 12.2835C11.6828 12.439 11.4958 12.5626 11.2899 12.6472C11.084 12.7317 10.8631 12.7756 10.6398 12.7764ZM22.8309 23.0588H19.9744V18.2875C19.9744 16.98 19.4662 16.2459 18.4148 16.2459C17.2465 16.2459 16.6623 17.0086 16.6623 18.2875V23.0588H13.911V13.9692H16.6623V15.1964C16.9555 14.7302 17.3669 14.3466 17.8563 14.0832C18.3458 13.8199 18.8965 13.6857 19.4545 13.6939C21.4173 13.6939 22.825 14.8696 22.825 17.3068L22.8309 23.0588Z" fill="white"/>
</svg>
