<svg width="1390" height="378" viewBox="0 0 1390 378" fill="none" xmlns="http://www.w3.org/2000/svg">
<path d="M131.321 283C126.804 283 122.318 282.511 117.894 281.544C108.724 279.526 101.559 276.561 96.0452 272.504C90.0845 274.595 82.9816 276.155 74.8091 276.374C51.2573 277.008 29.9486 269.633 3.80068 248.434C2.48187 245.615 1.21497 242.63 0 239.499C25.1614 259.897 52.3996 271.787 74.6741 271.194C80.9982 271.027 86.6161 269.997 91.5072 268.541C85.4323 262.196 82.3793 253.906 82.4105 243.847C82.452 232.8 87.1457 227.807 91.071 225.55C96.6267 222.367 104.228 222.804 110.895 226.694C118.247 230.99 122.619 238.251 122.588 246.125C122.567 252.47 119.431 258.68 114.197 262.737C111.435 264.88 107.291 267.667 101.85 270.174C106.419 272.889 112.12 274.99 119.005 276.499C126.835 278.215 134.883 278.277 142.941 276.675C165.07 272.275 183.554 264.412 197.874 253.302C209.256 244.471 218.072 233.559 224.053 220.879C234.241 199.275 232.704 179.896 232.693 179.698V179.605C231.416 153.964 216.462 128.916 194.603 115.789C175.631 104.398 151.342 101.278 126.191 106.999C110.563 110.556 89.2953 118.992 76.7614 138.995C63.2617 160.538 66.917 187.292 78.0594 199.722C86.0035 208.595 101.237 205.391 113.47 202.822C114.851 202.53 116.201 202.25 117.499 201.99C130.667 199.368 184.042 174.289 184.25 174.216L185.382 178.481C184.53 178.783 132.037 204.382 118.507 207.076C117.219 207.336 115.89 207.607 114.529 207.898C100.999 210.738 84.1447 214.274 74.2068 203.186C67.0104 195.155 63.0228 183.578 62.9501 170.565C62.8878 158.416 66.3251 145.913 72.3792 136.249C85.8477 114.717 108.454 105.699 125.038 101.923C151.487 95.9001 177.137 99.2391 197.262 111.316C220.554 125.296 236.473 151.967 237.854 179.272C237.969 180.676 239.36 200.554 228.737 223.064C222.402 236.493 213.088 248.029 201.052 257.369C186.088 268.978 166.887 277.175 143.959 281.731C139.743 282.573 135.527 282.989 131.331 282.989L131.321 283ZM99.4305 228.587C97.3121 228.587 95.3286 229.066 93.636 230.033C89.7003 232.29 87.6027 237.065 87.5819 243.847C87.5507 253.542 90.583 261.052 96.9486 266.627C103.314 264.068 108.05 260.927 111.03 258.618C115.007 255.528 117.395 250.847 117.416 246.083C117.437 240.081 114.031 234.496 108.288 231.157C105.37 229.461 102.286 228.587 99.4305 228.587Z" fill="#81319B"/>
<path d="M100.23 275.188C100.199 275.251 99.4201 274.949 98.2778 274.242C97.1355 273.545 95.6402 272.463 94.0721 271.152C92.5145 269.831 91.1853 268.541 90.3234 267.511C89.4511 266.492 89.0565 265.743 89.1084 265.712C89.1707 265.67 89.6588 266.326 90.5934 267.262C91.5072 268.208 92.8572 269.446 94.4044 270.757C95.9517 272.057 97.3951 273.17 98.4751 273.94C99.5447 274.71 100.261 275.115 100.23 275.188Z" fill="#263238"/>
<path d="M105.661 272.151C105.661 272.203 104.726 272.109 103.325 271.558C101.923 271.027 100.116 269.998 98.3401 268.562C96.5643 267.127 95.1728 265.597 94.2694 264.412C93.3659 263.226 92.9506 262.394 93.0025 262.362C93.0752 262.321 93.5944 263.07 94.5498 264.183C95.5051 265.296 96.9174 266.752 98.6516 268.167C100.396 269.571 102.13 270.622 103.46 271.225C104.778 271.849 105.671 272.068 105.651 272.151H105.661Z" fill="#263238"/>
<path d="M84.9339 254.228C84.9339 254.228 84.7885 253.937 84.612 253.386C84.4251 252.834 84.2174 252.013 84.0097 250.993C83.5943 248.954 83.2932 246.073 83.5112 242.89C83.7397 239.707 84.4354 236.888 85.1416 234.933C85.4843 233.955 85.8062 233.175 86.0658 232.655C86.315 232.135 86.4708 231.854 86.5019 231.864C86.585 231.895 86.0762 233.081 85.4843 235.047C84.882 237.013 84.2485 239.801 84.0201 242.932C83.802 246.063 84.0512 248.902 84.3731 250.941C84.6951 252.98 85.0274 254.218 84.9443 254.239L84.9339 254.228Z" fill="white"/>
<path d="M72.0053 272.848C72.0053 272.91 71.0708 273.139 69.5027 273.285C67.9451 273.43 65.7539 273.451 63.3759 273.108C60.9979 272.764 58.9003 272.14 57.4464 271.568C55.9822 270.996 55.1411 270.507 55.1619 270.455C55.193 270.382 56.0861 270.746 57.5607 271.225C59.0353 271.703 61.1017 272.265 63.4486 272.598C65.7851 272.931 67.9347 272.972 69.4819 272.92C71.0292 272.868 71.995 272.764 72.0053 272.848Z" fill="white"/>
<path d="M215.175 238.376C215.227 238.417 214.676 239.301 213.659 240.643C212.641 241.985 211.156 243.774 209.36 245.626C207.563 247.467 205.819 249.006 204.5 250.057C203.181 251.108 202.319 251.69 202.277 251.638C202.236 251.576 203.015 250.9 204.261 249.787C205.507 248.674 207.21 247.103 208.986 245.272C210.762 243.441 212.288 241.704 213.368 240.425C214.448 239.145 215.102 238.344 215.164 238.386L215.175 238.376Z" fill="white"/>
<path d="M67.0624 185.388C67.0624 185.388 66.8443 184.91 66.5328 184.005C66.2109 183.11 65.837 181.779 65.4424 180.125C65.0374 178.471 64.6844 176.474 64.4248 174.227C64.1859 171.99 64.0509 169.504 64.1028 166.904C64.1859 164.303 64.4455 161.838 64.809 159.612C65.1932 157.397 65.6501 155.41 66.1382 153.777C66.6159 152.144 67.0624 150.843 67.4362 149.959C67.7893 149.075 68.0074 148.596 68.0385 148.607C68.0697 148.617 67.9243 149.127 67.6232 150.022C67.3116 150.916 66.917 152.227 66.4913 153.87C66.0551 155.503 65.6397 157.48 65.2763 159.685C64.944 161.89 64.6948 164.345 64.6221 166.914C64.5598 169.494 64.6844 171.949 64.8921 174.175C65.1309 176.401 65.4424 178.388 65.7955 180.042C66.1382 181.695 66.4601 183.027 66.7197 183.942C66.9689 184.858 67.0935 185.367 67.052 185.378L67.0624 185.388Z" fill="white"/>
<path d="M73.3346 138.694C73.4592 138.767 72.888 140.004 72.0677 141.471C71.2473 142.938 70.4788 144.061 70.3542 143.999C70.2296 143.926 70.8008 142.688 71.6211 141.221C72.4415 139.755 73.2099 138.631 73.3346 138.694Z" fill="white"/>
<path d="M257.906 181.425L248.675 133.899C248.301 131.964 246.432 130.705 244.5 131.08C242.569 131.454 241.312 133.326 241.686 135.261L242.101 137.425L223.005 142.126C218.737 143.177 215.507 146.266 214.084 150.094L202.568 152.934C198.58 153.922 196.14 157.958 197.116 161.953L198.155 166.165L186.877 168.943C183.752 169.712 181.83 172.885 182.609 176.016C183.378 179.147 186.545 181.071 189.671 180.291L200.948 177.514L201.748 180.77C202.734 184.764 206.763 187.208 210.751 186.231L222.475 183.339L222.454 183.256C225.476 185.825 229.63 186.969 233.773 185.95L250.72 181.768L250.918 182.788C251.292 184.722 253.161 185.981 255.092 185.607C257.024 185.232 258.28 183.36 257.906 181.425Z" fill="#81319B"/>
<path d="M257.907 181.425C257.907 181.425 258 181.685 258 182.226C257.99 182.746 257.865 183.599 257.19 184.431C256.546 185.243 255.238 185.991 253.68 185.679C252.922 185.523 252.143 185.107 251.572 184.41C251.292 184.067 251.053 183.651 250.918 183.193C250.783 182.725 250.721 182.268 250.617 181.779L250.752 181.872C247.294 182.736 243.109 183.786 238.311 184.982C237.107 185.284 235.871 185.596 234.594 185.908C233.327 186.241 231.946 186.512 230.533 186.48C227.709 186.46 224.728 185.419 222.34 183.401L222.662 183.204C222.662 183.204 222.672 183.256 222.683 183.287L222.735 183.474L222.548 183.516C218.591 184.473 214.448 185.575 209.983 186.584C207.667 186.896 205.164 186.075 203.472 184.296C202.61 183.422 201.987 182.32 201.634 181.123C201.312 179.938 201.042 178.762 200.74 177.555L201.021 177.722C197.926 178.492 194.759 179.272 191.519 180.073C190.699 180.26 189.92 180.51 189.037 180.634C188.165 180.738 187.262 180.655 186.42 180.385C184.717 179.854 183.284 178.502 182.641 176.807C181.955 175.121 182.121 173.114 183.056 171.522C183.959 169.91 185.725 168.807 187.511 168.516C191 167.653 194.541 166.779 198.124 165.895L197.937 166.207C197.729 165.344 197.501 164.449 197.282 163.534C197.075 162.629 196.774 161.703 196.711 160.694C196.566 158.718 197.22 156.72 198.466 155.222C199.089 154.474 199.847 153.839 200.699 153.381C201.54 152.903 202.506 152.653 203.399 152.445C207.013 151.561 210.564 150.677 214.064 149.824L213.887 149.98C214.905 147.234 216.847 144.904 219.266 143.416C220.481 142.688 221.79 142.137 223.14 141.825C224.469 141.502 225.777 141.18 227.086 140.857C232.299 139.578 237.304 138.351 242.081 137.175L241.915 137.435C241.8 136.873 241.696 136.301 241.593 135.75C241.468 135.209 241.375 134.575 241.478 133.982C241.655 132.786 242.434 131.735 243.472 131.194C244.511 130.653 245.788 130.632 246.816 131.142C247.854 131.62 248.623 132.598 248.872 133.69C249.672 137.83 250.43 141.762 251.146 145.455C252.559 152.84 253.794 159.3 254.812 164.626C255.819 169.941 256.608 174.123 257.148 177.004C257.408 178.419 257.605 179.521 257.751 180.281C257.813 180.634 257.865 180.915 257.896 181.123C257.927 181.311 257.938 181.404 257.938 181.415C257.938 181.425 257.907 181.321 257.865 181.134C257.823 180.926 257.761 180.655 257.688 180.302C257.533 179.542 257.315 178.45 257.024 177.046C256.453 174.175 255.622 169.993 254.563 164.688C253.514 159.362 252.247 152.913 250.793 145.538C250.066 141.846 249.298 137.924 248.488 133.794C248.27 132.827 247.584 131.964 246.66 131.537C245.746 131.09 244.614 131.121 243.701 131.6C242.776 132.078 242.091 133.014 241.946 134.065C241.852 134.595 241.935 135.105 242.06 135.677C242.174 136.239 242.278 136.801 242.392 137.362L242.434 137.57L242.226 137.622C237.46 138.808 232.444 140.046 227.241 141.336C224.656 142.054 221.873 142.366 219.567 143.853C217.252 145.289 215.382 147.535 214.406 150.178L214.365 150.302L214.24 150.334C210.751 151.197 207.189 152.071 203.586 152.965C202.672 153.184 201.81 153.402 201.01 153.849C200.221 154.276 199.505 154.869 198.923 155.566C197.76 156.96 197.137 158.832 197.282 160.673C197.345 161.588 197.636 162.504 197.843 163.43C198.072 164.345 198.29 165.24 198.497 166.103L198.56 166.353L198.311 166.415C194.728 167.299 191.187 168.173 187.698 169.026C185.943 169.328 184.416 170.305 183.554 171.793C182.692 173.259 182.547 175.09 183.17 176.651C183.762 178.211 185.081 179.449 186.649 179.938C187.428 180.187 188.248 180.27 189.048 180.177C189.837 180.062 190.668 179.813 191.478 179.625C194.718 178.825 197.895 178.055 200.99 177.295L201.218 177.243L201.27 177.472C201.571 178.668 201.841 179.875 202.153 181.019C202.485 182.143 203.067 183.193 203.866 184.005C205.455 185.69 207.812 186.47 209.993 186.179C214.365 185.201 218.581 184.109 222.517 183.162L222.371 183.401C222.371 183.401 222.361 183.339 222.35 183.318L222.205 182.725L222.662 183.121C224.967 185.097 227.854 186.116 230.606 186.147C231.987 186.189 233.306 185.939 234.583 185.607C235.86 185.295 237.107 184.993 238.311 184.702C243.119 183.537 247.314 182.517 250.772 181.675L250.887 181.643L250.907 181.758C251.001 182.236 251.074 182.725 251.198 183.152C251.333 183.578 251.541 183.973 251.811 184.306C252.34 184.972 253.078 185.378 253.794 185.534C255.269 185.846 256.536 185.149 257.18 184.379C257.844 183.589 257.99 182.767 258.021 182.247C258.042 181.716 257.969 181.446 257.99 181.446L257.907 181.425Z" fill="#263238"/>
<path d="M251.136 181.675C251.001 181.706 248.768 171.834 246.162 159.643C243.555 147.442 241.551 137.529 241.686 137.498C241.821 137.466 244.054 147.338 246.66 159.539C249.267 171.741 251.271 181.654 251.136 181.685V181.675Z" fill="#263238"/>
<path d="M222.465 183.245C222.33 183.277 220.346 175.87 218.041 166.696C215.736 157.521 213.981 150.053 214.116 150.022C214.251 149.99 216.234 157.397 218.539 166.571C220.845 175.746 222.6 183.214 222.465 183.245Z" fill="#263238"/>
<path d="M200.959 177.514C200.803 177.566 200.024 175.049 199.318 171.897C198.612 168.745 198.061 166.197 198.176 166.165C198.331 166.113 199.11 168.631 199.816 171.782C200.522 174.934 201.073 177.483 200.959 177.514Z" fill="#263238"/>
<path d="M211.198 152.82C211.198 152.892 210.086 153.069 208.3 153.433C207.407 153.621 206.348 153.86 205.185 154.182C204.032 154.505 202.776 154.921 201.592 155.607C200.419 156.283 199.359 157.147 199.069 158.26C198.747 159.362 198.902 160.465 199.006 161.36C199.235 163.17 199.536 164.262 199.463 164.283C199.401 164.303 198.975 163.232 198.653 161.412C198.508 160.507 198.3 159.383 198.622 158.125C198.788 157.501 199.162 156.887 199.65 156.408C200.138 155.919 200.72 155.524 201.343 155.16C202.589 154.442 203.887 154.037 205.071 153.725C206.255 153.423 207.324 153.225 208.238 153.08C210.055 152.799 211.198 152.757 211.198 152.82Z" fill="white"/>
<path d="M238.519 140.213C238.519 140.213 238.176 140.348 237.532 140.514C236.889 140.67 235.964 140.889 234.812 141.138C232.382 141.648 229.266 142.303 225.819 143.031C224.085 143.437 222.465 143.947 221.115 144.675C219.765 145.393 218.726 146.329 218.01 147.234C216.566 149.085 216.566 150.656 216.462 150.614C216.442 150.614 216.411 150.24 216.546 149.585C216.681 148.929 217.023 147.993 217.729 147.015C218.435 146.038 219.495 145.029 220.897 144.259C222.278 143.479 223.95 142.938 225.705 142.522C229.235 141.762 232.423 141.201 234.739 140.774C235.902 140.566 236.837 140.41 237.491 140.306C238.145 140.213 238.509 140.171 238.509 140.202L238.519 140.213Z" fill="white"/>
<path d="M196.192 168.745C196.223 168.797 195.486 169.223 194.188 169.546C192.89 169.9 191.052 170.045 189.11 170.461C188.144 170.68 187.241 170.971 186.504 171.377C185.756 171.772 185.164 172.261 184.728 172.739C183.855 173.696 183.689 174.528 183.606 174.497C183.554 174.497 183.606 173.592 184.458 172.5C184.884 171.959 185.496 171.408 186.285 170.961C187.075 170.513 188.009 170.18 189.006 169.962C191.01 169.536 192.838 169.452 194.115 169.203C195.403 168.974 196.171 168.683 196.192 168.755V168.745Z" fill="white"/>
<path d="M246.286 132.12C246.286 132.203 245.902 132.193 245.362 132.338C244.822 132.484 244.085 132.817 243.535 133.462C242.984 134.107 242.766 134.887 242.714 135.448C242.652 136.01 242.714 136.385 242.641 136.405C242.579 136.426 242.382 136.083 242.351 135.448C242.309 134.824 242.496 133.899 243.14 133.139C243.784 132.38 244.666 132.047 245.29 131.995C245.923 131.933 246.297 132.068 246.286 132.13V132.12Z" fill="white"/>
<path d="M1325.31 279C1323.27 279 1321.26 278.723 1319.26 278.128C1299.78 272.287 1300.79 258.214 1301.6 246.912C1302.36 236.37 1302.38 229.739 1293.7 226.475C1282.22 222.164 1277.48 226.352 1270.33 232.696C1261.8 240.25 1251.19 249.653 1225.47 245.834C1212.1 243.853 1190.64 236.801 1164.28 214.445C1148.6 201.152 1138.73 188.885 1138.31 188.372L1142.3 185.17C1142.69 185.662 1182.03 234.225 1226.22 240.774C1249.58 244.243 1258.81 236.073 1266.95 228.857C1274.24 222.39 1281.13 216.282 1295.49 221.681C1308.19 226.455 1307.39 237.52 1306.69 247.272C1305.87 258.696 1305.17 268.561 1320.73 273.221C1338.25 278.477 1361.3 250.669 1375.09 234.05C1380 228.128 1383.42 223.837 1386.15 221.61L1390 224.679C1388.3 226.773 1383.56 231.833 1379.01 237.315C1364.98 254.241 1344.45 278.99 1325.31 278.99V279Z" fill="#81319B"/>
<path d="M1253.06 238.536C1253.06 238.536 1252.86 238.731 1252.45 238.988C1252.04 239.255 1251.43 239.604 1250.65 239.994C1249.09 240.774 1246.83 241.667 1244.21 242.211C1241.6 242.745 1239.16 242.837 1237.42 242.735C1236.55 242.683 1235.85 242.611 1235.37 242.519C1234.89 242.437 1234.62 242.375 1234.63 242.345C1234.63 242.262 1235.71 242.365 1237.43 242.375C1239.15 242.386 1241.54 242.242 1244.11 241.718C1246.68 241.185 1248.93 240.374 1250.51 239.676C1252.09 238.988 1253.03 238.464 1253.07 238.536H1253.06Z" fill="white"/>
<path d="M1283.04 223.088C1283.02 223.17 1282.38 223.047 1281.37 223.036C1280.34 223.016 1278.93 223.149 1277.46 223.652C1276 224.166 1274.8 224.925 1274.01 225.572C1273.21 226.218 1272.79 226.701 1272.73 226.65C1272.69 226.619 1273.01 226.044 1273.77 225.305C1274.53 224.566 1275.76 223.714 1277.3 223.17C1278.84 222.646 1280.34 222.554 1281.39 222.667C1282.44 222.78 1283.06 223.026 1283.04 223.077V223.088Z" fill="white"/>
<path d="M1142.85 189.491C1140.66 191.903 1136.94 192.078 1134.53 189.891L1125.54 181.71L1133.46 172.975L1142.45 181.156C1144.86 183.353 1145.03 187.079 1142.85 189.491Z" fill="#81319B"/>
<path d="M1142.85 189.491C1142.85 189.491 1143.23 189.05 1143.68 188.116C1144.12 187.202 1144.53 185.631 1143.96 183.835C1143.69 182.942 1143.13 182.049 1142.33 181.3C1141.48 180.54 1140.57 179.729 1139.61 178.867C1137.68 177.132 1135.56 175.202 1133.29 173.16L1133.63 173.139C1132.36 174.535 1131.04 176.003 1129.68 177.512C1128.32 179.011 1126.98 180.479 1125.71 181.875L1125.69 181.526C1127.95 183.589 1130.06 185.529 1131.97 187.284C1132.92 188.157 1133.82 188.988 1134.65 189.758C1135.47 190.497 1136.41 190.959 1137.32 191.144C1139.17 191.544 1140.69 190.979 1141.56 190.456C1142.44 189.912 1142.81 189.46 1142.85 189.491C1142.85 189.491 1142.53 189.994 1141.65 190.6C1140.79 191.185 1139.22 191.831 1137.26 191.452C1136.3 191.277 1135.28 190.805 1134.4 190.035C1133.55 189.275 1132.65 188.465 1131.69 187.602C1129.76 185.868 1127.64 183.938 1125.36 181.895L1125.18 181.731L1125.34 181.546C1126.61 180.14 1127.94 178.682 1129.3 177.173C1130.66 175.675 1131.99 174.207 1133.27 172.811L1133.43 172.626L1133.61 172.79C1135.87 174.853 1137.98 176.793 1139.89 178.549C1140.83 179.421 1141.73 180.253 1142.56 181.023C1143.41 181.833 1143.99 182.798 1144.24 183.743C1144.81 185.652 1144.3 187.284 1143.81 188.198C1143.3 189.132 1142.83 189.501 1142.83 189.501L1142.85 189.491Z" fill="#263238"/>
<path d="M1097.37 140.179L1081.87 127.327C1080.65 126.321 1080.48 124.515 1081.49 123.293C1082.49 122.072 1084.29 121.908 1085.51 122.914L1101.03 135.765L1097.38 140.179H1097.37Z" fill="#E8505B"/>
<path d="M1082.8 158.943L1067.28 146.091C1066.06 145.086 1065.9 143.279 1066.9 142.057C1067.91 140.836 1069.71 140.672 1070.93 141.678L1086.45 154.529L1082.8 158.943Z" fill="#E8505B"/>
<g opacity="0.6">
<path d="M1097.37 140.179L1081.87 127.327C1080.65 126.321 1080.48 124.515 1081.49 123.293C1082.49 122.072 1084.29 121.908 1085.51 122.914L1101.03 135.765L1097.38 140.179H1097.37Z" fill="white"/>
</g>
<g opacity="0.6">
<path d="M1082.8 158.943L1067.28 146.091C1066.06 145.086 1065.9 143.279 1066.9 142.057C1067.91 140.836 1069.71 140.672 1070.93 141.678L1086.45 154.529L1082.8 158.943Z" fill="white"/>
</g>
<path d="M1097.37 140.179C1097.37 140.179 1097.45 140.045 1097.61 139.84C1097.79 139.594 1098.03 139.296 1098.31 138.937C1098.95 138.126 1099.82 137.028 1100.9 135.662L1100.92 135.878C1098.97 134.287 1096.49 132.265 1093.63 129.935C1092.2 128.754 1090.67 127.492 1089.07 126.178C1088.27 125.521 1087.45 124.843 1086.62 124.156C1086.2 123.807 1085.78 123.468 1085.36 123.119C1084.97 122.801 1084.5 122.585 1083.99 122.523C1083.13 122.411 1082.23 122.77 1081.69 123.417C1081.14 124.053 1080.93 124.956 1081.14 125.757C1081.23 126.157 1081.43 126.527 1081.69 126.824C1081.95 127.122 1082.31 127.379 1082.63 127.656C1083.29 128.2 1083.94 128.734 1084.56 129.257C1087.05 131.351 1089.3 133.25 1091.2 134.852C1093.06 136.432 1094.59 137.736 1095.7 138.691C1096.2 139.122 1096.61 139.481 1096.93 139.758C1097.22 140.004 1097.36 140.148 1097.36 140.169C1097.36 140.189 1097.22 140.076 1096.93 139.861C1096.6 139.604 1096.19 139.286 1095.69 138.886C1094.55 137.972 1093.01 136.73 1091.11 135.201C1089.15 133.609 1086.85 131.731 1084.29 129.647C1083.65 129.124 1082.99 128.58 1082.33 128.025C1082 127.738 1081.64 127.502 1081.31 127.132C1080.99 126.773 1080.77 126.332 1080.66 125.86C1080.41 124.915 1080.66 123.837 1081.31 123.078C1081.96 122.308 1083.02 121.877 1084.05 122.01C1084.65 122.082 1085.23 122.339 1085.68 122.719C1086.1 123.068 1086.52 123.417 1086.94 123.766C1087.77 124.453 1088.58 125.131 1089.38 125.798C1090.97 127.122 1092.48 128.395 1093.92 129.586C1096.74 131.957 1099.19 134.02 1101.11 135.642L1101.24 135.745L1101.13 135.857C1099.98 137.202 1099.04 138.29 1098.36 139.091C1098.06 139.419 1097.82 139.696 1097.63 139.912C1097.47 140.097 1097.38 140.179 1097.37 140.169V140.179Z" fill="#263238"/>
<path d="M1082.8 158.943C1082.8 158.943 1082.88 158.81 1083.03 158.604C1083.22 158.358 1083.45 158.06 1083.73 157.701C1084.38 156.89 1085.25 155.792 1086.32 154.426L1086.34 154.642C1084.4 153.051 1081.92 151.029 1079.06 148.699C1077.62 147.518 1076.1 146.256 1074.5 144.942C1073.7 144.285 1072.88 143.607 1072.05 142.92C1071.63 142.581 1071.21 142.232 1070.79 141.883C1070.4 141.565 1069.93 141.349 1069.41 141.288C1068.55 141.175 1067.66 141.534 1067.12 142.181C1066.56 142.817 1066.36 143.72 1066.56 144.521C1066.66 144.921 1066.85 145.291 1067.12 145.588C1067.37 145.886 1067.73 146.143 1068.06 146.42C1068.72 146.964 1069.36 147.498 1069.99 148.021C1072.48 150.115 1074.72 152.014 1076.63 153.616C1078.48 155.196 1080.01 156.5 1081.13 157.455C1081.63 157.886 1082.04 158.245 1082.36 158.522C1082.64 158.768 1082.79 158.912 1082.79 158.933C1082.79 158.953 1082.64 158.84 1082.36 158.625C1082.03 158.368 1081.62 158.05 1081.12 157.65C1079.98 156.736 1078.43 155.494 1076.54 153.965C1074.58 152.374 1072.27 150.495 1069.72 148.411C1069.07 147.888 1068.42 147.344 1067.75 146.789C1067.42 146.502 1067.07 146.266 1066.74 145.896C1066.42 145.537 1066.19 145.096 1066.08 144.624C1065.84 143.679 1066.08 142.601 1066.74 141.842C1067.38 141.072 1068.45 140.641 1069.47 140.774C1070.08 140.846 1070.65 141.103 1071.1 141.483C1071.52 141.832 1071.94 142.181 1072.36 142.53C1073.19 143.217 1074 143.895 1074.8 144.562C1076.39 145.886 1077.91 147.159 1079.34 148.35C1082.16 150.721 1084.61 152.784 1086.54 154.406L1086.66 154.509L1086.56 154.621C1085.4 155.966 1084.47 157.054 1083.78 157.855C1083.49 158.183 1083.25 158.461 1083.05 158.676C1082.89 158.861 1082.81 158.943 1082.8 158.933V158.943Z" fill="#263238"/>
<path d="M1132.63 156.418L1133.04 155.925C1134.97 153.585 1134.64 150.126 1132.31 148.196C1130.28 146.512 1127.41 146.543 1125.43 148.114L1102.71 129.175L1076.73 160.308L1099.98 178.816C1098.49 181.125 1098.93 184.225 1101.09 186.011C1103.39 187.91 1106.77 187.623 1108.72 185.375C1115.53 190.507 1125.21 189.327 1130.57 182.634L1134.3 177.974C1139.54 171.435 1138.73 162.012 1132.64 156.418H1132.63Z" fill="#81319B"/>
<path d="M1132.63 156.418C1132.63 156.418 1132.7 156.479 1132.83 156.592C1132.96 156.726 1133.14 156.89 1133.37 157.116C1133.61 157.331 1133.89 157.639 1134.2 158.019C1134.35 158.204 1134.53 158.409 1134.71 158.635C1134.87 158.871 1135.04 159.118 1135.22 159.384C1135.94 160.452 1136.71 161.868 1137.22 163.665C1137.73 165.451 1138.06 167.627 1137.77 170.008C1137.47 172.38 1136.65 174.997 1134.95 177.348C1134.12 178.528 1133.15 179.647 1132.2 180.869C1131.24 182.059 1130.29 183.373 1129.06 184.502C1126.66 186.802 1123.28 188.393 1119.57 188.711C1115.87 189.05 1111.84 188.033 1108.58 185.57L1108.88 185.539C1107.97 186.596 1106.63 187.335 1105.15 187.479C1103.69 187.643 1102.12 187.192 1100.94 186.206C1099.94 185.375 1099.18 184.143 1098.95 182.768C1098.71 181.402 1098.99 179.904 1099.77 178.692L1099.82 179.021C1094.13 174.494 1088.08 169.67 1081.83 164.702C1080.07 163.295 1078.31 161.899 1076.58 160.514L1076.37 160.349L1076.54 160.154C1086 148.832 1094.85 138.249 1102.55 129.042L1102.69 128.877L1102.86 129.021C1111.9 136.597 1119.61 143.074 1125.52 148.021H1125.33C1126.4 147.18 1127.7 146.8 1128.91 146.831C1130.12 146.841 1131.23 147.282 1132.07 147.888C1133.8 149.14 1134.4 151.06 1134.37 152.476C1134.34 153.934 1133.79 154.971 1133.36 155.566C1133.13 155.864 1132.96 156.079 1132.83 156.213C1132.7 156.356 1132.63 156.428 1132.62 156.428C1132.59 156.428 1132.87 156.12 1133.29 155.525C1133.69 154.919 1134.2 153.893 1134.21 152.476C1134.21 151.09 1133.6 149.253 1131.92 148.062C1131.1 147.488 1130.05 147.077 1128.89 147.077C1127.74 147.067 1126.5 147.436 1125.5 148.237L1125.4 148.309L1125.31 148.237C1119.38 143.31 1111.63 136.884 1102.55 129.35L1102.86 129.319C1095.18 138.537 1086.34 149.14 1076.89 160.472L1076.85 160.113C1078.59 161.499 1080.34 162.895 1082.11 164.301C1088.35 169.28 1094.41 174.104 1100.09 178.631L1100.26 178.775L1100.14 178.959C1099.42 180.068 1099.17 181.433 1099.38 182.685C1099.59 183.948 1100.27 185.077 1101.2 185.837C1102.27 186.74 1103.72 187.161 1105.06 187.017C1106.41 186.884 1107.65 186.206 1108.49 185.241L1108.64 185.077L1108.81 185.211C1111.98 187.613 1115.89 188.619 1119.49 188.3C1123.11 188.003 1126.4 186.463 1128.77 184.235C1129.98 183.147 1130.91 181.854 1131.88 180.663C1132.83 179.452 1133.82 178.323 1134.64 177.173C1136.33 174.884 1137.14 172.328 1137.46 169.998C1137.77 167.648 1137.47 165.512 1136.99 163.747C1136.5 161.961 1135.76 160.555 1135.07 159.487C1134.9 159.22 1134.73 158.974 1134.58 158.727C1134.4 158.512 1134.24 158.307 1134.09 158.112C1133.79 157.722 1133.52 157.414 1133.28 157.167C1133.06 156.931 1132.89 156.757 1132.76 156.613C1132.65 156.49 1132.6 156.428 1132.6 156.428L1132.63 156.418Z" fill="#263238"/>
<path d="M1106.64 157.063L1090.61 143.79L1088.02 146.93L1104.04 160.203L1106.64 157.063Z" fill="#E0E0E0"/>
<path d="M1132.63 156.418C1132.63 156.418 1132.35 156.87 1131.78 157.639C1131.21 158.399 1130.36 159.497 1129.29 160.832C1127.16 163.511 1124.15 167.155 1120.8 171.138C1117.47 175.09 1114.47 178.672 1112.21 181.351C1111.16 182.603 1110.28 183.64 1109.6 184.441C1108.98 185.17 1108.62 185.56 1108.6 185.539C1108.57 185.519 1108.87 185.087 1109.45 184.318C1110.02 183.558 1110.87 182.46 1111.94 181.125C1114.07 178.446 1117.07 174.802 1120.42 170.809C1123.75 166.857 1126.76 163.275 1129.01 160.596C1130.07 159.343 1130.95 158.307 1131.63 157.506C1132.25 156.777 1132.61 156.387 1132.63 156.408V156.418Z" fill="#263238"/>
<path d="M1125.43 148.124C1125.43 148.124 1125.12 148.596 1124.49 149.397C1123.87 150.197 1122.96 151.347 1121.81 152.753C1119.51 155.566 1116.29 159.405 1112.71 163.613C1109.14 167.781 1105.9 171.558 1103.49 174.381C1102.35 175.705 1101.4 176.793 1100.68 177.625C1100.02 178.385 1099.63 178.795 1099.61 178.775C1099.59 178.754 1099.91 178.302 1100.54 177.502C1101.17 176.701 1102.08 175.551 1103.23 174.145C1105.52 171.333 1108.74 167.494 1112.33 163.285C1115.89 159.117 1119.12 155.34 1121.54 152.517C1122.68 151.193 1123.63 150.105 1124.35 149.274C1125.02 148.514 1125.4 148.103 1125.43 148.124Z" fill="#263238"/>
<g clip-path="url(#clip0_49555_294824)">
<path d="M663.402 111.241C662.669 111.241 661.931 111.122 661.219 110.875L649.945 106.976C647.694 106.197 646.017 104.263 645.567 101.928L643.313 90.2333C642.863 87.8988 643.702 85.4816 645.503 83.9249L654.524 76.1286C656.324 74.5719 658.84 74.089 661.092 74.8676L672.367 78.7675C674.617 79.5456 676.295 81.4799 676.746 83.8148L679 95.5101C679.449 97.8441 678.61 100.261 676.81 101.818L667.788 109.614C666.557 110.679 664.989 111.241 663.402 111.241ZM652.727 100.157L663.262 103.8L671.691 96.5153L669.585 85.5871L659.05 81.943L650.621 89.228L652.727 100.157Z" fill="#F5F5F5"/>
<path d="M794.937 77.2774C794.204 77.2774 793.466 77.1575 792.755 76.9111L787.047 74.9379C784.796 74.1588 783.119 72.2241 782.669 69.8892L781.529 63.9707C781.078 61.6375 781.916 59.2204 783.717 57.6632L788.286 53.7156C790.087 52.1589 792.603 51.676 794.854 52.4551L800.56 54.4292C802.811 55.2074 804.489 57.1421 804.939 59.4775L806.079 65.3956C806.528 67.731 805.69 70.1468 803.891 71.7031L799.323 75.6506C798.091 76.7151 796.524 77.2774 794.937 77.2774ZM789.83 68.1183L794.797 69.8362L798.772 66.4017L797.778 61.2488L792.811 59.5305L788.836 62.965L789.83 68.1183Z" fill="#F5F5F5"/>
<path d="M952.625 163.887C951.168 163.887 949.764 163.228 948.838 162.076L945.623 158.072C944.544 156.729 944.261 154.896 944.887 153.291L946.754 148.509C947.379 146.904 948.829 145.745 950.535 145.483L955.617 144.705C957.318 144.443 959.052 145.117 960.133 146.461L963.348 150.465C964.428 151.809 964.71 153.641 964.084 155.246L962.217 160.028C961.591 161.632 960.142 162.792 958.436 163.054L953.354 163.831C953.111 163.869 952.867 163.887 952.625 163.887ZM956.35 148.326C956.292 148.326 956.233 148.331 956.176 148.34L951.093 149.117C950.684 149.18 950.337 149.458 950.187 149.843L948.32 154.624C948.17 155.009 948.237 155.45 948.497 155.772L951.712 159.776C951.971 160.099 952.395 160.26 952.795 160.197L957.878 159.42C958.287 159.357 958.634 159.079 958.784 158.693L960.651 153.912C960.801 153.527 960.734 153.087 960.474 152.765L957.259 148.761C957.037 148.485 956.7 148.326 956.35 148.326Z" fill="#E0E0E0"/>
<path d="M378.959 203.832C377.087 203.832 375.282 202.985 374.093 201.503L366.537 192.097C365.15 190.369 364.788 188.015 365.593 185.952L369.978 174.717C370.783 172.654 372.645 171.165 374.837 170.829L386.777 169.001C388.973 168.666 391.193 169.53 392.581 171.258L400.136 180.665C401.523 182.391 401.885 184.746 401.081 186.809L396.696 198.044C395.891 200.108 394.029 201.598 391.836 201.934L379.896 203.761C379.584 203.809 379.27 203.832 378.959 203.832ZM371.645 188.17L379.044 197.382L390.735 195.593L395.029 184.591L387.629 175.38L375.938 177.17L371.645 188.17Z" fill="#E0E0E0"/>
<path d="M409.514 121.449H402.394C400.668 121.449 399.059 120.523 398.196 119.03L394.636 112.875C393.773 111.383 393.773 109.53 394.636 108.038L398.196 101.883C399.059 100.39 400.668 99.4637 402.394 99.4637H409.514C411.24 99.4637 412.849 100.39 413.712 101.882L417.273 108.038C418.136 109.53 418.136 111.383 417.273 112.875L413.712 119.031C412.849 120.523 411.24 121.449 409.514 121.449ZM402.394 103.14C401.979 103.14 401.593 103.363 401.386 103.721L397.826 109.876C397.619 110.234 397.619 110.679 397.826 111.037L401.386 117.192C401.593 117.55 401.979 117.773 402.394 117.773H409.514C409.929 117.773 410.315 117.55 410.523 117.192L414.083 111.037C414.29 110.679 414.29 110.234 414.083 109.876L410.523 103.721C410.315 103.363 409.929 103.14 409.514 103.14H402.394Z" fill="#EBEBEB"/>
<path d="M530.971 51.9245L517.087 43.204L500.04 14.4915L476.329 0L471.739 4.96063L474.151 8.19162L481.631 18.2123L511.351 58.0273L523.47 64.683L530.971 51.9245Z" fill="#EBEBEB"/>
<path d="M513.525 72.5692L509.548 59.3453L465.878 9.55212L460.055 12.9905L469.275 39.1713L494.626 64.0237L500.307 79.5458L513.525 72.5692Z" fill="#EBEBEB"/>
<path d="M537.176 54.3884C537.176 54.3884 586.49 81.4003 596.425 90.5196C606.359 99.639 629.57 137.604 627.213 142.453C624.856 147.302 623.052 147.926 617.702 143.262C612.352 138.598 595.065 112.544 590.417 108.335C585.769 104.126 528.008 70.3022 528.008 70.3022L537.176 54.3884Z" fill="#E0E0E0"/>
<path d="M503.746 65.9576C512.371 65.9576 519.363 58.9789 519.363 50.3702C519.363 41.7616 512.371 34.7828 503.746 34.7828C495.121 34.7828 488.129 41.7616 488.129 50.3702C488.129 58.9789 495.121 65.9576 503.746 65.9576Z" fill="#EBEBEB"/>
<path d="M499.818 65.4564C499.831 65.375 501.16 65.8289 503.632 65.8488C504.864 65.8778 506.378 65.683 508.054 65.1978C509.726 64.7041 511.559 63.8464 513.279 62.4816C514.986 61.1191 516.616 59.2672 517.688 56.9219C518.74 54.5892 519.378 51.8151 519.061 48.9349C518.944 47.4964 518.581 46.0442 518.008 44.6481C517.75 43.936 517.367 43.2733 517.01 42.5902C516.585 41.9468 516.18 41.281 515.662 40.6872C513.701 38.2267 510.837 36.3837 507.617 35.5165C504.381 34.7075 500.979 34.9248 498.065 36.1207C497.323 36.3879 496.643 36.7722 495.958 37.1278C495.313 37.551 494.655 37.9438 494.082 38.44C492.901 39.3813 491.875 40.4734 491.071 41.6734C489.388 44.0348 488.592 46.7684 488.373 49.3173C488.165 51.887 488.686 54.2971 489.512 56.3165C490.349 58.3446 491.532 59.9846 492.751 61.2281C493.978 62.4661 495.205 63.3722 496.295 63.9456C498.464 65.1294 499.846 65.3789 499.818 65.4564C499.816 65.4644 499.732 65.4466 499.57 65.4041C499.381 65.3515 499.145 65.2856 498.852 65.2037C498.534 65.1206 498.147 65.0011 497.708 64.8045C497.264 64.623 496.745 64.4256 496.206 64.1091C495.089 63.5536 493.826 62.6578 492.56 61.4161C491.302 60.1692 490.075 58.5113 489.199 56.4475C488.335 54.3925 487.781 51.9275 487.976 49.2898C488.183 46.6736 488.986 43.8617 490.707 41.4236C491.529 40.1857 492.581 39.0574 493.794 38.0843C494.384 37.5722 495.059 37.1647 495.723 36.7279C496.427 36.3589 497.127 35.9627 497.891 35.6851C500.89 34.4473 504.402 34.2178 507.738 35.0533C511.057 35.9456 514.012 37.8526 516.027 40.3914C516.558 41.0047 516.976 41.6911 517.411 42.3553C517.777 43.0593 518.168 43.7436 518.433 44.4772C519.018 45.9166 519.386 47.4131 519.501 48.8936C519.814 51.8591 519.144 54.7053 518.048 57.0905C516.932 59.4893 515.246 61.3731 513.488 62.7479C511.717 64.1253 509.837 64.9771 508.129 65.4548C506.417 65.9239 504.877 66.0928 503.63 66.0351C503.005 66.0495 502.455 65.9697 501.979 65.9123C501.5 65.8709 501.103 65.7869 500.785 65.7051C500.488 65.6341 500.25 65.5769 500.06 65.5313C499.898 65.4896 499.816 65.4644 499.818 65.4564Z" fill="#E0E0E0"/>
<path d="M501.528 58.8886C496.815 57.6657 493.987 52.8607 495.212 48.1561C496.437 43.4516 501.251 40.6292 505.965 41.8519C510.678 43.0748 513.506 47.8799 512.281 52.5844C511.056 57.289 506.242 60.1114 501.528 58.8886Z" fill="#E0E0E0"/>
<path d="M501.528 58.8886C501.539 58.8288 502.293 59.0711 503.682 59.0696C505.045 59.0654 507.14 58.6933 509.083 57.1509C510.036 56.3842 510.944 55.3457 511.54 54.0329C512.125 52.7272 512.478 51.1765 512.298 49.5689C512.232 48.7658 512.027 47.9553 511.707 47.1765C511.398 46.3924 510.957 45.6395 510.395 44.9672C509.3 43.5949 507.702 42.5682 505.906 42.084C504.1 41.633 502.203 41.753 500.576 42.4191C499.757 42.733 499.005 43.1766 498.352 43.7114C497.692 44.2359 497.118 44.8447 496.668 45.5141C495.726 46.8308 495.278 48.3572 495.152 49.7818C495.032 51.2179 495.319 52.5668 495.777 53.6994C496.722 55.9908 498.37 57.3338 499.559 58C500.771 58.6764 501.547 58.831 501.528 58.8886C501.528 58.8886 500.736 58.8031 499.469 58.1634C498.229 57.5336 496.488 56.1941 495.464 53.8302C494.968 52.6622 494.648 51.2583 494.755 49.7542C494.869 48.2624 495.324 46.6575 496.304 45.2642C496.773 44.557 497.372 43.912 498.064 43.3557C498.749 42.7892 499.539 42.3181 500.402 41.9836C502.114 41.2756 504.121 41.1432 506.026 41.6208C507.922 42.1301 509.61 43.2209 510.76 44.6714C511.35 45.3827 511.81 46.1782 512.132 47.0056C512.465 47.8278 512.674 48.6824 512.738 49.5276C512.914 51.2206 512.528 52.8433 511.9 54.2016C511.26 55.5676 510.296 56.6383 509.293 57.4173C507.245 58.9845 505.071 59.3087 503.68 59.2559C502.261 59.1988 501.528 58.8886 501.528 58.8886Z" fill="#E0E0E0"/>
<path d="M521.178 62.4893L527.557 51.4087C529.426 48.1618 533.585 47.0404 536.838 48.9061L537.435 49.2487C540.688 51.1145 541.812 55.2654 539.942 58.5125L533.563 69.5931C531.694 72.8401 527.535 73.9614 524.282 72.0957L523.685 71.7532C520.432 69.8874 519.308 65.7364 521.178 62.4893Z" fill="#EBEBEB"/>
<path d="M521.178 62.4893C521.247 62.5136 520.627 63.3399 520.413 65.0778C520.323 65.9388 520.399 67.0228 520.823 68.1759C521.051 68.7447 521.359 69.327 521.777 69.8812C522.207 70.4249 522.743 70.9352 523.384 71.3587C524.037 71.7652 524.753 72.2033 525.54 72.46C526.333 72.7243 527.21 72.8472 528.109 72.7839C529.902 72.6665 531.774 71.7303 532.969 70.0962C535.084 66.5708 537.326 62.538 539.734 58.3948C540.898 56.3776 540.871 53.824 539.765 51.9277C539.241 50.9656 538.464 50.1767 537.577 49.6113C536.664 49.0312 535.746 48.5343 534.744 48.3568C532.76 47.9528 530.738 48.5127 529.341 49.6415C527.897 50.7414 527.256 52.4208 526.409 53.7422C524.83 56.4218 523.543 58.6052 522.623 60.1663C522.185 60.8884 521.836 61.4653 521.572 61.9008C521.327 62.2948 521.192 62.4976 521.178 62.4893C521.163 62.4812 521.271 62.2622 521.488 61.8528C521.733 61.406 522.056 60.8142 522.461 60.0736C523.349 58.494 524.591 56.2848 526.115 53.5737C526.504 52.8879 526.911 52.1708 527.334 51.4245C527.765 50.6632 528.347 49.9257 529.093 49.331C530.564 48.1207 532.71 47.5052 534.832 47.9243C535.899 48.1061 536.901 48.6433 537.823 49.2258C538.774 49.826 539.61 50.6696 540.175 51.6985C541.364 53.7258 541.401 56.4694 540.15 58.6333C537.73 62.7947 535.515 66.7619 533.325 70.3568C532.04 72.095 530.036 73.0736 528.136 73.1799C527.183 73.2383 526.255 73.0983 525.42 72.8095C524.572 72.5171 523.87 72.0725 523.196 71.6399C522.528 71.1857 521.974 70.6415 521.534 70.0652C521.106 69.4782 520.796 68.8647 520.571 68.2685C520.154 67.0603 520.107 65.9373 520.228 65.0558C520.348 64.1676 520.628 63.5255 520.813 63.0999C521.037 62.6895 521.164 62.4813 521.178 62.4893Z" fill="#E0E0E0"/>
<path d="M502.141 87.3895C502.141 87.3895 520.824 140.348 528.224 151.615C535.623 162.881 569.379 191.914 574.556 190.381C579.733 188.849 580.643 187.174 576.902 181.146C573.161 175.119 550.217 153.858 546.812 148.596C543.407 143.334 519.363 80.9482 519.363 80.9482L502.141 87.3895Z" fill="#E0E0E0"/>
<path d="M500.76 77.4319L512.75 72.9518C516.264 71.6387 520.185 73.4203 521.501 76.928L521.742 77.5717C523.058 81.0785 521.273 84.9914 517.76 86.3041L505.768 90.7849C502.254 92.0978 498.333 90.3163 497.018 86.8091L496.776 86.1653C495.461 82.6581 497.246 78.7448 500.76 77.4319Z" fill="#EBEBEB"/>
<path d="M512.751 72.9514C512.745 72.9365 512.971 72.8457 513.413 72.6918C513.864 72.5788 514.545 72.4072 515.442 72.4336C516.333 72.4574 517.436 72.6869 518.562 73.2939C519.115 73.612 519.671 74.017 520.182 74.5342C520.68 75.0616 521.128 75.6956 521.468 76.4266C521.786 77.1609 522.112 77.9246 522.263 78.8078C522.413 79.6769 522.4 80.6133 522.187 81.5421C521.773 83.3969 520.48 85.2109 518.553 86.1942C514.643 87.7661 510.361 89.3023 505.854 91.0083C503.511 91.8885 500.805 91.4067 498.994 89.9055C498.069 89.1821 497.371 88.2214 496.932 87.1868C496.506 86.1842 496.138 85.1104 496.132 84.0295C496.063 81.8715 497.02 79.8585 498.456 78.6069C499.165 77.9692 499.989 77.5157 500.811 77.2153C501.618 76.9196 502.393 76.6355 503.134 76.3639C506.062 75.3037 508.448 74.4398 510.154 73.8222C510.952 73.544 511.589 73.3217 512.071 73.1538C512.511 73.006 512.745 72.9359 512.751 72.9514C512.757 72.9668 512.534 73.0672 512.105 73.2442C511.631 73.4331 511.004 73.6834 510.219 73.9966C508.526 74.6489 506.159 75.5612 503.253 76.6809C501.809 77.3006 500.044 77.6588 498.722 78.9013C497.379 80.0934 496.497 81.9943 496.573 84.0141C496.586 85.029 496.928 86.0137 497.353 87.0071C497.768 87.9731 498.421 88.8669 499.287 89.5392C500.982 90.9363 503.502 91.3788 505.685 90.56C510.173 88.8628 514.524 87.3107 518.353 85.8008C520.163 84.89 521.393 83.198 521.8 81.4513C522.009 80.577 522.03 79.6931 521.898 78.8687C521.772 78.0518 521.456 77.2752 521.16 76.5666C520.845 75.8666 520.428 75.256 519.96 74.7437C519.481 74.2415 518.955 73.8435 518.43 73.5266C517.359 72.9217 516.3 72.6709 515.434 72.6197C513.681 72.5478 512.763 73.0233 512.751 72.9514Z" fill="#E0E0E0"/>
<path d="M984 377.761C984 377.893 843.63 378 670.515 378C497.4 378 357 377.893 357 377.761C357 377.629 497.34 377.521 670.515 377.521C843.69 377.521 984 377.629 984 377.761Z" fill="#263238"/>
<path d="M405.954 272.613C406.209 271.843 434.901 178.227 434.901 178.227L434.183 166.601L441.687 154.268L451.007 157.341L449.732 171.165L443.108 181.217L414.205 275.274L405.954 272.613Z" fill="#E0E0E0"/>
<path d="M405.954 272.614C405.954 272.614 406.148 272.665 406.508 272.775C406.88 272.89 407.409 273.054 408.102 273.268C409.506 273.709 411.561 274.355 414.231 275.194L414.124 275.249C418.792 259.976 429.589 224.648 442.883 181.148L442.893 181.116L442.911 181.088C445.009 177.903 447.255 174.493 449.533 171.035L449.495 171.143C449.901 166.734 450.332 162.056 450.769 157.319L450.932 157.568C450.689 157.488 450.425 157.401 450.162 157.314C447.287 156.366 444.435 155.426 441.612 154.495L441.891 154.392C439.34 158.583 436.833 162.702 434.385 166.724L434.418 166.587C434.662 170.551 434.9 174.43 435.132 178.213L435.134 178.255L435.122 178.295C426.736 205.492 419.473 229.048 414.302 245.818C411.701 254.204 409.628 260.89 408.199 265.497C407.483 267.789 406.929 269.56 406.549 270.775C406.36 271.368 406.216 271.822 406.114 272.143C406.014 272.452 405.954 272.614 405.954 272.614C405.954 272.614 405.99 272.464 406.077 272.161C406.171 271.844 406.303 271.396 406.476 270.811C406.84 269.602 407.369 267.84 408.055 265.561C409.451 260.957 411.477 254.274 414.018 245.893C419.15 229.07 426.358 205.442 434.679 178.16L434.67 178.241C434.435 174.459 434.194 170.58 433.947 166.616L433.943 166.542L433.981 166.479C436.428 162.456 438.933 158.336 441.482 154.145L441.581 153.982L441.762 154.042C444.585 154.972 447.437 155.912 450.312 156.859C450.576 156.946 450.84 157.033 451.082 157.113L451.264 157.173L451.246 157.363C450.809 162.099 450.377 166.777 449.969 171.187L449.964 171.246L449.931 171.296C447.651 174.753 445.403 178.162 443.304 181.346L443.332 181.286C429.905 224.745 419.001 260.039 414.286 275.299L414.261 275.382L414.179 275.355C411.502 274.469 409.441 273.788 408.033 273.322C407.353 273.094 406.834 272.919 406.47 272.797C406.121 272.678 405.954 272.614 405.954 272.614Z" fill="#263238"/>
<path d="M399.028 277.164L386.142 294.557L368.122 359.8C368.122 359.8 365.531 373.108 380.259 376.889C396.798 381.135 400.612 368.49 400.612 368.49L418.134 304.77L417.871 282.656L422.197 277.795C423.067 276.817 422.65 275.269 421.405 274.859L400.714 268.039C399.463 267.627 398.201 268.634 398.328 269.942L399.028 277.164Z" fill="#00A99D"/>
<path d="M418.018 283.425C417.978 283.551 413.641 282.29 408.332 280.608C403.021 278.926 398.75 277.461 398.79 277.335C398.83 277.209 403.166 278.47 408.477 280.152C413.786 281.834 418.058 283.299 418.018 283.425Z" fill="#263238"/>
<path d="M418.134 304.77C418.126 304.802 417.667 304.719 416.843 304.542C416.018 304.367 414.831 304.088 413.37 303.721C410.447 302.988 406.432 301.878 402.05 300.483C397.668 299.085 393.751 297.667 390.944 296.574C389.54 296.027 388.41 295.569 387.636 295.234C386.862 294.902 386.44 294.703 386.452 294.673C386.465 294.642 386.91 294.782 387.704 295.061C388.583 295.374 389.71 295.775 391.062 296.256C393.896 297.267 397.822 298.632 402.196 300.027C406.569 301.419 410.561 302.578 413.457 303.394C414.838 303.783 415.99 304.108 416.888 304.362C417.698 304.594 418.142 304.738 418.134 304.77Z" fill="#263238"/>
<g opacity="0.3">
<path d="M392.51 301.291L392.068 301.16C390.457 300.684 388.765 301.602 388.288 303.21L372.11 357.747C371.634 359.355 372.553 361.044 374.163 361.52L374.606 361.651C376.216 362.127 377.909 361.209 378.386 359.602L394.563 305.064C395.04 303.456 394.121 301.767 392.51 301.291Z" fill="black"/>
</g>
<g opacity="0.3">
<path d="M401.698 304.311L401.256 304.18C399.645 303.704 397.953 304.621 397.476 306.229L381.295 360.766C380.818 362.373 381.737 364.063 383.348 364.539L383.79 364.669C385.401 365.146 387.093 364.228 387.57 362.621L403.751 308.084C404.228 306.476 403.309 304.787 401.698 304.311Z" fill="black"/>
</g>
<g opacity="0.3">
<path d="M411.448 307.192L411.005 307.061C409.395 306.585 407.702 307.502 407.226 309.11L391.047 363.648C390.57 365.255 391.489 366.945 393.1 367.421L393.543 367.551C395.153 368.027 396.845 367.11 397.322 365.502L413.501 310.964C413.978 309.357 413.058 307.668 411.448 307.192Z" fill="black"/>
</g>
<path d="M443.019 181.19C442.975 181.315 441.139 180.795 438.917 180.028C436.695 179.261 434.929 178.538 434.972 178.413C435.015 178.288 436.852 178.809 439.074 179.576C441.296 180.343 443.062 181.066 443.019 181.19Z" fill="#263238"/>
<path d="M451.007 157.341C451.035 157.349 450.919 157.804 450.683 158.63C450.417 159.523 450.066 160.703 449.637 162.145C448.687 165.195 447.398 169.337 445.93 174.055L445.858 174.285L445.629 174.205C444.26 173.729 442.841 173.235 441.387 172.73C439.886 172.204 438.422 171.691 437.017 171.199L436.809 171.126L436.868 170.916C438.201 166.192 439.369 162.05 440.229 159C440.651 157.571 440.997 156.4 441.259 155.514C441.509 154.701 441.659 154.261 441.686 154.268C441.714 154.276 441.618 154.73 441.417 155.557C441.19 156.452 440.889 157.635 440.521 159.08C439.702 162.141 438.589 166.299 437.321 171.04L437.172 170.757C438.578 171.246 440.043 171.756 441.545 172.278C442.998 172.787 444.416 173.283 445.784 173.762L445.483 173.913C447.013 169.215 448.357 165.09 449.347 162.053C449.83 160.628 450.227 159.462 450.526 158.58C450.811 157.77 450.98 157.332 451.007 157.341Z" fill="#263238"/>
<path d="M722.614 63.8453C721.88 63.8453 721.143 63.7254 720.431 63.479L709.156 59.5797C706.907 58.8015 705.228 56.8682 704.778 54.534L702.524 42.8371C702.073 40.503 702.913 38.0851 704.715 36.5287L713.735 28.7325C715.536 27.1775 718.055 26.6937 720.303 27.4719L731.578 31.3718C733.829 32.1499 735.507 34.0846 735.957 36.42L738.21 48.1139C738.66 50.4507 737.82 52.8672 736.019 54.4227L726.999 62.218C725.768 63.2825 724.201 63.8453 722.614 63.8453ZM711.938 52.76L722.474 56.4036L730.902 49.1191L728.796 38.1914L718.261 34.5473L709.832 41.8318L711.938 52.76Z" fill="#E0E0E0"/>
<path d="M711.938 52.7599C711.925 52.7715 711.861 52.5209 711.751 52.0325C711.636 51.4928 711.482 50.7756 711.289 49.8773C710.892 47.9304 710.337 45.2053 709.657 41.8655C709.644 41.8018 709.67 41.7373 709.715 41.6973C712.111 39.6087 714.968 37.1181 718.113 34.3768C718.175 34.3221 718.261 34.3091 718.335 34.3342C721.596 35.4577 725.159 36.6852 728.873 37.9646C728.734 37.8033 729.066 38.1852 729.032 38.147L729.033 38.1499L729.034 38.1555L729.036 38.1667L729.04 38.1892L729.049 38.2342L729.066 38.3241L729.101 38.5038L729.17 38.8624L729.307 39.577C729.399 40.0519 729.489 40.5243 729.58 40.9937C729.76 41.9326 729.938 42.8599 730.113 43.7736C730.461 45.6005 730.799 47.3732 731.124 49.0763C731.14 49.1578 731.109 49.2387 731.05 49.2897C727.882 52.0043 725.019 54.4573 722.59 56.5379C722.542 56.581 722.473 56.5911 722.415 56.5716C719.2 55.4218 716.577 54.4837 714.704 53.8135C713.84 53.4945 713.151 53.2399 712.633 53.0482C712.164 52.87 711.925 52.7715 711.938 52.7599C711.951 52.7484 712.217 52.8243 712.708 52.9782C713.24 53.1501 713.948 53.3785 714.834 53.6645C716.705 54.2892 719.323 55.1636 722.532 56.2355L722.357 56.269C724.767 54.1677 727.609 51.6903 730.754 48.9485L730.68 49.1616C730.349 47.4596 730.004 45.6883 729.649 43.8627C729.472 42.9493 729.292 42.0223 729.111 41.0838C729.02 40.6144 728.929 40.1422 728.837 39.6673L728.699 38.9529L728.63 38.5943L728.595 38.4146L728.578 38.3246L728.569 38.2797L728.565 38.2571L728.563 38.2459L728.562 38.2403L728.561 38.2375C728.527 38.1969 728.857 38.5789 728.716 38.4168C725.005 37.1283 721.445 35.892 718.187 34.7603L718.408 34.7178C715.241 37.4321 712.362 39.8981 709.949 41.9662L710.007 41.7982C710.611 45.1213 711.103 47.8327 711.455 49.7695C711.612 50.6859 711.737 51.4176 711.832 51.968C711.914 52.4754 711.951 52.7483 711.938 52.7599Z" fill="#263238"/>
<path d="M722.614 63.8452C722.613 63.8205 723.014 63.8364 723.754 63.6984C724.483 63.5562 725.582 63.2283 726.699 62.3447C728.885 60.4337 732.006 57.705 735.853 54.3422C736.81 53.5306 737.557 52.3894 737.915 51.0735C738.089 50.4151 738.165 49.7175 738.128 49.0116C738.085 48.3134 737.898 47.5901 737.764 46.8468C737.186 43.8847 736.569 40.7217 735.92 37.3943C735.758 36.5523 735.625 35.7314 735.251 34.9734C734.898 34.2124 734.386 33.5139 733.754 32.9342C733.122 32.3533 732.364 31.8982 731.539 31.6052C730.682 31.3092 729.817 31.0103 728.944 30.7088C727.196 30.1057 725.418 29.4919 723.614 28.8691C722.712 28.5574 721.803 28.2434 720.888 27.9274C719.97 27.5801 719.084 27.3411 718.123 27.3462C717.178 27.3515 716.238 27.5537 715.392 27.9488C714.528 28.3265 713.84 28.9468 713.114 29.5844C711.67 30.8312 710.246 32.0599 708.847 33.2672C707.451 34.4739 706.08 35.6592 704.737 36.8202C703.46 37.9737 702.717 39.62 702.637 41.2567C702.575 42.0801 702.751 42.8718 702.909 43.6922C703.064 44.5039 703.216 45.3047 703.367 46.094C703.667 47.6723 703.958 49.2048 704.239 50.687C704.527 52.1611 704.776 53.6173 705.067 54.9584C705.423 56.274 706.173 57.4174 707.128 58.2252C707.603 58.6321 708.125 58.9614 708.667 59.2087C709.206 59.4496 709.785 59.6256 710.327 59.8233C711.417 60.2073 712.446 60.5698 713.41 60.9093C715.326 61.5885 716.981 62.1751 718.345 62.6591C719.705 63.1241 720.733 63.5729 721.474 63.6985C722.213 63.8369 722.615 63.8214 722.614 63.8452C722.614 63.8452 722.213 63.9029 721.457 63.7934C720.693 63.6948 719.65 63.2717 718.284 62.8351C716.912 62.3725 715.249 61.8115 713.323 61.1621C712.355 60.8335 711.322 60.4826 710.227 60.111C709.68 59.9172 709.115 59.7538 708.535 59.5021C707.963 59.2477 707.412 58.9067 706.908 58.4829C705.897 57.6415 705.095 56.4435 704.71 55.0547C704.397 53.6625 704.148 52.2463 703.849 50.762C703.56 49.2812 703.261 47.7503 702.953 46.1736C702.799 45.3849 702.643 44.5849 702.485 43.7738C702.328 42.9771 702.132 42.1136 702.196 41.2344C702.275 39.4854 703.063 37.7229 704.427 36.4828C705.771 35.3162 707.143 34.1252 708.54 32.9127C709.937 31.7035 711.359 30.4731 712.802 29.2244C713.169 28.9127 713.51 28.598 713.909 28.286C714.307 27.9866 714.736 27.7275 715.19 27.5152C716.099 27.0906 717.108 26.8729 718.123 26.8675C719.134 26.8538 720.158 27.1365 721.045 27.4757C721.96 27.7923 722.868 28.1069 723.77 28.4193C725.574 29.0443 727.351 29.6604 729.097 30.2657C729.971 30.5692 730.836 30.8701 731.694 31.1681C732.578 31.4841 733.389 31.9743 734.064 32.5977C734.739 33.2201 735.284 33.9689 735.66 34.7842C736.057 35.596 736.199 36.4923 736.354 37.3111C736.988 40.6414 737.59 43.8071 738.154 46.7719C738.283 47.5122 738.468 48.233 738.511 48.9905C738.546 49.7385 738.461 50.4763 738.272 51.1704C737.886 52.557 737.083 53.7574 736.075 54.598C732.183 57.915 729.026 60.6063 726.814 62.4912C725.647 63.377 724.516 63.6796 723.77 63.7934C723.015 63.9023 722.614 63.8452 722.614 63.8452Z" fill="#263238"/>
<path d="M644.129 44.7115C642.672 44.7115 641.268 44.0527 640.342 42.8998L637.127 38.8971C636.047 37.5527 635.765 35.7198 636.392 34.1145L638.257 29.3338C638.884 27.7285 640.334 26.5689 642.04 26.3076L647.12 25.5299C648.828 25.2705 650.557 25.9418 651.637 27.2856L654.852 31.2891C655.931 32.6331 656.214 34.4655 655.588 36.0707L653.721 40.8525C653.095 42.4578 651.646 43.6174 649.94 43.8786L644.859 44.6564C644.616 44.6936 644.371 44.7115 644.129 44.7115ZM647.854 29.1506C647.796 29.1506 647.737 29.1551 647.679 29.1641L642.598 29.9418C642.188 30.0042 641.84 30.2829 641.689 30.6684L639.824 35.4488C639.674 35.8347 639.741 36.275 640.001 36.5977L643.216 40.6003C643.475 40.9234 643.891 41.0845 644.3 41.0222L649.381 40.2444C649.791 40.182 650.139 39.9038 650.289 39.5183L652.155 34.737C652.306 34.3519 652.237 33.9117 651.978 33.5886L648.763 29.5855C648.541 29.309 648.204 29.1506 647.854 29.1506Z" fill="#E0E0E0"/>
<path d="M647.854 29.1507C647.852 29.1394 647.992 29.1021 648.25 29.1689C648.377 29.2054 648.532 29.2718 648.684 29.3987C648.839 29.5322 648.96 29.7018 649.122 29.8828C649.793 30.6875 650.674 31.7439 651.738 33.0191C651.877 33.1891 652.019 33.3627 652.163 33.5398C652.317 33.7499 652.408 34.0116 652.419 34.2836C652.438 34.5584 652.323 34.84 652.24 35.0498C652.153 35.2785 652.064 35.5112 651.974 35.7477C651.611 36.6987 651.224 37.7089 650.819 38.7691C650.716 39.0351 650.613 39.3042 650.508 39.5761C650.393 39.895 650.142 40.1855 649.822 40.3418C649.475 40.5076 649.167 40.494 648.875 40.5565C648.574 40.6035 648.27 40.6509 647.963 40.6988C646.719 40.8849 645.503 41.0969 644.127 41.2742C643.729 41.2752 643.338 41.1014 643.078 40.8064C642.871 40.5502 642.666 40.2957 642.463 40.0429C642.062 39.5429 641.668 39.0501 641.28 38.5655C640.894 38.081 640.514 37.6049 640.141 37.138L639.864 36.7899C639.766 36.6747 639.661 36.5091 639.606 36.3493C639.485 36.0236 639.5 35.652 639.627 35.3469C640.047 34.2922 640.447 33.2871 640.824 32.3409C641.012 31.8722 641.194 31.4182 641.369 30.9801C641.463 30.7702 641.52 30.5404 641.68 30.3163C641.833 30.1051 642.044 29.9476 642.274 29.8574C644.045 29.5342 645.385 29.4087 646.357 29.2723C647.313 29.153 647.851 29.1042 647.854 29.1507C647.852 29.1701 647.726 29.1847 647.477 29.2439C647.171 29.3035 646.812 29.3734 646.385 29.4565C645.456 29.6401 644.013 29.847 642.401 30.171C642.232 30.2424 642.078 30.3635 641.97 30.5216C641.864 30.6664 641.804 30.8932 641.714 31.1142C641.547 31.5556 641.373 32.0129 641.194 32.485C640.831 33.4362 640.444 34.4466 640.039 35.507C639.95 35.729 639.946 35.9718 640.028 36.1946C640.095 36.402 640.315 36.6086 640.499 36.852C640.874 37.3164 641.257 37.7901 641.647 38.2721C642.037 38.7553 642.433 39.2465 642.835 39.7451C643.033 39.991 643.234 40.2386 643.435 40.488C643.605 40.6815 643.865 40.7962 644.126 40.7956C645.416 40.6038 646.674 40.4165 647.892 40.2352C648.199 40.1892 648.503 40.1435 648.805 40.0983C649.106 40.042 649.425 40.0354 649.619 39.9322C649.836 39.8255 650.003 39.6421 650.089 39.4131C650.196 39.1421 650.302 38.874 650.407 38.6091C650.827 37.5545 651.227 36.5496 651.604 35.6036C651.698 35.3689 651.791 35.1378 651.882 34.9105C651.981 34.6699 652.057 34.4963 652.049 34.2931C652.045 34.0951 651.983 33.9015 651.874 33.7447C651.738 33.5699 651.604 33.3985 651.474 33.2307C650.458 31.9168 649.617 30.8284 648.976 29.9993C648.479 29.1222 647.83 29.1938 647.854 29.1507Z" fill="#263238"/>
<path d="M644.129 44.7116C644.129 44.6951 644.343 44.6626 644.744 44.6168C645.194 44.5384 645.777 44.4369 646.502 44.3107C647.285 44.1792 648.217 44.0228 649.288 43.843C649.836 43.7504 650.408 43.6838 650.964 43.4373C651.524 43.2091 652.067 42.8488 652.534 42.3713C653.002 41.8892 653.379 41.2961 653.623 40.5942C653.894 39.8879 654.176 39.1543 654.467 38.3955C654.968 36.8581 655.999 35.2882 655.625 33.5301C655.473 32.661 655.072 31.8536 654.442 31.1442C653.841 30.3979 653.227 29.6362 652.602 28.8609C652.289 28.473 651.974 28.0816 651.656 27.6872C651.342 27.2816 651.027 26.938 650.628 26.6409C649.845 26.0535 648.857 25.7145 647.851 25.7164C647.356 25.7068 646.845 25.8229 646.323 25.8939C645.806 25.9726 645.293 26.0508 644.784 26.1285C643.771 26.2856 642.773 26.4404 641.792 26.5926C640.865 26.7965 640.02 27.2818 639.397 27.9509C639.085 28.2843 638.825 28.6596 638.626 29.0594C638.436 29.4523 638.278 29.9081 638.107 30.3269C637.771 31.1776 637.444 32.0077 637.125 32.8147C636.826 33.631 636.434 34.3894 636.319 35.1527C636.056 36.7204 636.658 38.1808 637.576 39.1866C638.429 40.2684 639.203 41.2511 639.889 42.1226C640.237 42.5515 640.525 42.9755 640.857 43.2894C641.187 43.6103 641.531 43.8603 641.863 44.0451C643.22 44.7724 644.148 44.6423 644.129 44.7116C644.129 44.7198 644.076 44.7266 643.97 44.7316C643.865 44.7384 643.708 44.7355 643.502 44.7179C643.095 44.679 642.48 44.5714 641.774 44.209C641.422 44.0299 641.055 43.7811 640.7 43.4545C640.336 43.1278 640.034 42.7067 639.68 42.2899C638.977 41.4316 638.184 40.4637 637.312 39.3984C636.356 38.3926 635.648 36.7834 635.926 35.0917C636.052 34.2349 636.446 33.4722 636.733 32.662C637.045 31.8525 637.366 31.0201 637.695 30.1669C637.868 29.738 638.008 29.3139 638.222 28.8611C638.438 28.4207 638.721 28.0069 639.063 27.639C639.743 26.901 640.67 26.3623 641.692 26.1345C642.703 25.9566 643.688 25.8201 644.712 25.6578C645.221 25.5796 645.734 25.5007 646.25 25.4214C646.761 25.3528 647.285 25.2304 647.851 25.2379C648.962 25.2359 650.052 25.6105 650.914 26.2601C651.345 26.5768 651.723 26.9952 652.026 27.3912C652.343 27.7866 652.657 28.1788 652.968 28.5677C653.59 29.3454 654.201 30.1096 654.8 30.8583C655.442 31.5847 655.911 32.5155 656.06 33.455C656.225 34.3974 656.105 35.3601 655.766 36.1942C655.447 36.9995 655.137 37.7821 654.838 38.5395C654.538 39.2948 654.247 40.0251 653.968 40.7282C653.707 41.4523 653.282 42.1071 652.775 42.6091C651.763 43.647 650.409 44.0207 649.329 44.1075C648.253 44.2564 647.317 44.3859 646.53 44.4949C645.761 44.5944 645.166 44.6824 644.756 44.7125C644.343 44.7283 644.129 44.7281 644.129 44.7116Z" fill="#263238"/>
<path d="M733.839 32.7134C733.933 32.7959 732.908 34.1766 731.468 35.7422C730.026 37.3112 728.654 38.3785 728.569 38.279C728.481 38.178 729.689 36.9693 731.116 35.4171C732.543 33.8653 733.734 32.6218 733.839 32.7134Z" fill="#263238"/>
<path d="M716.572 27.4286C716.693 27.3865 717.328 28.9205 717.804 30.9049C718.285 32.8888 718.419 34.5427 718.291 34.5604C718.157 34.5805 717.813 32.9772 717.338 31.0169C716.867 29.0561 716.443 27.4717 716.572 27.4286Z" fill="#263238"/>
<path d="M709.707 41.6471C709.654 41.7728 708.101 41.2284 706.168 40.634C704.235 40.034 702.646 39.6075 702.673 39.4739C702.697 39.3483 704.351 39.5688 706.309 40.1767C708.269 40.7795 709.759 41.5298 709.707 41.6471Z" fill="#263238"/>
<path d="M707.74 57.5914C707.639 57.5067 708.482 56.3322 709.623 54.9687C710.765 53.6046 711.772 52.5678 711.874 52.6526C711.976 52.7373 711.133 53.9114 709.991 55.2755C708.85 56.6391 707.842 57.6761 707.74 57.5914Z" fill="#263238"/>
<path d="M723.251 62.6258C723.12 62.6461 722.83 61.319 722.603 59.6617C722.376 58.0041 722.298 56.648 722.43 56.6326C722.561 56.617 722.851 57.944 723.078 59.5969C723.305 61.2493 723.382 62.6055 723.251 62.6258Z" fill="#263238"/>
<path d="M736.352 50.8473C736.304 50.9706 735.088 50.6188 733.635 50.0615C732.182 49.5041 731.043 48.9524 731.09 48.8289C731.138 48.7057 732.354 49.0573 733.807 49.6148C735.26 50.172 736.399 50.7239 736.352 50.8473Z" fill="#263238"/>
<path d="M919.156 121.321C925.397 113.827 931.63 106.253 936.486 97.7987C941.342 89.3438 944.8 79.8922 945.029 70.1493C945.063 68.6723 944.425 58.4175 943.002 58.0082C941.986 57.7153 941.287 66.767 940.454 67.4179C932.504 73.6305 927.337 82.8493 924.365 92.4802C921.394 102.111 919.987 111.278 919.156 121.321Z" fill="#263238"/>
<path d="M837.953 178.327C840.439 171.907 852.673 139.762 852.624 139.743C852.624 139.743 831.527 128.783 838.769 106.47C842.268 95.6922 851.283 74.0814 859.668 54.6195C868.68 33.7016 892.281 23.2088 913.894 30.4936L916.042 31.2173C938.747 40.3743 943.639 64.736 933.84 87.1362L888.75 191.453L849.213 179.255L837.953 178.327Z" fill="#FFBF9D"/>
<path d="M852.624 139.743C852.624 139.743 866.378 145.294 884.503 140.959C884.503 140.959 871.96 155.103 850.423 145.615L852.624 139.743Z" fill="#FF9A6C"/>
<path d="M859.661 76.0771C859.035 77.7327 859.923 79.6275 861.644 80.3119C863.361 80.9945 865.262 80.2112 865.889 78.5551C866.515 76.8997 865.628 75.0037 863.91 74.3198C862.191 73.6352 860.288 74.4215 859.661 76.0771Z" fill="#263238"/>
<path d="M861.306 65.4458C861.56 65.9923 864.57 65.0246 867.989 66.187C871.42 67.299 873.336 69.9018 873.848 69.6084C874.093 69.4851 873.945 68.6023 873.12 67.4396C872.312 66.2862 870.737 64.8979 868.602 64.1886C866.467 63.4826 864.41 63.6607 863.108 64.115C861.784 64.5667 861.174 65.1945 861.306 65.4458Z" fill="#263238"/>
<path d="M889.674 88.1218C889.048 89.7774 889.936 91.6719 891.657 92.3563C893.373 93.0396 895.275 92.2564 895.902 90.5998C896.527 88.9444 895.64 87.0482 893.923 86.3644C892.202 85.6795 890.3 86.4666 889.674 88.1218Z" fill="#263238"/>
<path d="M894.349 78.1216C894.604 78.6689 897.617 77.703 901.033 78.8642C904.463 79.9761 906.379 82.5789 906.893 82.2858C907.137 82.1617 906.992 81.2815 906.163 80.1174C905.356 78.9632 903.78 77.5754 901.646 76.8657C899.511 76.1596 897.454 76.3384 896.152 76.7918C894.83 77.2442 894.219 77.872 894.349 78.1216Z" fill="#263238"/>
<path d="M873.2 100.223C873.281 100.035 871.279 98.9512 867.982 97.3501C867.139 96.9659 866.37 96.5137 866.425 95.8691C866.432 95.1702 867.116 94.3531 867.882 93.4808C869.418 91.6476 871.026 89.7262 872.712 87.7121C879.498 79.4685 884.725 72.5711 884.39 72.3011C884.054 72.0314 878.283 78.4942 871.497 86.7381C869.845 88.7788 868.267 90.7221 866.762 92.5832C866.097 93.4629 865.148 94.395 865.151 95.8526C865.166 96.5835 865.647 97.2728 866.156 97.6115C866.659 97.9712 867.147 98.1464 867.57 98.3176C870.975 99.6723 873.121 100.413 873.2 100.223Z" fill="#263238"/>
<path d="M882.469 105.979C881.923 105.759 880.663 109.463 876.594 111.022C872.528 112.592 868.711 110.842 868.506 111.35C868.376 111.565 869.145 112.367 870.8 112.976C872.42 113.584 874.991 113.865 877.481 112.912C879.965 111.952 881.527 110.081 882.168 108.603C882.834 107.101 882.731 106.043 882.469 105.979Z" fill="#263238"/>
<path d="M899.225 64.3289C899.249 65.3714 902.813 66.0821 906.664 67.9182C910.551 69.6765 913.391 71.94 914.205 71.2872C914.577 70.9687 914.309 69.905 913.304 68.5653C912.311 67.2311 910.529 65.6803 908.21 64.6004C905.89 63.5254 903.554 63.1636 901.892 63.2643C900.218 63.3598 899.229 63.8399 899.225 64.3289Z" fill="#263238"/>
<path d="M866.56 54.5715C866.899 55.5498 869.528 55.5392 872.375 56.4564C875.253 57.2743 877.432 58.7418 878.259 58.1163C878.634 57.8046 878.52 56.9003 877.719 55.8129C876.934 54.733 875.407 53.5525 873.44 52.955C871.472 52.3604 869.547 52.4943 868.292 52.9567C867.021 53.4162 866.422 54.104 866.56 54.5715Z" fill="#263238"/>
<path d="M926.456 102.977C926.891 102.94 943.28 103.616 937.655 118.643C932.029 133.67 918.074 124.933 918.209 124.493C918.345 124.052 926.456 102.977 926.456 102.977Z" fill="#FFBF9D"/>
<path d="M924.939 120.515C925.024 120.492 925.133 120.796 925.5 121.164C925.858 121.523 926.551 121.936 927.446 121.935C929.254 121.946 931.537 119.925 932.624 117.244C933.174 115.891 933.375 114.481 933.293 113.222C933.245 111.952 932.82 110.918 932.073 110.477C931.345 109.996 930.599 110.263 930.256 110.617C929.897 110.962 929.88 111.298 929.791 111.294C929.735 111.316 929.562 110.921 929.916 110.346C930.09 110.071 930.399 109.782 930.86 109.625C931.331 109.467 931.919 109.516 932.454 109.784C933.585 110.297 934.231 111.753 934.322 113.135C934.474 114.547 934.281 116.143 933.663 117.663C932.433 120.655 929.819 122.91 927.408 122.726C926.245 122.607 925.481 121.958 925.158 121.433C924.831 120.888 924.877 120.523 924.939 120.515Z" fill="#FF9A6C"/>
<path d="M878.915 33.5271C877.001 31.2596 887.307 26.2012 894.313 25.7845C904.904 25.1548 919.644 27.915 927.055 33.4543C935.978 40.1229 942.385 48.2814 943.915 59.3026C945.445 70.324 943.26 81.6457 938.976 91.9177C937.669 95.0516 936.07 98.2279 933.344 100.258C929.975 102.767 925.152 103.312 923.572 107.947C922.995 109.641 921.869 111.143 920.255 111.922C916.389 113.786 914.083 109.761 913.595 106.423C912.552 99.2932 914.877 92.1487 917.171 85.3176C918.802 80.4619 920.483 75.5082 923.596 71.4372C925.29 69.2221 927.376 67.3149 928.945 65.0094C930.513 62.704 931.541 59.7996 930.756 57.1252C930.628 56.6902 930.367 56.1032 930.011 55.4277C927.191 50.0828 921.67 46.6915 915.62 46.5316C906.023 46.2787 889.879 45.2081 887.211 40.9027C883.372 34.7083 883.107 31.5263 883.107 31.5263L878.915 33.5271Z" fill="#263238"/>
<path d="M929.004 24.2873C929.969 24.7762 952.596 38.7293 952.446 59.0754C952.297 79.4213 948.567 84.4042 948.567 84.4042C948.567 84.4042 949.693 85.7558 950.371 87.4819C950.979 89.0288 947.507 94.2643 944.529 92.5168C924.214 73.7047 896.22 62.9009 864.284 53.0311L840.194 44.4245C833.148 42.8843 831.389 40.273 834.831 39.5571C837.47 39.0084 859.35 37.9048 859.35 37.9048L864.075 36.4528L878.832 26.056C878.832 26.056 878.261 23.7085 881.256 22.9449C884.251 22.1809 909.95 14.6362 929.004 24.2873Z" fill="#81319B"/>
<path d="M864.075 36.4529C864.075 36.4529 864.395 36.5808 865.016 36.7837C865.757 37.0201 866.655 37.3064 867.737 37.6514C870.114 38.3564 873.499 39.5501 877.656 41.0802C885.929 44.2344 897.154 49.2357 908.735 56.2235C920.363 63.1349 930.244 70.4059 937.297 75.7635C940.832 78.4364 943.647 80.6591 945.603 82.1811C946.5 82.8774 947.243 83.4555 947.858 83.9327C948.376 84.3292 948.662 84.5207 948.662 84.5207C948.662 84.5207 948.413 84.284 947.912 83.8653C947.312 83.371 946.584 82.7725 945.708 82.0506C943.783 80.4882 940.996 78.2286 937.482 75.5229C930.473 70.1003 920.606 62.78 908.955 55.855C897.352 48.8535 886.077 43.8824 877.763 40.7959C869.418 37.7551 864.075 36.4529 864.075 36.4529Z" fill="#263238"/>
<g opacity="0.3">
<path d="M947.703 42.731C947.703 42.731 922.733 29.3891 908.938 31.0075C909.476 30.9345 910.013 30.8617 910.55 30.7888C906.257 31.1457 901.965 31.5024 897.672 31.8593C895.498 32.0402 892.999 32.1046 891.502 30.5197C891.502 30.5197 899.322 27.2125 911.669 27.2758C924.016 27.3386 942.133 31.7597 947.703 42.731Z" fill="black"/>
</g>
<path d="M948.04 43.0015C948.04 43.0015 947.478 42.0897 946.205 40.6397C944.937 39.1929 942.968 37.1791 940.148 35.1761C937.351 33.1538 933.704 31.1519 929.377 29.6687C925.075 28.1874 920.025 27.1257 914.734 27.6391C912.097 27.8612 909.571 28.3802 907.145 28.8868C904.727 29.4366 902.378 29.8441 900.166 30.4573C897.97 31.0725 895.914 31.7513 893.916 31.9428C891.911 32.2233 890.085 31.7426 888.453 31.2176C881.924 29.0773 878.397 26.3668 878.832 26.056C878.836 26.0399 878.813 26.361 879.174 26.746C879.528 27.1139 880.112 27.6017 880.939 28.1013C882.583 29.1136 885.085 30.3889 888.359 31.5058C889.974 32.0515 891.902 32.57 893.952 32.2971C896 32.1149 898.087 31.438 900.271 30.8385C902.45 30.2449 904.819 29.8409 907.232 29.2983C909.655 28.7979 912.167 28.2856 914.771 28.0664C919.99 27.5603 924.969 28.5933 929.249 30.0428C933.545 31.4927 937.175 33.4487 939.972 35.424C942.793 37.3791 944.78 39.3452 946.08 40.7512C946.73 41.4572 947.214 42.0249 947.528 42.4211C947.852 42.8098 948.04 43.0015 948.04 43.0015Z" fill="#263238"/>
<g opacity="0.3">
<path d="M952.124 67.4815C947.395 65.8229 944.223 63.3619 939.87 60.7205C935.233 57.9063 930.563 55.3356 926.066 52.3032C922.653 50.0018 918.516 47.5712 916.998 44.0162C915.966 45.8559 915.943 47.8356 916.909 49.7096C917.875 51.584 921.981 54.8293 923.727 56.0143C933.681 62.7678 940.599 67.3827 951.724 72.0822C952.028 70.8761 952.124 67.4815 952.124 67.4815Z" fill="black"/>
</g>
<path d="M952.368 56.8193C954.923 59.1495 956.464 60.6579 955.672 63.2403C955.013 65.3903 953.686 67.841 951.461 67.4934C950.782 67.3875 950.172 67.0344 949.579 66.6879C939.427 60.7533 929.275 54.8185 919.123 48.8842C918.093 48.2821 916.987 47.5909 916.595 46.4657C915.991 44.7354 917.504 42.8448 919.275 42.3639C921.046 41.8832 922.919 42.4084 924.666 42.9718C934.594 46.1746 943.648 51.1028 952.368 56.8193Z" fill="#D4ACEC"/>
<path d="M916.934 47.117C916.996 47.0982 916.486 46.561 916.544 45.391C916.592 44.2909 917.365 42.4856 919.307 41.7307C921.261 41.0702 923.85 41.5132 926.388 42.5348C928.968 43.566 931.793 44.7393 934.71 46.0692C940.557 48.7094 945.609 51.6013 949.048 54.0117C950.782 55.1966 952.12 56.2455 953.044 56.972C953.42 57.2753 953.767 57.5553 954.098 57.8217C954.342 58.0123 954.475 58.1074 954.485 58.0964C954.495 58.0855 954.381 57.969 954.155 57.7567C953.84 57.4702 953.51 57.1697 953.151 56.8437C952.258 56.0755 950.943 54.9855 949.224 53.7633C945.814 51.2783 940.755 48.3273 934.888 45.679C931.961 44.344 929.128 43.1808 926.531 42.1661C923.94 41.1521 921.278 40.7049 919.198 41.4473C917.124 42.3042 916.38 44.2282 916.377 45.3849C916.367 45.9898 916.525 46.4436 916.662 46.7246C916.819 46.9971 916.925 47.1237 916.934 47.117Z" fill="#263238"/>
<path d="M874.201 29.3191L894.934 35.9481L891.203 41.1423L868.981 32.996L874.201 29.3191Z" fill="#D4ACEC"/>
<path d="M899.063 58.2273C899.116 58.1215 890.388 53.6669 879.571 48.2793C868.75 42.8896 859.938 38.6081 859.885 38.7142C859.832 38.8202 868.558 43.2739 879.379 48.6633C890.196 54.0509 899.01 58.3336 899.063 58.2273Z" fill="#263238"/>
<path d="M904.292 169.731L904.564 156.145L857.988 173.414C857.988 173.414 849.38 145.507 849.38 144.189L839.059 150.665L821.904 143.303L804.749 134.84L770.049 195.459L733.649 302.592L819.428 359.686L883.021 291.663L921.681 232.864L942.938 195.62L904.292 169.731Z" fill="#00A99D"/>
<path d="M853.847 173.218C853.819 173.217 853.795 172.743 853.775 171.859C853.764 170.908 853.748 169.631 853.728 168.049L853.938 168.183C850.374 169.908 845.015 173.017 839.913 177.769L839.54 178.116L839.512 177.607C839.478 177.003 839.441 176.358 839.404 175.707C839.031 169.044 838.719 163.011 838.518 158.642C838.43 156.51 838.357 154.76 838.304 153.468C838.291 152.901 838.279 152.436 838.27 152.06C838.268 151.738 838.275 151.568 838.291 151.567C838.308 151.566 838.333 151.734 838.367 152.055C838.4 152.429 838.441 152.893 838.491 153.458C838.582 154.747 838.706 156.495 838.856 158.624C839.145 162.987 839.51 169.017 839.883 175.68C839.919 176.331 839.955 176.976 839.989 177.581L839.588 177.419C844.742 172.633 850.187 169.557 853.812 167.917L854.028 167.82L854.022 168.051C853.985 169.633 853.956 170.909 853.934 171.86C853.904 172.743 853.875 173.218 853.847 173.218Z" fill="#263238"/>
<path d="M899.996 170.384C900.003 170.399 899.82 170.498 899.466 170.671C899.064 170.862 898.547 171.107 897.906 171.411C896.489 172.058 894.531 172.953 892.134 174.048C887.193 176.254 880.458 179.261 873.017 182.583C869.83 183.988 866.772 185.336 863.934 186.587L863.547 186.758L863.62 186.342C864.531 181.165 864.717 176.599 864.681 173.261L864.897 173.39C863.093 174.265 861.647 174.967 860.597 175.476C860.129 175.694 859.749 175.871 859.446 176.011C859.183 176.129 859.044 176.183 859.037 176.171C859.031 176.158 859.158 176.079 859.409 175.938C859.703 175.779 860.071 175.579 860.525 175.333C861.56 174.794 862.985 174.051 864.763 173.125L864.971 173.017L864.978 173.255C865.085 176.605 864.953 181.202 864.065 186.419L863.751 186.175C866.585 184.916 869.639 183.56 872.823 182.146C880.286 178.873 887.041 175.911 891.997 173.739C894.419 172.701 896.399 171.854 897.831 171.24C898.486 170.97 899.016 170.753 899.427 170.583C899.794 170.438 899.99 170.369 899.996 170.384Z" fill="#263238"/>
<path d="M818.57 102.412H467.817C460.408 102.412 454.403 108.406 454.403 115.801V358.203C454.403 365.598 460.408 371.592 467.817 371.592H818.57C825.978 371.592 831.984 365.598 831.984 358.203V115.801C831.984 108.406 825.978 102.412 818.57 102.412Z" fill="#455A64"/>
<path d="M439.646 354.208H848.726V361.403C848.726 370.431 841.383 377.761 832.338 377.761H456.035C446.99 377.761 439.646 370.431 439.646 361.403V354.208Z" fill="#455A64"/>
<path d="M820.793 113.106H464.538V340.425H820.793V113.106Z" fill="#263238"/>
<path d="M605.971 351.683L611.048 360.388H682.478L687.192 351.683H605.971Z" fill="#263238"/>
<path d="M474.889 120.802H811.173C812.836 120.802 814.187 122.15 814.187 123.811V336.69C814.187 338.35 812.837 339.698 811.173 339.698H474.889C473.226 339.698 471.875 338.35 471.875 336.69V123.81C471.875 122.15 473.226 120.802 474.889 120.802Z" fill="#EBEBEB"/>
<path d="M813.821 340.018H471.509L471.876 137.161H813.821V340.018Z" fill="#FAFAFA"/>
<path d="M500.637 129.256C500.637 130.883 499.375 132.203 497.818 132.203C496.261 132.203 494.999 130.883 494.999 129.256C494.999 127.628 496.261 126.309 497.818 126.309C499.375 126.309 500.637 127.628 500.637 129.256Z" fill="#263238"/>
<path d="M483.552 129.256C483.552 130.883 482.29 132.203 480.733 132.203C479.176 132.203 477.914 130.883 477.914 129.256C477.914 127.628 479.176 126.309 480.733 126.309C482.29 126.309 483.552 127.628 483.552 129.256Z" fill="#263238"/>
<path d="M492.333 129.256C492.333 130.883 491.071 132.203 489.514 132.203C487.956 132.203 486.695 130.883 486.695 129.256C486.695 127.628 487.957 126.309 489.514 126.309C491.071 126.309 492.333 127.628 492.333 129.256Z" fill="#263238"/>
<path d="M828.739 351.683C828.739 351.829 744.934 351.947 641.58 351.947C538.226 351.947 454.403 351.829 454.403 351.683C454.403 351.538 538.189 351.42 641.58 351.42C744.97 351.42 828.739 351.538 828.739 351.683Z" fill="#263238"/>
<path d="M606.261 176.075C611.892 172.679 617.887 170.103 624.07 168.35L627.739 150.755L657.523 150.234L661.809 167.687C668.05 169.222 674.133 171.586 679.88 174.783L694.933 164.935L716.363 185.588L707.033 200.945C710.437 206.568 713.017 212.554 714.772 218.725L732.399 222.386L732.922 252.113L715.435 256.393C713.897 262.621 711.529 268.691 708.326 274.428L718.191 289.453L697.502 310.843L682.114 301.53C676.481 304.927 670.485 307.502 664.301 309.254L660.632 326.849L630.85 327.371L626.563 309.916C620.322 308.38 614.241 306.016 608.493 302.82L593.44 312.668L572.01 292.016L581.34 276.658C577.936 271.036 575.355 265.052 573.599 258.879L555.972 255.218L555.45 225.491L572.938 221.211C574.475 214.983 576.845 208.913 580.047 203.176L570.181 188.151L590.87 166.762L606.261 176.075ZM622.138 215.676C609.879 228.35 610.235 248.541 622.932 260.776C635.629 273.011 655.859 272.655 668.116 259.982C680.373 247.31 680.019 227.118 667.322 214.883C654.625 202.649 634.396 203.004 622.138 215.676Z" fill="#E0E0E0"/>
<path d="M725.242 187.419C725.651 185.193 726.355 183.06 727.316 181.067L723.606 176.101L730.279 168.312L735.771 171.198C737.594 169.941 739.596 168.915 741.736 168.166L742.631 162.038L752.868 161.241L754.705 167.154C756.937 167.563 759.074 168.267 761.07 169.225L766.046 165.523L773.849 172.184L770.958 177.665C772.217 179.485 773.244 181.482 773.995 183.618L780.134 184.512L780.934 194.729L775.009 196.563C774.6 198.79 773.895 200.923 772.934 202.916L776.644 207.883L769.971 215.671L764.479 212.785C762.655 214.041 760.654 215.067 758.514 215.816L757.619 221.944L747.382 222.742L745.545 216.828C743.313 216.42 741.177 215.717 739.18 214.758L734.204 218.46L726.4 211.8L729.292 206.318C728.033 204.498 727.006 202.5 726.255 200.365L720.116 199.471L719.316 189.254L725.242 187.419ZM739.115 190.517C738.494 197.842 744.891 203.583 752.001 202.355C756.848 201.519 760.646 197.431 761.062 192.54C761.685 185.213 755.285 179.47 748.174 180.699C743.328 181.536 739.529 185.625 739.115 190.517Z" fill="#E0E0E0"/>
<path d="M500.987 290.038C501.065 287.367 501.505 284.753 502.268 282.256L497.05 277.124L503.44 266.845L510.364 269.231C512.266 267.44 514.417 265.885 516.78 264.629L516.726 257.32L528.527 254.561L531.731 261.132C534.407 261.21 537.027 261.65 539.528 262.412L544.669 257.204L554.968 263.581L552.578 270.493C554.372 272.391 555.929 274.538 557.188 276.896L564.511 276.844L567.276 288.621L560.692 291.819C560.613 294.49 560.173 297.104 559.409 299.601L564.628 304.734L558.238 315.013L551.313 312.626C549.411 314.418 547.26 315.972 544.897 317.228L544.951 324.537L533.151 327.296L529.947 320.725C527.27 320.647 524.651 320.208 522.15 319.446L517.008 324.654L506.709 318.276L509.1 311.364C507.305 309.466 505.749 307.319 504.489 304.961L497.167 305.014L494.402 293.236L500.987 290.038ZM518.054 293.353C519.692 300.332 526.687 304.663 533.679 303.028C540.67 301.393 545.01 294.411 543.372 287.433C541.734 280.455 534.739 276.123 527.747 277.758C520.756 279.393 516.417 286.375 518.054 293.353Z" fill="#E0E0E0"/>
<path d="M522.176 191.834C522.485 190.156 523.016 188.548 523.74 187.045L520.943 183.301L525.974 177.429L530.114 179.605C531.489 178.657 532.998 177.884 534.611 177.319L535.286 172.699L543.004 172.098L544.389 176.556C546.071 176.864 547.682 177.395 549.187 178.118L552.939 175.327L558.822 180.348L556.642 184.48C557.591 185.852 558.366 187.358 558.932 188.968L563.56 189.643L564.163 197.345L559.696 198.728C559.387 200.407 558.856 202.014 558.132 203.517L560.928 207.262L555.898 213.133L551.757 210.958C550.383 211.905 548.874 212.678 547.26 213.243L546.585 217.862L538.868 218.464L537.483 214.006C535.801 213.698 534.19 213.168 532.684 212.445L528.933 215.236L523.05 210.215L525.229 206.082C524.281 204.71 523.506 203.204 522.94 201.594L518.312 200.92L517.709 193.217L522.176 191.834ZM532.63 195.576C532.987 200.14 536.983 203.551 541.555 203.194C546.128 202.838 549.545 198.849 549.187 194.285C548.83 189.722 544.834 186.311 540.262 186.668C535.689 187.024 532.273 191.013 532.63 195.576Z" fill="#EBEBEB"/>
<path d="M725.629 274.782C725.894 273.341 726.35 271.96 726.972 270.669L724.569 267.453L728.891 262.409L732.447 264.278C733.628 263.464 734.924 262.799 736.31 262.314L736.89 258.346L743.519 257.83L744.709 261.659C746.154 261.924 747.538 262.379 748.831 263L752.053 260.603L757.106 264.916L755.234 268.466C756.049 269.644 756.715 270.938 757.201 272.321L761.176 272.9L761.694 279.516L757.857 280.704C757.592 282.146 757.136 283.527 756.514 284.818L758.916 288.034L754.594 293.078L751.038 291.209C749.857 292.023 748.561 292.687 747.175 293.172L746.596 297.14L739.966 297.657L738.777 293.827C737.332 293.563 735.948 293.107 734.655 292.487L731.432 294.884L726.379 290.571L728.251 287.021C727.436 285.843 726.771 284.549 726.285 283.166L722.309 282.587L721.791 275.97L725.629 274.782ZM734.608 277.997C734.915 281.917 738.347 284.847 742.275 284.54C746.202 284.234 749.137 280.808 748.83 276.888C748.524 272.968 745.091 270.038 741.164 270.345C737.236 270.651 734.301 274.077 734.608 277.997Z" fill="#EBEBEB"/>
<path d="M644.186 284.753H598.372C586.54 284.753 579.145 271.97 585.061 261.742L607.968 222.141L630.876 182.539C636.791 172.312 651.581 172.312 657.497 182.539L680.404 222.141L703.311 261.742C709.227 271.97 701.832 284.753 690.001 284.753H644.186Z" fill="#00A99D"/>
<path d="M693.504 266.318C693.504 266.318 693.632 266.554 693.862 267.029C694.037 267.52 694.327 268.273 694.326 269.313C694.351 270.339 694.096 271.653 693.255 272.924C692.828 273.547 692.265 274.16 691.529 274.64C690.788 275.108 689.883 275.433 688.894 275.499C681.087 275.583 669.813 275.569 655.871 275.603C641.927 275.618 625.329 275.635 606.901 275.654C604.597 275.656 602.265 275.657 599.905 275.658C597.421 275.713 595.058 273.95 594.261 271.582C593.839 270.41 593.748 269.111 594.028 267.88C594.108 267.576 594.208 267.275 594.308 266.976C594.442 266.692 594.57 266.397 594.712 266.122L595.596 264.51C596.776 262.354 597.968 260.178 599.171 257.982C603.984 249.201 608.967 240.109 614.07 230.797C619.179 221.484 624.166 212.391 628.983 203.609C631.392 199.218 633.759 194.906 636.076 190.682C636.668 189.628 637.207 188.573 637.832 187.535C638.462 186.486 639.348 185.581 640.409 184.98C642.521 183.751 645.187 183.666 647.337 184.67C648.411 185.169 649.371 185.915 650.075 186.853C650.768 187.815 651.246 188.824 651.799 189.802C652.875 191.769 653.937 193.709 654.983 195.622C657.076 199.446 659.107 203.16 661.071 206.75C664.996 213.931 668.653 220.621 671.991 226.729C678.651 238.943 684.041 248.828 687.774 255.674C689.624 259.088 691.061 261.742 692.044 263.555C692.523 264.45 692.889 265.136 693.143 265.61C693.389 266.074 693.504 266.318 693.504 266.318C693.504 266.318 693.36 266.09 693.1 265.634C692.837 265.164 692.456 264.487 691.959 263.601C690.958 261.798 689.494 259.159 687.61 255.763C683.846 248.935 678.41 239.074 671.694 226.891C668.339 220.792 664.666 214.112 660.722 206.941C658.751 203.354 656.713 199.645 654.613 195.824C653.564 193.913 652.499 191.974 651.419 190.009C650.87 189.037 650.368 188.001 649.728 187.119C649.064 186.236 648.161 185.538 647.152 185.071C645.129 184.128 642.616 184.212 640.637 185.369C639.64 185.933 638.813 186.782 638.22 187.77C637.617 188.773 637.064 189.855 636.478 190.902C634.164 195.127 631.801 199.441 629.395 203.834C624.581 212.617 619.596 221.712 614.491 231.027C609.385 240.337 604.399 249.428 599.583 258.208C598.379 260.402 597.185 262.578 596.003 264.732C595.438 265.829 594.718 266.84 594.478 267.984C594.217 269.127 594.3 270.335 594.691 271.426C595.439 273.637 597.61 275.254 599.905 275.209C602.265 275.21 604.597 275.212 606.901 275.213C625.329 275.232 641.927 275.25 655.871 275.264C669.8 275.285 681.074 275.302 688.882 275.314C689.838 275.257 690.717 274.949 691.44 274.502C692.159 274.041 692.713 273.449 693.137 272.845C693.971 271.61 694.239 270.324 694.23 269.313C694.192 267.252 693.416 266.335 693.504 266.318Z" fill="#263238"/>
<path d="M636.771 257.855C636.771 253.799 640.007 250.776 644.621 250.776C649.235 250.776 652.402 253.799 652.402 257.855C652.402 261.842 649.235 265.072 644.621 265.072C640.008 265.072 636.771 261.842 636.771 257.855ZM636.84 216.34H652.402L649.786 246.927H639.388L636.84 216.34Z" fill="white"/>
<path d="M646.382 177.991C646.347 178.088 645.31 177.478 643.466 177.392C641.65 177.286 639.038 177.882 636.826 179.608C634.616 181.348 633.271 183.597 632.436 185.234C631.601 186.89 631.208 187.979 631.134 187.952C631.104 187.941 631.168 187.658 631.326 187.158C631.484 186.659 631.744 185.945 632.13 185.088C632.898 183.392 634.229 181.045 636.531 179.231C638.846 177.423 641.602 176.855 643.489 177.055C644.439 177.145 645.186 177.368 645.668 177.587C646.153 177.802 646.395 177.968 646.382 177.991Z" fill="white"/>
<path d="M627.225 194.795C627.111 194.728 627.563 193.756 628.233 192.624C628.904 191.492 629.541 190.629 629.655 190.697C629.768 190.764 629.317 191.736 628.646 192.868C627.976 194 627.339 194.863 627.225 194.795Z" fill="white"/>
<g opacity="0.3">
<path d="M667.169 199.26L595.82 243.143L586.552 259.165L672.206 207.969L667.169 199.26Z" fill="white"/>
</g>
<g opacity="0.3">
<path d="M678.403 218.707L583.829 274.389C584.1 275.654 584.949 277.284 585.883 278.357L680.076 221.599L678.403 218.707Z" fill="white"/>
</g>
<path d="M912.138 322.547C904.563 314.213 893.079 311.536 883 314.759L874.185 305.106L872.958 303.736L803.225 227.37C807.416 217.67 805.861 206.002 798.285 197.669C791.842 190.581 782.572 187.581 773.743 188.824L770.337 190.175L782.198 198.126L781.57 211.035L771.981 219.719L759.048 219.091L750.592 209.79L747.097 211.153C746.096 218.944 751.329 228.754 757.032 235.027C764.596 243.349 776.056 246.03 786.125 242.83L857.026 320.474L859.206 322.888L865.926 330.247C861.759 339.939 863.321 351.584 870.885 359.905C876.565 366.153 884.097 370.325 891.932 370.113L895.427 368.749L886.971 359.448L887.6 346.539L897.189 337.855L910.122 338.483L915.083 349.147L918.578 347.784C920.674 339.134 918.581 329.634 912.138 322.547Z" fill="#E0E0E0"/>
<g opacity="0.3">
<path d="M912.138 322.547C904.563 314.213 893.079 311.536 883 314.759L874.185 305.106L872.958 303.736L803.225 227.37C807.416 217.67 805.861 206.002 798.285 197.669C791.842 190.581 782.572 187.581 773.743 188.824L770.337 190.175L782.198 198.126L781.57 211.035L771.981 219.719L759.048 219.091L750.592 209.79L747.097 211.153C746.096 218.944 751.329 228.754 757.032 235.027C764.596 243.349 776.056 246.03 786.125 242.83L857.026 320.474L859.206 322.888L865.926 330.247C861.759 339.939 863.321 351.584 870.885 359.905C876.565 366.153 884.097 370.325 891.932 370.113L895.427 368.749L886.971 359.448L887.6 346.539L897.189 337.855L910.122 338.483L915.083 349.147L918.578 347.784C920.674 339.134 918.581 329.634 912.138 322.547Z" fill="black"/>
</g>
<path d="M908.644 323.91C901.068 315.576 889.585 312.899 879.505 316.122L870.69 306.469L869.463 305.099L799.731 228.734C803.921 219.033 802.366 207.366 794.79 199.032C788.348 191.945 779.077 188.945 770.248 190.188L778.704 199.489L778.076 212.398L768.486 221.082L755.553 220.455L747.097 211.153C745.002 219.803 747.094 229.303 753.537 236.391C761.101 244.712 772.562 247.393 782.631 244.193L853.531 321.837L855.712 324.251L862.431 331.61C858.264 341.302 859.826 352.947 867.39 361.268C873.833 368.356 883.103 371.356 891.932 370.113L883.477 360.811L884.105 347.903L893.695 339.218L906.628 339.846L915.083 349.148C917.179 340.497 915.086 330.997 908.644 323.91Z" fill="#E0E0E0"/>
<path d="M908.644 323.91C908.644 323.91 909.045 324.353 909.813 325.24C910.522 326.171 911.614 327.549 912.695 329.581C913.781 331.602 914.851 334.275 915.494 337.589C916.076 340.899 916.21 344.88 915.18 349.171L915.136 349.352L915.01 349.214C912.502 346.464 909.644 343.33 906.54 339.925L906.622 339.964C902.633 339.776 898.295 339.571 893.688 339.353L893.786 339.318C890.792 342.035 887.575 344.954 884.206 348.013L884.254 347.91C884.063 351.92 883.854 356.286 883.638 360.819L883.596 360.703C886.214 363.579 889.092 366.739 892.059 369.998L892.277 370.237L891.956 370.282C887.581 370.906 882.9 370.496 878.477 368.897C874.057 367.312 869.915 364.525 866.703 360.75C863.466 357.007 861.164 352.264 860.342 347.128C859.498 342.005 860.097 336.516 862.241 331.529L862.278 331.749C838.633 305.861 811.466 276.117 782.455 244.353L782.703 244.42C777.822 245.975 772.346 246.196 767.138 244.856C761.927 243.54 757.04 240.618 753.351 236.541C750.248 233.13 748.021 228.966 746.919 224.545C745.806 220.126 745.803 215.467 746.865 211.097L746.972 210.66L747.274 210.993C750.112 214.115 752.93 217.216 755.729 220.295L755.565 220.218C759.908 220.429 764.22 220.639 768.497 220.847L768.327 220.907C771.555 217.985 774.751 215.092 777.918 212.225L777.842 212.386C778.054 208.035 778.265 203.736 778.473 199.478L778.532 199.645C775.682 196.507 772.866 193.408 770.079 190.341L769.788 190.02L770.217 189.962C775.422 189.257 780.754 189.974 785.43 192.047C790.114 194.098 794.143 197.413 797.006 201.455C799.888 205.484 801.655 210.213 802.084 214.991C802.537 219.769 801.743 224.557 799.921 228.816L799.884 228.594C834.443 266.517 862.259 297.04 879.583 316.051L879.473 316.021C884.462 314.438 889.205 314.491 893.099 315.178C897.001 315.951 900.11 317.315 902.401 318.716C904.715 320.102 906.21 321.513 907.224 322.42C908.173 323.402 908.644 323.91 908.644 323.91C908.644 323.91 908.145 323.427 907.185 322.46C906.16 321.569 904.658 320.176 902.344 318.81C900.053 317.43 896.952 316.089 893.07 315.338C889.195 314.671 884.484 314.636 879.538 316.223L879.473 316.243L879.427 316.193C862.07 297.212 834.201 266.737 799.577 228.873L799.487 228.775L799.54 228.652C801.33 224.455 802.108 219.737 801.659 215.032C801.233 210.326 799.489 205.673 796.65 201.71C793.827 197.731 789.86 194.472 785.251 192.457C780.649 190.42 775.401 189.718 770.281 190.413L770.418 190.034C773.206 193.101 776.023 196.198 778.875 199.334L778.94 199.405L778.935 199.501C778.729 203.759 778.52 208.058 778.309 212.409L778.305 212.506L778.233 212.571C775.066 215.439 771.872 218.333 768.645 221.256L768.572 221.322L768.474 221.317C764.197 221.11 759.885 220.902 755.542 220.692L755.443 220.687L755.377 220.614C752.578 217.535 749.759 214.435 746.921 211.313L747.33 211.209C746.286 215.505 746.289 220.085 747.384 224.429C748.468 228.774 750.656 232.865 753.706 236.22C757.333 240.228 762.135 243.099 767.257 244.393C772.377 245.71 777.76 245.494 782.558 243.966L782.704 243.92L782.807 244.033C811.802 275.812 838.953 305.57 862.585 331.471L862.675 331.569L862.622 331.692C860.505 336.603 859.909 342.013 860.736 347.064C861.54 352.128 863.805 356.806 866.994 360.502C870.158 364.231 874.24 366.986 878.6 368.556C882.963 370.14 887.586 370.553 891.908 369.943L891.805 370.228C888.844 366.964 885.971 363.799 883.358 360.919L883.313 360.87L883.316 360.803C883.541 356.27 883.758 351.905 883.957 347.895L883.96 347.834L884.005 347.792C887.382 344.741 890.605 341.829 893.604 339.119L893.646 339.081L893.702 339.084C898.308 339.313 902.645 339.529 906.634 339.728L906.683 339.73L906.716 339.766C909.809 343.18 912.657 346.323 915.157 349.081L914.987 349.124C916.024 344.867 915.908 340.911 915.344 337.616C914.721 334.317 913.671 331.65 912.605 329.629C911.542 327.597 910.467 326.213 909.772 325.273C909.019 324.377 908.644 323.91 908.644 323.91Z" fill="#263238"/>
<path d="M796.548 233.188C796.577 233.204 796.468 233.446 796.245 233.873C796.028 234.303 795.664 234.899 795.172 235.607C794.193 237.023 792.607 238.842 790.512 240.454C788.412 242.061 786.244 243.123 784.62 243.703C783.808 243.995 783.138 244.193 782.666 244.292C782.196 244.397 781.933 244.44 781.925 244.408C781.904 244.33 782.927 244.047 784.498 243.392C786.067 242.74 788.164 241.653 790.224 240.079C792.277 238.498 793.868 236.755 794.902 235.408C795.94 234.062 796.478 233.147 796.548 233.188Z" fill="#263238"/>
<path d="M874.422 266.356L847.894 254.038L824.217 251.092L832.913 258.401C832.913 258.401 802.307 269.048 801.77 271.449C801.233 273.85 804.188 280.298 809.579 279.108C809.579 279.108 806.546 282.75 807.809 286.832C809.072 290.913 811.86 291.651 817.006 290.703C817.006 290.703 813.505 295.934 816.25 298.6C818.994 301.267 823.264 300.59 823.264 300.59C823.264 300.59 823.316 306.961 826.688 307.518C830.059 308.076 839.453 307.415 842.959 306.335C846.464 305.254 860.776 300.843 860.776 300.843L872.389 298.3L874.422 266.356Z" fill="#FFBF9D"/>
<path d="M825.673 274.441C825.775 274.792 822.253 276.121 817.808 277.41C813.361 278.699 809.675 279.46 809.574 279.11C809.472 278.76 812.992 277.431 817.439 276.142C821.884 274.853 825.571 274.091 825.673 274.441Z" fill="#FF9A6C"/>
<path d="M830.178 287.014C830.284 287.363 827.486 288.512 823.931 289.58C820.374 290.649 817.406 291.232 817.301 290.883C817.196 290.534 819.993 289.385 823.55 288.317C827.105 287.248 830.073 286.665 830.178 287.014Z" fill="#FF9A6C"/>
<path d="M834.22 297.46C834.282 297.852 831.741 298.389 828.756 299.137C825.788 299.915 823.449 300.935 823.264 300.59C823.092 300.302 825.241 298.7 828.418 297.861C831.579 297.073 834.172 297.134 834.22 297.46Z" fill="#FF9A6C"/>
<path d="M837.566 257.387C837.665 257.744 834.189 259.003 829.896 260.481C825.598 261.953 822.083 263.096 821.941 262.753C821.802 262.423 825.124 260.721 829.466 259.233C833.804 257.74 837.472 257.041 837.566 257.387Z" fill="#FF9A6C"/>
<path d="M869.436 264.041L926.792 284.773L923.44 324.068L860.295 298.657L869.436 264.041Z" fill="#FFBF9D"/>
<path d="M943.027 195.281C943.027 195.281 950.507 202.996 954.859 216.865C959.182 230.637 979.751 289.524 979.227 308.235C978.686 327.58 965.637 341.385 936.961 333.74C919.849 329.178 899.467 321.803 899.467 321.803L913.955 274.256L925.29 277.108L906.986 242.814L943.027 195.281Z" fill="#00A99D"/>
<path d="M929.905 217.757C930.013 217.834 922.082 229.113 912.192 242.947C902.299 256.786 894.194 267.938 894.086 267.861C893.978 267.785 901.908 256.508 911.802 242.669C921.691 228.835 929.798 217.68 929.905 217.757Z" fill="#263238"/>
<path d="M951.849 283.612C951.828 283.647 951.354 283.37 950.457 282.96C949.563 282.545 948.227 282.038 946.525 281.572C944.825 281.102 942.761 280.664 940.471 280.166C938.175 279.66 935.663 279.105 933.027 278.524C927.748 277.345 922.975 276.252 919.526 275.438C917.864 275.035 916.49 274.702 915.447 274.449C914.486 274.206 913.959 274.056 913.966 274.023C913.974 273.991 914.516 274.08 915.489 274.268C916.541 274.483 917.927 274.766 919.603 275.108C923.072 275.838 927.857 276.879 933.136 278.058C935.769 278.652 938.277 279.219 940.571 279.737C942.854 280.257 944.914 280.73 946.619 281.247C948.325 281.759 949.661 282.322 950.539 282.792C950.981 283.022 951.312 283.224 951.529 283.37C951.747 283.515 951.857 283.598 951.849 283.612Z" fill="#263238"/>
<g opacity="0.3">
<path d="M966.511 285.681C966.284 283.41 964.581 281.493 962.565 280.415C960.549 279.337 958.24 278.961 955.974 278.651C945.666 277.239 935.248 276.848 924.851 276.459L925.812 276.875C938.645 279.24 951.238 282.902 963.335 287.788C964.032 288.069 964.822 288.354 965.508 288.049C966.347 287.675 966.603 286.593 966.511 285.681Z" fill="black"/>
</g>
<g opacity="0.3">
<path d="M730.199 103.361C720.533 101.72 708.971 104.52 699.304 102.879C697.86 102.634 696.279 102.411 695.01 103.141C693.484 104.018 692.956 105.962 692.881 107.717C692.674 112.574 694.925 117.368 698.439 120.735C701.952 124.102 706.627 126.113 711.429 126.927C715.288 127.581 719.435 127.456 722.876 125.595C728.884 122.347 731.791 109.993 730.199 103.361Z" fill="black"/>
</g>
<path d="M692.681 121.017C692.681 121.017 686.815 114.159 685.964 110.992C685.401 108.894 685.683 103.026 685.938 99.3041C686.113 96.7541 687.7 94.4237 690.125 93.6026C690.97 93.3165 691.771 93.2798 692.313 93.7788C692.313 93.7788 692.684 93.1373 694.986 90.785C697.288 88.4328 698.381 86.8382 703.448 88.3017C703.448 88.3017 707.174 84.3745 709.318 84.668C711.462 84.9617 713.586 85.586 713.586 85.586C713.586 85.586 721.754 85.2423 723.428 87.8313C724.161 88.9639 725.671 89.7548 727.137 90.2862C729.717 91.2205 731.836 93.0956 732.963 95.5927C734.498 98.991 734.595 102.698 734.595 102.698L726.283 103.026C726.283 103.026 726.87 122.057 724.783 123.592C722.696 125.127 721.897 124.582 721.897 124.582C721.897 124.582 720.305 129.048 714.092 125.743C714.092 125.743 708.932 127.295 706.731 125.173C704.531 123.05 696.438 102.654 696.438 102.654L696.664 112.791C696.664 112.791 700.928 119.351 698.841 120.886C696.753 122.421 692.681 121.017 692.681 121.017Z" fill="#FFBF9D"/>
<path d="M703.029 95.2199C703.061 95.21 703.228 95.6361 703.503 96.4152C703.798 97.2847 704.174 98.3967 704.625 99.7281C705.552 102.532 706.802 106.415 708.153 110.712C709.517 115.008 710.616 118.941 711.892 121.589C712.509 122.922 713.13 123.937 713.583 124.622C714.034 125.31 714.322 125.666 714.288 125.693C714.275 125.704 714.192 125.625 714.043 125.464C713.893 125.305 713.682 125.062 713.431 124.73C712.926 124.072 712.251 123.068 711.587 121.737C710.213 119.084 709.057 115.142 707.696 110.856C706.344 106.558 705.146 102.659 704.302 99.8294C703.909 98.4797 703.581 97.3525 703.325 96.471C703.105 95.6748 702.998 95.2297 703.029 95.2199Z" fill="#FF9A6C"/>
<path d="M713.226 92.8717C713.258 92.8635 713.407 93.303 713.649 94.1046C713.906 94.9966 714.235 96.1401 714.63 97.5102C715.437 100.391 716.52 104.378 717.688 108.79C718.857 113.202 719.888 117.204 720.612 120.107C720.947 121.492 721.227 122.649 721.445 123.551C721.631 124.367 721.719 124.822 721.687 124.831C721.655 124.84 721.507 124.401 721.265 123.6C721.008 122.708 720.679 121.565 720.285 120.195C719.477 117.315 718.393 113.326 717.225 108.912C716.056 104.499 715.025 100.497 714.301 97.5941C713.966 96.2086 713.686 95.0523 713.468 94.1503C713.282 93.3346 713.194 92.8797 713.226 92.8717Z" fill="#FF9A6C"/>
</g>
<defs>
<clipPath id="clip0_49555_294824">
<rect width="627" height="378" fill="white" transform="translate(357)"/>
</clipPath>
</defs>
</svg>
