<svg width="449" height="151" viewBox="0 0 449 151" fill="none" xmlns="http://www.w3.org/2000/svg">
<g filter="url(#filter0_d_92982_424479)">
<rect x="4" y="82" width="441" height="61" rx="4" fill="#81319B" shape-rendering="crispEdges"/>
<path d="M40.4753 104.023V109.798H49.788V115.166H40.4753V121.429H51.008V127H33.5213V98.452H51.008V104.023H40.4753ZM69.3493 104.064C72.0062 104.064 74.1209 104.932 75.6933 106.667C77.2929 108.375 78.0926 110.733 78.0926 113.743V127H71.1793V114.678C71.1793 113.16 70.7862 111.98 70 111.14C69.2137 110.3 68.1564 109.879 66.828 109.879C65.4995 109.879 64.4422 110.3 63.656 111.14C62.8697 111.98 62.4766 113.16 62.4766 114.678V127H55.5226V104.308H62.4766V107.317C63.1815 106.314 64.1304 105.528 65.3233 104.959C66.5162 104.362 67.8582 104.064 69.3493 104.064ZM120.497 104.064C123.317 104.064 125.554 104.918 127.207 106.626C128.888 108.334 129.729 110.706 129.729 113.743V127H122.815V114.678C122.815 113.214 122.422 112.089 121.636 111.303C120.877 110.489 119.82 110.083 118.464 110.083C117.109 110.083 116.038 110.489 115.251 111.303C114.492 112.089 114.113 113.214 114.113 114.678V127H107.199V114.678C107.199 113.214 106.806 112.089 106.02 111.303C105.261 110.489 104.204 110.083 102.848 110.083C101.493 110.083 100.422 110.489 99.6355 111.303C98.8764 112.089 98.4968 113.214 98.4968 114.678V127H91.5428V104.308H98.4968V107.155C99.2017 106.206 100.123 105.46 101.262 104.918C102.401 104.349 103.689 104.064 105.125 104.064C106.833 104.064 108.352 104.43 109.68 105.162C111.036 105.894 112.093 106.938 112.852 108.293C113.638 107.046 114.709 106.03 116.065 105.243C117.42 104.457 118.898 104.064 120.497 104.064ZM133.21 115.613C133.21 113.282 133.643 111.235 134.511 109.473C135.406 107.71 136.612 106.355 138.13 105.406C139.649 104.457 141.343 103.983 143.214 103.983C144.813 103.983 146.209 104.308 147.402 104.959C148.622 105.609 149.558 106.463 150.208 107.521V104.308H157.162V127H150.208V123.787C149.531 124.845 148.582 125.699 147.362 126.349C146.169 127 144.773 127.325 143.173 127.325C141.329 127.325 139.649 126.851 138.13 125.902C136.612 124.926 135.406 123.557 134.511 121.795C133.643 120.005 133.21 117.945 133.21 115.613ZM150.208 115.654C150.208 113.919 149.72 112.55 148.744 111.547C147.795 110.544 146.63 110.042 145.247 110.042C143.864 110.042 142.685 110.544 141.709 111.547C140.76 112.523 140.286 113.878 140.286 115.613C140.286 117.348 140.76 118.731 141.709 119.761C142.685 120.764 143.864 121.266 145.247 121.266C146.63 121.266 147.795 120.764 148.744 119.761C149.72 118.758 150.208 117.389 150.208 115.654ZM176.02 104.064C178.677 104.064 180.791 104.932 182.364 106.667C183.963 108.375 184.763 110.733 184.763 113.743V127H177.85V114.678C177.85 113.16 177.457 111.98 176.671 111.14C175.884 110.3 174.827 109.879 173.499 109.879C172.17 109.879 171.113 110.3 170.327 111.14C169.54 111.98 169.147 113.16 169.147 114.678V127H162.193V104.308H169.147V107.317C169.852 106.314 170.801 105.528 171.994 104.959C173.187 104.362 174.529 104.064 176.02 104.064ZM202.243 121.103V127H198.705C196.184 127 194.218 126.39 192.808 125.17C191.398 123.923 190.694 121.903 190.694 119.111V110.083H187.928V104.308H190.694V98.7773H197.648V104.308H202.202V110.083H197.648V119.192C197.648 119.87 197.81 120.358 198.136 120.656C198.461 120.954 199.003 121.103 199.762 121.103H202.243ZM227.507 115.288C227.507 115.939 227.466 116.616 227.385 117.321H211.647C211.756 118.731 212.203 119.816 212.989 120.575C213.802 121.307 214.792 121.673 215.958 121.673C217.693 121.673 218.899 120.941 219.577 119.477H226.978C226.599 120.968 225.908 122.31 224.904 123.503C223.928 124.696 222.695 125.631 221.204 126.309C219.713 126.986 218.045 127.325 216.202 127.325C213.979 127.325 212 126.851 210.264 125.902C208.529 124.953 207.174 123.598 206.198 121.835C205.222 120.073 204.734 118.013 204.734 115.654C204.734 113.295 205.208 111.235 206.157 109.473C207.133 107.71 208.489 106.355 210.224 105.406C211.959 104.457 213.952 103.983 216.202 103.983C218.398 103.983 220.35 104.444 222.058 105.365C223.766 106.287 225.094 107.602 226.043 109.31C227.019 111.018 227.507 113.011 227.507 115.288ZM220.39 113.458C220.39 112.265 219.984 111.316 219.17 110.611C218.357 109.906 217.34 109.554 216.12 109.554C214.955 109.554 213.965 109.893 213.152 110.571C212.366 111.248 211.878 112.211 211.688 113.458H220.39ZM245.002 104.064C247.659 104.064 249.774 104.932 251.346 106.667C252.946 108.375 253.746 110.733 253.746 113.743V127H246.832V114.678C246.832 113.16 246.439 111.98 245.653 111.14C244.867 110.3 243.809 109.879 242.481 109.879C241.153 109.879 240.095 110.3 239.309 111.14C238.523 111.98 238.13 113.16 238.13 114.678V127H231.176V104.308H238.13V107.317C238.835 106.314 239.783 105.528 240.976 104.959C242.169 104.362 243.511 104.064 245.002 104.064ZM262.075 101.949C260.855 101.949 259.852 101.597 259.066 100.892C258.307 100.16 257.927 99.2653 257.927 98.208C257.927 97.1236 258.307 96.2289 259.066 95.524C259.852 94.792 260.855 94.426 262.075 94.426C263.268 94.426 264.244 94.792 265.003 95.524C265.79 96.2289 266.183 97.1236 266.183 98.208C266.183 99.2653 265.79 100.16 265.003 100.892C264.244 101.597 263.268 101.949 262.075 101.949ZM265.532 104.308V127H258.578V104.308H265.532ZM299.526 104.064C302.346 104.064 304.582 104.918 306.236 106.626C307.917 108.334 308.757 110.706 308.757 113.743V127H301.844V114.678C301.844 113.214 301.451 112.089 300.665 111.303C299.906 110.489 298.848 110.083 297.493 110.083C296.137 110.083 295.066 110.489 294.28 111.303C293.521 112.089 293.141 113.214 293.141 114.678V127H286.228V114.678C286.228 113.214 285.835 112.089 285.049 111.303C284.29 110.489 283.232 110.083 281.877 110.083C280.521 110.083 279.45 110.489 278.664 111.303C277.905 112.089 277.525 113.214 277.525 114.678V127H270.571V104.308H277.525V107.155C278.23 106.206 279.152 105.46 280.291 104.918C281.429 104.349 282.717 104.064 284.154 104.064C285.862 104.064 287.38 104.43 288.709 105.162C290.064 105.894 291.122 106.938 291.881 108.293C292.667 107.046 293.738 106.03 295.093 105.243C296.449 104.457 297.927 104.064 299.526 104.064ZM317.118 101.949C315.898 101.949 314.895 101.597 314.109 100.892C313.35 100.16 312.97 99.2653 312.97 98.208C312.97 97.1236 313.35 96.2289 314.109 95.524C314.895 94.792 315.898 94.426 317.118 94.426C318.311 94.426 319.287 94.792 320.046 95.524C320.832 96.2289 321.226 97.1236 321.226 98.208C321.226 99.2653 320.832 100.16 320.046 100.892C319.287 101.597 318.311 101.949 317.118 101.949ZM320.575 104.308V127H313.621V104.308H320.575ZM347.005 115.288C347.005 115.939 346.964 116.616 346.883 117.321H331.145C331.254 118.731 331.701 119.816 332.487 120.575C333.3 121.307 334.29 121.673 335.456 121.673C337.191 121.673 338.397 120.941 339.075 119.477H346.476C346.097 120.968 345.406 122.31 344.402 123.503C343.426 124.696 342.193 125.631 340.702 126.309C339.211 126.986 337.543 127.325 335.7 127.325C333.477 127.325 331.498 126.851 329.762 125.902C328.027 124.953 326.672 123.598 325.696 121.835C324.72 120.073 324.232 118.013 324.232 115.654C324.232 113.295 324.706 111.235 325.655 109.473C326.631 107.71 327.987 106.355 329.722 105.406C331.457 104.457 333.45 103.983 335.7 103.983C337.896 103.983 339.848 104.444 341.556 105.365C343.264 106.287 344.592 107.602 345.541 109.31C346.517 111.018 347.005 113.011 347.005 115.288ZM339.888 113.458C339.888 112.265 339.482 111.316 338.668 110.611C337.855 109.906 336.838 109.554 335.618 109.554C334.453 109.554 333.463 109.893 332.65 110.571C331.864 111.248 331.376 112.211 331.186 113.458H339.888ZM364.5 104.064C367.157 104.064 369.272 104.932 370.844 106.667C372.444 108.375 373.244 110.733 373.244 113.743V127H366.33V114.678C366.33 113.16 365.937 111.98 365.151 111.14C364.365 110.3 363.307 109.879 361.979 109.879C360.651 109.879 359.593 110.3 358.807 111.14C358.021 111.98 357.628 113.16 357.628 114.678V127H350.674V104.308H357.628V107.317C358.333 106.314 359.281 105.528 360.474 104.959C361.667 104.362 363.009 104.064 364.5 104.064ZM390.723 121.103V127H387.185C384.664 127 382.698 126.39 381.289 125.17C379.879 123.923 379.174 121.903 379.174 119.111V110.083H376.409V104.308H379.174V98.7773H386.128V104.308H390.683V110.083H386.128V119.192C386.128 119.87 386.291 120.358 386.616 120.656C386.941 120.954 387.484 121.103 388.243 121.103H390.723ZM404.926 127.325C402.703 127.325 400.697 126.851 398.908 125.902C397.145 124.953 395.749 123.598 394.719 121.835C393.716 120.073 393.214 118.013 393.214 115.654C393.214 113.322 393.729 111.276 394.76 109.513C395.79 107.724 397.2 106.355 398.989 105.406C400.778 104.457 402.784 103.983 405.008 103.983C407.231 103.983 409.237 104.457 411.026 105.406C412.816 106.355 414.225 107.724 415.256 109.513C416.286 111.276 416.801 113.322 416.801 115.654C416.801 117.986 416.272 120.046 415.215 121.835C414.185 123.598 412.761 124.953 410.945 125.902C409.156 126.851 407.149 127.325 404.926 127.325ZM404.926 121.307C406.255 121.307 407.38 120.819 408.302 119.843C409.25 118.867 409.725 117.47 409.725 115.654C409.725 113.838 409.264 112.441 408.342 111.465C407.448 110.489 406.336 110.001 405.008 110.001C403.652 110.001 402.527 110.489 401.632 111.465C400.738 112.414 400.29 113.81 400.29 115.654C400.29 117.47 400.724 118.867 401.592 119.843C402.486 120.819 403.598 121.307 404.926 121.307Z" fill="white"/>
</g>
<path opacity="0.8" d="M230.058 12.4517C230.027 12.5075 229.995 12.5619 229.962 12.6162C229.384 13.5779 228.614 14.3149 227.744 14.8057C226.208 15.6758 224.361 15.7731 222.717 14.9675C222.458 14.8415 222.202 14.6914 221.954 14.5181C221.055 13.8898 220.36 13.0369 219.895 12.0638C219.83 11.9336 219.773 11.8004 219.72 11.6659H219.719C219.662 11.5286 219.612 11.3898 219.566 11.2481C219.554 11.2181 219.545 11.1881 219.536 11.1579V11.1564C219.499 11.0405 219.465 10.926 219.434 10.8087C219.393 10.6541 219.358 10.4983 219.329 10.3393V10.3379C219.295 10.1748 219.27 10.0087 219.25 9.8428C219.227 9.65386 219.212 9.46493 219.205 9.2747C219.165 8.35731 219.3 7.4257 219.619 6.54136C219.748 6.18504 219.907 5.8359 220.096 5.49955C220.784 4.27886 221.776 3.39725 222.894 2.90214C223.483 2.63878 224.107 2.48432 224.742 2.44424C225.918 2.36837 227.127 2.68317 228.201 3.43317C228.309 3.50903 228.413 3.58633 228.515 3.66924C228.938 4.00702 229.309 4.39769 229.626 4.82843C230.064 5.42383 230.4 6.09495 230.622 6.8076C230.653 6.90199 230.682 6.99797 230.706 7.09524C230.773 7.33849 230.826 7.58605 230.865 7.83504V7.83648C230.9 8.05257 230.926 8.27153 230.94 8.4905C230.947 8.58073 230.952 8.67225 230.954 8.76378C230.992 10.0218 230.704 11.3054 230.058 12.4517Z" fill="url(#paint0_linear_92982_424479)"/>
<path opacity="0.34" d="M435.038 87.2477V95L354.126 61.3436L235.71 12.0862L231.327 10.2638L230.866 10.0719L228.582 9.12196L225.105 7.67614L224.935 7.60578L224.362 7.3662L224.021 7.22439L223.788 7.12782L223.217 6.88945L222.641 6.65107L222.067 6.41149L219.159 5.20285C219.421 4.90608 219.746 4.61529 220.131 4.33514C221.533 3.31845 223.552 2.58417 225.829 2.1718C226.432 1.76182 227.136 1.40066 227.917 1.09192L229.593 1.79042L235.372 4.19453L237.659 5.14445L242.248 7.05387L245.481 8.39833L372.765 61.3435L435.038 87.2477Z" fill="url(#paint1_linear_92982_424479)"/>
<path d="M154.515 32.3058L155.168 32.6289L143.943 37.2053L137.572 39.8045L106.508 52.4694L102.529 54.0934L86.9197 60.4572L86.2664 60.1341L102.524 53.5057L106.503 51.8817L133.585 40.8407L137.566 39.2158L154.515 32.3058Z" fill="url(#paint2_linear_92982_424479)"/>
<path d="M87.5743 60.7811L86.9209 60.4578L155.168 32.6289L155.821 32.9521L87.5743 60.7811Z" fill="url(#paint3_linear_92982_424479)"/>
<path d="M88.2276 61.1042L87.5742 60.781L155.821 32.952L156.474 33.2752L88.2276 61.1042Z" fill="url(#paint4_linear_92982_424479)"/>
<path d="M88.8814 61.4275L88.228 61.1043L156.475 33.2753L157.128 33.5986L88.8814 61.4275Z" fill="url(#paint5_linear_92982_424479)"/>
<path d="M157.781 33.9217L157.28 34.1266L154.318 35.3336L147.946 37.9321L143.965 39.556L137.593 42.1544L133.612 43.777L127.24 46.3753L123.259 47.9993L116.884 50.5978L112.902 52.2218L106.531 54.8202L102.55 56.4442L96.1775 59.0412L92.1965 60.6651L89.5332 61.7507L89.4835 61.7259L88.8792 61.4274H88.8825V61.4259L88.9125 61.4142L92.1898 60.0784V60.0769L96.1709 58.4558V58.4544L102.546 55.856L103.38 55.5151L106.524 54.232L112.896 51.6351V51.6337L116.877 50.0111L123.252 47.4127V47.4112L127.233 45.7886L133.609 43.1903V43.1888L137.587 41.5663H137.59L143.958 38.9678L147.94 37.3453V37.3439L154.315 34.7455L156.626 33.8033L157.127 33.5984L157.13 33.5999L157.781 33.9217Z" fill="url(#paint6_linear_92982_424479)"/>
<path d="M222.26 4.68237L222.914 5.00568L206.068 11.8735L199.697 14.4727L175.006 24.5394L168.635 27.1386L154.665 32.834L154.012 32.5107L168.628 26.5518L174.999 23.9526L199.69 13.8859L206.061 11.2867L222.26 4.68237Z" fill="url(#paint7_linear_92982_424479)"/>
<path d="M155.32 33.1572L154.667 32.8339L222.914 5.005L223.567 5.32816L155.32 33.1572Z" fill="url(#paint8_linear_92982_424479)"/>
<path d="M155.974 33.4804L155.321 33.1573L223.568 5.32825L224.221 5.65155L155.974 33.4804Z" fill="url(#paint9_linear_92982_424479)"/>
<path d="M156.627 33.8037L155.974 33.4804L224.221 5.65149L224.874 5.97465L156.627 33.8037Z" fill="url(#paint10_linear_92982_424479)"/>
<path d="M225.528 6.2973L220.424 8.37785V8.37932L217.678 9.49848L217.595 9.53211L216.443 10.0019L210.984 12.2286L210.071 12.6002L206.09 14.2242L199.718 16.8227L195.737 18.4452L189.365 21.0436L185.381 22.6676L179.009 25.2659L175.028 26.8899L168.656 29.4884L164.675 31.111L158.303 33.7093L157.781 33.9214L157.28 34.1263L156.629 33.803L157.131 33.5996L158.296 33.1226L164.668 30.5258V30.5243L168.652 28.9003L173.839 26.7846L175.021 26.3018L179.002 24.6793V24.6778L185.377 22.0795L189.358 20.4569V20.4554L195.73 17.8584L199.712 16.2359V16.2344L206.087 13.6361L209.019 12.4394L210.065 12.0121L210.529 11.8218H210.533L216.44 9.41372L216.868 9.23804L217.257 9.08013L220.418 7.79117L224.874 5.974H224.877L225.528 6.2973Z" fill="url(#paint11_linear_92982_424479)"/>
<path d="M86.2481 60.0964L86.9015 60.4197L71.4633 66.7138L65.0924 69.313L40.4033 79.3788L34.032 81.978L18.6532 88.248L18.0001 87.9249L34.0254 81.3912L40.3966 78.792L65.0877 68.7253L71.459 66.1261L86.2481 60.0964Z" fill="url(#paint12_linear_92982_424479)"/>
<path d="M19.3085 88.5711L18.6552 88.248L86.9017 60.4189L87.5552 60.7422L19.3085 88.5711Z" fill="url(#paint13_linear_92982_424479)"/>
<path d="M87.5571 60.7422L88.2102 61.0653L71.4749 67.8885L65.1036 70.4877L40.4126 80.5543L34.0416 83.1535L19.9622 88.8936L19.3088 88.5705L34.0369 82.5658L40.4082 79.9666L65.0993 69.9L71.4702 67.3007L87.5571 60.7422Z" fill="url(#paint14_linear_92982_424479)"/>
<path d="M88.2101 61.0654L88.8635 61.3887L75.4625 66.8523L71.4812 68.4772L40.4191 81.1413L34.0482 83.7405L20.6152 89.217L19.9622 88.8937L34.0415 83.1536L40.4125 80.5543L65.1035 70.4878L71.4748 67.8886L88.2101 61.0654Z" fill="url(#paint15_linear_92982_424479)"/>
<path d="M89.5168 61.7114L89.4834 61.7261L85.8211 63.2183L81.8397 64.8423L75.4681 67.4408L71.4867 69.0647L65.1147 71.6632L61.1303 73.2857L54.7584 75.884L50.7773 77.508L44.4054 80.1065L41.0817 81.4613L41.0784 81.4628L40.4243 81.7291L34.0524 84.3289L30.0713 85.9514L23.6994 88.5499L21.2688 89.5404L20.6147 89.2169L23.643 87.9837L23.6927 87.9631V87.9616L30.0647 85.3647L34.049 83.7407L40.421 81.1409L44.3987 79.5184L50.774 76.9199L54.755 75.2974V75.2959L61.127 72.6976L65.1084 71.075L71.48 68.4765L75.4614 66.8527L81.8363 64.2542L85.8177 62.6316V62.6302L88.8327 61.4026L88.8624 61.3895L88.9124 61.4144L89.5168 61.7114Z" fill="url(#paint16_linear_92982_424479)"/>
<path d="M23.6711 85.6124L23.6758 86.2001L23.6825 86.7871L23.6871 87.3748L23.6915 87.9625L23.6981 88.5493L21.2682 89.5401L19.7041 88.7661L19.6994 88.411L19.6904 87.2356L23.6711 85.6124Z" fill="black"/>
<path d="M34.0254 81.3911L34.0321 81.9779L34.0367 82.5656L34.0414 83.1534L34.0481 83.7403L34.0524 84.328L30.0714 85.951L30.065 85.3642L30.0603 84.7765L30.0557 84.1888L30.049 83.602L30.0447 83.0142L34.0254 81.3911Z" fill="black"/>
<path d="M44.4057 80.1063L41.082 81.461L41.0787 81.4625L40.4246 81.7288V81.7068L40.4213 81.1407L40.4146 80.554L40.408 79.9686V79.9657L40.4046 79.3805V79.379L40.3979 78.7923L44.379 77.1683L44.3857 77.7552V77.7565L44.389 78.3433V78.3446L44.3957 78.93V78.9315L44.399 79.5181L44.4057 80.1063Z" fill="black"/>
<path d="M54.7585 75.8838L50.7775 77.5079L50.7742 76.9197L50.7675 76.333V76.3316L50.7608 75.7463V75.7449L50.7575 75.1582V75.1567L50.7542 74.5701L54.7355 72.946L54.7389 73.5342V73.5357L54.7452 74.1209L54.7489 74.709V74.7105L54.7552 75.2957V75.2972L54.7585 75.8838Z" fill="black"/>
<path d="M65.1144 71.6629L61.13 73.2854L61.1267 72.6973L61.1234 72.1106L61.1167 71.5239V71.5225L61.11 70.9373V70.9358L61.1067 70.3491L65.0881 68.7251L65.0914 69.3132L65.0981 69.8999L65.1048 70.4881L65.1081 71.0747L65.1144 71.6629Z" fill="black"/>
<path d="M75.4679 67.4405L71.4865 69.0644L71.4799 68.4762L71.4732 67.8881L71.4699 67.3014V67.2999L71.4635 66.7147V66.7133L71.4602 66.1266L75.4413 64.5026L75.4479 65.0892V65.0907L75.4513 65.6774L75.4546 66.2655L75.4613 66.8524L75.4679 67.4405Z" fill="black"/>
<path d="M85.8212 63.2179L81.8398 64.842L81.8365 64.2538L81.8301 63.6671L81.8235 63.0805V63.079L81.8201 62.4923V62.4908L81.8135 61.9042L85.7979 60.2802L85.8012 60.8683L85.8045 61.4564L85.8112 62.0431V62.0446L85.8179 62.6298V62.6313L85.8212 63.2179Z" fill="black"/>
<path d="M96.1769 59.0411L92.1959 60.665L92.1892 60.0783V60.0768L92.1825 59.4916V59.4901L92.1792 58.902L92.1759 58.3153V58.3138L92.1692 57.7272L96.1502 56.1046L96.1569 56.6898V56.6913L96.1603 57.2794L96.1636 57.8676L96.1703 58.4543V58.4557L96.1769 59.0411Z" fill="black"/>
<path d="M106.53 54.82L102.549 56.444L102.546 55.8559L102.539 55.2692V55.2677L102.533 54.681L102.529 54.0929L102.526 53.5062L106.504 51.8822L106.507 52.4689V52.4703L106.514 53.057L106.521 53.6437V53.6452L106.524 54.2319V54.2333L106.53 54.82Z" fill="black"/>
<path d="M116.883 50.5977L112.902 52.2218L112.896 51.6351V51.6336L112.892 51.0468V51.0455L112.886 50.4601V50.4588L112.882 49.8705L112.876 49.2838L116.857 47.6598V47.6613L116.864 48.2466V48.2479L116.87 48.8348L116.877 50.0111L116.883 50.5977Z" fill="black"/>
<path d="M127.24 46.3752L123.259 47.9992L123.252 47.4125V47.411L123.245 46.8244L123.242 46.2362L123.236 45.6495L123.232 45.0614L127.214 43.4388L127.22 44.024V44.0255L127.224 44.6137L127.227 45.2003V45.2018L127.233 45.7885L127.24 46.3752Z" fill="black"/>
<path d="M137.593 42.1545L133.612 43.777L133.608 43.1903V43.1889L133.602 42.6037V42.6022L133.595 42.0155L133.592 41.4274V41.4259L133.585 40.8407L137.566 39.2167L137.573 39.8034V39.8048L137.576 40.3915V40.393L137.583 40.9782V40.9796L137.586 41.5663L137.593 42.1545Z" fill="black"/>
<path d="M147.946 37.932L143.964 39.5558L143.958 38.9677L143.955 38.3795L143.948 37.7929L143.945 37.2047L143.938 36.618L147.919 34.994V34.9955L147.926 35.5807V35.5822L147.932 36.1688L147.936 36.7555V36.757L147.939 37.3438V37.3451L147.946 37.932Z" fill="black"/>
<path d="M158.302 33.7095L157.781 33.9216L157.28 34.1265L154.318 35.3335L154.315 34.7469V34.7454L154.308 34.1587V34.1572L154.305 33.5706L154.298 32.9839V32.9824L154.295 32.6503V32.3957L154.514 32.3064L158.272 30.7732V30.7747L158.286 31.948V31.9495L158.289 32.5362L158.296 33.1228L158.302 33.7095Z" fill="black"/>
<path d="M168.655 29.4885L164.674 31.111L164.668 30.5258V30.5243L164.664 29.9377V29.9362L164.661 29.3494L164.654 28.7627V28.7612L164.648 28.1745L168.629 26.552L168.635 27.1388L168.642 27.727L168.645 28.3122V28.3137L168.652 28.8989V28.9003L168.655 29.4885Z" fill="black"/>
<path d="M179.008 25.2662L175.027 26.8902L175.02 26.302L175.014 25.7154L175.01 25.1287V25.1272L175.007 24.5405V24.5391L175 23.9524L178.982 22.3284V22.3298L178.988 22.9165L178.992 23.5047V23.5061L178.998 24.0913L179.002 24.678V24.6795L179.008 25.2662Z" fill="black"/>
<path d="M189.365 21.0436L185.38 22.6676L185.377 22.081V22.0795L185.37 21.4928L185.364 20.9076V20.9061L185.36 20.318L185.354 19.7313V19.7298L189.335 18.1073V18.1088L189.348 19.2821L189.352 19.8688L189.358 20.4555V20.457L189.365 21.0436Z" fill="black"/>
<path d="M199.718 16.823L195.737 18.4455L195.73 17.8587V17.8572L195.727 17.272V17.2691L195.72 16.6838L195.714 16.0972L195.71 15.509L199.692 13.8865L199.698 14.4732L199.702 15.0598V15.0613L199.705 15.648L199.712 16.2347V16.2361L199.718 16.823Z" fill="black"/>
<path d="M210.071 12.6004L206.089 14.2244L206.086 13.6363V13.6348L206.079 13.0496V13.0481L206.073 12.4629L206.066 11.8762V11.8733L206.06 11.2866L209.32 9.95814L210.044 9.6626L210.047 10.2507V10.2522L210.054 10.8389L210.057 11.3012V11.4256L210.064 12.0122L210.071 12.6004Z" fill="black"/>
<path d="M220.398 5.44141L220.403 6.02911L220.407 6.61682L220.414 7.20379L220.419 7.7915L220.423 8.3792L216.442 10.0022L216.438 9.41448L216.433 8.82678L216.426 8.23995L216.422 7.65225L216.417 7.06454L220.398 5.44141Z" fill="black"/>
<path d="M300.851 33.5303L300.2 33.8527L311.394 38.4185L317.748 41.0117L348.729 53.6473L352.698 55.2675L368.265 61.6168L368.917 61.2943L352.702 54.6812L348.734 53.0609L321.725 42.0454L317.755 40.4243L300.851 33.5303Z" fill="url(#paint17_linear_92982_424479)"/>
<path d="M367.613 61.9397L368.264 61.6171L300.2 33.8525L299.549 34.1749L367.613 61.9397Z" fill="url(#paint18_linear_92982_424479)"/>
<path d="M366.961 62.2622L367.613 61.9398L299.549 34.175L298.897 34.4976L366.961 62.2622Z" fill="url(#paint19_linear_92982_424479)"/>
<path d="M366.309 62.5847L366.961 62.2621L298.897 34.4976L298.245 34.82L366.309 62.5847Z" fill="url(#paint20_linear_92982_424479)"/>
<path d="M298.245 34.8203L297.594 35.1429L311.374 40.7631L317.728 43.3564L342.353 53.3997L348.707 55.9929L365.659 62.9069L366.31 62.5843L352.682 57.0259L348.713 55.4057L317.733 42.7699L311.378 40.1767L298.245 34.8203Z" fill="url(#paint21_linear_92982_424479)"/>
<path d="M233.288 5.97083L232.636 6.29324L249.436 13.1452L255.791 15.7384L280.415 25.7818L286.769 28.375L300.702 34.0572L301.353 33.7348L286.776 27.7896L280.422 25.1963L255.797 15.1529L249.443 12.5597L233.288 5.97083Z" fill="url(#paint22_linear_92982_424479)"/>
<path d="M300.048 34.3796L300.699 34.0572L232.635 6.29248L231.984 6.61489L300.048 34.3796Z" fill="url(#paint23_linear_92982_424479)"/>
<path d="M299.396 34.7021L300.048 34.3797L231.984 6.61499L231.332 6.93755L299.396 34.7021Z" fill="url(#paint24_linear_92982_424479)"/>
<path d="M298.744 35.0246L299.396 34.7021L231.332 6.9375L230.681 7.25991L298.744 35.0246Z" fill="url(#paint25_linear_92982_424479)"/>
<path d="M230.68 7.25977L230.028 7.58218L245.446 13.8704L249.414 15.4906L280.395 28.1264L286.749 30.7196L298.093 35.3463L298.745 35.0238L286.754 30.1332L280.4 27.54L249.419 14.9043L245.45 13.284L230.68 7.25977Z" fill="url(#paint26_linear_92982_424479)"/>
<path d="M368.935 61.2566L368.283 61.579L383.68 67.8585L390.034 70.4519L414.657 80.4943L421.011 83.0876L436.348 89.343L437 89.0206L421.017 82.502L414.664 79.9088L390.038 69.8656L383.685 67.2722L368.935 61.2566Z" fill="url(#paint27_linear_92982_424479)"/>
<path d="M435.696 89.6655L436.347 89.3429L368.283 61.5784L367.632 61.9008L435.696 89.6655Z" fill="url(#paint28_linear_92982_424479)"/>
<path d="M367.63 61.9006L366.978 62.2232L383.669 69.0305L390.023 71.6237L414.648 81.6671L421.002 84.2603L435.043 89.9872L435.695 89.6646L421.006 83.6739L414.652 81.0807L390.027 71.0373L383.673 68.4441L367.63 61.9006Z" fill="url(#paint29_linear_92982_424479)"/>
<path d="M366.978 62.2231L366.327 62.5456L379.692 67.9966L383.662 69.6176L414.641 82.2525L420.995 84.8457L434.392 90.3095L435.043 89.9871L421.002 84.2602L414.647 81.667L390.023 71.6236L383.669 69.0304L366.978 62.2231Z" fill="url(#paint30_linear_92982_424479)"/>
<path d="M366.327 62.5457L365.675 62.8682L379.687 68.5831L383.656 70.2034L414.637 82.8389L420.991 85.4321L433.741 90.6322L434.392 90.3096L420.995 84.8458L414.641 82.2526L383.662 69.6177L379.692 67.9967L366.327 62.5457Z" fill="url(#paint31_linear_92982_424479)"/>
<path d="M431.344 86.7136L431.34 87.3001L431.333 87.8856L431.328 88.4719L431.324 89.0583L431.317 89.6437L433.741 90.6322L435.3 89.8601L435.305 89.5057L435.314 88.333L431.344 86.7136Z" fill="black"/>
<path d="M421.017 82.502L421.011 83.0876L421.006 83.6739L421.002 84.2603L420.995 84.8457L420.99 85.4321L424.961 87.0515L424.967 86.4659L424.972 85.8795L424.976 85.2932L424.983 84.7077L424.988 84.1213L421.017 82.502Z" fill="black"/>
<path d="M410.691 78.2888L410.687 78.8752L410.682 79.4615L410.675 80.047L410.671 80.6333L410.666 81.2197L414.637 82.8391L414.641 82.2527L414.648 81.6673L414.652 81.0809L414.657 80.4944L414.664 79.9089L410.691 78.2888Z" fill="black"/>
<path d="M400.365 74.077L400.36 74.6634L400.354 75.2488L400.349 75.8352L400.345 76.4215L400.34 77.0079L404.31 78.6273L404.319 77.4546L404.326 76.869L404.331 76.2826L404.335 75.6963L400.365 74.077Z" fill="black"/>
<path d="M390.039 69.8656L390.034 70.4519L390.028 71.0374L390.023 71.6238L390.019 72.2101L390.012 72.7956L393.984 74.4158L393.993 73.243L393.998 72.6567L394.005 72.0712L394.009 71.4848L390.039 69.8656Z" fill="black"/>
<path d="M379.714 65.6531L379.708 66.2385L379.703 66.8249L379.699 67.4112L379.692 67.9969L379.687 68.5832L383.656 70.2035L383.662 69.6178L383.669 69.0306L383.673 68.4443L383.68 67.8587L383.685 67.2723L379.714 65.6531Z" fill="black"/>
<path d="M369.386 61.4406L369.381 62.0269L369.376 62.6133L369.37 63.1987L369.365 63.7851L369.361 64.3716L373.331 65.9908L373.336 65.4044L373.342 64.819L373.347 64.2326L373.351 63.6461L373.358 63.0607L369.386 61.4406Z" fill="black"/>
<path d="M359.058 57.2734L359.053 57.8598L359.049 58.4461L359.044 59.0325L359.038 59.618L359.033 60.2044L363.003 61.8237L363.008 61.2373L363.015 60.6519L363.019 60.0655L363.024 59.479L363.03 58.8936L359.058 57.2734Z" fill="black"/>
<path d="M348.734 53.0608L348.729 53.6471L348.725 54.2335L348.718 54.8191L348.713 55.4055L348.707 55.9927L352.677 57.6121L352.682 57.0257L352.688 56.4402L352.693 55.8538L352.698 55.2674L352.702 54.6811L348.734 53.0608Z" fill="black"/>
<path d="M338.407 48.8492L338.403 49.4356L338.396 50.0211L338.392 50.6076L338.387 51.1939L338.38 51.7794L342.353 53.3995L342.357 52.8131L342.362 52.2268L342.369 51.6413L342.373 51.055L342.378 50.4686L338.407 48.8492Z" fill="black"/>
<path d="M328.081 44.6376L328.074 45.223L328.07 45.8094L328.065 46.3957L328.059 46.9814L328.054 47.5677L332.024 49.1869L332.031 48.6015L332.036 48.0151L332.04 47.4288L332.047 46.8433L332.051 46.2568L328.081 44.6376Z" fill="black"/>
<path d="M317.755 40.4242L317.748 41.0116L317.744 41.5979L317.737 42.1834L317.728 43.3562L321.698 44.9755L321.703 44.3891L321.71 43.8036L321.714 43.2173L321.719 42.631L321.725 42.0453L317.755 40.4242Z" fill="black"/>
<path d="M307.428 36.2126L307.424 36.799L307.417 37.3846L307.413 37.971L307.408 38.5573L307.404 39.1437L311.374 40.7629L311.378 40.1765L311.383 39.5902L311.39 39.0047L311.394 38.4184L311.399 37.832L307.428 36.2126Z" fill="black"/>
<path d="M297.102 32.001L297.098 32.5873L297.091 33.1728L297.087 33.7593L297.082 34.3456L297.076 34.9311L301.048 36.5512L301.053 35.9649L301.057 35.3785L301.062 34.7922L301.068 34.2067L301.071 33.874L301.073 33.6204L297.102 32.001Z" fill="black"/>
<path d="M286.775 27.7896L286.769 28.375L286.76 29.5477L286.753 30.1333L286.749 30.7197L290.719 32.3389L290.725 31.7534L290.73 31.1671L290.739 29.9944L290.746 29.4088L286.775 27.7896Z" fill="black"/>
<path d="M276.449 23.576L276.445 24.1625L276.441 24.7489L276.434 25.3344L276.429 25.9207L276.425 26.5071L280.395 28.1264L280.4 27.5401L280.406 26.9545L280.411 26.3681L280.415 25.7818L280.422 25.1963L276.449 23.576Z" fill="black"/>
<path d="M266.124 19.3644L266.119 19.9507L266.112 20.5363L266.108 21.1227L266.103 21.709L266.097 22.2945L270.069 23.9146L270.074 23.3283L270.078 22.7419L270.085 22.1565L270.089 21.5701L270.094 20.9838L266.124 19.3644Z" fill="black"/>
<path d="M255.797 15.1528L255.791 15.7383L255.786 16.3247L255.781 16.9111L255.775 17.4966L255.77 18.083L259.741 19.7022L259.747 19.1167L259.752 18.5304L259.756 17.944L259.763 17.3586L259.768 16.7722L255.797 15.1528Z" fill="black"/>
<path d="M245.471 10.9396L245.466 11.5259L245.462 12.1123L245.457 12.6986L245.45 13.2841L245.446 13.8704L249.414 15.4907L249.419 14.9044L249.425 14.3189L249.43 13.7325L249.436 13.1452L249.443 12.5597L245.471 10.9396Z" fill="black"/>
<path d="M235.144 6.72791L235.14 7.31425L235.135 7.9006L235.129 8.48607L235.124 9.07242L235.119 9.65877L239.09 11.2782L239.094 10.6918L239.099 10.1053L239.106 9.51984L239.11 8.93349L239.115 8.34714L235.144 6.72791Z" fill="black"/>
<path d="M232.759 10.0189C232.689 10.142 232.617 10.2621 232.541 10.3781C231.869 11.4142 230.966 12.1712 229.962 12.6163C228.587 13.2274 227.021 13.256 225.593 12.6177C225.499 12.5748 225.407 12.5304 225.314 12.4818C225.286 12.4689 225.258 12.4547 225.231 12.4389C225.219 12.4331 225.206 12.4259 225.195 12.4203C225.148 12.3946 225.103 12.3688 225.058 12.343C225.043 12.3344 225.027 12.3245 225.012 12.3159C224.967 12.2902 224.923 12.2629 224.88 12.2343C224.804 12.187 224.729 12.137 224.655 12.0854C224.44 11.9351 224.237 11.7735 224.046 11.5988C223.405 11.0134 222.898 10.2994 222.539 9.51085C222.52 9.4722 222.503 9.43355 222.488 9.39347C222.427 9.25898 222.373 9.12292 222.324 8.98413C222.273 8.84246 222.225 8.69792 222.183 8.55194C222.14 8.40166 222.102 8.24993 222.068 8.09691C222.043 7.98528 222.021 7.8722 222.002 7.75913C221.994 7.71042 221.986 7.66186 221.978 7.61171C221.978 7.61171 221.978 7.61171 221.978 7.61028C221.953 7.44002 221.933 7.26688 221.921 7.09361C221.815 5.72838 222.093 4.31588 222.798 3.0666C222.829 3.01085 222.861 2.9564 222.894 2.90209C223.19 2.40984 223.536 1.97623 223.919 1.60554C225.641 -0.0617048 228.122 -0.491015 230.242 0.603812C230.271 0.616743 230.299 0.630967 230.326 0.646771C230.338 0.652519 230.35 0.659702 230.362 0.665306C230.408 0.691024 230.453 0.716885 230.498 0.742604C230.514 0.751224 230.529 0.76114 230.545 0.76976C230.59 0.795479 230.633 0.822777 230.677 0.851369C230.753 0.898639 230.828 0.948638 230.902 1.00022C231.117 1.15051 231.32 1.31215 231.51 1.48686C233.767 3.54476 234.348 7.19677 232.759 10.0189Z" fill="url(#paint32_radial_92982_424479)"/>
<path d="M230.902 1.00058C230.687 0.850872 230.468 0.718545 230.244 0.603027L224.046 11.5989C224.237 11.7729 224.44 11.9355 224.654 12.0851C224.869 12.2346 225.089 12.3671 225.312 12.4826L231.51 1.48679C231.319 1.31294 231.116 1.1503 230.902 1.00058Z" fill="url(#paint33_radial_92982_424479)" stroke="url(#paint34_radial_92982_424479)" stroke-width="0.0126974" stroke-miterlimit="10"/>
<path d="M434.63 96.3229C437.739 96.3229 440.259 94.012 440.259 91.1614C440.259 88.3109 437.739 86 434.63 86C431.52 86 429 88.3109 429 91.1614C429 94.012 431.52 96.3229 434.63 96.3229Z" fill="url(#paint35_linear_92982_424479)"/>
<path d="M434.63 96.3229C437.739 96.3229 440.259 94.012 440.259 91.1614C440.259 88.3109 437.739 86 434.63 86C431.52 86 429 88.3109 429 91.1614C429 94.012 431.52 96.3229 434.63 96.3229Z" fill="url(#paint36_linear_92982_424479)"/>
<path d="M434.63 95.4717C437.226 95.4717 439.331 93.542 439.331 91.1615C439.331 88.781 437.226 86.8512 434.63 86.8512C432.033 86.8512 429.928 88.781 429.928 91.1615C429.928 93.542 432.033 95.4717 434.63 95.4717Z" fill="url(#paint37_linear_92982_424479)"/>
<path d="M434.63 95.4717C437.226 95.4717 439.331 93.542 439.331 91.1615C439.331 88.781 437.226 86.8512 434.63 86.8512C432.033 86.8512 429.928 88.781 429.928 91.1615C429.928 93.542 432.033 95.4717 434.63 95.4717Z" fill="url(#paint38_linear_92982_424479)"/>
<path d="M15.6296 95.3229C18.7388 95.3229 21.2592 93.012 21.2592 90.1614C21.2592 87.3109 18.7388 85 15.6296 85C12.5205 85 10 87.3109 10 90.1614C10 93.012 12.5205 95.3229 15.6296 95.3229Z" fill="url(#paint39_linear_92982_424479)"/>
<path d="M15.6296 95.3229C18.7388 95.3229 21.2592 93.012 21.2592 90.1614C21.2592 87.3109 18.7388 85 15.6296 85C12.5205 85 10 87.3109 10 90.1614C10 93.012 12.5205 95.3229 15.6296 95.3229Z" fill="url(#paint40_linear_92982_424479)"/>
<path d="M15.6296 94.4717C18.226 94.4717 20.3308 92.542 20.3308 90.1615C20.3308 87.781 18.226 85.8512 15.6296 85.8512C13.0332 85.8512 10.9283 87.781 10.9283 90.1615C10.9283 92.542 13.0332 94.4717 15.6296 94.4717Z" fill="url(#paint41_linear_92982_424479)"/>
<path d="M15.6296 94.4717C18.226 94.4717 20.3308 92.542 20.3308 90.1615C20.3308 87.781 18.226 85.8512 15.6296 85.8512C13.0332 85.8512 10.9283 87.781 10.9283 90.1615C10.9283 92.542 13.0332 94.4717 15.6296 94.4717Z" fill="url(#paint42_linear_92982_424479)"/>
<defs>
<filter id="filter0_d_92982_424479" x="0" y="82" width="449" height="69" filterUnits="userSpaceOnUse" color-interpolation-filters="sRGB">
<feFlood flood-opacity="0" result="BackgroundImageFix"/>
<feColorMatrix in="SourceAlpha" type="matrix" values="0 0 0 0 0 0 0 0 0 0 0 0 0 0 0 0 0 0 127 0" result="hardAlpha"/>
<feOffset dy="4"/>
<feGaussianBlur stdDeviation="2"/>
<feComposite in2="hardAlpha" operator="out"/>
<feColorMatrix type="matrix" values="0 0 0 0 0 0 0 0 0 0 0 0 0 0 0 0 0 0 0.25 0"/>
<feBlend mode="normal" in2="BackgroundImageFix" result="effect1_dropShadow_92982_424479"/>
<feBlend mode="normal" in="SourceGraphic" in2="effect1_dropShadow_92982_424479" result="shape"/>
</filter>
<linearGradient id="paint0_linear_92982_424479" x1="218.089" y1="16.4102" x2="225.512" y2="10.0329" gradientUnits="userSpaceOnUse">
<stop offset="0.2567" stop-color="#E9E5DA" stop-opacity="0"/>
<stop offset="0.4618" stop-color="#E7E3D7" stop-opacity="0.2854"/>
<stop offset="0.5881" stop-color="#E2DDCF" stop-opacity="0.4612"/>
<stop offset="0.6931" stop-color="#D9D2C0" stop-opacity="0.6073"/>
<stop offset="0.7859" stop-color="#CDC3AC" stop-opacity="0.7365"/>
<stop offset="0.8316" stop-color="#C5B99F" stop-opacity="0.8"/>
</linearGradient>
<linearGradient id="paint1_linear_92982_424479" x1="300.055" y1="62.5666" x2="317.895" y2="21.9242" gradientUnits="userSpaceOnUse">
<stop offset="0.2567" stop-color="#E9E5DA" stop-opacity="0"/>
<stop offset="0.4264" stop-color="#E7E3D7" stop-opacity="0.3568"/>
<stop offset="0.5309" stop-color="#E2DDCF" stop-opacity="0.5765"/>
<stop offset="0.6178" stop-color="#D9D2C0" stop-opacity="0.7592"/>
<stop offset="0.6945" stop-color="#CDC3AC" stop-opacity="0.9206"/>
<stop offset="0.7323" stop-color="#C5B99F"/>
</linearGradient>
<linearGradient id="paint2_linear_92982_424479" x1="81.2163" y1="56.1674" x2="120.819" y2="5.67803" gradientUnits="userSpaceOnUse">
<stop stop-color="#666666"/>
<stop offset="0.119" stop-color="#505050"/>
<stop offset="0.2682" stop-color="#3C3C3C"/>
<stop offset="0.4386" stop-color="#2E2E2E"/>
<stop offset="0.6467" stop-color="#252525"/>
<stop offset="1" stop-color="#232323"/>
</linearGradient>
<linearGradient id="paint3_linear_92982_424479" x1="115.849" y1="42.3675" x2="118.512" y2="53.1248" gradientUnits="userSpaceOnUse">
<stop stop-color="#666666"/>
<stop offset="0.0972" stop-color="#555555"/>
<stop offset="0.2501" stop-color="#414141"/>
<stop offset="0.4247" stop-color="#333333"/>
<stop offset="0.6379" stop-color="#2A2A2A"/>
<stop offset="1" stop-color="#282828"/>
</linearGradient>
<linearGradient id="paint4_linear_92982_424479" x1="116.502" y1="42.6907" x2="119.165" y2="53.448" gradientUnits="userSpaceOnUse">
<stop stop-color="#666666"/>
<stop offset="0.0728" stop-color="#5A5A5A"/>
<stop offset="0.2298" stop-color="#464646"/>
<stop offset="0.4092" stop-color="#383838"/>
<stop offset="0.6282" stop-color="#2F2F2F"/>
<stop offset="1" stop-color="#2D2D2D"/>
</linearGradient>
<linearGradient id="paint5_linear_92982_424479" x1="117.156" y1="43.014" x2="119.819" y2="53.7713" gradientUnits="userSpaceOnUse">
<stop stop-color="#666666"/>
<stop offset="0.0456" stop-color="#5F5F5F"/>
<stop offset="0.2072" stop-color="#4B4B4B"/>
<stop offset="0.3918" stop-color="#3D3D3D"/>
<stop offset="0.6173" stop-color="#343434"/>
<stop offset="1" stop-color="#323232"/>
</linearGradient>
<linearGradient id="paint6_linear_92982_424479" x1="97.3906" y1="45.0562" x2="140.374" y2="67.4034" gradientUnits="userSpaceOnUse">
<stop stop-color="#666666"/>
<stop offset="0.0151" stop-color="#646464"/>
<stop offset="0.1821" stop-color="#505050"/>
<stop offset="0.3721" stop-color="#424242"/>
<stop offset="0.6048" stop-color="#393939"/>
<stop offset="1" stop-color="#373737"/>
</linearGradient>
<linearGradient id="paint7_linear_92982_424479" x1="148.966" y1="28.5445" x2="188.57" y2="-21.9449" gradientUnits="userSpaceOnUse">
<stop stop-color="#666666"/>
<stop offset="0.119" stop-color="#505050"/>
<stop offset="0.2682" stop-color="#3C3C3C"/>
<stop offset="0.4386" stop-color="#2E2E2E"/>
<stop offset="0.6467" stop-color="#252525"/>
<stop offset="1" stop-color="#232323"/>
</linearGradient>
<linearGradient id="paint8_linear_92982_424479" x1="183.595" y1="14.7425" x2="186.259" y2="25.4998" gradientUnits="userSpaceOnUse">
<stop stop-color="#666666"/>
<stop offset="0.0972" stop-color="#555555"/>
<stop offset="0.2501" stop-color="#414141"/>
<stop offset="0.4247" stop-color="#333333"/>
<stop offset="0.6379" stop-color="#2A2A2A"/>
<stop offset="1" stop-color="#282828"/>
</linearGradient>
<linearGradient id="paint9_linear_92982_424479" x1="184.249" y1="15.0658" x2="186.912" y2="25.8231" gradientUnits="userSpaceOnUse">
<stop stop-color="#666666"/>
<stop offset="0.0728" stop-color="#5A5A5A"/>
<stop offset="0.2298" stop-color="#464646"/>
<stop offset="0.4092" stop-color="#383838"/>
<stop offset="0.6282" stop-color="#2F2F2F"/>
<stop offset="1" stop-color="#2D2D2D"/>
</linearGradient>
<linearGradient id="paint10_linear_92982_424479" x1="184.902" y1="15.3889" x2="187.566" y2="26.1463" gradientUnits="userSpaceOnUse">
<stop stop-color="#666666"/>
<stop offset="0.0456" stop-color="#5F5F5F"/>
<stop offset="0.2072" stop-color="#4B4B4B"/>
<stop offset="0.3918" stop-color="#3D3D3D"/>
<stop offset="0.6173" stop-color="#343434"/>
<stop offset="1" stop-color="#323232"/>
</linearGradient>
<linearGradient id="paint11_linear_92982_424479" x1="165.14" y1="17.432" x2="208.121" y2="39.7778" gradientUnits="userSpaceOnUse">
<stop stop-color="#666666"/>
<stop offset="0.0151" stop-color="#646464"/>
<stop offset="0.1821" stop-color="#505050"/>
<stop offset="0.3721" stop-color="#424242"/>
<stop offset="0.6048" stop-color="#393939"/>
<stop offset="1" stop-color="#373737"/>
</linearGradient>
<linearGradient id="paint12_linear_92982_424479" x1="12.9453" y1="83.9578" x2="52.5484" y2="33.4684" gradientUnits="userSpaceOnUse">
<stop stop-color="#666666"/>
<stop offset="0.119" stop-color="#505050"/>
<stop offset="0.2682" stop-color="#3C3C3C"/>
<stop offset="0.4386" stop-color="#2E2E2E"/>
<stop offset="0.6467" stop-color="#252525"/>
<stop offset="1" stop-color="#232323"/>
</linearGradient>
<linearGradient id="paint13_linear_92982_424479" x1="47.5823" y1="70.1588" x2="50.2459" y2="80.9161" gradientUnits="userSpaceOnUse">
<stop stop-color="#666666"/>
<stop offset="0.0972" stop-color="#555555"/>
<stop offset="0.2501" stop-color="#414141"/>
<stop offset="0.4247" stop-color="#333333"/>
<stop offset="0.6379" stop-color="#2A2A2A"/>
<stop offset="1" stop-color="#282828"/>
</linearGradient>
<linearGradient id="paint14_linear_92982_424479" x1="14.2542" y1="84.6035" x2="53.8573" y2="34.1141" gradientUnits="userSpaceOnUse">
<stop stop-color="#666666"/>
<stop offset="0.0728" stop-color="#5A5A5A"/>
<stop offset="0.2298" stop-color="#464646"/>
<stop offset="0.4092" stop-color="#383838"/>
<stop offset="0.6282" stop-color="#2F2F2F"/>
<stop offset="1" stop-color="#2D2D2D"/>
</linearGradient>
<linearGradient id="paint15_linear_92982_424479" x1="14.9074" y1="84.9268" x2="54.5105" y2="34.4374" gradientUnits="userSpaceOnUse">
<stop stop-color="#666666"/>
<stop offset="0.0456" stop-color="#5F5F5F"/>
<stop offset="0.2072" stop-color="#4B4B4B"/>
<stop offset="0.3918" stop-color="#3D3D3D"/>
<stop offset="0.6173" stop-color="#343434"/>
<stop offset="1" stop-color="#323232"/>
</linearGradient>
<linearGradient id="paint16_linear_92982_424479" x1="29.1256" y1="72.8465" x2="72.1092" y2="95.1937" gradientUnits="userSpaceOnUse">
<stop stop-color="#666666"/>
<stop offset="0.0151" stop-color="#646464"/>
<stop offset="0.1821" stop-color="#505050"/>
<stop offset="0.3721" stop-color="#424242"/>
<stop offset="0.6048" stop-color="#393939"/>
<stop offset="1" stop-color="#373737"/>
</linearGradient>
<linearGradient id="paint17_linear_92982_424479" x1="373.958" y1="57.3342" x2="334.443" y2="6.97568" gradientUnits="userSpaceOnUse">
<stop stop-color="#666666"/>
<stop offset="0.119" stop-color="#505050"/>
<stop offset="0.2682" stop-color="#3C3C3C"/>
<stop offset="0.4386" stop-color="#2E2E2E"/>
<stop offset="0.6467" stop-color="#252525"/>
<stop offset="1" stop-color="#232323"/>
</linearGradient>
<linearGradient id="paint18_linear_92982_424479" x1="339.417" y1="43.5698" x2="336.759" y2="54.3019" gradientUnits="userSpaceOnUse">
<stop stop-color="#666666"/>
<stop offset="0.0972" stop-color="#555555"/>
<stop offset="0.2501" stop-color="#414141"/>
<stop offset="0.4247" stop-color="#333333"/>
<stop offset="0.6379" stop-color="#2A2A2A"/>
<stop offset="1" stop-color="#282828"/>
</linearGradient>
<linearGradient id="paint19_linear_92982_424479" x1="338.766" y1="43.8924" x2="336.108" y2="54.6244" gradientUnits="userSpaceOnUse">
<stop stop-color="#666666"/>
<stop offset="0.0728" stop-color="#5A5A5A"/>
<stop offset="0.2298" stop-color="#464646"/>
<stop offset="0.4092" stop-color="#383838"/>
<stop offset="0.6282" stop-color="#2F2F2F"/>
<stop offset="1" stop-color="#2D2D2D"/>
</linearGradient>
<linearGradient id="paint20_linear_92982_424479" x1="338.114" y1="44.2148" x2="335.456" y2="54.9468" gradientUnits="userSpaceOnUse">
<stop stop-color="#666666"/>
<stop offset="0.0456" stop-color="#5F5F5F"/>
<stop offset="0.2072" stop-color="#4B4B4B"/>
<stop offset="0.3918" stop-color="#3D3D3D"/>
<stop offset="0.6173" stop-color="#343434"/>
<stop offset="1" stop-color="#323232"/>
</linearGradient>
<linearGradient id="paint21_linear_92982_424479" x1="371.352" y1="58.6244" x2="331.836" y2="8.26588" gradientUnits="userSpaceOnUse">
<stop stop-color="#666666"/>
<stop offset="0.0151" stop-color="#646464"/>
<stop offset="0.1821" stop-color="#505050"/>
<stop offset="0.3721" stop-color="#424242"/>
<stop offset="0.6048" stop-color="#393939"/>
<stop offset="1" stop-color="#373737"/>
</linearGradient>
<linearGradient id="paint22_linear_92982_424479" x1="306.39" y1="29.7751" x2="266.874" y2="-20.5834" gradientUnits="userSpaceOnUse">
<stop stop-color="#666666"/>
<stop offset="0.119" stop-color="#505050"/>
<stop offset="0.2682" stop-color="#3C3C3C"/>
<stop offset="0.4386" stop-color="#2E2E2E"/>
<stop offset="0.6467" stop-color="#252525"/>
<stop offset="1" stop-color="#232323"/>
</linearGradient>
<linearGradient id="paint23_linear_92982_424479" x1="271.852" y1="16.0087" x2="269.194" y2="26.7407" gradientUnits="userSpaceOnUse">
<stop stop-color="#666666"/>
<stop offset="0.0972" stop-color="#555555"/>
<stop offset="0.2501" stop-color="#414141"/>
<stop offset="0.4247" stop-color="#333333"/>
<stop offset="0.6379" stop-color="#2A2A2A"/>
<stop offset="1" stop-color="#282828"/>
</linearGradient>
<linearGradient id="paint24_linear_92982_424479" x1="271.2" y1="16.3312" x2="268.542" y2="27.0633" gradientUnits="userSpaceOnUse">
<stop stop-color="#666666"/>
<stop offset="0.0728" stop-color="#5A5A5A"/>
<stop offset="0.2298" stop-color="#464646"/>
<stop offset="0.4092" stop-color="#383838"/>
<stop offset="0.6282" stop-color="#2F2F2F"/>
<stop offset="1" stop-color="#2D2D2D"/>
</linearGradient>
<linearGradient id="paint25_linear_92982_424479" x1="270.549" y1="16.6536" x2="267.89" y2="27.3857" gradientUnits="userSpaceOnUse">
<stop stop-color="#666666"/>
<stop offset="0.0456" stop-color="#5F5F5F"/>
<stop offset="0.2072" stop-color="#4B4B4B"/>
<stop offset="0.3918" stop-color="#3D3D3D"/>
<stop offset="0.6173" stop-color="#343434"/>
<stop offset="1" stop-color="#323232"/>
</linearGradient>
<linearGradient id="paint26_linear_92982_424479" x1="303.781" y1="31.0642" x2="264.266" y2="-19.2943" gradientUnits="userSpaceOnUse">
<stop stop-color="#666666"/>
<stop offset="0.0151" stop-color="#646464"/>
<stop offset="0.1821" stop-color="#505050"/>
<stop offset="0.3721" stop-color="#424242"/>
<stop offset="0.6048" stop-color="#393939"/>
<stop offset="1" stop-color="#373737"/>
</linearGradient>
<linearGradient id="paint27_linear_92982_424479" x1="442.046" y1="85.0601" x2="402.531" y2="34.7016" gradientUnits="userSpaceOnUse">
<stop stop-color="#666666"/>
<stop offset="0.119" stop-color="#505050"/>
<stop offset="0.2682" stop-color="#3C3C3C"/>
<stop offset="0.4386" stop-color="#2E2E2E"/>
<stop offset="0.6467" stop-color="#252525"/>
<stop offset="1" stop-color="#232323"/>
</linearGradient>
<linearGradient id="paint28_linear_92982_424479" x1="407.501" y1="71.2968" x2="404.843" y2="82.0288" gradientUnits="userSpaceOnUse">
<stop stop-color="#666666"/>
<stop offset="0.0972" stop-color="#555555"/>
<stop offset="0.2501" stop-color="#414141"/>
<stop offset="0.4247" stop-color="#333333"/>
<stop offset="0.6379" stop-color="#2A2A2A"/>
<stop offset="1" stop-color="#282828"/>
</linearGradient>
<linearGradient id="paint29_linear_92982_424479" x1="440.74" y1="85.7042" x2="401.225" y2="35.3457" gradientUnits="userSpaceOnUse">
<stop stop-color="#666666"/>
<stop offset="0.0728" stop-color="#5A5A5A"/>
<stop offset="0.2298" stop-color="#464646"/>
<stop offset="0.4092" stop-color="#383838"/>
<stop offset="0.6282" stop-color="#2F2F2F"/>
<stop offset="1" stop-color="#2D2D2D"/>
</linearGradient>
<linearGradient id="paint30_linear_92982_424479" x1="440.089" y1="86.0267" x2="400.574" y2="35.6682" gradientUnits="userSpaceOnUse">
<stop stop-color="#666666"/>
<stop offset="0.0456" stop-color="#5F5F5F"/>
<stop offset="0.2072" stop-color="#4B4B4B"/>
<stop offset="0.3918" stop-color="#3D3D3D"/>
<stop offset="0.6173" stop-color="#343434"/>
<stop offset="1" stop-color="#323232"/>
</linearGradient>
<linearGradient id="paint31_linear_92982_424479" x1="439.438" y1="86.3493" x2="399.923" y2="35.9908" gradientUnits="userSpaceOnUse">
<stop stop-color="#666666"/>
<stop offset="0.0151" stop-color="#646464"/>
<stop offset="0.1821" stop-color="#505050"/>
<stop offset="0.3721" stop-color="#424242"/>
<stop offset="0.6048" stop-color="#393939"/>
<stop offset="1" stop-color="#373737"/>
</linearGradient>
<radialGradient id="paint32_radial_92982_424479" cx="0" cy="0" r="1" gradientUnits="userSpaceOnUse" gradientTransform="translate(227.778 6.54283) scale(5.87952 6.54274)">
<stop stop-color="#9E9FA1"/>
<stop offset="0.2898" stop-color="#9B9C9E"/>
<stop offset="0.4684" stop-color="#939496"/>
<stop offset="0.6168" stop-color="#858687"/>
<stop offset="0.7487" stop-color="#717273"/>
<stop offset="0.8697" stop-color="#575858"/>
<stop offset="0.9811" stop-color="#373938"/>
<stop offset="1" stop-color="#313332"/>
</radialGradient>
<radialGradient id="paint33_radial_92982_424479" cx="0" cy="0" r="1" gradientUnits="userSpaceOnUse" gradientTransform="translate(224.94 11.9259) rotate(34.9181) scale(11.8601 12.3657)">
<stop stop-color="#9E9FA1"/>
<stop offset="0.2898" stop-color="#9B9C9E"/>
<stop offset="0.4684" stop-color="#939496"/>
<stop offset="0.6168" stop-color="#858687"/>
<stop offset="0.7487" stop-color="#717273"/>
<stop offset="0.8697" stop-color="#575858"/>
<stop offset="0.9811" stop-color="#373938"/>
<stop offset="1" stop-color="#313332"/>
</radialGradient>
<radialGradient id="paint34_radial_92982_424479" cx="0" cy="0" r="1" gradientUnits="userSpaceOnUse" gradientTransform="translate(227.768 6.54885) rotate(34.9181) scale(4.33434 4.51911)">
<stop offset="0.0384" stop-color="#656668"/>
<stop offset="0.1831" stop-color="#6A6B6D"/>
<stop offset="0.5" stop-color="#6E6F71"/>
<stop offset="0.855" stop-color="#686C6E"/>
<stop offset="0.9437" stop-color="#666A6D"/>
</radialGradient>
<linearGradient id="paint35_linear_92982_424479" x1="429.844" y1="88.4272" x2="438.897" y2="94.6213" gradientUnits="userSpaceOnUse">
<stop stop-color="#9E9FA1"/>
<stop offset="0.2016" stop-color="#9B9D9F"/>
<stop offset="0.3258" stop-color="#939799"/>
<stop offset="0.4287" stop-color="#858D8F"/>
<stop offset="0.5053" stop-color="#748284"/>
<stop offset="0.5992" stop-color="#6E7B7D"/>
<stop offset="0.7386" stop-color="#5E6869"/>
<stop offset="0.9057" stop-color="#434848"/>
<stop offset="1" stop-color="#313332"/>
</linearGradient>
<linearGradient id="paint36_linear_92982_424479" x1="429.844" y1="88.4272" x2="438.897" y2="94.6213" gradientUnits="userSpaceOnUse">
<stop stop-color="#9E9FA1" stop-opacity="0"/>
<stop offset="0.2898" stop-color="#9B9C9E" stop-opacity="0.2898"/>
<stop offset="0.4684" stop-color="#939496" stop-opacity="0.4684"/>
<stop offset="0.6168" stop-color="#858687" stop-opacity="0.6168"/>
<stop offset="0.7487" stop-color="#717273" stop-opacity="0.7487"/>
<stop offset="0.8697" stop-color="#575858" stop-opacity="0.8697"/>
<stop offset="0.9811" stop-color="#373938" stop-opacity="0.9811"/>
<stop offset="1" stop-color="#313332"/>
</linearGradient>
<linearGradient id="paint37_linear_92982_424479" x1="438.447" y1="88.6481" x2="431.275" y2="94.2702" gradientUnits="userSpaceOnUse">
<stop stop-color="#9E9FA1"/>
<stop offset="0.2016" stop-color="#9B9D9F"/>
<stop offset="0.3258" stop-color="#939799"/>
<stop offset="0.4287" stop-color="#858D8F"/>
<stop offset="0.5053" stop-color="#748284"/>
<stop offset="0.5992" stop-color="#6E7B7D"/>
<stop offset="0.7386" stop-color="#5E6869"/>
<stop offset="0.9057" stop-color="#434848"/>
<stop offset="1" stop-color="#313332"/>
</linearGradient>
<linearGradient id="paint38_linear_92982_424479" x1="438.965" y1="89.4929" x2="430.534" y2="93.358" gradientUnits="userSpaceOnUse">
<stop stop-color="#9E9FA1" stop-opacity="0"/>
<stop offset="0.2898" stop-color="#9B9C9E" stop-opacity="0.2898"/>
<stop offset="0.4684" stop-color="#939496" stop-opacity="0.4684"/>
<stop offset="0.6168" stop-color="#858687" stop-opacity="0.6168"/>
<stop offset="0.7487" stop-color="#717273" stop-opacity="0.7487"/>
<stop offset="0.8697" stop-color="#575858" stop-opacity="0.8697"/>
<stop offset="0.9811" stop-color="#373938" stop-opacity="0.9811"/>
<stop offset="1" stop-color="#313332"/>
</linearGradient>
<linearGradient id="paint39_linear_92982_424479" x1="10.8465" y1="87.4183" x2="19.8994" y2="93.6124" gradientUnits="userSpaceOnUse">
<stop stop-color="#9E9FA1"/>
<stop offset="0.2016" stop-color="#9B9D9F"/>
<stop offset="0.3258" stop-color="#939799"/>
<stop offset="0.4287" stop-color="#858D8F"/>
<stop offset="0.5053" stop-color="#748284"/>
<stop offset="0.5992" stop-color="#6E7B7D"/>
<stop offset="0.7386" stop-color="#5E6869"/>
<stop offset="0.9057" stop-color="#434848"/>
<stop offset="1" stop-color="#313332"/>
</linearGradient>
<linearGradient id="paint40_linear_92982_424479" x1="10.8465" y1="87.4183" x2="19.8994" y2="93.6124" gradientUnits="userSpaceOnUse">
<stop stop-color="#9E9FA1" stop-opacity="0"/>
<stop offset="0.2898" stop-color="#9B9C9E" stop-opacity="0.2898"/>
<stop offset="0.4684" stop-color="#939496" stop-opacity="0.4684"/>
<stop offset="0.6168" stop-color="#858687" stop-opacity="0.6168"/>
<stop offset="0.7487" stop-color="#717273" stop-opacity="0.7487"/>
<stop offset="0.8697" stop-color="#575858" stop-opacity="0.8697"/>
<stop offset="0.9811" stop-color="#373938" stop-opacity="0.9811"/>
<stop offset="1" stop-color="#313332"/>
</linearGradient>
<linearGradient id="paint41_linear_92982_424479" x1="19.4398" y1="87.65" x2="12.2672" y2="93.272" gradientUnits="userSpaceOnUse">
<stop stop-color="#9E9FA1"/>
<stop offset="0.2016" stop-color="#9B9D9F"/>
<stop offset="0.3258" stop-color="#939799"/>
<stop offset="0.4287" stop-color="#858D8F"/>
<stop offset="0.5053" stop-color="#748284"/>
<stop offset="0.5992" stop-color="#6E7B7D"/>
<stop offset="0.7386" stop-color="#5E6869"/>
<stop offset="0.9057" stop-color="#434848"/>
<stop offset="1" stop-color="#313332"/>
</linearGradient>
<linearGradient id="paint42_linear_92982_424479" x1="19.957" y1="88.4948" x2="11.5268" y2="92.3598" gradientUnits="userSpaceOnUse">
<stop stop-color="#9E9FA1" stop-opacity="0"/>
<stop offset="0.2898" stop-color="#9B9C9E" stop-opacity="0.2898"/>
<stop offset="0.4684" stop-color="#939496" stop-opacity="0.4684"/>
<stop offset="0.6168" stop-color="#858687" stop-opacity="0.6168"/>
<stop offset="0.7487" stop-color="#717273" stop-opacity="0.7487"/>
<stop offset="0.8697" stop-color="#575858" stop-opacity="0.8697"/>
<stop offset="0.9811" stop-color="#373938" stop-opacity="0.9811"/>
<stop offset="1" stop-color="#313332"/>
</linearGradient>
</defs>
</svg>
