<svg width="627" height="378" viewBox="0 0 627 378" fill="none" xmlns="http://www.w3.org/2000/svg">
<g clip-path="url(#clip0_92982_424590)">
<path d="M306.402 111.241C305.669 111.241 304.931 111.122 304.219 110.875L292.945 106.976C290.694 106.197 289.017 104.263 288.567 101.928L286.313 90.2333C285.863 87.8988 286.702 85.4816 288.503 83.9249L297.524 76.1286C299.324 74.5719 301.84 74.089 304.092 74.8676L315.367 78.7675C317.617 79.5456 319.295 81.4799 319.746 83.8148L322 95.5101C322.449 97.8441 321.61 100.261 319.81 101.818L310.788 109.614C309.557 110.679 307.989 111.241 306.402 111.241ZM295.727 100.157L306.262 103.8L314.691 96.5153L312.585 85.5871L302.05 81.943L293.621 89.228L295.727 100.157Z" fill="#F5F5F5"/>
<path d="M437.937 77.2774C437.204 77.2774 436.466 77.1575 435.755 76.9111L430.047 74.9379C427.796 74.1588 426.119 72.2241 425.669 69.8892L424.529 63.9707C424.078 61.6375 424.916 59.2204 426.717 57.6632L431.286 53.7156C433.087 52.1589 435.603 51.676 437.854 52.4551L443.56 54.4292C445.811 55.2074 447.489 57.1421 447.939 59.4775L449.079 65.3956C449.528 67.731 448.69 70.1468 446.891 71.7031L442.323 75.6506C441.091 76.7151 439.524 77.2774 437.937 77.2774ZM432.83 68.1183L437.797 69.8362L441.772 66.4017L440.778 61.2488L435.811 59.5305L431.836 62.965L432.83 68.1183Z" fill="#F5F5F5"/>
<path d="M595.625 163.887C594.168 163.887 592.764 163.228 591.838 162.076L588.623 158.072C587.544 156.729 587.261 154.896 587.887 153.291L589.754 148.509C590.379 146.904 591.829 145.745 593.535 145.483L598.617 144.705C600.318 144.443 602.052 145.117 603.133 146.461L606.348 150.465C607.428 151.809 607.71 153.641 607.084 155.246L605.217 160.028C604.591 161.632 603.142 162.792 601.436 163.054L596.354 163.831C596.111 163.869 595.867 163.887 595.625 163.887ZM599.35 148.326C599.292 148.326 599.233 148.331 599.176 148.34L594.093 149.117C593.684 149.18 593.337 149.458 593.187 149.843L591.32 154.624C591.17 155.009 591.237 155.45 591.497 155.772L594.712 159.776C594.971 160.099 595.395 160.26 595.795 160.197L600.878 159.42C601.287 159.357 601.634 159.079 601.784 158.693L603.651 153.912C603.801 153.527 603.734 153.087 603.474 152.765L600.259 148.761C600.037 148.485 599.7 148.326 599.35 148.326Z" fill="#E0E0E0"/>
<path d="M21.9589 203.832C20.0866 203.832 18.2823 202.985 17.0925 201.503L9.53699 192.097C8.14993 190.369 7.78795 188.015 8.59322 185.952L12.9775 174.717C13.7828 172.654 15.6447 171.165 17.8367 170.829L29.7765 169.001C31.9725 168.666 34.1932 169.53 35.5807 171.258L43.1358 180.665C44.5234 182.391 44.8853 184.746 44.081 186.809L39.6962 198.044C38.8914 200.108 37.029 201.598 34.8362 201.934L22.8964 203.761C22.584 203.809 22.2704 203.832 21.9589 203.832ZM14.6448 188.17L22.0438 197.382L33.7355 195.593L38.0285 184.591L30.6295 175.38L18.9383 177.17L14.6448 188.17Z" fill="#E0E0E0"/>
<path d="M52.5143 121.449H45.394C43.6679 121.449 42.0591 120.523 41.1963 119.03L37.6361 112.875C36.7728 111.383 36.7728 109.53 37.6361 108.038L41.1963 101.883C42.0591 100.39 43.6679 99.4637 45.394 99.4637H52.5143C54.2399 99.4637 55.8487 100.39 56.712 101.882L60.2726 108.038C61.1359 109.53 61.1359 111.383 60.2726 112.875L56.712 119.031C55.8487 120.523 54.2399 121.449 52.5143 121.449ZM45.394 103.14C44.9794 103.14 44.5932 103.363 44.3859 103.721L40.8258 109.876C40.6185 110.234 40.6185 110.679 40.8258 111.037L44.3859 117.192C44.5932 117.55 44.9794 117.773 45.394 117.773H52.5143C52.9288 117.773 53.315 117.55 53.5228 117.192L57.0829 111.037C57.2902 110.679 57.2902 110.234 57.0829 109.876L53.5228 103.721C53.3155 103.363 52.9288 103.14 52.5143 103.14H45.394Z" fill="#EBEBEB"/>
<path d="M173.971 51.9245L160.087 43.204L143.04 14.4915L119.329 0L114.739 4.96063L117.151 8.19162L124.631 18.2123L154.351 58.0273L166.47 64.683L173.971 51.9245Z" fill="#EBEBEB"/>
<path d="M156.525 72.5692L152.548 59.3453L108.878 9.55212L103.055 12.9905L112.275 39.1713L137.626 64.0237L143.307 79.5458L156.525 72.5692Z" fill="#EBEBEB"/>
<path d="M180.176 54.3884C180.176 54.3884 229.49 81.4003 239.425 90.5196C249.359 99.639 272.57 137.604 270.213 142.453C267.856 147.302 266.052 147.926 260.702 143.262C255.352 138.598 238.065 112.544 233.417 108.335C228.769 104.126 171.008 70.3022 171.008 70.3022L180.176 54.3884Z" fill="#E0E0E0"/>
<path d="M146.746 65.9576C155.371 65.9576 162.363 58.9789 162.363 50.3702C162.363 41.7616 155.371 34.7828 146.746 34.7828C138.121 34.7828 131.129 41.7616 131.129 50.3702C131.129 58.9789 138.121 65.9576 146.746 65.9576Z" fill="#EBEBEB"/>
<path d="M142.818 65.4564C142.831 65.375 144.16 65.8289 146.632 65.8488C147.864 65.8778 149.378 65.683 151.054 65.1978C152.726 64.7041 154.559 63.8464 156.279 62.4816C157.986 61.1191 159.616 59.2672 160.688 56.9219C161.74 54.5892 162.378 51.8151 162.061 48.9349C161.944 47.4964 161.581 46.0442 161.008 44.6481C160.75 43.936 160.367 43.2733 160.01 42.5902C159.585 41.9468 159.18 41.281 158.662 40.6872C156.701 38.2267 153.837 36.3837 150.617 35.5165C147.381 34.7075 143.979 34.9248 141.065 36.1207C140.323 36.3879 139.643 36.7722 138.958 37.1278C138.313 37.551 137.655 37.9438 137.082 38.44C135.901 39.3813 134.875 40.4734 134.071 41.6734C132.388 44.0348 131.592 46.7684 131.373 49.3173C131.165 51.887 131.686 54.2971 132.512 56.3165C133.349 58.3446 134.532 59.9846 135.751 61.2281C136.978 62.4661 138.205 63.3722 139.295 63.9456C141.464 65.1294 142.846 65.3789 142.818 65.4564C142.816 65.4644 142.732 65.4466 142.57 65.4041C142.381 65.3515 142.145 65.2856 141.852 65.2037C141.534 65.1206 141.147 65.0011 140.708 64.8045C140.264 64.623 139.745 64.4256 139.206 64.1091C138.089 63.5536 136.826 62.6578 135.56 61.4161C134.302 60.1692 133.075 58.5113 132.199 56.4475C131.335 54.3925 130.781 51.9275 130.976 49.2898C131.183 46.6736 131.986 43.8617 133.707 41.4236C134.529 40.1857 135.581 39.0574 136.794 38.0843C137.384 37.5722 138.059 37.1647 138.723 36.7279C139.427 36.3589 140.127 35.9627 140.891 35.6851C143.89 34.4473 147.402 34.2178 150.738 35.0533C154.057 35.9456 157.012 37.8526 159.027 40.3914C159.558 41.0047 159.976 41.6911 160.411 42.3553C160.777 43.0593 161.168 43.7436 161.433 44.4772C162.018 45.9166 162.386 47.4131 162.501 48.8936C162.814 51.8591 162.144 54.7053 161.048 57.0905C159.932 59.4893 158.246 61.3731 156.488 62.7479C154.717 64.1253 152.837 64.9771 151.129 65.4548C149.417 65.9239 147.877 66.0928 146.63 66.0351C146.005 66.0495 145.455 65.9697 144.979 65.9123C144.5 65.8709 144.103 65.7869 143.785 65.7051C143.488 65.6341 143.25 65.5769 143.06 65.5313C142.898 65.4896 142.816 65.4644 142.818 65.4564Z" fill="#E0E0E0"/>
<path d="M144.528 58.8886C139.815 57.6657 136.987 52.8607 138.212 48.1561C139.437 43.4516 144.251 40.6292 148.965 41.8519C153.678 43.0748 156.506 47.8799 155.281 52.5844C154.056 57.289 149.242 60.1114 144.528 58.8886Z" fill="#E0E0E0"/>
<path d="M144.528 58.8886C144.539 58.8288 145.293 59.0711 146.682 59.0696C148.045 59.0654 150.14 58.6933 152.083 57.1509C153.036 56.3842 153.944 55.3457 154.54 54.0329C155.125 52.7272 155.478 51.1765 155.298 49.5689C155.232 48.7658 155.027 47.9553 154.707 47.1765C154.398 46.3924 153.957 45.6395 153.395 44.9672C152.3 43.5949 150.702 42.5682 148.906 42.084C147.1 41.633 145.203 41.753 143.576 42.4191C142.757 42.733 142.005 43.1766 141.352 43.7114C140.692 44.2359 140.118 44.8447 139.668 45.5141C138.726 46.8308 138.278 48.3572 138.152 49.7818C138.032 51.2179 138.319 52.5668 138.777 53.6994C139.722 55.9908 141.37 57.3338 142.559 58C143.771 58.6764 144.547 58.831 144.528 58.8886C144.528 58.8886 143.736 58.8031 142.469 58.1634C141.229 57.5336 139.488 56.1941 138.464 53.8302C137.968 52.6622 137.648 51.2583 137.755 49.7542C137.869 48.2624 138.324 46.6575 139.304 45.2642C139.773 44.557 140.372 43.912 141.064 43.3557C141.749 42.7892 142.539 42.3181 143.402 41.9836C145.114 41.2756 147.121 41.1432 149.026 41.6208C150.922 42.1301 152.61 43.2209 153.76 44.6714C154.35 45.3827 154.81 46.1782 155.132 47.0056C155.465 47.8278 155.674 48.6824 155.738 49.5276C155.914 51.2206 155.528 52.8433 154.9 54.2016C154.26 55.5676 153.296 56.6383 152.293 57.4173C150.245 58.9845 148.071 59.3087 146.68 59.2559C145.261 59.1988 144.528 58.8886 144.528 58.8886Z" fill="#E0E0E0"/>
<path d="M164.178 62.4893L170.557 51.4087C172.426 48.1618 176.585 47.0404 179.838 48.9061L180.435 49.2487C183.688 51.1145 184.812 55.2654 182.942 58.5125L176.563 69.5931C174.694 72.8401 170.535 73.9614 167.282 72.0957L166.685 71.7532C163.432 69.8874 162.308 65.7364 164.178 62.4893Z" fill="#EBEBEB"/>
<path d="M164.178 62.4893C164.247 62.5136 163.627 63.3399 163.413 65.0778C163.323 65.9388 163.399 67.0228 163.823 68.1759C164.051 68.7447 164.359 69.327 164.777 69.8812C165.207 70.4249 165.743 70.9352 166.384 71.3587C167.037 71.7652 167.753 72.2033 168.54 72.46C169.333 72.7243 170.21 72.8472 171.109 72.7839C172.902 72.6665 174.774 71.7303 175.969 70.0962C178.084 66.5708 180.326 62.538 182.734 58.3948C183.898 56.3776 183.871 53.824 182.765 51.9277C182.241 50.9656 181.464 50.1767 180.577 49.6113C179.664 49.0312 178.746 48.5343 177.744 48.3568C175.76 47.9528 173.738 48.5127 172.341 49.6415C170.897 50.7414 170.256 52.4208 169.409 53.7422C167.83 56.4218 166.543 58.6052 165.623 60.1663C165.185 60.8884 164.836 61.4653 164.572 61.9008C164.327 62.2948 164.192 62.4976 164.178 62.4893C164.163 62.4812 164.271 62.2622 164.488 61.8528C164.733 61.406 165.056 60.8142 165.461 60.0736C166.349 58.494 167.591 56.2848 169.115 53.5737C169.504 52.8879 169.911 52.1708 170.334 51.4245C170.765 50.6632 171.347 49.9257 172.093 49.331C173.564 48.1207 175.71 47.5052 177.832 47.9243C178.899 48.1061 179.901 48.6433 180.823 49.2258C181.774 49.826 182.61 50.6696 183.175 51.6985C184.364 53.7258 184.401 56.4694 183.15 58.6333C180.73 62.7947 178.515 66.7619 176.325 70.3568C175.04 72.095 173.036 73.0736 171.136 73.1799C170.183 73.2383 169.255 73.0983 168.42 72.8095C167.572 72.5171 166.87 72.0725 166.196 71.6399C165.528 71.1857 164.974 70.6415 164.534 70.0652C164.106 69.4782 163.796 68.8647 163.571 68.2685C163.154 67.0603 163.107 65.9373 163.228 65.0558C163.348 64.1676 163.628 63.5255 163.813 63.0999C164.037 62.6895 164.164 62.4813 164.178 62.4893Z" fill="#E0E0E0"/>
<path d="M145.141 87.3895C145.141 87.3895 163.824 140.348 171.224 151.615C178.623 162.881 212.379 191.914 217.556 190.381C222.733 188.849 223.643 187.174 219.902 181.146C216.161 175.119 193.217 153.858 189.812 148.596C186.407 143.334 162.363 80.9482 162.363 80.9482L145.141 87.3895Z" fill="#E0E0E0"/>
<path d="M143.76 77.4319L155.75 72.9518C159.264 71.6387 163.185 73.4203 164.501 76.928L164.742 77.5717C166.058 81.0785 164.273 84.9914 160.76 86.3041L148.768 90.7849C145.254 92.0978 141.333 90.3163 140.018 86.8091L139.776 86.1653C138.461 82.6581 140.246 78.7448 143.76 77.4319Z" fill="#EBEBEB"/>
<path d="M155.751 72.9514C155.745 72.9365 155.971 72.8457 156.413 72.6918C156.864 72.5788 157.545 72.4072 158.442 72.4336C159.333 72.4574 160.436 72.6869 161.562 73.2939C162.115 73.612 162.671 74.017 163.182 74.5342C163.68 75.0616 164.128 75.6956 164.468 76.4266C164.786 77.1609 165.112 77.9246 165.263 78.8078C165.413 79.6769 165.4 80.6133 165.187 81.5421C164.773 83.3969 163.48 85.2109 161.553 86.1942C157.643 87.7661 153.361 89.3023 148.854 91.0083C146.511 91.8885 143.805 91.4067 141.994 89.9055C141.069 89.1821 140.371 88.2214 139.932 87.1868C139.506 86.1842 139.138 85.1104 139.132 84.0295C139.063 81.8715 140.02 79.8585 141.456 78.6069C142.165 77.9692 142.989 77.5157 143.811 77.2153C144.618 76.9196 145.393 76.6355 146.134 76.3639C149.062 75.3037 151.448 74.4398 153.154 73.8222C153.952 73.544 154.589 73.3217 155.071 73.1538C155.511 73.006 155.745 72.9359 155.751 72.9514C155.757 72.9668 155.534 73.0672 155.105 73.2442C154.631 73.4331 154.004 73.6834 153.219 73.9966C151.526 74.6489 149.159 75.5612 146.253 76.6809C144.809 77.3006 143.044 77.6588 141.722 78.9013C140.379 80.0934 139.497 81.9943 139.573 84.0141C139.586 85.029 139.928 86.0137 140.353 87.0071C140.768 87.9731 141.421 88.8669 142.287 89.5392C143.982 90.9363 146.502 91.3788 148.685 90.56C153.173 88.8628 157.524 87.3107 161.353 85.8008C163.163 84.89 164.393 83.198 164.8 81.4513C165.009 80.577 165.03 79.6931 164.898 78.8687C164.772 78.0518 164.456 77.2752 164.16 76.5666C163.845 75.8666 163.428 75.256 162.96 74.7437C162.481 74.2415 161.955 73.8435 161.43 73.5266C160.359 72.9217 159.3 72.6709 158.434 72.6197C156.681 72.5478 155.763 73.0233 155.751 72.9514Z" fill="#E0E0E0"/>
<path d="M627 377.761C627 377.893 486.63 378 313.515 378C140.4 378 0 377.893 0 377.761C0 377.629 140.34 377.521 313.515 377.521C486.69 377.521 627 377.629 627 377.761Z" fill="#263238"/>
<path d="M48.9542 272.613C49.209 271.843 77.9007 178.227 77.9007 178.227L77.1829 166.601L84.6866 154.268L94.0073 157.341L92.7318 171.165L86.1076 181.217L57.2052 275.274L48.9542 272.613Z" fill="#E0E0E0"/>
<path d="M48.9542 272.614C48.9542 272.614 49.1477 272.665 49.508 272.775C49.8797 272.89 50.409 273.054 51.1016 273.268C52.5061 273.709 54.5615 274.355 57.2312 275.194L57.1244 275.249C61.7923 259.976 72.5888 224.648 85.883 181.148L85.8928 181.116L85.9114 181.088C88.0091 177.903 90.2551 174.493 92.5327 171.035L92.4946 171.143C92.901 166.734 93.332 162.056 93.7685 157.319L93.932 157.568C93.6892 157.488 93.4255 157.401 93.1617 157.314C90.2871 156.366 87.4349 155.426 84.6116 154.495L84.891 154.392C82.3404 158.583 79.8329 162.702 77.3847 166.724L77.4185 166.587C77.6617 170.551 77.8996 174.43 78.1316 178.213L78.1342 178.255L78.1219 178.295C69.736 205.492 62.4731 229.048 57.3021 245.818C54.7014 254.204 52.6278 260.89 51.199 265.497C50.4825 267.789 49.9287 269.56 49.5489 270.775C49.3605 271.368 49.2162 271.822 49.114 272.143C49.0143 272.452 48.9542 272.614 48.9542 272.614C48.9542 272.614 48.9898 272.464 49.0773 272.161C49.171 271.844 49.3034 271.396 49.4762 270.811C49.8395 269.602 50.3693 267.84 51.0548 265.561C52.4509 260.957 54.4772 254.274 57.0185 245.893C62.15 229.07 69.3576 205.442 77.6795 178.16L77.6698 178.241C77.4347 174.459 77.1936 170.58 76.9472 166.616L76.9427 166.542L76.9811 166.479C79.4276 162.456 81.9333 158.336 84.482 154.145L84.5808 153.982L84.7617 154.042C87.585 154.972 90.4374 155.912 93.312 156.859C93.5759 156.946 93.8396 157.033 94.0823 157.113L94.2635 157.173L94.246 157.363C93.8086 162.099 93.3765 166.777 92.9692 171.187L92.9637 171.246L92.9309 171.296C90.6514 174.753 88.4033 178.162 86.3038 181.346L86.3321 181.286C72.905 224.745 62.0006 260.039 57.2861 275.299L57.2606 275.382L57.1791 275.355C54.5022 274.469 52.4412 273.788 51.033 273.322C50.3534 273.094 49.8342 272.919 49.4696 272.797C49.1213 272.678 48.9542 272.614 48.9542 272.614Z" fill="#263238"/>
<path d="M42.0284 277.164L29.1422 294.557L11.1217 359.8C11.1217 359.8 8.53063 373.108 23.2594 376.889C39.7976 381.135 43.6122 368.49 43.6122 368.49L61.1339 304.77L60.8713 282.656L65.1967 277.795C66.0671 276.817 65.65 275.269 64.4054 274.859L43.7138 268.039C42.4632 267.627 41.2007 268.634 41.3276 269.942L42.0284 277.164Z" fill="#00A99D"/>
<path d="M61.0177 283.425C60.9776 283.551 56.6406 282.29 51.3319 280.608C46.0212 278.926 41.75 277.461 41.7901 277.335C41.8301 277.209 46.1663 278.47 51.4769 280.152C56.7856 281.834 61.0578 283.299 61.0177 283.425Z" fill="#263238"/>
<path d="M61.134 304.77C61.126 304.802 60.6667 304.719 59.8426 304.542C59.018 304.367 57.8311 304.088 56.3697 303.721C53.4468 302.988 49.4321 301.878 45.0502 300.483C40.6676 299.085 36.751 297.667 33.9436 296.574C32.5396 296.027 31.41 295.569 30.6365 295.234C29.8622 294.902 29.4401 294.703 29.4523 294.673C29.4645 294.642 29.9098 294.782 30.7042 295.061C31.5829 295.374 32.7105 295.775 34.062 296.256C36.8961 297.267 40.8221 298.632 45.1961 300.027C49.5693 301.419 53.5607 302.578 56.4574 303.394C57.8382 303.783 58.9903 304.108 59.8882 304.362C60.6977 304.594 61.1418 304.738 61.134 304.77Z" fill="#263238"/>
<g opacity="0.3">
<path d="M35.51 301.291L35.0677 301.16C33.457 300.684 31.7647 301.602 31.2878 303.21L15.1104 357.747C14.6335 359.355 15.5527 361.044 17.1634 361.52L17.6057 361.651C19.2164 362.127 20.9088 361.209 21.3856 359.602L37.563 305.064C38.0399 303.456 37.1207 301.767 35.51 301.291Z" fill="black"/>
</g>
<g opacity="0.3">
<path d="M44.6978 304.311L44.2558 304.18C42.645 303.704 40.9526 304.621 40.4756 306.229L24.2952 360.766C23.8182 362.373 24.7373 364.063 26.348 364.539L26.7901 364.669C28.4009 365.146 30.0933 364.228 30.5703 362.621L46.7507 308.084C47.2277 306.476 46.3086 304.787 44.6978 304.311Z" fill="black"/>
</g>
<g opacity="0.3">
<path d="M54.4478 307.192L54.0054 307.061C52.3947 306.585 50.7024 307.502 50.2255 309.11L34.0472 363.648C33.5703 365.255 34.4894 366.945 36.1001 367.421L36.5425 367.551C38.1532 368.027 39.8455 367.11 40.3224 365.502L56.5007 310.964C56.9776 309.357 56.0585 307.668 54.4478 307.192Z" fill="black"/>
</g>
<path d="M86.0188 181.19C85.9755 181.315 84.139 180.795 81.9174 180.028C79.6949 179.261 77.9289 178.538 77.9722 178.413C78.0155 178.288 79.8516 178.809 82.0741 179.576C84.2957 180.343 86.062 181.066 86.0188 181.19Z" fill="#263238"/>
<path d="M94.0072 157.341C94.0347 157.349 93.919 157.804 93.683 158.63C93.4172 159.523 93.0658 160.703 92.6368 162.145C91.6874 165.195 90.3982 169.337 88.93 174.055L88.8583 174.285L88.6287 174.205C87.2598 173.729 85.8409 173.235 84.3868 172.73C82.8856 172.204 81.4221 171.691 80.0171 171.199L79.8091 171.126L79.8684 170.916C81.2006 166.192 82.3688 162.05 83.2289 159C83.6515 157.571 83.9974 156.4 84.2592 155.514C84.5092 154.701 84.6588 154.261 84.6865 154.268C84.7143 154.276 84.618 154.73 84.4172 155.557C84.1896 156.452 83.8888 157.635 83.5213 159.08C82.7023 162.141 81.5894 166.299 80.3205 171.04L80.1719 170.757C81.5779 171.246 83.0427 171.756 84.545 172.278C85.998 172.787 87.4157 173.283 88.7837 173.762L88.4825 173.913C90.013 169.215 91.357 165.09 92.3466 162.053C92.8304 160.628 93.2265 159.462 93.5261 158.58C93.8111 157.77 93.9796 157.332 94.0072 157.341Z" fill="#263238"/>
<path d="M365.614 63.8453C364.88 63.8453 364.143 63.7254 363.431 63.479L352.156 59.5797C349.907 58.8015 348.228 56.8682 347.778 54.534L345.524 42.8371C345.073 40.503 345.913 38.0851 347.715 36.5287L356.735 28.7325C358.536 27.1775 361.055 26.6937 363.303 27.4719L374.578 31.3718C376.829 32.1499 378.507 34.0846 378.957 36.42L381.21 48.1139C381.66 50.4507 380.82 52.8672 379.019 54.4227L369.999 62.218C368.768 63.2825 367.201 63.8453 365.614 63.8453ZM354.938 52.76L365.474 56.4036L373.902 49.1191L371.796 38.1914L361.261 34.5473L352.832 41.8318L354.938 52.76Z" fill="#E0E0E0"/>
<path d="M354.938 52.7599C354.925 52.7715 354.861 52.5209 354.751 52.0325C354.636 51.4928 354.482 50.7756 354.289 49.8773C353.892 47.9304 353.337 45.2053 352.657 41.8655C352.644 41.8018 352.67 41.7373 352.715 41.6973C355.111 39.6087 357.968 37.1181 361.113 34.3768C361.175 34.3221 361.261 34.3091 361.335 34.3342C364.596 35.4577 368.159 36.6852 371.873 37.9646C371.734 37.8033 372.066 38.1852 372.032 38.147L372.033 38.1499L372.034 38.1555L372.036 38.1667L372.04 38.1892L372.049 38.2342L372.066 38.3241L372.101 38.5038L372.17 38.8624L372.307 39.577C372.399 40.0519 372.489 40.5243 372.58 40.9937C372.76 41.9326 372.938 42.8599 373.113 43.7736C373.461 45.6005 373.799 47.3732 374.124 49.0763C374.14 49.1578 374.109 49.2387 374.05 49.2897C370.882 52.0043 368.019 54.4573 365.59 56.5379C365.542 56.581 365.473 56.5911 365.415 56.5716C362.2 55.4218 359.577 54.4837 357.704 53.8135C356.84 53.4945 356.151 53.2399 355.633 53.0482C355.164 52.87 354.925 52.7715 354.938 52.7599C354.951 52.7484 355.217 52.8243 355.708 52.9782C356.24 53.1501 356.948 53.3785 357.834 53.6645C359.705 54.2892 362.323 55.1636 365.532 56.2355L365.357 56.269C367.767 54.1677 370.609 51.6903 373.754 48.9485L373.68 49.1616C373.349 47.4596 373.004 45.6883 372.649 43.8627C372.472 42.9493 372.292 42.0223 372.111 41.0838C372.02 40.6144 371.929 40.1422 371.837 39.6673L371.699 38.9529L371.63 38.5943L371.595 38.4146L371.578 38.3246L371.569 38.2797L371.565 38.2571L371.563 38.2459L371.562 38.2403L371.561 38.2375C371.527 38.1969 371.857 38.5789 371.716 38.4168C368.005 37.1283 364.445 35.892 361.187 34.7603L361.408 34.7178C358.241 37.4321 355.362 39.8981 352.949 41.9662L353.007 41.7982C353.611 45.1213 354.103 47.8327 354.455 49.7695C354.612 50.6859 354.737 51.4176 354.832 51.968C354.914 52.4754 354.951 52.7483 354.938 52.7599Z" fill="#263238"/>
<path d="M365.614 63.8452C365.613 63.8205 366.014 63.8364 366.754 63.6984C367.483 63.5562 368.582 63.2283 369.699 62.3447C371.885 60.4337 375.006 57.705 378.853 54.3422C379.81 53.5306 380.557 52.3894 380.915 51.0735C381.089 50.4151 381.165 49.7175 381.128 49.0116C381.085 48.3134 380.898 47.5901 380.764 46.8468C380.186 43.8847 379.569 40.7217 378.92 37.3943C378.758 36.5523 378.625 35.7314 378.251 34.9734C377.898 34.2124 377.386 33.5139 376.754 32.9342C376.122 32.3533 375.364 31.8982 374.539 31.6052C373.682 31.3092 372.817 31.0103 371.944 30.7088C370.196 30.1057 368.418 29.4919 366.614 28.8691C365.712 28.5574 364.803 28.2434 363.888 27.9274C362.97 27.5801 362.084 27.3411 361.123 27.3462C360.178 27.3515 359.238 27.5537 358.392 27.9488C357.528 28.3265 356.84 28.9468 356.114 29.5844C354.67 30.8312 353.246 32.0599 351.847 33.2672C350.451 34.4739 349.08 35.6592 347.737 36.8202C346.46 37.9737 345.717 39.62 345.637 41.2567C345.575 42.0801 345.751 42.8718 345.909 43.6922C346.064 44.5039 346.216 45.3047 346.367 46.094C346.667 47.6723 346.958 49.2048 347.239 50.687C347.527 52.1611 347.776 53.6173 348.067 54.9584C348.423 56.274 349.173 57.4174 350.128 58.2252C350.603 58.6321 351.125 58.9614 351.667 59.2087C352.206 59.4496 352.785 59.6256 353.327 59.8233C354.417 60.2073 355.446 60.5698 356.41 60.9093C358.326 61.5885 359.981 62.1751 361.345 62.6591C362.705 63.1241 363.733 63.5729 364.474 63.6985C365.213 63.8369 365.615 63.8214 365.614 63.8452C365.614 63.8452 365.213 63.9029 364.457 63.7934C363.693 63.6948 362.65 63.2717 361.284 62.8351C359.912 62.3725 358.249 61.8115 356.323 61.1621C355.355 60.8335 354.322 60.4826 353.227 60.111C352.68 59.9172 352.115 59.7538 351.535 59.5021C350.963 59.2477 350.412 58.9067 349.908 58.4829C348.897 57.6415 348.095 56.4435 347.71 55.0547C347.397 53.6625 347.148 52.2463 346.849 50.762C346.56 49.2812 346.261 47.7503 345.953 46.1736C345.799 45.3849 345.643 44.5849 345.485 43.7738C345.328 42.9771 345.132 42.1136 345.196 41.2344C345.275 39.4854 346.063 37.7229 347.427 36.4828C348.771 35.3162 350.143 34.1252 351.54 32.9127C352.937 31.7035 354.359 30.4731 355.802 29.2244C356.169 28.9127 356.51 28.598 356.909 28.286C357.307 27.9866 357.736 27.7275 358.19 27.5152C359.099 27.0906 360.108 26.8729 361.123 26.8675C362.134 26.8538 363.158 27.1365 364.045 27.4757C364.96 27.7923 365.868 28.1069 366.77 28.4193C368.574 29.0443 370.351 29.6604 372.097 30.2657C372.971 30.5692 373.836 30.8701 374.694 31.1681C375.578 31.4841 376.389 31.9743 377.064 32.5977C377.739 33.2201 378.284 33.9689 378.66 34.7842C379.057 35.596 379.199 36.4923 379.354 37.3111C379.988 40.6414 380.59 43.8071 381.154 46.7719C381.283 47.5122 381.468 48.233 381.511 48.9905C381.546 49.7385 381.461 50.4763 381.272 51.1704C380.886 52.557 380.083 53.7574 379.075 54.598C375.183 57.915 372.026 60.6063 369.814 62.4912C368.647 63.377 367.516 63.6796 366.77 63.7934C366.015 63.9023 365.614 63.8452 365.614 63.8452Z" fill="#263238"/>
<path d="M287.129 44.7115C285.672 44.7115 284.268 44.0527 283.342 42.8998L280.127 38.8971C279.047 37.5527 278.765 35.7198 279.392 34.1145L281.257 29.3338C281.884 27.7285 283.334 26.5689 285.04 26.3076L290.12 25.5299C291.828 25.2705 293.557 25.9418 294.637 27.2856L297.852 31.2891C298.931 32.6331 299.214 34.4655 298.588 36.0707L296.721 40.8525C296.095 42.4578 294.646 43.6174 292.94 43.8786L287.859 44.6564C287.616 44.6936 287.371 44.7115 287.129 44.7115ZM290.854 29.1506C290.796 29.1506 290.737 29.1551 290.679 29.1641L285.598 29.9418C285.188 30.0042 284.84 30.2829 284.689 30.6684L282.824 35.4488C282.674 35.8347 282.741 36.275 283.001 36.5977L286.216 40.6003C286.475 40.9234 286.891 41.0845 287.3 41.0222L292.381 40.2444C292.791 40.182 293.139 39.9038 293.289 39.5183L295.155 34.737C295.306 34.3519 295.237 33.9117 294.978 33.5886L291.763 29.5855C291.541 29.309 291.204 29.1506 290.854 29.1506Z" fill="#E0E0E0"/>
<path d="M290.854 29.1507C290.852 29.1394 290.992 29.1021 291.25 29.1689C291.377 29.2054 291.532 29.2718 291.684 29.3987C291.839 29.5322 291.96 29.7018 292.122 29.8828C292.793 30.6875 293.674 31.7439 294.738 33.0191C294.877 33.1891 295.019 33.3627 295.163 33.5398C295.317 33.7499 295.408 34.0116 295.419 34.2836C295.438 34.5584 295.323 34.84 295.24 35.0498C295.153 35.2785 295.064 35.5112 294.974 35.7477C294.611 36.6987 294.224 37.7089 293.819 38.7691C293.716 39.0351 293.613 39.3042 293.508 39.5761C293.393 39.895 293.142 40.1855 292.822 40.3418C292.475 40.5076 292.167 40.494 291.875 40.5565C291.574 40.6035 291.27 40.6509 290.963 40.6988C289.719 40.8849 288.503 41.0969 287.127 41.2742C286.729 41.2752 286.338 41.1014 286.078 40.8064C285.871 40.5502 285.666 40.2957 285.463 40.0429C285.062 39.5429 284.668 39.0501 284.28 38.5655C283.894 38.081 283.514 37.6049 283.141 37.138L282.864 36.7899C282.766 36.6747 282.661 36.5091 282.606 36.3493C282.485 36.0236 282.5 35.652 282.627 35.3469C283.047 34.2922 283.447 33.2871 283.824 32.3409C284.012 31.8722 284.194 31.4182 284.369 30.9801C284.463 30.7702 284.52 30.5404 284.68 30.3163C284.833 30.1051 285.044 29.9476 285.274 29.8574C287.045 29.5342 288.385 29.4087 289.357 29.2723C290.313 29.153 290.851 29.1042 290.854 29.1507C290.852 29.1701 290.726 29.1847 290.477 29.2439C290.171 29.3035 289.812 29.3734 289.385 29.4565C288.456 29.6401 287.013 29.847 285.401 30.171C285.232 30.2424 285.078 30.3635 284.97 30.5216C284.864 30.6664 284.804 30.8932 284.714 31.1142C284.547 31.5556 284.373 32.0129 284.194 32.485C283.831 33.4362 283.444 34.4466 283.039 35.507C282.95 35.729 282.946 35.9718 283.028 36.1946C283.095 36.402 283.315 36.6086 283.499 36.852C283.874 37.3164 284.257 37.7901 284.647 38.2721C285.037 38.7553 285.433 39.2465 285.835 39.7451C286.033 39.991 286.234 40.2386 286.435 40.488C286.605 40.6815 286.865 40.7962 287.126 40.7956C288.416 40.6038 289.674 40.4165 290.892 40.2352C291.199 40.1892 291.503 40.1435 291.805 40.0983C292.106 40.042 292.425 40.0354 292.619 39.9322C292.836 39.8255 293.003 39.6421 293.089 39.4131C293.196 39.1421 293.302 38.874 293.407 38.6091C293.827 37.5545 294.227 36.5496 294.604 35.6036C294.698 35.3689 294.791 35.1378 294.882 34.9105C294.981 34.6699 295.057 34.4963 295.049 34.2931C295.045 34.0951 294.983 33.9015 294.874 33.7447C294.738 33.5699 294.604 33.3985 294.474 33.2307C293.458 31.9168 292.617 30.8284 291.976 29.9993C291.479 29.1222 290.83 29.1938 290.854 29.1507Z" fill="#263238"/>
<path d="M287.129 44.7116C287.129 44.6951 287.343 44.6626 287.744 44.6168C288.194 44.5384 288.777 44.4369 289.502 44.3107C290.285 44.1792 291.217 44.0228 292.288 43.843C292.836 43.7504 293.408 43.6838 293.964 43.4373C294.524 43.2091 295.067 42.8488 295.534 42.3713C296.002 41.8892 296.379 41.2961 296.623 40.5942C296.894 39.8879 297.176 39.1543 297.467 38.3955C297.968 36.8581 298.999 35.2882 298.625 33.5301C298.473 32.661 298.072 31.8536 297.442 31.1442C296.841 30.3979 296.227 29.6362 295.602 28.8609C295.289 28.473 294.974 28.0816 294.656 27.6872C294.342 27.2816 294.027 26.938 293.628 26.6409C292.845 26.0535 291.857 25.7145 290.851 25.7164C290.356 25.7068 289.845 25.8229 289.323 25.8939C288.806 25.9726 288.293 26.0508 287.784 26.1285C286.771 26.2856 285.773 26.4404 284.792 26.5926C283.865 26.7965 283.02 27.2818 282.397 27.9509C282.085 28.2843 281.825 28.6596 281.626 29.0594C281.436 29.4523 281.278 29.9081 281.107 30.3269C280.771 31.1776 280.444 32.0077 280.125 32.8147C279.826 33.631 279.434 34.3894 279.319 35.1527C279.056 36.7204 279.658 38.1808 280.576 39.1866C281.429 40.2684 282.203 41.2511 282.889 42.1226C283.237 42.5515 283.525 42.9755 283.857 43.2894C284.187 43.6103 284.531 43.8603 284.863 44.0451C286.22 44.7724 287.148 44.6423 287.129 44.7116C287.129 44.7198 287.076 44.7266 286.97 44.7316C286.865 44.7384 286.708 44.7355 286.502 44.7179C286.095 44.679 285.48 44.5714 284.774 44.209C284.422 44.0299 284.055 43.7811 283.7 43.4545C283.336 43.1278 283.034 42.7067 282.68 42.2899C281.977 41.4316 281.184 40.4637 280.312 39.3984C279.356 38.3926 278.648 36.7834 278.926 35.0917C279.052 34.2349 279.446 33.4722 279.733 32.662C280.045 31.8525 280.366 31.0201 280.695 30.1669C280.868 29.738 281.008 29.3139 281.222 28.8611C281.438 28.4207 281.721 28.0069 282.063 27.639C282.743 26.901 283.67 26.3623 284.692 26.1345C285.703 25.9566 286.688 25.8201 287.712 25.6578C288.221 25.5796 288.734 25.5007 289.25 25.4214C289.761 25.3528 290.285 25.2304 290.851 25.2379C291.962 25.2359 293.052 25.6105 293.914 26.2601C294.345 26.5768 294.723 26.9952 295.026 27.3912C295.343 27.7866 295.657 28.1788 295.968 28.5677C296.59 29.3454 297.201 30.1096 297.8 30.8583C298.442 31.5847 298.911 32.5155 299.06 33.455C299.225 34.3974 299.105 35.3601 298.766 36.1942C298.447 36.9995 298.137 37.7821 297.838 38.5395C297.538 39.2948 297.247 40.0251 296.968 40.7282C296.707 41.4523 296.282 42.1071 295.775 42.6091C294.763 43.647 293.409 44.0207 292.329 44.1075C291.253 44.2564 290.317 44.3859 289.53 44.4949C288.761 44.5944 288.166 44.6824 287.756 44.7125C287.343 44.7283 287.129 44.7281 287.129 44.7116Z" fill="#263238"/>
<path d="M376.839 32.7134C376.933 32.7959 375.908 34.1766 374.468 35.7422C373.026 37.3112 371.654 38.3785 371.569 38.279C371.481 38.178 372.689 36.9693 374.116 35.4171C375.543 33.8653 376.734 32.6218 376.839 32.7134Z" fill="#263238"/>
<path d="M359.572 27.4286C359.693 27.3865 360.328 28.9205 360.804 30.9049C361.285 32.8888 361.419 34.5427 361.291 34.5604C361.157 34.5805 360.813 32.9772 360.338 31.0169C359.867 29.0561 359.443 27.4717 359.572 27.4286Z" fill="#263238"/>
<path d="M352.707 41.6471C352.654 41.7728 351.101 41.2284 349.168 40.634C347.235 40.034 345.646 39.6075 345.673 39.4739C345.697 39.3483 347.351 39.5688 349.309 40.1767C351.269 40.7795 352.759 41.5298 352.707 41.6471Z" fill="#263238"/>
<path d="M350.74 57.5914C350.639 57.5067 351.482 56.3322 352.623 54.9687C353.765 53.6046 354.772 52.5678 354.874 52.6526C354.976 52.7373 354.133 53.9114 352.991 55.2755C351.85 56.6391 350.842 57.6761 350.74 57.5914Z" fill="#263238"/>
<path d="M366.251 62.6258C366.12 62.6461 365.83 61.319 365.603 59.6617C365.376 58.0041 365.298 56.648 365.43 56.6326C365.561 56.617 365.851 57.944 366.078 59.5969C366.305 61.2493 366.382 62.6055 366.251 62.6258Z" fill="#263238"/>
<path d="M379.352 50.8473C379.304 50.9706 378.088 50.6188 376.635 50.0615C375.182 49.5041 374.043 48.9524 374.09 48.8289C374.138 48.7057 375.354 49.0573 376.807 49.6148C378.26 50.172 379.399 50.7239 379.352 50.8473Z" fill="#263238"/>
<path d="M562.156 121.321C568.397 113.827 574.63 106.253 579.486 97.7987C584.342 89.3438 587.8 79.8922 588.029 70.1493C588.063 68.6723 587.425 58.4175 586.002 58.0082C584.986 57.7153 584.287 66.767 583.454 67.4179C575.504 73.6305 570.337 82.8493 567.365 92.4802C564.394 102.111 562.987 111.278 562.156 121.321Z" fill="#263238"/>
<path d="M480.953 178.327C483.439 171.907 495.673 139.762 495.624 139.743C495.624 139.743 474.527 128.783 481.769 106.47C485.268 95.6922 494.283 74.0814 502.668 54.6195C511.68 33.7016 535.281 23.2088 556.894 30.4936L559.042 31.2173C581.747 40.3743 586.639 64.736 576.84 87.1362L531.75 191.453L492.213 179.255L480.953 178.327Z" fill="#FFBF9D"/>
<path d="M495.624 139.743C495.624 139.743 509.378 145.294 527.503 140.959C527.503 140.959 514.96 155.103 493.423 145.615L495.624 139.743Z" fill="#FF9A6C"/>
<path d="M502.661 76.0771C502.035 77.7327 502.923 79.6275 504.644 80.3119C506.361 80.9945 508.262 80.2112 508.889 78.5551C509.515 76.8997 508.628 75.0037 506.91 74.3198C505.191 73.6352 503.288 74.4215 502.661 76.0771Z" fill="#263238"/>
<path d="M504.306 65.4458C504.56 65.9923 507.57 65.0246 510.989 66.187C514.42 67.299 516.336 69.9018 516.848 69.6084C517.093 69.4851 516.945 68.6023 516.12 67.4396C515.312 66.2862 513.737 64.8979 511.602 64.1886C509.467 63.4826 507.41 63.6607 506.108 64.115C504.784 64.5667 504.174 65.1945 504.306 65.4458Z" fill="#263238"/>
<path d="M532.674 88.1218C532.048 89.7774 532.936 91.6719 534.657 92.3563C536.373 93.0396 538.275 92.2564 538.902 90.5998C539.527 88.9444 538.64 87.0482 536.923 86.3644C535.202 85.6795 533.3 86.4666 532.674 88.1218Z" fill="#263238"/>
<path d="M537.349 78.1216C537.604 78.6689 540.617 77.703 544.033 78.8642C547.463 79.9761 549.379 82.5789 549.893 82.2858C550.137 82.1617 549.992 81.2815 549.163 80.1174C548.356 78.9632 546.78 77.5754 544.646 76.8657C542.511 76.1596 540.454 76.3384 539.152 76.7918C537.83 77.2442 537.219 77.872 537.349 78.1216Z" fill="#263238"/>
<path d="M516.2 100.223C516.281 100.035 514.279 98.9512 510.982 97.3501C510.139 96.9659 509.37 96.5137 509.425 95.8691C509.432 95.1702 510.116 94.3531 510.882 93.4808C512.418 91.6476 514.026 89.7262 515.712 87.7121C522.498 79.4685 527.725 72.5711 527.39 72.3011C527.054 72.0314 521.283 78.4942 514.497 86.7381C512.845 88.7788 511.267 90.7221 509.762 92.5832C509.097 93.4629 508.148 94.395 508.151 95.8526C508.166 96.5835 508.647 97.2728 509.156 97.6115C509.659 97.9712 510.147 98.1464 510.57 98.3176C513.975 99.6723 516.121 100.413 516.2 100.223Z" fill="#263238"/>
<path d="M525.469 105.979C524.923 105.759 523.663 109.463 519.594 111.022C515.528 112.592 511.711 110.842 511.506 111.35C511.376 111.565 512.145 112.367 513.8 112.976C515.42 113.584 517.991 113.865 520.481 112.912C522.965 111.952 524.527 110.081 525.168 108.603C525.834 107.101 525.731 106.043 525.469 105.979Z" fill="#263238"/>
<path d="M542.225 64.3289C542.249 65.3714 545.813 66.0821 549.664 67.9182C553.551 69.6765 556.391 71.94 557.205 71.2872C557.577 70.9687 557.309 69.905 556.304 68.5653C555.311 67.2311 553.529 65.6803 551.21 64.6004C548.89 63.5254 546.554 63.1636 544.892 63.2643C543.218 63.3598 542.229 63.8399 542.225 64.3289Z" fill="#263238"/>
<path d="M509.56 54.5715C509.899 55.5498 512.528 55.5392 515.375 56.4564C518.253 57.2743 520.432 58.7418 521.259 58.1163C521.634 57.8046 521.52 56.9003 520.719 55.8129C519.934 54.733 518.407 53.5525 516.44 52.955C514.472 52.3604 512.547 52.4943 511.292 52.9567C510.021 53.4162 509.422 54.104 509.56 54.5715Z" fill="#263238"/>
<path d="M569.456 102.977C569.891 102.94 586.28 103.616 580.655 118.643C575.029 133.67 561.074 124.933 561.209 124.493C561.345 124.052 569.456 102.977 569.456 102.977Z" fill="#FFBF9D"/>
<path d="M567.939 120.515C568.024 120.492 568.133 120.796 568.5 121.164C568.858 121.523 569.551 121.936 570.446 121.935C572.254 121.946 574.537 119.925 575.624 117.244C576.174 115.891 576.375 114.481 576.293 113.222C576.245 111.952 575.82 110.918 575.073 110.477C574.345 109.996 573.599 110.263 573.256 110.617C572.897 110.962 572.88 111.298 572.791 111.294C572.735 111.316 572.562 110.921 572.916 110.346C573.09 110.071 573.399 109.782 573.86 109.625C574.331 109.467 574.919 109.516 575.454 109.784C576.585 110.297 577.231 111.753 577.322 113.135C577.474 114.547 577.281 116.143 576.663 117.663C575.433 120.655 572.819 122.91 570.408 122.726C569.245 122.607 568.481 121.958 568.158 121.433C567.831 120.888 567.877 120.523 567.939 120.515Z" fill="#FF9A6C"/>
<path d="M521.915 33.5271C520.001 31.2596 530.307 26.2012 537.313 25.7845C547.904 25.1548 562.644 27.915 570.055 33.4543C578.978 40.1229 585.385 48.2814 586.915 59.3026C588.445 70.324 586.26 81.6457 581.976 91.9177C580.669 95.0516 579.07 98.2279 576.344 100.258C572.975 102.767 568.152 103.312 566.572 107.947C565.995 109.641 564.869 111.143 563.255 111.922C559.389 113.786 557.083 109.761 556.595 106.423C555.552 99.2932 557.877 92.1487 560.171 85.3176C561.802 80.4619 563.483 75.5082 566.596 71.4372C568.29 69.2221 570.376 67.3149 571.945 65.0094C573.513 62.704 574.541 59.7996 573.756 57.1252C573.628 56.6902 573.367 56.1032 573.011 55.4277C570.191 50.0828 564.67 46.6915 558.62 46.5316C549.023 46.2787 532.879 45.2081 530.211 40.9027C526.372 34.7083 526.107 31.5263 526.107 31.5263L521.915 33.5271Z" fill="#263238"/>
<path d="M572.004 24.2873C572.969 24.7762 595.596 38.7293 595.446 59.0754C595.297 79.4213 591.567 84.4042 591.567 84.4042C591.567 84.4042 592.693 85.7558 593.371 87.4819C593.979 89.0288 590.507 94.2643 587.529 92.5168C567.214 73.7047 539.22 62.9009 507.284 53.0311L483.194 44.4245C476.148 42.8843 474.389 40.273 477.831 39.5571C480.47 39.0084 502.35 37.9048 502.35 37.9048L507.075 36.4528L521.832 26.056C521.832 26.056 521.261 23.7085 524.256 22.9449C527.251 22.1809 552.95 14.6362 572.004 24.2873Z" fill="#81319B"/>
<path d="M507.075 36.4529C507.075 36.4529 507.395 36.5808 508.016 36.7837C508.757 37.0201 509.655 37.3064 510.737 37.6514C513.114 38.3564 516.499 39.5501 520.656 41.0802C528.929 44.2344 540.154 49.2357 551.735 56.2235C563.363 63.1349 573.244 70.4059 580.297 75.7635C583.832 78.4364 586.647 80.6591 588.603 82.1811C589.5 82.8774 590.243 83.4555 590.858 83.9327C591.376 84.3292 591.662 84.5207 591.662 84.5207C591.662 84.5207 591.413 84.284 590.912 83.8653C590.312 83.371 589.584 82.7725 588.708 82.0506C586.783 80.4882 583.996 78.2286 580.482 75.5229C573.473 70.1003 563.606 62.78 551.955 55.855C540.352 48.8535 529.077 43.8824 520.763 40.7959C512.418 37.7551 507.075 36.4529 507.075 36.4529Z" fill="#263238"/>
<g opacity="0.3">
<path d="M590.703 42.731C590.703 42.731 565.733 29.3891 551.938 31.0075C552.476 30.9345 553.013 30.8617 553.55 30.7888C549.257 31.1457 544.965 31.5024 540.672 31.8593C538.498 32.0402 535.999 32.1046 534.502 30.5197C534.502 30.5197 542.322 27.2125 554.669 27.2758C567.016 27.3386 585.133 31.7597 590.703 42.731Z" fill="black"/>
</g>
<path d="M591.04 43.0015C591.04 43.0015 590.478 42.0897 589.205 40.6397C587.937 39.1929 585.968 37.1791 583.148 35.1761C580.351 33.1538 576.704 31.1519 572.377 29.6687C568.075 28.1874 563.025 27.1257 557.734 27.6391C555.097 27.8612 552.571 28.3802 550.145 28.8868C547.727 29.4366 545.378 29.8441 543.166 30.4573C540.97 31.0725 538.914 31.7513 536.916 31.9428C534.911 32.2233 533.085 31.7426 531.453 31.2176C524.924 29.0773 521.397 26.3668 521.832 26.056C521.836 26.0399 521.813 26.361 522.174 26.746C522.528 27.1139 523.112 27.6017 523.939 28.1013C525.583 29.1136 528.085 30.3889 531.359 31.5058C532.974 32.0515 534.902 32.57 536.952 32.2971C539 32.1149 541.087 31.438 543.271 30.8385C545.45 30.2449 547.819 29.8409 550.232 29.2983C552.655 28.7979 555.167 28.2856 557.771 28.0664C562.99 27.5603 567.969 28.5933 572.249 30.0428C576.545 31.4927 580.175 33.4487 582.972 35.424C585.793 37.3791 587.78 39.3452 589.08 40.7512C589.73 41.4572 590.214 42.0249 590.528 42.4211C590.852 42.8098 591.04 43.0015 591.04 43.0015Z" fill="#263238"/>
<g opacity="0.3">
<path d="M595.124 67.4815C590.395 65.8229 587.223 63.3619 582.87 60.7205C578.233 57.9063 573.563 55.3356 569.066 52.3032C565.653 50.0018 561.516 47.5712 559.998 44.0162C558.966 45.8559 558.943 47.8356 559.909 49.7096C560.875 51.584 564.981 54.8293 566.727 56.0143C576.681 62.7678 583.599 67.3827 594.724 72.0822C595.028 70.8761 595.124 67.4815 595.124 67.4815Z" fill="black"/>
</g>
<path d="M595.368 56.8193C597.923 59.1495 599.464 60.6579 598.672 63.2403C598.013 65.3903 596.686 67.841 594.461 67.4934C593.782 67.3875 593.172 67.0344 592.579 66.6879C582.427 60.7533 572.275 54.8185 562.123 48.8842C561.093 48.2821 559.987 47.5909 559.595 46.4657C558.991 44.7354 560.504 42.8448 562.275 42.3639C564.046 41.8832 565.919 42.4084 567.666 42.9718C577.594 46.1746 586.648 51.1028 595.368 56.8193Z" fill="#D4ACEC"/>
<path d="M559.934 47.117C559.996 47.0982 559.486 46.561 559.544 45.391C559.592 44.2909 560.365 42.4856 562.307 41.7307C564.261 41.0702 566.85 41.5132 569.388 42.5348C571.968 43.566 574.793 44.7393 577.71 46.0692C583.557 48.7094 588.609 51.6013 592.048 54.0117C593.782 55.1966 595.12 56.2455 596.044 56.972C596.42 57.2753 596.767 57.5553 597.098 57.8217C597.342 58.0123 597.475 58.1074 597.485 58.0964C597.495 58.0855 597.381 57.969 597.155 57.7567C596.84 57.4702 596.51 57.1697 596.151 56.8437C595.258 56.0755 593.943 54.9855 592.224 53.7633C588.814 51.2783 583.755 48.3273 577.888 45.679C574.961 44.344 572.128 43.1808 569.531 42.1661C566.94 41.1521 564.278 40.7049 562.198 41.4473C560.124 42.3042 559.38 44.2282 559.377 45.3849C559.367 45.9898 559.525 46.4436 559.662 46.7246C559.819 46.9971 559.925 47.1237 559.934 47.117Z" fill="#263238"/>
<path d="M517.201 29.3191L537.934 35.9481L534.203 41.1423L511.981 32.996L517.201 29.3191Z" fill="#D4ACEC"/>
<path d="M542.063 58.2273C542.116 58.1215 533.388 53.6669 522.571 48.2793C511.75 42.8896 502.938 38.6081 502.885 38.7142C502.832 38.8202 511.558 43.2739 522.379 48.6633C533.196 54.0509 542.01 58.3336 542.063 58.2273Z" fill="#263238"/>
<path d="M547.292 169.731L547.564 156.145L500.988 173.414C500.988 173.414 492.38 145.507 492.38 144.189L482.059 150.665L464.904 143.303L447.749 134.84L413.049 195.459L376.649 302.592L462.428 359.686L526.021 291.663L564.681 232.864L585.938 195.62L547.292 169.731Z" fill="#00A99D"/>
<path d="M496.847 173.218C496.819 173.217 496.795 172.743 496.775 171.859C496.764 170.908 496.748 169.631 496.728 168.049L496.938 168.183C493.374 169.908 488.015 173.017 482.913 177.769L482.54 178.116L482.512 177.607C482.478 177.003 482.441 176.358 482.404 175.707C482.031 169.044 481.719 163.011 481.518 158.642C481.43 156.51 481.357 154.76 481.304 153.468C481.291 152.901 481.279 152.436 481.27 152.06C481.268 151.738 481.275 151.568 481.291 151.567C481.308 151.566 481.333 151.734 481.367 152.055C481.4 152.429 481.441 152.893 481.491 153.458C481.582 154.747 481.706 156.495 481.856 158.624C482.145 162.987 482.51 169.017 482.883 175.68C482.919 176.331 482.955 176.976 482.989 177.581L482.588 177.419C487.742 172.633 493.187 169.557 496.812 167.917L497.028 167.82L497.022 168.051C496.985 169.633 496.956 170.909 496.934 171.86C496.904 172.743 496.875 173.218 496.847 173.218Z" fill="#263238"/>
<path d="M542.996 170.384C543.003 170.399 542.82 170.498 542.466 170.671C542.064 170.862 541.547 171.107 540.906 171.411C539.489 172.058 537.531 172.953 535.134 174.048C530.193 176.254 523.458 179.261 516.017 182.583C512.83 183.988 509.772 185.336 506.934 186.587L506.547 186.758L506.62 186.342C507.531 181.165 507.717 176.599 507.681 173.261L507.897 173.39C506.093 174.265 504.647 174.967 503.597 175.476C503.129 175.694 502.749 175.871 502.446 176.011C502.183 176.129 502.044 176.183 502.037 176.171C502.031 176.158 502.158 176.079 502.409 175.938C502.703 175.779 503.071 175.579 503.525 175.333C504.56 174.794 505.985 174.051 507.763 173.125L507.971 173.017L507.978 173.255C508.085 176.605 507.953 181.202 507.065 186.419L506.751 186.175C509.585 184.916 512.639 183.56 515.823 182.146C523.286 178.873 530.041 175.911 534.997 173.739C537.419 172.701 539.399 171.854 540.831 171.24C541.486 170.97 542.016 170.753 542.427 170.583C542.794 170.438 542.99 170.369 542.996 170.384Z" fill="#263238"/>
<path d="M461.57 102.412H110.817C103.408 102.412 97.4026 108.406 97.4026 115.801V358.203C97.4026 365.598 103.408 371.592 110.817 371.592H461.57C468.978 371.592 474.984 365.598 474.984 358.203V115.801C474.984 108.406 468.978 102.412 461.57 102.412Z" fill="#455A64"/>
<path d="M82.6461 354.208H491.726V361.403C491.726 370.431 484.383 377.761 475.338 377.761H99.0348C89.9896 377.761 82.6461 370.431 82.6461 361.403V354.208Z" fill="#455A64"/>
<path d="M463.793 113.106H107.538V340.425H463.793V113.106Z" fill="#263238"/>
<path d="M248.971 351.683L254.048 360.388H325.478L330.192 351.683H248.971Z" fill="#263238"/>
<path d="M117.889 120.802H454.173C455.836 120.802 457.187 122.15 457.187 123.811V336.69C457.187 338.35 455.837 339.698 454.173 339.698H117.889C116.226 339.698 114.875 338.35 114.875 336.69V123.81C114.875 122.15 116.226 120.802 117.889 120.802Z" fill="#EBEBEB"/>
<path d="M456.821 340.018H114.509L114.876 137.161H456.821V340.018Z" fill="#FAFAFA"/>
<path d="M143.637 129.256C143.637 130.883 142.375 132.203 140.818 132.203C139.261 132.203 137.999 130.883 137.999 129.256C137.999 127.628 139.261 126.309 140.818 126.309C142.375 126.309 143.637 127.628 143.637 129.256Z" fill="#263238"/>
<path d="M126.552 129.256C126.552 130.883 125.29 132.203 123.733 132.203C122.176 132.203 120.914 130.883 120.914 129.256C120.914 127.628 122.176 126.309 123.733 126.309C125.29 126.309 126.552 127.628 126.552 129.256Z" fill="#263238"/>
<path d="M135.333 129.256C135.333 130.883 134.071 132.203 132.514 132.203C130.956 132.203 129.695 130.883 129.695 129.256C129.695 127.628 130.957 126.309 132.514 126.309C134.071 126.309 135.333 127.628 135.333 129.256Z" fill="#263238"/>
<path d="M471.739 351.683C471.739 351.829 387.934 351.947 284.58 351.947C181.226 351.947 97.4026 351.829 97.4026 351.683C97.4026 351.538 181.189 351.42 284.58 351.42C387.97 351.42 471.739 351.538 471.739 351.683Z" fill="#263238"/>
<path d="M249.261 176.075C254.892 172.679 260.887 170.103 267.07 168.35L270.739 150.755L300.523 150.234L304.809 167.687C311.05 169.222 317.133 171.586 322.88 174.783L337.933 164.935L359.363 185.588L350.033 200.945C353.437 206.568 356.017 212.554 357.772 218.725L375.399 222.386L375.922 252.113L358.435 256.393C356.897 262.621 354.529 268.691 351.326 274.428L361.191 289.453L340.502 310.843L325.114 301.53C319.481 304.927 313.485 307.502 307.301 309.254L303.632 326.849L273.85 327.371L269.563 309.916C263.322 308.38 257.241 306.016 251.493 302.82L236.44 312.668L215.01 292.016L224.34 276.658C220.936 271.036 218.355 265.052 216.599 258.879L198.972 255.218L198.45 225.491L215.938 221.211C217.475 214.983 219.845 208.913 223.047 203.176L213.181 188.151L233.87 166.762L249.261 176.075ZM265.138 215.676C252.879 228.35 253.235 248.541 265.932 260.776C278.629 273.011 298.859 272.655 311.116 259.982C323.373 247.31 323.019 227.118 310.322 214.883C297.625 202.649 277.396 203.004 265.138 215.676Z" fill="#E0E0E0"/>
<path d="M368.242 187.419C368.651 185.193 369.355 183.06 370.316 181.067L366.606 176.101L373.279 168.312L378.771 171.198C380.594 169.941 382.596 168.915 384.736 168.166L385.631 162.038L395.868 161.241L397.705 167.154C399.937 167.563 402.074 168.267 404.07 169.225L409.046 165.523L416.849 172.184L413.958 177.665C415.217 179.485 416.244 181.482 416.995 183.618L423.134 184.512L423.934 194.729L418.009 196.563C417.6 198.79 416.895 200.923 415.934 202.916L419.644 207.883L412.971 215.671L407.479 212.785C405.655 214.041 403.654 215.067 401.514 215.816L400.619 221.944L390.382 222.742L388.545 216.828C386.313 216.42 384.177 215.717 382.18 214.758L377.204 218.46L369.4 211.8L372.292 206.318C371.033 204.498 370.006 202.5 369.255 200.365L363.116 199.471L362.316 189.254L368.242 187.419ZM382.115 190.517C381.494 197.842 387.891 203.583 395.001 202.355C399.848 201.519 403.646 197.431 404.062 192.54C404.685 185.213 398.285 179.47 391.174 180.699C386.328 181.536 382.529 185.625 382.115 190.517Z" fill="#E0E0E0"/>
<path d="M143.987 290.038C144.065 287.367 144.505 284.753 145.268 282.256L140.05 277.124L146.44 266.845L153.364 269.231C155.266 267.44 157.417 265.885 159.78 264.629L159.726 257.32L171.527 254.561L174.731 261.132C177.407 261.21 180.027 261.65 182.528 262.412L187.669 257.204L197.968 263.581L195.578 270.493C197.372 272.391 198.929 274.538 200.188 276.896L207.511 276.844L210.276 288.621L203.692 291.819C203.613 294.49 203.173 297.104 202.409 299.601L207.628 304.734L201.238 315.013L194.313 312.626C192.411 314.418 190.26 315.972 187.897 317.228L187.951 324.537L176.151 327.296L172.947 320.725C170.27 320.647 167.651 320.208 165.15 319.446L160.008 324.654L149.709 318.276L152.1 311.364C150.305 309.466 148.749 307.319 147.489 304.961L140.167 305.014L137.402 293.236L143.987 290.038ZM161.054 293.353C162.692 300.332 169.687 304.663 176.679 303.028C183.67 301.393 188.01 294.411 186.372 287.433C184.734 280.455 177.739 276.123 170.747 277.758C163.756 279.393 159.417 286.375 161.054 293.353Z" fill="#E0E0E0"/>
<path d="M165.176 191.834C165.485 190.156 166.016 188.548 166.74 187.045L163.943 183.301L168.974 177.429L173.114 179.605C174.489 178.657 175.998 177.884 177.611 177.319L178.286 172.699L186.004 172.098L187.389 176.556C189.071 176.864 190.682 177.395 192.187 178.118L195.939 175.327L201.822 180.348L199.642 184.48C200.591 185.852 201.366 187.358 201.932 188.968L206.56 189.643L207.163 197.345L202.696 198.728C202.387 200.407 201.856 202.014 201.132 203.517L203.928 207.262L198.898 213.133L194.757 210.958C193.383 211.905 191.874 212.678 190.26 213.243L189.585 217.862L181.868 218.464L180.483 214.006C178.801 213.698 177.19 213.168 175.684 212.445L171.933 215.236L166.05 210.215L168.229 206.082C167.281 204.71 166.506 203.204 165.94 201.594L161.312 200.92L160.709 193.217L165.176 191.834ZM175.63 195.576C175.987 200.14 179.983 203.551 184.555 203.194C189.128 202.838 192.545 198.849 192.187 194.285C191.83 189.722 187.834 186.311 183.262 186.668C178.689 187.024 175.273 191.013 175.63 195.576Z" fill="#EBEBEB"/>
<path d="M368.629 274.782C368.894 273.341 369.35 271.96 369.972 270.669L367.569 267.453L371.891 262.409L375.447 264.278C376.628 263.464 377.924 262.799 379.31 262.314L379.89 258.346L386.519 257.83L387.709 261.659C389.154 261.924 390.538 262.379 391.831 263L395.053 260.603L400.106 264.916L398.234 268.466C399.049 269.644 399.715 270.938 400.201 272.321L404.176 272.9L404.694 279.516L400.857 280.704C400.592 282.146 400.136 283.527 399.514 284.818L401.916 288.034L397.594 293.078L394.038 291.209C392.857 292.023 391.561 292.687 390.175 293.172L389.596 297.14L382.966 297.657L381.777 293.827C380.332 293.563 378.948 293.107 377.655 292.487L374.432 294.884L369.379 290.571L371.251 287.021C370.436 285.843 369.771 284.549 369.285 283.166L365.309 282.587L364.791 275.97L368.629 274.782ZM377.608 277.997C377.915 281.917 381.347 284.847 385.275 284.54C389.202 284.234 392.137 280.808 391.83 276.888C391.524 272.968 388.091 270.038 384.164 270.345C380.236 270.651 377.301 274.077 377.608 277.997Z" fill="#EBEBEB"/>
<path d="M287.186 284.753H241.372C229.54 284.753 222.145 271.97 228.061 261.742L250.968 222.141L273.876 182.539C279.791 172.312 294.581 172.312 300.497 182.539L323.404 222.141L346.311 261.742C352.227 271.97 344.832 284.753 333.001 284.753H287.186Z" fill="#00A99D"/>
<path d="M336.504 266.318C336.504 266.318 336.632 266.554 336.862 267.029C337.037 267.52 337.327 268.273 337.326 269.313C337.351 270.339 337.096 271.653 336.255 272.924C335.828 273.547 335.265 274.16 334.529 274.64C333.788 275.108 332.883 275.433 331.894 275.499C324.087 275.583 312.813 275.569 298.871 275.603C284.927 275.618 268.329 275.635 249.901 275.654C247.597 275.656 245.265 275.657 242.905 275.658C240.421 275.713 238.058 273.95 237.261 271.582C236.839 270.41 236.748 269.111 237.028 267.88C237.108 267.576 237.208 267.275 237.308 266.976C237.442 266.692 237.57 266.397 237.712 266.122L238.596 264.51C239.776 262.354 240.968 260.178 242.171 257.982C246.984 249.201 251.967 240.109 257.07 230.797C262.179 221.484 267.166 212.391 271.983 203.609C274.392 199.218 276.759 194.906 279.076 190.682C279.668 189.628 280.207 188.573 280.832 187.535C281.462 186.486 282.348 185.581 283.409 184.98C285.521 183.751 288.187 183.666 290.337 184.67C291.411 185.169 292.371 185.915 293.075 186.853C293.768 187.815 294.246 188.824 294.799 189.802C295.875 191.769 296.937 193.709 297.983 195.622C300.076 199.446 302.107 203.16 304.071 206.75C307.996 213.931 311.653 220.621 314.991 226.729C321.651 238.943 327.041 248.828 330.774 255.674C332.624 259.088 334.061 261.742 335.044 263.555C335.523 264.45 335.889 265.136 336.143 265.61C336.389 266.074 336.504 266.318 336.504 266.318C336.504 266.318 336.36 266.09 336.1 265.634C335.837 265.164 335.456 264.487 334.959 263.601C333.958 261.798 332.494 259.159 330.61 255.763C326.846 248.935 321.41 239.074 314.694 226.891C311.339 220.792 307.666 214.112 303.722 206.941C301.751 203.354 299.713 199.645 297.613 195.824C296.564 193.913 295.499 191.974 294.419 190.009C293.87 189.037 293.368 188.001 292.728 187.119C292.064 186.236 291.161 185.538 290.152 185.071C288.129 184.128 285.616 184.212 283.637 185.369C282.64 185.933 281.813 186.782 281.22 187.77C280.617 188.773 280.064 189.855 279.478 190.902C277.164 195.127 274.801 199.441 272.395 203.834C267.581 212.617 262.596 221.712 257.491 231.027C252.385 240.337 247.399 249.428 242.583 258.208C241.379 260.402 240.185 262.578 239.003 264.732C238.438 265.829 237.718 266.84 237.478 267.984C237.217 269.127 237.3 270.335 237.691 271.426C238.439 273.637 240.61 275.254 242.905 275.209C245.265 275.21 247.597 275.212 249.901 275.213C268.329 275.232 284.927 275.25 298.871 275.264C312.8 275.285 324.074 275.302 331.882 275.314C332.838 275.257 333.717 274.949 334.44 274.502C335.159 274.041 335.713 273.449 336.137 272.845C336.971 271.61 337.239 270.324 337.23 269.313C337.192 267.252 336.416 266.335 336.504 266.318Z" fill="#263238"/>
<path d="M279.771 257.855C279.771 253.799 283.007 250.776 287.621 250.776C292.235 250.776 295.402 253.799 295.402 257.855C295.402 261.842 292.235 265.072 287.621 265.072C283.008 265.072 279.771 261.842 279.771 257.855ZM279.84 216.34H295.402L292.786 246.927H282.388L279.84 216.34Z" fill="white"/>
<path d="M289.382 177.991C289.347 178.088 288.31 177.478 286.466 177.392C284.65 177.286 282.038 177.882 279.826 179.608C277.616 181.348 276.271 183.597 275.436 185.234C274.601 186.89 274.208 187.979 274.134 187.952C274.104 187.941 274.168 187.658 274.326 187.158C274.484 186.659 274.744 185.945 275.13 185.088C275.898 183.392 277.229 181.045 279.531 179.231C281.846 177.423 284.602 176.855 286.489 177.055C287.439 177.145 288.186 177.368 288.668 177.587C289.153 177.802 289.395 177.968 289.382 177.991Z" fill="white"/>
<path d="M270.225 194.795C270.111 194.728 270.563 193.756 271.233 192.624C271.904 191.492 272.541 190.629 272.655 190.697C272.768 190.764 272.317 191.736 271.646 192.868C270.976 194 270.339 194.863 270.225 194.795Z" fill="white"/>
<g opacity="0.3">
<path d="M310.169 199.26L238.82 243.143L229.552 259.165L315.206 207.969L310.169 199.26Z" fill="white"/>
</g>
<g opacity="0.3">
<path d="M321.403 218.707L226.829 274.389C227.1 275.654 227.949 277.284 228.883 278.357L323.076 221.599L321.403 218.707Z" fill="white"/>
</g>
<path d="M555.138 322.547C547.563 314.213 536.079 311.536 526 314.759L517.185 305.106L515.958 303.736L446.225 227.37C450.416 217.67 448.861 206.002 441.285 197.669C434.842 190.581 425.572 187.581 416.743 188.824L413.337 190.175L425.198 198.126L424.57 211.035L414.981 219.719L402.048 219.091L393.592 209.79L390.097 211.153C389.096 218.944 394.329 228.754 400.032 235.027C407.596 243.349 419.056 246.03 429.125 242.83L500.026 320.474L502.206 322.888L508.926 330.247C504.759 339.939 506.321 351.584 513.885 359.905C519.565 366.153 527.097 370.325 534.932 370.113L538.427 368.749L529.971 359.448L530.6 346.539L540.189 337.855L553.122 338.483L558.083 349.147L561.578 347.784C563.674 339.134 561.581 329.634 555.138 322.547Z" fill="#E0E0E0"/>
<g opacity="0.3">
<path d="M555.138 322.547C547.563 314.213 536.079 311.536 526 314.759L517.185 305.106L515.958 303.736L446.225 227.37C450.416 217.67 448.861 206.002 441.285 197.669C434.842 190.581 425.572 187.581 416.743 188.824L413.337 190.175L425.198 198.126L424.57 211.035L414.981 219.719L402.048 219.091L393.592 209.79L390.097 211.153C389.096 218.944 394.329 228.754 400.032 235.027C407.596 243.349 419.056 246.03 429.125 242.83L500.026 320.474L502.206 322.888L508.926 330.247C504.759 339.939 506.321 351.584 513.885 359.905C519.565 366.153 527.097 370.325 534.932 370.113L538.427 368.749L529.971 359.448L530.6 346.539L540.189 337.855L553.122 338.483L558.083 349.147L561.578 347.784C563.674 339.134 561.581 329.634 555.138 322.547Z" fill="black"/>
</g>
<path d="M551.644 323.91C544.068 315.576 532.585 312.899 522.505 316.122L513.69 306.469L512.463 305.099L442.731 228.734C446.921 219.033 445.366 207.366 437.79 199.032C431.348 191.945 422.077 188.945 413.248 190.188L421.704 199.489L421.076 212.398L411.486 221.082L398.553 220.455L390.097 211.153C388.002 219.803 390.094 229.303 396.537 236.391C404.101 244.712 415.562 247.393 425.631 244.193L496.531 321.837L498.712 324.251L505.431 331.61C501.264 341.302 502.826 352.947 510.39 361.268C516.833 368.356 526.103 371.356 534.932 370.113L526.477 360.811L527.105 347.903L536.695 339.218L549.628 339.846L558.083 349.148C560.179 340.497 558.086 330.997 551.644 323.91Z" fill="#E0E0E0"/>
<path d="M551.644 323.91C551.644 323.91 552.045 324.353 552.813 325.24C553.522 326.171 554.614 327.549 555.695 329.581C556.781 331.602 557.851 334.275 558.494 337.589C559.076 340.899 559.21 344.88 558.18 349.171L558.136 349.352L558.01 349.214C555.502 346.464 552.644 343.33 549.54 339.925L549.622 339.964C545.633 339.776 541.295 339.571 536.688 339.353L536.786 339.318C533.792 342.035 530.575 344.954 527.206 348.013L527.254 347.91C527.063 351.92 526.854 356.286 526.638 360.819L526.596 360.703C529.214 363.579 532.092 366.739 535.059 369.998L535.277 370.237L534.956 370.282C530.581 370.906 525.9 370.496 521.477 368.897C517.057 367.312 512.915 364.525 509.703 360.75C506.466 357.007 504.164 352.264 503.342 347.128C502.498 342.005 503.097 336.516 505.241 331.529L505.278 331.749C481.633 305.861 454.466 276.117 425.455 244.353L425.703 244.42C420.822 245.975 415.346 246.196 410.138 244.856C404.927 243.54 400.04 240.618 396.351 236.541C393.248 233.13 391.021 228.966 389.919 224.545C388.806 220.126 388.803 215.467 389.865 211.097L389.972 210.66L390.274 210.993C393.112 214.115 395.93 217.216 398.729 220.295L398.565 220.218C402.908 220.429 407.22 220.639 411.497 220.847L411.327 220.907C414.555 217.985 417.751 215.092 420.918 212.225L420.842 212.386C421.054 208.035 421.265 203.736 421.473 199.478L421.532 199.645C418.682 196.507 415.866 193.408 413.079 190.341L412.788 190.02L413.217 189.962C418.422 189.257 423.754 189.974 428.43 192.047C433.114 194.098 437.143 197.413 440.006 201.455C442.888 205.484 444.655 210.213 445.084 214.991C445.537 219.769 444.743 224.557 442.921 228.816L442.884 228.594C477.443 266.517 505.259 297.04 522.583 316.051L522.473 316.021C527.462 314.438 532.205 314.491 536.099 315.178C540.001 315.951 543.11 317.315 545.401 318.716C547.715 320.102 549.21 321.513 550.224 322.42C551.173 323.402 551.644 323.91 551.644 323.91C551.644 323.91 551.145 323.427 550.185 322.46C549.16 321.569 547.658 320.176 545.344 318.81C543.053 317.43 539.952 316.089 536.07 315.338C532.195 314.671 527.484 314.636 522.538 316.223L522.473 316.243L522.427 316.193C505.07 297.212 477.201 266.737 442.577 228.873L442.487 228.775L442.54 228.652C444.33 224.455 445.108 219.737 444.659 215.032C444.233 210.326 442.489 205.673 439.65 201.71C436.827 197.731 432.86 194.472 428.251 192.457C423.649 190.42 418.401 189.718 413.281 190.413L413.418 190.034C416.206 193.101 419.023 196.198 421.875 199.334L421.94 199.405L421.935 199.501C421.729 203.759 421.52 208.058 421.309 212.409L421.305 212.506L421.233 212.571C418.066 215.439 414.872 218.333 411.645 221.256L411.572 221.322L411.474 221.317C407.197 221.11 402.885 220.902 398.542 220.692L398.443 220.687L398.377 220.614C395.578 217.535 392.759 214.435 389.921 211.313L390.33 211.209C389.286 215.505 389.289 220.085 390.384 224.429C391.468 228.774 393.656 232.865 396.706 236.22C400.333 240.228 405.135 243.099 410.257 244.393C415.377 245.71 420.76 245.494 425.558 243.966L425.704 243.92L425.807 244.033C454.802 275.812 481.953 305.57 505.585 331.471L505.675 331.569L505.622 331.692C503.505 336.603 502.909 342.013 503.736 347.064C504.54 352.128 506.805 356.806 509.994 360.502C513.158 364.231 517.24 366.986 521.6 368.556C525.963 370.14 530.586 370.553 534.908 369.943L534.805 370.228C531.844 366.964 528.971 363.799 526.358 360.919L526.313 360.87L526.316 360.803C526.541 356.27 526.758 351.905 526.957 347.895L526.96 347.834L527.005 347.792C530.382 344.741 533.605 341.829 536.604 339.119L536.646 339.081L536.702 339.084C541.308 339.313 545.645 339.529 549.634 339.728L549.683 339.73L549.716 339.766C552.809 343.18 555.657 346.323 558.157 349.081L557.987 349.124C559.024 344.867 558.908 340.911 558.344 337.616C557.721 334.317 556.671 331.65 555.605 329.629C554.542 327.597 553.467 326.213 552.772 325.273C552.019 324.377 551.644 323.91 551.644 323.91Z" fill="#263238"/>
<path d="M439.548 233.188C439.577 233.204 439.468 233.446 439.245 233.873C439.028 234.303 438.664 234.899 438.172 235.607C437.193 237.023 435.607 238.842 433.512 240.454C431.412 242.061 429.244 243.123 427.62 243.703C426.808 243.995 426.138 244.193 425.666 244.292C425.196 244.397 424.933 244.44 424.925 244.408C424.904 244.33 425.927 244.047 427.498 243.392C429.067 242.74 431.164 241.653 433.224 240.079C435.277 238.498 436.868 236.755 437.902 235.408C438.94 234.062 439.478 233.147 439.548 233.188Z" fill="#263238"/>
<path d="M517.422 266.356L490.894 254.038L467.217 251.092L475.913 258.401C475.913 258.401 445.307 269.048 444.77 271.449C444.233 273.85 447.188 280.298 452.579 279.108C452.579 279.108 449.546 282.75 450.809 286.832C452.072 290.913 454.86 291.651 460.006 290.703C460.006 290.703 456.505 295.934 459.25 298.6C461.994 301.267 466.264 300.59 466.264 300.59C466.264 300.59 466.316 306.961 469.688 307.518C473.059 308.076 482.453 307.415 485.959 306.335C489.464 305.254 503.776 300.843 503.776 300.843L515.389 298.3L517.422 266.356Z" fill="#FFBF9D"/>
<path d="M468.673 274.441C468.775 274.792 465.253 276.121 460.808 277.41C456.361 278.699 452.675 279.46 452.574 279.11C452.472 278.76 455.992 277.431 460.439 276.142C464.884 274.853 468.571 274.091 468.673 274.441Z" fill="#FF9A6C"/>
<path d="M473.178 287.014C473.284 287.363 470.486 288.512 466.931 289.58C463.374 290.649 460.406 291.232 460.301 290.883C460.196 290.534 462.993 289.385 466.55 288.317C470.105 287.248 473.073 286.665 473.178 287.014Z" fill="#FF9A6C"/>
<path d="M477.22 297.46C477.282 297.852 474.741 298.389 471.756 299.137C468.788 299.915 466.449 300.935 466.264 300.59C466.092 300.302 468.241 298.7 471.418 297.861C474.579 297.073 477.172 297.134 477.22 297.46Z" fill="#FF9A6C"/>
<path d="M480.566 257.387C480.665 257.744 477.189 259.003 472.896 260.481C468.598 261.953 465.083 263.096 464.941 262.753C464.802 262.423 468.124 260.721 472.466 259.233C476.804 257.74 480.472 257.041 480.566 257.387Z" fill="#FF9A6C"/>
<path d="M512.436 264.041L569.792 284.773L566.44 324.068L503.295 298.657L512.436 264.041Z" fill="#FFBF9D"/>
<path d="M586.027 195.281C586.027 195.281 593.507 202.996 597.859 216.865C602.182 230.637 622.751 289.524 622.227 308.235C621.686 327.58 608.637 341.385 579.961 333.74C562.849 329.178 542.467 321.803 542.467 321.803L556.955 274.256L568.29 277.108L549.986 242.814L586.027 195.281Z" fill="#00A99D"/>
<path d="M572.905 217.757C573.013 217.834 565.082 229.113 555.192 242.947C545.299 256.786 537.194 267.938 537.086 267.861C536.978 267.785 544.908 256.508 554.802 242.669C564.691 228.835 572.798 217.68 572.905 217.757Z" fill="#263238"/>
<path d="M594.849 283.612C594.828 283.647 594.354 283.37 593.457 282.96C592.563 282.545 591.227 282.038 589.525 281.572C587.825 281.102 585.761 280.664 583.471 280.166C581.175 279.66 578.663 279.105 576.027 278.524C570.748 277.345 565.975 276.252 562.526 275.438C560.864 275.035 559.49 274.702 558.447 274.449C557.486 274.206 556.959 274.056 556.966 274.023C556.974 273.991 557.516 274.08 558.489 274.268C559.541 274.483 560.927 274.766 562.603 275.108C566.072 275.838 570.857 276.879 576.136 278.058C578.769 278.652 581.277 279.219 583.571 279.737C585.854 280.257 587.914 280.73 589.619 281.247C591.325 281.759 592.661 282.322 593.539 282.792C593.981 283.022 594.312 283.224 594.529 283.37C594.747 283.515 594.857 283.598 594.849 283.612Z" fill="#263238"/>
<g opacity="0.3">
<path d="M609.511 285.681C609.284 283.41 607.581 281.493 605.565 280.415C603.549 279.337 601.24 278.961 598.974 278.651C588.666 277.239 578.248 276.848 567.851 276.459L568.812 276.875C581.645 279.24 594.238 282.902 606.335 287.788C607.032 288.069 607.822 288.354 608.508 288.049C609.347 287.675 609.603 286.593 609.511 285.681Z" fill="black"/>
</g>
<g opacity="0.3">
<path d="M373.199 103.361C363.533 101.72 351.971 104.52 342.304 102.879C340.86 102.634 339.279 102.411 338.01 103.141C336.484 104.018 335.956 105.962 335.881 107.717C335.674 112.574 337.925 117.368 341.439 120.735C344.952 124.102 349.627 126.113 354.429 126.927C358.288 127.581 362.435 127.456 365.876 125.595C371.884 122.347 374.791 109.993 373.199 103.361Z" fill="black"/>
</g>
<path d="M335.681 121.017C335.681 121.017 329.815 114.159 328.964 110.992C328.401 108.894 328.683 103.026 328.938 99.3041C329.113 96.7541 330.7 94.4237 333.125 93.6026C333.97 93.3165 334.771 93.2798 335.313 93.7788C335.313 93.7788 335.684 93.1373 337.986 90.785C340.288 88.4328 341.381 86.8382 346.448 88.3017C346.448 88.3017 350.174 84.3745 352.318 84.668C354.462 84.9617 356.586 85.586 356.586 85.586C356.586 85.586 364.754 85.2423 366.428 87.8313C367.161 88.9639 368.671 89.7548 370.137 90.2862C372.717 91.2205 374.836 93.0956 375.963 95.5927C377.498 98.991 377.595 102.698 377.595 102.698L369.283 103.026C369.283 103.026 369.87 122.057 367.783 123.592C365.696 125.127 364.897 124.582 364.897 124.582C364.897 124.582 363.305 129.048 357.092 125.743C357.092 125.743 351.932 127.295 349.731 125.173C347.531 123.05 339.438 102.654 339.438 102.654L339.664 112.791C339.664 112.791 343.928 119.351 341.841 120.886C339.753 122.421 335.681 121.017 335.681 121.017Z" fill="#FFBF9D"/>
<path d="M346.029 95.2199C346.061 95.21 346.228 95.6361 346.503 96.4152C346.798 97.2847 347.174 98.3967 347.625 99.7281C348.552 102.532 349.802 106.415 351.153 110.712C352.517 115.008 353.616 118.941 354.892 121.589C355.509 122.922 356.13 123.937 356.583 124.622C357.034 125.31 357.322 125.666 357.288 125.693C357.275 125.704 357.192 125.625 357.043 125.464C356.893 125.305 356.682 125.062 356.431 124.73C355.926 124.072 355.251 123.068 354.587 121.737C353.213 119.084 352.057 115.142 350.696 110.856C349.344 106.558 348.146 102.659 347.302 99.8294C346.909 98.4797 346.581 97.3525 346.325 96.471C346.105 95.6748 345.998 95.2297 346.029 95.2199Z" fill="#FF9A6C"/>
<path d="M356.226 92.8717C356.258 92.8635 356.407 93.303 356.649 94.1046C356.906 94.9966 357.235 96.1401 357.63 97.5102C358.437 100.391 359.52 104.378 360.688 108.79C361.857 113.202 362.888 117.204 363.612 120.107C363.947 121.492 364.227 122.649 364.445 123.551C364.631 124.367 364.719 124.822 364.687 124.831C364.655 124.84 364.507 124.401 364.265 123.6C364.008 122.708 363.679 121.565 363.285 120.195C362.477 117.315 361.393 113.326 360.225 108.912C359.056 104.499 358.025 100.497 357.301 97.5941C356.966 96.2086 356.686 95.0523 356.468 94.1503C356.282 93.3346 356.194 92.8797 356.226 92.8717Z" fill="#FF9A6C"/>
</g>
<defs>
<clipPath id="clip0_92982_424590">
<rect width="627" height="378" fill="white"/>
</clipPath>
</defs>
</svg>
