<svg width="34" height="34" viewBox="0 0 34 34" fill="none" xmlns="http://www.w3.org/2000/svg">
    <path
        d="M25.7415 3.40002H8.25254C6.96501 3.40154 5.73074 3.91408 4.82086 4.82504C3.91097 5.73599 3.3999 6.97087 3.3999 8.2584V25.7417C3.3999 27.0292 3.91097 28.2641 4.82086 29.175C5.73074 30.086 6.96501 30.5985 8.25254 30.6H25.7415C27.03 30.6 28.2658 30.0882 29.1769 29.177C30.088 28.2659 30.5999 27.0302 30.5999 25.7417V8.24693C30.5969 6.9604 30.0837 5.72759 29.1729 4.81895C28.2621 3.9103 27.0281 3.40002 25.7415 3.40002ZM25.5408 21.3192C25.4408 21.6987 25.2422 22.0451 24.9652 22.3231C24.6882 22.6012 24.3425 22.801 23.9634 22.9023C22.5753 23.2809 16.9999 23.2809 16.9999 23.2809C16.9999 23.2809 11.4245 23.2809 10.0364 22.9023C9.65725 22.801 9.31162 22.6012 9.0346 22.3231C8.75757 22.0451 8.559 21.6987 8.45902 21.3192C8.20183 19.8941 8.07702 18.4482 8.08619 17C8.07702 15.5519 8.20183 14.106 8.45902 12.6808C8.55972 12.301 8.75845 11.9543 9.03528 11.6755C9.31212 11.3966 9.65735 11.1954 10.0364 11.092C11.4245 10.7191 16.9999 10.7191 16.9999 10.7191C16.9999 10.7191 22.5753 10.7191 23.9634 11.092C24.3424 11.1954 24.6877 11.3966 24.9645 11.6755C25.2414 11.9543 25.4401 12.301 25.5408 12.6808C25.798 14.106 25.9228 15.5519 25.9136 17C25.9221 18.4443 25.7973 19.8864 25.5408 21.3077V21.3192Z"
        fill="white" />
    <path d="M15.1816 19.6386L19.8393 16.9886L15.1816 14.3386V19.6386Z" fill="white" />
</svg>