<svg width="24" height="22" viewBox="0 0 24 22" fill="none" xmlns="http://www.w3.org/2000/svg">
<path fill-rule="evenodd" clip-rule="evenodd" d="M23.6347 13.6346C23.3783 13.3344 22.542 12.3785 21.7592 11.4837C21.085 10.7131 20.4504 9.9878 20.2604 9.766C19.9924 9.45711 19.6695 9.21041 19.3111 9.04081C18.9528 8.87122 18.5665 8.78225 18.1755 8.77928H15.4368V8.32261C15.4425 7.95008 15.3119 7.59028 15.0736 7.32206C14.8353 7.05384 14.5087 6.89907 14.1654 6.89167H11.0222V3.14268C11.0207 3.0668 11.0025 2.99241 10.9692 2.92568C10.9359 2.85894 10.8884 2.80178 10.8306 2.75894L7.09799 0.134957C6.96898 0.046204 6.81925 -0.000623892 6.6665 6.27737e-06C6.51375 0.000636447 6.36435 0.0486986 6.23597 0.138513L2.50781 2.75938C2.45051 2.80273 2.40326 2.8599 2.36978 2.92641C2.33629 2.99292 2.31747 3.06695 2.3148 3.14269V6.89167H1.51752C1.17477 6.89968 0.848928 7.05479 0.611383 7.32301C0.373839 7.59122 0.243964 7.95068 0.250216 8.32261V18.6913C0.244535 19.0626 0.374736 19.4212 0.612286 19.6885C0.849836 19.9558 1.17536 20.1101 1.51752 20.1174H4.17919C4.25315 20.6415 4.49763 21.1194 4.86835 21.4648C5.23906 21.8101 5.71151 22 6.2001 22C6.6887 22 7.16114 21.8101 7.53185 21.4648C7.90257 21.1194 8.14705 20.6415 8.22101 20.1174C10.0064 20.1164 15.4518 20.1174 17.151 20.1197C17.23 20.6394 17.4765 21.1118 17.8466 21.4526C18.2167 21.7934 18.6864 21.9805 19.1718 21.9805C19.6572 21.9805 20.1268 21.7933 20.4969 21.4525C20.867 21.1117 21.1135 20.6393 21.1924 20.1196L22.4809 20.1183C22.8235 20.111 23.1495 19.9567 23.3873 19.689C23.6252 19.4213 23.7556 19.0622 23.7498 18.6905V13.9481C23.7498 13.8315 23.7086 13.7192 23.6347 13.6346ZM20.4008 11.2516L22.325 13.4581H18.2948C18.1748 13.4509 18.0623 13.3926 17.9818 13.2958C17.9013 13.199 17.8594 13.0716 17.8651 12.9414V11.7688C17.8594 11.6385 17.9013 11.5111 17.9818 11.4142C18.0623 11.3173 18.1748 11.2589 18.2948 11.2516H20.4008ZM3.15406 8.53872V3.98465L3.6407 4.33205V6.49327C3.64068 6.56704 3.65719 6.63971 3.68882 6.70502C3.72044 6.77032 3.76624 6.8263 3.82224 6.86812L4.88977 7.6663C4.95298 7.71231 5.02646 7.73894 5.10247 7.74337C5.17847 7.74779 5.25416 7.72986 5.32154 7.69145C5.38893 7.65305 5.44549 7.5956 5.48527 7.52519C5.52504 7.45478 5.54654 7.37401 5.5475 7.29143V5.68909C5.55731 5.69481 5.62002 5.74003 5.70428 5.80079L5.70429 5.8008C5.90688 5.94689 6.23398 6.18277 6.24969 6.17517V10.6221L3.15406 8.53872ZM8.29957 2.06506L4.89926 4.46418C4.85379 4.50216 4.81281 4.54608 4.77727 4.59497C4.73579 4.67122 4.71208 4.75731 4.70822 4.84576V6.42477L4.47994 6.25402V4.32994L7.95858 1.82536L8.29957 2.06506ZM7.11909 6.16061L7.1191 6.1606C7.13262 6.1548 7.14612 6.14901 7.15863 6.14018L10.1829 3.98511V8.44133L8.08538 9.88294L7.08895 10.5932L7.08897 6.175C7.09874 6.16933 7.10892 6.16497 7.11909 6.16061ZM6.69945 5.37802C6.68598 5.42915 6.40024 5.21568 6.1684 5.04248C6.04718 4.95191 5.94069 4.87236 5.89556 4.84739L9.07035 2.60697L9.83422 3.14402L6.69945 5.37802ZM6.66933 0.918891L7.1908 1.28552L4.05854 3.54036L3.50362 3.14444L6.66933 0.918891ZM1.51752 7.80235H2.31478C2.31571 7.87642 2.3141 7.95627 2.31244 8.03938C2.30323 8.49804 2.29204 9.05572 2.69287 9.28574C2.77364 9.3254 3.22945 9.64064 3.80576 10.0392L3.80582 10.0393C4.94355 10.8261 6.55085 11.9378 6.66932 11.8951C6.78499 11.9013 6.86585 11.8389 6.94764 11.7758C6.99274 11.7409 7.03813 11.7059 7.08979 11.6821L8.54028 10.6482L10.8272 9.07632C10.8869 9.03525 10.9362 8.97845 10.9703 8.9112C11.0044 8.84395 11.0222 8.76844 11.0222 8.69168V7.80235H14.1654C14.2861 7.80966 14.3993 7.86844 14.4802 7.9659C14.5612 8.06335 14.6033 8.19157 14.5975 8.32261C14.5957 8.47788 14.5966 10.4409 14.5973 12.3172V12.3177C14.598 13.9542 14.5987 15.5246 14.5975 15.7717H1.08949V8.32261C1.0832 8.19217 1.12465 8.06432 1.20482 7.96688C1.28498 7.86945 1.39737 7.81031 1.51752 7.80235ZM1.08949 18.6913V16.6823H14.5975V19.2067H8.22053C8.14105 18.6876 7.89436 18.2159 7.52436 17.8756C7.15437 17.5353 6.6851 17.3486 6.20009 17.3486C5.71508 17.3486 5.24581 17.5353 4.87582 17.8756C4.50584 18.2159 4.25916 18.6876 4.17969 19.2068L1.51752 19.2067C1.39794 19.1995 1.28585 19.1412 1.20567 19.0447C1.12549 18.9482 1.08373 18.8211 1.08949 18.6913ZM6.20011 21.0895C4.5898 21.0422 4.59031 18.2878 6.20015 18.2405C7.81085 18.2878 7.81051 21.0424 6.20011 21.0895ZM19.1717 21.0895C17.5612 21.0421 17.5611 18.2876 19.1718 18.2405C20.7827 18.2879 20.7819 21.0424 19.1717 21.0895ZM22.4809 19.2076L21.1923 19.209C21.1177 18.6856 20.8729 18.2085 20.5023 17.8639C20.1317 17.5192 19.6598 17.3298 19.1717 17.3298C18.6836 17.3298 18.2116 17.5193 17.8411 17.8639C17.4705 18.2086 17.2258 18.6857 17.1511 19.2091L15.4345 19.2075C15.4324 19.2025 15.434 17.1507 15.4358 14.9537V14.9521L15.4358 14.95C15.4377 12.4201 15.4399 9.69904 15.4368 9.69H18.1755C18.4402 9.69178 18.702 9.7502 18.9459 9.8619C19.1898 9.97361 19.4111 10.1364 19.5969 10.341H18.2948C17.9522 10.3482 17.6262 10.5026 17.3883 10.7703C17.1504 11.0379 17.0201 11.397 17.0258 11.7688V12.9414C17.0201 13.3131 17.1505 13.6721 17.3884 13.9397C17.6263 14.2072 17.9522 14.3616 18.2948 14.3688H22.9105V18.6905C22.9163 18.8208 22.8743 18.9482 22.7938 19.0451C22.7134 19.1419 22.6009 19.2003 22.4809 19.2076ZM12.7389 5.71676H19.0713V6.23524C19.0724 6.33566 19.0988 6.43386 19.1477 6.51914C19.1966 6.60442 19.266 6.67353 19.3486 6.71896C19.4311 6.76438 19.5236 6.78439 19.6159 6.77679C19.7082 6.7692 19.7968 6.7343 19.8721 6.67589L22.3284 4.72648C22.3915 4.67515 22.4426 4.60857 22.4779 4.53204C22.5131 4.45551 22.5314 4.37113 22.5313 4.28559C22.5312 4.20005 22.5127 4.11571 22.4774 4.03926C22.442 3.9628 22.3907 3.89635 22.3276 3.84515L19.8725 1.89618C19.7971 1.83786 19.7085 1.80304 19.6162 1.7955C19.5239 1.78796 19.4315 1.80797 19.349 1.85338C19.2664 1.89878 19.1969 1.96785 19.148 2.05308C19.099 2.13831 19.0725 2.23645 19.0713 2.33686V2.85532H12.7389C12.6054 2.85548 12.4774 2.91311 12.383 3.01557C12.2886 3.11803 12.2355 3.25695 12.2354 3.40182V5.1707C12.2356 5.31551 12.2887 5.45432 12.3831 5.55669C12.4775 5.65905 12.6054 5.71662 12.7389 5.71676ZM13.0747 3.766H19.4069C19.4857 3.76243 19.5627 3.74017 19.6327 3.70079C19.7026 3.66141 19.7637 3.60587 19.8118 3.53808C19.8598 3.47029 19.8935 3.39189 19.9106 3.30842C19.9276 3.22496 19.9276 3.13844 19.9106 3.05497L21.4619 4.28582L19.9106 5.5171C19.9277 5.43363 19.9277 5.34711 19.9106 5.26364C19.8935 5.18017 19.8598 5.10178 19.8117 5.03399C19.7637 4.9662 19.7026 4.91066 19.6326 4.87128C19.5627 4.8319 19.4856 4.80965 19.4069 4.80609H13.0747L13.0747 3.766ZM10.3093 13.5334C10.3863 13.4483 10.4909 13.3993 10.6008 13.397H11.4653L11.4654 12.5011C9.77035 12.3363 9.76983 9.98334 11.4653 9.81813V9.42435C11.4675 9.30512 11.5126 9.19156 11.5911 9.10806C11.6695 9.02456 11.775 8.97779 11.8849 8.97778C11.9948 8.97778 12.1004 9.02455 12.1788 9.10804C12.2573 9.19153 12.3024 9.30509 12.3046 9.42432V9.80673H13.1688C13.2787 9.80905 13.3833 9.85804 13.4603 9.94318C13.5372 10.0283 13.5804 10.1428 13.5804 10.2621C13.5804 10.3813 13.5373 10.4958 13.4603 10.5809C13.3834 10.6661 13.2787 10.7151 13.1688 10.7174H12.3046L12.3045 11.6132C13.9997 11.7781 13.9994 14.1312 12.3046 14.2963V14.6896C12.3024 14.8088 12.2573 14.9224 12.1788 15.0059C12.1004 15.0894 11.9948 15.1361 11.8849 15.1361C11.775 15.1362 11.6695 15.0894 11.5911 15.0059C11.5126 14.9224 11.4674 14.8088 11.4653 14.6896V14.3076H10.6008C10.491 14.3053 10.3863 14.2563 10.3094 14.1712C10.2324 14.0861 10.1893 13.9716 10.1893 13.8523C10.1893 13.7331 10.2324 13.6186 10.3093 13.5334ZM12.3046 13.3865C12.555 13.3428 12.7492 13.1628 12.7492 12.9545C12.7492 12.7463 12.555 12.5666 12.3046 12.523V13.3865ZM11.4653 10.7279C11.2148 10.7715 11.0205 10.9512 11.0205 11.1594C11.0205 11.3677 11.2148 11.5477 11.4653 11.5914V10.7279Z" fill="url(#paint0_linear_12066_17768)"/>
<defs>
<linearGradient id="paint0_linear_12066_17768" x1="12" y1="0" x2="12" y2="22" gradientUnits="userSpaceOnUse">
<stop stop-color="#81319B"/>
<stop offset="0.48" stop-color="#00A99D"/>
<stop offset="1" stop-color="#0B2C4C"/>
</linearGradient>
</defs>
</svg>
