<svg width="26" height="25" viewBox="0 0 26 25" fill="none" xmlns="http://www.w3.org/2000/svg">
<path d="M15.2278 14.7234H5.22587C5.06278 14.7234 4.92923 14.8559 4.92923 15.0172C4.92923 15.1784 5.06278 15.3115 5.22587 15.3115H15.2278C15.3909 15.3115 15.5239 15.179 15.5239 15.0172C15.5239 14.8553 15.3903 14.7234 15.2278 14.7234ZM15.9719 17.1741H5.22587C5.06278 17.1741 4.92923 17.3012 4.92923 17.463C4.92923 17.6248 5.06278 17.7567 5.22587 17.7567H15.9719C16.135 17.7567 16.2679 17.6297 16.2679 17.463C16.2679 17.2963 16.1344 17.1741 15.9719 17.1741ZM16.9769 12.2782H5.22587C5.06278 12.2782 4.92923 12.4107 4.92923 12.5719C4.92923 12.7332 5.06278 12.8663 5.22587 12.8663H16.9769C17.14 12.8663 17.2729 12.7338 17.2729 12.5719C17.2729 12.4101 17.1394 12.2782 16.9769 12.2782ZM17.9997 19.6194H5.22587C5.06278 19.6194 4.92923 19.7519 4.92923 19.9137C4.92923 20.0755 5.06278 20.2075 5.22587 20.2075H17.9997C18.1628 20.2075 18.2902 20.0749 18.2902 19.9137C18.2902 19.7525 18.1628 19.6194 17.9997 19.6194ZM18.9992 9.83298H5.22587C5.06278 9.83298 4.92923 9.96 4.92923 10.1218C4.92923 10.2837 5.06278 10.4156 5.22587 10.4156H18.9992C19.1623 10.4156 19.2958 10.2886 19.2958 10.1218C19.2958 9.95512 19.1623 9.83298 18.9992 9.83298ZM18.9992 7.38226H5.29541C5.13294 7.38226 4.99939 7.51478 4.99939 7.67601C4.99939 7.83723 5.13294 7.96975 5.29541 7.96975H18.9998C19.1629 7.96975 19.2964 7.83723 19.2964 7.67601C19.2964 7.51478 19.1629 7.38226 18.9998 7.38226H18.9992ZM18.9992 4.93643H5.22587C5.06278 4.93643 4.92923 5.06895 4.92923 5.23018C4.92923 5.3914 5.06278 5.52453 5.22587 5.52453H18.9992C19.1623 5.52453 19.2958 5.39201 19.2958 5.23018C19.2958 5.06834 19.1623 4.93643 18.9992 4.93643ZM18.9992 2.49121H5.22587C5.06278 2.49121 4.92923 2.61824 4.92923 2.78007C4.92923 2.9419 5.06278 3.07381 5.22587 3.07381H18.9992C19.1623 3.07381 19.2958 2.94679 19.2958 2.78007C19.2958 2.61335 19.1623 2.49121 18.9992 2.49121ZM15.2278 14.7234H5.22587C5.06278 14.7234 4.92923 14.8559 4.92923 15.0172C4.92923 15.1784 5.06278 15.3115 5.22587 15.3115H15.2278C15.3909 15.3115 15.5239 15.179 15.5239 15.0172C15.5239 14.8553 15.3903 14.7234 15.2278 14.7234ZM15.9719 17.1741H5.22587C5.06278 17.1741 4.92923 17.3012 4.92923 17.463C4.92923 17.6248 5.06278 17.7567 5.22587 17.7567H15.9719C16.135 17.7567 16.2679 17.6297 16.2679 17.463C16.2679 17.2963 16.1344 17.1741 15.9719 17.1741ZM16.9769 12.2782H5.22587C5.06278 12.2782 4.92923 12.4107 4.92923 12.5719C4.92923 12.7332 5.06278 12.8663 5.22587 12.8663H16.9769C17.14 12.8663 17.2729 12.7338 17.2729 12.5719C17.2729 12.4101 17.1394 12.2782 16.9769 12.2782ZM17.9997 19.6194H5.22587C5.06278 19.6194 4.92923 19.7519 4.92923 19.9137C4.92923 20.0755 5.06278 20.2075 5.22587 20.2075H17.9997C18.1628 20.2075 18.2902 20.0749 18.2902 19.9137C18.2902 19.7525 18.1628 19.6194 17.9997 19.6194ZM18.9992 9.83298H5.22587C5.06278 9.83298 4.92923 9.96 4.92923 10.1218C4.92923 10.2837 5.06278 10.4156 5.22587 10.4156H18.9992C19.1623 10.4156 19.2958 10.2886 19.2958 10.1218C19.2958 9.95512 19.1623 9.83298 18.9992 9.83298ZM18.9992 7.38226H5.29541C5.13294 7.38226 4.99939 7.51478 4.99939 7.67601C4.99939 7.83723 5.13294 7.96975 5.29541 7.96975H18.9998C19.1629 7.96975 19.2964 7.83723 19.2964 7.67601C19.2964 7.51478 19.1629 7.38226 18.9998 7.38226H18.9992ZM18.9992 4.93643H5.22587C5.06278 4.93643 4.92923 5.06895 4.92923 5.23018C4.92923 5.3914 5.06278 5.52453 5.22587 5.52453H18.9992C19.1623 5.52453 19.2958 5.39201 19.2958 5.23018C19.2958 5.06834 19.1623 4.93643 18.9992 4.93643ZM18.9992 2.49121H5.22587C5.06278 2.49121 4.92923 2.61824 4.92923 2.78007C4.92923 2.9419 5.06278 3.07381 5.22587 3.07381H18.9992C19.1623 3.07381 19.2958 2.94679 19.2958 2.78007C19.2958 2.61335 19.1623 2.49121 18.9992 2.49121ZM18.9992 2.49121H5.22587C5.06278 2.49121 4.92923 2.61824 4.92923 2.78007C4.92923 2.9419 5.06278 3.07381 5.22587 3.07381H18.9992C19.1623 3.07381 19.2958 2.94679 19.2958 2.78007C19.2958 2.61335 19.1623 2.49121 18.9992 2.49121ZM18.9992 4.93643H5.22587C5.06278 4.93643 4.92923 5.06895 4.92923 5.23018C4.92923 5.3914 5.06278 5.52453 5.22587 5.52453H18.9992C19.1623 5.52453 19.2958 5.39201 19.2958 5.23018C19.2958 5.06834 19.1623 4.93643 18.9992 4.93643ZM18.9992 7.38226H5.29541C5.13294 7.38226 4.99939 7.51478 4.99939 7.67601C4.99939 7.83723 5.13294 7.96975 5.29541 7.96975H18.9998C19.1629 7.96975 19.2964 7.83723 19.2964 7.67601C19.2964 7.51478 19.1629 7.38226 18.9998 7.38226H18.9992ZM18.9992 9.83298H5.22587C5.06278 9.83298 4.92923 9.96 4.92923 10.1218C4.92923 10.2837 5.06278 10.4156 5.22587 10.4156H18.9992C19.1623 10.4156 19.2958 10.2886 19.2958 10.1218C19.2958 9.95512 19.1623 9.83298 18.9992 9.83298ZM17.9997 19.6194H5.22587C5.06278 19.6194 4.92923 19.7519 4.92923 19.9137C4.92923 20.0755 5.06278 20.2075 5.22587 20.2075H17.9997C18.1628 20.2075 18.2902 20.0749 18.2902 19.9137C18.2902 19.7525 18.1628 19.6194 17.9997 19.6194ZM16.9769 12.2782H5.22587C5.06278 12.2782 4.92923 12.4107 4.92923 12.5719C4.92923 12.7332 5.06278 12.8663 5.22587 12.8663H16.9769C17.14 12.8663 17.2729 12.7338 17.2729 12.5719C17.2729 12.4101 17.1394 12.2782 16.9769 12.2782ZM15.9719 17.1741H5.22587C5.06278 17.1741 4.92923 17.3012 4.92923 17.463C4.92923 17.6248 5.06278 17.7567 5.22587 17.7567H15.9719C16.135 17.7567 16.2679 17.6297 16.2679 17.463C16.2679 17.2963 16.1344 17.1741 15.9719 17.1741ZM15.2278 14.7234H5.22587C5.06278 14.7234 4.92923 14.8559 4.92923 15.0172C4.92923 15.1784 5.06278 15.3115 5.22587 15.3115H15.2278C15.3909 15.3115 15.5239 15.179 15.5239 15.0172C15.5239 14.8553 15.3903 14.7234 15.2278 14.7234ZM18.9992 2.49121H5.22587C5.06278 2.49121 4.92923 2.61824 4.92923 2.78007C4.92923 2.9419 5.06278 3.07381 5.22587 3.07381H18.9992C19.1623 3.07381 19.2958 2.94679 19.2958 2.78007C19.2958 2.61335 19.1623 2.49121 18.9992 2.49121ZM18.9992 4.93643H5.22587C5.06278 4.93643 4.92923 5.06895 4.92923 5.23018C4.92923 5.3914 5.06278 5.52453 5.22587 5.52453H18.9992C19.1623 5.52453 19.2958 5.39201 19.2958 5.23018C19.2958 5.06834 19.1623 4.93643 18.9992 4.93643ZM18.9992 7.38226H5.29541C5.13294 7.38226 4.99939 7.51478 4.99939 7.67601C4.99939 7.83723 5.13294 7.96975 5.29541 7.96975H18.9998C19.1629 7.96975 19.2964 7.83723 19.2964 7.67601C19.2964 7.51478 19.1629 7.38226 18.9998 7.38226H18.9992ZM18.9992 9.83298H5.22587C5.06278 9.83298 4.92923 9.96 4.92923 10.1218C4.92923 10.2837 5.06278 10.4156 5.22587 10.4156H18.9992C19.1623 10.4156 19.2958 10.2886 19.2958 10.1218C19.2958 9.95512 19.1623 9.83298 18.9992 9.83298ZM17.9997 19.6194H5.22587C5.06278 19.6194 4.92923 19.7519 4.92923 19.9137C4.92923 20.0755 5.06278 20.2075 5.22587 20.2075H17.9997C18.1628 20.2075 18.2902 20.0749 18.2902 19.9137C18.2902 19.7525 18.1628 19.6194 17.9997 19.6194ZM16.9769 12.2782H5.22587C5.06278 12.2782 4.92923 12.4107 4.92923 12.5719C4.92923 12.7332 5.06278 12.8663 5.22587 12.8663H16.9769C17.14 12.8663 17.2729 12.7338 17.2729 12.5719C17.2729 12.4101 17.1394 12.2782 16.9769 12.2782ZM15.9719 17.1741H5.22587C5.06278 17.1741 4.92923 17.3012 4.92923 17.463C4.92923 17.6248 5.06278 17.7567 5.22587 17.7567H15.9719C16.135 17.7567 16.2679 17.6297 16.2679 17.463C16.2679 17.2963 16.1344 17.1741 15.9719 17.1741ZM15.2278 14.7234H5.22587C5.06278 14.7234 4.92923 14.8559 4.92923 15.0172C4.92923 15.1784 5.06278 15.3115 5.22587 15.3115H15.2278C15.3909 15.3115 15.5239 15.179 15.5239 15.0172C15.5239 14.8553 15.3903 14.7234 15.2278 14.7234ZM15.2278 14.7234H5.22587C5.06278 14.7234 4.92923 14.8559 4.92923 15.0172C4.92923 15.1784 5.06278 15.3115 5.22587 15.3115H15.2278C15.3909 15.3115 15.5239 15.179 15.5239 15.0172C15.5239 14.8553 15.3903 14.7234 15.2278 14.7234ZM15.9719 17.1741H5.22587C5.06278 17.1741 4.92923 17.3012 4.92923 17.463C4.92923 17.6248 5.06278 17.7567 5.22587 17.7567H15.9719C16.135 17.7567 16.2679 17.6297 16.2679 17.463C16.2679 17.2963 16.1344 17.1741 15.9719 17.1741ZM16.9769 12.2782H5.22587C5.06278 12.2782 4.92923 12.4107 4.92923 12.5719C4.92923 12.7332 5.06278 12.8663 5.22587 12.8663H16.9769C17.14 12.8663 17.2729 12.7338 17.2729 12.5719C17.2729 12.4101 17.1394 12.2782 16.9769 12.2782ZM17.9997 19.6194H5.22587C5.06278 19.6194 4.92923 19.7519 4.92923 19.9137C4.92923 20.0755 5.06278 20.2075 5.22587 20.2075H17.9997C18.1628 20.2075 18.2902 20.0749 18.2902 19.9137C18.2902 19.7525 18.1628 19.6194 17.9997 19.6194ZM18.9992 9.83298H5.22587C5.06278 9.83298 4.92923 9.96 4.92923 10.1218C4.92923 10.2837 5.06278 10.4156 5.22587 10.4156H18.9992C19.1623 10.4156 19.2958 10.2886 19.2958 10.1218C19.2958 9.95512 19.1623 9.83298 18.9992 9.83298ZM18.9992 7.38226H5.29541C5.13294 7.38226 4.99939 7.51478 4.99939 7.67601C4.99939 7.83723 5.13294 7.96975 5.29541 7.96975H18.9998C19.1629 7.96975 19.2964 7.83723 19.2964 7.67601C19.2964 7.51478 19.1629 7.38226 18.9998 7.38226H18.9992ZM18.9992 4.93643H5.22587C5.06278 4.93643 4.92923 5.06895 4.92923 5.23018C4.92923 5.3914 5.06278 5.52453 5.22587 5.52453H18.9992C19.1623 5.52453 19.2958 5.39201 19.2958 5.23018C19.2958 5.06834 19.1623 4.93643 18.9992 4.93643ZM18.9992 2.49121H5.22587C5.06278 2.49121 4.92923 2.61824 4.92923 2.78007C4.92923 2.9419 5.06278 3.07381 5.22587 3.07381H18.9992C19.1623 3.07381 19.2958 2.94679 19.2958 2.78007C19.2958 2.61335 19.1623 2.49121 18.9992 2.49121ZM18.9992 2.49121H5.22587C5.06278 2.49121 4.92923 2.61824 4.92923 2.78007C4.92923 2.9419 5.06278 3.07381 5.22587 3.07381H18.9992C19.1623 3.07381 19.2958 2.94679 19.2958 2.78007C19.2958 2.61335 19.1623 2.49121 18.9992 2.49121ZM18.9992 4.93643H5.22587C5.06278 4.93643 4.92923 5.06895 4.92923 5.23018C4.92923 5.3914 5.06278 5.52453 5.22587 5.52453H18.9992C19.1623 5.52453 19.2958 5.39201 19.2958 5.23018C19.2958 5.06834 19.1623 4.93643 18.9992 4.93643ZM18.9992 7.38226H5.29541C5.13294 7.38226 4.99939 7.51478 4.99939 7.67601C4.99939 7.83723 5.13294 7.96975 5.29541 7.96975H18.9998C19.1629 7.96975 19.2964 7.83723 19.2964 7.67601C19.2964 7.51478 19.1629 7.38226 18.9998 7.38226H18.9992ZM18.9992 9.83298H5.22587C5.06278 9.83298 4.92923 9.96 4.92923 10.1218C4.92923 10.2837 5.06278 10.4156 5.22587 10.4156H18.9992C19.1623 10.4156 19.2958 10.2886 19.2958 10.1218C19.2958 9.95512 19.1623 9.83298 18.9992 9.83298ZM16.9769 12.2782H5.22587C5.06278 12.2782 4.92923 12.4107 4.92923 12.5719C4.92923 12.7332 5.06278 12.8663 5.22587 12.8663H16.9769C17.14 12.8663 17.2729 12.7338 17.2729 12.5719C17.2729 12.4101 17.1394 12.2782 16.9769 12.2782ZM15.2278 14.7234H5.22587C5.06278 14.7234 4.92923 14.8559 4.92923 15.0172C4.92923 15.1784 5.06278 15.3115 5.22587 15.3115H15.2278C15.3909 15.3115 15.5239 15.179 15.5239 15.0172C15.5239 14.8553 15.3903 14.7234 15.2278 14.7234ZM15.9719 17.1741H5.22587C5.06278 17.1741 4.92923 17.3012 4.92923 17.463C4.92923 17.6248 5.06278 17.7567 5.22587 17.7567H15.9719C16.135 17.7567 16.2679 17.6297 16.2679 17.463C16.2679 17.2963 16.1344 17.1741 15.9719 17.1741ZM17.9997 19.6194H5.22587C5.06278 19.6194 4.92923 19.7519 4.92923 19.9137C4.92923 20.0755 5.06278 20.2075 5.22587 20.2075H17.9997C18.1628 20.2075 18.2902 20.0749 18.2902 19.9137C18.2902 19.7525 18.1628 19.6194 17.9997 19.6194ZM23.17 14.1335C23.0087 13.9735 22.7459 13.9735 22.5847 14.1335L20.0073 16.6911L19.1678 15.8581C19.0066 15.6981 18.7438 15.6981 18.5825 15.8581C18.4213 16.0181 18.4213 16.2789 18.5825 16.4389L19.71 17.5577C19.7949 17.6334 19.8965 17.6755 20.0067 17.6755C20.1168 17.6755 20.2184 17.6334 20.2947 17.5662L23.1687 14.7143C23.33 14.5543 23.33 14.2935 23.1687 14.1335H23.17Z" fill="url(#paint0_linear_12066_12001)"/>
<path d="M21.1557 11.1867V1.55727C21.1557 1.1304 20.9754 0.73833 20.6904 0.455578C20.4055 0.172827 20.0165 0 19.5863 0H4.63877C4.20858 0 3.81901 0.172827 3.53469 0.455578C3.24974 0.73833 3.06942 1.1304 3.06942 1.55727V2.55454H2.06935C1.63916 2.55454 1.24405 2.72736 0.959111 3.01011C0.674782 3.29286 0.5 3.68493 0.5 4.11181V23.4427C0.5 23.8696 0.674782 24.2617 0.959111 24.5444C1.24405 24.8266 1.63301 25 2.06935 25H17.0114C17.4416 25 17.8305 24.8266 18.1155 24.5444L18.1216 24.5383C18.4004 24.2617 18.5807 23.8696 18.5807 23.4427V22.4455H19.5857C20.0159 22.4455 20.4049 22.272 20.6898 21.9893C20.9747 21.7071 21.1551 21.3206 21.1551 20.8882V20.3465C23.5743 20.2024 25.4914 18.203 25.5 15.7663C25.5 13.329 23.5749 11.3296 21.1551 11.1861L21.1557 11.1867ZM17.9881 23.4427C17.9881 23.7078 17.8779 23.9502 17.7031 24.1285C17.5228 24.302 17.2791 24.4113 17.012 24.4113H2.06996C1.79671 24.4113 1.553 24.302 1.37883 24.1285C1.19851 23.9496 1.08774 23.7078 1.08774 23.4427V4.11181C1.08774 3.84066 1.19851 3.59882 1.37883 3.42539C1.553 3.24645 1.79733 3.13714 2.06996 3.13714H3.07004V20.8882C3.07004 21.309 3.2442 21.6894 3.51745 21.9722C3.52361 21.9783 3.52915 21.9838 3.5353 21.9893C3.81963 22.272 4.2092 22.4455 4.63938 22.4455H17.9887V23.4427H17.9881ZM20.563 20.8882C20.563 21.1532 20.4529 21.4012 20.2725 21.574C20.0984 21.7529 19.854 21.8629 19.5863 21.8629H4.63877C4.37106 21.8629 4.12673 21.7529 3.95256 21.574C3.94641 21.5679 3.94087 21.5679 3.93533 21.5624C3.7667 21.3896 3.66146 21.1471 3.66146 20.8882V1.55727C3.66146 1.29162 3.77224 1.04917 3.95256 0.87085C4.12673 0.698024 4.37106 0.588099 4.63877 0.588099H19.5863C19.8534 0.588099 20.0984 0.698024 20.2725 0.87085C20.4467 1.04368 20.563 1.29162 20.563 1.55727V11.1891C20.2288 11.2111 19.9039 11.2685 19.5919 11.3583C19.4614 11.3956 19.3334 11.4383 19.2085 11.4872C18.2662 11.8487 17.4736 12.5101 16.9461 13.3516C16.8532 13.4988 16.7689 13.6521 16.6944 13.8109C16.423 14.3776 16.2661 15.009 16.2532 15.6753C16.2532 15.7058 16.2519 15.7358 16.2519 15.7669C16.2519 15.8903 16.2569 16.0124 16.2673 16.1339C16.3153 16.7391 16.4827 17.312 16.7474 17.8292C16.8274 17.988 16.9178 18.1413 17.0157 18.2885C17.7893 19.4506 19.0817 20.2457 20.563 20.3441V20.8882ZM20.8763 19.883C19.6368 19.883 18.5229 19.3407 17.7616 18.4827C17.6385 18.3428 17.524 18.1963 17.4213 18.0405C16.9831 17.3889 16.7283 16.606 16.7283 15.7663C16.7283 15.5947 16.7394 15.4261 16.7597 15.26C16.8335 14.6609 17.0385 14.1009 17.3449 13.6099C17.4551 13.4316 17.5794 13.2625 17.7154 13.1043C18.4441 12.253 19.3568 11.7577 20.5427 11.6637C20.5495 11.6637 20.5562 11.6624 20.563 11.6624C20.667 11.6545 20.771 11.6502 20.8763 11.6502C20.936 11.6502 20.9944 11.6514 21.0529 11.6545C21.0874 11.6557 21.1218 11.6582 21.1557 11.66C23.3128 11.8023 25.0249 13.5904 25.0249 15.7669C25.0249 15.781 25.0249 15.795 25.0249 15.8097C25.0021 18.0595 23.1503 19.8836 20.8769 19.8836L20.8763 19.883Z" fill="url(#paint1_linear_12066_12001)"/>
<defs>
<linearGradient id="paint0_linear_12066_12001" x1="12.4" y1="1.81246" x2="15.366" y2="21.0219" gradientUnits="userSpaceOnUse">
<stop stop-color="#81319B"/>
<stop offset="0.465" stop-color="#00A99D"/>
<stop offset="1" stop-color="#0B2C4C"/>
</linearGradient>
<linearGradient id="paint1_linear_12066_12001" x1="13.0006" y1="0" x2="13.0006" y2="25" gradientUnits="userSpaceOnUse">
<stop stop-color="#81319B"/>
<stop offset="0.5" stop-color="#00A99D"/>
<stop offset="1" stop-color="#0B2C4C"/>
</linearGradient>
</defs>
</svg>
