<svg width="60" height="60" viewBox="0 0 60 60" fill="none" xmlns="http://www.w3.org/2000/svg">
<path fill-rule="evenodd" clip-rule="evenodd" d="M20.4416 35.1727C20.3997 35.1007 20.371 35.0203 20.3571 34.9359C20.3431 34.8516 20.3442 34.765 20.3603 34.6811C20.3764 34.5973 20.4071 34.5178 20.4508 34.4472C20.4945 34.3765 20.5502 34.3162 20.6148 34.2696L33.376 25.054L31.7646 24.7131C31.612 24.6808 31.4771 24.5822 31.3896 24.439C31.3022 24.2959 31.2694 24.1199 31.2984 23.9498C31.3274 23.7797 31.4159 23.6294 31.5444 23.532C31.6729 23.4345 31.8308 23.398 31.9835 23.4303L35.1095 24.0915C35.1896 24.1087 35.2656 24.1443 35.3327 24.1961C35.3997 24.2479 35.4564 24.3146 35.499 24.3921C35.5416 24.4697 35.5693 24.5562 35.5802 24.6463C35.5911 24.7364 35.585 24.828 35.5624 24.9154L34.6985 28.2272C34.663 28.3629 34.5889 28.4822 34.4874 28.567C34.3859 28.6519 34.2624 28.6978 34.1355 28.6979C34.08 28.698 34.0248 28.6892 33.9716 28.6718C33.8977 28.6479 33.8287 28.608 33.7686 28.5545C33.7085 28.5009 33.6585 28.4346 33.6214 28.3595C33.5843 28.2844 33.5609 28.2019 33.5524 28.1166C33.5439 28.0314 33.5506 27.9452 33.5721 27.8628L34.0213 26.1437L21.2521 35.3651C21.1875 35.4118 21.1153 35.4438 21.0396 35.4594C20.964 35.475 20.8863 35.4738 20.811 35.456C20.7357 35.4381 20.6644 35.4039 20.601 35.3553C20.5376 35.3067 20.4835 35.2446 20.4416 35.1727ZM19.9859 39.8353H23.0646V45.863L19.9859 45.8886V39.8353ZM26.4099 35.0995V45.8344L29.4889 45.8087V35.0998L26.4099 35.0995ZM32.8581 30.3638V45.7808L35.9366 45.7545V30.364L32.8581 30.3638ZM40.7493 45.7138H40.7451L37.1087 45.7445V29.7111C37.1087 29.5379 37.047 29.3719 36.9371 29.2495C36.8272 29.127 36.6782 29.0583 36.5228 29.0583H32.2725C32.1171 29.0583 31.968 29.127 31.8581 29.2495C31.7483 29.3719 31.6865 29.5379 31.6865 29.7111V45.79L30.6605 45.7991V34.4468C30.6605 34.2737 30.5988 34.1077 30.4889 33.9852C30.379 33.8628 30.23 33.794 30.0746 33.794H25.8237C25.6683 33.794 25.5193 33.8628 25.4094 33.9852C25.2995 34.1077 25.2378 34.2737 25.2378 34.4468V45.8444L24.2357 45.8531V39.1825C24.2357 39.0094 24.174 38.8433 24.0641 38.7209C23.9542 38.5985 23.8052 38.5297 23.6498 38.5297H19.4C19.2446 38.5297 19.0956 38.5985 18.9857 38.7209C18.8758 38.8433 18.8141 39.0094 18.8141 39.1825V45.8982L15.1449 45.9289C14.9895 45.9296 14.8407 45.999 14.7313 46.122C14.6218 46.2449 14.5607 46.4112 14.5613 46.5843C14.5619 46.7575 14.6242 46.9232 14.7345 47.0452C14.8448 47.1671 14.9941 47.2353 15.1495 47.2346H15.1541L40.7541 47.0195C40.9095 47.0188 41.0583 46.9494 41.1678 46.8265C41.2772 46.7036 41.3384 46.5372 41.3377 46.3641C41.3371 46.191 41.2748 46.0252 41.1645 45.9032C41.0542 45.7813 40.9049 45.7132 40.7495 45.7138H40.7493ZM33.9522 12.455H49.8029V14.8487H33.9522V12.455ZM33.3663 16.1543H50.3886C50.544 16.1543 50.693 16.0855 50.8029 15.9631C50.9128 15.8407 50.9745 15.6746 50.9745 15.5015V11.8022C50.9745 11.629 50.9128 11.463 50.8029 11.3406C50.693 11.2181 50.544 11.1494 50.3886 11.1494H33.3662C33.2108 11.1494 33.0618 11.2181 32.9519 11.3406C32.842 11.463 32.7803 11.629 32.7803 11.8022V15.5015C32.7803 15.6746 32.842 15.8407 32.9519 15.9631C33.0618 16.0855 33.2108 16.1543 33.3662 16.1543H33.3663ZM23.4543 12.4278C23.6716 12.4278 23.8839 12.4997 24.0646 12.6342C24.2452 12.7687 24.386 12.9598 24.4691 13.1835C24.5523 13.4071 24.574 13.6532 24.5316 13.8906C24.4892 14.1281 24.3846 14.3461 24.231 14.5173C24.0774 14.6885 23.8816 14.8051 23.6685 14.8523C23.4555 14.8996 23.2346 14.8754 23.0338 14.7828C22.8331 14.6902 22.6615 14.5333 22.5408 14.3321C22.42 14.1308 22.3555 13.8942 22.3555 13.6522C22.3558 13.3276 22.4717 13.0164 22.6777 12.7869C22.8837 12.5573 23.163 12.4282 23.4543 12.4278ZM23.4543 16.1815C23.9034 16.1816 24.3425 16.0332 24.7159 15.7553C25.0894 15.4773 25.3805 15.0822 25.5524 14.6199C25.7243 14.1576 25.7693 13.6489 25.6817 13.1581C25.5941 12.6674 25.3778 12.2165 25.0602 11.8627C24.7426 11.5089 24.338 11.2679 23.8975 11.1703C23.457 11.0727 23.0004 11.1228 22.5855 11.3144C22.1706 11.5059 21.8159 11.8302 21.5664 12.2463C21.317 12.6624 21.1838 13.1516 21.1839 13.6519C21.1846 14.3226 21.424 14.9655 21.8497 15.4397C22.2753 15.9139 22.8524 16.1807 23.4543 16.1815ZM17.3751 12.4278C17.5924 12.4278 17.8047 12.4997 17.9854 12.6342C18.166 12.7687 18.3068 12.9598 18.3899 13.1835C18.4731 13.4071 18.4948 13.6532 18.4524 13.8906C18.41 14.1281 18.3054 14.3461 18.1518 14.5173C17.9982 14.6885 17.8024 14.8051 17.5893 14.8523C17.3763 14.8996 17.1554 14.8754 16.9546 14.7828C16.7539 14.6902 16.5823 14.5333 16.4616 14.3321C16.3408 14.1308 16.2763 13.8942 16.2763 13.6522C16.2766 13.3276 16.3925 13.0164 16.5985 12.7869C16.8045 12.5573 17.0838 12.4282 17.3751 12.4278ZM17.3751 16.1815C17.8242 16.1816 18.2633 16.0332 18.6367 15.7552C19.0102 15.4773 19.3012 15.0821 19.4731 14.6198C19.645 14.1576 19.69 13.6489 19.6024 13.1581C19.5148 12.6673 19.2985 12.2165 18.9809 11.8627C18.6633 11.5089 18.2587 11.2679 17.8182 11.1703C17.3777 11.0727 16.9211 11.1229 16.5062 11.3144C16.0913 11.5059 15.7366 11.8302 15.4871 12.2463C15.2377 12.6624 15.1045 13.1516 15.1046 13.6519C15.1052 14.3226 15.3447 14.9656 15.7703 15.4399C16.196 15.9141 16.7731 16.1808 17.3751 16.1815ZM11.2959 12.4278C11.5132 12.4278 11.7256 12.4995 11.9063 12.634C12.087 12.7684 12.2278 12.9596 12.311 13.1832C12.3942 13.4068 12.416 13.6529 12.3737 13.8904C12.3313 14.1278 12.2267 14.346 12.0731 14.5172C11.9195 14.6884 11.7238 14.805 11.5107 14.8523C11.2976 14.8996 11.0767 14.8754 10.8759 14.7828C10.6751 14.6902 10.5035 14.5334 10.3828 14.3321C10.262 14.1309 10.1975 13.8943 10.1975 13.6522C10.1978 13.3277 10.3136 13.0165 10.5195 12.787C10.7254 12.5575 11.0046 12.4283 11.2959 12.4278ZM11.2959 16.1815C11.745 16.1816 12.1841 16.0332 12.5575 15.7552C12.931 15.4773 13.222 15.0821 13.3939 14.6198C13.5658 14.1576 13.6108 13.6489 13.5232 13.1581C13.4356 12.6673 13.2193 12.2165 12.9017 11.8627C12.5841 11.5089 12.1795 11.2679 11.739 11.1703C11.2985 11.0727 10.8419 11.1229 10.427 11.3144C10.0121 11.5059 9.65743 11.8302 9.40794 12.2463C9.15846 12.6624 9.02533 13.1516 9.02539 13.6519C9.02606 14.3226 9.2655 14.9656 9.69116 15.4398C10.1168 15.9141 10.6939 16.1808 11.2959 16.1815ZM7.05078 8.80542C6.81774 8.80565 6.59431 8.90889 6.42953 9.09248C6.26475 9.27608 6.17208 9.52501 6.17188 9.78465V18.498H53.8281V9.78487C53.8277 9.5253 53.735 9.2765 53.5702 9.09296C53.4055 8.90941 53.1822 8.8061 52.9492 8.80564L7.05078 8.80542ZM52.9492 51.1936C53.1822 51.1931 53.4055 51.0898 53.5702 50.9063C53.735 50.7227 53.8277 50.4739 53.8281 50.2144V19.8039H6.17188V50.2144C6.17211 50.474 6.26478 50.7229 6.42956 50.9065C6.59433 51.0901 6.81775 51.1933 7.05078 51.1936H52.9492ZM7.05078 52.4992H52.9492C53.4929 52.4986 54.0142 52.2576 54.3987 51.8293C54.7832 51.4009 54.9994 50.8201 55 50.2144V9.78487C54.9994 9.17909 54.7832 8.59831 54.3987 8.16995C54.0142 7.7416 53.4929 7.50066 52.9492 7.5H7.05078C6.50709 7.50075 5.98585 7.74172 5.6014 8.17005C5.21695 8.59838 5.00067 9.17911 5 9.78487V50.2141C5.00044 50.8201 5.21662 51.4011 5.60109 51.8296C5.98557 52.2581 6.50693 52.4992 7.05078 52.5V52.4992Z" fill="url(#paint0_linear_866_11487)"/>
<defs>
<linearGradient id="paint0_linear_866_11487" x1="30" y1="7.5" x2="30" y2="52.5" gradientUnits="userSpaceOnUse">
<stop stop-color="#81319B"/>
<stop offset="0.48" stop-color="#00A99D"/>
<stop offset="1" stop-color="#0B2C4C"/>
</linearGradient>
</defs>
</svg>
