<svg width="26" height="26" viewBox="0 0 26 26" fill="none" xmlns="http://www.w3.org/2000/svg">
<path fill-rule="evenodd" clip-rule="evenodd" d="M5.80691 8.28334V3.59345C5.80691 3.3844 5.97684 3.21471 6.18598 3.21471H10.6767L9.76451 2.30404C9.61651 2.15604 9.61651 1.91618 9.76451 1.76823C9.91279 1.62028 10.1531 1.62028 10.3008 1.76823L11.8606 3.3253C11.8615 3.3263 11.8622 3.3273 11.8631 3.3283H11.8634C11.8634 3.3288 11.8634 3.3288 11.8641 3.3288C11.8641 3.32924 11.8641 3.32924 11.8647 3.32924V3.32974C11.8651 3.32974 11.8651 3.33025 11.8657 3.33025C12.0078 3.47853 12.0077 3.70888 11.8641 3.85805H11.8634C11.8634 3.85855 11.8631 3.85855 11.8631 3.85905C11.8624 3.85905 11.8624 3.85955 11.8621 3.85955V3.86005C11.8614 3.86005 11.8614 3.86005 11.8614 3.86055C11.8611 3.86055 11.8611 3.86106 11.8605 3.86106L10.3007 5.41862C10.1531 5.56663 9.91273 5.56663 9.76446 5.41862C9.61646 5.27067 9.61646 5.0307 9.76446 4.8827L10.6766 3.97214H6.56561V8.28329C6.56561 8.49234 6.39595 8.66203 6.18592 8.66203C5.97684 8.66214 5.80691 8.4924 5.80691 8.28334ZM24.761 16.0001C24.9093 16.1481 24.9093 16.3879 24.761 16.5359C24.613 16.6838 24.3727 16.6838 24.2244 16.5359L23.3125 15.6253V21.398C23.3125 21.6071 23.1426 21.7768 22.9332 21.7768H18.799C18.5895 21.7768 18.4196 21.6071 18.4196 21.398C18.4196 21.1884 18.5895 21.0192 18.799 21.0192H22.5538V15.6253L21.6413 16.5359C21.4933 16.6839 21.2534 16.6839 21.1051 16.5359C20.9571 16.388 20.9571 16.1481 21.1051 16.0001L22.6661 14.4415C22.8258 14.2927 23.0554 14.2976 23.2011 14.443L24.761 16.0001ZM20.0172 8.16419C19.9985 7.88886 19.8626 7.68637 19.5911 7.52885C19.1447 7.28221 18.6389 7.48343 18.0291 7.13232C17.3785 6.74651 17.2305 6.22126 17.2213 5.84846C17.2206 5.8404 17.2206 5.83234 17.2213 5.82422C17.2439 5.25755 17.5274 4.81314 18.0411 4.53887C18.2162 4.4419 18.4065 4.37363 18.6093 4.33476V3.96314C18.6093 3.75347 18.7792 3.58439 18.9886 3.58439C19.198 3.58439 19.368 3.75347 19.368 3.96314V4.32676C19.8164 4.38536 20.2184 4.52525 20.5885 4.75109C20.7667 4.86007 20.8233 5.09348 20.7142 5.27173C20.605 5.45048 20.3714 5.50664 20.1929 5.3975C19.8444 5.18483 19.4523 5.07279 18.9946 5.05511C18.8015 5.05139 18.5482 5.11588 18.4074 5.20206C18.4052 5.20356 18.4033 5.20457 18.4007 5.20551C18.1251 5.35252 17.9949 5.54901 17.98 5.84185C17.9866 6.01104 18.042 6.25646 18.4099 6.47719C18.8334 6.71632 19.3629 6.52467 19.964 6.86911C20.4688 7.15962 20.7495 7.60141 20.7766 8.1469C20.7769 8.16008 20.7769 8.1732 20.7759 8.18638C20.7236 8.99986 20.1352 9.53111 19.3679 9.67272V10.0414C19.3679 10.2505 19.198 10.4201 18.9886 10.4201C18.7791 10.4201 18.6092 10.2505 18.6092 10.0414V9.67978C18.1834 9.62368 17.7734 9.48229 17.388 9.25711C17.2069 9.15142 17.1458 8.91918 17.2515 8.73881C17.3574 8.55806 17.5898 8.49751 17.7706 8.60304C18.2787 8.89955 19.0447 9.10244 19.5939 8.80003C19.8636 8.64947 19.9959 8.45259 20.0172 8.16419ZM18.9887 2.78081C16.6574 2.78081 14.7609 4.6742 14.7609 7.00199C14.7609 9.32984 16.6574 11.2237 18.9887 11.2237C21.3196 11.2237 23.2158 9.32984 23.2158 7.00199C23.2158 4.67426 21.3196 2.78081 18.9887 2.78081ZM18.9887 11.9814C21.7381 11.9814 23.9745 9.7475 23.9745 7.00199C23.9745 4.25659 21.7381 2.02321 18.9887 2.02321C16.2392 2.02321 14.0021 4.25659 14.0021 7.00199C14.0021 9.7475 16.2392 11.9814 18.9887 11.9814ZM18.9887 1.25766C15.8162 1.25766 13.2357 3.83492 13.2357 7.00199C13.2357 10.1697 15.8162 12.7464 18.9887 12.7464C22.1608 12.7464 24.7412 10.1697 24.7412 7.00199C24.7412 3.83492 22.1608 1.25766 18.9887 1.25766ZM18.9887 13.5041C22.5793 13.5041 25.5 10.5874 25.5 7.00199C25.5 3.41665 22.5793 0.5 18.9887 0.5C15.398 0.5 12.477 3.4167 12.477 7.00199C12.477 10.5874 15.398 13.5041 18.9887 13.5041ZM13.5626 22.5091C12.949 22.5091 12.4497 22.0106 12.4497 21.398C12.4497 20.7848 12.949 20.2869 13.5626 20.2869C14.1759 20.2869 14.6753 20.7849 14.6753 21.398C14.6753 22.0106 14.1759 22.5091 13.5626 22.5091ZM13.5626 19.5293C12.5308 19.5293 11.6912 20.3672 11.6912 21.398C11.6912 22.4283 12.5308 23.2667 13.5626 23.2667C14.5947 23.2667 15.434 22.4283 15.434 21.398C15.434 20.3672 14.5947 19.5293 13.5626 19.5293ZM16.9123 21.6238V21.1718L16.3878 21.0016C16.2643 20.9611 16.1698 20.8612 16.1379 20.7354C16.0756 20.4945 15.9794 20.2632 15.8521 20.0486C15.7863 19.937 15.7818 19.799 15.841 19.6833L16.0914 19.1925L15.7713 18.8727L15.2796 19.1227C15.1637 19.1818 15.0256 19.1773 14.9138 19.1112C14.6987 18.9844 14.4673 18.8884 14.2261 18.8263C14.1 18.794 13.9995 18.7 13.9594 18.5767L13.7888 18.053H13.3359L13.1659 18.5767C13.1255 18.7 13.0252 18.794 12.8992 18.8263C12.658 18.8884 12.4263 18.9844 12.2108 19.1112C12.0991 19.1773 11.9617 19.1818 11.8458 19.1227L11.3541 18.8727L11.0339 19.1925L11.2844 19.6833C11.3436 19.799 11.3388 19.9369 11.2726 20.0486C11.1456 20.2632 11.0495 20.4945 10.9874 20.7354C10.955 20.8612 10.8608 20.9611 10.7376 21.0016L10.2131 21.1718V21.6238L10.7376 21.7939C10.8608 21.8343 10.955 21.9343 10.9874 22.0601C11.0495 22.3011 11.1456 22.5323 11.2726 22.747C11.3388 22.8586 11.3436 22.9965 11.2844 23.1122L11.0339 23.6031L11.3541 23.9227L11.8458 23.6727C11.9617 23.6136 12.0998 23.6182 12.2114 23.6843C12.4263 23.8116 12.658 23.9071 12.8992 23.9691C13.0252 24.0015 13.1255 24.0955 13.1659 24.2191L13.3359 24.7424H13.7888L13.9594 24.2186C13.9995 24.0955 14.1 24.0015 14.2261 23.9691C14.4673 23.9071 14.6987 23.8111 14.9138 23.6843C15.0255 23.6182 15.1637 23.6136 15.2796 23.6727L15.7713 23.9227L16.0914 23.6031L15.841 23.1122C15.7818 22.9965 15.7863 22.8586 15.8521 22.747C15.9794 22.5323 16.0755 22.3011 16.1379 22.0601C16.1704 21.9343 16.2643 21.8343 16.3878 21.7939L16.9123 21.6238ZM17.4091 20.5359L16.813 20.343C16.7579 20.1732 16.6892 20.0081 16.6077 19.8491L16.8926 19.2915C16.967 19.145 16.9391 18.9677 16.8229 18.8516L16.1125 18.1425C15.9964 18.0263 15.8188 17.9985 15.6721 18.0728L15.1139 18.3572C14.9544 18.2759 14.7892 18.2071 14.619 18.1521L14.4255 17.5571C14.3749 17.401 14.2291 17.2955 14.0649 17.2955H13.0607C12.8965 17.2955 12.7507 17.401 12.6995 17.5571L12.5063 18.1521C12.3364 18.207 12.1712 18.2759 12.0114 18.3567L11.4535 18.0727C11.3068 17.9985 11.1292 18.0263 11.0127 18.1424L10.3027 18.8516C10.1865 18.9676 10.1578 19.1449 10.233 19.2914L10.5171 19.849C10.4363 20.008 10.3675 20.1732 10.3122 20.343L9.7164 20.5358C9.56011 20.5868 9.45448 20.7323 9.45448 20.8965V21.8989C9.45448 22.0632 9.56011 22.2085 9.7164 22.2595L10.3122 22.4525C10.3675 22.6222 10.4363 22.7874 10.5171 22.9464L10.233 23.504C10.1578 23.6504 10.1865 23.8277 10.3027 23.9439L11.0127 24.653C11.1292 24.7692 11.3068 24.797 11.4535 24.7226L12.0118 24.4388C12.1712 24.5196 12.3364 24.5883 12.5063 24.6434L12.6995 25.2383C12.7507 25.3945 12.8965 25.5 13.0607 25.5H14.0648C14.229 25.5 14.3748 25.3945 14.4254 25.2383L14.6189 24.6434C14.7892 24.5883 14.9544 24.5197 15.1138 24.4388L15.672 24.7226C15.8187 24.7969 15.9963 24.7691 16.1125 24.653L16.8229 23.9439C16.939 23.8277 16.967 23.6504 16.8926 23.504L16.6077 22.9464C16.6892 22.7874 16.7579 22.6222 16.813 22.4525L17.4091 22.2595C17.5654 22.2086 17.671 22.0632 17.671 21.8989V20.8965C17.671 20.7323 17.5654 20.5869 17.4091 20.5359ZM7.72026 15.8586C6.84501 16.7046 5.44805 16.6818 4.60098 15.807C3.75335 14.9317 3.77579 13.5391 4.65254 12.6925C5.52923 11.8459 6.92425 11.8697 7.77182 12.7439C8.61911 13.618 8.59528 15.013 7.72026 15.8586ZM6.23526 11.3156C4.60087 11.2844 3.24928 12.5909 3.22227 14.2267C3.19493 15.882 4.5292 17.2359 6.18754 17.2359C7.8055 17.2359 9.12357 15.9407 9.15052 14.3243C9.17786 12.6886 7.87316 11.3428 6.23526 11.3156ZM8.66198 17.4581C8.5592 17.5379 8.50474 17.6642 8.51682 17.7934L8.60368 18.7146L7.77015 19.0747L7.15716 18.3803C7.07158 18.2828 6.94168 18.2358 6.81311 18.2565C6.43849 18.3156 6.05786 18.3216 5.68263 18.2748C5.55373 18.2585 5.42544 18.309 5.3427 18.4085L4.75198 19.1211L3.90792 18.7873L3.96583 17.8641C3.97413 17.7347 3.91522 17.61 3.8102 17.5337C3.50468 17.312 3.23157 17.0473 2.99894 16.7474C2.91903 16.6449 2.7927 16.5903 2.66318 16.6024L1.74056 16.6893L1.37997 15.8569L2.07536 15.2453C2.17308 15.1595 2.21952 15.0296 2.1992 14.9019C2.14001 14.5271 2.13427 14.1474 2.18104 13.7726C2.19792 13.6439 2.14663 13.5155 2.04674 13.4332L1.33353 12.8433L1.66773 12.0004L2.5923 12.0585C2.72181 12.0671 2.84693 12.008 2.92299 11.9034C3.14515 11.5973 3.41025 11.3252 3.7107 11.0928C3.81349 11.0135 3.86794 10.8867 3.8558 10.758L3.76894 9.83624L4.60248 9.47612L5.2148 10.1706C5.30105 10.2681 5.43028 10.3146 5.55885 10.2943C5.93408 10.2347 6.31443 10.2287 6.68994 10.2762C6.81884 10.2928 6.94708 10.2418 7.02954 10.1418L7.62025 9.4297L8.46459 9.76352L8.40635 10.6867C8.39839 10.8161 8.45697 10.9408 8.56165 11.0166C8.86783 11.2388 9.14089 11.5035 9.37352 11.8034C9.45276 11.9059 9.57943 11.9605 9.709 11.9484L10.632 11.8615L10.9919 12.6938L10.2972 13.306C10.1995 13.3913 10.1531 13.5211 10.1731 13.6494C10.2323 14.0237 10.2384 14.4034 10.1909 14.7782C10.1747 14.9069 10.2253 15.0353 10.3255 15.1176L11.0391 15.7075L10.7046 16.5505L9.77999 16.4924C9.65076 16.4848 9.5257 16.5428 9.4493 16.6474C9.22753 16.9531 8.96243 17.2257 8.66198 17.4581ZM9.29123 17.9238C9.52737 17.7243 9.74285 17.502 9.93506 17.2611L10.9319 17.3242C11.0958 17.3338 11.2479 17.2379 11.3084 17.0854L11.8459 15.7308C11.9067 15.5777 11.8621 15.404 11.7352 15.2995L10.9659 14.6631C10.9908 14.356 10.986 14.0469 10.9513 13.7404L11.7008 13.0802C11.8243 12.9717 11.8634 12.7964 11.7982 12.646L11.2186 11.308C11.1534 11.1576 10.9981 11.0662 10.8348 11.0813L9.8399 11.1752C9.64001 10.9393 9.41757 10.7242 9.1763 10.5323L9.239 9.53689C9.2498 9.37315 9.15308 9.2212 9.0003 9.16059L7.6432 8.62422C7.49041 8.56362 7.31635 8.6081 7.21134 8.73481L6.57452 9.50298C6.26711 9.47762 5.95741 9.48274 5.64994 9.51765L4.98957 8.76917C4.88072 8.64591 4.70504 8.60643 4.55448 8.67159L3.21459 9.25044C3.06375 9.31544 2.97238 9.47006 2.98735 9.63375L3.08157 10.6271C2.84543 10.8266 2.62994 11.0488 2.43773 11.2898L1.44094 11.2266C1.2764 11.2166 1.12456 11.313 1.06409 11.4656L0.526887 12.8201C0.466084 12.9732 0.510684 13.1469 0.637636 13.252L1.40686 13.8878C1.38175 14.1949 1.38682 14.5039 1.42151 14.8111L0.671991 15.4707C0.548491 15.5793 0.509014 15.7544 0.574272 15.9051L1.15379 17.2429C1.21939 17.3934 1.37401 17.4854 1.53793 17.4697L2.53217 17.3758C2.73267 17.6116 2.95512 17.8268 3.19638 18.0187L3.13307 19.0142C3.12288 19.1778 3.21899 19.3298 3.37239 19.3903L4.72882 19.9267C4.88027 19.9871 5.05522 19.9438 5.16068 19.8162L5.7975 19.048C6.10558 19.0733 6.41494 19.0682 6.72207 19.0333L7.38311 19.7817C7.4913 19.905 7.6673 19.9445 7.8182 19.8793L9.1581 19.3005C9.30893 19.2354 9.40031 19.0809 9.38499 18.9172L9.29123 17.9238Z" fill="url(#paint0_linear_12066_14412)"/>
<defs>
<linearGradient id="paint0_linear_12066_14412" x1="13" y1="0.5" x2="13" y2="25.5" gradientUnits="userSpaceOnUse">
<stop stop-color="#81319B"/>
<stop offset="0.48" stop-color="#00A99D"/>
<stop offset="1" stop-color="#0B2C4C"/>
</linearGradient>
</defs>
</svg>
