<svg width="26" height="25" viewBox="0 0 26 25" fill="none" xmlns="http://www.w3.org/2000/svg">
<path d="M2.47266 22.4865H15.3633C15.4805 22.4865 15.5586 22.4073 15.5586 22.2884V12.4009C15.5586 12.282 15.4805 12.2028 15.3633 12.2028H2.47266C2.35547 12.2028 2.27734 12.282 2.27734 12.4009V22.2686C2.27734 22.3874 2.375 22.4865 2.47266 22.4865ZM2.66797 12.5991H15.168V22.0704H2.66797V12.5991ZM23.0195 2.01813H11.7109C11.2227 2.01813 10.832 2.41442 10.832 2.90978C10.832 3.40514 11.2227 3.80143 11.7109 3.80143H23.0195C23.5078 3.80143 23.8984 3.40514 23.8984 2.90978C23.8984 2.41442 23.5078 2.01813 23.0195 2.01813ZM23.0195 3.40514H11.7109C11.4375 3.40514 11.2227 3.18718 11.2227 2.90978C11.2227 2.63238 11.4375 2.41442 11.7109 2.41442H23.0195C23.293 2.41442 23.5078 2.63238 23.5078 2.90978C23.5078 3.18718 23.293 3.40514 23.0195 3.40514ZM2.98047 2.01813C2.49219 2.01813 2.10156 2.41442 2.10156 2.90978C2.10156 3.40514 2.49219 3.80143 2.98047 3.80143C3.46875 3.80143 3.85938 3.40514 3.85938 2.90978C3.85938 2.41442 3.44922 2.01813 2.98047 2.01813ZM2.98047 3.40514C2.70703 3.40514 2.49219 3.18718 2.49219 2.90978C2.49219 2.63238 2.70703 2.41442 2.98047 2.41442C3.25391 2.41442 3.46875 2.63238 3.46875 2.90978C3.46875 3.18718 3.23438 3.40514 2.98047 3.40514ZM5.40234 2.01813C4.91406 2.01813 4.52344 2.41442 4.52344 2.90978C4.52344 3.40514 4.91406 3.80143 5.40234 3.80143C5.89062 3.80143 6.28125 3.40514 6.28125 2.90978C6.28125 2.41442 5.89062 2.01813 5.40234 2.01813ZM5.40234 3.40514C5.12891 3.40514 4.91406 3.18718 4.91406 2.90978C4.91406 2.63238 5.12891 2.41442 5.40234 2.41442C5.67578 2.41442 5.89062 2.63238 5.89062 2.90978C5.89062 3.18718 5.67578 3.40514 5.40234 3.40514ZM7.84375 2.01813C7.35547 2.01813 6.96484 2.41442 6.96484 2.90978C6.96484 3.40514 7.35547 3.80143 7.84375 3.80143C8.33203 3.80143 8.72266 3.40514 8.72266 2.90978C8.72266 2.41442 8.33203 2.01813 7.84375 2.01813ZM7.84375 3.40514C7.57031 3.40514 7.35547 3.18718 7.35547 2.90978C7.35547 2.63238 7.57031 2.41442 7.84375 2.41442C8.11719 2.41442 8.33203 2.63238 8.33203 2.90978C8.33203 3.18718 8.11719 3.40514 7.84375 3.40514ZM25.5 2.47386C25.5 1.52277 24.7383 0.75 23.8008 0.75H2.19922C1.26172 0.75 0.5 1.52277 0.5 2.47386V22.5261C0.5 23.4772 1.26172 24.25 2.19922 24.25H23.8008C24.7383 24.25 25.5 23.4772 25.5 22.5261C25.5 21.5552 25.5 23.1206 25.5 2.47386ZM0.890625 2.47386C0.890625 1.74073 1.47656 1.14629 2.19922 1.14629H23.8008C24.5234 1.14629 25.1094 1.74073 25.1094 2.47386V4.65346H0.890625V2.47386ZM25.1094 22.5261C25.1094 23.2593 24.5234 23.8537 23.8008 23.8537H2.19922C1.47656 23.8537 0.890625 23.2593 0.890625 22.5261V5.04975H25.1094V22.5261ZM3.07812 10.796H22.9219C23.3516 10.796 23.7227 10.4393 23.7227 9.98356V7.50674C23.7227 7.07083 23.3711 6.69435 22.9219 6.69435H3.07812C2.64844 6.69435 2.27734 7.05101 2.27734 7.50674V10.0034C2.27734 10.4393 2.64844 10.796 3.07812 10.796ZM23.332 7.50674V10.0034C23.332 10.2213 23.1562 10.4195 22.9219 10.4195H6.57422V7.09064H22.9023C23.1367 7.09064 23.332 7.26897 23.332 7.50674ZM2.66797 7.50674C2.66797 7.28879 2.84375 7.09064 3.07812 7.09064H6.18359V10.3997H3.07812C2.86328 10.3997 2.66797 10.2213 2.66797 9.98356V7.50674ZM4.77734 9.36931L5.1875 9.78541C5.26562 9.86467 5.38281 9.86467 5.46094 9.78541C5.53906 9.70615 5.53906 9.58727 5.46094 9.50801L5.05078 9.0919C5.28516 8.73524 5.22656 8.2597 4.93359 7.94266C4.58203 7.586 3.99609 7.586 3.64453 7.94266C3.29297 8.29932 3.29297 8.89376 3.64453 9.25042C3.9375 9.54764 4.40625 9.60708 4.77734 9.36931ZM3.91797 8.22007C4.11328 8.02192 4.44531 8.02192 4.64062 8.22007C4.83594 8.41821 4.83594 8.75506 4.64062 8.9532C4.44531 9.15135 4.11328 9.15135 3.91797 8.9532C3.72266 8.75506 3.72266 8.41821 3.91797 8.22007ZM12.375 18.2264L13.5664 17.5923C13.7227 17.5131 13.7031 17.2753 13.5273 17.2159L9.38672 16.1261C9.32812 16.1062 9.25 16.1261 9.19141 16.1855C9.13281 16.2449 9.13281 16.3044 9.15234 16.3836L10.4023 20.5249C10.4609 20.7032 10.6953 20.723 10.7734 20.5447L11.3398 19.3162L12.9805 20.9014C13.0586 20.9806 13.1758 20.9806 13.2539 20.9014L14.0156 20.089C14.0937 20.0097 14.0937 19.8908 14.0156 19.8116L12.375 18.2264ZM13.0977 20.4852L11.418 18.8406C11.3203 18.7416 11.1641 18.7812 11.1055 18.9001L10.6367 19.9304L9.64062 16.6016L12.9414 17.4734L11.9453 17.9886C11.8281 18.0481 11.8086 18.2066 11.9062 18.3056L13.6055 19.9503L13.0977 20.4852ZM23.5273 12.2028H17.1406C17.0234 12.2028 16.9453 12.282 16.9453 12.4009V16.4431C16.9453 16.562 17.0234 16.6412 17.1406 16.6412H23.5078C23.625 16.6412 23.7031 16.562 23.7031 16.4431V12.4009C23.7227 12.3019 23.625 12.2028 23.5273 12.2028ZM23.332 16.2449H17.3359V12.5991H23.3125V16.2449H23.332ZM23.5273 18.0481H17.1406C17.0234 18.0481 16.9453 18.1273 16.9453 18.2462V22.2884C16.9453 22.4073 17.0234 22.4865 17.1406 22.4865H23.5078C23.625 22.4865 23.7031 22.4073 23.7031 22.2884V18.2462C23.7227 18.1471 23.625 18.0481 23.5273 18.0481ZM23.332 22.0902H17.3359V18.4444H23.3125V22.0902H23.332Z" fill="url(#paint0_linear_12066_1861)"/>
<defs>
<linearGradient id="paint0_linear_12066_1861" x1="13" y1="0.75" x2="13" y2="24.25" gradientUnits="userSpaceOnUse">
<stop stop-color="#81319B"/>
<stop offset="0.48" stop-color="#00A99D"/>
<stop offset="1" stop-color="#0B2C4C"/>
</linearGradient>
</defs>
</svg>
