<svg width="26" height="26" viewBox="0 0 26 26" fill="none" xmlns="http://www.w3.org/2000/svg">
<path d="M20.7209 10.0523C18.0872 10.0523 15.9419 7.90698 15.9419 5.27326C15.9419 2.63953 18.0872 0.5 20.7209 0.5C23.3547 0.5 25.5 2.64535 25.5 5.27907C25.5 7.91279 23.3547 10.0523 20.7209 10.0523ZM20.7209 1.06977C18.4012 1.06977 16.5116 2.9593 16.5116 5.27907C16.5116 7.59884 18.4012 9.48837 20.7209 9.48837C23.0407 9.48837 24.9302 7.59884 24.9302 5.27907C24.9302 2.9593 23.0465 1.06977 20.7209 1.06977ZM19.5174 7.5814C19.4709 7.5814 19.4244 7.56977 19.3779 7.54651C19.2907 7.49419 19.2326 7.40116 19.2326 7.29651V3.26163C19.2326 3.15698 19.2907 3.06395 19.3779 3.01163C19.4651 2.9593 19.5756 2.96512 19.6628 3.01744L22.9767 5.03488C23.064 5.08721 23.1105 5.18023 23.1105 5.27907C23.1105 5.37791 23.0581 5.47093 22.9767 5.52326L19.6628 7.5407C19.6221 7.56395 19.5698 7.5814 19.5174 7.5814ZM19.8023 3.76163V6.78488L22.2849 5.27326L19.8023 3.76163ZM20.7209 21.8837C20.0814 21.8837 19.564 21.3663 19.564 20.7267C19.564 20.0872 20.0814 19.5698 20.7209 19.5698C21.3605 19.5698 21.8779 20.0872 21.8779 20.7267C21.8837 21.3605 21.3605 21.8837 20.7209 21.8837ZM20.7209 20.1337C20.3953 20.1337 20.1279 20.4012 20.1279 20.7267C20.1279 21.0523 20.3953 21.3198 20.7209 21.3198C21.0465 21.3198 21.314 21.0523 21.314 20.7267C21.314 20.3953 21.0523 20.1337 20.7209 20.1337ZM20.7209 25.5C18.0872 25.5 15.9419 23.3547 15.9419 20.7209C15.9419 18.0872 18.0872 15.9419 20.7209 15.9419C23.3547 15.9419 25.5 18.0872 25.5 20.7209C25.5 23.3547 23.3547 25.5 20.7209 25.5ZM20.7209 16.5174C18.4012 16.5174 16.5116 18.407 16.5116 20.7267C16.5116 23.0465 18.4012 24.936 20.7209 24.936C23.0407 24.936 24.9302 23.0465 24.9302 20.7267C24.9302 18.407 23.0465 16.5174 20.7209 16.5174ZM22.6047 23.1047H18.843C18.5698 23.1047 18.343 22.8779 18.343 22.6047V18.843C18.343 18.5698 18.5698 18.343 18.843 18.343H22.6047C22.8779 18.343 23.1047 18.5698 23.1047 18.843V22.6047C23.1047 22.8779 22.8779 23.1047 22.6047 23.1047ZM18.9128 22.5349H22.5349V18.907H18.907V22.5349H18.9128ZM6.07558 23.3663C5.47093 23.3663 4.58721 23.2616 3.9593 22.75C3.83721 22.6512 3.81977 22.4709 3.9186 22.3488C4.01744 22.2267 4.19767 22.2093 4.31977 22.3081C5.13953 22.9826 6.64535 22.7558 6.65698 22.7558H6.66861C7.23256 22.686 7.43023 21.9012 7.50581 21.25C7.52326 21.0988 7.47674 20.9593 7.37791 20.843C7.27907 20.7326 7.13954 20.6686 6.98837 20.6686H6.37791C6.29651 20.6686 6.21512 20.6337 6.16279 20.5698C6.11047 20.5058 6.08721 20.4244 6.09884 20.343L6.31395 18.9302C6.3314 18.8314 6.28488 18.7616 6.25581 18.7267C6.22674 18.6919 6.16279 18.6395 6.06395 18.6395C5.95349 18.6395 5.85465 18.7093 5.81977 18.8198C5.27326 20.436 4.30233 20.8837 4.26163 20.9012C4.11628 20.9651 3.94767 20.9012 3.88954 20.7558C3.82558 20.6105 3.88954 20.4477 4.03488 20.3837C4.06977 20.3663 4.82558 19.9942 5.28488 18.6395C5.40116 18.3023 5.71512 18.0756 6.06395 18.0756C6.30233 18.0756 6.52907 18.1802 6.68605 18.3605C6.84302 18.5407 6.91279 18.7849 6.87791 19.0233L6.71512 20.1047H6.99419C7.30233 20.1047 7.59884 20.2384 7.80814 20.4651C8.01163 20.6977 8.11628 21.0058 8.0814 21.3081C7.91279 22.8488 7.26744 23.25 6.75581 23.314C6.69767 23.3314 6.43605 23.3663 6.07558 23.3663ZM4.00581 23.1163H2.90116C2.6686 23.1163 2.47674 22.9244 2.47674 22.6919V20.4884C2.47674 20.2558 2.6686 20.064 2.90116 20.064H4.00581C4.23837 20.064 4.43023 20.2558 4.43023 20.4884V22.6919C4.42442 22.9244 4.23837 23.1163 4.00581 23.1163ZM3.0407 22.5465H3.85465V20.6279H3.0407V22.5465ZM5.27907 25.5C2.64535 25.5 0.5 23.3547 0.5 20.7209C0.5 18.0872 2.64535 15.9419 5.27907 15.9419C7.91279 15.9419 10.0581 18.0872 10.0581 20.7209C10.0581 23.3547 7.91279 25.5 5.27907 25.5ZM5.27907 16.5174C2.9593 16.5174 1.06977 18.407 1.06977 20.7267C1.06977 23.0465 2.9593 24.936 5.27907 24.936C7.59884 24.936 9.48837 23.0465 9.48837 20.7267C9.48837 18.407 7.59884 16.5174 5.27907 16.5174ZM5.27907 10.0523C2.64535 10.0523 0.5 7.90698 0.5 5.27326C0.5 2.63953 2.64535 0.5 5.27907 0.5C7.91279 0.5 10.0581 2.64535 10.0581 5.27907C10.0581 7.91279 7.91279 10.0523 5.27907 10.0523ZM5.27907 1.06977C2.9593 1.06977 1.06977 2.9593 1.06977 5.27907C1.06977 7.59884 2.9593 9.48837 5.27907 9.48837C7.59884 9.48837 9.48837 7.59884 9.48837 5.27907C9.48837 2.9593 7.59884 1.06977 5.27907 1.06977ZM4.90698 7.81977C4.75 7.81977 4.62209 7.69186 4.62209 7.53488V3.81977C4.62209 3.21512 5.11047 2.72674 5.71512 2.72674H6.38954C6.54651 2.72674 6.67442 2.85465 6.67442 3.01163C6.67442 3.1686 6.54651 3.29651 6.38954 3.29651H5.71512C5.42442 3.29651 5.19186 3.52907 5.19186 3.81977V7.53488C5.19186 7.69186 5.06395 7.81977 4.90698 7.81977ZM5.64535 5.55814H4.16279C4.00581 5.55814 3.87791 5.43023 3.87791 5.27326C3.87791 5.11628 4.00581 4.98837 4.16279 4.98837H5.64535C5.80233 4.98837 5.93023 5.11628 5.93023 5.27326C5.93023 5.43605 5.80233 5.55814 5.64535 5.55814ZM13 24.2093C11.6221 24.2093 10.2442 23.9535 8.93605 23.4477C8.7907 23.3895 8.71512 23.2267 8.77326 23.0814C8.8314 22.936 8.99419 22.8605 9.13954 22.9186C11.6279 23.8837 14.3721 23.8837 16.8605 22.9186C17.0058 22.8605 17.1686 22.936 17.2267 23.0814C17.2849 23.2267 17.2093 23.3895 17.064 23.4477C15.7558 23.9535 14.3779 24.2093 13 24.2093ZM2.81977 17.2442C2.70349 17.2442 2.59884 17.1744 2.55233 17.064C1.53488 14.4419 1.53488 11.5581 2.55233 8.93605C2.61047 8.7907 2.77326 8.71512 2.9186 8.77326C3.06395 8.8314 3.13953 8.99419 3.0814 9.13954C2.11628 11.6279 2.11628 14.3721 3.0814 16.8605C3.13953 17.0058 3.06395 17.1686 2.9186 17.2267C2.88953 17.2384 2.85465 17.2442 2.81977 17.2442ZM16.9593 3.10465C16.9244 3.10465 16.8895 3.09884 16.8547 3.08721C14.3663 2.12209 11.6221 2.12209 9.13372 3.08721C8.98837 3.14535 8.82558 3.06977 8.76744 2.92442C8.7093 2.77907 8.78488 2.61628 8.93023 2.55814C11.5523 1.5407 14.436 1.5407 17.0581 2.55814C17.2035 2.61628 17.2791 2.77907 17.2209 2.92442C17.186 3.03488 17.0756 3.10465 16.9593 3.10465ZM23.1802 17.2442C23.1453 17.2442 23.1105 17.2384 23.0756 17.2267C22.9302 17.1686 22.8547 17.0058 22.9128 16.8605C23.8779 14.3721 23.8779 11.6279 22.9128 9.13954C22.8547 8.99419 22.9302 8.8314 23.0756 8.77326C23.2209 8.71512 23.3837 8.7907 23.4419 8.93605C24.4593 11.5581 24.4593 14.4419 23.4419 17.064C23.4012 17.1802 23.2965 17.2442 23.1802 17.2442ZM13.6453 17.7791H12.3605C12.2209 17.7791 12.0988 17.6744 12.0814 17.5349L11.9651 16.7442C11.6628 16.6628 11.3663 16.5407 11.093 16.3837L10.4477 16.8605C10.3372 16.9419 10.1744 16.936 10.0756 16.8314L9.16279 15.9244C9.06395 15.8256 9.05233 15.6686 9.13372 15.5523L9.61047 14.907C9.45349 14.6337 9.3314 14.343 9.25 14.0349L8.4593 13.9186C8.31977 13.8953 8.21512 13.7791 8.21512 13.6395V12.3547C8.21512 12.2151 8.31977 12.093 8.4593 12.0756L9.25 11.9593C9.33721 11.657 9.45349 11.3663 9.61047 11.0872L9.13372 10.4477C9.05233 10.3372 9.05814 10.1744 9.16279 10.0756L10.0756 9.16279C10.1744 9.06395 10.3314 9.05233 10.4477 9.13372L11.093 9.61047C11.3663 9.45349 11.657 9.3314 11.9651 9.25L12.0814 8.4593C12.1047 8.31977 12.2209 8.21512 12.3605 8.21512H13.6453C13.7849 8.21512 13.907 8.31977 13.9244 8.4593L14.0407 9.25C14.343 9.3314 14.6337 9.45349 14.9128 9.61047L15.5581 9.13372C15.6686 9.05233 15.8314 9.05814 15.9302 9.16279L16.843 10.0756C16.9419 10.1744 16.9535 10.3314 16.8721 10.4477L16.3953 11.0872C16.5523 11.3605 16.6744 11.6512 16.7558 11.9593L17.5465 12.0756C17.686 12.0988 17.7907 12.2151 17.7907 12.3547V13.6395C17.7907 13.7791 17.686 13.9012 17.5465 13.9186L16.7558 14.0349C16.6744 14.3372 16.5523 14.6279 16.3953 14.907L16.8721 15.5523C16.9535 15.6628 16.9477 15.8256 16.843 15.9244L15.9244 16.8372C15.8256 16.936 15.6686 16.9477 15.5523 16.8663L14.907 16.3895C14.6337 16.5465 14.343 16.6686 14.0349 16.75L13.9186 17.5407C13.907 17.6744 13.7849 17.7791 13.6453 17.7791ZM12.6047 17.2093H13.4012L13.5116 16.4709C13.5291 16.3547 13.6163 16.2616 13.7326 16.2326C14.1047 16.1512 14.4593 16 14.7849 15.7965C14.8837 15.7326 15.0116 15.7384 15.1047 15.8081L15.7035 16.2558L16.2674 15.6919L15.8198 15.093C15.75 15 15.7442 14.8721 15.8081 14.7733C16.0116 14.4477 16.1628 14.093 16.2442 13.7209C16.2674 13.6047 16.3663 13.5174 16.4826 13.5L17.2209 13.3895V12.593L16.4826 12.4826C16.3663 12.4651 16.2733 12.3779 16.2442 12.2616C16.1628 11.8895 16.0116 11.5349 15.8081 11.2093C15.7442 11.1105 15.75 10.9826 15.8198 10.8895L16.2674 10.2907L15.7035 9.72674L15.1047 10.1744C15.0116 10.2442 14.8837 10.25 14.7849 10.186C14.4593 9.98256 14.1047 9.8314 13.7326 9.75C13.6163 9.72674 13.5291 9.62791 13.5116 9.51163L13.4012 8.77326H12.6047L12.4942 9.51163C12.4767 9.62791 12.3895 9.72093 12.2733 9.75C11.9012 9.8314 11.5465 9.98256 11.2209 10.186C11.1221 10.25 10.9942 10.2442 10.9012 10.1744L10.3023 9.72674L9.73837 10.2907L10.186 10.8895C10.2558 10.9826 10.2616 11.1105 10.1977 11.2093C9.99419 11.5349 9.84302 11.8895 9.76163 12.2616C9.73837 12.3779 9.63953 12.4651 9.52326 12.4826L8.78488 12.593V13.3895L9.52326 13.5C9.63953 13.5174 9.73256 13.6047 9.76163 13.7209C9.84302 14.093 9.99419 14.4477 10.1977 14.7733C10.2616 14.8721 10.2558 15 10.186 15.093L9.73837 15.6919L10.3023 16.2558L10.9012 15.8081C10.9942 15.7384 11.1221 15.7326 11.2209 15.7965C11.5465 16 11.9012 16.1512 12.2733 16.2326C12.3895 16.2558 12.4767 16.3547 12.4942 16.4709L12.6047 17.2093ZM13 15.2791C11.7442 15.2791 10.7209 14.2558 10.7209 13C10.7209 11.7442 11.7442 10.7209 13 10.7209C14.2558 10.7209 15.2791 11.7442 15.2791 13C15.2791 14.2558 14.2558 15.2791 13 15.2791ZM13 11.2907C12.0581 11.2907 11.2907 12.0581 11.2907 13C11.2907 13.9419 12.0581 14.7093 13 14.7093C13.9419 14.7093 14.7093 13.9419 14.7093 13C14.7093 12.0581 13.9419 11.2907 13 11.2907Z" fill="url(#paint0_linear_12066_3631)"/>
<defs>
<linearGradient id="paint0_linear_12066_3631" x1="13" y1="0.5" x2="13" y2="25.5" gradientUnits="userSpaceOnUse">
<stop stop-color="#81319B"/>
<stop offset="0.48" stop-color="#00A99D"/>
<stop offset="1" stop-color="#0B2C4C"/>
</linearGradient>
</defs>
</svg>
