<svg width="26" height="25" viewBox="0 0 26 25" fill="none" xmlns="http://www.w3.org/2000/svg">
<path d="M13.4467 5.68737H6.93917C6.80248 5.68737 6.69508 5.79965 6.69508 5.93146C6.69508 6.06327 6.80736 6.17555 6.93917 6.17555H13.4467C13.5834 6.17555 13.6908 6.06327 13.6908 5.93146C13.6908 5.79965 13.5834 5.68737 13.4467 5.68737ZM6.93917 4.34485H10.9228C11.0595 4.34485 11.1669 4.23257 11.1669 4.10076C11.1669 3.96895 11.0546 3.85667 10.9228 3.85667H6.93917C6.80248 3.85667 6.69508 3.96895 6.69508 4.10076C6.69508 4.23257 6.80248 4.34485 6.93917 4.34485ZM6.93917 5.29682H12.2506C12.3873 5.29682 12.4947 5.18453 12.4947 5.05272C12.4947 4.92091 12.3824 4.80863 12.2506 4.80863H6.93917C6.80248 4.80863 6.69508 4.92091 6.69508 5.05272C6.69508 5.18453 6.80248 5.29682 6.93917 5.29682ZM22.7173 10.0517H22.0973V7.26909C22.0973 6.81508 21.9118 6.38059 21.5896 6.06327L15.8534 0.488186C15.8046 0.439367 15.7509 0.395431 15.6972 0.351494L15.6826 0.34173C15.6484 0.307557 15.6045 0.278266 15.5605 0.26362C15.2872 0.0927553 14.9698 0 14.6476 0H7.17838C5.3721 0 3.89777 1.44991 3.89777 3.23667V10.0566H3.27778C1.74487 10.0566 0.5 11.1941 0.5 12.5952V15.9734C0.5 17.3745 1.74487 18.512 3.27778 18.512H3.89777V21.7877C3.89777 23.5599 5.36721 25 7.17838 25H18.8216C20.6328 25 22.1022 23.5599 22.1022 21.7877V18.512H22.7222C24.2551 18.512 25.5 17.3745 25.5 15.9734V12.5952C25.4951 11.1892 24.2502 10.0517 22.7173 10.0517ZM15.5849 1.10818C15.5849 0.912908 15.7216 0.790861 15.9462 0.932435L16.2147 1.19117L21.2918 6.30248C21.3797 6.39035 21.3797 6.53681 21.2918 6.62468C21.2479 6.66862 21.1942 6.68815 21.1307 6.68815H16.6394C16.0585 6.68815 15.5898 6.21949 15.5898 5.63855V1.10818H15.5849ZM4.15163 3.23667C4.15163 1.5866 5.50879 0.253857 7.17838 0.253857H14.6476C14.8722 0.253857 15.0968 0.307557 15.292 0.400312V5.63855C15.292 6.38059 15.8925 6.98106 16.6345 6.98106H21.8142C21.8337 7.07381 21.8435 7.17145 21.8435 7.26909V10.0517H4.15163V3.23667ZM21.8435 21.7877C21.8435 23.4232 20.4863 24.751 18.8167 24.751H7.17838C5.50879 24.751 4.15163 23.4232 4.15163 21.7877V18.512H21.8484V21.7877H21.8435ZM25.1729 15.9686C25.1729 17.2086 24.0745 18.2142 22.7173 18.2142H3.27778C1.92062 18.2142 0.822203 17.2086 0.822203 15.9686V12.5903C0.822203 11.3503 1.92062 10.3447 3.27778 10.3447H22.7173C24.0745 10.3447 25.1729 11.3503 25.1729 12.5903V15.9686ZM10.4443 21.9635H15.5459C15.6386 21.9635 15.7119 21.8903 15.7119 21.7975C15.7119 21.7047 15.6386 21.6315 15.5459 21.6315H10.4443C10.3516 21.6315 10.2784 21.7047 10.2784 21.7975C10.2784 21.8903 10.3565 21.9635 10.4443 21.9635ZM9.88781 22.5835H16.1024C16.1854 22.5835 16.2538 22.5151 16.2538 22.4321C16.2538 22.3492 16.1854 22.2808 16.1024 22.2808H9.88781C9.80482 22.2808 9.73648 22.3492 9.73648 22.4321C9.73648 22.5151 9.80482 22.5835 9.88781 22.5835Z" fill="url(#paint0_linear_12066_7191)"/>
<defs>
<linearGradient id="paint0_linear_12066_7191" x1="12.5293" y1="25" x2="12.5293" y2="0" gradientUnits="userSpaceOnUse">
<stop stop-color="#0B2C4C"/>
<stop offset="0.5" stop-color="#00A99D"/>
<stop offset="1" stop-color="#81319B"/>
</linearGradient>
</defs>
</svg>
