<svg width="26" height="26" viewBox="0 0 26 26" fill="none" xmlns="http://www.w3.org/2000/svg">
<path d="M9.75174 21.1267C9.47582 21.1267 9.25156 21.3511 9.25156 21.627V22.0272C9.25156 22.3043 9.47586 22.5297 9.75174 22.5297H9.9928C10.0055 22.5822 10.0195 22.6347 10.035 22.6871L9.82723 22.8064C9.58795 22.9431 9.50479 23.2498 9.64236 23.4909L9.84379 23.8399C9.98312 24.0755 10.2888 24.1573 10.5268 24.0211L10.7354 23.9C10.7727 23.9393 10.8109 23.9776 10.8503 24.0149L10.7285 24.2251C10.5912 24.4652 10.6743 24.7718 10.9126 24.908L11.2587 25.1078C11.5066 25.2514 11.8124 25.1582 11.9428 24.9248L12.0641 24.7156C12.116 24.731 12.1679 24.7451 12.2203 24.7577V24.9988C12.2203 25.2747 12.4456 25.499 12.7228 25.499H13.1227C13.3987 25.499 13.6229 25.2747 13.6229 24.9988V24.7581C13.6756 24.7455 13.7282 24.7313 13.7803 24.7159L13.9004 24.9249C14.0438 25.1723 14.3553 25.244 14.5829 25.1085L14.9318 24.9085C15.1689 24.773 15.2551 24.4668 15.1162 24.2237L14.9952 24.0148C15.0343 23.9777 15.0725 23.9395 15.1096 23.9003L15.3197 24.0228C15.5602 24.1582 15.8674 24.0743 16.0029 23.8375L16.2036 23.4897C16.3407 23.2497 16.2575 22.9431 16.0187 22.8066L15.8104 22.6871C15.8259 22.6346 15.8399 22.5821 15.8526 22.5296H16.0914C16.3686 22.5296 16.5939 22.3043 16.5939 22.0271V21.6269C16.5939 21.3511 16.3686 21.1267 16.0914 21.1267H15.8531C15.8404 21.0739 15.8262 21.0214 15.8107 20.9692L16.0182 20.8501C16.2575 20.7133 16.3406 20.4067 16.2033 20.1662L16.0034 19.8175C15.8673 19.5796 15.5607 19.4961 15.3158 19.6333L15.1088 19.7541C15.0714 19.7148 15.0335 19.6772 14.9956 19.6409L15.1182 19.4293C15.2532 19.1878 15.1729 18.8884 14.932 18.7457L14.5826 18.5454C14.3464 18.4104 14.0407 18.4922 13.8994 18.7309L13.7806 18.9389C13.7287 18.9231 13.6761 18.9087 13.6229 18.8959V18.6576C13.6229 18.3804 13.3986 18.1551 13.1227 18.1551H12.7228C12.4456 18.1551 12.2203 18.3804 12.2203 18.6576V18.8964C12.1676 18.9092 12.1155 18.9234 12.0636 18.9392L11.9436 18.731C11.808 18.4934 11.5022 18.4096 11.2593 18.5459L10.9101 18.7476C10.6726 18.8884 10.5922 19.1879 10.7293 19.4327L10.8496 19.6405C10.8107 19.6772 10.7728 19.7151 10.7357 19.7541L10.5254 19.6322C10.2889 19.4971 9.98342 19.5785 9.84231 19.8171L9.64192 20.1667C9.50484 20.4067 9.58799 20.7133 9.82679 20.8498L10.0348 20.9692C10.0193 21.0214 10.005 21.0739 9.99231 21.1267H9.75174V21.1267ZM10.4793 20.6239L10.1037 20.4082L10.2838 20.0943L10.6586 20.3118C10.7695 20.3759 10.9099 20.3502 10.9907 20.2516C11.098 20.1206 11.2175 20.0017 11.346 19.8982C11.4459 19.8176 11.4721 19.676 11.4078 19.5648L11.1893 19.1879L11.5018 19.0074L11.72 19.3858C11.7846 19.4974 11.9211 19.545 12.0406 19.4982C12.1942 19.438 12.3565 19.3934 12.5228 19.3661C12.6487 19.3453 12.741 19.2366 12.741 19.109L12.7227 18.6761H13.1021V19.109C13.1021 19.2367 13.1947 19.3456 13.3208 19.3661C13.4879 19.3933 13.6506 19.4377 13.8047 19.4982C13.9243 19.5448 14.0621 19.497 14.1259 19.3848L14.341 19.0075L14.6561 19.188L14.4376 19.5649C14.3733 19.6761 14.3994 19.8176 14.4994 19.8982C14.6212 19.9965 14.7412 20.1161 14.8564 20.2536C14.9375 20.351 15.0774 20.3754 15.1872 20.3114L15.5611 20.0933L15.7416 20.4082L15.366 20.6239C15.2552 20.6875 15.2068 20.8224 15.2521 20.9419C15.3121 21.1006 15.3561 21.2645 15.3828 21.4291C15.4034 21.5552 15.5122 21.6477 15.6399 21.6477H16.074L16.0913 22.0088H15.6399C15.5125 22.0088 15.4036 22.1011 15.3831 22.2269C15.3561 22.3897 15.3121 22.5543 15.2518 22.7158C15.2071 22.8352 15.2557 22.9693 15.366 23.0327L15.7416 23.2483L15.5611 23.5609L15.1872 23.3428C15.0771 23.2784 14.9363 23.3037 14.8549 23.4023C14.7463 23.5342 14.6293 23.6513 14.4973 23.76C14.3989 23.8411 14.3738 23.9815 14.4376 24.0917L14.655 24.4669L14.3409 24.6468L14.1256 24.2714C14.062 24.1605 13.9267 24.1122 13.8077 24.1573C13.649 24.2173 13.485 24.2613 13.3207 24.2882C13.1946 24.3086 13.102 24.4175 13.102 24.5452V24.9782H12.7409V24.5452C12.7409 24.4176 12.6486 24.3089 12.5228 24.2882C12.3593 24.2612 12.196 24.2172 12.0376 24.1573C11.9193 24.1126 11.7843 24.1599 11.7202 24.2702L11.5017 24.6468L11.1902 24.467L11.4076 24.0918C11.4715 23.9815 11.4463 23.8411 11.3478 23.7601C11.2159 23.6514 11.0989 23.5342 10.9903 23.4023C10.9089 23.3038 10.769 23.2785 10.6584 23.3425L10.2836 23.56L10.1035 23.2483L10.4791 23.0328C10.5894 22.9693 10.638 22.8353 10.5933 22.7158C10.533 22.5543 10.489 22.3897 10.462 22.227C10.4415 22.1012 10.3326 22.0089 10.2052 22.0089H9.77213V21.6478H10.2052C10.3329 21.6478 10.4417 21.5552 10.4623 21.4292C10.4891 21.2646 10.533 21.1007 10.593 20.9419C10.6385 20.8223 10.5901 20.6874 10.4793 20.6239ZM12.9231 23.23C13.6962 23.23 14.325 22.6008 14.325 21.8274C14.325 21.0541 13.6962 20.4251 12.9231 20.4251C12.15 20.4251 11.5209 21.0541 11.5209 21.8274C11.5209 22.6008 12.15 23.23 12.9231 23.23ZM12.9231 20.946C13.4091 20.946 13.8043 21.3414 13.8043 21.8274C13.8043 22.3135 13.4091 22.709 12.9231 22.709C12.4371 22.709 12.0417 22.3135 12.0417 21.8274C12.0417 21.3414 12.4372 20.946 12.9231 20.946ZM14.3172 10.1614C14.3172 9.82107 14.0408 9.54419 13.7007 9.54419H13.4164C12.7893 9.54419 12.2789 9.03395 12.2789 8.40665C12.2789 7.77935 12.7893 7.26917 13.4164 7.26917H14.5775C14.7215 7.26917 14.8379 7.38579 14.8379 7.52964C14.8379 7.67348 14.7215 7.79011 14.5775 7.79011H13.4164C13.0764 7.79011 12.7997 8.06674 12.7997 8.4067C12.7997 8.74666 13.0764 9.02329 13.4164 9.02329H13.7007C14.3278 9.02329 14.838 9.53367 14.838 10.1609C14.838 10.7884 14.3279 11.299 13.7007 11.299H12.5394C12.3954 11.299 12.279 11.1823 12.279 11.0385C12.279 10.8946 12.3954 10.778 12.5394 10.778H13.7007C14.0408 10.778 14.3172 10.5014 14.3172 10.1614ZM15.432 11.0385V9.2844V9.28376V7.52969C15.432 7.38584 15.5485 7.26922 15.6924 7.26922H17.7307C17.8746 7.26922 17.9911 7.38584 17.9911 7.52969C17.9911 7.67353 17.8746 7.79016 17.7307 7.79016H15.9528V9.02329H17.7307C17.8746 9.02329 17.9911 9.13992 17.9911 9.28376C17.9911 9.28391 17.991 9.28396 17.991 9.28406C17.991 9.28416 17.9911 9.28426 17.9911 9.28435C17.9911 9.4282 17.8746 9.54482 17.7307 9.54482H15.9528V10.778H17.7307C17.8746 10.778 17.9911 10.8946 17.9911 11.0384C17.9911 11.1823 17.8746 11.2989 17.7307 11.2989H15.6924C15.5485 11.2989 15.432 11.1823 15.432 11.0385ZM19.8643 11.2982C20.5697 11.2982 21.1437 10.7242 21.1437 10.0186V8.54799C21.1437 7.84238 20.5697 7.26843 19.8643 7.26843C19.1588 7.26843 18.5849 7.84238 18.5849 8.54799V10.0186C18.5849 10.7242 19.1588 11.2982 19.8643 11.2982ZM19.1057 8.54799C19.1057 8.12967 19.446 7.78937 19.8643 7.78937C20.2826 7.78937 20.6228 8.12972 20.6228 8.54799V10.0186C20.6228 10.4369 20.2826 10.7772 19.8643 10.7772C19.446 10.7772 19.1057 10.4369 19.1057 10.0186V8.54799ZM10.4991 3.06803C9.35494 4.21003 8.56135 5.63167 8.18488 7.1885C8.13267 7.18575 8.0812 7.18059 8.02835 7.18059C6.3858 7.18059 5.04973 8.51714 5.04973 10.1601C5.04973 11.8043 6.3858 13.1418 8.02835 13.1418C8.28571 13.1418 8.53409 13.1056 8.77244 13.044C9.00932 13.5475 9.29286 14.0252 9.62149 14.4736L8.79891 15.2946C8.21047 15.2467 7.60562 15.4462 7.15666 15.8954L1.10879 21.9448C0.297069 22.7567 0.297069 24.0776 1.10879 24.8896C1.92209 25.7034 3.23925 25.7036 4.05284 24.8896L10.1009 18.8403C10.5504 18.3907 10.7498 17.7851 10.7015 17.1961L11.5212 16.3762C14.9705 18.9047 19.8333 18.5874 22.9237 15.4965C26.3584 12.0636 26.3591 6.50441 22.9237 3.07103C19.4975 -0.356067 13.9238 -0.356951 10.4991 3.06803ZM8.02835 12.6209C6.67317 12.6209 5.57054 11.5169 5.57054 10.16C5.57054 8.80443 6.67317 7.70148 8.02835 7.70148C9.38481 7.70148 10.4885 8.80438 10.4885 10.16C10.4884 11.5169 9.38476 12.6209 8.02835 12.6209ZM10.1781 8.10128C10.4145 6.76581 11.0448 5.55086 12.0129 4.58261C14.6054 1.9892 18.8171 1.98896 21.4099 4.58261C24.0012 7.1747 24.0024 11.3913 21.4124 13.9818C18.8219 16.573 14.6085 16.5804 12.0129 13.9845C11.3683 13.3397 10.8761 12.5882 10.5448 11.7515C10.8373 11.2904 11.0092 10.7454 11.0092 10.16C11.0092 9.36138 10.6916 8.63676 10.1781 8.10128ZM9.73264 18.472L3.68462 24.5212C3.07486 25.1314 2.08696 25.1315 1.47706 24.5212C0.868522 23.9124 0.868522 22.9219 1.47706 22.3131L7.52482 16.2637C8.13375 15.6549 9.12386 15.655 9.73264 16.2637C10.3412 16.8725 10.3412 17.8631 9.73264 18.472ZM10.5626 16.5984C10.4611 16.3423 10.3077 16.1022 10.1009 15.8954C9.89383 15.6883 9.65346 15.5348 9.39713 15.4333L9.94295 14.8887C10.1178 15.0995 10.3031 15.3031 10.4989 15.4989C10.6951 15.6951 10.8991 15.8786 11.1085 16.0524L10.5626 16.5984ZM22.5555 15.128C19.3322 18.3517 14.0888 18.3532 10.8671 15.1306C10.6095 14.8729 10.3719 14.6003 10.153 14.3154C10.1522 14.3147 10.152 14.3136 10.1512 14.3128C10.151 14.3125 10.1508 14.3125 10.1505 14.3123C9.80538 13.8626 9.50995 13.3802 9.26575 12.8694C9.60946 12.7117 9.91805 12.4915 10.1767 12.2218C10.5297 13.0137 11.0214 13.7295 11.6447 14.3528C14.4383 17.1471 18.9821 17.1499 21.7806 14.3502C24.5736 11.5565 24.5726 7.00953 21.7781 4.21436C18.9821 1.41737 14.4411 1.41697 11.6447 4.21436C10.6729 5.18619 10.0168 6.3893 9.72463 7.71313C9.42041 7.50178 9.07509 7.34698 8.70329 7.26052C9.06222 5.81693 9.80351 4.49841 10.867 3.43663C14.089 0.2141 19.3324 0.215377 22.5555 3.43943C25.7867 6.66854 25.7871 11.8979 22.5555 15.128ZM9.04577 9.3719C9.14748 9.47364 9.14748 9.63846 9.04577 9.7402L7.83582 10.9504C7.7341 11.0522 7.56932 11.0522 7.4676 10.9504L7.01319 10.4959C6.91148 10.3942 6.91148 10.2294 7.01319 10.1276C7.11491 10.0259 7.27969 10.0259 7.38141 10.1276L7.65174 10.398L8.6776 9.3719C8.77927 9.27016 8.94405 9.27016 9.04577 9.3719Z" fill="url(#paint0_linear_12066_25098)"/>
<defs>
<linearGradient id="paint0_linear_12066_25098" x1="13" y1="0.5" x2="13" y2="25.5" gradientUnits="userSpaceOnUse">
<stop stop-color="#81319B"/>
<stop offset="0.48" stop-color="#00A99D"/>
<stop offset="1" stop-color="#0B2C4C"/>
</linearGradient>
</defs>
</svg>
