<svg width="24" height="26" viewBox="0 0 24 26" fill="none" xmlns="http://www.w3.org/2000/svg">
<path d="M23.5513 24.7088C23.7571 24.398 23.7931 24.0073 23.6476 23.6642C23.3635 22.9943 20.9614 17.329 20.6032 16.4842C20.4492 16.1033 20.0487 15.7774 19.536 15.7774H14.1775C16.1301 13.496 18.7149 10.031 18.7149 7.66987C18.7149 3.87769 15.6297 0.79248 11.8375 0.79248C8.04673 0.79248 4.9628 3.87769 4.9628 7.66987C4.9628 10.031 7.54766 13.496 9.5003 15.7774H6.99917C5.86939 15.7774 5.30728 15.7774 4.17305 15.7774C3.68951 15.7774 3.25235 16.0824 3.08536 16.5363C2.60606 17.8386 0.910161 22.4471 0.316557 24.0603C0.220512 24.3211 0.258061 24.613 0.417045 24.8411C0.764702 25.3394 1.33243 25.1742 1.55674 25.2053H22.627C22.9998 25.2053 23.3453 25.0197 23.5513 24.7088ZM20.4269 17.5937H12.5416C12.8265 17.2937 13.2145 16.8759 13.6595 16.3729H19.5292C19.7806 16.3796 19.9455 16.4978 20.0549 16.7166L20.4269 17.5937ZM11.8375 1.38794C15.3014 1.38794 18.1194 4.20601 18.1194 7.66987C18.1194 10.7781 12.9554 16.3063 11.8389 17.465C10.7223 16.3063 5.55821 10.7781 5.55821 7.66987C5.55821 4.20601 8.37515 1.38794 11.8375 1.38794ZM11.8389 18.1892H20.6794L21.6578 20.4967H14.9071C14.6979 20.4967 14.5089 20.6208 14.4258 20.8128C14.3426 21.0049 14.3815 21.2276 14.5248 21.3803L17.5573 24.6099H15.2794L9.02769 18.6526C8.86373 18.4968 8.63448 18.4343 8.41421 18.4862C8.19395 18.538 8.01646 18.6958 7.93936 18.9084L5.87183 24.6099H3.91285L5.09673 21.9503C5.19429 21.7311 5.17769 21.4782 5.0522 21.2736C4.92671 21.0691 4.70879 20.9396 4.46919 20.9272L2.148 20.8071L2.70918 19.2821L5.45967 19.4226C5.47515 19.4232 5.49063 19.4237 5.50596 19.4237C5.89297 19.4237 6.24502 19.1753 6.37227 18.8064L7.21133 16.3729H10.0182C11.6544 18.2218 11.7115 18.1892 11.8389 18.1892ZM6.5815 16.3729L5.80943 18.6123C5.76324 18.7465 5.63394 18.8388 5.49019 18.8277L2.92471 18.6968L3.63853 16.7571C3.7231 16.5273 3.94439 16.3729 4.18931 16.3729H6.5815ZM1.55674 24.6099C1.36988 24.6099 1.20132 24.5219 1.09434 24.3687C0.987651 24.2156 0.963335 24.0276 1.02749 23.8524C1.13125 23.5705 1.82847 21.6756 1.93272 21.3921L4.43853 21.5218C4.49913 21.525 4.53096 21.5626 4.54473 21.5849C4.55835 21.6071 4.57754 21.6527 4.55274 21.7082L3.26104 24.6099H1.55674ZM6.50523 24.6099L8.49922 19.1114C8.51016 19.081 8.53316 19.0699 8.55049 19.0658C8.56749 19.0615 8.59327 19.0612 8.6169 19.0837L14.4162 24.6098L6.50523 24.6099ZM18.374 24.6099L15.0709 21.0921H21.9103C22.4212 22.2972 22.7867 23.1592 23.0695 23.8261C23.1446 24.0034 23.1268 24.1969 23.0205 24.3574C22.9143 24.5179 22.743 24.6099 22.5505 24.6099H18.374Z" fill="url(#paint0_linear_12066_12166)"/>
<path d="M16.8325 7.36226C16.8325 4.60874 14.5924 2.36865 11.8389 2.36865C9.08541 2.36865 6.84528 4.60874 6.84528 7.36226C6.84528 10.1158 9.08536 12.3559 11.8389 12.3559C14.5924 12.3559 16.8325 10.1158 16.8325 7.36226ZM7.44074 7.36226C7.44074 4.93716 9.41383 2.96406 11.8389 2.96406C14.264 2.96406 16.2371 4.93716 16.2371 7.36226C16.2371 9.78735 14.264 11.7604 11.8389 11.7604C9.41383 11.7604 7.44074 9.7874 7.44074 7.36226Z" fill="url(#paint1_linear_12066_12166)"/>
<path d="M12.1359 10.5674V10.0108H12.1847C12.997 10.0108 13.6578 9.3499 13.6578 8.53755C13.6578 7.7252 12.997 7.06445 12.1847 7.06445H11.8434C11.8416 7.0644 11.8401 7.06343 11.8382 7.06343C11.8364 7.06343 11.8349 7.06445 11.8331 7.06445H11.4932C11.0093 7.06445 10.6155 6.67065 10.6155 6.18667C10.6155 5.70269 11.0093 5.30889 11.4932 5.30889H11.8331C11.8349 5.30894 11.8364 5.30991 11.8382 5.30991C11.8401 5.30991 11.8416 5.30889 11.8434 5.30889H12.15C12.634 5.30889 13.0278 5.70269 13.0278 6.18667C13.0278 6.35112 13.161 6.48438 13.3255 6.48438C13.49 6.48438 13.6232 6.35112 13.6232 6.18667C13.6232 5.37437 12.9623 4.71343 12.15 4.71343H12.1359V4.15708C12.1359 3.99263 12.0026 3.85938 11.8382 3.85938C11.6737 3.85938 11.5405 3.99263 11.5405 4.15708V4.71343H11.4932C10.6809 4.71343 10.0201 5.37432 10.0201 6.18667C10.0201 6.99902 10.6809 7.65991 11.4932 7.65991H12.1847C12.6686 7.65991 13.0624 8.05371 13.0624 8.5376C13.0624 9.02163 12.6686 9.41538 12.1847 9.41538H11.8428C11.8412 9.41533 11.8399 9.41445 11.8382 9.41445C11.8366 9.41445 11.8353 9.41533 11.8337 9.41538H11.5277C11.0439 9.41538 10.6501 9.02158 10.6501 8.5376C10.6501 8.37314 10.5168 8.23989 10.3524 8.23989C10.1879 8.23989 10.0547 8.37314 10.0547 8.5376C10.0547 9.3499 10.7154 10.0108 11.5277 10.0108H11.5405V10.5674C11.5405 10.7319 11.6738 10.8651 11.8382 10.8651C12.0026 10.8651 12.1359 10.7318 12.1359 10.5674Z" fill="url(#paint2_linear_12066_12166)"/>
<defs>
<linearGradient id="paint0_linear_12066_12166" x1="12" y1="0.79248" x2="12" y2="25.2079" gradientUnits="userSpaceOnUse">
<stop stop-color="#81319B"/>
<stop offset="0.48" stop-color="#00A99D"/>
<stop offset="1" stop-color="#0B2C4C"/>
</linearGradient>
<linearGradient id="paint1_linear_12066_12166" x1="11.8389" y1="2.36865" x2="11.8389" y2="12.3559" gradientUnits="userSpaceOnUse">
<stop stop-color="#81319B"/>
<stop offset="0.48" stop-color="#00A99D"/>
<stop offset="1" stop-color="#0B2C4C"/>
</linearGradient>
<linearGradient id="paint2_linear_12066_12166" x1="11.8389" y1="3.85938" x2="11.8389" y2="10.8651" gradientUnits="userSpaceOnUse">
<stop stop-color="#81319B"/>
<stop offset="0.48" stop-color="#00A99D"/>
<stop offset="1" stop-color="#0B2C4C"/>
</linearGradient>
</defs>
</svg>
