<svg width="26" height="25" viewBox="0 0 26 25" fill="none" xmlns="http://www.w3.org/2000/svg">
<path fill-rule="evenodd" clip-rule="evenodd" d="M3.59441 11.6155C3.46213 11.5351 3.37796 11.3944 3.37796 11.2416V8.15377C3.37796 7.99697 3.46213 7.85625 3.59441 7.77986L13.5175 2.0382L14.1564 1.66855L13.5176 1.29873L11.2744 0L0.499969 6.23595V18.7078L11.2744 24.9438L13.9087 23.4201L14.465 23.0983C14.3412 22.9248 14.2256 22.7449 14.1188 22.5593C13.5648 21.5969 13.2465 20.4806 13.2465 19.2908C13.2465 15.6683 16.1886 12.7171 19.8041 12.7171C20.359 12.7171 20.898 12.7886 21.4128 12.9204C21.6307 12.9761 21.8442 13.0427 22.0528 13.1192V12.4415V6.23595L18.7219 4.31008L7.94345 10.546V13.3846C7.94345 13.5374 7.86328 13.6781 7.73101 13.7585C7.66287 13.7947 7.58671 13.8148 7.51456 13.8148C7.44241 13.8148 7.36625 13.7947 7.29811 13.7585L3.59441 11.6155ZM8.58345 10.9151L18.722 5.04941L21.4128 6.60519V12.2617C20.896 12.1418 20.3574 12.0771 19.8041 12.0771C15.8335 12.0771 12.6065 15.3164 12.6065 19.2908C12.6065 20.597 12.9564 21.8233 13.5648 22.8797L11.2745 24.2044L1.13997 18.3388V6.605L11.2743 0.739494L12.8788 1.66838L3.27434 7.22564L3.27388 7.2259C2.9483 7.41414 2.73796 7.76348 2.73796 8.15377V11.2416C2.73796 11.6337 2.95262 11.9743 3.26195 12.1624L3.26187 12.1625L3.27388 12.1695L6.97759 14.3124L6.98766 14.3183L6.99795 14.3237C7.14956 14.4042 7.32805 14.4548 7.51456 14.4548C7.70107 14.4548 7.87956 14.4042 8.03117 14.3237L8.04758 14.315L8.06346 14.3054C8.38276 14.1113 8.58345 13.7654 8.58345 13.3846V10.9151ZM19.8042 14.2215C17.0167 14.2215 14.7484 16.4946 14.7484 19.2908C14.7484 22.087 17.0167 24.36 19.8042 24.36C22.5917 24.36 24.8601 22.087 24.8601 19.2908C24.8601 16.4949 22.588 14.2215 19.8042 14.2215ZM20.2331 20.365V19.725H20.8731H23.3035C23.544 19.725 23.7364 19.528 23.7364 19.2908C23.7364 19.0536 23.544 18.8606 23.3035 18.8606H20.8731H20.2331V18.2206V15.7808C20.2331 15.5436 20.0447 15.3506 19.8042 15.3506C19.5637 15.3506 19.3713 15.5436 19.3713 15.7808V18.2206V18.8606H18.7313H16.3009C16.0604 18.8606 15.868 19.0496 15.868 19.2908C15.868 19.532 16.0604 19.725 16.3009 19.725H18.7313H19.3713V20.365V22.8008C19.3713 23.038 19.5677 23.231 19.8042 23.231C20.0407 23.231 20.2331 23.038 20.2331 22.8008V20.365ZM18.7313 20.365H16.3009C15.7051 20.365 15.228 19.8836 15.228 19.2908C15.228 18.6902 15.7129 18.2206 16.3009 18.2206H18.7313V15.7808C18.7313 15.1881 19.2123 14.7106 19.8042 14.7106C20.4039 14.7106 20.8731 15.1959 20.8731 15.7808V18.2206H23.3035C23.8954 18.2206 24.3764 18.6981 24.3764 19.2908C24.3764 19.8758 23.9031 20.365 23.3035 20.365H20.8731V22.8008C20.8731 23.3896 20.396 23.871 19.8042 23.871C19.2202 23.871 18.7313 23.3973 18.7313 22.8008V20.365ZM14.1084 19.2908C14.1084 16.1427 16.6617 13.5815 19.8042 13.5815C22.9427 13.5815 25.5001 16.1427 25.5001 19.2908C25.5001 22.4389 22.9467 25 19.8042 25C16.6617 25 14.1084 22.4389 14.1084 19.2908ZM17.2211 3.4417L17.86 3.81142L17.2211 4.18112L7.29808 9.92272C7.1658 9.99911 7.08163 10.1398 7.08163 10.2966V11.8932V12.6326L6.44163 12.2623L4.23972 10.9882V8.40294L15.0181 2.16699L17.2211 3.4417ZM15.0181 2.9064L16.5822 3.81141L6.97801 9.36851L6.97755 9.36877C6.65197 9.55701 6.44163 9.90635 6.44163 10.2966V11.5229L4.87972 10.6191V8.77206L15.0181 2.9064Z" fill="url(#paint0_linear_12066_5735)"/>
<defs>
<linearGradient id="paint0_linear_12066_5735" x1="13" y1="0" x2="13" y2="25" gradientUnits="userSpaceOnUse">
<stop stop-color="#81319B"/>
<stop offset="0.48" stop-color="#00A99D"/>
<stop offset="1" stop-color="#0B2C4C"/>
</linearGradient>
</defs>
</svg>
