<svg width="17" height="17" viewBox="0 0 17 17" fill="none" xmlns="http://www.w3.org/2000/svg">
<g clip-path="url(#clip0_75420_36075)">
<path d="M8.49967 3.1875C4.95801 3.1875 1.93342 5.39042 0.708008 8.5C1.93342 11.6096 4.95801 13.8125 8.49967 13.8125C12.0413 13.8125 15.0659 11.6096 16.2913 8.5C15.0659 5.39042 12.0413 3.1875 8.49967 3.1875ZM8.49967 12.0417C6.54467 12.0417 4.95801 10.455 4.95801 8.5C4.95801 6.545 6.54467 4.95833 8.49967 4.95833C10.4547 4.95833 12.0413 6.545 12.0413 8.5C12.0413 10.455 10.4547 12.0417 8.49967 12.0417ZM8.49967 6.375C7.32384 6.375 6.37467 7.32417 6.37467 8.5C6.37467 9.67583 7.32384 10.625 8.49967 10.625C9.67551 10.625 10.6247 9.67583 10.6247 8.5C10.6247 7.32417 9.67551 6.375 8.49967 6.375Z" fill="#0B2C4C"/>
</g>
<defs>
<clipPath id="clip0_75420_36075">
<rect width="17" height="17" fill="white" transform="translate(-0.000244141)"/>
</clipPath>
</defs>
</svg>
