<?xml version="1.0" encoding="utf-8"?>
<!-- Generator: Adobe Illustrator 26.0.3, SVG Export Plug-In . SVG Version: 6.00 Build 0)  -->
<svg version="1.1" xmlns="http://www.w3.org/2000/svg" xmlns:xlink="http://www.w3.org/1999/xlink" x="0px" y="0px"
     viewBox="0 0 30 30" style="width: 100%; height: 100%; display: block;" xml:space="preserve">
<style type="text/css">
    .st0{fill:#0B2C4C;}
    .st1{fill:#00A99D;}
    .st2{fill:#81319B;}
    .st3{fill:#1D1D1B;}
    .st4{fill:#706F6F;}
    .st5{fill:none;}
    .st6{fill:#C6C6C6;}
    .st7{fill:#FFFFFF;}
    .st8{display:none;}
    .st9{display:inline;fill:#81319B;}
    .st10{display:inline;}
    .st11{fill:#162D4B;}
    .st12{display:inline;fill:#00A99D;}
</style>
<g id="Capa_1">
    <g>
        <g>
            <path class="st2" d="M10.26,15.59l6.55-8.64L6.01,1.33C3.43-0.01,0.82,3.07,2.57,5.39L10.26,15.59z"/>
            <path class="st1" d="M3.37,24.68c-1.72,2.27,0.81,5.3,3.35,4.01l18.04-9.12c3.13-1.58,3.51-5.36,0.87-7.75
                c-0.38-0.35-0.82-0.63-1.27-0.87L16.9,7c-0.05-0.03-0.12-0.01-0.16,0.03L3.37,24.68z"/>
            <path class="st0" d="M10.26,15.59h17.12c0,0,0.34-3.05-3.46-4.87l-7.11-3.77L10.26,15.59z"/>
        </g>
    </g>
</g>
<g id="Capa_2" class="st8">
</g>
</svg>
