<svg width="234" height="35" viewBox="0 0 234 35" fill="none" xmlns="http://www.w3.org/2000/svg">
<rect x="0.3" y="0.3" width="233.4" height="34.4" fill="#F4F4F4"/>
<rect x="0.3" y="0.3" width="233.4" height="34.4" stroke="black" stroke-width="0.6"/>
<path d="M17.952 20.872H13.504L12.768 23H10.416L14.432 11.816H17.04L21.056 23H18.688L17.952 20.872ZM17.344 19.08L15.728 14.408L14.112 19.08H17.344ZM27.4691 14.008C28.5251 14.008 29.3785 14.344 30.0291 15.016C30.6798 15.6773 31.0051 16.6053 31.0051 17.8V23H28.7651V18.104C28.7651 17.4 28.5891 16.8613 28.2371 16.488C27.8851 16.104 27.4051 15.912 26.7971 15.912C26.1785 15.912 25.6878 16.104 25.3251 16.488C24.9731 16.8613 24.7971 17.4 24.7971 18.104V23H22.5571V14.136H24.7971V15.24C25.0958 14.856 25.4745 14.5573 25.9331 14.344C26.4025 14.12 26.9145 14.008 27.4691 14.008ZM24.1251 13.288C24.2211 12.584 24.4398 12.0613 24.7811 11.72C25.1331 11.368 25.5758 11.192 26.1091 11.192C26.3331 11.192 26.5305 11.2293 26.7011 11.304C26.8718 11.368 27.0638 11.464 27.2771 11.592C27.5971 11.7947 27.8638 11.896 28.0771 11.896C28.4718 11.896 28.7011 11.6667 28.7651 11.208H29.9651C29.8691 11.912 29.6451 12.44 29.2931 12.792C28.9518 13.1333 28.5145 13.304 27.9811 13.304C27.7571 13.304 27.5598 13.272 27.3891 13.208C27.2185 13.1333 27.0265 13.032 26.8131 12.904C26.5038 12.6907 26.2371 12.584 26.0131 12.584C25.6185 12.584 25.3838 12.8187 25.3091 13.288H24.1251ZM32.5592 18.536C32.5592 17.64 32.7352 16.8453 33.0872 16.152C33.4499 15.4587 33.9353 14.9253 34.5433 14.552C35.1619 14.1787 35.8499 13.992 36.6073 13.992C37.2686 13.992 37.8446 14.1253 38.3353 14.392C38.8366 14.6587 39.2366 14.9947 39.5353 15.4V14.136H41.7913V23H39.5353V21.704C39.2473 22.12 38.8473 22.4667 38.3353 22.744C37.8339 23.0107 37.2526 23.144 36.5913 23.144C35.8446 23.144 35.1619 22.952 34.5433 22.568C33.9353 22.184 33.4499 21.6453 33.0872 20.952C32.7352 20.248 32.5592 19.4427 32.5592 18.536ZM39.5353 18.568C39.5353 18.024 39.4286 17.56 39.2153 17.176C39.0019 16.7813 38.7139 16.4827 38.3513 16.28C37.9886 16.0667 37.5993 15.96 37.1833 15.96C36.7673 15.96 36.3833 16.0613 36.0312 16.264C35.6793 16.4667 35.3913 16.7653 35.1673 17.16C34.9539 17.544 34.8473 18.0027 34.8473 18.536C34.8473 19.0693 34.9539 19.5387 35.1673 19.944C35.3913 20.3387 35.6793 20.6427 36.0312 20.856C36.3939 21.0693 36.7779 21.176 37.1833 21.176C37.5993 21.176 37.9886 21.0747 38.3513 20.872C38.7139 20.6587 39.0019 20.36 39.2153 19.976C39.4286 19.5813 39.5353 19.112 39.5353 18.568ZM43.403 18.536C43.403 17.64 43.579 16.8453 43.931 16.152C44.2937 15.4587 44.7843 14.9253 45.403 14.552C46.0217 14.1787 46.7097 13.992 47.467 13.992C48.043 13.992 48.5923 14.12 49.115 14.376C49.6377 14.6213 50.0537 14.952 50.363 15.368V11.16H52.635V23H50.363V21.688C50.0857 22.1253 49.6963 22.4773 49.195 22.744C48.6937 23.0107 48.1123 23.144 47.451 23.144C46.7043 23.144 46.0217 22.952 45.403 22.568C44.7843 22.184 44.2937 21.6453 43.931 20.952C43.579 20.248 43.403 19.4427 43.403 18.536ZM50.379 18.568C50.379 18.024 50.2723 17.56 50.059 17.176C49.8457 16.7813 49.5577 16.4827 49.195 16.28C48.8323 16.0667 48.443 15.96 48.027 15.96C47.611 15.96 47.227 16.0613 46.875 16.264C46.523 16.4667 46.235 16.7653 46.011 17.16C45.7977 17.544 45.691 18.0027 45.691 18.536C45.691 19.0693 45.7977 19.5387 46.011 19.944C46.235 20.3387 46.523 20.6427 46.875 20.856C47.2377 21.0693 47.6217 21.176 48.027 21.176C48.443 21.176 48.8323 21.0747 49.195 20.872C49.5577 20.6587 49.8457 20.36 50.059 19.976C50.2723 19.5813 50.379 19.112 50.379 18.568ZM55.9588 13.08C55.5641 13.08 55.2334 12.9573 54.9668 12.712C54.7108 12.456 54.5828 12.1413 54.5828 11.768C54.5828 11.3947 54.7108 11.0853 54.9668 10.84C55.2334 10.584 55.5641 10.456 55.9588 10.456C56.3534 10.456 56.6788 10.584 56.9348 10.84C57.2014 11.0853 57.3348 11.3947 57.3348 11.768C57.3348 12.1413 57.2014 12.456 56.9348 12.712C56.6788 12.9573 56.3534 13.08 55.9588 13.08ZM57.0628 14.136V23H54.8228V14.136H57.0628ZM61.5159 15.512C61.8039 15.0427 62.1772 14.6747 62.6359 14.408C63.1052 14.1413 63.6385 14.008 64.2359 14.008V16.36H63.6439C62.9399 16.36 62.4065 16.5253 62.0439 16.856C61.6919 17.1867 61.5159 17.7627 61.5159 18.584V23H59.2759V14.136H61.5159V15.512ZM72.9491 23.144C72.2238 23.144 71.5731 23.016 70.9971 22.76C70.4211 22.4933 69.9625 22.136 69.6211 21.688C69.2905 21.24 69.1091 20.744 69.0771 20.2H71.3331C71.3758 20.5413 71.5411 20.824 71.8291 21.048C72.1278 21.272 72.4958 21.384 72.9331 21.384C73.3598 21.384 73.6905 21.2987 73.9251 21.128C74.1705 20.9573 74.2931 20.7387 74.2931 20.472C74.2931 20.184 74.1438 19.9707 73.8451 19.832C73.5571 19.6827 73.0931 19.5227 72.4531 19.352C71.7918 19.192 71.2478 19.0267 70.8211 18.856C70.4051 18.6853 70.0425 18.424 69.7331 18.072C69.4345 17.72 69.2851 17.2453 69.2851 16.648C69.2851 16.1573 69.4238 15.7093 69.7011 15.304C69.9891 14.8987 70.3945 14.5787 70.9171 14.344C71.4505 14.1093 72.0745 13.992 72.7891 13.992C73.8451 13.992 74.6878 14.2587 75.3171 14.792C75.9465 15.3147 76.2931 16.024 76.3571 16.92H74.2131C74.1811 16.568 74.0318 16.2907 73.7651 16.088C73.5091 15.8747 73.1625 15.768 72.7251 15.768C72.3198 15.768 72.0051 15.8427 71.7811 15.992C71.5678 16.1413 71.4611 16.3493 71.4611 16.616C71.4611 16.9147 71.6105 17.144 71.9091 17.304C72.2078 17.4533 72.6718 17.608 73.3011 17.768C73.9411 17.928 74.4691 18.0933 74.8851 18.264C75.3011 18.4347 75.6585 18.7013 75.9571 19.064C76.2665 19.416 76.4265 19.8853 76.4371 20.472C76.4371 20.984 76.2931 21.4427 76.0051 21.848C75.7278 22.2533 75.3225 22.5733 74.7891 22.808C74.2665 23.032 73.6531 23.144 72.9491 23.144ZM86.6439 14.136V23H84.3879V21.88C84.0999 22.264 83.7212 22.568 83.2519 22.792C82.7932 23.0053 82.2919 23.112 81.7479 23.112C81.0545 23.112 80.4412 22.968 79.9079 22.68C79.3745 22.3813 78.9532 21.9493 78.6439 21.384C78.3452 20.808 78.1959 20.1253 78.1959 19.336V14.136H80.4359V19.016C80.4359 19.72 80.6119 20.264 80.9639 20.648C81.3159 21.0213 81.7959 21.208 82.4039 21.208C83.0225 21.208 83.5079 21.0213 83.8599 20.648C84.2119 20.264 84.3879 19.72 84.3879 19.016V14.136H86.6439ZM91.094 15.432C91.382 15.0053 91.7767 14.6587 92.278 14.392C92.79 14.1253 93.3713 13.992 94.022 13.992C94.7793 13.992 95.462 14.1787 96.07 14.552C96.6887 14.9253 97.174 15.4587 97.526 16.152C97.8887 16.8347 98.07 17.6293 98.07 18.536C98.07 19.4427 97.8887 20.248 97.526 20.952C97.174 21.6453 96.6887 22.184 96.07 22.568C95.462 22.952 94.7793 23.144 94.022 23.144C93.3607 23.144 92.7793 23.016 92.278 22.76C91.7873 22.4933 91.3927 22.152 91.094 21.736V23H88.854V11.16H91.094V15.432ZM95.782 18.536C95.782 18.0027 95.67 17.544 95.446 17.16C95.2327 16.7653 94.9447 16.4667 94.582 16.264C94.23 16.0613 93.846 15.96 93.43 15.96C93.0247 15.96 92.6407 16.0667 92.278 16.28C91.926 16.4827 91.638 16.7813 91.414 17.176C91.2007 17.5707 91.094 18.0347 91.094 18.568C91.094 19.1013 91.2007 19.5653 91.414 19.96C91.638 20.3547 91.926 20.6587 92.278 20.872C92.6407 21.0747 93.0247 21.176 93.43 21.176C93.846 21.176 94.23 21.0693 94.582 20.856C94.9447 20.6427 95.2327 20.3387 95.446 19.944C95.67 19.5493 95.782 19.08 95.782 18.536ZM102.306 15.976V20.264C102.306 20.5627 102.375 20.7813 102.514 20.92C102.663 21.048 102.908 21.112 103.25 21.112H104.29V23H102.882C100.994 23 100.05 22.0827 100.05 20.248V15.976H98.9938V14.136H100.05V11.944H102.306V14.136H104.29V15.976H102.306ZM108.237 14.136V23H105.997V14.136H108.237ZM108.861 11.832L105.181 13.512V11.912L108.861 10.008V11.832ZM113.15 15.976V20.264C113.15 20.5627 113.219 20.7813 113.358 20.92C113.507 21.048 113.752 21.112 114.094 21.112H115.134V23H113.726C111.838 23 110.894 22.0827 110.894 20.248V15.976H109.838V14.136H110.894V11.944H113.15V14.136H115.134V15.976H113.15ZM125.113 14.136V23H122.857V21.88C122.569 22.264 122.19 22.568 121.721 22.792C121.262 23.0053 120.761 23.112 120.217 23.112C119.523 23.112 118.91 22.968 118.377 22.68C117.843 22.3813 117.422 21.9493 117.113 21.384C116.814 20.808 116.665 20.1253 116.665 19.336V14.136H118.905V19.016C118.905 19.72 119.081 20.264 119.433 20.648C119.785 21.0213 120.265 21.208 120.873 21.208C121.491 21.208 121.977 21.0213 122.329 20.648C122.681 20.264 122.857 19.72 122.857 19.016V14.136H125.113ZM129.563 11.16V23H127.323V11.16H129.563ZM135.712 23.144C134.859 23.144 134.091 22.9573 133.408 22.584C132.725 22.2 132.187 21.6613 131.792 20.968C131.408 20.2747 131.216 19.4747 131.216 18.568C131.216 17.6613 131.413 16.8613 131.808 16.168C132.213 15.4747 132.763 14.9413 133.456 14.568C134.149 14.184 134.923 13.992 135.776 13.992C136.629 13.992 137.403 14.184 138.096 14.568C138.789 14.9413 139.333 15.4747 139.728 16.168C140.133 16.8613 140.336 17.6613 140.336 18.568C140.336 19.4747 140.128 20.2747 139.712 20.968C139.307 21.6613 138.752 22.2 138.048 22.584C137.355 22.9573 136.576 23.144 135.712 23.144ZM135.712 21.192C136.117 21.192 136.496 21.096 136.848 20.904C137.211 20.7013 137.499 20.4027 137.712 20.008C137.925 19.6133 138.032 19.1333 138.032 18.568C138.032 17.7253 137.808 17.08 137.36 16.632C136.923 16.1733 136.384 15.944 135.744 15.944C135.104 15.944 134.565 16.1733 134.128 16.632C133.701 17.08 133.488 17.7253 133.488 18.568C133.488 19.4107 133.696 20.0613 134.112 20.52C134.539 20.968 135.072 21.192 135.712 21.192Z" fill="#0B2C4C"/>
</svg>
