<svg width="234" height="35" viewBox="0 0 234 35" fill="none" xmlns="http://www.w3.org/2000/svg">
<rect x="0.25" y="0.25" width="233.5" height="34.5" fill="#F4F4F4"/>
<rect x="0.25" y="0.25" width="233.5" height="34.5" stroke="#0B2C4C" stroke-width="0.5"/>
<path d="M18.982 21.768H14.266L13.51 24H10.288L14.86 11.364H18.424L22.996 24H19.738L18.982 21.768ZM18.19 19.392L16.624 14.766L15.076 19.392H18.19ZM35.6915 24H32.6135L27.4655 16.206V24H24.3875V11.364H27.4655L32.6135 19.194V11.364H35.6915V24ZM26.4395 10.482C26.7275 8.706 27.5555 7.818 28.9235 7.818C29.1875 7.818 29.4155 7.86 29.6075 7.944C29.8115 8.016 30.0575 8.13 30.3455 8.286C30.5615 8.406 30.7355 8.496 30.8675 8.556C30.9995 8.604 31.1375 8.628 31.2815 8.628C31.7255 8.628 31.9835 8.358 32.0555 7.818H33.6395C33.3515 9.594 32.5235 10.482 31.1555 10.482C30.8915 10.482 30.6575 10.446 30.4535 10.374C30.2615 10.29 30.0215 10.17 29.7335 10.014C29.5175 9.894 29.3435 9.81 29.2115 9.762C29.0795 9.702 28.9415 9.672 28.7975 9.672C28.3535 9.672 28.0895 9.942 28.0055 10.482H26.4395ZM45.7886 21.768H41.0726L40.3166 24H37.0946L41.6666 11.364H45.2306L49.8026 24H46.5446L45.7886 21.768ZM44.9966 19.392L43.4306 14.766L41.8826 19.392H44.9966ZM55.9281 11.364C57.2601 11.364 58.4241 11.628 59.4201 12.156C60.4161 12.684 61.1841 13.428 61.7241 14.388C62.2761 15.336 62.5521 16.434 62.5521 17.682C62.5521 18.918 62.2761 20.016 61.7241 20.976C61.1841 21.936 60.4101 22.68 59.4021 23.208C58.4061 23.736 57.2481 24 55.9281 24H51.1941V11.364H55.9281ZM55.7301 21.336C56.8941 21.336 57.8001 21.018 58.4481 20.382C59.0961 19.746 59.4201 18.846 59.4201 17.682C59.4201 16.518 59.0961 15.612 58.4481 14.964C57.8001 14.316 56.8941 13.992 55.7301 13.992H54.2721V21.336H55.7301ZM67.3503 11.364V24H64.2723V11.364H67.3503ZM76.0248 24L73.3968 19.23H72.6588V24H69.5808V11.364H74.7468C75.7428 11.364 76.5888 11.538 77.2848 11.886C77.9928 12.234 78.5208 12.714 78.8688 13.326C79.2168 13.926 79.3908 14.598 79.3908 15.342C79.3908 16.182 79.1508 16.932 78.6708 17.592C78.2028 18.252 77.5068 18.72 76.5828 18.996L79.4988 24H76.0248ZM72.6588 17.052H74.5668C75.1308 17.052 75.5508 16.914 75.8268 16.638C76.1148 16.362 76.2588 15.972 76.2588 15.468C76.2588 14.988 76.1148 14.61 75.8268 14.334C75.5508 14.058 75.1308 13.92 74.5668 13.92H72.6588V17.052ZM94.2275 11.364V13.83H90.8795V24H87.8015V13.83H84.4535V11.364H94.2275ZM98.8503 11.364V24H95.7723V11.364H98.8503ZM99.4082 8.826L95.0703 10.644V8.52L99.4082 6.432V8.826ZM110.171 11.364V13.83H106.823V24H103.745V13.83H100.397V11.364H110.171ZM114.74 11.364V18.924C114.74 19.68 114.926 20.262 115.298 20.67C115.67 21.078 116.216 21.282 116.936 21.282C117.656 21.282 118.208 21.078 118.592 20.67C118.976 20.262 119.168 19.68 119.168 18.924V11.364H122.246V18.906C122.246 20.034 122.006 20.988 121.526 21.768C121.046 22.548 120.398 23.136 119.582 23.532C118.778 23.928 117.878 24.126 116.882 24.126C115.886 24.126 114.992 23.934 114.2 23.55C113.42 23.154 112.802 22.566 112.346 21.786C111.89 20.994 111.662 20.034 111.662 18.906V11.364H114.74ZM127.485 21.624H131.517V24H124.407V11.364H127.485V21.624ZM138.961 24.126C137.773 24.126 136.681 23.85 135.685 23.298C134.701 22.746 133.915 21.978 133.327 20.994C132.751 19.998 132.463 18.882 132.463 17.646C132.463 16.41 132.751 15.3 133.327 14.316C133.915 13.332 134.701 12.564 135.685 12.012C136.681 11.46 137.773 11.184 138.961 11.184C140.149 11.184 141.235 11.46 142.219 12.012C143.215 12.564 143.995 13.332 144.559 14.316C145.135 15.3 145.423 16.41 145.423 17.646C145.423 18.882 145.135 19.998 144.559 20.994C143.983 21.978 143.203 22.746 142.219 23.298C141.235 23.85 140.149 24.126 138.961 24.126ZM138.961 21.318C139.969 21.318 140.773 20.982 141.373 20.31C141.985 19.638 142.291 18.75 142.291 17.646C142.291 16.53 141.985 15.642 141.373 14.982C140.773 14.31 139.969 13.974 138.961 13.974C137.941 13.974 137.125 14.304 136.513 14.964C135.913 15.624 135.613 16.518 135.613 17.646C135.613 18.762 135.913 19.656 136.513 20.328C137.125 20.988 137.941 21.318 138.961 21.318Z" fill="#0B2C4C"/>
</svg>
