<svg width="234" height="34" viewBox="0 0 234 34" fill="none" xmlns="http://www.w3.org/2000/svg">
<rect width="234" height="34" rx="8" fill="#0B2C4C"/>
<path d="M40.2965 20.016H36.1045L35.4325 22H32.5685L36.6325 10.768H39.8005L43.8645 22H40.9685L40.2965 20.016ZM39.5925 17.904L38.2005 13.792L36.8245 17.904H39.5925ZM48.4934 12.944C49.1227 12.944 49.672 13.072 50.1414 13.328C50.6214 13.584 50.9894 13.92 51.2454 14.336V13.072H53.9814V21.984C53.9814 22.8053 53.816 23.5467 53.4854 24.208C53.1654 24.88 52.6694 25.4133 51.9974 25.808C51.336 26.2027 50.5094 26.4 49.5174 26.4C48.1947 26.4 47.1227 26.0853 46.3014 25.456C45.48 24.8373 45.0107 23.9947 44.8934 22.928H47.5974C47.6827 23.2693 47.8854 23.536 48.2054 23.728C48.5254 23.9307 48.92 24.032 49.3894 24.032C49.9547 24.032 50.4027 23.8667 50.7334 23.536C51.0747 23.216 51.2454 22.6987 51.2454 21.984V20.72C50.9787 21.136 50.6107 21.4773 50.1414 21.744C49.672 22 49.1227 22.128 48.4934 22.128C47.7574 22.128 47.0907 21.9413 46.4934 21.568C45.896 21.184 45.4214 20.6453 45.0694 19.952C44.728 19.248 44.5574 18.4373 44.5574 17.52C44.5574 16.6027 44.728 15.7973 45.0694 15.104C45.4214 14.4107 45.896 13.8773 46.4934 13.504C47.0907 13.1307 47.7574 12.944 48.4934 12.944ZM51.2454 17.536C51.2454 16.8533 51.0534 16.3147 50.6694 15.92C50.296 15.5253 49.8374 15.328 49.2934 15.328C48.7494 15.328 48.2854 15.5253 47.9014 15.92C47.528 16.304 47.3414 16.8373 47.3414 17.52C47.3414 18.2027 47.528 18.7467 47.9014 19.152C48.2854 19.5467 48.7494 19.744 49.2934 19.744C49.8374 19.744 50.296 19.5467 50.6694 19.152C51.0534 18.7573 51.2454 18.2187 51.2454 17.536ZM58.6968 14.56C59.0168 14.0693 59.4168 13.6853 59.8968 13.408C60.3768 13.12 60.9101 12.976 61.4968 12.976V15.872H60.7448C60.0621 15.872 59.5501 16.0213 59.2088 16.32C58.8674 16.608 58.6968 17.12 58.6968 17.856V22H55.9608V13.072H58.6968V14.56ZM71.2205 17.392C71.2205 17.648 71.2045 17.9147 71.1725 18.192H64.9805C65.0232 18.7467 65.1992 19.1733 65.5085 19.472C65.8285 19.76 66.2178 19.904 66.6765 19.904C67.3592 19.904 67.8338 19.616 68.1005 19.04H71.0125C70.8632 19.6267 70.5912 20.1547 70.1965 20.624C69.8125 21.0933 69.3272 21.4613 68.7405 21.728C68.1538 21.9947 67.4978 22.128 66.7725 22.128C65.8978 22.128 65.1192 21.9413 64.4365 21.568C63.7538 21.1947 63.2205 20.6613 62.8365 19.968C62.4525 19.2747 62.2605 18.464 62.2605 17.536C62.2605 16.608 62.4472 15.7973 62.8205 15.104C63.2045 14.4107 63.7378 13.8773 64.4205 13.504C65.1032 13.1307 65.8872 12.944 66.7725 12.944C67.6365 12.944 68.4045 13.1253 69.0765 13.488C69.7485 13.8507 70.2712 14.368 70.6445 15.04C71.0285 15.712 71.2205 16.496 71.2205 17.392ZM68.4205 16.672C68.4205 16.2027 68.2605 15.8293 67.9405 15.552C67.6205 15.2747 67.2205 15.136 66.7405 15.136C66.2818 15.136 65.8925 15.2693 65.5725 15.536C65.2632 15.8027 65.0712 16.1813 64.9965 16.672H68.4205ZM76.0559 12.944C76.6852 12.944 77.2345 13.072 77.7039 13.328C78.1839 13.584 78.5519 13.92 78.8079 14.336V13.072H81.5439V21.984C81.5439 22.8053 81.3785 23.5467 81.0479 24.208C80.7279 24.88 80.2319 25.4133 79.5599 25.808C78.8985 26.2027 78.0719 26.4 77.0799 26.4C75.7572 26.4 74.6852 26.0853 73.8639 25.456C73.0425 24.8373 72.5732 23.9947 72.4559 22.928H75.1599C75.2452 23.2693 75.4479 23.536 75.7679 23.728C76.0879 23.9307 76.4825 24.032 76.9519 24.032C77.5172 24.032 77.9652 23.8667 78.2959 23.536C78.6372 23.216 78.8079 22.6987 78.8079 21.984V20.72C78.5412 21.136 78.1732 21.4773 77.7039 21.744C77.2345 22 76.6852 22.128 76.0559 22.128C75.3199 22.128 74.6532 21.9413 74.0559 21.568C73.4585 21.184 72.9839 20.6453 72.6319 19.952C72.2905 19.248 72.1199 18.4373 72.1199 17.52C72.1199 16.6027 72.2905 15.7973 72.6319 15.104C72.9839 14.4107 73.4585 13.8773 74.0559 13.504C74.6532 13.1307 75.3199 12.944 76.0559 12.944ZM78.8079 17.536C78.8079 16.8533 78.6159 16.3147 78.2319 15.92C77.8585 15.5253 77.3999 15.328 76.8559 15.328C76.3119 15.328 75.8479 15.5253 75.4639 15.92C75.0905 16.304 74.9039 16.8373 74.9039 17.52C74.9039 18.2027 75.0905 18.7467 75.4639 19.152C75.8479 19.5467 76.3119 19.744 76.8559 19.744C77.3999 19.744 77.8585 19.5467 78.2319 19.152C78.6159 18.7573 78.8079 18.2187 78.8079 17.536ZM82.9793 17.52C82.9793 16.6027 83.1499 15.7973 83.4913 15.104C83.8433 14.4107 84.3179 13.8773 84.9153 13.504C85.5126 13.1307 86.1793 12.944 86.9153 12.944C87.5446 12.944 88.0939 13.072 88.5633 13.328C89.0433 13.584 89.4113 13.92 89.6673 14.336V13.072H92.4033V22H89.6673V20.736C89.4006 21.152 89.0273 21.488 88.5473 21.744C88.0779 22 87.5286 22.128 86.8993 22.128C86.1739 22.128 85.5126 21.9413 84.9153 21.568C84.3179 21.184 83.8433 20.6453 83.4913 19.952C83.1499 19.248 82.9793 18.4373 82.9793 17.52ZM89.6673 17.536C89.6673 16.8533 89.4753 16.3147 89.0913 15.92C88.7179 15.5253 88.2593 15.328 87.7153 15.328C87.1713 15.328 86.7073 15.5253 86.3233 15.92C85.9499 16.304 85.7633 16.8373 85.7633 17.52C85.7633 18.2027 85.9499 18.7467 86.3233 19.152C86.7073 19.5467 87.1713 19.744 87.7153 19.744C88.2593 19.744 88.7179 19.5467 89.0913 19.152C89.4753 18.7573 89.6673 18.2187 89.6673 17.536ZM97.1186 14.56C97.4386 14.0693 97.8386 13.6853 98.3186 13.408C98.7986 13.12 99.332 12.976 99.9186 12.976V15.872H99.1666C98.484 15.872 97.972 16.0213 97.6306 16.32C97.2893 16.608 97.1186 17.12 97.1186 17.856V22H94.3826V13.072H97.1186V14.56ZM104.073 17.536C104.073 16.608 104.26 15.7973 104.633 15.104C105.017 14.4107 105.545 13.8773 106.217 13.504C106.9 13.1307 107.678 12.944 108.553 12.944C109.673 12.944 110.606 13.2373 111.353 13.824C112.11 14.4107 112.606 15.2373 112.841 16.304H109.929C109.684 15.6213 109.209 15.28 108.505 15.28C108.004 15.28 107.604 15.4773 107.305 15.872C107.006 16.256 106.857 16.8107 106.857 17.536C106.857 18.2613 107.006 18.8213 107.305 19.216C107.604 19.6 108.004 19.792 108.505 19.792C109.209 19.792 109.684 19.4507 109.929 18.768H112.841C112.606 19.8133 112.11 20.6347 111.353 21.232C110.596 21.8293 109.662 22.128 108.553 22.128C107.678 22.128 106.9 21.9413 106.217 21.568C105.545 21.1947 105.017 20.6613 104.633 19.968C104.26 19.2747 104.073 18.464 104.073 17.536ZM113.761 17.52C113.761 16.6027 113.931 15.7973 114.273 15.104C114.625 14.4107 115.099 13.8773 115.697 13.504C116.294 13.1307 116.961 12.944 117.697 12.944C118.326 12.944 118.875 13.072 119.345 13.328C119.825 13.584 120.193 13.92 120.449 14.336V13.072H123.185V22H120.449V20.736C120.182 21.152 119.809 21.488 119.329 21.744C118.859 22 118.31 22.128 117.681 22.128C116.955 22.128 116.294 21.9413 115.697 21.568C115.099 21.184 114.625 20.6453 114.273 19.952C113.931 19.248 113.761 18.4373 113.761 17.52ZM120.449 17.536C120.449 16.8533 120.257 16.3147 119.873 15.92C119.499 15.5253 119.041 15.328 118.497 15.328C117.953 15.328 117.489 15.5253 117.105 15.92C116.731 16.304 116.545 16.8373 116.545 17.52C116.545 18.2027 116.731 18.7467 117.105 19.152C117.489 19.5467 117.953 19.744 118.497 19.744C119.041 19.744 119.499 19.5467 119.873 19.152C120.257 18.7573 120.449 18.2187 120.449 17.536ZM126.524 12.144C126.044 12.144 125.649 12.0053 125.34 11.728C125.041 11.44 124.892 11.088 124.892 10.672C124.892 10.2453 125.041 9.89333 125.34 9.616C125.649 9.328 126.044 9.184 126.524 9.184C126.993 9.184 127.377 9.328 127.676 9.616C127.985 9.89333 128.14 10.2453 128.14 10.672C128.14 11.088 127.985 11.44 127.676 11.728C127.377 12.0053 126.993 12.144 126.524 12.144ZM127.9 23.152C127.9 24.2507 127.623 25.04 127.068 25.52C126.513 26.0107 125.74 26.256 124.748 26.256H123.676V23.936H124.332C124.631 23.936 124.844 23.8773 124.972 23.76C125.1 23.6427 125.164 23.4507 125.164 23.184V13.072H127.9V23.152ZM129.323 17.52C129.323 16.6027 129.494 15.7973 129.835 15.104C130.187 14.4107 130.662 13.8773 131.259 13.504C131.856 13.1307 132.523 12.944 133.259 12.944C133.888 12.944 134.438 13.072 134.907 13.328C135.387 13.584 135.755 13.92 136.011 14.336V13.072H138.747V22H136.011V20.736C135.744 21.152 135.371 21.488 134.891 21.744C134.422 22 133.872 22.128 133.243 22.128C132.518 22.128 131.856 21.9413 131.259 21.568C130.662 21.184 130.187 20.6453 129.835 19.952C129.494 19.248 129.323 18.4373 129.323 17.52ZM136.011 17.536C136.011 16.8533 135.819 16.3147 135.435 15.92C135.062 15.5253 134.603 15.328 134.059 15.328C133.515 15.328 133.051 15.5253 132.667 15.92C132.294 16.304 132.107 16.8373 132.107 17.52C132.107 18.2027 132.294 18.7467 132.667 19.152C133.051 19.5467 133.515 19.744 134.059 19.744C134.603 19.744 135.062 19.5467 135.435 19.152C135.819 18.7573 136.011 18.2187 136.011 17.536ZM143.573 17.52C143.573 16.6027 143.744 15.7973 144.085 15.104C144.437 14.4107 144.912 13.8773 145.509 13.504C146.106 13.1307 146.773 12.944 147.509 12.944C148.096 12.944 148.629 13.0667 149.109 13.312C149.6 13.5573 149.984 13.888 150.261 14.304V10.16H152.997V22H150.261V20.72C150.005 21.1467 149.637 21.488 149.157 21.744C148.688 22 148.138 22.128 147.509 22.128C146.773 22.128 146.106 21.9413 145.509 21.568C144.912 21.184 144.437 20.6453 144.085 19.952C143.744 19.248 143.573 18.4373 143.573 17.52ZM150.261 17.536C150.261 16.8533 150.069 16.3147 149.685 15.92C149.312 15.5253 148.853 15.328 148.309 15.328C147.765 15.328 147.301 15.5253 146.917 15.92C146.544 16.304 146.357 16.8373 146.357 17.52C146.357 18.2027 146.544 18.7467 146.917 19.152C147.301 19.5467 147.765 19.744 148.309 19.744C148.853 19.744 149.312 19.5467 149.685 19.152C150.069 18.7573 150.261 18.2187 150.261 17.536ZM163.392 17.392C163.392 17.648 163.376 17.9147 163.344 18.192H157.152C157.195 18.7467 157.371 19.1733 157.68 19.472C158 19.76 158.39 19.904 158.848 19.904C159.531 19.904 160.006 19.616 160.272 19.04H163.184C163.035 19.6267 162.763 20.1547 162.368 20.624C161.984 21.0933 161.499 21.4613 160.912 21.728C160.326 21.9947 159.67 22.128 158.944 22.128C158.07 22.128 157.291 21.9413 156.608 21.568C155.926 21.1947 155.392 20.6613 155.008 19.968C154.624 19.2747 154.432 18.464 154.432 17.536C154.432 16.608 154.619 15.7973 154.992 15.104C155.376 14.4107 155.91 13.8773 156.592 13.504C157.275 13.1307 158.059 12.944 158.944 12.944C159.808 12.944 160.576 13.1253 161.248 13.488C161.92 13.8507 162.443 14.368 162.816 15.04C163.2 15.712 163.392 16.496 163.392 17.392ZM160.592 16.672C160.592 16.2027 160.432 15.8293 160.112 15.552C159.792 15.2747 159.392 15.136 158.912 15.136C158.454 15.136 158.064 15.2693 157.744 15.536C157.435 15.8027 157.243 16.1813 157.168 16.672H160.592ZM173.202 19.68V22H171.81C170.818 22 170.045 21.76 169.49 21.28C168.936 20.7893 168.658 19.9947 168.658 18.896V15.344H167.57V13.072H168.658V10.896H171.394V13.072H173.186V15.344H171.394V18.928C171.394 19.1947 171.458 19.3867 171.586 19.504C171.714 19.6213 171.928 19.68 172.226 19.68H173.202ZM183.142 17.392C183.142 17.648 183.126 17.9147 183.094 18.192H176.902C176.945 18.7467 177.121 19.1733 177.43 19.472C177.75 19.76 178.14 19.904 178.598 19.904C179.281 19.904 179.756 19.616 180.022 19.04H182.934C182.785 19.6267 182.513 20.1547 182.118 20.624C181.734 21.0933 181.249 21.4613 180.662 21.728C180.076 21.9947 179.42 22.128 178.694 22.128C177.82 22.128 177.041 21.9413 176.358 21.568C175.676 21.1947 175.142 20.6613 174.758 19.968C174.374 19.2747 174.182 18.464 174.182 17.536C174.182 16.608 174.369 15.7973 174.742 15.104C175.126 14.4107 175.66 13.8773 176.342 13.504C177.025 13.1307 177.809 12.944 178.694 12.944C179.558 12.944 180.326 13.1253 180.998 13.488C181.67 13.8507 182.193 14.368 182.566 15.04C182.95 15.712 183.142 16.496 183.142 17.392ZM180.342 16.672C180.342 16.2027 180.182 15.8293 179.862 15.552C179.542 15.2747 179.142 15.136 178.662 15.136C178.204 15.136 177.814 15.2693 177.494 15.536C177.185 15.8027 176.993 16.1813 176.918 16.672H180.342ZM189.866 22L188.154 19.52L186.714 22H183.754L186.698 17.44L183.674 13.072H186.746L188.458 15.536L189.898 13.072H192.858L189.866 17.568L192.938 22H189.866ZM198.968 19.68V22H197.576C196.584 22 195.811 21.76 195.256 21.28C194.701 20.7893 194.424 19.9947 194.424 18.896V15.344H193.336V13.072H194.424V10.896H197.16V13.072H198.952V15.344H197.16V18.928C197.16 19.1947 197.224 19.3867 197.352 19.504C197.48 19.6213 197.693 19.68 197.992 19.68H198.968ZM204.556 22.128C203.681 22.128 202.892 21.9413 202.188 21.568C201.495 21.1947 200.945 20.6613 200.54 19.968C200.145 19.2747 199.948 18.464 199.948 17.536C199.948 16.6187 200.151 15.8133 200.556 15.12C200.961 14.416 201.516 13.8773 202.22 13.504C202.924 13.1307 203.713 12.944 204.588 12.944C205.463 12.944 206.252 13.1307 206.956 13.504C207.66 13.8773 208.215 14.416 208.62 15.12C209.025 15.8133 209.228 16.6187 209.228 17.536C209.228 18.4533 209.02 19.264 208.604 19.968C208.199 20.6613 207.639 21.1947 206.924 21.568C206.22 21.9413 205.431 22.128 204.556 22.128ZM204.556 19.76C205.079 19.76 205.521 19.568 205.884 19.184C206.257 18.8 206.444 18.2507 206.444 17.536C206.444 16.8213 206.263 16.272 205.9 15.888C205.548 15.504 205.111 15.312 204.588 15.312C204.055 15.312 203.612 15.504 203.26 15.888C202.908 16.2613 202.732 16.8107 202.732 17.536C202.732 18.2507 202.903 18.8 203.244 19.184C203.596 19.568 204.033 19.76 204.556 19.76Z" fill="white"/>
</svg>
