<svg width="234" height="35" viewBox="0 0 234 35" fill="none" xmlns="http://www.w3.org/2000/svg">
<rect x="0.25" y="0.25" width="233.5" height="34.5" fill="#F4F4F4"/>
<rect x="0.25" y="0.25" width="233.5" height="34.5" stroke="black" stroke-width="0.5"/>
<path d="M16.846 19.83H12.59L11.806 22H10.462L13.99 12.298H15.46L18.974 22H17.63L16.846 19.83ZM16.482 18.794L14.718 13.866L12.954 18.794H16.482ZM24.2496 14.188C25.1829 14.188 25.9389 14.4727 26.5176 15.042C27.0963 15.602 27.3856 16.414 27.3856 17.478V22H26.1256V17.66C26.1256 16.8947 25.9343 16.3113 25.5516 15.91C25.1689 15.4993 24.6463 15.294 23.9836 15.294C23.3116 15.294 22.7749 15.504 22.3736 15.924C21.9816 16.344 21.7856 16.9553 21.7856 17.758V22H20.5116V14.328H21.7856V15.42C22.0376 15.028 22.3783 14.7247 22.8076 14.51C23.2463 14.2953 23.7269 14.188 24.2496 14.188ZM21.8836 13.502C21.9489 13.026 22.1029 12.662 22.3456 12.41C22.5976 12.158 22.9103 12.032 23.2836 12.032C23.4609 12.032 23.6103 12.0647 23.7316 12.13C23.8623 12.186 24.0163 12.27 24.1936 12.382C24.3243 12.4753 24.4409 12.55 24.5436 12.606C24.6463 12.6527 24.7583 12.676 24.8796 12.676C25.0383 12.676 25.1736 12.6247 25.2856 12.522C25.3976 12.4193 25.4676 12.27 25.4956 12.074H26.2236C26.1676 12.5407 26.0136 12.9 25.7616 13.152C25.5096 13.404 25.1969 13.53 24.8236 13.53C24.6463 13.53 24.4876 13.502 24.3476 13.446C24.2169 13.3807 24.0676 13.2873 23.8996 13.166C23.7503 13.0727 23.6289 13.0027 23.5356 12.956C23.4516 12.9093 23.3489 12.886 23.2276 12.886C23.0689 12.886 22.9336 12.9373 22.8216 13.04C22.7189 13.1427 22.6536 13.2967 22.6256 13.502H21.8836ZM28.9907 18.136C28.9907 17.352 29.1493 16.666 29.4667 16.078C29.784 15.4807 30.218 15.0187 30.7687 14.692C31.3287 14.3653 31.9493 14.202 32.6307 14.202C33.3027 14.202 33.886 14.3467 34.3807 14.636C34.8753 14.9253 35.244 15.2893 35.4867 15.728V14.328H36.7747V22H35.4867V20.572C35.2347 21.02 34.8567 21.3933 34.3527 21.692C33.858 21.9813 33.2793 22.126 32.6167 22.126C31.9353 22.126 31.3193 21.958 30.7687 21.622C30.218 21.286 29.784 20.8147 29.4667 20.208C29.1493 19.6013 28.9907 18.9107 28.9907 18.136ZM35.4867 18.15C35.4867 17.5713 35.37 17.0673 35.1367 16.638C34.9033 16.2087 34.586 15.882 34.1847 15.658C33.7927 15.4247 33.3587 15.308 32.8827 15.308C32.4067 15.308 31.9727 15.42 31.5807 15.644C31.1887 15.868 30.876 16.1947 30.6427 16.624C30.4093 17.0533 30.2927 17.5573 30.2927 18.136C30.2927 18.724 30.4093 19.2373 30.6427 19.676C30.876 20.1053 31.1887 20.4367 31.5807 20.67C31.9727 20.894 32.4067 21.006 32.8827 21.006C33.3587 21.006 33.7927 20.894 34.1847 20.67C34.586 20.4367 34.9033 20.1053 35.1367 19.676C35.37 19.2373 35.4867 18.7287 35.4867 18.15ZM38.4516 18.136C38.4516 17.352 38.6103 16.666 38.9276 16.078C39.2449 15.4807 39.6789 15.0187 40.2296 14.692C40.7896 14.3653 41.4149 14.202 42.1056 14.202C42.7029 14.202 43.2583 14.342 43.7716 14.622C44.2849 14.8927 44.6769 15.252 44.9476 15.7V11.64H46.2356V22H44.9476V20.558C44.6956 21.0153 44.3223 21.3933 43.8276 21.692C43.3329 21.9813 42.7543 22.126 42.0916 22.126C41.4103 22.126 40.7896 21.958 40.2296 21.622C39.6789 21.286 39.2449 20.8147 38.9276 20.208C38.6103 19.6013 38.4516 18.9107 38.4516 18.136ZM44.9476 18.15C44.9476 17.5713 44.8309 17.0673 44.5976 16.638C44.3643 16.2087 44.0469 15.882 43.6456 15.658C43.2536 15.4247 42.8196 15.308 42.3436 15.308C41.8676 15.308 41.4336 15.42 41.0416 15.644C40.6496 15.868 40.3369 16.1947 40.1036 16.624C39.8703 17.0533 39.7536 17.5573 39.7536 18.136C39.7536 18.724 39.8703 19.2373 40.1036 19.676C40.3369 20.1053 40.6496 20.4367 41.0416 20.67C41.4336 20.894 41.8676 21.006 42.3436 21.006C42.8196 21.006 43.2536 20.894 43.6456 20.67C44.0469 20.4367 44.3643 20.1053 44.5976 19.676C44.8309 19.2373 44.9476 18.7287 44.9476 18.15ZM49.0465 13.082C48.8039 13.082 48.5985 12.998 48.4305 12.83C48.2625 12.662 48.1785 12.4567 48.1785 12.214C48.1785 11.9713 48.2625 11.766 48.4305 11.598C48.5985 11.43 48.8039 11.346 49.0465 11.346C49.2799 11.346 49.4759 11.43 49.6345 11.598C49.8025 11.766 49.8865 11.9713 49.8865 12.214C49.8865 12.4567 49.8025 12.662 49.6345 12.83C49.4759 12.998 49.2799 13.082 49.0465 13.082ZM49.6625 14.328V22H48.3885V14.328H49.6625ZM53.1079 15.574C53.3319 15.1353 53.6492 14.7947 54.0599 14.552C54.4799 14.3093 54.9885 14.188 55.5859 14.188V15.504H55.2499C53.8219 15.504 53.1079 16.2787 53.1079 17.828V22H51.8339V14.328H53.1079V15.574ZM62.3429 15.378V19.9C62.3429 20.2733 62.4223 20.5393 62.5809 20.698C62.7396 20.8473 63.0149 20.922 63.4069 20.922H64.3449V22H63.1969C62.4876 22 61.9556 21.8367 61.6009 21.51C61.2463 21.1833 61.0689 20.6467 61.0689 19.9V15.378H60.0749V14.328H61.0689V12.396H62.3429V14.328H64.3449V15.378H62.3429ZM72.8885 17.87C72.8885 18.1127 72.8745 18.3693 72.8465 18.64H66.7145C66.7612 19.396 67.0179 19.9887 67.4845 20.418C67.9605 20.838 68.5345 21.048 69.2065 21.048C69.7572 21.048 70.2145 20.922 70.5785 20.67C70.9519 20.4087 71.2132 20.0633 71.3625 19.634H72.7345C72.5292 20.3713 72.1185 20.9733 71.5025 21.44C70.8865 21.8973 70.1212 22.126 69.2065 22.126C68.4785 22.126 67.8252 21.9627 67.2465 21.636C66.6772 21.3093 66.2292 20.8473 65.9025 20.25C65.5759 19.6433 65.4125 18.9433 65.4125 18.15C65.4125 17.3567 65.5712 16.6613 65.8885 16.064C66.2059 15.4667 66.6492 15.0093 67.2185 14.692C67.7972 14.3653 68.4599 14.202 69.2065 14.202C69.9345 14.202 70.5785 14.3607 71.1385 14.678C71.6985 14.9953 72.1279 15.434 72.4265 15.994C72.7345 16.5447 72.8885 17.17 72.8885 17.87ZM71.5725 17.604C71.5725 17.1187 71.4652 16.7033 71.2505 16.358C71.0359 16.0033 70.7419 15.7373 70.3685 15.56C70.0045 15.3733 69.5985 15.28 69.1505 15.28C68.5065 15.28 67.9559 15.4853 67.4985 15.896C67.0505 16.3067 66.7939 16.876 66.7285 17.604H71.5725ZM78.5742 22L76.7542 19.144L75.0042 22H73.6742L76.1522 18.192L73.6742 14.328H75.1162L76.9362 17.17L78.6722 14.328H80.0022L77.5382 18.122L80.0162 22H78.5742ZM82.8234 15.378V19.9C82.8234 20.2733 82.9027 20.5393 83.0614 20.698C83.2201 20.8473 83.4954 20.922 83.8874 20.922H84.8254V22H83.6774C82.9681 22 82.4361 21.8367 82.0814 21.51C81.7267 21.1833 81.5494 20.6467 81.5494 19.9V15.378H80.5554V14.328H81.5494V12.396H82.8234V14.328H84.8254V15.378H82.8234ZM89.715 22.126C88.9963 22.126 88.343 21.9627 87.755 21.636C87.1763 21.3093 86.719 20.8473 86.383 20.25C86.0563 19.6433 85.893 18.9433 85.893 18.15C85.893 17.366 86.061 16.6753 86.397 16.078C86.7423 15.4713 87.209 15.0093 87.797 14.692C88.385 14.3653 89.043 14.202 89.771 14.202C90.499 14.202 91.157 14.3653 91.745 14.692C92.333 15.0093 92.795 15.4667 93.131 16.064C93.4763 16.6613 93.649 17.3567 93.649 18.15C93.649 18.9433 93.4717 19.6433 93.117 20.25C92.7717 20.8473 92.3003 21.3093 91.703 21.636C91.1057 21.9627 90.443 22.126 89.715 22.126ZM89.715 21.006C90.1723 21.006 90.6017 20.8987 91.003 20.684C91.4043 20.4693 91.7263 20.1473 91.969 19.718C92.221 19.2887 92.347 18.766 92.347 18.15C92.347 17.534 92.2257 17.0113 91.983 16.582C91.7403 16.1527 91.423 15.8353 91.031 15.63C90.639 15.4153 90.2143 15.308 89.757 15.308C89.2903 15.308 88.861 15.4153 88.469 15.63C88.0863 15.8353 87.7783 16.1527 87.545 16.582C87.3117 17.0113 87.195 17.534 87.195 18.15C87.195 18.7753 87.307 19.3027 87.531 19.732C87.7643 20.1613 88.0723 20.4833 88.455 20.698C88.8377 20.9033 89.2577 21.006 89.715 21.006Z" fill="#0B2C4C"/>
</svg>
