<svg width="1280" height="686" viewBox="0 0 1280 686" fill="none" xmlns="http://www.w3.org/2000/svg">
<g clip-path="url(#clip0_4315_16946)">
<rect width="1280" height="686" fill="white"/>
<g opacity="0.2">
<path opacity="0.3" d="M93.8823 206.406L38.5547 229.934" stroke="#AEAEAF" stroke-miterlimit="10"/>
<path opacity="0.3" d="M215.572 154.656L110.809 199.207" stroke="#AEAEAF" stroke-miterlimit="10"/>
<path opacity="0.3" d="M208.965 231.541L358.505 159.355" stroke="#AEAEAF" stroke-miterlimit="10"/>
<path opacity="0.3" d="M135.223 267.136L183.337 243.91" stroke="#AEAEAF" stroke-miterlimit="10"/>
<path opacity="0.3" d="M104.754 212.379L117.402 258.758" stroke="#AEAEAF" stroke-miterlimit="10"/>
<path opacity="0.3" d="M89.2305 155.457L99.5719 193.375" stroke="#AEAEAF" stroke-miterlimit="10"/>
<path opacity="0.3" d="M209.223 242.07L353.649 294.871" stroke="#AEAEAF" stroke-miterlimit="10"/>
<path opacity="0.3" d="M110.973 206.152L182.718 232.381" stroke="#AEAEAF" stroke-miterlimit="10"/>
<path opacity="0.3" d="M21.9258 173.598L92.9688 199.571" stroke="#AEAEAF" stroke-miterlimit="10"/>
<path opacity="0.3" d="M378.188 152.981C378.188 156.652 375.211 159.629 371.539 159.629C367.867 159.629 364.891 156.652 364.891 152.981C364.891 149.309 367.867 146.332 371.539 146.332C375.211 146.332 378.188 149.309 378.188 152.981Z" fill="#AEAEAF" stroke="#AEAEAF"/>
<path opacity="0.3" d="M371.539 167.208C379.397 167.208 385.766 160.838 385.766 152.981C385.766 145.123 379.397 138.754 371.539 138.754C363.682 138.754 357.312 145.123 357.312 152.981C357.312 160.838 363.682 167.208 371.539 167.208Z" fill="#AEAEAF" stroke="#AEAEAF" stroke-miterlimit="10"/>
<path opacity="0.3" d="M244.307 146.255C244.307 151.214 240.288 155.233 235.33 155.233C230.371 155.233 226.352 151.214 226.352 146.255C226.352 141.297 230.371 137.277 235.33 137.277C240.288 137.277 244.307 141.297 244.307 146.255Z" fill="#AEAEAF" stroke="#AEAEAF"/>
<path opacity="0.3" d="M235.329 167.728C247.188 167.728 256.802 158.114 256.802 146.255C256.802 134.395 247.188 124.781 235.329 124.781C223.469 124.781 213.855 134.395 213.855 146.255C213.855 158.114 223.469 167.728 235.329 167.728Z" fill="#AEAEAF" stroke="#AEAEAF" stroke-miterlimit="10"/>
<path opacity="0.3" d="M14.1368 166.092C14.1368 173.128 8.43279 178.832 1.39653 178.832C-5.63973 178.832 -11.3438 173.128 -11.3438 166.092C-11.3438 159.056 -5.63973 153.352 1.39653 153.352C8.43279 153.352 14.1368 159.056 14.1368 166.092Z" fill="#AEAEAF" stroke="#AEAEAF"/>
<path opacity="0.3" d="M1.39918 187.568C13.2586 187.568 22.8726 177.954 22.8726 166.094C22.8726 154.235 13.2586 144.621 1.39918 144.621C-10.4602 144.621 -20.0742 154.235 -20.0742 166.094C-20.0742 177.954 -10.4602 187.568 1.39918 187.568Z" fill="#AEAEAF" stroke="#AEAEAF" stroke-miterlimit="10"/>
<path opacity="0.3" d="M90.6523 143.348C90.6523 146.159 88.3735 148.437 85.5625 148.437C82.7515 148.437 80.4727 146.159 80.4727 143.348C80.4727 140.537 82.7515 138.258 85.5625 138.258C88.3735 138.258 90.6523 140.537 90.6523 143.348Z" fill="#AEAEAF" stroke="#AEAEAF"/>
<path opacity="0.3" d="M85.5626 156.008C92.5569 156.008 98.2269 150.338 98.2269 143.344C98.2269 136.35 92.5569 130.68 85.5626 130.68C78.5684 130.68 72.8984 136.35 72.8984 143.344C72.8984 150.338 78.5684 156.008 85.5626 156.008Z" fill="#AEAEAF" stroke="#AEAEAF" stroke-miterlimit="10"/>
<path opacity="0.3" d="M34.5195 233.613C34.5195 236.424 32.2407 238.703 29.4297 238.703C26.6186 238.703 24.3398 236.424 24.3398 233.613C24.3398 230.802 26.6186 228.523 29.4297 228.523C32.2407 228.523 34.5195 230.802 34.5195 233.613Z" fill="#AEAEAF" stroke="#AEAEAF"/>
<path opacity="0.3" d="M29.4321 243.458C34.8699 243.458 39.2782 239.05 39.2782 233.612C39.2782 228.174 34.8699 223.766 29.4321 223.766C23.9942 223.766 19.5859 228.174 19.5859 233.612C19.5859 239.05 23.9942 243.458 29.4321 243.458Z" fill="#AEAEAF" stroke="#AEAEAF" stroke-miterlimit="10"/>
<path opacity="0.3" d="M370.801 299.543C370.801 302.354 368.522 304.633 365.711 304.633C362.9 304.633 360.621 302.354 360.621 299.543C360.621 296.732 362.9 294.453 365.711 294.453C368.522 294.453 370.801 296.732 370.801 299.543Z" fill="#AEAEAF" stroke="#AEAEAF"/>
<path opacity="0.3" d="M365.711 312.207C372.705 312.207 378.375 306.537 378.375 299.543C378.375 292.549 372.705 286.879 365.711 286.879C358.717 286.879 353.047 292.549 353.047 299.543C353.047 306.537 358.717 312.207 365.711 312.207Z" fill="#AEAEAF" stroke="#AEAEAF" stroke-miterlimit="10"/>
<path opacity="0.3" d="M105.902 202.865C105.902 204.963 104.201 206.664 102.103 206.664C100.005 206.664 98.3047 204.963 98.3047 202.865C98.3047 200.767 100.005 199.066 102.103 199.066C104.201 199.066 105.902 200.767 105.902 202.865Z" fill="#AEAEAF" stroke="#AEAEAF"/>
<path opacity="0.3" d="M102.103 211.82C107.049 211.82 111.058 207.811 111.058 202.865C111.058 197.919 107.049 193.91 102.103 193.91C97.1577 193.91 93.1484 197.919 93.1484 202.865C93.1484 207.811 97.1577 211.82 102.103 211.82Z" fill="#AEAEAF" stroke="#AEAEAF" stroke-miterlimit="10"/>
<path opacity="0.3" d="M127.814 273.727C127.814 277.33 124.893 280.251 121.29 280.251C117.687 280.251 114.766 277.33 114.766 273.727C114.766 270.124 117.687 267.203 121.29 267.203C124.893 267.203 127.814 270.124 127.814 273.727Z" fill="#AEAEAF" stroke="#AEAEAF"/>
<path opacity="0.3" d="M121.289 288.53C129.465 288.53 136.093 281.902 136.093 273.726C136.093 265.55 129.465 258.922 121.289 258.922C113.112 258.922 106.484 265.55 106.484 273.726C106.484 281.902 113.112 288.53 121.289 288.53Z" fill="#AEAEAF" stroke="#AEAEAF" stroke-miterlimit="10"/>
<path opacity="0.3" d="M202.771 237.587C202.771 241.19 199.85 244.111 196.247 244.111C192.644 244.111 189.723 241.19 189.723 237.587C189.723 233.983 192.644 231.062 196.247 231.062C199.85 231.062 202.771 233.983 202.771 237.587Z" fill="#AEAEAF" stroke="#AEAEAF"/>
<path opacity="0.3" d="M196.25 251.114C203.721 251.114 209.778 245.057 209.778 237.586C209.778 230.115 203.721 224.059 196.25 224.059C188.779 224.059 182.723 230.115 182.723 237.586C182.723 245.057 188.779 251.114 196.25 251.114Z" fill="#AEAEAF" stroke="#AEAEAF" stroke-miterlimit="10"/>
<path opacity="0.3" d="M173.807 447.993L131.227 405.547" stroke="#AEAEAF" stroke-miterlimit="10"/>
<path opacity="0.3" d="M267.458 541.353L186.832 460.98" stroke="#AEAEAF" stroke-miterlimit="10"/>
<path opacity="0.3" d="M133.035 509.109L172.626 544.983" stroke="#AEAEAF" stroke-miterlimit="10"/>
<path opacity="0.3" d="M172.351 460.316L134.113 489.453" stroke="#AEAEAF" stroke-miterlimit="10"/>
<path opacity="0.3" d="M219.281 424.555L188.02 448.376" stroke="#AEAEAF" stroke-miterlimit="10"/>
<path opacity="0.3" d="M180.457 463.738L183.084 540.082" stroke="#AEAEAF" stroke-miterlimit="10"/>
<path opacity="0.3" d="M177.195 368.984L179.796 444.582" stroke="#AEAEAF" stroke-miterlimit="10"/>
<path opacity="0.3" d="M291.643 556.509C291.643 561.468 287.624 565.487 282.665 565.487C277.707 565.487 273.688 561.468 273.688 556.509C273.688 551.551 277.707 547.531 282.665 547.531C287.624 547.531 291.643 551.551 291.643 556.509Z" fill="#AEAEAF" stroke="#AEAEAF"/>
<g opacity="0.3">
<path d="M261.717 561.229C261.097 558.478 261.025 555.632 261.505 552.853C261.985 550.074 263.007 547.418 264.514 545.034C266.021 542.65 267.983 540.587 270.287 538.961C272.592 537.336 275.194 536.18 277.944 535.56C280.695 534.94 283.542 534.869 286.32 535.349C289.099 535.829 291.756 536.851 294.14 538.358C296.523 539.865 298.587 541.827 300.212 544.131C301.838 546.435 302.993 549.037 303.613 551.788" fill="#AEAEAF"/>
<path d="M261.717 561.229C261.097 558.478 261.025 555.632 261.505 552.853C261.985 550.074 263.007 547.418 264.514 545.034C266.021 542.65 267.983 540.587 270.287 538.961C272.592 537.336 275.194 536.18 277.944 535.56C280.695 534.94 283.542 534.869 286.32 535.349C289.099 535.829 291.756 536.851 294.14 538.358C296.523 539.865 298.587 541.827 300.212 544.131C301.838 546.435 302.993 549.037 303.613 551.788" stroke="#AEAEAF" stroke-miterlimit="10"/>
</g>
<path opacity="0.3" d="M189.184 347.139C189.184 354.175 183.48 359.879 176.443 359.879C169.407 359.879 163.703 354.175 163.703 347.139C163.703 340.102 169.407 334.398 176.443 334.398C183.48 334.398 189.184 340.102 189.184 347.139Z" fill="#AEAEAF" stroke="#AEAEAF"/>
<path opacity="0.3" d="M176.446 368.615C188.305 368.615 197.919 359.001 197.919 347.141C197.919 335.282 188.305 325.668 176.446 325.668C164.587 325.668 154.973 335.282 154.973 347.141C154.973 359.001 164.587 368.615 176.446 368.615Z" fill="#AEAEAF" stroke="#AEAEAF" stroke-miterlimit="10"/>
<path opacity="0.3" d="M234.215 416.605C234.215 419.417 231.936 421.695 229.125 421.695C226.314 421.695 224.035 419.417 224.035 416.605C224.035 413.794 226.314 411.516 229.125 411.516C231.936 411.516 234.215 413.794 234.215 416.605Z" fill="#AEAEAF" stroke="#AEAEAF"/>
<path opacity="0.3" d="M229.125 429.27C236.119 429.27 241.789 423.6 241.789 416.606C241.789 409.611 236.119 403.941 229.125 403.941C222.131 403.941 216.461 409.611 216.461 416.606C216.461 423.6 222.131 429.27 229.125 429.27Z" fill="#AEAEAF" stroke="#AEAEAF" stroke-miterlimit="10"/>
<path opacity="0.3" d="M129.48 398.473C129.48 401.284 127.202 403.562 124.391 403.562C121.58 403.562 119.301 401.284 119.301 398.473C119.301 395.662 121.58 393.383 124.391 393.383C127.202 393.383 129.48 395.662 129.48 398.473Z" fill="#AEAEAF" stroke="#AEAEAF"/>
<path opacity="0.3" d="M124.389 408.317C129.827 408.317 134.235 403.909 134.235 398.471C134.235 393.033 129.827 388.625 124.389 388.625C118.951 388.625 114.543 393.033 114.543 398.471C114.543 403.909 118.951 408.317 124.389 408.317Z" fill="#AEAEAF" stroke="#AEAEAF" stroke-miterlimit="10"/>
<path opacity="0.3" d="M183.972 454.287C183.972 456.385 182.272 458.086 180.174 458.086C178.076 458.086 176.375 456.385 176.375 454.287C176.375 452.189 178.076 450.488 180.174 450.488C182.272 450.488 183.972 452.189 183.972 454.287Z" fill="#AEAEAF" stroke="#AEAEAF"/>
<path opacity="0.3" d="M180.17 463.238C185.115 463.238 189.125 459.229 189.125 454.283C189.125 449.337 185.115 445.328 180.17 445.328C175.224 445.328 171.215 449.337 171.215 454.283C171.215 459.229 175.224 463.238 180.17 463.238Z" fill="#AEAEAF" stroke="#AEAEAF" stroke-miterlimit="10"/>
<path opacity="0.3" d="M128.224 498.676C128.224 502.28 125.303 505.2 121.7 505.2C118.097 505.2 115.176 502.28 115.176 498.676C115.176 495.073 118.097 492.152 121.7 492.152C125.303 492.152 128.224 495.073 128.224 498.676Z" fill="#AEAEAF" stroke="#AEAEAF"/>
<path opacity="0.3" d="M121.699 513.48C129.875 513.48 136.503 506.852 136.503 498.675C136.503 490.499 129.875 483.871 121.699 483.871C113.523 483.871 106.895 490.499 106.895 498.675C106.895 506.852 113.523 513.48 121.699 513.48Z" fill="#AEAEAF" stroke="#AEAEAF" stroke-miterlimit="10"/>
<path opacity="0.3" d="M189.864 554.579C189.864 558.182 186.944 561.103 183.34 561.103C179.737 561.103 176.816 558.182 176.816 554.579C176.816 550.976 179.737 548.055 183.34 548.055C186.944 548.055 189.864 550.976 189.864 554.579Z" fill="#AEAEAF" stroke="#AEAEAF"/>
<path opacity="0.3" d="M183.336 568.106C190.807 568.106 196.864 562.05 196.864 554.578C196.864 547.107 190.807 541.051 183.336 541.051C175.865 541.051 169.809 547.107 169.809 554.578C169.809 562.05 175.865 568.106 183.336 568.106Z" fill="#AEAEAF" stroke="#AEAEAF" stroke-miterlimit="10"/>
<path opacity="0.3" d="M108.625 283.012L-46.2148 396.505" stroke="#AEAEAF" stroke-miterlimit="10"/>
<path opacity="0.3" d="M163.259 329.591L130.719 286.273" stroke="#AEAEAF" stroke-miterlimit="10"/>
<path opacity="0.3" d="M197.922 341.739L365.716 299.543" stroke="#AEAEAF" stroke-miterlimit="10"/>
<path opacity="0.3" d="M15.6211 387.58L154.964 352.539" stroke="#AEAEAF" stroke-miterlimit="10"/>
<path opacity="0.3" d="M12.8125 399.543L110.753 488.71" stroke="#AEAEAF" stroke-miterlimit="10"/>
<path opacity="0.3" d="M9.21444 390.939C9.21444 394.28 6.50638 396.988 3.16581 396.988C-0.174751 396.988 -2.88281 394.28 -2.88281 390.939C-2.88281 387.599 -0.174751 384.891 3.16581 384.891C6.50638 384.891 9.21444 387.599 9.21444 390.939Z" fill="#AEAEAF" stroke="#AEAEAF"/>
<path opacity="0.3" d="M3.16668 403.204C9.94225 403.204 15.4349 397.712 15.4349 390.936C15.4349 384.161 9.94225 378.668 3.16668 378.668C-3.60888 378.668 -9.10156 384.161 -9.10156 390.936C-9.10156 397.712 -3.60888 403.204 3.16668 403.204Z" fill="#AEAEAF" stroke="#AEAEAF" stroke-miterlimit="10"/>
<path opacity="0.3" d="M-68.8711 273.619L19.9333 237.715" stroke="#AEAEAF" stroke-miterlimit="10"/>
<path opacity="0.3" d="M-67.7617 278.454L106.222 274.105" stroke="#AEAEAF" stroke-miterlimit="10"/>
</g>
<g opacity="0.2">
<path opacity="0.3" d="M1125.99 351.496L1198.73 371.199" stroke="#AEAEAF" stroke-miterlimit="10"/>
<path opacity="0.3" d="M1011.47 285.384L1110.06 342.299" stroke="#AEAEAF" stroke-miterlimit="10"/>
<path opacity="0.3" d="M1076.87 244.427L929.269 168.354" stroke="#AEAEAF" stroke-miterlimit="10"/>
<path opacity="0.3" d="M1149.66 281.943L1102.17 257.466" stroke="#AEAEAF" stroke-miterlimit="10"/>
<path opacity="0.3" d="M1124.08 339.401L1153.68 301.215" stroke="#AEAEAF" stroke-miterlimit="10"/>
<path opacity="0.3" d="M1088.08 385.846L1112.16 354.781" stroke="#AEAEAF" stroke-miterlimit="10"/>
<path opacity="0.3" d="M1085.13 237.893L1040.47 90.7461" stroke="#AEAEAF" stroke-miterlimit="10"/>
<path opacity="0.3" d="M1115.51 337.987L1093.33 264.891" stroke="#AEAEAF" stroke-miterlimit="10"/>
<path opacity="0.3" d="M1143.05 428.714L1121.08 356.332" stroke="#AEAEAF" stroke-miterlimit="10"/>
<path opacity="0.3" d="M920.343 167.084C917.409 169.292 913.241 168.704 911.033 165.77C908.825 162.836 909.413 158.668 912.347 156.46C915.281 154.252 919.449 154.84 921.657 157.774C923.865 160.708 923.277 164.876 920.343 167.084Z" fill="#AEAEAF" stroke="#AEAEAF"/>
<path opacity="0.3" d="M904.977 170.329C909.702 176.607 918.622 177.866 924.899 173.141C931.177 168.416 932.436 159.497 927.711 153.219C922.987 146.941 914.067 145.682 907.789 150.407C901.511 155.132 900.252 164.051 904.977 170.329Z" fill="#AEAEAF" stroke="#AEAEAF" stroke-miterlimit="10"/>
<path opacity="0.3" d="M998.272 281.821C994.31 284.802 988.681 284.008 985.699 280.046C982.718 276.084 983.512 270.456 987.474 267.474C991.436 264.492 997.064 265.287 1000.05 269.248C1003.03 273.21 1002.23 278.839 998.272 281.821Z" fill="#AEAEAF" stroke="#AEAEAF"/>
<path opacity="0.3" d="M975.72 287.565C982.851 297.04 996.314 298.941 1005.79 291.809C1015.27 284.678 1017.17 271.215 1010.03 261.739C1002.9 252.264 989.44 250.363 979.964 257.495C970.488 264.626 968.588 278.089 975.72 287.565Z" fill="#AEAEAF" stroke="#AEAEAF" stroke-miterlimit="10"/>
<path opacity="0.3" d="M1157.06 459.806C1151.44 464.037 1143.45 462.91 1139.22 457.288C1134.99 451.666 1136.12 443.679 1141.74 439.447C1147.36 435.216 1155.35 436.344 1159.58 441.965C1163.81 447.587 1162.68 455.575 1157.06 459.806Z" fill="#AEAEAF" stroke="#AEAEAF"/>
<path opacity="0.3" d="M1132.24 462.541C1139.37 472.017 1152.83 473.917 1162.31 466.786C1171.78 459.654 1173.68 446.191 1166.55 436.716C1159.42 427.24 1145.96 425.34 1136.48 432.471C1127.01 439.603 1125.11 453.066 1132.24 462.541Z" fill="#AEAEAF" stroke="#AEAEAF" stroke-miterlimit="10"/>
<path opacity="0.3" d="M1083.67 400.129C1081.43 401.819 1078.24 401.369 1076.55 399.123C1074.86 396.877 1075.31 393.686 1077.55 391.995C1079.8 390.305 1082.99 390.755 1084.68 393.001C1086.37 395.247 1085.92 398.438 1083.67 400.129Z" fill="#AEAEAF" stroke="#AEAEAF"/>
<path opacity="0.3" d="M1070.5 403.674C1074.7 409.262 1082.64 410.383 1088.23 406.177C1093.82 401.971 1094.94 394.031 1090.73 388.443C1086.53 382.854 1078.59 381.734 1073 385.94C1067.41 390.146 1066.29 398.085 1070.5 403.674Z" fill="#AEAEAF" stroke="#AEAEAF" stroke-miterlimit="10"/>
<path opacity="0.3" d="M1210.22 380.34C1207.97 382.03 1204.78 381.58 1203.09 379.334C1201.4 377.088 1201.85 373.897 1204.1 372.206C1206.34 370.516 1209.53 370.966 1211.22 373.212C1212.91 375.458 1212.46 378.649 1210.22 380.34Z" fill="#AEAEAF" stroke="#AEAEAF"/>
<path opacity="0.3" d="M1199.29 382.193C1202.56 386.538 1208.74 387.409 1213.08 384.139C1217.43 380.869 1218.3 374.696 1215.03 370.351C1211.76 366.007 1205.58 365.135 1201.24 368.405C1196.89 371.675 1196.02 377.848 1199.29 382.193Z" fill="#AEAEAF" stroke="#AEAEAF" stroke-miterlimit="10"/>
<path opacity="0.3" d="M1040.01 82.3592C1037.76 84.0496 1034.57 83.5992 1032.88 81.3532C1031.19 79.1072 1031.64 75.9161 1033.89 74.2257C1036.14 72.5353 1039.33 72.9858 1041.02 75.2318C1042.71 77.4778 1042.26 80.6688 1040.01 82.3592Z" fill="#AEAEAF" stroke="#AEAEAF"/>
<path opacity="0.3" d="M1026.83 85.9082C1031.03 91.4966 1038.97 92.6172 1044.56 88.4113C1050.15 84.2054 1051.27 76.2656 1047.06 70.6772C1042.86 65.0889 1034.92 63.9682 1029.33 68.1741C1023.74 72.38 1022.62 80.3198 1026.83 85.9082Z" fill="#AEAEAF" stroke="#AEAEAF" stroke-miterlimit="10"/>
<path opacity="0.3" d="M1120.51 350.086C1118.83 351.347 1116.45 351.011 1115.19 349.335C1113.93 347.659 1114.26 345.277 1115.94 344.016C1117.62 342.754 1120 343.09 1121.26 344.767C1122.52 346.443 1122.19 348.824 1120.51 350.086Z" fill="#AEAEAF" stroke="#AEAEAF"/>
<path opacity="0.3" d="M1111.07 352.436C1114.04 356.388 1119.66 357.18 1123.61 354.206C1127.56 351.232 1128.35 345.618 1125.38 341.667C1122.4 337.715 1116.79 336.923 1112.84 339.897C1108.89 342.871 1108.09 348.485 1111.07 352.436Z" fill="#AEAEAF" stroke="#AEAEAF" stroke-miterlimit="10"/>
<path opacity="0.3" d="M1167.23 294.326C1164.35 296.493 1160.26 295.915 1158.09 293.037C1155.92 290.158 1156.5 286.067 1159.38 283.901C1162.26 281.734 1166.35 282.311 1168.52 285.19C1170.68 288.069 1170.11 292.159 1167.23 294.326Z" fill="#AEAEAF" stroke="#AEAEAF"/>
<path opacity="0.3" d="M1151.47 298.012C1156.39 304.545 1165.67 305.855 1172.2 300.938C1178.74 296.022 1180.05 286.74 1175.13 280.207C1170.21 273.675 1160.93 272.365 1154.4 277.281C1147.87 282.198 1146.56 291.48 1151.47 298.012Z" fill="#AEAEAF" stroke="#AEAEAF" stroke-miterlimit="10"/>
<path opacity="0.3" d="M1093.27 256.166C1090.39 258.333 1086.3 257.755 1084.14 254.876C1081.97 251.997 1082.55 247.907 1085.43 245.741C1088.31 243.574 1092.4 244.151 1094.56 247.03C1096.73 249.909 1096.15 253.999 1093.27 256.166Z" fill="#AEAEAF" stroke="#AEAEAF"/>
<path opacity="0.3" d="M1078.54 259.086C1083.03 265.055 1091.52 266.252 1097.48 261.76C1103.45 257.267 1104.65 248.786 1100.16 242.816C1095.67 236.847 1087.18 235.65 1081.21 240.143C1075.25 244.635 1074.05 253.116 1078.54 259.086Z" fill="#AEAEAF" stroke="#AEAEAF" stroke-miterlimit="10"/>
<path opacity="0.3" d="M1263.75 713.165C1268.67 719.697 1277.95 721.007 1284.48 716.091C1291.02 711.174 1292.33 701.892 1287.41 695.36C1282.49 688.827 1273.21 687.517 1266.68 692.434C1260.15 697.35 1258.84 706.632 1263.75 713.165Z" fill="#AEAEAF" stroke="#AEAEAF" stroke-miterlimit="10"/>
<path opacity="0.3" d="M1440.03 564.134L1256.24 508.666" stroke="#AEAEAF" stroke-miterlimit="10"/>
<path opacity="0.3" d="M1253.36 514.595L1280.45 536.471" stroke="#AEAEAF" stroke-miterlimit="10"/>
<path opacity="0.3" d="M1168.24 460.896L1225.27 494.988" stroke="#AEAEAF" stroke-miterlimit="10"/>
<path opacity="0.3" d="M1289.32 557.652L1276.97 689.526" stroke="#AEAEAF" stroke-miterlimit="10"/>
<path opacity="0.3" d="M1244.43 509.742C1241.11 512.238 1236.4 511.573 1233.91 508.256C1231.41 504.94 1232.08 500.228 1235.39 497.732C1238.71 495.235 1243.42 495.9 1245.92 499.217C1248.41 502.534 1247.75 507.246 1244.43 509.742Z" fill="#AEAEAF" stroke="#AEAEAF"/>
<path opacity="0.3" d="M1226.83 513.58C1232.26 520.805 1242.53 522.254 1249.75 516.816C1256.98 511.379 1258.43 501.114 1252.99 493.89C1247.55 486.665 1237.29 485.216 1230.06 490.654C1222.84 496.091 1221.39 506.356 1226.83 513.58Z" fill="#AEAEAF" stroke="#AEAEAF" stroke-miterlimit="10"/>
<path opacity="0.3" d="M1280.59 552.151C1284.66 557.564 1292.36 558.65 1297.77 554.576C1303.18 550.501 1304.27 542.81 1300.19 537.396C1296.12 531.982 1288.43 530.897 1283.01 534.971C1277.6 539.046 1276.51 546.737 1280.59 552.151Z" fill="#AEAEAF" stroke="#AEAEAF" stroke-miterlimit="10"/>
<path opacity="0.3" d="M1287.28 253.223L1249.51 229.246" stroke="#AEAEAF" stroke-miterlimit="10"/>
<path opacity="0.3" d="M1220.6 335.341L1323.37 404.305" stroke="#AEAEAF" stroke-miterlimit="10"/>
<path opacity="0.3" d="M1288.21 262.41L1220.5 318.057" stroke="#AEAEAF" stroke-miterlimit="10"/>
<path opacity="0.3" d="M1294.65 263.594L1328.67 401.265" stroke="#AEAEAF" stroke-miterlimit="10"/>
<path opacity="0.3" d="M1277.02 195.277L1291.09 249.777" stroke="#AEAEAF" stroke-miterlimit="10"/>
<path opacity="0.3" d="M1278.58 187.008C1274.45 190.114 1268.59 189.287 1265.48 185.16C1262.38 181.032 1263.2 175.169 1267.33 172.063C1271.46 168.956 1277.32 169.784 1280.43 173.911C1283.53 178.038 1282.71 183.902 1278.58 187.008Z" fill="#AEAEAF" stroke="#AEAEAF"/>
<path opacity="0.3" d="M1260.19 189.141C1265.49 196.192 1275.51 197.606 1282.56 192.299C1289.61 186.992 1291.03 176.974 1285.72 169.923C1280.42 162.872 1270.4 161.458 1263.35 166.765C1256.3 172.072 1254.88 182.09 1260.19 189.141Z" fill="#AEAEAF" stroke="#AEAEAF" stroke-miterlimit="10"/>
<path opacity="0.3" d="M1245.61 228.132C1243.99 229.347 1241.7 229.023 1240.48 227.408C1239.27 225.793 1239.59 223.499 1241.2 222.284C1242.82 221.068 1245.11 221.392 1246.33 223.007C1247.54 224.622 1247.22 226.916 1245.61 228.132Z" fill="#AEAEAF" stroke="#AEAEAF"/>
<path opacity="0.3" d="M1237.55 229.616C1239.99 232.849 1244.58 233.498 1247.81 231.064C1251.05 228.631 1251.7 224.037 1249.26 220.804C1246.83 217.57 1242.23 216.922 1239 219.355C1235.77 221.789 1235.12 226.383 1237.55 229.616Z" fill="#AEAEAF" stroke="#AEAEAF" stroke-miterlimit="10"/>
<path opacity="0.3" d="M1215.81 330.531C1213.73 332.1 1210.76 331.682 1209.2 329.597C1207.63 327.512 1208.04 324.549 1210.13 322.979C1212.21 321.41 1215.18 321.828 1216.75 323.913C1218.32 325.999 1217.9 328.961 1215.81 330.531Z" fill="#AEAEAF" stroke="#AEAEAF"/>
<path opacity="0.3" d="M1204.17 333.384C1207.83 338.245 1214.73 339.22 1219.6 335.562C1224.46 331.903 1225.43 324.996 1221.77 320.134C1218.11 315.273 1211.21 314.298 1206.35 317.957C1201.48 321.616 1200.51 328.523 1204.17 333.384Z" fill="#AEAEAF" stroke="#AEAEAF" stroke-miterlimit="10"/>
<path opacity="0.3" d="M1252.01 491.542L1323.75 419.25" stroke="#AEAEAF" stroke-miterlimit="10"/>
<path opacity="0.3" d="M1320.95 413.89L1171.25 445.08" stroke="#AEAEAF" stroke-miterlimit="10"/>
<path opacity="0.3" d="M1203.53 319.609L1175.77 298.57" stroke="#AEAEAF" stroke-miterlimit="10"/>
<path opacity="0.3" d="M1201.5 329.218L1127.6 345.045" stroke="#AEAEAF" stroke-miterlimit="10"/>
<path opacity="0.3" d="M1278.24 548.024L1189.81 571.678" stroke="#AEAEAF" stroke-miterlimit="10"/>
<path opacity="0.3" d="M1182.72 578.652C1180.47 580.343 1177.28 579.892 1175.59 577.646C1173.9 575.4 1174.35 572.209 1176.6 570.519C1178.84 568.828 1182.03 569.279 1183.72 571.525C1185.41 573.771 1184.96 576.962 1182.72 578.652Z" fill="#AEAEAF" stroke="#AEAEAF"/>
<path opacity="0.3" d="M1171.78 580.509C1175.05 584.854 1181.23 585.726 1185.57 582.456C1189.92 579.186 1190.79 573.013 1187.52 568.668C1184.25 564.323 1178.08 563.452 1173.73 566.722C1169.39 569.992 1168.51 576.165 1171.78 580.509Z" fill="#AEAEAF" stroke="#AEAEAF" stroke-miterlimit="10"/>
<path opacity="0.3" d="M1186.72 566.848L1228.53 516.195" stroke="#AEAEAF" stroke-miterlimit="10"/>
<path opacity="0.3" d="M1160.76 430.338L1201.79 385.395" stroke="#AEAEAF" stroke-miterlimit="10"/>
</g>
</g>
<defs>
<clipPath id="clip0_4315_16946">
<rect width="1280" height="686" fill="white"/>
</clipPath>
</defs>
</svg>
