<svg width="126" height="121" viewBox="0 0 126 121" fill="none" xmlns="http://www.w3.org/2000/svg">
<rect x="0.5" y="13" width="125" height="108" rx="30" fill="url(#paint0_linear_4011_17553)"/>
<path d="M89.5631 94H30.4693C29.1518 93.9982 27.8888 93.409 26.9573 92.3618C26.0257 91.3146 25.5016 89.8948 25.5 88.4139V52.2971C25.516 51.4699 25.6897 50.6563 26.0092 49.911C26.3287 49.1657 26.7867 48.5061 27.3523 47.9766C27.9179 47.4472 28.5779 47.0603 29.2878 46.8419C29.9977 46.6236 30.741 46.5789 31.4675 46.7109C31.35 45.894 31.3896 45.0583 31.5838 44.26C31.7779 43.4618 32.1221 42.7196 32.5931 42.0836C33.064 41.4476 33.6509 40.9325 34.314 40.5731C34.9771 40.2136 35.701 40.0182 36.437 40H95.5307C96.8481 40.0018 98.1111 40.591 99.0427 41.6382C99.9743 42.6854 100.498 44.1051 100.5 45.5861V81.7029C100.484 82.5302 100.31 83.344 99.9902 84.0894C99.6705 84.8349 99.2122 85.4945 98.6464 86.0239C98.0806 86.5534 97.4204 86.9402 96.7103 87.1585C96.0002 87.3767 95.2567 87.4212 94.53 87.289C94.648 88.1058 94.6087 88.9415 94.4149 89.7397C94.2211 90.538 93.8772 91.2802 93.4064 91.9163C92.9356 92.5524 92.349 93.0675 91.686 93.427C91.0229 93.7865 90.2991 93.9819 89.5631 94ZM30.4693 49.5136C29.8127 49.5142 29.1832 49.8077 28.719 50.3295C28.2547 50.8514 27.9937 51.559 27.9931 52.2971V88.4139C27.9937 89.1519 28.2547 89.8595 28.719 90.3814C29.1832 90.9033 29.8127 91.1967 30.4693 91.1974H89.5631C90.2193 91.1962 90.8482 90.9024 91.312 90.3806C91.7757 89.8588 92.0364 89.1515 92.0368 88.4139V52.2971C92.0364 51.5595 91.7757 50.8522 91.312 50.3303C90.8482 49.8085 90.2193 49.5148 89.5631 49.5136H30.4693ZM94.53 84.4864C96.2563 84.7018 97.9615 83.9108 98.0068 81.7028V45.5861C98.0063 44.848 97.7452 44.1404 97.281 43.6185C96.8167 43.0967 96.1872 42.8032 95.5307 42.8026H36.4369C34.5111 42.8515 33.7503 44.7499 33.9607 46.7109H89.5631C90.8803 46.7129 92.1431 47.3021 93.0742 48.3494C94.0054 49.3967 94.5289 50.8164 94.53 52.2971V84.4864ZM81.8474 87.289H38.1826C38.0189 87.2891 37.8567 87.2529 37.7054 87.1825C37.5541 87.1122 37.4167 87.0089 37.3009 86.8788C37.1851 86.7486 37.0933 86.5941 37.0307 86.4241C36.9681 86.254 36.9359 86.0717 36.936 85.8877C36.9343 84.6298 36.4889 83.4241 35.6974 82.5349C34.906 81.6457 33.8331 81.1457 32.7141 81.1446C32.5504 81.1447 32.3883 81.1085 32.237 81.0381C32.0857 80.9677 31.9482 80.8645 31.8325 80.7343C31.7167 80.6042 31.6249 80.4497 31.5622 80.2796C31.4996 80.1096 31.4674 79.9273 31.4675 79.7432V60.9677C31.4674 60.7837 31.4996 60.6014 31.5622 60.4314C31.6248 60.2613 31.7167 60.1068 31.8324 59.9766C31.9482 59.8465 32.0857 59.7433 32.237 59.6729C32.3883 59.6025 32.5504 59.5663 32.7141 59.5664C33.8331 59.5653 34.906 59.0652 35.6974 58.1761C36.4889 57.2869 36.9343 56.0811 36.936 54.8233C36.9359 54.6392 36.9681 54.4569 37.0307 54.2869C37.0933 54.1168 37.1851 53.9623 37.3009 53.8322C37.4167 53.702 37.5541 53.5988 37.7054 53.5284C37.8567 53.458 38.0189 53.4218 38.1826 53.4219H81.8474C82.0111 53.4218 82.1733 53.458 82.3246 53.5284C82.4758 53.5988 82.6133 53.702 82.7291 53.8322C82.8449 53.9623 82.9367 54.1168 82.9993 54.2869C83.0619 54.4569 83.0941 54.6392 83.094 54.8233C83.0957 56.0811 83.5411 57.2869 84.3326 58.1761C85.124 59.0652 86.1969 59.5653 87.3159 59.5664C87.4796 59.5663 87.6417 59.6025 87.793 59.6729C87.9443 59.7433 88.0818 59.8465 88.1975 59.9766C88.3133 60.1068 88.4051 60.2613 88.4678 60.4314C88.5304 60.6014 88.5625 60.7837 88.5624 60.9677V79.7432C88.5625 79.9273 88.5304 80.1096 88.4677 80.2796C88.4051 80.4497 88.3133 80.6042 88.1975 80.7343C88.0818 80.8645 87.9443 80.9677 87.793 81.0381C87.6417 81.1085 87.4796 81.1447 87.3159 81.1446C86.1969 81.1457 85.124 81.6457 84.3326 82.5349C83.5411 83.4241 83.0957 84.6298 83.094 85.8877C83.0941 86.0717 83.0619 86.254 82.9993 86.4241C82.9367 86.5941 82.8449 86.7486 82.7291 86.8788C82.6133 87.0089 82.4758 87.1122 82.3246 87.1825C82.1733 87.2529 82.0111 87.2891 81.8474 87.289ZM39.3123 84.4864H80.7177C80.9707 82.9964 81.6162 81.6263 82.5705 80.5538C83.5248 79.4813 84.7437 78.756 86.0693 78.4719V62.239C84.7437 61.9549 83.5248 61.2296 82.5705 60.1571C81.6162 59.0847 80.9707 57.7145 80.7177 56.2246H39.3122C39.0592 57.7145 38.4137 59.0847 37.4595 60.1571C36.5052 61.2296 35.2862 61.9549 33.9607 62.239V78.4719C35.2862 78.756 36.5052 79.4813 37.4595 80.5538C38.4137 81.6263 39.0593 82.9964 39.3123 84.4864ZM60.015 79.5215C49.145 79.4002 49.1572 61.3072 60.0152 61.1895C70.9063 61.3127 70.8365 79.4153 60.015 79.5215ZM54.2788 70.3555C54.2903 72.0603 54.9018 73.6907 55.9797 74.89C57.0576 76.0893 58.5142 76.7599 60.0308 76.7553C61.5474 76.7506 63.0007 76.0709 64.0727 74.865C65.1448 73.659 65.7483 72.0249 65.7514 70.32C65.74 68.6152 65.1284 66.9848 64.0505 65.7855C62.9726 64.5862 61.516 63.9155 59.9994 63.9202C58.4828 63.9249 57.0295 64.6046 55.9575 65.8105C54.8855 67.0165 54.2819 68.6506 54.2788 70.3555ZM77.3067 75.0712C76.1959 75.0678 75.1316 74.5693 74.3473 73.685C73.563 72.8007 73.1227 71.6028 73.123 70.3541C73.1234 69.1054 73.5643 67.9078 74.349 67.024C75.1338 66.1402 76.1984 65.6424 77.3092 65.6397C78.4201 65.6431 79.4843 66.1417 80.2686 67.026C81.0529 67.9103 81.4932 69.1082 81.4928 70.3569C81.4925 71.6057 81.0516 72.8033 80.2668 73.687C79.482 74.5708 78.4176 75.0686 77.3067 75.0712ZM75.5634 70.3568C75.5552 70.6145 75.5951 70.8712 75.6804 71.1105C75.7656 71.3498 75.8945 71.5664 76.0587 71.7464C76.2228 71.9265 76.4187 72.0659 76.6336 72.1558C76.8485 72.2458 77.0778 72.2842 77.3067 72.2686C77.5325 72.2728 77.7567 72.2264 77.9664 72.1323C78.176 72.0381 78.3669 71.898 78.5279 71.72C78.689 71.5421 78.8169 71.33 78.9043 71.096C78.9916 70.8619 79.0367 70.6107 79.0369 70.3569C79.0371 70.1031 78.9923 69.8518 78.9052 69.6176C78.8182 69.3834 78.6905 69.1711 78.5297 68.9929C78.3689 68.8147 78.1782 68.6743 77.9687 68.5798C77.7591 68.4853 77.535 68.4385 77.3092 68.4424C77.08 68.4268 76.8503 68.4652 76.6351 68.5553C76.4199 68.6453 76.2237 68.785 76.0593 68.9652C75.8949 69.1455 75.7659 69.3624 75.6805 69.6021C75.595 69.8417 75.5553 70.0988 75.5634 70.3568ZM42.7404 75.0712C42.1816 75.0886 41.6255 74.9781 41.1059 74.7463C40.5863 74.5146 40.1141 74.1666 39.7178 73.7234C39.3216 73.2801 39.0097 72.751 38.801 72.168C38.5923 71.5851 38.4913 70.9605 38.504 70.3323C38.5375 69.0943 38.9985 67.9197 39.7893 67.0573C40.5801 66.1949 41.6386 65.7126 42.7404 65.7126C43.8422 65.7126 44.9007 66.1949 45.6916 67.0573C46.4824 67.9197 46.9434 69.0943 46.9769 70.3323C46.9887 70.9603 46.887 71.5844 46.6781 72.1669C46.4691 72.7494 46.1571 73.2782 45.761 73.7212C45.365 74.1642 44.893 74.5123 44.3738 74.7444C43.8546 74.9764 43.2989 75.0876 42.7404 75.0712ZM40.9971 70.3555C40.9999 70.8752 41.1862 71.3724 41.515 71.7378C41.8439 72.1031 42.2884 72.3066 42.7507 72.3036C43.2131 72.3005 43.6554 72.0911 43.9804 71.7214C44.3054 71.3517 44.4864 70.852 44.4837 70.3323C44.4824 70.075 44.4359 69.8204 44.3471 69.5833C44.2582 69.3461 44.1287 69.1309 43.9658 68.95C43.803 68.7691 43.61 68.626 43.398 68.529C43.186 68.4319 42.959 68.3827 42.7301 68.3842C42.5012 68.3858 42.2748 68.438 42.0638 68.5378C41.8528 68.6377 41.6614 68.7834 41.5004 68.9664C41.3395 69.1495 41.2123 69.3663 41.1259 69.6047C41.0395 69.843 40.9958 70.0981 40.9971 70.3555Z" fill="white" stroke="white"/>
<rect x="14" width="97.7586" height="23.7249" rx="4" fill="#81319B"/>
<path d="M23.2189 7.69928C23.5869 7.66728 23.9589 7.64328 24.3349 7.62728C24.7109 7.60328 25.0909 7.59128 25.4749 7.59128C25.8749 7.59128 26.2789 7.63128 26.6869 7.71128C27.1029 7.79128 27.4749 7.94328 27.8029 8.16728C28.1389 8.38328 28.4109 8.68728 28.6189 9.07928C28.8269 9.47128 28.9309 9.97928 28.9309 10.6033C28.9309 11.2273 28.8269 11.7353 28.6189 12.1273C28.4109 12.5113 28.1429 12.8153 27.8149 13.0393C27.4869 13.2633 27.1189 13.4153 26.7109 13.4953C26.3109 13.5753 25.9149 13.6153 25.5229 13.6153C25.4189 13.6153 25.3189 13.6153 25.2229 13.6153C25.1349 13.6073 25.0509 13.5993 24.9709 13.5913V16.3633C24.8189 16.3873 24.6709 16.4033 24.5269 16.4113C24.3829 16.4193 24.2429 16.4233 24.1069 16.4233C23.9789 16.4233 23.8389 16.4193 23.6869 16.4113C23.5349 16.4033 23.3789 16.3873 23.2189 16.3633V7.69928ZM24.9709 12.1393C25.0669 12.1553 25.1549 12.1633 25.2349 12.1633C25.3229 12.1633 25.4269 12.1633 25.5469 12.1633C25.7469 12.1633 25.9429 12.1393 26.1349 12.0913C26.3269 12.0353 26.4949 11.9473 26.6389 11.8273C26.7909 11.7073 26.9109 11.5513 26.9989 11.3593C27.0869 11.1593 27.1309 10.9153 27.1309 10.6273C27.1309 10.3313 27.0869 10.0833 26.9989 9.88328C26.9109 9.67528 26.7909 9.51128 26.6389 9.39128C26.4949 9.26328 26.3269 9.17528 26.1349 9.12728C25.9429 9.07128 25.7469 9.04328 25.5469 9.04328C25.4589 9.04328 25.3749 9.04728 25.2949 9.05528C25.2229 9.05528 25.1149 9.06328 24.9709 9.07928V12.1393ZM30.215 10.1593C30.335 10.1353 30.447 10.1193 30.551 10.1113C30.663 10.0953 30.783 10.0873 30.911 10.0873C31.031 10.0873 31.147 10.0953 31.259 10.1113C31.379 10.1273 31.495 10.1473 31.607 10.1713C31.631 10.2113 31.651 10.2713 31.667 10.3513C31.691 10.4233 31.711 10.5033 31.727 10.5913C31.743 10.6713 31.755 10.7553 31.763 10.8433C31.779 10.9233 31.791 10.9913 31.799 11.0473C31.975 10.7993 32.191 10.5793 32.447 10.3873C32.703 10.1873 33.023 10.0873 33.407 10.0873C33.487 10.0873 33.579 10.0913 33.683 10.0993C33.787 10.1073 33.863 10.1193 33.911 10.1353C33.927 10.2153 33.939 10.3073 33.947 10.4113C33.955 10.5153 33.959 10.6233 33.959 10.7353C33.959 10.8713 33.951 11.0193 33.935 11.1793C33.927 11.3393 33.907 11.4913 33.875 11.6353C33.787 11.6193 33.687 11.6113 33.575 11.6113C33.471 11.6113 33.407 11.6113 33.383 11.6113C33.247 11.6113 33.095 11.6273 32.927 11.6593C32.759 11.6833 32.599 11.7553 32.447 11.8753C32.295 11.9953 32.167 12.1753 32.063 12.4153C31.967 12.6553 31.919 12.9913 31.919 13.4233V16.3753C31.775 16.3993 31.631 16.4153 31.487 16.4233C31.343 16.4313 31.203 16.4353 31.067 16.4353C30.931 16.4353 30.791 16.4313 30.647 16.4233C30.511 16.4153 30.367 16.3993 30.215 16.3753V10.1593ZM37.4953 16.5073C36.9913 16.5073 36.5513 16.4273 36.1753 16.2673C35.8073 16.0993 35.4993 15.8713 35.2513 15.5833C35.0113 15.2873 34.8273 14.9433 34.6993 14.5513C34.5793 14.1593 34.5193 13.7353 34.5193 13.2793C34.5193 12.8233 34.5793 12.3953 34.6993 11.9953C34.8273 11.5953 35.0113 11.2513 35.2513 10.9633C35.4993 10.6673 35.8073 10.4353 36.1753 10.2673C36.5513 10.0993 36.9913 10.0153 37.4953 10.0153C37.9993 10.0153 38.4393 10.0993 38.8153 10.2673C39.1913 10.4353 39.5033 10.6673 39.7513 10.9633C39.9993 11.2513 40.1833 11.5953 40.3033 11.9953C40.4233 12.3953 40.4833 12.8233 40.4833 13.2793C40.4833 13.7353 40.4233 14.1593 40.3033 14.5513C40.1833 14.9433 39.9993 15.2873 39.7513 15.5833C39.5033 15.8713 39.1913 16.0993 38.8153 16.2673C38.4393 16.4273 37.9993 16.5073 37.4953 16.5073ZM37.4953 15.2113C37.9433 15.2113 38.2633 15.0473 38.4553 14.7193C38.6553 14.3833 38.7553 13.9033 38.7553 13.2793C38.7553 12.6553 38.6553 12.1793 38.4553 11.8513C38.2633 11.5153 37.9433 11.3473 37.4953 11.3473C37.0553 11.3473 36.7353 11.5153 36.5353 11.8513C36.3433 12.1793 36.2473 12.6553 36.2473 13.2793C36.2473 13.9033 36.3433 14.3833 36.5353 14.7193C36.7353 15.0473 37.0553 15.2113 37.4953 15.2113ZM37.6153 7.73528C37.9353 7.68728 38.2953 7.66328 38.6953 7.66328C38.9033 7.66328 39.0793 7.67128 39.2233 7.68728C39.3753 7.69528 39.5313 7.71128 39.6913 7.73528L37.8793 9.21128C37.7753 9.22728 37.6513 9.24328 37.5073 9.25928C37.3633 9.27528 37.2113 9.28328 37.0513 9.28328C36.7953 9.28328 36.5353 9.25928 36.2713 9.21128L37.6153 7.73528ZM42.4085 13.1593L41.2205 10.1593C41.4845 10.1113 41.7765 10.0873 42.0965 10.0873C42.4005 10.0873 42.7085 10.1113 43.0205 10.1593L43.9685 13.1953L42.7325 16.3633C42.4445 16.4113 42.1605 16.4353 41.8805 16.4353C41.6005 16.4353 41.3045 16.4113 40.9925 16.3633L42.4085 13.1593ZM44.0525 13.1953L45.0125 10.1593C45.3085 10.1113 45.6165 10.0873 45.9365 10.0873C46.2325 10.0873 46.5245 10.1113 46.8125 10.1593L45.6125 13.1593L47.0405 16.3633C46.7285 16.4113 46.4325 16.4353 46.1525 16.4353C45.8725 16.4353 45.5885 16.4113 45.3005 16.3633L44.0525 13.1953ZM48.3987 11.4553H47.5947C47.5707 11.3513 47.5507 11.2433 47.5347 11.1313C47.5267 11.0113 47.5227 10.8993 47.5227 10.7953C47.5227 10.5793 47.5467 10.3673 47.5947 10.1593H50.0667V16.3633C49.7787 16.4113 49.4987 16.4353 49.2267 16.4353C48.9627 16.4353 48.6867 16.4113 48.3987 16.3633V11.4553ZM48.1467 9.11528C48.0987 8.84328 48.0747 8.57528 48.0747 8.31128C48.0747 8.05528 48.0987 7.78728 48.1467 7.50728C48.2827 7.48328 48.4267 7.46728 48.5787 7.45928C48.7387 7.44328 48.8827 7.43528 49.0107 7.43528C49.1467 7.43528 49.2947 7.44328 49.4547 7.45928C49.6147 7.46728 49.7627 7.48328 49.8987 7.50728C49.9227 7.64328 49.9387 7.77928 49.9467 7.91528C49.9547 8.04328 49.9587 8.17528 49.9587 8.31128C49.9587 8.43928 49.9547 8.57128 49.9467 8.70728C49.9387 8.84328 49.9227 8.97928 49.8987 9.11528C49.7627 9.13928 49.6147 9.15528 49.4547 9.16328C49.3027 9.17128 49.1587 9.17528 49.0227 9.17528C48.8947 9.17528 48.7507 9.17128 48.5907 9.16328C48.4307 9.15528 48.2827 9.13928 48.1467 9.11528ZM51.7423 10.1593C51.8543 10.1353 51.9663 10.1193 52.0783 10.1113C52.1903 10.0953 52.3143 10.0873 52.4503 10.0873C52.5863 10.0873 52.7063 10.0953 52.8103 10.1113C52.9143 10.1193 53.0223 10.1353 53.1343 10.1593C53.1583 10.1993 53.1783 10.2593 53.1943 10.3393C53.2183 10.4113 53.2383 10.4913 53.2543 10.5793C53.2703 10.6593 53.2823 10.7393 53.2903 10.8193C53.3063 10.8993 53.3183 10.9673 53.3263 11.0233C53.3903 10.9033 53.4743 10.7833 53.5783 10.6633C53.6823 10.5433 53.8063 10.4353 53.9503 10.3393C54.0943 10.2433 54.2543 10.1673 54.4303 10.1113C54.6143 10.0473 54.8183 10.0153 55.0423 10.0153C56.0103 10.0153 56.6303 10.3833 56.9023 11.1193C57.0623 10.8233 57.2863 10.5673 57.5743 10.3513C57.8703 10.1273 58.2423 10.0153 58.6903 10.0153C59.3943 10.0153 59.9103 10.2113 60.2383 10.6033C60.5743 10.9873 60.7423 11.5913 60.7423 12.4153V16.3633C60.4543 16.4113 60.1703 16.4353 59.8903 16.4353C59.6103 16.4353 59.3263 16.4113 59.0383 16.3633V12.8593C59.0383 12.4273 58.9823 12.0953 58.8703 11.8633C58.7663 11.6313 58.5503 11.5153 58.2223 11.5153C58.0863 11.5153 57.9503 11.5353 57.8143 11.5753C57.6863 11.6153 57.5663 11.6913 57.4543 11.8033C57.3503 11.9073 57.2623 12.0593 57.1903 12.2593C57.1263 12.4513 57.0943 12.7033 57.0943 13.0153V16.3633C56.8063 16.4113 56.5223 16.4353 56.2423 16.4353C55.9623 16.4353 55.6783 16.4113 55.3903 16.3633V12.8593C55.3903 12.4273 55.3343 12.0953 55.2223 11.8633C55.1183 11.6313 54.9023 11.5153 54.5743 11.5153C54.4383 11.5153 54.3023 11.5353 54.1663 11.5753C54.0303 11.6153 53.9063 11.6953 53.7943 11.8153C53.6903 11.9273 53.6063 12.0873 53.5423 12.2953C53.4783 12.5033 53.4463 12.7753 53.4463 13.1113V16.3633C53.1583 16.4113 52.8743 16.4353 52.5943 16.4353C52.3143 16.4353 52.0303 16.4113 51.7423 16.3633V10.1593ZM65.3852 13.5193C65.2892 13.5033 65.1852 13.4913 65.0732 13.4833C64.9612 13.4673 64.8612 13.4593 64.7732 13.4593C64.3812 13.4593 64.0692 13.5313 63.8372 13.6753C63.6132 13.8113 63.5012 14.0353 63.5012 14.3473C63.5012 14.5553 63.5452 14.7153 63.6332 14.8273C63.7212 14.9393 63.8252 15.0233 63.9452 15.0793C64.0732 15.1273 64.2052 15.1593 64.3412 15.1753C64.4852 15.1833 64.6092 15.1873 64.7132 15.1873C64.8332 15.1873 64.9532 15.1793 65.0732 15.1633C65.1932 15.1393 65.2972 15.1193 65.3852 15.1033V13.5193ZM65.3852 12.2833C65.3852 12.0913 65.3532 11.9353 65.2892 11.8153C65.2252 11.6953 65.1372 11.6033 65.0252 11.5393C64.9132 11.4673 64.7732 11.4193 64.6052 11.3953C64.4452 11.3713 64.2652 11.3593 64.0652 11.3593C63.6332 11.3593 63.1732 11.4433 62.6852 11.6113C62.5732 11.4033 62.4892 11.2073 62.4332 11.0233C62.3772 10.8393 62.3492 10.6193 62.3492 10.3633C62.7012 10.2433 63.0532 10.1553 63.4052 10.0993C63.7572 10.0433 64.0852 10.0153 64.3892 10.0153C65.2212 10.0153 65.8692 10.2153 66.3332 10.6153C66.8052 11.0153 67.0412 11.6553 67.0412 12.5353V16.1353C66.7612 16.2233 66.4212 16.3073 66.0212 16.3873C65.6212 16.4673 65.1692 16.5073 64.6652 16.5073C64.2572 16.5073 63.8812 16.4713 63.5372 16.3993C63.2012 16.3273 62.9092 16.2073 62.6612 16.0393C62.4212 15.8713 62.2332 15.6553 62.0972 15.3913C61.9692 15.1273 61.9052 14.8033 61.9052 14.4193C61.9052 14.0353 61.9852 13.7153 62.1452 13.4593C62.3132 13.1953 62.5252 12.9873 62.7812 12.8353C63.0452 12.6753 63.3372 12.5633 63.6572 12.4993C63.9772 12.4273 64.2972 12.3913 64.6172 12.3913C64.8492 12.3913 65.1052 12.4033 65.3852 12.4273V12.2833ZM68.5588 10.1593C68.6708 10.1353 68.7828 10.1193 68.8948 10.1113C69.0068 10.0953 69.1308 10.0873 69.2668 10.0873C69.4028 10.0873 69.5228 10.0953 69.6268 10.1113C69.7308 10.1193 69.8388 10.1353 69.9508 10.1593C69.9748 10.1993 69.9948 10.2593 70.0108 10.3393C70.0348 10.4113 70.0548 10.4913 70.0708 10.5793C70.0868 10.6593 70.0988 10.7393 70.1068 10.8193C70.1228 10.8993 70.1348 10.9673 70.1428 11.0233C70.2068 10.9033 70.2908 10.7833 70.3948 10.6633C70.4988 10.5433 70.6228 10.4353 70.7668 10.3393C70.9108 10.2433 71.0708 10.1673 71.2467 10.1113C71.4308 10.0473 71.6348 10.0153 71.8588 10.0153C72.8268 10.0153 73.4468 10.3833 73.7188 11.1193C73.8788 10.8233 74.1028 10.5673 74.3908 10.3513C74.6868 10.1273 75.0588 10.0153 75.5068 10.0153C76.2108 10.0153 76.7268 10.2113 77.0548 10.6033C77.3908 10.9873 77.5588 11.5913 77.5588 12.4153V16.3633C77.2708 16.4113 76.9868 16.4353 76.7068 16.4353C76.4268 16.4353 76.1428 16.4113 75.8548 16.3633V12.8593C75.8548 12.4273 75.7988 12.0953 75.6868 11.8633C75.5828 11.6313 75.3668 11.5153 75.0388 11.5153C74.9028 11.5153 74.7668 11.5353 74.6308 11.5753C74.5028 11.6153 74.3828 11.6913 74.2708 11.8033C74.1668 11.9073 74.0788 12.0593 74.0068 12.2593C73.9428 12.4513 73.9108 12.7033 73.9108 13.0153V16.3633C73.6228 16.4113 73.3388 16.4353 73.0588 16.4353C72.7788 16.4353 72.4948 16.4113 72.2068 16.3633V12.8593C72.2068 12.4273 72.1508 12.0953 72.0388 11.8633C71.9348 11.6313 71.7188 11.5153 71.3908 11.5153C71.2548 11.5153 71.1188 11.5353 70.9828 11.5753C70.8468 11.6153 70.7228 11.6953 70.6108 11.8153C70.5068 11.9273 70.4228 12.0873 70.3588 12.2953C70.2948 12.5033 70.2628 12.7753 70.2628 13.1113V16.3633C69.9748 16.4113 69.6908 16.4353 69.4108 16.4353C69.1308 16.4353 68.8468 16.4113 68.5588 16.3633V10.1593ZM80.4616 13.7833C80.4936 14.2633 80.6616 14.6113 80.9656 14.8273C81.2696 15.0433 81.6696 15.1513 82.1656 15.1513C82.4376 15.1513 82.7136 15.1273 82.9936 15.0793C83.2816 15.0233 83.5536 14.9473 83.8096 14.8513C83.8976 15.0113 83.9736 15.2033 84.0376 15.4273C84.1016 15.6513 84.1376 15.8913 84.1456 16.1473C83.5216 16.3873 82.8176 16.5073 82.0336 16.5073C81.4576 16.5073 80.9616 16.4273 80.5456 16.2673C80.1376 16.1073 79.8016 15.8873 79.5376 15.6073C79.2816 15.3193 79.0896 14.9793 78.9616 14.5873C78.8416 14.1953 78.7816 13.7673 78.7816 13.3033C78.7816 12.8473 78.8456 12.4193 78.9736 12.0193C79.1016 11.6193 79.2896 11.2713 79.5376 10.9753C79.7936 10.6793 80.1056 10.4473 80.4736 10.2793C80.8496 10.1033 81.2856 10.0153 81.7816 10.0153C82.2136 10.0153 82.5976 10.0913 82.9336 10.2433C83.2696 10.3953 83.5536 10.6033 83.7856 10.8673C84.0256 11.1313 84.2056 11.4473 84.3256 11.8153C84.4456 12.1753 84.5056 12.5633 84.5056 12.9793C84.5056 13.1313 84.4976 13.2833 84.4816 13.4353C84.4736 13.5793 84.4616 13.6953 84.4456 13.7833H80.4616ZM82.8976 12.5953C82.8816 12.2113 82.7736 11.9033 82.5736 11.6713C82.3816 11.4313 82.1096 11.3113 81.7576 11.3113C81.3576 11.3113 81.0536 11.4233 80.8456 11.6473C80.6376 11.8713 80.5136 12.1873 80.4736 12.5953H82.8976ZM85.8439 10.1593C85.9559 10.1353 86.0679 10.1193 86.1799 10.1113C86.2919 10.0953 86.4159 10.0873 86.5519 10.0873C86.6879 10.0873 86.8079 10.0953 86.9119 10.1113C87.0159 10.1193 87.1239 10.1353 87.2359 10.1593C87.2599 10.1993 87.2799 10.2593 87.2959 10.3393C87.3199 10.4113 87.3399 10.4913 87.3559 10.5793C87.3719 10.6593 87.3839 10.7393 87.3919 10.8193C87.4079 10.8993 87.4199 10.9673 87.4279 11.0233C87.5079 10.9033 87.6039 10.7833 87.7159 10.6633C87.8279 10.5433 87.9559 10.4353 88.0999 10.3393C88.2519 10.2433 88.4199 10.1673 88.6039 10.1113C88.7879 10.0473 88.9919 10.0153 89.2159 10.0153C89.9199 10.0153 90.4479 10.2073 90.7999 10.5913C91.1599 10.9753 91.3399 11.5793 91.3399 12.4033V16.3633C91.0519 16.4113 90.7679 16.4353 90.4879 16.4353C90.2079 16.4353 89.9239 16.4113 89.6359 16.3633V12.8593C89.6359 12.4273 89.5679 12.0953 89.4319 11.8633C89.3039 11.6313 89.0759 11.5153 88.7479 11.5153C88.6119 11.5153 88.4719 11.5353 88.3279 11.5753C88.1839 11.6153 88.0519 11.6953 87.9319 11.8153C87.8199 11.9273 87.7279 12.0873 87.6559 12.2953C87.5839 12.5033 87.5479 12.7753 87.5479 13.1113V16.3633C87.2599 16.4113 86.9759 16.4353 86.6959 16.4353C86.4159 16.4353 86.1319 16.4113 85.8439 16.3633V10.1593ZM93.0549 11.4553H92.2749L92.2149 11.2153L94.4589 8.34728H94.7349V10.1593H96.1869C96.2109 10.2793 96.2269 10.3873 96.2349 10.4833C96.2429 10.5793 96.2469 10.6793 96.2469 10.7833C96.2469 10.8953 96.2429 11.0033 96.2349 11.1073C96.2269 11.2113 96.2109 11.3273 96.1869 11.4553H94.7349V13.8913C94.7349 14.1393 94.7549 14.3393 94.7949 14.4913C94.8349 14.6433 94.8909 14.7633 94.9629 14.8513C95.0429 14.9393 95.1389 14.9993 95.2509 15.0313C95.3629 15.0633 95.4949 15.0793 95.6469 15.0793C95.7669 15.0793 95.8829 15.0713 95.9949 15.0553C96.1149 15.0313 96.2189 15.0113 96.3069 14.9953C96.3629 15.1473 96.4029 15.3073 96.4269 15.4753C96.4509 15.6353 96.4629 15.7793 96.4629 15.9073C96.4629 15.9953 96.4589 16.0713 96.4509 16.1353C96.4509 16.1913 96.4469 16.2473 96.4389 16.3033C96.0709 16.3913 95.6909 16.4353 95.2989 16.4353C94.5709 16.4353 94.0149 16.2673 93.6309 15.9313C93.2469 15.5873 93.0549 15.0313 93.0549 14.2633V11.4553ZM98.8366 13.7833C98.8686 14.2633 99.0366 14.6113 99.3406 14.8273C99.6446 15.0433 100.045 15.1513 100.541 15.1513C100.813 15.1513 101.089 15.1273 101.369 15.0793C101.657 15.0233 101.929 14.9473 102.185 14.8513C102.273 15.0113 102.349 15.2033 102.413 15.4273C102.477 15.6513 102.513 15.8913 102.521 16.1473C101.897 16.3873 101.193 16.5073 100.409 16.5073C99.8326 16.5073 99.3366 16.4273 98.9206 16.2673C98.5126 16.1073 98.1766 15.8873 97.9126 15.6073C97.6566 15.3193 97.4646 14.9793 97.3366 14.5873C97.2166 14.1953 97.1566 13.7673 97.1566 13.3033C97.1566 12.8473 97.2206 12.4193 97.3486 12.0193C97.4766 11.6193 97.6646 11.2713 97.9126 10.9753C98.1686 10.6793 98.4806 10.4473 98.8486 10.2793C99.2246 10.1033 99.6606 10.0153 100.157 10.0153C100.589 10.0153 100.973 10.0913 101.309 10.2433C101.645 10.3953 101.929 10.6033 102.161 10.8673C102.401 11.1313 102.581 11.4473 102.701 11.8153C102.821 12.1753 102.881 12.5633 102.881 12.9793C102.881 13.1313 102.873 13.2833 102.857 13.4353C102.849 13.5793 102.837 13.6953 102.821 13.7833H98.8366ZM101.273 12.5953C101.257 12.2113 101.149 11.9033 100.949 11.6713C100.757 11.4313 100.485 11.3113 100.133 11.3113C99.7326 11.3113 99.4286 11.4233 99.2206 11.6473C99.0126 11.8713 98.8886 12.1873 98.8486 12.5953H101.273Z" fill="white"/>
<defs>
<linearGradient id="paint0_linear_4011_17553" x1="63" y1="13" x2="63" y2="121" gradientUnits="userSpaceOnUse">
<stop stop-color="#1280C3"/>
<stop offset="1" stop-color="#00AB9E"/>
</linearGradient>
</defs>
</svg>
