<svg width="86" height="50" viewBox="0 0 86 50" fill="none" xmlns="http://www.w3.org/2000/svg">
<g clip-path="url(#clip0_4011_18003)">
<path d="M36.5594 16.5391C31.4672 16.5391 27.3398 20.6411 27.3398 25.7001C27.3398 30.7591 31.4681 34.8611 36.5594 34.8611C38.8366 34.8611 40.9194 34.0389 42.5279 32.6798C42.5213 33.0925 42.4808 34.0405 42.2499 34.9474C41.9438 36.152 41.1221 37.1551 41.1221 37.1551C40.0307 38.4583 38.9103 38.8472 38.0249 39.0659C37.1395 39.2846 36.0092 39.2953 34.5868 38.9508C33.1652 38.6063 32.0986 37.6377 32.0986 37.6377C31.3679 37.114 31.2206 36.3427 30.2914 36.1849C29.3622 36.027 28.893 36.5688 28.6514 36.827C28.3816 37.1156 28.3171 37.5999 28.428 38.0019C28.5388 38.404 29.0593 39.0305 29.8247 39.7236C30.5901 40.4168 31.3464 40.8139 32.1971 41.2546C33.0477 41.6953 34.3319 41.9469 34.8814 42.0472C35.43 42.1467 37.0112 42.2511 38.2847 42.0472C39.5582 41.8433 40.59 41.3508 41.0046 41.1444C41.4183 40.938 42.2342 40.4422 43.2528 39.435C44.2714 38.4278 44.9781 36.8237 44.9781 36.8237C45.3579 36.0549 45.6045 34.7822 45.6045 34.7822C45.7501 34.0118 45.7807 33.081 45.7807 33.081V25.7009C45.7807 20.641 41.6525 16.5399 36.5611 16.5399L36.5594 16.5391ZM36.5594 31.7293C33.209 31.7293 30.4925 29.03 30.4925 25.7009C30.4925 22.3718 33.209 19.6725 36.5594 19.6725C39.9099 19.6725 42.6264 22.3718 42.6264 25.7009C42.6264 29.03 39.9099 31.7293 36.5594 31.7293Z" fill="white"/>
<path d="M53.4462 16.5391C48.354 16.5391 44.2266 20.6411 44.2266 25.7001C44.2266 30.7591 48.3548 34.8611 53.4462 34.8611C55.7233 34.8611 57.8061 34.0389 59.4147 32.6798C59.408 33.0925 59.3675 34.0405 59.1366 34.9474C58.8305 36.152 58.0088 37.1551 58.0088 37.1551C56.9174 38.4583 55.797 38.8472 54.9116 39.0659C54.0262 39.2846 52.8959 39.2953 51.4735 38.9508C50.0519 38.6063 48.9853 37.6377 48.9853 37.6377C48.2547 37.114 48.1074 36.3427 47.1781 36.1849C46.2489 36.027 45.7797 36.5688 45.5381 36.827C45.2683 37.1156 45.2038 37.5999 45.3147 38.0019C45.4256 38.404 45.946 39.0305 46.7114 39.7236C47.4768 40.4168 48.2331 40.8139 49.0838 41.2546C49.9344 41.6953 51.2186 41.9469 51.7681 42.0472C52.3167 42.1467 53.898 42.2511 55.1714 42.0472C56.4449 41.8433 57.4767 41.3508 57.8913 41.1444C58.305 40.938 59.1209 40.4422 60.1395 39.435C61.1581 38.4278 61.8648 36.8237 61.8648 36.8237C62.2446 36.0549 62.4912 34.7822 62.4912 34.7822C62.6368 34.0118 62.6674 33.081 62.6674 33.081V25.7009C62.6674 20.641 58.5392 16.5399 53.447 16.5399L53.4462 16.5391ZM53.4462 31.7293C50.0958 31.7293 47.3792 29.03 47.3792 25.7009C47.3792 22.3718 50.0958 19.6725 53.4462 19.6725C56.7966 19.6725 59.5131 22.3718 59.5131 25.7009C59.5131 29.03 56.7966 31.7293 53.4462 31.7293Z" fill="#DBDBDB"/>
<path d="M21.2031 33.028C21.2031 33.9554 21.9594 34.7069 22.8928 34.7069C23.8262 34.7069 24.5825 33.9554 24.5825 33.028V18.2414C24.5825 17.314 23.8262 16.5625 22.8928 16.5625C21.9594 16.5625 21.2031 17.314 21.2031 18.2414V33.028Z" fill="white"/>
<path d="M18.44 12.2297C18.44 11.3023 17.6837 10.5508 16.7504 10.5508C15.817 10.5508 15.0607 11.3023 15.0607 12.2297V20.1435C13.4703 18.8485 11.4372 18.0707 9.22043 18.0707C4.12822 18.0707 0 22.1727 0 27.2325C0 32.2924 4.12822 36.3935 9.21961 36.3935C14.311 36.3935 18.4392 32.2916 18.4392 27.2325C18.4392 27.184 18.4359 27.1371 18.4359 27.0886C18.4367 27.0648 18.4392 27.0409 18.4392 27.0163V12.2297H18.44ZM9.21961 33.2609C5.8692 33.2609 3.15264 30.5616 3.15264 27.2325C3.15264 23.9034 5.8692 21.2041 9.21961 21.2041C12.57 21.2041 15.2866 23.9034 15.2866 27.2325C15.2866 30.5616 12.57 33.2609 9.21961 33.2609Z" fill="white"/>
<path d="M65.4727 33.0163C65.4727 33.9437 66.229 34.6952 67.1623 34.6952C68.0957 34.6952 68.852 33.9437 68.852 33.0163V18.2297C68.852 17.3023 68.0957 16.5508 67.1623 16.5508C66.229 16.5508 65.4727 17.3023 65.4727 18.2297V33.0163Z" fill="white"/>
<path d="M22.8962 40.6116C24.1333 40.6116 25.1361 39.6151 25.1361 38.3859C25.1361 37.1566 24.1333 36.1602 22.8962 36.1602C21.6591 36.1602 20.6562 37.1566 20.6562 38.3859C20.6562 39.6151 21.6591 40.6116 22.8962 40.6116Z" fill="#DBDBDB"/>
<path d="M42.1587 49.9665C42.0818 49.9665 42.0181 49.941 41.9668 49.8909C41.9163 49.8407 41.8906 49.7766 41.8906 49.7001V47.3215C41.8939 47.0468 41.9585 46.8002 42.0851 46.5807C42.2117 46.3611 42.3821 46.1885 42.5998 46.0618C42.8166 45.9352 43.0615 45.8711 43.3346 45.8711C43.6076 45.8711 43.8575 45.9344 44.0743 46.0618C44.2911 46.1885 44.4632 46.362 44.5915 46.5807C44.7189 46.7994 44.7826 47.0468 44.7826 47.3215C44.7826 47.5961 44.7239 47.8419 44.6072 48.0598C44.4897 48.2769 44.33 48.4495 44.1273 48.5762C43.9245 48.7028 43.6953 48.7669 43.4396 48.7669C43.2328 48.7669 43.0433 48.7241 42.8703 48.6395C42.6974 48.554 42.5493 48.4388 42.4268 48.2925V49.7009C42.4268 49.7774 42.402 49.8407 42.3532 49.8917C42.3044 49.9418 42.2398 49.9673 42.1587 49.9673V49.9665ZM43.3346 48.2974C43.5133 48.2974 43.6722 48.2547 43.812 48.17C43.9518 48.0845 44.0627 47.9685 44.1455 47.8205C44.2274 47.6725 44.2688 47.5065 44.2688 47.3223C44.2688 47.1381 44.2274 46.9671 44.1455 46.8191C44.0635 46.6711 43.9518 46.5552 43.812 46.4697C43.6722 46.3842 43.5125 46.3422 43.3346 46.3422C43.1566 46.3422 43.0011 46.385 42.8596 46.4697C42.7181 46.5552 42.6064 46.6711 42.5261 46.8191C42.4459 46.9671 42.4053 47.1348 42.4053 47.3223C42.4053 47.5098 42.4459 47.6725 42.5261 47.8205C42.6064 47.9685 42.7181 48.0845 42.8596 48.17C43.0011 48.2555 43.16 48.2974 43.3346 48.2974Z" fill="white"/>
<path d="M49.3037 48.6318C49.2375 48.6598 49.1754 48.6623 49.1175 48.6392C49.0596 48.617 49.0132 48.5726 48.9785 48.506L47.7762 46.2376C47.7414 46.1718 47.7365 46.1085 47.7629 46.0468C47.7894 45.986 47.8358 45.9416 47.902 45.9136C47.9682 45.8857 48.031 45.8832 48.0906 45.9062C48.1502 45.9292 48.1957 45.9728 48.2271 46.0394L49.3765 48.3079C49.4113 48.3737 49.4245 48.4378 49.4162 48.4986C49.4071 48.5595 49.3699 48.6039 49.3037 48.6318ZM48.6839 49.9983C48.6492 49.9983 48.607 49.9877 48.5581 49.9671C48.4042 49.8972 48.362 49.7879 48.4324 49.6382L50.0335 46.0444C50.1038 45.898 50.2139 45.8569 50.3645 45.9194C50.5217 45.9852 50.5656 46.0953 50.4961 46.2483L48.8899 49.8364C48.8477 49.9441 48.7799 49.9983 48.6856 49.9983H48.6839Z" fill="white"/>
<path d="M53.854 48.7515C53.7771 48.7515 53.7134 48.726 53.6621 48.6758C53.6116 48.6257 53.5859 48.5624 53.5859 48.4851V46.164C53.5859 46.0842 53.6116 46.0201 53.6621 45.9708C53.7125 45.9223 53.7763 45.8976 53.854 45.8976C53.9318 45.8976 53.9988 45.9223 54.0485 45.9708C54.0973 46.0193 54.1221 46.0834 54.1221 46.164V48.4851C54.1221 48.5616 54.0973 48.6249 54.0485 48.6758C53.9997 48.726 53.9351 48.7515 53.854 48.7515ZM55.6066 48.7515C55.5296 48.7515 55.4659 48.726 55.4146 48.6758C55.3642 48.6257 55.3385 48.5624 55.3385 48.4851V46.9936C55.3385 46.7749 55.2839 46.6121 55.1755 46.506C55.0671 46.4 54.9256 46.3474 54.7502 46.3474C54.5748 46.3474 54.4175 46.4098 54.2984 46.5348C54.1792 46.6598 54.1197 46.8201 54.1197 47.015H53.7887C53.7887 46.7889 53.8342 46.5899 53.9252 46.4181C54.0162 46.2462 54.142 46.1114 54.3033 46.0135C54.4639 45.9165 54.6476 45.8672 54.8544 45.8672C55.0613 45.8672 55.2309 45.9108 55.3848 45.9979C55.5388 46.0851 55.6587 46.2125 55.7448 46.3811C55.8308 46.5496 55.873 46.7543 55.873 46.9936V48.4851C55.873 48.5616 55.8482 48.6249 55.7994 48.6758C55.7506 48.726 55.6852 48.7515 55.6049 48.7515H55.6066ZM57.355 48.7515C57.2781 48.7515 57.2144 48.726 57.1631 48.6758C57.1126 48.6257 57.0869 48.5624 57.0869 48.4851V46.9936C57.0869 46.7749 57.0323 46.6121 56.9239 46.506C56.8155 46.4 56.674 46.3474 56.4986 46.3474C56.3232 46.3474 56.1668 46.4098 56.0501 46.5348C55.9326 46.6598 55.8747 46.8201 55.8747 47.015H55.4386C55.4386 46.7889 55.4874 46.5899 55.5859 46.4181C55.6836 46.2462 55.8209 46.1114 55.998 46.0135C56.1751 45.9165 56.377 45.8672 56.6045 45.8672C56.8039 45.8672 56.981 45.9108 57.1349 45.9979C57.2888 46.0851 57.4088 46.2125 57.4949 46.3811C57.5809 46.5496 57.6231 46.7543 57.6231 46.9936V48.4851C57.6231 48.5616 57.5983 48.6249 57.5495 48.6758C57.5007 48.726 57.4361 48.7515 57.355 48.7515Z" fill="white"/>
<path d="M62.4453 48.7661C62.1548 48.7661 61.8967 48.7044 61.6708 48.5811C61.4449 48.4578 61.2686 48.2876 61.1404 48.0697C61.0129 47.8526 60.9492 47.6027 60.9492 47.3215C60.9492 47.0403 61.0096 46.7854 61.1304 46.5675C61.2512 46.3504 61.4184 46.1802 61.6319 46.0561C61.8454 45.9328 62.0903 45.8711 62.3667 45.8711C62.643 45.8711 62.8739 45.9311 63.07 46.0512C63.2661 46.1712 63.4159 46.3365 63.5185 46.5469C63.6219 46.7574 63.6732 47 63.6732 47.2746C63.6732 47.3404 63.6501 47.3955 63.6054 47.439C63.5599 47.4826 63.5019 47.504 63.4324 47.504H61.3174V47.0863H63.4167L63.2016 47.2327C63.1983 47.0592 63.1627 46.903 63.0965 46.7657C63.0303 46.6283 62.9351 46.5198 62.8127 46.4401C62.6902 46.3603 62.5413 46.32 62.3667 46.32C62.1672 46.32 61.9968 46.3636 61.8545 46.4499C61.713 46.5371 61.6054 46.6563 61.5318 46.8076C61.4581 46.9589 61.4217 47.1299 61.4217 47.3215C61.4217 47.513 61.4656 47.6832 61.5533 47.8329C61.641 47.9825 61.7618 48.1009 61.9157 48.1872C62.0696 48.2744 62.2467 48.318 62.4461 48.318C62.5545 48.318 62.6654 48.2982 62.7796 48.258C62.8929 48.2177 62.9848 48.1716 63.0551 48.1198C63.1072 48.082 63.1643 48.0615 63.2256 48.0598C63.2868 48.0582 63.3398 48.0762 63.3861 48.1149C63.4457 48.1667 63.4771 48.2242 63.4804 48.2867C63.4837 48.3492 63.4556 48.4035 63.396 48.4487C63.2769 48.5424 63.1288 48.6189 62.9525 48.6781C62.7754 48.7373 62.6066 48.7669 62.4461 48.7669L62.4453 48.7661Z" fill="white"/>
<path d="M67.9863 48.7669C67.7414 48.7669 67.5147 48.7299 67.307 48.6551C67.0985 48.5803 66.9371 48.4857 66.8213 48.3706C66.7691 48.3147 66.7468 48.2514 66.7559 48.1799C66.765 48.1083 66.7989 48.0508 66.8585 48.0055C66.928 47.9496 66.9975 47.9266 67.0654 47.9348C67.134 47.9439 67.192 47.9743 67.2416 48.0261C67.3012 48.0919 67.3963 48.1535 67.5279 48.2111C67.6586 48.2686 67.8051 48.2974 67.9665 48.2974C68.1692 48.2974 68.3239 48.2645 68.4307 48.1979C68.5374 48.1322 68.5929 48.0467 68.5962 47.9422C68.5995 47.8378 68.5498 47.7474 68.4464 47.6709C68.343 47.5944 68.1551 47.5319 67.8821 47.4834C67.5287 47.4136 67.2722 47.31 67.1134 47.1702C66.9545 47.0312 66.8742 46.861 66.8742 46.6588C66.8742 46.4812 66.9263 46.3348 67.0314 46.2181C67.1365 46.1013 67.2714 46.015 67.4352 45.9574C67.5999 45.8999 67.7712 45.8711 67.9499 45.8711C68.1808 45.8711 68.3852 45.9073 68.5639 45.9804C68.7426 46.0536 68.8841 46.1548 68.9892 46.283C69.038 46.3389 69.0612 46.3973 69.0571 46.4573C69.0538 46.5182 69.024 46.5691 68.9677 46.6111C68.9114 46.6497 68.8452 46.6612 68.7683 46.6473C68.6913 46.6333 68.6268 46.602 68.5738 46.5535C68.4861 46.4697 68.3918 46.4129 68.2908 46.3817C68.1891 46.3504 68.0724 46.3348 67.9392 46.3348C67.7853 46.3348 67.6545 46.3611 67.5478 46.4129C67.441 46.4647 67.3881 46.5412 67.3881 46.6423C67.3881 46.7048 67.4046 46.7615 67.4377 46.8117C67.4708 46.8619 67.5362 46.9071 67.6347 46.9474C67.7323 46.9877 67.8763 47.0263 68.0649 47.0649C68.3272 47.1167 68.5349 47.1833 68.6872 47.2631C68.8394 47.3428 68.9487 47.4358 69.0149 47.5418C69.0811 47.6479 69.115 47.7704 69.115 47.9093C69.115 48.0697 69.072 48.2136 68.9867 48.3418C68.9007 48.4709 68.7749 48.5729 68.6086 48.6493C68.4423 48.7258 68.2354 48.7644 67.9863 48.7644V48.7669Z" fill="white"/>
<path d="M69.5713 8.685L72.5527 4.77705L67.6326 2.23314C66.4592 1.62718 65.2718 3.02082 66.067 4.07078L69.5713 8.68582V8.685Z" fill="white"/>
<path d="M66.4322 12.8006C65.6502 13.8259 66.8004 15.1973 67.9563 14.616L76.1697 10.4886C77.593 9.77323 77.7676 8.06304 76.5678 6.9802C76.394 6.82316 76.1954 6.69571 75.9885 6.58718L72.5951 4.79971C72.5703 4.78655 72.5405 4.79313 72.5231 4.81533L66.4322 12.7998V12.8006Z" fill="white"/>
<path d="M69.5703 8.68529H77.3634C77.3634 8.68529 77.5173 7.30316 75.7879 6.48178L72.5517 4.77734L69.5703 8.68529Z" fill="#DBDBDB"/>
<path d="M82.7822 0C81.0064 0 79.5625 1.40762 79.5625 3.13836C79.5625 4.8691 81.0073 6.27672 82.7822 6.27672C84.5571 6.27672 86.0018 4.8691 86.0018 3.13836C86.0018 1.40762 84.5579 0 82.7822 0ZM82.7822 5.86397C81.2398 5.86397 79.9853 4.64135 79.9853 3.13754C79.9853 1.63372 81.2398 0.411103 82.7822 0.411103C84.3246 0.411103 85.579 1.63372 85.579 3.13754C85.579 4.64135 84.3246 5.86397 82.7822 5.86397Z" fill="white"/>
<path d="M84.399 4.65337H83.6808L82.7474 3.60999H82.1665V4.65337H81.5625V1.52734C82.0706 1.52734 82.5778 1.53145 83.0859 1.53145C83.8405 1.53557 84.2385 2.02642 84.2385 2.56579C84.2385 2.99416 84.0374 3.42664 83.4284 3.54668L84.3982 4.61226V4.65255L84.399 4.65337ZM82.1665 2.07987V3.07885H83.0859C83.4698 3.07885 83.6345 2.8289 83.6345 2.57977C83.6345 2.33064 83.4648 2.08069 83.0859 2.08069H82.1665V2.07987Z" fill="white"/>
</g>
<defs>
<clipPath id="clip0_4011_18003">
<rect width="86" height="50" fill="white"/>
</clipPath>
</defs>
</svg>
