<svg width="126" height="108" viewBox="0 0 126 108" fill="none" xmlns="http://www.w3.org/2000/svg">
<rect x="0.5" width="125" height="108" rx="30" fill="url(#paint0_linear_4011_22545)"/>
<path fill-rule="evenodd" clip-rule="evenodd" d="M35.2852 44.88L33.0997 41.4652C32.9385 41.2112 32.6602 41.0582 32.3629 41.0582C32.3467 41.0582 32.3321 41.0582 32.316 41.0582L28.3067 41.2736L30.835 38.1112C31.0328 37.8632 31.0855 37.5275 30.9727 37.2304L29.5313 33.4293L33.2799 34.8909C33.5728 35.0053 33.9039 34.9518 34.1485 34.7513L37.2672 32.1876L37.0548 36.253C37.0386 36.5709 37.191 36.8739 37.4547 37.0477L40.8238 39.2639L36.9449 40.3155C36.6402 40.3972 36.4029 40.6378 36.3223 40.9453L35.2867 44.8786L35.2852 44.88ZM36.4732 47.2774L37.8897 41.9049L43.1866 40.4685C43.6554 40.3422 43.9351 39.8536 43.8092 39.3782C43.7535 39.1644 43.6217 38.9802 43.4386 38.8599L38.8375 35.8342L39.1275 30.2804C39.1524 29.7887 38.7789 29.3683 38.294 29.3431C38.0772 29.3312 37.8648 29.4025 37.6964 29.5407L33.4366 33.0431L28.317 31.0483C27.8643 30.8715 27.356 31.1018 27.1817 31.5622C27.1041 31.7672 27.1041 31.9945 27.1817 32.1995L29.1504 37.3893L25.6963 41.7103C25.3902 42.092 25.4488 42.6535 25.8252 42.9639C25.9937 43.1035 26.2076 43.1734 26.4258 43.1615L31.9014 42.8674L34.8868 47.5329C35.0494 47.7854 35.3262 47.9384 35.6236 47.9384C36.022 47.9399 36.3721 47.6681 36.4732 47.2774ZM93.6843 41.0597C93.3708 41.0433 93.0719 41.1978 92.9006 41.4652L90.715 44.88L89.6779 40.9468C89.5973 40.6393 89.36 40.3987 89.0553 40.317L85.1764 39.2654L88.5456 37.0492C88.8092 36.8754 88.9616 36.5724 88.9455 36.2545L88.7331 32.1891L91.8517 34.7528C92.0964 34.9533 92.4274 35.0068 92.7204 34.8924L96.4689 33.4308L95.0275 37.2304C94.9147 37.529 94.9675 37.8647 95.1652 38.1127L97.6935 41.2751L93.6843 41.0597ZM96.8498 37.3893L98.8185 32.1995C98.9929 31.7405 98.7673 31.2251 98.3161 31.0483C98.1125 30.9681 97.8869 30.9681 97.6833 31.0483L92.5636 33.0431L88.3039 29.5407C87.9274 29.2302 87.3737 29.2896 87.0675 29.6714C86.9298 29.8422 86.861 30.059 86.8727 30.2804L87.1628 35.8342L82.5617 38.8599C82.1544 39.1272 82.0387 39.6798 82.3024 40.0927C82.421 40.2784 82.6027 40.4121 82.8136 40.4685L88.1105 41.9049L89.527 47.2774C89.6178 47.6176 89.8962 47.8716 90.2389 47.928C90.5817 47.9815 90.923 47.827 91.1134 47.5329L94.0988 42.8674L99.5744 43.1615C100.059 43.1882 100.472 42.8109 100.499 42.3193C100.51 42.0994 100.442 41.8826 100.304 41.7103L96.8498 37.3893ZM66.3019 26.8506C66.069 27.0645 65.965 27.3869 66.0309 27.6988L66.8527 31.6083L63.4396 29.6075C63.1671 29.4486 62.8331 29.4486 62.5607 29.6075L59.1476 31.6083L59.9693 27.6988C60.0353 27.3869 59.9313 27.0645 59.6984 26.8506L56.7672 24.1785L60.6871 23.7626C61.0006 23.7299 61.2716 23.5294 61.399 23.2382L63.0001 19.5857L64.6012 23.2382C64.7286 23.5294 64.9996 23.7299 65.3131 23.7626L69.233 24.1785L66.3019 26.8506ZM72.1261 23.2249C72.0192 22.8892 71.7277 22.65 71.382 22.6144L66.0016 22.044L63.8029 17.0309C63.6066 16.5808 63.0895 16.3773 62.6456 16.5764C62.4449 16.6655 62.2853 16.8274 62.1974 17.0309L59.9986 22.044L54.6183 22.6144C54.1349 22.6649 53.7848 23.1031 53.8346 23.5932C53.8565 23.8131 53.9591 24.0166 54.1217 24.1636L58.1442 27.8325L57.0162 33.1976C56.9151 33.6789 57.2184 34.1527 57.693 34.2537C57.9054 34.2998 58.1266 34.2641 58.3155 34.1527L63.0001 31.4078L67.6847 34.1527C67.818 34.2314 67.9703 34.273 68.1242 34.273C68.609 34.273 69.0031 33.8735 69.0031 33.3818C69.0031 33.3194 68.9972 33.257 68.984 33.1961L67.8561 27.831L71.8786 24.1621C72.1364 23.926 72.233 23.5591 72.1261 23.2234V23.2249ZM81.466 81.5568C90.9479 71.2156 90.3664 55.0385 80.1681 45.4237C69.9699 35.8089 54.0162 36.3986 44.5343 46.7397C35.5372 56.5521 35.5372 71.7444 44.5343 81.5582C46.1881 74.5636 51.5494 69.0886 58.4357 67.3641C53.94 64.8077 52.339 59.0401 54.86 54.4815C57.381 49.9229 63.069 48.2994 67.5646 50.8557C72.0602 53.412 73.6613 59.1797 71.1403 63.7383C70.2994 65.2578 69.0631 66.5129 67.5646 67.3641C74.4508 69.0886 79.8122 74.5636 81.466 81.5582V81.5568ZM57.6505 64.5463C54.6959 61.5503 54.6944 56.6932 57.6505 53.6957C60.6066 50.6982 65.3951 50.6982 68.3512 53.6957C71.3058 56.6917 71.3073 61.5488 68.3512 64.5463C65.4347 67.5438 60.6769 67.575 57.7223 64.6191C57.6988 64.5953 57.6754 64.5716 57.652 64.5478L57.6505 64.5463ZM46.0255 83.054C46.6231 79.504 48.2975 76.2317 50.8155 73.6932C57.5494 66.8798 68.4508 66.8798 75.1847 73.6932C77.7028 76.2317 79.3771 79.504 79.9748 83.054C70.3536 91.938 55.6466 91.938 46.0255 83.054ZM43.9278 44.8102C33.3941 55.4915 33.3941 72.8079 43.9278 83.4892C54.4615 94.1705 71.5387 94.1705 82.0724 83.4892C92.6061 72.8079 92.6061 55.4915 82.0724 44.8102C71.5563 34.1453 54.444 34.1453 43.9278 44.8102Z" fill="white" stroke="white" stroke-width="1.5"/>
<defs>
<linearGradient id="paint0_linear_4011_22545" x1="63" y1="0" x2="63" y2="108" gradientUnits="userSpaceOnUse">
<stop stop-color="#1280C3"/>
<stop offset="1" stop-color="#00AB9E"/>
</linearGradient>
</defs>
</svg>
