<svg width="1280" height="2150" viewBox="0 0 1280 2150" fill="none" xmlns="http://www.w3.org/2000/svg">
<path d="M0 0H1280V2150H0V0Z" fill="url(#paint0_linear_4109_18267)"/>
<g opacity="0.2">
<path opacity="0.3" d="M1148.33 718.524L1190.37 738.631" stroke="#00AB9E" stroke-miterlimit="10"/>
<path opacity="0.3" d="M1086.06 665.526L1139.67 711.152" stroke="#00AB9E" stroke-miterlimit="10"/>
<path opacity="0.3" d="M1130.41 647.921L1049.13 585.171" stroke="#00AB9E" stroke-miterlimit="10"/>
<path opacity="0.3" d="M1170.49 678.865L1144.34 658.676" stroke="#00AB9E" stroke-miterlimit="10"/>
<path opacity="0.3" d="M1148.52 710.955L1170.79 691.035" stroke="#00AB9E" stroke-miterlimit="10"/>
<path opacity="0.3" d="M1121.44 735.185L1139.55 718.98" stroke="#00AB9E" stroke-miterlimit="10"/>
<path opacity="0.3" d="M1136.16 644.868L1125.43 550.387" stroke="#00AB9E" stroke-miterlimit="10"/>
<path opacity="0.3" d="M1143.46 709.142L1138.13 662.207" stroke="#00AB9E" stroke-miterlimit="10"/>
<path opacity="0.3" d="M1150.08 767.397L1144.8 720.922" stroke="#00AB9E" stroke-miterlimit="10"/>
<path opacity="0.3" d="M1043.76 583.233C1041.82 584.202 1039.47 583.416 1038.5 581.48C1037.53 579.543 1038.32 577.189 1040.25 576.221C1042.19 575.253 1044.55 576.038 1045.51 577.974C1046.48 579.911 1045.7 582.265 1043.76 583.233Z" fill="#00A99D" stroke="#00AB9E"/>
<path opacity="0.3" d="M1034.14 583.659C1036.31 588.005 1041.59 589.767 1045.94 587.594C1050.29 585.422 1052.05 580.137 1049.88 575.791C1047.7 571.445 1042.42 569.683 1038.07 571.856C1033.73 574.029 1031.96 579.313 1034.14 583.659Z" fill="#00A99D" stroke="#00AB9E" stroke-miterlimit="10"/>
<path opacity="0.3" d="M1078.35 661.72C1075.7 663.044 1072.48 661.97 1071.15 659.322C1069.83 656.674 1070.9 653.454 1073.55 652.13C1076.2 650.806 1079.42 651.88 1080.74 654.528C1082.07 657.176 1080.99 660.396 1078.35 661.72Z" fill="#00A99D" stroke="#00AB9E"/>
<path opacity="0.3" d="M1064.07 662.862C1067.35 669.421 1075.33 672.08 1081.89 668.801C1088.44 665.521 1091.1 657.546 1087.82 650.986C1084.55 644.427 1076.57 641.768 1070.01 645.047C1063.45 648.326 1060.79 656.302 1064.07 662.862Z" fill="#00A99D" stroke="#00AB9E" stroke-miterlimit="10"/>
<path opacity="0.3" d="M1155.05 787.701C1151.25 789.599 1146.63 788.06 1144.73 784.262C1142.83 780.465 1144.37 775.847 1148.17 773.948C1151.97 772.05 1156.58 773.589 1158.48 777.387C1160.38 781.184 1158.84 785.802 1155.05 787.701Z" fill="#00A99D" stroke="#00AB9E"/>
<path opacity="0.3" d="M1139.73 786.764C1143.01 793.323 1150.99 795.982 1157.55 792.703C1164.1 789.424 1166.76 781.448 1163.48 774.889C1160.21 768.329 1152.23 765.67 1145.67 768.949C1139.11 772.229 1136.45 780.204 1139.73 786.764Z" fill="#00A99D" stroke="#00AB9E" stroke-miterlimit="10"/>
<path opacity="0.3" d="M1117.08 743.208C1115.62 743.938 1113.84 743.346 1113.11 741.886C1112.38 740.425 1112.97 738.649 1114.43 737.919C1115.89 737.189 1117.67 737.781 1118.4 739.241C1119.13 740.702 1118.54 742.478 1117.08 743.208Z" fill="#00A99D" stroke="#00AB9E"/>
<path opacity="0.3" d="M1108.75 744.068C1110.68 747.936 1115.39 749.505 1119.26 747.571C1123.13 745.636 1124.69 740.932 1122.76 737.064C1120.83 733.195 1116.12 731.627 1112.25 733.561C1108.38 735.495 1106.82 740.199 1108.75 744.068Z" fill="#00A99D" stroke="#00AB9E" stroke-miterlimit="10"/>
<path opacity="0.3" d="M1196.25 745.306C1194.79 746.036 1193.02 745.444 1192.29 743.983C1191.56 742.523 1192.15 740.747 1193.61 740.016C1195.07 739.286 1196.84 739.878 1197.58 741.339C1198.31 742.8 1197.71 744.576 1196.25 745.306Z" fill="#00A99D" stroke="#00AB9E"/>
<path opacity="0.3" d="M1189.48 745.384C1190.99 748.392 1194.64 749.611 1197.65 748.108C1200.66 746.604 1201.88 742.946 1200.38 739.939C1198.87 736.931 1195.21 735.711 1192.21 737.215C1189.2 738.719 1187.98 742.376 1189.48 745.384Z" fill="#00A99D" stroke="#00AB9E" stroke-miterlimit="10"/>
<path opacity="0.3" d="M1126 545.068C1124.54 545.798 1122.77 545.206 1122.04 543.745C1121.31 542.284 1121.9 540.508 1123.36 539.778C1124.82 539.048 1126.59 539.64 1127.33 541.101C1128.06 542.561 1127.46 544.337 1126 545.068Z" fill="#00A99D" stroke="#00AB9E"/>
<path opacity="0.3" d="M1117.68 545.923C1119.61 549.792 1124.31 551.36 1128.18 549.426C1132.05 547.492 1133.62 542.788 1131.69 538.919C1129.75 535.05 1125.05 533.482 1121.18 535.416C1117.31 537.35 1115.74 542.054 1117.68 545.923Z" fill="#00A99D" stroke="#00AB9E" stroke-miterlimit="10"/>
<path opacity="0.3" d="M1145.07 716.886C1144 717.419 1142.7 716.987 1142.17 715.921C1141.64 714.855 1142.07 713.559 1143.14 713.026C1144.2 712.493 1145.5 712.926 1146.03 713.991C1146.56 715.057 1146.13 716.353 1145.07 716.886Z" fill="#00A99D" stroke="#00AB9E"/>
<path opacity="0.3" d="M1139.15 717.433C1140.52 720.168 1143.84 721.277 1146.58 719.909C1149.31 718.542 1150.42 715.216 1149.05 712.48C1147.69 709.745 1144.36 708.636 1141.63 710.004C1138.89 711.371 1137.78 714.697 1139.15 717.433Z" fill="#00A99D" stroke="#00AB9E" stroke-miterlimit="10"/>
<path opacity="0.3" d="M1179.71 688.185C1177.81 689.134 1175.5 688.365 1174.55 686.466C1173.6 684.568 1174.37 682.26 1176.27 681.311C1178.17 680.362 1180.48 681.132 1181.42 683.03C1182.37 684.928 1181.6 687.236 1179.71 688.185Z" fill="#00A99D" stroke="#00AB9E"/>
<path opacity="0.3" d="M1169.8 688.845C1172.06 693.367 1177.56 695.2 1182.08 692.939C1186.6 690.679 1188.44 685.18 1186.18 680.657C1183.91 676.135 1178.42 674.302 1173.89 676.562C1169.37 678.823 1167.54 684.322 1169.8 688.845Z" fill="#00A99D" stroke="#00AB9E" stroke-miterlimit="10"/>
<path opacity="0.3" d="M1138.99 656.72C1137.09 657.669 1134.78 656.9 1133.84 655.002C1132.89 653.103 1133.66 650.795 1135.55 649.846C1137.45 648.897 1139.76 649.667 1140.71 651.565C1141.66 653.463 1140.89 655.771 1138.99 656.72Z" fill="#00A99D" stroke="#00AB9E"/>
<path opacity="0.3" d="M1129.79 657.026C1131.85 661.158 1136.88 662.834 1141.01 660.768C1145.14 658.702 1146.82 653.677 1144.75 649.545C1142.69 645.412 1137.66 643.737 1133.53 645.803C1129.4 647.869 1127.72 652.894 1129.79 657.026Z" fill="#00A99D" stroke="#00AB9E" stroke-miterlimit="10"/>
<path opacity="0.3" d="M1242.36 964.6L1254.07 929.312" stroke="#00AB9E" stroke-miterlimit="10"/>
<path opacity="0.3" d="M1216.62 1042.22L1238.79 975.398" stroke="#00AB9E" stroke-miterlimit="10"/>
<path opacity="0.3" d="M1197.29 958.953L1188.39 990.77" stroke="#00AB9E" stroke-miterlimit="10"/>
<path opacity="0.3" d="M1235.14 967.204L1208.46 954.111" stroke="#00AB9E" stroke-miterlimit="10"/>
<path opacity="0.3" d="M1267.9 983.275L1246.08 972.572" stroke="#00AB9E" stroke-miterlimit="10"/>
<path opacity="0.3" d="M1235.49 972.637L1193.99 995.2" stroke="#00AB9E" stroke-miterlimit="10"/>
<path opacity="0.3" d="M1287 944.629L1245.91 966.971" stroke="#00AB9E" stroke-miterlimit="10"/>
<path opacity="0.3" d="M1214.84 1059.61C1212.19 1060.93 1208.97 1059.86 1207.65 1057.21C1206.33 1054.56 1207.4 1051.34 1210.05 1050.02C1212.7 1048.7 1215.92 1049.77 1217.24 1052.42C1218.56 1055.07 1217.49 1058.29 1214.84 1059.61Z" fill="#00A99D" stroke="#00AB9E"/>
<g opacity="0.3">
<path d="M1204.04 1044.54C1205.39 1043.42 1206.94 1042.59 1208.62 1042.08C1210.29 1041.57 1212.04 1041.4 1213.78 1041.57C1215.52 1041.74 1217.21 1042.25 1218.75 1043.08C1220.29 1043.9 1221.66 1045.03 1222.76 1046.38C1223.87 1047.73 1224.7 1049.29 1225.2 1050.97C1225.7 1052.64 1225.87 1054.4 1225.69 1056.14C1225.51 1057.88 1224.99 1059.56 1224.16 1061.1C1223.33 1062.64 1222.2 1064 1220.85 1065.1" fill="#00A99D"/>
<path d="M1204.04 1044.54C1205.39 1043.42 1206.94 1042.59 1208.62 1042.08C1210.29 1041.57 1212.04 1041.4 1213.78 1041.57C1215.52 1041.74 1217.21 1042.25 1218.75 1043.08C1220.29 1043.9 1221.66 1045.03 1222.76 1046.38C1223.87 1047.73 1224.7 1049.29 1225.2 1050.97C1225.7 1052.64 1225.87 1054.4 1225.69 1056.14C1225.51 1057.88 1224.99 1059.56 1224.16 1061.1C1223.33 1062.64 1222.2 1064 1220.85 1065.1" stroke="#00AB9E" stroke-miterlimit="10"/>
</g>
<path opacity="0.3" d="M1276.34 989.165C1274.88 989.895 1273.11 989.303 1272.38 987.843C1271.65 986.382 1272.24 984.606 1273.7 983.876C1275.16 983.146 1276.93 983.738 1277.66 985.198C1278.4 986.659 1277.8 988.435 1276.34 989.165Z" fill="#00A99D" stroke="#00AB9E"/>
<path opacity="0.3" d="M1268.02 990.025C1269.95 993.893 1274.65 995.462 1278.52 993.528C1282.39 991.593 1283.96 986.889 1282.03 983.021C1280.09 979.152 1275.39 977.584 1271.52 979.518C1267.65 981.452 1266.08 986.156 1268.02 990.025Z" fill="#00A99D" stroke="#00AB9E" stroke-miterlimit="10"/>
<path opacity="0.3" d="M1257.41 926.224C1255.95 926.954 1254.17 926.362 1253.44 924.901C1252.71 923.441 1253.3 921.665 1254.76 920.934C1256.23 920.204 1258 920.796 1258.73 922.257C1259.46 923.718 1258.87 925.494 1257.41 926.224Z" fill="#00A99D" stroke="#00AB9E"/>
<path opacity="0.3" d="M1250.64 926.298C1252.15 929.306 1255.8 930.525 1258.81 929.022C1261.82 927.518 1263.04 923.861 1261.54 920.853C1260.03 917.845 1256.37 916.625 1253.37 918.129C1250.36 919.633 1249.14 923.29 1250.64 926.298Z" fill="#00A99D" stroke="#00AB9E" stroke-miterlimit="10"/>
<path opacity="0.3" d="M1241.61 971.793C1240.54 972.325 1239.25 971.893 1238.71 970.827C1238.18 969.762 1238.61 968.465 1239.68 967.933C1240.74 967.4 1242.04 967.832 1242.57 968.898C1243.11 969.964 1242.67 971.26 1241.61 971.793Z" fill="#00A99D" stroke="#00AB9E"/>
<path opacity="0.3" d="M1235.69 972.339C1237.06 975.074 1240.39 976.183 1243.12 974.816C1245.86 973.448 1246.96 970.122 1245.6 967.387C1244.23 964.651 1240.9 963.542 1238.17 964.91C1235.43 966.277 1234.32 969.603 1235.69 972.339Z" fill="#00A99D" stroke="#00AB9E" stroke-miterlimit="10"/>
<path opacity="0.3" d="M1201.64 953.232C1199.74 954.181 1197.44 953.412 1196.49 951.513C1195.54 949.615 1196.31 947.307 1198.21 946.358C1200.1 945.409 1202.41 946.178 1203.36 948.077C1204.31 949.975 1203.54 952.283 1201.64 953.232Z" fill="#00A99D" stroke="#00AB9E"/>
<path opacity="0.3" d="M1191.74 953.892C1194 958.414 1199.5 960.247 1204.02 957.986C1208.54 955.725 1210.37 950.227 1208.11 945.704C1205.85 941.182 1200.35 939.348 1195.83 941.609C1191.31 943.87 1189.48 949.369 1191.74 953.892Z" fill="#00A99D" stroke="#00AB9E" stroke-miterlimit="10"/>
<path opacity="0.3" d="M1187.77 1002.78C1185.87 1003.73 1183.56 1002.96 1182.61 1001.06C1181.66 999.166 1182.43 996.858 1184.33 995.909C1186.23 994.96 1188.54 995.729 1189.49 997.627C1190.44 999.526 1189.67 1001.83 1187.77 1002.78Z" fill="#00A99D" stroke="#00AB9E"/>
<path opacity="0.3" d="M1178.57 1003.09C1180.63 1007.22 1185.66 1008.9 1189.79 1006.83C1193.92 1004.76 1195.6 999.74 1193.53 995.607C1191.46 991.475 1186.44 989.8 1182.31 991.866C1178.17 993.932 1176.5 998.956 1178.57 1003.09Z" fill="#00A99D" stroke="#00AB9E" stroke-miterlimit="10"/>
<path opacity="0.3" d="M1315.59 882.931L1210 828.671" stroke="#00AB9E" stroke-miterlimit="10"/>
<path opacity="0.3" d="M1232.04 860.404L1289.95 927.785" stroke="#00AB9E" stroke-miterlimit="10"/>
<path opacity="0.3" d="M1207.58 831.954L1221.62 848.284" stroke="#00AB9E" stroke-miterlimit="10"/>
<path opacity="0.3" d="M1161.81 789.792L1192.69 816.895" stroke="#00AB9E" stroke-miterlimit="10"/>
<path opacity="0.3" d="M1224.64 862.16L1202.41 940.986" stroke="#00AB9E" stroke-miterlimit="10"/>
<path opacity="0.3" d="M1202.61 827.835C1200.41 828.936 1197.73 828.043 1196.63 825.842C1195.53 823.64 1196.42 820.964 1198.62 819.863C1200.82 818.762 1203.5 819.655 1204.6 821.856C1205.7 824.058 1204.81 826.735 1202.61 827.835Z" fill="#00A99D" stroke="#00AB9E"/>
<path opacity="0.3" d="M1191.56 828.375C1194.06 833.376 1200.14 835.403 1205.14 832.903C1210.14 830.403 1212.17 824.322 1209.67 819.321C1207.17 814.32 1201.09 812.292 1196.09 814.793C1191.09 817.293 1189.06 823.374 1191.56 828.375Z" fill="#00A99D" stroke="#00AB9E" stroke-miterlimit="10"/>
<path opacity="0.3" d="M1228.32 857.62C1226.57 858.497 1224.44 857.786 1223.56 856.033C1222.68 854.279 1223.39 852.147 1225.15 851.27C1226.9 850.393 1229.03 851.104 1229.91 852.858C1230.79 854.611 1230.08 856.744 1228.32 857.62Z" fill="#00A99D" stroke="#00AB9E"/>
<path opacity="0.3" d="M1219.95 857.839C1221.82 861.587 1226.38 863.106 1230.13 861.232C1233.88 859.359 1235.39 854.802 1233.52 851.055C1231.65 847.307 1227.09 845.788 1223.34 847.662C1219.6 849.535 1218.08 854.092 1219.95 857.839Z" fill="#00A99D" stroke="#00AB9E" stroke-miterlimit="10"/>
<path opacity="0.3" d="M1257.41 676.771L1237.11 657.971" stroke="#00AB9E" stroke-miterlimit="10"/>
<path opacity="0.3" d="M1302.04 718.12L1263.62 682.521" stroke="#00AB9E" stroke-miterlimit="10"/>
<path opacity="0.3" d="M1272.99 777.909L1297.77 780.731" stroke="#00AB9E" stroke-miterlimit="10"/>
<path opacity="0.3" d="M1207.68 719.269L1262.48 772.689" stroke="#00AB9E" stroke-miterlimit="10"/>
<path opacity="0.3" d="M1256.95 682.461L1209.55 708.745" stroke="#00AB9E" stroke-miterlimit="10"/>
<path opacity="0.3" d="M1321.58 630.121L1263.95 676.706" stroke="#00AB9E" stroke-miterlimit="10"/>
<path opacity="0.3" d="M1271.71 782.151L1316.12 821.34" stroke="#00AB9E" stroke-miterlimit="10"/>
<path opacity="0.3" d="M1260.73 683.898L1266.05 771.429" stroke="#00AB9E" stroke-miterlimit="10"/>
<path opacity="0.3" d="M1257.64 640.383L1260.11 675.101" stroke="#00AB9E" stroke-miterlimit="10"/>
<path opacity="0.3" d="M1259.42 635.352C1256.66 636.734 1253.3 635.614 1251.92 632.851C1250.54 630.088 1251.66 626.729 1254.42 625.348C1257.18 623.966 1260.54 625.086 1261.92 627.849C1263.3 630.612 1262.18 633.971 1259.42 635.352Z" fill="#00A99D" stroke="#00AB9E"/>
<path opacity="0.3" d="M1248.08 634.767C1250.52 639.648 1256.46 641.626 1261.34 639.186C1266.22 636.746 1268.2 630.812 1265.76 625.931C1263.32 621.05 1257.38 619.072 1252.5 621.512C1247.62 623.952 1245.64 629.887 1248.08 634.767Z" fill="#00A99D" stroke="#00AB9E" stroke-miterlimit="10"/>
<path opacity="0.3" d="M1234.78 656.686C1233.75 657.198 1232.51 656.783 1232 655.76C1231.48 654.736 1231.9 653.492 1232.92 652.98C1233.95 652.468 1235.19 652.883 1235.7 653.907C1236.21 654.93 1235.8 656.175 1234.78 656.686Z" fill="#00A99D" stroke="#00AB9E"/>
<path opacity="0.3" d="M1229.8 656.858C1230.92 659.096 1233.64 660.004 1235.87 658.885C1238.11 657.766 1239.02 655.044 1237.9 652.806C1236.78 650.568 1234.06 649.661 1231.82 650.78C1229.58 651.899 1228.68 654.62 1229.8 656.858Z" fill="#00A99D" stroke="#00AB9E" stroke-miterlimit="10"/>
<path opacity="0.3" d="M1260.98 828.452C1259.96 828.964 1258.71 828.549 1258.2 827.525C1257.69 826.502 1258.1 825.257 1259.13 824.746C1260.15 824.234 1261.39 824.649 1261.91 825.672C1262.42 826.696 1262 827.94 1260.98 828.452Z" fill="#00A99D" stroke="#00AB9E"/>
<path opacity="0.3" d="M1256 828.628C1257.12 830.866 1259.84 831.773 1262.08 830.654C1264.32 829.535 1265.23 826.814 1264.11 824.576C1262.99 822.338 1260.27 821.43 1258.03 822.549C1255.79 823.668 1254.88 826.39 1256 828.628Z" fill="#00A99D" stroke="#00AB9E" stroke-miterlimit="10"/>
<path opacity="0.3" d="M1261.1 680.877C1260.37 681.242 1259.48 680.946 1259.12 680.216C1258.75 679.487 1259.05 678.599 1259.78 678.234C1260.51 677.869 1261.4 678.165 1261.76 678.895C1262.13 679.625 1261.83 680.513 1261.1 680.877Z" fill="#00A99D" stroke="#00AB9E"/>
<path opacity="0.3" d="M1256.76 681.398C1257.77 683.434 1260.25 684.259 1262.28 683.242C1264.32 682.224 1265.15 679.749 1264.13 677.713C1263.11 675.678 1260.63 674.852 1258.6 675.87C1256.56 676.888 1255.74 679.363 1256.76 681.398Z" fill="#00A99D" stroke="#00AB9E" stroke-miterlimit="10"/>
<path opacity="0.3" d="M1205.22 715.639C1203.87 716.314 1202.23 715.767 1201.56 714.417C1200.88 713.068 1201.43 711.427 1202.78 710.752C1204.13 710.077 1205.77 710.624 1206.44 711.974C1207.12 713.323 1206.57 714.964 1205.22 715.639Z" fill="#00A99D" stroke="#00AB9E"/>
<path opacity="0.3" d="M1197.91 716.241C1199.59 719.606 1203.68 720.97 1207.05 719.288C1210.41 717.605 1211.78 713.513 1210.09 710.148C1208.41 706.783 1204.32 705.419 1200.95 707.101C1197.59 708.783 1196.22 712.875 1197.91 716.241Z" fill="#00A99D" stroke="#00AB9E" stroke-miterlimit="10"/>
<path opacity="0.3" d="M1267.63 780.534C1266.28 781.208 1264.64 780.661 1263.97 779.312C1263.29 777.962 1263.84 776.321 1265.19 775.646C1266.54 774.972 1268.18 775.519 1268.85 776.868C1269.53 778.218 1268.98 779.859 1267.63 780.534Z" fill="#00A99D" stroke="#00AB9E"/>
<path opacity="0.3" d="M1260.84 780.874C1262.38 783.949 1266.12 785.195 1269.19 783.658C1272.27 782.121 1273.51 778.381 1271.98 775.306C1270.44 772.231 1266.7 770.985 1263.62 772.522C1260.55 774.059 1259.3 777.798 1260.84 780.874Z" fill="#00A99D" stroke="#00AB9E" stroke-miterlimit="10"/>
<path opacity="0.3" d="M1302.9 732.77L1270.52 772.982" stroke="#00AB9E" stroke-miterlimit="10"/>
<path opacity="0.3" d="M1265.52 784.66L1260.7 821.658" stroke="#00AB9E" stroke-miterlimit="10"/>
<path opacity="0.3" d="M1269.34 784.101L1319.86 879.129" stroke="#00AB9E" stroke-miterlimit="10"/>
<path opacity="0.3" d="M1209.34 817.785L1261.05 781.828" stroke="#00AB9E" stroke-miterlimit="10"/>
<path opacity="0.3" d="M1259.94 778.253L1165.41 780.506" stroke="#00AB9E" stroke-miterlimit="10"/>
<path opacity="0.3" d="M1199.06 707.8L1184.52 691.905" stroke="#00AB9E" stroke-miterlimit="10"/>
<path opacity="0.3" d="M1196.74 713.42L1150.03 714.794" stroke="#00AB9E" stroke-miterlimit="10"/>
<path opacity="0.3" d="M1218.99 855.067L1162.56 859.578" stroke="#00AB9E" stroke-miterlimit="10"/>
<path opacity="0.3" d="M1157.38 862.857C1155.92 863.587 1154.14 862.995 1153.41 861.534C1152.68 860.073 1153.28 858.297 1154.74 857.567C1156.2 856.837 1157.97 857.429 1158.7 858.89C1159.43 860.35 1158.84 862.126 1157.38 862.857Z" fill="#00A99D" stroke="#00AB9E"/>
<path opacity="0.3" d="M1150.61 862.935C1152.12 865.943 1155.77 867.162 1158.78 865.658C1161.79 864.155 1163.01 860.497 1161.5 857.489C1160 854.481 1156.34 853.262 1153.33 854.766C1150.33 856.27 1149.11 859.927 1150.61 862.935Z" fill="#00A99D" stroke="#00AB9E" stroke-miterlimit="10"/>
<path opacity="0.3" d="M1161.22 856.295L1192.3 830.156" stroke="#00AB9E" stroke-miterlimit="10"/>
<path opacity="0.3" d="M1160.67 770.369L1190.65 747.617" stroke="#00AB9E" stroke-miterlimit="10"/>
</g>
<g opacity="0.2">
<path opacity="0.3" d="M142.882 1222.41L87.5547 1245.93" stroke="#00AB9E" stroke-miterlimit="10"/>
<path opacity="0.3" d="M264.572 1170.66L159.809 1215.21" stroke="#00AB9E" stroke-miterlimit="10"/>
<path opacity="0.3" d="M257.965 1247.54L407.505 1175.36" stroke="#00AB9E" stroke-miterlimit="10"/>
<path opacity="0.3" d="M184.223 1283.14L232.337 1259.91" stroke="#00AB9E" stroke-miterlimit="10"/>
<path opacity="0.3" d="M153.754 1228.38L166.402 1274.76" stroke="#00AB9E" stroke-miterlimit="10"/>
<path opacity="0.3" d="M138.23 1171.46L148.572 1209.38" stroke="#00AB9E" stroke-miterlimit="10"/>
<path opacity="0.3" d="M258.223 1258.07L402.649 1310.87" stroke="#00AB9E" stroke-miterlimit="10"/>
<path opacity="0.3" d="M159.973 1222.15L231.718 1248.38" stroke="#00AB9E" stroke-miterlimit="10"/>
<path opacity="0.3" d="M70.9258 1189.6L141.969 1215.57" stroke="#00AB9E" stroke-miterlimit="10"/>
<path opacity="0.3" d="M427.188 1168.98C427.188 1172.65 424.211 1175.63 420.539 1175.63C416.867 1175.63 413.891 1172.65 413.891 1168.98C413.891 1165.31 416.867 1162.33 420.539 1162.33C424.211 1162.33 427.188 1165.31 427.188 1168.98Z" fill="#00A99D" stroke="#00AB9E"/>
<path opacity="0.3" d="M420.539 1183.21C428.397 1183.21 434.766 1176.84 434.766 1168.98C434.766 1161.12 428.397 1154.75 420.539 1154.75C412.682 1154.75 406.312 1161.12 406.312 1168.98C406.312 1176.84 412.682 1183.21 420.539 1183.21Z" fill="#00A99D" stroke="#00AB9E" stroke-miterlimit="10"/>
<path opacity="0.3" d="M293.307 1162.26C293.307 1167.21 289.288 1171.23 284.33 1171.23C279.371 1171.23 275.352 1167.21 275.352 1162.26C275.352 1157.3 279.371 1153.28 284.33 1153.28C289.288 1153.28 293.307 1157.3 293.307 1162.26Z" fill="#00A99D" stroke="#00AB9E"/>
<path opacity="0.3" d="M284.329 1183.73C296.188 1183.73 305.802 1174.11 305.802 1162.25C305.802 1150.4 296.188 1140.78 284.329 1140.78C272.469 1140.78 262.855 1150.4 262.855 1162.25C262.855 1174.11 272.469 1183.73 284.329 1183.73Z" fill="#00A99D" stroke="#00AB9E" stroke-miterlimit="10"/>
<path opacity="0.3" d="M63.1368 1182.09C63.1368 1189.13 57.4328 1194.83 50.3965 1194.83C43.3603 1194.83 37.6562 1189.13 37.6562 1182.09C37.6562 1175.06 43.3603 1169.35 50.3965 1169.35C57.4328 1169.35 63.1368 1175.06 63.1368 1182.09Z" fill="#00A99D" stroke="#00AB9E"/>
<path opacity="0.3" d="M50.3992 1203.57C62.2586 1203.57 71.8726 1193.95 71.8726 1182.09C71.8726 1170.24 62.2586 1160.62 50.3992 1160.62C38.5398 1160.62 28.9258 1170.24 28.9258 1182.09C28.9258 1193.95 38.5398 1203.57 50.3992 1203.57Z" fill="#00A99D" stroke="#00AB9E" stroke-miterlimit="10"/>
<path opacity="0.3" d="M139.652 1159.35C139.652 1162.16 137.374 1164.44 134.562 1164.44C131.751 1164.44 129.473 1162.16 129.473 1159.35C129.473 1156.54 131.751 1154.26 134.562 1154.26C137.374 1154.26 139.652 1156.54 139.652 1159.35Z" fill="#00A99D" stroke="#00AB9E"/>
<path opacity="0.3" d="M134.563 1172.01C141.557 1172.01 147.227 1166.34 147.227 1159.34C147.227 1152.35 141.557 1146.68 134.563 1146.68C127.568 1146.68 121.898 1152.35 121.898 1159.34C121.898 1166.34 127.568 1172.01 134.563 1172.01Z" fill="#00A99D" stroke="#00AB9E" stroke-miterlimit="10"/>
<path opacity="0.3" d="M83.5195 1249.61C83.5195 1252.42 81.2407 1254.7 78.4297 1254.7C75.6186 1254.7 73.3398 1252.42 73.3398 1249.61C73.3398 1246.8 75.6186 1244.52 78.4297 1244.52C81.2407 1244.52 83.5195 1246.8 83.5195 1249.61Z" fill="#00A99D" stroke="#00AB9E"/>
<path opacity="0.3" d="M78.4321 1259.46C83.8699 1259.46 88.2782 1255.05 88.2782 1249.61C88.2782 1244.17 83.8699 1239.77 78.4321 1239.77C72.9942 1239.77 68.5859 1244.17 68.5859 1249.61C68.5859 1255.05 72.9942 1259.46 78.4321 1259.46Z" fill="#00A99D" stroke="#00AB9E" stroke-miterlimit="10"/>
<path opacity="0.3" d="M419.801 1315.54C419.801 1318.35 417.522 1320.63 414.711 1320.63C411.9 1320.63 409.621 1318.35 409.621 1315.54C409.621 1312.73 411.9 1310.45 414.711 1310.45C417.522 1310.45 419.801 1312.73 419.801 1315.54Z" fill="#00A99D" stroke="#00AB9E"/>
<path opacity="0.3" d="M414.711 1328.21C421.705 1328.21 427.375 1322.54 427.375 1315.54C427.375 1308.55 421.705 1302.88 414.711 1302.88C407.717 1302.88 402.047 1308.55 402.047 1315.54C402.047 1322.54 407.717 1328.21 414.711 1328.21Z" fill="#00A99D" stroke="#00AB9E" stroke-miterlimit="10"/>
<path opacity="0.3" d="M154.902 1218.87C154.902 1220.96 153.201 1222.66 151.103 1222.66C149.005 1222.66 147.305 1220.96 147.305 1218.87C147.305 1216.77 149.005 1215.07 151.103 1215.07C153.201 1215.07 154.902 1216.77 154.902 1218.87Z" fill="#00A99D" stroke="#00AB9E"/>
<path opacity="0.3" d="M151.103 1227.82C156.049 1227.82 160.058 1223.81 160.058 1218.87C160.058 1213.92 156.049 1209.91 151.103 1209.91C146.158 1209.91 142.148 1213.92 142.148 1218.87C142.148 1223.81 146.158 1227.82 151.103 1227.82Z" fill="#00A99D" stroke="#00AB9E" stroke-miterlimit="10"/>
<path opacity="0.3" d="M176.814 1289.73C176.814 1293.33 173.893 1296.25 170.29 1296.25C166.687 1296.25 163.766 1293.33 163.766 1289.73C163.766 1286.12 166.687 1283.2 170.29 1283.2C173.893 1283.2 176.814 1286.12 176.814 1289.73Z" fill="#00A99D" stroke="#00AB9E"/>
<path opacity="0.3" d="M170.289 1304.53C178.465 1304.53 185.093 1297.9 185.093 1289.73C185.093 1281.55 178.465 1274.92 170.289 1274.92C162.112 1274.92 155.484 1281.55 155.484 1289.73C155.484 1297.9 162.112 1304.53 170.289 1304.53Z" fill="#00A99D" stroke="#00AB9E" stroke-miterlimit="10"/>
<path opacity="0.3" d="M251.771 1253.59C251.771 1257.19 248.85 1260.11 245.247 1260.11C241.644 1260.11 238.723 1257.19 238.723 1253.59C238.723 1249.98 241.644 1247.06 245.247 1247.06C248.85 1247.06 251.771 1249.98 251.771 1253.59Z" fill="#00A99D" stroke="#00AB9E"/>
<path opacity="0.3" d="M245.25 1267.11C252.721 1267.11 258.778 1261.06 258.778 1253.59C258.778 1246.12 252.721 1240.06 245.25 1240.06C237.779 1240.06 231.723 1246.12 231.723 1253.59C231.723 1261.06 237.779 1267.11 245.25 1267.11Z" fill="#00A99D" stroke="#00AB9E" stroke-miterlimit="10"/>
<path opacity="0.3" d="M222.807 1463.99L180.227 1421.55" stroke="#00AB9E" stroke-miterlimit="10"/>
<path opacity="0.3" d="M316.458 1557.35L235.832 1476.98" stroke="#00AB9E" stroke-miterlimit="10"/>
<path opacity="0.3" d="M182.035 1525.11L221.626 1560.98" stroke="#00AB9E" stroke-miterlimit="10"/>
<path opacity="0.3" d="M221.351 1476.32L183.113 1505.45" stroke="#00AB9E" stroke-miterlimit="10"/>
<path opacity="0.3" d="M268.281 1440.55L237.02 1464.38" stroke="#00AB9E" stroke-miterlimit="10"/>
<path opacity="0.3" d="M229.457 1479.74L232.084 1556.08" stroke="#00AB9E" stroke-miterlimit="10"/>
<path opacity="0.3" d="M226.195 1384.98L228.796 1460.58" stroke="#00AB9E" stroke-miterlimit="10"/>
<path opacity="0.3" d="M340.643 1572.51C340.643 1577.47 336.624 1581.49 331.665 1581.49C326.707 1581.49 322.688 1577.47 322.688 1572.51C322.688 1567.55 326.707 1563.53 331.665 1563.53C336.624 1563.53 340.643 1567.55 340.643 1572.51Z" fill="#00A99D" stroke="#00AB9E"/>
<g opacity="0.3">
<path d="M310.717 1577.23C310.097 1574.48 310.025 1571.63 310.505 1568.85C310.985 1566.07 312.007 1563.42 313.514 1561.03C315.021 1558.65 316.983 1556.59 319.287 1554.96C321.592 1553.34 324.194 1552.18 326.944 1551.56C329.695 1550.94 332.542 1550.87 335.32 1551.35C338.099 1551.83 340.756 1552.85 343.14 1554.36C345.523 1555.87 347.587 1557.83 349.212 1560.13C350.838 1562.44 351.993 1565.04 352.613 1567.79" fill="#00A99D"/>
<path d="M310.717 1577.23C310.097 1574.48 310.025 1571.63 310.505 1568.85C310.985 1566.07 312.007 1563.42 313.514 1561.03C315.021 1558.65 316.983 1556.59 319.287 1554.96C321.592 1553.34 324.194 1552.18 326.944 1551.56C329.695 1550.94 332.542 1550.87 335.32 1551.35C338.099 1551.83 340.756 1552.85 343.14 1554.36C345.523 1555.87 347.587 1557.83 349.212 1560.13C350.838 1562.44 351.993 1565.04 352.613 1567.79" stroke="#00AB9E" stroke-miterlimit="10"/>
</g>
<path opacity="0.3" d="M238.184 1363.14C238.184 1370.17 232.48 1375.88 225.443 1375.88C218.407 1375.88 212.703 1370.17 212.703 1363.14C212.703 1356.1 218.407 1350.4 225.443 1350.4C232.48 1350.4 238.184 1356.1 238.184 1363.14Z" fill="#00A99D" stroke="#00AB9E"/>
<path opacity="0.3" d="M225.446 1384.61C237.305 1384.61 246.919 1375 246.919 1363.14C246.919 1351.28 237.305 1341.67 225.446 1341.67C213.587 1341.67 203.973 1351.28 203.973 1363.14C203.973 1375 213.587 1384.61 225.446 1384.61Z" fill="#00A99D" stroke="#00AB9E" stroke-miterlimit="10"/>
<path opacity="0.3" d="M283.215 1432.61C283.215 1435.42 280.936 1437.7 278.125 1437.7C275.314 1437.7 273.035 1435.42 273.035 1432.61C273.035 1429.79 275.314 1427.52 278.125 1427.52C280.936 1427.52 283.215 1429.79 283.215 1432.61Z" fill="#00A99D" stroke="#00AB9E"/>
<path opacity="0.3" d="M278.125 1445.27C285.119 1445.27 290.789 1439.6 290.789 1432.61C290.789 1425.61 285.119 1419.94 278.125 1419.94C271.131 1419.94 265.461 1425.61 265.461 1432.61C265.461 1439.6 271.131 1445.27 278.125 1445.27Z" fill="#00A99D" stroke="#00AB9E" stroke-miterlimit="10"/>
<path opacity="0.3" d="M178.48 1414.47C178.48 1417.28 176.202 1419.56 173.391 1419.56C170.58 1419.56 168.301 1417.28 168.301 1414.47C168.301 1411.66 170.58 1409.38 173.391 1409.38C176.202 1409.38 178.48 1411.66 178.48 1414.47Z" fill="#00A99D" stroke="#00AB9E"/>
<path opacity="0.3" d="M173.389 1424.32C178.827 1424.32 183.235 1419.91 183.235 1414.47C183.235 1409.03 178.827 1404.62 173.389 1404.62C167.951 1404.62 163.543 1409.03 163.543 1414.47C163.543 1419.91 167.951 1424.32 173.389 1424.32Z" fill="#00A99D" stroke="#00AB9E" stroke-miterlimit="10"/>
<path opacity="0.3" d="M232.972 1470.29C232.972 1472.38 231.272 1474.09 229.174 1474.09C227.076 1474.09 225.375 1472.38 225.375 1470.29C225.375 1468.19 227.076 1466.49 229.174 1466.49C231.272 1466.49 232.972 1468.19 232.972 1470.29Z" fill="#00A99D" stroke="#00AB9E"/>
<path opacity="0.3" d="M229.17 1479.24C234.115 1479.24 238.125 1475.23 238.125 1470.28C238.125 1465.34 234.115 1461.33 229.17 1461.33C224.224 1461.33 220.215 1465.34 220.215 1470.28C220.215 1475.23 224.224 1479.24 229.17 1479.24Z" fill="#00A99D" stroke="#00AB9E" stroke-miterlimit="10"/>
<path opacity="0.3" d="M177.224 1514.68C177.224 1518.28 174.303 1521.2 170.7 1521.2C167.097 1521.2 164.176 1518.28 164.176 1514.68C164.176 1511.07 167.097 1508.15 170.7 1508.15C174.303 1508.15 177.224 1511.07 177.224 1514.68Z" fill="#00A99D" stroke="#00AB9E"/>
<path opacity="0.3" d="M170.699 1529.48C178.875 1529.48 185.503 1522.85 185.503 1514.68C185.503 1506.5 178.875 1499.87 170.699 1499.87C162.523 1499.87 155.895 1506.5 155.895 1514.68C155.895 1522.85 162.523 1529.48 170.699 1529.48Z" fill="#00A99D" stroke="#00AB9E" stroke-miterlimit="10"/>
<path opacity="0.3" d="M238.864 1570.58C238.864 1574.18 235.944 1577.1 232.34 1577.1C228.737 1577.1 225.816 1574.18 225.816 1570.58C225.816 1566.98 228.737 1564.05 232.34 1564.05C235.944 1564.05 238.864 1566.98 238.864 1570.58Z" fill="#00A99D" stroke="#00AB9E"/>
<path opacity="0.3" d="M232.336 1584.11C239.807 1584.11 245.864 1578.05 245.864 1570.58C245.864 1563.11 239.807 1557.05 232.336 1557.05C224.865 1557.05 218.809 1563.11 218.809 1570.58C218.809 1578.05 224.865 1584.11 232.336 1584.11Z" fill="#00A99D" stroke="#00AB9E" stroke-miterlimit="10"/>
<path opacity="0.3" d="M157.625 1299.01L2.78516 1412.5" stroke="#00AB9E" stroke-miterlimit="10"/>
<path opacity="0.3" d="M212.259 1345.59L179.719 1302.27" stroke="#00AB9E" stroke-miterlimit="10"/>
<path opacity="0.3" d="M246.922 1357.74L414.716 1315.54" stroke="#00AB9E" stroke-miterlimit="10"/>
<path opacity="0.3" d="M64.6211 1403.58L203.964 1368.54" stroke="#00AB9E" stroke-miterlimit="10"/>
<path opacity="0.3" d="M5.78516 1418.38L39.5559 1409.89" stroke="#00AB9E" stroke-miterlimit="10"/>
<path opacity="0.3" d="M61.8125 1415.54L159.753 1504.71" stroke="#00AB9E" stroke-miterlimit="10"/>
<path opacity="0.3" d="M-10.9793 1438.97C-1.9372 1438.97 5.39289 1431.64 5.39289 1422.59C5.39289 1413.55 -1.9372 1406.22 -10.9793 1406.22C-20.0215 1406.22 -27.3516 1413.55 -27.3516 1422.59C-27.3516 1431.64 -20.0215 1438.97 -10.9793 1438.97Z" fill="#00A99D" stroke="#00AB9E" stroke-miterlimit="10"/>
<path opacity="0.3" d="M58.2144 1406.94C58.2144 1410.28 55.5064 1412.99 52.1658 1412.99C48.8252 1412.99 46.1172 1410.28 46.1172 1406.94C46.1172 1403.6 48.8252 1400.89 52.1658 1400.89C55.5064 1400.89 58.2144 1403.6 58.2144 1406.94Z" fill="#00A99D" stroke="#00AB9E"/>
<path opacity="0.3" d="M52.1667 1419.2C58.9422 1419.2 64.4349 1413.71 64.4349 1406.94C64.4349 1400.16 58.9422 1394.67 52.1667 1394.67C45.3911 1394.67 39.8984 1400.16 39.8984 1406.94C39.8984 1413.71 45.3911 1419.2 52.1667 1419.2Z" fill="#00A99D" stroke="#00AB9E" stroke-miterlimit="10"/>
<path opacity="0.3" d="M-19.8711 1289.62L68.9333 1253.71" stroke="#00AB9E" stroke-miterlimit="10"/>
<path opacity="0.3" d="M7.51437 1242.03C7.51437 1244.7 5.35652 1246.85 2.69468 1246.85C0.0328455 1246.85 -2.125 1244.7 -2.125 1242.03C-2.125 1239.37 0.0328455 1237.21 2.69468 1237.21C5.35652 1237.21 7.51437 1239.37 7.51437 1242.03Z" fill="#00A99D" stroke="#00AB9E"/>
<path opacity="0.3" d="M2.69186 1252.62C8.53857 1252.62 13.2783 1247.88 13.2783 1242.03C13.2783 1236.19 8.53857 1231.45 2.69186 1231.45C-3.15484 1231.45 -7.89453 1236.19 -7.89453 1242.03C-7.89453 1247.88 -3.15484 1252.62 2.69186 1252.62Z" fill="#00A99D" stroke="#00AB9E" stroke-miterlimit="10"/>
<path opacity="0.3" d="M39.659 1338.62C39.659 1340.64 38.0206 1342.28 35.9994 1342.28C33.9783 1342.28 32.3398 1340.64 32.3398 1338.62C32.3398 1336.6 33.9783 1334.96 35.9994 1334.96C38.0206 1334.96 39.659 1336.6 39.659 1338.62Z" fill="#00A99D" stroke="#00AB9E"/>
<path opacity="0.3" d="M35.9992 1345.94C40.0459 1345.94 43.3265 1342.66 43.3265 1338.62C43.3265 1334.57 40.0459 1331.29 35.9992 1331.29C31.9524 1331.29 28.6719 1334.57 28.6719 1338.62C28.6719 1342.66 31.9524 1345.94 35.9992 1345.94Z" fill="#00A99D" stroke="#00AB9E" stroke-miterlimit="10"/>
<path opacity="0.3" d="M-20.7109 1300.38L29.3182 1334.11" stroke="#00AB9E" stroke-miterlimit="10"/>
<path opacity="0.3" d="M-18.7617 1294.45L155.222 1290.11" stroke="#00AB9E" stroke-miterlimit="10"/>
<path opacity="0.3" d="M47.4616 1418.6L13.1797 1503.48" stroke="#00AB9E" stroke-miterlimit="10"/>
<path opacity="0.3" d="M14.4883 1513.34C14.4883 1516.15 12.2095 1518.43 9.39843 1518.43C6.58739 1518.43 4.30859 1516.15 4.30859 1513.34C4.30859 1510.53 6.58739 1508.25 9.39843 1508.25C12.2095 1508.25 14.4883 1510.53 14.4883 1513.34Z" fill="#00A99D" stroke="#00AB9E"/>
<path opacity="0.3" d="M9.4008 1523.19C14.8387 1523.19 19.2469 1518.78 19.2469 1513.34C19.2469 1507.9 14.8387 1503.5 9.4008 1503.5C3.96294 1503.5 -0.445313 1507.9 -0.445313 1513.34C-0.445313 1518.78 3.96294 1523.19 9.4008 1523.19Z" fill="#00A99D" stroke="#00AB9E" stroke-miterlimit="10"/>
<path opacity="0.3" d="M7.46673 1503.04L-7.86328 1439.18" stroke="#00AB9E" stroke-miterlimit="10"/>
</g>
<g opacity="0.2">
<path opacity="0.3" d="M1099.99 1326.5L1172.73 1346.2" stroke="#00AB9E" stroke-miterlimit="10"/>
<path opacity="0.3" d="M985.467 1260.38L1084.06 1317.3" stroke="#00AB9E" stroke-miterlimit="10"/>
<path opacity="0.3" d="M1050.87 1219.43L903.269 1143.35" stroke="#00AB9E" stroke-miterlimit="10"/>
<path opacity="0.3" d="M1123.66 1256.94L1076.17 1232.47" stroke="#00AB9E" stroke-miterlimit="10"/>
<path opacity="0.3" d="M1098.08 1314.4L1127.68 1276.21" stroke="#00AB9E" stroke-miterlimit="10"/>
<path opacity="0.3" d="M1062.08 1360.85L1086.16 1329.78" stroke="#00AB9E" stroke-miterlimit="10"/>
<path opacity="0.3" d="M1059.13 1212.89L1014.47 1065.75" stroke="#00AB9E" stroke-miterlimit="10"/>
<path opacity="0.3" d="M1089.51 1312.99L1067.33 1239.89" stroke="#00AB9E" stroke-miterlimit="10"/>
<path opacity="0.3" d="M1117.05 1403.71L1095.08 1331.33" stroke="#00AB9E" stroke-miterlimit="10"/>
<path opacity="0.3" d="M894.343 1142.08C891.409 1144.29 887.241 1143.7 885.033 1140.77C882.825 1137.84 883.413 1133.67 886.347 1131.46C889.281 1129.25 893.449 1129.84 895.657 1132.77C897.865 1135.71 897.277 1139.88 894.343 1142.08Z" fill="#00A99D" stroke="#00AB9E"/>
<path opacity="0.3" d="M878.977 1145.33C883.702 1151.61 892.622 1152.87 898.899 1148.14C905.177 1143.42 906.436 1134.5 901.711 1128.22C896.987 1121.94 888.067 1120.68 881.789 1125.41C875.511 1130.13 874.252 1139.05 878.977 1145.33Z" fill="#00A99D" stroke="#00AB9E" stroke-miterlimit="10"/>
<path opacity="0.3" d="M972.272 1256.82C968.31 1259.8 962.681 1259.01 959.699 1255.05C956.718 1251.08 957.512 1245.46 961.474 1242.47C965.436 1239.49 971.064 1240.29 974.046 1244.25C977.028 1248.21 976.233 1253.84 972.272 1256.82Z" fill="#00A99D" stroke="#00AB9E"/>
<path opacity="0.3" d="M949.72 1262.56C956.851 1272.04 970.314 1273.94 979.79 1266.81C989.265 1259.68 991.165 1246.21 984.034 1236.74C976.902 1227.26 963.44 1225.36 953.964 1232.49C944.488 1239.63 942.588 1253.09 949.72 1262.56Z" fill="#00A99D" stroke="#00AB9E" stroke-miterlimit="10"/>
<path opacity="0.3" d="M1131.06 1434.81C1125.44 1439.04 1117.45 1437.91 1113.22 1432.29C1108.99 1426.67 1110.12 1418.68 1115.74 1414.45C1121.36 1410.22 1129.35 1411.34 1133.58 1416.97C1137.81 1422.59 1136.68 1430.57 1131.06 1434.81Z" fill="#00A99D" stroke="#00AB9E"/>
<path opacity="0.3" d="M1106.24 1437.54C1113.37 1447.02 1126.83 1448.92 1136.31 1441.79C1145.78 1434.65 1147.68 1421.19 1140.55 1411.72C1133.42 1402.24 1119.96 1400.34 1110.48 1407.47C1101.01 1414.6 1099.11 1428.07 1106.24 1437.54Z" fill="#00A99D" stroke="#00AB9E" stroke-miterlimit="10"/>
<path opacity="0.3" d="M1057.67 1375.13C1055.43 1376.82 1052.24 1376.37 1050.55 1374.12C1048.86 1371.88 1049.31 1368.69 1051.55 1367C1053.8 1365.3 1056.99 1365.76 1058.68 1368C1060.37 1370.25 1059.92 1373.44 1057.67 1375.13Z" fill="#00A99D" stroke="#00AB9E"/>
<path opacity="0.3" d="M1044.5 1378.67C1048.7 1384.26 1056.64 1385.38 1062.23 1381.18C1067.82 1376.97 1068.94 1369.03 1064.73 1363.44C1060.53 1357.85 1052.59 1356.73 1047 1360.94C1041.41 1365.15 1040.29 1373.09 1044.5 1378.67Z" fill="#00A99D" stroke="#00AB9E" stroke-miterlimit="10"/>
<path opacity="0.3" d="M1184.22 1355.34C1181.97 1357.03 1178.78 1356.58 1177.09 1354.33C1175.4 1352.09 1175.85 1348.9 1178.1 1347.21C1180.34 1345.52 1183.53 1345.97 1185.22 1348.21C1186.91 1350.46 1186.46 1353.65 1184.22 1355.34Z" fill="#00A99D" stroke="#00AB9E"/>
<path opacity="0.3" d="M1173.29 1357.19C1176.56 1361.54 1182.74 1362.41 1187.08 1359.14C1191.43 1355.87 1192.3 1349.7 1189.03 1345.35C1185.76 1341.01 1179.58 1340.14 1175.24 1343.41C1170.89 1346.68 1170.02 1352.85 1173.29 1357.19Z" fill="#00A99D" stroke="#00AB9E" stroke-miterlimit="10"/>
<path opacity="0.3" d="M1014.01 1057.36C1011.76 1059.05 1008.57 1058.6 1006.88 1056.35C1005.19 1054.11 1005.64 1050.92 1007.89 1049.23C1010.14 1047.54 1013.33 1047.99 1015.02 1050.23C1016.71 1052.48 1016.26 1055.67 1014.01 1057.36Z" fill="#00A99D" stroke="#00AB9E"/>
<path opacity="0.3" d="M1000.83 1060.91C1005.03 1066.5 1012.97 1067.62 1018.56 1063.41C1024.15 1059.21 1025.27 1051.27 1021.06 1045.68C1016.86 1040.09 1008.92 1038.97 1003.33 1043.17C997.742 1047.38 996.622 1055.32 1000.83 1060.91Z" fill="#00A99D" stroke="#00AB9E" stroke-miterlimit="10"/>
<path opacity="0.3" d="M1094.51 1325.09C1092.83 1326.35 1090.45 1326.01 1089.19 1324.34C1087.93 1322.66 1088.26 1320.28 1089.94 1319.02C1091.62 1317.75 1094 1318.09 1095.26 1319.77C1096.52 1321.44 1096.19 1323.82 1094.51 1325.09Z" fill="#00A99D" stroke="#00AB9E"/>
<path opacity="0.3" d="M1085.07 1327.44C1088.04 1331.39 1093.66 1332.18 1097.61 1329.21C1101.56 1326.23 1102.35 1320.62 1099.38 1316.67C1096.4 1312.72 1090.79 1311.92 1086.84 1314.9C1082.89 1317.87 1082.09 1323.48 1085.07 1327.44Z" fill="#00A99D" stroke="#00AB9E" stroke-miterlimit="10"/>
<path opacity="0.3" d="M1141.23 1269.33C1138.35 1271.49 1134.26 1270.92 1132.09 1268.04C1129.92 1265.16 1130.5 1261.07 1133.38 1258.9C1136.26 1256.73 1140.35 1257.31 1142.52 1260.19C1144.68 1263.07 1144.11 1267.16 1141.23 1269.33Z" fill="#00A99D" stroke="#00AB9E"/>
<path opacity="0.3" d="M1125.47 1273.01C1130.39 1279.54 1139.67 1280.85 1146.2 1275.94C1152.74 1271.02 1154.05 1261.74 1149.13 1255.21C1144.21 1248.67 1134.93 1247.36 1128.4 1252.28C1121.87 1257.2 1120.56 1266.48 1125.47 1273.01Z" fill="#00A99D" stroke="#00AB9E" stroke-miterlimit="10"/>
<path opacity="0.3" d="M1067.27 1231.17C1064.39 1233.33 1060.3 1232.76 1058.14 1229.88C1055.97 1227 1056.55 1222.91 1059.43 1220.74C1062.31 1218.57 1066.4 1219.15 1068.56 1222.03C1070.73 1224.91 1070.15 1229 1067.27 1231.17Z" fill="#00A99D" stroke="#00AB9E"/>
<path opacity="0.3" d="M1052.54 1234.09C1057.03 1240.06 1065.52 1241.25 1071.48 1236.76C1077.45 1232.27 1078.65 1223.79 1074.16 1217.82C1069.67 1211.85 1061.18 1210.65 1055.21 1215.14C1049.25 1219.64 1048.05 1228.12 1052.54 1234.09Z" fill="#00A99D" stroke="#00AB9E" stroke-miterlimit="10"/>
<path opacity="0.3" d="M1303.13 1821.39L1318.87 1708.64" stroke="#00AB9E" stroke-miterlimit="10"/>
<path opacity="0.3" d="M1248.06 1694.6L1243.21 1747.8" stroke="#00AB9E" stroke-miterlimit="10"/>
<path opacity="0.3" d="M1310.69 1696.67L1264.41 1683.64" stroke="#00AB9E" stroke-miterlimit="10"/>
<path opacity="0.3" d="M1312.83 1705.2L1253.41 1753.21" stroke="#00AB9E" stroke-miterlimit="10"/>
<path opacity="0.3" d="M1253.5 1684.47C1250.62 1686.64 1246.53 1686.06 1244.37 1683.18C1242.2 1680.31 1242.78 1676.22 1245.66 1674.05C1248.54 1671.88 1252.63 1672.46 1254.79 1675.34C1256.96 1678.22 1256.38 1682.31 1253.5 1684.47Z" fill="#00A99D" stroke="#00AB9E"/>
<path opacity="0.3" d="M1237.75 1688.16C1242.67 1694.7 1251.95 1696.01 1258.48 1691.09C1265.02 1686.17 1266.33 1676.89 1261.41 1670.36C1256.49 1663.83 1247.21 1662.52 1240.68 1667.43C1234.15 1672.35 1232.84 1681.63 1237.75 1688.16Z" fill="#00A99D" stroke="#00AB9E" stroke-miterlimit="10"/>
<path opacity="0.3" d="M1245.91 1767.35C1243.03 1769.51 1238.94 1768.93 1236.77 1766.06C1234.6 1763.18 1235.18 1759.09 1238.06 1756.92C1240.94 1754.75 1245.03 1755.33 1247.2 1758.21C1249.36 1761.09 1248.78 1765.18 1245.91 1767.35Z" fill="#00A99D" stroke="#00AB9E"/>
<path opacity="0.3" d="M1231.17 1770.26C1235.67 1776.23 1244.15 1777.43 1250.12 1772.94C1256.09 1768.44 1257.28 1759.96 1252.79 1753.99C1248.3 1748.02 1239.82 1746.83 1233.85 1751.32C1227.88 1755.81 1226.68 1764.29 1231.17 1770.26Z" fill="#00A99D" stroke="#00AB9E" stroke-miterlimit="10"/>
<path opacity="0.3" d="M1414.03 1539.13L1230.24 1483.67" stroke="#00AB9E" stroke-miterlimit="10"/>
<path opacity="0.3" d="M1274.56 1527.71L1386.35 1617.97" stroke="#00AB9E" stroke-miterlimit="10"/>
<path opacity="0.3" d="M1227.36 1489.6L1254.45 1511.47" stroke="#00AB9E" stroke-miterlimit="10"/>
<path opacity="0.3" d="M1142.24 1435.9L1199.27 1469.99" stroke="#00AB9E" stroke-miterlimit="10"/>
<path opacity="0.3" d="M1263.32 1532.65L1250.97 1664.53" stroke="#00AB9E" stroke-miterlimit="10"/>
<path opacity="0.3" d="M1218.43 1484.74C1215.11 1487.24 1210.4 1486.57 1207.91 1483.26C1205.41 1479.94 1206.08 1475.23 1209.39 1472.73C1212.71 1470.24 1217.42 1470.9 1219.92 1474.22C1222.41 1477.53 1221.75 1482.25 1218.43 1484.74Z" fill="#00A99D" stroke="#00AB9E"/>
<path opacity="0.3" d="M1200.83 1488.58C1206.26 1495.81 1216.53 1497.25 1223.75 1491.82C1230.98 1486.38 1232.43 1476.11 1226.99 1468.89C1221.55 1461.67 1211.29 1460.22 1204.06 1465.65C1196.84 1471.09 1195.39 1481.36 1200.83 1488.58Z" fill="#00A99D" stroke="#00AB9E" stroke-miterlimit="10"/>
<path opacity="0.3" d="M1268.03 1524.61C1265.36 1526.62 1261.57 1526.08 1259.56 1523.41C1257.55 1520.74 1258.08 1516.95 1260.75 1514.94C1263.42 1512.93 1267.21 1513.47 1269.22 1516.14C1271.23 1518.81 1270.7 1522.6 1268.03 1524.61Z" fill="#00A99D" stroke="#00AB9E"/>
<path opacity="0.3" d="M1254.59 1527.15C1258.66 1532.56 1266.36 1533.65 1271.77 1529.58C1277.18 1525.5 1278.27 1517.81 1274.19 1512.4C1270.12 1506.98 1262.43 1505.9 1257.01 1509.97C1251.6 1514.05 1250.51 1521.74 1254.59 1527.15Z" fill="#00A99D" stroke="#00AB9E" stroke-miterlimit="10"/>
<path opacity="0.3" d="M1261.28 1228.22L1223.51 1204.25" stroke="#00AB9E" stroke-miterlimit="10"/>
<path opacity="0.3" d="M1344.36 1280.96L1272.84 1235.56" stroke="#00AB9E" stroke-miterlimit="10"/>
<path opacity="0.3" d="M1194.6 1310.34L1297.37 1379.31" stroke="#00AB9E" stroke-miterlimit="10"/>
<path opacity="0.3" d="M1262.21 1237.41L1194.5 1293.06" stroke="#00AB9E" stroke-miterlimit="10"/>
<path opacity="0.3" d="M1349.73 1135.29L1271.67 1226.21" stroke="#00AB9E" stroke-miterlimit="10"/>
<path opacity="0.3" d="M1268.65 1238.59L1302.67 1376.26" stroke="#00AB9E" stroke-miterlimit="10"/>
<path opacity="0.3" d="M1251.02 1170.28L1265.09 1224.78" stroke="#00AB9E" stroke-miterlimit="10"/>
<path opacity="0.3" d="M1252.58 1162.01C1248.45 1165.11 1242.59 1164.29 1239.48 1160.16C1236.38 1156.03 1237.2 1150.17 1241.33 1147.06C1245.46 1143.96 1251.32 1144.78 1254.43 1148.91C1257.53 1153.04 1256.71 1158.9 1252.58 1162.01Z" fill="#00A99D" stroke="#00AB9E"/>
<path opacity="0.3" d="M1234.19 1164.14C1239.49 1171.19 1249.51 1172.61 1256.56 1167.3C1263.61 1161.99 1265.03 1151.97 1259.72 1144.92C1254.42 1137.87 1244.4 1136.46 1237.35 1141.77C1230.3 1147.07 1228.88 1157.09 1234.19 1164.14Z" fill="#00A99D" stroke="#00AB9E" stroke-miterlimit="10"/>
<path opacity="0.3" d="M1219.61 1203.13C1217.99 1204.35 1215.7 1204.02 1214.48 1202.41C1213.27 1200.79 1213.59 1198.5 1215.2 1197.28C1216.82 1196.07 1219.11 1196.39 1220.33 1198.01C1221.54 1199.62 1221.22 1201.92 1219.61 1203.13Z" fill="#00A99D" stroke="#00AB9E"/>
<path opacity="0.3" d="M1211.55 1204.62C1213.99 1207.85 1218.58 1208.5 1221.81 1206.06C1225.05 1203.63 1225.7 1199.04 1223.26 1195.8C1220.83 1192.57 1216.23 1191.92 1213 1194.36C1209.77 1196.79 1209.12 1201.38 1211.55 1204.62Z" fill="#00A99D" stroke="#00AB9E" stroke-miterlimit="10"/>
<path opacity="0.3" d="M1268.55 1233.93C1267.35 1234.82 1265.66 1234.58 1264.77 1233.39C1263.87 1232.2 1264.11 1230.51 1265.3 1229.62C1266.49 1228.72 1268.18 1228.96 1269.08 1230.15C1269.97 1231.34 1269.74 1233.03 1268.55 1233.93Z" fill="#00A99D" stroke="#00AB9E"/>
<path opacity="0.3" d="M1261.6 1235.78C1263.81 1238.72 1267.99 1239.31 1270.93 1237.09C1273.87 1234.88 1274.46 1230.7 1272.25 1227.76C1270.03 1224.82 1265.85 1224.23 1262.91 1226.44C1259.97 1228.66 1259.38 1232.84 1261.6 1235.78Z" fill="#00A99D" stroke="#00AB9E" stroke-miterlimit="10"/>
<path opacity="0.3" d="M1189.81 1305.53C1187.73 1307.1 1184.76 1306.68 1183.2 1304.6C1181.63 1302.51 1182.04 1299.55 1184.13 1297.98C1186.21 1296.41 1189.18 1296.83 1190.75 1298.91C1192.32 1301 1191.9 1303.96 1189.81 1305.53Z" fill="#00A99D" stroke="#00AB9E"/>
<path opacity="0.3" d="M1178.17 1308.38C1181.83 1313.25 1188.73 1314.22 1193.6 1310.56C1198.46 1306.9 1199.43 1300 1195.77 1295.13C1192.11 1290.27 1185.21 1289.3 1180.35 1292.96C1175.48 1296.62 1174.51 1303.52 1178.17 1308.38Z" fill="#00A99D" stroke="#00AB9E" stroke-miterlimit="10"/>
<path opacity="0.3" d="M1305.7 1397.46L1308.83 1457.72" stroke="#00AB9E" stroke-miterlimit="10"/>
<path opacity="0.3" d="M1226.01 1466.54L1297.75 1394.25" stroke="#00AB9E" stroke-miterlimit="10"/>
<path opacity="0.3" d="M1294.95 1388.89L1145.25 1420.08" stroke="#00AB9E" stroke-miterlimit="10"/>
<path opacity="0.3" d="M1177.53 1294.61L1149.77 1273.57" stroke="#00AB9E" stroke-miterlimit="10"/>
<path opacity="0.3" d="M1175.5 1304.22L1101.6 1320.05" stroke="#00AB9E" stroke-miterlimit="10"/>
<path opacity="0.3" d="M1252.24 1523.02L1163.81 1546.68" stroke="#00AB9E" stroke-miterlimit="10"/>
<path opacity="0.3" d="M1156.72 1553.65C1154.47 1555.34 1151.28 1554.89 1149.59 1552.65C1147.9 1550.4 1148.35 1547.21 1150.6 1545.52C1152.84 1543.83 1156.03 1544.28 1157.72 1546.52C1159.41 1548.77 1158.96 1551.96 1156.72 1553.65Z" fill="#00A99D" stroke="#00AB9E"/>
<path opacity="0.3" d="M1145.78 1555.51C1149.05 1559.85 1155.23 1560.73 1159.57 1557.46C1163.92 1554.19 1164.79 1548.01 1161.52 1543.67C1158.25 1539.32 1152.08 1538.45 1147.73 1541.72C1143.39 1544.99 1142.51 1551.16 1145.78 1555.51Z" fill="#00A99D" stroke="#00AB9E" stroke-miterlimit="10"/>
<path opacity="0.3" d="M1160.72 1541.85L1202.53 1491.2" stroke="#00AB9E" stroke-miterlimit="10"/>
<path opacity="0.3" d="M1134.76 1405.34L1175.79 1360.39" stroke="#00AB9E" stroke-miterlimit="10"/>
</g>
<g opacity="0.2">
<path opacity="0.3" d="M73.4975 703.772L61.723 758.093" stroke="#00AB9E" stroke-miterlimit="10"/>
<path opacity="0.3" d="M117.883 616.923L79.6719 691.691" stroke="#00AB9E" stroke-miterlimit="10"/>
<path opacity="0.3" d="M150.51 663.556L200.988 551.968" stroke="#00AB9E" stroke-miterlimit="10"/>
<path opacity="0.3" d="M125.623 718.584L141.864 682.682" stroke="#00AB9E" stroke-miterlimit="10"/>
<path opacity="0.3" d="M82.332 701.906L111.576 722.271" stroke="#00AB9E" stroke-miterlimit="10"/>
<path opacity="0.3" d="M46.7617 677.141L70.5512 693.706" stroke="#00AB9E" stroke-miterlimit="10"/>
<path opacity="0.3" d="M155.641 669.395L262.348 630.955" stroke="#00AB9E" stroke-miterlimit="10"/>
<path opacity="0.3" d="M83.0508 695.543L136.059 676.448" stroke="#00AB9E" stroke-miterlimit="10"/>
<path opacity="0.3" d="M17.2578 719.246L69.7469 700.338" stroke="#00AB9E" stroke-miterlimit="10"/>
<path opacity="0.3" d="M209.014 539.134C210.704 541.156 210.435 544.166 208.413 545.856C206.391 547.547 203.381 547.278 201.691 545.256C200 543.233 200.269 540.224 202.292 538.534C204.314 536.843 207.323 537.112 209.014 539.134Z" fill="#00A99D" stroke="#00AB9E"/>
<path opacity="0.3" d="M212.082 550.247C216.529 546.53 217.12 539.912 213.403 535.466C209.686 531.019 203.068 530.428 198.622 534.145C194.175 537.862 193.584 544.48 197.301 548.926C201.017 553.373 207.635 553.964 212.082 550.247Z" fill="#00A99D" stroke="#00AB9E" stroke-miterlimit="10"/>
<path opacity="0.3" d="M130.068 598.659C132.367 601.409 132.001 605.502 129.251 607.801C126.501 610.1 122.408 609.734 120.109 606.984C117.81 604.234 118.176 600.141 120.926 597.842C123.676 595.543 127.769 595.909 130.068 598.659Z" fill="#00A99D" stroke="#00AB9E"/>
<path opacity="0.3" d="M135.249 614.974C141.96 609.364 142.852 599.375 137.242 592.664C131.632 585.953 121.644 585.06 114.933 590.67C108.222 596.28 107.329 606.269 112.939 612.98C118.549 619.691 128.537 620.584 135.249 614.974Z" fill="#00A99D" stroke="#00AB9E" stroke-miterlimit="10"/>
<path opacity="0.3" d="M9.20161 718.767C12.4837 722.694 11.9614 728.537 8.03509 731.819C4.10873 735.101 -1.73488 734.579 -5.01699 730.653C-8.29909 726.726 -7.77682 720.883 -3.85047 717.601C0.075891 714.319 5.9195 714.841 9.20161 718.767Z" fill="#00A99D" stroke="#00AB9E"/>
<path opacity="0.3" d="M12.2485 736.86C18.9597 731.25 19.8524 721.262 14.2424 714.551C8.63242 707.84 -1.35587 706.947 -8.06706 712.557C-14.7783 718.167 -15.671 728.155 -10.061 734.867C-4.45096 741.578 5.53733 742.47 12.2485 736.86Z" fill="#00A99D" stroke="#00AB9E" stroke-miterlimit="10"/>
<path opacity="0.3" d="M41.7361 669.703C43.0195 671.238 42.8153 673.523 41.28 674.807C39.7447 676.09 37.4598 675.886 36.1765 674.351C34.8931 672.815 35.0973 670.53 36.6326 669.247C38.1678 667.964 40.4528 668.168 41.7361 669.703Z" fill="#00A99D" stroke="#00AB9E"/>
<path opacity="0.3" d="M44.95 679.191C48.9082 675.882 49.4348 669.991 46.126 666.033C42.8172 662.074 36.9261 661.548 32.9678 664.857C29.0096 668.165 28.4831 674.056 31.7918 678.015C35.1006 681.973 40.9917 682.499 44.95 679.191Z" fill="#00A99D" stroke="#00AB9E" stroke-miterlimit="10"/>
<path opacity="0.3" d="M61.0799 762.168C62.3632 763.703 62.159 765.988 60.6238 767.272C59.0885 768.555 56.8036 768.351 55.5202 766.815C54.2369 765.28 54.4411 762.995 55.9763 761.712C57.5116 760.429 59.7965 760.633 61.0799 762.168Z" fill="#00A99D" stroke="#00AB9E"/>
<path opacity="0.3" d="M62.9587 770.065C66.0363 767.492 66.4456 762.912 63.8731 759.834C61.3005 756.757 56.7202 756.348 53.6427 758.92C50.5651 761.493 50.1558 766.073 52.7283 769.15C55.3009 772.228 59.8812 772.637 62.9587 770.065Z" fill="#00A99D" stroke="#00AB9E" stroke-miterlimit="10"/>
<path opacity="0.3" d="M274.166 625.566C275.449 627.102 275.245 629.387 273.71 630.67C272.174 631.953 269.889 631.749 268.606 630.214C267.323 628.679 267.527 626.394 269.062 625.11C270.598 623.827 272.882 624.031 274.166 625.566Z" fill="#00A99D" stroke="#00AB9E"/>
<path opacity="0.3" d="M277.376 635.058C281.334 631.749 281.861 625.858 278.552 621.9C275.243 617.942 269.352 617.415 265.394 620.724C261.435 624.033 260.909 629.924 264.218 633.882C267.526 637.84 273.418 638.367 277.376 635.058Z" fill="#00A99D" stroke="#00AB9E" stroke-miterlimit="10"/>
<path opacity="0.3" d="M78.5257 696.167C79.4715 697.299 79.321 698.982 78.1896 699.928C77.0582 700.874 75.3743 700.723 74.4285 699.592C73.4827 698.461 73.6332 696.777 74.7646 695.831C75.8961 694.885 77.5799 695.036 78.5257 696.167Z" fill="#00A99D" stroke="#00AB9E"/>
<path opacity="0.3" d="M80.7116 702.95C83.5104 700.61 83.8827 696.445 81.5432 693.646C79.2036 690.847 75.0382 690.475 72.2395 692.815C69.4407 695.154 69.0684 699.32 71.408 702.118C73.7475 704.917 77.9129 705.289 80.7116 702.95Z" fill="#00A99D" stroke="#00AB9E" stroke-miterlimit="10"/>
<path opacity="0.3" d="M124.442 725.905C126.099 727.888 125.835 730.839 123.852 732.497C121.869 734.154 118.918 733.89 117.26 731.907C115.603 729.924 115.867 726.973 117.85 725.315C119.833 723.658 122.784 723.922 124.442 725.905Z" fill="#00A99D" stroke="#00AB9E"/>
<path opacity="0.3" d="M127.857 737.28C132.484 733.412 133.1 726.526 129.232 721.899C125.364 717.272 118.478 716.656 113.851 720.524C109.224 724.392 108.608 731.278 112.476 735.905C116.344 740.532 123.23 741.148 127.857 737.28Z" fill="#00A99D" stroke="#00AB9E" stroke-miterlimit="10"/>
<path opacity="0.3" d="M149.77 669.991C151.427 671.974 151.164 674.925 149.181 676.583C147.198 678.24 144.246 677.976 142.589 675.993C140.931 674.01 141.195 671.059 143.178 669.401C145.161 667.744 148.112 668.007 149.77 669.991Z" fill="#00A99D" stroke="#00AB9E"/>
<path opacity="0.3" d="M152.575 680.65C156.803 677.116 157.365 670.823 153.831 666.595C150.297 662.367 144.004 661.805 139.777 665.339C135.549 668.873 134.986 675.166 138.52 679.394C142.055 683.622 148.347 684.184 152.575 680.65Z" fill="#00A99D" stroke="#00AB9E" stroke-miterlimit="10"/>
<path opacity="0.3" d="M-26.722 979.49L-6.54189 940.004" stroke="#00AB9E" stroke-miterlimit="10"/>
<path opacity="0.3" d="M0.0121409 1006.12L-23.7773 989.555" stroke="#00AB9E" stroke-miterlimit="10"/>
<path opacity="0.3" d="M29.5204 964.014L-22.9688 982.922" stroke="#00AB9E" stroke-miterlimit="10"/>
<path opacity="0.3" d="M51.7915 952.611C55.0736 956.537 54.5513 962.381 50.6249 965.663C46.6986 968.945 40.855 968.423 37.5729 964.496C34.2908 960.57 34.813 954.726 38.7394 951.444C42.6657 948.162 48.5093 948.685 51.7915 952.611Z" fill="#00A99D" stroke="#00AB9E"/>
<path opacity="0.3" d="M54.8423 970.704C61.5535 965.094 62.4462 955.106 56.8362 948.395C51.2262 941.684 41.2379 940.791 34.5267 946.401C27.8155 952.011 26.9228 961.999 32.5328 968.71C38.1428 975.421 48.1311 976.314 54.8423 970.704Z" fill="#00A99D" stroke="#00AB9E" stroke-miterlimit="10"/>
<path opacity="0.3" d="M10.5955 1008.91C11.8789 1010.45 11.6747 1012.73 10.1394 1014.02C8.60412 1015.3 6.31918 1015.1 5.03583 1013.56C3.75248 1012.03 3.95669 1009.74 5.49196 1008.46C7.02722 1007.17 9.31216 1007.38 10.5955 1008.91Z" fill="#00A99D" stroke="#00AB9E"/>
<path opacity="0.3" d="M13.8054 1018.41C17.7637 1015.1 18.2902 1009.21 14.9814 1005.25C11.6727 1001.29 5.78158 1000.76 1.82332 1004.07C-2.13495 1007.38 -2.66146 1013.27 0.647316 1017.23C3.95609 1021.19 9.84719 1021.71 13.8054 1018.41Z" fill="#00A99D" stroke="#00AB9E" stroke-miterlimit="10"/>
<path opacity="0.3" d="M-0.33808 931.277C0.945273 932.813 0.741058 935.098 -0.794207 936.381C-2.32947 937.664 -4.61441 937.46 -5.89777 935.925C-7.18112 934.39 -6.9769 932.105 -5.44164 930.821C-3.90637 929.538 -1.62143 929.742 -0.33808 931.277Z" fill="#00A99D" stroke="#00AB9E"/>
<path opacity="0.3" d="M1.54078 939.174C4.61831 936.602 5.02767 932.021 2.45511 928.944C-0.117448 925.866 -4.69775 925.457 -7.77529 928.029C-10.8528 930.602 -11.2622 935.182 -8.68962 938.26C-6.11706 941.337 -1.53676 941.747 1.54078 939.174Z" fill="#00A99D" stroke="#00AB9E" stroke-miterlimit="10"/>
<path opacity="0.3" d="M-71.3052 943.108L-37.3685 805.637" stroke="#00AB9E" stroke-miterlimit="10"/>
<path opacity="0.3" d="M-5.49322 739.012L-28.4571 782.308" stroke="#00AB9E" stroke-miterlimit="10"/>
<path opacity="0.3" d="M151.971 818.883L168.21 790.159" stroke="#00AB9E" stroke-miterlimit="10"/>
<path opacity="0.3" d="M116.249 882.063L146.998 827.672" stroke="#00AB9E" stroke-miterlimit="10"/>
<path opacity="0.3" d="M38.8639 864.784L42.404 894.32" stroke="#00AB9E" stroke-miterlimit="10"/>
<path opacity="0.3" d="M88.97 772.861L42.041 851.158" stroke="#00AB9E" stroke-miterlimit="10"/>
<path opacity="0.3" d="M145.236 819.915L101.695 772.137" stroke="#00AB9E" stroke-miterlimit="10"/>
<path opacity="0.3" d="M223.757 880.535L153.84 826.461" stroke="#00AB9E" stroke-miterlimit="10"/>
<path opacity="0.3" d="M33.594 864.46L0.323924 926.787" stroke="#00AB9E" stroke-miterlimit="10"/>
<path opacity="0.3" d="M144.609 824.7L44.4805 854.941" stroke="#00AB9E" stroke-miterlimit="10"/>
<path opacity="0.3" d="M194.264 809.141L154.648 821.555" stroke="#00AB9E" stroke-miterlimit="10"/>
<path opacity="0.3" d="M45.9624 899.868C47.1752 901.319 46.9822 903.478 45.5314 904.691C44.0806 905.904 41.9214 905.711 40.7087 904.26C39.496 902.809 39.689 900.65 41.1397 899.437C42.5905 898.225 44.7497 898.418 45.9624 899.868Z" fill="#00A99D" stroke="#00AB9E"/>
<path opacity="0.3" d="M48.3421 908.056C51.6507 905.29 52.0908 900.366 49.3251 897.057C46.5594 893.749 41.6352 893.309 38.3266 896.074C35.0181 898.84 34.578 903.764 37.3437 907.073C40.1094 910.381 45.0335 910.821 48.3421 908.056Z" fill="#00A99D" stroke="#00AB9E" stroke-miterlimit="10"/>
<path opacity="0.3" d="M114.061 889.303C115.727 891.296 115.462 894.261 113.469 895.927C111.476 897.593 108.511 897.327 106.845 895.335C105.18 893.342 105.445 890.377 107.437 888.711C109.43 887.046 112.395 887.311 114.061 889.303Z" fill="#00A99D" stroke="#00AB9E"/>
<path opacity="0.3" d="M118.01 901.361C123.003 897.187 123.668 889.755 119.493 884.761C115.319 879.768 107.887 879.103 102.893 883.278C97.8997 887.452 97.2355 894.884 101.41 899.878C105.584 904.871 113.016 905.536 118.01 901.361Z" fill="#00A99D" stroke="#00AB9E" stroke-miterlimit="10"/>
<path opacity="0.3" d="M210.902 801.215C213.299 804.083 212.917 808.351 210.05 810.748C207.182 813.145 202.914 812.763 200.517 809.896C198.12 807.028 198.502 802.76 201.369 800.363C204.237 797.966 208.505 798.348 210.902 801.215Z" fill="#00A99D" stroke="#00AB9E"/>
<path opacity="0.3" d="M213.268 814.596C218.261 810.421 218.925 802.989 214.751 797.996C210.577 793.002 203.145 792.338 198.151 796.512C193.158 800.686 192.493 808.118 196.668 813.112C200.842 818.106 208.274 818.77 213.268 814.596Z" fill="#00A99D" stroke="#00AB9E" stroke-miterlimit="10"/>
<path opacity="0.3" d="M231.369 882.939C232.279 884.027 232.134 885.646 231.046 886.555C229.958 887.465 228.339 887.32 227.429 886.232C226.52 885.144 226.664 883.525 227.752 882.615C228.84 881.706 230.46 881.851 231.369 882.939Z" fill="#00A99D" stroke="#00AB9E"/>
<path opacity="0.3" d="M233.858 889.915C236.803 887.453 237.195 883.069 234.733 880.124C232.271 877.179 227.888 876.787 224.942 879.249C221.997 881.711 221.605 886.095 224.067 889.04C226.529 891.985 230.913 892.377 233.858 889.915Z" fill="#00A99D" stroke="#00AB9E" stroke-miterlimit="10"/>
<path opacity="0.3" d="M172.92 783.864C173.829 784.952 173.685 786.572 172.597 787.481C171.509 788.391 169.889 788.246 168.98 787.158C168.07 786.07 168.215 784.451 169.303 783.541C170.391 782.632 172.01 782.776 172.92 783.864Z" fill="#00A99D" stroke="#00AB9E"/>
<path opacity="0.3" d="M174.418 789.655C176.708 787.741 177.012 784.332 175.098 782.043C173.184 779.753 169.776 779.448 167.486 781.362C165.196 783.276 164.892 786.684 166.806 788.974C168.72 791.264 172.128 791.569 174.418 789.655Z" fill="#00A99D" stroke="#00AB9E" stroke-miterlimit="10"/>
<path opacity="0.3" d="M150.995 821.98C151.654 822.767 151.549 823.94 150.761 824.598C149.973 825.257 148.801 825.152 148.143 824.364C147.484 823.577 147.589 822.404 148.377 821.746C149.164 821.087 150.337 821.192 150.995 821.98Z" fill="#00A99D" stroke="#00AB9E"/>
<path opacity="0.3" d="M152.72 826.941C154.803 825.2 155.08 822.1 153.339 820.017C151.598 817.935 148.498 817.657 146.416 819.398C144.333 821.139 144.056 824.239 145.797 826.322C147.538 828.405 150.638 828.682 152.72 826.941Z" fill="#00A99D" stroke="#00AB9E" stroke-miterlimit="10"/>
<path opacity="0.3" d="M97.5785 764.759C98.7669 766.181 98.5778 768.297 97.1562 769.485C95.7345 770.674 93.6187 770.485 92.4303 769.063C91.2419 767.641 91.431 765.525 92.8526 764.337C94.2743 763.149 96.3902 763.338 97.5785 764.759Z" fill="#00A99D" stroke="#00AB9E"/>
<path opacity="0.3" d="M100.216 773.148C103.659 770.27 104.117 765.145 101.239 761.702C98.3607 758.259 93.2362 757.801 89.793 760.679C86.3499 763.557 85.8919 768.682 88.7701 772.125C91.6483 775.568 96.7728 776.026 100.216 773.148Z" fill="#00A99D" stroke="#00AB9E" stroke-miterlimit="10"/>
<path opacity="0.3" d="M39.4223 855.044C40.6107 856.466 40.4216 858.582 38.9999 859.77C37.5783 860.959 35.4624 860.77 34.274 859.348C33.0856 857.926 33.2747 855.811 34.6964 854.622C36.1181 853.434 38.2339 853.623 39.4223 855.044Z" fill="#00A99D" stroke="#00AB9E"/>
<path opacity="0.3" d="M41.6116 862.893C44.7579 860.263 45.1764 855.581 42.5464 852.434C39.9163 849.288 35.2337 848.87 32.0875 851.5C28.9412 854.13 28.5227 858.812 31.1527 861.959C33.7827 865.105 38.4653 865.523 41.6116 862.893Z" fill="#00A99D" stroke="#00AB9E" stroke-miterlimit="10"/>
<path opacity="0.3" d="M99.4865 887.088L43.9102 860.566" stroke="#00AB9E" stroke-miterlimit="10"/>
<path opacity="0.3" d="M28.9789 857.974L-15.2891 862.551" stroke="#00AB9E" stroke-miterlimit="10"/>
<path opacity="0.3" d="M30.6721 862.253L-65.7274 947.016" stroke="#00AB9E" stroke-miterlimit="10"/>
<path opacity="0.3" d="M-24.9141 801.871L31.0391 851.998" stroke="#00AB9E" stroke-miterlimit="10"/>
<path opacity="0.3" d="M34.8827 849.731L6.27024 740.634" stroke="#00AB9E" stroke-miterlimit="10"/>
<path opacity="0.3" d="M99.9101 759.689L114.362 738.449" stroke="#00AB9E" stroke-miterlimit="10"/>
<path opacity="0.3" d="M92.7531 758.553L78.3114 704.715" stroke="#00AB9E" stroke-miterlimit="10"/>
<path opacity="0.3" d="M16.7344 732.348L51.3851 760.881" stroke="#00AB9E" stroke-miterlimit="10"/>
</g>
<defs>
<linearGradient id="paint0_linear_4109_18267" x1="640" y1="0" x2="640" y2="2150" gradientUnits="userSpaceOnUse">
<stop offset="0.085" stop-color="#F4FBFB"/>
<stop offset="1" stop-color="#F4FBFB"/>
</linearGradient>
</defs>
</svg>
