<svg width="677" height="163" viewBox="0 0 677 163" fill="none" xmlns="http://www.w3.org/2000/svg">
<path d="M53.4265 90.0007C53.4265 88.901 53.6798 87.9146 54.1865 87.0413C54.704 86.168 55.3994 85.4888 56.2727 85.0037C57.1567 84.5078 58.1216 84.2598 59.1673 84.2598C60.364 84.2598 61.426 84.5563 62.3531 85.1492C63.2911 85.7314 63.9703 86.5616 64.3907 87.6396H62.1752C61.8842 87.0467 61.4799 86.6047 60.9624 86.3136C60.4449 86.0225 59.8465 85.877 59.1673 85.877C58.4235 85.877 57.7604 86.0441 57.1783 86.3783C56.5961 86.7125 56.1379 87.1922 55.8037 87.8175C55.4802 88.4428 55.3185 89.1705 55.3185 90.0007C55.3185 90.8308 55.4802 91.5585 55.8037 92.1838C56.1379 92.8091 56.5961 93.2943 57.1783 93.6393C57.7604 93.9735 58.4235 94.1406 59.1673 94.1406C59.8465 94.1406 60.4449 93.995 60.9624 93.704C61.4799 93.4129 61.8842 92.9708 62.1752 92.3779H64.3907C63.9703 93.456 63.2911 94.2861 62.3531 94.8683C61.426 95.4505 60.364 95.7416 59.1673 95.7416C58.1108 95.7416 57.1459 95.499 56.2727 95.0138C55.3994 94.5179 54.704 93.8333 54.1865 92.9601C53.6798 92.0868 53.4265 91.1003 53.4265 90.0007ZM65.9341 91.1489C65.9341 90.254 66.1174 89.4616 66.4839 88.7717C66.8613 88.0817 67.368 87.548 68.004 87.1707C68.6509 86.7826 69.3625 86.5885 70.1387 86.5885C70.8394 86.5885 71.4486 86.7287 71.9661 87.009C72.4943 87.2785 72.9148 87.6181 73.2274 88.0278V86.734H75.0872V95.6445H73.2274V94.3185C72.9148 94.7389 72.4889 95.0893 71.9499 95.3696C71.4108 95.6499 70.7963 95.7901 70.1063 95.7901C69.3409 95.7901 68.6401 95.596 68.004 95.2079C67.368 94.809 66.8613 94.2592 66.4839 93.5584C66.1174 92.8469 65.9341 92.0437 65.9341 91.1489ZM73.2274 91.1812C73.2274 90.5667 73.0981 90.033 72.8393 89.5802C72.5914 89.1274 72.2625 88.7824 71.8529 88.5453C71.4432 88.3081 71.0012 88.1895 70.5268 88.1895C70.0524 88.1895 69.6104 88.3081 69.2007 88.5453C68.7911 88.7717 68.4568 89.1113 68.1981 89.5641C67.9501 90.0061 67.8262 90.5343 67.8262 91.1489C67.8262 91.7634 67.9501 92.3024 68.1981 92.766C68.4568 93.2296 68.7911 93.5854 69.2007 93.8333C69.6212 94.0705 70.0632 94.1891 70.5268 94.1891C71.0012 94.1891 71.4432 94.0705 71.8529 93.8333C72.2625 93.5961 72.5914 93.2512 72.8393 92.7984C73.0981 92.3348 73.2274 91.7957 73.2274 91.1812ZM79.3521 83.6776V95.6445H77.5086V83.6776H79.3521ZM89.9391 90.971C89.9391 91.3052 89.9176 91.6071 89.8745 91.8766H83.0663C83.1202 92.5881 83.3843 93.1595 83.8587 93.5908C84.333 94.022 84.9152 94.2376 85.6052 94.2376C86.597 94.2376 87.2978 93.8225 87.7075 92.9924H89.6966C89.427 93.8118 88.9365 94.4856 88.225 95.0138C87.5242 95.5313 86.6509 95.7901 85.6052 95.7901C84.7535 95.7901 83.988 95.6014 83.3088 95.2241C82.6404 94.836 82.1121 94.2969 81.724 93.6069C81.3467 92.9062 81.158 92.0976 81.158 91.1812C81.158 90.2648 81.3413 89.4616 81.7079 88.7717C82.0852 88.0709 82.6081 87.5318 83.2765 87.1545C83.9557 86.7772 84.7319 86.5885 85.6052 86.5885C86.4461 86.5885 87.1954 86.7718 87.853 87.1383C88.5107 87.5049 89.0228 88.0224 89.3893 88.6908C89.7559 89.3484 89.9391 90.1085 89.9391 90.971ZM88.0147 90.3888C88.004 89.7096 87.7614 89.1652 87.287 88.7555C86.8127 88.3458 86.2251 88.141 85.5243 88.141C84.8882 88.141 84.3438 88.3458 83.891 88.7555C83.4382 89.1544 83.1687 89.6988 83.0824 90.3888H88.0147ZM96.249 86.5885C96.9498 86.5885 97.5751 86.734 98.1249 87.0251C98.6856 87.3162 99.1222 87.7475 99.4348 88.3189C99.7475 88.8902 99.9038 89.5802 99.9038 90.3888V95.6445H98.0764V90.6637C98.0764 89.8659 97.877 89.2568 97.4781 88.8363C97.0792 88.4051 96.5347 88.1895 95.8448 88.1895C95.1548 88.1895 94.6049 88.4051 94.1953 88.8363C93.7964 89.2568 93.5969 89.8659 93.5969 90.6637V95.6445H91.7534V86.734H93.5969V87.7528C93.8988 87.3863 94.2815 87.1006 94.7451 86.8958C95.2195 86.6909 95.7208 86.5885 96.249 86.5885ZM101.641 91.1489C101.641 90.254 101.824 89.4616 102.191 88.7717C102.568 88.0817 103.075 87.548 103.711 87.1707C104.358 86.7826 105.075 86.5885 105.862 86.5885C106.444 86.5885 107.015 86.7179 107.576 86.9766C108.147 87.2246 108.6 87.5588 108.934 87.9792V83.6776H110.794V95.6445H108.934V94.3023C108.632 94.7335 108.212 95.0893 107.673 95.3696C107.145 95.6499 106.535 95.7901 105.845 95.7901C105.069 95.7901 104.358 95.596 103.711 95.2079C103.075 94.809 102.568 94.2592 102.191 93.5584C101.824 92.8469 101.641 92.0437 101.641 91.1489ZM108.934 91.1812C108.934 90.5667 108.805 90.033 108.546 89.5802C108.298 89.1274 107.969 88.7824 107.56 88.5453C107.15 88.3081 106.708 88.1895 106.234 88.1895C105.759 88.1895 105.317 88.3081 104.907 88.5453C104.498 88.7717 104.164 89.1113 103.905 89.5641C103.657 90.0061 103.533 90.5343 103.533 91.1489C103.533 91.7634 103.657 92.3024 103.905 92.766C104.164 93.2296 104.498 93.5854 104.907 93.8333C105.328 94.0705 105.77 94.1891 106.234 94.1891C106.708 94.1891 107.15 94.0705 107.56 93.8333C107.969 93.5961 108.298 93.2512 108.546 92.7984C108.805 92.3348 108.934 91.7957 108.934 91.1812ZM112.601 91.1489C112.601 90.254 112.784 89.4616 113.151 88.7717C113.528 88.0817 114.035 87.548 114.671 87.1707C115.318 86.7826 116.029 86.5885 116.805 86.5885C117.506 86.5885 118.115 86.7287 118.633 87.009C119.161 87.2785 119.582 87.6181 119.894 88.0278V86.734H121.754V95.6445H119.894V94.3185C119.582 94.7389 119.156 95.0893 118.617 95.3696C118.078 95.6499 117.463 95.7901 116.773 95.7901C116.008 95.7901 115.307 95.596 114.671 95.2079C114.035 94.809 113.528 94.2592 113.151 93.5584C112.784 92.8469 112.601 92.0437 112.601 91.1489ZM119.894 91.1812C119.894 90.5667 119.765 90.033 119.506 89.5802C119.258 89.1274 118.929 88.7824 118.52 88.5453C118.11 88.3081 117.668 88.1895 117.194 88.1895C116.719 88.1895 116.277 88.3081 115.867 88.5453C115.458 88.7717 115.124 89.1113 114.865 89.5641C114.617 90.0061 114.493 90.5343 114.493 91.1489C114.493 91.7634 114.617 92.3024 114.865 92.766C115.124 93.2296 115.458 93.5854 115.867 93.8333C116.288 94.0705 116.73 94.1891 117.194 94.1891C117.668 94.1891 118.11 94.0705 118.52 93.8333C118.929 93.5961 119.258 93.2512 119.506 92.7984C119.765 92.3348 119.894 91.7957 119.894 91.1812ZM126.019 88.0278C126.288 87.575 126.644 87.2246 127.086 86.9766C127.539 86.7179 128.073 86.5885 128.687 86.5885V88.4967H128.218C127.496 88.4967 126.946 88.68 126.569 89.0466C126.202 89.4131 126.019 90.0492 126.019 90.9548V95.6445H124.175V86.734H126.019V88.0278ZM131.32 85.5535C130.985 85.5535 130.705 85.4403 130.479 85.2139C130.252 84.9875 130.139 84.7072 130.139 84.373C130.139 84.0388 130.252 83.7585 130.479 83.5321C130.705 83.3057 130.985 83.1925 131.32 83.1925C131.643 83.1925 131.918 83.3057 132.144 83.5321C132.371 83.7585 132.484 84.0388 132.484 84.373C132.484 84.7072 132.371 84.9875 132.144 85.2139C131.918 85.4403 131.643 85.5535 131.32 85.5535ZM132.225 86.734V95.6445H130.382V86.734H132.225ZM138.511 95.7901C137.67 95.7901 136.91 95.6014 136.231 95.2241C135.551 94.836 135.018 94.2969 134.63 93.6069C134.241 92.9062 134.047 92.0976 134.047 91.1812C134.047 90.2756 134.247 89.4724 134.646 88.7717C135.045 88.0709 135.589 87.5318 136.279 87.1545C136.969 86.7772 137.74 86.5885 138.592 86.5885C139.443 86.5885 140.214 86.7772 140.904 87.1545C141.594 87.5318 142.138 88.0709 142.537 88.7717C142.936 89.4724 143.136 90.2756 143.136 91.1812C143.136 92.0868 142.931 92.89 142.521 93.5908C142.112 94.2915 141.551 94.836 140.839 95.2241C140.139 95.6014 139.362 95.7901 138.511 95.7901ZM138.511 94.1891C138.985 94.1891 139.427 94.0759 139.837 93.8495C140.257 93.6231 140.597 93.2835 140.856 92.8307C141.114 92.3779 141.244 91.8281 141.244 91.1812C141.244 90.5343 141.12 89.9899 140.872 89.5479C140.624 89.0951 140.295 88.7555 139.885 88.5291C139.476 88.3027 139.034 88.1895 138.559 88.1895C138.085 88.1895 137.643 88.3027 137.233 88.5291C136.834 88.7555 136.516 89.0951 136.279 89.5479C136.042 89.9899 135.923 90.5343 135.923 91.1812C135.923 92.1407 136.166 92.8846 136.651 93.4129C137.147 93.9304 137.767 94.1891 138.511 94.1891Z" fill="#4B4B4B"/>
<path d="M313.753 70.8819C314.95 70.8819 315.996 71.1137 316.891 71.5773C317.796 72.0301 318.492 72.6877 318.977 73.5502C319.473 74.4019 319.721 75.3991 319.721 76.5419C319.721 77.6847 319.473 78.6766 318.977 79.5175C318.492 80.3584 317.796 81.0053 316.891 81.4581C315.996 81.9001 314.95 82.1211 313.753 82.1211H310.082V70.8819H313.753ZM313.753 80.6171C315.069 80.6171 316.077 80.2614 316.777 79.5498C317.478 78.8383 317.829 77.8357 317.829 76.5419C317.829 75.2374 317.478 74.2186 316.777 73.4855C316.077 72.7524 315.069 72.3859 313.753 72.3859H311.926V80.6171H313.753ZM322.486 72.0301C322.152 72.0301 321.871 71.9169 321.645 71.6905C321.418 71.4641 321.305 71.1838 321.305 70.8496C321.305 70.5154 321.418 70.2351 321.645 70.0087C321.871 69.7823 322.152 69.6691 322.486 69.6691C322.809 69.6691 323.084 69.7823 323.31 70.0087C323.537 70.2351 323.65 70.5154 323.65 70.8496C323.65 71.1838 323.537 71.4641 323.31 71.6905C323.084 71.9169 322.809 72.0301 322.486 72.0301ZM323.391 73.2106V82.1211H321.548V73.2106H323.391ZM325.197 77.6254C325.197 76.7306 325.381 75.9382 325.747 75.2482C326.124 74.5582 326.631 74.0246 327.267 73.6472C327.914 73.2591 328.626 73.0651 329.402 73.0651C330.103 73.0651 330.712 73.2052 331.229 73.4855C331.757 73.755 332.178 74.0946 332.491 74.5043V73.2106H334.35V82.1211H332.491V80.795C332.178 81.2155 331.752 81.5659 331.213 81.8462C330.674 82.1265 330.059 82.2666 329.369 82.2666C328.604 82.2666 327.903 82.0726 327.267 81.6845C326.631 81.2856 326.124 80.7357 325.747 80.035C325.381 79.3234 325.197 78.5202 325.197 77.6254ZM332.491 77.6578C332.491 77.0432 332.361 76.5096 332.102 76.0568C331.854 75.604 331.526 75.259 331.116 75.0218C330.706 74.7846 330.264 74.666 329.79 74.666C329.316 74.666 328.874 74.7846 328.464 75.0218C328.054 75.2482 327.72 75.5878 327.461 76.0406C327.213 76.4826 327.089 77.0109 327.089 77.6254C327.089 78.2399 327.213 78.779 327.461 79.2426C327.72 79.7062 328.054 80.0619 328.464 80.3099C328.884 80.5471 329.326 80.6657 329.79 80.6657C330.264 80.6657 330.706 80.5471 331.116 80.3099C331.526 80.0727 331.854 79.7277 332.102 79.2749C332.361 78.8113 332.491 78.2723 332.491 77.6578ZM340.362 73.0651C341.052 73.0651 341.661 73.2052 342.189 73.4855C342.728 73.755 343.149 74.0946 343.451 74.5043V73.2106H345.31V82.2666C345.31 83.086 345.138 83.8137 344.793 84.4498C344.448 85.0966 343.946 85.6034 343.289 85.9699C342.642 86.3365 341.866 86.5197 340.96 86.5197C339.753 86.5197 338.75 86.234 337.952 85.6626C337.154 85.102 336.702 84.3366 336.594 83.3663H338.421C338.561 83.8299 338.858 84.2018 339.311 84.4821C339.774 84.7732 340.324 84.9188 340.96 84.9188C341.704 84.9188 342.302 84.6924 342.755 84.2396C343.219 83.7868 343.451 83.1291 343.451 82.2666V80.7789C343.138 81.1993 342.712 81.5551 342.173 81.8462C341.645 82.1265 341.041 82.2666 340.362 82.2666C339.586 82.2666 338.874 82.0726 338.227 81.6845C337.591 81.2856 337.084 80.7357 336.707 80.035C336.34 79.3234 336.157 78.5202 336.157 77.6254C336.157 76.7306 336.34 75.9382 336.707 75.2482C337.084 74.5582 337.591 74.0246 338.227 73.6472C338.874 73.2591 339.586 73.0651 340.362 73.0651ZM343.451 77.6578C343.451 77.0432 343.321 76.5096 343.062 76.0568C342.814 75.604 342.486 75.259 342.076 75.0218C341.666 74.7846 341.224 74.666 340.75 74.666C340.276 74.666 339.834 74.7846 339.424 75.0218C339.014 75.2482 338.68 75.5878 338.421 76.0406C338.173 76.4826 338.049 77.0109 338.049 77.6254C338.049 78.2399 338.173 78.779 338.421 79.2426C338.68 79.7062 339.014 80.0619 339.424 80.3099C339.844 80.5471 340.286 80.6657 340.75 80.6657C341.224 80.6657 341.666 80.5471 342.076 80.3099C342.486 80.0727 342.814 79.7277 343.062 79.2749C343.321 78.8113 343.451 78.2723 343.451 77.6578ZM349.575 74.5043C349.845 74.0515 350.201 73.7011 350.643 73.4532C351.095 73.1944 351.629 73.0651 352.244 73.0651V74.9733H351.775C351.052 74.9733 350.502 75.1566 350.125 75.5231C349.759 75.8897 349.575 76.5258 349.575 77.4314V82.1211H347.732V73.2106H349.575V74.5043ZM353.324 77.6254C353.324 76.7306 353.507 75.9382 353.873 75.2482C354.251 74.5582 354.757 74.0246 355.394 73.6472C356.04 73.2591 356.752 73.0651 357.528 73.0651C358.229 73.0651 358.838 73.2052 359.356 73.4855C359.884 73.755 360.304 74.0946 360.617 74.5043V73.2106H362.477V82.1211H360.617V80.795C360.304 81.2155 359.878 81.5659 359.339 81.8462C358.8 82.1265 358.186 82.2666 357.496 82.2666C356.73 82.2666 356.03 82.0726 355.394 81.6845C354.757 81.2856 354.251 80.7357 353.873 80.035C353.507 79.3234 353.324 78.5202 353.324 77.6254ZM360.617 77.6578C360.617 77.0432 360.488 76.5096 360.229 76.0568C359.981 75.604 359.652 75.259 359.242 75.0218C358.833 74.7846 358.391 74.666 357.916 74.666C357.442 74.666 357 74.7846 356.59 75.0218C356.181 75.2482 355.846 75.5878 355.588 76.0406C355.34 76.4826 355.216 77.0109 355.216 77.6254C355.216 78.2399 355.34 78.779 355.588 79.2426C355.846 79.7062 356.181 80.0619 356.59 80.3099C357.011 80.5471 357.453 80.6657 357.916 80.6657C358.391 80.6657 358.833 80.5471 359.242 80.3099C359.652 80.0727 359.981 79.7277 360.229 79.2749C360.488 78.8113 360.617 78.2723 360.617 77.6578ZM375.684 73.0651C376.385 73.0651 377.011 73.2106 377.56 73.5017C378.121 73.7928 378.558 74.224 378.87 74.7954C379.194 75.3668 379.355 76.0568 379.355 76.8654V82.1211H377.528V77.1403C377.528 76.3425 377.329 75.7334 376.93 75.3129C376.531 74.8817 375.986 74.666 375.296 74.666C374.606 74.666 374.057 74.8817 373.647 75.3129C373.248 75.7334 373.049 76.3425 373.049 77.1403V82.1211H371.221V77.1403C371.221 76.3425 371.022 75.7334 370.623 75.3129C370.224 74.8817 369.679 74.666 368.989 74.666C368.299 74.666 367.75 74.8817 367.34 75.3129C366.941 75.7334 366.742 76.3425 366.742 77.1403V82.1211H364.898V73.2106H366.742V74.2294C367.044 73.8629 367.426 73.5772 367.89 73.3723C368.353 73.1675 368.849 73.0651 369.378 73.0651C370.089 73.0651 370.725 73.216 371.286 73.5179C371.846 73.8197 372.278 74.2564 372.58 74.8278C372.849 74.2887 373.27 73.8629 373.841 73.5502C374.412 73.2268 375.027 73.0651 375.684 73.0651ZM381.087 77.6254C381.087 76.7306 381.27 75.9382 381.637 75.2482C382.014 74.5582 382.521 74.0246 383.157 73.6472C383.804 73.2591 384.515 73.0651 385.291 73.0651C385.992 73.0651 386.601 73.2052 387.119 73.4855C387.647 73.755 388.067 74.0946 388.38 74.5043V73.2106H390.24V82.1211H388.38V80.795C388.067 81.2155 387.642 81.5659 387.103 81.8462C386.563 82.1265 385.949 82.2666 385.259 82.2666C384.494 82.2666 383.793 82.0726 383.157 81.6845C382.521 81.2856 382.014 80.7357 381.637 80.035C381.27 79.3234 381.087 78.5202 381.087 77.6254ZM388.38 77.6578C388.38 77.0432 388.251 76.5096 387.992 76.0568C387.744 75.604 387.415 75.259 387.006 75.0218C386.596 74.7846 386.154 74.666 385.679 74.666C385.205 74.666 384.763 74.7846 384.353 75.0218C383.944 75.2482 383.609 75.5878 383.351 76.0406C383.103 76.4826 382.979 77.0109 382.979 77.6254C382.979 78.2399 383.103 78.779 383.351 79.2426C383.609 79.7062 383.944 80.0619 384.353 80.3099C384.774 80.5471 385.216 80.6657 385.679 80.6657C386.154 80.6657 386.596 80.5471 387.006 80.3099C387.415 80.0727 387.744 79.7277 387.992 79.2749C388.251 78.8113 388.38 78.2723 388.38 77.6578ZM315.185 101.625C315.185 100.731 315.368 99.9382 315.735 99.2482C316.112 98.5582 316.619 98.0246 317.255 97.6472C317.902 97.2591 318.619 97.0651 319.406 97.0651C319.988 97.0651 320.559 97.1944 321.12 97.4532C321.691 97.7011 322.144 98.0354 322.478 98.4558V94.1542H324.338V106.121H322.478V104.779C322.176 105.21 321.756 105.566 321.217 105.846C320.689 106.126 320.079 106.267 319.389 106.267C318.613 106.267 317.902 106.073 317.255 105.684C316.619 105.286 316.112 104.736 315.735 104.035C315.368 103.323 315.185 102.52 315.185 101.625ZM322.478 101.658C322.478 101.043 322.349 100.51 322.09 100.057C321.842 99.604 321.513 99.259 321.104 99.0218C320.694 98.7846 320.252 98.666 319.778 98.666C319.303 98.666 318.861 98.7846 318.451 99.0218C318.042 99.2482 317.708 99.5878 317.449 100.041C317.201 100.483 317.077 101.011 317.077 101.625C317.077 102.24 317.201 102.779 317.449 103.243C317.708 103.706 318.042 104.062 318.451 104.31C318.872 104.547 319.314 104.666 319.778 104.666C320.252 104.666 320.694 104.547 321.104 104.31C321.513 104.073 321.842 103.728 322.09 103.275C322.349 102.811 322.478 102.272 322.478 101.658ZM334.926 101.448C334.926 101.782 334.904 102.084 334.861 102.353H328.053C328.107 103.065 328.371 103.636 328.845 104.067C329.32 104.499 329.902 104.714 330.592 104.714C331.584 104.714 332.285 104.299 332.694 103.469H334.683C334.414 104.288 333.923 104.962 333.212 105.49C332.511 106.008 331.638 106.267 330.592 106.267C329.74 106.267 328.975 106.078 328.296 105.701C327.627 105.313 327.099 104.773 326.711 104.083C326.333 103.383 326.145 102.574 326.145 101.658C326.145 100.741 326.328 99.9382 326.695 99.2482C327.072 98.5475 327.595 98.0084 328.263 97.6311C328.942 97.2537 329.719 97.0651 330.592 97.0651C331.433 97.0651 332.182 97.2483 332.84 97.6149C333.497 97.9814 334.01 98.4989 334.376 99.1674C334.743 99.825 334.926 100.585 334.926 101.448ZM333.001 100.865C332.991 100.186 332.748 99.6417 332.274 99.232C331.799 98.8224 331.212 98.6175 330.511 98.6175C329.875 98.6175 329.331 98.8224 328.878 99.232C328.425 99.6309 328.155 100.175 328.069 100.865H333.001ZM349.075 98.1162C348.784 97.5556 348.38 97.1351 347.862 96.8548C347.345 96.5637 346.746 96.4182 346.067 96.4182C345.323 96.4182 344.66 96.5853 344.078 96.9195C343.496 97.2537 343.038 97.7281 342.704 98.3426C342.38 98.9571 342.218 99.6687 342.218 100.477C342.218 101.286 342.38 102.003 342.704 102.628C343.038 103.243 343.496 103.717 344.078 104.051C344.66 104.385 345.323 104.552 346.067 104.552C347.07 104.552 347.884 104.272 348.509 103.712C349.134 103.151 349.517 102.391 349.657 101.431H345.437V99.9598H351.63V101.399C351.512 102.272 351.199 103.075 350.692 103.809C350.196 104.542 349.544 105.129 348.736 105.571C347.938 106.003 347.048 106.218 346.067 106.218C345.011 106.218 344.046 105.976 343.173 105.49C342.299 104.994 341.604 104.31 341.086 103.437C340.58 102.563 340.326 101.577 340.326 100.477C340.326 99.3776 340.58 98.3911 341.086 97.5179C341.604 96.6446 342.299 95.9654 343.173 95.4803C344.057 94.9843 345.022 94.7364 346.067 94.7364C347.264 94.7364 348.326 95.0328 349.253 95.6258C350.191 96.208 350.87 97.0381 351.291 98.1162H349.075ZM352.834 101.625C352.834 100.731 353.017 99.9382 353.384 99.2482C353.761 98.5582 354.268 98.0246 354.904 97.6472C355.551 97.2591 356.262 97.0651 357.039 97.0651C357.739 97.0651 358.349 97.2052 358.866 97.4855C359.394 97.755 359.815 98.0946 360.127 98.5043V97.2106H361.987V106.121H360.127V104.795C359.815 105.215 359.389 105.566 358.85 105.846C358.311 106.126 357.696 106.267 357.006 106.267C356.241 106.267 355.54 106.073 354.904 105.684C354.268 105.286 353.761 104.736 353.384 104.035C353.017 103.323 352.834 102.52 352.834 101.625ZM360.127 101.658C360.127 101.043 359.998 100.51 359.739 100.057C359.491 99.604 359.162 99.259 358.753 99.0218C358.343 98.7846 357.901 98.666 357.427 98.666C356.952 98.666 356.51 98.7846 356.101 99.0218C355.691 99.2482 355.357 99.5878 355.098 100.041C354.85 100.483 354.726 101.011 354.726 101.625C354.726 102.24 354.85 102.779 355.098 103.243C355.357 103.706 355.691 104.062 356.101 104.31C356.521 104.547 356.963 104.666 357.427 104.666C357.901 104.666 358.343 104.547 358.753 104.31C359.162 104.073 359.491 103.728 359.739 103.275C359.998 102.811 360.127 102.272 360.127 101.658ZM368.904 97.0651C369.605 97.0651 370.23 97.2106 370.78 97.5017C371.341 97.7928 371.777 98.224 372.09 98.7954C372.403 99.3668 372.559 100.057 372.559 100.865V106.121H370.732V101.14C370.732 100.342 370.532 99.7334 370.133 99.3129C369.734 98.8817 369.19 98.666 368.5 98.666C367.81 98.666 367.26 98.8817 366.85 99.3129C366.452 99.7334 366.252 100.342 366.252 101.14V106.121H364.409V97.2106H366.252V98.2294C366.554 97.8629 366.937 97.5772 367.4 97.3723C367.875 97.1675 368.376 97.0651 368.904 97.0651ZM377.061 98.7146V103.647C377.061 103.981 377.137 104.224 377.288 104.375C377.449 104.515 377.719 104.585 378.096 104.585H379.228V106.121H377.773C376.943 106.121 376.307 105.927 375.865 105.539C375.423 105.151 375.202 104.52 375.202 103.647V98.7146H374.15V97.2106H375.202V94.9951H377.061V97.2106H379.228V98.7146H377.061ZM383.078 98.7146V103.647C383.078 103.981 383.154 104.224 383.305 104.375C383.466 104.515 383.736 104.585 384.113 104.585H385.245V106.121H383.79C382.96 106.121 382.324 105.927 381.882 105.539C381.44 105.151 381.219 104.52 381.219 103.647V98.7146H380.167V97.2106H381.219V94.9951H383.078V97.2106H385.245V98.7146H383.078Z" fill="#4B4B4B"/>
<path d="M541.843 64.4069C541.843 63.3073 542.097 62.3208 542.603 61.4476C543.121 60.5743 543.816 59.8951 544.689 59.4099C545.573 58.914 546.538 58.6661 547.584 58.6661C548.781 58.6661 549.843 58.9625 550.77 59.5555C551.708 60.1377 552.387 60.9678 552.807 62.0459H550.592C550.301 61.4529 549.897 61.0109 549.379 60.7198C548.862 60.4288 548.263 60.2832 547.584 60.2832C546.84 60.2832 546.177 60.4503 545.595 60.7845C545.013 61.1187 544.555 61.5985 544.22 62.2238C543.897 62.8491 543.735 63.5768 543.735 64.4069C543.735 65.2371 543.897 65.9648 544.22 66.5901C544.555 67.2154 545.013 67.7005 545.595 68.0455C546.177 68.3797 546.84 68.5468 547.584 68.5468C548.263 68.5468 548.862 68.4013 549.379 68.1102C549.897 67.8191 550.301 67.3771 550.592 66.7841H552.807C552.387 67.8622 551.708 68.6924 550.77 69.2746C549.843 69.8567 548.781 70.1478 547.584 70.1478C546.528 70.1478 545.563 69.9052 544.689 69.4201C543.816 68.9242 543.121 68.2396 542.603 67.3663C542.097 66.4931 541.843 65.5066 541.843 64.4069ZM558.83 70.1963C557.989 70.1963 557.229 70.0077 556.55 69.6303C555.871 69.2422 555.337 68.7032 554.949 68.0132C554.561 67.3124 554.367 66.5038 554.367 65.5875C554.367 64.6819 554.566 63.8787 554.965 63.1779C555.364 62.4771 555.909 61.9381 556.599 61.5608C557.289 61.1834 558.06 60.9948 558.911 60.9948C559.763 60.9948 560.534 61.1834 561.224 61.5608C561.914 61.9381 562.458 62.4771 562.857 63.1779C563.256 63.8787 563.455 64.6819 563.455 65.5875C563.455 66.4931 563.251 67.2962 562.841 67.997C562.431 68.6978 561.871 69.2422 561.159 69.6303C560.458 70.0077 559.682 70.1963 558.83 70.1963ZM558.83 68.5953C559.305 68.5953 559.747 68.4821 560.156 68.2557C560.577 68.0293 560.916 67.6897 561.175 67.2369C561.434 66.7841 561.563 66.2343 561.563 65.5875C561.563 64.9406 561.439 64.3962 561.191 63.9541C560.943 63.5013 560.615 63.1617 560.205 62.9353C559.795 62.7089 559.353 62.5957 558.879 62.5957C558.405 62.5957 557.962 62.7089 557.553 62.9353C557.154 63.1617 556.836 63.5013 556.599 63.9541C556.362 64.3962 556.243 64.9406 556.243 65.5875C556.243 66.547 556.485 67.2908 556.971 67.8191C557.467 68.3366 558.086 68.5953 558.83 68.5953ZM569.774 60.9948C570.474 60.9948 571.1 61.1403 571.649 61.4314C572.21 61.7225 572.647 62.1537 572.959 62.7251C573.272 63.2965 573.428 63.9865 573.428 64.7951V70.0508H571.601V65.07C571.601 64.2722 571.401 63.663 571.003 63.2426C570.604 62.8113 570.059 62.5957 569.369 62.5957C568.679 62.5957 568.129 62.8113 567.72 63.2426C567.321 63.663 567.121 64.2722 567.121 65.07V70.0508H565.278V61.1403H567.121V62.1591C567.423 61.7925 567.806 61.5069 568.27 61.302C568.744 61.0972 569.245 60.9948 569.774 60.9948ZM579.515 62.6442H577.866V70.0508H576.006V62.6442H574.955V61.1403H576.006V60.5096C576.006 59.4854 576.276 58.7415 576.815 58.2779C577.365 57.8036 578.222 57.5664 579.386 57.5664V59.1027C578.825 59.1027 578.432 59.2105 578.206 59.4261C577.979 59.631 577.866 59.9921 577.866 60.5096V61.1403H579.515V62.6442ZM582.087 59.9598C581.753 59.9598 581.473 59.8466 581.246 59.6202C581.02 59.3938 580.907 59.1135 580.907 58.7793C580.907 58.445 581.02 58.1647 581.246 57.9383C581.473 57.7119 581.753 57.5987 582.087 57.5987C582.411 57.5987 582.686 57.7119 582.912 57.9383C583.138 58.1647 583.252 58.445 583.252 58.7793C583.252 59.1135 583.138 59.3938 582.912 59.6202C582.686 59.8466 582.411 59.9598 582.087 59.9598ZM582.993 61.1403V70.0508H581.149V61.1403H582.993ZM589.003 60.9948C589.693 60.9948 590.302 61.1349 590.831 61.4152C591.37 61.6847 591.79 62.0243 592.092 62.434V61.1403H593.952V70.1963C593.952 71.0157 593.779 71.7434 593.434 72.3795C593.089 73.0263 592.588 73.533 591.93 73.8996C591.283 74.2661 590.507 74.4494 589.602 74.4494C588.394 74.4494 587.392 74.1637 586.594 73.5923C585.796 73.0317 585.343 72.2663 585.235 71.296H587.063C587.203 71.7596 587.499 72.1315 587.952 72.4118C588.416 72.7029 588.966 72.8484 589.602 72.8484C590.346 72.8484 590.944 72.622 591.397 72.1692C591.86 71.7164 592.092 71.0588 592.092 70.1963V68.7085C591.779 69.129 591.354 69.4848 590.815 69.7759C590.286 70.0562 589.683 70.1963 589.003 70.1963C588.227 70.1963 587.516 70.0023 586.869 69.6142C586.233 69.2153 585.726 68.6654 585.349 67.9647C584.982 67.2531 584.799 66.4499 584.799 65.5551C584.799 64.6603 584.982 63.8679 585.349 63.1779C585.726 62.4879 586.233 61.9543 586.869 61.5769C587.516 61.1888 588.227 60.9948 589.003 60.9948ZM592.092 65.5875C592.092 64.9729 591.963 64.4393 591.704 63.9865C591.456 63.5337 591.127 63.1887 590.717 62.9515C590.308 62.7143 589.866 62.5957 589.391 62.5957C588.917 62.5957 588.475 62.7143 588.065 62.9515C587.656 63.1779 587.321 63.5175 587.063 63.9703C586.815 64.4123 586.691 64.9406 586.691 65.5551C586.691 66.1696 586.815 66.7087 587.063 67.1723C587.321 67.6358 587.656 67.9916 588.065 68.2396C588.486 68.4768 588.928 68.5953 589.391 68.5953C589.866 68.5953 590.308 68.4768 590.717 68.2396C591.127 68.0024 591.456 67.6574 591.704 67.2046C591.963 66.741 592.092 66.202 592.092 65.5875ZM604.443 61.1403V70.0508H602.599V68.9996C602.308 69.3662 601.925 69.6573 601.451 69.8729C600.987 70.0777 600.492 70.1802 599.963 70.1802C599.263 70.1802 598.632 70.0346 598.071 69.7435C597.521 69.4524 597.085 69.0212 596.761 68.4498C596.449 67.8784 596.292 67.1884 596.292 66.3799V61.1403H598.12V66.1049C598.12 66.9027 598.319 67.5172 598.718 67.9485C599.117 68.3689 599.661 68.5792 600.351 68.5792C601.041 68.5792 601.586 68.3689 601.985 67.9485C602.394 67.5172 602.599 66.9027 602.599 66.1049V61.1403H604.443ZM608.719 62.434C608.988 61.9812 609.344 61.6308 609.786 61.3829C610.239 61.1241 610.773 60.9948 611.387 60.9948V62.903H610.918C610.196 62.903 609.646 63.0863 609.269 63.4528C608.902 63.8194 608.719 64.4554 608.719 65.3611V70.0508H606.875V61.1403H608.719V62.434ZM612.467 65.5551C612.467 64.6603 612.65 63.8679 613.017 63.1779C613.394 62.4879 613.901 61.9543 614.537 61.5769C615.184 61.1888 615.895 60.9948 616.672 60.9948C617.372 60.9948 617.982 61.1349 618.499 61.4152C619.027 61.6847 619.448 62.0243 619.76 62.434V61.1403H621.62V70.0508H619.76V68.7247C619.448 69.1452 619.022 69.4956 618.483 69.7759C617.944 70.0562 617.329 70.1963 616.639 70.1963C615.874 70.1963 615.173 70.0023 614.537 69.6142C613.901 69.2153 613.394 68.6654 613.017 67.9647C612.65 67.2531 612.467 66.4499 612.467 65.5551ZM619.76 65.5875C619.76 64.9729 619.631 64.4393 619.372 63.9865C619.124 63.5337 618.796 63.1887 618.386 62.9515C617.976 62.7143 617.534 62.5957 617.06 62.5957C616.585 62.5957 616.143 62.7143 615.734 62.9515C615.324 63.1779 614.99 63.5175 614.731 63.9703C614.483 64.4123 614.359 64.9406 614.359 65.5551C614.359 66.1696 614.483 66.7087 614.731 67.1723C614.99 67.6358 615.324 67.9916 615.734 68.2396C616.154 68.4768 616.596 68.5953 617.06 68.5953C617.534 68.5953 617.976 68.4768 618.386 68.2396C618.796 68.0024 619.124 67.6574 619.372 67.2046C619.631 66.741 619.76 66.202 619.76 65.5875ZM623.427 65.5875C623.427 64.6711 623.61 63.8679 623.977 63.1779C624.354 62.4771 624.872 61.9381 625.529 61.5608C626.187 61.1834 626.942 60.9948 627.793 60.9948C628.871 60.9948 629.761 61.2535 630.462 61.771C631.173 62.2777 631.653 63.0054 631.901 63.9541H629.912C629.75 63.5121 629.491 63.1671 629.136 62.9192C628.78 62.6712 628.332 62.5472 627.793 62.5472C627.039 62.5472 626.435 62.8167 625.982 63.3558C625.54 63.8841 625.319 64.6279 625.319 65.5875C625.319 66.547 625.54 67.2962 625.982 67.8353C626.435 68.3743 627.039 68.6439 627.793 68.6439C628.861 68.6439 629.567 68.1749 629.912 67.2369H631.901C631.642 68.1425 631.157 68.8649 630.445 69.4039C629.734 69.9322 628.85 70.1963 627.793 70.1963C626.942 70.1963 626.187 70.0077 625.529 69.6303C624.872 69.2422 624.354 68.7032 623.977 68.0132C623.61 67.3124 623.427 66.5038 623.427 65.5875ZM634.676 59.9598C634.342 59.9598 634.062 59.8466 633.835 59.6202C633.609 59.3938 633.496 59.1135 633.496 58.7793C633.496 58.445 633.609 58.1647 633.835 57.9383C634.062 57.7119 634.342 57.5987 634.676 57.5987C635 57.5987 635.274 57.7119 635.501 57.9383C635.727 58.1647 635.84 58.445 635.84 58.7793C635.84 59.1135 635.727 59.3938 635.501 59.6202C635.274 59.8466 635 59.9598 634.676 59.9598ZM635.582 61.1403V70.0508H633.738V61.1403H635.582ZM641.867 70.1963C641.026 70.1963 640.266 70.0077 639.587 69.6303C638.908 69.2422 638.374 68.7032 637.986 68.0132C637.598 67.3124 637.404 66.5038 637.404 65.5875C637.404 64.6819 637.603 63.8787 638.002 63.1779C638.401 62.4771 638.945 61.9381 639.635 61.5608C640.325 61.1834 641.096 60.9948 641.948 60.9948C642.8 60.9948 643.571 61.1834 644.26 61.5608C644.95 61.9381 645.495 62.4771 645.894 63.1779C646.293 63.8787 646.492 64.6819 646.492 65.5875C646.492 66.4931 646.287 67.2962 645.878 67.997C645.468 68.6978 644.907 69.2422 644.196 69.6303C643.495 70.0077 642.719 70.1963 641.867 70.1963ZM641.867 68.5953C642.341 68.5953 642.783 68.4821 643.193 68.2557C643.614 68.0293 643.953 67.6897 644.212 67.2369C644.471 66.7841 644.6 66.2343 644.6 65.5875C644.6 64.9406 644.476 64.3962 644.228 63.9541C643.98 63.5013 643.651 63.1617 643.242 62.9353C642.832 62.7089 642.39 62.5957 641.916 62.5957C641.441 62.5957 640.999 62.7089 640.59 62.9353C640.191 63.1617 639.873 63.5013 639.635 63.9541C639.398 64.3962 639.28 64.9406 639.28 65.5875C639.28 66.547 639.522 67.2908 640.007 67.8191C640.503 68.3366 641.123 68.5953 641.867 68.5953ZM643.614 58.6014L640.04 60.3641V59.0057L643.614 57.0327V58.6014ZM652.81 60.9948C653.511 60.9948 654.136 61.1403 654.686 61.4314C655.247 61.7225 655.683 62.1537 655.996 62.7251C656.309 63.2965 656.465 63.9865 656.465 64.7951V70.0508H654.638V65.07C654.638 64.2722 654.438 63.663 654.039 63.2426C653.64 62.8113 653.096 62.5957 652.406 62.5957C651.716 62.5957 651.166 62.8113 650.756 63.2426C650.358 63.663 650.158 64.2722 650.158 65.07V70.0508H648.315V61.1403H650.158V62.1591C650.46 61.7925 650.843 61.5069 651.306 61.302C651.781 61.0972 652.282 60.9948 652.81 60.9948ZM567.664 89.5551C567.664 88.6603 567.847 87.8679 568.214 87.1779C568.591 86.4879 569.098 85.9543 569.734 85.5769C570.381 85.1888 571.098 84.9948 571.885 84.9948C572.467 84.9948 573.038 85.1241 573.599 85.3829C574.17 85.6308 574.623 85.965 574.957 86.3855V82.0839H576.817V94.0508H574.957V92.7085C574.655 93.1398 574.235 93.4956 573.696 93.7759C573.168 94.0562 572.558 94.1963 571.868 94.1963C571.092 94.1963 570.381 94.0023 569.734 93.6142C569.098 93.2153 568.591 92.6654 568.214 91.9647C567.847 91.2531 567.664 90.4499 567.664 89.5551ZM574.957 89.5875C574.957 88.9729 574.828 88.4393 574.569 87.9865C574.321 87.5337 573.992 87.1887 573.583 86.9515C573.173 86.7143 572.731 86.5957 572.257 86.5957C571.782 86.5957 571.34 86.7143 570.931 86.9515C570.521 87.1779 570.187 87.5175 569.928 87.9703C569.68 88.4123 569.556 88.9406 569.556 89.5551C569.556 90.1696 569.68 90.7087 569.928 91.1723C570.187 91.6358 570.521 91.9916 570.931 92.2396C571.351 92.4768 571.793 92.5953 572.257 92.5953C572.731 92.5953 573.173 92.4768 573.583 92.2396C573.992 92.0024 574.321 91.6574 574.569 91.2046C574.828 90.741 574.957 90.202 574.957 89.5875ZM587.405 89.3772C587.405 89.7114 587.383 90.0133 587.34 90.2828H580.532C580.586 90.9944 580.85 91.5658 581.325 91.997C581.799 92.4282 582.381 92.6439 583.071 92.6439C584.063 92.6439 584.764 92.2288 585.173 91.3987H587.162C586.893 92.218 586.402 92.8918 585.691 93.4201C584.99 93.9376 584.117 94.1963 583.071 94.1963C582.219 94.1963 581.454 94.0077 580.775 93.6303C580.106 93.2422 579.578 92.7032 579.19 92.0132C578.813 91.3124 578.624 90.5038 578.624 89.5875C578.624 88.6711 578.807 87.8679 579.174 87.1779C579.551 86.4771 580.074 85.9381 580.742 85.5608C581.422 85.1834 582.198 84.9948 583.071 84.9948C583.912 84.9948 584.661 85.178 585.319 85.5446C585.976 85.9111 586.489 86.4286 586.855 87.097C587.222 87.7547 587.405 88.5147 587.405 89.3772ZM585.481 88.7951C585.47 88.1158 585.227 87.5714 584.753 87.1617C584.278 86.7521 583.691 86.5472 582.99 86.5472C582.354 86.5472 581.81 86.7521 581.357 87.1617C580.904 87.5606 580.635 88.1051 580.548 88.7951H585.481ZM592.805 89.5875C592.805 88.6711 592.989 87.8679 593.355 87.1779C593.733 86.4771 594.25 85.9381 594.908 85.5608C595.565 85.1834 596.32 84.9948 597.172 84.9948C598.25 84.9948 599.139 85.2535 599.84 85.771C600.552 86.2777 601.031 87.0054 601.279 87.9541H599.29C599.129 87.5121 598.87 87.1671 598.514 86.9192C598.158 86.6712 597.711 86.5472 597.172 86.5472C596.417 86.5472 595.813 86.8167 595.361 87.3558C594.919 87.8841 594.698 88.6279 594.698 89.5875C594.698 90.547 594.919 91.2962 595.361 91.8353C595.813 92.3743 596.417 92.6439 597.172 92.6439C598.239 92.6439 598.945 92.1749 599.29 91.2369H601.279C601.021 92.1425 600.535 92.8649 599.824 93.4039C599.112 93.9322 598.228 94.1963 597.172 94.1963C596.32 94.1963 595.565 94.0077 594.908 93.6303C594.25 93.2422 593.733 92.7032 593.355 92.0132C592.989 91.3124 592.805 90.5038 592.805 89.5875ZM604.055 83.9598C603.72 83.9598 603.44 83.8466 603.214 83.6202C602.987 83.3938 602.874 83.1135 602.874 82.7793C602.874 82.445 602.987 82.1647 603.214 81.9383C603.44 81.7119 603.72 81.5987 604.055 81.5987C604.378 81.5987 604.653 81.7119 604.879 81.9383C605.106 82.1647 605.219 82.445 605.219 82.7793C605.219 83.1135 605.106 83.3938 604.879 83.6202C604.653 83.8466 604.378 83.9598 604.055 83.9598ZM604.96 85.1403V94.0508H603.117V85.1403H604.96ZM609.531 86.6442V91.5765C609.531 91.9108 609.607 92.1533 609.758 92.3043C609.919 92.4444 610.189 92.5145 610.566 92.5145H611.698V94.0508H610.243C609.413 94.0508 608.777 93.8567 608.335 93.4686C607.893 93.0805 607.672 92.4498 607.672 91.5765V86.6442H606.62V85.1403H607.672V82.9248H609.531V85.1403H611.698V86.6442H609.531ZM612.783 89.5551C612.783 88.6603 612.966 87.8679 613.333 87.1779C613.71 86.4879 614.217 85.9543 614.853 85.5769C615.5 85.1888 616.211 84.9948 616.988 84.9948C617.688 84.9948 618.297 85.1349 618.815 85.4152C619.343 85.6847 619.764 86.0243 620.076 86.434V85.1403H621.936V94.0508H620.076V92.7247C619.764 93.1452 619.338 93.4956 618.799 93.7759C618.26 94.0562 617.645 94.1963 616.955 94.1963C616.19 94.1963 615.489 94.0023 614.853 93.6142C614.217 93.2153 613.71 92.6654 613.333 91.9647C612.966 91.2531 612.783 90.4499 612.783 89.5551ZM620.076 89.5875C620.076 88.9729 619.947 88.4393 619.688 87.9865C619.44 87.5337 619.111 87.1887 618.702 86.9515C618.292 86.7143 617.85 86.5957 617.376 86.5957C616.901 86.5957 616.459 86.7143 616.05 86.9515C615.64 87.1779 615.306 87.5175 615.047 87.9703C614.799 88.4123 614.675 88.9406 614.675 89.5551C614.675 90.1696 614.799 90.7087 615.047 91.1723C615.306 91.6358 615.64 91.9916 616.05 92.2396C616.47 92.4768 616.912 92.5953 617.376 92.5953C617.85 92.5953 618.292 92.4768 618.702 92.2396C619.111 92.0024 619.44 91.6574 619.688 91.2046C619.947 90.741 620.076 90.202 620.076 89.5875ZM627.592 94.1963C626.891 94.1963 626.26 94.0723 625.7 93.8244C625.15 93.5656 624.713 93.2206 624.39 92.7894C624.066 92.3474 623.894 91.8569 623.872 91.3178H625.781C625.813 91.6951 625.991 92.0132 626.314 92.2719C626.648 92.5199 627.063 92.6439 627.559 92.6439C628.077 92.6439 628.476 92.5468 628.756 92.3528C629.047 92.1479 629.193 91.8892 629.193 91.5765C629.193 91.2423 629.031 90.9944 628.708 90.8327C628.395 90.6709 627.894 90.4931 627.204 90.299C626.535 90.1157 625.991 89.9378 625.57 89.7653C625.15 89.5928 624.783 89.3287 624.471 88.9729C624.169 88.6172 624.018 88.1482 624.018 87.566C624.018 87.0917 624.158 86.6604 624.438 86.2723C624.719 85.8734 625.117 85.5608 625.635 85.3344C626.163 85.108 626.767 84.9948 627.446 84.9948C628.46 84.9948 629.274 85.2535 629.888 85.771C630.513 86.2777 630.848 86.9731 630.891 87.8571H629.047C629.015 87.4582 628.853 87.1402 628.562 86.903C628.271 86.6658 627.877 86.5472 627.382 86.5472C626.896 86.5472 626.524 86.6389 626.266 86.8221C626.007 87.0054 625.878 87.248 625.878 87.5498C625.878 87.787 625.964 87.9865 626.136 88.1482C626.309 88.3099 626.519 88.4393 626.767 88.5363C627.015 88.6226 627.382 88.7358 627.867 88.8759C628.514 89.0484 629.042 89.2263 629.451 89.4096C629.872 89.5821 630.233 89.8408 630.535 90.1858C630.837 90.5308 630.993 90.989 631.004 91.5604C631.004 92.0671 630.864 92.5199 630.583 92.9188C630.303 93.3177 629.904 93.6303 629.387 93.8567C628.88 94.0831 628.282 94.1963 627.592 94.1963ZM557.799 109.14L552.333 122.239H550.424L552.236 117.905L548.726 109.14H550.78L553.287 115.932L555.89 109.14H557.799ZM562.776 113.587C562.776 112.671 562.959 111.868 563.326 111.178C563.703 110.477 564.221 109.938 564.878 109.561C565.536 109.183 566.291 108.995 567.142 108.995C568.221 108.995 569.11 109.253 569.811 109.771C570.522 110.278 571.002 111.005 571.25 111.954H569.261C569.099 111.512 568.84 111.167 568.485 110.919C568.129 110.671 567.681 110.547 567.142 110.547C566.388 110.547 565.784 110.817 565.331 111.356C564.889 111.884 564.668 112.628 564.668 113.587C564.668 114.547 564.889 115.296 565.331 115.835C565.784 116.374 566.388 116.644 567.142 116.644C568.21 116.644 568.916 116.175 569.261 115.237H571.25C570.991 116.143 570.506 116.865 569.795 117.404C569.083 117.932 568.199 118.196 567.142 118.196C566.291 118.196 565.536 118.008 564.878 117.63C564.221 117.242 563.703 116.703 563.326 116.013C562.959 115.312 562.776 114.504 562.776 113.587ZM572.473 113.555C572.473 112.66 572.656 111.868 573.023 111.178C573.4 110.488 573.907 109.954 574.543 109.577C575.19 109.189 575.901 108.995 576.677 108.995C577.378 108.995 577.987 109.135 578.505 109.415C579.033 109.685 579.453 110.024 579.766 110.434V109.14H581.626V118.051H579.766V116.725C579.453 117.145 579.028 117.496 578.488 117.776C577.949 118.056 577.335 118.196 576.645 118.196C575.879 118.196 575.179 118.002 574.543 117.614C573.907 117.215 573.4 116.665 573.023 115.965C572.656 115.253 572.473 114.45 572.473 113.555ZM579.766 113.587C579.766 112.973 579.637 112.439 579.378 111.986C579.13 111.534 578.801 111.189 578.391 110.952C577.982 110.714 577.54 110.596 577.065 110.596C576.591 110.596 576.149 110.714 575.739 110.952C575.33 111.178 574.995 111.518 574.737 111.97C574.489 112.412 574.365 112.941 574.365 113.555C574.365 114.17 574.489 114.709 574.737 115.172C574.995 115.636 575.33 115.992 575.739 116.24C576.16 116.477 576.602 116.595 577.065 116.595C577.54 116.595 577.982 116.477 578.391 116.24C578.801 116.002 579.13 115.657 579.378 115.205C579.637 114.741 579.766 114.202 579.766 113.587ZM585.891 106.084V118.051H584.047V106.084H585.891ZM596.478 113.377C596.478 113.711 596.456 114.013 596.413 114.283H589.605C589.659 114.994 589.923 115.566 590.397 115.997C590.872 116.428 591.454 116.644 592.144 116.644C593.136 116.644 593.836 116.229 594.246 115.399H596.235C595.966 116.218 595.475 116.892 594.764 117.42C594.063 117.938 593.19 118.196 592.144 118.196C591.292 118.196 590.527 118.008 589.847 117.63C589.179 117.242 588.651 116.703 588.263 116.013C587.885 115.312 587.697 114.504 587.697 113.587C587.697 112.671 587.88 111.868 588.246 111.178C588.624 110.477 589.147 109.938 589.815 109.561C590.494 109.183 591.271 108.995 592.144 108.995C592.985 108.995 593.734 109.178 594.392 109.545C595.049 109.911 595.561 110.429 595.928 111.097C596.294 111.755 596.478 112.515 596.478 113.377ZM594.553 112.795C594.543 112.116 594.3 111.571 593.826 111.162C593.351 110.752 592.764 110.547 592.063 110.547C591.427 110.547 590.882 110.752 590.43 111.162C589.977 111.561 589.707 112.105 589.621 112.795H594.553ZM602.788 108.995C603.488 108.995 604.114 109.14 604.664 109.431C605.224 109.722 605.661 110.154 605.973 110.725C606.286 111.296 606.442 111.986 606.442 112.795V118.051H604.615V113.07C604.615 112.272 604.416 111.663 604.017 111.243C603.618 110.811 603.073 110.596 602.383 110.596C601.693 110.596 601.144 110.811 600.734 111.243C600.335 111.663 600.136 112.272 600.136 113.07V118.051H598.292V109.14H600.136V110.159C600.437 109.793 600.82 109.507 601.284 109.302C601.758 109.097 602.259 108.995 602.788 108.995ZM608.179 113.555C608.179 112.66 608.363 111.868 608.729 111.178C609.107 110.488 609.613 109.954 610.249 109.577C610.896 109.189 611.613 108.995 612.4 108.995C612.982 108.995 613.554 109.124 614.114 109.383C614.686 109.631 615.139 109.965 615.473 110.385V106.084H617.333V118.051H615.473V116.709C615.171 117.14 614.75 117.496 614.211 117.776C613.683 118.056 613.074 118.196 612.384 118.196C611.608 118.196 610.896 118.002 610.249 117.614C609.613 117.215 609.107 116.665 608.729 115.965C608.363 115.253 608.179 114.45 608.179 113.555ZM615.473 113.587C615.473 112.973 615.343 112.439 615.085 111.986C614.837 111.534 614.508 111.189 614.098 110.952C613.689 110.714 613.247 110.596 612.772 110.596C612.298 110.596 611.856 110.714 611.446 110.952C611.036 111.178 610.702 111.518 610.443 111.97C610.195 112.412 610.072 112.941 610.072 113.555C610.072 114.17 610.195 114.709 610.443 115.172C610.702 115.636 611.036 115.992 611.446 116.24C611.867 116.477 612.309 116.595 612.772 116.595C613.247 116.595 613.689 116.477 614.098 116.24C614.508 116.002 614.837 115.657 615.085 115.205C615.343 114.741 615.473 114.202 615.473 113.587ZM619.139 113.555C619.139 112.66 619.323 111.868 619.689 111.178C620.067 110.488 620.573 109.954 621.209 109.577C621.856 109.189 622.568 108.995 623.344 108.995C624.045 108.995 624.654 109.135 625.171 109.415C625.7 109.685 626.12 110.024 626.433 110.434V109.14H628.292V118.051H626.433V116.725C626.12 117.145 625.694 117.496 625.155 117.776C624.616 118.056 624.002 118.196 623.312 118.196C622.546 118.196 621.845 118.002 621.209 117.614C620.573 117.215 620.067 116.665 619.689 115.965C619.323 115.253 619.139 114.45 619.139 113.555ZM626.433 113.587C626.433 112.973 626.303 112.439 626.045 111.986C625.797 111.534 625.468 111.189 625.058 110.952C624.649 110.714 624.206 110.596 623.732 110.596C623.258 110.596 622.816 110.714 622.406 110.952C621.996 111.178 621.662 111.518 621.403 111.97C621.155 112.412 621.031 112.941 621.031 113.555C621.031 114.17 621.155 114.709 621.403 115.172C621.662 115.636 621.996 115.992 622.406 116.24C622.827 116.477 623.269 116.595 623.732 116.595C624.206 116.595 624.649 116.477 625.058 116.24C625.468 116.002 625.797 115.657 626.045 115.205C626.303 114.741 626.433 114.202 626.433 113.587ZM632.557 110.434C632.827 109.981 633.183 109.631 633.625 109.383C634.078 109.124 634.611 108.995 635.226 108.995V110.903H634.757C634.034 110.903 633.485 111.086 633.107 111.453C632.741 111.819 632.557 112.455 632.557 113.361V118.051H630.714V109.14H632.557V110.434ZM637.858 107.96C637.524 107.96 637.244 107.847 637.017 107.62C636.791 107.394 636.678 107.113 636.678 106.779C636.678 106.445 636.791 106.165 637.017 105.938C637.244 105.712 637.524 105.599 637.858 105.599C638.182 105.599 638.457 105.712 638.683 105.938C638.909 106.165 639.023 106.445 639.023 106.779C639.023 107.113 638.909 107.394 638.683 107.62C638.457 107.847 638.182 107.96 637.858 107.96ZM638.764 109.14V118.051H636.92V109.14H638.764ZM645.049 118.196C644.208 118.196 643.448 118.008 642.769 117.63C642.09 117.242 641.556 116.703 641.168 116.013C640.78 115.312 640.586 114.504 640.586 113.587C640.586 112.682 640.785 111.879 641.184 111.178C641.583 110.477 642.128 109.938 642.818 109.561C643.508 109.183 644.278 108.995 645.13 108.995C645.982 108.995 646.753 109.183 647.443 109.561C648.133 109.938 648.677 110.477 649.076 111.178C649.475 111.879 649.674 112.682 649.674 113.587C649.674 114.493 649.469 115.296 649.06 115.997C648.65 116.698 648.09 117.242 647.378 117.63C646.677 118.008 645.901 118.196 645.049 118.196ZM645.049 116.595C645.524 116.595 645.966 116.482 646.375 116.256C646.796 116.029 647.135 115.69 647.394 115.237C647.653 114.784 647.782 114.234 647.782 113.587C647.782 112.941 647.658 112.396 647.41 111.954C647.162 111.501 646.834 111.162 646.424 110.935C646.014 110.709 645.572 110.596 645.098 110.596C644.623 110.596 644.181 110.709 643.772 110.935C643.373 111.162 643.055 111.501 642.818 111.954C642.58 112.396 642.462 112.941 642.462 113.587C642.462 114.547 642.704 115.291 643.19 115.819C643.685 116.337 644.305 116.595 645.049 116.595Z" fill="#4B4B4B"/>
<path d="M521.67 47.0677C529.482 30.329 542.77 16.7554 559.339 8.5882C575.908 0.421052 594.767 -1.85118 612.801 2.14673C630.836 6.14464 646.968 16.1736 658.533 30.5775C670.098 44.9814 676.405 62.8989 676.412 81.3713C676.42 99.8436 670.127 117.766 658.573 132.179C647.019 146.592 630.896 156.634 612.864 160.646C594.833 164.658 575.972 162.401 559.397 154.247C542.822 146.093 529.523 132.53 521.697 115.798L524.27 114.594C531.823 130.741 544.656 143.829 560.651 151.698C576.646 159.566 594.847 161.745 612.247 157.873C629.647 154.001 645.207 144.311 656.356 130.402C667.506 116.493 673.578 99.1982 673.571 81.3724C673.564 63.5466 667.478 46.2562 656.317 32.3564C645.157 18.4566 629.59 8.7786 612.186 4.92062C594.783 1.06263 576.584 3.25533 560.595 11.1366C544.607 19.018 531.784 32.1165 524.244 48.2694L521.67 47.0677Z" fill="url(#paint0_linear_0_1)"/>
<path d="M508.087 63.3711H528.285C528.289 63.3711 528.316 63.3718 528.353 63.415C528.39 63.459 528.423 63.5343 528.423 63.6309C528.423 63.7277 528.39 63.8036 528.353 63.8477C528.316 63.8909 528.289 63.8916 528.285 63.8916H508.087C508.083 63.8916 508.057 63.8901 508.021 63.8477C507.983 63.8036 507.949 63.7277 507.949 63.6309C507.949 63.5342 507.983 63.459 508.021 63.415C508.057 63.3724 508.082 63.3711 508.087 63.3711Z" fill="#00AB9E" stroke="#81319B" stroke-width="1.0781"/>
<path d="M500.606 63.3711H504.641C504.645 63.3711 504.671 63.3718 504.708 63.415C504.745 63.459 504.779 63.5343 504.779 63.6309C504.779 63.7277 504.745 63.8036 504.708 63.8477C504.671 63.8908 504.645 63.8916 504.641 63.8916H500.606C499.585 63.8918 498.896 64.8441 498.896 65.8135V98.8516C498.897 99.8253 499.589 100.764 500.606 100.765H535.765C536.782 100.764 537.475 99.8253 537.475 98.8516V65.8135C537.475 64.844 536.786 63.8918 535.765 63.8916H531.73C531.726 63.8916 531.7 63.8908 531.663 63.8477C531.626 63.8036 531.592 63.7277 531.592 63.6309C531.592 63.5343 531.626 63.459 531.663 63.415C531.7 63.3718 531.726 63.3711 531.73 63.3711H535.765C536.781 63.3713 537.75 64.3776 537.75 65.8135V98.8516C537.75 100.278 536.782 101.285 535.765 101.285H500.606C499.59 101.285 498.621 100.278 498.621 98.8516V65.8135C498.621 64.3776 499.59 63.3713 500.606 63.3711Z" fill="#00AB9E" stroke="#81319B" stroke-width="1.0781"/>
<path d="M498.759 68.7148H537.612C537.617 68.7149 537.642 68.716 537.679 68.7588C537.716 68.8028 537.75 68.878 537.75 68.9746C537.75 69.0714 537.716 69.1474 537.679 69.1914C537.642 69.234 537.617 69.2353 537.612 69.2354H498.759C498.754 69.2353 498.728 69.2339 498.692 69.1914C498.655 69.1474 498.621 69.0714 498.621 68.9746C498.621 68.878 498.655 68.8028 498.692 68.7588C498.729 68.7162 498.754 68.7149 498.759 68.7148Z" fill="#00AB9E" stroke="#81319B" stroke-width="1.0781"/>
<path d="M505.356 59.7148H507.373C507.76 59.7148 508.222 60.1217 508.222 60.8145V65.0742C508.221 65.7667 507.76 66.1729 507.373 66.1729H505.356C504.97 66.1729 504.508 65.7667 504.508 65.0742V60.8145C504.508 60.1217 504.97 59.7148 505.356 59.7148ZM507.953 60.2852L507.425 60.2754L505.367 60.2354L504.821 60.2246L504.817 60.7695L504.783 65.0693L504.779 65.6025L505.312 65.6123L507.37 65.6523H507.38C507.542 65.6523 507.704 65.5838 507.816 65.4512C507.922 65.3268 507.953 65.1844 507.953 65.0742V60.2852Z" fill="#00AB9E" stroke="#81319B" stroke-width="1.0781"/>
<path d="M529.001 59.7148H531.018C531.404 59.7148 531.866 60.1217 531.866 60.8145V65.0742C531.866 65.7667 531.404 66.1729 531.018 66.1729H529.001C528.614 66.1729 528.153 65.7667 528.152 65.0742V60.8145C528.152 60.1217 528.614 59.7148 529.001 59.7148ZM531.598 60.2852L531.069 60.2754L529.012 60.2354L528.466 60.2246L528.462 60.7695L528.428 65.0693L528.424 65.6025L528.957 65.6123L531.015 65.6523H531.024C531.187 65.6523 531.349 65.5838 531.461 65.4512C531.566 65.3268 531.598 65.1844 531.598 65.0742V60.2852Z" fill="#00AB9E" stroke="#81319B" stroke-width="1.0781"/>
<path d="M516.602 73.043H520.994C521.001 73.043 521.024 73.0451 521.055 73.0771C521.078 73.1017 521.103 73.1413 521.117 73.1953L521.128 73.2539L521.129 73.2598L521.413 75.7852L521.445 76.0693L521.698 76.2021C521.742 76.2249 521.787 76.2452 521.81 76.2559C521.837 76.2688 521.846 76.274 521.851 76.2764L522.192 76.4785L522.486 76.2119L524.195 74.6641C524.227 74.6363 524.248 74.6373 524.254 74.6377C524.257 74.6379 524.264 74.6388 524.275 74.6445L524.319 74.6826L527.427 78.3506C527.499 78.436 527.521 78.5882 527.469 78.7109L527.441 78.7617L527.44 78.7627L526.127 80.7764L525.979 81.0059L526.074 81.2607C526.103 81.3367 526.122 81.3875 526.135 81.4336L526.229 81.7676L526.571 81.8203L528.711 82.1475L528.717 82.1484C528.722 82.1492 528.748 82.1553 528.78 82.1992C528.814 82.2445 528.842 82.3172 528.842 82.4062V87.5928C528.842 87.6819 528.814 87.7546 528.78 87.7998C528.764 87.8221 528.748 87.8339 528.737 87.8408L528.717 87.8496L528.71 87.8506L526.578 88.1787L526.267 88.2266L526.155 88.5215C526.137 88.5696 526.122 88.6161 526.11 88.6504C526.098 88.688 526.09 88.7136 526.081 88.7373L525.985 88.9922L526.134 89.2207L527.446 91.2432C527.516 91.3579 527.511 91.5132 527.454 91.6152L527.427 91.6553L524.319 95.3242L524.314 95.3301C524.299 95.3487 524.286 95.3579 524.277 95.3623C524.269 95.3666 524.262 95.3677 524.257 95.3682C524.249 95.3688 524.226 95.3687 524.195 95.3418L522.486 93.7939L522.208 93.542L521.874 93.7168C521.808 93.7513 521.774 93.7689 521.745 93.7803L521.442 93.8994L521.406 94.2227L521.13 96.7344C521.12 96.8178 521.084 96.8818 521.048 96.9189C521.013 96.9552 520.989 96.9551 520.987 96.9551H516.595C516.588 96.9551 516.566 96.9536 516.535 96.9219C516.511 96.8974 516.486 96.8577 516.472 96.8037L516.461 96.7451L516.46 96.7402L516.183 94.2148L516.151 93.9297L515.897 93.7969L515.78 93.7402C515.748 93.7255 515.731 93.7172 515.715 93.709L515.381 93.5332L515.102 93.7871L513.396 95.3379L513.395 95.3389C513.378 95.3541 513.365 95.36 513.358 95.3623C513.352 95.3646 513.346 95.3646 513.342 95.3643C513.338 95.3639 513.33 95.3624 513.318 95.3564L513.271 95.3184L510.17 91.6553C510.092 91.5636 510.071 91.3715 510.149 91.2432L511.463 89.2207L511.611 88.9922L511.515 88.7373C511.486 88.6617 511.468 88.6114 511.455 88.5654L511.36 88.2314L511.018 88.1787L508.886 87.8506L508.879 87.8496L508.858 87.8408C508.847 87.8338 508.832 87.822 508.815 87.7998C508.782 87.7546 508.754 87.6819 508.754 87.5928V82.4062C508.754 82.3173 508.782 82.2445 508.815 82.1992C508.832 82.1768 508.847 82.1642 508.858 82.1572L508.879 82.1484L508.886 82.1475L511.024 81.8203L511.336 81.7725L511.447 81.4766C511.463 81.4336 511.478 81.3935 511.489 81.3604C511.501 81.326 511.511 81.2982 511.521 81.2695L511.617 81.0137L511.469 80.7852L510.156 78.7637C510.086 78.6491 510.091 78.4937 510.148 78.3916L510.176 78.3506L513.283 74.6826C513.318 74.6419 513.343 74.6382 513.349 74.6377C513.354 74.6373 513.375 74.6368 513.406 74.6641L515.116 76.2119L515.396 76.4648L515.729 76.29C515.751 76.2785 515.772 76.2673 515.802 76.2529C515.83 76.2394 515.866 76.2224 515.904 76.2021L516.158 76.0684L516.189 75.7832L516.466 73.2617L516.467 73.2627C516.478 73.1711 516.514 73.1084 516.546 73.0752C516.576 73.0438 516.596 73.043 516.602 73.043ZM528.553 82.6475L528.097 82.5762L526.147 82.2725C526.133 82.2702 526.062 82.2438 526.028 82.124L525.51 82.2695L526.028 82.123L526.027 82.1201L525.952 81.876C525.873 81.6302 525.78 81.3776 525.666 81.1152C525.621 81.0062 525.634 80.8648 525.695 80.7666L525.694 80.7656L526.889 78.9268L527.106 78.5908L526.848 78.2852L524.58 75.6084L524.221 75.1826L523.808 75.5566L522.244 76.9717C522.221 76.9925 522.205 76.9962 522.198 76.9971L522.163 76.9873C521.888 76.8336 521.608 76.6978 521.298 76.5645C521.257 76.5459 521.186 76.4785 521.171 76.3525H521.172L520.914 74.0508L520.86 73.5713H516.693L516.641 74.0518L516.391 76.3604C516.378 76.471 516.331 76.5311 516.3 76.5576L516.275 76.5732L516.271 76.5752C515.971 76.6961 515.687 76.8343 515.398 76.9961C515.381 77.0058 515.37 77.0056 515.364 77.0049L515.318 76.9795L513.755 75.5645L513.342 75.1914L512.981 75.6162L510.714 78.293L510.455 78.5986L510.673 78.9355L511.871 80.7812C511.913 80.8458 511.933 80.938 511.921 81.0293L511.897 81.1191L511.896 81.1211C511.752 81.4876 511.636 81.8106 511.548 82.1318C511.531 82.1905 511.503 82.2322 511.479 82.2559C511.457 82.277 511.444 82.2785 511.444 82.2783L511.437 82.2793L511.429 82.2812L509.479 82.585L509.022 82.6553V87.3584L509.479 87.4297L511.429 87.7334C511.438 87.7349 511.479 87.7491 511.515 87.8096L511.547 87.8877L511.549 87.8945C511.596 88.056 511.647 88.2189 511.705 88.3857L511.896 88.9014L511.897 88.9033C511.932 88.9909 511.931 89.0884 511.905 89.168L511.871 89.2412L510.673 91.0869L510.455 91.4238L510.714 91.7295L512.981 94.4062L513.343 94.833L513.756 94.457L515.319 93.0342L515.327 93.0273C515.349 93.0068 515.362 93.005 515.363 93.0049C515.365 93.0047 515.367 93.005 515.371 93.0059L515.395 93.0166L515.4 93.0195C515.61 93.1433 515.821 93.2533 516.046 93.3525L516.275 93.4492C516.297 93.4577 516.346 93.4953 516.376 93.5723L516.397 93.6621L516.654 95.9561L516.708 96.4355H520.874L520.928 95.9561L521.185 93.6543C521.197 93.5439 521.244 93.4838 521.275 93.457L521.3 93.4404L521.305 93.4395C521.583 93.3272 521.874 93.1889 522.179 93.0176C522.195 93.0089 522.205 93.0091 522.211 93.0098L522.257 93.0352H522.258L523.821 94.4502L524.234 94.8232L524.594 94.3984L526.861 91.7207L527.12 91.415L526.902 91.0791L525.704 89.2334C525.648 89.1474 525.632 89.0125 525.679 88.8955L525.678 88.8945C525.825 88.5388 525.941 88.2092 526.028 87.8828C526.045 87.8245 526.072 87.7817 526.099 87.7559L526.147 87.7256L528.097 87.4219L528.553 87.3506V82.6475Z" fill="#00AB9E" stroke="#81319B" stroke-width="1.0781"/>
<path d="M518.79 78.793C521.566 78.793 523.971 81.493 523.971 85.0068C523.971 88.5207 521.566 91.2207 518.79 91.2207C516.014 91.2207 513.609 88.5208 513.609 85.0068C513.609 81.493 516.014 78.793 518.79 78.793ZM518.79 79.3135C516.002 79.3135 513.885 81.9515 513.885 85.0068C513.885 88.0623 516.002 90.7012 518.79 90.7012C521.578 90.7012 523.695 88.0622 523.695 85.0068C523.695 81.9515 521.578 79.3135 518.79 79.3135Z" fill="#00AB9E" stroke="#81319B" stroke-width="1.0781"/>
<rect x="431.238" y="80.8633" width="57.1392" height="2.1562" rx="1.0781" fill="#00A99D"/>
<rect x="431.238" y="80.8633" width="57.1392" height="2.1562" rx="1.0781" stroke="#00AB9E"/>
<path d="M266.99 46.849C274.803 30.1103 288.091 16.5366 304.66 8.36945C321.228 0.202302 340.087 -2.06993 358.122 1.92798C376.156 5.92589 392.288 15.9548 403.853 30.3588C415.418 44.7627 421.725 62.6802 421.733 81.1525C421.74 99.6249 415.447 117.547 403.893 131.96C392.34 146.374 376.216 156.415 358.185 160.428C340.153 164.44 321.293 162.182 304.717 154.028C288.142 145.874 274.843 132.311 267.017 115.579L269.591 114.375C277.143 130.522 289.976 143.61 305.972 151.479C321.967 159.348 340.167 161.526 357.567 157.654C374.968 153.782 390.527 144.092 401.677 130.183C412.826 116.275 418.899 98.9795 418.892 81.1536C418.884 63.3278 412.798 46.0374 401.638 32.1376C390.477 18.2378 374.91 8.55985 357.507 4.70187C340.103 0.843881 321.905 3.03658 305.916 10.9179C289.927 18.7992 277.104 31.8978 269.564 48.0507L266.99 46.849Z" fill="url(#paint1_linear_0_1)"/>
<path d="M277.177 102.928H256.06C254.795 102.928 253.766 101.712 253.766 100.218V99.6932C253.766 99.5022 253.897 99.3477 254.058 99.3477C254.22 99.3477 254.351 99.5022 254.351 99.6932V100.218C254.351 101.331 255.117 102.237 256.06 102.237H277.177C277.339 102.237 277.47 102.391 277.47 102.582C277.47 102.773 277.339 102.928 277.177 102.928Z" fill="#00AB9E" stroke="#81319B" stroke-width="0.754669"/>
<path d="M284.965 90.6827C284.803 90.6827 284.672 90.5315 284.672 90.3406V90.3338C284.672 90.1428 284.803 89.9883 284.965 89.9883C285.126 89.9883 285.257 90.1428 285.257 90.3338C285.257 90.5248 285.126 90.6827 284.965 90.6827Z" fill="#00AB9E" stroke="#81319B" stroke-width="0.754669"/>
<path d="M277.983 62.2731H270.257C270.096 62.2731 269.965 62.1185 269.965 61.9276C269.965 61.7366 270.096 61.582 270.257 61.582H277.983C278.145 61.582 278.276 61.7366 278.276 61.9276C278.276 62.1185 278.145 62.2731 277.983 62.2731Z" fill="#00AB9E" stroke="#81319B" stroke-width="0.754669"/>
<path d="M268.058 62.2731H260.332C260.17 62.2731 260.039 62.1185 260.039 61.9276C260.039 61.7366 260.17 61.582 260.332 61.582H268.058C268.219 61.582 268.35 61.7366 268.35 61.9276C268.35 62.1185 268.219 62.2731 268.058 62.2731Z" fill="#00AB9E" stroke="#81319B" stroke-width="0.754669"/>
<path d="M276.142 100.446H255.44C254.911 100.446 254.385 100.289 253.919 99.9896C252.903 99.3269 252.273 98.0669 252.273 96.701V65.3274C252.273 63.2624 253.694 61.582 255.44 61.582H258.15C258.312 61.582 258.442 61.7366 258.442 61.9276C258.442 62.1185 258.312 62.2731 258.15 62.2731H255.44C254.017 62.2731 252.859 63.643 252.859 65.3274V96.701C252.859 97.8159 253.373 98.8437 254.2 99.3836C254.579 99.6265 255.008 99.7554 255.44 99.7554H276.142C276.304 99.7554 276.434 99.9099 276.434 100.101C276.434 100.292 276.304 100.446 276.142 100.446Z" fill="#00AB9E" stroke="#81319B" stroke-width="0.754669"/>
<path d="M286.461 90.6827C286.299 90.6827 286.168 90.5315 286.168 90.3406V90.3338C286.168 90.1428 286.299 89.9883 286.461 89.9883C286.622 89.9883 286.753 90.1428 286.753 90.3338C286.753 90.5248 286.622 90.6827 286.461 90.6827Z" fill="#00AB9E" stroke="#81319B" stroke-width="0.754669"/>
<path d="M286.456 78.3189C286.294 78.3189 286.163 78.1644 286.163 77.9734V65.3274C286.163 63.643 285.003 62.2731 283.576 62.2731H280.175C280.014 62.2731 279.883 62.1185 279.883 61.9276C279.883 61.7366 280.014 61.582 280.175 61.582H283.576C285.325 61.582 286.749 63.2624 286.749 65.3274V77.9734C286.749 78.1644 286.618 78.3189 286.456 78.3189Z" fill="#00AB9E" stroke="#81319B" stroke-width="0.754669"/>
<path d="M286.466 71.5191H252.566C252.404 71.5191 252.273 71.3646 252.273 71.1736V65.4037C252.273 63.2961 253.725 61.582 255.51 61.582H258.15C258.312 61.582 258.442 61.7366 258.442 61.9276C258.442 62.1185 258.312 62.2731 258.15 62.2731H255.51C254.048 62.2731 252.859 63.6774 252.859 65.4037V70.8281H286.173V65.4037C286.173 63.6774 284.984 62.2731 283.522 62.2731H280.186C280.024 62.2731 279.893 62.1185 279.893 61.9276C279.893 61.7366 280.024 61.582 280.186 61.582H283.522C285.307 61.582 286.759 63.2961 286.759 65.4037V71.1736C286.759 71.3646 286.628 71.5191 286.466 71.5191Z" fill="#00AB9E" stroke="#81319B" stroke-width="0.754669"/>
<path d="M268.058 62.2731H260.332C260.17 62.2731 260.039 62.1185 260.039 61.9276C260.039 61.7366 260.17 61.582 260.332 61.582H268.058C268.219 61.582 268.35 61.7366 268.35 61.9276C268.35 62.1185 268.219 62.2731 268.058 62.2731Z" fill="#00AB9E" stroke="#81319B" stroke-width="0.754669"/>
<path d="M277.983 62.2731H270.257C270.096 62.2731 269.965 62.1185 269.965 61.9276C269.965 61.7366 270.096 61.582 270.257 61.582H277.983C278.145 61.582 278.276 61.7366 278.276 61.9276C278.276 62.1185 278.145 62.2731 277.983 62.2731Z" fill="#00AB9E" stroke="#81319B" stroke-width="0.754669"/>
<path d="M259.246 69.5305C257.854 69.5305 256.723 68.1943 256.723 66.5518C256.723 65.4781 257.213 64.4887 258.003 63.9698C258.144 63.8773 258.322 63.936 258.401 64.1034C258.48 64.2701 258.429 64.4807 258.288 64.5731C257.683 64.9706 257.308 65.7284 257.308 66.5518C257.308 67.813 258.177 68.8395 259.246 68.8395C260.31 68.8395 261.177 67.813 261.177 66.5518C261.177 65.7291 260.802 64.9706 260.198 64.5731C260.057 64.4807 260.006 64.2701 260.085 64.1034C260.162 63.936 260.342 63.8767 260.482 63.9698C261.272 64.4887 261.762 65.4787 261.762 66.5518C261.762 68.1943 260.633 69.5305 259.246 69.5305Z" fill="#00AB9E" stroke="#81319B" stroke-width="0.754669"/>
<path d="M259.269 67.2672H259.229C258.474 67.2672 257.859 66.5411 257.859 65.6489V60.7934C257.859 59.9012 258.474 59.1758 259.229 59.1758C260.025 59.1758 260.64 59.9012 260.64 60.7934V65.6489C260.64 66.5411 260.025 67.2672 259.269 67.2672ZM259.269 59.8668C258.797 59.8668 258.445 60.2825 258.445 60.7934V65.6489C258.445 66.1604 258.797 66.5761 259.229 66.5761H259.269C259.703 66.5761 260.055 66.1604 260.055 65.6489V60.7934C260.055 60.2825 259.703 59.8668 259.269 59.8668Z" fill="#00AB9E" stroke="#81319B" stroke-width="0.754669"/>
<path d="M269.171 69.5305C267.78 69.5305 266.648 68.1943 266.648 66.5518C266.648 65.4862 267.138 64.4968 267.927 63.9705C268.067 63.8773 268.246 63.934 268.326 64.1014C268.405 64.2674 268.356 64.4786 268.215 64.5724C267.61 64.976 267.234 65.7345 267.234 66.5518C267.234 67.813 268.103 68.8395 269.171 68.8395C270.236 68.8395 271.103 67.813 271.103 66.5518C271.103 65.7291 270.728 64.9706 270.124 64.5731C269.982 64.4807 269.932 64.2701 270.01 64.1034C270.089 63.936 270.268 63.8767 270.408 63.9698C271.198 64.4887 271.688 65.4787 271.688 66.5518C271.688 68.1943 270.559 69.5305 269.171 69.5305Z" fill="#00AB9E" stroke="#81319B" stroke-width="0.754669"/>
<path d="M279.079 69.5305C277.691 69.5305 276.562 68.1943 276.562 66.5517C276.562 65.4787 277.053 64.4887 277.842 63.9698C277.983 63.8773 278.162 63.936 278.24 64.1034C278.319 64.2701 278.268 64.4806 278.127 64.5731C277.523 64.9706 277.148 65.7291 277.148 66.5517C277.148 67.813 278.014 68.8395 279.079 68.8395C280.147 68.8395 281.017 67.813 281.017 66.5517C281.017 65.7345 280.641 64.976 280.035 64.5724C279.895 64.4786 279.845 64.2674 279.924 64.1014C280.005 63.934 280.183 63.8773 280.323 63.9705C281.112 64.4968 281.602 65.4862 281.602 66.5517C281.602 68.1943 280.47 69.5305 279.079 69.5305Z" fill="#00AB9E" stroke="#81319B" stroke-width="0.754669"/>
<path d="M269.161 67.2689C268.396 67.2689 267.773 66.5347 267.773 65.6318V60.8208C267.773 59.9178 268.396 59.1836 269.161 59.1836C269.536 59.1836 269.887 59.3537 270.148 59.6621C270.409 59.9705 270.553 60.3821 270.553 60.8208V65.6318C270.553 66.5347 269.928 67.2689 269.161 67.2689ZM269.161 59.8746C268.718 59.8746 268.359 60.2991 268.359 60.8208V65.6318C268.359 66.1534 268.718 66.5779 269.161 66.5779C269.606 66.5779 269.968 66.1534 269.968 65.6318V60.8208C269.968 60.5664 269.885 60.3288 269.734 60.1506C269.583 59.9725 269.38 59.8746 269.161 59.8746Z" fill="#00AB9E" stroke="#81319B" stroke-width="0.754669"/>
<path d="M279.086 67.2689C278.321 67.2689 277.699 66.5347 277.699 65.6318V60.8208C277.699 59.9178 278.321 59.1836 279.086 59.1836C279.456 59.1836 279.816 59.3584 280.074 59.6621C280.335 59.9799 280.478 60.3902 280.478 60.8208V65.6318C280.478 66.5347 279.853 67.2689 279.086 67.2689ZM279.086 59.8746C278.644 59.8746 278.285 60.2991 278.285 60.8208V65.6318C278.285 66.1534 278.644 66.5779 279.086 66.5779C279.531 66.5779 279.893 66.1534 279.893 65.6318V60.8208C279.893 60.5711 279.809 60.3322 279.656 60.1473C279.511 59.9752 279.302 59.8746 279.086 59.8746Z" fill="#00AB9E" stroke="#81319B" stroke-width="0.754669"/>
<path d="M266.406 97.7675C266.244 97.7675 266.113 97.613 266.113 97.422V73.8807C266.113 73.6897 266.244 73.5352 266.406 73.5352C266.568 73.5352 266.699 73.6897 266.699 73.8807V97.422C266.699 97.613 266.568 97.7675 266.406 97.7675Z" fill="#00AB9E" stroke="#81319B" stroke-width="0.754669"/>
<path d="M260.203 97.7675C260.041 97.7675 259.91 97.613 259.91 97.422V73.8807C259.91 73.6897 260.041 73.5352 260.203 73.5352C260.365 73.5352 260.495 73.6897 260.495 73.8807V97.422C260.495 97.613 260.365 97.7675 260.203 97.7675Z" fill="#00AB9E" stroke="#81319B" stroke-width="0.754669"/>
<path d="M272.609 97.7675C272.447 97.7675 272.316 97.613 272.316 97.422V73.8807C272.316 73.6897 272.447 73.5352 272.609 73.5352C272.771 73.5352 272.902 73.6897 272.902 73.8807V97.422C272.902 97.613 272.771 97.7675 272.609 97.7675Z" fill="#00AB9E" stroke="#81319B" stroke-width="0.754669"/>
<path d="M278.812 78.6903C278.65 78.6903 278.52 78.5358 278.52 78.3448V73.8807C278.52 73.6897 278.65 73.5352 278.812 73.5352C278.974 73.5352 279.105 73.6897 279.105 73.8807V78.3448C279.105 78.5358 278.974 78.6903 278.812 78.6903Z" fill="#00AB9E" stroke="#81319B" stroke-width="0.754669"/>
<path d="M278.199 82.1246H254.84C254.678 82.1246 254.547 81.9701 254.547 81.7791C254.547 81.5881 254.678 81.4336 254.84 81.4336H278.199C278.36 81.4336 278.491 81.5881 278.491 81.7791C278.491 81.9701 278.36 82.1246 278.199 82.1246Z" fill="#00AB9E" stroke="#81319B" stroke-width="0.754669"/>
<path d="M278.439 89.8512H254.84C254.678 89.8512 254.547 89.6967 254.547 89.5057C254.547 89.3147 254.678 89.1602 254.84 89.1602H278.439C278.6 89.1602 278.731 89.3147 278.731 89.5057C278.731 89.6967 278.6 89.8512 278.439 89.8512Z" fill="#00AB9E" stroke="#81319B" stroke-width="0.754669"/>
<path d="M256.431 79.0283C256.357 79.0283 256.282 78.9946 256.225 78.9271L255.476 78.0437C255.362 77.9087 255.362 77.6901 255.476 77.5551C255.591 77.4201 255.776 77.4201 255.89 77.5551L256.431 78.1942L258.148 76.1676C258.262 76.0327 258.447 76.0327 258.562 76.1676C258.676 76.3026 258.676 76.5213 258.562 76.6562L256.638 78.9271C256.581 78.9946 256.506 79.0283 256.431 79.0283Z" fill="#00AB9E" stroke="#81319B" stroke-width="0.754669"/>
<path d="M262.458 87.3564C262.38 87.3564 262.306 87.32 262.251 87.2552L261.504 86.3718C261.389 86.2369 261.389 86.0182 261.504 85.8832C261.618 85.7483 261.803 85.7483 261.918 85.8832L262.458 86.5223L264.175 84.4958C264.289 84.3608 264.474 84.3608 264.588 84.4958C264.703 84.6307 264.703 84.8494 264.588 84.9843L262.665 87.2552C262.61 87.32 262.536 87.3564 262.458 87.3564Z" fill="#00AB9E" stroke="#81319B" stroke-width="0.754669"/>
<path d="M268.919 79.4658C268.844 79.4658 268.769 79.4321 268.712 79.3646L267.965 78.4819C267.85 78.3469 267.85 78.1283 267.965 77.9933C268.079 77.8583 268.264 77.8583 268.378 77.9933L268.919 78.6317L270.636 76.6051C270.75 76.4702 270.935 76.4702 271.049 76.6051C271.164 76.7401 271.164 76.9588 271.049 77.0937L269.126 79.3646C269.069 79.4321 268.994 79.4658 268.919 79.4658Z" fill="#00AB9E" stroke="#81319B" stroke-width="0.754669"/>
<path d="M286.701 103.072H277.685C276.683 103.072 275.867 102.109 275.867 100.926V92.172C275.867 90.9897 276.683 90.0273 277.685 90.0273H286.701C287.703 90.0273 288.519 90.9897 288.519 92.172V100.926C288.519 102.109 287.703 103.072 286.701 103.072ZM277.685 90.7184C277.005 90.7184 276.452 91.3703 276.452 92.172V100.926C276.452 101.729 277.005 102.381 277.685 102.381H286.701C287.381 102.381 287.934 101.729 287.934 100.926V92.172C287.934 91.3703 287.381 90.7184 286.701 90.7184H277.685Z" fill="#00AB9E" stroke="#81319B" stroke-width="0.754669"/>
<path d="M280.647 95.0637C280.572 95.0637 280.496 95.0435 280.427 95.0023C280.258 94.9031 280.152 94.7027 280.152 94.48V90.3729C280.152 90.1819 280.283 90.0273 280.445 90.0273H283.846C284.008 90.0273 284.139 90.1819 284.139 90.3729V94.48C284.139 94.702 284.034 94.9024 283.865 95.0016C283.696 95.1002 283.497 95.0799 283.347 94.9456L282.145 93.874L280.943 94.9456C280.856 95.0239 280.752 95.0637 280.647 95.0637ZM282.145 93.1573C282.25 93.1573 282.355 93.1957 282.441 93.2727L283.554 94.264V90.7184H280.738V94.2627L281.848 93.2734C281.936 93.1957 282.041 93.1573 282.145 93.1573Z" fill="#00AB9E" stroke="#81319B" stroke-width="0.754669"/>
<path d="M288.725 90.6971H279.708C278.706 90.6971 277.891 89.7341 277.891 88.5511V79.797C277.891 78.6147 278.706 77.6523 279.708 77.6523H288.725C289.727 77.6523 290.543 78.6147 290.543 79.797V88.5511C290.543 89.7341 289.727 90.6971 288.725 90.6971ZM279.708 78.3434C279.029 78.3434 278.476 78.9953 278.476 79.797V88.5511C278.476 89.3535 279.029 90.0061 279.708 90.0061H288.725C289.405 90.0061 289.958 89.3535 289.958 88.5511V79.797C289.958 78.9953 289.405 78.3434 288.725 78.3434H279.708Z" fill="#00AB9E" stroke="#81319B" stroke-width="0.754669"/>
<path d="M282.671 82.6887C282.596 82.6887 282.52 82.6685 282.45 82.6273C282.281 82.5274 282.176 82.3277 282.176 82.105V77.9979C282.176 77.8069 282.307 77.6523 282.468 77.6523H285.87C286.032 77.6523 286.163 77.8069 286.163 77.9979V82.105C286.163 82.3277 286.058 82.5274 285.889 82.6266C285.718 82.7279 285.521 82.7042 285.37 82.57L284.169 81.499L282.967 82.5706C282.88 82.6489 282.776 82.6887 282.671 82.6887ZM284.169 80.7823C284.273 80.7823 284.377 80.8207 284.465 80.8977L285.578 81.889V78.3434H282.761V81.8884L283.872 80.8984C283.959 80.8207 284.064 80.7823 284.169 80.7823Z" fill="#00AB9E" stroke="#81319B" stroke-width="0.754669"/>
<rect x="185.434" y="80.8633" width="57.1392" height="2.1562" rx="1.0781" fill="#00A99D"/>
<rect x="185.434" y="80.8633" width="57.1392" height="2.1562" rx="1.0781" stroke="#00AB9E"/>
<path d="M21.4429 47.0677C29.2559 30.329 42.5439 16.7554 59.1127 8.5882C75.6815 0.421052 94.5402 -1.85118 112.575 2.14673C130.609 6.14464 146.741 16.1736 158.306 30.5775C169.872 44.9814 176.179 62.8989 176.186 81.3713C176.193 99.8436 169.9 117.766 158.347 132.179C146.793 146.592 130.669 156.634 112.638 160.646C94.6063 164.658 75.7458 162.401 59.1705 154.247C42.5952 146.093 29.2964 132.53 21.4702 115.798L24.0438 114.594C31.5962 130.741 44.4295 143.829 60.4246 151.698C76.4198 159.566 94.6202 161.745 112.021 157.873C129.421 154.001 144.98 144.311 156.13 130.402C167.279 116.493 173.352 99.1982 173.345 81.3724C173.338 63.5466 167.251 46.2562 156.091 32.3564C144.93 18.4566 129.363 8.7786 111.96 4.92062C94.5565 1.06263 76.3578 3.25533 60.3689 11.1366C44.38 19.018 31.557 32.1165 24.0175 48.2694L21.4429 47.0677Z" fill="url(#paint2_linear_0_1)"/>
<mask id="path-45-inside-1_0_1" fill="white">
<path d="M36.6422 74.8202V68.4679C36.6422 64.9993 34.1703 62.1775 31.1319 62.1775H29.7066V60.5945C29.7066 59.811 29.1502 59.1758 28.4639 59.1758C27.7775 59.1758 27.2211 59.811 27.2211 60.5945V62.1776H19.5704V60.5945C19.5704 59.811 19.014 59.1758 18.3277 59.1758C17.6413 59.1758 17.0849 59.811 17.0849 60.5945V62.1776H9.43422V60.5945C9.43422 59.811 8.8778 59.1758 8.19148 59.1758C7.50515 59.1758 6.94874 59.811 6.94874 60.5945V62.1776H5.51031C2.47197 62.1776 0 64.9994 0 68.468V99.9824C0 103.451 2.47189 106.273 5.51031 106.273H31.1318C34.1702 106.273 36.6421 103.451 36.6421 99.9824V75.2122C36.6499 75.148 36.6553 75.083 36.6553 75.0163C36.6553 74.9496 36.65 74.8845 36.6422 74.8202ZM34.1567 99.9824C34.1567 101.886 32.7998 103.435 31.1319 103.435H5.51031C3.84247 103.435 2.48548 101.886 2.48548 99.9824V76.435H34.1566V99.9824H34.1567ZM34.1567 73.5976H2.48548V68.468C2.48548 66.564 3.84238 65.0149 5.51031 65.0149H6.94874V66.598C6.94874 67.3815 7.50515 68.0167 8.19148 68.0167C8.8778 68.0167 9.43422 67.3815 9.43422 66.598V65.0149H17.0849V66.598C17.0849 67.3815 17.6413 68.0167 18.3277 68.0167C19.014 68.0167 19.5704 67.3815 19.5704 66.598V65.0149H27.2211V66.598C27.2211 67.3815 27.7775 68.0167 28.4639 68.0167C29.1502 68.0167 29.7066 67.3815 29.7066 66.598V65.0149H31.1319C32.7998 65.0149 34.1567 66.5639 34.1567 68.468V73.5976ZM5.49382 81.146C5.49382 80.3625 6.05024 79.7273 6.73656 79.7273H9.4232C10.1095 79.7273 10.6659 80.3625 10.6659 81.146C10.6659 81.9295 10.1095 82.5646 9.4232 82.5646H6.73656C6.05024 82.5646 5.49382 81.9295 5.49382 81.146ZM12.3257 81.146C12.3257 80.3625 12.8821 79.7273 13.5684 79.7273H16.255C16.9414 79.7273 17.4978 80.3625 17.4978 81.146C17.4978 81.9295 16.9414 82.5646 16.255 82.5646H13.5684C12.8821 82.5646 12.3257 81.9295 12.3257 81.146ZM19.1576 81.146C19.1576 80.3625 19.714 79.7273 20.4003 79.7273H23.087C23.7733 79.7273 24.3297 80.3625 24.3297 81.146C24.3297 81.9295 23.7733 82.5646 23.087 82.5646H20.4003C19.714 82.5646 19.1576 81.9295 19.1576 81.146ZM25.9894 81.146C25.9894 80.3625 26.5458 79.7273 27.2322 79.7273H29.9188C30.6051 79.7273 31.1615 80.3625 31.1615 81.146C31.1615 81.9295 30.6051 82.5646 29.9188 82.5646H27.2322C26.5458 82.5646 25.9894 81.9295 25.9894 81.146ZM5.49382 86.9066C5.49382 86.1231 6.05024 85.488 6.73656 85.488H9.4232C10.1095 85.488 10.6659 86.1231 10.6659 86.9066C10.6659 87.6901 10.1095 88.3253 9.4232 88.3253H6.73656C6.05024 88.3253 5.49382 87.6901 5.49382 86.9066ZM12.3257 86.9066C12.3257 86.1231 12.8821 85.488 13.5684 85.488H16.255C16.9414 85.488 17.4978 86.1231 17.4978 86.9066C17.4978 87.6901 16.9414 88.3253 16.255 88.3253H13.5684C12.8821 88.3253 12.3257 87.6901 12.3257 86.9066ZM19.1576 86.9066C19.1576 86.1231 19.714 85.488 20.4003 85.488H23.087C23.7733 85.488 24.3297 86.1231 24.3297 86.9066C24.3297 87.6901 23.7733 88.3253 23.087 88.3253H20.4003C19.714 88.3253 19.1576 87.6901 19.1576 86.9066ZM25.9894 86.9066C25.9894 86.1231 26.5458 85.488 27.2322 85.488H29.9188C30.6051 85.488 31.1615 86.1231 31.1615 86.9066C31.1615 87.6901 30.6051 88.3253 29.9188 88.3253H27.2322C26.5458 88.3253 25.9894 87.6901 25.9894 86.9066ZM5.49382 92.6673C5.49382 91.8838 6.05024 91.2486 6.73656 91.2486H9.4232C10.1095 91.2486 10.6659 91.8838 10.6659 92.6673C10.6659 93.4508 10.1095 94.086 9.4232 94.086H6.73656C6.05024 94.086 5.49382 93.4508 5.49382 92.6673ZM12.3257 92.6673C12.3257 91.8838 12.8821 91.2486 13.5684 91.2486H16.255C16.9414 91.2486 17.4978 91.8838 17.4978 92.6673C17.4978 93.4508 16.9414 94.086 16.255 94.086H13.5684C12.8821 94.086 12.3257 93.4508 12.3257 92.6673ZM19.1576 92.6673C19.1576 91.8838 19.714 91.2486 20.4003 91.2486H23.087C23.7733 91.2486 24.3297 91.8838 24.3297 92.6673C24.3297 93.4508 23.7733 94.086 23.087 94.086H20.4003C19.714 94.086 19.1576 93.4508 19.1576 92.6673ZM25.9894 92.6673C25.9894 91.8838 26.5458 91.2486 27.2322 91.2486H29.9188C30.6051 91.2486 31.1615 91.8838 31.1615 92.6673C31.1615 93.4508 30.6051 94.086 29.9188 94.086H27.2322C26.5458 94.086 25.9894 93.4508 25.9894 92.6673ZM5.49382 98.4279C5.49382 97.6445 6.05024 97.0093 6.73656 97.0093H9.4232C10.1095 97.0093 10.6659 97.6445 10.6659 98.4279C10.6659 99.2114 10.1095 99.8466 9.4232 99.8466H6.73656C6.05024 99.8466 5.49382 99.2114 5.49382 98.4279ZM12.3257 98.4279C12.3257 97.6445 12.8821 97.0093 13.5684 97.0093H16.255C16.9414 97.0093 17.4978 97.6445 17.4978 98.4279C17.4978 99.2114 16.9414 99.8466 16.255 99.8466H13.5684C12.8821 99.8466 12.3257 99.2114 12.3257 98.4279ZM19.1576 98.4279C19.1576 97.6445 19.714 97.0093 20.4003 97.0093H23.087C23.7733 97.0093 24.3297 97.6445 24.3297 98.4279C24.3297 99.2114 23.7733 99.8466 23.087 99.8466H20.4003C19.714 99.8466 19.1576 99.2114 19.1576 98.4279ZM25.9894 98.4279C25.9894 97.6445 26.5458 97.0093 27.2322 97.0093H29.9188C30.6051 97.0093 31.1615 97.6445 31.1615 98.4279C31.1615 99.2114 30.6051 99.8466 29.9188 99.8466H27.2322C26.5458 99.8466 25.9894 99.2114 25.9894 98.4279Z"/>
</mask>
<path d="M36.6422 74.8202V68.4679C36.6422 64.9993 34.1703 62.1775 31.1319 62.1775H29.7066V60.5945C29.7066 59.811 29.1502 59.1758 28.4639 59.1758C27.7775 59.1758 27.2211 59.811 27.2211 60.5945V62.1776H19.5704V60.5945C19.5704 59.811 19.014 59.1758 18.3277 59.1758C17.6413 59.1758 17.0849 59.811 17.0849 60.5945V62.1776H9.43422V60.5945C9.43422 59.811 8.8778 59.1758 8.19148 59.1758C7.50515 59.1758 6.94874 59.811 6.94874 60.5945V62.1776H5.51031C2.47197 62.1776 0 64.9994 0 68.468V99.9824C0 103.451 2.47189 106.273 5.51031 106.273H31.1318C34.1702 106.273 36.6421 103.451 36.6421 99.9824V75.2122C36.6499 75.148 36.6553 75.083 36.6553 75.0163C36.6553 74.9496 36.65 74.8845 36.6422 74.8202ZM34.1567 99.9824C34.1567 101.886 32.7998 103.435 31.1319 103.435H5.51031C3.84247 103.435 2.48548 101.886 2.48548 99.9824V76.435H34.1566V99.9824H34.1567ZM34.1567 73.5976H2.48548V68.468C2.48548 66.564 3.84238 65.0149 5.51031 65.0149H6.94874V66.598C6.94874 67.3815 7.50515 68.0167 8.19148 68.0167C8.8778 68.0167 9.43422 67.3815 9.43422 66.598V65.0149H17.0849V66.598C17.0849 67.3815 17.6413 68.0167 18.3277 68.0167C19.014 68.0167 19.5704 67.3815 19.5704 66.598V65.0149H27.2211V66.598C27.2211 67.3815 27.7775 68.0167 28.4639 68.0167C29.1502 68.0167 29.7066 67.3815 29.7066 66.598V65.0149H31.1319C32.7998 65.0149 34.1567 66.5639 34.1567 68.468V73.5976ZM5.49382 81.146C5.49382 80.3625 6.05024 79.7273 6.73656 79.7273H9.4232C10.1095 79.7273 10.6659 80.3625 10.6659 81.146C10.6659 81.9295 10.1095 82.5646 9.4232 82.5646H6.73656C6.05024 82.5646 5.49382 81.9295 5.49382 81.146ZM12.3257 81.146C12.3257 80.3625 12.8821 79.7273 13.5684 79.7273H16.255C16.9414 79.7273 17.4978 80.3625 17.4978 81.146C17.4978 81.9295 16.9414 82.5646 16.255 82.5646H13.5684C12.8821 82.5646 12.3257 81.9295 12.3257 81.146ZM19.1576 81.146C19.1576 80.3625 19.714 79.7273 20.4003 79.7273H23.087C23.7733 79.7273 24.3297 80.3625 24.3297 81.146C24.3297 81.9295 23.7733 82.5646 23.087 82.5646H20.4003C19.714 82.5646 19.1576 81.9295 19.1576 81.146ZM25.9894 81.146C25.9894 80.3625 26.5458 79.7273 27.2322 79.7273H29.9188C30.6051 79.7273 31.1615 80.3625 31.1615 81.146C31.1615 81.9295 30.6051 82.5646 29.9188 82.5646H27.2322C26.5458 82.5646 25.9894 81.9295 25.9894 81.146ZM5.49382 86.9066C5.49382 86.1231 6.05024 85.488 6.73656 85.488H9.4232C10.1095 85.488 10.6659 86.1231 10.6659 86.9066C10.6659 87.6901 10.1095 88.3253 9.4232 88.3253H6.73656C6.05024 88.3253 5.49382 87.6901 5.49382 86.9066ZM12.3257 86.9066C12.3257 86.1231 12.8821 85.488 13.5684 85.488H16.255C16.9414 85.488 17.4978 86.1231 17.4978 86.9066C17.4978 87.6901 16.9414 88.3253 16.255 88.3253H13.5684C12.8821 88.3253 12.3257 87.6901 12.3257 86.9066ZM19.1576 86.9066C19.1576 86.1231 19.714 85.488 20.4003 85.488H23.087C23.7733 85.488 24.3297 86.1231 24.3297 86.9066C24.3297 87.6901 23.7733 88.3253 23.087 88.3253H20.4003C19.714 88.3253 19.1576 87.6901 19.1576 86.9066ZM25.9894 86.9066C25.9894 86.1231 26.5458 85.488 27.2322 85.488H29.9188C30.6051 85.488 31.1615 86.1231 31.1615 86.9066C31.1615 87.6901 30.6051 88.3253 29.9188 88.3253H27.2322C26.5458 88.3253 25.9894 87.6901 25.9894 86.9066ZM5.49382 92.6673C5.49382 91.8838 6.05024 91.2486 6.73656 91.2486H9.4232C10.1095 91.2486 10.6659 91.8838 10.6659 92.6673C10.6659 93.4508 10.1095 94.086 9.4232 94.086H6.73656C6.05024 94.086 5.49382 93.4508 5.49382 92.6673ZM12.3257 92.6673C12.3257 91.8838 12.8821 91.2486 13.5684 91.2486H16.255C16.9414 91.2486 17.4978 91.8838 17.4978 92.6673C17.4978 93.4508 16.9414 94.086 16.255 94.086H13.5684C12.8821 94.086 12.3257 93.4508 12.3257 92.6673ZM19.1576 92.6673C19.1576 91.8838 19.714 91.2486 20.4003 91.2486H23.087C23.7733 91.2486 24.3297 91.8838 24.3297 92.6673C24.3297 93.4508 23.7733 94.086 23.087 94.086H20.4003C19.714 94.086 19.1576 93.4508 19.1576 92.6673ZM25.9894 92.6673C25.9894 91.8838 26.5458 91.2486 27.2322 91.2486H29.9188C30.6051 91.2486 31.1615 91.8838 31.1615 92.6673C31.1615 93.4508 30.6051 94.086 29.9188 94.086H27.2322C26.5458 94.086 25.9894 93.4508 25.9894 92.6673ZM5.49382 98.4279C5.49382 97.6445 6.05024 97.0093 6.73656 97.0093H9.4232C10.1095 97.0093 10.6659 97.6445 10.6659 98.4279C10.6659 99.2114 10.1095 99.8466 9.4232 99.8466H6.73656C6.05024 99.8466 5.49382 99.2114 5.49382 98.4279ZM12.3257 98.4279C12.3257 97.6445 12.8821 97.0093 13.5684 97.0093H16.255C16.9414 97.0093 17.4978 97.6445 17.4978 98.4279C17.4978 99.2114 16.9414 99.8466 16.255 99.8466H13.5684C12.8821 99.8466 12.3257 99.2114 12.3257 98.4279ZM19.1576 98.4279C19.1576 97.6445 19.714 97.0093 20.4003 97.0093H23.087C23.7733 97.0093 24.3297 97.6445 24.3297 98.4279C24.3297 99.2114 23.7733 99.8466 23.087 99.8466H20.4003C19.714 99.8466 19.1576 99.2114 19.1576 98.4279ZM25.9894 98.4279C25.9894 97.6445 26.5458 97.0093 27.2322 97.0093H29.9188C30.6051 97.0093 31.1615 97.6445 31.1615 98.4279C31.1615 99.2114 30.6051 99.8466 29.9188 99.8466H27.2322C26.5458 99.8466 25.9894 99.2114 25.9894 98.4279Z" fill="#00AB9E" stroke="#81319B" stroke-width="2.1562" mask="url(#path-45-inside-1_0_1)"/>
<defs>
<linearGradient id="paint0_linear_0_1" x1="595.232" y1="0.222656" x2="595.232" y2="162.584" gradientUnits="userSpaceOnUse">
<stop stop-color="#1280C3"/>
<stop offset="1" stop-color="#00AB9E"/>
</linearGradient>
<linearGradient id="paint1_linear_0_1" x1="340.552" y1="0.00390625" x2="340.552" y2="162.366" gradientUnits="userSpaceOnUse">
<stop stop-color="#1280C3"/>
<stop offset="1" stop-color="#00AB9E"/>
</linearGradient>
<linearGradient id="paint2_linear_0_1" x1="95.005" y1="0.222656" x2="95.005" y2="162.584" gradientUnits="userSpaceOnUse">
<stop stop-color="#1280C3"/>
<stop offset="1" stop-color="#00AB9E"/>
</linearGradient>
</defs>
</svg>
