<svg width="163" height="682" viewBox="0 0 163 682" fill="none" xmlns="http://www.w3.org/2000/svg">
<path d="M38.0398 103.907C38.0398 102.807 38.2931 101.821 38.7998 100.948C39.3173 100.074 40.0127 99.3951 40.8859 98.9099C41.77 98.414 42.7349 98.1661 43.7806 98.1661C44.9773 98.1661 46.0392 98.4625 46.9664 99.0555C47.9044 99.6377 48.5836 100.468 49.004 101.546H46.7885C46.4974 100.953 46.0931 100.511 45.5757 100.22C45.0582 99.9288 44.4598 99.7832 43.7806 99.7832C43.0367 99.7832 42.3737 99.9503 41.7915 100.285C41.2094 100.619 40.7512 101.098 40.417 101.724C40.0935 102.349 39.9318 103.077 39.9318 103.907C39.9318 104.737 40.0935 105.465 40.417 106.09C40.7512 106.715 41.2094 107.201 41.7915 107.546C42.3737 107.88 43.0367 108.047 43.7806 108.047C44.4598 108.047 45.0582 107.901 45.5757 107.61C46.0931 107.319 46.4974 106.877 46.7885 106.284H49.004C48.5836 107.362 47.9044 108.192 46.9664 108.775C46.0392 109.357 44.9773 109.648 43.7806 109.648C42.7241 109.648 41.7592 109.405 40.8859 108.92C40.0127 108.424 39.3173 107.74 38.7998 106.866C38.2931 105.993 38.0398 105.007 38.0398 103.907ZM50.5474 105.055C50.5474 104.16 50.7307 103.368 51.0972 102.678C51.4745 101.988 51.9812 101.454 52.6173 101.077C53.2642 100.689 53.9757 100.495 54.752 100.495C55.4527 100.495 56.0619 100.635 56.5793 100.915C57.1076 101.185 57.5281 101.524 57.8407 101.934V100.64H59.7004V109.551H57.8407V108.225C57.5281 108.645 57.1022 108.996 56.5632 109.276C56.0241 109.556 55.4096 109.696 54.7196 109.696C53.9542 109.696 53.2534 109.502 52.6173 109.114C51.9812 108.715 51.4745 108.165 51.0972 107.465C50.7307 106.753 50.5474 105.95 50.5474 105.055ZM57.8407 105.087C57.8407 104.473 57.7113 103.939 57.4526 103.486C57.2046 103.034 56.8758 102.689 56.4661 102.452C56.0565 102.214 55.6144 102.096 55.1401 102.096C54.6657 102.096 54.2237 102.214 53.814 102.452C53.4043 102.678 53.0701 103.018 52.8114 103.47C52.5634 103.912 52.4394 104.441 52.4394 105.055C52.4394 105.67 52.5634 106.209 52.8114 106.672C53.0701 107.136 53.4043 107.492 53.814 107.74C54.2345 107.977 54.6765 108.095 55.1401 108.095C55.6144 108.095 56.0565 107.977 56.4661 107.74C56.8758 107.502 57.2046 107.157 57.4526 106.705C57.7113 106.241 57.8407 105.702 57.8407 105.087ZM63.9654 97.5839V109.551H62.1219V97.5839H63.9654ZM74.5524 104.877C74.5524 105.211 74.5309 105.513 74.4877 105.783H67.6795C67.7334 106.494 67.9976 107.066 68.4719 107.497C68.9463 107.928 69.5285 108.144 70.2185 108.144C71.2103 108.144 71.9111 107.729 72.3208 106.899H74.3098C74.0403 107.718 73.5498 108.392 72.8382 108.92C72.1375 109.438 71.2642 109.696 70.2185 109.696C69.3668 109.696 68.6013 109.508 67.9221 109.13C67.2537 108.742 66.7254 108.203 66.3373 107.513C65.96 106.812 65.7713 106.004 65.7713 105.087C65.7713 104.171 65.9546 103.368 66.3211 102.678C66.6985 101.977 67.2214 101.438 67.8898 101.061C68.569 100.683 69.3452 100.495 70.2185 100.495C71.0594 100.495 71.8087 100.678 72.4663 101.045C73.1239 101.411 73.636 101.929 74.0026 102.597C74.3691 103.255 74.5524 104.015 74.5524 104.877ZM72.628 104.295C72.6172 103.616 72.3747 103.071 71.9003 102.662C71.4259 102.252 70.8384 102.047 70.1376 102.047C69.5015 102.047 68.9571 102.252 68.5043 102.662C68.0515 103.061 67.782 103.605 67.6957 104.295H72.628ZM80.8623 100.495C81.5631 100.495 82.1884 100.64 82.7382 100.931C83.2988 101.222 83.7355 101.654 84.0481 102.225C84.3608 102.796 84.5171 103.486 84.5171 104.295V109.551H82.6897V104.57C82.6897 103.772 82.4903 103.163 82.0914 102.743C81.6925 102.311 81.148 102.096 80.458 102.096C79.7681 102.096 79.2182 102.311 78.8086 102.743C78.4097 103.163 78.2102 103.772 78.2102 104.57V109.551H76.3667V100.64H78.2102V101.659C78.5121 101.293 78.8948 101.007 79.3584 100.802C79.8327 100.597 80.3341 100.495 80.8623 100.495ZM86.2541 105.055C86.2541 104.16 86.4374 103.368 86.804 102.678C87.1813 101.988 87.688 101.454 88.3241 101.077C88.9709 100.689 89.6879 100.495 90.4749 100.495C91.0571 100.495 91.6285 100.624 92.1891 100.883C92.7605 101.131 93.2133 101.465 93.5475 101.885V97.5839H95.4072V109.551H93.5475V108.209C93.2456 108.64 92.8251 108.996 92.2861 109.276C91.7578 109.556 91.1487 109.696 90.4587 109.696C89.6825 109.696 88.9709 109.502 88.3241 109.114C87.688 108.715 87.1813 108.165 86.804 107.465C86.4374 106.753 86.2541 105.95 86.2541 105.055ZM93.5475 105.087C93.5475 104.473 93.4181 103.939 93.1594 103.486C92.9114 103.034 92.5826 102.689 92.1729 102.452C91.7632 102.214 91.3212 102.096 90.8468 102.096C90.3725 102.096 89.9304 102.214 89.5208 102.452C89.1111 102.678 88.7769 103.018 88.5181 103.47C88.2702 103.912 88.1462 104.441 88.1462 105.055C88.1462 105.67 88.2702 106.209 88.5181 106.672C88.7769 107.136 89.1111 107.492 89.5208 107.74C89.9412 107.977 90.3832 108.095 90.8468 108.095C91.3212 108.095 91.7632 107.977 92.1729 107.74C92.5826 107.502 92.9114 107.157 93.1594 106.705C93.4181 106.241 93.5475 105.702 93.5475 105.087ZM97.2141 105.055C97.2141 104.16 97.3974 103.368 97.7639 102.678C98.1413 101.988 98.648 101.454 99.284 101.077C99.9309 100.689 100.642 100.495 101.419 100.495C102.119 100.495 102.729 100.635 103.246 100.915C103.774 101.185 104.195 101.524 104.507 101.934V100.64H106.367V109.551H104.507V108.225C104.195 108.645 103.769 108.996 103.23 109.276C102.691 109.556 102.076 109.696 101.386 109.696C100.621 109.696 99.9201 109.502 99.284 109.114C98.648 108.715 98.1413 108.165 97.7639 107.465C97.3974 106.753 97.2141 105.95 97.2141 105.055ZM104.507 105.087C104.507 104.473 104.378 103.939 104.119 103.486C103.871 103.034 103.543 102.689 103.133 102.452C102.723 102.214 102.281 102.096 101.807 102.096C101.332 102.096 100.89 102.214 100.481 102.452C100.071 102.678 99.7368 103.018 99.4781 103.47C99.2301 103.912 99.1062 104.441 99.1062 105.055C99.1062 105.67 99.2301 106.209 99.4781 106.672C99.7368 107.136 100.071 107.492 100.481 107.74C100.901 107.977 101.343 108.095 101.807 108.095C102.281 108.095 102.723 107.977 103.133 107.74C103.543 107.502 103.871 107.157 104.119 106.705C104.378 106.241 104.507 105.702 104.507 105.087ZM110.632 101.934C110.902 101.481 111.257 101.131 111.699 100.883C112.152 100.624 112.686 100.495 113.3 100.495V102.403H112.831C112.109 102.403 111.559 102.586 111.182 102.953C110.815 103.319 110.632 103.955 110.632 104.861V109.551H108.789V100.64H110.632V101.934ZM115.933 99.4598C115.599 99.4598 115.318 99.3466 115.092 99.1202C114.866 98.8938 114.752 98.6135 114.752 98.2793C114.752 97.945 114.866 97.6647 115.092 97.4383C115.318 97.2119 115.599 97.0987 115.933 97.0987C116.256 97.0987 116.531 97.2119 116.758 97.4383C116.984 97.6647 117.097 97.945 117.097 98.2793C117.097 98.6135 116.984 98.8938 116.758 99.1202C116.531 99.3466 116.256 99.4598 115.933 99.4598ZM116.839 100.64V109.551H114.995V100.64H116.839ZM123.124 109.696C122.283 109.696 121.523 109.508 120.844 109.13C120.165 108.742 119.631 108.203 119.243 107.513C118.855 106.812 118.661 106.004 118.661 105.087C118.661 104.182 118.86 103.379 119.259 102.678C119.658 101.977 120.202 101.438 120.892 101.061C121.582 100.683 122.353 100.495 123.205 100.495C124.057 100.495 124.827 100.683 125.517 101.061C126.207 101.438 126.752 101.977 127.151 102.678C127.55 103.379 127.749 104.182 127.749 105.087C127.749 105.993 127.544 106.796 127.134 107.497C126.725 108.198 126.164 108.742 125.453 109.13C124.752 109.508 123.976 109.696 123.124 109.696ZM123.124 108.095C123.598 108.095 124.04 107.982 124.45 107.756C124.87 107.529 125.21 107.19 125.469 106.737C125.728 106.284 125.857 105.734 125.857 105.087C125.857 104.441 125.733 103.896 125.485 103.454C125.237 103.001 124.908 102.662 124.499 102.435C124.089 102.209 123.647 102.096 123.172 102.096C122.698 102.096 122.256 102.209 121.846 102.435C121.448 102.662 121.129 103.001 120.892 103.454C120.655 103.896 120.537 104.441 120.537 105.087C120.537 106.047 120.779 106.791 121.264 107.319C121.76 107.837 122.38 108.095 123.124 108.095Z" fill="#4B4B4B"/>
<path d="M48.0581 338.144C49.2548 338.144 50.3005 338.375 51.1953 338.839C52.1009 339.292 52.7963 339.949 53.2815 340.812C53.7774 341.664 54.0254 342.661 54.0254 343.804C54.0254 344.946 53.7774 345.938 53.2815 346.779C52.7963 347.62 52.1009 348.267 51.1953 348.72C50.3005 349.162 49.2548 349.383 48.0581 349.383H44.3872V338.144H48.0581ZM48.0581 347.879C49.3734 347.879 50.3814 347.523 51.0821 346.812C51.7829 346.1 52.1333 345.097 52.1333 343.804C52.1333 342.499 51.7829 341.48 51.0821 340.747C50.3814 340.014 49.3734 339.648 48.0581 339.648H46.2307V347.879H48.0581ZM56.7904 339.292C56.4562 339.292 56.1759 339.179 55.9495 338.952C55.7231 338.726 55.6099 338.446 55.6099 338.111C55.6099 337.777 55.7231 337.497 55.9495 337.27C56.1759 337.044 56.4562 336.931 56.7904 336.931C57.1139 336.931 57.3888 337.044 57.6152 337.27C57.8416 337.497 57.9548 337.777 57.9548 338.111C57.9548 338.446 57.8416 338.726 57.6152 338.952C57.3888 339.179 57.1139 339.292 56.7904 339.292ZM57.696 340.472V349.383H55.8525V340.472H57.696ZM59.5019 344.887C59.5019 343.992 59.6852 343.2 60.0518 342.51C60.4291 341.82 60.9358 341.286 61.5719 340.909C62.2187 340.521 62.9303 340.327 63.7065 340.327C64.4073 340.327 65.0164 340.467 65.5339 340.747C66.0622 341.017 66.4826 341.356 66.7953 341.766V340.472H68.655V349.383H66.7953V348.057C66.4826 348.477 66.0568 348.828 65.5177 349.108C64.9787 349.388 64.3641 349.528 63.6742 349.528C62.9087 349.528 62.208 349.334 61.5719 348.946C60.9358 348.547 60.4291 347.997 60.0518 347.297C59.6852 346.585 59.5019 345.782 59.5019 344.887ZM66.7953 344.919C66.7953 344.305 66.6659 343.771 66.4071 343.319C66.1592 342.866 65.8304 342.521 65.4207 342.284C65.011 342.046 64.569 341.928 64.0946 341.928C63.6203 341.928 63.1782 342.046 62.7686 342.284C62.3589 342.51 62.0247 342.85 61.7659 343.302C61.518 343.744 61.394 344.273 61.394 344.887C61.394 345.502 61.518 346.041 61.7659 346.504C62.0247 346.968 62.3589 347.324 62.7686 347.572C63.189 347.809 63.631 347.927 64.0946 347.927C64.569 347.927 65.011 347.809 65.4207 347.572C65.8304 347.334 66.1592 346.989 66.4071 346.537C66.6659 346.073 66.7953 345.534 66.7953 344.919ZM74.6665 340.327C75.3565 340.327 75.9656 340.467 76.4939 340.747C77.0329 341.017 77.4534 341.356 77.7552 341.766V340.472H79.6149V349.528C79.6149 350.348 79.4425 351.075 79.0975 351.712C78.7525 352.358 78.2512 352.865 77.5935 353.232C76.9467 353.598 76.1704 353.781 75.2648 353.781C74.0574 353.781 73.0547 353.496 72.2569 352.924C71.4591 352.364 71.0063 351.598 70.8985 350.628H72.7259C72.8661 351.092 73.1625 351.464 73.6153 351.744C74.0789 352.035 74.6287 352.18 75.2648 352.18C76.0087 352.18 76.6071 351.954 77.0599 351.501C77.5234 351.048 77.7552 350.391 77.7552 349.528V348.041C77.4426 348.461 77.0167 348.817 76.4777 349.108C75.9494 349.388 75.3457 349.528 74.6665 349.528C73.8902 349.528 73.1787 349.334 72.5318 348.946C71.8958 348.547 71.3891 347.997 71.0117 347.297C70.6452 346.585 70.4619 345.782 70.4619 344.887C70.4619 343.992 70.6452 343.2 71.0117 342.51C71.3891 341.82 71.8958 341.286 72.5318 340.909C73.1787 340.521 73.8902 340.327 74.6665 340.327ZM77.7552 344.919C77.7552 344.305 77.6259 343.771 77.3671 343.319C77.1191 342.866 76.7903 342.521 76.3807 342.284C75.971 342.046 75.529 341.928 75.0546 341.928C74.5802 341.928 74.1382 342.046 73.7285 342.284C73.3189 342.51 72.9846 342.85 72.7259 343.302C72.4779 343.744 72.354 344.273 72.354 344.887C72.354 345.502 72.4779 346.041 72.7259 346.504C72.9846 346.968 73.3189 347.324 73.7285 347.572C74.149 347.809 74.591 347.927 75.0546 347.927C75.529 347.927 75.971 347.809 76.3807 347.572C76.7903 347.334 77.1191 346.989 77.3671 346.537C77.6259 346.073 77.7552 345.534 77.7552 344.919ZM83.8799 341.766C84.1494 341.313 84.5052 340.963 84.9472 340.715C85.4 340.456 85.9337 340.327 86.5482 340.327V342.235H86.0792C85.3569 342.235 84.8071 342.418 84.4298 342.785C84.0632 343.151 83.8799 343.787 83.8799 344.693V349.383H82.0364V340.472H83.8799V341.766ZM87.6283 344.887C87.6283 343.992 87.8116 343.2 88.1781 342.51C88.5555 341.82 89.0622 341.286 89.6982 340.909C90.3451 340.521 91.0566 340.327 91.8329 340.327C92.5336 340.327 93.1428 340.467 93.6603 340.747C94.1885 341.017 94.609 341.356 94.9216 341.766V340.472H96.7814V349.383H94.9216V348.057C94.609 348.477 94.1831 348.828 93.6441 349.108C93.105 349.388 92.4905 349.528 91.8005 349.528C91.0351 349.528 90.3343 349.334 89.6982 348.946C89.0622 348.547 88.5555 347.997 88.1781 347.297C87.8116 346.585 87.6283 345.782 87.6283 344.887ZM94.9216 344.919C94.9216 344.305 94.7923 343.771 94.5335 343.319C94.2856 342.866 93.9567 342.521 93.5471 342.284C93.1374 342.046 92.6954 341.928 92.221 341.928C91.7466 341.928 91.3046 342.046 90.8949 342.284C90.4853 342.51 90.151 342.85 89.8923 343.302C89.6443 343.744 89.5204 344.273 89.5204 344.887C89.5204 345.502 89.6443 346.041 89.8923 346.504C90.151 346.968 90.4853 347.324 90.8949 347.572C91.3154 347.809 91.7574 347.927 92.221 347.927C92.6954 347.927 93.1374 347.809 93.5471 347.572C93.9567 347.334 94.2856 346.989 94.5335 346.537C94.7923 346.073 94.9216 345.534 94.9216 344.919ZM109.989 340.327C110.69 340.327 111.315 340.472 111.865 340.763C112.426 341.055 112.862 341.486 113.175 342.057C113.498 342.629 113.66 343.319 113.66 344.127V349.383H111.833V344.402C111.833 343.604 111.633 342.995 111.234 342.575C110.835 342.143 110.291 341.928 109.601 341.928C108.911 341.928 108.361 342.143 107.952 342.575C107.553 342.995 107.353 343.604 107.353 344.402V349.383H105.526V344.402C105.526 343.604 105.326 342.995 104.927 342.575C104.529 342.143 103.984 341.928 103.294 341.928C102.604 341.928 102.054 342.143 101.645 342.575C101.246 342.995 101.046 343.604 101.046 344.402V349.383H99.2028V340.472H101.046V341.491C101.348 341.125 101.731 340.839 102.195 340.634C102.658 340.429 103.154 340.327 103.682 340.327C104.394 340.327 105.03 340.478 105.591 340.78C106.151 341.081 106.582 341.518 106.884 342.089C107.154 341.55 107.574 341.125 108.146 340.812C108.717 340.488 109.332 340.327 109.989 340.327ZM115.391 344.887C115.391 343.992 115.575 343.2 115.941 342.51C116.319 341.82 116.825 341.286 117.461 340.909C118.108 340.521 118.82 340.327 119.596 340.327C120.297 340.327 120.906 340.467 121.423 340.747C121.952 341.017 122.372 341.356 122.685 341.766V340.472H124.544V349.383H122.685V348.057C122.372 348.477 121.946 348.828 121.407 349.108C120.868 349.388 120.254 349.528 119.564 349.528C118.798 349.528 118.097 349.334 117.461 348.946C116.825 348.547 116.319 347.997 115.941 347.297C115.575 346.585 115.391 345.782 115.391 344.887ZM122.685 344.919C122.685 344.305 122.555 343.771 122.297 343.319C122.049 342.866 121.72 342.521 121.31 342.284C120.901 342.046 120.458 341.928 119.984 341.928C119.51 341.928 119.068 342.046 118.658 342.284C118.248 342.51 117.914 342.85 117.655 343.302C117.407 343.744 117.283 344.273 117.283 344.887C117.283 345.502 117.407 346.041 117.655 346.504C117.914 346.968 118.248 347.324 118.658 347.572C119.079 347.809 119.521 347.927 119.984 347.927C120.458 347.927 120.901 347.809 121.31 347.572C121.72 347.334 122.049 346.989 122.297 346.537C122.555 346.073 122.685 345.534 122.685 344.919ZM49.4895 368.887C49.4895 367.992 49.6728 367.2 50.0393 366.51C50.4167 365.82 50.9234 365.286 51.5595 364.909C52.2063 364.521 52.9232 364.327 53.7103 364.327C54.2924 364.327 54.8638 364.456 55.4244 364.715C55.9958 364.963 56.4486 365.297 56.7828 365.718L56.7828 361.416H58.6426L58.6426 373.383H56.7828V372.041C56.481 372.472 56.0605 372.828 55.5215 373.108C54.9932 373.388 54.3841 373.528 53.6941 373.528C52.9179 373.528 52.2063 373.334 51.5595 372.946C50.9234 372.547 50.4167 371.997 50.0393 371.297C49.6728 370.585 49.4895 369.782 49.4895 368.887ZM56.7828 368.919C56.7828 368.305 56.6535 367.771 56.3947 367.319C56.1468 366.866 55.8179 366.521 55.4083 366.284C54.9986 366.046 54.5566 365.928 54.0822 365.928C53.6078 365.928 53.1658 366.046 52.7561 366.284C52.3465 366.51 52.0123 366.85 51.7535 367.302C51.5055 367.744 51.3816 368.273 51.3816 368.887C51.3816 369.502 51.5055 370.041 51.7535 370.504C52.0123 370.968 52.3465 371.324 52.7561 371.572C53.1766 371.809 53.6186 371.927 54.0822 371.927C54.5566 371.927 54.9986 371.809 55.4083 371.572C55.8179 371.334 56.1468 370.989 56.3947 370.537C56.6535 370.073 56.7828 369.534 56.7828 368.919ZM69.2306 368.709C69.2306 369.043 69.209 369.345 69.1659 369.615H62.3577C62.4116 370.326 62.6757 370.898 63.1501 371.329C63.6245 371.76 64.2066 371.976 64.8966 371.976C65.8885 371.976 66.5892 371.561 66.9989 370.731H68.988C68.7185 371.55 68.228 372.224 67.5164 372.752C66.8156 373.27 65.9424 373.528 64.8966 373.528C64.0449 373.528 63.2795 373.34 62.6003 372.962C61.9319 372.574 61.4036 372.035 61.0155 371.345C60.6381 370.644 60.4495 369.836 60.4495 368.919C60.4495 368.003 60.6327 367.2 60.9993 366.51C61.3766 365.809 61.8995 365.27 62.5679 364.893C63.2471 364.515 64.0234 364.327 64.8966 364.327C65.7375 364.327 66.4868 364.51 67.1445 364.877C67.8021 365.243 68.3142 365.761 68.6808 366.429C69.0473 367.087 69.2306 367.847 69.2306 368.709ZM67.3062 368.127C67.2954 367.448 67.0528 366.903 66.5785 366.494C66.1041 366.084 65.5165 365.879 64.8158 365.879C64.1797 365.879 63.6353 366.084 63.1825 366.494C62.7296 366.893 62.4601 367.437 62.3739 368.127H67.3062ZM83.3799 365.378C83.0888 364.817 82.6845 364.397 82.167 364.117C81.6495 363.825 81.0512 363.68 80.372 363.68C79.6281 363.68 78.9651 363.847 78.3829 364.181C77.8007 364.515 77.3425 364.99 77.0083 365.604C76.6849 366.219 76.5232 366.93 76.5232 367.739C76.5232 368.548 76.6849 369.264 77.0083 369.89C77.3425 370.504 77.8007 370.979 78.3829 371.313C78.9651 371.647 79.6281 371.814 80.372 371.814C81.3746 371.814 82.1886 371.534 82.8139 370.973C83.4392 370.413 83.8219 369.653 83.962 368.693H79.7413V367.221H85.935V368.661C85.8164 369.534 85.5037 370.337 84.997 371.07C84.5011 371.803 83.8488 372.391 83.0403 372.833C82.2425 373.264 81.353 373.48 80.372 373.48C79.3154 373.48 78.3505 373.237 77.4773 372.752C76.604 372.256 75.9086 371.572 75.3912 370.698C74.8845 369.825 74.6311 368.839 74.6311 367.739C74.6311 366.639 74.8845 365.653 75.3912 364.78C75.9086 363.906 76.604 363.227 77.4773 362.742C78.3613 362.246 79.3262 361.998 80.372 361.998C81.5687 361.998 82.6306 362.295 83.5578 362.888C84.4957 363.47 85.1749 364.3 85.5954 365.378H83.3799ZM87.1387 368.887C87.1387 367.992 87.322 367.2 87.6886 366.51C88.0659 365.82 88.5726 365.286 89.2087 364.909C89.8555 364.521 90.5671 364.327 91.3433 364.327C92.0441 364.327 92.6532 364.467 93.1707 364.747C93.699 365.017 94.1194 365.356 94.4321 365.766V364.472H96.2918V373.383H94.4321V372.057C94.1194 372.477 93.6936 372.828 93.1545 373.108C92.6155 373.388 92.001 373.528 91.311 373.528C90.5455 373.528 89.8448 373.334 89.2087 372.946C88.5726 372.547 88.0659 371.997 87.6886 371.297C87.322 370.585 87.1387 369.782 87.1387 368.887ZM94.4321 368.919C94.4321 368.305 94.3027 367.771 94.0439 367.319C93.796 366.866 93.4672 366.521 93.0575 366.284C92.6478 366.046 92.2058 365.928 91.7314 365.928C91.2571 365.928 90.815 366.046 90.4054 366.284C89.9957 366.51 89.6615 366.85 89.4027 367.302C89.1548 367.744 89.0308 368.273 89.0308 368.887C89.0308 369.502 89.1548 370.041 89.4027 370.504C89.6615 370.968 89.9957 371.324 90.4054 371.572C90.8258 371.809 91.2678 371.927 91.7314 371.927C92.2058 371.927 92.6478 371.809 93.0575 371.572C93.4672 371.334 93.796 370.989 94.0439 370.537C94.3027 370.073 94.4321 369.534 94.4321 368.919ZM103.209 364.327C103.91 364.327 104.535 364.472 105.085 364.763C105.645 365.055 106.082 365.486 106.395 366.057C106.707 366.629 106.864 367.319 106.864 368.127V373.383H105.036V368.402C105.036 367.604 104.837 366.995 104.438 366.575C104.039 366.143 103.495 365.928 102.805 365.928C102.115 365.928 101.565 366.143 101.155 366.575C100.756 366.995 100.557 367.604 100.557 368.402V373.383H98.7132V364.472H100.557V365.491C100.859 365.125 101.241 364.839 101.705 364.634C102.179 364.429 102.681 364.327 103.209 364.327ZM111.366 365.976V370.909C111.366 371.243 111.441 371.485 111.592 371.636C111.754 371.776 112.024 371.847 112.401 371.847H113.533V373.383H112.078C111.247 373.383 110.611 373.189 110.169 372.801C109.727 372.413 109.506 371.782 109.506 370.909V365.976H108.455V364.472H109.506V362.257H111.366V364.472H113.533V365.976H111.366ZM117.383 365.976V370.909C117.383 371.243 117.458 371.485 117.609 371.636C117.771 371.776 118.041 371.847 118.418 371.847H119.55V373.383H118.094C117.264 373.383 116.628 373.189 116.186 372.801C115.744 372.413 115.523 371.782 115.523 370.909V365.976H114.472V364.472H115.523V362.257H117.383V364.472H119.55V365.976H117.383Z" fill="#4B4B4B"/>
<path d="M26.9526 581.005C26.9526 579.905 27.206 578.918 27.7127 578.045C28.2301 577.172 28.9255 576.493 29.7988 576.008C30.6828 575.512 31.6477 575.264 32.6935 575.264C33.8902 575.264 34.9521 575.56 35.8793 576.153C36.8172 576.735 37.4964 577.565 37.9169 578.644H35.7014C35.4103 578.051 35.006 577.609 34.4885 577.317C33.971 577.026 33.3727 576.881 32.6935 576.881C31.9496 576.881 31.2866 577.048 30.7044 577.382C30.1222 577.716 29.664 578.196 29.3298 578.821C29.0064 579.447 28.8447 580.174 28.8447 581.005C28.8447 581.835 29.0064 582.562 29.3298 583.188C29.664 583.813 30.1222 584.298 30.7044 584.643C31.2866 584.977 31.9496 585.144 32.6935 585.144C33.3727 585.144 33.971 584.999 34.4885 584.708C35.006 584.417 35.4103 583.975 35.7014 583.382H37.9169C37.4964 584.46 36.8172 585.29 35.8793 585.872C34.9521 586.454 33.8902 586.745 32.6935 586.745C31.6369 586.745 30.672 586.503 29.7988 586.018C28.9255 585.522 28.2301 584.837 27.7127 583.964C27.206 583.091 26.9526 582.104 26.9526 581.005ZM43.9397 586.794C43.0988 586.794 42.3388 586.605 41.6595 586.228C40.9803 585.84 40.4467 585.301 40.0586 584.611C39.6705 583.91 39.4764 583.101 39.4764 582.185C39.4764 581.28 39.6758 580.476 40.0747 579.776C40.4736 579.075 41.0181 578.536 41.7081 578.158C42.398 577.781 43.1689 577.592 44.0206 577.592C44.8723 577.592 45.6431 577.781 46.3331 578.158C47.0231 578.536 47.5675 579.075 47.9664 579.776C48.3653 580.476 48.5648 581.28 48.5648 582.185C48.5648 583.091 48.3599 583.894 47.9503 584.595C47.5406 585.295 46.98 585.84 46.2684 586.228C45.5677 586.605 44.7914 586.794 43.9397 586.794ZM43.9397 585.193C44.4141 585.193 44.8561 585.08 45.2658 584.853C45.6862 584.627 46.0258 584.287 46.2846 583.835C46.5433 583.382 46.6727 582.832 46.6727 582.185C46.6727 581.538 46.5487 580.994 46.3008 580.552C46.0528 580.099 45.724 579.759 45.3143 579.533C44.9046 579.307 44.4626 579.193 43.9882 579.193C43.5139 579.193 43.0719 579.307 42.6622 579.533C42.2633 579.759 41.9452 580.099 41.7081 580.552C41.4709 580.994 41.3523 581.538 41.3523 582.185C41.3523 583.145 41.5949 583.889 42.08 584.417C42.5759 584.934 43.1958 585.193 43.9397 585.193ZM54.8829 577.592C55.5837 577.592 56.209 577.738 56.7588 578.029C57.3194 578.32 57.756 578.751 58.0687 579.323C58.3813 579.894 58.5376 580.584 58.5376 581.393V586.648H56.7103V581.668C56.7103 580.87 56.5108 580.261 56.1119 579.84C55.713 579.409 55.1686 579.193 54.4786 579.193C53.7886 579.193 53.2388 579.409 52.8291 579.84C52.4302 580.261 52.2308 580.87 52.2308 581.668V586.648H50.3872V577.738H52.2308V578.757C52.5326 578.39 52.9154 578.105 53.3789 577.9C53.8533 577.695 54.3546 577.592 54.8829 577.592ZM64.6248 579.242H62.9753V586.648H61.1156V579.242H60.0645V577.738H61.1156V577.107C61.1156 576.083 61.3851 575.339 61.9242 574.876C62.474 574.401 63.3311 574.164 64.4954 574.164V575.7C63.9348 575.7 63.5413 575.808 63.3149 576.024C63.0885 576.229 62.9753 576.59 62.9753 577.107V577.738H64.6248V579.242ZM67.1966 576.557C66.8624 576.557 66.5821 576.444 66.3557 576.218C66.1293 575.991 66.0161 575.711 66.0161 575.377C66.0161 575.043 66.1293 574.762 66.3557 574.536C66.5821 574.31 66.8624 574.196 67.1966 574.196C67.52 574.196 67.7949 574.31 68.0213 574.536C68.2477 574.762 68.3609 575.043 68.3609 575.377C68.3609 575.711 68.2477 575.991 68.0213 576.218C67.7949 576.444 67.52 576.557 67.1966 576.557ZM68.1022 577.738V586.648H66.2586V577.738H68.1022ZM74.1127 577.592C74.8027 577.592 75.4118 577.733 75.9401 578.013C76.4791 578.282 76.8996 578.622 77.2014 579.032V577.738H79.0611V586.794C79.0611 587.613 78.8887 588.341 78.5437 588.977C78.1987 589.624 77.6974 590.131 77.0397 590.497C76.3929 590.864 75.6166 591.047 74.711 591.047C73.5035 591.047 72.5009 590.761 71.7031 590.19C70.9053 589.629 70.4525 588.864 70.3447 587.894H72.1721C72.3123 588.357 72.6087 588.729 73.0615 589.009C73.5251 589.301 74.0749 589.446 74.711 589.446C75.4549 589.446 76.0533 589.22 76.5061 588.767C76.9696 588.314 77.2014 587.656 77.2014 586.794V585.306C76.8888 585.727 76.4629 586.082 75.9239 586.374C75.3956 586.654 74.7919 586.794 74.1127 586.794C73.3364 586.794 72.6249 586.6 71.978 586.212C71.342 585.813 70.8353 585.263 70.4579 584.562C70.0914 583.851 69.9081 583.048 69.9081 582.153C69.9081 581.258 70.0914 580.466 70.4579 579.776C70.8353 579.086 71.342 578.552 71.978 578.175C72.6249 577.786 73.3364 577.592 74.1127 577.592ZM77.2014 582.185C77.2014 581.571 77.0721 581.037 76.8133 580.584C76.5653 580.131 76.2365 579.786 75.8269 579.549C75.4172 579.312 74.9752 579.193 74.5008 579.193C74.0264 579.193 73.5844 579.312 73.1747 579.549C72.7651 579.776 72.4308 580.115 72.1721 580.568C71.9241 581.01 71.8002 581.538 71.8002 582.153C71.8002 582.767 71.9241 583.306 72.1721 583.77C72.4308 584.233 72.7651 584.589 73.1747 584.837C73.5952 585.074 74.0372 585.193 74.5008 585.193C74.9752 585.193 75.4172 585.074 75.8269 584.837C76.2365 584.6 76.5653 584.255 76.8133 583.802C77.0721 583.339 77.2014 582.8 77.2014 582.185ZM89.5521 577.738V586.648H87.7086V585.597C87.4175 585.964 87.0348 586.255 86.5604 586.471C86.0968 586.675 85.6009 586.778 85.0726 586.778C84.3719 586.778 83.7412 586.632 83.1806 586.341C82.6307 586.05 82.1941 585.619 81.8707 585.047C81.558 584.476 81.4017 583.786 81.4017 582.978V577.738H83.2291V582.703C83.2291 583.5 83.4285 584.115 83.8274 584.546C84.2263 584.967 84.7708 585.177 85.4608 585.177C86.1507 585.177 86.6952 584.967 87.0941 584.546C87.5038 584.115 87.7086 583.5 87.7086 582.703V577.738H89.5521ZM93.8281 579.032C94.0976 578.579 94.4534 578.228 94.8954 577.981C95.3482 577.722 95.8819 577.592 96.4964 577.592V579.501H96.0274C95.3051 579.501 94.7553 579.684 94.3779 580.05C94.0114 580.417 93.8281 581.053 93.8281 581.959V586.648H91.9846V577.738H93.8281V579.032ZM97.5765 582.153C97.5765 581.258 97.7598 580.466 98.1263 579.776C98.5036 579.086 99.0104 578.552 99.6464 578.175C100.293 577.786 101.005 577.592 101.781 577.592C102.482 577.592 103.091 577.733 103.608 578.013C104.137 578.282 104.557 578.622 104.87 579.032V577.738H106.73V586.648H104.87V585.322C104.557 585.743 104.131 586.093 103.592 586.374C103.053 586.654 102.439 586.794 101.749 586.794C100.983 586.794 100.283 586.6 99.6464 586.212C99.0104 585.813 98.5036 585.263 98.1263 584.562C97.7598 583.851 97.5765 583.048 97.5765 582.153ZM104.87 582.185C104.87 581.571 104.74 581.037 104.482 580.584C104.234 580.131 103.905 579.786 103.495 579.549C103.086 579.312 102.644 579.193 102.169 579.193C101.695 579.193 101.253 579.312 100.843 579.549C100.433 579.776 100.099 580.115 99.8405 580.568C99.5925 581.01 99.4685 581.538 99.4685 582.153C99.4685 582.767 99.5925 583.306 99.8405 583.77C100.099 584.233 100.433 584.589 100.843 584.837C101.264 585.074 101.706 585.193 102.169 585.193C102.644 585.193 103.086 585.074 103.495 584.837C103.905 584.6 104.234 584.255 104.482 583.802C104.74 583.339 104.87 582.8 104.87 582.185ZM108.536 582.185C108.536 581.269 108.72 580.466 109.086 579.776C109.464 579.075 109.981 578.536 110.639 578.158C111.296 577.781 112.051 577.592 112.903 577.592C113.981 577.592 114.87 577.851 115.571 578.369C116.283 578.875 116.762 579.603 117.01 580.552H115.021C114.859 580.11 114.601 579.765 114.245 579.517C113.889 579.269 113.442 579.145 112.903 579.145C112.148 579.145 111.544 579.414 111.092 579.953C110.65 580.482 110.429 581.226 110.429 582.185C110.429 583.145 110.65 583.894 111.092 584.433C111.544 584.972 112.148 585.242 112.903 585.242C113.97 585.242 114.676 584.773 115.021 583.835H117.01C116.752 584.74 116.266 585.463 115.555 586.002C114.843 586.53 113.959 586.794 112.903 586.794C112.051 586.794 111.296 586.605 110.639 586.228C109.981 585.84 109.464 585.301 109.086 584.611C108.72 583.91 108.536 583.101 108.536 582.185ZM119.785 576.557C119.451 576.557 119.171 576.444 118.945 576.218C118.718 575.991 118.605 575.711 118.605 575.377C118.605 575.043 118.718 574.762 118.945 574.536C119.171 574.31 119.451 574.196 119.785 574.196C120.109 574.196 120.384 574.31 120.61 574.536C120.837 574.762 120.95 575.043 120.95 575.377C120.95 575.711 120.837 575.991 120.61 576.218C120.384 576.444 120.109 576.557 119.785 576.557ZM120.691 577.738V586.648H118.848V577.738H120.691ZM126.976 586.794C126.136 586.794 125.376 586.605 124.696 586.228C124.017 585.84 123.483 585.301 123.095 584.611C122.707 583.91 122.513 583.101 122.513 582.185C122.513 581.28 122.713 580.476 123.111 579.776C123.51 579.075 124.055 578.536 124.745 578.158C125.435 577.781 126.206 577.592 127.057 577.592C127.909 577.592 128.68 577.781 129.37 578.158C130.06 578.536 130.604 579.075 131.003 579.776C131.402 580.476 131.602 581.28 131.602 582.185C131.602 583.091 131.397 583.894 130.987 584.595C130.577 585.295 130.017 585.84 129.305 586.228C128.604 586.605 127.828 586.794 126.976 586.794ZM126.976 585.193C127.451 585.193 127.893 585.08 128.303 584.853C128.723 584.627 129.063 584.287 129.321 583.835C129.58 583.382 129.709 582.832 129.709 582.185C129.709 581.538 129.585 580.994 129.338 580.552C129.09 580.099 128.761 579.759 128.351 579.533C127.941 579.307 127.499 579.193 127.025 579.193C126.551 579.193 126.109 579.307 125.699 579.533C125.3 579.759 124.982 580.099 124.745 580.552C124.508 580.994 124.389 581.538 124.389 582.185C124.389 583.145 124.632 583.889 125.117 584.417C125.613 584.934 126.233 585.193 126.976 585.193ZM128.723 575.199L125.149 576.962V575.603L128.723 573.63V575.199ZM137.92 577.592C138.62 577.592 139.246 577.738 139.796 578.029C140.356 578.32 140.793 578.751 141.105 579.323C141.418 579.894 141.574 580.584 141.574 581.393V586.648H139.747V581.668C139.747 580.87 139.548 580.261 139.149 579.84C138.75 579.409 138.205 579.193 137.515 579.193C136.825 579.193 136.276 579.409 135.866 579.84C135.467 580.261 135.268 580.87 135.268 581.668V586.648H133.424V577.738H135.268V578.757C135.569 578.39 135.952 578.105 136.416 577.9C136.89 577.695 137.391 577.592 137.92 577.592ZM52.7733 606.153C52.7733 605.258 52.9565 604.466 53.3231 603.776C53.7004 603.086 54.2071 602.552 54.8432 602.175C55.4901 601.786 56.207 601.592 56.994 601.592C57.5762 601.592 58.1476 601.722 58.7082 601.981C59.2796 602.228 59.7324 602.563 60.0666 602.983V598.682H61.9263V610.648H60.0666V609.306C59.7647 609.737 59.3443 610.093 58.8052 610.374C58.277 610.654 57.6678 610.794 56.9779 610.794C56.2016 610.794 55.4901 610.6 54.8432 610.212C54.2071 609.813 53.7004 609.263 53.3231 608.562C52.9565 607.851 52.7733 607.048 52.7733 606.153ZM60.0666 606.185C60.0666 605.571 59.9372 605.037 59.6785 604.584C59.4305 604.131 59.1017 603.786 58.692 603.549C58.2824 603.312 57.8403 603.193 57.366 603.193C56.8916 603.193 56.4496 603.312 56.0399 603.549C55.6302 603.776 55.296 604.115 55.0373 604.568C54.7893 605.01 54.6653 605.538 54.6653 606.153C54.6653 606.767 54.7893 607.306 55.0373 607.77C55.296 608.233 55.6302 608.589 56.0399 608.837C56.4604 609.074 56.9024 609.193 57.366 609.193C57.8403 609.193 58.2824 609.074 58.692 608.837C59.1017 608.6 59.4305 608.255 59.6785 607.802C59.9372 607.339 60.0666 606.8 60.0666 606.185ZM72.5144 605.975C72.5144 606.309 72.4928 606.611 72.4497 606.88H65.6415C65.6954 607.592 65.9595 608.163 66.4339 608.595C66.9082 609.026 67.4904 609.242 68.1804 609.242C69.1722 609.242 69.873 608.826 70.2827 607.996H72.2718C72.0023 608.816 71.5117 609.489 70.8002 610.018C70.0994 610.535 69.2262 610.794 68.1804 610.794C67.3287 610.794 66.5632 610.605 65.884 610.228C65.2156 609.84 64.6874 609.301 64.2992 608.611C63.9219 607.91 63.7332 607.101 63.7332 606.185C63.7332 605.269 63.9165 604.466 64.2831 603.776C64.6604 603.075 65.1833 602.536 65.8517 602.158C66.5309 601.781 67.3071 601.592 68.1804 601.592C69.0213 601.592 69.7706 601.776 70.4282 602.142C71.0859 602.509 71.598 603.026 71.9645 603.695C72.3311 604.352 72.5144 605.112 72.5144 605.975ZM70.5899 605.393C70.5792 604.714 70.3366 604.169 69.8622 603.759C69.3879 603.35 68.8003 603.145 68.0995 603.145C67.4635 603.145 66.919 603.35 66.4662 603.759C66.0134 604.158 65.7439 604.703 65.6576 605.393H70.5899ZM77.9149 606.185C77.9149 605.269 78.0981 604.466 78.4647 603.776C78.842 603.075 79.3595 602.536 80.0172 602.158C80.6748 601.781 81.4295 601.592 82.2812 601.592C83.3593 601.592 84.2487 601.851 84.9495 602.369C85.661 602.875 86.1408 603.603 86.3887 604.552H84.3996C84.2379 604.11 83.9792 603.765 83.6234 603.517C83.2676 603.269 82.8202 603.145 82.2812 603.145C81.5265 603.145 80.9228 603.414 80.47 603.953C80.0279 604.482 79.8069 605.226 79.8069 606.185C79.8069 607.145 80.0279 607.894 80.47 608.433C80.9228 608.972 81.5265 609.242 82.2812 609.242C83.3485 609.242 84.0546 608.773 84.3996 607.835H86.3887C86.13 608.74 85.6448 609.463 84.9333 610.002C84.2217 610.53 83.3377 610.794 82.2812 610.794C81.4295 610.794 80.6748 610.605 80.0172 610.228C79.3595 609.84 78.842 609.301 78.4647 608.611C78.0981 607.91 77.9149 607.101 77.9149 606.185ZM89.1639 600.557C88.8297 600.557 88.5494 600.444 88.323 600.218C88.0966 599.991 87.9834 599.711 87.9834 599.377C87.9834 599.043 88.0966 598.762 88.323 598.536C88.5494 598.31 88.8297 598.196 89.1639 598.196C89.4873 598.196 89.7622 598.31 89.9886 598.536C90.215 598.762 90.3282 599.043 90.3282 599.377C90.3282 599.711 90.215 599.991 89.9886 600.218C89.7622 600.444 89.4873 600.557 89.1639 600.557ZM90.0695 601.738V610.648H88.226V601.738H90.0695ZM94.6407 603.242V608.174C94.6407 608.508 94.7162 608.751 94.8671 608.902C95.0288 609.042 95.2984 609.112 95.6757 609.112H96.8077V610.648H95.3523C94.5221 610.648 93.8861 610.454 93.444 610.066C93.002 609.678 92.781 609.047 92.781 608.174V603.242H91.7299V601.738H92.781V599.522H94.6407V601.738H96.8077V603.242H94.6407ZM97.8923 606.153C97.8923 605.258 98.0756 604.466 98.4422 603.776C98.8195 603.086 99.3262 602.552 99.9623 602.175C100.609 601.786 101.321 601.592 102.097 601.592C102.798 601.592 103.407 601.733 103.924 602.013C104.453 602.282 104.873 602.622 105.186 603.032V601.738H107.045V610.648H105.186V609.322C104.873 609.743 104.447 610.093 103.908 610.374C103.369 610.654 102.755 610.794 102.065 610.794C101.299 610.794 100.598 610.6 99.9623 610.212C99.3262 609.813 98.8195 609.263 98.4422 608.562C98.0756 607.851 97.8923 607.048 97.8923 606.153ZM105.186 606.185C105.186 605.571 105.056 605.037 104.798 604.584C104.55 604.131 104.221 603.786 103.811 603.549C103.401 603.312 102.959 603.193 102.485 603.193C102.011 603.193 101.569 603.312 101.159 603.549C100.749 603.776 100.415 604.115 100.156 604.568C99.9084 605.01 99.7844 605.538 99.7844 606.153C99.7844 606.767 99.9084 607.306 100.156 607.77C100.415 608.233 100.749 608.589 101.159 608.837C101.579 609.074 102.021 609.193 102.485 609.193C102.959 609.193 103.401 609.074 103.811 608.837C104.221 608.6 104.55 608.255 104.798 607.802C105.056 607.339 105.186 606.8 105.186 606.185ZM112.701 610.794C112 610.794 111.37 610.67 110.809 610.422C110.259 610.163 109.823 609.818 109.499 609.387C109.176 608.945 109.003 608.455 108.982 607.915H110.89C110.922 608.293 111.1 608.611 111.424 608.87C111.758 609.118 112.173 609.242 112.669 609.242C113.186 609.242 113.585 609.144 113.865 608.95C114.157 608.746 114.302 608.487 114.302 608.174C114.302 607.84 114.14 607.592 113.817 607.43C113.504 607.269 113.003 607.091 112.313 606.897C111.645 606.713 111.1 606.535 110.68 606.363C110.259 606.19 109.893 605.926 109.58 605.571C109.278 605.215 109.127 604.746 109.127 604.164C109.127 603.689 109.267 603.258 109.548 602.87C109.828 602.471 110.227 602.158 110.744 601.932C111.273 601.706 111.876 601.592 112.556 601.592C113.569 601.592 114.383 601.851 114.997 602.369C115.623 602.875 115.957 603.571 116 604.455H114.157C114.124 604.056 113.962 603.738 113.671 603.501C113.38 603.263 112.987 603.145 112.491 603.145C112.006 603.145 111.634 603.237 111.375 603.42C111.116 603.603 110.987 603.846 110.987 604.148C110.987 604.385 111.073 604.584 111.246 604.746C111.418 604.908 111.628 605.037 111.876 605.134C112.124 605.22 112.491 605.333 112.976 605.474C113.623 605.646 114.151 605.824 114.561 606.007C114.981 606.18 115.342 606.438 115.644 606.783C115.946 607.128 116.103 607.587 116.113 608.158C116.113 608.665 115.973 609.118 115.693 609.516C115.413 609.915 115.014 610.228 114.496 610.454C113.989 610.681 113.391 610.794 112.701 610.794ZM42.908 625.738L37.442 638.837H35.5338L37.345 634.503L33.8358 625.738H35.8896L38.3961 632.53L40.9997 625.738H42.908ZM47.8855 630.185C47.8855 629.269 48.0688 628.466 48.4353 627.776C48.8127 627.075 49.3302 626.536 49.9878 626.158C50.6454 625.781 51.4001 625.592 52.2518 625.592C53.3299 625.592 54.2193 625.851 54.9201 626.369C55.6316 626.875 56.1114 627.603 56.3594 628.552H54.3703C54.2086 628.11 53.9498 627.765 53.594 627.517C53.2383 627.269 52.7909 627.145 52.2518 627.145C51.4971 627.145 50.8934 627.414 50.4406 627.953C49.9986 628.482 49.7776 629.226 49.7776 630.185C49.7776 631.145 49.9986 631.894 50.4406 632.433C50.8934 632.972 51.4971 633.242 52.2518 633.242C53.3191 633.242 54.0253 632.773 54.3703 631.835H56.3594C56.1006 632.74 55.6155 633.463 54.9039 634.002C54.1924 634.53 53.3083 634.794 52.2518 634.794C51.4001 634.794 50.6454 634.605 49.9878 634.228C49.3302 633.84 48.8127 633.301 48.4353 632.611C48.0688 631.91 47.8855 631.101 47.8855 630.185ZM57.5821 630.153C57.5821 629.258 57.7654 628.466 58.1319 627.776C58.5092 627.086 59.0159 626.552 59.652 626.175C60.2989 625.786 61.0104 625.592 61.7867 625.592C62.4874 625.592 63.0965 625.733 63.614 626.013C64.1423 626.282 64.5628 626.622 64.8754 627.032V625.738H66.7351V634.648H64.8754V633.322C64.5628 633.743 64.1369 634.093 63.5979 634.374C63.0588 634.654 62.4443 634.794 61.7543 634.794C60.9889 634.794 60.2881 634.6 59.652 634.212C59.0159 633.813 58.5092 633.263 58.1319 632.562C57.7654 631.851 57.5821 631.048 57.5821 630.153ZM64.8754 630.185C64.8754 629.571 64.746 629.037 64.4873 628.584C64.2393 628.131 63.9105 627.786 63.5008 627.549C63.0912 627.312 62.6491 627.193 62.1748 627.193C61.7004 627.193 61.2584 627.312 60.8487 627.549C60.439 627.776 60.1048 628.115 59.8461 628.568C59.5981 629.01 59.4741 629.538 59.4741 630.153C59.4741 630.767 59.5981 631.306 59.8461 631.77C60.1048 632.233 60.439 632.589 60.8487 632.837C61.2692 633.074 61.7112 633.193 62.1748 633.193C62.6491 633.193 63.0912 633.074 63.5008 632.837C63.9105 632.6 64.2393 632.255 64.4873 631.802C64.746 631.339 64.8754 630.8 64.8754 630.185ZM71.0001 622.682V634.648H69.1566V622.682H71.0001ZM81.5871 629.975C81.5871 630.309 81.5656 630.611 81.5224 630.88H74.7142C74.7681 631.592 75.0323 632.163 75.5066 632.595C75.981 633.026 76.5632 633.242 77.2532 633.242C78.245 633.242 78.9458 632.826 79.3555 631.996H81.3445C81.075 632.816 80.5845 633.489 79.8729 634.018C79.1722 634.535 78.2989 634.794 77.2532 634.794C76.4015 634.794 75.636 634.605 74.9568 634.228C74.2884 633.84 73.7601 633.301 73.372 632.611C72.9947 631.91 72.806 631.101 72.806 630.185C72.806 629.269 72.9893 628.466 73.3558 627.776C73.7332 627.075 74.256 626.536 74.9245 626.158C75.6037 625.781 76.3799 625.592 77.2532 625.592C78.0941 625.592 78.8434 625.776 79.501 626.142C80.1586 626.509 80.6707 627.026 81.0373 627.695C81.4038 628.352 81.5871 629.112 81.5871 629.975ZM79.6627 629.393C79.6519 628.714 79.4094 628.169 78.935 627.759C78.4606 627.35 77.8731 627.145 77.1723 627.145C76.5362 627.145 75.9918 627.35 75.539 627.759C75.0862 628.158 74.8167 628.703 74.7304 629.393H79.6627ZM87.897 625.592C88.5978 625.592 89.2231 625.738 89.7729 626.029C90.3335 626.32 90.7702 626.751 91.0828 627.323C91.3955 627.894 91.5518 628.584 91.5518 629.393V634.648H89.7244V629.668C89.7244 628.87 89.525 628.261 89.1261 627.84C88.7272 627.409 88.1827 627.193 87.4927 627.193C86.8028 627.193 86.2529 627.409 85.8432 627.84C85.4444 628.261 85.2449 628.87 85.2449 629.668V634.648H83.4014V625.738H85.2449V626.757C85.5468 626.39 85.9295 626.105 86.3931 625.9C86.8674 625.695 87.3688 625.592 87.897 625.592ZM93.2888 630.153C93.2888 629.258 93.4721 628.466 93.8387 627.776C94.216 627.086 94.7227 626.552 95.3588 626.175C96.0056 625.786 96.7226 625.592 97.5096 625.592C98.0918 625.592 98.6631 625.722 99.2238 625.981C99.7952 626.228 100.248 626.563 100.582 626.983V622.682H102.442V634.648H100.582V633.306C100.28 633.737 99.8598 634.093 99.3208 634.374C98.7925 634.654 98.1834 634.794 97.4934 634.794C96.7172 634.794 96.0056 634.6 95.3588 634.212C94.7227 633.813 94.216 633.263 93.8387 632.562C93.4721 631.851 93.2888 631.048 93.2888 630.153ZM100.582 630.185C100.582 629.571 100.453 629.037 100.194 628.584C99.9461 628.131 99.6173 627.786 99.2076 627.549C98.7979 627.312 98.3559 627.193 97.8815 627.193C97.4072 627.193 96.9651 627.312 96.5555 627.549C96.1458 627.776 95.8116 628.115 95.5528 628.568C95.3049 629.01 95.1809 629.538 95.1809 630.153C95.1809 630.767 95.3049 631.306 95.5528 631.77C95.8116 632.233 96.1458 632.589 96.5555 632.837C96.9759 633.074 97.4179 633.193 97.8815 633.193C98.3559 633.193 98.7979 633.074 99.2076 632.837C99.6173 632.6 99.9461 632.255 100.194 631.802C100.453 631.339 100.582 630.8 100.582 630.185ZM104.249 630.153C104.249 629.258 104.432 628.466 104.799 627.776C105.176 627.086 105.683 626.552 106.319 626.175C106.966 625.786 107.677 625.592 108.453 625.592C109.154 625.592 109.763 625.733 110.281 626.013C110.809 626.282 111.229 626.622 111.542 627.032V625.738H113.402V634.648H111.542V633.322C111.229 633.743 110.804 634.093 110.265 634.374C109.726 634.654 109.111 634.794 108.421 634.794C107.656 634.794 106.955 634.6 106.319 634.212C105.683 633.813 105.176 633.263 104.799 632.562C104.432 631.851 104.249 631.048 104.249 630.153ZM111.542 630.185C111.542 629.571 111.413 629.037 111.154 628.584C110.906 628.131 110.577 627.786 110.168 627.549C109.758 627.312 109.316 627.193 108.841 627.193C108.367 627.193 107.925 627.312 107.515 627.549C107.106 627.776 106.772 628.115 106.513 628.568C106.265 629.01 106.141 629.538 106.141 630.153C106.141 630.767 106.265 631.306 106.513 631.77C106.772 632.233 107.106 632.589 107.515 632.837C107.936 633.074 108.378 633.193 108.841 633.193C109.316 633.193 109.758 633.074 110.168 632.837C110.577 632.6 110.906 632.255 111.154 631.802C111.413 631.339 111.542 630.8 111.542 630.185ZM117.667 627.032C117.936 626.579 118.292 626.228 118.734 625.981C119.187 625.722 119.721 625.592 120.335 625.592V627.501H119.866C119.144 627.501 118.594 627.684 118.217 628.05C117.85 628.417 117.667 629.053 117.667 629.959V634.648H115.823V625.738H117.667V627.032ZM122.968 624.557C122.633 624.557 122.353 624.444 122.127 624.218C121.9 623.991 121.787 623.711 121.787 623.377C121.787 623.043 121.9 622.762 122.127 622.536C122.353 622.31 122.633 622.196 122.968 622.196C123.291 622.196 123.566 622.31 123.792 622.536C124.019 622.762 124.132 623.043 124.132 623.377C124.132 623.711 124.019 623.991 123.792 624.218C123.566 624.444 123.291 624.557 122.968 624.557ZM123.873 625.738V634.648H122.03V625.738H123.873ZM130.159 634.794C129.318 634.794 128.558 634.605 127.878 634.228C127.199 633.84 126.666 633.301 126.277 632.611C125.889 631.91 125.695 631.101 125.695 630.185C125.695 629.28 125.895 628.476 126.294 627.776C126.693 627.075 127.237 626.536 127.927 626.158C128.617 625.781 129.388 625.592 130.24 625.592C131.091 625.592 131.862 625.781 132.552 626.158C133.242 626.536 133.786 627.075 134.185 627.776C134.584 628.476 134.784 629.28 134.784 630.185C134.784 631.091 134.579 631.894 134.169 632.595C133.76 633.295 133.199 633.84 132.487 634.228C131.787 634.605 131.01 634.794 130.159 634.794ZM130.159 633.193C130.633 633.193 131.075 633.08 131.485 632.853C131.905 632.627 132.245 632.287 132.504 631.835C132.762 631.382 132.892 630.832 132.892 630.185C132.892 629.538 132.768 628.994 132.52 628.552C132.272 628.099 131.943 627.759 131.533 627.533C131.124 627.307 130.682 627.193 130.207 627.193C129.733 627.193 129.291 627.307 128.881 627.533C128.482 627.759 128.164 628.099 127.927 628.552C127.69 628.994 127.571 629.538 127.571 630.185C127.571 631.145 127.814 631.889 128.299 632.417C128.795 632.934 129.415 633.193 130.159 633.193Z" fill="#4B4B4B"/>
<path d="M115.518 526.904C132.257 534.717 145.831 548.005 153.998 564.574C162.165 581.142 164.437 600.001 160.439 618.036C156.441 636.07 146.412 652.202 132.008 663.767C117.604 675.332 99.687 681.639 81.2147 681.647C62.7423 681.654 44.8198 675.361 30.4067 663.808C15.9936 652.254 5.95188 636.13 1.93968 618.099C-2.07254 600.067 0.18472 581.207 8.33871 564.631C16.4927 548.056 30.0558 534.757 46.7884 526.931L47.9921 529.505C31.8452 537.057 18.7568 549.89 10.8882 565.886C3.01953 581.881 0.841275 600.081 4.71307 617.481C8.58486 634.882 18.2752 650.441 32.1838 661.591C46.0925 672.74 63.3877 678.813 81.2135 678.806C99.0394 678.799 116.33 672.712 130.23 661.552C144.129 650.391 153.807 634.824 157.665 617.421C161.523 600.017 159.331 581.819 151.449 565.83C143.568 549.841 130.469 537.018 114.316 529.478L115.518 526.904Z" fill="url(#paint0_linear_6598_17507)"/>
<path d="M71.9854 506.293H92.1836C92.1876 506.293 92.2144 506.294 92.251 506.337C92.2882 506.381 92.3212 506.456 92.3213 506.553C92.3213 506.65 92.2883 506.725 92.251 506.77C92.2144 506.813 92.1876 506.813 92.1836 506.813H71.9854C71.9809 506.813 71.955 506.812 71.9189 506.77C71.8816 506.725 71.8477 506.65 71.8477 506.553C71.8477 506.456 71.8817 506.381 71.9189 506.337C71.9551 506.294 71.9809 506.293 71.9854 506.293Z" fill="#00AB9E" stroke="#81319B" stroke-width="1.0781"/>
<path d="M64.5049 506.293H68.5391C68.5431 506.293 68.5698 506.294 68.6064 506.337C68.6437 506.381 68.6777 506.456 68.6777 506.553C68.6777 506.65 68.6437 506.725 68.6064 506.77C68.5699 506.813 68.5431 506.813 68.5391 506.813H64.5049C63.4839 506.814 62.7949 507.766 62.7949 508.735V541.773C62.795 542.747 63.4876 543.686 64.5049 543.687H99.6631C100.68 543.686 101.373 542.747 101.373 541.773V508.735C101.373 507.766 100.684 506.814 99.6631 506.813H95.6289C95.6249 506.813 95.5981 506.813 95.5615 506.77C95.5242 506.725 95.4902 506.65 95.4902 506.553C95.4903 506.456 95.5243 506.381 95.5615 506.337C95.5981 506.294 95.6249 506.293 95.6289 506.293H99.6631C100.679 506.293 101.648 507.299 101.648 508.735V541.773C101.648 543.2 100.68 544.207 99.6631 544.207H64.5049C63.488 544.207 62.5196 543.2 62.5195 541.773V508.735C62.5195 507.3 63.4888 506.293 64.5049 506.293Z" fill="#00AB9E" stroke="#81319B" stroke-width="1.0781"/>
<path d="M62.6572 511.637H101.511C101.515 511.637 101.541 511.638 101.577 511.681C101.614 511.725 101.648 511.8 101.648 511.896C101.648 511.993 101.614 512.069 101.577 512.113C101.541 512.156 101.515 512.157 101.511 512.157H62.6572C62.6528 512.157 62.6269 512.156 62.5908 512.113C62.5535 512.069 62.5195 511.993 62.5195 511.896C62.5196 511.8 62.5536 511.725 62.5908 511.681C62.627 511.638 62.6528 511.637 62.6572 511.637Z" fill="#00AB9E" stroke="#81319B" stroke-width="1.0781"/>
<path d="M69.2549 502.637H71.2715C71.6582 502.637 72.1201 503.044 72.1201 503.736V507.996C72.1199 508.689 71.6581 509.095 71.2715 509.095H69.2549C68.8682 509.095 68.4064 508.689 68.4062 507.996V503.736C68.4062 503.044 68.8682 502.637 69.2549 502.637ZM71.8516 503.207L71.3232 503.197L69.2656 503.157L68.7197 503.146L68.7158 503.691L68.6816 507.991L68.6777 508.524L69.2109 508.534L71.2686 508.574H71.2783C71.4407 508.574 71.6026 508.506 71.7148 508.373C71.8201 508.249 71.8515 508.106 71.8516 507.996V503.207Z" fill="#00AB9E" stroke="#81319B" stroke-width="1.0781"/>
<path d="M92.8994 502.637H94.916C95.3027 502.637 95.7646 503.044 95.7646 503.736V507.996C95.7645 508.689 95.3027 509.095 94.916 509.095H92.8994C92.5128 509.095 92.051 508.689 92.0508 507.996V503.736C92.0508 503.044 92.5127 502.637 92.8994 502.637ZM95.4961 503.207L94.9678 503.197L92.9102 503.157L92.3643 503.146L92.3604 503.691L92.3262 507.991L92.3223 508.524L92.8555 508.534L94.9131 508.574H94.9229C95.0853 508.574 95.2471 508.506 95.3594 508.373C95.4647 508.249 95.496 508.106 95.4961 507.996V503.207Z" fill="#00AB9E" stroke="#81319B" stroke-width="1.0781"/>
<path d="M79.9053 515.539H85.0918C85.2258 515.539 85.3327 515.638 85.3477 515.759V515.76L85.3486 515.767L85.6846 518.292L85.7246 518.591L86 518.713C86.0479 518.734 86.0976 518.754 86.126 518.766C86.1598 518.779 86.1754 518.786 86.1855 518.791L86.4873 518.941L86.7549 518.736L88.7715 517.188L88.7725 517.189C88.8692 517.117 88.993 517.117 89.085 517.181L89.1221 517.211L92.791 520.88C92.8717 520.961 92.8897 521.08 92.8369 521.181L92.8096 521.224L92.8086 521.225L91.2578 523.238L91.0625 523.493L91.1924 523.786C91.2263 523.862 91.2474 523.91 91.2617 523.953L91.3691 524.274L91.7041 524.317L94.2295 524.646H94.2344C94.3556 524.66 94.4551 524.768 94.4551 524.902V530.089C94.455 530.206 94.3786 530.303 94.2783 530.335L94.2344 530.345L94.2295 530.346L91.7119 530.673L91.4111 530.712L91.2891 530.988C91.2671 531.038 91.2486 531.086 91.2354 531.12C91.2208 531.158 91.2111 531.182 91.2012 531.204L91.0703 531.497L91.2656 531.751L92.8125 533.768V533.769C92.8852 533.865 92.8851 533.99 92.8213 534.082L92.791 534.119L89.1221 537.787L89.1172 537.793C89.0463 537.866 88.9225 537.889 88.8164 537.837L88.7725 537.81L86.7549 536.263L86.501 536.067L86.208 536.197C86.1316 536.231 86.0838 536.252 86.041 536.267L85.7197 536.373L85.6768 536.708L85.3496 539.219C85.3311 539.348 85.2116 539.451 85.084 539.451H79.8975C79.78 539.451 79.6834 539.376 79.6514 539.275L79.6416 539.231L79.6406 539.226L79.3135 536.7L79.2744 536.4L78.998 536.277L78.8662 536.224C78.8286 536.209 78.8046 536.199 78.7822 536.189L78.4883 536.059L78.2344 536.255L76.2207 537.806L76.2188 537.807C76.1298 537.875 76.0059 537.88 75.9092 537.814L75.8701 537.782L72.207 534.119C72.1186 534.031 72.1055 533.875 72.1855 533.769L72.1846 533.768L73.7324 531.751L73.9268 531.497L73.7969 531.204C73.7629 531.128 73.7418 531.08 73.7275 531.037L73.6211 530.717L73.2861 530.673L70.7686 530.346L70.7637 530.345L70.7188 530.335C70.6188 530.303 70.543 530.206 70.543 530.089V524.902C70.543 524.785 70.6187 524.687 70.7188 524.655L70.7637 524.646H70.7686L73.2939 524.317L73.5938 524.278L73.7168 524.002C73.7362 523.958 73.753 523.918 73.7666 523.885C73.7809 523.85 73.7922 523.822 73.8047 523.794L73.9355 523.502L73.7402 523.247L72.1924 521.229H72.1934C72.1211 521.133 72.1204 521.009 72.1836 520.917L72.2148 520.88L75.8838 517.211C75.9769 517.118 76.123 517.107 76.2334 517.189V517.188L78.251 518.736L78.5049 518.932L78.7979 518.801C78.8259 518.788 78.8531 518.777 78.8877 518.763C78.9209 518.749 78.9621 518.732 79.0059 518.713L79.2822 518.591L79.3213 518.29L79.6484 515.771C79.6678 515.632 79.7799 515.539 79.9053 515.539ZM93.9189 525.133L93.4502 525.071L91.1484 524.768C91.0704 524.757 91.0048 524.715 90.9648 524.657L90.9336 524.596L90.9326 524.592L90.8438 524.346C90.7809 524.18 90.711 524.011 90.6309 523.839L90.5029 523.577C90.4734 523.515 90.4697 523.438 90.4971 523.367L90.5361 523.297L91.9453 521.458L92.2324 521.083L91.8984 520.749L89.2217 518.071L88.8877 517.737L88.5127 518.024L86.666 519.439C86.5885 519.499 86.4843 519.51 86.3926 519.467H86.3916C86.0715 519.315 85.7453 519.182 85.3828 519.05H85.3838C85.3065 519.021 85.2501 518.965 85.2217 518.901L85.2031 518.836L84.8994 516.536L84.8379 516.067H80.1104L80.0498 516.538L79.7549 518.846C79.7446 518.924 79.7028 518.989 79.6455 519.029L79.583 519.06L79.5791 519.062C79.318 519.151 79.0668 519.249 78.8154 519.36L78.5635 519.476C78.4951 519.507 78.4203 519.509 78.3545 519.482L78.292 519.447H78.291L76.4453 518.032L76.0703 517.745L75.7363 518.079L73.0596 520.757L72.7256 521.091L73.0127 521.466L74.4268 523.312C74.4713 523.37 74.4896 523.443 74.4775 523.515L74.4551 523.586L74.4541 523.587C74.2822 523.955 74.1438 524.282 74.0381 524.607C74.0047 524.703 73.9215 524.765 73.8398 524.773L73.832 524.774L73.8252 524.775L71.5234 525.079L71.0557 525.141V529.866L71.5234 529.928L73.8252 530.231C73.9013 530.241 73.9664 530.282 74.0068 530.342L74.0381 530.407L74.041 530.415C74.0966 530.578 74.158 530.742 74.2266 530.909L74.4541 531.427L74.4551 531.429C74.4875 531.498 74.4894 531.574 74.4629 531.641L74.4268 531.703L73.0127 533.549L72.7256 533.924L73.0596 534.258L75.7363 536.936L76.0713 537.271L76.4463 536.981L78.293 535.559L78.3008 535.553C78.3537 535.51 78.4222 535.492 78.4932 535.506L78.5645 535.531L78.5693 535.534C78.8133 535.656 79.0586 535.764 79.3184 535.861L79.583 535.955C79.6549 535.979 79.7134 536.033 79.7432 536.1L79.7627 536.169L80.0664 538.463L80.1289 538.932H84.8535L84.915 538.463L85.2188 536.161C85.229 536.083 85.2716 536.018 85.3291 535.978L85.3906 535.946L85.3945 535.945C85.6363 535.863 85.8874 535.766 86.1475 535.651L86.4111 535.53C86.4794 535.499 86.5545 535.497 86.6201 535.523L86.6826 535.56L88.5283 536.974L88.9033 537.262L92.249 533.916L91.9609 533.541L90.5469 531.695V531.694C90.5023 531.636 90.4848 531.563 90.4971 531.491L90.5186 531.421C90.6923 531.064 90.829 530.733 90.9336 530.403C90.9576 530.331 91.013 530.273 91.0791 530.243L91.1484 530.224L93.4502 529.92L93.9189 529.858V525.133Z" fill="#00AB9E" stroke="#81319B" stroke-width="1.0781"/>
<path d="M82.4912 521.289C85.9175 521.289 88.705 524.077 88.7051 527.503C88.7051 530.929 85.9176 533.717 82.4912 533.717C79.0648 533.717 76.2773 530.929 76.2773 527.503C76.2775 524.077 79.0649 521.289 82.4912 521.289ZM82.4912 521.81C79.3485 521.81 76.798 524.36 76.7979 527.503C76.7979 530.646 79.3485 533.197 82.4912 533.197C85.634 533.197 88.1846 530.646 88.1846 527.503C88.1845 524.36 85.6339 521.81 82.4912 521.81Z" fill="#00AB9E" stroke="#81319B" stroke-width="1.0781"/>
<rect x="81.7227" y="436.469" width="57.1392" height="2.1562" rx="1.0781" transform="rotate(90 81.7227 436.469)" fill="#00A99D"/>
<rect x="81.7227" y="436.469" width="57.1392" height="2.1562" rx="1.0781" transform="rotate(90 81.7227 436.469)" stroke="#00AB9E"/>
<path d="M115.737 272.22C132.476 280.033 146.049 293.321 154.216 309.89C162.384 326.459 164.656 345.318 160.658 363.352C156.66 381.387 146.631 397.518 132.227 409.084C117.823 420.649 99.9058 426.956 81.4334 426.963C62.9611 426.971 45.0386 420.678 30.6255 409.124C16.2124 397.57 6.17063 381.446 2.15843 363.415C-1.85379 345.384 0.40347 326.523 8.55746 309.948C16.7115 293.373 30.2746 280.074 47.0071 272.248L48.2109 274.821C32.0639 282.373 18.9755 295.207 11.1069 311.202C3.23828 327.197 1.06002 345.398 4.93182 362.798C8.80361 380.198 18.4939 395.758 32.4026 406.907C46.3112 418.056 63.6064 424.129 81.4323 424.122C99.2581 424.115 116.549 418.029 130.448 406.868C144.348 395.708 154.026 380.141 157.884 362.737C161.742 345.334 159.549 327.135 151.668 311.146C143.787 295.157 130.688 282.334 114.535 274.795L115.737 272.22Z" fill="url(#paint1_linear_6598_17507)"/>
<path d="M87.2319 298.447H66.1146C64.8497 298.447 63.8203 297.232 63.8203 295.738V295.213C63.8203 295.022 63.9512 294.867 64.113 294.867C64.2747 294.867 64.4056 295.022 64.4056 295.213V295.738C64.4056 296.851 65.1721 297.756 66.1146 297.756H87.2319C87.3937 297.756 87.5246 297.911 87.5246 298.102C87.5246 298.293 87.3937 298.447 87.2319 298.447Z" fill="#00AB9E" stroke="#81319B" stroke-width="0.754669"/>
<path d="M95.0192 286.202C94.8575 286.202 94.7266 286.051 94.7266 285.86V285.853C94.7266 285.662 94.8575 285.508 95.0192 285.508C95.181 285.508 95.3119 285.662 95.3119 285.853C95.3119 286.044 95.181 286.202 95.0192 286.202Z" fill="#00AB9E" stroke="#81319B" stroke-width="0.754669"/>
<path d="M88.0376 257.793H80.3122C80.1504 257.793 80.0195 257.638 80.0195 257.447C80.0195 257.256 80.1504 257.102 80.3122 257.102H88.0376C88.1993 257.102 88.3302 257.256 88.3302 257.447C88.3302 257.638 88.1993 257.793 88.0376 257.793Z" fill="#00AB9E" stroke="#81319B" stroke-width="0.754669"/>
<path d="M78.1123 257.793H70.3864C70.2246 257.793 70.0938 257.638 70.0938 257.447C70.0938 257.256 70.2246 257.102 70.3864 257.102H78.1123C78.2741 257.102 78.405 257.256 78.405 257.447C78.405 257.638 78.2741 257.793 78.1123 257.793Z" fill="#00AB9E" stroke="#81319B" stroke-width="0.754669"/>
<path d="M86.1964 295.966H65.4946C64.9659 295.966 64.4401 295.808 63.9737 295.509C62.958 294.846 62.3281 293.586 62.3281 292.221V260.847C62.3281 258.782 63.7485 257.102 65.4946 257.102H68.2045C68.3662 257.102 68.4971 257.256 68.4971 257.447C68.4971 257.638 68.3662 257.793 68.2045 257.793H65.4946C64.0714 257.793 62.9134 259.163 62.9134 260.847V292.221C62.9134 293.335 63.4273 294.363 64.2549 294.903C64.6338 295.146 65.0631 295.275 65.4946 295.275H86.1964C86.3582 295.275 86.4891 295.429 86.4891 295.62C86.4891 295.811 86.3582 295.966 86.1964 295.966Z" fill="#00AB9E" stroke="#81319B" stroke-width="0.754669"/>
<path d="M96.5153 286.202C96.3535 286.202 96.2227 286.051 96.2227 285.86V285.853C96.2227 285.662 96.3535 285.508 96.5153 285.508C96.6771 285.508 96.8079 285.662 96.8079 285.853C96.8079 286.044 96.6771 286.202 96.5153 286.202Z" fill="#00AB9E" stroke="#81319B" stroke-width="0.754669"/>
<path d="M96.5106 273.838C96.3488 273.838 96.2179 273.684 96.2179 273.493V260.847C96.2179 259.163 95.0577 257.793 93.631 257.793H90.2301C90.0684 257.793 89.9375 257.638 89.9375 257.447C89.9375 257.256 90.0684 257.102 90.2301 257.102H93.631C95.38 257.102 96.8032 258.782 96.8032 260.847V273.493C96.8032 273.684 96.6723 273.838 96.5106 273.838Z" fill="#00AB9E" stroke="#81319B" stroke-width="0.754669"/>
<path d="M96.5208 267.039H62.6208C62.459 267.039 62.3281 266.884 62.3281 266.693V260.923C62.3281 258.816 63.7799 257.102 65.5649 257.102H68.2045C68.3662 257.102 68.4971 257.256 68.4971 257.447C68.4971 257.638 68.3662 257.793 68.2045 257.793H65.5649C64.1029 257.793 62.9134 259.197 62.9134 260.923V266.348H96.2281V260.923C96.2281 259.197 95.0387 257.793 93.5766 257.793H90.2403C90.0786 257.793 89.9477 257.638 89.9477 257.447C89.9477 257.256 90.0786 257.102 90.2403 257.102H93.5766C95.3616 257.102 96.8134 258.816 96.8134 260.923V266.693C96.8134 266.884 96.6825 267.039 96.5208 267.039Z" fill="#00AB9E" stroke="#81319B" stroke-width="0.754669"/>
<path d="M78.1123 257.793H70.3864C70.2246 257.793 70.0938 257.638 70.0938 257.447C70.0938 257.256 70.2246 257.102 70.3864 257.102H78.1123C78.2741 257.102 78.405 257.256 78.405 257.447C78.405 257.638 78.2741 257.793 78.1123 257.793Z" fill="#00AB9E" stroke="#81319B" stroke-width="0.754669"/>
<path d="M88.0376 257.793H80.3122C80.1504 257.793 80.0195 257.638 80.0195 257.447C80.0195 257.256 80.1504 257.102 80.3122 257.102H88.0376C88.1993 257.102 88.3302 257.256 88.3302 257.447C88.3302 257.638 88.1993 257.793 88.0376 257.793Z" fill="#00AB9E" stroke="#81319B" stroke-width="0.754669"/>
<path d="M69.3003 265.05C67.9091 265.05 66.7773 263.714 66.7773 262.071C66.7773 260.998 67.2678 260.008 68.0577 259.489C68.1983 259.397 68.3772 259.456 68.4555 259.623C68.5344 259.79 68.4835 260 68.3423 260.093C67.7382 260.49 67.3626 261.248 67.3626 262.071C67.3626 263.333 68.232 264.359 69.3003 264.359C70.3651 264.359 71.2316 263.333 71.2316 262.071C71.2316 261.249 70.8567 260.49 70.2525 260.093C70.1113 260 70.0605 259.79 70.1393 259.623C70.2171 259.456 70.3965 259.396 70.5372 259.489C71.3265 260.008 71.8169 260.998 71.8169 262.071C71.8169 263.714 70.688 265.05 69.3003 265.05Z" fill="#00AB9E" stroke="#81319B" stroke-width="0.754669"/>
<path d="M69.3241 262.787H69.2841C68.5285 262.787 67.9141 262.061 67.9141 261.168V256.313C67.9141 255.421 68.5285 254.695 69.2841 254.695C70.0798 254.695 70.6948 255.421 70.6948 256.313V261.168C70.6948 262.061 70.0798 262.787 69.3241 262.787ZM69.3241 255.386C68.8514 255.386 68.4994 255.802 68.4994 256.313V261.168C68.4994 261.68 68.8514 262.096 69.2841 262.096H69.3241C69.7574 262.096 70.1095 261.68 70.1095 261.168V256.313C70.1095 255.802 69.7574 255.386 69.3241 255.386Z" fill="#00AB9E" stroke="#81319B" stroke-width="0.754669"/>
<path d="M79.226 265.05C77.8348 265.05 76.7031 263.714 76.7031 262.071C76.7031 261.006 77.193 260.016 77.9817 259.49C78.1218 259.397 78.3007 259.454 78.3807 259.621C78.4601 259.787 78.4104 259.998 78.2698 260.092C77.6645 260.496 77.2884 261.254 77.2884 262.071C77.2884 263.333 78.1578 264.359 79.226 264.359C80.2909 264.359 81.1574 263.333 81.1574 262.071C81.1574 261.249 80.7824 260.49 80.1783 260.093C80.0371 260 79.9862 259.79 80.0651 259.623C80.1434 259.456 80.3223 259.396 80.4629 259.489C81.2523 260.008 81.7427 260.998 81.7427 262.071C81.7427 263.714 80.6138 265.05 79.226 265.05Z" fill="#00AB9E" stroke="#81319B" stroke-width="0.754669"/>
<path d="M89.1338 265.05C87.746 265.05 86.6172 263.714 86.6172 262.071C86.6172 260.998 87.1076 260.008 87.8969 259.489C88.0375 259.397 88.2164 259.456 88.2948 259.623C88.3736 259.79 88.3228 260 88.1816 260.093C87.5774 260.49 87.2025 261.249 87.2025 262.071C87.2025 263.333 88.069 264.359 89.1338 264.359C90.2021 264.359 91.0715 263.333 91.0715 262.071C91.0715 261.254 90.6954 260.496 90.0901 260.092C89.9495 259.998 89.8997 259.787 89.9792 259.621C90.0592 259.454 90.2375 259.397 90.3781 259.49C91.1669 260.016 91.6567 261.006 91.6567 262.071C91.6567 263.714 90.525 265.05 89.1338 265.05Z" fill="#00AB9E" stroke="#81319B" stroke-width="0.754669"/>
<path d="M79.2153 262.788C78.4506 262.788 77.8281 262.054 77.8281 261.151V256.34C77.8281 255.437 78.4506 254.703 79.2153 254.703C79.5909 254.703 79.9412 254.873 80.2024 255.182C80.4636 255.49 80.6077 255.902 80.6077 256.34V261.151C80.6077 262.054 79.983 262.788 79.2153 262.788ZM79.2153 255.394C78.7729 255.394 78.4134 255.819 78.4134 256.34V261.151C78.4134 261.673 78.7729 262.097 79.2153 262.097C79.6606 262.097 80.0224 261.673 80.0224 261.151V256.34C80.0224 256.086 79.9395 255.848 79.7886 255.67C79.6377 255.492 79.4342 255.394 79.2153 255.394Z" fill="#00AB9E" stroke="#81319B" stroke-width="0.754669"/>
<path d="M89.1405 262.788C88.3758 262.788 87.7539 262.054 87.7539 261.151V256.34C87.7539 255.437 88.3758 254.703 89.1405 254.703C89.5109 254.703 89.871 254.878 90.1282 255.182C90.39 255.499 90.5329 255.91 90.5329 256.34V261.151C90.5329 262.054 89.9082 262.788 89.1405 262.788ZM89.1405 255.394C88.6987 255.394 88.3392 255.819 88.3392 256.34V261.151C88.3392 261.673 88.6987 262.097 89.1405 262.097C89.5858 262.097 89.9476 261.673 89.9476 261.151V256.34C89.9476 256.091 89.8636 255.852 89.711 255.667C89.5658 255.495 89.3566 255.394 89.1405 255.394Z" fill="#00AB9E" stroke="#81319B" stroke-width="0.754669"/>
<path d="M76.4606 293.287C76.2989 293.287 76.168 293.133 76.168 292.942V269.4C76.168 269.209 76.2989 269.055 76.4606 269.055C76.6224 269.055 76.7533 269.209 76.7533 269.4V292.942C76.7533 293.133 76.6224 293.287 76.4606 293.287Z" fill="#00AB9E" stroke="#81319B" stroke-width="0.754669"/>
<path d="M70.2575 293.287C70.0957 293.287 69.9648 293.133 69.9648 292.942V269.4C69.9648 269.209 70.0957 269.055 70.2575 269.055C70.4192 269.055 70.5501 269.209 70.5501 269.4V292.942C70.5501 293.133 70.4192 293.287 70.2575 293.287Z" fill="#00AB9E" stroke="#81319B" stroke-width="0.754669"/>
<path d="M82.6637 293.287C82.502 293.287 82.3711 293.133 82.3711 292.942V269.4C82.3711 269.209 82.502 269.055 82.6637 269.055C82.8255 269.055 82.9564 269.209 82.9564 269.4V292.942C82.9564 293.133 82.8255 293.287 82.6637 293.287Z" fill="#00AB9E" stroke="#81319B" stroke-width="0.754669"/>
<path d="M88.8669 274.21C88.7051 274.21 88.5742 274.055 88.5742 273.864V269.4C88.5742 269.209 88.7051 269.055 88.8669 269.055C89.0286 269.055 89.1595 269.209 89.1595 269.4V273.864C89.1595 274.055 89.0286 274.21 88.8669 274.21Z" fill="#00AB9E" stroke="#81319B" stroke-width="0.754669"/>
<path d="M88.2532 277.644H64.8942C64.7325 277.644 64.6016 277.49 64.6016 277.299C64.6016 277.108 64.7325 276.953 64.8942 276.953H88.2532C88.415 276.953 88.5459 277.108 88.5459 277.299C88.5459 277.49 88.415 277.644 88.2532 277.644Z" fill="#00AB9E" stroke="#81319B" stroke-width="0.754669"/>
<path d="M88.4933 285.371H64.8942C64.7325 285.371 64.6016 285.216 64.6016 285.025C64.6016 284.834 64.7325 284.68 64.8942 284.68H88.4933C88.6551 284.68 88.786 284.834 88.786 285.025C88.786 285.216 88.6551 285.371 88.4933 285.371Z" fill="#00AB9E" stroke="#81319B" stroke-width="0.754669"/>
<path d="M66.4861 274.548C66.4113 274.548 66.3364 274.514 66.2792 274.447L65.531 273.563C65.4167 273.428 65.4167 273.21 65.531 273.075C65.6454 272.94 65.8306 272.94 65.9449 273.075L66.4861 273.714L68.2026 271.687C68.3169 271.552 68.5021 271.552 68.6164 271.687C68.7307 271.822 68.7307 272.041 68.6164 272.176L66.6931 274.447C66.6359 274.514 66.561 274.548 66.4861 274.548Z" fill="#00AB9E" stroke="#81319B" stroke-width="0.754669"/>
<path d="M72.5129 282.876C72.4352 282.876 72.3609 282.84 72.306 282.775L71.5584 281.891C71.4441 281.756 71.4441 281.538 71.5584 281.403C71.6727 281.268 71.8579 281.268 71.9722 281.403L72.5129 282.042L74.2294 280.015C74.3437 279.88 74.5289 279.88 74.6432 280.015C74.7575 280.15 74.7575 280.369 74.6432 280.504L72.7198 282.775C72.665 282.84 72.5907 282.876 72.5129 282.876Z" fill="#00AB9E" stroke="#81319B" stroke-width="0.754669"/>
<path d="M78.9739 274.985C78.899 274.985 78.8241 274.952 78.7669 274.884L78.0193 274.001C77.905 273.866 77.905 273.648 78.0193 273.513C78.1336 273.378 78.3188 273.378 78.4331 273.513L78.9739 274.151L80.6903 272.125C80.8046 271.99 80.9898 271.99 81.1041 272.125C81.2184 272.26 81.2184 272.478 81.1041 272.613L79.1808 274.884C79.1236 274.952 79.0487 274.985 78.9739 274.985Z" fill="#00AB9E" stroke="#81319B" stroke-width="0.754669"/>
<path d="M96.756 298.592H87.7395C86.7375 298.592 85.9219 297.629 85.9219 296.446V287.692C85.9219 286.509 86.7375 285.547 87.7395 285.547H96.756C97.758 285.547 98.5736 286.509 98.5736 287.692V296.446C98.5736 297.629 97.758 298.592 96.756 298.592ZM87.7395 286.238C87.0599 286.238 86.5072 286.89 86.5072 287.692V296.446C86.5072 297.248 87.0599 297.901 87.7395 297.901H96.756C97.4356 297.901 97.9883 297.248 97.9883 296.446V287.692C97.9883 286.89 97.4356 286.238 96.756 286.238H87.7395Z" fill="#00AB9E" stroke="#81319B" stroke-width="0.754669"/>
<path d="M90.7014 290.583C90.6266 290.583 90.5511 290.563 90.4814 290.522C90.3122 290.423 90.207 290.222 90.207 290V285.892C90.207 285.701 90.3379 285.547 90.4997 285.547H93.9011C94.0629 285.547 94.1938 285.701 94.1938 285.892V290C94.1938 290.222 94.0886 290.422 93.92 290.521C93.7508 290.62 93.5519 290.599 93.4016 290.465L92.1995 289.393L90.9975 290.465C90.9106 290.543 90.8066 290.583 90.7014 290.583ZM92.2001 288.677C92.3047 288.677 92.4093 288.715 92.4962 288.792L93.6085 289.784V286.238H90.7923V289.782L91.9023 288.793C91.9903 288.715 92.0955 288.677 92.2001 288.677Z" fill="#00AB9E" stroke="#81319B" stroke-width="0.754669"/>
<path d="M98.78 286.217H89.7629C88.7609 286.217 87.9453 285.254 87.9453 284.071V275.317C87.9453 274.134 88.7609 273.172 89.7629 273.172H98.78C99.782 273.172 100.598 274.134 100.598 275.317V284.071C100.598 285.254 99.782 286.217 98.78 286.217ZM89.7629 273.863C89.0833 273.863 88.5306 274.515 88.5306 275.317V284.071C88.5306 284.873 89.0833 285.526 89.7629 285.526H98.78C99.4596 285.526 100.012 284.873 100.012 284.071V275.317C100.012 274.515 99.4596 273.863 98.78 273.863H89.7629Z" fill="#00AB9E" stroke="#81319B" stroke-width="0.754669"/>
<path d="M92.7255 278.208C92.6506 278.208 92.5751 278.188 92.5048 278.147C92.3356 278.047 92.2305 277.847 92.2305 277.625V273.517C92.2305 273.326 92.3614 273.172 92.5231 273.172H95.9251C96.0869 273.172 96.2178 273.326 96.2178 273.517V277.625C96.2178 277.847 96.1126 278.047 95.9434 278.146C95.7731 278.247 95.5753 278.224 95.425 278.089L94.2235 277.019L93.0215 278.09C92.9346 278.168 92.8306 278.208 92.7255 278.208ZM94.2235 276.302C94.3281 276.302 94.4322 276.34 94.5196 276.417L95.6325 277.409V273.863H92.8158V277.408L93.9263 276.418C94.0138 276.34 94.1184 276.302 94.2235 276.302Z" fill="#00AB9E" stroke="#81319B" stroke-width="0.754669"/>
<rect x="81.7227" y="190.668" width="57.1392" height="2.1562" rx="1.0781" transform="rotate(90 81.7227 190.668)" fill="#00A99D"/>
<rect x="81.7227" y="190.668" width="57.1392" height="2.1562" rx="1.0781" transform="rotate(90 81.7227 190.668)" stroke="#00AB9E"/>
<path d="M115.518 26.6773C132.257 34.4903 145.831 47.7783 153.998 64.3471C162.165 80.9159 164.437 99.7746 160.439 117.809C156.441 135.844 146.412 151.975 132.008 163.541C117.604 175.106 99.687 181.413 81.2147 181.42C62.7423 181.428 44.8198 175.135 30.4067 163.581C15.9936 152.027 5.95188 135.903 1.93968 117.872C-2.07254 99.8406 0.18472 80.9801 8.33871 64.4048C16.4927 47.8296 30.0558 34.5308 46.7884 26.7046L47.9921 29.2782C31.8452 36.8305 18.7568 49.6638 10.8882 65.659C3.01953 81.6542 0.841275 99.8546 4.71307 117.255C8.58486 134.655 18.2752 150.215 32.1838 161.364C46.0925 172.514 63.3877 178.586 81.2135 178.579C99.0394 178.572 116.33 172.486 130.23 161.325C144.129 150.165 153.807 134.598 157.665 117.194C161.523 99.7908 159.331 81.5922 151.449 65.6032C143.568 49.6143 130.469 36.7914 114.316 29.2519L115.518 26.6773Z" fill="url(#paint2_linear_6598_17507)"/>
<mask id="path-45-inside-1_6598_17507" fill="white">
<path d="M98.1773 15.6444V9.2921C98.1773 5.82355 95.7054 3.00172 92.667 3.00172H91.2418V1.41867C91.2418 0.635186 90.6854 0 89.999 0C89.3127 0 88.7563 0.635186 88.7563 1.41867V3.00181H81.1056V1.41867C81.1056 0.635186 80.5492 0 79.8628 0C79.1765 0 78.6201 0.635186 78.6201 1.41867V3.00181H70.9694V1.41867C70.9694 0.635186 70.413 0 69.7266 0C69.0403 0 68.4839 0.635186 68.4839 1.41867V3.00181H67.0455C64.0071 3.00181 61.5352 5.82364 61.5352 9.2922V40.8066C61.5352 44.2752 64.007 47.097 67.0455 47.097H92.6669C95.7054 47.097 98.1772 44.2752 98.1772 40.8066V16.0365C98.185 15.9722 98.1905 15.9072 98.1905 15.8405C98.1905 15.7738 98.1851 15.7088 98.1773 15.6444ZM95.6919 40.8066C95.6919 42.7106 94.3349 44.2597 92.667 44.2597H67.0455C65.3776 44.2597 64.0206 42.7107 64.0206 40.8066V17.2592H95.6918V40.8066H95.6919ZM95.6919 14.4218H64.0206V9.2922C64.0206 7.38825 65.3775 5.83915 67.0455 5.83915H68.4839V7.4222C68.4839 8.20569 69.0403 8.84087 69.7266 8.84087C70.413 8.84087 70.9694 8.20569 70.9694 7.4222V5.83915H78.6201V7.4222C78.6201 8.20569 79.1765 8.84087 79.8628 8.84087C80.5492 8.84087 81.1056 8.20569 81.1056 7.4222V5.83915H88.7563V7.4222C88.7563 8.20569 89.3127 8.84087 89.999 8.84087C90.6854 8.84087 91.2418 8.20569 91.2418 7.4222V5.83915H92.667C94.3349 5.83915 95.6919 7.38815 95.6919 9.2922V14.4218ZM67.029 21.9702C67.029 21.1867 67.5854 20.5515 68.2717 20.5515H70.9584C71.6447 20.5515 72.2011 21.1867 72.2011 21.9702C72.2011 22.7537 71.6447 23.3889 70.9584 23.3889H68.2717C67.5854 23.3889 67.029 22.7537 67.029 21.9702ZM73.8608 21.9702C73.8608 21.1867 74.4172 20.5515 75.1036 20.5515H77.7902C78.4765 20.5515 79.0329 21.1867 79.0329 21.9702C79.0329 22.7537 78.4765 23.3889 77.7902 23.3889H75.1036C74.4172 23.3889 73.8608 22.7537 73.8608 21.9702ZM80.6927 21.9702C80.6927 21.1867 81.2491 20.5515 81.9355 20.5515H84.6221C85.3084 20.5515 85.8648 21.1867 85.8648 21.9702C85.8648 22.7537 85.3084 23.3889 84.6221 23.3889H81.9355C81.2491 23.3889 80.6927 22.7537 80.6927 21.9702ZM87.5246 21.9702C87.5246 21.1867 88.081 20.5515 88.7673 20.5515H91.4539C92.1403 20.5515 92.6967 21.1867 92.6967 21.9702C92.6967 22.7537 92.1403 23.3889 91.4539 23.3889H88.7673C88.081 23.3889 87.5246 22.7537 87.5246 21.9702ZM67.029 27.7309C67.029 26.9474 67.5854 26.3122 68.2717 26.3122H70.9584C71.6447 26.3122 72.2011 26.9474 72.2011 27.7309C72.2011 28.5143 71.6447 29.1495 70.9584 29.1495H68.2717C67.5854 29.1495 67.029 28.5143 67.029 27.7309ZM73.8608 27.7309C73.8608 26.9474 74.4172 26.3122 75.1036 26.3122H77.7902C78.4765 26.3122 79.0329 26.9474 79.0329 27.7309C79.0329 28.5143 78.4765 29.1495 77.7902 29.1495H75.1036C74.4172 29.1495 73.8608 28.5143 73.8608 27.7309ZM80.6927 27.7309C80.6927 26.9474 81.2491 26.3122 81.9355 26.3122H84.6221C85.3084 26.3122 85.8648 26.9474 85.8648 27.7309C85.8648 28.5143 85.3084 29.1495 84.6221 29.1495H81.9355C81.2491 29.1495 80.6927 28.5143 80.6927 27.7309ZM87.5246 27.7309C87.5246 26.9474 88.081 26.3122 88.7673 26.3122H91.4539C92.1403 26.3122 92.6967 26.9474 92.6967 27.7309C92.6967 28.5143 92.1403 29.1495 91.4539 29.1495H88.7673C88.081 29.1495 87.5246 28.5143 87.5246 27.7309ZM67.029 33.4915C67.029 32.708 67.5854 32.0728 68.2717 32.0728H70.9584C71.6447 32.0728 72.2011 32.708 72.2011 33.4915C72.2011 34.275 71.6447 34.9102 70.9584 34.9102H68.2717C67.5854 34.9102 67.029 34.275 67.029 33.4915ZM73.8608 33.4915C73.8608 32.708 74.4172 32.0728 75.1036 32.0728H77.7902C78.4765 32.0728 79.0329 32.708 79.0329 33.4915C79.0329 34.275 78.4765 34.9102 77.7902 34.9102H75.1036C74.4172 34.9102 73.8608 34.275 73.8608 33.4915ZM80.6927 33.4915C80.6927 32.708 81.2491 32.0728 81.9355 32.0728H84.6221C85.3084 32.0728 85.8648 32.708 85.8648 33.4915C85.8648 34.275 85.3084 34.9102 84.6221 34.9102H81.9355C81.2491 34.9102 80.6927 34.275 80.6927 33.4915ZM87.5246 33.4915C87.5246 32.708 88.081 32.0728 88.7673 32.0728H91.4539C92.1403 32.0728 92.6967 32.708 92.6967 33.4915C92.6967 34.275 92.1403 34.9102 91.4539 34.9102H88.7673C88.081 34.9102 87.5246 34.275 87.5246 33.4915ZM67.029 39.2522C67.029 38.4687 67.5854 37.8335 68.2717 37.8335H70.9584C71.6447 37.8335 72.2011 38.4687 72.2011 39.2522C72.2011 40.0356 71.6447 40.6708 70.9584 40.6708H68.2717C67.5854 40.6708 67.029 40.0356 67.029 39.2522ZM73.8608 39.2522C73.8608 38.4687 74.4172 37.8335 75.1036 37.8335H77.7902C78.4765 37.8335 79.0329 38.4687 79.0329 39.2522C79.0329 40.0356 78.4765 40.6708 77.7902 40.6708H75.1036C74.4172 40.6708 73.8608 40.0356 73.8608 39.2522ZM80.6927 39.2522C80.6927 38.4687 81.2491 37.8335 81.9355 37.8335H84.6221C85.3084 37.8335 85.8648 38.4687 85.8648 39.2522C85.8648 40.0356 85.3084 40.6708 84.6221 40.6708H81.9355C81.2491 40.6708 80.6927 40.0356 80.6927 39.2522ZM87.5246 39.2522C87.5246 38.4687 88.081 37.8335 88.7673 37.8335H91.4539C92.1403 37.8335 92.6967 38.4687 92.6967 39.2522C92.6967 40.0356 92.1403 40.6708 91.4539 40.6708H88.7673C88.081 40.6708 87.5246 40.0356 87.5246 39.2522Z"/>
</mask>
<path d="M98.1773 15.6444V9.2921C98.1773 5.82355 95.7054 3.00172 92.667 3.00172H91.2418V1.41867C91.2418 0.635186 90.6854 0 89.999 0C89.3127 0 88.7563 0.635186 88.7563 1.41867V3.00181H81.1056V1.41867C81.1056 0.635186 80.5492 0 79.8628 0C79.1765 0 78.6201 0.635186 78.6201 1.41867V3.00181H70.9694V1.41867C70.9694 0.635186 70.413 0 69.7266 0C69.0403 0 68.4839 0.635186 68.4839 1.41867V3.00181H67.0455C64.0071 3.00181 61.5352 5.82364 61.5352 9.2922V40.8066C61.5352 44.2752 64.007 47.097 67.0455 47.097H92.6669C95.7054 47.097 98.1772 44.2752 98.1772 40.8066V16.0365C98.185 15.9722 98.1905 15.9072 98.1905 15.8405C98.1905 15.7738 98.1851 15.7088 98.1773 15.6444ZM95.6919 40.8066C95.6919 42.7106 94.3349 44.2597 92.667 44.2597H67.0455C65.3776 44.2597 64.0206 42.7107 64.0206 40.8066V17.2592H95.6918V40.8066H95.6919ZM95.6919 14.4218H64.0206V9.2922C64.0206 7.38825 65.3775 5.83915 67.0455 5.83915H68.4839V7.4222C68.4839 8.20569 69.0403 8.84087 69.7266 8.84087C70.413 8.84087 70.9694 8.20569 70.9694 7.4222V5.83915H78.6201V7.4222C78.6201 8.20569 79.1765 8.84087 79.8628 8.84087C80.5492 8.84087 81.1056 8.20569 81.1056 7.4222V5.83915H88.7563V7.4222C88.7563 8.20569 89.3127 8.84087 89.999 8.84087C90.6854 8.84087 91.2418 8.20569 91.2418 7.4222V5.83915H92.667C94.3349 5.83915 95.6919 7.38815 95.6919 9.2922V14.4218ZM67.029 21.9702C67.029 21.1867 67.5854 20.5515 68.2717 20.5515H70.9584C71.6447 20.5515 72.2011 21.1867 72.2011 21.9702C72.2011 22.7537 71.6447 23.3889 70.9584 23.3889H68.2717C67.5854 23.3889 67.029 22.7537 67.029 21.9702ZM73.8608 21.9702C73.8608 21.1867 74.4172 20.5515 75.1036 20.5515H77.7902C78.4765 20.5515 79.0329 21.1867 79.0329 21.9702C79.0329 22.7537 78.4765 23.3889 77.7902 23.3889H75.1036C74.4172 23.3889 73.8608 22.7537 73.8608 21.9702ZM80.6927 21.9702C80.6927 21.1867 81.2491 20.5515 81.9355 20.5515H84.6221C85.3084 20.5515 85.8648 21.1867 85.8648 21.9702C85.8648 22.7537 85.3084 23.3889 84.6221 23.3889H81.9355C81.2491 23.3889 80.6927 22.7537 80.6927 21.9702ZM87.5246 21.9702C87.5246 21.1867 88.081 20.5515 88.7673 20.5515H91.4539C92.1403 20.5515 92.6967 21.1867 92.6967 21.9702C92.6967 22.7537 92.1403 23.3889 91.4539 23.3889H88.7673C88.081 23.3889 87.5246 22.7537 87.5246 21.9702ZM67.029 27.7309C67.029 26.9474 67.5854 26.3122 68.2717 26.3122H70.9584C71.6447 26.3122 72.2011 26.9474 72.2011 27.7309C72.2011 28.5143 71.6447 29.1495 70.9584 29.1495H68.2717C67.5854 29.1495 67.029 28.5143 67.029 27.7309ZM73.8608 27.7309C73.8608 26.9474 74.4172 26.3122 75.1036 26.3122H77.7902C78.4765 26.3122 79.0329 26.9474 79.0329 27.7309C79.0329 28.5143 78.4765 29.1495 77.7902 29.1495H75.1036C74.4172 29.1495 73.8608 28.5143 73.8608 27.7309ZM80.6927 27.7309C80.6927 26.9474 81.2491 26.3122 81.9355 26.3122H84.6221C85.3084 26.3122 85.8648 26.9474 85.8648 27.7309C85.8648 28.5143 85.3084 29.1495 84.6221 29.1495H81.9355C81.2491 29.1495 80.6927 28.5143 80.6927 27.7309ZM87.5246 27.7309C87.5246 26.9474 88.081 26.3122 88.7673 26.3122H91.4539C92.1403 26.3122 92.6967 26.9474 92.6967 27.7309C92.6967 28.5143 92.1403 29.1495 91.4539 29.1495H88.7673C88.081 29.1495 87.5246 28.5143 87.5246 27.7309ZM67.029 33.4915C67.029 32.708 67.5854 32.0728 68.2717 32.0728H70.9584C71.6447 32.0728 72.2011 32.708 72.2011 33.4915C72.2011 34.275 71.6447 34.9102 70.9584 34.9102H68.2717C67.5854 34.9102 67.029 34.275 67.029 33.4915ZM73.8608 33.4915C73.8608 32.708 74.4172 32.0728 75.1036 32.0728H77.7902C78.4765 32.0728 79.0329 32.708 79.0329 33.4915C79.0329 34.275 78.4765 34.9102 77.7902 34.9102H75.1036C74.4172 34.9102 73.8608 34.275 73.8608 33.4915ZM80.6927 33.4915C80.6927 32.708 81.2491 32.0728 81.9355 32.0728H84.6221C85.3084 32.0728 85.8648 32.708 85.8648 33.4915C85.8648 34.275 85.3084 34.9102 84.6221 34.9102H81.9355C81.2491 34.9102 80.6927 34.275 80.6927 33.4915ZM87.5246 33.4915C87.5246 32.708 88.081 32.0728 88.7673 32.0728H91.4539C92.1403 32.0728 92.6967 32.708 92.6967 33.4915C92.6967 34.275 92.1403 34.9102 91.4539 34.9102H88.7673C88.081 34.9102 87.5246 34.275 87.5246 33.4915ZM67.029 39.2522C67.029 38.4687 67.5854 37.8335 68.2717 37.8335H70.9584C71.6447 37.8335 72.2011 38.4687 72.2011 39.2522C72.2011 40.0356 71.6447 40.6708 70.9584 40.6708H68.2717C67.5854 40.6708 67.029 40.0356 67.029 39.2522ZM73.8608 39.2522C73.8608 38.4687 74.4172 37.8335 75.1036 37.8335H77.7902C78.4765 37.8335 79.0329 38.4687 79.0329 39.2522C79.0329 40.0356 78.4765 40.6708 77.7902 40.6708H75.1036C74.4172 40.6708 73.8608 40.0356 73.8608 39.2522ZM80.6927 39.2522C80.6927 38.4687 81.2491 37.8335 81.9355 37.8335H84.6221C85.3084 37.8335 85.8648 38.4687 85.8648 39.2522C85.8648 40.0356 85.3084 40.6708 84.6221 40.6708H81.9355C81.2491 40.6708 80.6927 40.0356 80.6927 39.2522ZM87.5246 39.2522C87.5246 38.4687 88.081 37.8335 88.7673 37.8335H91.4539C92.1403 37.8335 92.6967 38.4687 92.6967 39.2522C92.6967 40.0356 92.1403 40.6708 91.4539 40.6708H88.7673C88.081 40.6708 87.5246 40.0356 87.5246 39.2522Z" fill="#00AB9E" stroke="#81319B" stroke-width="2.1562" mask="url(#path-45-inside-1_6598_17507)"/>
<defs>
<linearGradient id="paint0_linear_6598_17507" x1="162.363" y1="600.466" x2="0.00162914" y2="600.466" gradientUnits="userSpaceOnUse">
<stop stop-color="#1280C3"/>
<stop offset="1" stop-color="#00AB9E"/>
</linearGradient>
<linearGradient id="paint1_linear_6598_17507" x1="162.582" y1="345.782" x2="0.220379" y2="345.782" gradientUnits="userSpaceOnUse">
<stop stop-color="#1280C3"/>
<stop offset="1" stop-color="#00AB9E"/>
</linearGradient>
<linearGradient id="paint2_linear_6598_17507" x1="162.363" y1="100.239" x2="0.00162914" y2="100.239" gradientUnits="userSpaceOnUse">
<stop stop-color="#1280C3"/>
<stop offset="1" stop-color="#00AB9E"/>
</linearGradient>
</defs>
</svg>
