<svg width="27" height="28" viewBox="0 0 27 28" fill="none" xmlns="http://www.w3.org/2000/svg">
<path fill-rule="evenodd" clip-rule="evenodd" d="M13.5 27.5C20.9558 27.5 27 21.4558 27 14C27 6.54416 20.9558 0.5 13.5 0.5C6.04416 0.5 0 6.54416 0 14C0 21.4558 6.04416 27.5 13.5 27.5ZM14.5882 18.8431C12.0412 17.5381 9.95322 15.4591 8.65722 12.9121L10.6372 10.9321C10.8892 10.6801 10.9612 10.3291 10.8622 10.0141C10.5292 9.00614 10.3492 7.92614 10.3492 6.80114C10.3492 6.30614 9.94422 5.90114 9.44922 5.90114H6.29922C5.80422 5.90114 5.39922 6.30614 5.39922 6.80114C5.39922 15.2521 12.2482 22.1011 20.6992 22.1011C21.1942 22.1011 21.5992 21.6961 21.5992 21.2011V18.0601C21.5992 17.5651 21.1942 17.1601 20.6992 17.1601C19.5832 17.1601 18.4942 16.9801 17.4862 16.6471C17.1712 16.5391 16.8112 16.6201 16.5682 16.8631L14.5882 18.8431Z" fill="url(#paint0_linear_4011_17825)"/>
<defs>
<linearGradient id="paint0_linear_4011_17825" x1="13.5" y1="0.5" x2="13.5" y2="27.5" gradientUnits="userSpaceOnUse">
<stop stop-color="#1280C3"/>
<stop offset="1" stop-color="#00AB9E"/>
</linearGradient>
</defs>
</svg>
