<svg width="126" height="108" viewBox="0 0 126 108" fill="none" xmlns="http://www.w3.org/2000/svg">
<rect x="0.5" width="125" height="108" rx="30" fill="url(#paint0_linear_4011_17540)"/>
<path d="M80.2482 43.3736C80.2483 43.4981 80.2218 43.6214 80.1703 43.7364C80.1188 43.8515 80.0433 43.956 79.9481 44.0441C79.8529 44.1321 79.7398 44.202 79.6153 44.2496C79.4909 44.2972 79.3575 44.3217 79.2229 44.3216H75.975C75.703 44.3216 75.4422 44.2217 75.2499 44.0439C75.0576 43.8661 74.9496 43.625 74.9496 43.3736C74.9496 43.1221 75.0576 42.881 75.2499 42.7032C75.4422 42.5254 75.703 42.4255 75.975 42.4255H79.2229C79.3575 42.4254 79.4909 42.4499 79.6153 42.4975C79.7398 42.5451 79.8529 42.615 79.9481 42.703C80.0433 42.7911 80.1188 42.8956 80.1703 43.0107C80.2218 43.1257 80.2483 43.249 80.2482 43.3736ZM100.5 36.2614V80.3432C100.499 81.3127 100.082 82.2421 99.3402 82.9277C98.5988 83.6132 97.5935 83.9988 96.5449 84H29.4551C28.4065 83.9988 27.4012 83.6132 26.6598 82.9277C25.9183 82.2421 25.5012 81.3127 25.5 80.3432V36.2614C25.5014 35.1483 25.9803 34.0811 26.8316 33.294C27.6829 32.5069 28.8371 32.0642 30.041 32.0629H33.3369V27.1151C33.338 26.2892 33.6933 25.4975 34.3249 24.9135C34.9565 24.3295 35.8128 24.001 36.7061 24H39.0697C39.9629 24.001 40.8193 24.3295 41.4509 24.9135C42.0825 25.4975 42.4378 26.2892 42.4389 27.1151V32.0629H50.0783V27.1151C50.0794 26.2892 50.4347 25.4975 51.0663 24.9135C51.6979 24.3295 52.5542 24.001 53.4475 24H55.8111C56.7044 24.001 57.5607 24.3295 58.1923 24.9135C58.8239 25.4975 59.1792 26.2892 59.1803 27.1151V32.0629H66.8197V27.1151C66.8208 26.2892 67.1761 25.4975 67.8077 24.9135C68.4393 24.3295 69.2956 24.001 70.1889 24H72.5508C73.444 24.0009 74.3005 24.3293 74.9321 24.9133C75.5637 25.4973 75.919 26.2892 75.9199 27.1151V32.0629H83.5611V27.1151C83.5621 26.2892 83.9173 25.4973 84.549 24.9133C85.1806 24.3293 86.037 24.0009 86.9303 24H89.2939C90.1872 24.0009 91.0436 24.3293 91.6753 24.9133C92.3069 25.4973 92.6622 26.2892 92.6631 27.1151V32.0629H95.959C97.1629 32.0642 98.3171 32.5069 99.1684 33.294C100.02 34.0811 100.499 35.1483 100.5 36.2614ZM85.6119 32.0629H90.6123V27.1151C90.6118 26.7919 90.4728 26.4821 90.2257 26.2536C89.9785 26.0251 89.6435 25.8966 89.2939 25.8961H86.9303C86.5808 25.8966 86.2457 26.0251 85.9986 26.2536C85.7514 26.4821 85.6124 26.7919 85.6119 27.1151V32.0629ZM68.8705 32.0629H73.8709V27.1151C73.8704 26.7919 73.7314 26.4821 73.4842 26.2536C73.2371 26.0251 72.902 25.8966 72.5525 25.8961H70.1889C69.8394 25.8966 69.5043 26.0251 69.2572 26.2536C69.01 26.4821 68.871 26.7919 68.8705 27.1151V32.0629ZM52.1291 32.0629H57.1295V27.1151C57.129 26.7919 56.99 26.4821 56.7428 26.2536C56.4957 26.0251 56.1606 25.8966 55.8111 25.8961H53.4492C53.0997 25.8966 52.7647 26.0251 52.5175 26.2536C52.2704 26.4821 52.1313 26.7919 52.1309 27.1151L52.1291 32.0629ZM35.3877 32.0629H40.3881V27.1151C40.3876 26.7919 40.2486 26.4821 40.0014 26.2536C39.7543 26.0251 39.4192 25.8966 39.0697 25.8961H36.7061C36.3565 25.8966 36.0215 26.0251 35.7743 26.2536C35.5272 26.4821 35.3882 26.7919 35.3877 27.1151V32.0629ZM98.4492 44.3216H87.3527C87.0808 44.3216 86.82 44.2217 86.6277 44.0439C86.4354 43.8661 86.3273 43.625 86.3273 43.3736C86.3273 43.1221 86.4354 42.881 86.6277 42.7032C86.82 42.5254 87.0808 42.4255 87.3527 42.4255H98.4492V36.2614C98.4486 35.651 98.186 35.0657 97.7192 34.634C97.2523 34.2023 96.6192 33.9596 95.959 33.959H30.041C29.3808 33.9597 28.7479 34.2025 28.281 34.6342C27.8142 35.0658 27.5516 35.651 27.5508 36.2614V42.4255H67.8451C68.1171 42.4255 68.3779 42.5254 68.5702 42.7032C68.7625 42.881 68.8705 43.1221 68.8705 43.3736C68.8705 43.625 68.7625 43.8661 68.5702 44.0439C68.3779 44.2217 68.1171 44.3216 67.8451 44.3216H27.5508V80.3432C27.5514 80.81 27.7522 81.2575 28.1092 81.5875C28.4662 81.9176 28.9502 82.1033 29.4551 82.1039H96.5449C97.0498 82.1033 97.5338 81.9176 97.8908 81.5875C98.2478 81.2575 98.4486 80.81 98.4492 80.3432V44.3216ZM42.0445 49.8746V54.1696C42.0438 54.7082 41.812 55.2245 41.4001 55.6053C40.9882 55.9861 40.4298 56.2004 39.8473 56.2011H33.5566C32.9741 56.2004 32.4157 55.9861 32.0038 55.6053C31.5919 55.2245 31.3602 54.7082 31.3594 54.1696V49.8746C31.36 49.3359 31.5917 48.8195 32.0036 48.4387C32.4156 48.0578 32.9741 47.8436 33.5566 47.843H39.8473C40.4298 47.8436 40.9883 48.0578 41.4003 48.4387C41.8122 48.8195 42.0439 49.3359 42.0445 49.8746ZM39.9937 49.8746C39.9937 49.8386 39.9783 49.8042 39.9508 49.7788C39.9234 49.7534 39.8861 49.7391 39.8473 49.7391H33.5566C33.5178 49.7391 33.4805 49.7534 33.4531 49.7788C33.4256 49.8042 33.4102 49.8386 33.4102 49.8746V54.1696C33.4103 54.2054 33.4258 54.2398 33.4532 54.2652C33.4807 54.2905 33.5178 54.3049 33.5566 54.305H39.8473C39.8861 54.3049 39.9232 54.2905 39.9507 54.2652C39.9781 54.2398 39.9936 54.2054 39.9937 54.1696V49.8746ZM59.5764 49.8746V54.1696C59.5756 54.7082 59.3438 55.2245 58.9319 55.6053C58.52 55.9861 57.9616 56.2004 57.3791 56.2011H51.0885C50.506 56.2004 49.9475 55.9861 49.5356 55.6053C49.1237 55.2245 48.892 54.7082 48.8912 54.1696V49.8746C48.8918 49.3359 49.1235 48.8195 49.5355 48.4387C49.9474 48.0578 50.5059 47.8436 51.0885 47.843H57.3791C57.9617 47.8436 58.5202 48.0578 58.9321 48.4387C59.3441 48.8195 59.5757 49.3359 59.5764 49.8746ZM57.5256 49.8746C57.5256 49.8386 57.5102 49.8042 57.4827 49.7788C57.4552 49.7534 57.418 49.7391 57.3791 49.7391H51.0885C51.0497 49.7393 51.0125 49.7536 50.9851 49.779C50.9576 49.8043 50.9421 49.8387 50.942 49.8746V54.1696C50.9421 54.2054 50.9576 54.2398 50.9851 54.2652C51.0125 54.2905 51.0497 54.3049 51.0885 54.305H57.3791C57.4179 54.3049 57.4551 54.2905 57.4825 54.2652C57.5099 54.2398 57.5254 54.2054 57.5256 54.1696V49.8746ZM77.1088 49.8746V54.1696C77.108 54.7082 76.8763 55.2245 76.4644 55.6053C76.0525 55.9861 75.494 56.2004 74.9115 56.2011H68.6209C68.0384 56.2004 67.48 55.9861 67.0681 55.6053C66.6562 55.2245 66.4244 54.7082 66.4236 54.1696V49.8746C66.4243 49.3359 66.6559 48.8195 67.0679 48.4387C67.4798 48.0578 68.0383 47.8436 68.6209 47.843H74.9115C75.494 47.8437 76.0525 48.058 76.4644 48.4388C76.8763 48.8197 77.108 49.336 77.1088 49.8746ZM75.058 49.8746C75.058 49.8386 75.0426 49.8042 75.0151 49.7788C74.9876 49.7534 74.9504 49.7391 74.9115 49.7391H68.6209C68.5821 49.7391 68.5448 49.7534 68.5173 49.7788C68.4898 49.8042 68.4744 49.8386 68.4744 49.8746V54.1696C68.4746 54.2054 68.4901 54.2398 68.5175 54.2652C68.5449 54.2905 68.5821 54.3049 68.6209 54.305H74.9115C74.9503 54.3049 74.9875 54.2905 75.0149 54.2652C75.0424 54.2398 75.0579 54.2054 75.058 54.1696V49.8746ZM86.1527 47.843H92.4434C93.0259 47.8437 93.5843 48.058 93.9962 48.4388C94.4081 48.8197 94.6398 49.336 94.6406 49.8746V54.1696C94.6398 54.7082 94.4081 55.2245 93.9962 55.6053C93.5843 55.9861 93.0259 56.2004 92.4434 56.2011H86.1527C85.5702 56.2004 85.0118 55.9861 84.5999 55.6053C84.188 55.2245 83.9562 54.7082 83.9555 54.1696V49.8746C83.9561 49.3359 84.1878 48.8195 84.5997 48.4387C85.0117 48.0578 85.5702 47.8436 86.1527 47.843ZM92.4434 49.7391H86.1527C86.1139 49.7391 86.0766 49.7534 86.0492 49.7788C86.0217 49.8042 86.0062 49.8386 86.0062 49.8746V54.1696C86.0064 54.2054 86.0219 54.2398 86.0493 54.2652C86.0768 54.2905 86.1139 54.3049 86.1527 54.305H92.4434C92.4822 54.3049 92.5193 54.2905 92.5468 54.2652C92.5742 54.2398 92.5897 54.2054 92.5898 54.1696V49.8746C92.5898 49.8386 92.5744 49.8042 92.5469 49.7788C92.5195 49.7534 92.4822 49.7391 92.4434 49.7391ZM42.0445 61.065V65.36C42.0438 65.8986 41.812 66.4149 41.4001 66.7957C40.9882 67.1766 40.4298 67.3908 39.8473 67.3915H33.5566C32.9741 67.3908 32.4157 67.1766 32.0038 66.7957C31.5919 66.4149 31.3602 65.8986 31.3594 65.36V61.065C31.3602 60.5264 31.5919 60.0101 32.0038 59.6292C32.4157 59.2484 32.9741 59.0341 33.5566 59.0334H39.8473C40.4298 59.0341 40.9882 59.2484 41.4001 59.6292C41.812 60.0101 42.0438 60.5264 42.0445 61.065ZM39.9937 61.065C39.9937 61.0291 39.9783 60.9946 39.9508 60.9692C39.9234 60.9438 39.8861 60.9295 39.8473 60.9295H33.5566C33.5178 60.9295 33.4805 60.9438 33.4531 60.9692C33.4256 60.9946 33.4102 61.0291 33.4102 61.065V65.36C33.4103 65.3959 33.4258 65.4302 33.4532 65.4556C33.4807 65.481 33.5178 65.4953 33.5566 65.4954H39.8473C39.8861 65.4953 39.9232 65.481 39.9507 65.4556C39.9781 65.4302 39.9936 65.3959 39.9937 65.36V61.065ZM59.5764 61.065V65.36C59.5756 65.8986 59.3438 66.4149 58.9319 66.7957C58.52 67.1766 57.9616 67.3908 57.3791 67.3915H51.0885C50.506 67.3908 49.9475 67.1766 49.5356 66.7957C49.1237 66.4149 48.892 65.8986 48.8912 65.36V61.065C48.892 60.5264 49.1237 60.0101 49.5356 59.6292C49.9475 59.2484 50.506 59.0341 51.0885 59.0334H57.3791C57.9616 59.0341 58.52 59.2484 58.9319 59.6292C59.3438 60.0101 59.5756 60.5264 59.5764 61.065ZM57.5256 61.065C57.5256 61.0291 57.5102 60.9946 57.4827 60.9692C57.4552 60.9438 57.418 60.9295 57.3791 60.9295H51.0885C51.0497 60.9297 51.0125 60.944 50.9851 60.9694C50.9576 60.9947 50.9421 61.0291 50.942 61.065V65.36C50.9421 65.3959 50.9576 65.4302 50.9851 65.4556C51.0125 65.481 51.0497 65.4953 51.0885 65.4954H57.3791C57.4179 65.4953 57.4551 65.481 57.4825 65.4556C57.5099 65.4302 57.5254 65.3959 57.5256 65.36V61.065ZM77.1088 61.065V65.36C77.108 65.8986 76.8763 66.4149 76.4644 66.7957C76.0525 67.1766 75.494 67.3908 74.9115 67.3915H68.6209C68.0384 67.3908 67.48 67.1766 67.0681 66.7957C66.6562 66.4149 66.4244 65.8986 66.4236 65.36V61.065C66.4244 60.5264 66.6562 60.0101 67.0681 59.6292C67.48 59.2484 68.0384 59.0341 68.6209 59.0334H74.9115C75.494 59.0341 76.0525 59.2484 76.4644 59.6292C76.8763 60.0101 77.108 60.5264 77.1088 61.065ZM75.058 61.065C75.058 61.0291 75.0426 60.9946 75.0151 60.9692C74.9876 60.9438 74.9504 60.9295 74.9115 60.9295H68.6209C68.5821 60.9295 68.5448 60.9438 68.5173 60.9692C68.4898 60.9946 68.4744 61.0291 68.4744 61.065V65.36C68.4746 65.3959 68.4901 65.4302 68.5175 65.4556C68.5449 65.481 68.5821 65.4953 68.6209 65.4954H74.9115C74.9503 65.4953 74.9875 65.481 75.0149 65.4556C75.0424 65.4302 75.0579 65.3959 75.058 65.36V61.065ZM94.6406 61.065V65.36C94.6398 65.8986 94.4081 66.4149 93.9962 66.7957C93.5843 67.1766 93.0259 67.3908 92.4434 67.3915H86.1527C85.5702 67.3908 85.0118 67.1766 84.5999 66.7957C84.188 66.4149 83.9562 65.8986 83.9555 65.36V61.065C83.9562 60.5264 84.188 60.0101 84.5999 59.6292C85.0118 59.2484 85.5702 59.0341 86.1527 59.0334H92.4434C93.0259 59.0341 93.5843 59.2484 93.9962 59.6292C94.4081 60.0101 94.6398 60.5264 94.6406 61.065ZM92.5898 61.065C92.5898 61.0291 92.5744 60.9946 92.5469 60.9692C92.5195 60.9438 92.4822 60.9295 92.4434 60.9295H86.1527C86.1139 60.9295 86.0766 60.9438 86.0492 60.9692C86.0217 60.9946 86.0062 61.0291 86.0062 61.065V65.36C86.0064 65.3959 86.0219 65.4302 86.0493 65.4556C86.0768 65.481 86.1139 65.4953 86.1527 65.4954H92.4434C92.4822 65.4953 92.5193 65.481 92.5468 65.4556C92.5742 65.4302 92.5897 65.3959 92.5898 65.36V61.065ZM39.8473 70.2244H33.5566C32.9739 70.2251 32.4153 70.4395 32.0034 70.8206C31.5914 71.2016 31.3598 71.7182 31.3594 72.257V74.5665C31.3594 74.8179 31.4674 75.0591 31.6597 75.2369C31.852 75.4147 32.1128 75.5145 32.3848 75.5145C32.6567 75.5145 32.9175 75.4147 33.1098 75.2369C33.3021 75.0591 33.4102 74.8179 33.4102 74.5665V72.257C33.4102 72.2211 33.4256 72.1866 33.4531 72.1612C33.4805 72.1358 33.5178 72.1216 33.5566 72.1216H39.8473C39.8861 72.1216 39.9234 72.1358 39.9508 72.1612C39.9783 72.1866 39.9937 72.2211 39.9937 72.257V76.552C39.9937 76.5879 39.9783 76.6224 39.9508 76.6478C39.9234 76.6732 39.8861 76.6874 39.8473 76.6874H36.702C36.43 76.6874 36.1692 76.7873 35.9769 76.9651C35.7846 77.1429 35.6766 77.3841 35.6766 77.6355C35.6766 77.8869 35.7846 78.1281 35.9769 78.3059C36.1692 78.4837 36.43 78.5836 36.702 78.5836H39.8473C40.4298 78.5829 40.9882 78.3686 41.4001 77.9877C41.812 77.6069 42.0438 77.0906 42.0445 76.552V72.257C42.0441 71.7182 41.8125 71.2016 41.4005 70.8206C40.9886 70.4395 40.43 70.2251 39.8473 70.2244ZM59.5764 72.257V76.552C59.5756 77.0906 59.3438 77.6069 58.9319 77.9877C58.52 78.3686 57.9616 78.5829 57.3791 78.5836H51.0885C50.506 78.5829 49.9475 78.3686 49.5356 77.9877C49.1237 77.6069 48.892 77.0906 48.8912 76.552V72.257C48.892 71.7184 49.1237 71.2021 49.5356 70.8213C49.9475 70.4404 50.506 70.2262 51.0885 70.2254H57.3791C57.9616 70.2262 58.52 70.4404 58.9319 70.8213C59.3438 71.2021 59.5756 71.7184 59.5764 72.257ZM57.5256 72.257C57.5256 72.2211 57.5102 72.1866 57.4827 72.1612C57.4552 72.1358 57.418 72.1216 57.3791 72.1216H51.0885C51.0497 72.1217 51.0125 72.136 50.9851 72.1614C50.9576 72.1868 50.9421 72.2211 50.942 72.257V76.552C50.9421 76.5879 50.9576 76.6222 50.9851 76.6476C51.0125 76.673 51.0497 76.6873 51.0885 76.6874H57.3791C57.418 76.6874 57.4552 76.6732 57.4827 76.6478C57.5102 76.6224 57.5256 76.5879 57.5256 76.552V72.257ZM76.3688 70.7439C76.1527 70.5912 75.8798 70.5242 75.6103 70.5575C75.3407 70.5908 75.0966 70.7218 74.9314 70.9216L70.6541 76.0921L68.2518 73.2874C68.1682 73.1899 68.0646 73.1085 67.947 73.048C67.8294 72.9875 67.7 72.9489 67.5663 72.9346C67.4326 72.9203 67.2971 72.9305 67.1677 72.9646C67.0382 72.9987 66.9173 73.056 66.8118 73.1333C66.7063 73.2106 66.6183 73.3063 66.5529 73.4151C66.4874 73.5238 66.4457 73.6434 66.4302 73.767C66.4148 73.8907 66.4258 74.0159 66.4626 74.1356C66.4995 74.2553 66.5615 74.3671 66.6451 74.4646L69.8678 78.2244C69.9637 78.3364 70.0858 78.4269 70.2249 78.4891C70.364 78.5513 70.5166 78.5836 70.6711 78.5836H70.6799C70.8359 78.5822 70.9896 78.548 71.1292 78.4835C71.2688 78.419 71.3907 78.3259 71.4855 78.2114L76.5598 72.0728C76.6418 71.9739 76.702 71.8611 76.7368 71.7407C76.7717 71.6203 76.7804 71.4947 76.7627 71.3712C76.745 71.2476 76.701 71.1285 76.6334 71.0207C76.5658 70.9129 76.4759 70.8184 76.3688 70.7428V70.7439ZM93.9006 70.7439C93.6845 70.5912 93.4117 70.5242 93.1421 70.5575C92.8726 70.5908 92.6284 70.7218 92.4633 70.9216L88.1895 76.0921L85.7871 73.2874C85.7035 73.1899 85.5999 73.1085 85.4823 73.048C85.3647 72.9875 85.2354 72.9489 85.1017 72.9346C84.9679 72.9203 84.8325 72.9305 84.703 72.9646C84.5736 72.9987 84.4527 73.056 84.3472 73.1333C84.2417 73.2106 84.1537 73.3063 84.0882 73.4151C84.0227 73.5238 83.9811 73.6434 83.9656 73.767C83.9501 73.8907 83.9611 74.0159 83.998 74.1356C84.0349 74.2553 84.0969 74.3671 84.1805 74.4646L87.4031 78.2244C87.4992 78.3364 87.6214 78.4269 87.7606 78.4891C87.8998 78.5513 88.0524 78.5836 88.207 78.5836H88.2158C88.3719 78.5822 88.5255 78.548 88.6651 78.4835C88.8047 78.419 88.9266 78.3259 89.0215 78.2114L94.0951 72.0728C94.1769 71.9737 94.2368 71.8607 94.2713 71.7402C94.3058 71.6197 94.3143 71.494 94.2962 71.3705C94.2781 71.247 94.2339 71.1279 94.166 71.0202C94.0981 70.9125 94.0079 70.8182 93.9006 70.7428V70.7439Z" fill="white" stroke="white"/>
<defs>
<linearGradient id="paint0_linear_4011_17540" x1="63" y1="0" x2="63" y2="108" gradientUnits="userSpaceOnUse">
<stop stop-color="#1280C3"/>
<stop offset="1" stop-color="#00AB9E"/>
</linearGradient>
</defs>
</svg>
