<svg width="120" height="13" viewBox="0 0 120 13" fill="none" xmlns="http://www.w3.org/2000/svg">
<path opacity="0.7" d="M26.8971 7.99439C24.5706 7.13206 8.80588 8.2165 7.766 7.9995C6.79831 7.67741 7.83217 1.7644 8.65044 0.879923C8.94125 0.565215 9.29523 0.511248 10.1336 0.64304C11.1373 0.83391 23.5899 0.401612 28.3752 0.259028C28.6058 0.442513 29.2557 -0.173841 29.388 0.0494091C29.6658 0.401042 54.3262 0.127235 59.5848 0.170976C61.0048 0.182905 59.8676 0.511247 61.5443 0.411836C65.1162 0.200515 72.8547 0.709504 75.5642 0.477164C77.7422 0.290271 78.2045 0.297088 80.2592 0.578849C82.0703 0.827662 93.5922 1.04637 94.943 0.702686C95.2699 0.604411 95.5045 0.656674 95.4905 0.787897C95.7021 0.811756 96.5073 0.865721 96.7239 0.880491C96.8964 0.892421 103.385 1.31961 103.406 1.41731C103.45 1.55138 103.68 1.62636 103.917 1.54797C104.346 1.42243 112.828 1.41959 112.907 1.81042C113.133 2.92269 111.257 7.47802 110.143 8.5545C108.965 9.69234 103.838 8.03586 99.3322 8.53519C76.6472 7.49051 79.1171 7.70808 74.6968 8.01313C74.2275 7.60185 72.264 8.51531 71.1359 7.79159C70.6726 7.49449 67.219 7.35986 66.4328 7.62571C66.0979 7.73876 61.5162 7.52346 56.7851 7.40871C52.0539 7.29396 47.1734 7.28487 46.2649 7.66207C42.724 6.90711 28.8224 7.90066 26.8971 7.99439Z" fill="#81319B"/>
<path opacity="0.7" d="M22.3407 12.7815C19.8699 11.9265 1.63424 12.5406 0.31157 12.2577C-0.754389 11.9032 1.17499 6.03568 2.19482 5.18188C2.55883 4.87739 2.96394 4.83592 3.89151 4.99612C5.37062 5.3006 22.5734 5.09667 24.4696 5.07053C24.7193 5.25743 25.4845 4.65017 25.6218 4.87569C26.1012 5.45966 58.6576 5.00862 59.6603 5.00407C61.2618 4.99669 59.9953 5.33809 61.8815 5.21142C65.8936 4.94158 74.655 5.27163 77.6884 4.94726C80.1201 4.68766 80.6396 4.6922 82.9861 4.90011C85.3757 5.11144 98.093 4.84274 99.513 4.40306C99.868 4.29285 100.136 4.32864 100.142 4.46043C100.291 4.46839 109.105 4.57916 109.14 4.66039C109.214 4.79105 109.488 4.8524 109.737 4.76094C110.2 4.62801 119.699 4.07926 119.874 4.461C120.377 5.55226 119.278 10.1956 118.234 11.3397C117.13 12.5491 110.84 11.2324 105.844 11.9777C78.3893 12.1066 84.5394 11.8777 77.4487 12.4997C76.8701 12.1055 74.692 13.0757 73.3293 12.3793C72.7687 12.093 68.7897 12.0481 67.9022 12.331C67.1441 12.573 46.7635 11.8464 44.6727 12.6042C40.9574 11.9135 25.8495 12.6769 22.3407 12.7815Z" fill="#81319B"/>
</svg>
