<svg width="126" height="108" viewBox="0 0 126 108" fill="none" xmlns="http://www.w3.org/2000/svg">
<rect x="0.5" width="125" height="108" rx="30" fill="url(#paint0_linear_4011_17495)"/>
<path fill-rule="evenodd" clip-rule="evenodd" d="M80.7285 35.7647C79.1465 35.7647 77.6523 34.2647 77.6523 32.6765C77.6523 31 79.0586 29.5882 80.7285 29.5882C82.457 29.5882 83.8047 30.9412 83.8047 32.6765C83.8047 34.3529 82.3984 35.7647 80.7285 35.7647ZM36.7832 69.8824C36.7686 69.8824 36.7686 69.8824 36.7539 69.8824C36.2998 69.8676 35.9043 69.5588 35.7871 69.1176L31.9785 54.7059C31.832 54.1618 32.1543 53.5882 32.7109 53.4412C33.2529 53.2941 33.8242 53.6177 33.9707 54.1765L36.8711 65.1471L40.3574 53.9853C40.4893 53.5588 40.8848 53.2647 41.3389 53.2647H41.3535C41.8076 53.2647 42.2031 53.5735 42.335 54L45.5869 65.1324L48.7217 54.0147C48.8828 53.4706 49.4395 53.1471 49.9814 53.3088C50.5234 53.4706 50.8457 54.0294 50.6846 54.5735L46.583 69.1324C46.4658 69.5735 46.0557 69.8824 45.6016 69.8824C45.1475 69.8824 44.752 69.5882 44.6201 69.1471L41.3242 57.8529L37.7939 69.1765C37.6328 69.5882 37.2373 69.8824 36.7832 69.8824ZM58.4629 69.8824C58.4482 69.8824 58.4482 69.8824 58.4336 69.8824C57.9795 69.8676 57.584 69.5588 57.4668 69.1176L53.6582 54.7059C53.5117 54.1618 53.834 53.5882 54.3906 53.4412C54.9326 53.2941 55.5039 53.6177 55.6504 54.1765L58.5508 65.1471L62.0371 53.9853C62.1689 53.5588 62.5644 53.2647 63.0186 53.2647C63.4727 53.2647 63.8682 53.5588 64 54L67.3545 65.1324L70.3721 54.0294C70.5185 53.4853 71.0898 53.1618 71.6318 53.3088C72.1738 53.4559 72.4961 54.0294 72.3496 54.5735L68.3945 69.1324C68.2773 69.5735 67.8818 69.8824 67.4131 69.8971H67.3984C66.9443 69.8971 66.5488 69.6029 66.417 69.1618L62.9893 57.7941L59.4443 69.1618C59.3125 69.5882 58.917 69.8824 58.4629 69.8824ZM80.1426 69.8824C80.1279 69.8824 80.1279 69.8824 80.1133 69.8824C79.6592 69.8676 79.2637 69.5588 79.1465 69.1176L75.3379 54.7059C75.1914 54.1618 75.5137 53.5882 76.0703 53.4412C76.6123 53.2941 77.1836 53.6177 77.3301 54.1765L80.2305 65.1471L83.7168 53.9853C83.8486 53.5588 84.2441 53.2647 84.6982 53.2647C85.1523 53.2647 85.5478 53.5588 85.6797 54L89.0342 65.1324L92.0518 54.0294C92.1982 53.4853 92.7695 53.1618 93.3115 53.3088C93.8535 53.4559 94.1758 54.0294 94.0293 54.5735L90.0742 69.1324C89.957 69.5735 89.5615 69.8824 89.0928 69.8971H89.0781C88.624 69.8971 88.2285 69.6029 88.0967 69.1618L84.6689 57.7941L81.124 69.1618C80.9922 69.5882 80.5967 69.8824 80.1426 69.8824ZM91.2754 84H34.7324C29.6494 84 25.5039 79.8382 25.5039 74.7353V40.1765V33.2647C25.5039 30.8382 26.4561 28.5294 28.1992 26.7647C29.957 24.9853 32.2715 24 34.7324 24H91.2754C93.7363 24 96.0508 24.9853 97.8086 26.7647C99.5518 28.5294 100.504 30.8382 100.504 33.2647V40.1765V74.7353C100.504 79.8382 96.3584 84 91.2754 84ZM34.7324 26.0588C30.8359 26.0588 27.5547 29.3529 27.5547 33.2647V39.1471H98.4531V33.2647C98.4531 29.3529 95.1719 26.0588 91.2754 26.0588H34.7324ZM27.5547 41.2059V74.7353C27.5547 78.7059 30.7773 81.9412 34.7324 81.9412H91.2754C95.2305 81.9412 98.4531 78.7059 98.4531 74.7353V41.2059H27.5547ZM51.5781 33.7059H45.8652C45.2939 33.7059 44.8398 33.25 44.8398 32.6765C44.8398 32.1029 45.2939 31.6471 45.8652 31.6471H51.5781C52.1494 31.6471 52.6035 32.1029 52.6035 32.6765C52.6035 33.25 52.1494 33.7059 51.5781 33.7059ZM63.8828 33.7059H58.1699C57.5986 33.7059 57.1445 33.25 57.1445 32.6765C57.1445 32.1029 57.5986 31.6471 58.1699 31.6471H63.8828C64.4541 31.6471 64.9082 32.1029 64.9082 32.6765C64.9082 33.25 64.4541 33.7059 63.8828 33.7059ZM39.4199 33.7059H33.707C33.1357 33.7059 32.6816 33.25 32.6816 32.6765C32.6816 32.1029 33.1357 31.6471 33.707 31.6471H39.4199C39.9912 31.6471 40.4453 32.1029 40.4453 32.6765C40.4453 33.25 39.9912 33.7059 39.4199 33.7059ZM88.7851 35.7647C87.1152 35.7647 85.709 34.3529 85.709 32.6765C85.709 30.9412 87.0566 29.5882 88.7851 29.5882C90.5137 29.5882 91.8613 30.9412 91.8613 32.6765C91.8613 34.3529 90.4551 35.7647 88.7851 35.7647ZM88.7851 31.6471C88.1846 31.6471 87.7598 32.0735 87.7598 32.6765C87.7598 33.1618 88.1992 33.7059 88.7851 33.7059C89.3711 33.7059 89.8105 33.1618 89.8105 32.6765C89.8105 32.0735 89.3857 31.6471 88.7851 31.6471ZM80.7285 31.6471C80.2451 31.6471 79.7031 32.0882 79.7031 32.6765C79.7031 33.1324 80.2744 33.7059 80.7285 33.7059C81.3144 33.7059 81.7539 33.1618 81.7539 32.6765C81.7539 32.0735 81.3291 31.6471 80.7285 31.6471Z" fill="white" stroke="white" stroke-width="1.5"/>
<defs>
<linearGradient id="paint0_linear_4011_17495" x1="63" y1="0" x2="63" y2="108" gradientUnits="userSpaceOnUse">
<stop stop-color="#1280C3"/>
<stop offset="1" stop-color="#00AB9E"/>
</linearGradient>
</defs>
</svg>
