<svg width="29" height="29" viewBox="0 0 29 29" fill="none" xmlns="http://www.w3.org/2000/svg">
<path d="M21.4505 11.1713L12.826 9.92936C12.7237 9.91246 12.6319 9.85519 12.5704 9.76984C12.509 9.68449 12.4826 9.57787 12.4971 9.47287C12.5116 9.36788 12.5657 9.27287 12.6479 9.20826C12.73 9.14365 12.8337 9.11458 12.9365 9.12729L21.5611 10.3692C21.6634 10.3862 21.7551 10.4434 21.8166 10.5288C21.8781 10.6141 21.9044 10.7207 21.89 10.8257C21.8755 10.9307 21.8214 11.0257 21.7392 11.0904C21.657 11.155 21.5534 11.184 21.4505 11.1713ZM21.2851 12.3747L12.6609 11.1328C12.558 11.12 12.4544 11.1491 12.3722 11.2137C12.29 11.2783 12.2359 11.3733 12.2214 11.4783C12.207 11.5833 12.2333 11.69 12.2948 11.7753C12.3563 11.8607 12.448 11.9179 12.5503 11.9348L21.1745 13.177C21.2785 13.192 21.384 13.1641 21.4679 13.0995C21.5518 13.0349 21.6072 12.9388 21.6218 12.8324C21.6365 12.726 21.6092 12.618 21.5461 12.5322C21.4829 12.4464 21.3891 12.3897 21.2851 12.3747ZM20.7334 16.3861L12.1092 15.1441C12.0064 15.1314 11.9027 15.1605 11.8206 15.2251C11.7385 15.2897 11.6844 15.3847 11.6699 15.4897C11.6554 15.5947 11.6818 15.7012 11.7432 15.7866C11.8047 15.8719 11.8964 15.9292 11.9987 15.9461L20.6228 17.1881C20.7256 17.2005 20.829 17.1713 20.911 17.1067C20.9929 17.0421 21.0469 16.9472 21.0614 16.8424C21.0758 16.7376 21.0496 16.6311 20.9883 16.5458C20.927 16.4605 20.8355 16.4032 20.7334 16.3861ZM21.0094 14.3804L12.3849 13.1384C12.282 13.1257 12.1783 13.1548 12.0962 13.2194C12.014 13.284 11.9599 13.379 11.9454 13.484C11.9309 13.589 11.9573 13.6956 12.0188 13.781C12.0802 13.8663 12.172 13.9236 12.2743 13.9405L20.8989 15.1825C21.0017 15.1952 21.1054 15.1661 21.1876 15.1015C21.2697 15.0369 21.3239 14.9419 21.3383 14.8369C21.3528 14.7319 21.3265 14.6253 21.265 14.5399C21.2035 14.4546 21.1117 14.3973 21.0094 14.3804ZM20.4577 18.3917L11.8332 17.1497C11.7303 17.137 11.6267 17.1661 11.5445 17.2307C11.4624 17.2953 11.4082 17.3903 11.3938 17.4953C11.3793 17.6003 11.4056 17.7069 11.4671 17.7923C11.5286 17.8776 11.6203 17.9349 11.7226 17.9518L20.3471 19.194C20.3986 19.2014 20.451 19.1984 20.5014 19.1851C20.5517 19.1718 20.599 19.1485 20.6405 19.1165C20.6821 19.0845 20.717 19.0444 20.7435 18.9986C20.7699 18.9528 20.7872 18.9021 20.7945 18.8494C20.8017 18.7967 20.7988 18.7431 20.7858 18.6916C20.7728 18.6401 20.75 18.5917 20.7187 18.5492C20.6875 18.5067 20.6483 18.4709 20.6036 18.4439C20.5588 18.4169 20.5092 18.3991 20.4577 18.3917ZM20.1817 20.3974L11.5576 19.1556C11.4547 19.1429 11.351 19.172 11.2689 19.2366C11.1867 19.3012 11.1326 19.3962 11.1181 19.5012C11.1036 19.6062 11.13 19.7128 11.1915 19.7982C11.253 19.8835 11.3447 19.9408 11.447 19.9577L20.0712 21.1997C20.1752 21.2147 20.2807 21.1868 20.3646 21.1222C20.4485 21.0575 20.5038 20.9615 20.5185 20.8551C20.5331 20.7487 20.5059 20.6407 20.4427 20.5548C20.3796 20.469 20.2857 20.4124 20.1817 20.3974ZM25.1095 7.82773L22.9559 23.4803C22.9093 23.7982 22.7425 24.0845 22.4914 24.2777C22.2404 24.4709 21.9253 24.5555 21.6139 24.5133L21.2695 24.4647C21.2092 24.579 21.1317 24.6828 21.0399 24.7726C20.9234 24.8867 20.7854 24.9753 20.6343 25.0331C20.4832 25.0909 20.3222 25.1166 20.1611 25.1088L19.2941 25.0642V25.0845C19.2939 25.4015 19.1724 25.7058 18.9556 25.9322C18.7388 26.1586 18.4439 26.2891 18.1342 26.2957L5.47022 26.5833H5.44251C5.13252 26.5803 4.8357 26.4546 4.61429 26.2326C4.39288 26.0105 4.26408 25.7094 4.25489 25.3923L3.86693 7.34972C3.86074 7.02706 3.97973 6.71503 4.19787 6.48195C4.416 6.24887 4.7155 6.11372 5.0308 6.1061L7.23185 6.05749L7.2754 5.1501C7.29302 4.82883 7.43395 4.52769 7.66749 4.31223C7.90104 4.09677 8.2083 3.98442 8.5224 3.99965L10.4305 4.09687L10.5176 3.46088C10.563 3.14243 10.7295 2.85523 10.9809 2.66177C11.2322 2.46832 11.548 2.38426 11.8596 2.42791L20.8499 3.72419C21.1162 3.76271 22.2748 3.91458 22.5205 3.97939C24.0525 4.38999 25.3249 6.20952 25.1095 7.82773ZM21.5387 4.63969C21.5956 4.96007 21.6138 5.2864 21.5929 5.61133L21.5941 5.6119C21.5674 6.0844 21.5065 6.55423 21.412 7.01755C21.3916 7.19542 21.4397 7.37443 21.5462 7.51661C21.6526 7.65879 21.809 7.75295 21.9821 7.77912L21.9813 7.78001C22.7559 7.82771 23.5192 7.99259 24.2465 8.26927C24.2576 8.17744 24.3372 7.67084 24.3375 7.58873C24.4194 6.34073 23.2766 4.85438 22.067 4.71637C22.0726 4.71847 21.5387 4.63969 21.5387 4.63969ZM20.6282 6.88387C20.6731 6.65164 20.7058 6.43852 20.7326 6.23537L14.4724 5.33239C14.3685 5.31764 14.2631 5.34558 14.1793 5.4101C14.0955 5.47462 14.04 5.57047 14.025 5.67671L13.9696 6.0899C13.955 6.19625 13.9822 6.30418 14.0453 6.39C14.1084 6.47582 14.2022 6.53252 14.3061 6.54765L20.6599 7.46315L20.6638 7.46376C20.6145 7.2748 20.6024 7.07767 20.6282 6.88387ZM18.5024 25.0237L7.50897 24.4525C7.19472 24.4353 6.89996 24.2913 6.68924 24.0522C6.47852 23.813 6.369 23.4981 6.38468 23.1765L7.19227 6.86767L5.04663 6.91628C4.94174 6.91875 4.84207 6.96359 4.76938 7.041C4.69669 7.11842 4.65689 7.22213 4.65868 7.32947L5.04663 25.3761C5.05103 25.4828 5.09546 25.5836 5.17068 25.6575C5.2459 25.7315 5.34611 25.7729 5.45042 25.7731L18.1184 25.4855C18.1702 25.4846 18.2213 25.4731 18.2688 25.4517C18.3163 25.4304 18.3591 25.3996 18.3948 25.3611C18.4306 25.3227 18.4585 25.2773 18.4769 25.2278C18.4954 25.1782 18.504 25.1253 18.5024 25.0723V25.0237ZM20.0779 24.2905L9.06871 22.7066C8.75725 22.6607 8.47623 22.4904 8.28707 22.2331C8.0979 21.9758 8.01599 21.6523 8.05923 21.3334L10.3197 4.90299L8.48281 4.80577C8.37809 4.80145 8.27588 4.83934 8.19816 4.9113C8.12043 4.98326 8.0734 5.08354 8.06715 5.1906L7.17643 23.217C7.17147 23.3244 7.20825 23.4294 7.27872 23.5091C7.34919 23.5888 7.44762 23.6367 7.55251 23.6424L20.0779 24.2905ZM24.1317 9.13616C24.0644 9.04299 23.7239 8.78779 21.994 8.59739C21.7113 8.57604 21.4408 8.47141 21.215 8.29613L21.2101 8.29763H21.2062C21.0822 8.32262 20.955 8.32536 20.8301 8.30573L14.1953 7.34972C13.8835 7.30455 13.602 7.13451 13.4126 6.87699C13.2233 6.61947 13.1417 6.29555 13.1858 5.97648L13.2412 5.56734C13.2852 5.24789 13.4511 4.95932 13.7027 4.76491C13.9543 4.5705 14.2709 4.48613 14.5832 4.53031L20.7984 5.42556H20.7995C20.8301 5.11659 20.7849 4.80468 20.6678 4.51816L11.7488 3.22998C11.6449 3.21523 11.5395 3.24317 11.4557 3.30769C11.3718 3.37221 11.3164 3.46807 11.3014 3.5743L8.84306 21.4468C8.82865 21.5531 8.85595 21.6609 8.919 21.7467C8.98206 21.8325 9.07573 21.8892 9.17955 21.9045L21.7248 23.7112C21.8287 23.726 21.9341 23.698 22.0179 23.6335C22.1017 23.569 22.1572 23.4731 22.1721 23.3669L24.1317 9.13616Z" fill="url(#paint0_linear_6_8853)"/>
<defs>
<linearGradient id="paint0_linear_6_8853" x1="12.8063" y1="26.6256" x2="12.8063" y2="2.36769" gradientUnits="userSpaceOnUse">
<stop stop-color="#0B2C4C"/>
<stop offset="0.45" stop-color="#00A99D"/>
<stop offset="1" stop-color="#81319B"/>
</linearGradient>
</defs>
</svg>
