<svg width="30" height="30" viewBox="0 0 30 30" fill="none" xmlns="http://www.w3.org/2000/svg">
<path d="M26.3523 14.3365L28.8032 8.45455C28.9919 8.00145 28.9421 7.48705 28.6697 7.07859C28.3974 6.6702 27.9418 6.42633 27.4509 6.42633H22.7048V3.78961C22.7048 2.65881 21.7849 1.73883 20.6541 1.73883H6.19956C5.83147 0.725684 4.85917 0 3.72046 0C2.26657 0 1.08374 1.18283 1.08374 2.63672V27.3633C1.08374 28.8172 2.26657 30 3.72046 30C5.17435 30 6.35718 28.8172 6.35718 27.3633V17.5591H15.7322V20.1959C15.7322 21.3267 16.6522 22.2466 17.783 22.2466H27.4509C27.9418 22.2466 28.3974 22.0028 28.6697 21.5944C28.942 21.1859 28.9919 20.6715 28.8031 20.2184L26.3523 14.3365ZM6.35718 3.49664H20.6541C20.8156 3.49664 20.947 3.62807 20.947 3.78961V15.5084C20.947 15.6699 20.8156 15.8013 20.6541 15.8013H6.35718V3.49664ZM24.5889 14.6745L27.0115 20.4888H18.8193C18.8193 20.4888 22.1856 16.9765 22.3882 16.601C22.5661 16.2714 22.7048 15.9098 22.7048 15.5084V8.18414H27.0115L24.5889 13.9985C24.4987 14.2148 24.4987 14.4582 24.5889 14.6745ZM19.1492 17.5591L17.49 19.3369V17.5591H19.1492ZM4.59936 27.3633C4.59936 27.8479 4.20509 28.2422 3.72046 28.2422C3.23583 28.2422 2.84155 27.8479 2.84155 27.3633V2.63672C2.84155 2.15209 3.23583 1.75781 3.72046 1.75781C4.20509 1.75781 4.59936 2.15209 4.59936 2.63672V27.3633Z" fill="url(#paint0_linear_3_1535)"/>
<path d="M16.881 8.16835C17.2242 7.82511 17.2242 7.26864 16.881 6.9254C16.5378 6.58216 15.9813 6.58216 15.638 6.9254L12.056 10.5074L11.0216 9.47294C10.6784 9.1297 10.1219 9.1297 9.77867 9.47294C9.43543 9.81618 9.43543 10.3726 9.77867 10.7159L11.4346 12.3718C11.6062 12.5434 11.8312 12.6293 12.056 12.6293C12.2809 12.6293 12.5059 12.5435 12.6775 12.3718L16.881 8.16835Z" fill="url(#paint1_linear_3_1535)"/>
<defs>
<linearGradient id="paint0_linear_3_1535" x1="15" y1="0" x2="15" y2="30" gradientUnits="userSpaceOnUse">
<stop stop-color="#81319B"/>
<stop offset="0.5" stop-color="#00A99D"/>
<stop offset="1" stop-color="#0B2C4C"/>
</linearGradient>
<linearGradient id="paint1_linear_3_1535" x1="13.3298" y1="6.66797" x2="13.3298" y2="12.6293" gradientUnits="userSpaceOnUse">
<stop stop-color="#81319B"/>
<stop offset="0.5" stop-color="#00A99D"/>
<stop offset="1" stop-color="#0B2C4C"/>
</linearGradient>
</defs>
</svg>
