<svg width="53" height="53" viewBox="0 0 53 53" fill="none" xmlns="http://www.w3.org/2000/svg">
<path d="M8.87085 42.6455V46.8205C8.87085 47.534 9.45126 48.1144 10.1648 48.1144H14.3399C15.0534 48.1144 15.6338 47.534 15.6338 46.8205V42.6455C15.6338 41.932 15.0534 41.3516 14.3399 41.3516H10.1648C9.45137 41.3516 8.87085 41.932 8.87085 42.6455ZM10.4236 42.9043H14.0811V46.5617H10.4236V42.9043Z" fill="url(#paint0_linear_6_8674)"/>
<path d="M17.9629 46.5625C17.534 46.5625 17.1865 46.91 17.1865 47.3389C17.1865 47.7677 17.534 48.1152 17.9629 48.1152H19.1016C19.5304 48.1152 19.8779 47.7677 19.8779 47.3389C19.8779 46.91 19.5304 46.5625 19.1016 46.5625H17.9629Z" fill="url(#paint1_linear_6_8674)"/>
<path d="M21.4307 46.5625C21.0018 46.5625 20.6543 46.91 20.6543 47.3389C20.6543 47.7677 21.0018 48.1152 21.4307 48.1152H22.5693C22.9982 48.1152 23.3457 47.7677 23.3457 47.3389C23.3457 46.91 22.9982 46.5625 22.5693 46.5625H21.4307Z" fill="url(#paint2_linear_6_8674)"/>
<path d="M24.8984 46.5625C24.4696 46.5625 24.1221 46.91 24.1221 47.3389C24.1221 47.7677 24.4696 48.1152 24.8984 48.1152H26.0371C26.466 48.1152 26.8135 47.7677 26.8135 47.3389C26.8135 46.91 26.466 46.5625 26.0371 46.5625H24.8984Z" fill="url(#paint3_linear_6_8674)"/>
<path d="M28.6427 44.7334C28.6427 44.3045 28.2952 43.957 27.8663 43.957H17.9629C17.534 43.957 17.1865 44.3045 17.1865 44.7334C17.1865 45.1623 17.534 45.5098 17.9629 45.5098H27.8663C28.2952 45.5098 28.6427 45.1623 28.6427 44.7334Z" fill="url(#paint4_linear_6_8674)"/>
<path d="M27.8663 41.3516H17.9629C17.534 41.3516 17.1865 41.6991 17.1865 42.1279C17.1865 42.5568 17.534 42.9043 17.9629 42.9043H27.8663C28.2952 42.9043 28.6427 42.5568 28.6427 42.1279C28.6427 41.6991 28.2952 41.3516 27.8663 41.3516Z" fill="url(#paint5_linear_6_8674)"/>
<path d="M18.7567 23.2695C14.4724 23.2695 10.9868 26.7551 10.9868 31.0394C10.9868 35.3238 14.4724 38.8094 18.7567 38.8094C23.0411 38.8094 26.5267 35.3238 26.5267 31.0394C26.5267 26.7551 23.0411 23.2695 18.7567 23.2695ZM18.7567 37.2567C15.3286 37.2567 12.5396 34.4676 12.5396 31.0394C12.5396 27.6112 15.3285 24.8223 18.7567 24.8223C22.1849 24.8223 24.974 27.6112 24.974 31.0394C24.974 34.4676 22.1848 37.2567 18.7567 37.2567Z" fill="url(#paint6_linear_6_8674)"/>
<path d="M21.67 28.6647L18.0394 32.2955L15.8917 30.1478C15.5886 29.8447 15.097 29.8446 14.7938 30.1479C14.4906 30.4511 14.4906 30.9427 14.7939 31.2458L17.4906 33.9424C17.6421 34.0939 17.8409 34.1697 18.0395 34.1697C18.2382 34.1697 18.4369 34.0939 18.5886 33.9424L22.7682 29.7627C23.0714 29.4594 23.0714 28.9679 22.7682 28.6647C22.4648 28.3618 21.9733 28.3618 21.67 28.6647Z" fill="url(#paint7_linear_6_8674)"/>
<path d="M49.0755 35.335L41.4621 29.2431C41.1329 28.9796 40.6922 28.9293 40.3124 29.1121C39.9323 29.2948 39.6962 29.6702 39.6962 30.0918V32.1194H38.6143C38.1854 32.1194 37.8379 32.467 37.8379 32.8958C37.8379 33.3247 38.1854 33.6722 38.6143 33.6722H40.4726C40.9015 33.6722 41.249 33.3247 41.249 32.8958V31.0611L47.6509 36.1835L41.249 41.3059V39.4712C41.249 39.0424 40.9015 38.6949 40.4726 38.6949H33.9972V33.6721H34.9913C35.4201 33.6721 35.7676 33.3246 35.7676 32.8957C35.7676 32.4668 35.4201 32.1193 34.9913 32.1193H33.9972V26.1247C34.7509 26.2593 35.5266 26.3296 36.3185 26.3296C43.5777 26.3296 49.4834 20.4238 49.4834 13.1647C49.4834 5.90557 43.5777 0 36.3185 0C33.677 0 31.1288 0.779473 28.9494 2.25426C28.5942 2.49452 28.5011 2.97721 28.7414 3.33238C28.9817 3.68743 29.4643 3.78049 29.8195 3.54034C31.7411 2.24008 33.9884 1.55273 36.3185 1.55273C42.7215 1.55273 47.9307 6.76185 47.9307 13.1649C47.9307 19.568 42.7216 24.7771 36.3185 24.7771C29.9155 24.7771 24.7062 19.568 24.7062 13.1649C24.7062 10.5011 25.6315 7.89845 27.3112 5.83642C27.582 5.50393 27.5321 5.01492 27.1997 4.74412C26.8672 4.47322 26.3782 4.52332 26.1074 4.85561C24.2046 7.19133 23.1559 10.1383 23.1536 13.155H6.41804C4.81821 13.155 3.5166 14.4566 3.5166 16.0564V41.4479C3.5166 41.8767 3.8641 42.2242 4.29297 42.2242C4.72183 42.2242 5.06934 41.8767 5.06934 41.4479V20.88H25.6581C27.3158 23.1642 29.6881 24.8975 32.4445 25.7478V50.0985C32.4445 50.8422 31.8394 51.4473 31.0958 51.4473H6.41804C5.67428 51.4473 5.06934 50.8421 5.06934 50.0985V45.071C5.06934 44.6422 4.72183 44.2946 4.29297 44.2946C3.8641 44.2946 3.5166 44.6422 3.5166 45.071V50.0985C3.5166 51.6984 4.81821 53 6.41804 53H31.0958C32.6956 53 33.9972 51.6984 33.9972 50.0985V40.2478H39.6962V42.2755C39.6962 42.6971 39.9323 43.0724 40.3124 43.2551C40.464 43.328 40.6251 43.3638 40.7851 43.3638C41.0261 43.3638 41.2643 43.2826 41.4621 43.1243L49.0753 37.0325C49.3346 36.8253 49.4832 36.516 49.4833 36.184C49.4833 35.8519 49.3348 35.5425 49.0755 35.335ZM9.78033 19.3273H5.06934V16.0564C5.06934 15.3127 5.67438 14.7077 6.41804 14.7077H9.78033V19.3273ZM11.3331 19.3273V14.7077H23.2444C23.4382 16.3597 23.9388 17.9191 24.6879 19.3273H11.3331Z" fill="url(#paint8_linear_6_8674)"/>
<path d="M37.8331 17.4374H34.8037C34.017 17.4374 33.377 16.7973 33.377 16.0106C33.377 15.5818 33.0295 15.2343 32.6006 15.2343C32.1717 15.2343 31.8242 15.5818 31.8242 16.0106C31.8242 17.6535 33.1608 18.9901 34.8037 18.9901H35.5421V20.2334C35.5421 20.6622 35.8896 21.0097 36.3185 21.0097C36.7473 21.0097 37.0948 20.6622 37.0948 20.2334V18.9901H37.8331C39.476 18.9901 40.8126 17.6535 40.8126 16.0106V15.368C40.8126 13.7251 39.476 12.3885 37.8331 12.3885H34.8037C34.017 12.3885 33.377 11.7484 33.377 10.9618V10.3191C33.377 9.53243 34.0171 8.89239 34.8037 8.89239H37.8331C38.6198 8.89239 39.2599 9.53253 39.2599 10.3191C39.2599 10.748 39.6074 11.0955 40.0362 11.0955C40.4651 11.0955 40.8126 10.748 40.8126 10.3191C40.8126 8.67625 39.476 7.33966 37.8331 7.33966H37.0948V6.09644C37.0948 5.66757 36.7473 5.32007 36.3185 5.32007C35.8896 5.32007 35.5421 5.66757 35.5421 6.09644V7.33966H34.8037C33.1608 7.33966 31.8242 8.67625 31.8242 10.3191V10.9618C31.8242 12.6047 33.1608 13.9413 34.8037 13.9413H37.8331C38.6198 13.9413 39.2599 14.5814 39.2599 15.368V16.0106C39.26 16.7974 38.6198 17.4374 37.8331 17.4374Z" fill="url(#paint9_linear_6_8674)"/>
<path d="M42.7218 18.4343C42.8552 18.5247 43.0065 18.568 43.1563 18.568C43.4053 18.568 43.6499 18.4485 43.7999 18.2268C45.8498 15.1991 45.8498 11.1307 43.8 8.10294C43.5595 7.74778 43.077 7.65493 42.7218 7.89529C42.3667 8.13565 42.2739 8.61835 42.5141 8.97351C44.2115 11.4806 44.2115 14.8493 42.5142 17.3561C42.2739 17.7113 42.3667 18.194 42.7218 18.4343Z" fill="url(#paint10_linear_6_8674)"/>
<path d="M29.9151 7.89515C29.56 7.65499 29.0773 7.74784 28.8369 8.1028C26.7871 11.1305 26.7871 15.199 28.837 18.2266C28.987 18.4484 29.2316 18.5678 29.4806 18.5678C29.6304 18.5678 29.7818 18.5245 29.9151 18.4342C30.2702 18.1938 30.363 17.7111 30.1227 17.3561C28.4254 14.8491 28.4254 11.4804 30.1228 8.97347C30.363 8.61831 30.2702 8.13561 29.9151 7.89515Z" fill="url(#paint11_linear_6_8674)"/>
<defs>
<linearGradient id="paint0_linear_6_8674" x1="12.2147" y1="21.9463" x2="12.2523" y2="48.1144" gradientUnits="userSpaceOnUse">
<stop stop-color="#81319B"/>
<stop offset="0.48" stop-color="#01847B"/>
<stop offset="1" stop-color="#0B2C4C"/>
</linearGradient>
<linearGradient id="paint1_linear_6_8674" x1="18.5293" y1="39.4412" x2="18.5322" y2="48.1152" gradientUnits="userSpaceOnUse">
<stop stop-color="#81319B"/>
<stop offset="0.48" stop-color="#01847B"/>
<stop offset="1" stop-color="#0B2C4C"/>
</linearGradient>
<linearGradient id="paint2_linear_6_8674" x1="22" y1="40.8905" x2="22" y2="48.1152" gradientUnits="userSpaceOnUse">
<stop stop-color="#81319B"/>
<stop offset="0.48" stop-color="#01847B"/>
<stop offset="1" stop-color="#0B2C4C"/>
</linearGradient>
<linearGradient id="paint3_linear_6_8674" x1="25.4678" y1="41.3563" x2="25.4678" y2="48.1152" gradientUnits="userSpaceOnUse">
<stop stop-color="#81319B"/>
<stop offset="0.48" stop-color="#01847B"/>
<stop offset="1" stop-color="#0B2C4C"/>
</linearGradient>
<linearGradient id="paint4_linear_6_8674" x1="22.9146" y1="41.2006" x2="22.9146" y2="45.5098" gradientUnits="userSpaceOnUse">
<stop stop-color="#81319B"/>
<stop offset="0.48" stop-color="#01847B"/>
<stop offset="1" stop-color="#0B2C4C"/>
</linearGradient>
<linearGradient id="paint5_linear_6_8674" x1="23.0323" y1="37.9395" x2="23.084" y2="44.5645" gradientUnits="userSpaceOnUse">
<stop stop-color="#81319B"/>
<stop offset="0.48" stop-color="#01847B"/>
<stop offset="1" stop-color="#0B2C4C"/>
</linearGradient>
<linearGradient id="paint6_linear_6_8674" x1="19.5126" y1="11.5438" x2="18.7362" y2="43.7889" gradientUnits="userSpaceOnUse">
<stop stop-color="#81319B"/>
<stop offset="0.48" stop-color="#01847B"/>
<stop offset="1" stop-color="#0B2C4C"/>
</linearGradient>
<linearGradient id="paint7_linear_6_8674" x1="18.781" y1="24.1723" x2="18.781" y2="38.0951" gradientUnits="userSpaceOnUse">
<stop stop-color="#81319B"/>
<stop offset="0.48" stop-color="#01847B"/>
<stop offset="1" stop-color="#0B2C4C"/>
</linearGradient>
<linearGradient id="paint8_linear_6_8674" x1="26.5" y1="0" x2="26.5" y2="53" gradientUnits="userSpaceOnUse">
<stop stop-color="#81319B"/>
<stop offset="0.48" stop-color="#01847B"/>
<stop offset="1" stop-color="#0B2C4C"/>
</linearGradient>
<linearGradient id="paint9_linear_6_8674" x1="36.3184" y1="5.32007" x2="36.3184" y2="21.0097" gradientUnits="userSpaceOnUse">
<stop stop-color="#81319B"/>
<stop offset="0.48" stop-color="#01847B"/>
<stop offset="1" stop-color="#0B2C4C"/>
</linearGradient>
<linearGradient id="paint10_linear_6_8674" x1="43.859" y1="7.76172" x2="43.859" y2="18.568" gradientUnits="userSpaceOnUse">
<stop stop-color="#81319B"/>
<stop offset="0.48" stop-color="#01847B"/>
<stop offset="1" stop-color="#0B2C4C"/>
</linearGradient>
<linearGradient id="paint11_linear_6_8674" x1="28.7779" y1="7.76172" x2="28.7779" y2="18.5678" gradientUnits="userSpaceOnUse">
<stop stop-color="#81319B"/>
<stop offset="0.48" stop-color="#01847B"/>
<stop offset="1" stop-color="#0B2C4C"/>
</linearGradient>
</defs>
</svg>
