<svg width="47" height="50" viewBox="0 0 47 50" fill="none" xmlns="http://www.w3.org/2000/svg">
<g clip-path="url(#clip0_59_3817)">
<path d="M35.2536 16.1393C35.2671 16.1403 35.2806 16.1413 35.2944 16.1413C35.3177 16.1413 35.341 16.1393 35.3638 16.1361C35.9742 16.1486 36.4627 16.6465 36.4634 17.2569C36.4634 17.5342 36.6883 17.7591 36.9657 17.7591C37.243 17.7591 37.4679 17.5342 37.4679 17.2569C37.4667 16.2585 36.7717 15.3948 35.7966 15.1799V14.6973C35.7966 14.42 35.5717 14.1951 35.2944 14.1951C35.017 14.1951 34.7921 14.42 34.7921 14.6973V15.2028C33.7611 15.4784 33.0941 16.4758 33.2331 17.534C33.3722 18.5922 34.2742 19.3833 35.3414 19.3833C35.9612 19.3833 36.4634 19.8858 36.4634 20.5055C36.4634 21.125 35.9612 21.6275 35.3414 21.6275C34.7217 21.6275 34.2195 21.125 34.2195 20.5055C34.2195 20.2282 33.9946 20.0033 33.7172 20.0033C33.4399 20.0033 33.215 20.2282 33.215 20.5055C33.2162 21.4679 33.8627 22.3098 34.7921 22.5597V23.11C34.7921 23.3873 35.017 23.6122 35.2944 23.6122C35.5717 23.6122 35.7966 23.3873 35.7966 23.11V22.5827C36.8573 22.3505 37.5726 21.3563 37.4556 20.2767C37.3389 19.1972 36.4274 18.3791 35.3414 18.3793C34.7389 18.3796 34.2438 17.9038 34.22 17.3017C34.1964 16.6997 34.6528 16.1864 35.2536 16.1396V16.1393Z" fill="url(#paint0_linear_59_3817)"/>
<path d="M35.3698 11.7395C32.28 11.7395 29.6432 13.7556 28.6554 16.4552H16.1897C15.9136 16.4552 15.6894 16.7041 15.6874 16.98L15.5687 34.5989H12.0155C11.7381 34.5989 11.5 34.7997 11.5 35.0776V37.3134C11.5064 39.4183 13.1642 41.1475 15.2669 41.2426V41.2537H30.7738V41.239C30.8993 41.2436 30.9511 41.2537 31.0305 41.2537H31.0413C33.2176 41.2502 34.9801 39.485 34.9801 37.3088V26.0043C35.1057 26.0111 35.2386 26.0148 35.3686 26.0148C39.3005 26.0148 42.5001 22.8091 42.5001 18.8769C42.5001 14.945 39.3019 11.7395 35.3698 11.7395ZM15.4579 40.2492H15.4547C13.83 40.247 12.5119 38.9332 12.5045 37.3083V35.6034H27.0697V37.3012C27.0704 38.3493 27.489 39.3541 28.2326 40.093C28.2853 40.1457 28.3508 40.1864 28.406 40.2492H15.4579ZM33.9756 37.3083C33.9758 38.9303 32.6626 40.246 31.0408 40.2492H31.0313C29.4029 40.2462 28.0823 38.9298 28.0742 37.3017V35.0776C28.0784 34.9491 28.0293 34.8248 27.9383 34.734C27.8473 34.6433 27.723 34.5945 27.5947 34.5989H16.5732L16.6885 17.4597H28.3766C28.2875 17.9195 28.2414 18.3864 28.239 18.8546C28.238 19.8446 28.4445 20.8236 28.8452 21.7288H24.1013C23.8237 21.7288 23.5991 21.9537 23.5991 22.231C23.5991 22.5084 23.8237 22.7333 24.1013 22.7333H29.3901C30.4263 24.3627 32.0826 25.4986 33.9756 25.8787V37.3083ZM35.3698 25.0106C31.9865 25.0106 29.2435 22.2678 29.2437 18.8843C29.2437 15.5007 31.9865 12.758 35.37 12.758C38.7533 12.758 41.4961 15.501 41.4961 18.8843C41.4924 22.2661 38.7519 25.0069 35.3698 25.0106Z" fill="url(#paint1_linear_59_3817)"/>
<path d="M20.8771 25.0715C19.9905 25.0715 19.2695 25.7697 19.2695 26.6281C19.2695 27.4864 19.9905 28.1846 20.8771 28.1846C21.7636 28.1846 22.4849 27.4864 22.4849 26.6281C22.4849 25.7697 21.7636 25.0715 20.8771 25.0715ZM20.8771 27.1801C20.5443 27.1801 20.274 26.9324 20.274 26.6281C20.274 26.3235 20.5445 26.076 20.8771 26.076C21.2096 26.076 21.4804 26.3237 21.4804 26.6281C21.4804 26.9324 21.2096 27.1801 20.8771 27.1801Z" fill="url(#paint2_linear_59_3817)"/>
<path d="M23.5986 26.6258C23.5986 26.9031 23.8233 27.128 24.1009 27.128H30.7969C31.0742 27.128 31.2991 26.9031 31.2991 26.6258C31.2991 26.3484 31.0742 26.1235 30.7969 26.1235H24.1009C23.8233 26.1235 23.5986 26.3484 23.5986 26.6258Z" fill="url(#paint3_linear_59_3817)"/>
<path d="M20.8771 20.7056C19.9905 20.7056 19.2695 21.404 19.2695 22.2623C19.2695 23.1207 19.9905 23.8189 20.8771 23.8189C21.7636 23.8189 22.4848 23.1207 22.4848 22.2623C22.4848 21.404 21.7636 20.7056 20.8771 20.7056ZM20.8771 22.8144C20.5443 22.8144 20.274 22.5667 20.274 22.2623C20.274 21.958 20.5445 21.7101 20.8771 21.7101C21.2096 21.7101 21.4804 21.9578 21.4804 22.2623C21.4804 22.5667 21.2096 22.8146 20.8771 22.8146V22.8144Z" fill="url(#paint4_linear_59_3817)"/>
<path d="M20.8771 29.437C19.9905 29.437 19.2695 30.1352 19.2695 30.9935C19.2695 31.8519 19.9905 32.5501 20.8771 32.5501C21.7636 32.5501 22.4849 31.8519 22.4849 30.9935C22.4849 30.1352 21.7636 29.437 20.8771 29.437ZM20.8771 31.5456C20.5443 31.5456 20.274 31.2981 20.274 30.9935C20.274 30.6892 20.5445 30.4415 20.8771 30.4415C21.2096 30.4415 21.4804 30.6892 21.4804 30.9935C21.4804 31.2979 21.2096 31.5456 20.8771 31.5456Z" fill="url(#paint5_linear_59_3817)"/>
<path d="M30.7969 30.5183H24.1009C23.8233 30.5183 23.5986 30.7432 23.5986 31.0206C23.5986 31.2979 23.8233 31.5228 24.1009 31.5228H30.7969C31.0742 31.5228 31.2991 31.2979 31.2991 31.0206C31.2991 30.7432 31.0742 30.5183 30.7969 30.5183Z" fill="url(#paint6_linear_59_3817)"/>
</g>
<defs>
<linearGradient id="paint0_linear_59_3817" x1="35.3575" y1="15.3569" x2="35.3575" y2="29.4998" gradientUnits="userSpaceOnUse">
<stop stop-color="#81319B"/>
<stop offset="0.5" stop-color="#00A99D"/>
<stop offset="1" stop-color="#0B2C4C"/>
</linearGradient>
<linearGradient id="paint1_linear_59_3817" x1="27" y1="11.7395" x2="27" y2="41.2537" gradientUnits="userSpaceOnUse">
<stop stop-color="#81319B"/>
<stop offset="0.5" stop-color="#00A99D"/>
<stop offset="1" stop-color="#0B2C4C"/>
</linearGradient>
<linearGradient id="paint2_linear_59_3817" x1="20.9282" y1="22.3572" x2="20.9282" y2="29.5715" gradientUnits="userSpaceOnUse">
<stop stop-color="#81319B"/>
<stop offset="0.372284" stop-color="#00A99D"/>
<stop offset="1" stop-color="#0B2C4C"/>
</linearGradient>
<linearGradient id="paint3_linear_59_3817" x1="27.4995" y1="23.5716" x2="27.4995" y2="28.7145" gradientUnits="userSpaceOnUse">
<stop stop-color="#81319B"/>
<stop offset="0.5" stop-color="#00A99D"/>
<stop offset="1" stop-color="#0B2C4C"/>
</linearGradient>
<linearGradient id="paint4_linear_59_3817" x1="20.7139" y1="15.2859" x2="20.9282" y2="32.2145" gradientUnits="userSpaceOnUse">
<stop stop-color="#81319B"/>
<stop offset="0.5" stop-color="#00A99D"/>
<stop offset="0.756272" stop-color="#1D8E9D"/>
<stop offset="1" stop-color="#0B2C4C"/>
</linearGradient>
<linearGradient id="paint5_linear_59_3817" x1="20.8772" y1="27.8572" x2="20.8772" y2="32.5501" gradientUnits="userSpaceOnUse">
<stop stop-color="#81319B"/>
<stop offset="0.5" stop-color="#00A99D"/>
<stop offset="1" stop-color="#0B2C4C"/>
</linearGradient>
<linearGradient id="paint6_linear_59_3817" x1="27.4995" y1="27.9999" x2="27.4995" y2="33.0713" gradientUnits="userSpaceOnUse">
<stop stop-color="#81319B"/>
<stop offset="0.5" stop-color="#00A99D"/>
<stop offset="1" stop-color="#0B2C4C"/>
</linearGradient>
<clipPath id="clip0_59_3817">
<rect width="31" height="31" fill="white" transform="translate(11.5 11)"/>
</clipPath>
</defs>
</svg>
