<svg width="30" height="30" viewBox="0 0 30 30" fill="none" xmlns="http://www.w3.org/2000/svg">
<path d="M13.9657 19.6553H16.0346C16.3202 19.6553 16.5518 19.8869 16.5518 20.1725V22.2416C16.5518 22.5272 16.3202 22.7586 16.0346 22.7586H13.9657C13.6801 22.7586 13.4485 22.5272 13.4485 22.2416V20.1725C13.4485 19.8869 13.6801 19.6553 13.9657 19.6553Z" fill="url(#paint0_linear_3_1542)"/>
<path d="M13.9657 6.72559H16.0346C16.3202 6.72559 16.5518 6.95698 16.5518 7.24285V16.5529C16.5518 16.8385 16.3202 17.0701 16.0346 17.0701H13.9657C13.6801 17.0701 13.4485 16.8385 13.4485 16.5529V7.24285C13.4485 6.95698 13.6801 6.72559 13.9657 6.72559Z" fill="url(#paint1_linear_3_1542)"/>
<path d="M6.36249 27.2594L4.50424 29.1177C4.35616 29.2657 4.31199 29.4882 4.39186 29.6814C4.47197 29.8748 4.66057 30.0009 4.86999 30.0007H10.8624C11.1481 30.0007 11.3795 29.7693 11.3795 29.4836V23.491C11.3795 23.2818 11.2536 23.0932 11.0602 23.0133C10.867 22.9332 10.6445 22.9774 10.4967 23.1252L8.59679 25.0251C7.87239 24.56 7.19949 24.0192 6.59 23.4113C3.70134 20.5252 2.49585 16.3585 3.39717 12.3758C4.29871 8.39311 7.18096 5.15176 11.0311 3.79109C11.2385 3.72013 11.3783 3.52582 11.3795 3.30655V1.12422C11.3806 0.9624 11.3055 0.80951 11.1769 0.711322C11.0483 0.613134 10.8812 0.580862 10.7253 0.624578C5.65824 2.12944 1.75772 6.19132 0.459763 11.3154C-0.838425 16.4393 0.657513 21.8685 4.3969 25.6044C5.0048 26.2098 5.66236 26.7634 6.36249 27.2594Z" fill="url(#paint2_linear_3_1542)"/>
<path d="M19.275 29.3773C24.3421 27.8724 28.2426 23.8106 29.5406 18.6865C30.8388 13.5624 29.3428 8.13342 25.6034 4.39747C24.9955 3.79209 24.338 3.23844 23.6378 2.74246L25.4961 0.883983C25.6442 0.736128 25.6883 0.51366 25.6082 0.320488C25.5281 0.127088 25.3395 0.000976562 25.1303 0.000976562H19.1379C18.8523 0.000976562 18.6209 0.2326 18.6209 0.518238V6.51091C18.6209 6.72011 18.7467 6.90847 18.9401 6.98858C19.1333 7.06869 19.3558 7.02451 19.5036 6.87666L21.4035 4.97675C22.1279 5.44183 22.8008 5.98267 23.4103 6.59056C26.299 9.4767 27.5045 13.6434 26.6032 17.6259C25.7016 21.6085 22.8194 24.8499 18.9692 26.2108C18.7619 26.2817 18.622 26.4761 18.6209 26.6953V28.8777C18.6197 29.0395 18.6948 29.1924 18.8234 29.2905C18.9518 29.3887 19.1191 29.421 19.275 29.3773Z" fill="url(#paint3_linear_3_1542)"/>
<defs>
<linearGradient id="paint0_linear_3_1542" x1="15.0002" y1="15.8334" x2="15.0002" y2="23.3334" gradientUnits="userSpaceOnUse">
<stop stop-color="#81319B"/>
<stop offset="0.5" stop-color="#00A99D"/>
<stop offset="0.945" stop-color="#162D4B"/>
</linearGradient>
<linearGradient id="paint1_linear_3_1542" x1="15.0002" y1="6.72559" x2="15.0001" y2="28.612" gradientUnits="userSpaceOnUse">
<stop stop-color="#81319B"/>
<stop offset="0.5" stop-color="#00A99D"/>
<stop offset="0.945" stop-color="#162D4B"/>
</linearGradient>
<linearGradient id="paint2_linear_3_1542" x1="5.68986" y1="0.605469" x2="5.68986" y2="30.0007" gradientUnits="userSpaceOnUse">
<stop stop-color="#81319B"/>
<stop offset="0.5" stop-color="#00A99D"/>
<stop offset="0.945" stop-color="#162D4B"/>
</linearGradient>
<linearGradient id="paint3_linear_3_1542" x1="24.3105" y1="0.000976562" x2="24.3105" y2="29.3964" gradientUnits="userSpaceOnUse">
<stop stop-color="#81319B"/>
<stop offset="0.5" stop-color="#00A99D"/>
<stop offset="0.945" stop-color="#162D4B"/>
</linearGradient>
</defs>
</svg>
