<svg width="29" height="29" viewBox="0 0 29 29" fill="none" xmlns="http://www.w3.org/2000/svg">
<path fill-rule="evenodd" clip-rule="evenodd" d="M20.2112 8.62422C19.7015 8.62422 19.22 8.14089 19.22 7.62913C19.22 7.08893 19.6731 6.63403 20.2112 6.63403C20.7682 6.63403 21.2024 7.06998 21.2024 7.62913C21.2024 8.16932 20.7493 8.62422 20.2112 8.62422ZM6.05107 19.6177C6.04635 19.6177 6.04635 19.6177 6.04163 19.6177C5.8953 19.6129 5.76786 19.5134 5.7301 19.3713L4.50289 14.7275C4.45569 14.5522 4.55953 14.3674 4.73889 14.32C4.91353 14.2726 5.09762 14.3768 5.14482 14.5569L6.07939 18.0919L7.20276 14.4953C7.24524 14.3579 7.37268 14.2631 7.519 14.2631H7.52372C7.67004 14.2631 7.79749 14.3626 7.83997 14.5L8.88782 18.0871L9.89791 14.5048C9.94983 14.3295 10.1292 14.2252 10.3038 14.2773C10.4785 14.3295 10.5823 14.5095 10.5304 14.6848L9.20878 19.376C9.17102 19.5182 9.03886 19.6177 8.89254 19.6177C8.74622 19.6177 8.61877 19.5229 8.57629 19.3808L7.51428 15.7415L6.37675 19.3902C6.32483 19.5229 6.19739 19.6177 6.05107 19.6177ZM13.0367 19.6177C13.032 19.6177 13.032 19.6177 13.0273 19.6177C12.881 19.6129 12.7535 19.5134 12.7158 19.3713L11.4886 14.7275C11.4414 14.5522 11.5452 14.3674 11.7246 14.32C11.8992 14.2726 12.0833 14.3768 12.1305 14.5569L13.0651 18.0919L14.1884 14.4953C14.2309 14.3579 14.3584 14.2631 14.5047 14.2631C14.651 14.2631 14.7784 14.3579 14.8209 14.5L15.9018 18.0871L16.8741 14.5095C16.9213 14.3342 17.1054 14.2299 17.2801 14.2773C17.4547 14.3247 17.5586 14.5095 17.5114 14.6848L16.2369 19.376C16.1992 19.5182 16.0717 19.6177 15.9207 19.6224H15.916C15.7697 19.6224 15.6422 19.5277 15.5997 19.3855L14.4952 15.7226L13.353 19.3855C13.3105 19.5229 13.1831 19.6177 13.0367 19.6177ZM20.0224 19.6177C20.0177 19.6177 20.0177 19.6177 20.013 19.6177C19.8667 19.6129 19.7392 19.5134 19.7015 19.3713L18.4742 14.7275C18.427 14.5522 18.5309 14.3674 18.7102 14.32C18.8849 14.2726 19.069 14.3768 19.1162 14.5569L20.0507 18.0919L21.1741 14.4953C21.2166 14.3579 21.344 14.2631 21.4904 14.2631C21.6367 14.2631 21.7641 14.3579 21.8066 14.5L22.8875 18.0871L23.8598 14.5095C23.907 14.3342 24.0911 14.2299 24.2657 14.2773C24.4404 14.3247 24.5442 14.5095 24.497 14.6848L23.2226 19.376C23.1849 19.5182 23.0574 19.6177 22.9064 19.6224H22.9017C22.7553 19.6224 22.6279 19.5277 22.5854 19.3855L21.4809 15.7226L20.3387 19.3855C20.2962 19.5229 20.1687 19.6177 20.0224 19.6177ZM23.6097 24.1667H5.39026C3.7524 24.1667 2.41663 22.8257 2.41663 21.1814V10.0458V7.81867C2.41663 7.03681 2.72343 6.29285 3.28512 5.72422C3.85152 5.15086 4.59729 4.83337 5.39026 4.83337H23.6097C24.4026 4.83337 25.1484 5.15086 25.7148 5.72422C26.2765 6.29285 26.5833 7.03681 26.5833 7.81867V10.0458V21.1814C26.5833 22.8257 25.2475 24.1667 23.6097 24.1667ZM5.39026 5.49677C4.13472 5.49677 3.07743 6.55821 3.07743 7.81867V9.71409H25.9225V7.81867C25.9225 6.55821 24.8652 5.49677 23.6097 5.49677H5.39026ZM3.07743 10.3775V21.1814C3.07743 22.4608 4.11584 23.5033 5.39026 23.5033H23.6097C24.8841 23.5033 25.9225 22.4608 25.9225 21.1814V10.3775H3.07743ZM10.8183 7.96082H8.9775C8.79342 7.96082 8.6471 7.81393 8.6471 7.62913C8.6471 7.44432 8.79342 7.29743 8.9775 7.29743H10.8183C11.0024 7.29743 11.1487 7.44432 11.1487 7.62913C11.1487 7.81393 11.0024 7.96082 10.8183 7.96082ZM14.7832 7.96082H12.9423C12.7583 7.96082 12.6119 7.81393 12.6119 7.62913C12.6119 7.44432 12.7583 7.29743 12.9423 7.29743H14.7832C14.9672 7.29743 15.1136 7.44432 15.1136 7.62913C15.1136 7.81393 14.9672 7.96082 14.7832 7.96082ZM6.90068 7.96082H5.05986C4.87577 7.96082 4.72945 7.81393 4.72945 7.62913C4.72945 7.44432 4.87577 7.29743 5.05986 7.29743H6.90068C7.08476 7.29743 7.23108 7.44432 7.23108 7.62913C7.23108 7.81393 7.08476 7.96082 6.90068 7.96082ZM22.8073 8.62422C22.2692 8.62422 21.816 8.16932 21.816 7.62913C21.816 7.06998 22.2503 6.63403 22.8073 6.63403C23.3642 6.63403 23.7985 7.06998 23.7985 7.62913C23.7985 8.16932 23.3453 8.62422 22.8073 8.62422ZM22.8073 7.29743C22.6137 7.29743 22.4768 7.43484 22.4768 7.62913C22.4768 7.7855 22.6185 7.96082 22.8073 7.96082C22.9961 7.96082 23.1377 7.7855 23.1377 7.62913C23.1377 7.43484 23.0008 7.29743 22.8073 7.29743ZM20.2112 7.29743C20.0555 7.29743 19.8808 7.43958 19.8808 7.62913C19.8808 7.77602 20.0649 7.96082 20.2112 7.96082C20.4 7.96082 20.5416 7.7855 20.5416 7.62913C20.5416 7.43484 20.4047 7.29743 20.2112 7.29743Z" fill="url(#paint0_linear_6_8857)"/>
<defs>
<linearGradient id="paint0_linear_6_8857" x1="14.5" y1="4.83337" x2="14.5" y2="24.1667" gradientUnits="userSpaceOnUse">
<stop offset="0.01" stop-color="#81319B"/>
<stop offset="0.45" stop-color="#00A99D"/>
<stop offset="1" stop-color="#0B2C4C"/>
</linearGradient>
</defs>
</svg>
