<svg width="313" height="332" viewBox="0 0 313 332" fill="none" xmlns="http://www.w3.org/2000/svg">
<path d="M112.803 178.852C106.161 182.2 96.091 201.896 94.5816 207.675" stroke="#FF5858" stroke-width="2.00772" stroke-linecap="round" stroke-linejoin="round" stroke-dasharray="4.02 4.02"/>
<path d="M199.15 178.848C205.792 182.196 215.862 201.892 217.372 207.671" stroke="#AD54E0" stroke-width="2.00772" stroke-linecap="round" stroke-linejoin="round" stroke-dasharray="4.02 4.02"/>
<path d="M134.689 127.964C134.689 126.657 134.972 125.494 135.537 124.475C136.103 123.445 136.889 122.646 137.894 122.081C138.913 121.502 140.063 121.213 141.345 121.213C142.917 121.213 144.262 121.628 145.38 122.458C146.499 123.287 147.247 124.419 147.624 125.852H144.079C143.815 125.299 143.438 124.878 142.948 124.589C142.47 124.299 141.923 124.155 141.307 124.155C140.314 124.155 139.51 124.501 138.894 125.192C138.278 125.883 137.97 126.807 137.97 127.964C137.97 129.121 138.278 130.045 138.894 130.736C139.51 131.427 140.314 131.773 141.307 131.773C141.923 131.773 142.47 131.628 142.948 131.339C143.438 131.05 143.815 130.629 144.079 130.076H147.624C147.247 131.509 146.499 132.64 145.38 133.47C144.262 134.287 142.917 134.696 141.345 134.696C140.063 134.696 138.913 134.413 137.894 133.847C136.889 133.269 136.103 132.471 135.537 131.452C134.972 130.434 134.689 129.271 134.689 127.964ZM156.35 134.602L153.597 129.605H152.824V134.602H149.599V121.364H155.011C156.054 121.364 156.941 121.546 157.67 121.911C158.412 122.275 158.965 122.778 159.329 123.419C159.694 124.048 159.876 124.752 159.876 125.531C159.876 126.411 159.625 127.197 159.122 127.889C158.632 128.58 157.902 129.07 156.934 129.359L159.989 134.602H156.35ZM152.824 127.323H154.822C155.413 127.323 155.853 127.178 156.142 126.889C156.444 126.6 156.595 126.191 156.595 125.663C156.595 125.161 156.444 124.765 156.142 124.475C155.853 124.186 155.413 124.042 154.822 124.042H152.824V127.323ZM176.891 121.364V134.602H173.667V126.663L170.706 134.602H168.104L165.125 126.644V134.602H161.9V121.364H165.709L169.424 130.528L173.101 121.364H176.891Z" fill="#0B2C4C"/>
<mask id="path-4-inside-1_6598_17644" fill="white">
<path d="M219.224 126.489C219.224 134.794 217.589 143.018 214.41 150.691C211.232 158.364 206.574 165.336 200.701 171.209C194.828 177.081 187.856 181.74 180.183 184.918C172.51 188.096 164.287 189.732 155.981 189.732V186.57C163.871 186.57 171.684 185.016 178.973 181.997C186.263 178.977 192.886 174.552 198.465 168.973C204.044 163.394 208.469 156.77 211.489 149.481C214.508 142.192 216.062 134.379 216.062 126.489H219.224Z"/>
</mask>
<path d="M219.224 126.489C219.224 134.794 217.589 143.018 214.41 150.691C211.232 158.364 206.574 165.336 200.701 171.209C194.828 177.081 187.856 181.74 180.183 184.918C172.51 188.096 164.287 189.732 155.981 189.732V186.57C163.871 186.57 171.684 185.016 178.973 181.997C186.263 178.977 192.886 174.552 198.465 168.973C204.044 163.394 208.469 156.77 211.489 149.481C214.508 142.192 216.062 134.379 216.062 126.489H219.224Z" stroke="#0B2C4C" stroke-width="16.1364" mask="url(#path-4-inside-1_6598_17644)"/>
<mask id="path-5-inside-2_6598_17644" fill="white">
<path d="M155.989 63.2483C164.294 63.2483 172.518 64.8841 180.191 68.0624C187.864 71.2407 194.836 75.8991 200.709 81.7718C206.581 87.6444 211.24 94.6163 214.418 102.289C217.596 109.962 219.232 118.186 219.232 126.491H216.07C216.07 118.601 214.516 110.789 211.497 103.499C208.477 96.21 204.052 89.5868 198.473 84.0078C192.894 78.4287 186.27 74.0032 178.981 70.9838C171.692 67.9645 163.879 66.4105 155.989 66.4105V63.2483Z"/>
</mask>
<path d="M155.989 63.2483C164.294 63.2483 172.518 64.8841 180.191 68.0624C187.864 71.2407 194.836 75.8991 200.709 81.7718C206.581 87.6444 211.24 94.6163 214.418 102.289C217.596 109.962 219.232 118.186 219.232 126.491H216.07C216.07 118.601 214.516 110.789 211.497 103.499C208.477 96.21 204.052 89.5868 198.473 84.0078C192.894 78.4287 186.27 74.0032 178.981 70.9838C171.692 67.9645 163.879 66.4105 155.989 66.4105V63.2483Z" stroke="#02ADC1" stroke-width="16.1364" mask="url(#path-5-inside-2_6598_17644)"/>
<mask id="path-6-inside-3_6598_17644" fill="white">
<path d="M92.7444 126.491C92.7444 118.186 94.3802 109.962 97.5585 102.289C100.737 94.6163 105.395 87.6444 111.268 81.7718C117.141 75.8991 124.112 71.2407 131.785 68.0624C139.458 64.8841 147.682 63.2483 155.987 63.2483L155.987 66.4105C148.097 66.4105 140.285 67.9645 132.995 70.9839C125.706 74.0032 119.083 78.4287 113.504 84.0078C107.925 89.5868 103.499 96.21 100.48 103.499C97.4606 110.789 95.9065 118.601 95.9066 126.491L92.7444 126.491Z"/>
</mask>
<path d="M92.7444 126.491C92.7444 118.186 94.3802 109.962 97.5585 102.289C100.737 94.6163 105.395 87.6444 111.268 81.7718C117.141 75.8991 124.112 71.2407 131.785 68.0624C139.458 64.8841 147.682 63.2483 155.987 63.2483L155.987 66.4105C148.097 66.4105 140.285 67.9645 132.995 70.9839C125.706 74.0032 119.083 78.4287 113.504 84.0078C107.925 89.5868 103.499 96.21 100.48 103.499C97.4606 110.789 95.9065 118.601 95.9066 126.491L92.7444 126.491Z" stroke="#AD54E0" stroke-width="16.1364" mask="url(#path-6-inside-3_6598_17644)"/>
<mask id="path-7-inside-4_6598_17644" fill="white">
<path d="M155.984 189.732C147.678 189.732 139.454 188.096 131.781 184.918C124.108 181.74 117.137 177.081 111.264 171.209C105.391 165.336 100.733 158.364 97.5546 150.691C94.3763 143.018 92.7405 134.794 92.7405 126.489L95.9026 126.489C95.9026 134.379 97.4567 142.192 100.476 149.481C103.495 156.77 107.921 163.394 113.5 168.973C119.079 174.552 125.702 178.977 132.992 181.997C140.281 185.016 148.094 186.57 155.984 186.57L155.984 189.732Z"/>
</mask>
<path d="M155.984 189.732C147.678 189.732 139.454 188.096 131.781 184.918C124.108 181.74 117.137 177.081 111.264 171.209C105.391 165.336 100.733 158.364 97.5546 150.691C94.3763 143.018 92.7405 134.794 92.7405 126.489L95.9026 126.489C95.9026 134.379 97.4567 142.192 100.476 149.481C103.495 156.77 107.921 163.394 113.5 168.973C119.079 174.552 125.702 178.977 132.992 181.997C140.281 185.016 148.094 186.57 155.984 186.57L155.984 189.732Z" stroke="#FF5858" stroke-width="16.1364" mask="url(#path-7-inside-4_6598_17644)"/>
<rect y="230.965" width="146.53" height="28.1854" rx="5.14141" fill="#AD54E0" fill-opacity="0.19"/>
<path d="M25.0456 243.609C24.8656 243.262 24.6156 243.002 24.2956 242.829C23.9756 242.649 23.6056 242.559 23.1856 242.559C22.7256 242.559 22.3156 242.662 21.9556 242.869C21.5956 243.075 21.3123 243.369 21.1056 243.749C20.9056 244.129 20.8056 244.569 20.8056 245.069C20.8056 245.569 20.9056 246.012 21.1056 246.399C21.3123 246.779 21.5956 247.072 21.9556 247.279C22.3156 247.485 22.7256 247.589 23.1856 247.589C23.8056 247.589 24.309 247.415 24.6956 247.069C25.0823 246.722 25.319 246.252 25.4056 245.659H22.7956V244.749H26.6256V245.639C26.5523 246.179 26.359 246.675 26.0456 247.129C25.739 247.582 25.3356 247.945 24.8356 248.219C24.3423 248.485 23.7923 248.619 23.1856 248.619C22.5323 248.619 21.9356 248.469 21.3956 248.169C20.8556 247.862 20.4256 247.439 20.1056 246.899C19.7923 246.359 19.6356 245.749 19.6356 245.069C19.6356 244.389 19.7923 243.779 20.1056 243.239C20.4256 242.699 20.8556 242.279 21.3956 241.979C21.9423 241.672 22.539 241.519 23.1856 241.519C23.9256 241.519 24.5823 241.702 25.1556 242.069C25.7356 242.429 26.1556 242.942 26.4156 243.609H25.0456ZM32.8 245.669C32.8 245.875 32.7867 246.062 32.76 246.229H28.55C28.5833 246.669 28.7467 247.022 29.04 247.289C29.3333 247.555 29.6933 247.689 30.12 247.689C30.7333 247.689 31.1667 247.432 31.42 246.919H32.65C32.4833 247.425 32.18 247.842 31.74 248.169C31.3067 248.489 30.7667 248.649 30.12 248.649C29.5933 248.649 29.12 248.532 28.7 248.299C28.2867 248.059 27.96 247.725 27.72 247.299C27.4867 246.865 27.37 246.365 27.37 245.799C27.37 245.232 27.4833 244.735 27.71 244.309C27.9433 243.875 28.2667 243.542 28.68 243.309C29.1 243.075 29.58 242.959 30.12 242.959C30.64 242.959 31.1033 243.072 31.51 243.299C31.9167 243.525 32.2333 243.845 32.46 244.259C32.6867 244.665 32.8 245.135 32.8 245.669ZM31.61 245.309C31.6033 244.889 31.4533 244.552 31.16 244.299C30.8667 244.045 30.5033 243.919 30.07 243.919C29.6767 243.919 29.34 244.045 29.06 244.299C28.78 244.545 28.6133 244.882 28.56 245.309H31.61ZM35.9219 248.649C35.4885 248.649 35.0985 248.572 34.7519 248.419C34.4119 248.259 34.1419 248.045 33.9419 247.779C33.7419 247.505 33.6352 247.202 33.6219 246.869H34.8019C34.8219 247.102 34.9319 247.299 35.1319 247.459C35.3385 247.612 35.5952 247.689 35.9019 247.689C36.2219 247.689 36.4685 247.629 36.6419 247.509C36.8219 247.382 36.9119 247.222 36.9119 247.029C36.9119 246.822 36.8119 246.669 36.6119 246.569C36.4185 246.469 36.1085 246.359 35.6819 246.239C35.2685 246.125 34.9319 246.015 34.6719 245.909C34.4119 245.802 34.1852 245.639 33.9919 245.419C33.8052 245.199 33.7119 244.909 33.7119 244.549C33.7119 244.255 33.7985 243.989 33.9719 243.749C34.1452 243.502 34.3919 243.309 34.7119 243.169C35.0385 243.029 35.4119 242.959 35.8319 242.959C36.4585 242.959 36.9619 243.119 37.3419 243.439C37.7285 243.752 37.9352 244.182 37.9619 244.729H36.8219C36.8019 244.482 36.7019 244.285 36.5219 244.139C36.3419 243.992 36.0985 243.919 35.7919 243.919C35.4919 243.919 35.2619 243.975 35.1019 244.089C34.9419 244.202 34.8619 244.352 34.8619 244.539C34.8619 244.685 34.9152 244.809 35.0219 244.909C35.1285 245.009 35.2585 245.089 35.4119 245.149C35.5652 245.202 35.7919 245.272 36.0919 245.359C36.4919 245.465 36.8185 245.575 37.0719 245.689C37.3319 245.795 37.5552 245.955 37.7419 246.169C37.9285 246.382 38.0252 246.665 38.0319 247.019C38.0319 247.332 37.9452 247.612 37.7719 247.859C37.5985 248.105 37.3519 248.299 37.0319 248.439C36.7185 248.579 36.3485 248.649 35.9219 248.649ZM40.5937 243.979V247.029C40.5937 247.235 40.6403 247.385 40.7337 247.479C40.8337 247.565 41.0003 247.609 41.2337 247.609H41.9337V248.559H41.0337C40.5203 248.559 40.127 248.439 39.8537 248.199C39.5803 247.959 39.4437 247.569 39.4437 247.029V243.979H38.7937V243.049H39.4437V241.679H40.5937V243.049H41.9337V243.979H40.5937ZM43.5644 242.319C43.3577 242.319 43.1844 242.249 43.0444 242.109C42.9044 241.969 42.8344 241.795 42.8344 241.589C42.8344 241.382 42.9044 241.209 43.0444 241.069C43.1844 240.929 43.3577 240.859 43.5644 240.859C43.7644 240.859 43.9344 240.929 44.0744 241.069C44.2144 241.209 44.2844 241.382 44.2844 241.589C44.2844 241.795 44.2144 241.969 44.0744 242.109C43.9344 242.249 43.7644 242.319 43.5644 242.319ZM44.1244 243.049V248.559H42.9844V243.049H44.1244ZM48.0111 248.649C47.4911 248.649 47.0211 248.532 46.6011 248.299C46.1811 248.059 45.8511 247.725 45.6111 247.299C45.3711 246.865 45.2511 246.365 45.2511 245.799C45.2511 245.239 45.3744 244.742 45.6211 244.309C45.8678 243.875 46.2044 243.542 46.6311 243.309C47.0578 243.075 47.5344 242.959 48.0611 242.959C48.5878 242.959 49.0644 243.075 49.4911 243.309C49.9178 243.542 50.2544 243.875 50.5011 244.309C50.7478 244.742 50.8711 245.239 50.8711 245.799C50.8711 246.359 50.7444 246.855 50.4911 247.289C50.2378 247.722 49.8911 248.059 49.4511 248.299C49.0178 248.532 48.5378 248.649 48.0111 248.649ZM48.0111 247.659C48.3044 247.659 48.5778 247.589 48.8311 247.449C49.0911 247.309 49.3011 247.099 49.4611 246.819C49.6211 246.539 49.7011 246.199 49.7011 245.799C49.7011 245.399 49.6244 245.062 49.4711 244.789C49.3178 244.509 49.1144 244.299 48.8611 244.159C48.6078 244.019 48.3344 243.949 48.0411 243.949C47.7478 243.949 47.4744 244.019 47.2211 244.159C46.9744 244.299 46.7778 244.509 46.6311 244.789C46.4844 245.062 46.4111 245.399 46.4111 245.799C46.4111 246.392 46.5611 246.852 46.8611 247.179C47.1678 247.499 47.5511 247.659 48.0111 247.659ZM49.0911 241.479L46.8811 242.569V241.729L49.0911 240.509V241.479ZM54.778 242.959C55.2114 242.959 55.598 243.049 55.938 243.229C56.2847 243.409 56.5547 243.675 56.748 244.029C56.9414 244.382 57.038 244.809 57.038 245.309V248.559H55.908V245.479C55.908 244.985 55.7847 244.609 55.538 244.349C55.2914 244.082 54.9547 243.949 54.528 243.949C54.1014 243.949 53.7614 244.082 53.508 244.349C53.2614 244.609 53.138 244.985 53.138 245.479V248.559H51.998V243.049H53.138V243.679C53.3247 243.452 53.5614 243.275 53.848 243.149C54.1414 243.022 54.4514 242.959 54.778 242.959ZM60.7098 245.779C60.7098 245.225 60.8232 244.735 61.0498 244.309C61.2832 243.882 61.5965 243.552 61.9898 243.319C62.3898 243.079 62.8332 242.959 63.3198 242.959C63.6798 242.959 64.0332 243.039 64.3798 243.199C64.7332 243.352 65.0132 243.559 65.2198 243.819V241.159H66.3698V248.559H65.2198V247.729C65.0332 247.995 64.7732 248.215 64.4398 248.389C64.1132 248.562 63.7365 248.649 63.3098 248.649C62.8298 248.649 62.3898 248.529 61.9898 248.289C61.5965 248.042 61.2832 247.702 61.0498 247.269C60.8232 246.829 60.7098 246.332 60.7098 245.779ZM65.2198 245.799C65.2198 245.419 65.1398 245.089 64.9798 244.809C64.8265 244.529 64.6232 244.315 64.3698 244.169C64.1165 244.022 63.8432 243.949 63.5498 243.949C63.2565 243.949 62.9832 244.022 62.7298 244.169C62.4765 244.309 62.2698 244.519 62.1098 244.799C61.9565 245.072 61.8798 245.399 61.8798 245.779C61.8798 246.159 61.9565 246.492 62.1098 246.779C62.2698 247.065 62.4765 247.285 62.7298 247.439C62.9898 247.585 63.2632 247.659 63.5498 247.659C63.8432 247.659 64.1165 247.585 64.3698 247.439C64.6232 247.292 64.8265 247.079 64.9798 246.799C65.1398 246.512 65.2198 246.179 65.2198 245.799ZM72.9172 245.669C72.9172 245.875 72.9039 246.062 72.8772 246.229H68.6672C68.7005 246.669 68.8639 247.022 69.1572 247.289C69.4505 247.555 69.8105 247.689 70.2372 247.689C70.8505 247.689 71.2839 247.432 71.5372 246.919H72.7672C72.6005 247.425 72.2972 247.842 71.8572 248.169C71.4239 248.489 70.8839 248.649 70.2372 248.649C69.7105 248.649 69.2372 248.532 68.8172 248.299C68.4039 248.059 68.0772 247.725 67.8372 247.299C67.6039 246.865 67.4872 246.365 67.4872 245.799C67.4872 245.232 67.6005 244.735 67.8272 244.309C68.0605 243.875 68.3839 243.542 68.7972 243.309C69.2172 243.075 69.6972 242.959 70.2372 242.959C70.7572 242.959 71.2205 243.072 71.6272 243.299C72.0339 243.525 72.3505 243.845 72.5772 244.259C72.8039 244.665 72.9172 245.135 72.9172 245.669ZM71.7272 245.309C71.7205 244.889 71.5705 244.552 71.2772 244.299C70.9839 244.045 70.6205 243.919 70.1872 243.919C69.7939 243.919 69.4572 244.045 69.1772 244.299C68.8972 244.545 68.7305 244.882 68.6772 245.309H71.7272ZM76.2567 245.799C76.2567 245.232 76.3701 244.735 76.5967 244.309C76.8301 243.875 77.1501 243.542 77.5567 243.309C77.9634 243.075 78.4301 242.959 78.9567 242.959C79.6234 242.959 80.1734 243.119 80.6067 243.439C81.0467 243.752 81.3434 244.202 81.4967 244.789H80.2667C80.1667 244.515 80.0067 244.302 79.7867 244.149C79.5667 243.995 79.2901 243.919 78.9567 243.919C78.4901 243.919 78.1167 244.085 77.8367 244.419C77.5634 244.745 77.4267 245.205 77.4267 245.799C77.4267 246.392 77.5634 246.855 77.8367 247.189C78.1167 247.522 78.4901 247.689 78.9567 247.689C79.6167 247.689 80.0534 247.399 80.2667 246.819H81.4967C81.3367 247.379 81.0367 247.825 80.5967 248.159C80.1567 248.485 79.6101 248.649 78.9567 248.649C78.4301 248.649 77.9634 248.532 77.5567 248.299C77.1501 248.059 76.8301 247.725 76.5967 247.299C76.3701 246.865 76.2567 246.365 76.2567 245.799ZM85.0228 248.649C84.5028 248.649 84.0328 248.532 83.6128 248.299C83.1928 248.059 82.8628 247.725 82.6228 247.299C82.3828 246.865 82.2628 246.365 82.2628 245.799C82.2628 245.239 82.3861 244.742 82.6328 244.309C82.8795 243.875 83.2161 243.542 83.6428 243.309C84.0695 243.075 84.5461 242.959 85.0728 242.959C85.5995 242.959 86.0761 243.075 86.5028 243.309C86.9295 243.542 87.2661 243.875 87.5128 244.309C87.7595 244.742 87.8828 245.239 87.8828 245.799C87.8828 246.359 87.7561 246.855 87.5028 247.289C87.2495 247.722 86.9028 248.059 86.4628 248.299C86.0295 248.532 85.5495 248.649 85.0228 248.649ZM85.0228 247.659C85.3161 247.659 85.5895 247.589 85.8428 247.449C86.1028 247.309 86.3128 247.099 86.4728 246.819C86.6328 246.539 86.7128 246.199 86.7128 245.799C86.7128 245.399 86.6361 245.062 86.4828 244.789C86.3295 244.509 86.1261 244.299 85.8728 244.159C85.6195 244.019 85.3461 243.949 85.0528 243.949C84.7595 243.949 84.4861 244.019 84.2328 244.159C83.9861 244.299 83.7895 244.509 83.6428 244.789C83.4961 245.062 83.4228 245.399 83.4228 245.799C83.4228 246.392 83.5728 246.852 83.8728 247.179C84.1795 247.499 84.5628 247.659 85.0228 247.659ZM91.7898 242.959C92.2231 242.959 92.6098 243.049 92.9498 243.229C93.2964 243.409 93.5664 243.675 93.7598 244.029C93.9531 244.382 94.0498 244.809 94.0498 245.309V248.559H92.9198V245.479C92.9198 244.985 92.7964 244.609 92.5498 244.349C92.3031 244.082 91.9664 243.949 91.5398 243.949C91.1131 243.949 90.7731 244.082 90.5198 244.349C90.2731 244.609 90.1498 244.985 90.1498 245.479V248.559H89.0098V243.049H90.1498V243.679C90.3364 243.452 90.5731 243.275 90.8598 243.149C91.1531 243.022 91.4631 242.959 91.7898 242.959ZM96.8339 243.979V247.029C96.8339 247.235 96.8806 247.385 96.9739 247.479C97.0739 247.565 97.2406 247.609 97.4739 247.609H98.1739V248.559H97.2739C96.7606 248.559 96.3672 248.439 96.0939 248.199C95.8206 247.959 95.6839 247.569 95.6839 247.029V243.979H95.0339V243.049H95.6839V241.679H96.8339V243.049H98.1739V243.979H96.8339ZM98.8446 245.779C98.8446 245.225 98.9579 244.735 99.1846 244.309C99.4179 243.882 99.7313 243.552 100.125 243.319C100.525 243.079 100.965 242.959 101.445 242.959C101.878 242.959 102.255 243.045 102.575 243.219C102.901 243.385 103.161 243.595 103.355 243.849V243.049H104.505V248.559H103.355V247.739C103.161 247.999 102.898 248.215 102.565 248.389C102.231 248.562 101.851 248.649 101.425 248.649C100.951 248.649 100.518 248.529 100.125 248.289C99.7313 248.042 99.4179 247.702 99.1846 247.269C98.9579 246.829 98.8446 246.332 98.8446 245.779ZM103.355 245.799C103.355 245.419 103.275 245.089 103.115 244.809C102.961 244.529 102.758 244.315 102.505 244.169C102.251 244.022 101.978 243.949 101.685 243.949C101.391 243.949 101.118 244.022 100.865 244.169C100.611 244.309 100.405 244.519 100.245 244.799C100.091 245.072 100.015 245.399 100.015 245.779C100.015 246.159 100.091 246.492 100.245 246.779C100.405 247.065 100.611 247.285 100.865 247.439C101.125 247.585 101.398 247.659 101.685 247.659C101.978 247.659 102.251 247.585 102.505 247.439C102.758 247.292 102.961 247.079 103.115 246.799C103.275 246.512 103.355 246.179 103.355 245.799ZM105.622 245.799C105.622 245.232 105.735 244.735 105.962 244.309C106.195 243.875 106.515 243.542 106.922 243.309C107.329 243.075 107.795 242.959 108.322 242.959C108.989 242.959 109.539 243.119 109.972 243.439C110.412 243.752 110.709 244.202 110.862 244.789L109.632 244.789C109.532 244.515 109.372 244.302 109.152 244.149C108.932 243.995 108.655 243.919 108.322 243.919C107.855 243.919 107.482 244.085 107.202 244.419C106.929 244.745 106.792 245.205 106.792 245.799C106.792 246.392 106.929 246.855 107.202 247.189C107.482 247.522 107.855 247.689 108.322 247.689C108.982 247.689 109.419 247.399 109.632 246.819H110.862C110.702 247.379 110.402 247.825 109.962 248.159C109.522 248.485 108.975 248.649 108.322 248.649C107.795 248.649 107.329 248.532 106.922 248.299C106.515 248.059 106.195 247.725 105.962 247.299C105.735 246.865 105.622 246.365 105.622 245.799ZM113.328 243.979V247.029C113.328 247.235 113.375 247.385 113.468 247.479C113.568 247.565 113.735 247.609 113.968 247.609H114.668V248.559H113.768C113.255 248.559 112.861 248.439 112.588 248.199C112.315 247.959 112.178 247.569 112.178 247.029V243.979H111.528V243.049H112.178V241.679H113.328V243.049H114.668V243.979H113.328ZM118.109 248.649C117.589 248.649 117.119 248.532 116.699 248.299C116.279 248.059 115.949 247.725 115.709 247.299C115.469 246.865 115.349 246.365 115.349 245.799C115.349 245.239 115.472 244.742 115.719 244.309C115.965 243.875 116.302 243.542 116.729 243.309C117.155 243.075 117.632 242.959 118.159 242.959C118.685 242.959 119.162 243.075 119.589 243.309C120.015 243.542 120.352 243.875 120.599 244.309C120.845 244.742 120.969 245.239 120.969 245.799C120.969 246.359 120.842 246.855 120.589 247.289C120.335 247.722 119.989 248.059 119.549 248.299C119.115 248.532 118.635 248.649 118.109 248.649ZM118.109 247.659C118.402 247.659 118.675 247.589 118.929 247.449C119.189 247.309 119.399 247.099 119.559 246.819C119.719 246.539 119.799 246.199 119.799 245.799C119.799 245.399 119.722 245.062 119.569 244.789C119.415 244.509 119.212 244.299 118.959 244.159C118.705 244.019 118.432 243.949 118.139 243.949C117.845 243.949 117.572 244.019 117.319 244.159C117.072 244.299 116.875 244.509 116.729 244.789C116.582 245.062 116.509 245.399 116.509 245.799C116.509 246.392 116.659 246.852 116.959 247.179C117.265 247.499 117.649 247.659 118.109 247.659ZM124.096 248.649C123.662 248.649 123.272 248.572 122.926 248.419C122.586 248.259 122.316 248.045 122.116 247.779C121.916 247.505 121.809 247.202 121.796 246.869H122.976C122.996 247.102 123.106 247.299 123.306 247.459C123.512 247.612 123.769 247.689 124.076 247.689C124.396 247.689 124.642 247.629 124.816 247.509C124.996 247.382 125.086 247.222 125.086 247.029C125.086 246.822 124.986 246.669 124.786 246.569C124.592 246.469 124.282 246.359 123.856 246.239C123.442 246.125 123.106 246.015 122.846 245.909C122.586 245.802 122.359 245.639 122.166 245.419C121.979 245.199 121.886 244.909 121.886 244.549C121.886 244.255 121.972 243.989 122.146 243.749C122.319 243.502 122.566 243.309 122.886 243.169C123.212 243.029 123.586 242.959 124.006 242.959C124.632 242.959 125.136 243.119 125.516 243.439C125.902 243.752 126.109 244.182 126.136 244.729H124.996C124.976 244.482 124.876 244.285 124.696 244.139C124.516 243.992 124.272 243.919 123.966 243.919C123.666 243.919 123.436 243.975 123.276 244.089C123.116 244.202 123.036 244.352 123.036 244.539C123.036 244.685 123.089 244.809 123.196 244.909C123.302 245.009 123.432 245.089 123.586 245.149C123.739 245.202 123.966 245.272 124.266 245.359C124.666 245.465 124.992 245.575 125.246 245.689C125.506 245.795 125.729 245.955 125.916 246.169C126.102 246.382 126.199 246.665 126.206 247.019C126.206 247.332 126.119 247.612 125.946 247.859C125.772 248.105 125.526 248.299 125.206 248.439C124.892 248.579 124.522 248.649 124.096 248.649Z" fill="#AD54E0"/>
<rect x="165.531" y="230.965" width="146.53" height="28.1854" rx="5.14141" fill="#FFEDED"/>
<path d="M176.187 242.529V244.569H178.587V245.499H176.187V247.629H178.887V248.559H175.047V241.599H178.887V242.529H176.187ZM183.071 242.959C183.504 242.959 183.891 243.049 184.231 243.229C184.578 243.409 184.848 243.675 185.041 244.029C185.234 244.382 185.331 244.809 185.331 245.309V248.559H184.201V245.479C184.201 244.985 184.078 244.609 183.831 244.349C183.584 244.082 183.248 243.949 182.821 243.949C182.394 243.949 182.054 244.082 181.801 244.349C181.554 244.609 181.431 244.985 181.431 245.479V248.559H180.291V243.049H181.431V243.679C181.618 243.452 181.854 243.275 182.141 243.149C182.434 243.022 182.744 242.959 183.071 242.959ZM188.915 247.539L190.475 243.049H191.685L189.585 248.559H188.225L186.135 243.049H187.355L188.915 247.539ZM193.687 243.049V248.559H192.547V243.049H193.687ZM194.147 241.569L191.937 242.659V241.819L194.147 240.599V241.569ZM197.574 248.649C197.054 248.649 196.584 248.532 196.164 248.299C195.744 248.059 195.414 247.725 195.174 247.299C194.934 246.865 194.814 246.365 194.814 245.799C194.814 245.239 194.937 244.742 195.184 244.309C195.43 243.875 195.767 243.542 196.194 243.309C196.62 243.075 197.097 242.959 197.624 242.959C198.15 242.959 198.627 243.075 199.054 243.309C199.48 243.542 199.817 243.875 200.064 244.309C200.31 244.742 200.434 245.239 200.434 245.799C200.434 246.359 200.307 246.855 200.054 247.289C199.8 247.722 199.454 248.059 199.014 248.299C198.58 248.532 198.1 248.649 197.574 248.649ZM197.574 247.659C197.867 247.659 198.14 247.589 198.394 247.449C198.654 247.309 198.864 247.099 199.024 246.819C199.184 246.539 199.264 246.199 199.264 245.799C199.264 245.399 199.187 245.062 199.034 244.789C198.88 244.509 198.677 244.299 198.424 244.159C198.17 244.019 197.897 243.949 197.604 243.949C197.31 243.949 197.037 244.019 196.784 244.159C196.537 244.299 196.34 244.509 196.194 244.789C196.047 245.062 195.974 245.399 195.974 245.799C195.974 246.392 196.124 246.852 196.424 247.179C196.73 247.499 197.114 247.659 197.574 247.659ZM203.778 245.779C203.778 245.225 203.892 244.735 204.118 244.309C204.352 243.882 204.665 243.552 205.058 243.319C205.458 243.079 205.902 242.959 206.388 242.959C206.748 242.959 207.102 243.039 207.448 243.199C207.802 243.352 208.082 243.559 208.288 243.819V241.159H209.438V248.559H208.288V247.729C208.102 247.995 207.842 248.215 207.508 248.389C207.182 248.562 206.805 248.649 206.378 248.649C205.898 248.649 205.458 248.529 205.058 248.289C204.665 248.042 204.352 247.702 204.118 247.269C203.892 246.829 203.778 246.332 203.778 245.779ZM208.288 245.799C208.288 245.419 208.208 245.089 208.048 244.809C207.895 244.529 207.692 244.315 207.438 244.169C207.185 244.022 206.912 243.949 206.618 243.949C206.325 243.949 206.052 244.022 205.798 244.169C205.545 244.309 205.338 244.519 205.178 244.799C205.025 245.072 204.948 245.399 204.948 245.779C204.948 246.159 205.025 246.492 205.178 246.779C205.338 247.065 205.545 247.285 205.798 247.439C206.058 247.585 206.332 247.659 206.618 247.659C206.912 247.659 207.185 247.585 207.438 247.439C207.692 247.292 207.895 247.079 208.048 246.799C208.208 246.512 208.288 246.179 208.288 245.799ZM215.986 245.669C215.986 245.875 215.972 246.062 215.946 246.229H211.736C211.769 246.669 211.932 247.022 212.226 247.289C212.519 247.555 212.879 247.689 213.306 247.689C213.919 247.689 214.352 247.432 214.606 246.919H215.836C215.669 247.425 215.366 247.842 214.926 248.169C214.492 248.489 213.952 248.649 213.306 248.649C212.779 248.649 212.306 248.532 211.886 248.299C211.472 248.059 211.146 247.725 210.906 247.299C210.672 246.865 210.556 246.365 210.556 245.799C210.556 245.232 210.669 244.735 210.896 244.309C211.129 243.875 211.452 243.542 211.866 243.309C212.286 243.075 212.766 242.959 213.306 242.959C213.826 242.959 214.289 243.072 214.696 243.299C215.102 243.525 215.419 243.845 215.646 244.259C215.872 244.665 215.986 245.135 215.986 245.669ZM214.796 245.309C214.789 244.889 214.639 244.552 214.346 244.299C214.052 244.045 213.689 243.919 213.256 243.919C212.862 243.919 212.526 244.045 212.246 244.299C211.966 244.545 211.799 244.882 211.746 245.309H214.796ZM219.325 245.799C219.325 245.232 219.438 244.735 219.665 244.309C219.898 243.875 220.218 243.542 220.625 243.309C221.032 243.075 221.498 242.959 222.025 242.959C222.692 242.959 223.242 243.119 223.675 243.439C224.115 243.752 224.412 244.202 224.565 244.789H223.335C223.235 244.515 223.075 244.302 222.855 244.149C222.635 243.995 222.358 243.919 222.025 243.919C221.558 243.919 221.185 244.085 220.905 244.419C220.632 244.745 220.495 245.205 220.495 245.799C220.495 246.392 220.632 246.855 220.905 247.189C221.185 247.522 221.558 247.689 222.025 247.689C222.685 247.689 223.122 247.399 223.335 246.819H224.565C224.405 247.379 224.105 247.825 223.665 248.159C223.225 248.485 222.678 248.649 222.025 248.649C221.498 248.649 221.032 248.532 220.625 248.299C220.218 248.059 219.898 247.725 219.665 247.299C219.438 246.865 219.325 246.365 219.325 245.799ZM228.091 248.649C227.571 248.649 227.101 248.532 226.681 248.299C226.261 248.059 225.931 247.725 225.691 247.299C225.451 246.865 225.331 246.365 225.331 245.799C225.331 245.239 225.455 244.742 225.701 244.309C225.948 243.875 226.285 243.542 226.711 243.309C227.138 243.075 227.615 242.959 228.141 242.959C228.668 242.959 229.145 243.075 229.571 243.309C229.998 243.542 230.335 243.875 230.581 244.309C230.828 244.742 230.951 245.239 230.951 245.799C230.951 246.359 230.825 246.855 230.571 247.289C230.318 247.722 229.971 248.059 229.531 248.299C229.098 248.532 228.618 248.649 228.091 248.649ZM228.091 247.659C228.385 247.659 228.658 247.589 228.911 247.449C229.171 247.309 229.381 247.099 229.541 246.819C229.701 246.539 229.781 246.199 229.781 245.799C229.781 245.399 229.705 245.062 229.551 244.789C229.398 244.509 229.195 244.299 228.941 244.159C228.688 244.019 228.415 243.949 228.121 243.949C227.828 243.949 227.555 244.019 227.301 244.159C227.055 244.299 226.858 244.509 226.711 244.789C226.565 245.062 226.491 245.399 226.491 245.799C226.491 246.392 226.641 246.852 226.941 247.179C227.248 247.499 227.631 247.659 228.091 247.659ZM233.218 243.849C233.385 243.569 233.605 243.352 233.878 243.199C234.158 243.039 234.488 242.959 234.868 242.959V244.139H234.578C234.131 244.139 233.791 244.252 233.558 244.479C233.331 244.705 233.218 245.099 233.218 245.659V248.559H232.078V243.049H233.218V243.849ZM237.056 243.849C237.223 243.569 237.443 243.352 237.716 243.199C237.996 243.039 238.326 242.959 238.706 242.959V244.139H238.416C237.969 244.139 237.629 244.252 237.396 244.479C237.169 244.705 237.056 245.099 237.056 245.659V248.559H235.916V243.049H237.056V243.849ZM244.804 245.669C244.804 245.875 244.791 246.062 244.764 246.229H240.554C240.587 246.669 240.751 247.022 241.044 247.289C241.337 247.555 241.697 247.689 242.124 247.689C242.737 247.689 243.171 247.432 243.424 246.919H244.654C244.487 247.425 244.184 247.842 243.744 248.169C243.311 248.489 242.771 248.649 242.124 248.649C241.597 248.649 241.124 248.532 240.704 248.299C240.291 248.059 239.964 247.725 239.724 247.299C239.491 246.865 239.374 246.365 239.374 245.799C239.374 245.232 239.487 244.735 239.714 244.309C239.947 243.875 240.271 243.542 240.684 243.309C241.104 243.075 241.584 242.959 242.124 242.959C242.644 242.959 243.107 243.072 243.514 243.299C243.921 243.525 244.237 243.845 244.464 244.259C244.691 244.665 244.804 245.135 244.804 245.669ZM243.614 245.309C243.607 244.889 243.457 244.552 243.164 244.299C242.871 244.045 242.507 243.919 242.074 243.919C241.681 243.919 241.344 244.045 241.064 244.299C240.784 244.545 240.617 244.882 240.564 245.309H243.614ZM248.316 248.649C247.796 248.649 247.326 248.532 246.906 248.299C246.486 248.059 246.156 247.725 245.916 247.299C245.676 246.865 245.556 246.365 245.556 245.799C245.556 245.239 245.679 244.742 245.926 244.309C246.172 243.875 246.509 243.542 246.936 243.309C247.362 243.075 247.839 242.959 248.366 242.959C248.892 242.959 249.369 243.075 249.796 243.309C250.222 243.542 250.559 243.875 250.806 244.309C251.052 244.742 251.176 245.239 251.176 245.799C251.176 246.359 251.049 246.855 250.796 247.289C250.542 247.722 250.196 248.059 249.756 248.299C249.322 248.532 248.842 248.649 248.316 248.649ZM248.316 247.659C248.609 247.659 248.882 247.589 249.136 247.449C249.396 247.309 249.606 247.099 249.766 246.819C249.926 246.539 250.006 246.199 250.006 245.799C250.006 245.399 249.929 245.062 249.776 244.789C249.622 244.509 249.419 244.299 249.166 244.159C248.912 244.019 248.639 243.949 248.346 243.949C248.052 243.949 247.779 244.019 247.526 244.159C247.279 244.299 247.082 244.509 246.936 244.789C246.789 245.062 246.716 245.399 246.716 245.799C246.716 246.392 246.866 246.852 247.166 247.179C247.472 247.499 247.856 247.659 248.316 247.659ZM254.52 245.779C254.52 245.225 254.634 244.735 254.86 244.309C255.094 243.882 255.407 243.552 255.8 243.319C256.2 243.079 256.64 242.959 257.12 242.959C257.554 242.959 257.93 243.045 258.25 243.219C258.577 243.385 258.837 243.595 259.03 243.849V243.049H260.18V248.559H259.03V247.739C258.837 247.999 258.574 248.215 258.24 248.389C257.907 248.562 257.527 248.649 257.1 248.649C256.627 248.649 256.194 248.529 255.8 248.289C255.407 248.042 255.094 247.702 254.86 247.269C254.634 246.829 254.52 246.332 254.52 245.779ZM259.03 245.799C259.03 245.419 258.95 245.089 258.79 244.809C258.637 244.529 258.434 244.315 258.18 244.169C257.927 244.022 257.654 243.949 257.36 243.949C257.067 243.949 256.794 244.022 256.54 244.169C256.287 244.309 256.08 244.519 255.92 244.799C255.767 245.072 255.69 245.399 255.69 245.779C255.69 246.159 255.767 246.492 255.92 246.779C256.08 247.065 256.287 247.285 256.54 247.439C256.8 247.585 257.074 247.659 257.36 247.659C257.654 247.659 257.927 247.585 258.18 247.439C258.434 247.292 258.637 247.079 258.79 246.799C258.95 246.512 259.03 246.179 259.03 245.799ZM263.895 245.799C263.895 245.232 264.009 244.735 264.235 244.309C264.469 243.875 264.789 243.542 265.195 243.309C265.602 243.075 266.069 242.959 266.595 242.959C267.262 242.959 267.812 243.119 268.245 243.439C268.685 243.752 268.982 244.202 269.135 244.789H267.905C267.805 244.515 267.645 244.302 267.425 244.149C267.205 243.995 266.929 243.919 266.595 243.919C266.129 243.919 265.755 244.085 265.475 244.419C265.202 244.745 265.065 245.205 265.065 245.799C265.065 246.392 265.202 246.855 265.475 247.189C265.755 247.522 266.129 247.689 266.595 247.689C267.255 247.689 267.692 247.399 267.905 246.819L269.135 246.819C268.975 247.379 268.675 247.825 268.235 248.159C267.795 248.485 267.249 248.649 266.595 248.649C266.069 248.649 265.602 248.532 265.195 248.299C264.789 248.059 264.469 247.725 264.235 247.299C264.009 246.865 263.895 246.365 263.895 245.799ZM271.411 241.159V248.559H270.271V241.159H271.411ZM273.488 242.319C273.282 242.319 273.108 242.249 272.968 242.109C272.828 241.969 272.758 241.795 272.758 241.589C272.758 241.382 272.828 241.209 272.968 241.069C273.108 240.929 273.282 240.859 273.488 240.859C273.688 240.859 273.858 240.929 273.998 241.069C274.138 241.209 274.208 241.382 274.208 241.589C274.208 241.795 274.138 241.969 273.998 242.109C273.858 242.249 273.688 242.319 273.488 242.319ZM274.048 243.049V248.559H272.908V243.049H274.048ZM280.595 245.669C280.595 245.875 280.582 246.062 280.555 246.229H276.345C276.378 246.669 276.542 247.022 276.835 247.289C277.128 247.555 277.488 247.689 277.915 247.689C278.528 247.689 278.962 247.432 279.215 246.919H280.445C280.278 247.425 279.975 247.842 279.535 248.169C279.102 248.489 278.562 248.649 277.915 248.649C277.388 248.649 276.915 248.532 276.495 248.299C276.082 248.059 275.755 247.725 275.515 247.299C275.282 246.865 275.165 246.365 275.165 245.799C275.165 245.232 275.278 244.735 275.505 244.309C275.738 243.875 276.062 243.542 276.475 243.309C276.895 243.075 277.375 242.959 277.915 242.959C278.435 242.959 278.898 243.072 279.305 243.299C279.712 243.525 280.028 243.845 280.255 244.259C280.482 244.665 280.595 245.135 280.595 245.669ZM279.405 245.309C279.398 244.889 279.248 244.552 278.955 244.299C278.662 244.045 278.298 243.919 277.865 243.919C277.472 243.919 277.135 244.045 276.855 244.299C276.575 244.545 276.408 244.882 276.355 245.309H279.405ZM284.497 242.959C284.93 242.959 285.317 243.049 285.657 243.229C286.003 243.409 286.273 243.675 286.467 244.029C286.66 244.382 286.757 244.809 286.757 245.309V248.559H285.627V245.479C285.627 244.985 285.503 244.609 285.257 244.349C285.01 244.082 284.673 243.949 284.247 243.949C283.82 243.949 283.48 244.082 283.227 244.349C282.98 244.609 282.857 244.985 282.857 245.479V248.559H281.717V243.049H282.857V243.679C283.043 243.452 283.28 243.275 283.567 243.149C283.86 243.022 284.17 242.959 284.497 242.959ZM289.541 243.979V247.029C289.541 247.235 289.588 247.385 289.681 247.479C289.781 247.565 289.948 247.609 290.181 247.609H290.881V248.559H289.981C289.468 248.559 289.074 248.439 288.801 248.199C288.528 247.959 288.391 247.569 288.391 247.029V243.979H287.741V243.049H288.391V241.679H289.541V243.049H290.881V243.979H289.541ZM296.982 245.669C296.982 245.875 296.968 246.062 296.942 246.229H292.732C292.765 246.669 292.928 247.022 293.222 247.289C293.515 247.555 293.875 247.689 294.302 247.689C294.915 247.689 295.348 247.432 295.602 246.919H296.832C296.665 247.425 296.362 247.842 295.922 248.169C295.488 248.489 294.948 248.649 294.302 248.649C293.775 248.649 293.302 248.532 292.882 248.299C292.468 248.059 292.142 247.725 291.902 247.299C291.668 246.865 291.552 246.365 291.552 245.799C291.552 245.232 291.665 244.735 291.892 244.309C292.125 243.875 292.448 243.542 292.862 243.309C293.282 243.075 293.762 242.959 294.302 242.959C294.822 242.959 295.285 243.072 295.692 243.299C296.098 243.525 296.415 243.845 296.642 244.259C296.868 244.665 296.982 245.135 296.982 245.669ZM295.792 245.309C295.785 244.889 295.635 244.552 295.342 244.299C295.048 244.045 294.685 243.919 294.252 243.919C293.858 243.919 293.522 244.045 293.242 244.299C292.962 244.545 292.795 244.882 292.742 245.309H295.792ZM300.104 248.649C299.67 248.649 299.28 248.572 298.934 248.419C298.594 248.259 298.324 248.045 298.124 247.779C297.924 247.505 297.817 247.202 297.804 246.869H298.984C299.004 247.102 299.114 247.299 299.314 247.459C299.52 247.612 299.777 247.689 300.084 247.689C300.404 247.689 300.65 247.629 300.824 247.509C301.004 247.382 301.094 247.222 301.094 247.029C301.094 246.822 300.994 246.669 300.794 246.569C300.6 246.469 300.29 246.359 299.864 246.239C299.45 246.125 299.114 246.015 298.854 245.909C298.594 245.802 298.367 245.639 298.174 245.419C297.987 245.199 297.894 244.909 297.894 244.549C297.894 244.255 297.98 243.989 298.154 243.749C298.327 243.502 298.574 243.309 298.894 243.169C299.22 243.029 299.594 242.959 300.014 242.959C300.64 242.959 301.144 243.119 301.524 243.439C301.91 243.752 302.117 244.182 302.144 244.729H301.004C300.984 244.482 300.884 244.285 300.704 244.139C300.524 243.992 300.28 243.919 299.974 243.919C299.674 243.919 299.444 243.975 299.284 244.089C299.124 244.202 299.044 244.352 299.044 244.539C299.044 244.685 299.097 244.809 299.204 244.909C299.31 245.009 299.44 245.089 299.594 245.149C299.747 245.202 299.974 245.272 300.274 245.359C300.674 245.465 301 245.575 301.254 245.689C301.514 245.795 301.737 245.955 301.924 246.169C302.11 246.382 302.207 246.665 302.214 247.019C302.214 247.332 302.127 247.612 301.954 247.859C301.78 248.105 301.534 248.299 301.214 248.439C300.9 248.579 300.53 248.649 300.104 248.649Z" fill="#FF5858"/>
<rect y="267.105" width="146.53" height="28.1854" rx="5.14141" fill="#0C91B6" fill-opacity="0.16"/>
<path d="M22.1556 278.669V280.709H24.5556V281.639H22.1556V283.769H24.8556V284.699H21.0156V277.739H24.8556V278.669H22.1556ZM28.3898 283.679L29.9498 279.189H31.1598L29.0598 284.699H27.6998L25.6098 279.189H26.8298L28.3898 283.679ZM34.4115 284.789C33.8915 284.789 33.4215 284.673 33.0015 284.439C32.5815 284.199 32.2515 283.866 32.0115 283.439C31.7715 283.006 31.6515 282.506 31.6515 281.939C31.6515 281.379 31.7748 280.883 32.0215 280.449C32.2682 280.016 32.6048 279.683 33.0315 279.449C33.4582 279.216 33.9348 279.099 34.4615 279.099C34.9882 279.099 35.4648 279.216 35.8915 279.449C36.3182 279.683 36.6548 280.016 36.9015 280.449C37.1482 280.883 37.2715 281.379 37.2715 281.939C37.2715 282.499 37.1448 282.996 36.8915 283.429C36.6382 283.863 36.2915 284.199 35.8515 284.439C35.4182 284.673 34.9382 284.789 34.4115 284.789ZM34.4115 283.799C34.7048 283.799 34.9782 283.729 35.2315 283.589C35.4915 283.449 35.7015 283.239 35.8615 282.959C36.0215 282.679 36.1015 282.339 36.1015 281.939C36.1015 281.539 36.0248 281.203 35.8715 280.929C35.7182 280.649 35.5148 280.439 35.2615 280.299C35.0082 280.159 34.7348 280.089 34.4415 280.089C34.1482 280.089 33.8748 280.159 33.6215 280.299C33.3748 280.439 33.1782 280.649 33.0315 280.929C32.8848 281.203 32.8115 281.539 32.8115 281.939C32.8115 282.533 32.9615 282.993 33.2615 283.319C33.5682 283.639 33.9515 283.799 34.4115 283.799ZM39.5384 277.299V284.699H38.3984V277.299H39.5384ZM46.0252 279.189V284.699H44.8852V284.049C44.7052 284.276 44.4685 284.456 44.1752 284.589C43.8885 284.716 43.5818 284.779 43.2552 284.779C42.8218 284.779 42.4318 284.689 42.0852 284.509C41.7452 284.329 41.4752 284.063 41.2752 283.709C41.0818 283.356 40.9852 282.929 40.9852 282.429V279.189H42.1152V282.259C42.1152 282.753 42.2385 283.133 42.4852 283.399C42.7318 283.659 43.0685 283.789 43.4952 283.789C43.9218 283.789 44.2585 283.659 44.5052 283.399C44.7585 283.133 44.8852 282.753 44.8852 282.259V279.189H46.0252ZM47.1493 281.939C47.1493 281.373 47.2626 280.876 47.4893 280.449C47.7226 280.016 48.0426 279.683 48.4493 279.449C48.856 279.216 49.3226 279.099 49.8493 279.099C50.516 279.099 51.066 279.259 51.4993 279.579C51.9393 279.893 52.236 280.343 52.3893 280.929H51.1593C51.0593 280.656 50.8993 280.443 50.6793 280.289C50.4593 280.136 50.1826 280.059 49.8493 280.059C49.3826 280.059 49.0093 280.226 48.7293 280.559C48.456 280.886 48.3193 281.346 48.3193 281.939C48.3193 282.533 48.456 282.996 48.7293 283.329C49.0093 283.663 49.3826 283.829 49.8493 283.829C50.5093 283.829 50.946 283.539 51.1593 282.959H52.3893C52.2293 283.519 51.9293 283.966 51.4893 284.299C51.0493 284.626 50.5026 284.789 49.8493 284.789C49.3226 284.789 48.856 284.673 48.4493 284.439C48.0426 284.199 47.7226 283.866 47.4893 283.439C47.2626 283.006 47.1493 282.506 47.1493 281.939ZM54.1054 278.459C53.8987 278.459 53.7254 278.389 53.5854 278.249C53.4454 278.109 53.3754 277.936 53.3754 277.729C53.3754 277.523 53.4454 277.349 53.5854 277.209C53.7254 277.069 53.8987 276.999 54.1054 276.999C54.3054 276.999 54.4754 277.069 54.6154 277.209C54.7554 277.349 54.8254 277.523 54.8254 277.729C54.8254 277.936 54.7554 278.109 54.6154 278.249C54.4754 278.389 54.3054 278.459 54.1054 278.459ZM54.6654 279.189V284.699H53.5254V279.189H54.6654ZM58.5521 284.789C58.0321 284.789 57.5621 284.673 57.1421 284.439C56.7221 284.199 56.3921 283.866 56.1521 283.439C55.9121 283.006 55.7921 282.506 55.7921 281.939C55.7921 281.379 55.9154 280.883 56.1621 280.449C56.4088 280.016 56.7454 279.683 57.1721 279.449C57.5988 279.216 58.0754 279.099 58.6021 279.099C59.1288 279.099 59.6054 279.216 60.0321 279.449C60.4588 279.683 60.7954 280.016 61.0421 280.449C61.2888 280.883 61.4121 281.379 61.4121 281.939C61.4121 282.499 61.2854 282.996 61.0321 283.429C60.7788 283.863 60.4321 284.199 59.9921 284.439C59.5588 284.673 59.0788 284.789 58.5521 284.789ZM58.5521 283.799C58.8454 283.799 59.1188 283.729 59.3721 283.589C59.6321 283.449 59.8421 283.239 60.0021 282.959C60.1621 282.679 60.2421 282.339 60.2421 281.939C60.2421 281.539 60.1654 281.203 60.0121 280.929C59.8588 280.649 59.6554 280.439 59.4021 280.299C59.1488 280.159 58.8754 280.089 58.5821 280.089C58.2888 280.089 58.0154 280.159 57.7621 280.299C57.5154 280.439 57.3188 280.649 57.1721 280.929C57.0254 281.203 56.9521 281.539 56.9521 281.939C56.9521 282.533 57.1021 282.993 57.4021 283.319C57.7088 283.639 58.0921 283.799 58.5521 283.799ZM59.6321 277.619L57.4221 278.709V277.869L59.6321 276.649V277.619ZM65.3191 279.099C65.7524 279.099 66.1391 279.189 66.4791 279.369C66.8257 279.549 67.0957 279.816 67.2891 280.169C67.4824 280.523 67.5791 280.949 67.5791 281.449V284.699H66.4491V281.619C66.4491 281.126 66.3257 280.749 66.0791 280.489C65.8324 280.223 65.4957 280.089 65.0691 280.089C64.6424 280.089 64.3024 280.223 64.0491 280.489C63.8024 280.749 63.6791 281.126 63.6791 281.619V284.699H62.5391V279.189H63.6791V279.819C63.8657 279.593 64.1024 279.416 64.3891 279.289C64.6824 279.163 64.9924 279.099 65.3191 279.099ZM71.2509 281.919C71.2509 281.366 71.3642 280.876 71.5909 280.449C71.8242 280.023 72.1375 279.693 72.5309 279.459C72.9309 279.219 73.3742 279.099 73.8609 279.099C74.2209 279.099 74.5742 279.179 74.9209 279.339C75.2742 279.493 75.5542 279.699 75.7609 279.959V277.299H76.9109V284.699H75.7609V283.869C75.5742 284.136 75.3142 284.356 74.9809 284.529C74.6542 284.703 74.2775 284.789 73.8509 284.789C73.3709 284.789 72.9309 284.669 72.5309 284.429C72.1375 284.183 71.8242 283.843 71.5909 283.409C71.3642 282.969 71.2509 282.473 71.2509 281.919ZM75.7609 281.939C75.7609 281.559 75.6809 281.229 75.5209 280.949C75.3675 280.669 75.1642 280.456 74.9109 280.309C74.6575 280.163 74.3842 280.089 74.0909 280.089C73.7975 280.089 73.5242 280.163 73.2709 280.309C73.0175 280.449 72.8109 280.659 72.6509 280.939C72.4975 281.213 72.4209 281.539 72.4209 281.919C72.4209 282.299 72.4975 282.633 72.6509 282.919C72.8109 283.206 73.0175 283.426 73.2709 283.579C73.5309 283.726 73.8042 283.799 74.0909 283.799C74.3842 283.799 74.6575 283.726 74.9109 283.579C75.1642 283.433 75.3675 283.219 75.5209 282.939C75.6809 282.653 75.7609 282.319 75.7609 281.939ZM83.4582 281.809C83.4582 282.016 83.4449 282.203 83.4182 282.369H79.2082C79.2415 282.809 79.4049 283.163 79.6982 283.429C79.9915 283.696 80.3515 283.829 80.7782 283.829C81.3915 283.829 81.8249 283.573 82.0782 283.059H83.3082C83.1415 283.566 82.8382 283.983 82.3982 284.309C81.9649 284.629 81.4249 284.789 80.7782 284.789C80.2515 284.789 79.7782 284.673 79.3582 284.439C78.9449 284.199 78.6182 283.866 78.3782 283.439C78.1449 283.006 78.0282 282.506 78.0282 281.939C78.0282 281.373 78.1415 280.876 78.3682 280.449C78.6015 280.016 78.9249 279.683 79.3382 279.449C79.7582 279.216 80.2382 279.099 80.7782 279.099C81.2982 279.099 81.7615 279.213 82.1682 279.439C82.5749 279.666 82.8915 279.986 83.1182 280.399C83.3449 280.806 83.4582 281.276 83.4582 281.809ZM82.2682 281.449C82.2615 281.029 82.1115 280.693 81.8182 280.439C81.5249 280.186 81.1615 280.059 80.7282 280.059C80.3349 280.059 79.9982 280.186 79.7182 280.439C79.4382 280.686 79.2715 281.023 79.2182 281.449H82.2682ZM86.7977 281.939C86.7977 281.373 86.9111 280.876 87.1377 280.449C87.3711 280.016 87.6911 279.683 88.0977 279.449C88.5044 279.216 88.9711 279.099 89.4977 279.099C90.1644 279.099 90.7144 279.259 91.1477 279.579C91.5877 279.893 91.8844 280.343 92.0377 280.929H90.8077C90.7077 280.656 90.5477 280.443 90.3277 280.289C90.1077 280.136 89.8311 280.059 89.4977 280.059C89.0311 280.059 88.6577 280.226 88.3777 280.559C88.1044 280.886 87.9677 281.346 87.9677 281.939C87.9677 282.533 88.1044 282.996 88.3777 283.329C88.6577 283.663 89.0311 283.829 89.4977 283.829C90.1577 283.829 90.5944 283.539 90.8077 282.959H92.0377C91.8777 283.519 91.5777 283.966 91.1377 284.299C90.6977 284.626 90.1511 284.789 89.4977 284.789C88.9711 284.789 88.5044 284.673 88.0977 284.439C87.6911 284.199 87.3711 283.866 87.1377 283.439C86.9111 283.006 86.7977 282.506 86.7977 281.939ZM94.3138 277.299V284.699H93.1738V277.299H94.3138ZM96.3905 278.459C96.1839 278.459 96.0105 278.389 95.8705 278.249C95.7305 278.109 95.6605 277.936 95.6605 277.729C95.6605 277.523 95.7305 277.349 95.8705 277.209C96.0105 277.069 96.1839 276.999 96.3905 276.999C96.5905 276.999 96.7605 277.069 96.9005 277.209C97.0405 277.349 97.1105 277.523 97.1105 277.729C97.1105 277.936 97.0405 278.109 96.9005 278.249C96.7605 278.389 96.5905 278.459 96.3905 278.459ZM96.9505 279.189V284.699H95.8105V279.189H96.9505ZM103.497 281.809C103.497 282.016 103.484 282.203 103.457 282.369H99.2473C99.2806 282.809 99.4439 283.163 99.7373 283.429C100.031 283.696 100.391 283.829 100.817 283.829C101.431 283.829 101.864 283.573 102.117 283.059H103.347C103.181 283.566 102.877 283.983 102.437 284.309C102.004 284.629 101.464 284.789 100.817 284.789C100.291 284.789 99.8173 284.673 99.3973 284.439C98.9839 284.199 98.6573 283.866 98.4173 283.439C98.1839 283.006 98.0673 282.506 98.0673 281.939C98.0673 281.373 98.1806 280.876 98.4073 280.449C98.6406 280.016 98.9639 279.683 99.3773 279.449C99.7973 279.216 100.277 279.099 100.817 279.099C101.337 279.099 101.801 279.213 102.207 279.439C102.614 279.666 102.931 279.986 103.157 280.399C103.384 280.806 103.497 281.276 103.497 281.809ZM102.307 281.449C102.301 281.029 102.151 280.693 101.857 280.439C101.564 280.186 101.201 280.059 100.767 280.059C100.374 280.059 100.037 280.186 99.7573 280.439C99.4773 280.686 99.3106 281.023 99.2573 281.449H102.307ZM107.399 279.099C107.832 279.099 108.219 279.189 108.559 279.369C108.906 279.549 109.176 279.816 109.369 280.169C109.562 280.523 109.659 280.949 109.659 281.449V284.699H108.529V281.619C108.529 281.126 108.406 280.749 108.159 280.489C107.912 280.223 107.576 280.089 107.149 280.089C106.722 280.089 106.382 280.223 106.129 280.489C105.882 280.749 105.759 281.126 105.759 281.619V284.699H104.619V279.189H105.759V279.819C105.946 279.593 106.182 279.416 106.469 279.289C106.762 279.163 107.072 279.099 107.399 279.099ZM112.443 280.119V283.169C112.443 283.376 112.49 283.526 112.583 283.619C112.683 283.706 112.85 283.749 113.083 283.749H113.783V284.699H112.883C112.37 284.699 111.977 284.579 111.703 284.339C111.43 284.099 111.293 283.709 111.293 283.169V280.119H110.643V279.189H111.293V277.819H112.443V279.189H113.783V280.119H112.443ZM119.884 281.809C119.884 282.016 119.871 282.203 119.844 282.369H115.634C115.667 282.809 115.831 283.163 116.124 283.429C116.417 283.696 116.777 283.829 117.204 283.829C117.817 283.829 118.251 283.573 118.504 283.059H119.734C119.567 283.566 119.264 283.983 118.824 284.309C118.391 284.629 117.851 284.789 117.204 284.789C116.677 284.789 116.204 284.673 115.784 284.439C115.371 284.199 115.044 283.866 114.804 283.439C114.571 283.006 114.454 282.506 114.454 281.939C114.454 281.373 114.567 280.876 114.794 280.449C115.027 280.016 115.351 279.683 115.764 279.449C116.184 279.216 116.664 279.099 117.204 279.099C117.724 279.099 118.187 279.213 118.594 279.439C119.001 279.666 119.317 279.986 119.544 280.399C119.771 280.806 119.884 281.276 119.884 281.809ZM118.694 281.449C118.687 281.029 118.537 280.693 118.244 280.439C117.951 280.186 117.587 280.059 117.154 280.059C116.761 280.059 116.424 280.186 116.144 280.439C115.864 280.686 115.697 281.023 115.644 281.449H118.694ZM123.006 284.789C122.573 284.789 122.183 284.713 121.836 284.559C121.496 284.399 121.226 284.186 121.026 283.919C120.826 283.646 120.719 283.343 120.706 283.009H121.886C121.906 283.243 122.016 283.439 122.216 283.599C122.423 283.753 122.679 283.829 122.986 283.829C123.306 283.829 123.553 283.769 123.726 283.649C123.906 283.523 123.996 283.363 123.996 283.169C123.996 282.963 123.896 282.809 123.696 282.709C123.503 282.609 123.193 282.499 122.766 282.379C122.353 282.266 122.016 282.156 121.756 282.049C121.496 281.943 121.269 281.779 121.076 281.559C120.889 281.339 120.796 281.049 120.796 280.689C120.796 280.396 120.883 280.129 121.056 279.889C121.229 279.643 121.476 279.449 121.796 279.309C122.123 279.169 122.496 279.099 122.916 279.099C123.543 279.099 124.046 279.259 124.426 279.579C124.813 279.893 125.019 280.323 125.046 280.869H123.906C123.886 280.623 123.786 280.426 123.606 280.279C123.426 280.133 123.183 280.059 122.876 280.059C122.576 280.059 122.346 280.116 122.186 280.229C122.026 280.343 121.946 280.493 121.946 280.679C121.946 280.826 121.999 280.949 122.106 281.049C122.213 281.149 122.343 281.229 122.496 281.289C122.649 281.343 122.876 281.413 123.176 281.499C123.576 281.606 123.903 281.716 124.156 281.829C124.416 281.936 124.639 282.096 124.826 282.309C125.013 282.523 125.109 282.806 125.116 283.159C125.116 283.473 125.029 283.753 124.856 283.999C124.683 284.246 124.436 284.439 124.116 284.579C123.803 284.719 123.433 284.789 123.006 284.789Z" fill="#02ADC1"/>
<rect x="165.531" y="267.105" width="146.53" height="28.1413" rx="5.14141" fill="#FCD4E0"/>
<path d="M194.657 284.676L193.057 281.896H192.187V284.676H191.047V277.726H193.447C193.98 277.726 194.43 277.819 194.797 278.006C195.17 278.192 195.447 278.442 195.627 278.756C195.814 279.069 195.907 279.419 195.907 279.806C195.907 280.259 195.774 280.672 195.507 281.046C195.247 281.412 194.844 281.662 194.297 281.796L196.017 284.676H194.657ZM192.187 280.986H193.447C193.874 280.986 194.194 280.879 194.407 280.666C194.627 280.452 194.737 280.166 194.737 279.806C194.737 279.446 194.63 279.166 194.417 278.966C194.204 278.759 193.88 278.656 193.447 278.656H192.187V280.986ZM202.415 281.786C202.415 281.992 202.402 282.179 202.375 282.346H198.165C198.199 282.786 198.362 283.139 198.655 283.406C198.949 283.672 199.309 283.806 199.735 283.806C200.349 283.806 200.782 283.549 201.035 283.036H202.265C202.099 283.542 201.795 283.959 201.355 284.286C200.922 284.606 200.382 284.766 199.735 284.766C199.209 284.766 198.735 284.649 198.315 284.416C197.902 284.176 197.575 283.842 197.335 283.416C197.102 282.982 196.985 282.482 196.985 281.916C196.985 281.349 197.099 280.852 197.325 280.426C197.559 279.992 197.882 279.659 198.295 279.426C198.715 279.192 199.195 279.076 199.735 279.076C200.255 279.076 200.719 279.189 201.125 279.416C201.532 279.642 201.849 279.962 202.075 280.376C202.302 280.782 202.415 281.252 202.415 281.786ZM201.225 281.426C201.219 281.006 201.069 280.669 200.775 280.416C200.482 280.162 200.119 280.036 199.685 280.036C199.292 280.036 198.955 280.162 198.675 280.416C198.395 280.662 198.229 280.999 198.175 281.426H201.225ZM204.677 279.976C204.87 279.722 205.134 279.509 205.467 279.336C205.8 279.162 206.177 279.076 206.597 279.076C207.077 279.076 207.514 279.196 207.907 279.436C208.307 279.669 208.62 279.999 208.847 280.426C209.074 280.852 209.187 281.342 209.187 281.896C209.187 282.449 209.074 282.946 208.847 283.386C208.62 283.819 208.307 284.159 207.907 284.406C207.514 284.646 207.077 284.766 206.597 284.766C206.177 284.766 205.804 284.682 205.477 284.516C205.15 284.342 204.884 284.129 204.677 283.876V287.296H203.537V279.166H204.677V279.976ZM208.027 281.896C208.027 281.516 207.947 281.189 207.787 280.916C207.634 280.636 207.427 280.426 207.167 280.286C206.914 280.139 206.64 280.066 206.347 280.066C206.06 280.066 205.787 280.139 205.527 280.286C205.274 280.432 205.067 280.646 204.907 280.926C204.754 281.206 204.677 281.536 204.677 281.916C204.677 282.296 204.754 282.629 204.907 282.916C205.067 283.196 205.274 283.409 205.527 283.556C205.787 283.702 206.06 283.776 206.347 283.776C206.64 283.776 206.914 283.702 207.167 283.556C207.427 283.402 207.634 283.182 207.787 282.896C207.947 282.609 208.027 282.276 208.027 281.896ZM212.704 284.766C212.184 284.766 211.714 284.649 211.294 284.416C210.874 284.176 210.544 283.842 210.304 283.416C210.064 282.982 209.944 282.482 209.944 281.916C209.944 281.356 210.068 280.859 210.314 280.426C210.561 279.992 210.898 279.659 211.324 279.426C211.751 279.192 212.228 279.076 212.754 279.076C213.281 279.076 213.758 279.192 214.184 279.426C214.611 279.659 214.948 279.992 215.194 280.426C215.441 280.859 215.564 281.356 215.564 281.916C215.564 282.476 215.438 282.972 215.184 283.406C214.931 283.839 214.584 284.176 214.144 284.416C213.711 284.649 213.231 284.766 212.704 284.766ZM212.704 283.776C212.998 283.776 213.271 283.706 213.524 283.566C213.784 283.426 213.994 283.216 214.154 282.936C214.314 282.656 214.394 282.316 214.394 281.916C214.394 281.516 214.318 281.179 214.164 280.906C214.011 280.626 213.808 280.416 213.554 280.276C213.301 280.136 213.028 280.066 212.734 280.066C212.441 280.066 212.168 280.136 211.914 280.276C211.668 280.416 211.471 280.626 211.324 280.906C211.178 281.179 211.104 281.516 211.104 281.916C211.104 282.509 211.254 282.969 211.554 283.296C211.861 283.616 212.244 283.776 212.704 283.776ZM217.831 279.966C217.998 279.686 218.218 279.469 218.491 279.316C218.771 279.156 219.101 279.076 219.481 279.076V280.256H219.191C218.745 280.256 218.405 280.369 218.171 280.596C217.945 280.822 217.831 281.216 217.831 281.776V284.676H216.691V279.166H217.831V279.966ZM221.859 280.096V283.146C221.859 283.352 221.906 283.502 221.999 283.596C222.099 283.682 222.266 283.726 222.499 283.726H223.199V284.676H222.299C221.786 284.676 221.393 284.556 221.119 284.316C220.846 284.076 220.709 283.686 220.709 283.146V280.096H220.059V279.166H220.709V277.796H221.859V279.166H223.199V280.096H221.859ZM229.3 281.786C229.3 281.992 229.287 282.179 229.26 282.346H225.05C225.083 282.786 225.247 283.139 225.54 283.406C225.833 283.672 226.193 283.806 226.62 283.806C227.233 283.806 227.667 283.549 227.92 283.036H229.15C228.983 283.542 228.68 283.959 228.24 284.286C227.807 284.606 227.267 284.766 226.62 284.766C226.093 284.766 225.62 284.649 225.2 284.416C224.787 284.176 224.46 283.842 224.22 283.416C223.987 282.982 223.87 282.482 223.87 281.916C223.87 281.349 223.983 280.852 224.21 280.426C224.443 279.992 224.767 279.659 225.18 279.426C225.6 279.192 226.08 279.076 226.62 279.076C227.14 279.076 227.603 279.189 228.01 279.416C228.417 279.642 228.733 279.962 228.96 280.376C229.187 280.782 229.3 281.252 229.3 281.786ZM228.11 281.426C228.103 281.006 227.953 280.669 227.66 280.416C227.367 280.162 227.003 280.036 226.57 280.036C226.177 280.036 225.84 280.162 225.56 280.416C225.28 280.662 225.113 280.999 225.06 281.426H228.11ZM232.422 284.766C231.989 284.766 231.599 284.689 231.252 284.536C230.912 284.376 230.642 284.162 230.442 283.896C230.242 283.622 230.135 283.319 230.122 282.986H231.302C231.322 283.219 231.432 283.416 231.632 283.576C231.839 283.729 232.095 283.806 232.402 283.806C232.722 283.806 232.969 283.746 233.142 283.626C233.322 283.499 233.412 283.339 233.412 283.146C233.412 282.939 233.312 282.786 233.112 282.686C232.919 282.586 232.609 282.476 232.182 282.356C231.769 282.242 231.432 282.132 231.172 282.026C230.912 281.919 230.685 281.756 230.492 281.536C230.305 281.316 230.212 281.026 230.212 280.666C230.212 280.372 230.299 280.106 230.472 279.866C230.645 279.619 230.892 279.426 231.212 279.286C231.539 279.146 231.912 279.076 232.332 279.076C232.959 279.076 233.462 279.236 233.842 279.556C234.229 279.869 234.435 280.299 234.462 280.846H233.322C233.302 280.599 233.202 280.402 233.022 280.256C232.842 280.109 232.599 280.036 232.292 280.036C231.992 280.036 231.762 280.092 231.602 280.206C231.442 280.319 231.362 280.469 231.362 280.656C231.362 280.802 231.415 280.926 231.522 281.026C231.629 281.126 231.759 281.206 231.912 281.266C232.065 281.319 232.292 281.389 232.592 281.476C232.992 281.582 233.319 281.692 233.572 281.806C233.832 281.912 234.055 282.072 234.242 282.286C234.429 282.499 234.525 282.782 234.532 283.136C234.532 283.449 234.445 283.729 234.272 283.976C234.099 284.222 233.852 284.416 233.532 284.556C233.219 284.696 232.849 284.766 232.422 284.766ZM237.981 281.896C237.981 281.342 238.095 280.852 238.321 280.426C238.555 279.999 238.868 279.669 239.261 279.436C239.661 279.196 240.101 279.076 240.581 279.076C241.015 279.076 241.391 279.162 241.711 279.336C242.038 279.502 242.298 279.712 242.491 279.966V279.166H243.641V284.676H242.491V283.856C242.298 284.116 242.035 284.332 241.701 284.506C241.368 284.679 240.988 284.766 240.561 284.766C240.088 284.766 239.655 284.646 239.261 284.406C238.868 284.159 238.555 283.819 238.321 283.386C238.095 282.946 237.981 282.449 237.981 281.896ZM242.491 281.916C242.491 281.536 242.411 281.206 242.251 280.926C242.098 280.646 241.895 280.432 241.641 280.286C241.388 280.139 241.115 280.066 240.821 280.066C240.528 280.066 240.255 280.139 240.001 280.286C239.748 280.426 239.541 280.636 239.381 280.916C239.228 281.189 239.151 281.516 239.151 281.896C239.151 282.276 239.228 282.609 239.381 282.896C239.541 283.182 239.748 283.402 240.001 283.556C240.261 283.702 240.535 283.776 240.821 283.776C241.115 283.776 241.388 283.702 241.641 283.556C241.895 283.409 242.098 283.196 242.251 282.916C242.411 282.629 242.491 282.296 242.491 281.916ZM247.919 279.076C248.352 279.076 248.739 279.166 249.079 279.346C249.425 279.526 249.695 279.792 249.889 280.146C250.082 280.499 250.179 280.926 250.179 281.426V284.676H249.049V281.596C249.049 281.102 248.925 280.726 248.679 280.466C248.432 280.199 248.095 280.066 247.669 280.066C247.242 280.066 246.902 280.199 246.649 280.466C246.402 280.726 246.279 281.102 246.279 281.596V284.676H245.139V279.166H246.279V279.796C246.465 279.569 246.702 279.392 246.989 279.266C247.282 279.139 247.592 279.076 247.919 279.076ZM251.253 281.896C251.253 281.342 251.366 280.852 251.593 280.426C251.826 279.999 252.139 279.669 252.533 279.436C252.933 279.196 253.373 279.076 253.853 279.076C254.286 279.076 254.663 279.162 254.983 279.336C255.309 279.502 255.569 279.712 255.763 279.966V279.166H256.913V284.676H255.763V283.856C255.569 284.116 255.306 284.332 254.973 284.506C254.639 284.679 254.259 284.766 253.833 284.766C253.359 284.766 252.926 284.646 252.533 284.406C252.139 284.159 251.826 283.819 251.593 283.386C251.366 282.946 251.253 282.449 251.253 281.896ZM255.763 281.916C255.763 281.536 255.683 281.206 255.523 280.926C255.369 280.646 255.166 280.432 254.913 280.286C254.659 280.139 254.386 280.066 254.093 280.066C253.799 280.066 253.526 280.139 253.273 280.286C253.019 280.426 252.813 280.636 252.653 280.916C252.499 281.189 252.423 281.516 252.423 281.896C252.423 282.276 252.499 282.609 252.653 282.896C252.813 283.182 253.019 283.402 253.273 283.556C253.533 283.702 253.806 283.776 254.093 283.776C254.386 283.776 254.659 283.702 254.913 283.556C255.166 283.409 255.369 283.196 255.523 282.916C255.683 282.629 255.763 282.296 255.763 281.916ZM259.55 277.276V284.676H258.41V277.276H259.55ZM262.187 279.166V284.676H261.047V279.166H262.187ZM262.647 277.686L260.437 278.776V277.936L262.647 276.716V277.686ZM265.014 280.096V283.146C265.014 283.352 265.06 283.502 265.154 283.596C265.254 283.682 265.42 283.726 265.654 283.726H266.354V284.676H265.454C264.94 284.676 264.547 284.556 264.274 284.316C264 284.076 263.864 283.686 263.864 283.146V280.096H263.214V279.166H263.864V277.796H265.014V279.166H266.354V280.096H265.014ZM267.984 278.436C267.778 278.436 267.604 278.366 267.464 278.226C267.324 278.086 267.254 277.912 267.254 277.706C267.254 277.499 267.324 277.326 267.464 277.186C267.604 277.046 267.778 276.976 267.984 276.976C268.184 276.976 268.354 277.046 268.494 277.186C268.634 277.326 268.704 277.499 268.704 277.706C268.704 277.912 268.634 278.086 268.494 278.226C268.354 278.366 268.184 278.436 267.984 278.436ZM268.544 279.166V284.676H267.404V279.166H268.544ZM269.661 281.916C269.661 281.349 269.774 280.852 270.001 280.426C270.234 279.992 270.554 279.659 270.961 279.426C271.368 279.192 271.834 279.076 272.361 279.076C273.028 279.076 273.578 279.236 274.011 279.556C274.451 279.869 274.748 280.319 274.901 280.906H273.671C273.571 280.632 273.411 280.419 273.191 280.266C272.971 280.112 272.694 280.036 272.361 280.036C271.894 280.036 271.521 280.202 271.241 280.536C270.968 280.862 270.831 281.322 270.831 281.916C270.831 282.509 270.968 282.972 271.241 283.306C271.521 283.639 271.894 283.806 272.361 283.806C273.021 283.806 273.458 283.516 273.671 282.936H274.901C274.741 283.496 274.441 283.942 274.001 284.276C273.561 284.602 273.014 284.766 272.361 284.766C271.834 284.766 271.368 284.649 270.961 284.416C270.554 284.176 270.234 283.842 270.001 283.416C269.774 282.982 269.661 282.482 269.661 281.916ZM278.427 284.766C277.907 284.766 277.437 284.649 277.017 284.416C276.597 284.176 276.267 283.842 276.027 283.416C275.787 282.982 275.667 282.482 275.667 281.916C275.667 281.356 275.79 280.859 276.037 280.426C276.284 279.992 276.62 279.659 277.047 279.426C277.474 279.192 277.95 279.076 278.477 279.076C279.004 279.076 279.48 279.192 279.907 279.426C280.334 279.659 280.67 279.992 280.917 280.426C281.164 280.859 281.287 281.356 281.287 281.916C281.287 282.476 281.16 282.972 280.907 283.406C280.654 283.839 280.307 284.176 279.867 284.416C279.434 284.649 278.954 284.766 278.427 284.766ZM278.427 283.776C278.72 283.776 278.994 283.706 279.247 283.566C279.507 283.426 279.717 283.216 279.877 282.936C280.037 282.656 280.117 282.316 280.117 281.916C280.117 281.516 280.04 281.179 279.887 280.906C279.734 280.626 279.53 280.416 279.277 280.276C279.024 280.136 278.75 280.066 278.457 280.066C278.164 280.066 277.89 280.136 277.637 280.276C277.39 280.416 277.194 280.626 277.047 280.906C276.9 281.179 276.827 281.516 276.827 281.916C276.827 282.509 276.977 282.969 277.277 283.296C277.584 283.616 277.967 283.776 278.427 283.776ZM284.414 284.766C283.981 284.766 283.591 284.689 283.244 284.536C282.904 284.376 282.634 284.162 282.434 283.896C282.234 283.622 282.127 283.319 282.114 282.986H283.294C283.314 283.219 283.424 283.416 283.624 283.576C283.831 283.729 284.087 283.806 284.394 283.806C284.714 283.806 284.961 283.746 285.134 283.626C285.314 283.499 285.404 283.339 285.404 283.146C285.404 282.939 285.304 282.786 285.104 282.686C284.911 282.586 284.601 282.476 284.174 282.356C283.761 282.242 283.424 282.132 283.164 282.026C282.904 281.919 282.677 281.756 282.484 281.536C282.297 281.316 282.204 281.026 282.204 280.666C282.204 280.372 282.291 280.106 282.464 279.866C282.637 279.619 282.884 279.426 283.204 279.286C283.531 279.146 283.904 279.076 284.324 279.076C284.951 279.076 285.454 279.236 285.834 279.556C286.221 279.869 286.427 280.299 286.454 280.846H285.314C285.294 280.599 285.194 280.402 285.014 280.256C284.834 280.109 284.591 280.036 284.284 280.036C283.984 280.036 283.754 280.092 283.594 280.206C283.434 280.319 283.354 280.469 283.354 280.656C283.354 280.802 283.407 280.926 283.514 281.026C283.621 281.126 283.751 281.206 283.904 281.266C284.057 281.319 284.284 281.389 284.584 281.476C284.984 281.582 285.311 281.692 285.564 281.806C285.824 281.912 286.047 282.072 286.234 282.286C286.421 282.499 286.517 282.782 286.524 283.136C286.524 283.449 286.437 283.729 286.264 283.976C286.091 284.222 285.844 284.416 285.524 284.556C285.211 284.696 284.841 284.766 284.414 284.766Z" fill="#FF6898"/>
<rect y="303.246" width="146.53" height="28.1413" rx="5.14141" fill="#82D88B" fill-opacity="0.24"/>
<path d="M33.5456 315.866C33.3656 315.52 33.1156 315.26 32.7956 315.086C32.4756 314.906 32.1056 314.816 31.6856 314.816C31.2256 314.816 30.8156 314.92 30.4556 315.126C30.0956 315.333 29.8123 315.626 29.6056 316.006C29.4056 316.386 29.3056 316.826 29.3056 317.326C29.3056 317.826 29.4056 318.27 29.6056 318.656C29.8123 319.036 30.0956 319.33 30.4556 319.536C30.8156 319.743 31.2256 319.846 31.6856 319.846C32.3056 319.846 32.809 319.673 33.1956 319.326C33.5823 318.98 33.819 318.51 33.9056 317.916H31.2956V317.006H35.1256V317.896C35.0523 318.436 34.859 318.933 34.5456 319.386C34.239 319.84 33.8356 320.203 33.3356 320.476C32.8423 320.743 32.2923 320.876 31.6856 320.876C31.0323 320.876 30.4356 320.726 29.8956 320.426C29.3556 320.12 28.9256 319.696 28.6056 319.156C28.2923 318.616 28.1356 318.006 28.1356 317.326C28.1356 316.646 28.2923 316.036 28.6056 315.496C28.9256 314.956 29.3556 314.536 29.8956 314.236C30.4423 313.93 31.039 313.776 31.6856 313.776C32.4256 313.776 33.0823 313.96 33.6556 314.326C34.2356 314.686 34.6556 315.2 34.9156 315.866H33.5456ZM41.3 317.926C41.3 318.133 41.2867 318.32 41.26 318.486H37.05C37.0833 318.926 37.2467 319.28 37.54 319.546C37.8333 319.813 38.1933 319.946 38.62 319.946C39.2333 319.946 39.6667 319.69 39.92 319.176H41.15C40.9833 319.683 40.68 320.1 40.24 320.426C39.8067 320.746 39.2667 320.906 38.62 320.906C38.0933 320.906 37.62 320.79 37.2 320.556C36.7867 320.316 36.46 319.983 36.22 319.556C35.9867 319.123 35.87 318.623 35.87 318.056C35.87 317.49 35.9833 316.993 36.21 316.566C36.4433 316.133 36.7667 315.8 37.18 315.566C37.6 315.333 38.08 315.216 38.62 315.216C39.14 315.216 39.6033 315.33 40.01 315.556C40.4167 315.783 40.7333 316.103 40.96 316.516C41.1867 316.923 41.3 317.393 41.3 317.926ZM40.11 317.566C40.1033 317.146 39.9533 316.81 39.66 316.556C39.3667 316.303 39.0033 316.176 38.57 316.176C38.1767 316.176 37.84 316.303 37.56 316.556C37.28 316.803 37.1133 317.14 37.06 317.566H40.11ZM44.4219 320.906C43.9885 320.906 43.5985 320.83 43.2519 320.676C42.9119 320.516 42.6419 320.303 42.4419 320.036C42.2419 319.763 42.1352 319.46 42.1219 319.126H43.3019C43.3219 319.36 43.4319 319.556 43.6319 319.716C43.8385 319.87 44.0952 319.946 44.4019 319.946C44.7219 319.946 44.9685 319.886 45.1419 319.766C45.3219 319.64 45.4119 319.48 45.4119 319.286C45.4119 319.08 45.3119 318.926 45.1119 318.826C44.9185 318.726 44.6085 318.616 44.1819 318.496C43.7685 318.383 43.4319 318.273 43.1719 318.166C42.9119 318.06 42.6852 317.896 42.4919 317.676C42.3052 317.456 42.2119 317.166 42.2119 316.806C42.2119 316.513 42.2985 316.246 42.4719 316.006C42.6452 315.76 42.8919 315.566 43.2119 315.426C43.5385 315.286 43.9119 315.216 44.3319 315.216C44.9585 315.216 45.4619 315.376 45.8419 315.696C46.2285 316.01 46.4352 316.44 46.4619 316.986H45.3219C45.3019 316.74 45.2019 316.543 45.0219 316.396C44.8419 316.25 44.5985 316.176 44.2919 316.176C43.9919 316.176 43.7619 316.233 43.6019 316.346C43.4419 316.46 43.3619 316.61 43.3619 316.796C43.3619 316.943 43.4152 317.066 43.5219 317.166C43.6285 317.266 43.7585 317.346 43.9119 317.406C44.0652 317.46 44.2919 317.53 44.5919 317.616C44.9919 317.723 45.3185 317.833 45.5719 317.946C45.8319 318.053 46.0552 318.213 46.2419 318.426C46.4285 318.64 46.5252 318.923 46.5319 319.276C46.5319 319.59 46.4452 319.87 46.2719 320.116C46.0985 320.363 45.8519 320.556 45.5319 320.696C45.2185 320.836 44.8485 320.906 44.4219 320.906ZM49.0937 316.236V319.286C49.0937 319.493 49.1403 319.643 49.2337 319.736C49.3337 319.823 49.5003 319.866 49.7337 319.866H50.4337V320.816H49.5337C49.0203 320.816 48.627 320.696 48.3537 320.456C48.0803 320.216 47.9437 319.826 47.9437 319.286V316.236H47.2937V315.306H47.9437V313.936H49.0937V315.306H50.4337V316.236H49.0937ZM52.0644 314.576C51.8577 314.576 51.6844 314.506 51.5444 314.366C51.4044 314.226 51.3344 314.053 51.3344 313.846C51.3344 313.64 51.4044 313.466 51.5444 313.326C51.6844 313.186 51.8577 313.116 52.0644 313.116C52.2644 313.116 52.4344 313.186 52.5744 313.326C52.7144 313.466 52.7844 313.64 52.7844 313.846C52.7844 314.053 52.7144 314.226 52.5744 314.366C52.4344 314.506 52.2644 314.576 52.0644 314.576ZM52.6244 315.306V320.816H51.4844V315.306H52.6244ZM56.5111 320.906C55.9911 320.906 55.5211 320.79 55.1011 320.556C54.6811 320.316 54.3511 319.983 54.1111 319.556C53.8711 319.123 53.7511 318.623 53.7511 318.056C53.7511 317.496 53.8744 317 54.1211 316.566C54.3678 316.133 54.7044 315.8 55.1311 315.566C55.5578 315.333 56.0344 315.216 56.5611 315.216C57.0878 315.216 57.5644 315.333 57.9911 315.566C58.4178 315.8 58.7544 316.133 59.0011 316.566C59.2478 317 59.3711 317.496 59.3711 318.056C59.3711 318.616 59.2444 319.113 58.9911 319.546C58.7378 319.98 58.3911 320.316 57.9511 320.556C57.5178 320.79 57.0378 320.906 56.5111 320.906ZM56.5111 319.916C56.8044 319.916 57.0778 319.846 57.3311 319.706C57.5911 319.566 57.8011 319.356 57.9611 319.076C58.1211 318.796 58.2011 318.456 58.2011 318.056C58.2011 317.656 58.1244 317.32 57.9711 317.046C57.8178 316.766 57.6144 316.556 57.3611 316.416C57.1078 316.276 56.8344 316.206 56.5411 316.206C56.2478 316.206 55.9744 316.276 55.7211 316.416C55.4744 316.556 55.2778 316.766 55.1311 317.046C54.9844 317.32 54.9111 317.656 54.9111 318.056C54.9111 318.65 55.0611 319.11 55.3611 319.436C55.6678 319.756 56.0511 319.916 56.5111 319.916ZM57.5911 313.736L55.3811 314.826V313.986L57.5911 312.766V313.736ZM63.278 315.216C63.7114 315.216 64.098 315.306 64.438 315.486C64.7847 315.666 65.0547 315.933 65.248 316.286C65.4414 316.64 65.538 317.066 65.538 317.566V320.816H64.408V317.736C64.408 317.243 64.2847 316.866 64.038 316.606C63.7914 316.34 63.4547 316.206 63.028 316.206C62.6014 316.206 62.2614 316.34 62.008 316.606C61.7614 316.866 61.638 317.243 61.638 317.736V320.816H60.498V315.306H61.638V315.936C61.8247 315.71 62.0614 315.533 62.348 315.406C62.6414 315.28 62.9514 315.216 63.278 315.216ZM69.2098 318.036C69.2098 317.483 69.3232 316.993 69.5498 316.566C69.7832 316.14 70.0965 315.81 70.4898 315.576C70.8898 315.336 71.3332 315.216 71.8198 315.216C72.1798 315.216 72.5332 315.296 72.8798 315.456C73.2332 315.61 73.5132 315.816 73.7198 316.076V313.416H74.8698V320.816H73.7198V319.986C73.5332 320.253 73.2732 320.473 72.9398 320.646C72.6132 320.82 72.2365 320.906 71.8098 320.906C71.3298 320.906 70.8898 320.786 70.4898 320.546C70.0965 320.3 69.7832 319.96 69.5498 319.526C69.3232 319.086 69.2098 318.59 69.2098 318.036ZM73.7198 318.056C73.7198 317.676 73.6398 317.346 73.4798 317.066C73.3265 316.786 73.1232 316.573 72.8698 316.426C72.6165 316.28 72.3432 316.206 72.0498 316.206C71.7565 316.206 71.4832 316.28 71.2298 316.426C70.9765 316.566 70.7698 316.776 70.6098 317.056C70.4565 317.33 70.3798 317.656 70.3798 318.036C70.3798 318.416 70.4565 318.75 70.6098 319.036C70.7698 319.323 70.9765 319.543 71.2298 319.696C71.4898 319.843 71.7632 319.916 72.0498 319.916C72.3432 319.916 72.6165 319.843 72.8698 319.696C73.1232 319.55 73.3265 319.336 73.4798 319.056C73.6398 318.77 73.7198 318.436 73.7198 318.056ZM81.4172 317.926C81.4172 318.133 81.4039 318.32 81.3772 318.486H77.1672C77.2005 318.926 77.3639 319.28 77.6572 319.546C77.9505 319.813 78.3105 319.946 78.7372 319.946C79.3505 319.946 79.7839 319.69 80.0372 319.176H81.2672C81.1005 319.683 80.7972 320.1 80.3572 320.426C79.9239 320.746 79.3839 320.906 78.7372 320.906C78.2105 320.906 77.7372 320.79 77.3172 320.556C76.9039 320.316 76.5772 319.983 76.3372 319.556C76.1039 319.123 75.9872 318.623 75.9872 318.056C75.9872 317.49 76.1005 316.993 76.3272 316.566C76.5605 316.133 76.8839 315.8 77.2972 315.566C77.7172 315.333 78.1972 315.216 78.7372 315.216C79.2572 315.216 79.7205 315.33 80.1272 315.556C80.5339 315.783 80.8505 316.103 81.0772 316.516C81.3039 316.923 81.4172 317.393 81.4172 317.926ZM80.2272 317.566C80.2205 317.146 80.0705 316.81 79.7772 316.556C79.4839 316.303 79.1205 316.176 78.6872 316.176C78.2939 316.176 77.9572 316.303 77.6772 316.556C77.3972 316.803 77.2305 317.14 77.1772 317.566H80.2272ZM87.2667 319.796L88.8267 315.306H90.0367L87.9367 320.816H86.5767L84.4867 315.306H85.7067L87.2667 319.796ZM95.9484 317.926C95.9484 318.133 95.9351 318.32 95.9084 318.486H91.6984C91.7318 318.926 91.8951 319.28 92.1884 319.546C92.4818 319.813 92.8418 319.946 93.2684 319.946C93.8818 319.946 94.3151 319.69 94.5684 319.176H95.7984C95.6318 319.683 95.3284 320.1 94.8884 320.426C94.4551 320.746 93.9151 320.906 93.2684 320.906C92.7418 320.906 92.2684 320.79 91.8484 320.556C91.4351 320.316 91.1084 319.983 90.8684 319.556C90.6351 319.123 90.5184 318.623 90.5184 318.056C90.5184 317.49 90.6318 316.993 90.8584 316.566C91.0918 316.133 91.4151 315.8 91.8284 315.566C92.2484 315.333 92.7284 315.216 93.2684 315.216C93.7884 315.216 94.2518 315.33 94.6584 315.556C95.0651 315.783 95.3818 316.103 95.6084 316.516C95.8351 316.923 95.9484 317.393 95.9484 317.926ZM94.7584 317.566C94.7518 317.146 94.6018 316.81 94.3084 316.556C94.0151 316.303 93.6518 316.176 93.2184 316.176C92.8251 316.176 92.4884 316.303 92.2084 316.556C91.9284 316.803 91.7618 317.14 91.7084 317.566H94.7584ZM99.8503 315.216C100.284 315.216 100.67 315.306 101.01 315.486C101.357 315.666 101.627 315.933 101.82 316.286C102.014 316.64 102.11 317.066 102.11 317.566V320.816H100.98V317.736C100.98 317.243 100.857 316.866 100.61 316.606C100.364 316.34 100.027 316.206 99.6003 316.206C99.1736 316.206 98.8336 316.34 98.5803 316.606C98.3336 316.866 98.2103 317.243 98.2103 317.736V320.816H97.0703V315.306H98.2103V315.936C98.397 315.71 98.6336 315.533 98.9203 315.406C99.2136 315.28 99.5236 315.216 99.8503 315.216ZM104.894 316.236V319.286C104.894 319.493 104.941 319.643 105.034 319.736C105.134 319.823 105.301 319.866 105.534 319.866H106.234V320.816H105.334C104.821 320.816 104.428 320.696 104.154 320.456C103.881 320.216 103.744 319.826 103.744 319.286V316.236H103.094V315.306H103.744V313.936H104.894V315.306H106.234V316.236H104.894ZM106.905 318.036C106.905 317.483 107.018 316.993 107.245 316.566C107.478 316.14 107.792 315.81 108.185 315.576C108.585 315.336 109.025 315.216 109.505 315.216C109.938 315.216 110.315 315.303 110.635 315.476C110.962 315.643 111.222 315.853 111.415 316.106V315.306H112.565V320.816H111.415V319.996C111.222 320.256 110.958 320.473 110.625 320.646C110.292 320.82 109.912 320.906 109.485 320.906C109.012 320.906 108.578 320.786 108.185 320.546C107.792 320.3 107.478 319.96 107.245 319.526C107.018 319.086 106.905 318.59 106.905 318.036ZM111.415 318.056C111.415 317.676 111.335 317.346 111.175 317.066C111.022 316.786 110.818 316.573 110.565 316.426C110.312 316.28 110.038 316.206 109.745 316.206C109.452 316.206 109.178 316.28 108.925 316.426C108.672 316.566 108.465 316.776 108.305 317.056C108.152 317.33 108.075 317.656 108.075 318.036C108.075 318.416 108.152 318.75 108.305 319.036C108.465 319.323 108.672 319.543 108.925 319.696C109.185 319.843 109.458 319.916 109.745 319.916C110.038 319.916 110.312 319.843 110.565 319.696C110.818 319.55 111.022 319.336 111.175 319.056C111.335 318.77 111.415 318.436 111.415 318.056ZM116.063 320.906C115.629 320.906 115.239 320.83 114.893 320.676C114.553 320.516 114.283 320.303 114.083 320.036C113.883 319.763 113.776 319.46 113.763 319.126H114.943C114.963 319.36 115.073 319.556 115.273 319.716C115.479 319.87 115.736 319.946 116.043 319.946C116.363 319.946 116.609 319.886 116.783 319.766C116.963 319.64 117.053 319.48 117.053 319.286C117.053 319.08 116.953 318.926 116.753 318.826C116.559 318.726 116.249 318.616 115.823 318.496C115.409 318.383 115.073 318.273 114.813 318.166C114.553 318.06 114.326 317.896 114.133 317.676C113.946 317.456 113.853 317.166 113.853 316.806C113.853 316.513 113.939 316.246 114.113 316.006C114.286 315.76 114.533 315.566 114.853 315.426C115.179 315.286 115.553 315.216 115.973 315.216C116.599 315.216 117.103 315.376 117.483 315.696C117.869 316.01 118.076 316.44 118.103 316.986H116.963C116.943 316.74 116.843 316.543 116.663 316.396C116.483 316.25 116.239 316.176 115.933 316.176C115.633 316.176 115.403 316.233 115.243 316.346C115.083 316.46 115.003 316.61 115.003 316.796C115.003 316.943 115.056 317.066 115.163 317.166C115.269 317.266 115.399 317.346 115.553 317.406C115.706 317.46 115.933 317.53 116.233 317.616C116.633 317.723 116.959 317.833 117.213 317.946C117.473 318.053 117.696 318.213 117.883 318.426C118.069 318.64 118.166 318.923 118.173 319.276C118.173 319.59 118.086 319.87 117.913 320.116C117.739 320.363 117.493 320.556 117.173 320.696C116.859 320.836 116.489 320.906 116.063 320.906Z" fill="#71A476"/>
<rect x="165.531" y="303.246" width="146.53" height="28.1413" rx="5.14141" fill="#D9F3F6"/>
<path d="M230.907 315.936C230.907 316.29 230.824 316.623 230.657 316.936C230.49 317.25 230.224 317.506 229.857 317.706C229.49 317.9 229.02 317.996 228.447 317.996H227.187V320.816H226.047V313.866H228.447C228.98 313.866 229.43 313.96 229.797 314.146C230.17 314.326 230.447 314.573 230.627 314.886C230.814 315.2 230.907 315.55 230.907 315.936ZM228.447 317.066C228.88 317.066 229.204 316.97 229.417 316.776C229.63 316.576 229.737 316.296 229.737 315.936C229.737 315.176 229.307 314.796 228.447 314.796H227.187V317.066H228.447ZM237.374 322.076L236.154 320.756C235.854 320.843 235.524 320.886 235.164 320.886C234.517 320.886 233.921 320.736 233.374 320.436C232.834 320.13 232.404 319.706 232.084 319.166C231.771 318.62 231.614 318.006 231.614 317.326C231.614 316.646 231.771 316.036 232.084 315.496C232.404 314.956 232.834 314.536 233.374 314.236C233.921 313.93 234.517 313.776 235.164 313.776C235.817 313.776 236.414 313.93 236.954 314.236C237.501 314.536 237.931 314.956 238.244 315.496C238.557 316.036 238.714 316.646 238.714 317.326C238.714 317.966 238.574 318.546 238.294 319.066C238.021 319.58 237.641 319.993 237.154 320.306L238.824 322.076H237.374ZM232.784 317.326C232.784 317.84 232.884 318.293 233.084 318.686C233.291 319.073 233.574 319.373 233.934 319.586C234.294 319.793 234.704 319.896 235.164 319.896C235.624 319.896 236.034 319.793 236.394 319.586C236.754 319.373 237.034 319.073 237.234 318.686C237.441 318.293 237.544 317.84 237.544 317.326C237.544 316.813 237.441 316.363 237.234 315.976C237.034 315.59 236.754 315.293 236.394 315.086C236.034 314.88 235.624 314.776 235.164 314.776C234.704 314.776 234.294 314.88 233.934 315.086C233.574 315.293 233.291 315.59 233.084 315.976C232.884 316.363 232.784 316.813 232.784 317.326ZM243.475 320.816L241.875 318.036H241.005V320.816H239.865V313.866H242.265C242.799 313.866 243.249 313.96 243.615 314.146C243.989 314.333 244.265 314.583 244.445 314.896C244.632 315.21 244.725 315.56 244.725 315.946C244.725 316.4 244.592 316.813 244.325 317.186C244.065 317.553 243.662 317.803 243.115 317.936L244.835 320.816H243.475ZM241.005 317.126H242.265C242.692 317.126 243.012 317.02 243.225 316.806C243.445 316.593 243.555 316.306 243.555 315.946C243.555 315.586 243.449 315.306 243.235 315.106C243.022 314.9 242.699 314.796 242.265 314.796H241.005V317.126ZM248.474 320.886C248.007 320.886 247.587 320.806 247.214 320.646C246.84 320.48 246.547 320.246 246.334 319.946C246.12 319.646 246.014 319.296 246.014 318.896H247.234C247.26 319.196 247.377 319.443 247.584 319.636C247.797 319.83 248.094 319.926 248.474 319.926C248.867 319.926 249.174 319.833 249.394 319.646C249.614 319.453 249.724 319.206 249.724 318.906C249.724 318.673 249.654 318.483 249.514 318.336C249.38 318.19 249.21 318.076 249.004 317.996C248.804 317.916 248.524 317.83 248.164 317.736C247.71 317.616 247.34 317.496 247.054 317.376C246.774 317.25 246.534 317.056 246.334 316.796C246.134 316.536 246.034 316.19 246.034 315.756C246.034 315.356 246.134 315.006 246.334 314.706C246.534 314.406 246.814 314.176 247.174 314.016C247.534 313.856 247.95 313.776 248.424 313.776C249.097 313.776 249.647 313.946 250.074 314.286C250.507 314.62 250.747 315.08 250.794 315.666H249.534C249.514 315.413 249.394 315.196 249.174 315.016C248.954 314.836 248.664 314.746 248.304 314.746C247.977 314.746 247.71 314.83 247.504 314.996C247.297 315.163 247.194 315.403 247.194 315.716C247.194 315.93 247.257 316.106 247.384 316.246C247.517 316.38 247.684 316.486 247.884 316.566C248.084 316.646 248.357 316.733 248.704 316.826C249.164 316.953 249.537 317.08 249.824 317.206C250.117 317.333 250.364 317.53 250.564 317.796C250.77 318.056 250.874 318.406 250.874 318.846C250.874 319.2 250.777 319.533 250.584 319.846C250.397 320.16 250.12 320.413 249.754 320.606C249.394 320.793 248.967 320.886 248.474 320.886Z" fill="#02ADC1"/>
</svg>
