<svg width="663" height="231" viewBox="0 0 663 231" fill="none" xmlns="http://www.w3.org/2000/svg">
<rect x="8" y="66" width="182.863" height="35.0406" rx="6.41624" fill="#AD54E0" fill-opacity="0.19"/>
<path d="M36.9264 81.5994C36.6929 81.1497 36.3686 80.8125 35.9536 80.5877C35.5386 80.3543 35.0587 80.2375 34.5139 80.2375C33.9173 80.2375 33.3855 80.3715 32.9186 80.6396C32.4517 80.9076 32.0842 81.2881 31.8162 81.781C31.5568 82.2738 31.4271 82.8445 31.4271 83.493C31.4271 84.1415 31.5568 84.7165 31.8162 85.218C32.0842 85.7109 32.4517 86.0913 32.9186 86.3594C33.3855 86.6274 33.9173 86.7614 34.5139 86.7614C35.3181 86.7614 35.9709 86.5366 36.4724 86.087C36.9739 85.6374 37.2809 85.0278 37.3933 84.2582H34.0081V83.078H38.9756V84.2323C38.8805 84.9327 38.6298 85.5768 38.2234 86.1648C37.8256 86.7528 37.3025 87.224 36.654 87.5786C36.0141 87.9244 35.3008 88.0974 34.5139 88.0974C33.6666 88.0974 32.8927 87.9028 32.1923 87.5137C31.4919 87.116 30.9342 86.5669 30.5192 85.8665C30.1128 85.1661 29.9096 84.375 29.9096 83.493C29.9096 82.611 30.1128 81.8199 30.5192 81.1195C30.9342 80.4191 31.4919 79.8744 32.1923 79.4853C32.9013 79.0875 33.6752 78.8886 34.5139 78.8886C35.4737 78.8886 36.3254 79.1264 37.069 79.602C37.8213 80.0689 38.366 80.7347 38.7033 81.5994H36.9264ZM46.9838 84.2712C46.9838 84.5392 46.9665 84.7814 46.9319 84.9975H41.4715C41.5148 85.5682 41.7266 86.0265 42.1071 86.3723C42.4875 86.7182 42.9544 86.8911 43.5078 86.8911C44.3033 86.8911 44.8654 86.5582 45.1939 85.8924H46.7892C46.5731 86.5496 46.1797 87.09 45.609 87.5137C45.0469 87.9287 44.3466 88.1363 43.5078 88.1363C42.8247 88.1363 42.2108 87.9849 41.6661 87.6823C41.13 87.371 40.7063 86.9387 40.395 86.3853C40.0924 85.8233 39.9411 85.1748 39.9411 84.4398C39.9411 83.7048 40.0881 83.0607 40.3821 82.5073C40.6847 81.9452 41.1041 81.5129 41.6401 81.2103C42.1849 80.9076 42.8075 80.7563 43.5078 80.7563C44.1823 80.7563 44.7832 80.9033 45.3107 81.1973C45.8381 81.4913 46.2488 81.9063 46.5428 82.4424C46.8368 82.9699 46.9838 83.5795 46.9838 84.2712ZM45.4404 83.8043C45.4317 83.2595 45.2372 82.8229 44.8567 82.4943C44.4763 82.1657 44.005 82.0014 43.443 82.0014C42.9328 82.0014 42.4962 82.1657 42.133 82.4943C41.7698 82.8142 41.5537 83.2509 41.4845 83.8043H45.4404ZM51.0329 88.1363C50.4708 88.1363 49.965 88.0368 49.5154 87.838C49.0744 87.6304 48.7242 87.3537 48.4648 87.0079C48.2054 86.6534 48.0671 86.2599 48.0498 85.8276H49.5802C49.6062 86.1302 49.7488 86.3853 50.0082 86.5928C50.2763 86.7917 50.6092 86.8911 51.0069 86.8911C51.422 86.8911 51.7419 86.8133 51.9667 86.6577C52.2002 86.4934 52.3169 86.2859 52.3169 86.0351C52.3169 85.7671 52.1872 85.5682 51.9278 85.4385C51.6771 85.3088 51.275 85.1661 50.7216 85.0105C50.1855 84.8635 49.7488 84.7208 49.4116 84.5825C49.0744 84.4441 48.7804 84.2323 48.5297 83.9469C48.2876 83.6616 48.1665 83.2855 48.1665 82.8186C48.1665 82.4381 48.2789 82.0922 48.5037 81.781C48.7285 81.461 49.0485 81.2103 49.4635 81.0287C49.8872 80.8471 50.3714 80.7563 50.9161 80.7563C51.7289 80.7563 52.3818 80.9638 52.8746 81.3789C53.3761 81.7853 53.6442 82.343 53.6788 83.052H52.2002C52.1742 82.7321 52.0445 82.477 51.8111 82.2868C51.5776 82.0966 51.262 82.0014 50.8643 82.0014C50.4752 82.0014 50.1769 82.0749 49.9693 82.2219C49.7618 82.3689 49.6581 82.5635 49.6581 82.8056C49.6581 82.9958 49.7272 83.1558 49.8656 83.2855C50.0039 83.4152 50.1725 83.5189 50.3714 83.5968C50.5703 83.6659 50.8643 83.7567 51.2534 83.8691C51.7722 84.0075 52.1959 84.1501 52.5244 84.2971C52.8616 84.4355 53.1513 84.643 53.3934 84.9197C53.6355 85.1964 53.7609 85.5639 53.7695 86.0221C53.7695 86.4285 53.6571 86.7917 53.4323 87.1116C53.2075 87.4316 52.8876 87.6823 52.4725 87.8639C52.0662 88.0455 51.5863 88.1363 51.0329 88.1363ZM57.0922 82.0793V86.0351C57.0922 86.3032 57.1527 86.4977 57.2738 86.6188C57.4035 86.7312 57.6196 86.7874 57.9223 86.7874H58.8302V88.0195H57.6629C56.9971 88.0195 56.4869 87.8639 56.1324 87.5526C55.7779 87.2413 55.6006 86.7355 55.6006 86.0351L55.6006 82.0793H54.7576V80.8731H55.6006V79.0962H57.0922V80.8731H58.8302V82.0793H57.0922ZM60.9452 79.9262C60.6772 79.9262 60.4523 79.8354 60.2708 79.6539C60.0892 79.4723 59.9984 79.2475 59.9984 78.9794C59.9984 78.7114 60.0892 78.4866 60.2708 78.305C60.4523 78.1234 60.6772 78.0326 60.9452 78.0326C61.2046 78.0326 61.4251 78.1234 61.6067 78.305C61.7883 78.4866 61.879 78.7114 61.879 78.9794C61.879 79.2475 61.7883 79.4723 61.6067 79.6539C61.4251 79.8354 61.2046 79.9262 60.9452 79.9262ZM61.6715 80.8731V88.0195H60.1929V80.8731H61.6715ZM66.7126 88.1363C66.0382 88.1363 65.4286 87.9849 64.8838 87.6823C64.3391 87.371 63.9111 86.9387 63.5998 86.3853C63.2885 85.8233 63.1329 85.1748 63.1329 84.4398C63.1329 83.7135 63.2929 83.0693 63.6128 82.5073C63.9327 81.9452 64.3694 81.5129 64.9227 81.2103C65.4761 80.9076 66.0944 80.7563 66.7775 80.7563C67.4605 80.7563 68.0788 80.9076 68.6322 81.2103C69.1856 81.5129 69.6222 81.9452 69.9421 82.5073C70.2621 83.0693 70.422 83.7135 70.422 84.4398C70.422 85.1661 70.2578 85.8103 69.9292 86.3723C69.6006 86.9344 69.151 87.371 68.5803 87.6823C68.0183 87.9849 67.3957 88.1363 66.7126 88.1363ZM66.7126 86.8522C67.0931 86.8522 67.4476 86.7614 67.7762 86.5799C68.1134 86.3983 68.3857 86.1259 68.5933 85.7627C68.8008 85.3996 68.9045 84.9586 68.9045 84.4398C68.9045 83.921 68.8051 83.4843 68.6062 83.1298C68.4074 82.7667 68.1436 82.4943 67.8151 82.3127C67.4865 82.1311 67.132 82.0404 66.7515 82.0404C66.3711 82.0404 66.0166 82.1311 65.688 82.3127C65.3681 82.4943 65.113 82.7667 64.9227 83.1298C64.7325 83.4843 64.6374 83.921 64.6374 84.4398C64.6374 85.2094 64.832 85.806 65.2211 86.2297C65.6188 86.6447 66.116 86.8522 66.7126 86.8522ZM68.1134 78.8368L65.247 80.2505V79.161L68.1134 77.5787V78.8368ZM75.4894 80.7563C76.0514 80.7563 76.5529 80.8731 76.9939 81.1065C77.4435 81.34 77.7937 81.6858 78.0445 82.1441C78.2952 82.6024 78.4206 83.1558 78.4206 83.8043V88.0195H76.955V84.0248C76.955 83.3849 76.795 82.8964 76.4751 82.5592C76.1552 82.2133 75.7185 82.0404 75.1651 82.0404C74.6117 82.0404 74.1707 82.2133 73.8422 82.5592C73.5222 82.8964 73.3623 83.3849 73.3623 84.0248V88.0195H71.8837V80.8731H73.3623V81.6902C73.6044 81.3962 73.9113 81.167 74.2831 81.0028C74.6636 80.8385 75.0657 80.7563 75.4894 80.7563ZM83.1829 84.4139C83.1829 83.6962 83.3299 83.0607 83.6239 82.5073C83.9265 81.9539 84.3329 81.5259 84.8431 81.2232C85.3619 80.912 85.9369 80.7563 86.5681 80.7563C87.035 80.7563 87.4933 80.8601 87.9429 81.0676C88.4012 81.2665 88.7643 81.5345 89.0324 81.8717V78.4217H90.5239V88.0195H89.0324V86.943C88.7903 87.2889 88.4531 87.5742 88.0207 87.799C87.597 88.0239 87.1085 88.1363 86.5551 88.1363C85.9326 88.1363 85.3619 87.9806 84.8431 87.6693C84.3329 87.3494 83.9265 86.9084 83.6239 86.3464C83.3299 85.7757 83.1829 85.1315 83.1829 84.4139ZM89.0324 84.4398C89.0324 83.9469 88.9286 83.5189 88.7211 83.1558C88.5222 82.7926 88.2585 82.5159 87.9299 82.3257C87.6014 82.1355 87.2469 82.0404 86.8664 82.0404C86.4859 82.0404 86.1314 82.1355 85.8029 82.3257C85.4743 82.5073 85.2062 82.7796 84.9987 83.1428C84.7998 83.4973 84.7004 83.921 84.7004 84.4139C84.7004 84.9067 84.7998 85.3391 84.9987 85.7109C85.2062 86.0827 85.4743 86.368 85.8029 86.5669C86.1401 86.7571 86.4946 86.8522 86.8664 86.8522C87.2469 86.8522 87.6014 86.7571 87.9299 86.5669C88.2585 86.3767 88.5222 86.1 88.7211 85.7368C88.9286 85.365 89.0324 84.9327 89.0324 84.4398ZM99.0159 84.2712C99.0159 84.5392 98.9986 84.7814 98.964 84.9975H93.5036C93.5468 85.5682 93.7587 86.0265 94.1391 86.3723C94.5196 86.7182 94.9865 86.8911 95.5399 86.8911C96.3354 86.8911 96.8974 86.5582 97.226 85.8924H98.8213C98.6051 86.5496 98.2117 87.09 97.641 87.5137C97.079 87.9287 96.3786 88.1363 95.5399 88.1363C94.8568 88.1363 94.2429 87.9849 93.6982 87.6823C93.1621 87.371 92.7384 86.9387 92.4271 86.3853C92.1245 85.8233 91.9731 85.1748 91.9731 84.4398C91.9731 83.7048 92.1201 83.0607 92.4141 82.5073C92.7168 81.9452 93.1361 81.5129 93.6722 81.2103C94.217 80.9076 94.8395 80.7563 95.5399 80.7563C96.2143 80.7563 96.8153 80.9033 97.3427 81.1973C97.8702 81.4913 98.2809 81.9063 98.5749 82.4424C98.8689 82.9699 99.0159 83.5795 99.0159 84.2712ZM97.4724 83.8043C97.4638 83.2595 97.2692 82.8229 96.8888 82.4943C96.5083 82.1657 96.0371 82.0014 95.475 82.0014C94.9649 82.0014 94.5282 82.1657 94.1651 82.4943C93.8019 82.8142 93.5857 83.2509 93.5166 83.8043H97.4724ZM103.347 84.4398C103.347 83.7048 103.494 83.0607 103.788 82.5073C104.091 81.9452 104.506 81.5129 105.033 81.2103C105.561 80.9076 106.166 80.7563 106.849 80.7563C107.714 80.7563 108.427 80.9638 108.989 81.3789C109.56 81.7853 109.945 82.3689 110.144 83.1298H108.548C108.419 82.7753 108.211 82.4986 107.926 82.2998C107.64 82.1009 107.281 82.0014 106.849 82.0014C106.244 82.0014 105.76 82.2176 105.397 82.6499C105.042 83.0736 104.865 83.6703 104.865 84.4398C104.865 85.2094 105.042 85.8103 105.397 86.2426C105.76 86.675 106.244 86.8911 106.849 86.8911C107.705 86.8911 108.272 86.515 108.548 85.7627H110.144C109.936 86.4891 109.547 87.0684 108.976 87.5007C108.406 87.9244 107.697 88.1363 106.849 88.1363C106.166 88.1363 105.561 87.9849 105.033 87.6823C104.506 87.371 104.091 86.9387 103.788 86.3853C103.494 85.8233 103.347 85.1748 103.347 84.4398ZM114.717 88.1363C114.042 88.1363 113.433 87.9849 112.888 87.6823C112.343 87.371 111.915 86.9387 111.604 86.3853C111.293 85.8233 111.137 85.1748 111.137 84.4398C111.137 83.7135 111.297 83.0693 111.617 82.5073C111.937 81.9452 112.374 81.5129 112.927 81.2103C113.48 80.9076 114.099 80.7563 114.782 80.7563C115.465 80.7563 116.083 80.9076 116.636 81.2103C117.19 81.5129 117.626 81.9452 117.946 82.5073C118.266 83.0693 118.426 83.7135 118.426 84.4398C118.426 85.1661 118.262 85.8103 117.933 86.3723C117.605 86.9344 117.155 87.371 116.585 87.6823C116.023 87.9849 115.4 88.1363 114.717 88.1363ZM114.717 86.8522C115.097 86.8522 115.452 86.7614 115.78 86.5799C116.118 86.3983 116.39 86.1259 116.598 85.7627C116.805 85.3996 116.909 84.9586 116.909 84.4398C116.909 83.921 116.809 83.4843 116.61 83.1298C116.412 82.7667 116.148 82.4943 115.819 82.3127C115.491 82.1311 115.136 82.0404 114.756 82.0404C114.375 82.0404 114.021 82.1311 113.692 82.3127C113.372 82.4943 113.117 82.7667 112.927 83.1298C112.737 83.4843 112.642 83.921 112.642 84.4398C112.642 85.2094 112.836 85.806 113.225 86.2297C113.623 86.6447 114.12 86.8522 114.717 86.8522ZM123.494 80.7563C124.056 80.7563 124.557 80.8731 124.998 81.1065C125.448 81.34 125.798 81.6858 126.049 82.1441C126.299 82.6024 126.425 83.1558 126.425 83.8043V88.0195H124.959V84.0248C124.959 83.3849 124.799 82.8964 124.479 82.5592C124.159 82.2133 123.723 82.0404 123.169 82.0404C122.616 82.0404 122.175 82.2133 121.846 82.5592C121.527 82.8964 121.367 83.3849 121.367 84.0248V88.0195H119.888V80.8731H121.367V81.6902C121.609 81.3962 121.916 81.167 122.287 81.0028C122.668 80.8385 123.07 80.7563 123.494 80.7563ZM130.036 82.0793V86.0351C130.036 86.3032 130.096 86.4977 130.217 86.6188C130.347 86.7312 130.563 86.7874 130.866 86.7874H131.774V88.0195H130.607C129.941 88.0195 129.431 87.8639 129.076 87.5526C128.722 87.2413 128.544 86.7355 128.544 86.0351V82.0793H127.701V80.8731H128.544V79.0962H130.036V80.8731H131.774V82.0793H130.036ZM132.644 84.4139C132.644 83.6962 132.791 83.0607 133.085 82.5073C133.387 81.9539 133.794 81.5259 134.304 81.2232C134.823 80.912 135.393 80.7563 136.016 80.7563C136.578 80.7563 137.067 80.8687 137.482 81.0935C137.905 81.3097 138.242 81.5821 138.493 81.9107V80.8731H139.985V88.0195H138.493V86.956C138.242 87.2932 137.901 87.5742 137.469 87.799C137.036 88.0239 136.543 88.1363 135.99 88.1363C135.376 88.1363 134.814 87.9806 134.304 87.6693C133.794 87.3494 133.387 86.9084 133.085 86.3464C132.791 85.7757 132.644 85.1315 132.644 84.4139ZM138.493 84.4398C138.493 83.9469 138.389 83.5189 138.182 83.1558C137.983 82.7926 137.719 82.5159 137.391 82.3257C137.062 82.1355 136.708 82.0404 136.327 82.0404C135.947 82.0404 135.592 82.1355 135.264 82.3257C134.935 82.5073 134.667 82.7796 134.46 83.1428C134.261 83.4973 134.161 83.921 134.161 84.4139C134.161 84.9067 134.261 85.3391 134.46 85.7109C134.667 86.0827 134.935 86.368 135.264 86.5669C135.601 86.7571 135.955 86.8522 136.327 86.8522C136.708 86.8522 137.062 86.7571 137.391 86.5669C137.719 86.3767 137.983 86.1 138.182 85.7368C138.389 85.365 138.493 84.9327 138.493 84.4398ZM141.434 84.4398C141.434 83.7048 141.581 83.0607 141.875 82.5073C142.178 81.9452 142.593 81.5129 143.12 81.2103C143.648 80.9076 144.253 80.7563 144.936 80.7563C145.801 80.7563 146.514 80.9638 147.076 81.3789C147.647 81.7853 148.031 82.3689 148.23 83.1298H146.635C146.505 82.7753 146.298 82.4986 146.012 82.2998C145.727 82.1009 145.368 82.0014 144.936 82.0014C144.331 82.0014 143.846 82.2176 143.483 82.6499C143.129 83.0736 142.951 83.6703 142.951 84.4398C142.951 85.2094 143.129 85.8103 143.483 86.2426C143.846 86.675 144.331 86.8911 144.936 86.8911C145.792 86.8911 146.358 86.515 146.635 85.7627H148.23C148.023 86.4891 147.634 87.0684 147.063 87.5007C146.492 87.9244 145.783 88.1363 144.936 88.1363C144.253 88.1363 143.648 87.9849 143.12 87.6823C142.593 87.371 142.178 86.9387 141.875 86.3853C141.581 85.8233 141.434 85.1748 141.434 84.4398ZM151.429 82.0793V86.0351C151.429 86.3032 151.489 86.4977 151.61 86.6188C151.74 86.7312 151.956 86.7874 152.259 86.7874H153.167V88.0195H151.999C151.334 88.0195 150.824 87.8639 150.469 87.5526C150.115 87.2413 149.937 86.7355 149.937 86.0351V82.0793H149.094V80.8731H149.937V79.0962H151.429V80.8731H153.167V82.0793H151.429ZM157.629 88.1363C156.955 88.1363 156.345 87.9849 155.801 87.6823C155.256 87.371 154.828 86.9387 154.517 86.3853C154.205 85.8233 154.05 85.1748 154.05 84.4398C154.05 83.7135 154.21 83.0693 154.53 82.5073C154.849 81.9452 155.286 81.5129 155.84 81.2103C156.393 80.9076 157.011 80.7563 157.694 80.7563C158.377 80.7563 158.996 80.9076 159.549 81.2103C160.102 81.5129 160.539 81.9452 160.859 82.5073C161.179 83.0693 161.339 83.7135 161.339 84.4398C161.339 85.1661 161.175 85.8103 160.846 86.3723C160.517 86.9344 160.068 87.371 159.497 87.6823C158.935 87.9849 158.312 88.1363 157.629 88.1363ZM157.629 86.8522C158.01 86.8522 158.364 86.7614 158.693 86.5799C159.03 86.3983 159.303 86.1259 159.51 85.7627C159.718 85.3996 159.821 84.9586 159.821 84.4398C159.821 83.921 159.722 83.4843 159.523 83.1298C159.324 82.7667 159.06 82.4943 158.732 82.3127C158.403 82.1311 158.049 82.0404 157.668 82.0404C157.288 82.0404 156.933 82.1311 156.605 82.3127C156.285 82.4943 156.03 82.7667 155.84 83.1298C155.649 83.4843 155.554 83.921 155.554 84.4398C155.554 85.2094 155.749 85.806 156.138 86.2297C156.536 86.6447 157.033 86.8522 157.629 86.8522ZM165.394 88.1363C164.832 88.1363 164.327 88.0368 163.877 87.838C163.436 87.6304 163.086 87.3537 162.826 87.0079C162.567 86.6534 162.429 86.2599 162.411 85.8276H163.942C163.968 86.1302 164.11 86.3853 164.37 86.5928C164.638 86.7917 164.971 86.8911 165.369 86.8911C165.784 86.8911 166.104 86.8133 166.328 86.6577C166.562 86.4934 166.679 86.2859 166.679 86.0351C166.679 85.7671 166.549 85.5682 166.289 85.4385C166.039 85.3088 165.637 85.1661 165.083 85.0105C164.547 84.8635 164.11 84.7208 163.773 84.5825C163.436 84.4441 163.142 84.2323 162.891 83.9469C162.649 83.6616 162.528 83.2855 162.528 82.8186C162.528 82.4381 162.641 82.0922 162.865 81.781C163.09 81.461 163.41 81.2103 163.825 81.0287C164.249 80.8471 164.733 80.7563 165.278 80.7563C166.091 80.7563 166.743 80.9638 167.236 81.3789C167.738 81.7853 168.006 82.343 168.04 83.052H166.562C166.536 82.7321 166.406 82.477 166.173 82.2868C165.939 82.0966 165.624 82.0014 165.226 82.0014C164.837 82.0014 164.538 82.0749 164.331 82.2219C164.123 82.3689 164.02 82.5635 164.02 82.8056C164.02 82.9958 164.089 83.1558 164.227 83.2855C164.366 83.4152 164.534 83.5189 164.733 83.5968C164.932 83.6659 165.226 83.7567 165.615 83.8691C166.134 84.0075 166.557 84.1501 166.886 84.2971C167.223 84.4355 167.513 84.643 167.755 84.9197C167.997 85.1964 168.123 85.5639 168.131 86.0221C168.131 86.4285 168.019 86.7917 167.794 87.1116C167.569 87.4316 167.249 87.6823 166.834 87.8639C166.428 88.0455 165.948 88.1363 165.394 88.1363Z" fill="#AD54E0"/>
<rect x="235" width="182.863" height="35.0406" rx="6.41624" fill="#0C91B6" fill-opacity="0.16"/>
<path d="M260.381 14.1986V16.8445H263.494V18.0507H260.381V20.8133H263.883V22.0195H258.902V12.9924H263.883V14.1986H260.381ZM268.467 20.6966L270.49 14.8731L272.059 14.8731L269.336 22.0195H267.572L264.861 14.8731L266.443 14.8731L268.467 20.6966ZM276.277 22.1363C275.602 22.1363 274.993 21.9849 274.448 21.6823C273.903 21.371 273.475 20.9387 273.164 20.3853C272.853 19.8233 272.697 19.1748 272.697 18.4398C272.697 17.7135 272.857 17.0693 273.177 16.5073C273.497 15.9452 273.934 15.5129 274.487 15.2103C275.04 14.9076 275.659 14.7563 276.342 14.7563C277.025 14.7563 277.643 14.9076 278.196 15.2103C278.75 15.5129 279.186 15.9452 279.506 16.5073C279.826 17.0693 279.986 17.7135 279.986 18.4398C279.986 19.1661 279.822 19.8103 279.493 20.3723C279.165 20.9344 278.715 21.371 278.145 21.6823C277.583 21.9849 276.96 22.1363 276.277 22.1363ZM276.277 20.8522C276.657 20.8522 277.012 20.7614 277.34 20.5799C277.678 20.3983 277.95 20.1259 278.158 19.7627C278.365 19.3996 278.469 18.9586 278.469 18.4398C278.469 17.921 278.369 17.4843 278.171 17.1298C277.972 16.7667 277.708 16.4943 277.379 16.3127C277.051 16.1311 276.696 16.0404 276.316 16.0404C275.935 16.0404 275.581 16.1311 275.252 16.3127C274.932 16.4943 274.677 16.7667 274.487 17.1298C274.297 17.4843 274.202 17.921 274.202 18.4398C274.202 19.2094 274.396 19.806 274.785 20.2297C275.183 20.6447 275.68 20.8522 276.277 20.8522ZM282.927 12.4217V22.0195H281.448V12.4217H282.927ZM291.34 14.8731V22.0195H289.861V21.1765C289.628 21.4705 289.321 21.7039 288.94 21.8769C288.569 22.0411 288.171 22.1233 287.747 22.1233C287.185 22.1233 286.679 22.0066 286.23 21.7731C285.789 21.5396 285.438 21.1938 285.179 20.7355C284.928 20.2772 284.803 19.7238 284.803 19.0753V14.8731H286.269V18.8548C286.269 19.4947 286.429 19.9876 286.748 20.3334C287.068 20.6706 287.505 20.8393 288.058 20.8393C288.612 20.8393 289.048 20.6706 289.368 20.3334C289.697 19.9876 289.861 19.4947 289.861 18.8548V14.8731H291.34ZM292.798 18.4398C292.798 17.7048 292.945 17.0607 293.239 16.5073C293.541 15.9452 293.957 15.5129 294.484 15.2103C295.011 14.9076 295.617 14.7563 296.3 14.7563C297.164 14.7563 297.878 14.9638 298.44 15.3789C299.01 15.7853 299.395 16.3689 299.594 17.1298H297.999C297.869 16.7753 297.662 16.4986 297.376 16.2998C297.091 16.1009 296.732 16.0014 296.3 16.0014C295.694 16.0014 295.21 16.2176 294.847 16.6499C294.493 17.0736 294.315 17.6703 294.315 18.4398C294.315 19.2094 294.493 19.8103 294.847 20.2426C295.21 20.675 295.694 20.8911 296.3 20.8911C297.156 20.8911 297.722 20.515 297.999 19.7627H299.594C299.387 20.4891 298.998 21.0684 298.427 21.5007C297.856 21.9244 297.147 22.1363 296.3 22.1363C295.617 22.1363 295.011 21.9849 294.484 21.6823C293.957 21.371 293.541 20.9387 293.239 20.3853C292.945 19.8233 292.798 19.1748 292.798 18.4398ZM301.82 13.9262C301.552 13.9262 301.327 13.8354 301.145 13.6539C300.964 13.4723 300.873 13.2475 300.873 12.9794C300.873 12.7114 300.964 12.4866 301.145 12.305C301.327 12.1234 301.552 12.0326 301.82 12.0326C302.079 12.0326 302.3 12.1234 302.481 12.305C302.663 12.4866 302.754 12.7114 302.754 12.9794C302.754 13.2475 302.663 13.4723 302.481 13.6539C302.3 13.8354 302.079 13.9262 301.82 13.9262ZM302.546 14.8731V22.0195H301.068V14.8731H302.546ZM307.587 22.1363C306.913 22.1363 306.303 21.9849 305.759 21.6823C305.214 21.371 304.786 20.9387 304.475 20.3853C304.163 19.8233 304.008 19.1748 304.008 18.4398C304.008 17.7135 304.168 17.0693 304.487 16.5073C304.807 15.9452 305.244 15.5129 305.797 15.2103C306.351 14.9076 306.969 14.7563 307.652 14.7563C308.335 14.7563 308.954 14.9076 309.507 15.2103C310.06 15.5129 310.497 15.9452 310.817 16.5073C311.137 17.0693 311.297 17.7135 311.297 18.4398C311.297 19.1661 311.132 19.8103 310.804 20.3723C310.475 20.9344 310.026 21.371 309.455 21.6823C308.893 21.9849 308.27 22.1363 307.587 22.1363ZM307.587 20.8522C307.968 20.8522 308.322 20.7614 308.651 20.5799C308.988 20.3983 309.26 20.1259 309.468 19.7627C309.675 19.3996 309.779 18.9586 309.779 18.4398C309.779 17.921 309.68 17.4843 309.481 17.1298C309.282 16.7667 309.018 16.4943 308.69 16.3127C308.361 16.1311 308.007 16.0404 307.626 16.0404C307.246 16.0404 306.891 16.1311 306.563 16.3127C306.243 16.4943 305.988 16.7667 305.797 17.1298C305.607 17.4843 305.512 17.921 305.512 18.4398C305.512 19.2094 305.707 19.806 306.096 20.2297C306.494 20.6447 306.991 20.8522 307.587 20.8522ZM308.988 12.8368L306.122 14.2505V13.161L308.988 11.5787V12.8368ZM316.364 14.7563C316.926 14.7563 317.428 14.8731 317.869 15.1065C318.318 15.34 318.668 15.6858 318.919 16.1441C319.17 16.6024 319.295 17.1558 319.295 17.8043V22.0195L317.83 22.0195V18.0248C317.83 17.3849 317.67 16.8964 317.35 16.5592C317.03 16.2133 316.593 16.0404 316.04 16.0404C315.486 16.0404 315.045 16.2133 314.717 16.5592C314.397 16.8964 314.237 17.3849 314.237 18.0248V22.0195H312.758V14.8731H314.237V15.6902C314.479 15.3962 314.786 15.167 315.158 15.0028C315.538 14.8385 315.94 14.7563 316.364 14.7563ZM324.058 18.4139C324.058 17.6962 324.205 17.0607 324.499 16.5073C324.801 15.9539 325.208 15.5259 325.718 15.2232C326.237 14.912 326.812 14.7563 327.443 14.7563C327.91 14.7563 328.368 14.8601 328.818 15.0676C329.276 15.2665 329.639 15.5345 329.907 15.8717V12.4217H331.399V22.0195H329.907V20.943C329.665 21.2889 329.328 21.5742 328.895 21.799C328.472 22.0239 327.983 22.1363 327.43 22.1363C326.807 22.1363 326.237 21.9806 325.718 21.6693C325.208 21.3494 324.801 20.9084 324.499 20.3464C324.205 19.7757 324.058 19.1315 324.058 18.4139ZM329.907 18.4398C329.907 17.9469 329.803 17.5189 329.596 17.1558C329.397 16.7926 329.133 16.5159 328.805 16.3257C328.476 16.1355 328.122 16.0404 327.741 16.0404C327.361 16.0404 327.006 16.1355 326.678 16.3257C326.349 16.5073 326.081 16.7796 325.873 17.1428C325.675 17.4973 325.575 17.921 325.575 18.4139C325.575 18.9067 325.675 19.3391 325.873 19.7109C326.081 20.0827 326.349 20.368 326.678 20.5669C327.015 20.7571 327.369 20.8522 327.741 20.8522C328.122 20.8522 328.476 20.7571 328.805 20.5669C329.133 20.3767 329.397 20.1 329.596 19.7368C329.803 19.365 329.907 18.9327 329.907 18.4398ZM339.891 18.2712C339.891 18.5392 339.873 18.7814 339.839 18.9975H334.378C334.422 19.5682 334.633 20.0265 335.014 20.3723C335.394 20.7182 335.861 20.8911 336.415 20.8911C337.21 20.8911 337.772 20.5582 338.101 19.8924H339.696C339.48 20.5496 339.086 21.09 338.516 21.5137C337.954 21.9287 337.253 22.1363 336.415 22.1363C335.732 22.1363 335.118 21.9849 334.573 21.6823C334.037 21.371 333.613 20.9387 333.302 20.3853C332.999 19.8233 332.848 19.1748 332.848 18.4398C332.848 17.7048 332.995 17.0607 333.289 16.5073C333.591 15.9452 334.011 15.5129 334.547 15.2103C335.092 14.9076 335.714 14.7563 336.415 14.7563C337.089 14.7563 337.69 14.9033 338.217 15.1973C338.745 15.4913 339.156 15.9063 339.45 16.4424C339.744 16.9699 339.891 17.5795 339.891 18.2712ZM338.347 17.8043C338.338 17.2595 338.144 16.8229 337.763 16.4943C337.383 16.1657 336.912 16.0014 336.35 16.0014C335.84 16.0014 335.403 16.1657 335.04 16.4943C334.677 16.8142 334.46 17.2509 334.391 17.8043H338.347ZM344.222 18.4398C344.222 17.7048 344.369 17.0607 344.663 16.5073C344.966 15.9452 345.381 15.5129 345.908 15.2103C346.435 14.9076 347.041 14.7563 347.724 14.7563C348.589 14.7563 349.302 14.9638 349.864 15.3789C350.435 15.7853 350.819 16.3689 351.018 17.1298H349.423C349.293 16.7753 349.086 16.4986 348.8 16.2998C348.515 16.1009 348.156 16.0014 347.724 16.0014C347.119 16.0014 346.634 16.2176 346.271 16.6499C345.917 17.0736 345.739 17.6703 345.739 18.4398C345.739 19.2094 345.917 19.8103 346.271 20.2426C346.634 20.675 347.119 20.8911 347.724 20.8911C348.58 20.8911 349.146 20.515 349.423 19.7627H351.018C350.811 20.4891 350.422 21.0684 349.851 21.5007C349.28 21.9244 348.571 22.1363 347.724 22.1363C347.041 22.1363 346.435 21.9849 345.908 21.6823C345.381 21.371 344.966 20.9387 344.663 20.3853C344.369 19.8233 344.222 19.1748 344.222 18.4398ZM353.97 12.4217V22.0195H352.492V12.4217H353.97ZM356.664 13.9262C356.396 13.9262 356.171 13.8354 355.989 13.6539C355.808 13.4723 355.717 13.2475 355.717 12.9794C355.717 12.7114 355.808 12.4866 355.989 12.305C356.171 12.1234 356.396 12.0326 356.664 12.0326C356.923 12.0326 357.144 12.1234 357.325 12.305C357.507 12.4866 357.598 12.7114 357.598 12.9794C357.598 13.2475 357.507 13.4723 357.325 13.6539C357.144 13.8354 356.923 13.9262 356.664 13.9262ZM357.39 14.8731V22.0195H355.912V14.8731H357.39ZM365.881 18.2712C365.881 18.5392 365.864 18.7814 365.829 18.9975L360.369 18.9975C360.412 19.5682 360.624 20.0265 361.005 20.3723C361.385 20.7182 361.852 20.8911 362.405 20.8911C363.201 20.8911 363.763 20.5582 364.091 19.8924H365.687C365.471 20.5496 365.077 21.09 364.506 21.5137C363.944 21.9287 363.244 22.1363 362.405 22.1363C361.722 22.1363 361.108 21.9849 360.564 21.6823C360.027 21.371 359.604 20.9387 359.292 20.3853C358.99 19.8233 358.839 19.1748 358.839 18.4398C358.839 17.7048 358.986 17.0607 359.28 16.5073C359.582 15.9452 360.002 15.5129 360.538 15.2103C361.082 14.9076 361.705 14.7563 362.405 14.7563C363.08 14.7563 363.681 14.9033 364.208 15.1973C364.736 15.4913 365.146 15.9063 365.44 16.4424C365.734 16.9699 365.881 17.5795 365.881 18.2712ZM364.338 17.8043C364.329 17.2595 364.135 16.8229 363.754 16.4943C363.374 16.1657 362.902 16.0014 362.34 16.0014C361.83 16.0014 361.394 16.1657 361.03 16.4943C360.667 16.8142 360.451 17.2509 360.382 17.8043L364.338 17.8043ZM370.942 14.7563C371.504 14.7563 372.006 14.8731 372.447 15.1065C372.896 15.34 373.246 15.6858 373.497 16.1441C373.748 16.6024 373.873 17.1558 373.873 17.8043V22.0195H372.408V18.0248C372.408 17.3849 372.248 16.8964 371.928 16.5592C371.608 16.2133 371.171 16.0404 370.618 16.0404C370.064 16.0404 369.623 16.2133 369.295 16.5592C368.975 16.8964 368.815 17.3849 368.815 18.0248V22.0195H367.336V14.8731H368.815V15.6902C369.057 15.3962 369.364 15.167 369.736 15.0028C370.116 14.8385 370.518 14.7563 370.942 14.7563ZM377.484 16.0793V20.0351C377.484 20.3032 377.545 20.4977 377.666 20.6188C377.796 20.7312 378.012 20.7874 378.314 20.7874H379.222V22.0195H378.055C377.389 22.0195 376.879 21.8639 376.524 21.5526C376.17 21.2413 375.993 20.7355 375.993 20.0351V16.0793H375.15V14.8731H375.993V13.0962L377.484 13.0962V14.8731H379.222V16.0793H377.484ZM387.135 18.2712C387.135 18.5392 387.118 18.7814 387.083 18.9975H381.623C381.666 19.5682 381.878 20.0265 382.258 20.3723C382.639 20.7182 383.106 20.8911 383.659 20.8911C384.454 20.8911 385.016 20.5582 385.345 19.8924H386.94C386.724 20.5496 386.331 21.09 385.76 21.5137C385.198 21.9287 384.498 22.1363 383.659 22.1363C382.976 22.1363 382.362 21.9849 381.817 21.6823C381.281 21.371 380.857 20.9387 380.546 20.3853C380.243 19.8233 380.092 19.1748 380.092 18.4398C380.092 17.7048 380.239 17.0607 380.533 16.5073C380.836 15.9452 381.255 15.5129 381.791 15.2103C382.336 14.9076 382.959 14.7563 383.659 14.7563C384.333 14.7563 384.934 14.9033 385.462 15.1973C385.989 15.4913 386.4 15.9063 386.694 16.4424C386.988 16.9699 387.135 17.5795 387.135 18.2712ZM385.591 17.8043C385.583 17.2595 385.388 16.8229 385.008 16.4943C384.627 16.1657 384.156 16.0014 383.594 16.0014C383.084 16.0014 382.647 16.1657 382.284 16.4943C381.921 16.8142 381.705 17.2509 381.636 17.8043H385.591ZM391.184 22.1363C390.622 22.1363 390.116 22.0368 389.666 21.838C389.225 21.6304 388.875 21.3537 388.616 21.0079C388.356 20.6534 388.218 20.2599 388.201 19.8276H389.731C389.757 20.1302 389.9 20.3853 390.159 20.5928C390.427 20.7917 390.76 20.8911 391.158 20.8911C391.573 20.8911 391.893 20.8133 392.118 20.6577C392.351 20.4934 392.468 20.2859 392.468 20.0351C392.468 19.7671 392.338 19.5682 392.079 19.4385C391.828 19.3088 391.426 19.1661 390.873 19.0105C390.337 18.8635 389.9 18.7208 389.563 18.5825C389.225 18.4441 388.931 18.2323 388.681 17.9469C388.439 17.6616 388.318 17.2855 388.318 16.8186C388.318 16.4381 388.43 16.0922 388.655 15.781C388.88 15.461 389.2 15.2103 389.615 15.0287C390.038 14.8471 390.522 14.7563 391.067 14.7563C391.88 14.7563 392.533 14.9638 393.026 15.3789C393.527 15.7853 393.795 16.343 393.83 17.052H392.351C392.325 16.7321 392.196 16.477 391.962 16.2868C391.729 16.0966 391.413 16.0014 391.015 16.0014C390.626 16.0014 390.328 16.0749 390.12 16.2219C389.913 16.3689 389.809 16.5635 389.809 16.8056C389.809 16.9958 389.878 17.1558 390.017 17.2855C390.155 17.4152 390.324 17.5189 390.522 17.5968C390.721 17.6659 391.015 17.7567 391.404 17.8691C391.923 18.0075 392.347 18.1501 392.675 18.2971C393.013 18.4355 393.302 18.643 393.544 18.9197C393.787 19.1964 393.912 19.5639 393.921 20.0221C393.921 20.4285 393.808 20.7917 393.583 21.1116C393.359 21.4316 393.039 21.6823 392.624 21.8639C392.217 22.0455 391.737 22.1363 391.184 22.1363Z" fill="#02ADC1"/>
<rect x="466" y="66" width="182.863" height="35.0406" rx="6.41624" fill="#FCD4E0"/>
<path d="M500.085 88.0195L498.009 84.4139H496.881V88.0195H495.402V79.0054H498.515C499.207 79.0054 499.791 79.1264 500.266 79.3685C500.75 79.6106 501.109 79.9349 501.343 80.3413C501.585 80.7477 501.706 81.2016 501.706 81.7031C501.706 82.2911 501.533 82.8272 501.187 83.3114C500.85 83.787 500.327 84.1112 499.618 84.2842L501.849 88.0195H500.085ZM496.881 83.2336H498.515C499.069 83.2336 499.484 83.0952 499.76 82.8186C500.046 82.5419 500.188 82.1701 500.188 81.7031C500.188 81.2362 500.05 80.8731 499.773 80.6137C499.497 80.3456 499.077 80.2116 498.515 80.2116H496.881V83.2336ZM510.147 84.2712C510.147 84.5392 510.13 84.7814 510.095 84.9975H504.635C504.678 85.5682 504.89 86.0265 505.27 86.3723C505.651 86.7182 506.118 86.8911 506.671 86.8911C507.467 86.8911 508.029 86.5582 508.357 85.8924H509.953C509.737 86.5496 509.343 87.09 508.772 87.5137C508.21 87.9287 507.51 88.1363 506.671 88.1363C505.988 88.1363 505.374 87.9849 504.83 87.6823C504.293 87.371 503.87 86.9387 503.558 86.3853C503.256 85.8233 503.105 85.1748 503.105 84.4398C503.105 83.7048 503.251 83.0607 503.545 82.5073C503.848 81.9452 504.267 81.5129 504.804 81.2103C505.348 80.9076 505.971 80.7563 506.671 80.7563C507.346 80.7563 507.947 80.9033 508.474 81.1973C509.002 81.4913 509.412 81.9063 509.706 82.4424C510 82.9699 510.147 83.5795 510.147 84.2712ZM508.604 83.8043C508.595 83.2595 508.401 82.8229 508.02 82.4943C507.64 82.1657 507.168 82.0014 506.606 82.0014C506.096 82.0014 505.66 82.1657 505.296 82.4943C504.933 82.8142 504.717 83.2509 504.648 83.8043H508.604ZM513.081 81.9236C513.332 81.595 513.673 81.3184 514.106 81.0935C514.538 80.8687 515.026 80.7563 515.571 80.7563C516.194 80.7563 516.76 80.912 517.27 81.2232C517.789 81.5259 518.195 81.9539 518.489 82.5073C518.783 83.0607 518.93 83.6962 518.93 84.4139C518.93 85.1315 518.783 85.7757 518.489 86.3464C518.195 86.9084 517.789 87.3494 517.27 87.6693C516.76 87.9806 516.194 88.1363 515.571 88.1363C515.026 88.1363 514.542 88.0282 514.118 87.812C513.695 87.5872 513.349 87.3105 513.081 86.9819V91.4177H511.602V80.8731H513.081V81.9236ZM517.426 84.4139C517.426 83.921 517.322 83.4973 517.115 83.1428C516.916 82.7796 516.648 82.5073 516.31 82.3257C515.982 82.1355 515.627 82.0404 515.247 82.0404C514.875 82.0404 514.521 82.1355 514.183 82.3257C513.855 82.5159 513.587 82.7926 513.379 83.1558C513.18 83.5189 513.081 83.9469 513.081 84.4398C513.081 84.9327 513.18 85.365 513.379 85.7368C513.587 86.1 513.855 86.3767 514.183 86.5669C514.521 86.7571 514.875 86.8522 515.247 86.8522C515.627 86.8522 515.982 86.7571 516.31 86.5669C516.648 86.368 516.916 86.0827 517.115 85.7109C517.322 85.3391 517.426 84.9067 517.426 84.4139ZM523.492 88.1363C522.818 88.1363 522.208 87.9849 521.664 87.6823C521.119 87.371 520.691 86.9387 520.38 86.3853C520.068 85.8233 519.913 85.1748 519.913 84.4398C519.913 83.7135 520.073 83.0693 520.393 82.5073C520.712 81.9452 521.149 81.5129 521.702 81.2103C522.256 80.9076 522.874 80.7563 523.557 80.7563C524.24 80.7563 524.859 80.9076 525.412 81.2103C525.965 81.5129 526.402 81.9452 526.722 82.5073C527.042 83.0693 527.202 83.7135 527.202 84.4398C527.202 85.1661 527.037 85.8103 526.709 86.3723C526.38 86.9344 525.931 87.371 525.36 87.6823C524.798 87.9849 524.175 88.1363 523.492 88.1363ZM523.492 86.8522C523.873 86.8522 524.227 86.7614 524.556 86.5799C524.893 86.3983 525.165 86.1259 525.373 85.7627C525.581 85.3996 525.684 84.9586 525.684 84.4398C525.684 83.921 525.585 83.4843 525.386 83.1298C525.187 82.7667 524.923 82.4943 524.595 82.3127C524.266 82.1311 523.912 82.0404 523.531 82.0404C523.151 82.0404 522.796 82.1311 522.468 82.3127C522.148 82.4943 521.893 82.7667 521.702 83.1298C521.512 83.4843 521.417 83.921 521.417 84.4398C521.417 85.2094 521.612 85.806 522.001 86.2297C522.399 86.6447 522.896 86.8522 523.492 86.8522ZM530.142 81.9107C530.358 81.5475 530.644 81.2665 530.998 81.0676C531.361 80.8601 531.789 80.7563 532.282 80.7563V82.2868H531.906C531.327 82.2868 530.886 82.4338 530.583 82.7278C530.289 83.0218 530.142 83.5319 530.142 84.2582V88.0195H528.663V80.8731H530.142V81.9107ZM535.366 82.0793V86.0351C535.366 86.3032 535.427 86.4977 535.548 86.6188C535.677 86.7312 535.894 86.7874 536.196 86.7874H537.104V88.0195H535.937C535.271 88.0195 534.761 87.8639 534.406 87.5526C534.052 87.2413 533.875 86.7355 533.875 86.0351V82.0793H533.032V80.8731H533.875V79.0962H535.366V80.8731H537.104V82.0793H535.366ZM545.017 84.2712C545.017 84.5392 545 84.7814 544.965 84.9975L539.505 84.9975C539.548 85.5682 539.76 86.0265 540.14 86.3723C540.521 86.7182 540.987 86.8911 541.541 86.8911C542.336 86.8911 542.898 86.5582 543.227 85.8924L544.822 85.8924C544.606 86.5496 544.213 87.09 543.642 87.5137C543.08 87.9287 542.38 88.1363 541.541 88.1363C540.858 88.1363 540.244 87.9849 539.699 87.6823C539.163 87.371 538.739 86.9387 538.428 86.3853C538.125 85.8233 537.974 85.1748 537.974 84.4398C537.974 83.7048 538.121 83.0607 538.415 82.5073C538.718 81.9452 539.137 81.5129 539.673 81.2103C540.218 80.9076 540.84 80.7563 541.541 80.7563C542.215 80.7563 542.816 80.9033 543.344 81.1973C543.871 81.4913 544.282 81.9063 544.576 82.4424C544.87 82.9699 545.017 83.5795 545.017 84.2712ZM543.473 83.8043C543.465 83.2595 543.27 82.8229 542.89 82.4943C542.509 82.1657 542.038 82.0014 541.476 82.0014C540.966 82.0014 540.529 82.1657 540.166 82.4943C539.803 82.8142 539.587 83.2509 539.518 83.8043H543.473ZM549.066 88.1363C548.504 88.1363 547.998 88.0368 547.548 87.838C547.107 87.6304 546.757 87.3537 546.498 87.0079C546.238 86.6534 546.1 86.2599 546.083 85.8276H547.613C547.639 86.1302 547.782 86.3853 548.041 86.5928C548.309 86.7917 548.642 86.8911 549.04 86.8911C549.455 86.8911 549.775 86.8133 550 86.6577C550.233 86.4934 550.35 86.2859 550.35 86.0351C550.35 85.7671 550.22 85.5682 549.961 85.4385C549.71 85.3088 549.308 85.1661 548.755 85.0105C548.219 84.8635 547.782 84.7208 547.445 84.5825C547.107 84.4441 546.813 84.2323 546.563 83.9469C546.321 83.6616 546.2 83.2855 546.2 82.8186C546.2 82.4381 546.312 82.0922 546.537 81.781C546.762 81.461 547.081 81.2103 547.497 81.0287C547.92 80.8471 548.404 80.7563 548.949 80.7563C549.762 80.7563 550.415 80.9638 550.908 81.3789C551.409 81.7853 551.677 82.343 551.712 83.052H550.233C550.207 82.7321 550.078 82.477 549.844 82.2868C549.611 82.0966 549.295 82.0014 548.897 82.0014C548.508 82.0014 548.21 82.0749 548.002 82.2219C547.795 82.3689 547.691 82.5635 547.691 82.8056C547.691 82.9958 547.76 83.1558 547.899 83.2855C548.037 83.4152 548.206 83.5189 548.404 83.5968C548.603 83.6659 548.897 83.7567 549.286 83.8691C549.805 84.0075 550.229 84.1501 550.557 84.2971C550.895 84.4355 551.184 84.643 551.426 84.9197C551.669 85.1964 551.794 85.5639 551.803 86.0221C551.803 86.4285 551.69 86.7917 551.465 87.1116C551.241 87.4316 550.921 87.6823 550.506 87.8639C550.099 88.0455 549.619 88.1363 549.066 88.1363ZM556.277 84.4139C556.277 83.6962 556.423 83.0607 556.717 82.5073C557.02 81.9539 557.427 81.5259 557.937 81.2232C558.455 80.912 559.026 80.7563 559.649 80.7563C560.211 80.7563 560.699 80.8687 561.114 81.0935C561.538 81.3097 561.875 81.5821 562.126 81.9107V80.8731H563.618V88.0195H562.126V86.956C561.875 87.2932 561.534 87.5742 561.101 87.799C560.669 88.0239 560.176 88.1363 559.623 88.1363C559.009 88.1363 558.447 87.9806 557.937 87.6693C557.427 87.3494 557.02 86.9084 556.717 86.3464C556.423 85.7757 556.277 85.1315 556.277 84.4139ZM562.126 84.4398C562.126 83.9469 562.022 83.5189 561.815 83.1558C561.616 82.7926 561.352 82.5159 561.024 82.3257C560.695 82.1355 560.34 82.0404 559.96 82.0404C559.58 82.0404 559.225 82.1355 558.896 82.3257C558.568 82.5073 558.3 82.7796 558.092 83.1428C557.893 83.4973 557.794 83.921 557.794 84.4139C557.794 84.9067 557.893 85.3391 558.092 85.7109C558.3 86.0827 558.568 86.368 558.896 86.5669C559.234 86.7571 559.588 86.8522 559.96 86.8522C560.34 86.8522 560.695 86.7571 561.024 86.5669C561.352 86.3767 561.616 86.1 561.815 85.7368C562.022 85.365 562.126 84.9327 562.126 84.4398ZM569.165 80.7563C569.727 80.7563 570.229 80.8731 570.67 81.1065C571.119 81.34 571.47 81.6858 571.72 82.1441C571.971 82.6024 572.096 83.1558 572.096 83.8043V88.0195H570.631V84.0248C570.631 83.3849 570.471 82.8964 570.151 82.5592C569.831 82.2133 569.394 82.0404 568.841 82.0404C568.288 82.0404 567.847 82.2133 567.518 82.5592C567.198 82.8964 567.038 83.3849 567.038 84.0248V88.0195H565.56V80.8731H567.038V81.6902C567.28 81.3962 567.587 81.167 567.959 81.0028C568.34 80.8385 568.742 80.7563 569.165 80.7563ZM573.49 84.4139C573.49 83.6962 573.637 83.0607 573.931 82.5073C574.233 81.9539 574.64 81.5259 575.15 81.2232C575.669 80.912 576.239 80.7563 576.862 80.7563C577.424 80.7563 577.912 80.8687 578.327 81.0935C578.751 81.3097 579.088 81.5821 579.339 81.9107V80.8731H580.831V88.0195H579.339V86.956C579.088 87.2932 578.747 87.5742 578.314 87.799C577.882 88.0239 577.389 88.1363 576.836 88.1363C576.222 88.1363 575.66 87.9806 575.15 87.6693C574.64 87.3494 574.233 86.9084 573.931 86.3464C573.637 85.7757 573.49 85.1315 573.49 84.4139ZM579.339 84.4398C579.339 83.9469 579.235 83.5189 579.028 83.1558C578.829 82.7926 578.565 82.5159 578.237 82.3257C577.908 82.1355 577.554 82.0404 577.173 82.0404C576.793 82.0404 576.438 82.1355 576.11 82.3257C575.781 82.5073 575.513 82.7796 575.305 83.1428C575.107 83.4973 575.007 83.921 575.007 84.4139C575.007 84.9067 575.107 85.3391 575.305 85.7109C575.513 86.0827 575.781 86.368 576.11 86.5669C576.447 86.7571 576.801 86.8522 577.173 86.8522C577.554 86.8522 577.908 86.7571 578.237 86.5669C578.565 86.3767 578.829 86.1 579.028 85.7368C579.235 85.365 579.339 84.9327 579.339 84.4398ZM584.251 78.4217V88.0195H582.773V78.4217H584.251ZM587.671 80.8731V88.0195H586.193V80.8731H587.671ZM588.268 78.9535L585.401 80.3672V79.2777L588.268 77.6954V78.9535ZM591.337 82.0793V86.0351C591.337 86.3032 591.398 86.4977 591.519 86.6188C591.649 86.7312 591.865 86.7874 592.167 86.7874H593.075V88.0195H591.908C591.242 88.0195 590.732 87.8639 590.378 87.5526C590.023 87.2413 589.846 86.7355 589.846 86.0351V82.0793H589.003V80.8731H589.846V79.0962H591.337V80.8731H593.075V82.0793H591.337ZM595.19 79.9262C594.922 79.9262 594.698 79.8354 594.516 79.6539C594.334 79.4723 594.244 79.2475 594.244 78.9794C594.244 78.7114 594.334 78.4866 594.516 78.305C594.698 78.1234 594.922 78.0326 595.19 78.0326C595.45 78.0326 595.67 78.1234 595.852 78.305C596.033 78.4866 596.124 78.7114 596.124 78.9794C596.124 79.2475 596.033 79.4723 595.852 79.6539C595.67 79.8354 595.45 79.9262 595.19 79.9262ZM595.917 80.8731V88.0195H594.438V80.8731H595.917ZM597.365 84.4398C597.365 83.7048 597.512 83.0607 597.806 82.5073C598.109 81.9452 598.524 81.5129 599.051 81.2103C599.579 80.9076 600.184 80.7563 600.867 80.7563C601.732 80.7563 602.445 80.9638 603.007 81.3789C603.578 81.7853 603.963 82.3689 604.161 83.1298H602.566C602.436 82.7753 602.229 82.4986 601.944 82.2998C601.658 82.1009 601.299 82.0014 600.867 82.0014C600.262 82.0014 599.778 82.2176 599.414 82.6499C599.06 83.0736 598.883 83.6703 598.883 84.4398C598.883 85.2094 599.06 85.8103 599.414 86.2426C599.778 86.675 600.262 86.8911 600.867 86.8911C601.723 86.8911 602.289 86.515 602.566 85.7627H604.161C603.954 86.4891 603.565 87.0684 602.994 87.5007C602.423 87.9244 601.714 88.1363 600.867 88.1363C600.184 88.1363 599.579 87.9849 599.051 87.6823C598.524 87.371 598.109 86.9387 597.806 86.3853C597.512 85.8233 597.365 85.1748 597.365 84.4398ZM608.735 88.1363C608.06 88.1363 607.451 87.9849 606.906 87.6823C606.361 87.371 605.933 86.9387 605.622 86.3853C605.311 85.8233 605.155 85.1748 605.155 84.4398C605.155 83.7135 605.315 83.0693 605.635 82.5073C605.955 81.9452 606.392 81.5129 606.945 81.2103C607.498 80.9076 608.117 80.7563 608.8 80.7563C609.483 80.7563 610.101 80.9076 610.654 81.2103C611.208 81.5129 611.644 81.9452 611.964 82.5073C612.284 83.0693 612.444 83.7135 612.444 84.4398C612.444 85.1661 612.28 85.8103 611.951 86.3723C611.623 86.9344 611.173 87.371 610.602 87.6823C610.04 87.9849 609.418 88.1363 608.735 88.1363ZM608.735 86.8522C609.115 86.8522 609.47 86.7614 609.798 86.5799C610.136 86.3983 610.408 86.1259 610.615 85.7627C610.823 85.3996 610.927 84.9586 610.927 84.4398C610.927 83.921 610.827 83.4843 610.628 83.1298C610.43 82.7667 610.166 82.4943 609.837 82.3127C609.509 82.1311 609.154 82.0404 608.774 82.0404C608.393 82.0404 608.039 82.1311 607.71 82.3127C607.39 82.4943 607.135 82.7667 606.945 83.1298C606.755 83.4843 606.66 83.921 606.66 84.4398C606.66 85.2094 606.854 85.806 607.243 86.2297C607.641 86.6447 608.138 86.8522 608.735 86.8522ZM616.5 88.1363C615.938 88.1363 615.432 88.0368 614.982 87.838C614.541 87.6304 614.191 87.3537 613.932 87.0079C613.672 86.6534 613.534 86.2599 613.517 85.8276H615.047C615.073 86.1302 615.216 86.3853 615.475 86.5928C615.743 86.7917 616.076 86.8911 616.474 86.8911C616.889 86.8911 617.209 86.8133 617.434 86.6577C617.667 86.4934 617.784 86.2859 617.784 86.0351C617.784 85.7671 617.654 85.5682 617.395 85.4385C617.144 85.3088 616.742 85.1661 616.189 85.0105C615.652 84.8635 615.216 84.7208 614.879 84.5825C614.541 84.4441 614.247 84.2323 613.997 83.9469C613.755 83.6616 613.633 83.2855 613.633 82.8186C613.633 82.4381 613.746 82.0922 613.971 81.781C614.196 81.461 614.515 81.2103 614.93 81.0287C615.354 80.8471 615.838 80.7563 616.383 80.7563C617.196 80.7563 617.849 80.9638 618.342 81.3789C618.843 81.7853 619.111 82.343 619.146 83.052H617.667C617.641 82.7321 617.512 82.477 617.278 82.2868C617.045 82.0966 616.729 82.0014 616.331 82.0014C615.942 82.0014 615.644 82.0749 615.436 82.2219C615.229 82.3689 615.125 82.5635 615.125 82.8056C615.125 82.9958 615.194 83.1558 615.333 83.2855C615.471 83.4152 615.64 83.5189 615.838 83.5968C616.037 83.6659 616.331 83.7567 616.72 83.8691C617.239 84.0075 617.663 84.1501 617.991 84.2971C618.329 84.4355 618.618 84.643 618.86 84.9197C619.102 85.1964 619.228 85.5639 619.237 86.0221C619.237 86.4285 619.124 86.7917 618.899 87.1116C618.674 87.4316 618.355 87.6823 617.94 87.8639C617.533 88.0455 617.053 88.1363 616.5 88.1363Z" fill="#FF6898"/>
<rect y="144" width="182.863" height="35.0406" rx="6.41624" fill="#FFEDED"/>
<path d="M10.381 158.199L10.381 160.844H13.4938V162.051H10.381V164.813H13.8829L13.8829 166.02H8.90244L8.90244 156.992H13.8829V158.199H10.381ZM19.3098 158.756C19.8718 158.756 20.3733 158.873 20.8143 159.107C21.2639 159.34 21.6141 159.686 21.8649 160.144C22.1156 160.602 22.241 161.156 22.241 161.804V166.02H20.7754V162.025C20.7754 161.385 20.6154 160.896 20.2955 160.559C19.9756 160.213 19.5389 160.04 18.9855 160.04C18.4321 160.04 17.9911 160.213 17.6626 160.559C17.3426 160.896 17.1827 161.385 17.1827 162.025V166.02H15.7041L15.7041 158.873H17.1827V159.69C17.4248 159.396 17.7317 159.167 18.1036 159.003C18.484 158.838 18.8861 158.756 19.3098 158.756ZM26.8896 164.697L28.9129 158.873H30.4823L27.7586 166.02H25.9947L23.284 158.873H24.8663L26.8896 164.697ZM33.0786 158.873V166.02H31.6L31.6 158.873H33.0786ZM33.6752 156.953L30.8088 158.367V157.278L33.6752 155.695V156.953ZM38.1196 166.136C37.4452 166.136 36.8356 165.985 36.2909 165.682C35.7461 165.371 35.3181 164.939 35.0068 164.385C34.6955 163.823 34.5399 163.175 34.5399 162.44C34.5399 161.713 34.6999 161.069 35.0198 160.507C35.3397 159.945 35.7764 159.513 36.3298 159.21C36.8832 158.908 37.5014 158.756 38.1845 158.756C38.8676 158.756 39.4858 158.908 40.0392 159.21C40.5926 159.513 41.0292 159.945 41.3492 160.507C41.6691 161.069 41.8291 161.713 41.8291 162.44C41.8291 163.166 41.6648 163.81 41.3362 164.372C41.0076 164.934 40.558 165.371 39.9873 165.682C39.4253 165.985 38.8027 166.136 38.1196 166.136ZM38.1196 164.852C38.5001 164.852 38.8546 164.761 39.1832 164.58C39.5204 164.398 39.7928 164.126 40.0003 163.763C40.2078 163.4 40.3116 162.959 40.3116 162.44C40.3116 161.921 40.2121 161.484 40.0133 161.13C39.8144 160.767 39.5507 160.494 39.2221 160.313C38.8935 160.131 38.539 160.04 38.1585 160.04C37.7781 160.04 37.4236 160.131 37.095 160.313C36.7751 160.494 36.52 160.767 36.3298 161.13C36.1395 161.484 36.0444 161.921 36.0444 162.44C36.0444 163.209 36.239 163.806 36.6281 164.23C37.0258 164.645 37.523 164.852 38.1196 164.852ZM46.167 162.414C46.167 161.696 46.314 161.061 46.608 160.507C46.9106 159.954 47.317 159.526 47.8272 159.223C48.346 158.912 48.921 158.756 49.5522 158.756C50.0191 158.756 50.4774 158.86 50.927 159.068C51.3853 159.266 51.7485 159.535 52.0165 159.872V156.422H53.5081V166.02H52.0165V164.943C51.7744 165.289 51.4372 165.574 51.0048 165.799C50.5812 166.024 50.0926 166.136 49.5392 166.136C48.9167 166.136 48.346 165.981 47.8272 165.669C47.317 165.349 46.9106 164.908 46.608 164.346C46.314 163.776 46.167 163.132 46.167 162.414ZM52.0165 162.44C52.0165 161.947 51.9127 161.519 51.7052 161.156C51.5063 160.793 51.2426 160.516 50.914 160.326C50.5855 160.135 50.231 160.04 49.8505 160.04C49.4701 160.04 49.1155 160.135 48.787 160.326C48.4584 160.507 48.1903 160.78 47.9828 161.143C47.7839 161.497 47.6845 161.921 47.6845 162.414C47.6845 162.907 47.7839 163.339 47.9828 163.711C48.1903 164.083 48.4584 164.368 48.787 164.567C49.1242 164.757 49.4787 164.852 49.8505 164.852C50.231 164.852 50.5855 164.757 50.914 164.567C51.2426 164.377 51.5063 164.1 51.7052 163.737C51.9127 163.365 52.0165 162.933 52.0165 162.44ZM62 162.271C62 162.539 61.9827 162.781 61.9481 162.998H56.4877C56.5309 163.568 56.7428 164.026 57.1232 164.372C57.5037 164.718 57.9706 164.891 58.524 164.891C59.3195 164.891 59.8815 164.558 60.2101 163.892H61.8054C61.5892 164.55 61.1958 165.09 60.6251 165.514C60.0631 165.929 59.3627 166.136 58.524 166.136C57.8409 166.136 57.227 165.985 56.6823 165.682C56.1462 165.371 55.7225 164.939 55.4112 164.385C55.1086 163.823 54.9572 163.175 54.9572 162.44C54.9572 161.705 55.1042 161.061 55.3982 160.507C55.7009 159.945 56.1202 159.513 56.6563 159.21C57.2011 158.908 57.8236 158.756 58.524 158.756C59.1984 158.756 59.7994 158.903 60.3268 159.197C60.8543 159.491 61.265 159.906 61.559 160.442C61.853 160.97 62 161.579 62 162.271ZM60.4565 161.804C60.4479 161.26 60.2533 160.823 59.8729 160.494C59.4924 160.166 59.0212 160.001 58.4592 160.001C57.949 160.001 57.5123 160.166 57.1492 160.494C56.786 160.814 56.5699 161.251 56.5007 161.804H60.4565ZM66.3313 162.44C66.3313 161.705 66.4783 161.061 66.7723 160.507C67.075 159.945 67.49 159.513 68.0174 159.21C68.5449 158.908 69.1502 158.756 69.8333 158.756C70.6979 158.756 71.4113 158.964 71.9733 159.379C72.544 159.785 72.9288 160.369 73.1276 161.13H71.5323C71.4026 160.775 71.1951 160.499 70.9098 160.3C70.6244 160.101 70.2656 160.001 69.8333 160.001C69.228 160.001 68.7438 160.218 68.3806 160.65C68.0261 161.074 67.8488 161.67 67.8488 162.44C67.8488 163.209 68.0261 163.81 68.3806 164.243C68.7438 164.675 69.228 164.891 69.8333 164.891C70.6893 164.891 71.2556 164.515 71.5323 163.763H73.1276C72.9201 164.489 72.531 165.068 71.9603 165.501C71.3897 165.924 70.6806 166.136 69.8333 166.136C69.1502 166.136 68.5449 165.985 68.0174 165.682C67.49 165.371 67.075 164.939 66.7723 164.385C66.4783 163.823 66.3313 163.175 66.3313 162.44ZM77.701 166.136C77.0265 166.136 76.4169 165.985 75.8722 165.682C75.3275 165.371 74.8995 164.939 74.5882 164.385C74.2769 163.823 74.1213 163.175 74.1213 162.44C74.1213 161.713 74.2812 161.069 74.6011 160.507C74.9211 159.945 75.3577 159.513 75.9111 159.21C76.4645 158.908 77.0827 158.756 77.7658 158.756C78.4489 158.756 79.0672 158.908 79.6205 159.21C80.1739 159.513 80.6106 159.945 80.9305 160.507C81.2504 161.069 81.4104 161.713 81.4104 162.44C81.4104 163.166 81.2461 163.81 80.9175 164.372C80.589 164.934 80.1393 165.371 79.5687 165.682C79.0066 165.985 78.3841 166.136 77.701 166.136ZM77.701 164.852C78.0814 164.852 78.4359 164.761 78.7645 164.58C79.1017 164.398 79.3741 164.126 79.5816 163.763C79.7892 163.4 79.8929 162.959 79.8929 162.44C79.8929 161.921 79.7935 161.484 79.5946 161.13C79.3957 160.767 79.132 160.494 78.8034 160.313C78.4749 160.131 78.1203 160.04 77.7399 160.04C77.3594 160.04 77.0049 160.131 76.6763 160.313C76.3564 160.494 76.1013 160.767 75.9111 161.13C75.7209 161.484 75.6258 161.921 75.6258 162.44C75.6258 163.209 75.8203 163.806 76.2094 164.23C76.6072 164.645 77.1044 164.852 77.701 164.852ZM84.3506 159.911C84.5668 159.547 84.8522 159.266 85.2067 159.068C85.5698 158.86 85.9978 158.756 86.4907 158.756V160.287H86.1146C85.5352 160.287 85.0943 160.434 84.7916 160.728C84.4976 161.022 84.3506 161.532 84.3506 162.258V166.02H82.8721V158.873H84.3506V159.911ZM89.3284 159.911C89.5446 159.547 89.8299 159.266 90.1844 159.068C90.5476 158.86 90.9756 158.756 91.4685 158.756V160.287H91.0923C90.513 160.287 90.072 160.434 89.7694 160.728C89.4754 161.022 89.3284 161.532 89.3284 162.258V166.02H87.8498V158.873H89.3284V159.911ZM99.3774 162.271C99.3774 162.539 99.3601 162.781 99.3256 162.998H93.8652C93.9084 163.568 94.1203 164.026 94.5007 164.372C94.8812 164.718 95.3481 164.891 95.9015 164.891C96.697 164.891 97.259 164.558 97.5876 163.892H99.1829C98.9667 164.55 98.5733 165.09 98.0026 165.514C97.4406 165.929 96.7402 166.136 95.9015 166.136C95.2184 166.136 94.6045 165.985 94.0597 165.682C93.5236 165.371 93.0999 164.939 92.7887 164.385C92.486 163.823 92.3347 163.175 92.3347 162.44C92.3347 161.705 92.4817 161.061 92.7757 160.507C93.0783 159.945 93.4977 159.513 94.0338 159.21C94.5785 158.908 95.2011 158.756 95.9015 158.756C96.5759 158.756 97.1769 158.903 97.7043 159.197C98.2317 159.491 98.6425 159.906 98.9364 160.442C99.2304 160.97 99.3774 161.579 99.3774 162.271ZM97.834 161.804C97.8254 161.26 97.6308 160.823 97.2503 160.494C96.8699 160.166 96.3986 160.001 95.8366 160.001C95.3265 160.001 94.8898 160.166 94.5266 160.494C94.1635 160.814 93.9473 161.251 93.8781 161.804H97.834ZM103.932 166.136C103.258 166.136 102.648 165.985 102.104 165.682C101.559 165.371 101.131 164.939 100.82 164.385C100.508 163.823 100.353 163.175 100.353 162.44C100.353 161.713 100.513 161.069 100.833 160.507C101.152 159.945 101.589 159.513 102.142 159.21C102.696 158.908 103.314 158.756 103.997 158.756C104.68 158.756 105.299 158.908 105.852 159.21C106.405 159.513 106.842 159.945 107.162 160.507C107.482 161.069 107.642 161.713 107.642 162.44C107.642 163.166 107.477 163.81 107.149 164.372C106.82 164.934 106.371 165.371 105.8 165.682C105.238 165.985 104.615 166.136 103.932 166.136ZM103.932 164.852C104.313 164.852 104.667 164.761 104.996 164.58C105.333 164.398 105.605 164.126 105.813 163.763C106.021 163.4 106.124 162.959 106.124 162.44C106.124 161.921 106.025 161.484 105.826 161.13C105.627 160.767 105.363 160.494 105.035 160.313C104.706 160.131 104.352 160.04 103.971 160.04C103.591 160.04 103.236 160.131 102.908 160.313C102.588 160.494 102.333 160.767 102.142 161.13C101.952 161.484 101.857 161.921 101.857 162.44C101.857 163.209 102.052 163.806 102.441 164.23C102.839 164.645 103.336 164.852 103.932 164.852ZM111.98 162.414C111.98 161.696 112.127 161.061 112.421 160.507C112.723 159.954 113.13 159.526 113.64 159.223C114.159 158.912 114.729 158.756 115.352 158.756C115.914 158.756 116.402 158.869 116.818 159.094C117.241 159.31 117.578 159.582 117.829 159.911V158.873H119.321V166.02H117.829V164.956C117.578 165.293 117.237 165.574 116.805 165.799C116.372 166.024 115.879 166.136 115.326 166.136C114.712 166.136 114.15 165.981 113.64 165.669C113.13 165.349 112.723 164.908 112.421 164.346C112.127 163.776 111.98 163.132 111.98 162.414ZM117.829 162.44C117.829 161.947 117.725 161.519 117.518 161.156C117.319 160.793 117.055 160.516 116.727 160.326C116.398 160.135 116.044 160.04 115.663 160.04C115.283 160.04 114.928 160.135 114.6 160.326C114.271 160.507 114.003 160.78 113.796 161.143C113.597 161.497 113.497 161.921 113.497 162.414C113.497 162.907 113.597 163.339 113.796 163.711C114.003 164.083 114.271 164.368 114.6 164.567C114.937 164.757 115.291 164.852 115.663 164.852C116.044 164.852 116.398 164.757 116.727 164.567C117.055 164.377 117.319 164.1 117.518 163.737C117.725 163.365 117.829 162.933 117.829 162.44ZM124.139 162.44C124.139 161.705 124.286 161.061 124.58 160.507C124.883 159.945 125.298 159.513 125.825 159.21C126.353 158.908 126.958 158.756 127.641 158.756C128.506 158.756 129.219 158.964 129.781 159.379C130.352 159.785 130.737 160.369 130.935 161.13H129.34C129.21 160.775 129.003 160.499 128.718 160.3C128.432 160.101 128.073 160.001 127.641 160.001C127.036 160.001 126.552 160.218 126.188 160.65C125.834 161.074 125.657 161.67 125.657 162.44C125.657 163.209 125.834 163.81 126.188 164.243C126.552 164.675 127.036 164.891 127.641 164.891C128.497 164.891 129.063 164.515 129.34 163.763H130.935C130.728 164.489 130.339 165.068 129.768 165.501C129.197 165.924 128.488 166.136 127.641 166.136C126.958 166.136 126.353 165.985 125.825 165.682C125.298 165.371 124.883 164.939 124.58 164.385C124.286 163.823 124.139 163.175 124.139 162.44ZM133.888 156.422V166.02H132.409V156.422H133.888ZM136.581 157.926C136.313 157.926 136.088 157.835 135.907 157.654C135.725 157.472 135.634 157.247 135.634 156.979C135.634 156.711 135.725 156.487 135.907 156.305C136.088 156.123 136.313 156.033 136.581 156.033C136.84 156.033 137.061 156.123 137.242 156.305C137.424 156.487 137.515 156.711 137.515 156.979C137.515 157.247 137.424 157.472 137.242 157.654C137.061 157.835 136.84 157.926 136.581 157.926ZM137.307 158.873V166.02H135.829V158.873H137.307ZM145.798 162.271C145.798 162.539 145.781 162.781 145.747 162.998H140.286C140.329 163.568 140.541 164.026 140.922 164.372C141.302 164.718 141.769 164.891 142.322 164.891C143.118 164.891 143.68 164.558 144.009 163.892H145.604C145.388 164.55 144.994 165.09 144.424 165.514C143.862 165.929 143.161 166.136 142.322 166.136C141.639 166.136 141.025 165.985 140.481 165.682C139.945 165.371 139.521 164.939 139.21 164.385C138.907 163.823 138.756 163.175 138.756 162.44C138.756 161.705 138.903 161.061 139.197 160.507C139.499 159.945 139.919 159.513 140.455 159.21C141 158.908 141.622 158.756 142.322 158.756C142.997 158.756 143.598 158.903 144.125 159.197C144.653 159.491 145.063 159.906 145.357 160.442C145.651 160.97 145.798 161.579 145.798 162.271ZM144.255 161.804C144.246 161.26 144.052 160.823 143.671 160.494C143.291 160.166 142.82 160.001 142.258 160.001C141.747 160.001 141.311 160.166 140.948 160.494C140.584 160.814 140.368 161.251 140.299 161.804H144.255ZM150.859 158.756C151.421 158.756 151.923 158.873 152.364 159.107C152.813 159.34 153.164 159.686 153.414 160.144C153.665 160.602 153.79 161.156 153.79 161.804V166.02H152.325V162.025C152.325 161.385 152.165 160.896 151.845 160.559C151.525 160.213 151.088 160.04 150.535 160.04C149.982 160.04 149.541 160.213 149.212 160.559C148.892 160.896 148.732 161.385 148.732 162.025V166.02H147.254V158.873H148.732V159.69C148.974 159.396 149.281 159.167 149.653 159.003C150.033 158.838 150.435 158.756 150.859 158.756ZM157.401 160.079V164.035C157.401 164.303 157.462 164.498 157.583 164.619C157.713 164.731 157.929 164.787 158.232 164.787H159.139V166.02H157.972C157.306 166.02 156.796 165.864 156.442 165.553C156.087 165.241 155.91 164.735 155.91 164.035V160.079H155.067V158.873H155.91V157.096H157.401V158.873H159.139V160.079H157.401ZM167.052 162.271C167.052 162.539 167.035 162.781 167 162.998H161.54C161.583 163.568 161.795 164.026 162.175 164.372C162.556 164.718 163.023 164.891 163.576 164.891C164.372 164.891 164.934 164.558 165.262 163.892H166.857C166.641 164.55 166.248 165.09 165.677 165.514C165.115 165.929 164.415 166.136 163.576 166.136C162.893 166.136 162.279 165.985 161.734 165.682C161.198 165.371 160.775 164.939 160.463 164.385C160.161 163.823 160.009 163.175 160.009 162.44C160.009 161.705 160.156 161.061 160.45 160.507C160.753 159.945 161.172 159.513 161.708 159.21C162.253 158.908 162.876 158.756 163.576 158.756C164.251 158.756 164.851 158.903 165.379 159.197C165.906 159.491 166.317 159.906 166.611 160.442C166.905 160.97 167.052 161.579 167.052 162.271ZM165.509 161.804C165.5 161.26 165.305 160.823 164.925 160.494C164.545 160.166 164.073 160.001 163.511 160.001C163.001 160.001 162.564 160.166 162.201 160.494C161.838 160.814 161.622 161.251 161.553 161.804H165.509ZM171.101 166.136C170.539 166.136 170.033 166.037 169.584 165.838C169.143 165.63 168.792 165.354 168.533 165.008C168.274 164.653 168.135 164.26 168.118 163.828H169.648C169.674 164.13 169.817 164.385 170.076 164.593C170.345 164.792 170.677 164.891 171.075 164.891C171.49 164.891 171.81 164.813 172.035 164.658C172.268 164.493 172.385 164.286 172.385 164.035C172.385 163.767 172.255 163.568 171.996 163.438C171.745 163.309 171.343 163.166 170.79 163.01C170.254 162.863 169.817 162.721 169.48 162.582C169.143 162.444 168.849 162.232 168.598 161.947C168.356 161.662 168.235 161.285 168.235 160.819C168.235 160.438 168.347 160.092 168.572 159.781C168.797 159.461 169.117 159.21 169.532 159.029C169.955 158.847 170.44 158.756 170.984 158.756C171.797 158.756 172.45 158.964 172.943 159.379C173.444 159.785 173.712 160.343 173.747 161.052H172.268C172.242 160.732 172.113 160.477 171.879 160.287C171.646 160.097 171.33 160.001 170.933 160.001C170.543 160.001 170.245 160.075 170.038 160.222C169.83 160.369 169.726 160.563 169.726 160.806C169.726 160.996 169.795 161.156 169.934 161.285C170.072 161.415 170.241 161.519 170.44 161.597C170.639 161.666 170.933 161.757 171.322 161.869C171.84 162.007 172.264 162.15 172.593 162.297C172.93 162.435 173.22 162.643 173.462 162.92C173.704 163.196 173.829 163.564 173.838 164.022C173.838 164.429 173.725 164.792 173.501 165.112C173.276 165.432 172.956 165.682 172.541 165.864C172.134 166.045 171.655 166.136 171.101 166.136Z" fill="#FF5858"/>
<rect x="480" y="144" width="182.863" height="35.0406" rx="6.41624" fill="#82D88B" fill-opacity="0.24"/>
<path d="M519.926 159.599C519.693 159.15 519.369 158.813 518.954 158.588C518.539 158.354 518.059 158.238 517.514 158.238C516.917 158.238 516.386 158.372 515.919 158.64C515.452 158.908 515.084 159.288 514.816 159.781C514.557 160.274 514.427 160.844 514.427 161.493C514.427 162.141 514.557 162.716 514.816 163.218C515.084 163.711 515.452 164.091 515.919 164.359C516.386 164.627 516.917 164.761 517.514 164.761C518.318 164.761 518.971 164.537 519.472 164.087C519.974 163.637 520.281 163.028 520.393 162.258H517.008V161.078H521.976V162.232C521.881 162.933 521.63 163.577 521.223 164.165C520.826 164.753 520.302 165.224 519.654 165.579C519.014 165.924 518.301 166.097 517.514 166.097C516.667 166.097 515.893 165.903 515.192 165.514C514.492 165.116 513.934 164.567 513.519 163.867C513.113 163.166 512.91 162.375 512.91 161.493C512.91 160.611 513.113 159.82 513.519 159.119C513.934 158.419 514.492 157.874 515.192 157.485C515.901 157.088 516.675 156.889 517.514 156.889C518.474 156.889 519.325 157.126 520.069 157.602C520.821 158.069 521.366 158.735 521.703 159.599H519.926ZM529.984 162.271C529.984 162.539 529.967 162.781 529.932 162.998H524.472C524.515 163.568 524.727 164.026 525.107 164.372C525.488 164.718 525.954 164.891 526.508 164.891C527.303 164.891 527.865 164.558 528.194 163.892H529.789C529.573 164.55 529.18 165.09 528.609 165.514C528.047 165.929 527.347 166.136 526.508 166.136C525.825 166.136 525.211 165.985 524.666 165.682C524.13 165.371 523.706 164.939 523.395 164.385C523.092 163.823 522.941 163.175 522.941 162.44C522.941 161.705 523.088 161.061 523.382 160.507C523.685 159.945 524.104 159.513 524.64 159.21C525.185 158.908 525.807 158.756 526.508 158.756C527.182 158.756 527.783 158.903 528.311 159.197C528.838 159.491 529.249 159.906 529.543 160.442C529.837 160.97 529.984 161.579 529.984 162.271ZM528.44 161.804C528.432 161.26 528.237 160.823 527.857 160.494C527.476 160.166 527.005 160.001 526.443 160.001C525.933 160.001 525.496 160.166 525.133 160.494C524.77 160.814 524.554 161.251 524.485 161.804H528.44ZM534.033 166.136C533.471 166.136 532.965 166.037 532.515 165.838C532.074 165.63 531.724 165.354 531.465 165.008C531.205 164.653 531.067 164.26 531.05 163.828H532.58C532.606 164.13 532.749 164.385 533.008 164.593C533.276 164.792 533.609 164.891 534.007 164.891C534.422 164.891 534.742 164.813 534.967 164.658C535.2 164.493 535.317 164.286 535.317 164.035C535.317 163.767 535.187 163.568 534.928 163.438C534.677 163.309 534.275 163.166 533.722 163.01C533.185 162.863 532.749 162.721 532.412 162.582C532.074 162.444 531.78 162.232 531.53 161.947C531.288 161.662 531.166 161.285 531.166 160.819C531.166 160.438 531.279 160.092 531.504 159.781C531.729 159.461 532.048 159.21 532.464 159.029C532.887 158.847 533.371 158.756 533.916 158.756C534.729 158.756 535.382 158.964 535.875 159.379C536.376 159.785 536.644 160.343 536.679 161.052H535.2C535.174 160.732 535.045 160.477 534.811 160.287C534.578 160.097 534.262 160.001 533.864 160.001C533.475 160.001 533.177 160.075 532.969 160.222C532.762 160.369 532.658 160.563 532.658 160.806C532.658 160.996 532.727 161.156 532.866 161.285C533.004 161.415 533.173 161.519 533.371 161.597C533.57 161.666 533.864 161.757 534.253 161.869C534.772 162.007 535.196 162.15 535.524 162.297C535.862 162.435 536.151 162.643 536.393 162.92C536.636 163.196 536.761 163.564 536.77 164.022C536.77 164.429 536.657 164.792 536.432 165.112C536.208 165.432 535.888 165.682 535.473 165.864C535.066 166.045 534.586 166.136 534.033 166.136ZM540.092 160.079L540.092 164.035C540.092 164.303 540.153 164.498 540.274 164.619C540.403 164.731 540.62 164.787 540.922 164.787H541.83V166.02H540.663C539.997 166.02 539.487 165.864 539.132 165.553C538.778 165.241 538.601 164.735 538.601 164.035V160.079H537.758V158.873H538.601V157.096H540.092V158.873H541.83V160.079H540.092ZM543.945 157.926C543.677 157.926 543.452 157.835 543.271 157.654C543.089 157.472 542.998 157.247 542.998 156.979C542.998 156.711 543.089 156.487 543.271 156.305C543.452 156.123 543.677 156.033 543.945 156.033C544.205 156.033 544.425 156.123 544.607 156.305C544.788 156.487 544.879 156.711 544.879 156.979C544.879 157.247 544.788 157.472 544.607 157.654C544.425 157.835 544.205 157.926 543.945 157.926ZM544.672 158.873V166.02H543.193V158.873H544.672ZM549.713 166.136C549.038 166.136 548.429 165.985 547.884 165.682C547.339 165.371 546.911 164.939 546.6 164.385C546.289 163.823 546.133 163.175 546.133 162.44C546.133 161.713 546.293 161.069 546.613 160.507C546.933 159.945 547.369 159.513 547.923 159.21C548.476 158.908 549.094 158.756 549.777 158.756C550.461 158.756 551.079 158.908 551.632 159.21C552.186 159.513 552.622 159.945 552.942 160.507C553.262 161.069 553.422 161.713 553.422 162.44C553.422 163.166 553.258 163.81 552.929 164.372C552.601 164.934 552.151 165.371 551.58 165.682C551.018 165.985 550.396 166.136 549.713 166.136ZM549.713 164.852C550.093 164.852 550.448 164.761 550.776 164.58C551.113 164.398 551.386 164.126 551.593 163.763C551.801 163.4 551.905 162.959 551.905 162.44C551.905 161.921 551.805 161.484 551.606 161.13C551.407 160.767 551.144 160.494 550.815 160.313C550.486 160.131 550.132 160.04 549.752 160.04C549.371 160.04 549.017 160.131 548.688 160.313C548.368 160.494 548.113 160.767 547.923 161.13C547.733 161.484 547.637 161.921 547.637 162.44C547.637 163.209 547.832 163.806 548.221 164.23C548.619 164.645 549.116 164.852 549.713 164.852ZM551.113 156.837L548.247 158.25V157.161L551.113 155.579V156.837ZM558.489 158.756C559.051 158.756 559.553 158.873 559.994 159.107C560.444 159.34 560.794 159.686 561.044 160.144C561.295 160.602 561.421 161.156 561.421 161.804V166.02H559.955V162.025C559.955 161.385 559.795 160.896 559.475 160.559C559.155 160.213 558.718 160.04 558.165 160.04C557.612 160.04 557.171 160.213 556.842 160.559C556.522 160.896 556.362 161.385 556.362 162.025V166.02H554.884V158.873H556.362V159.69C556.604 159.396 556.911 159.167 557.283 159.003C557.664 158.838 558.066 158.756 558.489 158.756ZM566.183 162.414C566.183 161.696 566.33 161.061 566.624 160.507C566.927 159.954 567.333 159.526 567.843 159.223C568.362 158.912 568.937 158.756 569.568 158.756C570.035 158.756 570.493 158.86 570.943 159.068C571.401 159.266 571.764 159.535 572.032 159.872V156.422H573.524V166.02H572.032V164.943C571.79 165.289 571.453 165.574 571.021 165.799C570.597 166.024 570.109 166.136 569.555 166.136C568.933 166.136 568.362 165.981 567.843 165.669C567.333 165.349 566.927 164.908 566.624 164.346C566.33 163.776 566.183 163.132 566.183 162.414ZM572.032 162.44C572.032 161.947 571.929 161.519 571.721 161.156C571.522 160.793 571.259 160.516 570.93 160.326C570.601 160.135 570.247 160.04 569.866 160.04C569.486 160.04 569.131 160.135 568.803 160.326C568.474 160.507 568.206 160.78 567.999 161.143C567.8 161.497 567.7 161.921 567.7 162.414C567.7 162.907 567.8 163.339 567.999 163.711C568.206 164.083 568.474 164.368 568.803 164.567C569.14 164.757 569.495 164.852 569.866 164.852C570.247 164.852 570.601 164.757 570.93 164.567C571.259 164.377 571.522 164.1 571.721 163.737C571.929 163.365 572.032 162.933 572.032 162.44ZM582.016 162.271C582.016 162.539 581.999 162.781 581.964 162.998H576.504C576.547 163.568 576.759 164.026 577.139 164.372C577.52 164.718 577.987 164.891 578.54 164.891C579.335 164.891 579.897 164.558 580.226 163.892H581.821C581.605 164.55 581.212 165.09 580.641 165.514C580.079 165.929 579.379 166.136 578.54 166.136C577.857 166.136 577.243 165.985 576.698 165.682C576.162 165.371 575.738 164.939 575.427 164.385C575.124 163.823 574.973 163.175 574.973 162.44C574.973 161.705 575.12 161.061 575.414 160.507C575.717 159.945 576.136 159.513 576.672 159.21C577.217 158.908 577.84 158.756 578.54 158.756C579.214 158.756 579.815 158.903 580.343 159.197C580.87 159.491 581.281 159.906 581.575 160.442C581.869 160.97 582.016 161.579 582.016 162.271ZM580.472 161.804C580.464 161.26 580.269 160.823 579.889 160.494C579.508 160.166 579.037 160.001 578.475 160.001C577.965 160.001 577.528 160.166 577.165 160.494C576.802 160.814 576.586 161.251 576.517 161.804H580.472ZM589.603 164.697L591.626 158.873H593.195L590.472 166.02H588.708L585.997 158.873H587.579L589.603 164.697ZM600.863 162.271C600.863 162.539 600.846 162.781 600.811 162.998H595.351C595.394 163.568 595.606 164.026 595.986 164.372C596.367 164.718 596.834 164.891 597.387 164.891C598.182 164.891 598.744 164.558 599.073 163.892H600.668C600.452 164.55 600.059 165.09 599.488 165.514C598.926 165.929 598.226 166.136 597.387 166.136C596.704 166.136 596.09 165.985 595.545 165.682C595.009 165.371 594.585 164.939 594.274 164.385C593.972 163.823 593.82 163.175 593.82 162.44C593.82 161.705 593.967 161.061 594.261 160.507C594.564 159.945 594.983 159.513 595.519 159.21C596.064 158.908 596.687 158.756 597.387 158.756C598.061 158.756 598.662 158.903 599.19 159.197C599.717 159.491 600.128 159.906 600.422 160.442C600.716 160.97 600.863 161.579 600.863 162.271ZM599.319 161.804C599.311 161.26 599.116 160.823 598.736 160.494C598.355 160.166 597.884 160.001 597.322 160.001C596.812 160.001 596.375 160.166 596.012 160.494C595.649 160.814 595.433 161.251 595.364 161.804H599.319ZM605.924 158.756C606.486 158.756 606.987 158.873 607.428 159.107C607.878 159.34 608.228 159.686 608.479 160.144C608.73 160.602 608.855 161.156 608.855 161.804V166.02H607.389V162.025C607.389 161.385 607.229 160.896 606.909 160.559C606.589 160.213 606.153 160.04 605.599 160.04C605.046 160.04 604.605 160.213 604.276 160.559C603.957 160.896 603.797 161.385 603.797 162.025V166.02H602.318V158.873L603.797 158.873V159.69C604.039 159.396 604.346 159.167 604.717 159.003C605.098 158.838 605.5 158.756 605.924 158.756ZM612.466 160.079V164.035C612.466 164.303 612.526 164.498 612.647 164.619C612.777 164.731 612.993 164.787 613.296 164.787H614.204V166.02H613.037C612.371 166.02 611.861 165.864 611.506 165.553C611.152 165.241 610.974 164.735 610.974 164.035V160.079H610.131V158.873H610.974V157.096H612.466V158.873H614.204V160.079H612.466ZM615.074 162.414C615.074 161.696 615.221 161.061 615.515 160.507C615.817 159.954 616.224 159.526 616.734 159.223C617.253 158.912 617.823 158.756 618.446 158.756C619.008 158.756 619.497 158.869 619.912 159.094C620.335 159.31 620.673 159.582 620.923 159.911V158.873H622.415V166.02H620.923V164.956C620.673 165.293 620.331 165.574 619.899 165.799C619.466 166.024 618.973 166.136 618.42 166.136C617.806 166.136 617.244 165.981 616.734 165.669C616.224 165.349 615.817 164.908 615.515 164.346C615.221 163.776 615.074 163.132 615.074 162.414ZM620.923 162.44C620.923 161.947 620.82 161.519 620.612 161.156C620.413 160.793 620.149 160.516 619.821 160.326C619.492 160.135 619.138 160.04 618.757 160.04C618.377 160.04 618.022 160.135 617.694 160.326C617.365 160.507 617.097 160.78 616.89 161.143C616.691 161.497 616.591 161.921 616.591 162.414C616.591 162.907 616.691 163.339 616.89 163.711C617.097 164.083 617.365 164.368 617.694 164.567C618.031 164.757 618.385 164.852 618.757 164.852C619.138 164.852 619.492 164.757 619.821 164.567C620.149 164.377 620.413 164.1 620.612 163.737C620.82 163.365 620.923 162.933 620.923 162.44ZM626.951 166.136C626.389 166.136 625.883 166.037 625.433 165.838C624.992 165.63 624.642 165.354 624.383 165.008C624.123 164.653 623.985 164.26 623.968 163.828H625.498C625.524 164.13 625.667 164.385 625.926 164.593C626.194 164.792 626.527 164.891 626.925 164.891C627.34 164.891 627.66 164.813 627.885 164.658C628.118 164.493 628.235 164.286 628.235 164.035C628.235 163.767 628.105 163.568 627.846 163.438C627.595 163.309 627.193 163.166 626.64 163.01C626.104 162.863 625.667 162.721 625.33 162.582C624.992 162.444 624.698 162.232 624.448 161.947C624.206 161.662 624.085 161.285 624.085 160.819C624.085 160.438 624.197 160.092 624.422 159.781C624.647 159.461 624.966 159.21 625.382 159.029C625.805 158.847 626.289 158.756 626.834 158.756C627.647 158.756 628.3 158.964 628.793 159.379C629.294 159.785 629.562 160.343 629.597 161.052H628.118C628.092 160.732 627.963 160.477 627.729 160.287C627.496 160.097 627.18 160.001 626.782 160.001C626.393 160.001 626.095 160.075 625.887 160.222C625.68 160.369 625.576 160.563 625.576 160.806C625.576 160.996 625.645 161.156 625.784 161.285C625.922 161.415 626.091 161.519 626.289 161.597C626.488 161.666 626.782 161.757 627.171 161.869C627.69 162.007 628.114 162.15 628.442 162.297C628.78 162.435 629.069 162.643 629.311 162.92C629.554 163.196 629.679 163.564 629.688 164.022C629.688 164.429 629.575 164.792 629.35 165.112C629.126 165.432 628.806 165.682 628.391 165.864C627.984 166.045 627.504 166.136 626.951 166.136Z" fill="#71A476"/>
<rect x="239" y="195" width="182.863" height="35.0406" rx="6.41624" fill="#D9F3F6"/>
<path d="M320.706 210.69C320.706 211.148 320.598 211.581 320.382 211.987C320.165 212.394 319.82 212.726 319.344 212.986C318.868 213.237 318.259 213.362 317.515 213.362H315.881V217.02H314.402V208.005H317.515C318.207 208.005 318.791 208.126 319.266 208.369C319.75 208.602 320.109 208.922 320.343 209.328C320.585 209.735 320.706 210.189 320.706 210.69ZM317.515 212.156C318.077 212.156 318.497 212.03 318.773 211.78C319.05 211.52 319.188 211.157 319.188 210.69C319.188 209.704 318.631 209.212 317.515 209.212H315.881V212.156H317.515ZM329.094 218.654L327.512 216.942C327.122 217.054 326.694 217.11 326.228 217.11C325.389 217.11 324.615 216.916 323.906 216.527C323.206 216.129 322.648 215.58 322.233 214.879C321.826 214.17 321.623 213.375 321.623 212.493C321.623 211.611 321.826 210.82 322.233 210.119C322.648 209.419 323.206 208.874 323.906 208.485C324.615 208.088 325.389 207.889 326.228 207.889C327.075 207.889 327.849 208.088 328.549 208.485C329.258 208.874 329.816 209.419 330.222 210.119C330.629 210.82 330.832 211.611 330.832 212.493C330.832 213.323 330.65 214.075 330.287 214.75C329.933 215.416 329.44 215.952 328.809 216.358L330.975 218.654H329.094ZM323.141 212.493C323.141 213.159 323.27 213.747 323.53 214.257C323.798 214.758 324.165 215.148 324.632 215.424C325.099 215.692 325.631 215.826 326.228 215.826C326.824 215.826 327.356 215.692 327.823 215.424C328.29 215.148 328.653 214.758 328.912 214.257C329.18 213.747 329.314 213.159 329.314 212.493C329.314 211.827 329.18 211.244 328.912 210.742C328.653 210.241 328.29 209.856 327.823 209.588C327.356 209.32 326.824 209.186 326.228 209.186C325.631 209.186 325.099 209.32 324.632 209.588C324.165 209.856 323.798 210.241 323.53 210.742C323.27 211.244 323.141 211.827 323.141 212.493ZM337.007 217.02L334.932 213.414H333.803V217.02H332.325V208.005H335.438C336.129 208.005 336.713 208.126 337.189 208.369C337.673 208.611 338.032 208.935 338.265 209.341C338.507 209.748 338.628 210.202 338.628 210.703C338.628 211.291 338.455 211.827 338.11 212.311C337.772 212.787 337.249 213.111 336.54 213.284L338.771 217.02H337.007ZM333.803 212.234H335.438C335.991 212.234 336.406 212.095 336.683 211.819C336.968 211.542 337.111 211.17 337.111 210.703C337.111 210.236 336.972 209.873 336.696 209.614C336.419 209.346 336 209.212 335.438 209.212H333.803V212.234ZM343.49 217.11C342.885 217.11 342.34 217.007 341.856 216.799C341.371 216.583 340.991 216.28 340.714 215.891C340.438 215.502 340.299 215.048 340.299 214.529H341.882C341.916 214.918 342.068 215.238 342.336 215.489C342.612 215.74 342.997 215.865 343.49 215.865C344 215.865 344.398 215.744 344.683 215.502C344.969 215.251 345.111 214.931 345.111 214.542C345.111 214.24 345.02 213.993 344.839 213.803C344.666 213.613 344.445 213.466 344.177 213.362C343.918 213.258 343.555 213.146 343.088 213.025C342.5 212.869 342.02 212.713 341.648 212.558C341.285 212.394 340.974 212.143 340.714 211.806C340.455 211.468 340.325 211.019 340.325 210.457C340.325 209.938 340.455 209.484 340.714 209.095C340.974 208.706 341.337 208.407 341.804 208.2C342.271 207.992 342.811 207.889 343.425 207.889C344.298 207.889 345.012 208.109 345.565 208.55C346.127 208.982 346.438 209.579 346.499 210.34H344.865C344.839 210.011 344.683 209.73 344.398 209.497C344.112 209.263 343.736 209.147 343.269 209.147C342.846 209.147 342.5 209.255 342.232 209.471C341.964 209.687 341.83 209.998 341.83 210.405C341.83 210.682 341.912 210.911 342.076 211.092C342.249 211.265 342.465 211.404 342.725 211.507C342.984 211.611 343.339 211.723 343.788 211.844C344.385 212.009 344.869 212.173 345.241 212.337C345.621 212.502 345.941 212.757 346.201 213.103C346.469 213.44 346.603 213.894 346.603 214.464C346.603 214.923 346.477 215.355 346.227 215.761C345.984 216.168 345.626 216.496 345.15 216.747C344.683 216.989 344.13 217.11 343.49 217.11Z" fill="#02ADC1"/>
<path d="M204.607 84.7695C220.38 77.7492 244.046 80.0641 255.998 86.606" stroke="#AD54E0" stroke-width="2" stroke-linecap="round" stroke-linejoin="round" stroke-dasharray="4 4"/>
<path d="M402.001 83.8789C417.774 76.8585 441.44 79.1735 453.392 85.7154" stroke="#FF6898" stroke-width="2" stroke-linecap="round" stroke-linejoin="round" stroke-dasharray="4 4"/>
<path d="M191 160C204.094 175.799 249.317 167.499 261 160.019" stroke="#FF5858" stroke-width="2" stroke-linecap="round" stroke-linejoin="round" stroke-dasharray="4 4"/>
<path d="M191 160C204.094 175.799 249.317 167.499 261 160.019" stroke="#FF5858" stroke-width="2" stroke-linecap="round" stroke-linejoin="round" stroke-dasharray="4 4"/>
<path d="M402 160C415.094 175.799 460.317 167.499 472 160.019" stroke="#71A476" stroke-width="2" stroke-linecap="round" stroke-linejoin="round" stroke-dasharray="4 4"/>
<path d="M331.821 193C331.5 187.5 330.822 188.5 331.821 181M331.821 49C331.501 41.5 331.821 41.5 331.821 38" stroke="#02ADC1" stroke-width="2" stroke-linecap="round" stroke-linejoin="round" stroke-dasharray="3 3"/>
<path d="M310.641 116.163C310.641 114.816 310.932 113.619 311.515 112.57C312.098 111.508 312.907 110.686 313.943 110.103C314.992 109.507 316.177 109.209 317.497 109.209C319.116 109.209 320.502 109.637 321.654 110.491C322.806 111.346 323.577 112.511 323.965 113.988H320.314C320.042 113.418 319.653 112.984 319.148 112.686C318.656 112.388 318.093 112.24 317.459 112.24C316.436 112.24 315.607 112.596 314.972 113.308C314.338 114.02 314.021 114.972 314.021 116.163C314.021 117.354 314.338 118.306 314.972 119.018C315.607 119.73 316.436 120.087 317.459 120.087C318.093 120.087 318.656 119.938 319.148 119.64C319.653 119.342 320.042 118.908 320.314 118.338H323.965C323.577 119.815 322.806 120.98 321.654 121.835C320.502 122.676 319.116 123.097 317.497 123.097C316.177 123.097 314.992 122.806 313.943 122.223C312.907 121.627 312.098 120.805 311.515 119.756C310.932 118.707 310.641 117.51 310.641 116.163ZM332.953 123L330.117 117.853H329.321V123H325.999V109.365H331.574C332.649 109.365 333.561 109.553 334.312 109.928C335.076 110.304 335.646 110.822 336.022 111.482C336.397 112.129 336.585 112.855 336.585 113.657C336.585 114.564 336.326 115.373 335.808 116.085C335.303 116.798 334.552 117.303 333.555 117.6L336.702 123H332.953ZM329.321 115.503H331.38C331.988 115.503 332.441 115.354 332.739 115.056C333.05 114.758 333.205 114.337 333.205 113.793C333.205 113.275 333.05 112.868 332.739 112.57C332.441 112.272 331.988 112.123 331.38 112.123H329.321V115.503ZM354.111 109.365V123H350.79V114.823L347.741 123H345.06L341.991 114.803V123H338.67V109.365H342.593L346.42 118.805L350.207 109.365H354.111Z" fill="#0B2C4C"/>
<mask id="path-20-inside-1_0_1" fill="white">
<path d="M394.832 114.836C394.832 123.109 393.202 131.301 390.036 138.945C386.87 146.589 382.23 153.534 376.38 159.384C370.53 165.234 363.585 169.874 355.941 173.04C348.298 176.206 340.105 177.836 331.832 177.836V174.686C339.692 174.686 347.474 173.138 354.736 170.13C361.997 167.122 368.595 162.714 374.152 157.156C379.71 151.599 384.118 145.001 387.126 137.74C390.134 130.478 391.682 122.696 391.682 114.836H394.832Z"/>
</mask>
<path d="M394.832 114.836C394.832 123.109 393.202 131.301 390.036 138.945C386.87 146.589 382.23 153.534 376.38 159.384C370.53 165.234 363.585 169.874 355.941 173.04C348.298 176.206 340.105 177.836 331.832 177.836V174.686C339.692 174.686 347.474 173.138 354.736 170.13C361.997 167.122 368.595 162.714 374.152 157.156C379.71 151.599 384.118 145.001 387.126 137.74C390.134 130.478 391.682 122.696 391.682 114.836H394.832Z" stroke="#0B2C4C" stroke-width="16.0744" mask="url(#path-20-inside-1_0_1)"/>
<mask id="path-21-inside-2_0_1" fill="white">
<path d="M331.836 51.8359C340.109 51.8359 348.301 53.4655 355.945 56.6315C363.589 59.7976 370.534 64.4381 376.384 70.2882C382.234 76.1383 386.874 83.0834 390.04 90.7269C393.206 98.3704 394.836 106.563 394.836 114.836H391.686C391.686 106.976 390.138 99.1937 387.13 91.9323C384.122 84.671 379.714 78.0732 374.156 72.5156C368.599 66.958 362.001 62.5495 354.74 59.5417C347.478 56.534 339.696 54.9859 331.836 54.9859V51.8359Z"/>
</mask>
<path d="M331.836 51.8359C340.109 51.8359 348.301 53.4655 355.945 56.6315C363.589 59.7976 370.534 64.4381 376.384 70.2882C382.234 76.1383 386.874 83.0834 390.04 90.7269C393.206 98.3704 394.836 106.563 394.836 114.836H391.686C391.686 106.976 390.138 99.1937 387.13 91.9323C384.122 84.671 379.714 78.0732 374.156 72.5156C368.599 66.958 362.001 62.5495 354.74 59.5417C347.478 56.534 339.696 54.9859 331.836 54.9859V51.8359Z" stroke="#02ADC1" stroke-width="16.0744" mask="url(#path-21-inside-2_0_1)"/>
<mask id="path-22-inside-3_0_1" fill="white">
<path d="M268.836 114.836C268.836 106.563 270.465 98.3704 273.632 90.7269C276.798 83.0834 281.438 76.1383 287.288 70.2882C293.138 64.4381 300.083 59.7976 307.727 56.6315C315.37 53.4655 323.563 51.8359 331.836 51.8359L331.836 54.9859C323.976 54.9859 316.194 56.534 308.932 59.5417C301.671 62.5495 295.073 66.958 289.516 72.5156C283.958 78.0732 279.549 84.671 276.542 91.9323C273.534 99.1937 271.986 106.976 271.986 114.836L268.836 114.836Z"/>
</mask>
<path d="M268.836 114.836C268.836 106.563 270.465 98.3704 273.632 90.7269C276.798 83.0834 281.438 76.1383 287.288 70.2882C293.138 64.4381 300.083 59.7976 307.727 56.6315C315.37 53.4655 323.563 51.8359 331.836 51.8359L331.836 54.9859C323.976 54.9859 316.194 56.534 308.932 59.5417C301.671 62.5495 295.073 66.958 289.516 72.5156C283.958 78.0732 279.549 84.671 276.542 91.9323C273.534 99.1937 271.986 106.976 271.986 114.836L268.836 114.836Z" stroke="#AD54E0" stroke-width="16.0744" mask="url(#path-22-inside-3_0_1)"/>
<mask id="path-23-inside-4_0_1" fill="white">
<path d="M331.832 177.836C323.559 177.836 315.366 176.206 307.723 173.04C300.079 169.874 293.134 165.234 287.284 159.384C281.434 153.534 276.794 146.589 273.628 138.945C270.462 131.301 268.832 123.109 268.832 114.836L271.982 114.836C271.982 122.696 273.53 130.478 276.538 137.74C279.546 145.001 283.954 151.599 289.512 157.156C295.069 162.714 301.667 167.122 308.928 170.13C316.19 173.138 323.972 174.686 331.832 174.686L331.832 177.836Z"/>
</mask>
<path d="M331.832 177.836C323.559 177.836 315.366 176.206 307.723 173.04C300.079 169.874 293.134 165.234 287.284 159.384C281.434 153.534 276.794 146.589 273.628 138.945C270.462 131.301 268.832 123.109 268.832 114.836L271.982 114.836C271.982 122.696 273.53 130.478 276.538 137.74C279.546 145.001 283.954 151.599 289.512 157.156C295.069 162.714 301.667 167.122 308.928 170.13C316.19 173.138 323.972 174.686 331.832 174.686L331.832 177.836Z" stroke="#FF5858" stroke-width="16.0744" mask="url(#path-23-inside-4_0_1)"/>
</svg>
