<svg width="126" height="108" viewBox="0 0 126 108" fill="none" xmlns="http://www.w3.org/2000/svg">
<rect x="0.5" width="125" height="108" rx="30" fill="url(#paint0_linear_4011_17501)"/>
<path d="M84.5705 43.6697L57.8047 39.8154C57.4872 39.7629 57.2025 39.5852 57.0116 39.3203C56.8208 39.0554 56.7391 38.7245 56.784 38.3987C56.8289 38.0728 56.9969 37.778 57.2519 37.5775C57.5069 37.377 57.8285 37.2867 58.1478 37.3262L84.9136 41.1805C85.2311 41.233 85.5158 41.4108 85.7067 41.6756C85.8975 41.9405 85.9792 42.2714 85.9343 42.5972C85.8894 42.9231 85.7214 43.2179 85.4664 43.4185C85.2114 43.619 84.8897 43.7092 84.5705 43.6697ZM84.0571 47.4044L57.2924 43.5501C56.9731 43.5106 56.6514 43.6008 56.3964 43.8013C56.1414 44.0019 55.9734 44.2967 55.9285 44.6226C55.8836 44.9484 55.9653 45.2793 56.1562 45.5442C56.347 45.8091 56.6317 45.9868 56.9492 46.0393L83.7139 49.8942C84.0366 49.9408 84.3641 49.8543 84.6244 49.6538C84.8848 49.4532 85.0566 49.1551 85.1021 48.8249C85.1476 48.4947 85.063 48.1596 84.8671 47.8932C84.6711 47.6268 84.3797 47.451 84.0571 47.4044ZM82.3449 59.8534L55.5802 55.9989C55.261 55.9596 54.9394 56.0499 54.6845 56.2504C54.4297 56.451 54.2617 56.7458 54.2169 57.0715C54.172 57.3973 54.2537 57.7281 54.4444 57.993C54.6352 58.2578 54.9198 58.4356 55.2372 58.4881L82.0018 62.3425C82.3206 62.3811 82.6416 62.2905 82.896 62.0899C83.1504 61.8894 83.3179 61.595 83.3628 61.2696C83.4076 60.9443 83.3262 60.6139 83.136 60.3492C82.9457 60.0845 82.6618 59.9065 82.3449 59.8534ZM83.2016 53.6289L56.4357 49.7746C56.1164 49.7351 55.7947 49.8253 55.5397 50.0258C55.2847 50.2264 55.1168 50.5212 55.0718 50.8471C55.0269 51.1729 55.1086 51.5038 55.2995 51.7687C55.4903 52.0335 55.775 52.2113 56.0925 52.2637L82.8585 56.1181C83.1777 56.1576 83.4994 56.0673 83.7544 55.8668C84.0094 55.6663 84.1774 55.3715 84.2223 55.0456C84.2672 54.7197 84.1855 54.3889 83.9946 54.124C83.8038 53.8591 83.5191 53.6814 83.2016 53.6289ZM81.4895 66.0778L54.7237 62.2234C54.4044 62.184 54.0827 62.2742 53.8277 62.4747C53.5727 62.6752 53.4047 62.9701 53.3598 63.2959C53.3149 63.6218 53.3966 63.9527 53.5875 64.2175C53.7783 64.4824 54.063 64.6602 54.3805 64.7126L81.1462 68.5676C81.306 68.5907 81.4686 68.5813 81.6248 68.54C81.7811 68.4988 81.9278 68.4264 82.0567 68.3272C82.1856 68.2279 82.2942 68.1036 82.3761 67.9613C82.4581 67.8191 82.5119 67.6618 82.5344 67.4983C82.557 67.3348 82.5478 67.1684 82.5075 67.0085C82.4672 66.8487 82.3965 66.6985 82.2995 66.5666C82.2024 66.4347 82.0809 66.3236 81.942 66.2397C81.803 66.1559 81.6492 66.1008 81.4895 66.0778ZM80.6328 72.3023L53.8682 68.4485C53.5489 68.4091 53.2273 68.4993 52.9723 68.6998C52.7173 68.9003 52.5493 69.1952 52.5044 69.521C52.4594 69.8469 52.5412 70.1778 52.732 70.4427C52.9229 70.7075 53.2076 70.8853 53.5251 70.9377L80.2898 74.7922C80.6124 74.8388 80.94 74.7522 81.2003 74.5517C81.4606 74.3511 81.6324 74.0529 81.6779 73.7227C81.7234 73.3926 81.6389 73.0574 81.4429 72.791C81.2468 72.5246 80.9555 72.3488 80.6328 72.3023ZM95.9259 33.2931L89.2425 81.8701C89.0976 82.8565 88.5799 83.7452 87.8009 84.3448C87.0219 84.9444 86.044 85.2069 85.0776 85.0759L84.0088 84.925C83.8215 85.2796 83.5811 85.6021 83.2962 85.8804C82.9345 86.2346 82.5062 86.5097 82.0373 86.6891C81.5684 86.8684 81.0688 86.9483 80.5688 86.9239L77.8782 86.7856V86.8485C77.8776 87.8322 77.5005 88.7766 76.8276 89.4793C76.1547 90.1819 75.2397 90.5869 74.2785 90.6074L34.9764 91.5H34.8904C33.9284 91.4907 33.0072 91.1006 32.3201 90.4115C31.633 89.7225 31.2332 88.7879 31.2047 87.8039L30.0007 31.8096C29.9815 30.8082 30.3508 29.8399 31.0278 29.1165C31.7047 28.3932 32.6342 27.9738 33.6127 27.9501L40.4436 27.7992L40.5787 24.9832C40.6334 23.9861 41.0708 23.0516 41.7956 22.3829C42.5204 21.7142 43.4739 21.3656 44.4487 21.4128L50.3705 21.7145L50.6407 19.7408C50.7817 18.7525 51.2984 17.8612 52.0784 17.2608C52.8584 16.6604 53.8386 16.3996 54.8056 16.535L82.7065 20.5579C83.5331 20.6775 87.1285 21.1488 87.8911 21.35C92.6456 22.6242 96.5943 28.2711 95.9259 33.2931ZM84.8442 23.3991C85.0209 24.3934 85.0773 25.4062 85.0123 26.4146L85.0162 26.4164C84.9331 27.8827 84.7442 29.3408 84.4511 30.7787C84.3877 31.3307 84.537 31.8863 84.8673 32.3275C85.1976 32.7688 85.6829 33.061 86.2202 33.1422L86.2179 33.145C88.6216 33.293 90.9905 33.8047 93.2476 34.6634C93.282 34.3784 93.5292 32.8062 93.5302 32.5513C93.7843 28.6783 90.2376 24.0654 86.4836 23.6371C86.5009 23.6437 84.8442 23.3991 84.8442 23.3991ZM82.0185 30.3639C82.1579 29.6431 82.2592 28.9817 82.3426 28.3513L62.9142 25.5489C62.5917 25.5031 62.2647 25.5898 62.0046 25.7901C61.7444 25.9903 61.5723 26.2878 61.5259 26.6175L61.3539 27.8998C61.3086 28.2299 61.3931 28.5648 61.5889 28.8312C61.7846 29.0975 62.0757 29.2735 62.3982 29.3204L82.1168 32.1616L82.1291 32.1635C81.9759 31.5771 81.9383 30.9653 82.0185 30.3639ZM75.421 86.6599L41.3036 84.8873C40.3284 84.8338 39.4136 84.387 38.7596 83.6447C38.1056 82.9025 37.7658 81.9253 37.8144 80.9272L40.3207 30.3136L33.6619 30.4644C33.3363 30.4721 33.027 30.6112 32.8014 30.8515C32.5758 31.0918 32.4523 31.4136 32.4579 31.7468L33.6619 87.7536C33.6755 88.0846 33.8134 88.3974 34.0468 88.6269C34.2803 88.8565 34.5913 88.9849 34.915 88.9857L74.2293 88.0931C74.3902 88.0901 74.5489 88.0544 74.6962 87.9882C74.8435 87.9219 74.9765 87.8263 75.0873 87.707C75.1982 87.5877 75.2848 87.447 75.3421 87.2932C75.3994 87.1393 75.4262 86.9753 75.421 86.8107V86.6599ZM80.3108 84.3844L46.1442 79.4689C45.1776 79.3264 44.3054 78.798 43.7184 77.9994C43.1313 77.2008 42.8771 76.1969 43.0113 75.2071L50.0265 24.2163L44.3259 23.9146C44.0009 23.9012 43.6837 24.0188 43.4425 24.2421C43.2012 24.4654 43.0553 24.7766 43.0359 25.1089L40.2716 81.0529C40.2562 81.3861 40.3703 81.712 40.589 81.9593C40.8077 82.2067 41.1132 82.3554 41.4387 82.3729L80.3108 84.3844ZM92.8914 37.3537C92.6825 37.0646 91.6259 36.2726 86.2571 35.6817C85.3799 35.6154 84.5403 35.2907 83.8396 34.7467L83.8245 34.7514H83.8122C83.4275 34.829 83.0326 34.8375 82.6451 34.7765L62.0542 31.8096C61.0865 31.6694 60.2129 31.1417 59.6254 30.3425C59.0379 29.5433 58.7846 28.538 58.9213 27.5478L59.0933 26.2781C59.2297 25.2867 59.7447 24.3911 60.5255 23.7878C61.3063 23.1844 62.289 22.9226 63.2582 23.0597L82.5468 25.8381H82.55C82.6451 24.8792 82.5046 23.9112 82.1413 23.022L54.4616 19.0242C54.1392 18.9784 53.8121 19.0651 53.552 19.2654C53.2918 19.4656 53.1197 19.7631 53.0733 20.0928L45.4439 75.5591C45.3991 75.889 45.4839 76.2237 45.6796 76.4899C45.8752 76.7561 46.166 76.9322 46.4882 76.9797L85.4216 82.5867C85.7441 82.6324 86.0711 82.5457 86.3312 82.3455C86.5914 82.1452 86.7635 81.8478 86.8099 81.5181L92.8914 37.3537Z" fill="white" stroke="white"/>
<defs>
<linearGradient id="paint0_linear_4011_17501" x1="63" y1="0" x2="63" y2="108" gradientUnits="userSpaceOnUse">
<stop stop-color="#1280C3"/>
<stop offset="1" stop-color="#00AB9E"/>
</linearGradient>
</defs>
</svg>
