<svg width="126" height="119" viewBox="0 0 126 119" fill="none" xmlns="http://www.w3.org/2000/svg">
<rect x="0.5" y="11" width="125" height="108" rx="30" fill="url(#paint0_linear_4011_17586)"/>
<path d="M40.2344 31.2188C40.2344 31.024 40.3117 30.8372 40.4495 30.6995C40.5872 30.5617 40.774 30.4844 40.9688 30.4844H79.1562C79.351 30.4844 79.5378 30.5617 79.6755 30.6995C79.8133 30.8372 79.8906 31.024 79.8906 31.2188H81.3594C81.3594 30.6344 81.1273 30.0741 80.7141 29.6609C80.3009 29.2477 79.7406 29.0156 79.1562 29.0156H40.9688C40.3844 29.0156 39.8241 29.2477 39.4109 29.6609C38.9977 30.0741 38.7656 30.6344 38.7656 31.2188V84.0938H40.2344V31.2188Z" fill="white" stroke="white" stroke-width="0.7"/>
<path d="M43.1719 35.625C43.1719 35.4302 43.2492 35.2434 43.387 35.1057C43.5247 34.968 43.7115 34.8906 43.9062 34.8906H82.0938C82.2885 34.8906 82.4753 34.968 82.613 35.1057C82.7508 35.2434 82.8281 35.4302 82.8281 35.625V41.7497H84.2969V35.625C84.2969 35.0407 84.0648 34.4803 83.6516 34.0672C83.2384 33.654 82.6781 33.4219 82.0938 33.4219H43.9062C43.3219 33.4219 42.7616 33.654 42.3484 34.0672C41.9352 34.4803 41.7031 35.0407 41.7031 35.625V88.5H43.1719V35.625Z" fill="white" stroke="white" stroke-width="0.7"/>
<path d="M76.7387 38.0426C76.6704 37.9744 76.5893 37.9204 76.5001 37.8836C76.4108 37.8468 76.3153 37.828 76.2188 37.8281H46.8438C46.2594 37.8281 45.6991 38.0602 45.2859 38.4734C44.8727 38.8866 44.6406 39.4469 44.6406 40.0313V92.9062C44.6406 93.4906 44.8727 94.0509 45.2859 94.4641C45.6991 94.8773 46.2594 95.1094 46.8438 95.1094H71.8125V93.6406H46.8438C46.649 93.6406 46.4622 93.5633 46.3245 93.4255C46.1867 93.2878 46.1094 93.101 46.1094 92.9062V40.0313C46.1094 39.8365 46.1867 39.6497 46.3245 39.512C46.4622 39.3742 46.649 39.2969 46.8438 39.2969H75.4844V47.375C75.4844 47.9593 75.7165 48.5197 76.1297 48.9328C76.5428 49.346 77.1032 49.5781 77.6875 49.5781H85.7656V63.5312H87.2344V48.8438C87.2345 48.7472 87.2157 48.6517 87.1789 48.5624C87.1421 48.4732 87.0881 48.3921 87.0199 48.3238L76.7387 38.0426ZM76.9531 47.375V40.3353L84.7272 48.1094H77.6875C77.4927 48.1094 77.3059 48.032 77.1682 47.8943C77.0305 47.7566 76.9531 47.5698 76.9531 47.375Z" fill="white" stroke="white" stroke-width="0.7"/>
<path d="M51.9844 62.0625H60.0625C60.2573 62.0625 60.4441 61.9851 60.5818 61.8474C60.7195 61.7097 60.7969 61.5229 60.7969 61.3281C60.7969 61.1334 60.7195 60.9466 60.5818 60.8088C60.4441 60.6711 60.2573 60.5938 60.0625 60.5938H51.9844C51.7896 60.5938 51.6028 60.6711 51.4651 60.8088C51.3274 60.9466 51.25 61.1334 51.25 61.3281C51.25 61.5229 51.3274 61.7097 51.4651 61.8474C51.6028 61.9851 51.7896 62.0625 51.9844 62.0625Z" fill="white" stroke="white" stroke-width="0.7"/>
<path d="M79.8906 60.5938H63C62.8052 60.5938 62.6184 60.6711 62.4807 60.8088C62.343 60.9466 62.2656 61.1334 62.2656 61.3281C62.2656 61.5229 62.343 61.7097 62.4807 61.8474C62.6184 61.9851 62.8052 62.0625 63 62.0625H79.8906C80.0854 62.0625 80.2722 61.9851 80.4099 61.8474C80.5476 61.7097 80.625 61.5229 80.625 61.3281C80.625 61.1334 80.5476 60.9466 80.4099 60.8088C80.2722 60.6711 80.0854 60.5938 79.8906 60.5938Z" fill="white" stroke="white" stroke-width="0.7"/>
<path d="M80.625 64.2656C80.625 64.0709 80.5476 63.8841 80.4099 63.7463C80.2722 63.6086 80.0854 63.5312 79.8906 63.5312H70.3438C70.149 63.5312 69.9622 63.6086 69.8245 63.7463C69.6867 63.8841 69.6094 64.0709 69.6094 64.2656C69.6094 64.4604 69.6867 64.6472 69.8245 64.7849C69.9622 64.9226 70.149 65 70.3438 65H79.8906C80.0854 65 80.2722 64.9226 80.4099 64.7849C80.5476 64.6472 80.625 64.4604 80.625 64.2656Z" fill="white" stroke="white" stroke-width="0.7"/>
<path d="M51.9844 65H67.4062C67.601 65 67.7878 64.9226 67.9255 64.7849C68.0633 64.6472 68.1406 64.4604 68.1406 64.2656C68.1406 64.0709 68.0633 63.8841 67.9255 63.7463C67.7878 63.6086 67.601 63.5312 67.4062 63.5312H51.9844C51.7896 63.5312 51.6028 63.6086 51.4651 63.7463C51.3274 63.8841 51.25 64.0709 51.25 64.2656C51.25 64.4604 51.3274 64.6472 51.4651 64.7849C51.6028 64.9226 51.7896 65 51.9844 65Z" fill="white" stroke="white" stroke-width="0.7"/>
<path d="M51.9844 54.7188H60.0625C60.2573 54.7188 60.4441 54.6414 60.5818 54.5037C60.7195 54.3659 60.7969 54.1791 60.7969 53.9844C60.7969 53.7896 60.7195 53.6028 60.5818 53.4651C60.4441 53.3274 60.2573 53.25 60.0625 53.25H51.9844C51.7896 53.25 51.6028 53.3274 51.4651 53.4651C51.3274 53.6028 51.25 53.7896 51.25 53.9844C51.25 54.1791 51.3274 54.3659 51.4651 54.5037C51.6028 54.6414 51.7896 54.7188 51.9844 54.7188Z" fill="white" stroke="white" stroke-width="0.7"/>
<path d="M79.8906 53.25H63C62.8052 53.25 62.6184 53.3274 62.4807 53.4651C62.343 53.6028 62.2656 53.7896 62.2656 53.9844C62.2656 54.1791 62.343 54.3659 62.4807 54.5037C62.6184 54.6414 62.8052 54.7188 63 54.7188H79.8906C80.0854 54.7188 80.2722 54.6414 80.4099 54.5037C80.5476 54.3659 80.625 54.1791 80.625 53.9844C80.625 53.7896 80.5476 53.6028 80.4099 53.4651C80.2722 53.3274 80.0854 53.25 79.8906 53.25Z" fill="white" stroke="white" stroke-width="0.7"/>
<path d="M79.8906 56.1875H70.3438C70.149 56.1875 69.9622 56.2649 69.8245 56.4026C69.6867 56.5403 69.6094 56.7271 69.6094 56.9219C69.6094 57.1166 69.6867 57.3034 69.8245 57.4412C69.9622 57.5789 70.149 57.6562 70.3438 57.6562H79.8906C80.0854 57.6562 80.2722 57.5789 80.4099 57.4412C80.5476 57.3034 80.625 57.1166 80.625 56.9219C80.625 56.7271 80.5476 56.5403 80.4099 56.4026C80.2722 56.2649 80.0854 56.1875 79.8906 56.1875Z" fill="white" stroke="white" stroke-width="0.7"/>
<path d="M51.9844 57.6562H67.4062C67.601 57.6562 67.7878 57.5789 67.9255 57.4412C68.0633 57.3034 68.1406 57.1166 68.1406 56.9219C68.1406 56.7271 68.0633 56.5403 67.9255 56.4026C67.7878 56.2649 67.601 56.1875 67.4062 56.1875H51.9844C51.7896 56.1875 51.6028 56.2649 51.4651 56.4026C51.3274 56.5403 51.25 56.7271 51.25 56.9219C51.25 57.1166 51.3274 57.3034 51.4651 57.4412C51.6028 57.5789 51.7896 57.6562 51.9844 57.6562Z" fill="white" stroke="white" stroke-width="0.7"/>
<path d="M70.3438 45.9062C70.5385 45.9062 70.7253 45.8289 70.863 45.6912C71.0008 45.5534 71.0781 45.3666 71.0781 45.1719C71.0781 44.9771 71.0008 44.7903 70.863 44.6526C70.7253 44.5149 70.5385 44.4375 70.3438 44.4375H64.4688C64.274 44.4375 64.0872 44.5149 63.9495 44.6526C63.8117 44.7903 63.7344 44.9771 63.7344 45.1719C63.7344 45.3666 63.8117 45.5534 63.9495 45.6912C64.0872 45.8289 64.274 45.9062 64.4688 45.9062H70.3438Z" fill="white" stroke="white" stroke-width="0.7"/>
<path d="M61.5312 44.4375H51.9844C51.7896 44.4375 51.6028 44.5149 51.4651 44.6526C51.3274 44.7903 51.25 44.9771 51.25 45.1719C51.25 45.3666 51.3274 45.5534 51.4651 45.6912C51.6028 45.8289 51.7896 45.9062 51.9844 45.9062H61.5312C61.726 45.9062 61.9128 45.8289 62.0505 45.6912C62.1883 45.5534 62.2656 45.3666 62.2656 45.1719C62.2656 44.9771 62.1883 44.7903 62.0505 44.6526C61.9128 44.5149 61.726 44.4375 61.5312 44.4375Z" fill="white" stroke="white" stroke-width="0.7"/>
<path d="M51.9844 48.8438H57.125C57.3198 48.8438 57.5066 48.7664 57.6443 48.6287C57.782 48.4909 57.8594 48.3041 57.8594 48.1094C57.8594 47.9146 57.782 47.7278 57.6443 47.5901C57.5066 47.4524 57.3198 47.375 57.125 47.375H51.9844C51.7896 47.375 51.6028 47.4524 51.4651 47.5901C51.3274 47.7278 51.25 47.9146 51.25 48.1094C51.25 48.3041 51.3274 48.4909 51.4651 48.6287C51.6028 48.7664 51.7896 48.8438 51.9844 48.8438Z" fill="white" stroke="white" stroke-width="0.7"/>
<path d="M59.3281 48.1094C59.3281 48.3041 59.4055 48.4909 59.5432 48.6287C59.6809 48.7664 59.8677 48.8438 60.0625 48.8438H70.3438C70.5385 48.8438 70.7253 48.7664 70.863 48.6287C71.0008 48.4909 71.0781 48.3041 71.0781 48.1094C71.0781 47.9146 71.0008 47.7278 70.863 47.5901C70.7253 47.4524 70.5385 47.375 70.3438 47.375H60.0625C59.8677 47.375 59.6809 47.4524 59.5432 47.5901C59.4055 47.7278 59.3281 47.9146 59.3281 48.1094Z" fill="white" stroke="white" stroke-width="0.7"/>
<path d="M73.1918 80.6475C73.429 80.4407 73.619 80.1855 73.7493 79.8991C73.8795 79.6127 73.9469 79.3017 73.9469 78.987C73.9469 78.6724 73.8795 78.3614 73.7493 78.075C73.619 77.7886 73.429 77.5334 73.1918 77.3266L71.701 76.0268C71.6154 75.9524 71.5482 75.8592 71.5046 75.7544C71.461 75.6497 71.4423 75.5363 71.4499 75.4231L71.5865 73.4491C71.6082 73.1349 71.5624 72.8197 71.452 72.5247C71.3415 72.2297 71.1692 71.9619 70.9465 71.7391C70.7237 71.5164 70.4559 71.3441 70.1609 71.2337C69.8659 71.1232 69.5507 71.0774 69.2365 71.0991L67.2639 71.2357C67.1506 71.2437 67.037 71.2254 66.932 71.182C66.827 71.1387 66.7335 71.0716 66.6588 70.986L65.359 69.4953C65.1465 69.2675 64.8895 69.0859 64.6038 68.9617C64.3182 68.8375 64.01 68.7734 63.6986 68.7734C63.3871 68.7734 63.0789 68.8375 62.7933 68.9617C62.5076 69.0859 62.2506 69.2675 62.0381 69.4953L60.7368 70.986C60.6624 71.0712 60.5694 71.138 60.465 71.1814C60.3605 71.2247 60.2475 71.2433 60.1346 71.2357L58.1621 71.0991C57.8479 71.0774 57.5327 71.1232 57.2377 71.2337C56.9427 71.3441 56.6748 71.5164 56.4521 71.7391C56.2294 71.9619 56.057 72.2297 55.9466 72.5247C55.8362 72.8197 55.7904 73.1349 55.8121 73.4491L55.9487 75.429C55.9565 75.5421 55.938 75.6554 55.8947 75.7601C55.8514 75.8648 55.7844 75.9581 55.699 76.0327L54.2082 77.3325C53.9711 77.5393 53.781 77.7945 53.6508 78.0809C53.5205 78.3673 53.4531 78.6783 53.4531 78.9929C53.4531 79.3076 53.5205 79.6185 53.6508 79.905C53.781 80.1914 53.9711 80.4466 54.2082 80.6533L55.7005 81.9547C55.7854 82.0292 55.852 82.1223 55.895 82.2267C55.9381 82.3312 55.9564 82.4441 55.9487 82.5568L55.8136 84.5308C55.7918 84.8451 55.8377 85.1603 55.9481 85.4553C56.0585 85.7502 56.2309 86.0181 56.4536 86.2408C56.6763 86.4635 56.9442 86.6359 57.2392 86.7463C57.5341 86.8567 57.8494 86.9026 58.1636 86.8808L60.1361 86.7443C60.2492 86.7365 60.3625 86.755 60.4672 86.7983C60.572 86.8416 60.6652 86.9086 60.7398 86.9939L62.0396 88.4847C62.2464 88.7218 62.5016 88.9119 62.788 89.0422C63.0744 89.1724 63.3854 89.2398 63.7 89.2398C64.0147 89.2398 64.3257 89.1724 64.6121 89.0422C64.8985 88.9119 65.1537 88.7218 65.3605 88.4847L66.6618 86.9939C66.7356 86.9081 66.8286 86.8409 66.9332 86.7975C67.0378 86.7541 67.151 86.7359 67.2639 86.7443L69.2394 86.8808C69.5536 86.9026 69.8689 86.8567 70.1638 86.7463C70.4588 86.6359 70.7267 86.4635 70.9494 86.2408C71.1721 86.0181 71.3445 85.7502 71.4549 85.4553C71.5653 85.1603 71.6112 84.8451 71.5894 84.5308L71.4528 82.5568C71.445 82.4438 71.4635 82.3305 71.5069 82.2257C71.5502 82.121 71.6171 82.0277 71.7025 81.9532L73.1918 80.6475ZM70.7375 80.8399C70.4811 81.0637 70.2798 81.3437 70.1494 81.6581C70.019 81.9725 69.9629 82.3127 69.9855 82.6523L70.1221 84.6248C70.1295 84.7296 70.1144 84.8348 70.0776 84.9332C70.0409 85.0316 69.9836 85.121 69.9094 85.1953C69.8352 85.2696 69.7459 85.3272 69.6475 85.3641C69.5492 85.401 69.4441 85.4163 69.3393 85.4092L67.3653 85.2696C67.0261 85.2496 66.6868 85.3067 66.3729 85.4367C66.0589 85.5667 65.7786 85.7662 65.5529 86.0202L64.253 87.5124C64.1828 87.5892 64.0974 87.6506 64.0022 87.6925C63.907 87.7345 63.8041 87.7562 63.7 87.7562C63.596 87.7562 63.4931 87.7345 63.3979 87.6925C63.3026 87.6506 63.2172 87.5892 63.147 87.5124L61.8472 86.0202C61.6231 85.7642 61.343 85.5633 61.0287 85.4331C60.7143 85.303 60.3742 85.247 60.0348 85.2696L58.0622 85.4062C57.9574 85.4134 57.8523 85.398 57.754 85.3612C57.6557 85.3243 57.5664 85.2667 57.4922 85.1924C57.418 85.118 57.3606 85.0286 57.3239 84.9302C57.2872 84.8318 57.272 84.7267 57.2794 84.6219L57.4145 82.6494C57.4372 82.3099 57.3813 81.9698 57.2512 81.6554C57.121 81.3411 56.92 81.061 56.664 80.8369L55.1717 79.5415C55.0929 79.4726 55.0296 79.3876 54.9863 79.2922C54.943 79.1968 54.9206 79.0933 54.9206 78.9885C54.9206 78.8838 54.943 78.7802 54.9863 78.6848C55.0296 78.5895 55.0929 78.5045 55.1717 78.4355L56.6625 77.1357C56.9182 76.9114 57.1189 76.6312 57.2491 76.317C57.3792 76.0027 57.4353 75.6627 57.413 75.3232L57.2779 73.3507C57.2706 73.2461 57.2857 73.1411 57.3223 73.0428C57.3589 72.9445 57.4162 72.8552 57.4902 72.7808C57.5643 72.7065 57.6534 72.6489 57.7515 72.612C57.8497 72.575 57.9546 72.5594 58.0593 72.5664L60.0333 72.703C60.373 72.7262 60.7134 72.6704 61.0279 72.5399C61.3423 72.4094 61.6223 72.2079 61.8457 71.951L63.1456 70.4602C63.2158 70.3834 63.3012 70.3221 63.3964 70.2801C63.4916 70.2381 63.5945 70.2164 63.6986 70.2164C63.8026 70.2164 63.9055 70.2381 64.0007 70.2801C64.0959 70.3221 64.1814 70.3834 64.2515 70.4602L65.5514 71.951C65.7761 72.2067 66.0565 72.4074 66.371 72.5378C66.6854 72.6681 67.0256 72.7246 67.3653 72.703L69.3378 72.5664C69.4426 72.5592 69.5477 72.5746 69.6461 72.6115C69.7444 72.6484 69.8337 72.7059 69.9079 72.7803C69.9821 72.8546 70.0395 72.944 70.0762 73.0424C70.1129 73.1408 70.1281 73.2459 70.1207 73.3507L69.9841 75.3232C69.9619 75.6627 70.0181 76.0026 70.1482 76.3169C70.2783 76.6312 70.479 76.9113 70.7346 77.1357L72.2269 78.4355C72.3057 78.5045 72.369 78.5895 72.4123 78.6848C72.4556 78.7802 72.478 78.8838 72.478 78.9885C72.478 79.0933 72.4556 79.1968 72.4123 79.2922C72.369 79.3876 72.3057 79.4726 72.2269 79.5415L70.7375 80.8399Z" fill="white" stroke="white" stroke-width="0.7"/>
<path d="M62.266 80.1847L60.5828 78.5L59.543 79.5384L61.7461 81.7415C61.8143 81.8099 61.8954 81.8642 61.9846 81.9012C62.0738 81.9382 62.1694 81.9573 62.266 81.9573C62.3626 81.9573 62.4583 81.9382 62.5475 81.9012C62.6367 81.8642 62.7178 81.8099 62.786 81.7415L67.1922 77.3353L66.1523 76.2969L62.266 80.1847Z" fill="white" stroke="white" stroke-width="0.7"/>
<path d="M93.1564 76.1537C93.6122 75.1927 93.8471 74.1418 93.8438 73.0781C93.8438 71.1304 93.0701 69.2625 91.6929 67.8853C90.3156 66.5081 88.4477 65.7344 86.5 65.7344C84.5524 65.7344 82.6844 66.5081 81.3072 67.8853C79.93 69.2625 79.1563 71.1304 79.1563 73.0781C79.153 74.1418 79.3878 75.1927 79.8437 76.1537L81.1655 75.5251C80.8051 74.7599 80.6204 73.9239 80.625 73.0781C80.625 71.52 81.244 70.0256 82.3458 68.9239C83.4476 67.8221 84.9419 67.2031 86.5 67.2031C88.0582 67.2031 89.5525 67.8221 90.6543 68.9239C91.7561 70.0256 92.375 71.52 92.375 73.0781C92.3778 73.9243 92.1911 74.7604 91.8287 75.5251L93.1564 76.1537Z" fill="white" stroke="white" stroke-width="0.7"/>
<path d="M93.8438 87.7656H90.1719V83.3594C90.9509 83.3594 91.6981 83.0499 92.249 82.499C92.7999 81.9481 93.1094 81.2009 93.1094 80.4219C93.1094 79.6428 92.7999 78.8956 92.249 78.3447C91.6981 77.7939 90.9509 77.4844 90.1719 77.4844H82.8281C82.0491 77.4844 81.3019 77.7939 80.751 78.3447C80.2001 78.8956 79.8906 79.6428 79.8906 80.4219C79.8906 81.2009 80.2001 81.9481 80.751 82.499C81.3019 83.0499 82.0491 83.3594 82.8281 83.3594V87.7656H79.1562C78.5719 87.7656 78.0116 87.9977 77.5984 88.4109C77.1852 88.8241 76.9531 89.3844 76.9531 89.9688V90.7031H76.2188C75.6344 90.7031 75.0741 90.9352 74.6609 91.3484C74.2477 91.7616 74.0156 92.3219 74.0156 92.9062V95.8438C74.0175 96.2978 74.1596 96.7402 74.4225 97.1103C74.6854 97.4805 75.0563 97.7604 75.4844 97.9118V98.7812C75.4844 99.3656 75.7165 99.9259 76.1297 100.339C76.5428 100.752 77.1032 100.984 77.6875 100.984H95.3125C95.8968 100.984 96.4572 100.752 96.8703 100.339C97.2835 99.9259 97.5156 99.3656 97.5156 98.7812V97.9118C97.9437 97.7604 98.3146 97.4805 98.5775 97.1103C98.8404 96.7402 98.9825 96.2978 98.9844 95.8438V92.9062C98.9844 92.3219 98.7523 91.7616 98.3391 91.3484C97.9259 90.9352 97.3656 90.7031 96.7812 90.7031H96.0469V89.9688C96.0469 89.3844 95.8148 88.8241 95.4016 88.4109C94.9884 87.9977 94.4281 87.7656 93.8438 87.7656ZM81.3594 80.4219C81.3594 80.0323 81.5141 79.6588 81.7896 79.3833C82.065 79.1079 82.4386 78.9531 82.8281 78.9531H90.1719C90.5614 78.9531 90.935 79.1079 91.2104 79.3833C91.4859 79.6588 91.6406 80.0323 91.6406 80.4219C91.6406 80.8114 91.4859 81.185 91.2104 81.4604C90.935 81.7359 90.5614 81.8906 90.1719 81.8906H82.8281C82.4386 81.8906 82.065 81.7359 81.7896 81.4604C81.5141 81.185 81.3594 80.8114 81.3594 80.4219ZM84.2969 83.3594H88.7031V87.7656H84.2969V83.3594ZM78.4219 89.9688C78.4219 89.774 78.4992 89.5872 78.637 89.4495C78.7747 89.3117 78.9615 89.2344 79.1562 89.2344H93.8438C94.0385 89.2344 94.2253 89.3117 94.363 89.4495C94.5008 89.5872 94.5781 89.774 94.5781 89.9688V90.7031H78.4219V89.9688ZM96.0469 98.7812C96.0469 98.976 95.9695 99.1628 95.8318 99.3005C95.6941 99.4383 95.5073 99.5156 95.3125 99.5156H77.6875C77.4927 99.5156 77.3059 99.4383 77.1682 99.3005C77.0305 99.1628 76.9531 98.976 76.9531 98.7812V98.0469H96.0469V98.7812ZM97.5156 92.9062V95.8438C97.5156 96.0385 97.4383 96.2253 97.3005 96.363C97.1628 96.5008 96.976 96.5781 96.7812 96.5781H76.2188C76.024 96.5781 75.8372 96.5008 75.6995 96.363C75.5617 96.2253 75.4844 96.0385 75.4844 95.8438V92.9062C75.4844 92.7115 75.5617 92.5247 75.6995 92.387C75.8372 92.2492 76.024 92.1719 76.2188 92.1719H96.7812C96.976 92.1719 97.1628 92.2492 97.3005 92.387C97.4383 92.5247 97.5156 92.7115 97.5156 92.9062Z" fill="white" stroke="white" stroke-width="0.7"/>
<rect x="14" width="97.7586" height="23.7249" rx="4" fill="#81319B"/>
<path d="M23.2189 7.69928C23.5869 7.66728 23.9589 7.64328 24.3349 7.62728C24.7109 7.60328 25.0909 7.59128 25.4749 7.59128C25.8749 7.59128 26.2789 7.63128 26.6869 7.71128C27.1029 7.79128 27.4749 7.94328 27.8029 8.16728C28.1389 8.38328 28.4109 8.68728 28.6189 9.07928C28.8269 9.47128 28.9309 9.97928 28.9309 10.6033C28.9309 11.2273 28.8269 11.7353 28.6189 12.1273C28.4109 12.5113 28.1429 12.8153 27.8149 13.0393C27.4869 13.2633 27.1189 13.4153 26.7109 13.4953C26.3109 13.5753 25.9149 13.6153 25.5229 13.6153C25.4189 13.6153 25.3189 13.6153 25.2229 13.6153C25.1349 13.6073 25.0509 13.5993 24.9709 13.5913V16.3633C24.8189 16.3873 24.6709 16.4033 24.5269 16.4113C24.3829 16.4193 24.2429 16.4233 24.1069 16.4233C23.9789 16.4233 23.8389 16.4193 23.6869 16.4113C23.5349 16.4033 23.3789 16.3873 23.2189 16.3633V7.69928ZM24.9709 12.1393C25.0669 12.1553 25.1549 12.1633 25.2349 12.1633C25.3229 12.1633 25.4269 12.1633 25.5469 12.1633C25.7469 12.1633 25.9429 12.1393 26.1349 12.0913C26.3269 12.0353 26.4949 11.9473 26.6389 11.8273C26.7909 11.7073 26.9109 11.5513 26.9989 11.3593C27.0869 11.1593 27.1309 10.9153 27.1309 10.6273C27.1309 10.3313 27.0869 10.0833 26.9989 9.88328C26.9109 9.67528 26.7909 9.51128 26.6389 9.39128C26.4949 9.26328 26.3269 9.17528 26.1349 9.12728C25.9429 9.07128 25.7469 9.04328 25.5469 9.04328C25.4589 9.04328 25.3749 9.04728 25.2949 9.05528C25.2229 9.05528 25.1149 9.06328 24.9709 9.07928V12.1393ZM30.215 10.1593C30.335 10.1353 30.447 10.1193 30.551 10.1113C30.663 10.0953 30.783 10.0873 30.911 10.0873C31.031 10.0873 31.147 10.0953 31.259 10.1113C31.379 10.1273 31.495 10.1473 31.607 10.1713C31.631 10.2113 31.651 10.2713 31.667 10.3513C31.691 10.4233 31.711 10.5033 31.727 10.5913C31.743 10.6713 31.755 10.7553 31.763 10.8433C31.779 10.9233 31.791 10.9913 31.799 11.0473C31.975 10.7993 32.191 10.5793 32.447 10.3873C32.703 10.1873 33.023 10.0873 33.407 10.0873C33.487 10.0873 33.579 10.0913 33.683 10.0993C33.787 10.1073 33.863 10.1193 33.911 10.1353C33.927 10.2153 33.939 10.3073 33.947 10.4113C33.955 10.5153 33.959 10.6233 33.959 10.7353C33.959 10.8713 33.951 11.0193 33.935 11.1793C33.927 11.3393 33.907 11.4913 33.875 11.6353C33.787 11.6193 33.687 11.6113 33.575 11.6113C33.471 11.6113 33.407 11.6113 33.383 11.6113C33.247 11.6113 33.095 11.6273 32.927 11.6593C32.759 11.6833 32.599 11.7553 32.447 11.8753C32.295 11.9953 32.167 12.1753 32.063 12.4153C31.967 12.6553 31.919 12.9913 31.919 13.4233V16.3753C31.775 16.3993 31.631 16.4153 31.487 16.4233C31.343 16.4313 31.203 16.4353 31.067 16.4353C30.931 16.4353 30.791 16.4313 30.647 16.4233C30.511 16.4153 30.367 16.3993 30.215 16.3753V10.1593ZM37.4953 16.5073C36.9913 16.5073 36.5513 16.4273 36.1753 16.2673C35.8073 16.0993 35.4993 15.8713 35.2513 15.5833C35.0113 15.2873 34.8273 14.9433 34.6993 14.5513C34.5793 14.1593 34.5193 13.7353 34.5193 13.2793C34.5193 12.8233 34.5793 12.3953 34.6993 11.9953C34.8273 11.5953 35.0113 11.2513 35.2513 10.9633C35.4993 10.6673 35.8073 10.4353 36.1753 10.2673C36.5513 10.0993 36.9913 10.0153 37.4953 10.0153C37.9993 10.0153 38.4393 10.0993 38.8153 10.2673C39.1913 10.4353 39.5033 10.6673 39.7513 10.9633C39.9993 11.2513 40.1833 11.5953 40.3033 11.9953C40.4233 12.3953 40.4833 12.8233 40.4833 13.2793C40.4833 13.7353 40.4233 14.1593 40.3033 14.5513C40.1833 14.9433 39.9993 15.2873 39.7513 15.5833C39.5033 15.8713 39.1913 16.0993 38.8153 16.2673C38.4393 16.4273 37.9993 16.5073 37.4953 16.5073ZM37.4953 15.2113C37.9433 15.2113 38.2633 15.0473 38.4553 14.7193C38.6553 14.3833 38.7553 13.9033 38.7553 13.2793C38.7553 12.6553 38.6553 12.1793 38.4553 11.8513C38.2633 11.5153 37.9433 11.3473 37.4953 11.3473C37.0553 11.3473 36.7353 11.5153 36.5353 11.8513C36.3433 12.1793 36.2473 12.6553 36.2473 13.2793C36.2473 13.9033 36.3433 14.3833 36.5353 14.7193C36.7353 15.0473 37.0553 15.2113 37.4953 15.2113ZM37.6153 7.73528C37.9353 7.68728 38.2953 7.66328 38.6953 7.66328C38.9033 7.66328 39.0793 7.67128 39.2233 7.68728C39.3753 7.69528 39.5313 7.71128 39.6913 7.73528L37.8793 9.21128C37.7753 9.22728 37.6513 9.24328 37.5073 9.25928C37.3633 9.27528 37.2113 9.28328 37.0513 9.28328C36.7953 9.28328 36.5353 9.25928 36.2713 9.21128L37.6153 7.73528ZM42.4085 13.1593L41.2205 10.1593C41.4845 10.1113 41.7765 10.0873 42.0965 10.0873C42.4005 10.0873 42.7085 10.1113 43.0205 10.1593L43.9685 13.1953L42.7325 16.3633C42.4445 16.4113 42.1605 16.4353 41.8805 16.4353C41.6005 16.4353 41.3045 16.4113 40.9925 16.3633L42.4085 13.1593ZM44.0525 13.1953L45.0125 10.1593C45.3085 10.1113 45.6165 10.0873 45.9365 10.0873C46.2325 10.0873 46.5245 10.1113 46.8125 10.1593L45.6125 13.1593L47.0405 16.3633C46.7285 16.4113 46.4325 16.4353 46.1525 16.4353C45.8725 16.4353 45.5885 16.4113 45.3005 16.3633L44.0525 13.1953ZM48.3987 11.4553H47.5947C47.5707 11.3513 47.5507 11.2433 47.5347 11.1313C47.5267 11.0113 47.5227 10.8993 47.5227 10.7953C47.5227 10.5793 47.5467 10.3673 47.5947 10.1593H50.0667V16.3633C49.7787 16.4113 49.4987 16.4353 49.2267 16.4353C48.9627 16.4353 48.6867 16.4113 48.3987 16.3633V11.4553ZM48.1467 9.11528C48.0987 8.84328 48.0747 8.57528 48.0747 8.31128C48.0747 8.05528 48.0987 7.78728 48.1467 7.50728C48.2827 7.48328 48.4267 7.46728 48.5787 7.45928C48.7387 7.44328 48.8827 7.43528 49.0107 7.43528C49.1467 7.43528 49.2947 7.44328 49.4547 7.45928C49.6147 7.46728 49.7627 7.48328 49.8987 7.50728C49.9227 7.64328 49.9387 7.77928 49.9467 7.91528C49.9547 8.04328 49.9587 8.17528 49.9587 8.31128C49.9587 8.43928 49.9547 8.57128 49.9467 8.70728C49.9387 8.84328 49.9227 8.97928 49.8987 9.11528C49.7627 9.13928 49.6147 9.15528 49.4547 9.16328C49.3027 9.17128 49.1587 9.17528 49.0227 9.17528C48.8947 9.17528 48.7507 9.17128 48.5907 9.16328C48.4307 9.15528 48.2827 9.13928 48.1467 9.11528ZM51.7423 10.1593C51.8543 10.1353 51.9663 10.1193 52.0783 10.1113C52.1903 10.0953 52.3143 10.0873 52.4503 10.0873C52.5863 10.0873 52.7063 10.0953 52.8103 10.1113C52.9143 10.1193 53.0223 10.1353 53.1343 10.1593C53.1583 10.1993 53.1783 10.2593 53.1943 10.3393C53.2183 10.4113 53.2383 10.4913 53.2543 10.5793C53.2703 10.6593 53.2823 10.7393 53.2903 10.8193C53.3063 10.8993 53.3183 10.9673 53.3263 11.0233C53.3903 10.9033 53.4743 10.7833 53.5783 10.6633C53.6823 10.5433 53.8063 10.4353 53.9503 10.3393C54.0943 10.2433 54.2543 10.1673 54.4303 10.1113C54.6143 10.0473 54.8183 10.0153 55.0423 10.0153C56.0103 10.0153 56.6303 10.3833 56.9023 11.1193C57.0623 10.8233 57.2863 10.5673 57.5743 10.3513C57.8703 10.1273 58.2423 10.0153 58.6903 10.0153C59.3943 10.0153 59.9103 10.2113 60.2383 10.6033C60.5743 10.9873 60.7423 11.5913 60.7423 12.4153V16.3633C60.4543 16.4113 60.1703 16.4353 59.8903 16.4353C59.6103 16.4353 59.3263 16.4113 59.0383 16.3633V12.8593C59.0383 12.4273 58.9823 12.0953 58.8703 11.8633C58.7663 11.6313 58.5503 11.5153 58.2223 11.5153C58.0863 11.5153 57.9503 11.5353 57.8143 11.5753C57.6863 11.6153 57.5663 11.6913 57.4543 11.8033C57.3503 11.9073 57.2623 12.0593 57.1903 12.2593C57.1263 12.4513 57.0943 12.7033 57.0943 13.0153V16.3633C56.8063 16.4113 56.5223 16.4353 56.2423 16.4353C55.9623 16.4353 55.6783 16.4113 55.3903 16.3633V12.8593C55.3903 12.4273 55.3343 12.0953 55.2223 11.8633C55.1183 11.6313 54.9023 11.5153 54.5743 11.5153C54.4383 11.5153 54.3023 11.5353 54.1663 11.5753C54.0303 11.6153 53.9063 11.6953 53.7943 11.8153C53.6903 11.9273 53.6063 12.0873 53.5423 12.2953C53.4783 12.5033 53.4463 12.7753 53.4463 13.1113V16.3633C53.1583 16.4113 52.8743 16.4353 52.5943 16.4353C52.3143 16.4353 52.0303 16.4113 51.7423 16.3633V10.1593ZM65.3852 13.5193C65.2892 13.5033 65.1852 13.4913 65.0732 13.4833C64.9612 13.4673 64.8612 13.4593 64.7732 13.4593C64.3812 13.4593 64.0692 13.5313 63.8372 13.6753C63.6132 13.8113 63.5012 14.0353 63.5012 14.3473C63.5012 14.5553 63.5452 14.7153 63.6332 14.8273C63.7212 14.9393 63.8252 15.0233 63.9452 15.0793C64.0732 15.1273 64.2052 15.1593 64.3412 15.1753C64.4852 15.1833 64.6092 15.1873 64.7132 15.1873C64.8332 15.1873 64.9532 15.1793 65.0732 15.1633C65.1932 15.1393 65.2972 15.1193 65.3852 15.1033V13.5193ZM65.3852 12.2833C65.3852 12.0913 65.3532 11.9353 65.2892 11.8153C65.2252 11.6953 65.1372 11.6033 65.0252 11.5393C64.9132 11.4673 64.7732 11.4193 64.6052 11.3953C64.4452 11.3713 64.2652 11.3593 64.0652 11.3593C63.6332 11.3593 63.1732 11.4433 62.6852 11.6113C62.5732 11.4033 62.4892 11.2073 62.4332 11.0233C62.3772 10.8393 62.3492 10.6193 62.3492 10.3633C62.7012 10.2433 63.0532 10.1553 63.4052 10.0993C63.7572 10.0433 64.0852 10.0153 64.3892 10.0153C65.2212 10.0153 65.8692 10.2153 66.3332 10.6153C66.8052 11.0153 67.0412 11.6553 67.0412 12.5353V16.1353C66.7612 16.2233 66.4212 16.3073 66.0212 16.3873C65.6212 16.4673 65.1692 16.5073 64.6652 16.5073C64.2572 16.5073 63.8812 16.4713 63.5372 16.3993C63.2012 16.3273 62.9092 16.2073 62.6612 16.0393C62.4212 15.8713 62.2332 15.6553 62.0972 15.3913C61.9692 15.1273 61.9052 14.8033 61.9052 14.4193C61.9052 14.0353 61.9852 13.7153 62.1452 13.4593C62.3132 13.1953 62.5252 12.9873 62.7812 12.8353C63.0452 12.6753 63.3372 12.5633 63.6572 12.4993C63.9772 12.4273 64.2972 12.3913 64.6172 12.3913C64.8492 12.3913 65.1052 12.4033 65.3852 12.4273V12.2833ZM68.5588 10.1593C68.6708 10.1353 68.7828 10.1193 68.8948 10.1113C69.0068 10.0953 69.1308 10.0873 69.2668 10.0873C69.4028 10.0873 69.5228 10.0953 69.6268 10.1113C69.7308 10.1193 69.8388 10.1353 69.9508 10.1593C69.9748 10.1993 69.9948 10.2593 70.0108 10.3393C70.0348 10.4113 70.0548 10.4913 70.0708 10.5793C70.0868 10.6593 70.0988 10.7393 70.1068 10.8193C70.1228 10.8993 70.1348 10.9673 70.1428 11.0233C70.2068 10.9033 70.2908 10.7833 70.3948 10.6633C70.4988 10.5433 70.6228 10.4353 70.7668 10.3393C70.9108 10.2433 71.0708 10.1673 71.2467 10.1113C71.4308 10.0473 71.6348 10.0153 71.8588 10.0153C72.8268 10.0153 73.4468 10.3833 73.7188 11.1193C73.8788 10.8233 74.1028 10.5673 74.3908 10.3513C74.6868 10.1273 75.0588 10.0153 75.5068 10.0153C76.2108 10.0153 76.7268 10.2113 77.0548 10.6033C77.3908 10.9873 77.5588 11.5913 77.5588 12.4153V16.3633C77.2708 16.4113 76.9868 16.4353 76.7068 16.4353C76.4268 16.4353 76.1428 16.4113 75.8548 16.3633V12.8593C75.8548 12.4273 75.7988 12.0953 75.6868 11.8633C75.5828 11.6313 75.3668 11.5153 75.0388 11.5153C74.9028 11.5153 74.7668 11.5353 74.6308 11.5753C74.5028 11.6153 74.3828 11.6913 74.2708 11.8033C74.1668 11.9073 74.0788 12.0593 74.0068 12.2593C73.9428 12.4513 73.9108 12.7033 73.9108 13.0153V16.3633C73.6228 16.4113 73.3388 16.4353 73.0588 16.4353C72.7788 16.4353 72.4948 16.4113 72.2068 16.3633V12.8593C72.2068 12.4273 72.1508 12.0953 72.0388 11.8633C71.9348 11.6313 71.7188 11.5153 71.3908 11.5153C71.2548 11.5153 71.1188 11.5353 70.9828 11.5753C70.8468 11.6153 70.7228 11.6953 70.6108 11.8153C70.5068 11.9273 70.4228 12.0873 70.3588 12.2953C70.2948 12.5033 70.2628 12.7753 70.2628 13.1113V16.3633C69.9748 16.4113 69.6908 16.4353 69.4108 16.4353C69.1308 16.4353 68.8468 16.4113 68.5588 16.3633V10.1593ZM80.4616 13.7833C80.4936 14.2633 80.6616 14.6113 80.9656 14.8273C81.2696 15.0433 81.6696 15.1513 82.1656 15.1513C82.4376 15.1513 82.7136 15.1273 82.9936 15.0793C83.2816 15.0233 83.5536 14.9473 83.8096 14.8513C83.8976 15.0113 83.9736 15.2033 84.0376 15.4273C84.1016 15.6513 84.1376 15.8913 84.1456 16.1473C83.5216 16.3873 82.8176 16.5073 82.0336 16.5073C81.4576 16.5073 80.9616 16.4273 80.5456 16.2673C80.1376 16.1073 79.8016 15.8873 79.5376 15.6073C79.2816 15.3193 79.0896 14.9793 78.9616 14.5873C78.8416 14.1953 78.7816 13.7673 78.7816 13.3033C78.7816 12.8473 78.8456 12.4193 78.9736 12.0193C79.1016 11.6193 79.2896 11.2713 79.5376 10.9753C79.7936 10.6793 80.1056 10.4473 80.4736 10.2793C80.8496 10.1033 81.2856 10.0153 81.7816 10.0153C82.2136 10.0153 82.5976 10.0913 82.9336 10.2433C83.2696 10.3953 83.5536 10.6033 83.7856 10.8673C84.0256 11.1313 84.2056 11.4473 84.3256 11.8153C84.4456 12.1753 84.5056 12.5633 84.5056 12.9793C84.5056 13.1313 84.4976 13.2833 84.4816 13.4353C84.4736 13.5793 84.4616 13.6953 84.4456 13.7833H80.4616ZM82.8976 12.5953C82.8816 12.2113 82.7736 11.9033 82.5736 11.6713C82.3816 11.4313 82.1096 11.3113 81.7576 11.3113C81.3576 11.3113 81.0536 11.4233 80.8456 11.6473C80.6376 11.8713 80.5136 12.1873 80.4736 12.5953H82.8976ZM85.8439 10.1593C85.9559 10.1353 86.0679 10.1193 86.1799 10.1113C86.2919 10.0953 86.4159 10.0873 86.5519 10.0873C86.6879 10.0873 86.8079 10.0953 86.9119 10.1113C87.0159 10.1193 87.1239 10.1353 87.2359 10.1593C87.2599 10.1993 87.2799 10.2593 87.2959 10.3393C87.3199 10.4113 87.3399 10.4913 87.3559 10.5793C87.3719 10.6593 87.3839 10.7393 87.3919 10.8193C87.4079 10.8993 87.4199 10.9673 87.4279 11.0233C87.5079 10.9033 87.6039 10.7833 87.7159 10.6633C87.8279 10.5433 87.9559 10.4353 88.0999 10.3393C88.2519 10.2433 88.4199 10.1673 88.6039 10.1113C88.7879 10.0473 88.9919 10.0153 89.2159 10.0153C89.9199 10.0153 90.4479 10.2073 90.7999 10.5913C91.1599 10.9753 91.3399 11.5793 91.3399 12.4033V16.3633C91.0519 16.4113 90.7679 16.4353 90.4879 16.4353C90.2079 16.4353 89.9239 16.4113 89.6359 16.3633V12.8593C89.6359 12.4273 89.5679 12.0953 89.4319 11.8633C89.3039 11.6313 89.0759 11.5153 88.7479 11.5153C88.6119 11.5153 88.4719 11.5353 88.3279 11.5753C88.1839 11.6153 88.0519 11.6953 87.9319 11.8153C87.8199 11.9273 87.7279 12.0873 87.6559 12.2953C87.5839 12.5033 87.5479 12.7753 87.5479 13.1113V16.3633C87.2599 16.4113 86.9759 16.4353 86.6959 16.4353C86.4159 16.4353 86.1319 16.4113 85.8439 16.3633V10.1593ZM93.0549 11.4553H92.2749L92.2149 11.2153L94.4589 8.34728H94.7349V10.1593H96.1869C96.2109 10.2793 96.2269 10.3873 96.2349 10.4833C96.2429 10.5793 96.2469 10.6793 96.2469 10.7833C96.2469 10.8953 96.2429 11.0033 96.2349 11.1073C96.2269 11.2113 96.2109 11.3273 96.1869 11.4553H94.7349V13.8913C94.7349 14.1393 94.7549 14.3393 94.7949 14.4913C94.8349 14.6433 94.8909 14.7633 94.9629 14.8513C95.0429 14.9393 95.1389 14.9993 95.2509 15.0313C95.3629 15.0633 95.4949 15.0793 95.6469 15.0793C95.7669 15.0793 95.8829 15.0713 95.9949 15.0553C96.1149 15.0313 96.2189 15.0113 96.3069 14.9953C96.3629 15.1473 96.4029 15.3073 96.4269 15.4753C96.4509 15.6353 96.4629 15.7793 96.4629 15.9073C96.4629 15.9953 96.4589 16.0713 96.4509 16.1353C96.4509 16.1913 96.4469 16.2473 96.4389 16.3033C96.0709 16.3913 95.6909 16.4353 95.2989 16.4353C94.5709 16.4353 94.0149 16.2673 93.6309 15.9313C93.2469 15.5873 93.0549 15.0313 93.0549 14.2633V11.4553ZM98.8366 13.7833C98.8686 14.2633 99.0366 14.6113 99.3406 14.8273C99.6446 15.0433 100.045 15.1513 100.541 15.1513C100.813 15.1513 101.089 15.1273 101.369 15.0793C101.657 15.0233 101.929 14.9473 102.185 14.8513C102.273 15.0113 102.349 15.2033 102.413 15.4273C102.477 15.6513 102.513 15.8913 102.521 16.1473C101.897 16.3873 101.193 16.5073 100.409 16.5073C99.8326 16.5073 99.3366 16.4273 98.9206 16.2673C98.5126 16.1073 98.1766 15.8873 97.9126 15.6073C97.6566 15.3193 97.4646 14.9793 97.3366 14.5873C97.2166 14.1953 97.1566 13.7673 97.1566 13.3033C97.1566 12.8473 97.2206 12.4193 97.3486 12.0193C97.4766 11.6193 97.6646 11.2713 97.9126 10.9753C98.1686 10.6793 98.4806 10.4473 98.8486 10.2793C99.2246 10.1033 99.6606 10.0153 100.157 10.0153C100.589 10.0153 100.973 10.0913 101.309 10.2433C101.645 10.3953 101.929 10.6033 102.161 10.8673C102.401 11.1313 102.581 11.4473 102.701 11.8153C102.821 12.1753 102.881 12.5633 102.881 12.9793C102.881 13.1313 102.873 13.2833 102.857 13.4353C102.849 13.5793 102.837 13.6953 102.821 13.7833H98.8366ZM101.273 12.5953C101.257 12.2113 101.149 11.9033 100.949 11.6713C100.757 11.4313 100.485 11.3113 100.133 11.3113C99.7326 11.3113 99.4286 11.4233 99.2206 11.6473C99.0126 11.8713 98.8886 12.1873 98.8486 12.5953H101.273Z" fill="white"/>
<defs>
<linearGradient id="paint0_linear_4011_17586" x1="63" y1="11" x2="63" y2="119" gradientUnits="userSpaceOnUse">
<stop stop-color="#1280C3"/>
<stop offset="1" stop-color="#00AB9E"/>
</linearGradient>
</defs>
</svg>
