<svg width="29" height="28" viewBox="0 0 29 28" fill="none" xmlns="http://www.w3.org/2000/svg">
<path fill-rule="evenodd" clip-rule="evenodd" d="M14.5 27.5C22.5081 27.5 29 21.4558 29 14C29 6.54416 22.5081 0.5 14.5 0.5C6.49187 0.5 0 6.54416 0 14C0 21.4558 6.49187 27.5 14.5 27.5ZM6.76693 6.80252H22.2336C23.2969 6.80252 24.1669 7.61252 24.1669 8.60252V19.4025C24.1669 20.3925 23.2969 21.2025 22.2336 21.2025H6.76693C5.70359 21.2025 4.83359 20.3925 4.83359 19.4025L4.84326 8.60252C4.84326 7.61252 5.70359 6.80252 6.76693 6.80252ZM14.5003 14.9025L22.2336 10.4025V8.60252L14.5003 13.1025L6.76693 8.60252V10.4025L14.5003 14.9025Z" fill="url(#paint0_linear_4011_17831)"/>
<defs>
<linearGradient id="paint0_linear_4011_17831" x1="14.5" y1="0.5" x2="14.5" y2="27.5" gradientUnits="userSpaceOnUse">
<stop stop-color="#1280C3"/>
<stop offset="1" stop-color="#00AB9E"/>
</linearGradient>
</defs>
</svg>
