<svg width="126" height="121" viewBox="0 0 126 121" fill="none" xmlns="http://www.w3.org/2000/svg">
<rect x="0.5" y="13" width="125" height="108" rx="30" fill="url(#paint0_linear_6298_17113)"/>
<path d="M68.2677 69.9939V65.0046C68.2677 64.1387 67.5109 63.439 66.5801 63.4375H38.1525C37.22 63.4375 36.4648 64.1402 36.4648 65.0046V69.9939C36.4648 70.8597 37.2217 71.5594 38.1525 71.561H66.5801C67.5126 71.561 68.2661 70.8582 68.2677 69.9939ZM66.2977 69.7317H38.4349V65.2652H66.2994V69.7317H66.2977Z" fill="white" stroke="white" stroke-width="0.5"/>
<path d="M40.771 74.9219C38.8306 74.9219 37.2578 76.3822 37.2578 78.1841C37.2578 79.9859 38.8306 81.4463 40.771 81.4463C42.7115 81.4463 44.2843 79.9859 44.2843 78.1841C44.2826 76.3838 42.7099 74.9234 40.771 74.9219ZM40.771 79.6185C39.919 79.6185 39.2278 78.9767 39.2278 78.1856C39.2278 77.3944 39.919 76.7527 40.771 76.7527C41.6231 76.7527 42.3142 77.3944 42.3142 78.1856C42.3142 78.9767 41.6231 79.617 40.771 79.6185Z" fill="white" stroke="white" stroke-width="0.5"/>
<path d="M40.771 83.1328C38.8306 83.1328 37.2578 84.5932 37.2578 86.395C37.2578 88.1968 38.8306 89.6572 40.771 89.6572C42.7115 89.6572 44.2843 88.1968 44.2843 86.395C44.2826 84.5947 42.7099 83.1343 40.771 83.1328ZM40.771 87.8279C39.919 87.8279 39.2278 87.1862 39.2278 86.395C39.2278 85.6038 39.919 84.9621 40.771 84.9621C41.6231 84.9621 42.3142 85.6038 42.3142 86.395C42.3142 87.1862 41.6231 87.8279 40.771 87.8279Z" fill="white" stroke="white" stroke-width="0.5"/>
<path d="M40.771 91.3594C38.8306 91.3594 37.2578 92.8197 37.2578 94.6216C37.2578 96.4234 38.8306 97.8837 40.771 97.8837C42.7115 97.8837 44.2843 96.4234 44.2843 94.6216C44.2826 92.8213 42.7099 91.3609 40.771 91.3594ZM40.771 96.0545C39.919 96.0545 39.2278 95.4127 39.2278 94.6216C39.2278 93.8304 39.919 93.1886 40.771 93.1886C41.6231 93.1886 42.3142 93.8304 42.3142 94.6216C42.3142 95.4127 41.6231 96.0545 40.771 96.0545Z" fill="white" stroke="white" stroke-width="0.5"/>
<path d="M52.3726 74.9219C50.4321 74.9219 48.8594 76.3822 48.8594 78.1841C48.8594 79.9859 50.4321 81.4463 52.3726 81.4463C54.3131 81.4463 55.8858 79.9859 55.8858 78.1841C55.8842 76.3838 54.3114 74.9234 52.3726 74.9219ZM52.3726 79.6185C51.5206 79.6185 50.8294 78.9767 50.8294 78.1856C50.8294 77.3944 51.5206 76.7527 52.3726 76.7527C53.2246 76.7527 53.9158 77.3944 53.9158 78.1856C53.9158 78.9767 53.2246 79.617 52.3726 79.6185Z" fill="white" stroke="white" stroke-width="0.5"/>
<path d="M52.3726 83.1328C50.4321 83.1328 48.8594 84.5932 48.8594 86.395C48.8594 88.1968 50.4321 89.6572 52.3726 89.6572C54.3131 89.6572 55.8858 88.1968 55.8858 86.395C55.8842 84.5947 54.3114 83.1343 52.3726 83.1328ZM52.3726 87.8279C51.5206 87.8279 50.8294 87.1862 50.8294 86.395C50.8294 85.6038 51.5206 84.9621 52.3726 84.9621C53.2246 84.9621 53.9158 85.6038 53.9158 86.395C53.9158 87.1862 53.2246 87.8279 52.3726 87.8279Z" fill="white" stroke="white" stroke-width="0.5"/>
<path d="M52.3726 91.3594C50.4321 91.3594 48.8594 92.8197 48.8594 94.6216C48.8594 96.4234 50.4321 97.8837 52.3726 97.8837C54.3131 97.8837 55.8858 96.4234 55.8858 94.6216C55.8842 92.8213 54.3114 91.3609 52.3726 91.3594ZM52.3726 96.0545C51.5206 96.0545 50.8294 95.4127 50.8294 94.6216C50.8294 93.8304 51.5206 93.1886 52.3726 93.1886C53.2246 93.1886 53.9158 93.8304 53.9158 94.6216C53.9158 95.4127 53.2246 96.0545 52.3726 96.0545Z" fill="white" stroke="white" stroke-width="0.5"/>
<path d="M63.9742 74.9219C62.0337 74.9219 60.4609 76.3822 60.4609 78.1841C60.4609 79.9859 62.0337 81.4463 63.9742 81.4463C65.9146 81.4463 67.4874 79.9859 67.4874 78.1841C67.4857 76.3838 65.913 74.9234 63.9742 74.9219ZM63.9742 79.6185C63.1221 79.6185 62.431 78.9767 62.431 78.1856C62.431 77.3944 63.1221 76.7527 63.9742 76.7527C64.8262 76.7527 65.5174 77.3944 65.5174 78.1856C65.5174 78.9767 64.8262 79.617 63.9742 79.6185Z" fill="white" stroke="white" stroke-width="0.5"/>
<path d="M63.9742 83.1328C62.0337 83.1328 60.4609 84.5932 60.4609 86.395C60.4609 88.1968 62.0337 89.6572 63.9742 89.6572C65.9146 89.6572 67.4874 88.1968 67.4874 86.395C67.4857 84.5947 65.913 83.1343 63.9742 83.1328ZM63.9742 87.8279C63.1221 87.8279 62.431 87.1862 62.431 86.395C62.431 85.6038 63.1221 84.9621 63.9742 84.9621C64.8262 84.9621 65.5174 85.6038 65.5174 86.395C65.5174 87.1862 64.8262 87.8279 63.9742 87.8279Z" fill="white" stroke="white" stroke-width="0.5"/>
<path d="M63.9742 91.3594C62.0337 91.3594 60.4609 92.8197 60.4609 94.6216C60.4609 96.4234 62.0337 97.8837 63.9742 97.8837C65.9146 97.8837 67.4874 96.4234 67.4874 94.6216C67.4857 92.8213 65.913 91.3609 63.9742 91.3594ZM63.9742 96.0545C63.1221 96.0545 62.431 95.4127 62.431 94.6216C62.431 93.8304 63.1221 93.1886 63.9742 93.1886C64.8262 93.1886 65.5174 93.8304 65.5174 94.6216C65.5174 95.4127 64.8262 96.0545 63.9742 96.0545Z" fill="white" stroke="white" stroke-width="0.5"/>
<path d="M58.0475 37.3879H59.3937C59.9371 37.3879 60.3787 36.9778 60.3787 36.4732C60.3787 35.9687 59.9371 35.5586 59.3937 35.5586H58.0475C57.5041 35.5586 57.0625 35.9687 57.0625 36.4732C57.0625 36.9778 57.5041 37.3879 58.0475 37.3879Z" fill="white" stroke="white" stroke-width="0.5"/>
<path d="M43.9062 36.4732C43.9062 36.9778 44.3479 37.3879 44.8913 37.3879H53.868C54.4114 37.3879 54.8531 36.9778 54.8531 36.4732C54.8531 35.9687 54.4114 35.5586 53.868 35.5586H44.8913C44.3479 35.5586 43.9062 35.9687 43.9062 36.4732Z" fill="white" stroke="white" stroke-width="0.5"/>
<path d="M58.0475 42.2863H59.3937C59.9371 42.2863 60.3787 41.8762 60.3787 41.3717C60.3787 40.8671 59.9371 40.457 59.3937 40.457H58.0475C57.5041 40.457 57.0625 40.8671 57.0625 41.3717C57.0625 41.8762 57.5041 42.2863 58.0475 42.2863Z" fill="white" stroke="white" stroke-width="0.5"/>
<path d="M53.868 40.457H44.8913C44.3479 40.457 43.9062 40.8671 43.9062 41.3717C43.9062 41.8762 44.3479 42.2863 44.8913 42.2863H53.868C54.4114 42.2863 54.8531 41.8762 54.8531 41.3717C54.8531 40.8671 54.4114 40.457 53.868 40.457Z" fill="white" stroke="white" stroke-width="0.5"/>
<path d="M58.0475 47.1886H59.3937C59.9371 47.1886 60.3787 46.7786 60.3787 46.274C60.3787 45.7694 59.9371 45.3594 59.3937 45.3594H58.0475C57.5041 45.3594 57.0625 45.7694 57.0625 46.274C57.0625 46.7786 57.5041 47.1886 58.0475 47.1886Z" fill="white" stroke="white" stroke-width="0.5"/>
<path d="M53.868 45.3594H44.8913C44.3479 45.3594 43.9062 45.7694 43.9062 46.274C43.9062 46.7786 44.3479 47.1886 44.8913 47.1886H53.868C54.4114 47.1886 54.8531 46.7786 54.8531 46.274C54.8531 45.7694 54.4114 45.3594 53.868 45.3594Z" fill="white" stroke="white" stroke-width="0.5"/>
<path d="M58.0475 52.0832H59.3937C59.9371 52.0832 60.3787 51.6731 60.3787 51.1685C60.3787 50.664 59.9371 50.2539 59.3937 50.2539H58.0475C57.5041 50.2539 57.0625 50.664 57.0625 51.1685C57.0625 51.6731 57.5041 52.0832 58.0475 52.0832Z" fill="white" stroke="white" stroke-width="0.5"/>
<path d="M53.868 50.2539H44.8913C44.3479 50.2539 43.9062 50.664 43.9062 51.1685C43.9062 51.6731 44.3479 52.0832 44.8913 52.0832H53.868C54.4114 52.0832 54.8531 51.6731 54.8531 51.1685C54.8531 50.664 54.4114 50.2539 53.868 50.2539Z" fill="white" stroke="white" stroke-width="0.5"/>
<path d="M58.0475 56.9777H59.3937C59.9371 56.9777 60.3787 56.5676 60.3787 56.0631C60.3787 55.5585 59.9371 55.1484 59.3937 55.1484H58.0475C57.5041 55.1484 57.0625 55.5585 57.0625 56.0631C57.0625 56.5676 57.5041 56.9777 58.0475 56.9777Z" fill="white" stroke="white" stroke-width="0.5"/>
<path d="M53.868 55.1484H44.8913C44.3479 55.1484 43.9062 55.5585 43.9062 56.0631C43.9062 56.5676 44.3479 56.9777 44.8913 56.9777H53.868C54.4114 56.9777 54.8531 56.5676 54.8531 56.0631C54.8531 55.5585 54.4114 55.1484 53.868 55.1484Z" fill="white" stroke="white" stroke-width="0.5"/>
<path d="M81.6056 88.4358C81.5908 90.4114 83.3047 92.0227 85.4324 92.0349C87.56 92.0486 89.2953 90.4572 89.3084 88.4816C89.3084 88.4663 89.3084 88.4495 89.3084 88.4343V81.6706C89.2936 79.695 87.5583 78.1051 85.4324 78.1173C83.3244 78.1295 81.6203 79.7133 81.6056 81.6706V88.4343V88.4358ZM83.5756 81.6721C83.5854 80.7072 84.4358 79.9328 85.475 79.9419C86.5011 79.9511 87.3285 80.7209 87.3384 81.6721V88.4358C87.3482 89.4008 86.5142 90.1904 85.475 90.1995C84.4358 90.2087 83.5854 89.4343 83.5756 88.4694C83.5756 88.4587 83.5756 88.448 83.5756 88.4358V81.6721Z" fill="white" stroke="white" stroke-width="0.5"/>
<path d="M83.567 67.0477C84.1104 67.0477 84.5521 66.6376 84.5521 66.1331V55.9029C84.5521 55.3983 84.1104 54.9883 83.567 54.9883C83.0236 54.9883 82.582 55.3983 82.582 55.9029V66.1331C82.582 66.6376 83.0236 67.0477 83.567 67.0477Z" fill="white" stroke="white" stroke-width="0.5"/>
<path d="M82.582 70.3364C82.582 70.841 83.0236 71.251 83.567 71.251C84.1104 71.251 84.5521 70.841 84.5521 70.3364V69.4889C84.5521 68.9843 84.1104 68.5742 83.567 68.5742C83.0236 68.5742 82.582 68.9843 82.582 69.4889V70.3364Z" fill="white" stroke="white" stroke-width="0.5"/>
<path d="M87.4616 58.0843C88.005 58.0843 88.4466 57.6742 88.4466 57.1697V55.9029C88.4466 55.3983 88.005 54.9883 87.4616 54.9883C86.9182 54.9883 86.4766 55.3983 86.4766 55.9029V57.1697C86.4766 57.6742 86.9182 58.0843 87.4616 58.0843Z" fill="white" stroke="white" stroke-width="0.5"/>
<path d="M86.4766 63.1927C86.4766 63.6973 86.9182 64.1074 87.4616 64.1074C88.005 64.1074 88.4466 63.6973 88.4466 63.1927V60.5982C88.4466 60.0937 88.005 59.6836 87.4616 59.6836C86.9182 59.6836 86.4766 60.0937 86.4766 60.5982V63.1927Z" fill="white" stroke="white" stroke-width="0.5"/>
<path d="M86.4766 70.3357C86.4766 70.8403 86.9182 71.2504 87.4616 71.2504C88.005 71.2504 88.4466 70.8403 88.4466 70.3357V66.5553C88.4466 66.0507 88.005 65.6406 87.4616 65.6406C86.9182 65.6406 86.4766 66.0507 86.4766 66.5553V70.3357Z" fill="white" stroke="white" stroke-width="0.5"/>
<path d="M89.3155 50.8416H78.3195V49.4757C78.3195 48.2501 77.2491 47.2547 75.9275 47.2547H73.2483V46.488C73.2483 44.2822 71.3226 42.4956 68.9487 42.4956H64.2961L64.3027 40.1572C64.9659 40.305 65.6653 40.148 66.1841 39.7364C66.2464 39.6861 66.34 39.6861 66.4024 39.7364L66.409 39.7425C67.2052 40.3691 68.3724 40.3675 69.167 39.741C69.231 39.6907 69.3246 39.6892 69.3903 39.738L70.1094 40.305C70.3474 40.4986 70.6675 40.581 70.9778 40.5246C71.4326 40.4361 71.7576 40.0642 71.7593 39.6343L71.7904 33.9727C71.7987 31.552 69.6956 29.584 67.0886 29.5703H67.0706L44.2904 29.5002H44.2707C43.4121 29.4926 42.5667 29.709 41.8345 30.1252C40.4308 30.9163 39.5722 32.3295 39.5673 33.8538V42.4956H35.8012C33.4257 42.4956 31.5 44.2837 31.5 46.4895V48.9697C31.5 49.4742 31.9416 49.8843 32.485 49.8843C33.0284 49.8843 33.47 49.4742 33.47 48.9697V46.4895C33.47 45.2944 34.5125 44.3264 35.7996 44.3264H39.564V59.0306H37.4987C36.9553 59.023 36.5039 59.4147 36.4727 59.9178C36.4563 60.4224 36.8831 60.8446 37.4265 60.8599C37.4364 60.8599 37.4462 60.8599 37.4577 60.8599H67.2495C67.7929 60.8675 68.2444 60.4757 68.2756 59.9727C68.292 59.4681 67.8652 59.0458 67.3218 59.0306C67.3119 59.0306 67.3021 59.0306 67.2906 59.0306H64.2518L64.2912 44.3264H68.9487C70.2358 44.3264 71.2782 45.2944 71.2782 46.4895V100.508C71.2782 101.703 70.2358 102.671 68.9487 102.671H35.7996C34.5125 102.671 33.47 101.703 33.47 100.508V56.5916C33.47 56.087 33.0284 55.677 32.485 55.677C31.9416 55.677 31.5 56.087 31.5 56.5916V100.508C31.5 102.712 33.4257 104.5 35.7996 104.5H68.9487C71.3242 104.5 73.2483 102.712 73.2483 100.508V99.7409H75.9275C77.2474 99.7409 78.3195 98.747 78.3195 97.5198V96.154H89.3155C92.1786 96.154 94.5 93.9985 94.5 91.34V86.9497C94.5 86.4452 94.0584 86.0351 93.515 86.0351C92.9716 86.0351 92.53 86.4452 92.53 86.9497V91.34C92.53 92.9878 91.0902 94.3247 89.3155 94.3247H78.3195V52.6709H89.3155C91.0902 52.6709 92.53 54.0062 92.53 55.6556V79.3278C92.53 79.8324 92.9716 80.2424 93.515 80.2424C94.0584 80.2424 94.5 79.8324 94.5 79.3278V55.6556C94.5 52.9971 92.1786 50.8416 89.3155 50.8416ZM64.3191 33.9423C64.3273 32.5368 65.5553 31.3996 67.0706 31.3981H67.0821C68.6006 31.4057 69.8253 32.5535 69.8221 33.9636L69.8007 37.9285C69.1309 37.773 68.4217 37.9285 67.898 38.3432C67.8356 38.3935 67.742 38.3935 67.6796 38.3432L67.6731 38.3386C66.8752 37.7105 65.7047 37.7136 64.9101 38.3447C64.8461 38.395 64.7541 38.395 64.6901 38.3447L64.3092 38.0444L64.3207 33.9438L64.3191 33.9423ZM62.3491 33.9362L62.2818 59.0291H41.5324L41.5357 33.8584C41.5422 32.456 42.7719 31.3249 44.2822 31.3295L63.2421 31.3874C62.6626 32.1282 62.3507 33.0215 62.3491 33.9377V33.9362ZM76.3478 97.5198C76.3478 97.7363 76.159 97.9101 75.9259 97.9116H73.2466V49.0855H75.9259C76.159 49.0855 76.3461 49.2608 76.3478 49.4773V97.5214V97.5198Z" fill="white" stroke="white" stroke-width="0.5"/>
<rect x="14" width="97.7586" height="23.7249" rx="4" fill="#81319B"/>
<path d="M23.2189 7.69928C23.5869 7.66728 23.9589 7.64328 24.3349 7.62728C24.7109 7.60328 25.0909 7.59128 25.4749 7.59128C25.8749 7.59128 26.2789 7.63128 26.6869 7.71128C27.1029 7.79128 27.4749 7.94328 27.8029 8.16728C28.1389 8.38328 28.4109 8.68728 28.6189 9.07928C28.8269 9.47128 28.9309 9.97928 28.9309 10.6033C28.9309 11.2273 28.8269 11.7353 28.6189 12.1273C28.4109 12.5113 28.1429 12.8153 27.8149 13.0393C27.4869 13.2633 27.1189 13.4153 26.7109 13.4953C26.3109 13.5753 25.9149 13.6153 25.5229 13.6153C25.4189 13.6153 25.3189 13.6153 25.2229 13.6153C25.1349 13.6073 25.0509 13.5993 24.9709 13.5913V16.3633C24.8189 16.3873 24.6709 16.4033 24.5269 16.4113C24.3829 16.4193 24.2429 16.4233 24.1069 16.4233C23.9789 16.4233 23.8389 16.4193 23.6869 16.4113C23.5349 16.4033 23.3789 16.3873 23.2189 16.3633V7.69928ZM24.9709 12.1393C25.0669 12.1553 25.1549 12.1633 25.2349 12.1633C25.3229 12.1633 25.4269 12.1633 25.5469 12.1633C25.7469 12.1633 25.9429 12.1393 26.1349 12.0913C26.3269 12.0353 26.4949 11.9473 26.6389 11.8273C26.7909 11.7073 26.9109 11.5513 26.9989 11.3593C27.0869 11.1593 27.1309 10.9153 27.1309 10.6273C27.1309 10.3313 27.0869 10.0833 26.9989 9.88328C26.9109 9.67528 26.7909 9.51128 26.6389 9.39128C26.4949 9.26328 26.3269 9.17528 26.1349 9.12728C25.9429 9.07128 25.7469 9.04328 25.5469 9.04328C25.4589 9.04328 25.3749 9.04728 25.2949 9.05528C25.2229 9.05528 25.1149 9.06328 24.9709 9.07928V12.1393ZM30.215 10.1593C30.335 10.1353 30.447 10.1193 30.551 10.1113C30.663 10.0953 30.783 10.0873 30.911 10.0873C31.031 10.0873 31.147 10.0953 31.259 10.1113C31.379 10.1273 31.495 10.1473 31.607 10.1713C31.631 10.2113 31.651 10.2713 31.667 10.3513C31.691 10.4233 31.711 10.5033 31.727 10.5913C31.743 10.6713 31.755 10.7553 31.763 10.8433C31.779 10.9233 31.791 10.9913 31.799 11.0473C31.975 10.7993 32.191 10.5793 32.447 10.3873C32.703 10.1873 33.023 10.0873 33.407 10.0873C33.487 10.0873 33.579 10.0913 33.683 10.0993C33.787 10.1073 33.863 10.1193 33.911 10.1353C33.927 10.2153 33.939 10.3073 33.947 10.4113C33.955 10.5153 33.959 10.6233 33.959 10.7353C33.959 10.8713 33.951 11.0193 33.935 11.1793C33.927 11.3393 33.907 11.4913 33.875 11.6353C33.787 11.6193 33.687 11.6113 33.575 11.6113C33.471 11.6113 33.407 11.6113 33.383 11.6113C33.247 11.6113 33.095 11.6273 32.927 11.6593C32.759 11.6833 32.599 11.7553 32.447 11.8753C32.295 11.9953 32.167 12.1753 32.063 12.4153C31.967 12.6553 31.919 12.9913 31.919 13.4233V16.3753C31.775 16.3993 31.631 16.4153 31.487 16.4233C31.343 16.4313 31.203 16.4353 31.067 16.4353C30.931 16.4353 30.791 16.4313 30.647 16.4233C30.511 16.4153 30.367 16.3993 30.215 16.3753V10.1593ZM37.4953 16.5073C36.9913 16.5073 36.5513 16.4273 36.1753 16.2673C35.8073 16.0993 35.4993 15.8713 35.2513 15.5833C35.0113 15.2873 34.8273 14.9433 34.6993 14.5513C34.5793 14.1593 34.5193 13.7353 34.5193 13.2793C34.5193 12.8233 34.5793 12.3953 34.6993 11.9953C34.8273 11.5953 35.0113 11.2513 35.2513 10.9633C35.4993 10.6673 35.8073 10.4353 36.1753 10.2673C36.5513 10.0993 36.9913 10.0153 37.4953 10.0153C37.9993 10.0153 38.4393 10.0993 38.8153 10.2673C39.1913 10.4353 39.5033 10.6673 39.7513 10.9633C39.9993 11.2513 40.1833 11.5953 40.3033 11.9953C40.4233 12.3953 40.4833 12.8233 40.4833 13.2793C40.4833 13.7353 40.4233 14.1593 40.3033 14.5513C40.1833 14.9433 39.9993 15.2873 39.7513 15.5833C39.5033 15.8713 39.1913 16.0993 38.8153 16.2673C38.4393 16.4273 37.9993 16.5073 37.4953 16.5073ZM37.4953 15.2113C37.9433 15.2113 38.2633 15.0473 38.4553 14.7193C38.6553 14.3833 38.7553 13.9033 38.7553 13.2793C38.7553 12.6553 38.6553 12.1793 38.4553 11.8513C38.2633 11.5153 37.9433 11.3473 37.4953 11.3473C37.0553 11.3473 36.7353 11.5153 36.5353 11.8513C36.3433 12.1793 36.2473 12.6553 36.2473 13.2793C36.2473 13.9033 36.3433 14.3833 36.5353 14.7193C36.7353 15.0473 37.0553 15.2113 37.4953 15.2113ZM37.6153 7.73528C37.9353 7.68728 38.2953 7.66328 38.6953 7.66328C38.9033 7.66328 39.0793 7.67128 39.2233 7.68728C39.3753 7.69528 39.5313 7.71128 39.6913 7.73528L37.8793 9.21128C37.7753 9.22728 37.6513 9.24328 37.5073 9.25928C37.3633 9.27528 37.2113 9.28328 37.0513 9.28328C36.7953 9.28328 36.5353 9.25928 36.2713 9.21128L37.6153 7.73528ZM42.4085 13.1593L41.2205 10.1593C41.4845 10.1113 41.7765 10.0873 42.0965 10.0873C42.4005 10.0873 42.7085 10.1113 43.0205 10.1593L43.9685 13.1953L42.7325 16.3633C42.4445 16.4113 42.1605 16.4353 41.8805 16.4353C41.6005 16.4353 41.3045 16.4113 40.9925 16.3633L42.4085 13.1593ZM44.0525 13.1953L45.0125 10.1593C45.3085 10.1113 45.6165 10.0873 45.9365 10.0873C46.2325 10.0873 46.5245 10.1113 46.8125 10.1593L45.6125 13.1593L47.0405 16.3633C46.7285 16.4113 46.4325 16.4353 46.1525 16.4353C45.8725 16.4353 45.5885 16.4113 45.3005 16.3633L44.0525 13.1953ZM48.3987 11.4553H47.5947C47.5707 11.3513 47.5507 11.2433 47.5347 11.1313C47.5267 11.0113 47.5227 10.8993 47.5227 10.7953C47.5227 10.5793 47.5467 10.3673 47.5947 10.1593H50.0667V16.3633C49.7787 16.4113 49.4987 16.4353 49.2267 16.4353C48.9627 16.4353 48.6867 16.4113 48.3987 16.3633V11.4553ZM48.1467 9.11528C48.0987 8.84328 48.0747 8.57528 48.0747 8.31128C48.0747 8.05528 48.0987 7.78728 48.1467 7.50728C48.2827 7.48328 48.4267 7.46728 48.5787 7.45928C48.7387 7.44328 48.8827 7.43528 49.0107 7.43528C49.1467 7.43528 49.2947 7.44328 49.4547 7.45928C49.6147 7.46728 49.7627 7.48328 49.8987 7.50728C49.9227 7.64328 49.9387 7.77928 49.9467 7.91528C49.9547 8.04328 49.9587 8.17528 49.9587 8.31128C49.9587 8.43928 49.9547 8.57128 49.9467 8.70728C49.9387 8.84328 49.9227 8.97928 49.8987 9.11528C49.7627 9.13928 49.6147 9.15528 49.4547 9.16328C49.3027 9.17128 49.1587 9.17528 49.0227 9.17528C48.8947 9.17528 48.7507 9.17128 48.5907 9.16328C48.4307 9.15528 48.2827 9.13928 48.1467 9.11528ZM51.7423 10.1593C51.8543 10.1353 51.9663 10.1193 52.0783 10.1113C52.1903 10.0953 52.3143 10.0873 52.4503 10.0873C52.5863 10.0873 52.7063 10.0953 52.8103 10.1113C52.9143 10.1193 53.0223 10.1353 53.1343 10.1593C53.1583 10.1993 53.1783 10.2593 53.1943 10.3393C53.2183 10.4113 53.2383 10.4913 53.2543 10.5793C53.2703 10.6593 53.2823 10.7393 53.2903 10.8193C53.3063 10.8993 53.3183 10.9673 53.3263 11.0233C53.3903 10.9033 53.4743 10.7833 53.5783 10.6633C53.6823 10.5433 53.8063 10.4353 53.9503 10.3393C54.0943 10.2433 54.2543 10.1673 54.4303 10.1113C54.6143 10.0473 54.8183 10.0153 55.0423 10.0153C56.0103 10.0153 56.6303 10.3833 56.9023 11.1193C57.0623 10.8233 57.2863 10.5673 57.5743 10.3513C57.8703 10.1273 58.2423 10.0153 58.6903 10.0153C59.3943 10.0153 59.9103 10.2113 60.2383 10.6033C60.5743 10.9873 60.7423 11.5913 60.7423 12.4153V16.3633C60.4543 16.4113 60.1703 16.4353 59.8903 16.4353C59.6103 16.4353 59.3263 16.4113 59.0383 16.3633V12.8593C59.0383 12.4273 58.9823 12.0953 58.8703 11.8633C58.7663 11.6313 58.5503 11.5153 58.2223 11.5153C58.0863 11.5153 57.9503 11.5353 57.8143 11.5753C57.6863 11.6153 57.5663 11.6913 57.4543 11.8033C57.3503 11.9073 57.2623 12.0593 57.1903 12.2593C57.1263 12.4513 57.0943 12.7033 57.0943 13.0153V16.3633C56.8063 16.4113 56.5223 16.4353 56.2423 16.4353C55.9623 16.4353 55.6783 16.4113 55.3903 16.3633V12.8593C55.3903 12.4273 55.3343 12.0953 55.2223 11.8633C55.1183 11.6313 54.9023 11.5153 54.5743 11.5153C54.4383 11.5153 54.3023 11.5353 54.1663 11.5753C54.0303 11.6153 53.9063 11.6953 53.7943 11.8153C53.6903 11.9273 53.6063 12.0873 53.5423 12.2953C53.4783 12.5033 53.4463 12.7753 53.4463 13.1113V16.3633C53.1583 16.4113 52.8743 16.4353 52.5943 16.4353C52.3143 16.4353 52.0303 16.4113 51.7423 16.3633V10.1593ZM65.3852 13.5193C65.2892 13.5033 65.1852 13.4913 65.0732 13.4833C64.9612 13.4673 64.8612 13.4593 64.7732 13.4593C64.3812 13.4593 64.0692 13.5313 63.8372 13.6753C63.6132 13.8113 63.5012 14.0353 63.5012 14.3473C63.5012 14.5553 63.5452 14.7153 63.6332 14.8273C63.7212 14.9393 63.8252 15.0233 63.9452 15.0793C64.0732 15.1273 64.2052 15.1593 64.3412 15.1753C64.4852 15.1833 64.6092 15.1873 64.7132 15.1873C64.8332 15.1873 64.9532 15.1793 65.0732 15.1633C65.1932 15.1393 65.2972 15.1193 65.3852 15.1033V13.5193ZM65.3852 12.2833C65.3852 12.0913 65.3532 11.9353 65.2892 11.8153C65.2252 11.6953 65.1372 11.6033 65.0252 11.5393C64.9132 11.4673 64.7732 11.4193 64.6052 11.3953C64.4452 11.3713 64.2652 11.3593 64.0652 11.3593C63.6332 11.3593 63.1732 11.4433 62.6852 11.6113C62.5732 11.4033 62.4892 11.2073 62.4332 11.0233C62.3772 10.8393 62.3492 10.6193 62.3492 10.3633C62.7012 10.2433 63.0532 10.1553 63.4052 10.0993C63.7572 10.0433 64.0852 10.0153 64.3892 10.0153C65.2212 10.0153 65.8692 10.2153 66.3332 10.6153C66.8052 11.0153 67.0412 11.6553 67.0412 12.5353V16.1353C66.7612 16.2233 66.4212 16.3073 66.0212 16.3873C65.6212 16.4673 65.1692 16.5073 64.6652 16.5073C64.2572 16.5073 63.8812 16.4713 63.5372 16.3993C63.2012 16.3273 62.9092 16.2073 62.6612 16.0393C62.4212 15.8713 62.2332 15.6553 62.0972 15.3913C61.9692 15.1273 61.9052 14.8033 61.9052 14.4193C61.9052 14.0353 61.9852 13.7153 62.1452 13.4593C62.3132 13.1953 62.5252 12.9873 62.7812 12.8353C63.0452 12.6753 63.3372 12.5633 63.6572 12.4993C63.9772 12.4273 64.2972 12.3913 64.6172 12.3913C64.8492 12.3913 65.1052 12.4033 65.3852 12.4273V12.2833ZM68.5588 10.1593C68.6708 10.1353 68.7828 10.1193 68.8948 10.1113C69.0068 10.0953 69.1308 10.0873 69.2668 10.0873C69.4028 10.0873 69.5228 10.0953 69.6268 10.1113C69.7308 10.1193 69.8388 10.1353 69.9508 10.1593C69.9748 10.1993 69.9948 10.2593 70.0108 10.3393C70.0348 10.4113 70.0548 10.4913 70.0708 10.5793C70.0868 10.6593 70.0988 10.7393 70.1068 10.8193C70.1228 10.8993 70.1348 10.9673 70.1428 11.0233C70.2068 10.9033 70.2908 10.7833 70.3948 10.6633C70.4988 10.5433 70.6228 10.4353 70.7668 10.3393C70.9108 10.2433 71.0708 10.1673 71.2467 10.1113C71.4308 10.0473 71.6348 10.0153 71.8588 10.0153C72.8268 10.0153 73.4468 10.3833 73.7188 11.1193C73.8788 10.8233 74.1028 10.5673 74.3908 10.3513C74.6868 10.1273 75.0588 10.0153 75.5068 10.0153C76.2108 10.0153 76.7268 10.2113 77.0548 10.6033C77.3908 10.9873 77.5588 11.5913 77.5588 12.4153V16.3633C77.2708 16.4113 76.9868 16.4353 76.7068 16.4353C76.4268 16.4353 76.1428 16.4113 75.8548 16.3633V12.8593C75.8548 12.4273 75.7988 12.0953 75.6868 11.8633C75.5828 11.6313 75.3668 11.5153 75.0388 11.5153C74.9028 11.5153 74.7668 11.5353 74.6308 11.5753C74.5028 11.6153 74.3828 11.6913 74.2708 11.8033C74.1668 11.9073 74.0788 12.0593 74.0068 12.2593C73.9428 12.4513 73.9108 12.7033 73.9108 13.0153V16.3633C73.6228 16.4113 73.3388 16.4353 73.0588 16.4353C72.7788 16.4353 72.4948 16.4113 72.2068 16.3633V12.8593C72.2068 12.4273 72.1508 12.0953 72.0388 11.8633C71.9348 11.6313 71.7188 11.5153 71.3908 11.5153C71.2548 11.5153 71.1188 11.5353 70.9828 11.5753C70.8468 11.6153 70.7228 11.6953 70.6108 11.8153C70.5068 11.9273 70.4228 12.0873 70.3588 12.2953C70.2948 12.5033 70.2628 12.7753 70.2628 13.1113V16.3633C69.9748 16.4113 69.6908 16.4353 69.4108 16.4353C69.1308 16.4353 68.8468 16.4113 68.5588 16.3633V10.1593ZM80.4616 13.7833C80.4936 14.2633 80.6616 14.6113 80.9656 14.8273C81.2696 15.0433 81.6696 15.1513 82.1656 15.1513C82.4376 15.1513 82.7136 15.1273 82.9936 15.0793C83.2816 15.0233 83.5536 14.9473 83.8096 14.8513C83.8976 15.0113 83.9736 15.2033 84.0376 15.4273C84.1016 15.6513 84.1376 15.8913 84.1456 16.1473C83.5216 16.3873 82.8176 16.5073 82.0336 16.5073C81.4576 16.5073 80.9616 16.4273 80.5456 16.2673C80.1376 16.1073 79.8016 15.8873 79.5376 15.6073C79.2816 15.3193 79.0896 14.9793 78.9616 14.5873C78.8416 14.1953 78.7816 13.7673 78.7816 13.3033C78.7816 12.8473 78.8456 12.4193 78.9736 12.0193C79.1016 11.6193 79.2896 11.2713 79.5376 10.9753C79.7936 10.6793 80.1056 10.4473 80.4736 10.2793C80.8496 10.1033 81.2856 10.0153 81.7816 10.0153C82.2136 10.0153 82.5976 10.0913 82.9336 10.2433C83.2696 10.3953 83.5536 10.6033 83.7856 10.8673C84.0256 11.1313 84.2056 11.4473 84.3256 11.8153C84.4456 12.1753 84.5056 12.5633 84.5056 12.9793C84.5056 13.1313 84.4976 13.2833 84.4816 13.4353C84.4736 13.5793 84.4616 13.6953 84.4456 13.7833H80.4616ZM82.8976 12.5953C82.8816 12.2113 82.7736 11.9033 82.5736 11.6713C82.3816 11.4313 82.1096 11.3113 81.7576 11.3113C81.3576 11.3113 81.0536 11.4233 80.8456 11.6473C80.6376 11.8713 80.5136 12.1873 80.4736 12.5953H82.8976ZM85.8439 10.1593C85.9559 10.1353 86.0679 10.1193 86.1799 10.1113C86.2919 10.0953 86.4159 10.0873 86.5519 10.0873C86.6879 10.0873 86.8079 10.0953 86.9119 10.1113C87.0159 10.1193 87.1239 10.1353 87.2359 10.1593C87.2599 10.1993 87.2799 10.2593 87.2959 10.3393C87.3199 10.4113 87.3399 10.4913 87.3559 10.5793C87.3719 10.6593 87.3839 10.7393 87.3919 10.8193C87.4079 10.8993 87.4199 10.9673 87.4279 11.0233C87.5079 10.9033 87.6039 10.7833 87.7159 10.6633C87.8279 10.5433 87.9559 10.4353 88.0999 10.3393C88.2519 10.2433 88.4199 10.1673 88.6039 10.1113C88.7879 10.0473 88.9919 10.0153 89.2159 10.0153C89.9199 10.0153 90.4479 10.2073 90.7999 10.5913C91.1599 10.9753 91.3399 11.5793 91.3399 12.4033V16.3633C91.0519 16.4113 90.7679 16.4353 90.4879 16.4353C90.2079 16.4353 89.9239 16.4113 89.6359 16.3633V12.8593C89.6359 12.4273 89.5679 12.0953 89.4319 11.8633C89.3039 11.6313 89.0759 11.5153 88.7479 11.5153C88.6119 11.5153 88.4719 11.5353 88.3279 11.5753C88.1839 11.6153 88.0519 11.6953 87.9319 11.8153C87.8199 11.9273 87.7279 12.0873 87.6559 12.2953C87.5839 12.5033 87.5479 12.7753 87.5479 13.1113V16.3633C87.2599 16.4113 86.9759 16.4353 86.6959 16.4353C86.4159 16.4353 86.1319 16.4113 85.8439 16.3633V10.1593ZM93.0549 11.4553H92.2749L92.2149 11.2153L94.4589 8.34728H94.7349V10.1593H96.1869C96.2109 10.2793 96.2269 10.3873 96.2349 10.4833C96.2429 10.5793 96.2469 10.6793 96.2469 10.7833C96.2469 10.8953 96.2429 11.0033 96.2349 11.1073C96.2269 11.2113 96.2109 11.3273 96.1869 11.4553H94.7349V13.8913C94.7349 14.1393 94.7549 14.3393 94.7949 14.4913C94.8349 14.6433 94.8909 14.7633 94.9629 14.8513C95.0429 14.9393 95.1389 14.9993 95.2509 15.0313C95.3629 15.0633 95.4949 15.0793 95.6469 15.0793C95.7669 15.0793 95.8829 15.0713 95.9949 15.0553C96.1149 15.0313 96.2189 15.0113 96.3069 14.9953C96.3629 15.1473 96.4029 15.3073 96.4269 15.4753C96.4509 15.6353 96.4629 15.7793 96.4629 15.9073C96.4629 15.9953 96.4589 16.0713 96.4509 16.1353C96.4509 16.1913 96.4469 16.2473 96.4389 16.3033C96.0709 16.3913 95.6909 16.4353 95.2989 16.4353C94.5709 16.4353 94.0149 16.2673 93.6309 15.9313C93.2469 15.5873 93.0549 15.0313 93.0549 14.2633V11.4553ZM98.8366 13.7833C98.8686 14.2633 99.0366 14.6113 99.3406 14.8273C99.6446 15.0433 100.045 15.1513 100.541 15.1513C100.813 15.1513 101.089 15.1273 101.369 15.0793C101.657 15.0233 101.929 14.9473 102.185 14.8513C102.273 15.0113 102.349 15.2033 102.413 15.4273C102.477 15.6513 102.513 15.8913 102.521 16.1473C101.897 16.3873 101.193 16.5073 100.409 16.5073C99.8326 16.5073 99.3366 16.4273 98.9206 16.2673C98.5126 16.1073 98.1766 15.8873 97.9126 15.6073C97.6566 15.3193 97.4646 14.9793 97.3366 14.5873C97.2166 14.1953 97.1566 13.7673 97.1566 13.3033C97.1566 12.8473 97.2206 12.4193 97.3486 12.0193C97.4766 11.6193 97.6646 11.2713 97.9126 10.9753C98.1686 10.6793 98.4806 10.4473 98.8486 10.2793C99.2246 10.1033 99.6606 10.0153 100.157 10.0153C100.589 10.0153 100.973 10.0913 101.309 10.2433C101.645 10.3953 101.929 10.6033 102.161 10.8673C102.401 11.1313 102.581 11.4473 102.701 11.8153C102.821 12.1753 102.881 12.5633 102.881 12.9793C102.881 13.1313 102.873 13.2833 102.857 13.4353C102.849 13.5793 102.837 13.6953 102.821 13.7833H98.8366ZM101.273 12.5953C101.257 12.2113 101.149 11.9033 100.949 11.6713C100.757 11.4313 100.485 11.3113 100.133 11.3113C99.7326 11.3113 99.4286 11.4233 99.2206 11.6473C99.0126 11.8713 98.8886 12.1873 98.8486 12.5953H101.273Z" fill="white"/>
<defs>
<linearGradient id="paint0_linear_6298_17113" x1="63" y1="13" x2="63" y2="121" gradientUnits="userSpaceOnUse">
<stop stop-color="#1280C3"/>
<stop offset="1" stop-color="#00AB9E"/>
</linearGradient>
</defs>
</svg>