<svg width="338" height="15" viewBox="0 0 338 15" fill="none" xmlns="http://www.w3.org/2000/svg">
<path opacity="0.7" d="M75.7568 9.24536C69.2039 8.2481 24.7999 9.50223 21.8708 9.25127C19.1452 8.87878 22.0572 2.0405 24.362 1.01761C25.1811 0.65366 26.1782 0.591249 28.5395 0.743663C31.3668 0.964401 66.4416 0.464457 79.9201 0.29956C80.5697 0.511758 82.4001 -0.201044 82.7729 0.0571407C83.5553 0.463798 153.016 0.147144 167.827 0.19773C171.827 0.211526 168.624 0.591248 173.346 0.47628C183.407 0.231892 205.204 0.820528 212.836 0.551832C218.971 0.335692 220.273 0.343576 226.06 0.669428C231.161 0.957175 263.615 1.2101 267.419 0.812644C268.34 0.69899 269.001 0.759431 268.962 0.911188C269.557 0.938781 271.826 1.00119 272.436 1.01827C272.922 1.03207 291.199 1.5261 291.258 1.6391C291.38 1.79414 292.029 1.88086 292.696 1.7902C293.905 1.64501 317.794 1.64173 318.018 2.09371C318.656 3.38004 313.371 8.64818 310.233 9.89312C306.914 11.209 292.473 9.29332 279.782 9.87078C215.886 8.66264 222.843 8.91425 210.393 9.26704C209.071 8.7914 203.54 9.84779 200.363 9.01083C199.058 8.66724 189.33 8.51154 187.116 8.81899C186.172 8.94973 173.267 8.70074 159.941 8.56804C146.615 8.43533 132.868 8.42482 130.309 8.86104C120.336 7.98794 81.1798 9.13696 75.7568 9.24536Z" fill="#81319B"/>
<path opacity="0.7" d="M62.9264 14.78C55.9668 13.7913 4.60311 14.5015 0.877589 14.1743C-2.12486 13.7644 3.30955 6.97866 6.18207 5.99125C7.20737 5.63912 8.34843 5.59117 10.9611 5.77643C15.1272 6.12856 63.5816 5.89271 68.9228 5.86249C69.6261 6.07863 71.7812 5.37634 72.1682 5.63715C73.5183 6.31251 165.219 5.79088 168.043 5.78563C172.554 5.77709 168.987 6.17192 174.3 6.02542C185.6 5.71336 210.278 6.09505 218.822 5.71993C225.672 5.4197 227.135 5.42495 233.744 5.6654C240.475 5.90979 276.295 5.59905 280.295 5.09056C281.295 4.96311 282.049 5.0045 282.066 5.15692C282.487 5.16611 307.311 5.29422 307.41 5.38816C307.619 5.53926 308.39 5.61022 309.093 5.50445C310.396 5.35072 337.152 4.7161 337.646 5.15757C339.061 6.41959 335.966 11.7896 333.025 13.1127C329.916 14.5113 312.2 12.9885 298.126 13.8504C220.797 13.9996 238.119 13.7348 218.147 14.4542C216.517 13.9983 210.383 15.1203 206.544 14.3149C204.965 13.9838 193.758 13.9319 191.258 14.2591C189.123 14.5389 131.717 13.6987 125.828 14.5751C115.363 13.7762 72.8093 14.6592 62.9264 14.78Z" fill="#81319B"/>
</svg>
