<svg width="1289" height="78" viewBox="0 0 1289 78" fill="none" xmlns="http://www.w3.org/2000/svg">
<g filter="url(#filter0_d_62364_68558)">
<rect width="1280.13" height="70" transform="translate(4)" fill="white"/>
<path d="M36.8906 35C36.8906 36.3202 35.8202 37.3906 34.5 37.3906C33.1798 37.3906 32.1094 36.3202 32.1094 35C32.1094 33.6798 33.1798 32.6094 34.5 32.6094C35.8202 32.6094 36.8906 33.6798 36.8906 35Z" fill="#0B2C4C"/>
<path d="M38.5379 27.7754H30.4629C28.7052 27.7754 27.2754 29.2052 27.2754 30.9629V39.0379C27.2754 40.7956 28.7052 42.2254 30.4629 42.2254H38.5379C40.2956 42.2254 41.7254 40.7956 41.7254 39.0379V30.9629C41.7254 29.2052 40.2956 27.7754 38.5379 27.7754ZM34.5004 38.9848C32.3034 38.9848 30.516 37.1974 30.516 35.0004C30.516 32.8034 32.3034 31.016 34.5004 31.016C36.6974 31.016 38.4848 32.8034 38.4848 35.0004C38.4848 37.1974 36.6974 38.9848 34.5004 38.9848ZM39.0691 31.2285C38.629 31.2285 38.2723 30.8718 38.2723 30.4316C38.2723 29.9915 38.629 29.6348 39.0691 29.6348C39.5093 29.6348 39.866 29.9915 39.866 30.4316C39.866 30.8718 39.5093 31.2285 39.0691 31.2285Z" fill="#0B2C4C"/>
<path d="M40.9285 21.4004H28.0723C24.1178 21.4004 20.9004 24.6178 20.9004 28.5723V41.4285C20.9004 45.383 24.1178 48.6004 28.0723 48.6004H40.9285C44.883 48.6004 48.1004 45.383 48.1004 41.4285V28.5723C48.1004 24.6178 44.883 21.4004 40.9285 21.4004ZM43.3191 39.0379C43.3191 41.6742 41.1742 43.8191 38.5379 43.8191H30.4629C27.8266 43.8191 25.6816 41.6742 25.6816 39.0379V30.9629C25.6816 28.3266 27.8266 26.1816 30.4629 26.1816H38.5379C41.1742 26.1816 43.3191 28.3266 43.3191 30.9629V39.0379Z" fill="#0B2C4C"/>
<path d="M98.116 21.4004H78.8848C76.688 21.4004 74.9004 23.188 74.9004 25.3848V44.616C74.9004 46.8128 76.688 48.6004 78.8848 48.6004H86.9066V38.9848H83.7191V34.2035H86.9066V30.9629C86.9066 28.3264 89.0514 26.1816 91.6879 26.1816H96.5223V30.9629H91.6879V34.2035H96.5223L95.7254 38.9848H91.6879V48.6004H98.116C100.313 48.6004 102.1 46.8128 102.1 44.616V25.3848C102.1 23.188 100.313 21.4004 98.116 21.4004Z" fill="#0B2C4C"/>
<path fill-rule="evenodd" clip-rule="evenodd" d="M129 27.4491V42.5509C129 45.6469 131.853 48.5 134.949 48.5H150.051C153.147 48.5 156 45.6469 156 42.5509V27.4491C156 24.3531 153.147 21.5 150.051 21.5H134.949C131.853 21.5 129 24.3531 129 27.4491ZM149.42 27.6592L144.097 33.7345L150.607 42.3413H145.702L141.559 37.0096L136.894 42.3413H134.991L140.677 35.7955L134.417 27.6592H139.447L143.215 32.5205L147.455 27.6592H149.42ZM137.43 29.2144L146.206 40.7236H147.663L138.887 29.2144H137.43Z" fill="#0B2C4C"/>
<path d="M250.439 27.182C250.982 27.094 251.503 27.05 252.001 27.05C252.515 27.05 253.05 27.094 253.607 27.182V40.228H259.085C259.129 40.4773 259.159 40.7193 259.173 40.954C259.188 41.174 259.195 41.3867 259.195 41.592C259.195 41.8267 259.188 42.0613 259.173 42.296C259.159 42.516 259.129 42.7507 259.085 43H250.439V27.182ZM266.107 43.264C265.183 43.264 264.376 43.1173 263.687 42.824C263.012 42.516 262.448 42.098 261.993 41.57C261.553 41.0273 261.216 40.3967 260.981 39.678C260.761 38.9593 260.651 38.182 260.651 37.346C260.651 36.51 260.761 35.7253 260.981 34.992C261.216 34.2587 261.553 33.628 261.993 33.1C262.448 32.5573 263.012 32.132 263.687 31.824C264.376 31.516 265.183 31.362 266.107 31.362C267.031 31.362 267.838 31.516 268.527 31.824C269.216 32.132 269.788 32.5573 270.243 33.1C270.698 33.628 271.035 34.2587 271.255 34.992C271.475 35.7253 271.585 36.51 271.585 37.346C271.585 38.182 271.475 38.9593 271.255 39.678C271.035 40.3967 270.698 41.0273 270.243 41.57C269.788 42.098 269.216 42.516 268.527 42.824C267.838 43.1173 267.031 43.264 266.107 43.264ZM266.107 40.888C266.928 40.888 267.515 40.5873 267.867 39.986C268.234 39.37 268.417 38.49 268.417 37.346C268.417 36.202 268.234 35.3293 267.867 34.728C267.515 34.112 266.928 33.804 266.107 33.804C265.3 33.804 264.714 34.112 264.347 34.728C263.995 35.3293 263.819 36.202 263.819 37.346C263.819 38.49 263.995 39.37 264.347 39.986C264.714 40.5873 265.3 40.888 266.107 40.888ZM280.431 41.108C281.765 41.1373 282.748 41.438 283.379 42.01C284.009 42.5673 284.325 43.3667 284.325 44.408C284.325 45.024 284.163 45.5813 283.841 46.08C283.518 46.5933 283.078 47.026 282.521 47.378C281.963 47.73 281.303 48.0013 280.541 48.192C279.778 48.3827 278.957 48.478 278.077 48.478C277.197 48.478 276.449 48.4047 275.833 48.258C275.217 48.126 274.711 47.9353 274.315 47.686C273.933 47.4367 273.655 47.1287 273.479 46.762C273.317 46.3953 273.237 45.992 273.237 45.552C273.237 44.892 273.391 44.3493 273.699 43.924C274.021 43.4987 274.447 43.1247 274.975 42.802C274.637 42.5967 274.366 42.3473 274.161 42.054C273.97 41.746 273.875 41.3573 273.875 40.888C273.875 40.3307 273.992 39.876 274.227 39.524C274.461 39.172 274.806 38.8347 275.261 38.512C274.747 38.1453 274.351 37.698 274.073 37.17C273.794 36.642 273.655 36.0553 273.655 35.41C273.655 34.838 273.765 34.31 273.985 33.826C274.205 33.3273 274.52 32.902 274.931 32.55C275.356 32.1833 275.869 31.8973 276.471 31.692C277.072 31.4867 277.747 31.384 278.495 31.384C279.228 31.384 279.903 31.5013 280.519 31.736C281.135 31.956 281.648 32.242 282.059 32.594C282.337 32.2273 282.682 31.956 283.093 31.78C283.503 31.5893 284.061 31.494 284.765 31.494C284.794 31.6847 284.816 31.8753 284.831 32.066C284.86 32.242 284.875 32.4327 284.875 32.638C284.875 32.8727 284.867 33.1073 284.853 33.342C284.838 33.5767 284.809 33.8187 284.765 34.068H282.983C283.056 34.2147 283.122 34.3907 283.181 34.596C283.239 34.8013 283.269 35.0727 283.269 35.41C283.269 35.982 283.159 36.5173 282.939 37.016C282.733 37.5 282.425 37.918 282.015 38.27C281.604 38.622 281.098 38.9007 280.497 39.106C279.91 39.3113 279.243 39.414 278.495 39.414C277.864 39.414 277.299 39.348 276.801 39.216C276.551 39.3773 276.397 39.5533 276.339 39.744C276.28 39.92 276.251 40.0887 276.251 40.25C276.251 40.4847 276.324 40.6753 276.471 40.822C276.632 40.9687 276.947 41.0493 277.417 41.064L280.431 41.108ZM277.615 43.396C277.292 43.3813 277.021 43.418 276.801 43.506C276.595 43.594 276.427 43.704 276.295 43.836C276.177 43.9827 276.089 44.1367 276.031 44.298C275.987 44.474 275.965 44.6427 275.965 44.804C275.965 45.3613 276.17 45.7353 276.581 45.926C277.006 46.1313 277.571 46.234 278.275 46.234C279.199 46.234 279.939 46.0873 280.497 45.794C281.069 45.5007 281.355 45.1047 281.355 44.606C281.355 44.4593 281.333 44.32 281.289 44.188C281.259 44.056 281.193 43.9313 281.091 43.814C280.988 43.7113 280.841 43.6233 280.651 43.55C280.475 43.4767 280.233 43.44 279.925 43.44L277.615 43.396ZM278.517 37.39C279.133 37.39 279.573 37.214 279.837 36.862C280.115 36.51 280.255 36.026 280.255 35.41C280.255 34.794 280.115 34.31 279.837 33.958C279.573 33.5913 279.133 33.408 278.517 33.408C277.886 33.408 277.431 33.5913 277.153 33.958C276.874 34.31 276.735 34.794 276.735 35.41C276.735 36.026 276.874 36.51 277.153 36.862C277.431 37.214 277.886 37.39 278.517 37.39ZM291.115 43.264C290.191 43.264 289.384 43.1173 288.695 42.824C288.02 42.516 287.456 42.098 287.001 41.57C286.561 41.0273 286.224 40.3967 285.989 39.678C285.769 38.9593 285.659 38.182 285.659 37.346C285.659 36.51 285.769 35.7253 285.989 34.992C286.224 34.2587 286.561 33.628 287.001 33.1C287.456 32.5573 288.02 32.132 288.695 31.824C289.384 31.516 290.191 31.362 291.115 31.362C292.039 31.362 292.846 31.516 293.535 31.824C294.224 32.132 294.796 32.5573 295.251 33.1C295.706 33.628 296.043 34.2587 296.263 34.992C296.483 35.7253 296.593 36.51 296.593 37.346C296.593 38.182 296.483 38.9593 296.263 39.678C296.043 40.3967 295.706 41.0273 295.251 41.57C294.796 42.098 294.224 42.516 293.535 42.824C292.846 43.1173 292.039 43.264 291.115 43.264ZM291.115 40.888C291.936 40.888 292.523 40.5873 292.875 39.986C293.242 39.37 293.425 38.49 293.425 37.346C293.425 36.202 293.242 35.3293 292.875 34.728C292.523 34.112 291.936 33.804 291.115 33.804C290.308 33.804 289.722 34.112 289.355 34.728C289.003 35.3293 288.827 36.202 288.827 37.346C288.827 38.49 289.003 39.37 289.355 39.986C289.722 40.5873 290.308 40.888 291.115 40.888ZM299.367 34.002H297.937L297.827 33.562L301.941 28.304H302.447V31.626H305.109C305.153 31.846 305.182 32.044 305.197 32.22C305.211 32.396 305.219 32.5793 305.219 32.77C305.219 32.9753 305.211 33.1733 305.197 33.364C305.182 33.5547 305.153 33.7673 305.109 34.002H302.447V38.468C302.447 38.9227 302.483 39.2893 302.557 39.568C302.63 39.8467 302.733 40.0667 302.865 40.228C303.011 40.3893 303.187 40.4993 303.393 40.558C303.598 40.6167 303.84 40.646 304.119 40.646C304.339 40.646 304.551 40.6313 304.757 40.602C304.977 40.558 305.167 40.5213 305.329 40.492C305.431 40.7707 305.505 41.064 305.549 41.372C305.593 41.6653 305.615 41.9293 305.615 42.164C305.615 42.3253 305.607 42.4647 305.593 42.582C305.593 42.6847 305.585 42.7873 305.571 42.89C304.896 43.0513 304.199 43.132 303.481 43.132C302.146 43.132 301.127 42.824 300.423 42.208C299.719 41.5773 299.367 40.558 299.367 39.15V34.002ZM308.096 34.002H306.622C306.578 33.8113 306.542 33.6133 306.512 33.408C306.498 33.188 306.49 32.9827 306.49 32.792C306.49 32.396 306.534 32.0073 306.622 31.626H311.154V43C310.626 43.088 310.113 43.132 309.614 43.132C309.13 43.132 308.624 43.088 308.096 43V34.002ZM307.634 29.712C307.546 29.2133 307.502 28.722 307.502 28.238C307.502 27.7687 307.546 27.2773 307.634 26.764C307.884 26.72 308.148 26.6907 308.426 26.676C308.72 26.6467 308.984 26.632 309.218 26.632C309.468 26.632 309.739 26.6467 310.032 26.676C310.326 26.6907 310.597 26.72 310.846 26.764C310.89 27.0133 310.92 27.2627 310.934 27.512C310.949 27.7467 310.956 27.9887 310.956 28.238C310.956 28.4727 310.949 28.7147 310.934 28.964C310.92 29.2133 310.89 29.4627 310.846 29.712C310.597 29.756 310.326 29.7853 310.032 29.8C309.754 29.8147 309.49 29.822 309.24 29.822C309.006 29.822 308.742 29.8147 308.448 29.8C308.155 29.7853 307.884 29.756 307.634 29.712ZM314.161 31.604C314.366 31.56 314.564 31.5307 314.755 31.516C314.96 31.5013 315.187 31.494 315.437 31.494C315.847 31.494 316.265 31.538 316.691 31.626C316.735 31.6993 316.771 31.8093 316.801 31.956C316.845 32.088 316.881 32.2347 316.911 32.396C316.955 32.5573 316.984 32.7187 316.999 32.88C317.028 33.0267 317.05 33.1513 317.065 33.254C317.197 33.0193 317.358 32.792 317.549 32.572C317.739 32.3373 317.967 32.132 318.231 31.956C318.509 31.78 318.817 31.6407 319.155 31.538C319.492 31.4207 319.866 31.362 320.277 31.362C320.907 31.362 321.494 31.4793 322.037 31.714C322.594 31.9487 323.078 32.308 323.489 32.792C323.899 33.2613 324.215 33.8553 324.435 34.574C324.669 35.2927 324.787 36.1433 324.787 37.126C324.787 38.0793 324.647 38.9373 324.369 39.7C324.09 40.448 323.687 41.086 323.159 41.614C322.631 42.142 321.985 42.5527 321.223 42.846C320.46 43.1247 319.595 43.264 318.627 43.264C318.377 43.264 318.128 43.2493 317.879 43.22C317.644 43.2053 317.446 43.1833 317.285 43.154V48.214C317.006 48.258 316.735 48.2873 316.471 48.302C316.221 48.3167 315.972 48.324 315.723 48.324C315.473 48.324 315.217 48.3167 314.953 48.302C314.703 48.2873 314.439 48.258 314.161 48.214V31.604ZM317.285 40.58C317.681 40.6973 318.135 40.756 318.649 40.756C319.558 40.756 320.255 40.4627 320.739 39.876C321.223 39.2893 321.465 38.402 321.465 37.214C321.465 36.7593 321.428 36.3413 321.355 35.96C321.281 35.564 321.157 35.2267 320.981 34.948C320.805 34.6693 320.577 34.4493 320.299 34.288C320.035 34.1267 319.705 34.046 319.309 34.046C318.942 34.046 318.627 34.1193 318.363 34.266C318.113 34.398 317.908 34.5887 317.747 34.838C317.585 35.0727 317.468 35.3513 317.395 35.674C317.321 35.9967 317.285 36.3413 317.285 36.708V40.58ZM332.043 43.264C331.119 43.264 330.312 43.1173 329.623 42.824C328.948 42.516 328.383 42.098 327.929 41.57C327.489 41.0273 327.151 40.3967 326.917 39.678C326.697 38.9593 326.587 38.182 326.587 37.346C326.587 36.51 326.697 35.7253 326.917 34.992C327.151 34.2587 327.489 33.628 327.929 33.1C328.383 32.5573 328.948 32.132 329.623 31.824C330.312 31.516 331.119 31.362 332.043 31.362C332.967 31.362 333.773 31.516 334.463 31.824C335.152 32.132 335.724 32.5573 336.179 33.1C336.633 33.628 336.971 34.2587 337.191 34.992C337.411 35.7253 337.521 36.51 337.521 37.346C337.521 38.182 337.411 38.9593 337.191 39.678C336.971 40.3967 336.633 41.0273 336.179 41.57C335.724 42.098 335.152 42.516 334.463 42.824C333.773 43.1173 332.967 43.264 332.043 43.264ZM332.043 40.888C332.864 40.888 333.451 40.5873 333.803 39.986C334.169 39.37 334.353 38.49 334.353 37.346C334.353 36.202 334.169 35.3293 333.803 34.728C333.451 34.112 332.864 33.804 332.043 33.804C331.236 33.804 330.649 34.112 330.283 34.728C329.931 35.3293 329.755 36.202 329.755 37.346C329.755 38.49 329.931 39.37 330.283 39.986C330.649 40.5873 331.236 40.888 332.043 40.888ZM344.056 27.182C344.599 27.094 345.127 27.05 345.64 27.05C346.139 27.05 346.652 27.094 347.18 27.182L341.812 43C341.284 43.088 340.764 43.132 340.25 43.132C339.752 43.132 339.238 43.088 338.71 43L344.056 27.182ZM348.988 27.182C349.443 27.094 349.876 27.05 350.286 27.05C350.726 27.05 351.181 27.094 351.65 27.182L357.766 37.258V27.182C358.294 27.094 358.8 27.05 359.284 27.05C359.739 27.05 360.179 27.094 360.604 27.182V43C360.135 43.088 359.71 43.132 359.328 43.132C358.918 43.132 358.47 43.088 357.986 43L351.826 32.946V43C351.357 43.088 350.88 43.132 350.396 43.132C349.912 43.132 349.443 43.088 348.988 43V27.182ZM368.502 43.264C367.578 43.264 366.771 43.1173 366.082 42.824C365.407 42.516 364.842 42.098 364.388 41.57C363.948 41.0273 363.61 40.3967 363.376 39.678C363.156 38.9593 363.046 38.182 363.046 37.346C363.046 36.51 363.156 35.7253 363.376 34.992C363.61 34.2587 363.948 33.628 364.388 33.1C364.842 32.5573 365.407 32.132 366.082 31.824C366.771 31.516 367.578 31.362 368.502 31.362C369.426 31.362 370.232 31.516 370.922 31.824C371.611 32.132 372.183 32.5573 372.638 33.1C373.092 33.628 373.43 34.2587 373.65 34.992C373.87 35.7253 373.98 36.51 373.98 37.346C373.98 38.182 373.87 38.9593 373.65 39.678C373.43 40.3967 373.092 41.0273 372.638 41.57C372.183 42.098 371.611 42.516 370.922 42.824C370.232 43.1173 369.426 43.264 368.502 43.264ZM368.502 40.888C369.323 40.888 369.91 40.5873 370.262 39.986C370.628 39.37 370.812 38.49 370.812 37.346C370.812 36.202 370.628 35.3293 370.262 34.728C369.91 34.112 369.323 33.804 368.502 33.804C367.695 33.804 367.108 34.112 366.742 34.728C366.39 35.3293 366.214 36.202 366.214 37.346C366.214 38.49 366.39 39.37 366.742 39.986C367.108 40.5873 367.695 40.888 368.502 40.888ZM376.445 31.626C376.651 31.582 376.856 31.5527 377.061 31.538C377.267 31.5087 377.494 31.494 377.743 31.494C377.993 31.494 378.213 31.5087 378.403 31.538C378.594 31.5527 378.792 31.582 378.997 31.626C379.041 31.6993 379.078 31.8093 379.107 31.956C379.151 32.088 379.188 32.2347 379.217 32.396C379.247 32.5427 379.269 32.6893 379.283 32.836C379.313 32.9827 379.335 33.1073 379.349 33.21C379.467 32.99 379.621 32.77 379.811 32.55C380.002 32.33 380.229 32.132 380.493 31.956C380.757 31.78 381.051 31.6407 381.373 31.538C381.711 31.4207 382.085 31.362 382.495 31.362C384.27 31.362 385.407 32.0367 385.905 33.386C386.199 32.8433 386.609 32.374 387.137 31.978C387.68 31.5673 388.362 31.362 389.183 31.362C390.474 31.362 391.42 31.7213 392.021 32.44C392.637 33.144 392.945 34.2513 392.945 35.762V43C392.417 43.088 391.897 43.132 391.383 43.132C390.87 43.132 390.349 43.088 389.821 43V36.576C389.821 35.784 389.719 35.1753 389.513 34.75C389.323 34.3247 388.927 34.112 388.325 34.112C388.076 34.112 387.827 34.1487 387.577 34.222C387.343 34.2953 387.123 34.4347 386.917 34.64C386.727 34.8307 386.565 35.1093 386.433 35.476C386.316 35.828 386.257 36.29 386.257 36.862V43C385.729 43.088 385.209 43.132 384.695 43.132C384.182 43.132 383.661 43.088 383.133 43V36.576C383.133 35.784 383.031 35.1753 382.825 34.75C382.635 34.3247 382.239 34.112 381.637 34.112C381.388 34.112 381.139 34.1487 380.889 34.222C380.64 34.2953 380.413 34.442 380.207 34.662C380.017 34.8673 379.863 35.1607 379.745 35.542C379.628 35.9233 379.569 36.422 379.569 37.038V43C379.041 43.088 378.521 43.132 378.007 43.132C377.494 43.132 376.973 43.088 376.445 43V31.626ZM395.737 26.918C396.265 26.83 396.779 26.786 397.277 26.786C397.791 26.786 398.311 26.83 398.839 26.918V32.726C399.059 32.33 399.426 32.0073 399.939 31.758C400.453 31.494 401.039 31.362 401.699 31.362C402.359 31.362 402.968 31.4793 403.525 31.714C404.097 31.9487 404.589 32.308 404.999 32.792C405.41 33.2613 405.733 33.8553 405.967 34.574C406.202 35.2927 406.319 36.1433 406.319 37.126C406.319 38.0793 406.173 38.9373 405.879 39.7C405.586 40.448 405.161 41.086 404.603 41.614C404.046 42.142 403.364 42.5527 402.557 42.846C401.751 43.1247 400.841 43.264 399.829 43.264C399.507 43.264 399.162 43.2493 398.795 43.22C398.443 43.1907 398.084 43.1467 397.717 43.088C397.351 43.044 396.999 42.9853 396.661 42.912C396.324 42.824 396.016 42.7287 395.737 42.626V26.918ZM398.839 40.536C399.015 40.5947 399.199 40.6313 399.389 40.646C399.595 40.6607 399.8 40.668 400.005 40.668C400.959 40.668 401.707 40.3893 402.249 39.832C402.792 39.2747 403.063 38.402 403.063 37.214C403.063 36.158 402.895 35.3587 402.557 34.816C402.22 34.2587 401.648 33.98 400.841 33.98C400.255 33.98 399.771 34.178 399.389 34.574C399.023 34.9553 398.839 35.564 398.839 36.4V40.536ZM408.758 31.626C408.978 31.582 409.183 31.5527 409.374 31.538C409.579 31.5087 409.799 31.494 410.034 31.494C410.254 31.494 410.466 31.5087 410.672 31.538C410.892 31.5673 411.104 31.604 411.31 31.648C411.354 31.7213 411.39 31.8313 411.42 31.978C411.464 32.11 411.5 32.2567 411.53 32.418C411.559 32.5647 411.581 32.7187 411.596 32.88C411.625 33.0267 411.647 33.1513 411.662 33.254C411.984 32.7993 412.38 32.396 412.85 32.044C413.319 31.6773 413.906 31.494 414.61 31.494C414.756 31.494 414.925 31.5013 415.116 31.516C415.306 31.5307 415.446 31.5527 415.534 31.582C415.563 31.7287 415.585 31.8973 415.6 32.088C415.614 32.2787 415.622 32.4767 415.622 32.682C415.622 32.9313 415.607 33.2027 415.578 33.496C415.563 33.7893 415.526 34.068 415.468 34.332C415.306 34.3027 415.123 34.288 414.918 34.288C414.727 34.288 414.61 34.288 414.566 34.288C414.316 34.288 414.038 34.3173 413.73 34.376C413.422 34.42 413.128 34.552 412.85 34.772C412.571 34.992 412.336 35.322 412.146 35.762C411.97 36.202 411.882 36.818 411.882 37.61V43.022C411.618 43.066 411.354 43.0953 411.09 43.11C410.826 43.1247 410.569 43.132 410.32 43.132C410.07 43.132 409.814 43.1247 409.55 43.11C409.3 43.0953 409.036 43.066 408.758 43.022V31.626ZM419.773 38.27C419.832 39.15 420.14 39.788 420.697 40.184C421.254 40.58 421.988 40.778 422.897 40.778C423.396 40.778 423.902 40.734 424.415 40.646C424.943 40.5433 425.442 40.404 425.911 40.228C426.072 40.5213 426.212 40.8733 426.329 41.284C426.446 41.6947 426.512 42.1347 426.527 42.604C425.383 43.044 424.092 43.264 422.655 43.264C421.599 43.264 420.69 43.1173 419.927 42.824C419.179 42.5307 418.563 42.1273 418.079 41.614C417.61 41.086 417.258 40.4627 417.023 39.744C416.803 39.0253 416.693 38.2407 416.693 37.39C416.693 36.554 416.81 35.7693 417.045 35.036C417.28 34.3027 417.624 33.6647 418.079 33.122C418.548 32.5793 419.12 32.154 419.795 31.846C420.484 31.5233 421.284 31.362 422.193 31.362C422.985 31.362 423.689 31.5013 424.305 31.78C424.921 32.0587 425.442 32.44 425.867 32.924C426.307 33.408 426.637 33.9873 426.857 34.662C427.077 35.322 427.187 36.0333 427.187 36.796C427.187 37.0747 427.172 37.3533 427.143 37.632C427.128 37.896 427.106 38.1087 427.077 38.27H419.773ZM424.239 36.092C424.21 35.388 424.012 34.8233 423.645 34.398C423.293 33.958 422.794 33.738 422.149 33.738C421.416 33.738 420.858 33.9433 420.477 34.354C420.096 34.7647 419.868 35.344 419.795 36.092H424.239Z" fill="#0B2C4C"/>
<path d="M546.01 28.996C546.138 28.9747 546.271 28.9587 546.41 28.948C546.548 28.9373 546.687 28.932 546.826 28.932C546.964 28.932 547.103 28.9373 547.242 28.948C547.38 28.9587 547.514 28.9747 547.642 28.996V40.5C547.514 40.5213 547.38 40.5373 547.242 40.548C547.114 40.5587 546.975 40.564 546.826 40.564C546.687 40.564 546.543 40.5587 546.394 40.548C546.255 40.5373 546.127 40.5213 546.01 40.5V28.996ZM550.335 32.292C550.452 32.2707 550.564 32.2547 550.671 32.244C550.788 32.2333 550.905 32.228 551.023 32.228C551.14 32.228 551.247 32.2333 551.343 32.244C551.449 32.2547 551.561 32.2707 551.679 32.292C551.711 32.452 551.743 32.6707 551.775 32.948C551.807 33.2147 551.823 33.4387 551.823 33.62C551.929 33.4387 552.063 33.2573 552.223 33.076C552.393 32.8947 552.585 32.7347 552.799 32.596C553.012 32.4467 553.257 32.3293 553.535 32.244C553.812 32.148 554.116 32.1 554.447 32.1C555.385 32.1 556.079 32.372 556.527 32.916C556.975 33.4493 557.199 34.244 557.199 35.3V40.5C557.081 40.5213 556.948 40.5373 556.799 40.548C556.649 40.5587 556.516 40.564 556.399 40.564C556.281 40.564 556.148 40.5587 555.999 40.548C555.86 40.5373 555.732 40.5213 555.615 40.5V35.732C555.615 34.9747 555.497 34.42 555.263 34.068C555.028 33.7053 554.655 33.524 554.143 33.524C553.844 33.524 553.561 33.5773 553.295 33.684C553.028 33.7907 552.793 33.956 552.591 34.18C552.388 34.404 552.223 34.6973 552.095 35.06C551.977 35.412 551.919 35.8387 551.919 36.34V40.5C551.801 40.5213 551.668 40.5373 551.519 40.548C551.38 40.5587 551.252 40.564 551.135 40.564C551.017 40.564 550.884 40.5587 550.735 40.548C550.585 40.5373 550.452 40.5213 550.335 40.5V32.292ZM560.065 33.54H559.025C559.003 33.4547 558.987 33.3587 558.977 33.252C558.966 33.1347 558.961 33.0227 558.961 32.916C558.961 32.8093 558.966 32.7027 558.977 32.596C558.987 32.4787 559.003 32.3773 559.025 32.292H561.617V40.5C561.499 40.5213 561.366 40.5373 561.217 40.548C561.078 40.5587 560.95 40.564 560.833 40.564C560.726 40.564 560.598 40.5587 560.449 40.548C560.31 40.5373 560.182 40.5213 560.065 40.5V33.54ZM559.713 30.484C559.691 30.356 559.675 30.2173 559.665 30.068C559.665 29.9187 559.665 29.7853 559.665 29.668C559.665 29.5507 559.665 29.4173 559.665 29.268C559.675 29.1187 559.691 28.9853 559.713 28.868C559.851 28.8467 560.001 28.8307 560.161 28.82C560.321 28.8093 560.459 28.804 560.577 28.804C560.694 28.804 560.833 28.8093 560.993 28.82C561.153 28.8307 561.297 28.8467 561.425 28.868C561.446 28.9853 561.457 29.1187 561.457 29.268C561.467 29.4173 561.473 29.5507 561.473 29.668C561.473 29.7853 561.467 29.9187 561.457 30.068C561.457 30.2173 561.446 30.356 561.425 30.484C561.297 30.5053 561.153 30.5213 560.993 30.532C560.843 30.5427 560.71 30.548 560.593 30.548C560.465 30.548 560.321 30.5427 560.161 30.532C560.001 30.5213 559.851 30.5053 559.713 30.484ZM569.666 39.076C569.751 39.2253 569.826 39.412 569.89 39.636C569.954 39.86 569.991 40.0893 570.002 40.324C569.373 40.5693 568.653 40.692 567.842 40.692C566.477 40.692 565.447 40.308 564.754 39.54C564.061 38.7613 563.714 37.716 563.714 36.404C563.714 35.796 563.799 35.2307 563.97 34.708C564.141 34.1853 564.391 33.732 564.722 33.348C565.063 32.964 565.485 32.66 565.986 32.436C566.487 32.212 567.069 32.1 567.73 32.1C568.178 32.1 568.573 32.1267 568.914 32.18C569.255 32.2333 569.581 32.3187 569.89 32.436C569.89 32.6173 569.863 32.8307 569.81 33.076C569.767 33.3107 569.703 33.5187 569.618 33.7C569.095 33.5187 568.498 33.428 567.826 33.428C567.005 33.428 566.391 33.7 565.986 34.244C565.581 34.788 565.378 35.508 565.378 36.404C565.378 37.428 565.607 38.18 566.066 38.66C566.525 39.1293 567.154 39.364 567.954 39.364C568.274 39.364 568.567 39.3427 568.834 39.3C569.111 39.2573 569.389 39.1827 569.666 39.076ZM572.315 33.54H571.275C571.253 33.4547 571.237 33.3587 571.227 33.252C571.216 33.1347 571.211 33.0227 571.211 32.916C571.211 32.8093 571.216 32.7027 571.227 32.596C571.237 32.4787 571.253 32.3773 571.275 32.292H573.867V40.5C573.749 40.5213 573.616 40.5373 573.467 40.548C573.328 40.5587 573.2 40.564 573.083 40.564C572.976 40.564 572.848 40.5587 572.699 40.548C572.56 40.5373 572.432 40.5213 572.315 40.5V33.54ZM571.963 30.484C571.941 30.356 571.925 30.2173 571.915 30.068C571.915 29.9187 571.915 29.7853 571.915 29.668C571.915 29.5507 571.915 29.4173 571.915 29.268C571.925 29.1187 571.941 28.9853 571.963 28.868C572.101 28.8467 572.251 28.8307 572.411 28.82C572.571 28.8093 572.709 28.804 572.827 28.804C572.944 28.804 573.083 28.8093 573.243 28.82C573.403 28.8307 573.547 28.8467 573.675 28.868C573.696 28.9853 573.707 29.1187 573.707 29.268C573.717 29.4173 573.723 29.5507 573.723 29.668C573.723 29.7853 573.717 29.9187 573.707 30.068C573.707 30.2173 573.696 30.356 573.675 30.484C573.547 30.5053 573.403 30.5213 573.243 30.532C573.093 30.5427 572.96 30.548 572.843 30.548C572.715 30.548 572.571 30.5427 572.411 30.532C572.251 30.5213 572.101 30.5053 571.963 30.484ZM579.772 40.692C579.132 40.692 578.572 40.5853 578.092 40.372C577.612 40.148 577.212 39.844 576.892 39.46C576.572 39.076 576.332 38.6227 576.172 38.1C576.023 37.5773 575.948 37.012 575.948 36.404C575.948 35.796 576.023 35.2307 576.172 34.708C576.332 34.1853 576.572 33.732 576.892 33.348C577.212 32.964 577.612 32.66 578.092 32.436C578.572 32.212 579.132 32.1 579.772 32.1C580.412 32.1 580.972 32.212 581.452 32.436C581.932 32.66 582.332 32.964 582.652 33.348C582.972 33.732 583.207 34.1853 583.356 34.708C583.516 35.2307 583.596 35.796 583.596 36.404C583.596 37.012 583.516 37.5773 583.356 38.1C583.207 38.6227 582.972 39.076 582.652 39.46C582.332 39.844 581.932 40.148 581.452 40.372C580.972 40.5853 580.412 40.692 579.772 40.692ZM579.772 39.428C580.508 39.428 581.052 39.1613 581.404 38.628C581.756 38.0947 581.932 37.3533 581.932 36.404C581.932 35.4547 581.756 34.7187 581.404 34.196C581.052 33.6627 580.508 33.396 579.772 33.396C579.036 33.396 578.492 33.6627 578.14 34.196C577.799 34.7187 577.628 35.4547 577.628 36.404C577.628 37.3533 577.799 38.0947 578.14 38.628C578.492 39.1613 579.036 39.428 579.772 39.428Z" fill="#0B2C4C"/>
<path d="M659.448 32.04C659.438 32.2853 659.411 32.5253 659.368 32.76C659.336 33.0053 659.272 33.24 659.176 33.464L655.496 32.776C655.518 32.4773 655.55 32.232 655.592 32.04C655.635 31.848 655.699 31.6347 655.784 31.4L659.448 32.04ZM654.44 31.192C653.608 31.192 652.888 31.048 652.28 30.76C651.672 30.4613 651.166 30.0507 650.76 29.528C650.366 28.9947 650.067 28.3653 649.864 27.64C649.672 26.9147 649.576 26.12 649.576 25.256C649.576 24.392 649.672 23.5973 649.864 22.872C650.067 22.1467 650.366 21.5227 650.76 21C651.166 20.4667 651.672 20.0507 652.28 19.752C652.888 19.4533 653.608 19.304 654.44 19.304C655.272 19.304 655.992 19.4533 656.6 19.752C657.208 20.0507 657.71 20.4667 658.104 21C658.51 21.5227 658.808 22.1467 659 22.872C659.192 23.5973 659.288 24.392 659.288 25.256C659.288 26.12 659.192 26.9147 659 27.64C658.808 28.3653 658.51 28.9947 658.104 29.528C657.71 30.0507 657.208 30.4613 656.6 30.76C655.992 31.048 655.272 31.192 654.44 31.192ZM654.44 29.784C654.974 29.784 655.432 29.6827 655.816 29.48C656.211 29.2667 656.536 28.9627 656.792 28.568C657.048 28.1733 657.24 27.6987 657.368 27.144C657.496 26.5893 657.56 25.96 657.56 25.256C657.56 24.5627 657.496 23.9387 657.368 23.384C657.24 22.8187 657.048 22.344 656.792 21.96C656.536 21.5653 656.211 21.2667 655.816 21.064C655.432 20.8507 654.974 20.744 654.44 20.744C653.907 20.744 653.443 20.8507 653.048 21.064C652.664 21.2667 652.344 21.5653 652.088 21.96C651.832 22.344 651.64 22.8187 651.512 23.384C651.384 23.9387 651.32 24.5627 651.32 25.256C651.32 25.96 651.384 26.5893 651.512 27.144C651.64 27.6987 651.832 28.1733 652.088 28.568C652.344 28.9627 652.664 29.2667 653.048 29.48C653.443 29.6827 653.907 29.784 654.44 29.784ZM661.411 22.792C661.528 22.7707 661.661 22.7547 661.811 22.744C661.96 22.7333 662.088 22.728 662.195 22.728C662.312 22.728 662.445 22.7333 662.595 22.744C662.744 22.7547 662.877 22.7707 662.995 22.792V27.288C662.995 27.8 663.043 28.2267 663.139 28.568C663.235 28.8987 663.379 29.16 663.571 29.352C663.763 29.544 663.997 29.6773 664.275 29.752C664.552 29.8267 664.872 29.864 665.235 29.864C665.779 29.864 666.243 29.8053 666.627 29.688V22.792C666.744 22.7707 666.872 22.7547 667.011 22.744C667.16 22.7333 667.293 22.728 667.411 22.728C667.528 22.728 667.656 22.7333 667.795 22.744C667.944 22.7547 668.077 22.7707 668.195 22.792V30.744C667.821 30.8507 667.373 30.952 666.851 31.048C666.339 31.144 665.805 31.192 665.251 31.192C664.728 31.192 664.232 31.144 663.763 31.048C663.304 30.9627 662.899 30.7813 662.547 30.504C662.195 30.2267 661.917 29.8373 661.715 29.336C661.512 28.8347 661.411 28.1733 661.411 27.352V22.792ZM671.174 24.04H670.134C670.113 23.9547 670.097 23.8587 670.086 23.752C670.075 23.6347 670.07 23.5227 670.07 23.416C670.07 23.3093 670.075 23.2027 670.086 23.096C670.097 22.9787 670.113 22.8773 670.134 22.792H672.726V31C672.609 31.0213 672.475 31.0373 672.326 31.048C672.187 31.0587 672.059 31.064 671.942 31.064C671.835 31.064 671.707 31.0587 671.558 31.048C671.419 31.0373 671.291 31.0213 671.174 31V24.04ZM670.822 20.984C670.801 20.856 670.785 20.7173 670.774 20.568C670.774 20.4187 670.774 20.2853 670.774 20.168C670.774 20.0507 670.774 19.9173 670.774 19.768C670.785 19.6187 670.801 19.4853 670.822 19.368C670.961 19.3467 671.11 19.3307 671.27 19.32C671.43 19.3093 671.569 19.304 671.686 19.304C671.803 19.304 671.942 19.3093 672.102 19.32C672.262 19.3307 672.406 19.3467 672.534 19.368C672.555 19.4853 672.566 19.6187 672.566 19.768C672.577 19.9173 672.582 20.0507 672.582 20.168C672.582 20.2853 672.577 20.4187 672.566 20.568C672.566 20.7173 672.555 20.856 672.534 20.984C672.406 21.0053 672.262 21.0213 672.102 21.032C671.953 21.0427 671.819 21.048 671.702 21.048C671.574 21.048 671.43 21.0427 671.27 21.032C671.11 21.0213 670.961 21.0053 670.822 20.984ZM676.503 27.288C676.525 28.184 676.754 28.84 677.191 29.256C677.639 29.672 678.295 29.88 679.159 29.88C679.917 29.88 680.637 29.7467 681.319 29.48C681.405 29.64 681.474 29.8373 681.527 30.072C681.581 30.296 681.613 30.52 681.623 30.744C681.271 30.8933 680.882 31.0053 680.455 31.08C680.039 31.1547 679.575 31.192 679.063 31.192C678.317 31.192 677.677 31.0907 677.143 30.888C676.61 30.6747 676.167 30.3813 675.815 30.008C675.474 29.624 675.223 29.176 675.063 28.664C674.903 28.1413 674.823 27.5707 674.823 26.952C674.823 26.344 674.898 25.7787 675.047 25.256C675.207 24.7227 675.447 24.264 675.767 23.88C676.087 23.4853 676.487 23.176 676.967 22.952C677.458 22.7173 678.034 22.6 678.695 22.6C679.261 22.6 679.757 22.696 680.183 22.888C680.61 23.08 680.967 23.3467 681.255 23.688C681.543 24.0187 681.762 24.4187 681.911 24.888C682.061 25.3467 682.135 25.848 682.135 26.392C682.135 26.5413 682.13 26.7013 682.119 26.872C682.109 27.032 682.098 27.1707 682.087 27.288H676.503ZM680.567 26.104C680.567 25.8053 680.525 25.5227 680.439 25.256C680.365 24.9787 680.247 24.7387 680.087 24.536C679.938 24.3333 679.741 24.1733 679.495 24.056C679.261 23.928 678.978 23.864 678.647 23.864C677.997 23.864 677.495 24.0613 677.143 24.456C676.802 24.8507 676.594 25.4 676.519 26.104H680.567ZM678.839 21.496C678.722 21.5173 678.594 21.5333 678.455 21.544C678.317 21.5547 678.162 21.56 677.991 21.56C677.874 21.56 677.751 21.5547 677.623 21.544C677.506 21.5333 677.383 21.5173 677.255 21.496L679.095 19.464C679.255 19.4427 679.421 19.4267 679.591 19.416C679.762 19.4053 679.938 19.4 680.119 19.4C680.311 19.4 680.487 19.4053 680.647 19.416C680.807 19.4267 680.962 19.4427 681.111 19.464L678.839 21.496ZM684.21 22.792C684.327 22.7707 684.439 22.7547 684.546 22.744C684.663 22.7333 684.78 22.728 684.898 22.728C685.015 22.728 685.122 22.7333 685.218 22.744C685.324 22.7547 685.436 22.7707 685.554 22.792C685.586 22.952 685.618 23.1707 685.65 23.448C685.682 23.7147 685.698 23.9387 685.698 24.12C685.804 23.9387 685.938 23.7573 686.098 23.576C686.268 23.3947 686.46 23.2347 686.674 23.096C686.887 22.9467 687.132 22.8293 687.41 22.744C687.687 22.648 687.991 22.6 688.322 22.6C689.26 22.6 689.954 22.872 690.402 23.416C690.85 23.9493 691.074 24.744 691.074 25.8V31C690.956 31.0213 690.823 31.0373 690.674 31.048C690.524 31.0587 690.391 31.064 690.274 31.064C690.156 31.064 690.023 31.0587 689.874 31.048C689.735 31.0373 689.607 31.0213 689.49 31V26.232C689.49 25.4747 689.372 24.92 689.138 24.568C688.903 24.2053 688.53 24.024 688.018 24.024C687.719 24.024 687.436 24.0773 687.17 24.184C686.903 24.2907 686.668 24.456 686.466 24.68C686.263 24.904 686.098 25.1973 685.97 25.56C685.852 25.912 685.794 26.3387 685.794 26.84V31C685.676 31.0213 685.543 31.0373 685.394 31.048C685.255 31.0587 685.127 31.064 685.01 31.064C684.892 31.064 684.759 31.0587 684.61 31.048C684.46 31.0373 684.327 31.0213 684.21 31V22.792ZM694.644 27.288C694.665 28.184 694.894 28.84 695.332 29.256C695.78 29.672 696.436 29.88 697.3 29.88C698.057 29.88 698.777 29.7467 699.46 29.48C699.545 29.64 699.614 29.8373 699.668 30.072C699.721 30.296 699.753 30.52 699.764 30.744C699.412 30.8933 699.022 31.0053 698.596 31.08C698.18 31.1547 697.716 31.192 697.204 31.192C696.457 31.192 695.817 31.0907 695.284 30.888C694.75 30.6747 694.308 30.3813 693.956 30.008C693.614 29.624 693.364 29.176 693.204 28.664C693.044 28.1413 692.964 27.5707 692.964 26.952C692.964 26.344 693.038 25.7787 693.188 25.256C693.348 24.7227 693.588 24.264 693.908 23.88C694.228 23.4853 694.628 23.176 695.108 22.952C695.598 22.7173 696.174 22.6 696.836 22.6C697.401 22.6 697.897 22.696 698.324 22.888C698.75 23.08 699.108 23.3467 699.396 23.688C699.684 24.0187 699.902 24.4187 700.052 24.888C700.201 25.3467 700.276 25.848 700.276 26.392C700.276 26.5413 700.27 26.7013 700.26 26.872C700.249 27.032 700.238 27.1707 700.228 27.288H694.644ZM698.708 26.104C698.708 25.8053 698.665 25.5227 698.58 25.256C698.505 24.9787 698.388 24.7387 698.228 24.536C698.078 24.3333 697.881 24.1733 697.636 24.056C697.401 23.928 697.118 23.864 696.788 23.864C696.137 23.864 695.636 24.0613 695.284 24.456C694.942 24.8507 694.734 25.4 694.66 26.104H698.708ZM702.206 29.512C702.494 29.6293 702.809 29.7253 703.15 29.8C703.502 29.864 703.849 29.896 704.19 29.896C704.436 29.896 704.67 29.8693 704.894 29.816C705.118 29.7627 705.31 29.6827 705.47 29.576C705.641 29.4693 705.774 29.3413 705.87 29.192C705.977 29.032 706.03 28.856 706.03 28.664C706.03 28.4507 705.988 28.2747 705.902 28.136C705.828 27.9973 705.721 27.88 705.582 27.784C705.454 27.688 705.3 27.608 705.118 27.544C704.948 27.4693 704.761 27.4 704.558 27.336L703.998 27.128C703.316 26.872 702.82 26.584 702.51 26.264C702.201 25.944 702.046 25.512 702.046 24.968C702.046 24.2427 702.302 23.6667 702.814 23.24C703.337 22.8133 704.1 22.6 705.102 22.6C705.518 22.6 705.924 22.6427 706.318 22.728C706.724 22.8027 707.076 22.8933 707.374 23C707.353 23.2133 707.31 23.4267 707.246 23.64C707.193 23.8533 707.124 24.0507 707.038 24.232C706.804 24.1467 706.521 24.0667 706.19 23.992C705.87 23.9067 705.524 23.864 705.15 23.864C704.756 23.864 704.404 23.9333 704.094 24.072C703.796 24.2107 703.646 24.456 703.646 24.808C703.646 24.9893 703.684 25.144 703.758 25.272C703.833 25.4 703.934 25.512 704.062 25.608C704.19 25.6933 704.334 25.768 704.494 25.832C704.665 25.896 704.846 25.96 705.038 26.024L705.742 26.264C705.998 26.3493 706.238 26.4507 706.462 26.568C706.697 26.6853 706.894 26.8347 707.054 27.016C707.225 27.1867 707.358 27.4 707.454 27.656C707.561 27.9013 707.614 28.2 707.614 28.552C707.614 28.9467 707.534 29.3093 707.374 29.64C707.214 29.96 706.985 30.2373 706.686 30.472C706.398 30.696 706.046 30.872 705.63 31C705.214 31.128 704.756 31.192 704.254 31.192C703.742 31.192 703.294 31.1547 702.91 31.08C702.526 31.016 702.169 30.9253 701.838 30.808C701.86 30.5947 701.902 30.3813 701.966 30.168C702.041 29.944 702.121 29.7253 702.206 29.512ZM656.292 48.512C656.58 48.6293 656.895 48.7253 657.236 48.8C657.588 48.864 657.935 48.896 658.276 48.896C658.522 48.896 658.756 48.8693 658.98 48.816C659.204 48.7627 659.396 48.6827 659.556 48.576C659.727 48.4693 659.86 48.3413 659.956 48.192C660.063 48.032 660.116 47.856 660.116 47.664C660.116 47.4507 660.074 47.2747 659.988 47.136C659.914 46.9973 659.807 46.88 659.668 46.784C659.54 46.688 659.386 46.608 659.204 46.544C659.034 46.4693 658.847 46.4 658.644 46.336L658.084 46.128C657.402 45.872 656.906 45.584 656.596 45.264C656.287 44.944 656.132 44.512 656.132 43.968C656.132 43.2427 656.388 42.6667 656.9 42.24C657.423 41.8133 658.186 41.6 659.188 41.6C659.604 41.6 660.01 41.6427 660.404 41.728C660.81 41.8027 661.162 41.8933 661.46 42C661.439 42.2133 661.396 42.4267 661.332 42.64C661.279 42.8533 661.21 43.0507 661.124 43.232C660.89 43.1467 660.607 43.0667 660.276 42.992C659.956 42.9067 659.61 42.864 659.236 42.864C658.842 42.864 658.49 42.9333 658.18 43.072C657.882 43.2107 657.732 43.456 657.732 43.808C657.732 43.9893 657.77 44.144 657.844 44.272C657.919 44.4 658.02 44.512 658.148 44.608C658.276 44.6933 658.42 44.768 658.58 44.832C658.751 44.896 658.932 44.96 659.124 45.024L659.828 45.264C660.084 45.3493 660.324 45.4507 660.548 45.568C660.783 45.6853 660.98 45.8347 661.14 46.016C661.311 46.1867 661.444 46.4 661.54 46.656C661.647 46.9013 661.7 47.2 661.7 47.552C661.7 47.9467 661.62 48.3093 661.46 48.64C661.3 48.96 661.071 49.2373 660.772 49.472C660.484 49.696 660.132 49.872 659.716 50C659.3 50.128 658.842 50.192 658.34 50.192C657.828 50.192 657.38 50.1547 656.996 50.08C656.612 50.016 656.255 49.9253 655.924 49.808C655.946 49.5947 655.988 49.3813 656.052 49.168C656.127 48.944 656.207 48.7253 656.292 48.512ZM667.046 50.192C666.406 50.192 665.846 50.0853 665.366 49.872C664.886 49.648 664.486 49.344 664.166 48.96C663.846 48.576 663.606 48.1227 663.446 47.6C663.296 47.0773 663.222 46.512 663.222 45.904C663.222 45.296 663.296 44.7307 663.446 44.208C663.606 43.6853 663.846 43.232 664.166 42.848C664.486 42.464 664.886 42.16 665.366 41.936C665.846 41.712 666.406 41.6 667.046 41.6C667.686 41.6 668.246 41.712 668.726 41.936C669.206 42.16 669.606 42.464 669.926 42.848C670.246 43.232 670.48 43.6853 670.63 44.208C670.79 44.7307 670.87 45.296 670.87 45.904C670.87 46.512 670.79 47.0773 670.63 47.6C670.48 48.1227 670.246 48.576 669.926 48.96C669.606 49.344 669.206 49.648 668.726 49.872C668.246 50.0853 667.686 50.192 667.046 50.192ZM667.046 48.928C667.782 48.928 668.326 48.6613 668.678 48.128C669.03 47.5947 669.206 46.8533 669.206 45.904C669.206 44.9547 669.03 44.2187 668.678 43.696C668.326 43.1627 667.782 42.896 667.046 42.896C666.31 42.896 665.766 43.1627 665.414 43.696C665.072 44.2187 664.902 44.9547 664.902 45.904C664.902 46.8533 665.072 47.5947 665.414 48.128C665.766 48.6613 666.31 48.928 667.046 48.928ZM672.952 41.792C673.069 41.7707 673.181 41.7547 673.288 41.744C673.405 41.7333 673.523 41.728 673.64 41.728C673.757 41.728 673.864 41.7333 673.96 41.744C674.067 41.7547 674.179 41.7707 674.296 41.792C674.328 41.952 674.36 42.1653 674.392 42.432C674.424 42.688 674.44 42.9067 674.44 43.088C674.536 42.896 674.653 42.7147 674.792 42.544C674.941 42.3627 675.112 42.2027 675.304 42.064C675.507 41.9253 675.736 41.8133 675.992 41.728C676.248 41.6427 676.531 41.6 676.84 41.6C677.48 41.6 677.971 41.7333 678.312 42C678.664 42.256 678.931 42.6187 679.112 43.088C679.219 42.9067 679.347 42.7253 679.496 42.544C679.656 42.3627 679.832 42.2027 680.024 42.064C680.216 41.9253 680.435 41.8133 680.68 41.728C680.925 41.6427 681.203 41.6 681.512 41.6C682.461 41.6 683.149 41.8667 683.576 42.4C684.013 42.9333 684.232 43.7227 684.232 44.768V50C684.115 50.0213 683.981 50.0373 683.832 50.048C683.683 50.0587 683.549 50.064 683.432 50.064C683.315 50.064 683.181 50.0587 683.032 50.048C682.893 50.0373 682.765 50.0213 682.648 50V45.232C682.648 44.496 682.536 43.9467 682.312 43.584C682.088 43.2107 681.72 43.024 681.208 43.024C680.664 43.024 680.221 43.2213 679.88 43.616C679.549 44.0107 679.384 44.592 679.384 45.36V50C679.267 50.0213 679.133 50.0373 678.984 50.048C678.845 50.0587 678.717 50.064 678.6 50.064C678.483 50.064 678.349 50.0587 678.2 50.048C678.061 50.0373 677.933 50.0213 677.816 50V45.12C677.816 44.4053 677.709 43.872 677.496 43.52C677.283 43.1573 676.941 42.976 676.472 42.976C676.205 42.976 675.955 43.0347 675.72 43.152C675.485 43.2693 675.277 43.4453 675.096 43.68C674.925 43.9147 674.787 44.2133 674.68 44.576C674.584 44.928 674.536 45.3387 674.536 45.808V50C674.419 50.0213 674.285 50.0373 674.136 50.048C673.997 50.0587 673.869 50.064 673.752 50.064C673.635 50.064 673.501 50.0587 673.352 50.048C673.203 50.0373 673.069 50.0213 672.952 50V41.792ZM689.936 50.192C689.296 50.192 688.736 50.0853 688.256 49.872C687.776 49.648 687.376 49.344 687.056 48.96C686.736 48.576 686.496 48.1227 686.336 47.6C686.187 47.0773 686.112 46.512 686.112 45.904C686.112 45.296 686.187 44.7307 686.336 44.208C686.496 43.6853 686.736 43.232 687.056 42.848C687.376 42.464 687.776 42.16 688.256 41.936C688.736 41.712 689.296 41.6 689.936 41.6C690.576 41.6 691.136 41.712 691.616 41.936C692.096 42.16 692.496 42.464 692.816 42.848C693.136 43.232 693.371 43.6853 693.52 44.208C693.68 44.7307 693.76 45.296 693.76 45.904C693.76 46.512 693.68 47.0773 693.52 47.6C693.371 48.1227 693.136 48.576 692.816 48.96C692.496 49.344 692.096 49.648 691.616 49.872C691.136 50.0853 690.576 50.192 689.936 50.192ZM689.936 48.928C690.672 48.928 691.216 48.6613 691.568 48.128C691.92 47.5947 692.096 46.8533 692.096 45.904C692.096 44.9547 691.92 44.2187 691.568 43.696C691.216 43.1627 690.672 42.896 689.936 42.896C689.2 42.896 688.656 43.1627 688.304 43.696C687.963 44.2187 687.792 44.9547 687.792 45.904C687.792 46.8533 687.963 47.5947 688.304 48.128C688.656 48.6613 689.2 48.928 689.936 48.928ZM695.699 48.512C695.987 48.6293 696.301 48.7253 696.643 48.8C696.995 48.864 697.341 48.896 697.683 48.896C697.928 48.896 698.163 48.8693 698.387 48.816C698.611 48.7627 698.803 48.6827 698.963 48.576C699.133 48.4693 699.267 48.3413 699.363 48.192C699.469 48.032 699.523 47.856 699.523 47.664C699.523 47.4507 699.48 47.2747 699.395 47.136C699.32 46.9973 699.213 46.88 699.075 46.784C698.947 46.688 698.792 46.608 698.611 46.544C698.44 46.4693 698.253 46.4 698.051 46.336L697.491 46.128C696.808 45.872 696.312 45.584 696.003 45.264C695.693 44.944 695.539 44.512 695.539 43.968C695.539 43.2427 695.795 42.6667 696.307 42.24C696.829 41.8133 697.592 41.6 698.595 41.6C699.011 41.6 699.416 41.6427 699.811 41.728C700.216 41.8027 700.568 41.8933 700.867 42C700.845 42.2133 700.803 42.4267 700.739 42.64C700.685 42.8533 700.616 43.0507 700.531 43.232C700.296 43.1467 700.013 43.0667 699.683 42.992C699.363 42.9067 699.016 42.864 698.643 42.864C698.248 42.864 697.896 42.9333 697.587 43.072C697.288 43.2107 697.139 43.456 697.139 43.808C697.139 43.9893 697.176 44.144 697.251 44.272C697.325 44.4 697.427 44.512 697.555 44.608C697.683 44.6933 697.827 44.768 697.987 44.832C698.157 44.896 698.339 44.96 698.531 45.024L699.235 45.264C699.491 45.3493 699.731 45.4507 699.955 45.568C700.189 45.6853 700.387 45.8347 700.547 46.016C700.717 46.1867 700.851 46.4 700.947 46.656C701.053 46.9013 701.107 47.2 701.107 47.552C701.107 47.9467 701.027 48.3093 700.867 48.64C700.707 48.96 700.477 49.2373 700.179 49.472C699.891 49.696 699.539 49.872 699.123 50C698.707 50.128 698.248 50.192 697.747 50.192C697.235 50.192 696.787 50.1547 696.403 50.08C696.019 50.016 695.661 49.9253 695.331 49.808C695.352 49.5947 695.395 49.3813 695.459 49.168C695.533 48.944 695.613 48.7253 695.699 48.512Z" fill="#0B2C4C"/>
<path d="M769.33 38.82C769.565 39.2787 769.714 39.7213 769.778 40.148C769.33 40.34 768.871 40.4787 768.402 40.564C767.933 40.6493 767.426 40.692 766.882 40.692C766.05 40.692 765.298 40.5587 764.626 40.292C763.965 40.0147 763.405 39.6253 762.946 39.124C762.487 38.612 762.135 37.9933 761.89 37.268C761.645 36.5427 761.522 35.7267 761.522 34.82C761.522 33.9027 761.645 33.076 761.89 32.34C762.135 31.5933 762.487 30.9587 762.946 30.436C763.405 29.9133 763.965 29.5133 764.626 29.236C765.287 28.948 766.029 28.804 766.85 28.804C767.458 28.804 767.981 28.8467 768.418 28.932C768.855 29.0173 769.245 29.1187 769.586 29.236C769.565 29.4813 769.517 29.7107 769.442 29.924C769.378 30.1267 769.298 30.3453 769.202 30.58C769.042 30.5267 768.887 30.4787 768.738 30.436C768.589 30.3933 768.429 30.356 768.258 30.324C768.087 30.292 767.895 30.2707 767.682 30.26C767.479 30.2387 767.245 30.228 766.978 30.228C765.815 30.228 764.909 30.6227 764.258 31.412C763.618 32.2013 763.298 33.3373 763.298 34.82C763.298 35.5773 763.389 36.2333 763.57 36.788C763.751 37.3427 764.007 37.8013 764.338 38.164C764.669 38.5267 765.063 38.7987 765.522 38.98C765.991 39.1613 766.514 39.252 767.09 39.252C767.538 39.252 767.943 39.2147 768.306 39.14C768.669 39.0653 769.01 38.9587 769.33 38.82ZM775.929 36.644C775.769 36.6227 775.566 36.6013 775.321 36.58C775.075 36.5587 774.867 36.548 774.697 36.548C774.035 36.548 773.529 36.6707 773.177 36.916C772.835 37.1613 772.664 37.5347 772.664 38.036C772.664 38.356 772.723 38.6067 772.841 38.788C772.958 38.9693 773.102 39.108 773.273 39.204C773.454 39.3 773.651 39.3587 773.865 39.38C774.078 39.4013 774.281 39.412 774.473 39.412C774.718 39.412 774.969 39.4013 775.225 39.38C775.491 39.348 775.726 39.3053 775.929 39.252V36.644ZM775.929 35.092C775.929 34.4627 775.769 34.0253 775.449 33.78C775.129 33.5347 774.665 33.412 774.057 33.412C773.683 33.412 773.331 33.444 773.001 33.508C772.681 33.5613 772.366 33.636 772.057 33.732C771.854 33.38 771.753 32.9587 771.753 32.468C772.115 32.3507 772.515 32.26 772.953 32.196C773.39 32.132 773.811 32.1 774.217 32.1C775.283 32.1 776.094 32.3453 776.649 32.836C777.203 33.316 777.481 34.0893 777.481 35.156V40.292C777.107 40.3773 776.654 40.4627 776.121 40.548C775.587 40.644 775.043 40.692 774.489 40.692C773.966 40.692 773.491 40.644 773.065 40.548C772.649 40.452 772.291 40.2973 771.993 40.084C771.705 39.8707 771.481 39.5987 771.321 39.268C771.161 38.9373 771.081 38.5373 771.081 38.068C771.081 37.6093 771.171 37.2093 771.353 36.868C771.545 36.516 771.801 36.228 772.121 36.004C772.441 35.7693 772.809 35.5987 773.225 35.492C773.641 35.3747 774.078 35.316 774.536 35.316C774.878 35.316 775.155 35.3267 775.369 35.348C775.593 35.3587 775.779 35.3747 775.929 35.396V35.092ZM780.162 33.556H778.914L778.85 33.332L781.602 30.26H781.73V32.292H783.81C783.853 32.4733 783.874 32.676 783.874 32.9C783.874 33.0173 783.869 33.1293 783.858 33.236C783.847 33.3427 783.831 33.4493 783.81 33.556H781.73V37.3C781.73 37.748 781.746 38.1053 781.778 38.372C781.821 38.6387 781.885 38.8467 781.97 38.996C782.066 39.1347 782.189 39.2307 782.338 39.284C782.498 39.3267 782.695 39.348 782.93 39.348C783.111 39.348 783.282 39.3373 783.442 39.316C783.602 39.284 783.746 39.252 783.874 39.22C783.949 39.4333 783.991 39.652 784.002 39.876C784.023 40.1 784.034 40.2973 784.034 40.468C783.821 40.5213 783.597 40.5587 783.362 40.58C783.127 40.612 782.877 40.628 782.61 40.628C781.842 40.628 781.239 40.4413 780.802 40.068C780.375 39.6947 780.162 39.076 780.162 38.212V33.556ZM789.929 36.644C789.769 36.6227 789.566 36.6013 789.321 36.58C789.075 36.5587 788.867 36.548 788.697 36.548C788.035 36.548 787.529 36.6707 787.177 36.916C786.835 37.1613 786.664 37.5347 786.664 38.036C786.664 38.356 786.723 38.6067 786.841 38.788C786.958 38.9693 787.102 39.108 787.273 39.204C787.454 39.3 787.651 39.3587 787.865 39.38C788.078 39.4013 788.281 39.412 788.473 39.412C788.718 39.412 788.969 39.4013 789.225 39.38C789.491 39.348 789.726 39.3053 789.929 39.252V36.644ZM789.929 35.092C789.929 34.4627 789.769 34.0253 789.449 33.78C789.129 33.5347 788.665 33.412 788.057 33.412C787.683 33.412 787.331 33.444 787.001 33.508C786.681 33.5613 786.366 33.636 786.057 33.732C785.854 33.38 785.753 32.9587 785.753 32.468C786.115 32.3507 786.515 32.26 786.953 32.196C787.39 32.132 787.811 32.1 788.217 32.1C789.283 32.1 790.094 32.3453 790.649 32.836C791.203 33.316 791.481 34.0893 791.481 35.156V40.292C791.107 40.3773 790.654 40.4627 790.121 40.548C789.587 40.644 789.043 40.692 788.489 40.692C787.966 40.692 787.491 40.644 787.065 40.548C786.649 40.452 786.291 40.2973 785.993 40.084C785.705 39.8707 785.481 39.5987 785.321 39.268C785.161 38.9373 785.081 38.5373 785.081 38.068C785.081 37.6093 785.171 37.2093 785.353 36.868C785.545 36.516 785.801 36.228 786.121 36.004C786.441 35.7693 786.809 35.5987 787.225 35.492C787.641 35.3747 788.078 35.316 788.536 35.316C788.878 35.316 789.155 35.3267 789.369 35.348C789.593 35.3587 789.779 35.3747 789.929 35.396V35.092ZM788.441 30.996C788.323 31.0173 788.195 31.0333 788.057 31.044C787.918 31.0547 787.763 31.06 787.593 31.06C787.475 31.06 787.353 31.0547 787.225 31.044C787.107 31.0333 786.985 31.0173 786.857 30.996L788.697 28.964C788.857 28.9427 789.022 28.9267 789.193 28.916C789.363 28.9053 789.539 28.9 789.721 28.9C789.913 28.9 790.089 28.9053 790.249 28.916C790.409 28.9267 790.563 28.9427 790.713 28.964L788.441 30.996ZM793.826 28.772C793.943 28.7507 794.071 28.7347 794.21 28.724C794.359 28.7133 794.493 28.708 794.61 28.708C794.727 28.708 794.855 28.7133 794.994 28.724C795.143 28.7347 795.277 28.7507 795.394 28.772V38.02C795.394 38.3187 795.421 38.5533 795.474 38.724C795.527 38.8947 795.597 39.028 795.682 39.124C795.778 39.2093 795.885 39.268 796.002 39.3C796.13 39.3213 796.263 39.332 796.402 39.332C796.498 39.332 796.605 39.3267 796.722 39.316C796.85 39.3053 796.957 39.2893 797.042 39.268C797.138 39.6413 797.186 40.0467 797.186 40.484C797.037 40.5373 796.855 40.5693 796.642 40.58C796.429 40.6013 796.231 40.612 796.05 40.612C795.741 40.612 795.453 40.5747 795.186 40.5C794.919 40.4253 794.685 40.3027 794.482 40.132C794.279 39.9613 794.119 39.732 794.002 39.444C793.885 39.156 793.826 38.7987 793.826 38.372V28.772ZM801.952 40.692C801.312 40.692 800.752 40.5853 800.272 40.372C799.792 40.148 799.392 39.844 799.072 39.46C798.752 39.076 798.512 38.6227 798.352 38.1C798.202 37.5773 798.128 37.012 798.128 36.404C798.128 35.796 798.202 35.2307 798.352 34.708C798.512 34.1853 798.752 33.732 799.072 33.348C799.392 32.964 799.792 32.66 800.272 32.436C800.752 32.212 801.312 32.1 801.952 32.1C802.592 32.1 803.152 32.212 803.632 32.436C804.112 32.66 804.512 32.964 804.832 33.348C805.152 33.732 805.386 34.1853 805.536 34.708C805.696 35.2307 805.776 35.796 805.776 36.404C805.776 37.012 805.696 37.5773 805.536 38.1C805.386 38.6227 805.152 39.076 804.832 39.46C804.512 39.844 804.112 40.148 803.632 40.372C803.152 40.5853 802.592 40.692 801.952 40.692ZM801.952 39.428C802.688 39.428 803.232 39.1613 803.584 38.628C803.936 38.0947 804.112 37.3533 804.112 36.404C804.112 35.4547 803.936 34.7187 803.584 34.196C803.232 33.6627 802.688 33.396 801.952 33.396C801.216 33.396 800.672 33.6627 800.32 34.196C799.978 34.7187 799.808 35.4547 799.808 36.404C799.808 37.3533 799.978 38.0947 800.32 38.628C800.672 39.1613 801.216 39.428 801.952 39.428ZM812.18 39.444C813.129 39.4653 813.817 39.668 814.244 40.052C814.671 40.436 814.884 40.964 814.884 41.636C814.884 42.0733 814.772 42.4627 814.548 42.804C814.324 43.156 814.015 43.4547 813.62 43.7C813.225 43.956 812.756 44.148 812.212 44.276C811.679 44.4147 811.097 44.484 810.468 44.484C809.369 44.484 808.532 44.3133 807.956 43.972C807.38 43.6307 807.092 43.092 807.092 42.356C807.092 41.9187 807.209 41.524 807.444 41.172C807.679 40.8307 807.983 40.5587 808.356 40.356C808.143 40.2173 807.961 40.0467 807.812 39.844C807.673 39.6307 807.604 39.3693 807.604 39.06C807.604 38.6653 807.689 38.324 807.86 38.036C808.041 37.748 808.281 37.492 808.58 37.268C808.228 37.0227 807.945 36.708 807.732 36.324C807.519 35.9293 807.412 35.4867 807.412 34.996C807.412 34.5907 807.487 34.212 807.636 33.86C807.785 33.508 807.999 33.204 808.276 32.948C808.564 32.6813 808.916 32.4733 809.332 32.324C809.748 32.1747 810.223 32.1 810.756 32.1C811.236 32.1 811.668 32.1693 812.052 32.308C812.447 32.4467 812.783 32.6227 813.06 32.836C813.273 32.6653 813.561 32.5267 813.924 32.42C814.287 32.3027 814.687 32.244 815.124 32.244C815.167 32.4467 815.188 32.6707 815.188 32.916C815.188 33.0333 815.183 33.156 815.172 33.284C815.161 33.412 815.145 33.54 815.124 33.668H813.684C813.801 33.8493 813.892 34.0467 813.956 34.26C814.02 34.4733 814.052 34.7187 814.052 34.996C814.052 35.4333 813.972 35.828 813.812 36.18C813.652 36.532 813.423 36.836 813.124 37.092C812.836 37.3373 812.489 37.5293 812.084 37.668C811.679 37.796 811.236 37.86 810.756 37.86C810.319 37.86 809.924 37.812 809.572 37.716C809.423 37.8013 809.273 37.9347 809.124 38.116C808.985 38.2867 808.916 38.4733 808.916 38.676C808.916 38.868 808.985 39.0387 809.124 39.188C809.263 39.3267 809.572 39.4013 810.052 39.412L812.18 39.444ZM810.02 40.708C809.54 40.6973 809.177 40.8253 808.932 41.092C808.697 41.3587 808.58 41.6787 808.58 42.052C808.58 42.2867 808.628 42.4787 808.724 42.628C808.82 42.7773 808.953 42.8947 809.124 42.98C809.305 43.076 809.513 43.14 809.748 43.172C809.993 43.2147 810.26 43.236 810.548 43.236C811.401 43.236 812.068 43.092 812.548 42.804C813.028 42.5267 813.268 42.1747 813.268 41.748C813.268 41.428 813.167 41.1827 812.964 41.012C812.761 40.8413 812.388 40.7507 811.844 40.74L810.02 40.708ZM810.756 36.708C811.332 36.708 811.759 36.548 812.036 36.228C812.313 35.908 812.452 35.4973 812.452 34.996C812.452 34.484 812.313 34.068 812.036 33.748C811.759 33.4173 811.332 33.252 810.756 33.252C810.18 33.252 809.753 33.4173 809.476 33.748C809.209 34.068 809.076 34.484 809.076 34.996C809.076 35.4973 809.209 35.908 809.476 36.228C809.753 36.548 810.18 36.708 810.756 36.708ZM819.796 40.692C819.156 40.692 818.596 40.5853 818.116 40.372C817.636 40.148 817.236 39.844 816.916 39.46C816.596 39.076 816.356 38.6227 816.196 38.1C816.046 37.5773 815.972 37.012 815.972 36.404C815.972 35.796 816.046 35.2307 816.196 34.708C816.356 34.1853 816.596 33.732 816.916 33.348C817.236 32.964 817.636 32.66 818.116 32.436C818.596 32.212 819.156 32.1 819.796 32.1C820.436 32.1 820.996 32.212 821.476 32.436C821.956 32.66 822.356 32.964 822.676 33.348C822.996 33.732 823.23 34.1853 823.38 34.708C823.54 35.2307 823.62 35.796 823.62 36.404C823.62 37.012 823.54 37.5773 823.38 38.1C823.23 38.6227 822.996 39.076 822.676 39.46C822.356 39.844 821.956 40.148 821.476 40.372C820.996 40.5853 820.436 40.692 819.796 40.692ZM819.796 39.428C820.532 39.428 821.076 39.1613 821.428 38.628C821.78 38.0947 821.956 37.3533 821.956 36.404C821.956 35.4547 821.78 34.7187 821.428 34.196C821.076 33.6627 820.532 33.396 819.796 33.396C819.06 33.396 818.516 33.6627 818.164 34.196C817.822 34.7187 817.652 35.4547 817.652 36.404C817.652 37.3533 817.822 38.0947 818.164 38.628C818.516 39.1613 819.06 39.428 819.796 39.428Z" fill="#0B2C4C"/>
<path d="M891.783 28.996C892.05 28.9427 892.423 28.9 892.903 28.868C893.383 28.836 893.869 28.82 894.359 28.82C894.967 28.82 895.522 28.8733 896.023 28.98C896.525 29.0867 896.951 29.2627 897.303 29.508C897.666 29.7427 897.943 30.052 898.135 30.436C898.338 30.8093 898.439 31.268 898.439 31.812C898.439 32.1427 898.386 32.452 898.279 32.74C898.183 33.0173 898.05 33.268 897.879 33.492C897.709 33.7053 897.511 33.8867 897.287 34.036C897.063 34.1747 896.834 34.276 896.599 34.34C896.898 34.372 897.197 34.452 897.495 34.58C897.805 34.708 898.082 34.8893 898.327 35.124C898.573 35.3587 898.77 35.6573 898.919 36.02C899.079 36.372 899.159 36.804 899.159 37.316C899.159 37.9347 899.037 38.4627 898.791 38.9C898.546 39.3267 898.21 39.6733 897.783 39.94C897.367 40.2067 896.871 40.3987 896.295 40.516C895.73 40.6333 895.122 40.692 894.471 40.692C894.066 40.692 893.623 40.6707 893.143 40.628C892.663 40.596 892.21 40.5533 891.783 40.5V28.996ZM893.399 39.236C893.549 39.2573 893.735 39.2733 893.959 39.284C894.194 39.2947 894.423 39.3 894.647 39.3C895.031 39.3 895.389 39.268 895.719 39.204C896.061 39.14 896.359 39.0333 896.615 38.884C896.871 38.724 897.074 38.516 897.223 38.26C897.373 37.9933 897.447 37.6573 897.447 37.252C897.447 36.8573 897.378 36.5267 897.239 36.26C897.101 35.9827 896.909 35.764 896.663 35.604C896.429 35.4333 896.146 35.316 895.815 35.252C895.485 35.1773 895.127 35.14 894.743 35.14H893.399V39.236ZM894.567 33.796C895.293 33.796 895.847 33.6413 896.231 33.332C896.615 33.012 896.807 32.5373 896.807 31.908C896.807 31.3 896.599 30.8467 896.183 30.548C895.778 30.2493 895.223 30.1 894.519 30.1C894.306 30.1 894.098 30.1053 893.895 30.116C893.703 30.1267 893.538 30.1427 893.399 30.164V33.796H894.567ZM901.123 28.772C901.24 28.7507 901.368 28.7347 901.507 28.724C901.656 28.7133 901.79 28.708 901.907 28.708C902.024 28.708 902.152 28.7133 902.291 28.724C902.44 28.7347 902.574 28.7507 902.691 28.772V38.02C902.691 38.3187 902.718 38.5533 902.771 38.724C902.824 38.8947 902.894 39.028 902.979 39.124C903.075 39.2093 903.182 39.268 903.299 39.3C903.427 39.3213 903.56 39.332 903.699 39.332C903.795 39.332 903.902 39.3267 904.019 39.316C904.147 39.3053 904.254 39.2893 904.339 39.268C904.435 39.6413 904.483 40.0467 904.483 40.484C904.334 40.5373 904.152 40.5693 903.939 40.58C903.726 40.6013 903.528 40.612 903.347 40.612C903.038 40.612 902.75 40.5747 902.483 40.5C902.216 40.4253 901.982 40.3027 901.779 40.132C901.576 39.9613 901.416 39.732 901.299 39.444C901.182 39.156 901.123 38.7987 901.123 38.372V28.772ZM909.249 40.692C908.609 40.692 908.049 40.5853 907.569 40.372C907.089 40.148 906.689 39.844 906.369 39.46C906.049 39.076 905.809 38.6227 905.649 38.1C905.499 37.5773 905.425 37.012 905.425 36.404C905.425 35.796 905.499 35.2307 905.649 34.708C905.809 34.1853 906.049 33.732 906.369 33.348C906.689 32.964 907.089 32.66 907.569 32.436C908.049 32.212 908.609 32.1 909.249 32.1C909.889 32.1 910.449 32.212 910.929 32.436C911.409 32.66 911.809 32.964 912.129 33.348C912.449 33.732 912.683 34.1853 912.833 34.708C912.993 35.2307 913.073 35.796 913.073 36.404C913.073 37.012 912.993 37.5773 912.833 38.1C912.683 38.6227 912.449 39.076 912.129 39.46C911.809 39.844 911.409 40.148 910.929 40.372C910.449 40.5853 909.889 40.692 909.249 40.692ZM909.249 39.428C909.985 39.428 910.529 39.1613 910.881 38.628C911.233 38.0947 911.409 37.3533 911.409 36.404C911.409 35.4547 911.233 34.7187 910.881 34.196C910.529 33.6627 909.985 33.396 909.249 33.396C908.513 33.396 907.969 33.6627 907.617 34.196C907.275 34.7187 907.105 35.4547 907.105 36.404C907.105 37.3533 907.275 38.0947 907.617 38.628C907.969 39.1613 908.513 39.428 909.249 39.428ZM919.477 39.444C920.426 39.4653 921.114 39.668 921.541 40.052C921.968 40.436 922.181 40.964 922.181 41.636C922.181 42.0733 922.069 42.4627 921.845 42.804C921.621 43.156 921.312 43.4547 920.917 43.7C920.522 43.956 920.053 44.148 919.509 44.276C918.976 44.4147 918.394 44.484 917.765 44.484C916.666 44.484 915.829 44.3133 915.253 43.972C914.677 43.6307 914.389 43.092 914.389 42.356C914.389 41.9187 914.506 41.524 914.741 41.172C914.976 40.8307 915.28 40.5587 915.653 40.356C915.44 40.2173 915.258 40.0467 915.109 39.844C914.97 39.6307 914.901 39.3693 914.901 39.06C914.901 38.6653 914.986 38.324 915.157 38.036C915.338 37.748 915.578 37.492 915.877 37.268C915.525 37.0227 915.242 36.708 915.029 36.324C914.816 35.9293 914.709 35.4867 914.709 34.996C914.709 34.5907 914.784 34.212 914.933 33.86C915.082 33.508 915.296 33.204 915.573 32.948C915.861 32.6813 916.213 32.4733 916.629 32.324C917.045 32.1747 917.52 32.1 918.053 32.1C918.533 32.1 918.965 32.1693 919.349 32.308C919.744 32.4467 920.08 32.6227 920.357 32.836C920.57 32.6653 920.858 32.5267 921.221 32.42C921.584 32.3027 921.984 32.244 922.421 32.244C922.464 32.4467 922.485 32.6707 922.485 32.916C922.485 33.0333 922.48 33.156 922.469 33.284C922.458 33.412 922.442 33.54 922.421 33.668H920.981C921.098 33.8493 921.189 34.0467 921.253 34.26C921.317 34.4733 921.349 34.7187 921.349 34.996C921.349 35.4333 921.269 35.828 921.109 36.18C920.949 36.532 920.72 36.836 920.421 37.092C920.133 37.3373 919.786 37.5293 919.381 37.668C918.976 37.796 918.533 37.86 918.053 37.86C917.616 37.86 917.221 37.812 916.869 37.716C916.72 37.8013 916.57 37.9347 916.421 38.116C916.282 38.2867 916.213 38.4733 916.213 38.676C916.213 38.868 916.282 39.0387 916.421 39.188C916.56 39.3267 916.869 39.4013 917.349 39.412L919.477 39.444ZM917.317 40.708C916.837 40.6973 916.474 40.8253 916.229 41.092C915.994 41.3587 915.877 41.6787 915.877 42.052C915.877 42.2867 915.925 42.4787 916.021 42.628C916.117 42.7773 916.25 42.8947 916.421 42.98C916.602 43.076 916.81 43.14 917.045 43.172C917.29 43.2147 917.557 43.236 917.845 43.236C918.698 43.236 919.365 43.092 919.845 42.804C920.325 42.5267 920.565 42.1747 920.565 41.748C920.565 41.428 920.464 41.1827 920.261 41.012C920.058 40.8413 919.685 40.7507 919.141 40.74L917.317 40.708ZM918.053 36.708C918.629 36.708 919.056 36.548 919.333 36.228C919.61 35.908 919.749 35.4973 919.749 34.996C919.749 34.484 919.61 34.068 919.333 33.748C919.056 33.4173 918.629 33.252 918.053 33.252C917.477 33.252 917.05 33.4173 916.773 33.748C916.506 34.068 916.373 34.484 916.373 34.996C916.373 35.4973 916.506 35.908 916.773 36.228C917.05 36.548 917.477 36.708 918.053 36.708Z" fill="#0B2C4C"/>
<path d="M973.852 29.4315C973.969 29.4102 974.113 29.3942 974.284 29.3835C974.455 29.3729 974.609 29.3675 974.748 29.3675C974.887 29.3675 975.036 29.3729 975.196 29.3835C975.367 29.3942 975.521 29.4102 975.66 29.4315L978.572 39.2715L981.468 29.4315C981.756 29.3995 982.049 29.3835 982.348 29.3835C982.487 29.3835 982.631 29.3889 982.78 29.3995C982.94 29.3995 983.084 29.4102 983.212 29.4315L979.468 40.9355C979.329 40.9462 979.175 40.9569 979.004 40.9675C978.833 40.9889 978.673 40.9995 978.524 40.9995C978.375 40.9995 978.215 40.9889 978.044 40.9675C977.884 40.9569 977.729 40.9462 977.58 40.9355L973.852 29.4315ZM983.856 34.6955C984.144 34.0342 984.571 33.5115 985.136 33.1275C985.712 32.7329 986.438 32.5355 987.312 32.5355C988.07 32.5355 988.699 32.7009 989.2 33.0315C989.712 33.3622 990.096 33.8155 990.352 34.3915C990.619 34.9569 990.752 35.6022 990.752 36.3275C990.752 36.4662 990.747 36.6209 990.736 36.7915C990.726 36.9622 990.715 37.1062 990.704 37.2235H985.12C985.142 38.1089 985.376 38.7649 985.824 39.1915C986.272 39.6075 986.923 39.8155 987.776 39.8155C988.534 39.8155 989.254 39.6822 989.936 39.4155C990.022 39.5755 990.091 39.7729 990.144 40.0075C990.198 40.2315 990.23 40.4555 990.24 40.6795C989.888 40.8182 989.499 40.9249 989.072 40.9995C988.656 41.0849 988.192 41.1275 987.68 41.1275C986.688 41.1275 985.878 40.9462 985.248 40.5835C984.63 40.2209 984.171 39.7195 983.872 39.0795C983.584 38.4395 983.44 37.7089 983.44 36.8875C983.44 36.0769 983.579 35.3462 983.856 34.6955ZM989.184 36.0395C989.184 35.6342 989.115 35.2662 988.976 34.9355C988.838 34.5942 988.63 34.3222 988.352 34.1195C988.075 33.9062 987.712 33.7995 987.264 33.7995C986.614 33.7995 986.112 33.9969 985.76 34.3915C985.419 34.7862 985.211 35.3355 985.136 36.0395H989.184ZM992.827 32.7275C992.944 32.7062 993.056 32.6902 993.163 32.6795C993.28 32.6689 993.392 32.6635 993.499 32.6635C993.616 32.6635 993.734 32.6689 993.851 32.6795C993.968 32.6902 994.075 32.7062 994.171 32.7275C994.203 32.8875 994.235 33.1009 994.267 33.3675C994.299 33.6235 994.315 33.8422 994.315 34.0235C994.539 33.6609 994.832 33.3462 995.195 33.0795C995.568 32.8129 996.043 32.6795 996.619 32.6795C996.704 32.6795 996.79 32.6849 996.875 32.6955C996.971 32.6955 997.051 32.7009 997.115 32.7115C997.136 32.8075 997.152 32.9089 997.163 33.0155C997.174 33.1222 997.179 33.2342 997.179 33.3515C997.179 33.5969 997.152 33.8635 997.099 34.1515C997.014 34.1302 996.923 34.1195 996.827 34.1195C996.742 34.1195 996.672 34.1195 996.619 34.1195C996.246 34.1195 995.888 34.1942 995.547 34.3435C995.206 34.4929 994.928 34.7649 994.715 35.1595C994.512 35.5542 994.411 36.1195 994.411 36.8555V40.9355C994.294 40.9569 994.16 40.9729 994.011 40.9835C993.872 40.9942 993.744 40.9995 993.627 40.9995C993.52 40.9995 993.392 40.9942 993.243 40.9835C993.094 40.9729 992.955 40.9569 992.827 40.9355V32.7275ZM1002.58 32.7275C1002.69 32.7062 1002.81 32.6902 1002.91 32.6795C1003.03 32.6689 1003.15 32.6635 1003.26 32.6635C1003.38 32.6635 1003.49 32.6689 1003.6 32.6795C1003.71 32.6902 1003.81 32.7062 1003.92 32.7275C1003.95 32.8875 1003.98 33.1009 1004.02 33.3675C1004.05 33.6235 1004.06 33.8422 1004.06 34.0235C1004.26 33.6502 1004.55 33.3089 1004.94 32.9995C1005.34 32.6902 1005.85 32.5355 1006.46 32.5355C1007.09 32.5355 1007.58 32.6689 1007.94 32.9355C1008.29 33.1915 1008.56 33.5542 1008.74 34.0235C1008.96 33.6502 1009.26 33.3089 1009.65 32.9995C1010.03 32.6902 1010.53 32.5355 1011.14 32.5355C1012.09 32.5355 1012.77 32.8022 1013.2 33.3355C1013.64 33.8689 1013.86 34.6582 1013.86 35.7035V40.9355C1013.74 40.9462 1013.61 40.9569 1013.46 40.9675C1013.31 40.9889 1013.17 40.9995 1013.06 40.9995C1012.95 40.9995 1012.82 40.9889 1012.67 40.9675C1012.52 40.9569 1012.39 40.9462 1012.27 40.9355V36.1675C1012.27 35.4315 1012.16 34.8822 1011.92 34.5195C1011.7 34.1462 1011.33 33.9595 1010.83 33.9595C1010.3 33.9595 1009.86 34.1569 1009.52 34.5515C1009.18 34.9462 1009.01 35.5275 1009.01 36.2955V40.9355C1008.89 40.9462 1008.76 40.9569 1008.61 40.9675C1008.47 40.9889 1008.34 40.9995 1008.22 40.9995C1008.12 40.9995 1007.99 40.9889 1007.84 40.9675C1007.69 40.9569 1007.56 40.9462 1007.44 40.9355V36.0555C1007.44 34.6262 1006.99 33.9115 1006.1 33.9115C1005.56 33.9115 1005.1 34.1462 1004.72 34.6155C1004.35 35.0849 1004.16 35.7942 1004.16 36.7435V40.9355C1004.04 40.9462 1003.91 40.9569 1003.76 40.9675C1003.62 40.9889 1003.49 40.9995 1003.38 40.9995C1003.27 40.9995 1003.14 40.9889 1002.98 40.9675C1002.83 40.9569 1002.69 40.9462 1002.58 40.9355V32.7275ZM1022.12 40.7275C1021.76 40.8129 1021.31 40.8982 1020.76 40.9835C1020.23 41.0795 1019.68 41.1275 1019.13 41.1275C1018.09 41.1275 1017.27 40.9249 1016.65 40.5195C1016.03 40.1142 1015.72 39.4422 1015.72 38.5035C1015.72 37.8849 1015.88 37.3729 1016.2 36.9675C1016.52 36.5622 1016.94 36.2582 1017.47 36.0555C1018 35.8529 1018.57 35.7515 1019.18 35.7515C1019.52 35.7515 1019.8 35.7622 1020.03 35.7835C1020.25 35.7942 1020.43 35.8102 1020.57 35.8315V35.5275C1020.57 34.8982 1020.4 34.4609 1020.07 34.2155C1019.75 33.9702 1019.29 33.8475 1018.7 33.8475C1018.33 33.8475 1017.99 33.8795 1017.66 33.9435C1017.33 33.9969 1017.01 34.0715 1016.7 34.1675C1016.49 33.8155 1016.39 33.3942 1016.39 32.9035C1016.76 32.7862 1017.16 32.6955 1017.59 32.6315C1018.03 32.5675 1018.45 32.5355 1018.86 32.5355C1019.92 32.5355 1020.73 32.7809 1021.29 33.2715C1021.84 33.7622 1022.12 34.5355 1022.12 35.5915V40.7275ZM1019.96 37.0155C1019.72 36.9942 1019.51 36.9835 1019.34 36.9835C1018.69 36.9835 1018.19 37.1062 1017.83 37.3515C1017.48 37.5969 1017.31 37.9702 1017.31 38.4715C1017.31 38.8982 1017.4 39.2075 1017.59 39.3995C1017.8 39.5915 1018.04 39.7142 1018.31 39.7675C1018.59 39.8209 1018.86 39.8475 1019.11 39.8475C1019.64 39.8475 1020.12 39.7942 1020.57 39.6875V37.0795C1020.41 37.0582 1020.21 37.0369 1019.96 37.0155ZM1019.91 29.3995C1020.07 29.3782 1020.24 29.3622 1020.41 29.3515C1020.59 29.3409 1020.77 29.3355 1020.94 29.3355C1021.13 29.3355 1021.31 29.3409 1021.47 29.3515C1021.63 29.3622 1021.78 29.3782 1021.93 29.3995L1019.66 31.4315C1019.55 31.4422 1019.42 31.4582 1019.27 31.4795C1019.13 31.4902 1018.98 31.4955 1018.81 31.4955C1018.69 31.4955 1018.57 31.4902 1018.44 31.4795C1018.32 31.4689 1018.2 31.4529 1018.07 31.4315L1019.91 29.3995ZM1024.98 33.1755C1025.5 32.7489 1026.26 32.5355 1027.25 32.5355C1027.67 32.5355 1028.07 32.5782 1028.47 32.6635C1028.87 32.7382 1029.22 32.8289 1029.52 32.9355C1029.47 33.3729 1029.36 33.7835 1029.19 34.1675C1028.95 34.0822 1028.67 34.0022 1028.34 33.9275C1028.02 33.8422 1027.67 33.7995 1027.3 33.7995C1026.9 33.7995 1026.55 33.8689 1026.24 34.0075C1025.94 34.1462 1025.79 34.3915 1025.79 34.7435C1025.79 35.1062 1025.93 35.3675 1026.21 35.5275C1026.49 35.6875 1026.81 35.8315 1027.19 35.9595L1027.89 36.1995C1028.23 36.3169 1028.54 36.4662 1028.82 36.6475C1029.11 36.8182 1029.34 37.0529 1029.51 37.3515C1029.68 37.6395 1029.76 38.0182 1029.76 38.4875C1029.76 39.0102 1029.62 39.4689 1029.35 39.8635C1029.07 40.2582 1028.67 40.5675 1028.16 40.7915C1027.66 41.0155 1027.07 41.1275 1026.4 41.1275C1025.89 41.1275 1025.44 41.0902 1025.06 41.0155C1024.67 40.9515 1024.32 40.8609 1023.99 40.7435C1024.01 40.5302 1024.05 40.3115 1024.11 40.0875C1024.19 39.8635 1024.27 39.6502 1024.35 39.4475C1024.64 39.5542 1024.96 39.6449 1025.31 39.7195C1025.67 39.7942 1026.01 39.8315 1026.34 39.8315C1026.84 39.8315 1027.27 39.7249 1027.63 39.5115C1028 39.2982 1028.18 38.9942 1028.18 38.5995C1028.18 38.3115 1028.11 38.0929 1027.97 37.9435C1027.84 37.7835 1027.67 37.6555 1027.44 37.5595C1027.22 37.4529 1026.97 37.3569 1026.71 37.2715L1026.15 37.0635C1025.46 36.8075 1024.97 36.5195 1024.66 36.1995C1024.35 35.8795 1024.19 35.4475 1024.19 34.9035C1024.19 34.1782 1024.46 33.6022 1024.98 33.1755Z" fill="#0B2C4C"/>
<path fill-rule="evenodd" clip-rule="evenodd" d="M1036.83 32.3231C1037.02 32.1345 1037.27 32.0277 1037.53 32.0261C1037.8 32.0245 1038.06 32.1283 1038.24 32.3147L1041.56 35.5881L1044.83 32.2757C1044.92 32.1796 1045.03 32.1028 1045.15 32.0497C1045.27 31.9965 1045.41 31.9682 1045.54 31.9662C1045.67 31.9643 1045.8 31.9888 1045.93 32.0383C1046.05 32.0879 1046.16 32.1615 1046.26 32.2548C1046.35 32.3482 1046.43 32.4594 1046.48 32.582C1046.53 32.7046 1046.55 32.8361 1046.55 32.9689C1046.55 33.1017 1046.53 33.233 1046.47 33.3554C1046.42 33.4777 1046.35 33.5885 1046.25 33.6813L1042.28 37.7049C1042.09 37.8935 1041.84 38.0003 1041.57 38.0019C1041.31 38.0034 1041.05 37.8996 1040.86 37.7133L1036.84 33.7371C1036.65 33.5506 1036.54 33.297 1036.54 33.0318C1036.54 32.7666 1036.64 32.5117 1036.83 32.3231Z" fill="#0B2C4C"/>
<path d="M1081.48 28.996C1081.6 28.9747 1081.74 28.9587 1081.88 28.948C1082.01 28.9373 1082.15 28.932 1082.29 28.932C1082.43 28.932 1082.57 28.9373 1082.71 28.948C1082.85 28.9587 1082.98 28.9747 1083.11 28.996V40.5C1082.98 40.5213 1082.85 40.5373 1082.71 40.548C1082.58 40.5587 1082.44 40.564 1082.29 40.564C1082.15 40.564 1082.01 40.5587 1081.86 40.548C1081.72 40.5373 1081.59 40.5213 1081.48 40.5V28.996ZM1085.8 32.292C1085.92 32.2707 1086.03 32.2547 1086.14 32.244C1086.25 32.2333 1086.37 32.228 1086.49 32.228C1086.61 32.228 1086.71 32.2333 1086.81 32.244C1086.92 32.2547 1087.03 32.2707 1087.14 32.292C1087.18 32.452 1087.21 32.6707 1087.24 32.948C1087.27 33.2147 1087.29 33.4387 1087.29 33.62C1087.4 33.4387 1087.53 33.2573 1087.69 33.076C1087.86 32.8947 1088.05 32.7347 1088.26 32.596C1088.48 32.4467 1088.72 32.3293 1089 32.244C1089.28 32.148 1089.58 32.1 1089.91 32.1C1090.85 32.1 1091.54 32.372 1091.99 32.916C1092.44 33.4493 1092.66 34.244 1092.66 35.3V40.5C1092.55 40.5213 1092.41 40.5373 1092.26 40.548C1092.12 40.5587 1091.98 40.564 1091.86 40.564C1091.75 40.564 1091.61 40.5587 1091.46 40.548C1091.33 40.5373 1091.2 40.5213 1091.08 40.5V35.732C1091.08 34.9747 1090.96 34.42 1090.73 34.068C1090.49 33.7053 1090.12 33.524 1089.61 33.524C1089.31 33.524 1089.03 33.5773 1088.76 33.684C1088.49 33.7907 1088.26 33.956 1088.06 34.18C1087.85 34.404 1087.69 34.6973 1087.56 35.06C1087.44 35.412 1087.38 35.8387 1087.38 36.34V40.5C1087.27 40.5213 1087.13 40.5373 1086.98 40.548C1086.85 40.5587 1086.72 40.564 1086.6 40.564C1086.48 40.564 1086.35 40.5587 1086.2 40.548C1086.05 40.5373 1085.92 40.5213 1085.8 40.5V32.292ZM1095.53 33.54H1094.49C1094.47 33.4547 1094.45 33.3587 1094.44 33.252C1094.43 33.1347 1094.43 33.0227 1094.43 32.916C1094.43 32.8093 1094.43 32.7027 1094.44 32.596C1094.45 32.4787 1094.47 32.3773 1094.49 32.292H1097.08V40.5C1096.97 40.5213 1096.83 40.5373 1096.68 40.548C1096.54 40.5587 1096.42 40.564 1096.3 40.564C1096.19 40.564 1096.06 40.5587 1095.91 40.548C1095.78 40.5373 1095.65 40.5213 1095.53 40.5V33.54ZM1095.18 30.484C1095.16 30.356 1095.14 30.2173 1095.13 30.068C1095.13 29.9187 1095.13 29.7853 1095.13 29.668C1095.13 29.5507 1095.13 29.4173 1095.13 29.268C1095.14 29.1187 1095.16 28.9853 1095.18 28.868C1095.32 28.8467 1095.47 28.8307 1095.63 28.82C1095.79 28.8093 1095.93 28.804 1096.04 28.804C1096.16 28.804 1096.3 28.8093 1096.46 28.82C1096.62 28.8307 1096.76 28.8467 1096.89 28.868C1096.91 28.9853 1096.92 29.1187 1096.92 29.268C1096.93 29.4173 1096.94 29.5507 1096.94 29.668C1096.94 29.7853 1096.93 29.9187 1096.92 30.068C1096.92 30.2173 1096.91 30.356 1096.89 30.484C1096.76 30.5053 1096.62 30.5213 1096.46 30.532C1096.31 30.5427 1096.18 30.548 1096.06 30.548C1095.93 30.548 1095.79 30.5427 1095.63 30.532C1095.47 30.5213 1095.32 30.5053 1095.18 30.484ZM1105.13 39.076C1105.22 39.2253 1105.29 39.412 1105.36 39.636C1105.42 39.86 1105.46 40.0893 1105.47 40.324C1104.84 40.5693 1104.12 40.692 1103.31 40.692C1101.94 40.692 1100.91 40.308 1100.22 39.54C1099.53 38.7613 1099.18 37.716 1099.18 36.404C1099.18 35.796 1099.27 35.2307 1099.44 34.708C1099.61 34.1853 1099.86 33.732 1100.19 33.348C1100.53 32.964 1100.95 32.66 1101.45 32.436C1101.95 32.212 1102.53 32.1 1103.2 32.1C1103.64 32.1 1104.04 32.1267 1104.38 32.18C1104.72 32.2333 1105.05 32.3187 1105.36 32.436C1105.36 32.6173 1105.33 32.8307 1105.28 33.076C1105.23 33.3107 1105.17 33.5187 1105.08 33.7C1104.56 33.5187 1103.96 33.428 1103.29 33.428C1102.47 33.428 1101.86 33.7 1101.45 34.244C1101.05 34.788 1100.84 35.508 1100.84 36.404C1100.84 37.428 1101.07 38.18 1101.53 38.66C1101.99 39.1293 1102.62 39.364 1103.42 39.364C1103.74 39.364 1104.03 39.3427 1104.3 39.3C1104.58 39.2573 1104.85 39.1827 1105.13 39.076ZM1107.78 33.54H1106.74C1106.72 33.4547 1106.7 33.3587 1106.69 33.252C1106.68 33.1347 1106.68 33.0227 1106.68 32.916C1106.68 32.8093 1106.68 32.7027 1106.69 32.596C1106.7 32.4787 1106.72 32.3773 1106.74 32.292H1109.33V40.5C1109.22 40.5213 1109.08 40.5373 1108.93 40.548C1108.79 40.5587 1108.67 40.564 1108.55 40.564C1108.44 40.564 1108.31 40.5587 1108.16 40.548C1108.03 40.5373 1107.9 40.5213 1107.78 40.5V33.54ZM1107.43 30.484C1107.41 30.356 1107.39 30.2173 1107.38 30.068C1107.38 29.9187 1107.38 29.7853 1107.38 29.668C1107.38 29.5507 1107.38 29.4173 1107.38 29.268C1107.39 29.1187 1107.41 28.9853 1107.43 28.868C1107.57 28.8467 1107.72 28.8307 1107.88 28.82C1108.04 28.8093 1108.18 28.804 1108.29 28.804C1108.41 28.804 1108.55 28.8093 1108.71 28.82C1108.87 28.8307 1109.01 28.8467 1109.14 28.868C1109.16 28.9853 1109.17 29.1187 1109.17 29.268C1109.18 29.4173 1109.19 29.5507 1109.19 29.668C1109.19 29.7853 1109.18 29.9187 1109.17 30.068C1109.17 30.2173 1109.16 30.356 1109.14 30.484C1109.01 30.5053 1108.87 30.5213 1108.71 30.532C1108.56 30.5427 1108.43 30.548 1108.31 30.548C1108.18 30.548 1108.04 30.5427 1107.88 30.532C1107.72 30.5213 1107.57 30.5053 1107.43 30.484ZM1116.25 36.644C1116.09 36.6227 1115.88 36.6013 1115.64 36.58C1115.39 36.5587 1115.18 36.548 1115.01 36.548C1114.35 36.548 1113.85 36.6707 1113.49 36.916C1113.15 37.1613 1112.98 37.5347 1112.98 38.036C1112.98 38.356 1113.04 38.6067 1113.16 38.788C1113.28 38.9693 1113.42 39.108 1113.59 39.204C1113.77 39.3 1113.97 39.3587 1114.18 39.38C1114.4 39.4013 1114.6 39.412 1114.79 39.412C1115.04 39.412 1115.29 39.4013 1115.54 39.38C1115.81 39.348 1116.04 39.3053 1116.25 39.252V36.644ZM1116.25 35.092C1116.25 34.4627 1116.09 34.0253 1115.77 33.78C1115.45 33.5347 1114.98 33.412 1114.37 33.412C1114 33.412 1113.65 33.444 1113.32 33.508C1113 33.5613 1112.68 33.636 1112.37 33.732C1112.17 33.38 1112.07 32.9587 1112.07 32.468C1112.43 32.3507 1112.83 32.26 1113.27 32.196C1113.71 32.132 1114.13 32.1 1114.53 32.1C1115.6 32.1 1116.41 32.3453 1116.97 32.836C1117.52 33.316 1117.8 34.0893 1117.8 35.156V40.292C1117.42 40.3773 1116.97 40.4627 1116.44 40.548C1115.9 40.644 1115.36 40.692 1114.81 40.692C1114.28 40.692 1113.81 40.644 1113.38 40.548C1112.97 40.452 1112.61 40.2973 1112.31 40.084C1112.02 39.8707 1111.8 39.5987 1111.64 39.268C1111.48 38.9373 1111.4 38.5373 1111.4 38.068C1111.4 37.6093 1111.49 37.2093 1111.67 36.868C1111.86 36.516 1112.12 36.228 1112.44 36.004C1112.76 35.7693 1113.13 35.5987 1113.54 35.492C1113.96 35.3747 1114.4 35.316 1114.85 35.316C1115.2 35.316 1115.47 35.3267 1115.69 35.348C1115.91 35.3587 1116.1 35.3747 1116.25 35.396V35.092ZM1120.18 32.292C1120.29 32.2707 1120.4 32.2547 1120.51 32.244C1120.62 32.2333 1120.73 32.228 1120.85 32.228C1120.96 32.228 1121.08 32.2333 1121.2 32.244C1121.32 32.2547 1121.42 32.2707 1121.52 32.292C1121.55 32.452 1121.58 32.6653 1121.62 32.932C1121.65 33.188 1121.66 33.4067 1121.66 33.588C1121.89 33.2253 1122.18 32.9107 1122.54 32.644C1122.92 32.3773 1123.39 32.244 1123.97 32.244C1124.05 32.244 1124.14 32.2493 1124.22 32.26C1124.32 32.26 1124.4 32.2653 1124.46 32.276C1124.48 32.372 1124.5 32.4733 1124.51 32.58C1124.52 32.6867 1124.53 32.7987 1124.53 32.916C1124.53 33.044 1124.52 33.1773 1124.5 33.316C1124.48 33.4547 1124.47 33.588 1124.45 33.716C1124.36 33.6947 1124.27 33.684 1124.18 33.684C1124.09 33.684 1124.02 33.684 1123.97 33.684C1123.68 33.684 1123.4 33.7267 1123.14 33.812C1122.88 33.8867 1122.64 34.0253 1122.43 34.228C1122.23 34.4307 1122.06 34.708 1121.94 35.06C1121.82 35.412 1121.76 35.8653 1121.76 36.42V40.5C1121.64 40.5213 1121.51 40.5373 1121.36 40.548C1121.22 40.5587 1121.09 40.564 1120.98 40.564C1120.86 40.564 1120.72 40.5587 1120.58 40.548C1120.44 40.5373 1120.3 40.5213 1120.18 40.5V32.292ZM1129.78 39.012C1130.07 39.1293 1130.38 39.2253 1130.73 39.3C1131.08 39.364 1131.42 39.396 1131.77 39.396C1132.01 39.396 1132.25 39.3693 1132.47 39.316C1132.69 39.2627 1132.89 39.1827 1133.05 39.076C1133.22 38.9693 1133.35 38.8413 1133.45 38.692C1133.55 38.532 1133.61 38.356 1133.61 38.164C1133.61 37.9507 1133.56 37.7747 1133.48 37.636C1133.4 37.4973 1133.3 37.38 1133.16 37.284C1133.03 37.188 1132.87 37.108 1132.69 37.044C1132.52 36.9693 1132.34 36.9 1132.13 36.836L1131.57 36.628C1130.89 36.372 1130.39 36.084 1130.09 35.764C1129.78 35.444 1129.62 35.012 1129.62 34.468C1129.62 33.7427 1129.88 33.1667 1130.39 32.74C1130.91 32.3133 1131.67 32.1 1132.68 32.1C1133.09 32.1 1133.5 32.1427 1133.89 32.228C1134.3 32.3027 1134.65 32.3933 1134.95 32.5C1134.93 32.7133 1134.89 32.9267 1134.82 33.14C1134.77 33.3533 1134.7 33.5507 1134.61 33.732C1134.38 33.6467 1134.1 33.5667 1133.77 33.492C1133.45 33.4067 1133.1 33.364 1132.73 33.364C1132.33 33.364 1131.98 33.4333 1131.67 33.572C1131.37 33.7107 1131.22 33.956 1131.22 34.308C1131.22 34.4893 1131.26 34.644 1131.33 34.772C1131.41 34.9 1131.51 35.012 1131.64 35.108C1131.77 35.1933 1131.91 35.268 1132.07 35.332C1132.24 35.396 1132.42 35.46 1132.61 35.524L1133.32 35.764C1133.57 35.8493 1133.81 35.9507 1134.04 36.068C1134.27 36.1853 1134.47 36.3347 1134.63 36.516C1134.8 36.6867 1134.93 36.9 1135.03 37.156C1135.14 37.4013 1135.19 37.7 1135.19 38.052C1135.19 38.4467 1135.11 38.8093 1134.95 39.14C1134.79 39.46 1134.56 39.7373 1134.26 39.972C1133.97 40.196 1133.62 40.372 1133.21 40.5C1132.79 40.628 1132.33 40.692 1131.83 40.692C1131.32 40.692 1130.87 40.6547 1130.49 40.58C1130.1 40.516 1129.74 40.4253 1129.41 40.308C1129.43 40.0947 1129.48 39.8813 1129.54 39.668C1129.62 39.444 1129.7 39.2253 1129.78 39.012ZM1138.39 36.788C1138.41 37.684 1138.64 38.34 1139.08 38.756C1139.53 39.172 1140.18 39.38 1141.05 39.38C1141.8 39.38 1142.52 39.2467 1143.21 38.98C1143.29 39.14 1143.36 39.3373 1143.41 39.572C1143.47 39.796 1143.5 40.02 1143.51 40.244C1143.16 40.3933 1142.77 40.5053 1142.34 40.58C1141.93 40.6547 1141.46 40.692 1140.95 40.692C1140.2 40.692 1139.56 40.5907 1139.03 40.388C1138.5 40.1747 1138.05 39.8813 1137.7 39.508C1137.36 39.124 1137.11 38.676 1136.95 38.164C1136.79 37.6413 1136.71 37.0707 1136.71 36.452C1136.71 35.844 1136.79 35.2787 1136.93 34.756C1137.09 34.2227 1137.33 33.764 1137.65 33.38C1137.97 32.9853 1138.37 32.676 1138.85 32.452C1139.35 32.2173 1139.92 32.1 1140.58 32.1C1141.15 32.1 1141.64 32.196 1142.07 32.388C1142.5 32.58 1142.85 32.8467 1143.14 33.188C1143.43 33.5187 1143.65 33.9187 1143.8 34.388C1143.95 34.8467 1144.02 35.348 1144.02 35.892C1144.02 36.0413 1144.02 36.2013 1144.01 36.372C1144 36.532 1143.99 36.6707 1143.97 36.788H1138.39ZM1142.45 35.604C1142.45 35.3053 1142.41 35.0227 1142.33 34.756C1142.25 34.4787 1142.13 34.2387 1141.97 34.036C1141.83 33.8333 1141.63 33.6733 1141.38 33.556C1141.15 33.428 1140.87 33.364 1140.53 33.364C1139.88 33.364 1139.38 33.5613 1139.03 33.956C1138.69 34.3507 1138.48 34.9 1138.41 35.604H1142.45ZM1145.95 39.012C1146.24 39.1293 1146.56 39.2253 1146.9 39.3C1147.25 39.364 1147.6 39.396 1147.94 39.396C1148.18 39.396 1148.42 39.3693 1148.64 39.316C1148.87 39.2627 1149.06 39.1827 1149.22 39.076C1149.39 38.9693 1149.52 38.8413 1149.62 38.692C1149.72 38.532 1149.78 38.356 1149.78 38.164C1149.78 37.9507 1149.73 37.7747 1149.65 37.636C1149.57 37.4973 1149.47 37.38 1149.33 37.284C1149.2 37.188 1149.05 37.108 1148.87 37.044C1148.69 36.9693 1148.51 36.9 1148.31 36.836L1147.75 36.628C1147.06 36.372 1146.57 36.084 1146.26 35.764C1145.95 35.444 1145.79 35.012 1145.79 34.468C1145.79 33.7427 1146.05 33.1667 1146.56 32.74C1147.08 32.3133 1147.85 32.1 1148.85 32.1C1149.27 32.1 1149.67 32.1427 1150.07 32.228C1150.47 32.3027 1150.82 32.3933 1151.12 32.5C1151.1 32.7133 1151.06 32.9267 1150.99 33.14C1150.94 33.3533 1150.87 33.5507 1150.79 33.732C1150.55 33.6467 1150.27 33.5667 1149.94 33.492C1149.62 33.4067 1149.27 33.364 1148.9 33.364C1148.5 33.364 1148.15 33.4333 1147.84 33.572C1147.54 33.7107 1147.39 33.956 1147.39 34.308C1147.39 34.4893 1147.43 34.644 1147.51 34.772C1147.58 34.9 1147.68 35.012 1147.81 35.108C1147.94 35.1933 1148.08 35.268 1148.24 35.332C1148.41 35.396 1148.59 35.46 1148.79 35.524L1149.49 35.764C1149.75 35.8493 1149.99 35.9507 1150.21 36.068C1150.44 36.1853 1150.64 36.3347 1150.8 36.516C1150.97 36.6867 1151.11 36.9 1151.2 37.156C1151.31 37.4013 1151.36 37.7 1151.36 38.052C1151.36 38.4467 1151.28 38.8093 1151.12 39.14C1150.96 39.46 1150.73 39.7373 1150.43 39.972C1150.15 40.196 1149.79 40.372 1149.38 40.5C1148.96 40.628 1148.5 40.692 1148 40.692C1147.49 40.692 1147.04 40.6547 1146.66 40.58C1146.27 40.516 1145.92 40.4253 1145.59 40.308C1145.61 40.0947 1145.65 39.8813 1145.71 39.668C1145.79 39.444 1145.87 39.2253 1145.95 39.012ZM1153.86 33.54H1152.82C1152.8 33.4547 1152.78 33.3587 1152.77 33.252C1152.76 33.1347 1152.75 33.0227 1152.75 32.916C1152.75 32.8093 1152.76 32.7027 1152.77 32.596C1152.78 32.4787 1152.8 32.3773 1152.82 32.292H1155.41V40.5C1155.29 40.5213 1155.16 40.5373 1155.01 40.548C1154.87 40.5587 1154.74 40.564 1154.63 40.564C1154.52 40.564 1154.39 40.5587 1154.24 40.548C1154.1 40.5373 1153.98 40.5213 1153.86 40.5V33.54ZM1153.51 30.484C1153.49 30.356 1153.47 30.2173 1153.46 30.068C1153.46 29.9187 1153.46 29.7853 1153.46 29.668C1153.46 29.5507 1153.46 29.4173 1153.46 29.268C1153.47 29.1187 1153.49 28.9853 1153.51 28.868C1153.65 28.8467 1153.79 28.8307 1153.95 28.82C1154.11 28.8093 1154.25 28.804 1154.37 28.804C1154.49 28.804 1154.63 28.8093 1154.79 28.82C1154.95 28.8307 1155.09 28.8467 1155.22 28.868C1155.24 28.9853 1155.25 29.1187 1155.25 29.268C1155.26 29.4173 1155.27 29.5507 1155.27 29.668C1155.27 29.7853 1155.26 29.9187 1155.25 30.068C1155.25 30.2173 1155.24 30.356 1155.22 30.484C1155.09 30.5053 1154.95 30.5213 1154.79 30.532C1154.64 30.5427 1154.5 30.548 1154.39 30.548C1154.26 30.548 1154.11 30.5427 1153.95 30.532C1153.79 30.5213 1153.65 30.5053 1153.51 30.484ZM1161.32 40.692C1160.68 40.692 1160.12 40.5853 1159.64 40.372C1159.16 40.148 1158.76 39.844 1158.44 39.46C1158.12 39.076 1157.88 38.6227 1157.72 38.1C1157.57 37.5773 1157.49 37.012 1157.49 36.404C1157.49 35.796 1157.57 35.2307 1157.72 34.708C1157.88 34.1853 1158.12 33.732 1158.44 33.348C1158.76 32.964 1159.16 32.66 1159.64 32.436C1160.12 32.212 1160.68 32.1 1161.32 32.1C1161.96 32.1 1162.52 32.212 1163 32.436C1163.48 32.66 1163.88 32.964 1164.2 33.348C1164.52 33.732 1164.75 34.1853 1164.9 34.708C1165.06 35.2307 1165.14 35.796 1165.14 36.404C1165.14 37.012 1165.06 37.5773 1164.9 38.1C1164.75 38.6227 1164.52 39.076 1164.2 39.46C1163.88 39.844 1163.48 40.148 1163 40.372C1162.52 40.5853 1161.96 40.692 1161.32 40.692ZM1161.32 39.428C1162.05 39.428 1162.6 39.1613 1162.95 38.628C1163.3 38.0947 1163.48 37.3533 1163.48 36.404C1163.48 35.4547 1163.3 34.7187 1162.95 34.196C1162.6 33.6627 1162.05 33.396 1161.32 33.396C1160.58 33.396 1160.04 33.6627 1159.68 34.196C1159.34 34.7187 1159.17 35.4547 1159.17 36.404C1159.17 37.3533 1159.34 38.0947 1159.68 38.628C1160.04 39.1613 1160.58 39.428 1161.32 39.428ZM1161.41 30.996C1161.29 31.0173 1161.17 31.0333 1161.03 31.044C1160.89 31.0547 1160.73 31.06 1160.56 31.06C1160.45 31.06 1160.32 31.0547 1160.2 31.044C1160.08 31.0333 1159.96 31.0173 1159.83 30.996L1161.67 28.964C1161.83 28.9427 1161.99 28.9267 1162.16 28.916C1162.33 28.9053 1162.51 28.9 1162.69 28.9C1162.88 28.9 1163.06 28.9053 1163.22 28.916C1163.38 28.9267 1163.53 28.9427 1163.68 28.964L1161.41 30.996ZM1167.22 32.292C1167.34 32.2707 1167.45 32.2547 1167.56 32.244C1167.68 32.2333 1167.79 32.228 1167.91 32.228C1168.03 32.228 1168.13 32.2333 1168.23 32.244C1168.34 32.2547 1168.45 32.2707 1168.57 32.292C1168.6 32.452 1168.63 32.6707 1168.66 32.948C1168.69 33.2147 1168.71 33.4387 1168.71 33.62C1168.82 33.4387 1168.95 33.2573 1169.11 33.076C1169.28 32.8947 1169.47 32.7347 1169.69 32.596C1169.9 32.4467 1170.15 32.3293 1170.42 32.244C1170.7 32.148 1171 32.1 1171.33 32.1C1172.27 32.1 1172.97 32.372 1173.41 32.916C1173.86 33.4493 1174.09 34.244 1174.09 35.3V40.5C1173.97 40.5213 1173.84 40.5373 1173.69 40.548C1173.54 40.5587 1173.4 40.564 1173.29 40.564C1173.17 40.564 1173.04 40.5587 1172.89 40.548C1172.75 40.5373 1172.62 40.5213 1172.5 40.5V35.732C1172.5 34.9747 1172.39 34.42 1172.15 34.068C1171.92 33.7053 1171.54 33.524 1171.03 33.524C1170.73 33.524 1170.45 33.5773 1170.18 33.684C1169.92 33.7907 1169.68 33.956 1169.48 34.18C1169.28 34.404 1169.11 34.6973 1168.98 35.06C1168.87 35.412 1168.81 35.8387 1168.81 36.34V40.5C1168.69 40.5213 1168.56 40.5373 1168.41 40.548C1168.27 40.5587 1168.14 40.564 1168.02 40.564C1167.91 40.564 1167.77 40.5587 1167.62 40.548C1167.47 40.5373 1167.34 40.5213 1167.22 40.5V32.292Z" fill="#0B2C4C"/>
<path d="M1207.73 23.6992C1207.41 23.6992 1207.11 23.8256 1206.88 24.0507C1206.66 24.2757 1206.53 24.581 1206.53 24.8992C1206.53 25.2175 1206.66 25.5227 1206.88 25.7477C1207.11 25.9728 1207.41 26.0992 1207.73 26.0992H1209.19L1209.56 27.5656C1209.56 27.5825 1209.57 27.5993 1209.57 27.616L1211.2 34.132L1210.13 35.2024C1208.62 36.7144 1209.69 39.2992 1211.83 39.2992H1222.13C1222.45 39.2992 1222.75 39.1728 1222.98 38.9477C1223.2 38.7227 1223.33 38.4175 1223.33 38.0992C1223.33 37.781 1223.2 37.4757 1222.98 37.2507C1222.75 37.0256 1222.45 36.8992 1222.13 36.8992H1211.83L1213.03 35.6992H1220.93C1221.15 35.6991 1221.37 35.637 1221.56 35.5198C1221.75 35.4026 1221.9 35.2349 1222 35.0356L1225.6 27.8356C1225.69 27.6527 1225.74 27.4495 1225.73 27.2452C1225.72 27.041 1225.66 26.8424 1225.55 26.6685C1225.44 26.4945 1225.29 26.3509 1225.11 26.2513C1224.94 26.1517 1224.73 26.0993 1224.53 26.0992H1211.67L1211.29 24.6076C1211.23 24.3481 1211.08 24.1178 1210.87 23.9532C1210.66 23.7886 1210.4 23.6992 1210.13 23.6992H1207.73ZM1223.33 42.2992C1223.33 42.7766 1223.14 43.2344 1222.8 43.572C1222.47 43.9096 1222.01 44.0992 1221.53 44.0992C1221.05 44.0992 1220.59 43.9096 1220.26 43.572C1219.92 43.2344 1219.73 42.7766 1219.73 42.2992C1219.73 41.8218 1219.92 41.364 1220.26 41.0264C1220.59 40.6889 1221.05 40.4992 1221.53 40.4992C1222.01 40.4992 1222.47 40.6889 1222.8 41.0264C1223.14 41.364 1223.33 41.8218 1223.33 42.2992ZM1211.93 44.0992C1212.41 44.0992 1212.87 43.9096 1213.2 43.572C1213.54 43.2344 1213.73 42.7766 1213.73 42.2992C1213.73 41.8218 1213.54 41.364 1213.2 41.0264C1212.87 40.6889 1212.41 40.4992 1211.93 40.4992C1211.45 40.4992 1210.99 40.6889 1210.66 41.0264C1210.32 41.364 1210.13 41.8218 1210.13 42.2992C1210.13 42.7766 1210.32 43.2344 1210.66 43.572C1210.99 43.9096 1211.45 44.0992 1211.93 44.0992Z" fill="#0B2C4C"/>
<path d="M1236.96 42.672C1236.71 42.3093 1236.47 41.8667 1236.24 41.344C1236.02 40.832 1235.81 40.256 1235.63 39.616C1235.45 38.976 1235.3 38.2827 1235.18 37.536C1235.08 36.7787 1235.02 35.9787 1235.02 35.136C1235.02 34.2933 1235.08 33.4933 1235.18 32.736C1235.3 31.9787 1235.45 31.28 1235.63 30.64C1235.81 30 1236.02 29.424 1236.24 28.912C1236.47 28.4 1236.71 27.9573 1236.96 27.584C1237.04 27.5627 1237.15 27.5467 1237.28 27.536C1237.42 27.5253 1237.56 27.52 1237.71 27.52C1237.86 27.52 1238 27.5253 1238.14 27.536C1238.28 27.5467 1238.41 27.5627 1238.53 27.584C1238.4 27.808 1238.23 28.1387 1238.02 28.576C1237.8 29.0027 1237.59 29.536 1237.38 30.176C1237.17 30.8053 1237 31.536 1236.85 32.368C1236.7 33.1893 1236.62 34.112 1236.62 35.136C1236.62 36.1493 1236.7 37.072 1236.85 37.904C1237 38.736 1237.17 39.4667 1237.38 40.096C1237.59 40.7253 1237.8 41.2533 1238.02 41.68C1238.23 42.1173 1238.4 42.448 1238.53 42.672C1238.41 42.6933 1238.28 42.7093 1238.13 42.72C1237.98 42.7307 1237.83 42.736 1237.68 42.736C1237.54 42.736 1237.41 42.7307 1237.28 42.72C1237.15 42.7093 1237.04 42.6933 1236.96 42.672ZM1244.17 29.52C1244.84 29.52 1245.42 29.6533 1245.93 29.92C1246.44 30.1867 1246.86 30.56 1247.19 31.04C1247.53 31.5093 1247.78 32.0693 1247.94 32.72C1248.11 33.3707 1248.2 34.0853 1248.2 34.864C1248.2 35.632 1248.11 36.3467 1247.94 37.008C1247.77 37.6587 1247.51 38.2187 1247.17 38.688C1246.84 39.1573 1246.42 39.5253 1245.91 39.792C1245.4 40.0587 1244.81 40.192 1244.13 40.192C1243.46 40.192 1242.87 40.0587 1242.37 39.792C1241.87 39.5253 1241.45 39.1573 1241.11 38.688C1240.78 38.2187 1240.53 37.6587 1240.36 37.008C1240.2 36.3467 1240.12 35.632 1240.12 34.864C1240.12 34.0853 1240.2 33.3707 1240.37 32.72C1240.54 32.0693 1240.79 31.5093 1241.13 31.04C1241.47 30.56 1241.89 30.1867 1242.39 29.92C1242.9 29.6533 1243.49 29.52 1244.17 29.52ZM1244.15 30.928C1243.41 30.928 1242.84 31.2533 1242.42 31.904C1242.01 32.5547 1241.8 33.5413 1241.8 34.864C1241.8 36.1867 1242.01 37.1733 1242.42 37.824C1242.84 38.464 1243.41 38.784 1244.15 38.784C1244.89 38.784 1245.46 38.464 1245.86 37.824C1246.27 37.1733 1246.47 36.1867 1246.47 34.864C1246.47 33.5413 1246.27 32.5547 1245.86 31.904C1245.46 31.2533 1244.89 30.928 1244.15 30.928ZM1249.73 42.672C1249.85 42.448 1250.03 42.1173 1250.24 41.68C1250.45 41.2533 1250.66 40.7253 1250.86 40.096C1251.08 39.4667 1251.26 38.736 1251.41 37.904C1251.56 37.072 1251.63 36.1493 1251.63 35.136C1251.63 34.112 1251.56 33.1893 1251.41 32.368C1251.26 31.536 1251.08 30.8053 1250.86 30.176C1250.66 29.536 1250.45 29.0027 1250.24 28.576C1250.03 28.1387 1249.85 27.808 1249.73 27.584C1249.84 27.5627 1249.97 27.5467 1250.11 27.536C1250.25 27.5253 1250.39 27.52 1250.54 27.52C1250.69 27.52 1250.83 27.5253 1250.96 27.536C1251.1 27.5467 1251.21 27.5627 1251.29 27.584C1251.53 27.9573 1251.76 28.4 1252 28.912C1252.23 29.424 1252.44 30 1252.62 30.64C1252.8 31.28 1252.95 31.9787 1253.05 32.736C1253.17 33.4933 1253.23 34.2933 1253.23 35.136C1253.23 35.9787 1253.17 36.7787 1253.05 37.536C1252.95 38.2827 1252.8 38.976 1252.62 39.616C1252.44 40.256 1252.23 40.832 1252 41.344C1251.76 41.8667 1251.53 42.3093 1251.29 42.672C1251.21 42.6933 1251.1 42.7093 1250.97 42.72C1250.85 42.7307 1250.71 42.736 1250.57 42.736C1250.43 42.736 1250.28 42.7307 1250.13 42.72C1249.98 42.7093 1249.84 42.6933 1249.73 42.672Z" fill="#0B2C4C"/>
</g>
<defs>
<filter id="filter0_d_62364_68558" x="0" y="0" width="1288.13" height="78" filterUnits="userSpaceOnUse" color-interpolation-filters="sRGB">
<feFlood flood-opacity="0" result="BackgroundImageFix"/>
<feColorMatrix in="SourceAlpha" type="matrix" values="0 0 0 0 0 0 0 0 0 0 0 0 0 0 0 0 0 0 127 0" result="hardAlpha"/>
<feOffset dy="4"/>
<feGaussianBlur stdDeviation="2"/>
<feComposite in2="hardAlpha" operator="out"/>
<feColorMatrix type="matrix" values="0 0 0 0 0 0 0 0 0 0 0 0 0 0 0 0 0 0 0.25 0"/>
<feBlend mode="normal" in2="BackgroundImageFix" result="effect1_dropShadow_62364_68558"/>
<feBlend mode="normal" in="SourceGraphic" in2="effect1_dropShadow_62364_68558" result="shape"/>
</filter>
</defs>
</svg>
