<svg width="1289" height="78" viewBox="0 0 1289 78" fill="none" xmlns="http://www.w3.org/2000/svg">
<g filter="url(#filter0_d_62364_68431)">
<rect width="1280.13" height="70" transform="translate(4)" fill="white"/>
<path d="M78.9394 27.182C79.4821 27.094 80.0027 27.05 80.5014 27.05C81.0147 27.05 81.5501 27.094 82.1074 27.182V40.228H87.5854C87.6294 40.4773 87.6587 40.7193 87.6734 40.954C87.6881 41.174 87.6954 41.3867 87.6954 41.592C87.6954 41.8267 87.6881 42.0613 87.6734 42.296C87.6587 42.516 87.6294 42.7507 87.5854 43H78.9394V27.182ZM94.607 43.264C93.683 43.264 92.8764 43.1173 92.187 42.824C91.5124 42.516 90.9477 42.098 90.493 41.57C90.053 41.0273 89.7157 40.3967 89.481 39.678C89.261 38.9593 89.151 38.182 89.151 37.346C89.151 36.51 89.261 35.7253 89.481 34.992C89.7157 34.2587 90.053 33.628 90.493 33.1C90.9477 32.5573 91.5124 32.132 92.187 31.824C92.8764 31.516 93.683 31.362 94.607 31.362C95.531 31.362 96.3377 31.516 97.027 31.824C97.7164 32.132 98.2884 32.5573 98.743 33.1C99.1977 33.628 99.535 34.2587 99.755 34.992C99.975 35.7253 100.085 36.51 100.085 37.346C100.085 38.182 99.975 38.9593 99.755 39.678C99.535 40.3967 99.1977 41.0273 98.743 41.57C98.2884 42.098 97.7164 42.516 97.027 42.824C96.3377 43.1173 95.531 43.264 94.607 43.264ZM94.607 40.888C95.4284 40.888 96.015 40.5873 96.367 39.986C96.7337 39.37 96.917 38.49 96.917 37.346C96.917 36.202 96.7337 35.3293 96.367 34.728C96.015 34.112 95.4284 33.804 94.607 33.804C93.8004 33.804 93.2137 34.112 92.847 34.728C92.495 35.3293 92.319 36.202 92.319 37.346C92.319 38.49 92.495 39.37 92.847 39.986C93.2137 40.5873 93.8004 40.888 94.607 40.888ZM108.931 41.108C110.265 41.1373 111.248 41.438 111.879 42.01C112.509 42.5673 112.825 43.3667 112.825 44.408C112.825 45.024 112.663 45.5813 112.341 46.08C112.018 46.5933 111.578 47.026 111.021 47.378C110.463 47.73 109.803 48.0013 109.041 48.192C108.278 48.3827 107.457 48.478 106.577 48.478C105.697 48.478 104.949 48.4047 104.333 48.258C103.717 48.126 103.211 47.9353 102.815 47.686C102.433 47.4367 102.155 47.1287 101.979 46.762C101.817 46.3953 101.737 45.992 101.737 45.552C101.737 44.892 101.891 44.3493 102.199 43.924C102.521 43.4987 102.947 43.1247 103.475 42.802C103.137 42.5967 102.866 42.3473 102.661 42.054C102.47 41.746 102.375 41.3573 102.375 40.888C102.375 40.3307 102.492 39.876 102.727 39.524C102.961 39.172 103.306 38.8347 103.761 38.512C103.247 38.1453 102.851 37.698 102.573 37.17C102.294 36.642 102.155 36.0553 102.155 35.41C102.155 34.838 102.265 34.31 102.485 33.826C102.705 33.3273 103.02 32.902 103.431 32.55C103.856 32.1833 104.369 31.8973 104.971 31.692C105.572 31.4867 106.247 31.384 106.995 31.384C107.728 31.384 108.403 31.5013 109.019 31.736C109.635 31.956 110.148 32.242 110.559 32.594C110.837 32.2273 111.182 31.956 111.593 31.78C112.003 31.5893 112.561 31.494 113.265 31.494C113.294 31.6847 113.316 31.8753 113.331 32.066C113.36 32.242 113.375 32.4327 113.375 32.638C113.375 32.8727 113.367 33.1073 113.353 33.342C113.338 33.5767 113.309 33.8187 113.265 34.068H111.483C111.556 34.2147 111.622 34.3907 111.681 34.596C111.739 34.8013 111.769 35.0727 111.769 35.41C111.769 35.982 111.659 36.5173 111.439 37.016C111.233 37.5 110.925 37.918 110.515 38.27C110.104 38.622 109.598 38.9007 108.997 39.106C108.41 39.3113 107.743 39.414 106.995 39.414C106.364 39.414 105.799 39.348 105.301 39.216C105.051 39.3773 104.897 39.5533 104.839 39.744C104.78 39.92 104.751 40.0887 104.751 40.25C104.751 40.4847 104.824 40.6753 104.971 40.822C105.132 40.9687 105.447 41.0493 105.917 41.064L108.931 41.108ZM106.115 43.396C105.792 43.3813 105.521 43.418 105.301 43.506C105.095 43.594 104.927 43.704 104.795 43.836C104.677 43.9827 104.589 44.1367 104.531 44.298C104.487 44.474 104.465 44.6427 104.465 44.804C104.465 45.3613 104.67 45.7353 105.081 45.926C105.506 46.1313 106.071 46.234 106.775 46.234C107.699 46.234 108.439 46.0873 108.997 45.794C109.569 45.5007 109.855 45.1047 109.855 44.606C109.855 44.4593 109.833 44.32 109.789 44.188C109.759 44.056 109.693 43.9313 109.591 43.814C109.488 43.7113 109.341 43.6233 109.151 43.55C108.975 43.4767 108.733 43.44 108.425 43.44L106.115 43.396ZM107.017 37.39C107.633 37.39 108.073 37.214 108.337 36.862C108.615 36.51 108.755 36.026 108.755 35.41C108.755 34.794 108.615 34.31 108.337 33.958C108.073 33.5913 107.633 33.408 107.017 33.408C106.386 33.408 105.931 33.5913 105.653 33.958C105.374 34.31 105.235 34.794 105.235 35.41C105.235 36.026 105.374 36.51 105.653 36.862C105.931 37.214 106.386 37.39 107.017 37.39ZM119.615 43.264C118.691 43.264 117.884 43.1173 117.195 42.824C116.52 42.516 115.956 42.098 115.501 41.57C115.061 41.0273 114.724 40.3967 114.489 39.678C114.269 38.9593 114.159 38.182 114.159 37.346C114.159 36.51 114.269 35.7253 114.489 34.992C114.724 34.2587 115.061 33.628 115.501 33.1C115.956 32.5573 116.52 32.132 117.195 31.824C117.884 31.516 118.691 31.362 119.615 31.362C120.539 31.362 121.346 31.516 122.035 31.824C122.724 32.132 123.296 32.5573 123.751 33.1C124.206 33.628 124.543 34.2587 124.763 34.992C124.983 35.7253 125.093 36.51 125.093 37.346C125.093 38.182 124.983 38.9593 124.763 39.678C124.543 40.3967 124.206 41.0273 123.751 41.57C123.296 42.098 122.724 42.516 122.035 42.824C121.346 43.1173 120.539 43.264 119.615 43.264ZM119.615 40.888C120.436 40.888 121.023 40.5873 121.375 39.986C121.742 39.37 121.925 38.49 121.925 37.346C121.925 36.202 121.742 35.3293 121.375 34.728C121.023 34.112 120.436 33.804 119.615 33.804C118.808 33.804 118.222 34.112 117.855 34.728C117.503 35.3293 117.327 36.202 117.327 37.346C117.327 38.49 117.503 39.37 117.855 39.986C118.222 40.5873 118.808 40.888 119.615 40.888ZM127.867 34.002H126.437L126.327 33.562L130.441 28.304H130.947V31.626H133.609C133.653 31.846 133.682 32.044 133.697 32.22C133.711 32.396 133.719 32.5793 133.719 32.77C133.719 32.9753 133.711 33.1733 133.697 33.364C133.682 33.5547 133.653 33.7673 133.609 34.002H130.947V38.468C130.947 38.9227 130.983 39.2893 131.057 39.568C131.13 39.8467 131.233 40.0667 131.365 40.228C131.511 40.3893 131.687 40.4993 131.893 40.558C132.098 40.6167 132.34 40.646 132.619 40.646C132.839 40.646 133.051 40.6313 133.257 40.602C133.477 40.558 133.667 40.5213 133.829 40.492C133.931 40.7707 134.005 41.064 134.049 41.372C134.093 41.6653 134.115 41.9293 134.115 42.164C134.115 42.3253 134.107 42.4647 134.093 42.582C134.093 42.6847 134.085 42.7873 134.071 42.89C133.396 43.0513 132.699 43.132 131.981 43.132C130.646 43.132 129.627 42.824 128.923 42.208C128.219 41.5773 127.867 40.558 127.867 39.15V34.002ZM136.596 34.002H135.122C135.078 33.8113 135.042 33.6133 135.012 33.408C134.998 33.188 134.99 32.9827 134.99 32.792C134.99 32.396 135.034 32.0073 135.122 31.626H139.654V43C139.126 43.088 138.613 43.132 138.114 43.132C137.63 43.132 137.124 43.088 136.596 43V34.002ZM136.134 29.712C136.046 29.2133 136.002 28.722 136.002 28.238C136.002 27.7687 136.046 27.2773 136.134 26.764C136.384 26.72 136.648 26.6907 136.926 26.676C137.22 26.6467 137.484 26.632 137.718 26.632C137.968 26.632 138.239 26.6467 138.532 26.676C138.826 26.6907 139.097 26.72 139.346 26.764C139.39 27.0133 139.42 27.2627 139.434 27.512C139.449 27.7467 139.456 27.9887 139.456 28.238C139.456 28.4727 139.449 28.7147 139.434 28.964C139.42 29.2133 139.39 29.4627 139.346 29.712C139.097 29.756 138.826 29.7853 138.532 29.8C138.254 29.8147 137.99 29.822 137.74 29.822C137.506 29.822 137.242 29.8147 136.948 29.8C136.655 29.7853 136.384 29.756 136.134 29.712ZM142.661 31.604C142.866 31.56 143.064 31.5307 143.255 31.516C143.46 31.5013 143.687 31.494 143.937 31.494C144.347 31.494 144.765 31.538 145.191 31.626C145.235 31.6993 145.271 31.8093 145.301 31.956C145.345 32.088 145.381 32.2347 145.411 32.396C145.455 32.5573 145.484 32.7187 145.499 32.88C145.528 33.0267 145.55 33.1513 145.565 33.254C145.697 33.0193 145.858 32.792 146.049 32.572C146.239 32.3373 146.467 32.132 146.731 31.956C147.009 31.78 147.317 31.6407 147.655 31.538C147.992 31.4207 148.366 31.362 148.777 31.362C149.407 31.362 149.994 31.4793 150.537 31.714C151.094 31.9487 151.578 32.308 151.989 32.792C152.399 33.2613 152.715 33.8553 152.935 34.574C153.169 35.2927 153.287 36.1433 153.287 37.126C153.287 38.0793 153.147 38.9373 152.869 39.7C152.59 40.448 152.187 41.086 151.659 41.614C151.131 42.142 150.485 42.5527 149.723 42.846C148.96 43.1247 148.095 43.264 147.127 43.264C146.877 43.264 146.628 43.2493 146.379 43.22C146.144 43.2053 145.946 43.1833 145.785 43.154V48.214C145.506 48.258 145.235 48.2873 144.971 48.302C144.721 48.3167 144.472 48.324 144.223 48.324C143.973 48.324 143.717 48.3167 143.453 48.302C143.203 48.2873 142.939 48.258 142.661 48.214V31.604ZM145.785 40.58C146.181 40.6973 146.635 40.756 147.149 40.756C148.058 40.756 148.755 40.4627 149.239 39.876C149.723 39.2893 149.965 38.402 149.965 37.214C149.965 36.7593 149.928 36.3413 149.855 35.96C149.781 35.564 149.657 35.2267 149.481 34.948C149.305 34.6693 149.077 34.4493 148.799 34.288C148.535 34.1267 148.205 34.046 147.809 34.046C147.442 34.046 147.127 34.1193 146.863 34.266C146.613 34.398 146.408 34.5887 146.247 34.838C146.085 35.0727 145.968 35.3513 145.895 35.674C145.821 35.9967 145.785 36.3413 145.785 36.708V40.58ZM160.543 43.264C159.619 43.264 158.812 43.1173 158.123 42.824C157.448 42.516 156.883 42.098 156.429 41.57C155.989 41.0273 155.651 40.3967 155.417 39.678C155.197 38.9593 155.087 38.182 155.087 37.346C155.087 36.51 155.197 35.7253 155.417 34.992C155.651 34.2587 155.989 33.628 156.429 33.1C156.883 32.5573 157.448 32.132 158.123 31.824C158.812 31.516 159.619 31.362 160.543 31.362C161.467 31.362 162.273 31.516 162.963 31.824C163.652 32.132 164.224 32.5573 164.679 33.1C165.133 33.628 165.471 34.2587 165.691 34.992C165.911 35.7253 166.021 36.51 166.021 37.346C166.021 38.182 165.911 38.9593 165.691 39.678C165.471 40.3967 165.133 41.0273 164.679 41.57C164.224 42.098 163.652 42.516 162.963 42.824C162.273 43.1173 161.467 43.264 160.543 43.264ZM160.543 40.888C161.364 40.888 161.951 40.5873 162.303 39.986C162.669 39.37 162.853 38.49 162.853 37.346C162.853 36.202 162.669 35.3293 162.303 34.728C161.951 34.112 161.364 33.804 160.543 33.804C159.736 33.804 159.149 34.112 158.783 34.728C158.431 35.3293 158.255 36.202 158.255 37.346C158.255 38.49 158.431 39.37 158.783 39.986C159.149 40.5873 159.736 40.888 160.543 40.888ZM172.556 27.182C173.099 27.094 173.627 27.05 174.14 27.05C174.639 27.05 175.152 27.094 175.68 27.182L170.312 43C169.784 43.088 169.264 43.132 168.75 43.132C168.252 43.132 167.738 43.088 167.21 43L172.556 27.182ZM177.488 27.182C177.943 27.094 178.376 27.05 178.786 27.05C179.226 27.05 179.681 27.094 180.15 27.182L186.266 37.258V27.182C186.794 27.094 187.3 27.05 187.784 27.05C188.239 27.05 188.679 27.094 189.104 27.182V43C188.635 43.088 188.21 43.132 187.828 43.132C187.418 43.132 186.97 43.088 186.486 43L180.326 32.946V43C179.857 43.088 179.38 43.132 178.896 43.132C178.412 43.132 177.943 43.088 177.488 43V27.182ZM197.002 43.264C196.078 43.264 195.271 43.1173 194.582 42.824C193.907 42.516 193.342 42.098 192.888 41.57C192.448 41.0273 192.11 40.3967 191.876 39.678C191.656 38.9593 191.546 38.182 191.546 37.346C191.546 36.51 191.656 35.7253 191.876 34.992C192.11 34.2587 192.448 33.628 192.888 33.1C193.342 32.5573 193.907 32.132 194.582 31.824C195.271 31.516 196.078 31.362 197.002 31.362C197.926 31.362 198.732 31.516 199.422 31.824C200.111 32.132 200.683 32.5573 201.138 33.1C201.592 33.628 201.93 34.2587 202.15 34.992C202.37 35.7253 202.48 36.51 202.48 37.346C202.48 38.182 202.37 38.9593 202.15 39.678C201.93 40.3967 201.592 41.0273 201.138 41.57C200.683 42.098 200.111 42.516 199.422 42.824C198.732 43.1173 197.926 43.264 197.002 43.264ZM197.002 40.888C197.823 40.888 198.41 40.5873 198.762 39.986C199.128 39.37 199.312 38.49 199.312 37.346C199.312 36.202 199.128 35.3293 198.762 34.728C198.41 34.112 197.823 33.804 197.002 33.804C196.195 33.804 195.608 34.112 195.242 34.728C194.89 35.3293 194.714 36.202 194.714 37.346C194.714 38.49 194.89 39.37 195.242 39.986C195.608 40.5873 196.195 40.888 197.002 40.888ZM204.945 31.626C205.151 31.582 205.356 31.5527 205.561 31.538C205.767 31.5087 205.994 31.494 206.243 31.494C206.493 31.494 206.713 31.5087 206.903 31.538C207.094 31.5527 207.292 31.582 207.497 31.626C207.541 31.6993 207.578 31.8093 207.607 31.956C207.651 32.088 207.688 32.2347 207.717 32.396C207.747 32.5427 207.769 32.6893 207.783 32.836C207.813 32.9827 207.835 33.1073 207.849 33.21C207.967 32.99 208.121 32.77 208.311 32.55C208.502 32.33 208.729 32.132 208.993 31.956C209.257 31.78 209.551 31.6407 209.873 31.538C210.211 31.4207 210.585 31.362 210.995 31.362C212.77 31.362 213.907 32.0367 214.405 33.386C214.699 32.8433 215.109 32.374 215.637 31.978C216.18 31.5673 216.862 31.362 217.683 31.362C218.974 31.362 219.92 31.7213 220.521 32.44C221.137 33.144 221.445 34.2513 221.445 35.762V43C220.917 43.088 220.397 43.132 219.883 43.132C219.37 43.132 218.849 43.088 218.321 43V36.576C218.321 35.784 218.219 35.1753 218.013 34.75C217.823 34.3247 217.427 34.112 216.825 34.112C216.576 34.112 216.327 34.1487 216.077 34.222C215.843 34.2953 215.623 34.4347 215.417 34.64C215.227 34.8307 215.065 35.1093 214.933 35.476C214.816 35.828 214.757 36.29 214.757 36.862V43C214.229 43.088 213.709 43.132 213.195 43.132C212.682 43.132 212.161 43.088 211.633 43V36.576C211.633 35.784 211.531 35.1753 211.325 34.75C211.135 34.3247 210.739 34.112 210.137 34.112C209.888 34.112 209.639 34.1487 209.389 34.222C209.14 34.2953 208.913 34.442 208.707 34.662C208.517 34.8673 208.363 35.1607 208.245 35.542C208.128 35.9233 208.069 36.422 208.069 37.038V43C207.541 43.088 207.021 43.132 206.507 43.132C205.994 43.132 205.473 43.088 204.945 43V31.626ZM224.237 26.918C224.765 26.83 225.279 26.786 225.777 26.786C226.291 26.786 226.811 26.83 227.339 26.918V32.726C227.559 32.33 227.926 32.0073 228.439 31.758C228.953 31.494 229.539 31.362 230.199 31.362C230.859 31.362 231.468 31.4793 232.025 31.714C232.597 31.9487 233.089 32.308 233.499 32.792C233.91 33.2613 234.233 33.8553 234.467 34.574C234.702 35.2927 234.819 36.1433 234.819 37.126C234.819 38.0793 234.673 38.9373 234.379 39.7C234.086 40.448 233.661 41.086 233.103 41.614C232.546 42.142 231.864 42.5527 231.057 42.846C230.251 43.1247 229.341 43.264 228.329 43.264C228.007 43.264 227.662 43.2493 227.295 43.22C226.943 43.1907 226.584 43.1467 226.217 43.088C225.851 43.044 225.499 42.9853 225.161 42.912C224.824 42.824 224.516 42.7287 224.237 42.626V26.918ZM227.339 40.536C227.515 40.5947 227.699 40.6313 227.889 40.646C228.095 40.6607 228.3 40.668 228.505 40.668C229.459 40.668 230.207 40.3893 230.749 39.832C231.292 39.2747 231.563 38.402 231.563 37.214C231.563 36.158 231.395 35.3587 231.057 34.816C230.72 34.2587 230.148 33.98 229.341 33.98C228.755 33.98 228.271 34.178 227.889 34.574C227.523 34.9553 227.339 35.564 227.339 36.4V40.536ZM237.258 31.626C237.478 31.582 237.683 31.5527 237.874 31.538C238.079 31.5087 238.299 31.494 238.534 31.494C238.754 31.494 238.966 31.5087 239.172 31.538C239.392 31.5673 239.604 31.604 239.81 31.648C239.854 31.7213 239.89 31.8313 239.92 31.978C239.964 32.11 240 32.2567 240.03 32.418C240.059 32.5647 240.081 32.7187 240.096 32.88C240.125 33.0267 240.147 33.1513 240.162 33.254C240.484 32.7993 240.88 32.396 241.35 32.044C241.819 31.6773 242.406 31.494 243.11 31.494C243.256 31.494 243.425 31.5013 243.616 31.516C243.806 31.5307 243.946 31.5527 244.034 31.582C244.063 31.7287 244.085 31.8973 244.1 32.088C244.114 32.2787 244.122 32.4767 244.122 32.682C244.122 32.9313 244.107 33.2027 244.078 33.496C244.063 33.7893 244.026 34.068 243.968 34.332C243.806 34.3027 243.623 34.288 243.418 34.288C243.227 34.288 243.11 34.288 243.066 34.288C242.816 34.288 242.538 34.3173 242.23 34.376C241.922 34.42 241.628 34.552 241.35 34.772C241.071 34.992 240.836 35.322 240.646 35.762C240.47 36.202 240.382 36.818 240.382 37.61V43.022C240.118 43.066 239.854 43.0953 239.59 43.11C239.326 43.1247 239.069 43.132 238.82 43.132C238.57 43.132 238.314 43.1247 238.05 43.11C237.8 43.0953 237.536 43.066 237.258 43.022V31.626ZM248.273 38.27C248.332 39.15 248.64 39.788 249.197 40.184C249.754 40.58 250.488 40.778 251.397 40.778C251.896 40.778 252.402 40.734 252.915 40.646C253.443 40.5433 253.942 40.404 254.411 40.228C254.572 40.5213 254.712 40.8733 254.829 41.284C254.946 41.6947 255.012 42.1347 255.027 42.604C253.883 43.044 252.592 43.264 251.155 43.264C250.099 43.264 249.19 43.1173 248.427 42.824C247.679 42.5307 247.063 42.1273 246.579 41.614C246.11 41.086 245.758 40.4627 245.523 39.744C245.303 39.0253 245.193 38.2407 245.193 37.39C245.193 36.554 245.31 35.7693 245.545 35.036C245.78 34.3027 246.124 33.6647 246.579 33.122C247.048 32.5793 247.62 32.154 248.295 31.846C248.984 31.5233 249.784 31.362 250.693 31.362C251.485 31.362 252.189 31.5013 252.805 31.78C253.421 32.0587 253.942 32.44 254.367 32.924C254.807 33.408 255.137 33.9873 255.357 34.662C255.577 35.322 255.687 36.0333 255.687 36.796C255.687 37.0747 255.672 37.3533 255.643 37.632C255.628 37.896 255.606 38.1087 255.577 38.27H248.273ZM252.739 36.092C252.71 35.388 252.512 34.8233 252.145 34.398C251.793 33.958 251.294 33.738 250.649 33.738C249.916 33.738 249.358 33.9433 248.977 34.354C248.596 34.7647 248.368 35.344 248.295 36.092H252.739Z" fill="#0B2C4C"/>
<path d="M381.51 28.996C381.638 28.9747 381.771 28.9587 381.91 28.948C382.048 28.9373 382.187 28.932 382.326 28.932C382.464 28.932 382.603 28.9373 382.742 28.948C382.88 28.9587 383.014 28.9747 383.142 28.996V40.5C383.014 40.5213 382.88 40.5373 382.742 40.548C382.614 40.5587 382.475 40.564 382.326 40.564C382.187 40.564 382.043 40.5587 381.894 40.548C381.755 40.5373 381.627 40.5213 381.51 40.5V28.996ZM385.835 32.292C385.952 32.2707 386.064 32.2547 386.171 32.244C386.288 32.2333 386.405 32.228 386.523 32.228C386.64 32.228 386.747 32.2333 386.843 32.244C386.949 32.2547 387.061 32.2707 387.179 32.292C387.211 32.452 387.243 32.6707 387.275 32.948C387.307 33.2147 387.323 33.4387 387.323 33.62C387.429 33.4387 387.563 33.2573 387.723 33.076C387.893 32.8947 388.085 32.7347 388.299 32.596C388.512 32.4467 388.757 32.3293 389.035 32.244C389.312 32.148 389.616 32.1 389.947 32.1C390.885 32.1 391.579 32.372 392.027 32.916C392.475 33.4493 392.699 34.244 392.699 35.3V40.5C392.581 40.5213 392.448 40.5373 392.299 40.548C392.149 40.5587 392.016 40.564 391.899 40.564C391.781 40.564 391.648 40.5587 391.499 40.548C391.36 40.5373 391.232 40.5213 391.115 40.5V35.732C391.115 34.9747 390.997 34.42 390.763 34.068C390.528 33.7053 390.155 33.524 389.643 33.524C389.344 33.524 389.061 33.5773 388.795 33.684C388.528 33.7907 388.293 33.956 388.091 34.18C387.888 34.404 387.723 34.6973 387.595 35.06C387.477 35.412 387.419 35.8387 387.419 36.34V40.5C387.301 40.5213 387.168 40.5373 387.019 40.548C386.88 40.5587 386.752 40.564 386.635 40.564C386.517 40.564 386.384 40.5587 386.235 40.548C386.085 40.5373 385.952 40.5213 385.835 40.5V32.292ZM395.565 33.54H394.525C394.503 33.4547 394.487 33.3587 394.477 33.252C394.466 33.1347 394.461 33.0227 394.461 32.916C394.461 32.8093 394.466 32.7027 394.477 32.596C394.487 32.4787 394.503 32.3773 394.525 32.292H397.117V40.5C396.999 40.5213 396.866 40.5373 396.717 40.548C396.578 40.5587 396.45 40.564 396.333 40.564C396.226 40.564 396.098 40.5587 395.949 40.548C395.81 40.5373 395.682 40.5213 395.565 40.5V33.54ZM395.213 30.484C395.191 30.356 395.175 30.2173 395.165 30.068C395.165 29.9187 395.165 29.7853 395.165 29.668C395.165 29.5507 395.165 29.4173 395.165 29.268C395.175 29.1187 395.191 28.9853 395.213 28.868C395.351 28.8467 395.501 28.8307 395.661 28.82C395.821 28.8093 395.959 28.804 396.077 28.804C396.194 28.804 396.333 28.8093 396.493 28.82C396.653 28.8307 396.797 28.8467 396.925 28.868C396.946 28.9853 396.957 29.1187 396.957 29.268C396.967 29.4173 396.973 29.5507 396.973 29.668C396.973 29.7853 396.967 29.9187 396.957 30.068C396.957 30.2173 396.946 30.356 396.925 30.484C396.797 30.5053 396.653 30.5213 396.493 30.532C396.343 30.5427 396.21 30.548 396.093 30.548C395.965 30.548 395.821 30.5427 395.661 30.532C395.501 30.5213 395.351 30.5053 395.213 30.484ZM405.166 39.076C405.251 39.2253 405.326 39.412 405.39 39.636C405.454 39.86 405.491 40.0893 405.502 40.324C404.873 40.5693 404.153 40.692 403.342 40.692C401.977 40.692 400.947 40.308 400.254 39.54C399.561 38.7613 399.214 37.716 399.214 36.404C399.214 35.796 399.299 35.2307 399.47 34.708C399.641 34.1853 399.891 33.732 400.222 33.348C400.563 32.964 400.985 32.66 401.486 32.436C401.987 32.212 402.569 32.1 403.23 32.1C403.678 32.1 404.073 32.1267 404.414 32.18C404.755 32.2333 405.081 32.3187 405.39 32.436C405.39 32.6173 405.363 32.8307 405.31 33.076C405.267 33.3107 405.203 33.5187 405.118 33.7C404.595 33.5187 403.998 33.428 403.326 33.428C402.505 33.428 401.891 33.7 401.486 34.244C401.081 34.788 400.878 35.508 400.878 36.404C400.878 37.428 401.107 38.18 401.566 38.66C402.025 39.1293 402.654 39.364 403.454 39.364C403.774 39.364 404.067 39.3427 404.334 39.3C404.611 39.2573 404.889 39.1827 405.166 39.076ZM407.815 33.54H406.775C406.753 33.4547 406.737 33.3587 406.727 33.252C406.716 33.1347 406.711 33.0227 406.711 32.916C406.711 32.8093 406.716 32.7027 406.727 32.596C406.737 32.4787 406.753 32.3773 406.775 32.292H409.367V40.5C409.249 40.5213 409.116 40.5373 408.967 40.548C408.828 40.5587 408.7 40.564 408.583 40.564C408.476 40.564 408.348 40.5587 408.199 40.548C408.06 40.5373 407.932 40.5213 407.815 40.5V33.54ZM407.463 30.484C407.441 30.356 407.425 30.2173 407.415 30.068C407.415 29.9187 407.415 29.7853 407.415 29.668C407.415 29.5507 407.415 29.4173 407.415 29.268C407.425 29.1187 407.441 28.9853 407.463 28.868C407.601 28.8467 407.751 28.8307 407.911 28.82C408.071 28.8093 408.209 28.804 408.327 28.804C408.444 28.804 408.583 28.8093 408.743 28.82C408.903 28.8307 409.047 28.8467 409.175 28.868C409.196 28.9853 409.207 29.1187 409.207 29.268C409.217 29.4173 409.223 29.5507 409.223 29.668C409.223 29.7853 409.217 29.9187 409.207 30.068C409.207 30.2173 409.196 30.356 409.175 30.484C409.047 30.5053 408.903 30.5213 408.743 30.532C408.593 30.5427 408.46 30.548 408.343 30.548C408.215 30.548 408.071 30.5427 407.911 30.532C407.751 30.5213 407.601 30.5053 407.463 30.484ZM415.272 40.692C414.632 40.692 414.072 40.5853 413.592 40.372C413.112 40.148 412.712 39.844 412.392 39.46C412.072 39.076 411.832 38.6227 411.672 38.1C411.523 37.5773 411.448 37.012 411.448 36.404C411.448 35.796 411.523 35.2307 411.672 34.708C411.832 34.1853 412.072 33.732 412.392 33.348C412.712 32.964 413.112 32.66 413.592 32.436C414.072 32.212 414.632 32.1 415.272 32.1C415.912 32.1 416.472 32.212 416.952 32.436C417.432 32.66 417.832 32.964 418.152 33.348C418.472 33.732 418.707 34.1853 418.856 34.708C419.016 35.2307 419.096 35.796 419.096 36.404C419.096 37.012 419.016 37.5773 418.856 38.1C418.707 38.6227 418.472 39.076 418.152 39.46C417.832 39.844 417.432 40.148 416.952 40.372C416.472 40.5853 415.912 40.692 415.272 40.692ZM415.272 39.428C416.008 39.428 416.552 39.1613 416.904 38.628C417.256 38.0947 417.432 37.3533 417.432 36.404C417.432 35.4547 417.256 34.7187 416.904 34.196C416.552 33.6627 416.008 33.396 415.272 33.396C414.536 33.396 413.992 33.6627 413.64 34.196C413.299 34.7187 413.128 35.4547 413.128 36.404C413.128 37.3533 413.299 38.0947 413.64 38.628C413.992 39.1613 414.536 39.428 415.272 39.428Z" fill="#0B2C4C"/>
<path d="M494.948 32.04C494.938 32.2853 494.911 32.5253 494.868 32.76C494.836 33.0053 494.772 33.24 494.676 33.464L490.996 32.776C491.018 32.4773 491.05 32.232 491.092 32.04C491.135 31.848 491.199 31.6347 491.284 31.4L494.948 32.04ZM489.94 31.192C489.108 31.192 488.388 31.048 487.78 30.76C487.172 30.4613 486.666 30.0507 486.26 29.528C485.866 28.9947 485.567 28.3653 485.364 27.64C485.172 26.9147 485.076 26.12 485.076 25.256C485.076 24.392 485.172 23.5973 485.364 22.872C485.567 22.1467 485.866 21.5227 486.26 21C486.666 20.4667 487.172 20.0507 487.78 19.752C488.388 19.4533 489.108 19.304 489.94 19.304C490.772 19.304 491.492 19.4533 492.1 19.752C492.708 20.0507 493.21 20.4667 493.604 21C494.01 21.5227 494.308 22.1467 494.5 22.872C494.692 23.5973 494.788 24.392 494.788 25.256C494.788 26.12 494.692 26.9147 494.5 27.64C494.308 28.3653 494.01 28.9947 493.604 29.528C493.21 30.0507 492.708 30.4613 492.1 30.76C491.492 31.048 490.772 31.192 489.94 31.192ZM489.94 29.784C490.474 29.784 490.932 29.6827 491.316 29.48C491.711 29.2667 492.036 28.9627 492.292 28.568C492.548 28.1733 492.74 27.6987 492.868 27.144C492.996 26.5893 493.06 25.96 493.06 25.256C493.06 24.5627 492.996 23.9387 492.868 23.384C492.74 22.8187 492.548 22.344 492.292 21.96C492.036 21.5653 491.711 21.2667 491.316 21.064C490.932 20.8507 490.474 20.744 489.94 20.744C489.407 20.744 488.943 20.8507 488.548 21.064C488.164 21.2667 487.844 21.5653 487.588 21.96C487.332 22.344 487.14 22.8187 487.012 23.384C486.884 23.9387 486.82 24.5627 486.82 25.256C486.82 25.96 486.884 26.5893 487.012 27.144C487.14 27.6987 487.332 28.1733 487.588 28.568C487.844 28.9627 488.164 29.2667 488.548 29.48C488.943 29.6827 489.407 29.784 489.94 29.784ZM496.911 22.792C497.028 22.7707 497.161 22.7547 497.311 22.744C497.46 22.7333 497.588 22.728 497.695 22.728C497.812 22.728 497.945 22.7333 498.095 22.744C498.244 22.7547 498.377 22.7707 498.495 22.792V27.288C498.495 27.8 498.543 28.2267 498.639 28.568C498.735 28.8987 498.879 29.16 499.071 29.352C499.263 29.544 499.497 29.6773 499.775 29.752C500.052 29.8267 500.372 29.864 500.735 29.864C501.279 29.864 501.743 29.8053 502.127 29.688V22.792C502.244 22.7707 502.372 22.7547 502.511 22.744C502.66 22.7333 502.793 22.728 502.911 22.728C503.028 22.728 503.156 22.7333 503.295 22.744C503.444 22.7547 503.577 22.7707 503.695 22.792V30.744C503.321 30.8507 502.873 30.952 502.351 31.048C501.839 31.144 501.305 31.192 500.751 31.192C500.228 31.192 499.732 31.144 499.263 31.048C498.804 30.9627 498.399 30.7813 498.047 30.504C497.695 30.2267 497.417 29.8373 497.215 29.336C497.012 28.8347 496.911 28.1733 496.911 27.352V22.792ZM506.674 24.04H505.634C505.613 23.9547 505.597 23.8587 505.586 23.752C505.575 23.6347 505.57 23.5227 505.57 23.416C505.57 23.3093 505.575 23.2027 505.586 23.096C505.597 22.9787 505.613 22.8773 505.634 22.792H508.226V31C508.109 31.0213 507.975 31.0373 507.826 31.048C507.687 31.0587 507.559 31.064 507.442 31.064C507.335 31.064 507.207 31.0587 507.058 31.048C506.919 31.0373 506.791 31.0213 506.674 31V24.04ZM506.322 20.984C506.301 20.856 506.285 20.7173 506.274 20.568C506.274 20.4187 506.274 20.2853 506.274 20.168C506.274 20.0507 506.274 19.9173 506.274 19.768C506.285 19.6187 506.301 19.4853 506.322 19.368C506.461 19.3467 506.61 19.3307 506.77 19.32C506.93 19.3093 507.069 19.304 507.186 19.304C507.303 19.304 507.442 19.3093 507.602 19.32C507.762 19.3307 507.906 19.3467 508.034 19.368C508.055 19.4853 508.066 19.6187 508.066 19.768C508.077 19.9173 508.082 20.0507 508.082 20.168C508.082 20.2853 508.077 20.4187 508.066 20.568C508.066 20.7173 508.055 20.856 508.034 20.984C507.906 21.0053 507.762 21.0213 507.602 21.032C507.453 21.0427 507.319 21.048 507.202 21.048C507.074 21.048 506.93 21.0427 506.77 21.032C506.61 21.0213 506.461 21.0053 506.322 20.984ZM512.003 27.288C512.025 28.184 512.254 28.84 512.691 29.256C513.139 29.672 513.795 29.88 514.659 29.88C515.417 29.88 516.137 29.7467 516.819 29.48C516.905 29.64 516.974 29.8373 517.027 30.072C517.081 30.296 517.113 30.52 517.123 30.744C516.771 30.8933 516.382 31.0053 515.955 31.08C515.539 31.1547 515.075 31.192 514.563 31.192C513.817 31.192 513.177 31.0907 512.643 30.888C512.11 30.6747 511.667 30.3813 511.315 30.008C510.974 29.624 510.723 29.176 510.563 28.664C510.403 28.1413 510.323 27.5707 510.323 26.952C510.323 26.344 510.398 25.7787 510.547 25.256C510.707 24.7227 510.947 24.264 511.267 23.88C511.587 23.4853 511.987 23.176 512.467 22.952C512.958 22.7173 513.534 22.6 514.195 22.6C514.761 22.6 515.257 22.696 515.683 22.888C516.11 23.08 516.467 23.3467 516.755 23.688C517.043 24.0187 517.262 24.4187 517.411 24.888C517.561 25.3467 517.635 25.848 517.635 26.392C517.635 26.5413 517.63 26.7013 517.619 26.872C517.609 27.032 517.598 27.1707 517.587 27.288H512.003ZM516.067 26.104C516.067 25.8053 516.025 25.5227 515.939 25.256C515.865 24.9787 515.747 24.7387 515.587 24.536C515.438 24.3333 515.241 24.1733 514.995 24.056C514.761 23.928 514.478 23.864 514.147 23.864C513.497 23.864 512.995 24.0613 512.643 24.456C512.302 24.8507 512.094 25.4 512.019 26.104H516.067ZM514.339 21.496C514.222 21.5173 514.094 21.5333 513.955 21.544C513.817 21.5547 513.662 21.56 513.491 21.56C513.374 21.56 513.251 21.5547 513.123 21.544C513.006 21.5333 512.883 21.5173 512.755 21.496L514.595 19.464C514.755 19.4427 514.921 19.4267 515.091 19.416C515.262 19.4053 515.438 19.4 515.619 19.4C515.811 19.4 515.987 19.4053 516.147 19.416C516.307 19.4267 516.462 19.4427 516.611 19.464L514.339 21.496ZM519.71 22.792C519.827 22.7707 519.939 22.7547 520.046 22.744C520.163 22.7333 520.28 22.728 520.398 22.728C520.515 22.728 520.622 22.7333 520.718 22.744C520.824 22.7547 520.936 22.7707 521.054 22.792C521.086 22.952 521.118 23.1707 521.15 23.448C521.182 23.7147 521.198 23.9387 521.198 24.12C521.304 23.9387 521.438 23.7573 521.598 23.576C521.768 23.3947 521.96 23.2347 522.174 23.096C522.387 22.9467 522.632 22.8293 522.91 22.744C523.187 22.648 523.491 22.6 523.822 22.6C524.76 22.6 525.454 22.872 525.902 23.416C526.35 23.9493 526.574 24.744 526.574 25.8V31C526.456 31.0213 526.323 31.0373 526.174 31.048C526.024 31.0587 525.891 31.064 525.774 31.064C525.656 31.064 525.523 31.0587 525.374 31.048C525.235 31.0373 525.107 31.0213 524.99 31V26.232C524.99 25.4747 524.872 24.92 524.638 24.568C524.403 24.2053 524.03 24.024 523.518 24.024C523.219 24.024 522.936 24.0773 522.67 24.184C522.403 24.2907 522.168 24.456 521.966 24.68C521.763 24.904 521.598 25.1973 521.47 25.56C521.352 25.912 521.294 26.3387 521.294 26.84V31C521.176 31.0213 521.043 31.0373 520.894 31.048C520.755 31.0587 520.627 31.064 520.51 31.064C520.392 31.064 520.259 31.0587 520.11 31.048C519.96 31.0373 519.827 31.0213 519.71 31V22.792ZM530.144 27.288C530.165 28.184 530.394 28.84 530.832 29.256C531.28 29.672 531.936 29.88 532.8 29.88C533.557 29.88 534.277 29.7467 534.96 29.48C535.045 29.64 535.114 29.8373 535.168 30.072C535.221 30.296 535.253 30.52 535.264 30.744C534.912 30.8933 534.522 31.0053 534.096 31.08C533.68 31.1547 533.216 31.192 532.704 31.192C531.957 31.192 531.317 31.0907 530.784 30.888C530.25 30.6747 529.808 30.3813 529.456 30.008C529.114 29.624 528.864 29.176 528.704 28.664C528.544 28.1413 528.464 27.5707 528.464 26.952C528.464 26.344 528.538 25.7787 528.688 25.256C528.848 24.7227 529.088 24.264 529.408 23.88C529.728 23.4853 530.128 23.176 530.608 22.952C531.098 22.7173 531.674 22.6 532.336 22.6C532.901 22.6 533.397 22.696 533.824 22.888C534.25 23.08 534.608 23.3467 534.896 23.688C535.184 24.0187 535.402 24.4187 535.552 24.888C535.701 25.3467 535.776 25.848 535.776 26.392C535.776 26.5413 535.77 26.7013 535.76 26.872C535.749 27.032 535.738 27.1707 535.728 27.288H530.144ZM534.208 26.104C534.208 25.8053 534.165 25.5227 534.08 25.256C534.005 24.9787 533.888 24.7387 533.728 24.536C533.578 24.3333 533.381 24.1733 533.136 24.056C532.901 23.928 532.618 23.864 532.288 23.864C531.637 23.864 531.136 24.0613 530.784 24.456C530.442 24.8507 530.234 25.4 530.16 26.104H534.208ZM537.706 29.512C537.994 29.6293 538.309 29.7253 538.65 29.8C539.002 29.864 539.349 29.896 539.69 29.896C539.936 29.896 540.17 29.8693 540.394 29.816C540.618 29.7627 540.81 29.6827 540.97 29.576C541.141 29.4693 541.274 29.3413 541.37 29.192C541.477 29.032 541.53 28.856 541.53 28.664C541.53 28.4507 541.488 28.2747 541.402 28.136C541.328 27.9973 541.221 27.88 541.082 27.784C540.954 27.688 540.8 27.608 540.618 27.544C540.448 27.4693 540.261 27.4 540.058 27.336L539.498 27.128C538.816 26.872 538.32 26.584 538.01 26.264C537.701 25.944 537.546 25.512 537.546 24.968C537.546 24.2427 537.802 23.6667 538.314 23.24C538.837 22.8133 539.6 22.6 540.602 22.6C541.018 22.6 541.424 22.6427 541.818 22.728C542.224 22.8027 542.576 22.8933 542.874 23C542.853 23.2133 542.81 23.4267 542.746 23.64C542.693 23.8533 542.624 24.0507 542.538 24.232C542.304 24.1467 542.021 24.0667 541.69 23.992C541.37 23.9067 541.024 23.864 540.65 23.864C540.256 23.864 539.904 23.9333 539.594 24.072C539.296 24.2107 539.146 24.456 539.146 24.808C539.146 24.9893 539.184 25.144 539.258 25.272C539.333 25.4 539.434 25.512 539.562 25.608C539.69 25.6933 539.834 25.768 539.994 25.832C540.165 25.896 540.346 25.96 540.538 26.024L541.242 26.264C541.498 26.3493 541.738 26.4507 541.962 26.568C542.197 26.6853 542.394 26.8347 542.554 27.016C542.725 27.1867 542.858 27.4 542.954 27.656C543.061 27.9013 543.114 28.2 543.114 28.552C543.114 28.9467 543.034 29.3093 542.874 29.64C542.714 29.96 542.485 30.2373 542.186 30.472C541.898 30.696 541.546 30.872 541.13 31C540.714 31.128 540.256 31.192 539.754 31.192C539.242 31.192 538.794 31.1547 538.41 31.08C538.026 31.016 537.669 30.9253 537.338 30.808C537.36 30.5947 537.402 30.3813 537.466 30.168C537.541 29.944 537.621 29.7253 537.706 29.512ZM491.792 48.512C492.08 48.6293 492.395 48.7253 492.736 48.8C493.088 48.864 493.435 48.896 493.776 48.896C494.022 48.896 494.256 48.8693 494.48 48.816C494.704 48.7627 494.896 48.6827 495.056 48.576C495.227 48.4693 495.36 48.3413 495.456 48.192C495.563 48.032 495.616 47.856 495.616 47.664C495.616 47.4507 495.574 47.2747 495.488 47.136C495.414 46.9973 495.307 46.88 495.168 46.784C495.04 46.688 494.886 46.608 494.704 46.544C494.534 46.4693 494.347 46.4 494.144 46.336L493.584 46.128C492.902 45.872 492.406 45.584 492.096 45.264C491.787 44.944 491.632 44.512 491.632 43.968C491.632 43.2427 491.888 42.6667 492.4 42.24C492.923 41.8133 493.686 41.6 494.688 41.6C495.104 41.6 495.51 41.6427 495.904 41.728C496.31 41.8027 496.662 41.8933 496.96 42C496.939 42.2133 496.896 42.4267 496.832 42.64C496.779 42.8533 496.71 43.0507 496.624 43.232C496.39 43.1467 496.107 43.0667 495.776 42.992C495.456 42.9067 495.11 42.864 494.736 42.864C494.342 42.864 493.99 42.9333 493.68 43.072C493.382 43.2107 493.232 43.456 493.232 43.808C493.232 43.9893 493.27 44.144 493.344 44.272C493.419 44.4 493.52 44.512 493.648 44.608C493.776 44.6933 493.92 44.768 494.08 44.832C494.251 44.896 494.432 44.96 494.624 45.024L495.328 45.264C495.584 45.3493 495.824 45.4507 496.048 45.568C496.283 45.6853 496.48 45.8347 496.64 46.016C496.811 46.1867 496.944 46.4 497.04 46.656C497.147 46.9013 497.2 47.2 497.2 47.552C497.2 47.9467 497.12 48.3093 496.96 48.64C496.8 48.96 496.571 49.2373 496.272 49.472C495.984 49.696 495.632 49.872 495.216 50C494.8 50.128 494.342 50.192 493.84 50.192C493.328 50.192 492.88 50.1547 492.496 50.08C492.112 50.016 491.755 49.9253 491.424 49.808C491.446 49.5947 491.488 49.3813 491.552 49.168C491.627 48.944 491.707 48.7253 491.792 48.512ZM502.546 50.192C501.906 50.192 501.346 50.0853 500.866 49.872C500.386 49.648 499.986 49.344 499.666 48.96C499.346 48.576 499.106 48.1227 498.946 47.6C498.796 47.0773 498.722 46.512 498.722 45.904C498.722 45.296 498.796 44.7307 498.946 44.208C499.106 43.6853 499.346 43.232 499.666 42.848C499.986 42.464 500.386 42.16 500.866 41.936C501.346 41.712 501.906 41.6 502.546 41.6C503.186 41.6 503.746 41.712 504.226 41.936C504.706 42.16 505.106 42.464 505.426 42.848C505.746 43.232 505.98 43.6853 506.13 44.208C506.29 44.7307 506.37 45.296 506.37 45.904C506.37 46.512 506.29 47.0773 506.13 47.6C505.98 48.1227 505.746 48.576 505.426 48.96C505.106 49.344 504.706 49.648 504.226 49.872C503.746 50.0853 503.186 50.192 502.546 50.192ZM502.546 48.928C503.282 48.928 503.826 48.6613 504.178 48.128C504.53 47.5947 504.706 46.8533 504.706 45.904C504.706 44.9547 504.53 44.2187 504.178 43.696C503.826 43.1627 503.282 42.896 502.546 42.896C501.81 42.896 501.266 43.1627 500.914 43.696C500.572 44.2187 500.402 44.9547 500.402 45.904C500.402 46.8533 500.572 47.5947 500.914 48.128C501.266 48.6613 501.81 48.928 502.546 48.928ZM508.452 41.792C508.569 41.7707 508.681 41.7547 508.788 41.744C508.905 41.7333 509.023 41.728 509.14 41.728C509.257 41.728 509.364 41.7333 509.46 41.744C509.567 41.7547 509.679 41.7707 509.796 41.792C509.828 41.952 509.86 42.1653 509.892 42.432C509.924 42.688 509.94 42.9067 509.94 43.088C510.036 42.896 510.153 42.7147 510.292 42.544C510.441 42.3627 510.612 42.2027 510.804 42.064C511.007 41.9253 511.236 41.8133 511.492 41.728C511.748 41.6427 512.031 41.6 512.34 41.6C512.98 41.6 513.471 41.7333 513.812 42C514.164 42.256 514.431 42.6187 514.612 43.088C514.719 42.9067 514.847 42.7253 514.996 42.544C515.156 42.3627 515.332 42.2027 515.524 42.064C515.716 41.9253 515.935 41.8133 516.18 41.728C516.425 41.6427 516.703 41.6 517.012 41.6C517.961 41.6 518.649 41.8667 519.076 42.4C519.513 42.9333 519.732 43.7227 519.732 44.768V50C519.615 50.0213 519.481 50.0373 519.332 50.048C519.183 50.0587 519.049 50.064 518.932 50.064C518.815 50.064 518.681 50.0587 518.532 50.048C518.393 50.0373 518.265 50.0213 518.148 50V45.232C518.148 44.496 518.036 43.9467 517.812 43.584C517.588 43.2107 517.22 43.024 516.708 43.024C516.164 43.024 515.721 43.2213 515.38 43.616C515.049 44.0107 514.884 44.592 514.884 45.36V50C514.767 50.0213 514.633 50.0373 514.484 50.048C514.345 50.0587 514.217 50.064 514.1 50.064C513.983 50.064 513.849 50.0587 513.7 50.048C513.561 50.0373 513.433 50.0213 513.316 50V45.12C513.316 44.4053 513.209 43.872 512.996 43.52C512.783 43.1573 512.441 42.976 511.972 42.976C511.705 42.976 511.455 43.0347 511.22 43.152C510.985 43.2693 510.777 43.4453 510.596 43.68C510.425 43.9147 510.287 44.2133 510.18 44.576C510.084 44.928 510.036 45.3387 510.036 45.808V50C509.919 50.0213 509.785 50.0373 509.636 50.048C509.497 50.0587 509.369 50.064 509.252 50.064C509.135 50.064 509.001 50.0587 508.852 50.048C508.703 50.0373 508.569 50.0213 508.452 50V41.792ZM525.436 50.192C524.796 50.192 524.236 50.0853 523.756 49.872C523.276 49.648 522.876 49.344 522.556 48.96C522.236 48.576 521.996 48.1227 521.836 47.6C521.687 47.0773 521.612 46.512 521.612 45.904C521.612 45.296 521.687 44.7307 521.836 44.208C521.996 43.6853 522.236 43.232 522.556 42.848C522.876 42.464 523.276 42.16 523.756 41.936C524.236 41.712 524.796 41.6 525.436 41.6C526.076 41.6 526.636 41.712 527.116 41.936C527.596 42.16 527.996 42.464 528.316 42.848C528.636 43.232 528.871 43.6853 529.02 44.208C529.18 44.7307 529.26 45.296 529.26 45.904C529.26 46.512 529.18 47.0773 529.02 47.6C528.871 48.1227 528.636 48.576 528.316 48.96C527.996 49.344 527.596 49.648 527.116 49.872C526.636 50.0853 526.076 50.192 525.436 50.192ZM525.436 48.928C526.172 48.928 526.716 48.6613 527.068 48.128C527.42 47.5947 527.596 46.8533 527.596 45.904C527.596 44.9547 527.42 44.2187 527.068 43.696C526.716 43.1627 526.172 42.896 525.436 42.896C524.7 42.896 524.156 43.1627 523.804 43.696C523.463 44.2187 523.292 44.9547 523.292 45.904C523.292 46.8533 523.463 47.5947 523.804 48.128C524.156 48.6613 524.7 48.928 525.436 48.928ZM531.199 48.512C531.487 48.6293 531.801 48.7253 532.143 48.8C532.495 48.864 532.841 48.896 533.183 48.896C533.428 48.896 533.663 48.8693 533.887 48.816C534.111 48.7627 534.303 48.6827 534.463 48.576C534.633 48.4693 534.767 48.3413 534.863 48.192C534.969 48.032 535.023 47.856 535.023 47.664C535.023 47.4507 534.98 47.2747 534.895 47.136C534.82 46.9973 534.713 46.88 534.575 46.784C534.447 46.688 534.292 46.608 534.111 46.544C533.94 46.4693 533.753 46.4 533.551 46.336L532.991 46.128C532.308 45.872 531.812 45.584 531.503 45.264C531.193 44.944 531.039 44.512 531.039 43.968C531.039 43.2427 531.295 42.6667 531.807 42.24C532.329 41.8133 533.092 41.6 534.095 41.6C534.511 41.6 534.916 41.6427 535.311 41.728C535.716 41.8027 536.068 41.8933 536.367 42C536.345 42.2133 536.303 42.4267 536.239 42.64C536.185 42.8533 536.116 43.0507 536.031 43.232C535.796 43.1467 535.513 43.0667 535.183 42.992C534.863 42.9067 534.516 42.864 534.143 42.864C533.748 42.864 533.396 42.9333 533.087 43.072C532.788 43.2107 532.639 43.456 532.639 43.808C532.639 43.9893 532.676 44.144 532.751 44.272C532.825 44.4 532.927 44.512 533.055 44.608C533.183 44.6933 533.327 44.768 533.487 44.832C533.657 44.896 533.839 44.96 534.031 45.024L534.735 45.264C534.991 45.3493 535.231 45.4507 535.455 45.568C535.689 45.6853 535.887 45.8347 536.047 46.016C536.217 46.1867 536.351 46.4 536.447 46.656C536.553 46.9013 536.607 47.2 536.607 47.552C536.607 47.9467 536.527 48.3093 536.367 48.64C536.207 48.96 535.977 49.2373 535.679 49.472C535.391 49.696 535.039 49.872 534.623 50C534.207 50.128 533.748 50.192 533.247 50.192C532.735 50.192 532.287 50.1547 531.903 50.08C531.519 50.016 531.161 49.9253 530.831 49.808C530.852 49.5947 530.895 49.3813 530.959 49.168C531.033 48.944 531.113 48.7253 531.199 48.512Z" fill="#0B2C4C"/>
<path d="M604.83 38.82C605.065 39.2787 605.214 39.7213 605.278 40.148C604.83 40.34 604.371 40.4787 603.902 40.564C603.433 40.6493 602.926 40.692 602.382 40.692C601.55 40.692 600.798 40.5587 600.126 40.292C599.465 40.0147 598.905 39.6253 598.446 39.124C597.987 38.612 597.635 37.9933 597.39 37.268C597.145 36.5427 597.022 35.7267 597.022 34.82C597.022 33.9027 597.145 33.076 597.39 32.34C597.635 31.5933 597.987 30.9587 598.446 30.436C598.905 29.9133 599.465 29.5133 600.126 29.236C600.787 28.948 601.529 28.804 602.35 28.804C602.958 28.804 603.481 28.8467 603.918 28.932C604.355 29.0173 604.745 29.1187 605.086 29.236C605.065 29.4813 605.017 29.7107 604.942 29.924C604.878 30.1267 604.798 30.3453 604.702 30.58C604.542 30.5267 604.387 30.4787 604.238 30.436C604.089 30.3933 603.929 30.356 603.758 30.324C603.587 30.292 603.395 30.2707 603.182 30.26C602.979 30.2387 602.745 30.228 602.478 30.228C601.315 30.228 600.409 30.6227 599.758 31.412C599.118 32.2013 598.798 33.3373 598.798 34.82C598.798 35.5773 598.889 36.2333 599.07 36.788C599.251 37.3427 599.507 37.8013 599.838 38.164C600.169 38.5267 600.563 38.7987 601.022 38.98C601.491 39.1613 602.014 39.252 602.59 39.252C603.038 39.252 603.443 39.2147 603.806 39.14C604.169 39.0653 604.51 38.9587 604.83 38.82ZM611.429 36.644C611.269 36.6227 611.066 36.6013 610.821 36.58C610.575 36.5587 610.367 36.548 610.197 36.548C609.535 36.548 609.029 36.6707 608.677 36.916C608.335 37.1613 608.164 37.5347 608.164 38.036C608.164 38.356 608.223 38.6067 608.341 38.788C608.458 38.9693 608.602 39.108 608.773 39.204C608.954 39.3 609.151 39.3587 609.365 39.38C609.578 39.4013 609.781 39.412 609.973 39.412C610.218 39.412 610.469 39.4013 610.725 39.38C610.991 39.348 611.226 39.3053 611.429 39.252V36.644ZM611.429 35.092C611.429 34.4627 611.269 34.0253 610.949 33.78C610.629 33.5347 610.165 33.412 609.557 33.412C609.183 33.412 608.831 33.444 608.501 33.508C608.181 33.5613 607.866 33.636 607.557 33.732C607.354 33.38 607.253 32.9587 607.253 32.468C607.615 32.3507 608.015 32.26 608.453 32.196C608.89 32.132 609.311 32.1 609.717 32.1C610.783 32.1 611.594 32.3453 612.149 32.836C612.703 33.316 612.981 34.0893 612.981 35.156V40.292C612.607 40.3773 612.154 40.4627 611.621 40.548C611.087 40.644 610.543 40.692 609.989 40.692C609.466 40.692 608.991 40.644 608.565 40.548C608.149 40.452 607.791 40.2973 607.493 40.084C607.205 39.8707 606.981 39.5987 606.821 39.268C606.661 38.9373 606.581 38.5373 606.581 38.068C606.581 37.6093 606.671 37.2093 606.853 36.868C607.045 36.516 607.301 36.228 607.621 36.004C607.941 35.7693 608.309 35.5987 608.725 35.492C609.141 35.3747 609.578 35.316 610.036 35.316C610.378 35.316 610.655 35.3267 610.869 35.348C611.093 35.3587 611.279 35.3747 611.429 35.396V35.092ZM615.662 33.556H614.414L614.35 33.332L617.102 30.26H617.23V32.292H619.31C619.353 32.4733 619.374 32.676 619.374 32.9C619.374 33.0173 619.369 33.1293 619.358 33.236C619.347 33.3427 619.331 33.4493 619.31 33.556H617.23V37.3C617.23 37.748 617.246 38.1053 617.278 38.372C617.321 38.6387 617.385 38.8467 617.47 38.996C617.566 39.1347 617.689 39.2307 617.838 39.284C617.998 39.3267 618.195 39.348 618.43 39.348C618.611 39.348 618.782 39.3373 618.942 39.316C619.102 39.284 619.246 39.252 619.374 39.22C619.449 39.4333 619.491 39.652 619.502 39.876C619.523 40.1 619.534 40.2973 619.534 40.468C619.321 40.5213 619.097 40.5587 618.862 40.58C618.627 40.612 618.377 40.628 618.11 40.628C617.342 40.628 616.739 40.4413 616.302 40.068C615.875 39.6947 615.662 39.076 615.662 38.212V33.556ZM625.429 36.644C625.269 36.6227 625.066 36.6013 624.821 36.58C624.575 36.5587 624.367 36.548 624.197 36.548C623.535 36.548 623.029 36.6707 622.677 36.916C622.335 37.1613 622.164 37.5347 622.164 38.036C622.164 38.356 622.223 38.6067 622.341 38.788C622.458 38.9693 622.602 39.108 622.773 39.204C622.954 39.3 623.151 39.3587 623.365 39.38C623.578 39.4013 623.781 39.412 623.973 39.412C624.218 39.412 624.469 39.4013 624.725 39.38C624.991 39.348 625.226 39.3053 625.429 39.252V36.644ZM625.429 35.092C625.429 34.4627 625.269 34.0253 624.949 33.78C624.629 33.5347 624.165 33.412 623.557 33.412C623.183 33.412 622.831 33.444 622.501 33.508C622.181 33.5613 621.866 33.636 621.557 33.732C621.354 33.38 621.253 32.9587 621.253 32.468C621.615 32.3507 622.015 32.26 622.453 32.196C622.89 32.132 623.311 32.1 623.717 32.1C624.783 32.1 625.594 32.3453 626.149 32.836C626.703 33.316 626.981 34.0893 626.981 35.156V40.292C626.607 40.3773 626.154 40.4627 625.621 40.548C625.087 40.644 624.543 40.692 623.989 40.692C623.466 40.692 622.991 40.644 622.565 40.548C622.149 40.452 621.791 40.2973 621.493 40.084C621.205 39.8707 620.981 39.5987 620.821 39.268C620.661 38.9373 620.581 38.5373 620.581 38.068C620.581 37.6093 620.671 37.2093 620.853 36.868C621.045 36.516 621.301 36.228 621.621 36.004C621.941 35.7693 622.309 35.5987 622.725 35.492C623.141 35.3747 623.578 35.316 624.036 35.316C624.378 35.316 624.655 35.3267 624.869 35.348C625.093 35.3587 625.279 35.3747 625.429 35.396V35.092ZM623.941 30.996C623.823 31.0173 623.695 31.0333 623.557 31.044C623.418 31.0547 623.263 31.06 623.093 31.06C622.975 31.06 622.853 31.0547 622.725 31.044C622.607 31.0333 622.485 31.0173 622.357 30.996L624.197 28.964C624.357 28.9427 624.522 28.9267 624.693 28.916C624.863 28.9053 625.039 28.9 625.221 28.9C625.413 28.9 625.589 28.9053 625.749 28.916C625.909 28.9267 626.063 28.9427 626.213 28.964L623.941 30.996ZM629.326 28.772C629.443 28.7507 629.571 28.7347 629.71 28.724C629.859 28.7133 629.993 28.708 630.11 28.708C630.227 28.708 630.355 28.7133 630.494 28.724C630.643 28.7347 630.777 28.7507 630.894 28.772V38.02C630.894 38.3187 630.921 38.5533 630.974 38.724C631.027 38.8947 631.097 39.028 631.182 39.124C631.278 39.2093 631.385 39.268 631.502 39.3C631.63 39.3213 631.763 39.332 631.902 39.332C631.998 39.332 632.105 39.3267 632.222 39.316C632.35 39.3053 632.457 39.2893 632.542 39.268C632.638 39.6413 632.686 40.0467 632.686 40.484C632.537 40.5373 632.355 40.5693 632.142 40.58C631.929 40.6013 631.731 40.612 631.55 40.612C631.241 40.612 630.953 40.5747 630.686 40.5C630.419 40.4253 630.185 40.3027 629.982 40.132C629.779 39.9613 629.619 39.732 629.502 39.444C629.385 39.156 629.326 38.7987 629.326 38.372V28.772ZM637.452 40.692C636.812 40.692 636.252 40.5853 635.772 40.372C635.292 40.148 634.892 39.844 634.572 39.46C634.252 39.076 634.012 38.6227 633.852 38.1C633.702 37.5773 633.628 37.012 633.628 36.404C633.628 35.796 633.702 35.2307 633.852 34.708C634.012 34.1853 634.252 33.732 634.572 33.348C634.892 32.964 635.292 32.66 635.772 32.436C636.252 32.212 636.812 32.1 637.452 32.1C638.092 32.1 638.652 32.212 639.132 32.436C639.612 32.66 640.012 32.964 640.332 33.348C640.652 33.732 640.886 34.1853 641.036 34.708C641.196 35.2307 641.276 35.796 641.276 36.404C641.276 37.012 641.196 37.5773 641.036 38.1C640.886 38.6227 640.652 39.076 640.332 39.46C640.012 39.844 639.612 40.148 639.132 40.372C638.652 40.5853 638.092 40.692 637.452 40.692ZM637.452 39.428C638.188 39.428 638.732 39.1613 639.084 38.628C639.436 38.0947 639.612 37.3533 639.612 36.404C639.612 35.4547 639.436 34.7187 639.084 34.196C638.732 33.6627 638.188 33.396 637.452 33.396C636.716 33.396 636.172 33.6627 635.82 34.196C635.478 34.7187 635.308 35.4547 635.308 36.404C635.308 37.3533 635.478 38.0947 635.82 38.628C636.172 39.1613 636.716 39.428 637.452 39.428ZM647.68 39.444C648.629 39.4653 649.317 39.668 649.744 40.052C650.171 40.436 650.384 40.964 650.384 41.636C650.384 42.0733 650.272 42.4627 650.048 42.804C649.824 43.156 649.515 43.4547 649.12 43.7C648.725 43.956 648.256 44.148 647.712 44.276C647.179 44.4147 646.597 44.484 645.968 44.484C644.869 44.484 644.032 44.3133 643.456 43.972C642.88 43.6307 642.592 43.092 642.592 42.356C642.592 41.9187 642.709 41.524 642.944 41.172C643.179 40.8307 643.483 40.5587 643.856 40.356C643.643 40.2173 643.461 40.0467 643.312 39.844C643.173 39.6307 643.104 39.3693 643.104 39.06C643.104 38.6653 643.189 38.324 643.36 38.036C643.541 37.748 643.781 37.492 644.08 37.268C643.728 37.0227 643.445 36.708 643.232 36.324C643.019 35.9293 642.912 35.4867 642.912 34.996C642.912 34.5907 642.987 34.212 643.136 33.86C643.285 33.508 643.499 33.204 643.776 32.948C644.064 32.6813 644.416 32.4733 644.832 32.324C645.248 32.1747 645.723 32.1 646.256 32.1C646.736 32.1 647.168 32.1693 647.552 32.308C647.947 32.4467 648.283 32.6227 648.56 32.836C648.773 32.6653 649.061 32.5267 649.424 32.42C649.787 32.3027 650.187 32.244 650.624 32.244C650.667 32.4467 650.688 32.6707 650.688 32.916C650.688 33.0333 650.683 33.156 650.672 33.284C650.661 33.412 650.645 33.54 650.624 33.668H649.184C649.301 33.8493 649.392 34.0467 649.456 34.26C649.52 34.4733 649.552 34.7187 649.552 34.996C649.552 35.4333 649.472 35.828 649.312 36.18C649.152 36.532 648.923 36.836 648.624 37.092C648.336 37.3373 647.989 37.5293 647.584 37.668C647.179 37.796 646.736 37.86 646.256 37.86C645.819 37.86 645.424 37.812 645.072 37.716C644.923 37.8013 644.773 37.9347 644.624 38.116C644.485 38.2867 644.416 38.4733 644.416 38.676C644.416 38.868 644.485 39.0387 644.624 39.188C644.763 39.3267 645.072 39.4013 645.552 39.412L647.68 39.444ZM645.52 40.708C645.04 40.6973 644.677 40.8253 644.432 41.092C644.197 41.3587 644.08 41.6787 644.08 42.052C644.08 42.2867 644.128 42.4787 644.224 42.628C644.32 42.7773 644.453 42.8947 644.624 42.98C644.805 43.076 645.013 43.14 645.248 43.172C645.493 43.2147 645.76 43.236 646.048 43.236C646.901 43.236 647.568 43.092 648.048 42.804C648.528 42.5267 648.768 42.1747 648.768 41.748C648.768 41.428 648.667 41.1827 648.464 41.012C648.261 40.8413 647.888 40.7507 647.344 40.74L645.52 40.708ZM646.256 36.708C646.832 36.708 647.259 36.548 647.536 36.228C647.813 35.908 647.952 35.4973 647.952 34.996C647.952 34.484 647.813 34.068 647.536 33.748C647.259 33.4173 646.832 33.252 646.256 33.252C645.68 33.252 645.253 33.4173 644.976 33.748C644.709 34.068 644.576 34.484 644.576 34.996C644.576 35.4973 644.709 35.908 644.976 36.228C645.253 36.548 645.68 36.708 646.256 36.708ZM655.296 40.692C654.656 40.692 654.096 40.5853 653.616 40.372C653.136 40.148 652.736 39.844 652.416 39.46C652.096 39.076 651.856 38.6227 651.696 38.1C651.546 37.5773 651.472 37.012 651.472 36.404C651.472 35.796 651.546 35.2307 651.696 34.708C651.856 34.1853 652.096 33.732 652.416 33.348C652.736 32.964 653.136 32.66 653.616 32.436C654.096 32.212 654.656 32.1 655.296 32.1C655.936 32.1 656.496 32.212 656.976 32.436C657.456 32.66 657.856 32.964 658.176 33.348C658.496 33.732 658.73 34.1853 658.88 34.708C659.04 35.2307 659.12 35.796 659.12 36.404C659.12 37.012 659.04 37.5773 658.88 38.1C658.73 38.6227 658.496 39.076 658.176 39.46C657.856 39.844 657.456 40.148 656.976 40.372C656.496 40.5853 655.936 40.692 655.296 40.692ZM655.296 39.428C656.032 39.428 656.576 39.1613 656.928 38.628C657.28 38.0947 657.456 37.3533 657.456 36.404C657.456 35.4547 657.28 34.7187 656.928 34.196C656.576 33.6627 656.032 33.396 655.296 33.396C654.56 33.396 654.016 33.6627 653.664 34.196C653.322 34.7187 653.152 35.4547 653.152 36.404C653.152 37.3533 653.322 38.0947 653.664 38.628C654.016 39.1613 654.56 39.428 655.296 39.428Z" fill="#0B2C4C"/>
<path d="M727.283 28.996C727.55 28.9427 727.923 28.9 728.403 28.868C728.883 28.836 729.369 28.82 729.859 28.82C730.467 28.82 731.022 28.8733 731.523 28.98C732.025 29.0867 732.451 29.2627 732.803 29.508C733.166 29.7427 733.443 30.052 733.635 30.436C733.838 30.8093 733.939 31.268 733.939 31.812C733.939 32.1427 733.886 32.452 733.779 32.74C733.683 33.0173 733.55 33.268 733.379 33.492C733.209 33.7053 733.011 33.8867 732.787 34.036C732.563 34.1747 732.334 34.276 732.099 34.34C732.398 34.372 732.697 34.452 732.995 34.58C733.305 34.708 733.582 34.8893 733.827 35.124C734.073 35.3587 734.27 35.6573 734.419 36.02C734.579 36.372 734.659 36.804 734.659 37.316C734.659 37.9347 734.537 38.4627 734.291 38.9C734.046 39.3267 733.71 39.6733 733.283 39.94C732.867 40.2067 732.371 40.3987 731.795 40.516C731.23 40.6333 730.622 40.692 729.971 40.692C729.566 40.692 729.123 40.6707 728.643 40.628C728.163 40.596 727.71 40.5533 727.283 40.5V28.996ZM728.899 39.236C729.049 39.2573 729.235 39.2733 729.459 39.284C729.694 39.2947 729.923 39.3 730.147 39.3C730.531 39.3 730.889 39.268 731.219 39.204C731.561 39.14 731.859 39.0333 732.115 38.884C732.371 38.724 732.574 38.516 732.723 38.26C732.873 37.9933 732.947 37.6573 732.947 37.252C732.947 36.8573 732.878 36.5267 732.739 36.26C732.601 35.9827 732.409 35.764 732.163 35.604C731.929 35.4333 731.646 35.316 731.315 35.252C730.985 35.1773 730.627 35.14 730.243 35.14H728.899V39.236ZM730.067 33.796C730.793 33.796 731.347 33.6413 731.731 33.332C732.115 33.012 732.307 32.5373 732.307 31.908C732.307 31.3 732.099 30.8467 731.683 30.548C731.278 30.2493 730.723 30.1 730.019 30.1C729.806 30.1 729.598 30.1053 729.395 30.116C729.203 30.1267 729.038 30.1427 728.899 30.164V33.796H730.067ZM736.623 28.772C736.74 28.7507 736.868 28.7347 737.007 28.724C737.156 28.7133 737.29 28.708 737.407 28.708C737.524 28.708 737.652 28.7133 737.791 28.724C737.94 28.7347 738.074 28.7507 738.191 28.772V38.02C738.191 38.3187 738.218 38.5533 738.271 38.724C738.324 38.8947 738.394 39.028 738.479 39.124C738.575 39.2093 738.682 39.268 738.799 39.3C738.927 39.3213 739.06 39.332 739.199 39.332C739.295 39.332 739.402 39.3267 739.519 39.316C739.647 39.3053 739.754 39.2893 739.839 39.268C739.935 39.6413 739.983 40.0467 739.983 40.484C739.834 40.5373 739.652 40.5693 739.439 40.58C739.226 40.6013 739.028 40.612 738.847 40.612C738.538 40.612 738.25 40.5747 737.983 40.5C737.716 40.4253 737.482 40.3027 737.279 40.132C737.076 39.9613 736.916 39.732 736.799 39.444C736.682 39.156 736.623 38.7987 736.623 38.372V28.772ZM744.749 40.692C744.109 40.692 743.549 40.5853 743.069 40.372C742.589 40.148 742.189 39.844 741.869 39.46C741.549 39.076 741.309 38.6227 741.149 38.1C740.999 37.5773 740.925 37.012 740.925 36.404C740.925 35.796 740.999 35.2307 741.149 34.708C741.309 34.1853 741.549 33.732 741.869 33.348C742.189 32.964 742.589 32.66 743.069 32.436C743.549 32.212 744.109 32.1 744.749 32.1C745.389 32.1 745.949 32.212 746.429 32.436C746.909 32.66 747.309 32.964 747.629 33.348C747.949 33.732 748.183 34.1853 748.333 34.708C748.493 35.2307 748.573 35.796 748.573 36.404C748.573 37.012 748.493 37.5773 748.333 38.1C748.183 38.6227 747.949 39.076 747.629 39.46C747.309 39.844 746.909 40.148 746.429 40.372C745.949 40.5853 745.389 40.692 744.749 40.692ZM744.749 39.428C745.485 39.428 746.029 39.1613 746.381 38.628C746.733 38.0947 746.909 37.3533 746.909 36.404C746.909 35.4547 746.733 34.7187 746.381 34.196C746.029 33.6627 745.485 33.396 744.749 33.396C744.013 33.396 743.469 33.6627 743.117 34.196C742.775 34.7187 742.605 35.4547 742.605 36.404C742.605 37.3533 742.775 38.0947 743.117 38.628C743.469 39.1613 744.013 39.428 744.749 39.428ZM754.977 39.444C755.926 39.4653 756.614 39.668 757.041 40.052C757.468 40.436 757.681 40.964 757.681 41.636C757.681 42.0733 757.569 42.4627 757.345 42.804C757.121 43.156 756.812 43.4547 756.417 43.7C756.022 43.956 755.553 44.148 755.009 44.276C754.476 44.4147 753.894 44.484 753.265 44.484C752.166 44.484 751.329 44.3133 750.753 43.972C750.177 43.6307 749.889 43.092 749.889 42.356C749.889 41.9187 750.006 41.524 750.241 41.172C750.476 40.8307 750.78 40.5587 751.153 40.356C750.94 40.2173 750.758 40.0467 750.609 39.844C750.47 39.6307 750.401 39.3693 750.401 39.06C750.401 38.6653 750.486 38.324 750.657 38.036C750.838 37.748 751.078 37.492 751.377 37.268C751.025 37.0227 750.742 36.708 750.529 36.324C750.316 35.9293 750.209 35.4867 750.209 34.996C750.209 34.5907 750.284 34.212 750.433 33.86C750.582 33.508 750.796 33.204 751.073 32.948C751.361 32.6813 751.713 32.4733 752.129 32.324C752.545 32.1747 753.02 32.1 753.553 32.1C754.033 32.1 754.465 32.1693 754.849 32.308C755.244 32.4467 755.58 32.6227 755.857 32.836C756.07 32.6653 756.358 32.5267 756.721 32.42C757.084 32.3027 757.484 32.244 757.921 32.244C757.964 32.4467 757.985 32.6707 757.985 32.916C757.985 33.0333 757.98 33.156 757.969 33.284C757.958 33.412 757.942 33.54 757.921 33.668H756.481C756.598 33.8493 756.689 34.0467 756.753 34.26C756.817 34.4733 756.849 34.7187 756.849 34.996C756.849 35.4333 756.769 35.828 756.609 36.18C756.449 36.532 756.22 36.836 755.921 37.092C755.633 37.3373 755.286 37.5293 754.881 37.668C754.476 37.796 754.033 37.86 753.553 37.86C753.116 37.86 752.721 37.812 752.369 37.716C752.22 37.8013 752.07 37.9347 751.921 38.116C751.782 38.2867 751.713 38.4733 751.713 38.676C751.713 38.868 751.782 39.0387 751.921 39.188C752.06 39.3267 752.369 39.4013 752.849 39.412L754.977 39.444ZM752.817 40.708C752.337 40.6973 751.974 40.8253 751.729 41.092C751.494 41.3587 751.377 41.6787 751.377 42.052C751.377 42.2867 751.425 42.4787 751.521 42.628C751.617 42.7773 751.75 42.8947 751.921 42.98C752.102 43.076 752.31 43.14 752.545 43.172C752.79 43.2147 753.057 43.236 753.345 43.236C754.198 43.236 754.865 43.092 755.345 42.804C755.825 42.5267 756.065 42.1747 756.065 41.748C756.065 41.428 755.964 41.1827 755.761 41.012C755.558 40.8413 755.185 40.7507 754.641 40.74L752.817 40.708ZM753.553 36.708C754.129 36.708 754.556 36.548 754.833 36.228C755.11 35.908 755.249 35.4973 755.249 34.996C755.249 34.484 755.11 34.068 754.833 33.748C754.556 33.4173 754.129 33.252 753.553 33.252C752.977 33.252 752.55 33.4173 752.273 33.748C752.006 34.068 751.873 34.484 751.873 34.996C751.873 35.4973 752.006 35.908 752.273 36.228C752.55 36.548 752.977 36.708 753.553 36.708Z" fill="#0B2C4C"/>
<path d="M809.352 29.4315C809.469 29.4102 809.613 29.3942 809.784 29.3835C809.955 29.3729 810.109 29.3675 810.248 29.3675C810.387 29.3675 810.536 29.3729 810.696 29.3835C810.867 29.3942 811.021 29.4102 811.16 29.4315L814.072 39.2715L816.968 29.4315C817.256 29.3995 817.549 29.3835 817.848 29.3835C817.987 29.3835 818.131 29.3889 818.28 29.3995C818.44 29.3995 818.584 29.4102 818.712 29.4315L814.968 40.9355C814.829 40.9462 814.675 40.9569 814.504 40.9675C814.333 40.9889 814.173 40.9995 814.024 40.9995C813.875 40.9995 813.715 40.9889 813.544 40.9675C813.384 40.9569 813.229 40.9462 813.08 40.9355L809.352 29.4315ZM819.356 34.6955C819.644 34.0342 820.071 33.5115 820.636 33.1275C821.212 32.7329 821.938 32.5355 822.812 32.5355C823.57 32.5355 824.199 32.7009 824.7 33.0315C825.212 33.3622 825.596 33.8155 825.852 34.3915C826.119 34.9569 826.252 35.6022 826.252 36.3275C826.252 36.4662 826.247 36.6209 826.236 36.7915C826.226 36.9622 826.215 37.1062 826.204 37.2235H820.62C820.642 38.1089 820.876 38.7649 821.324 39.1915C821.772 39.6075 822.423 39.8155 823.276 39.8155C824.034 39.8155 824.754 39.6822 825.436 39.4155C825.522 39.5755 825.591 39.7729 825.644 40.0075C825.698 40.2315 825.73 40.4555 825.74 40.6795C825.388 40.8182 824.999 40.9249 824.572 40.9995C824.156 41.0849 823.692 41.1275 823.18 41.1275C822.188 41.1275 821.378 40.9462 820.748 40.5835C820.13 40.2209 819.671 39.7195 819.372 39.0795C819.084 38.4395 818.94 37.7089 818.94 36.8875C818.94 36.0769 819.079 35.3462 819.356 34.6955ZM824.684 36.0395C824.684 35.6342 824.615 35.2662 824.476 34.9355C824.338 34.5942 824.13 34.3222 823.852 34.1195C823.575 33.9062 823.212 33.7995 822.764 33.7995C822.114 33.7995 821.612 33.9969 821.26 34.3915C820.919 34.7862 820.711 35.3355 820.636 36.0395H824.684ZM828.327 32.7275C828.444 32.7062 828.556 32.6902 828.663 32.6795C828.78 32.6689 828.892 32.6635 828.999 32.6635C829.116 32.6635 829.234 32.6689 829.351 32.6795C829.468 32.6902 829.575 32.7062 829.671 32.7275C829.703 32.8875 829.735 33.1009 829.767 33.3675C829.799 33.6235 829.815 33.8422 829.815 34.0235C830.039 33.6609 830.332 33.3462 830.695 33.0795C831.068 32.8129 831.543 32.6795 832.119 32.6795C832.204 32.6795 832.29 32.6849 832.375 32.6955C832.471 32.6955 832.551 32.7009 832.615 32.7115C832.636 32.8075 832.652 32.9089 832.663 33.0155C832.674 33.1222 832.679 33.2342 832.679 33.3515C832.679 33.5969 832.652 33.8635 832.599 34.1515C832.514 34.1302 832.423 34.1195 832.327 34.1195C832.242 34.1195 832.172 34.1195 832.119 34.1195C831.746 34.1195 831.388 34.1942 831.047 34.3435C830.706 34.4929 830.428 34.7649 830.215 35.1595C830.012 35.5542 829.911 36.1195 829.911 36.8555V40.9355C829.794 40.9569 829.66 40.9729 829.511 40.9835C829.372 40.9942 829.244 40.9995 829.127 40.9995C829.02 40.9995 828.892 40.9942 828.743 40.9835C828.594 40.9729 828.455 40.9569 828.327 40.9355V32.7275ZM838.077 32.7275C838.194 32.7062 838.306 32.6902 838.413 32.6795C838.53 32.6689 838.648 32.6635 838.765 32.6635C838.882 32.6635 838.994 32.6689 839.101 32.6795C839.208 32.6902 839.314 32.7062 839.421 32.7275C839.453 32.8875 839.485 33.1009 839.517 33.3675C839.549 33.6235 839.565 33.8422 839.565 34.0235C839.757 33.6502 840.05 33.3089 840.445 32.9995C840.84 32.6902 841.346 32.5355 841.965 32.5355C842.594 32.5355 843.085 32.6689 843.437 32.9355C843.789 33.1915 844.056 33.5542 844.237 34.0235C844.461 33.6502 844.765 33.3089 845.149 32.9995C845.533 32.6902 846.029 32.5355 846.637 32.5355C847.586 32.5355 848.274 32.8022 848.701 33.3355C849.138 33.8689 849.357 34.6582 849.357 35.7035V40.9355C849.24 40.9462 849.106 40.9569 848.957 40.9675C848.808 40.9889 848.674 40.9995 848.557 40.9995C848.45 40.9995 848.322 40.9889 848.173 40.9675C848.024 40.9569 847.89 40.9462 847.773 40.9355V36.1675C847.773 35.4315 847.656 34.8822 847.421 34.5195C847.197 34.1462 846.834 33.9595 846.333 33.9595C845.8 33.9595 845.362 34.1569 845.021 34.5515C844.68 34.9462 844.509 35.5275 844.509 36.2955V40.9355C844.392 40.9462 844.258 40.9569 844.109 40.9675C843.97 40.9889 843.842 40.9995 843.725 40.9995C843.618 40.9995 843.49 40.9889 843.341 40.9675C843.192 40.9569 843.058 40.9462 842.941 40.9355V36.0555C842.941 34.6262 842.493 33.9115 841.597 33.9115C841.064 33.9115 840.605 34.1462 840.221 34.6155C839.848 35.0849 839.661 35.7942 839.661 36.7435V40.9355C839.544 40.9462 839.41 40.9569 839.261 40.9675C839.122 40.9889 838.994 40.9995 838.877 40.9995C838.77 40.9995 838.637 40.9889 838.477 40.9675C838.328 40.9569 838.194 40.9462 838.077 40.9355V32.7275ZM857.621 40.7275C857.258 40.8129 856.805 40.8982 856.261 40.9835C855.728 41.0795 855.184 41.1275 854.629 41.1275C853.594 41.1275 852.768 40.9249 852.149 40.5195C851.53 40.1142 851.221 39.4422 851.221 38.5035C851.221 37.8849 851.381 37.3729 851.701 36.9675C852.021 36.5622 852.442 36.2582 852.965 36.0555C853.498 35.8529 854.069 35.7515 854.677 35.7515C855.018 35.7515 855.301 35.7622 855.525 35.7835C855.749 35.7942 855.93 35.8102 856.069 35.8315V35.5275C856.069 34.8982 855.904 34.4609 855.573 34.2155C855.253 33.9702 854.794 33.8475 854.197 33.8475C853.834 33.8475 853.488 33.8795 853.157 33.9435C852.826 33.9969 852.506 34.0715 852.197 34.1675C851.994 33.8155 851.893 33.3942 851.893 32.9035C852.256 32.7862 852.656 32.6955 853.093 32.6315C853.53 32.5675 853.952 32.5355 854.357 32.5355C855.424 32.5355 856.234 32.7809 856.789 33.2715C857.344 33.7622 857.621 34.5355 857.621 35.5915V40.7275ZM855.461 37.0155C855.216 36.9942 855.008 36.9835 854.837 36.9835C854.186 36.9835 853.685 37.1062 853.333 37.3515C852.981 37.5969 852.805 37.9702 852.805 38.4715C852.805 38.8982 852.901 39.2075 853.093 39.3995C853.296 39.5915 853.536 39.7142 853.813 39.7675C854.09 39.8209 854.357 39.8475 854.613 39.8475C855.136 39.8475 855.621 39.7942 856.069 39.6875V37.0795C855.909 37.0582 855.706 37.0369 855.461 37.0155ZM855.413 29.3995C855.573 29.3782 855.738 29.3622 855.909 29.3515C856.09 29.3409 856.266 29.3355 856.437 29.3355C856.629 29.3355 856.805 29.3409 856.965 29.3515C857.125 29.3622 857.28 29.3782 857.429 29.3995L855.157 31.4315C855.05 31.4422 854.922 31.4582 854.773 31.4795C854.634 31.4902 854.48 31.4955 854.309 31.4955C854.192 31.4955 854.069 31.4902 853.941 31.4795C853.824 31.4689 853.701 31.4529 853.573 31.4315L855.413 29.3995ZM860.479 33.1755C861.001 32.7489 861.759 32.5355 862.751 32.5355C863.167 32.5355 863.572 32.5782 863.967 32.6635C864.372 32.7382 864.724 32.8289 865.023 32.9355C864.969 33.3729 864.857 33.7835 864.687 34.1675C864.452 34.0822 864.169 34.0022 863.839 33.9275C863.519 33.8422 863.172 33.7995 862.799 33.7995C862.404 33.7995 862.052 33.8689 861.743 34.0075C861.444 34.1462 861.295 34.3915 861.295 34.7435C861.295 35.1062 861.433 35.3675 861.711 35.5275C861.988 35.6875 862.313 35.8315 862.687 35.9595L863.391 36.1995C863.732 36.3169 864.041 36.4662 864.319 36.6475C864.607 36.8182 864.836 37.0529 865.007 37.3515C865.177 37.6395 865.263 38.0182 865.263 38.4875C865.263 39.0102 865.124 39.4689 864.847 39.8635C864.569 40.2582 864.175 40.5675 863.663 40.7915C863.161 41.0155 862.575 41.1275 861.903 41.1275C861.391 41.1275 860.943 41.0902 860.559 41.0155C860.175 40.9515 859.817 40.8609 859.487 40.7435C859.508 40.5302 859.551 40.3115 859.615 40.0875C859.689 39.8635 859.769 39.6502 859.855 39.4475C860.143 39.5542 860.463 39.6449 860.815 39.7195C861.167 39.7942 861.508 39.8315 861.839 39.8315C862.34 39.8315 862.772 39.7249 863.135 39.5115C863.497 39.2982 863.679 38.9942 863.679 38.5995C863.679 38.3115 863.609 38.0929 863.471 37.9435C863.343 37.7835 863.167 37.6555 862.943 37.5595C862.719 37.4529 862.473 37.3569 862.207 37.2715L861.647 37.0635C860.964 36.8075 860.468 36.5195 860.159 36.1995C859.849 35.8795 859.695 35.4475 859.695 34.9035C859.695 34.1782 859.956 33.6022 860.479 33.1755Z" fill="#0B2C4C"/>
<path fill-rule="evenodd" clip-rule="evenodd" d="M872.33 32.3231C872.516 32.1345 872.77 32.0277 873.035 32.0261C873.3 32.0245 873.555 32.1283 873.744 32.3147L877.056 35.5881L880.33 32.2757C880.421 32.1796 880.531 32.1028 880.653 32.0497C880.775 31.9965 880.906 31.9682 881.038 31.9662C881.171 31.9643 881.303 31.9888 881.426 32.0383C881.549 32.0879 881.661 32.1615 881.756 32.2548C881.85 32.3482 881.925 32.4594 881.976 32.582C882.027 32.7046 882.053 32.8361 882.053 32.9689C882.053 33.1017 882.026 33.233 881.974 33.3554C881.922 33.4777 881.847 33.5885 881.752 33.6813L877.776 37.7049C877.589 37.8935 877.336 38.0003 877.07 38.0019C876.805 38.0034 876.55 37.8996 876.362 37.7133L872.338 33.7371C872.15 33.5506 872.043 33.297 872.041 33.0318C872.04 32.7666 872.143 32.5117 872.33 32.3231Z" fill="#0B2C4C"/>
<path d="M923.975 28.996C924.103 28.9747 924.237 28.9587 924.375 28.948C924.514 28.9373 924.653 28.932 924.791 28.932C924.93 28.932 925.069 28.9373 925.207 28.948C925.346 28.9587 925.479 28.9747 925.607 28.996V40.5C925.479 40.5213 925.346 40.5373 925.207 40.548C925.079 40.5587 924.941 40.564 924.791 40.564C924.653 40.564 924.509 40.5587 924.359 40.548C924.221 40.5373 924.093 40.5213 923.975 40.5V28.996ZM928.301 32.292C928.418 32.2707 928.53 32.2547 928.637 32.244C928.754 32.2333 928.871 32.228 928.989 32.228C929.106 32.228 929.213 32.2333 929.309 32.244C929.415 32.2547 929.527 32.2707 929.645 32.292C929.677 32.452 929.709 32.6707 929.741 32.948C929.773 33.2147 929.789 33.4387 929.789 33.62C929.895 33.4387 930.029 33.2573 930.189 33.076C930.359 32.8947 930.551 32.7347 930.765 32.596C930.978 32.4467 931.223 32.3293 931.501 32.244C931.778 32.148 932.082 32.1 932.413 32.1C933.351 32.1 934.045 32.372 934.493 32.916C934.941 33.4493 935.165 34.244 935.165 35.3V40.5C935.047 40.5213 934.914 40.5373 934.765 40.548C934.615 40.5587 934.482 40.564 934.365 40.564C934.247 40.564 934.114 40.5587 933.965 40.548C933.826 40.5373 933.698 40.5213 933.581 40.5V35.732C933.581 34.9747 933.463 34.42 933.229 34.068C932.994 33.7053 932.621 33.524 932.109 33.524C931.81 33.524 931.527 33.5773 931.261 33.684C930.994 33.7907 930.759 33.956 930.557 34.18C930.354 34.404 930.189 34.6973 930.061 35.06C929.943 35.412 929.885 35.8387 929.885 36.34V40.5C929.767 40.5213 929.634 40.5373 929.485 40.548C929.346 40.5587 929.218 40.564 929.101 40.564C928.983 40.564 928.85 40.5587 928.701 40.548C928.551 40.5373 928.418 40.5213 928.301 40.5V32.292ZM938.031 33.54H936.991C936.969 33.4547 936.953 33.3587 936.943 33.252C936.932 33.1347 936.927 33.0227 936.927 32.916C936.927 32.8093 936.932 32.7027 936.943 32.596C936.953 32.4787 936.969 32.3773 936.991 32.292H939.583V40.5C939.465 40.5213 939.332 40.5373 939.183 40.548C939.044 40.5587 938.916 40.564 938.799 40.564C938.692 40.564 938.564 40.5587 938.415 40.548C938.276 40.5373 938.148 40.5213 938.031 40.5V33.54ZM937.679 30.484C937.657 30.356 937.641 30.2173 937.631 30.068C937.631 29.9187 937.631 29.7853 937.631 29.668C937.631 29.5507 937.631 29.4173 937.631 29.268C937.641 29.1187 937.657 28.9853 937.679 28.868C937.817 28.8467 937.967 28.8307 938.127 28.82C938.287 28.8093 938.425 28.804 938.543 28.804C938.66 28.804 938.799 28.8093 938.959 28.82C939.119 28.8307 939.263 28.8467 939.391 28.868C939.412 28.9853 939.423 29.1187 939.423 29.268C939.433 29.4173 939.439 29.5507 939.439 29.668C939.439 29.7853 939.433 29.9187 939.423 30.068C939.423 30.2173 939.412 30.356 939.391 30.484C939.263 30.5053 939.119 30.5213 938.959 30.532C938.809 30.5427 938.676 30.548 938.559 30.548C938.431 30.548 938.287 30.5427 938.127 30.532C937.967 30.5213 937.817 30.5053 937.679 30.484ZM947.632 39.076C947.717 39.2253 947.792 39.412 947.856 39.636C947.92 39.86 947.957 40.0893 947.968 40.324C947.339 40.5693 946.619 40.692 945.808 40.692C944.443 40.692 943.413 40.308 942.72 39.54C942.027 38.7613 941.68 37.716 941.68 36.404C941.68 35.796 941.765 35.2307 941.936 34.708C942.107 34.1853 942.357 33.732 942.688 33.348C943.029 32.964 943.451 32.66 943.952 32.436C944.453 32.212 945.035 32.1 945.696 32.1C946.144 32.1 946.539 32.1267 946.88 32.18C947.221 32.2333 947.547 32.3187 947.856 32.436C947.856 32.6173 947.829 32.8307 947.776 33.076C947.733 33.3107 947.669 33.5187 947.584 33.7C947.061 33.5187 946.464 33.428 945.792 33.428C944.971 33.428 944.357 33.7 943.952 34.244C943.547 34.788 943.344 35.508 943.344 36.404C943.344 37.428 943.573 38.18 944.032 38.66C944.491 39.1293 945.12 39.364 945.92 39.364C946.24 39.364 946.533 39.3427 946.8 39.3C947.077 39.2573 947.355 39.1827 947.632 39.076ZM950.281 33.54H949.241C949.219 33.4547 949.203 33.3587 949.193 33.252C949.182 33.1347 949.177 33.0227 949.177 32.916C949.177 32.8093 949.182 32.7027 949.193 32.596C949.203 32.4787 949.219 32.3773 949.241 32.292H951.833V40.5C951.715 40.5213 951.582 40.5373 951.433 40.548C951.294 40.5587 951.166 40.564 951.049 40.564C950.942 40.564 950.814 40.5587 950.665 40.548C950.526 40.5373 950.398 40.5213 950.281 40.5V33.54ZM949.929 30.484C949.907 30.356 949.891 30.2173 949.881 30.068C949.881 29.9187 949.881 29.7853 949.881 29.668C949.881 29.5507 949.881 29.4173 949.881 29.268C949.891 29.1187 949.907 28.9853 949.929 28.868C950.067 28.8467 950.217 28.8307 950.377 28.82C950.537 28.8093 950.675 28.804 950.793 28.804C950.91 28.804 951.049 28.8093 951.209 28.82C951.369 28.8307 951.513 28.8467 951.641 28.868C951.662 28.9853 951.673 29.1187 951.673 29.268C951.683 29.4173 951.689 29.5507 951.689 29.668C951.689 29.7853 951.683 29.9187 951.673 30.068C951.673 30.2173 951.662 30.356 951.641 30.484C951.513 30.5053 951.369 30.5213 951.209 30.532C951.059 30.5427 950.926 30.548 950.809 30.548C950.681 30.548 950.537 30.5427 950.377 30.532C950.217 30.5213 950.067 30.5053 949.929 30.484ZM958.746 36.644C958.586 36.6227 958.383 36.6013 958.138 36.58C957.893 36.5587 957.685 36.548 957.514 36.548C956.853 36.548 956.346 36.6707 955.994 36.916C955.653 37.1613 955.482 37.5347 955.482 38.036C955.482 38.356 955.541 38.6067 955.658 38.788C955.775 38.9693 955.919 39.108 956.09 39.204C956.271 39.3 956.469 39.3587 956.682 39.38C956.895 39.4013 957.098 39.412 957.29 39.412C957.535 39.412 957.786 39.4013 958.042 39.38C958.309 39.348 958.543 39.3053 958.746 39.252V36.644ZM958.746 35.092C958.746 34.4627 958.586 34.0253 958.266 33.78C957.946 33.5347 957.482 33.412 956.874 33.412C956.501 33.412 956.149 33.444 955.818 33.508C955.498 33.5613 955.183 33.636 954.874 33.732C954.671 33.38 954.57 32.9587 954.57 32.468C954.933 32.3507 955.333 32.26 955.77 32.196C956.207 32.132 956.629 32.1 957.034 32.1C958.101 32.1 958.911 32.3453 959.466 32.836C960.021 33.316 960.298 34.0893 960.298 35.156V40.292C959.925 40.3773 959.471 40.4627 958.938 40.548C958.405 40.644 957.861 40.692 957.306 40.692C956.783 40.692 956.309 40.644 955.882 40.548C955.466 40.452 955.109 40.2973 954.81 40.084C954.522 39.8707 954.298 39.5987 954.138 39.268C953.978 38.9373 953.898 38.5373 953.898 38.068C953.898 37.6093 953.989 37.2093 954.17 36.868C954.362 36.516 954.618 36.228 954.938 36.004C955.258 35.7693 955.626 35.5987 956.042 35.492C956.458 35.3747 956.895 35.316 957.354 35.316C957.695 35.316 957.973 35.3267 958.186 35.348C958.41 35.3587 958.597 35.3747 958.746 35.396V35.092ZM962.676 32.292C962.793 32.2707 962.905 32.2547 963.012 32.244C963.118 32.2333 963.23 32.228 963.348 32.228C963.465 32.228 963.582 32.2333 963.7 32.244C963.817 32.2547 963.924 32.2707 964.02 32.292C964.052 32.452 964.084 32.6653 964.116 32.932C964.148 33.188 964.164 33.4067 964.164 33.588C964.388 33.2253 964.681 32.9107 965.044 32.644C965.417 32.3773 965.892 32.244 966.468 32.244C966.553 32.244 966.638 32.2493 966.724 32.26C966.82 32.26 966.9 32.2653 966.964 32.276C966.985 32.372 967.001 32.4733 967.012 32.58C967.022 32.6867 967.028 32.7987 967.028 32.916C967.028 33.044 967.017 33.1773 966.996 33.316C966.985 33.4547 966.969 33.588 966.948 33.716C966.862 33.6947 966.772 33.684 966.676 33.684C966.59 33.684 966.521 33.684 966.468 33.684C966.18 33.684 965.902 33.7267 965.636 33.812C965.38 33.8867 965.145 34.0253 964.932 34.228C964.729 34.4307 964.564 34.708 964.436 35.06C964.318 35.412 964.26 35.8653 964.26 36.42V40.5C964.142 40.5213 964.009 40.5373 963.86 40.548C963.721 40.5587 963.593 40.564 963.476 40.564C963.358 40.564 963.225 40.5587 963.076 40.548C962.937 40.5373 962.804 40.5213 962.676 40.5V32.292ZM972.282 39.012C972.57 39.1293 972.884 39.2253 973.226 39.3C973.578 39.364 973.924 39.396 974.266 39.396C974.511 39.396 974.746 39.3693 974.97 39.316C975.194 39.2627 975.386 39.1827 975.546 39.076C975.716 38.9693 975.85 38.8413 975.946 38.692C976.052 38.532 976.106 38.356 976.106 38.164C976.106 37.9507 976.063 37.7747 975.978 37.636C975.903 37.4973 975.796 37.38 975.658 37.284C975.53 37.188 975.375 37.108 975.194 37.044C975.023 36.9693 974.836 36.9 974.634 36.836L974.074 36.628C973.391 36.372 972.895 36.084 972.586 35.764C972.276 35.444 972.122 35.012 972.122 34.468C972.122 33.7427 972.378 33.1667 972.89 32.74C973.412 32.3133 974.175 32.1 975.178 32.1C975.594 32.1 975.999 32.1427 976.394 32.228C976.799 32.3027 977.151 32.3933 977.45 32.5C977.428 32.7133 977.386 32.9267 977.322 33.14C977.268 33.3533 977.199 33.5507 977.114 33.732C976.879 33.6467 976.596 33.5667 976.266 33.492C975.946 33.4067 975.599 33.364 975.226 33.364C974.831 33.364 974.479 33.4333 974.17 33.572C973.871 33.7107 973.722 33.956 973.722 34.308C973.722 34.4893 973.759 34.644 973.834 34.772C973.908 34.9 974.01 35.012 974.138 35.108C974.266 35.1933 974.41 35.268 974.57 35.332C974.74 35.396 974.922 35.46 975.114 35.524L975.818 35.764C976.074 35.8493 976.314 35.9507 976.538 36.068C976.772 36.1853 976.97 36.3347 977.13 36.516C977.3 36.6867 977.434 36.9 977.53 37.156C977.636 37.4013 977.69 37.7 977.69 38.052C977.69 38.4467 977.61 38.8093 977.45 39.14C977.29 39.46 977.06 39.7373 976.762 39.972C976.474 40.196 976.122 40.372 975.706 40.5C975.29 40.628 974.831 40.692 974.33 40.692C973.818 40.692 973.37 40.6547 972.986 40.58C972.602 40.516 972.244 40.4253 971.914 40.308C971.935 40.0947 971.978 39.8813 972.042 39.668C972.116 39.444 972.196 39.2253 972.282 39.012ZM980.891 36.788C980.912 37.684 981.141 38.34 981.579 38.756C982.027 39.172 982.683 39.38 983.547 39.38C984.304 39.38 985.024 39.2467 985.707 38.98C985.792 39.14 985.861 39.3373 985.915 39.572C985.968 39.796 986 40.02 986.011 40.244C985.659 40.3933 985.269 40.5053 984.843 40.58C984.427 40.6547 983.963 40.692 983.451 40.692C982.704 40.692 982.064 40.5907 981.531 40.388C980.997 40.1747 980.555 39.8813 980.203 39.508C979.861 39.124 979.611 38.676 979.451 38.164C979.291 37.6413 979.211 37.0707 979.211 36.452C979.211 35.844 979.285 35.2787 979.435 34.756C979.595 34.2227 979.835 33.764 980.155 33.38C980.475 32.9853 980.875 32.676 981.355 32.452C981.845 32.2173 982.421 32.1 983.083 32.1C983.648 32.1 984.144 32.196 984.571 32.388C984.997 32.58 985.355 32.8467 985.643 33.188C985.931 33.5187 986.149 33.9187 986.299 34.388C986.448 34.8467 986.523 35.348 986.523 35.892C986.523 36.0413 986.517 36.2013 986.507 36.372C986.496 36.532 986.485 36.6707 986.475 36.788H980.891ZM984.955 35.604C984.955 35.3053 984.912 35.0227 984.827 34.756C984.752 34.4787 984.635 34.2387 984.475 34.036C984.325 33.8333 984.128 33.6733 983.883 33.556C983.648 33.428 983.365 33.364 983.035 33.364C982.384 33.364 981.883 33.5613 981.531 33.956C981.189 34.3507 980.981 34.9 980.907 35.604H984.955ZM988.453 39.012C988.741 39.1293 989.056 39.2253 989.397 39.3C989.749 39.364 990.096 39.396 990.437 39.396C990.683 39.396 990.917 39.3693 991.141 39.316C991.365 39.2627 991.557 39.1827 991.717 39.076C991.888 38.9693 992.021 38.8413 992.117 38.692C992.224 38.532 992.277 38.356 992.277 38.164C992.277 37.9507 992.235 37.7747 992.149 37.636C992.075 37.4973 991.968 37.38 991.829 37.284C991.701 37.188 991.547 37.108 991.365 37.044C991.195 36.9693 991.008 36.9 990.805 36.836L990.245 36.628C989.563 36.372 989.067 36.084 988.757 35.764C988.448 35.444 988.293 35.012 988.293 34.468C988.293 33.7427 988.549 33.1667 989.061 32.74C989.584 32.3133 990.347 32.1 991.349 32.1C991.765 32.1 992.171 32.1427 992.565 32.228C992.971 32.3027 993.323 32.3933 993.621 32.5C993.6 32.7133 993.557 32.9267 993.493 33.14C993.44 33.3533 993.371 33.5507 993.285 33.732C993.051 33.6467 992.768 33.5667 992.437 33.492C992.117 33.4067 991.771 33.364 991.397 33.364C991.003 33.364 990.651 33.4333 990.341 33.572C990.043 33.7107 989.893 33.956 989.893 34.308C989.893 34.4893 989.931 34.644 990.005 34.772C990.08 34.9 990.181 35.012 990.309 35.108C990.437 35.1933 990.581 35.268 990.741 35.332C990.912 35.396 991.093 35.46 991.285 35.524L991.989 35.764C992.245 35.8493 992.485 35.9507 992.709 36.068C992.944 36.1853 993.141 36.3347 993.301 36.516C993.472 36.6867 993.605 36.9 993.701 37.156C993.808 37.4013 993.861 37.7 993.861 38.052C993.861 38.4467 993.781 38.8093 993.621 39.14C993.461 39.46 993.232 39.7373 992.933 39.972C992.645 40.196 992.293 40.372 991.877 40.5C991.461 40.628 991.003 40.692 990.501 40.692C989.989 40.692 989.541 40.6547 989.157 40.58C988.773 40.516 988.416 40.4253 988.085 40.308C988.107 40.0947 988.149 39.8813 988.213 39.668C988.288 39.444 988.368 39.2253 988.453 39.012ZM996.359 33.54H995.319C995.297 33.4547 995.281 33.3587 995.271 33.252C995.26 33.1347 995.255 33.0227 995.255 32.916C995.255 32.8093 995.26 32.7027 995.271 32.596C995.281 32.4787 995.297 32.3773 995.319 32.292H997.911V40.5C997.793 40.5213 997.66 40.5373 997.511 40.548C997.372 40.5587 997.244 40.564 997.127 40.564C997.02 40.564 996.892 40.5587 996.743 40.548C996.604 40.5373 996.476 40.5213 996.359 40.5V33.54ZM996.007 30.484C995.985 30.356 995.969 30.2173 995.959 30.068C995.959 29.9187 995.959 29.7853 995.959 29.668C995.959 29.5507 995.959 29.4173 995.959 29.268C995.969 29.1187 995.985 28.9853 996.007 28.868C996.145 28.8467 996.295 28.8307 996.455 28.82C996.615 28.8093 996.753 28.804 996.871 28.804C996.988 28.804 997.127 28.8093 997.287 28.82C997.447 28.8307 997.591 28.8467 997.719 28.868C997.74 28.9853 997.751 29.1187 997.751 29.268C997.761 29.4173 997.767 29.5507 997.767 29.668C997.767 29.7853 997.761 29.9187 997.751 30.068C997.751 30.2173 997.74 30.356 997.719 30.484C997.591 30.5053 997.447 30.5213 997.287 30.532C997.137 30.5427 997.004 30.548 996.887 30.548C996.759 30.548 996.615 30.5427 996.455 30.532C996.295 30.5213 996.145 30.5053 996.007 30.484ZM1003.82 40.692C1003.18 40.692 1002.62 40.5853 1002.14 40.372C1001.66 40.148 1001.26 39.844 1000.94 39.46C1000.62 39.076 1000.38 38.6227 1000.22 38.1C1000.07 37.5773 999.992 37.012 999.992 36.404C999.992 35.796 1000.07 35.2307 1000.22 34.708C1000.38 34.1853 1000.62 33.732 1000.94 33.348C1001.26 32.964 1001.66 32.66 1002.14 32.436C1002.62 32.212 1003.18 32.1 1003.82 32.1C1004.46 32.1 1005.02 32.212 1005.5 32.436C1005.98 32.66 1006.38 32.964 1006.7 33.348C1007.02 33.732 1007.25 34.1853 1007.4 34.708C1007.56 35.2307 1007.64 35.796 1007.64 36.404C1007.64 37.012 1007.56 37.5773 1007.4 38.1C1007.25 38.6227 1007.02 39.076 1006.7 39.46C1006.38 39.844 1005.98 40.148 1005.5 40.372C1005.02 40.5853 1004.46 40.692 1003.82 40.692ZM1003.82 39.428C1004.55 39.428 1005.1 39.1613 1005.45 38.628C1005.8 38.0947 1005.98 37.3533 1005.98 36.404C1005.98 35.4547 1005.8 34.7187 1005.45 34.196C1005.1 33.6627 1004.55 33.396 1003.82 33.396C1003.08 33.396 1002.54 33.6627 1002.18 34.196C1001.84 34.7187 1001.67 35.4547 1001.67 36.404C1001.67 37.3533 1001.84 38.0947 1002.18 38.628C1002.54 39.1613 1003.08 39.428 1003.82 39.428ZM1003.91 30.996C1003.79 31.0173 1003.67 31.0333 1003.53 31.044C1003.39 31.0547 1003.23 31.06 1003.06 31.06C1002.95 31.06 1002.82 31.0547 1002.7 31.044C1002.58 31.0333 1002.46 31.0173 1002.33 30.996L1004.17 28.964C1004.33 28.9427 1004.49 28.9267 1004.66 28.916C1004.83 28.9053 1005.01 28.9 1005.19 28.9C1005.38 28.9 1005.56 28.9053 1005.72 28.916C1005.88 28.9267 1006.03 28.9427 1006.18 28.964L1003.91 30.996ZM1009.72 32.292C1009.84 32.2707 1009.95 32.2547 1010.06 32.244C1010.18 32.2333 1010.29 32.228 1010.41 32.228C1010.53 32.228 1010.63 32.2333 1010.73 32.244C1010.84 32.2547 1010.95 32.2707 1011.07 32.292C1011.1 32.452 1011.13 32.6707 1011.16 32.948C1011.19 33.2147 1011.21 33.4387 1011.21 33.62C1011.32 33.4387 1011.45 33.2573 1011.61 33.076C1011.78 32.8947 1011.97 32.7347 1012.19 32.596C1012.4 32.4467 1012.65 32.3293 1012.92 32.244C1013.2 32.148 1013.5 32.1 1013.83 32.1C1014.77 32.1 1015.47 32.372 1015.91 32.916C1016.36 33.4493 1016.59 34.244 1016.59 35.3V40.5C1016.47 40.5213 1016.34 40.5373 1016.19 40.548C1016.04 40.5587 1015.9 40.564 1015.79 40.564C1015.67 40.564 1015.54 40.5587 1015.39 40.548C1015.25 40.5373 1015.12 40.5213 1015 40.5V35.732C1015 34.9747 1014.89 34.42 1014.65 34.068C1014.42 33.7053 1014.04 33.524 1013.53 33.524C1013.23 33.524 1012.95 33.5773 1012.68 33.684C1012.42 33.7907 1012.18 33.956 1011.98 34.18C1011.78 34.404 1011.61 34.6973 1011.48 35.06C1011.37 35.412 1011.31 35.8387 1011.31 36.34V40.5C1011.19 40.5213 1011.06 40.5373 1010.91 40.548C1010.77 40.5587 1010.64 40.564 1010.52 40.564C1010.41 40.564 1010.27 40.5587 1010.12 40.548C1009.97 40.5373 1009.84 40.5213 1009.72 40.5V32.292Z" fill="#0B2C4C"/>
<path d="M1055.52 35C1055.52 36.3202 1054.45 37.3906 1053.13 37.3906C1051.81 37.3906 1050.74 36.3202 1050.74 35C1050.74 33.6798 1051.81 32.6094 1053.13 32.6094C1054.45 32.6094 1055.52 33.6798 1055.52 35Z" fill="#0B2C4C"/>
<path d="M1057.17 27.7754H1049.09C1047.33 27.7754 1045.9 29.2052 1045.9 30.9629V39.0379C1045.9 40.7956 1047.33 42.2254 1049.09 42.2254H1057.17C1058.92 42.2254 1060.35 40.7956 1060.35 39.0379V30.9629C1060.35 29.2052 1058.92 27.7754 1057.17 27.7754ZM1053.13 38.9848C1050.93 38.9848 1049.15 37.1974 1049.15 35.0004C1049.15 32.8034 1050.93 31.016 1053.13 31.016C1055.33 31.016 1057.11 32.8034 1057.11 35.0004C1057.11 37.1974 1055.33 38.9848 1053.13 38.9848ZM1057.7 31.2285C1057.26 31.2285 1056.9 30.8718 1056.9 30.4316C1056.9 29.9915 1057.26 29.6348 1057.7 29.6348C1058.14 29.6348 1058.5 29.9915 1058.5 30.4316C1058.5 30.8718 1058.14 31.2285 1057.7 31.2285Z" fill="#0B2C4C"/>
<path d="M1059.56 21.4004H1046.7C1042.75 21.4004 1039.53 24.6178 1039.53 28.5723V41.4285C1039.53 45.383 1042.75 48.6004 1046.7 48.6004H1059.56C1063.51 48.6004 1066.73 45.383 1066.73 41.4285V28.5723C1066.73 24.6178 1063.51 21.4004 1059.56 21.4004ZM1061.95 39.0379C1061.95 41.6742 1059.8 43.8191 1057.17 43.8191H1049.09C1046.46 43.8191 1044.31 41.6742 1044.31 39.0379V30.9629C1044.31 28.3266 1046.46 26.1816 1049.09 26.1816H1057.17C1059.8 26.1816 1061.95 28.3266 1061.95 30.9629V39.0379Z" fill="#0B2C4C"/>
<path d="M1116.75 21.4004H1097.51C1095.32 21.4004 1093.53 23.188 1093.53 25.3848V44.616C1093.53 46.8128 1095.32 48.6004 1097.51 48.6004H1105.54V38.9848H1102.35V34.2035H1105.54V30.9629C1105.54 28.3264 1107.68 26.1816 1110.32 26.1816H1115.15V30.9629H1110.32V34.2035H1115.15L1114.35 38.9848H1110.32V48.6004H1116.75C1118.94 48.6004 1120.73 46.8128 1120.73 44.616V25.3848C1120.73 23.188 1118.94 21.4004 1116.75 21.4004Z" fill="#0B2C4C"/>
<path fill-rule="evenodd" clip-rule="evenodd" d="M1147.63 27.4491V42.5509C1147.63 45.6469 1150.48 48.5 1153.58 48.5H1168.68C1171.78 48.5 1174.63 45.6469 1174.63 42.5509V27.4491C1174.63 24.3531 1171.78 21.5 1168.68 21.5H1153.58C1150.48 21.5 1147.63 24.3531 1147.63 27.4491ZM1168.05 27.6592L1162.73 33.7345L1169.24 42.3413H1164.33L1160.19 37.0096L1155.52 42.3413H1153.62L1159.31 35.7955L1153.05 27.6592H1158.08L1161.84 32.5205L1166.09 27.6592H1168.05ZM1156.06 29.2144L1164.84 40.7236H1166.29L1157.52 29.2144H1156.06Z" fill="#0B2C4C"/>
<path d="M1210.23 23.6992C1209.91 23.6992 1209.61 23.8256 1209.38 24.0507C1209.16 24.2757 1209.03 24.581 1209.03 24.8992C1209.03 25.2175 1209.16 25.5227 1209.38 25.7477C1209.61 25.9728 1209.91 26.0992 1210.23 26.0992H1211.69L1212.06 27.5656C1212.06 27.5825 1212.07 27.5993 1212.07 27.616L1213.7 34.132L1212.63 35.2024C1211.12 36.7144 1212.19 39.2992 1214.33 39.2992H1224.63C1224.95 39.2992 1225.25 39.1728 1225.48 38.9477C1225.7 38.7227 1225.83 38.4175 1225.83 38.0992C1225.83 37.781 1225.7 37.4757 1225.48 37.2507C1225.25 37.0256 1224.95 36.8992 1224.63 36.8992H1214.33L1215.53 35.6992H1223.43C1223.65 35.6991 1223.87 35.637 1224.06 35.5198C1224.25 35.4026 1224.4 35.2349 1224.5 35.0356L1228.1 27.8356C1228.19 27.6527 1228.24 27.4495 1228.23 27.2452C1228.22 27.041 1228.16 26.8424 1228.05 26.6685C1227.94 26.4945 1227.79 26.3509 1227.61 26.2513C1227.44 26.1517 1227.23 26.0993 1227.03 26.0992H1214.17L1213.79 24.6076C1213.73 24.3481 1213.58 24.1178 1213.37 23.9532C1213.16 23.7886 1212.9 23.6992 1212.63 23.6992H1210.23ZM1225.83 42.2992C1225.83 42.7766 1225.64 43.2344 1225.3 43.572C1224.97 43.9096 1224.51 44.0992 1224.03 44.0992C1223.55 44.0992 1223.09 43.9096 1222.76 43.572C1222.42 43.2344 1222.23 42.7766 1222.23 42.2992C1222.23 41.8218 1222.42 41.364 1222.76 41.0264C1223.09 40.6889 1223.55 40.4992 1224.03 40.4992C1224.51 40.4992 1224.97 40.6889 1225.3 41.0264C1225.64 41.364 1225.83 41.8218 1225.83 42.2992ZM1214.43 44.0992C1214.91 44.0992 1215.37 43.9096 1215.7 43.572C1216.04 43.2344 1216.23 42.7766 1216.23 42.2992C1216.23 41.8218 1216.04 41.364 1215.7 41.0264C1215.37 40.6889 1214.91 40.4992 1214.43 40.4992C1213.95 40.4992 1213.49 40.6889 1213.16 41.0264C1212.82 41.364 1212.63 41.8218 1212.63 42.2992C1212.63 42.7766 1212.82 43.2344 1213.16 43.572C1213.49 43.9096 1213.95 44.0992 1214.43 44.0992Z" fill="#0B2C4C"/>
<path d="M1239.46 42.672C1239.21 42.3093 1238.97 41.8667 1238.74 41.344C1238.52 40.832 1238.31 40.256 1238.13 39.616C1237.95 38.976 1237.8 38.2827 1237.68 37.536C1237.58 36.7787 1237.52 35.9787 1237.52 35.136C1237.52 34.2933 1237.58 33.4933 1237.68 32.736C1237.8 31.9787 1237.95 31.28 1238.13 30.64C1238.31 30 1238.52 29.424 1238.74 28.912C1238.97 28.4 1239.21 27.9573 1239.46 27.584C1239.54 27.5627 1239.65 27.5467 1239.78 27.536C1239.92 27.5253 1240.06 27.52 1240.21 27.52C1240.36 27.52 1240.5 27.5253 1240.64 27.536C1240.78 27.5467 1240.91 27.5627 1241.03 27.584C1240.9 27.808 1240.73 28.1387 1240.52 28.576C1240.3 29.0027 1240.09 29.536 1239.88 30.176C1239.67 30.8053 1239.5 31.536 1239.35 32.368C1239.2 33.1893 1239.12 34.112 1239.12 35.136C1239.12 36.1493 1239.2 37.072 1239.35 37.904C1239.5 38.736 1239.67 39.4667 1239.88 40.096C1240.09 40.7253 1240.3 41.2533 1240.52 41.68C1240.73 42.1173 1240.9 42.448 1241.03 42.672C1240.91 42.6933 1240.78 42.7093 1240.63 42.72C1240.48 42.7307 1240.33 42.736 1240.18 42.736C1240.04 42.736 1239.91 42.7307 1239.78 42.72C1239.65 42.7093 1239.54 42.6933 1239.46 42.672ZM1246.67 29.52C1247.34 29.52 1247.92 29.6533 1248.43 29.92C1248.94 30.1867 1249.36 30.56 1249.69 31.04C1250.03 31.5093 1250.28 32.0693 1250.44 32.72C1250.61 33.3707 1250.7 34.0853 1250.7 34.864C1250.7 35.632 1250.61 36.3467 1250.44 37.008C1250.27 37.6587 1250.01 38.2187 1249.67 38.688C1249.34 39.1573 1248.92 39.5253 1248.41 39.792C1247.9 40.0587 1247.31 40.192 1246.63 40.192C1245.96 40.192 1245.37 40.0587 1244.87 39.792C1244.37 39.5253 1243.95 39.1573 1243.61 38.688C1243.28 38.2187 1243.03 37.6587 1242.86 37.008C1242.7 36.3467 1242.62 35.632 1242.62 34.864C1242.62 34.0853 1242.7 33.3707 1242.87 32.72C1243.04 32.0693 1243.29 31.5093 1243.63 31.04C1243.97 30.56 1244.39 30.1867 1244.89 29.92C1245.4 29.6533 1245.99 29.52 1246.67 29.52ZM1246.65 30.928C1245.91 30.928 1245.34 31.2533 1244.92 31.904C1244.51 32.5547 1244.3 33.5413 1244.3 34.864C1244.3 36.1867 1244.51 37.1733 1244.92 37.824C1245.34 38.464 1245.91 38.784 1246.65 38.784C1247.39 38.784 1247.96 38.464 1248.36 37.824C1248.77 37.1733 1248.97 36.1867 1248.97 34.864C1248.97 33.5413 1248.77 32.5547 1248.36 31.904C1247.96 31.2533 1247.39 30.928 1246.65 30.928ZM1252.23 42.672C1252.35 42.448 1252.53 42.1173 1252.74 41.68C1252.95 41.2533 1253.16 40.7253 1253.36 40.096C1253.58 39.4667 1253.76 38.736 1253.91 37.904C1254.06 37.072 1254.13 36.1493 1254.13 35.136C1254.13 34.112 1254.06 33.1893 1253.91 32.368C1253.76 31.536 1253.58 30.8053 1253.36 30.176C1253.16 29.536 1252.95 29.0027 1252.74 28.576C1252.53 28.1387 1252.35 27.808 1252.23 27.584C1252.34 27.5627 1252.47 27.5467 1252.61 27.536C1252.75 27.5253 1252.89 27.52 1253.04 27.52C1253.19 27.52 1253.33 27.5253 1253.46 27.536C1253.6 27.5467 1253.71 27.5627 1253.79 27.584C1254.03 27.9573 1254.26 28.4 1254.5 28.912C1254.73 29.424 1254.94 30 1255.12 30.64C1255.3 31.28 1255.45 31.9787 1255.55 32.736C1255.67 33.4933 1255.73 34.2933 1255.73 35.136C1255.73 35.9787 1255.67 36.7787 1255.55 37.536C1255.45 38.2827 1255.3 38.976 1255.12 39.616C1254.94 40.256 1254.73 40.832 1254.5 41.344C1254.26 41.8667 1254.03 42.3093 1253.79 42.672C1253.71 42.6933 1253.6 42.7093 1253.47 42.72C1253.35 42.7307 1253.21 42.736 1253.07 42.736C1252.93 42.736 1252.78 42.7307 1252.63 42.72C1252.48 42.7093 1252.34 42.6933 1252.23 42.672Z" fill="#0B2C4C"/>
</g>
<defs>
<filter id="filter0_d_62364_68431" x="0" y="0" width="1288.13" height="78" filterUnits="userSpaceOnUse" color-interpolation-filters="sRGB">
<feFlood flood-opacity="0" result="BackgroundImageFix"/>
<feColorMatrix in="SourceAlpha" type="matrix" values="0 0 0 0 0 0 0 0 0 0 0 0 0 0 0 0 0 0 127 0" result="hardAlpha"/>
<feOffset dy="4"/>
<feGaussianBlur stdDeviation="2"/>
<feComposite in2="hardAlpha" operator="out"/>
<feColorMatrix type="matrix" values="0 0 0 0 0 0 0 0 0 0 0 0 0 0 0 0 0 0 0.25 0"/>
<feBlend mode="normal" in2="BackgroundImageFix" result="effect1_dropShadow_62364_68431"/>
<feBlend mode="normal" in="SourceGraphic" in2="effect1_dropShadow_62364_68431" result="shape"/>
</filter>
</defs>
</svg>
